<?xml version="1.0" encoding="utf-8"?>
<!-- Generator: Adobe Illustrator 16.0.0, SVG Export Plug-In . SVG Version: 6.00 Build 0)  -->
<!DOCTYPE svg PUBLIC "-//W3C//DTD SVG 1.1//EN" "http://www.w3.org/Graphics/SVG/1.1/DTD/svg11.dtd">
<svg version="1.1" id="Groupe" xmlns="http://www.w3.org/2000/svg" xmlns:xlink="http://www.w3.org/1999/xlink" x="0px" y="0px"
	 width="5.865px" height="5.646px" viewBox="3.739 3.454 5.865 5.646" enable-background="new 3.739 3.454 5.865 5.646"
	 xml:space="preserve">
<g id="PinColor_1_">
	<path id="PinMinimalGroup" fill="#FFFFFF" stroke="#848484" stroke-width="0.2" stroke-miterlimit="10" d="M9.3,6.212
		c0,1.199-0.859,2.205-2.017,2.47C7.088,8.726,6.248,8.726,6.047,8.676C4.902,8.404,4.052,7.404,4.052,6.211
		c0-1.401,1.175-2.538,2.624-2.538C8.124,3.673,9.3,4.811,9.3,6.212z"/>
	<path id="PinFaibleGroup" display="none" fill="#2ABF00" stroke="#1D7500" stroke-width="0.2" stroke-miterlimit="10" d="
		M9.3,6.212c0,1.199-0.859,2.205-2.017,2.47C7.088,8.726,6.248,8.726,6.047,8.676C4.902,8.404,4.052,7.404,4.052,6.211
		c0-1.401,1.175-2.538,2.624-2.538C8.124,3.673,9.3,4.811,9.3,6.212z"/>
	<path id="PinModereGroup" fill="#EDD600" stroke="#CE9D00" stroke-width="0.2" stroke-miterlimit="10" d="M9.3,6.212
		c0,1.199-0.859,2.205-2.017,2.47C7.088,8.726,6.248,8.726,6.047,8.676C4.902,8.404,4.052,7.404,4.052,6.211
		c0-1.401,1.175-2.538,2.624-2.538C8.124,3.673,9.3,4.811,9.3,6.212z"/>
	<path id="PinImportantGroup" display="none" fill="#FF8500" stroke="#BF3A00" stroke-width="0.2" stroke-miterlimit="10" d="
		M9.3,6.212c0,1.199-0.859,2.205-2.017,2.47C7.088,8.726,6.248,8.726,6.047,8.676C4.902,8.404,4.052,7.404,4.052,6.211
		c0-1.401,1.175-2.538,2.624-2.538C8.124,3.673,9.3,4.811,9.3,6.212z"/>
	<path id="PinEleveGroup" display="none" fill="#ED1C24" stroke="#BA1522" stroke-width="0.2" stroke-miterlimit="10" d="M9.3,6.212
		c0,1.199-0.859,2.205-2.017,2.47C7.088,8.726,6.248,8.726,6.047,8.676C4.902,8.404,4.052,7.404,4.052,6.211
		c0-1.401,1.175-2.538,2.624-2.538C8.124,3.673,9.3,4.811,9.3,6.212z"/>
	<path id="PinExtremeGroup" display="none" stroke="#333333" stroke-width="0.2" stroke-miterlimit="10" d="M9.3,6.212
		c0,1.199-0.859,2.205-2.017,2.47C7.088,8.726,6.248,8.726,6.047,8.676C4.902,8.404,4.052,7.404,4.052,6.211
		c0-1.401,1.175-2.538,2.624-2.538C8.124,3.673,9.3,4.811,9.3,6.212z"/>
</g>
<g id="IconsGroup">
	<g id="MinimalGroup" display="none">
		<path id="ElectionGroup" display="inline" fill="#565656" d="M8.184,5.039L7.281,4.652C7.255,4.641,7.222,4.648,7.205,4.671
			L6.947,4.994C6.935,5.008,6.931,5.029,6.935,5.048C6.939,5.066,6.95,5.081,6.967,5.089l-0.81,0.304
			C6.089,5.418,6.031,5.467,5.993,5.529L5.726,5.975C5.669,6.07,5.664,6.186,5.714,6.285l0.019,0.038H5.45
			c-0.036,0-0.064,0.029-0.064,0.064v1.225H5.193c-0.036,0-0.064,0.029-0.064,0.064c0,0.036,0.029,0.065,0.064,0.065h2.192
			c0.035,0,0.063-0.029,0.063-0.065c0-0.035-0.028-0.064-0.063-0.064H7.191V6.954c0-0.022-0.012-0.043-0.029-0.054
			C7.143,6.887,7.119,6.886,7.099,6.896c-0.071,0.033-0.123,0.05-0.148,0.058C6.946,6.954,6.941,6.957,6.936,6.96l-0.42,0.251
			c-0.067,0.04-0.143,0.062-0.22,0.062c-0.144,0-0.276-0.071-0.358-0.192C5.873,6.984,5.851,6.868,5.875,6.754
			C5.899,6.64,5.967,6.543,6.064,6.48l0.061-0.039C6.17,6.415,6.21,6.39,6.245,6.368C6.27,6.353,6.281,6.322,6.273,6.294
			C6.257,6.242,6.231,6.196,6.205,6.161c0.099-0.042,0.232-0.119,0.299-0.197c0,0,0,0,0,0c0.015,0.008,0.031,0.018,0.05,0.027
			c0.001,0,0.001,0,0.003,0.001l0,0c0.048,0.023,0.108,0.047,0.179,0.06c-0.076,0.093-0.152,0.209-0.18,0.286
			C6.505,6.362,6.393,6.424,6.134,6.589C6.066,6.633,6.018,6.701,6.002,6.781C5.985,6.86,6,6.941,6.046,7.01
			c0.058,0.086,0.152,0.134,0.25,0.134c0.052,0,0.105-0.014,0.154-0.043l0.443-0.266c0.069-0.017,0.413-0.12,0.674-0.542
			c0.205-0.331,0.32-0.597,0.368-0.718l0.008,0.004C7.97,5.591,8,5.599,8.029,5.599c0.051,0,0.101-0.02,0.136-0.054
			c0.037-0.036,0.059-0.086,0.059-0.139V5.098C8.222,5.072,8.207,5.049,8.184,5.039z"/>
	</g>
	<g id="FaibleGroup" display="none">
		<path id="FamineGroup" display="inline" fill="#F9F9F9" d="M7.514,7.309l-0.49,0.093L6.225,6.967l0.291-0.362l0.654,0.217
			L7.514,7.309z M8.266,6.459v0.054L7.751,6.677L7.242,6.749L6.588,6.532L6.434,6.459h0.088C6.501,6.265,6.473,6.117,6.459,5.925h0
			C6.458,5.919,6.451,5.79,6.45,5.735C6.44,5.676,6.412,5.653,6.321,5.591c-0.05-0.032-0.087-0.043-0.107-0.043
			c-0.034,0-0.063,0.036-0.07,0.145c0.146,0.025,0.155,0.186,0.155,0.186C6.311,5.993,6.255,6.16,6.126,6.204
			c-0.239,0.079-0.215-0.381-0.08-0.492C6.05,5.579,6.087,5.457,6.214,5.452c0.05,0,0.101,0.021,0.16,0.058
			c0.028,0.017,0.051,0.034,0.071,0.052C6.443,5.519,6.44,5.474,6.44,5.428c0-0.097,0.015-0.202,0.101-0.277
			C6.585,5.11,6.634,5.089,6.684,5.09C6.811,5.096,6.89,5.207,6.936,5.319C6.99,5.295,7.057,5.284,7.135,5.311
			c0.197,0.068,0.303,0.411,0.221,0.531C7.161,6.12,6.673,5.602,6.802,5.42c0,0,0.019-0.025,0.052-0.052
			c-0.038-0.1-0.114-0.189-0.17-0.183c-0.022,0-0.048,0.008-0.08,0.036C6.55,5.27,6.535,5.338,6.535,5.428
			c0,0.063,0.008,0.133,0.008,0.203c0,0.037,0.002,0.069,0.003,0.104c0.009,0.063,0.01,0.11,0.009,0.176
			c0.014,0.192,0.091,0.35,0.113,0.548H8.266z M6.89,5.407L7.261,5.81C7.194,5.524,6.96,5.365,6.96,5.365L6.89,5.407z M6.123,5.753
			L6.057,5.78c0,0-0.033,0.226,0,0.343L6.123,5.753z M5.792,7.112l0.294-0.177l0.306-0.379L6.297,6.459H5.62L5.485,6.728
			L5.792,7.112z M6.135,7.051L5.614,7.406l0.069,0.086h1.199L6.878,7.475L6.135,7.051z M5.063,6.459v0.409l0.333-0.179l0.102-0.23
			H5.063z M7.339,6.836l0.323,0.469l0.604,0.143V6.911l-0.435-0.14L7.339,6.836z M8.266,6.794V6.605L7.927,6.696L8.266,6.794z
			 M5.406,6.821L5.063,6.983v0.509h0.25l0.373-0.305L5.406,6.821z M7.197,7.492h0.782l-0.373-0.09L7.197,7.492z"/>
		<path id="CycloneGroup" fill="#FFFFFF" d="M6.677,5.358c-0.017,0-0.033-0.002-0.05-0.002c-0.147,0-0.284,0.038-0.404,0.104
			c0.214-0.73,0.749-0.794,0.749-0.794S5.79,4.765,5.79,6.144c0.001,0,0.001,0,0.002,0C5.791,6.161,5.79,6.177,5.79,6.194
			c0,0.147,0.038,0.285,0.104,0.405C5.163,6.384,5.1,5.849,5.1,5.849s0.099,1.183,1.479,1.183c0-0.001,0-0.001,0-0.003
			C6.595,7.03,6.611,7.032,6.627,7.032c0.147,0,0.285-0.038,0.405-0.105c-0.215,0.731-0.75,0.794-0.75,0.794
			s1.183-0.098,1.183-1.478c-0.001,0-0.002,0-0.002,0c0-0.017,0.002-0.033,0.002-0.049c0-0.147-0.037-0.285-0.105-0.405
			c0.73,0.214,0.795,0.75,0.795,0.75S8.058,5.356,6.677,5.356C6.677,5.357,6.677,5.358,6.677,5.358z"/>
		<path id="eruptionGroup" fill="#FFFFFF" d="M6.861,5.624c0.176,0.06,0.41,0.131,0.46-0.153C7.36,5.25,7.654,5.332,7.779,5.318
			c0.229-0.027,0.056-0.454-0.229-0.46C7.261,4.851,7.129,4.979,7.013,5.241C6.959,5.367,6.912,5.462,6.707,5.394
			c-0.204-0.068-0.354,0.1-0.23,0.307c0.11,0.183-0.001,0.383-0.001,0.383h0.308c0,0-0.002-0.113-0.077-0.23
			C6.62,5.718,6.68,5.562,6.861,5.624z M5.228,7.53C6.02,6.952,6.219,6.154,6.219,6.154h0.815c0,0,0.198,0.798,0.991,1.376H5.228z"
			/>
		<path id="tsunamiGroup" fill="#FFFFFF" d="M8.114,7.167C5.679,7.305,6.36,5.444,6.99,5.604c-0.065,0.04-0.106,0.177-0.067,0.268
			c0.044,0.099,0.187,0.155,0.269,0.135c0.196-0.05,0.204-0.325,0.134-0.47C7.253,5.388,7.06,5.202,6.722,5.202
			c-0.814,0-1.371,0.416-1.58,1.131v1.052h2.972V7.167z"/>
		<path id="epidemieGroup" fill="#FFFFFF" d="M7.897,6.317c0-0.696-0.545-1.262-1.231-1.297c0.303,0.029,0.54,0.249,0.54,0.517
			c0,0.092-0.032,0.177-0.08,0.252C6.989,5.654,6.804,5.571,6.597,5.571c-0.206,0-0.392,0.083-0.527,0.218
			c-0.048-0.075-0.079-0.16-0.079-0.252c0-0.268,0.235-0.488,0.539-0.517C5.844,5.056,5.299,5.622,5.299,6.317
			c0,0.209,0.051,0.407,0.139,0.583C5.318,6.626,5.391,6.316,5.62,6.185c0.08-0.046,0.168-0.062,0.258-0.058
			C5.861,6.188,5.85,6.252,5.85,6.319c0,0.346,0.236,0.634,0.555,0.72C6.399,7.046,6.394,7.053,6.39,7.061c0,0,0,0.001,0,0.001
			c-0.011,0.024-0.024,0.043-0.04,0.06C6.316,7.167,6.277,7.207,6.226,7.235C5.996,7.368,5.69,7.276,5.513,7.031
			c0.232,0.354,0.631,0.587,1.085,0.587c0.45,0,0.845-0.229,1.08-0.576c-0.18,0.237-0.48,0.325-0.707,0.194
			C6.891,7.189,6.833,7.12,6.793,7.039c0.318-0.086,0.552-0.375,0.552-0.72c0-0.066-0.01-0.13-0.026-0.192
			c0.09-0.005,0.179,0.011,0.259,0.058c0.222,0.128,0.299,0.422,0.191,0.691C7.851,6.707,7.897,6.517,7.897,6.317z M6.736,6.817
			C6.73,6.709,6.753,6.596,6.807,6.488l-0.086-0.05C6.69,6.471,6.646,6.491,6.598,6.491s-0.092-0.02-0.124-0.052L6.39,6.487
			c0.054,0.108,0.077,0.222,0.071,0.331c-0.22-0.06-0.383-0.26-0.383-0.499c0-0.046,0.008-0.089,0.019-0.13
			c0.096,0.048,0.183,0.124,0.25,0.224l0.087-0.051C6.43,6.347,6.425,6.333,6.425,6.317c0-0.081,0.055-0.145,0.13-0.165v-0.1
			c-0.121-0.008-0.229-0.044-0.32-0.104C6.327,5.856,6.456,5.8,6.597,5.8s0.271,0.057,0.364,0.15c-0.091,0.059-0.2,0.096-0.32,0.104
			v0.1c0.074,0.02,0.13,0.084,0.13,0.165c0,0.016-0.005,0.03-0.009,0.044L6.85,6.413c0.066-0.1,0.154-0.175,0.248-0.224
			c0.011,0.042,0.02,0.084,0.02,0.129C7.117,6.558,6.955,6.757,6.736,6.817z"/>
		<path id="earthquakeGroup" fill="#FFFFFF" d="M7.493,6.286c-0.041,0-0.08,0.023-0.1,0.06L7.232,6.651l-0.2-0.586
			C7.016,6.021,6.976,5.991,6.929,5.989C6.88,5.988,6.839,6.015,6.821,6.059L6.684,6.384L6.467,5.086
			c-0.01-0.054-0.061-0.095-0.113-0.092C6.298,4.996,6.252,5.032,6.244,5.087L6.053,6.592L5.898,5.784
			C5.889,5.737,5.85,5.7,5.802,5.694C5.754,5.688,5.707,5.713,5.685,5.757L5.431,6.286H5.038v0.225h0.465
			c0.043,0,0.083-0.024,0.102-0.063l0.136-0.284l0.22,1.146C5.971,7.362,6.018,7.4,6.072,7.4c0.001,0,0.002,0,0.003,0
			c0.056-0.001,0.102-0.042,0.109-0.097l0.188-1.479L6.53,6.797C6.539,6.846,6.578,6.884,6.628,6.89
			c0.05,0.004,0.097-0.022,0.117-0.068l0.169-0.402l0.188,0.552c0.016,0.042,0.054,0.072,0.098,0.076
			c0.046,0.002,0.088-0.02,0.109-0.06l0.252-0.477h0.484V6.286H7.493z"/>
	</g>
	<g id="ModereGroup">
		<path id="displacedGroup" fill="#FFFFFF" d="M6.662,5.048c0.024,0.151-0.078,0.293-0.228,0.318
			C6.283,5.392,6.14,5.289,6.115,5.139C6.091,4.987,6.193,4.844,6.344,4.82C6.495,4.794,6.638,4.897,6.662,5.048z M6.576,6.147
			l0.246,0.392c0.035,0.055,0.106,0.073,0.163,0.04C7.041,6.546,7.06,6.474,7.029,6.417L6.967,6.305
			C6.912,6.208,6.86,6.111,6.806,6.015L6.697,5.816C6.684,5.793,6.672,5.768,6.659,5.74C6.592,5.599,6.487,5.381,6.256,5.4
			C6.059,5.418,5.859,5.512,5.662,5.679C5.428,5.863,5.265,6.13,5.26,6.142C5.252,6.153,5.244,6.165,5.239,6.176
			c0,0,0,0-0.001,0.001l0,0c-0.022,0.042-0.033,0.08-0.006,0.127c0.021,0.038,0.062,0.061,0.105,0.061
			c0.052,0,0.079-0.025,0.105-0.063l0,0c0,0,0,0,0,0C5.45,6.292,5.457,6.279,5.465,6.267c0.001-0.002,0.138-0.222,0.35-0.402
			C5.88,5.814,5.942,5.779,6,5.76L5.953,6.33C5.948,6.386,5.931,6.484,5.915,6.539L5.809,6.911C5.796,6.957,5.755,7.036,5.725,7.073
			L5.438,7.428C5.402,7.474,5.361,7.525,5.394,7.596c0.02,0.042,0.062,0.068,0.109,0.068c0.055,0,0.085-0.032,0.123-0.073
			l0.29-0.313c0.052-0.056,0.119-0.153,0.153-0.221l0.144-0.293l0.533,0.895c0.026,0.044,0.059,0.099,0.132,0.099l0,0
			c0.041,0,0.079-0.021,0.101-0.055c0.039-0.06,0.012-0.113-0.009-0.162L6.537,6.605C6.521,6.569,6.512,6.494,6.519,6.454
			L6.576,6.147z M7.027,7.121h0.644v0.191l0.643-0.37L7.671,6.572v0.192H7.027V7.121z"/>
		<path id="returnedGroup" display="none" fill="#FFFFFF" d="M6.663,5.048c0.024,0.151-0.078,0.294-0.229,0.318
			C6.283,5.391,6.14,5.289,6.116,5.137C6.091,4.986,6.193,4.844,6.344,4.819C6.495,4.794,6.638,4.896,6.663,5.048z M6.576,6.146
			l0.246,0.393c0.034,0.055,0.107,0.072,0.163,0.04C7.041,6.545,7.06,6.474,7.029,6.417L6.967,6.304
			c-0.054-0.096-0.106-0.193-0.16-0.29L6.697,5.816C6.684,5.793,6.673,5.768,6.659,5.74C6.592,5.599,6.487,5.38,6.256,5.4
			C6.059,5.417,5.859,5.511,5.662,5.678C5.428,5.863,5.265,6.129,5.259,6.141C5.252,6.153,5.244,6.165,5.239,6.176
			c0,0-0.001,0.001-0.001,0.001l0,0C5.216,6.219,5.205,6.256,5.232,6.304c0.021,0.038,0.062,0.062,0.105,0.062
			c0.052,0,0.079-0.025,0.104-0.063l0,0c0,0,0,0,0,0c0.007-0.011,0.015-0.023,0.022-0.035c0.002-0.002,0.139-0.222,0.35-0.402
			C5.88,5.814,5.942,5.779,6,5.759L5.953,6.33C5.948,6.386,5.931,6.484,5.915,6.539L5.809,6.911
			C5.796,6.958,5.755,7.036,5.724,7.073L5.438,7.428C5.402,7.474,5.361,7.525,5.394,7.596c0.02,0.042,0.062,0.068,0.109,0.068
			c0.055,0,0.085-0.032,0.123-0.073l0.29-0.313c0.052-0.056,0.119-0.153,0.152-0.221l0.144-0.293l0.533,0.895
			c0.026,0.044,0.06,0.099,0.132,0.099l0,0c0.041,0,0.079-0.021,0.102-0.056C7.016,7.643,6.99,7.589,6.969,7.542L6.538,6.605
			C6.522,6.569,6.512,6.494,6.519,6.454L6.576,6.146z M8.37,6.346c0-0.39-0.318-0.708-0.709-0.708H7.361v0.358h0.301
			c0.193,0,0.35,0.157,0.35,0.35s-0.156,0.351-0.35,0.351H7.599V6.505l-0.641,0.37l0.641,0.371V7.054h0.07v0
			C8.056,7.05,8.37,6.734,8.37,6.346z"/>
	</g>
	<g id="ImportantGroup" display="none">
		<path id="enlevementGroup" display="inline" fill="#FFFFFF" d="M7.986,4.567c-0.096,0-0.172,0.077-0.172,0.172v0.699
			c0.042,0.009,0.081,0.027,0.114,0.058c0.09,0.089,0.093,0.236,0.004,0.326L7.606,6.157L7.562,6.113L7.887,5.78
			C7.952,5.712,7.95,5.605,7.884,5.54C7.864,5.519,7.839,5.505,7.812,5.498C7.783,5.49,7.754,5.49,7.727,5.496
			C7.695,5.503,7.666,5.519,7.645,5.543c-0.193,0.198-0.387,0.396-0.58,0.595C7.017,6.187,6.928,6.3,6.931,6.414
			c0.002,0.106-0.001,0.216,0,0.323C6.906,6.717,6.876,6.702,6.841,6.695c-0.1-0.017-0.189,0.043-0.223,0.132H6.567
			c0-0.024,0-0.049,0-0.073c0.002-0.112-0.002-0.228,0-0.34C6.571,6.3,6.482,6.187,6.434,6.138C6.24,5.939,6.048,5.741,5.854,5.542
			C5.832,5.519,5.803,5.503,5.772,5.496C5.744,5.489,5.715,5.49,5.687,5.498C5.66,5.505,5.635,5.519,5.615,5.54
			C5.548,5.605,5.546,5.712,5.611,5.78l0.326,0.333L5.893,6.157L5.568,5.822c-0.089-0.09-0.087-0.237,0.004-0.326
			c0.032-0.031,0.071-0.048,0.112-0.058V4.739c0-0.095-0.077-0.172-0.171-0.172c-0.096,0-0.172,0.077-0.172,0.172v1.21
			c0,0.04,0.016,0.076,0.039,0.105l0.585,0.771H5.913c-0.114,0-0.206,0.093-0.206,0.208c0,0.076,0.042,0.139,0.104,0.175
			c-0.061,0.037-0.104,0.1-0.104,0.175c0,0.115,0.092,0.207,0.206,0.207h0.063v0.115h0.574c0.03,0.03,0.065,0.052,0.107,0.059
			C6.67,7.767,6.681,7.768,6.693,7.768c0.101,0,0.187-0.072,0.204-0.172l0-0.005h0.037c0,0.038,0,0.076,0.004,0.115h0.583V7.591
			h0.063c0.113,0,0.206-0.092,0.206-0.207c0-0.075-0.042-0.139-0.103-0.175c0.061-0.036,0.103-0.099,0.103-0.175
			c0-0.114-0.093-0.207-0.206-0.207H7.533l0.584-0.771c0.024-0.03,0.04-0.065,0.04-0.105v-1.21C8.157,4.644,8.08,4.567,7.986,4.567z
			 M5.81,7.033c0-0.057,0.046-0.103,0.103-0.103h0.678L6.555,7.137H5.913C5.857,7.136,5.81,7.09,5.81,7.033z M5.81,7.384
			c0-0.057,0.046-0.104,0.103-0.104h0.617L6.495,7.487H5.913C5.857,7.487,5.81,7.441,5.81,7.384z M6.794,7.578
			C6.785,7.635,6.725,7.671,6.675,7.663c-0.027-0.004-0.051-0.02-0.066-0.042c-0.017-0.023-0.022-0.05-0.018-0.078l0.114-0.661
			c0.009-0.05,0.052-0.086,0.103-0.086c0.005,0,0.011,0,0.016,0.001c0.057,0.01,0.094,0.063,0.084,0.12L6.794,7.578z M7.689,7.384
			c0,0.057-0.046,0.104-0.104,0.104h-0.67L6.95,7.28h0.635C7.642,7.28,7.689,7.327,7.689,7.384z M7.689,7.033
			c0,0.057-0.046,0.103-0.104,0.103h-0.61L7.01,6.934c0-0.001,0-0.003,0-0.004h0.575C7.642,6.93,7.689,6.977,7.689,7.033z"/>
	</g>
	<g id="EleveGroup" display="none">
		<path id="attackGroup" display="inline" fill="#FFFFFF" d="M7.429,6.43l0.793-0.508L7.454,5.841L7.663,4.95L7.12,5.512
			L6.968,4.876L6.74,5.469l-0.622-0.8l0.195,1.003L5.761,5.55c0,0,0.168,0.321,0.261,0.514L5.136,6.002l0.802,0.469l-0.23,0.237
			l0.373-0.068L5.817,7.574l0.786-0.657l0.204,0.508l0.209-0.406l0.677,0.699l-0.34-0.936l0.744,0.076L7.429,6.43z"/>
	</g>
	<g id="ExtremeGroup" display="none">
		<path id="rebelionGroup" display="inline" fill="#FFFFFF" d="M7.229,5.246c0,0.323-0.262,0.585-0.584,0.585
			c-0.323,0-0.585-0.262-0.585-0.585c0-0.324,0.262-0.585,0.585-0.585C6.967,4.661,7.229,4.922,7.229,5.246z M5.668,7.726h0.357
			h0.019l0.013-0.027l0.129-0.127l-0.12-0.026L5.878,7.506L5.668,7.726z M8.115,5.354L7.99,5.48l0.008,0.009L7.896,5.591
			c0.014,0.012,0.027,0.025,0.039,0.04l0.102-0.103l0.021,0.019l0.123-0.126L8.115,5.354z M7.308,6.003L7.253,6.057l0.006,0.015
			l0.014,0.029L6.419,6.956l0.091,0.02c0.084,0.018,0.157,0.068,0.205,0.141C6.721,7.127,6.723,7.139,6.728,7.15l0.002-0.003
			l0.063,0.042l0.022-0.005l0.249,0.181l0.167-0.229l-0.37-0.29L6.87,6.822l0.062,0l0.363-0.427l0.041-0.382L7.308,6.003z
			 M7.704,5.625C7.593,5.613,7.486,5.696,7.474,5.81L7.458,5.935l0,0L7.45,6.025L7.409,6.407L7.406,6.443L7.383,6.47L7.058,6.853
			l0.244,0.192l0.09,0.069l-0.053,0.07l0.014,0.026C7.386,7.283,7.46,7.328,7.54,7.328c0.012,0,0.023,0,0.035-0.003
			c0.092-0.015,0.162-0.09,0.172-0.183l0.141-1.287C7.902,5.74,7.818,5.637,7.704,5.625z M7.279,7.269l-0.12,0.164L7.09,7.526
			L6.996,7.458L6.79,7.309L6.772,7.313L6.764,7.309c0,0.018,0,0.035-0.004,0.052C6.756,7.378,6.75,7.394,6.743,7.41
			c-0.012,0.03-0.03,0.056-0.049,0.081l0.015,0.033c0.014,0.033,0.034,0.075,0.058,0.113l0.058,0.089h0.439L7.279,7.269z
			 M6.442,7.618c-0.004,0-0.009-0.001-0.015-0.001C6.426,7.625,6.424,7.632,6.424,7.632l0.049,0.094h0.119l0.077-0.027
			C6.643,7.659,6.622,7.615,6.603,7.57C6.554,7.598,6.501,7.618,6.442,7.618z M6.614,7.176C6.606,7.163,6.593,7.152,6.581,7.142
			C6.574,7.135,6.569,7.126,6.56,7.121C6.539,7.106,6.513,7.094,6.486,7.088L6.395,7.069L6.187,7.025l0,0l-0.185-0.04L5.931,6.971
			L5.814,6.945L5.806,6.944l0.019-0.019l0.08-0.08L5.99,6.76c0.007,0.059,0.01,0.105,0.01,0.106l0.028,0.006l0.258,0.055
			l0.053-0.053l0.798-0.801L7.118,6.028l0.006-0.005C7.009,5.988,6.873,5.967,6.701,5.967H6.645c0,0-0.056,0-0.056,0
			c-0.121,0-0.242,0.008-0.361,0.035C6.023,6.048,5.896,6.249,5.757,6.386c-0.145,0.142-0.285,0.29-0.425,0.436
			C5.301,6.855,5.27,6.888,5.238,6.92C5.184,6.975,5.164,7.054,5.185,7.128c0.021,0.073,0.082,0.128,0.157,0.145l0.276,0.06
			l0.118,0.024l0.663,0.142c0.015,0.002,0.029,0.004,0.044,0.004c0.096,0,0.183-0.067,0.204-0.166
			c0.008-0.039,0.002-0.075-0.01-0.109L6.625,7.201C6.621,7.193,6.617,7.186,6.614,7.176z M6.321,7.687l-0.02-0.038l0.01-0.042
			l0.002-0.008L6.281,7.591L6.164,7.726h0.178L6.321,7.687z"/>
	</g>
</g>
</svg>
