<?xml version="1.0" encoding="utf-8"?>
<!-- Generator: Adobe Illustrator 16.0.0, SVG Export Plug-In . SVG Version: 6.00 Build 0)  -->
<!DOCTYPE svg PUBLIC "-//W3C//DTD SVG 1.1//EN" "http://www.w3.org/Graphics/SVG/1.1/DTD/svg11.dtd">
<svg version="1.1" xmlns="http://www.w3.org/2000/svg" xmlns:xlink="http://www.w3.org/1999/xlink" x="0px" y="0px" width="5.741px"
	 height="5.646px" viewBox="3.863 3.454 5.741 5.646" enable-background="new 3.863 3.454 5.741 5.646" xml:space="preserve">
<g id="Groupe">
	<g id="PinColor_1_">
		<path id="PinOmbreGroup" display="none" opacity="0.2" enable-background="new    " d="M12.72,15.352
			c0,0.901-1.979,1.658-4.642,1.857c-0.449,0.034-1.399,2.148-1.399,2.148s-0.983-2.115-1.447-2.151
			c-2.637-0.205-4.594-0.958-4.594-1.854c0-1.055,2.705-1.91,6.041-1.91S12.72,14.296,12.72,15.352z"/>
		
			<path id="PinGroupeGroup" display="none" opacity="0.3" fill="#FFFFFF" stroke="#848484" stroke-width="0.2" stroke-miterlimit="10" d="
			M12.72,6.486c0,2.76-1.979,5.075-4.642,5.686c-0.449,0.101-1.399,6.573-1.399,6.573s-0.983-6.472-1.447-6.586
			c-2.637-0.626-4.594-2.93-4.594-5.675c0-3.227,2.705-5.843,6.041-5.843S12.72,3.259,12.72,6.486z"/>
		<path id="PinMinimalGroup" fill="#FFFFFF" stroke="#848484" stroke-width="0.2" stroke-miterlimit="10" d="M9.3,6.212
			c0,1.199-0.859,2.205-2.017,2.47C7.088,8.726,6.248,8.726,6.047,8.676C4.902,8.404,4.052,7.404,4.052,6.211
			c0-1.401,1.175-2.538,2.624-2.538C8.124,3.673,9.3,4.811,9.3,6.212z"/>
		<path id="PinFaibleGroup" display="none" fill="#2ABF00" stroke="#1D7500" stroke-width="0.2" stroke-miterlimit="10" d="
			M9.3,6.212c0,1.199-0.859,2.205-2.017,2.47C7.088,8.726,6.248,8.726,6.047,8.676C4.902,8.404,4.052,7.404,4.052,6.211
			c0-1.401,1.175-2.538,2.624-2.538C8.124,3.673,9.3,4.811,9.3,6.212z"/>
		<path id="PinModereGroup" display="none" fill="#EDD600" stroke="#CE9D00" stroke-width="0.2" stroke-miterlimit="10" d="
			M9.3,6.212c0,1.199-0.859,2.205-2.017,2.47C7.088,8.726,6.248,8.726,6.047,8.676C4.902,8.404,4.052,7.404,4.052,6.211
			c0-1.401,1.175-2.538,2.624-2.538C8.124,3.673,9.3,4.811,9.3,6.212z"/>
		<path id="PinImportantGroup" display="none" fill="#FF8500" stroke="#BF3A00" stroke-width="0.2" stroke-miterlimit="10" d="
			M9.3,6.212c0,1.199-0.859,2.205-2.017,2.47C7.088,8.726,6.248,8.726,6.047,8.676C4.902,8.404,4.052,7.404,4.052,6.211
			c0-1.401,1.175-2.538,2.624-2.538C8.124,3.673,9.3,4.811,9.3,6.212z"/>
		<path id="PinEleveGroup" display="none" fill="#ED1C24" stroke="#BA1522" stroke-width="0.2" stroke-miterlimit="10" d="
			M9.3,6.212c0,1.199-0.859,2.205-2.017,2.47C7.088,8.726,6.248,8.726,6.047,8.676C4.902,8.404,4.052,7.404,4.052,6.211
			c0-1.401,1.175-2.538,2.624-2.538C8.124,3.673,9.3,4.811,9.3,6.212z"/>
		<path id="PinExtremeGroup" stroke="#333333" stroke-width="0.2" stroke-miterlimit="10" d="M9.3,6.212
			c0,1.199-0.859,2.205-2.017,2.47C7.088,8.726,6.248,8.726,6.047,8.676C4.902,8.404,4.052,7.404,4.052,6.211
			c0-1.401,1.175-2.538,2.624-2.538C8.124,3.673,9.3,4.811,9.3,6.212z"/>
	</g>
	<g id="IconsGroup">
		<g id="MinimalGroup" display="none">
			<path id="ElectionGroup" display="inline" fill="#565656" d="M8.184,5.039L7.281,4.652C7.255,4.641,7.222,4.648,7.205,4.671
				L6.947,4.994C6.935,5.008,6.931,5.029,6.935,5.048C6.939,5.066,6.95,5.081,6.967,5.089l-0.81,0.304
				C6.089,5.418,6.031,5.467,5.993,5.529L5.726,5.975C5.669,6.07,5.664,6.186,5.714,6.285l0.019,0.038H5.45
				c-0.036,0-0.064,0.029-0.064,0.064v1.225H5.193c-0.036,0-0.064,0.029-0.064,0.064c0,0.036,0.029,0.065,0.064,0.065h2.192
				c0.035,0,0.063-0.029,0.063-0.065c0-0.035-0.028-0.064-0.063-0.064H7.191V6.954c0-0.022-0.012-0.043-0.029-0.054
				C7.143,6.887,7.119,6.886,7.099,6.896c-0.071,0.033-0.123,0.05-0.148,0.058C6.946,6.954,6.941,6.957,6.936,6.96l-0.42,0.251
				c-0.067,0.04-0.143,0.062-0.22,0.062c-0.144,0-0.276-0.071-0.358-0.192C5.873,6.984,5.851,6.868,5.875,6.754
				C5.899,6.64,5.967,6.543,6.064,6.48l0.061-0.039C6.17,6.415,6.21,6.39,6.245,6.368C6.27,6.353,6.281,6.322,6.273,6.294
				C6.257,6.242,6.231,6.196,6.205,6.161c0.099-0.042,0.232-0.119,0.299-0.197c0,0,0,0,0,0c0.015,0.008,0.031,0.018,0.05,0.027
				c0.001,0,0.001,0,0.003,0.001l0,0c0.048,0.023,0.108,0.047,0.179,0.06c-0.076,0.093-0.152,0.209-0.18,0.286
				C6.505,6.362,6.393,6.424,6.134,6.589C6.066,6.633,6.018,6.701,6.002,6.781C5.985,6.86,6,6.941,6.046,7.01
				c0.058,0.086,0.152,0.134,0.25,0.134c0.052,0,0.105-0.014,0.154-0.043l0.443-0.266c0.069-0.017,0.413-0.12,0.674-0.542
				c0.205-0.331,0.32-0.597,0.368-0.718l0.008,0.004C7.97,5.591,8,5.599,8.029,5.599c0.051,0,0.101-0.02,0.136-0.054
				c0.037-0.036,0.059-0.086,0.059-0.139V5.098C8.222,5.072,8.207,5.049,8.184,5.039z"/>
		</g>
		<g id="FaibleGroup" display="none">
			<path id="FamineGroup" display="inline" fill="#F9F9F9" d="M7.514,7.309l-0.49,0.093L6.225,6.967l0.291-0.362l0.654,0.217
				L7.514,7.309z M8.266,6.459v0.054L7.751,6.677L7.242,6.749L6.588,6.532L6.434,6.459h0.088C6.501,6.265,6.473,6.117,6.459,5.925h0
				C6.458,5.919,6.451,5.79,6.45,5.735C6.44,5.676,6.412,5.653,6.321,5.591c-0.05-0.032-0.087-0.043-0.107-0.043
				c-0.034,0-0.063,0.036-0.07,0.145c0.146,0.025,0.155,0.186,0.155,0.186C6.311,5.993,6.255,6.16,6.126,6.204
				c-0.239,0.079-0.215-0.381-0.08-0.492C6.05,5.579,6.087,5.457,6.214,5.452c0.05,0,0.101,0.021,0.16,0.058
				c0.028,0.017,0.051,0.034,0.071,0.052C6.443,5.519,6.44,5.474,6.44,5.428c0-0.097,0.015-0.202,0.101-0.277
				C6.585,5.11,6.634,5.089,6.684,5.09C6.811,5.096,6.89,5.207,6.936,5.319C6.99,5.295,7.057,5.284,7.135,5.311
				c0.197,0.068,0.303,0.411,0.221,0.531C7.161,6.12,6.673,5.602,6.802,5.42c0,0,0.019-0.025,0.052-0.052
				c-0.038-0.1-0.114-0.189-0.17-0.183c-0.022,0-0.048,0.008-0.08,0.036C6.55,5.27,6.535,5.338,6.535,5.428
				c0,0.063,0.008,0.133,0.008,0.203c0,0.037,0.002,0.069,0.003,0.104c0.009,0.063,0.01,0.11,0.009,0.176
				c0.014,0.192,0.091,0.35,0.113,0.548H8.266z M6.89,5.407L7.261,5.81C7.194,5.524,6.96,5.365,6.96,5.365L6.89,5.407z M6.123,5.753
				L6.057,5.78c0,0-0.033,0.226,0,0.343L6.123,5.753z M5.792,7.112l0.294-0.177l0.306-0.379L6.297,6.459H5.62L5.485,6.728
				L5.792,7.112z M6.135,7.051L5.614,7.406l0.069,0.086h1.199L6.878,7.475L6.135,7.051z M5.063,6.459v0.409l0.333-0.179l0.102-0.23
				H5.063z M7.339,6.836l0.323,0.469l0.604,0.143V6.911l-0.435-0.14L7.339,6.836z M8.266,6.794V6.605L7.927,6.696L8.266,6.794z
				 M5.406,6.821L5.063,6.983v0.509h0.25l0.373-0.305L5.406,6.821z M7.197,7.492h0.782l-0.373-0.09L7.197,7.492z"/>
			<path id="CycloneGroup" fill="#FFFFFF" d="M6.677,5.358c-0.017,0-0.033-0.002-0.05-0.002c-0.147,0-0.284,0.038-0.404,0.104
				c0.214-0.73,0.749-0.794,0.749-0.794S5.79,4.765,5.79,6.144c0.001,0,0.001,0,0.002,0C5.791,6.161,5.79,6.177,5.79,6.194
				c0,0.147,0.038,0.285,0.104,0.405C5.163,6.384,5.1,5.849,5.1,5.849s0.099,1.183,1.479,1.183c0-0.001,0-0.001,0-0.003
				C6.595,7.03,6.611,7.032,6.627,7.032c0.147,0,0.285-0.038,0.405-0.105c-0.215,0.731-0.75,0.794-0.75,0.794
				s1.183-0.098,1.183-1.478c-0.001,0-0.002,0-0.002,0c0-0.017,0.002-0.033,0.002-0.049c0-0.147-0.037-0.285-0.105-0.405
				c0.73,0.214,0.795,0.75,0.795,0.75S8.058,5.356,6.677,5.356C6.677,5.357,6.677,5.358,6.677,5.358z"/>
			<path id="eruptionGroup" fill="#FFFFFF" d="M6.861,5.624c0.176,0.06,0.41,0.131,0.46-0.153C7.36,5.25,7.654,5.332,7.779,5.318
				c0.229-0.027,0.056-0.454-0.229-0.46C7.261,4.851,7.129,4.979,7.013,5.241C6.959,5.367,6.912,5.462,6.707,5.394
				c-0.204-0.068-0.354,0.1-0.23,0.307c0.11,0.183-0.001,0.383-0.001,0.383h0.308c0,0-0.002-0.113-0.077-0.23
				C6.62,5.718,6.68,5.562,6.861,5.624z M5.228,7.53C6.02,6.952,6.219,6.154,6.219,6.154h0.815c0,0,0.198,0.798,0.991,1.376H5.228z"
				/>
			<path id="tsunamiGroup" fill="#FFFFFF" d="M8.114,7.167C5.679,7.305,6.36,5.444,6.99,5.604c-0.065,0.04-0.106,0.177-0.067,0.268
				c0.044,0.099,0.187,0.155,0.269,0.135c0.196-0.05,0.204-0.325,0.134-0.47C7.253,5.388,7.06,5.202,6.722,5.202
				c-0.814,0-1.371,0.416-1.58,1.131v1.052h2.972V7.167z"/>
			<path id="epidemieGroup" fill="#FFFFFF" d="M7.897,6.317c0-0.696-0.545-1.262-1.231-1.297c0.303,0.029,0.54,0.249,0.54,0.517
				c0,0.092-0.032,0.177-0.08,0.252C6.989,5.654,6.804,5.571,6.597,5.571c-0.206,0-0.392,0.083-0.527,0.218
				c-0.048-0.075-0.079-0.16-0.079-0.252c0-0.268,0.235-0.488,0.539-0.517C5.844,5.056,5.299,5.622,5.299,6.317
				c0,0.209,0.051,0.407,0.139,0.583C5.318,6.626,5.391,6.316,5.62,6.185c0.08-0.046,0.168-0.062,0.258-0.058
				C5.861,6.188,5.85,6.252,5.85,6.319c0,0.346,0.236,0.634,0.555,0.72C6.399,7.046,6.394,7.053,6.39,7.061c0,0,0,0.001,0,0.001
				c-0.011,0.024-0.024,0.043-0.04,0.06C6.316,7.167,6.277,7.207,6.226,7.235C5.996,7.368,5.69,7.276,5.513,7.031
				c0.232,0.354,0.631,0.587,1.085,0.587c0.45,0,0.845-0.229,1.08-0.576c-0.18,0.237-0.48,0.325-0.707,0.194
				C6.891,7.189,6.833,7.12,6.793,7.039c0.318-0.086,0.552-0.375,0.552-0.72c0-0.066-0.01-0.13-0.026-0.192
				c0.09-0.005,0.179,0.011,0.259,0.058c0.222,0.128,0.299,0.422,0.191,0.691C7.851,6.707,7.897,6.517,7.897,6.317z M6.736,6.817
				C6.73,6.709,6.753,6.596,6.807,6.488l-0.086-0.05C6.69,6.471,6.646,6.491,6.598,6.491s-0.092-0.02-0.124-0.052L6.39,6.487
				c0.054,0.108,0.077,0.222,0.071,0.331c-0.22-0.06-0.383-0.26-0.383-0.499c0-0.046,0.008-0.089,0.019-0.13
				c0.096,0.048,0.183,0.124,0.25,0.224l0.087-0.051C6.43,6.347,6.425,6.333,6.425,6.317c0-0.081,0.055-0.145,0.13-0.165v-0.1
				c-0.121-0.008-0.229-0.044-0.32-0.104C6.327,5.856,6.456,5.8,6.597,5.8s0.271,0.057,0.364,0.15
				c-0.091,0.059-0.2,0.096-0.32,0.104v0.1c0.074,0.02,0.13,0.084,0.13,0.165c0,0.016-0.005,0.03-0.009,0.044L6.85,6.413
				c0.066-0.1,0.154-0.175,0.248-0.224c0.011,0.042,0.02,0.084,0.02,0.129C7.117,6.558,6.955,6.757,6.736,6.817z"/>
			<path id="earthquakeGroup" fill="#FFFFFF" d="M7.493,6.286c-0.041,0-0.08,0.023-0.1,0.06L7.232,6.651l-0.2-0.586
				C7.016,6.021,6.976,5.991,6.929,5.989C6.88,5.988,6.839,6.015,6.821,6.059L6.684,6.384L6.467,5.086
				c-0.01-0.054-0.061-0.095-0.113-0.092C6.298,4.996,6.252,5.032,6.244,5.087L6.053,6.592L5.898,5.784
				C5.889,5.737,5.85,5.7,5.802,5.694C5.754,5.688,5.707,5.713,5.685,5.757L5.431,6.286H5.038v0.225h0.465
				c0.043,0,0.083-0.024,0.102-0.063l0.136-0.284l0.22,1.146C5.971,7.362,6.018,7.4,6.072,7.4c0.001,0,0.002,0,0.003,0
				c0.056-0.001,0.102-0.042,0.109-0.097l0.188-1.479L6.53,6.797C6.539,6.846,6.578,6.884,6.628,6.89
				c0.05,0.004,0.097-0.022,0.117-0.068l0.169-0.402l0.188,0.552c0.016,0.042,0.054,0.072,0.098,0.076
				c0.046,0.002,0.088-0.02,0.109-0.06l0.252-0.477h0.484V6.286H7.493z"/>
		</g>
		<g id="ModereGroup" display="none">
			<path id="displacedGroup" display="inline" fill="#FFFFFF" d="M6.662,5.048c0.024,0.151-0.078,0.293-0.228,0.318
				C6.283,5.392,6.14,5.289,6.115,5.139C6.091,4.987,6.193,4.844,6.344,4.82C6.495,4.794,6.638,4.897,6.662,5.048z M6.576,6.147
				l0.246,0.392c0.035,0.055,0.106,0.073,0.163,0.04C7.041,6.546,7.06,6.474,7.029,6.417L6.967,6.305
				C6.912,6.208,6.86,6.111,6.806,6.015L6.697,5.816C6.684,5.793,6.672,5.768,6.659,5.74C6.592,5.599,6.487,5.381,6.256,5.4
				C6.059,5.418,5.859,5.512,5.662,5.679C5.428,5.863,5.265,6.13,5.26,6.142C5.252,6.153,5.244,6.165,5.239,6.176
				c0,0,0,0-0.001,0.001l0,0c-0.022,0.042-0.033,0.08-0.006,0.127c0.021,0.038,0.062,0.061,0.105,0.061
				c0.052,0,0.079-0.025,0.105-0.063l0,0c0,0,0,0,0,0C5.45,6.292,5.457,6.279,5.465,6.267c0.001-0.002,0.138-0.222,0.35-0.402
				C5.88,5.814,5.942,5.779,6,5.76L5.953,6.33C5.948,6.386,5.931,6.484,5.915,6.539L5.809,6.911
				C5.796,6.957,5.755,7.036,5.725,7.073L5.438,7.428C5.402,7.474,5.361,7.525,5.394,7.596c0.02,0.042,0.062,0.068,0.109,0.068
				c0.055,0,0.085-0.032,0.123-0.073l0.29-0.313c0.052-0.056,0.119-0.153,0.153-0.221l0.144-0.293l0.533,0.895
				c0.026,0.044,0.059,0.099,0.132,0.099l0,0c0.041,0,0.079-0.021,0.101-0.055c0.039-0.06,0.012-0.113-0.009-0.162L6.537,6.605
				C6.521,6.569,6.512,6.494,6.519,6.454L6.576,6.147z M7.027,7.121h0.644v0.191l0.643-0.37L7.671,6.572v0.192H7.027V7.121z"/>
			<path id="returnedGroup" display="inline" fill="#FFFFFF" d="M6.663,5.048c0.024,0.151-0.078,0.294-0.229,0.318
				C6.283,5.391,6.14,5.289,6.116,5.137C6.091,4.986,6.193,4.844,6.344,4.819C6.495,4.794,6.638,4.896,6.663,5.048z M6.576,6.146
				l0.246,0.393c0.034,0.055,0.107,0.072,0.163,0.04C7.041,6.545,7.06,6.474,7.029,6.417L6.967,6.304
				c-0.054-0.096-0.106-0.193-0.16-0.29L6.697,5.816C6.684,5.793,6.673,5.768,6.659,5.74C6.592,5.599,6.487,5.38,6.256,5.4
				C6.059,5.417,5.859,5.511,5.662,5.678C5.428,5.863,5.265,6.129,5.259,6.141C5.252,6.153,5.244,6.165,5.239,6.176
				c0,0-0.001,0.001-0.001,0.001l0,0C5.216,6.219,5.205,6.256,5.232,6.304c0.021,0.038,0.062,0.062,0.105,0.062
				c0.052,0,0.079-0.025,0.104-0.063l0,0c0,0,0,0,0,0c0.007-0.011,0.015-0.023,0.022-0.035c0.002-0.002,0.139-0.222,0.35-0.402
				C5.88,5.814,5.942,5.779,6,5.759L5.953,6.33C5.948,6.386,5.931,6.484,5.915,6.539L5.809,6.911
				C5.796,6.958,5.755,7.036,5.724,7.073L5.438,7.428C5.402,7.474,5.361,7.525,5.394,7.596c0.02,0.042,0.062,0.068,0.109,0.068
				c0.055,0,0.085-0.032,0.123-0.073l0.29-0.313c0.052-0.056,0.119-0.153,0.152-0.221l0.144-0.293l0.533,0.895
				c0.026,0.044,0.06,0.099,0.132,0.099l0,0c0.041,0,0.079-0.021,0.102-0.056C7.016,7.643,6.99,7.589,6.969,7.542L6.538,6.605
				C6.522,6.569,6.512,6.494,6.519,6.454L6.576,6.146z M8.37,6.346c0-0.39-0.318-0.708-0.709-0.708H7.361v0.358h0.301
				c0.193,0,0.35,0.157,0.35,0.35s-0.156,0.351-0.35,0.351H7.599V6.505l-0.641,0.37l0.641,0.371V7.054h0.07v0
				C8.056,7.05,8.37,6.734,8.37,6.346z"/>
		</g>
		<g id="ImportantGroup" display="none">
			<path id="enlevementGroup" display="inline" fill="#FFFFFF" d="M7.986,4.567c-0.096,0-0.172,0.077-0.172,0.172v0.699
				c0.042,0.009,0.081,0.027,0.114,0.058c0.09,0.089,0.093,0.236,0.004,0.326L7.606,6.157L7.562,6.113L7.887,5.78
				C7.952,5.712,7.95,5.605,7.884,5.54C7.864,5.519,7.839,5.505,7.812,5.498C7.783,5.49,7.754,5.49,7.727,5.496
				C7.695,5.503,7.666,5.519,7.645,5.543c-0.193,0.198-0.387,0.396-0.58,0.595C7.017,6.187,6.928,6.3,6.931,6.414
				c0.002,0.106-0.001,0.216,0,0.323C6.906,6.717,6.876,6.702,6.841,6.695c-0.1-0.017-0.189,0.043-0.223,0.132H6.567
				c0-0.024,0-0.049,0-0.073c0.002-0.112-0.002-0.228,0-0.34C6.571,6.3,6.482,6.187,6.434,6.138C6.24,5.939,6.048,5.741,5.854,5.542
				C5.832,5.519,5.803,5.503,5.772,5.496C5.744,5.489,5.715,5.49,5.687,5.498C5.66,5.505,5.635,5.519,5.615,5.54
				C5.548,5.605,5.546,5.712,5.611,5.78l0.326,0.333L5.893,6.157L5.568,5.822c-0.089-0.09-0.087-0.237,0.004-0.326
				c0.032-0.031,0.071-0.048,0.112-0.058V4.739c0-0.095-0.077-0.172-0.171-0.172c-0.096,0-0.172,0.077-0.172,0.172v1.21
				c0,0.04,0.016,0.076,0.039,0.105l0.585,0.771H5.913c-0.114,0-0.206,0.093-0.206,0.208c0,0.076,0.042,0.139,0.104,0.175
				c-0.061,0.037-0.104,0.1-0.104,0.175c0,0.115,0.092,0.207,0.206,0.207h0.063v0.115h0.574c0.03,0.03,0.065,0.052,0.107,0.059
				C6.67,7.767,6.681,7.768,6.693,7.768c0.101,0,0.187-0.072,0.204-0.172l0-0.005h0.037c0,0.038,0,0.076,0.004,0.115h0.583V7.591
				h0.063c0.113,0,0.206-0.092,0.206-0.207c0-0.075-0.042-0.139-0.103-0.175c0.061-0.036,0.103-0.099,0.103-0.175
				c0-0.114-0.093-0.207-0.206-0.207H7.533l0.584-0.771c0.024-0.03,0.04-0.065,0.04-0.105v-1.21C8.157,4.644,8.08,4.567,7.986,4.567
				z M5.81,7.033c0-0.057,0.046-0.103,0.103-0.103h0.678L6.555,7.137H5.913C5.857,7.136,5.81,7.09,5.81,7.033z M5.81,7.384
				c0-0.057,0.046-0.104,0.103-0.104h0.617L6.495,7.487H5.913C5.857,7.487,5.81,7.441,5.81,7.384z M6.794,7.578
				C6.785,7.635,6.725,7.671,6.675,7.663c-0.027-0.004-0.051-0.02-0.066-0.042c-0.017-0.023-0.022-0.05-0.018-0.078l0.114-0.661
				c0.009-0.05,0.052-0.086,0.103-0.086c0.005,0,0.011,0,0.016,0.001c0.057,0.01,0.094,0.063,0.084,0.12L6.794,7.578z M7.689,7.384
				c0,0.057-0.046,0.104-0.104,0.104h-0.67L6.95,7.28h0.635C7.642,7.28,7.689,7.327,7.689,7.384z M7.689,7.033
				c0,0.057-0.046,0.103-0.104,0.103h-0.61L7.01,6.934c0-0.001,0-0.003,0-0.004h0.575C7.642,6.93,7.689,6.977,7.689,7.033z"/>
		</g>
		<g id="EleveGroup" display="none">
			<path id="attackGroup" display="inline" fill="#FFFFFF" d="M7.429,6.43l0.793-0.508L7.454,5.841L7.663,4.95L7.12,5.512
				L6.968,4.876L6.74,5.469l-0.622-0.8l0.195,1.003L5.761,5.55c0,0,0.168,0.321,0.261,0.514L5.136,6.002l0.802,0.469l-0.23,0.237
				l0.373-0.068L5.817,7.574l0.786-0.657l0.204,0.508l0.209-0.406l0.677,0.699l-0.34-0.936l0.744,0.076L7.429,6.43z"/>
		</g>
		<g id="ExtremeGroup">
			<path id="rebelionGroup" fill="#FFFFFF" d="M7.229,5.246c0,0.323-0.262,0.585-0.584,0.585c-0.323,0-0.585-0.262-0.585-0.585
				c0-0.324,0.262-0.585,0.585-0.585C6.967,4.661,7.229,4.922,7.229,5.246z M5.668,7.726h0.357h0.019l0.013-0.027l0.129-0.127
				l-0.12-0.026L5.878,7.506L5.668,7.726z M8.115,5.354L7.99,5.48l0.008,0.009L7.896,5.591c0.014,0.012,0.027,0.025,0.039,0.04
				l0.102-0.103l0.021,0.019l0.123-0.126L8.115,5.354z M7.308,6.003L7.253,6.057l0.006,0.015l0.014,0.029L6.419,6.956l0.091,0.02
				c0.084,0.018,0.157,0.068,0.205,0.141C6.721,7.127,6.723,7.139,6.728,7.15l0.002-0.003l0.063,0.042l0.022-0.005l0.249,0.181
				l0.167-0.229l-0.37-0.29L6.87,6.822l0.062,0l0.363-0.427l0.041-0.382L7.308,6.003z M7.704,5.625
				C7.593,5.613,7.486,5.696,7.474,5.81L7.458,5.935l0,0L7.45,6.025L7.409,6.407L7.406,6.443L7.383,6.47L7.058,6.853l0.244,0.192
				l0.09,0.069l-0.053,0.07l0.014,0.026C7.386,7.283,7.46,7.328,7.54,7.328c0.012,0,0.023,0,0.035-0.003
				c0.092-0.015,0.162-0.09,0.172-0.183l0.141-1.287C7.902,5.74,7.818,5.637,7.704,5.625z M7.279,7.269l-0.12,0.164L7.09,7.526
				L6.996,7.458L6.79,7.309L6.772,7.313L6.764,7.309c0,0.018,0,0.035-0.004,0.052C6.756,7.378,6.75,7.394,6.743,7.41
				c-0.012,0.03-0.03,0.056-0.049,0.081l0.015,0.033c0.014,0.033,0.034,0.075,0.058,0.113l0.058,0.089h0.439L7.279,7.269z
				 M6.442,7.618c-0.004,0-0.009-0.001-0.015-0.001C6.426,7.625,6.424,7.632,6.424,7.632l0.049,0.094h0.119l0.077-0.027
				C6.643,7.659,6.622,7.615,6.603,7.57C6.554,7.598,6.501,7.618,6.442,7.618z M6.614,7.176C6.606,7.163,6.593,7.152,6.581,7.142
				C6.574,7.135,6.569,7.126,6.56,7.121C6.539,7.106,6.513,7.094,6.486,7.088L6.395,7.069L6.187,7.025l0,0l-0.185-0.04L5.931,6.971
				L5.814,6.945L5.806,6.944l0.019-0.019l0.08-0.08L5.99,6.76c0.007,0.059,0.01,0.105,0.01,0.106l0.028,0.006l0.258,0.055
				l0.053-0.053l0.798-0.801L7.118,6.028l0.006-0.005C7.009,5.988,6.873,5.967,6.701,5.967H6.645c0,0-0.056,0-0.056,0
				c-0.121,0-0.242,0.008-0.361,0.035C6.023,6.048,5.896,6.249,5.757,6.386c-0.145,0.142-0.285,0.29-0.425,0.436
				C5.301,6.855,5.27,6.888,5.238,6.92C5.184,6.975,5.164,7.054,5.185,7.128c0.021,0.073,0.082,0.128,0.157,0.145l0.276,0.06
				l0.118,0.024l0.663,0.142c0.015,0.002,0.029,0.004,0.044,0.004c0.096,0,0.183-0.067,0.204-0.166
				c0.008-0.039,0.002-0.075-0.01-0.109L6.625,7.201C6.621,7.193,6.617,7.186,6.614,7.176z M6.321,7.687l-0.02-0.038l0.01-0.042
				l0.002-0.008L6.281,7.591L6.164,7.726h0.178L6.321,7.687z"/>
		</g>
	</g>
</g>
<g id="Unique" display="none">
	<g id="PinColor">
		<path id="PinOmbre" display="inline" opacity="0.3" enable-background="new    " d="M12.72,15.352
			c0,0.901-1.979,1.658-4.642,1.857c-0.449,0.034-1.399,2.148-1.399,2.148s-0.983-2.115-1.447-2.151
			c-2.637-0.205-4.594-0.958-4.594-1.854c0-1.055,2.705-1.91,6.041-1.91S12.72,14.296,12.72,15.352z"/>
		<path id="PinMinimal" fill="#FFFFFF" stroke="#848484" stroke-width="0.2" stroke-miterlimit="10" d="M12.72,6.486
			c0,2.76-1.979,5.075-4.642,5.686c-0.449,0.101-1.399,6.573-1.399,6.573s-0.983-6.472-1.447-6.586
			c-2.637-0.626-4.594-2.93-4.594-5.675c0-3.227,2.705-5.843,6.041-5.843S12.72,3.259,12.72,6.486z"/>
		<path id="PinFaible" fill="#2ABF00" stroke="#1D7500" stroke-width="0.2" stroke-miterlimit="10" d="M12.72,6.486
			c0,2.76-1.979,5.075-4.642,5.686c-0.449,0.101-1.399,6.573-1.399,6.573s-0.983-6.472-1.447-6.586
			c-2.637-0.626-4.594-2.93-4.594-5.675c0-3.227,2.705-5.843,6.041-5.843S12.72,3.259,12.72,6.486z"/>
		<path id="PinModere" fill="#EDD600" stroke="#CE9D00" stroke-width="0.2" stroke-miterlimit="10" d="M12.72,6.486
			c0,2.76-1.979,5.075-4.642,5.686c-0.449,0.101-1.399,6.573-1.399,6.573s-0.983-6.472-1.447-6.586
			c-2.637-0.626-4.594-2.93-4.594-5.675c0-3.227,2.705-5.843,6.041-5.843S12.72,3.259,12.72,6.486z"/>
		<path id="PinImportant" fill="#FF8500" stroke="#BF3A00" stroke-width="0.2" stroke-miterlimit="10" d="M12.72,6.486
			c0,2.76-1.979,5.075-4.642,5.686c-0.449,0.101-1.399,6.573-1.399,6.573s-0.983-6.472-1.447-6.586
			c-2.637-0.626-4.594-2.93-4.594-5.675c0-3.227,2.705-5.843,6.041-5.843S12.72,3.259,12.72,6.486z"/>
		<path id="PinEleve" fill="#ED1C24" stroke="#BA1522" stroke-width="0.2" stroke-miterlimit="10" d="M12.72,6.486
			c0,2.76-1.979,5.075-4.642,5.686c-0.449,0.101-1.399,6.573-1.399,6.573s-0.983-6.472-1.447-6.586
			c-2.637-0.626-4.594-2.93-4.594-5.675c0-3.227,2.705-5.843,6.041-5.843S12.72,3.259,12.72,6.486z"/>
		<path id="PinExtreme" display="inline" stroke="#333333" stroke-width="0.2" stroke-miterlimit="10" d="M12.72,6.486
			c0,2.76-1.979,5.075-4.642,5.686c-0.449,0.101-1.399,6.573-1.399,6.573s-0.983-6.472-1.447-6.586
			c-2.637-0.626-4.594-2.93-4.594-5.675c0-3.227,2.705-5.843,6.041-5.843S12.72,3.259,12.72,6.486z"/>
	</g>
	<g id="Icons">
		<g id="Minimal">
			<path id="Election" display="inline" fill="#565656" d="M10.182,3.723L8.085,2.824C8.023,2.798,7.95,2.816,7.909,2.869
				L7.309,3.618C7.282,3.652,7.272,3.699,7.281,3.743C7.29,3.785,7.318,3.82,7.355,3.84l-1.88,0.705
				c-0.159,0.059-0.293,0.171-0.38,0.316L4.473,5.898C4.341,6.118,4.33,6.387,4.446,6.617L4.49,6.705H3.834
				c-0.083,0-0.15,0.067-0.15,0.15V9.7H3.235c-0.083,0-0.149,0.067-0.149,0.149c0,0.083,0.066,0.15,0.149,0.15h5.092
				c0.082,0,0.147-0.067,0.147-0.15c0-0.082-0.065-0.149-0.147-0.149h-0.45V8.17c0-0.051-0.027-0.1-0.069-0.126
				c-0.044-0.028-0.098-0.032-0.145-0.01C7.498,8.112,7.377,8.151,7.32,8.168C7.307,8.171,7.295,8.176,7.284,8.184L6.309,8.768
				C6.154,8.862,5.977,8.911,5.797,8.911c-0.332,0-0.641-0.165-0.831-0.445C4.816,8.241,4.764,7.97,4.82,7.706
				s0.213-0.49,0.439-0.635l0.142-0.09C5.505,6.918,5.597,6.86,5.68,6.809c0.058-0.036,0.084-0.106,0.064-0.171
				c-0.037-0.12-0.099-0.227-0.157-0.309c0.229-0.1,0.538-0.278,0.694-0.459c0,0,0.001,0.001,0.002,0.001
				c0.033,0.02,0.071,0.041,0.115,0.062c0.003,0.001,0.004,0.002,0.008,0.003l0,0c0.111,0.054,0.252,0.108,0.415,0.14
				C6.647,6.292,6.469,6.561,6.405,6.74C6.281,6.795,6.023,6.941,5.421,7.324C5.262,7.426,5.153,7.583,5.115,7.768
				C5.075,7.953,5.111,8.142,5.217,8.3c0.134,0.201,0.354,0.312,0.581,0.312c0.122,0,0.246-0.033,0.358-0.1l1.029-0.618
				c0.16-0.039,0.961-0.279,1.567-1.259c0.476-0.769,0.742-1.388,0.853-1.668l0.018,0.009c0.063,0.031,0.131,0.047,0.2,0.047
				c0.115,0,0.229-0.046,0.313-0.126c0.089-0.084,0.137-0.2,0.137-0.323V3.861C10.271,3.801,10.237,3.746,10.182,3.723z"/>
		</g>
		<g id="Faible" display="inline">
			<path id="Famine" display="none" fill="#F9F9F9" d="M8.833,9.237l-1.19,0.225L5.699,8.405l0.707-0.881l1.589,0.528L8.833,9.237z
				 M10.662,7.171v0.132L9.409,7.7L8.172,7.876l-1.59-0.529L6.208,7.171h0.214C6.371,6.698,6.303,6.34,6.27,5.871H6.268
				C6.267,5.857,6.25,5.543,6.246,5.409C6.222,5.268,6.155,5.212,5.934,5.06C5.813,4.982,5.723,4.954,5.672,4.955
				c-0.081,0-0.153,0.088-0.17,0.352C5.856,5.367,5.88,5.759,5.88,5.759c0.031,0.278-0.105,0.685-0.42,0.79
				C4.878,6.743,4.938,5.622,5.266,5.353C5.275,5.03,5.365,4.734,5.672,4.722c0.122,0.001,0.246,0.051,0.39,0.142
				C6.13,4.905,6.186,4.947,6.235,4.99C6.229,4.884,6.222,4.775,6.222,4.663C6.221,4.428,6.258,4.171,6.467,3.989
				c0.107-0.098,0.229-0.148,0.348-0.147c0.311,0.015,0.504,0.283,0.616,0.557c0.131-0.057,0.294-0.085,0.481-0.02
				c0.479,0.166,0.737,1,0.536,1.291C7.977,6.347,6.789,5.086,7.104,4.646c0,0,0.046-0.06,0.127-0.126
				C7.139,4.277,6.953,4.06,6.815,4.075C6.762,4.076,6.7,4.095,6.622,4.164C6.49,4.28,6.455,4.446,6.455,4.663
				c0,0.153,0.019,0.323,0.019,0.493c0,0.089,0.006,0.167,0.009,0.253c0.021,0.152,0.022,0.269,0.021,0.429
				c0.032,0.467,0.222,0.851,0.272,1.333H10.662z M7.318,4.613l0.899,0.98c-0.16-0.695-0.73-1.082-0.73-1.082L7.318,4.613z
				 M5.453,5.454L5.292,5.52c0,0-0.08,0.548,0,0.834L5.453,5.454z M4.648,8.759l0.715-0.43l0.745-0.922L5.875,7.171H4.229
				L3.902,7.823L4.648,8.759z M5.482,8.611L4.215,9.473l0.169,0.209h2.915l-0.01-0.043L5.482,8.611z M2.875,7.171v0.994L3.687,7.73
				l0.246-0.559H2.875z M8.407,8.089l0.786,1.139l1.469,0.345V8.27L9.605,7.929L8.407,8.089z M10.662,7.985v-0.46L9.838,7.748
				L10.662,7.985z M3.707,8.049L2.875,8.445v1.237h0.609L4.39,8.94L3.707,8.049z M8.064,9.682h1.902l-0.91-0.22L8.064,9.682z"/>
			<path id="Cyclone" display="none" fill="#FFFFFF" d="M6.799,4.496c-0.04-0.002-0.08-0.007-0.12-0.007
				c-0.357,0-0.692,0.093-0.984,0.254c0.521-1.776,1.822-1.931,1.822-1.931S4.643,3.052,4.643,6.405c0.002,0,0.004,0,0.006,0
				c-0.002,0.041-0.006,0.08-0.006,0.121c0,0.355,0.093,0.691,0.254,0.984C3.12,6.988,2.965,5.688,2.965,5.688
				S3.204,8.563,6.56,8.563c0-0.003,0-0.004,0-0.007c0.039,0.002,0.079,0.007,0.119,0.007c0.357,0,0.692-0.093,0.984-0.255
				c-0.521,1.777-1.823,1.932-1.823,1.932S8.715,10,8.715,6.646c-0.002,0-0.004,0-0.006,0c0.002-0.04,0.006-0.079,0.006-0.119
				c0-0.357-0.093-0.693-0.255-0.984c1.777,0.521,1.932,1.822,1.932,1.822s-0.238-2.875-3.593-2.875
				C6.799,4.492,6.799,4.494,6.799,4.496z"/>
			<path id="eruption" display="none" fill="#FFFFFF" d="M7.245,5.14c0.428,0.146,0.996,0.319,1.117-0.372
				C8.458,4.231,9.175,4.43,9.48,4.396c0.555-0.064,0.135-1.103-0.559-1.118C8.218,3.262,7.898,3.571,7.618,4.209
				C7.484,4.516,7.37,4.747,6.873,4.582C6.376,4.416,6.012,4.824,6.314,5.327C6.581,5.772,6.31,6.258,6.31,6.258h0.75
				c0,0-0.006-0.276-0.187-0.559C6.662,5.37,6.807,4.989,7.245,5.14z M3.276,9.774C5.203,8.37,5.685,6.428,5.685,6.428h1.98
				c0,0,0.482,1.941,2.408,3.346H3.276z"/>
			<path id="tsunami" display="none" fill="#FFFFFF" d="M10.29,8.892C4.374,9.227,6.028,4.702,7.562,5.093
				C7.404,5.189,7.302,5.522,7.4,5.746c0.107,0.24,0.453,0.377,0.652,0.327C8.529,5.95,8.55,5.281,8.378,4.93
				C8.2,4.565,7.73,4.114,6.909,4.114c-1.981,0-3.333,1.012-3.841,2.751v2.558h7.223V8.892z"/>
			<path id="epidemie" display="none" fill="#FFFFFF" d="M9.765,6.826c0-1.691-1.325-3.067-2.994-3.153
				c0.737,0.07,1.311,0.605,1.311,1.256c0,0.224-0.074,0.43-0.193,0.612C7.559,5.213,7.107,5.011,6.606,5.011
				c-0.5,0-0.952,0.202-1.281,0.529C5.207,5.358,5.133,5.152,5.133,4.928c0-0.65,0.573-1.186,1.31-1.256
				C4.775,3.758,3.449,5.135,3.449,6.826c0,0.51,0.124,0.991,0.338,1.418c-0.293-0.668-0.115-1.419,0.442-1.74
				c0.194-0.112,0.411-0.152,0.627-0.14C4.815,6.513,4.787,6.668,4.787,6.83c0,0.84,0.575,1.541,1.349,1.75
				C6.125,8.598,6.113,8.615,6.102,8.633c0,0.002,0,0.002,0,0.004C6.076,8.695,6.043,8.741,6.005,8.781
				C5.922,8.89,5.825,8.987,5.702,9.058C5.143,9.381,4.399,9.157,3.969,8.562C4.534,9.42,5.504,9.988,6.607,9.988
				c1.092,0,2.054-0.556,2.623-1.4C8.797,9.164,8.067,9.376,7.516,9.06C7.321,8.946,7.178,8.776,7.08,8.579
				C7.855,8.37,8.425,7.668,8.425,6.83c0-0.162-0.026-0.317-0.067-0.466C8.576,6.35,8.793,6.39,8.989,6.503
				C9.53,6.815,9.713,7.531,9.454,8.185C9.653,7.772,9.765,7.313,9.765,6.826z M6.943,8.042c-0.014-0.263,0.042-0.539,0.173-0.8
				L6.906,7.121C6.83,7.199,6.725,7.247,6.607,7.247c-0.117,0-0.223-0.048-0.299-0.126L6.102,7.239
				C6.234,7.502,6.289,7.78,6.275,8.043C5.74,7.897,5.344,7.41,5.344,6.83c0-0.111,0.018-0.216,0.045-0.318
				C5.622,6.63,5.834,6.814,5.996,7.057l0.211-0.123c-0.009-0.036-0.022-0.07-0.022-0.109c0-0.195,0.135-0.353,0.316-0.4V6.185
				C6.208,6.166,5.943,6.075,5.722,5.931c0.228-0.225,0.54-0.363,0.884-0.363s0.657,0.139,0.885,0.364
				c-0.22,0.144-0.486,0.234-0.779,0.253v0.241c0.181,0.047,0.316,0.205,0.316,0.4c0,0.039-0.012,0.073-0.021,0.109l0.214,0.125
				c0.161-0.243,0.373-0.426,0.604-0.544C7.851,6.616,7.869,6.721,7.869,6.83C7.869,7.409,7.476,7.894,6.943,8.042z"/>
			<path id="earthquake" display="none" fill="#FFFFFF" d="M8.784,6.749c-0.101,0-0.194,0.056-0.242,0.146L8.148,7.638L7.661,6.214
				c-0.038-0.108-0.136-0.181-0.25-0.186C7.294,6.025,7.193,6.091,7.148,6.196L6.815,6.988L6.289,3.834
				C6.264,3.702,6.14,3.602,6.013,3.609C5.878,3.612,5.766,3.701,5.748,3.835L5.282,7.494L4.906,5.53
				C4.884,5.415,4.789,5.326,4.672,5.31C4.556,5.294,4.44,5.357,4.389,5.463L3.772,6.749H2.814v0.548h1.131
				c0.105,0,0.202-0.061,0.248-0.155l0.331-0.691l0.535,2.786c0.025,0.129,0.138,0.223,0.269,0.223c0.002,0,0.005,0,0.007,0
				C5.469,9.456,5.581,9.355,5.6,9.222l0.458-3.596l0.383,2.367c0.022,0.12,0.119,0.21,0.24,0.224
				c0.122,0.011,0.236-0.055,0.284-0.167l0.411-0.978l0.458,1.342C7.869,8.518,7.962,8.591,8.071,8.6
				C8.18,8.606,8.284,8.552,8.336,8.455l0.613-1.158h1.177V6.749H8.784z"/>
		</g>
		<g id="Modere">
			<path id="displaced" display="inline" fill="#FFFFFF" d="M6.474,3.893c0.049,0.304-0.156,0.59-0.458,0.64
				c-0.303,0.05-0.591-0.156-0.641-0.458C5.325,3.77,5.53,3.483,5.834,3.434C6.137,3.384,6.424,3.589,6.474,3.893z M6.3,6.101
				l0.493,0.787c0.07,0.111,0.215,0.146,0.327,0.081c0.114-0.067,0.153-0.211,0.09-0.325L7.085,6.417
				C6.976,6.223,6.869,6.029,6.761,5.835L6.542,5.437C6.517,5.39,6.492,5.338,6.466,5.284C6.331,5,6.12,4.561,5.657,4.601
				C5.261,4.636,4.859,4.824,4.464,5.16c-0.469,0.37-0.796,0.906-0.809,0.93c-0.016,0.023-0.03,0.047-0.042,0.07
				C3.612,6.16,3.612,6.161,3.611,6.162l0,0C3.567,6.244,3.545,6.32,3.6,6.417c0.043,0.076,0.124,0.123,0.211,0.123
				c0.105,0,0.159-0.05,0.211-0.125l0,0c0.001,0,0.001-0.002,0.001-0.002c0.015-0.022,0.029-0.045,0.045-0.07
				C4.071,6.337,4.346,5.896,4.77,5.534c0.131-0.103,0.256-0.173,0.373-0.212L5.049,6.468C5.039,6.582,5.004,6.777,4.972,6.887
				L4.76,7.634c-0.028,0.094-0.108,0.251-0.17,0.327L4.013,8.675C3.94,8.766,3.858,8.868,3.926,9.01
				c0.041,0.084,0.125,0.137,0.219,0.137c0.111,0,0.172-0.063,0.247-0.146l0.583-0.629c0.104-0.112,0.24-0.307,0.307-0.445
				L5.57,7.34l1.07,1.797c0.052,0.089,0.119,0.199,0.264,0.199l0,0c0.083,0,0.159-0.042,0.203-0.111
				c0.077-0.119,0.025-0.227-0.019-0.324L6.223,7.022C6.19,6.948,6.171,6.798,6.185,6.717L6.3,6.101z M7.206,8.057h1.296v0.385
				L9.79,7.698L8.502,6.954v0.385H7.206V8.057z"/>
			<path id="returned" display="inline" fill="#FFFFFF" d="M6.475,3.892c0.049,0.304-0.157,0.59-0.459,0.64
				c-0.304,0.05-0.59-0.156-0.64-0.459c-0.05-0.304,0.155-0.59,0.459-0.64C6.137,3.383,6.426,3.588,6.475,3.892z M6.301,6.1
				l0.493,0.788c0.069,0.11,0.215,0.146,0.328,0.08C7.234,6.901,7.273,6.757,7.21,6.642L7.085,6.416
				C6.977,6.223,6.871,6.028,6.763,5.834l-0.22-0.399C6.518,5.39,6.493,5.338,6.467,5.283C6.331,4.999,6.119,4.56,5.657,4.601
				C5.261,4.635,4.86,4.823,4.464,5.159c-0.468,0.37-0.796,0.907-0.81,0.929C3.639,6.112,3.625,6.136,3.613,6.159
				C3.612,6.16,3.611,6.16,3.611,6.161l0,0C3.567,6.244,3.545,6.32,3.6,6.416c0.043,0.076,0.123,0.123,0.211,0.123
				c0.105,0,0.159-0.05,0.211-0.125l0,0c0.001-0.001,0.001-0.001,0.001-0.001C4.037,6.39,4.052,6.366,4.068,6.341
				c0.003-0.004,0.278-0.445,0.703-0.808C4.902,5.431,5.026,5.36,5.144,5.321L5.049,6.468C5.039,6.582,5.004,6.777,4.972,6.887
				L4.76,7.634C4.732,7.728,4.652,7.885,4.589,7.961L4.013,8.675C3.94,8.766,3.858,8.868,3.926,9.011
				c0.04,0.083,0.125,0.137,0.218,0.137c0.111,0,0.171-0.064,0.248-0.146l0.583-0.629c0.104-0.112,0.239-0.307,0.306-0.445
				L5.57,7.34l1.07,1.797C6.693,9.226,6.76,9.336,6.905,9.336l0,0c0.083,0,0.159-0.042,0.204-0.113
				C7.185,9.105,7.134,8.998,7.09,8.901l-0.865-1.88C6.191,6.948,6.172,6.798,6.186,6.717L6.301,6.1z M9.904,6.501
				c0-0.785-0.639-1.422-1.422-1.422H7.877v0.718h0.604c0.387,0,0.703,0.315,0.703,0.704c0,0.388-0.316,0.704-0.703,0.704H8.356
				V6.82L7.067,7.564l1.289,0.744V7.922h0.14V7.921C9.273,7.913,9.904,7.28,9.904,6.501z"/>
		</g>
		<g id="Important">
			<path id="enlevement" fill="#FFFFFF" d="M9.24,3.051c-0.195,0-0.355,0.16-0.355,0.356v1.451c0.086,0.019,0.168,0.055,0.234,0.12
				c0.188,0.185,0.193,0.489,0.009,0.678L8.453,6.35L8.36,6.26l0.677-0.692c0.136-0.14,0.132-0.363-0.006-0.5
				c-0.044-0.041-0.095-0.07-0.149-0.085c-0.06-0.016-0.12-0.017-0.179-0.005c-0.065,0.017-0.124,0.05-0.17,0.099
				c-0.4,0.411-0.802,0.822-1.203,1.233c-0.1,0.103-0.284,0.339-0.278,0.574c0.004,0.221-0.003,0.448,0.001,0.67
				C7,7.512,6.937,7.481,6.865,7.468C6.658,7.434,6.472,7.557,6.401,7.741H6.296c0-0.05,0-0.101,0.001-0.151
				c0.005-0.232-0.004-0.473,0.002-0.705C6.304,6.649,6.12,6.413,6.02,6.31C5.619,5.899,5.219,5.488,4.817,5.076
				c-0.046-0.048-0.104-0.082-0.17-0.098C4.588,4.966,4.528,4.967,4.469,4.983C4.414,4.999,4.363,5.028,4.32,5.069
				c-0.138,0.136-0.141,0.359-0.006,0.5L4.99,6.26L4.897,6.35L4.222,5.656c-0.185-0.189-0.18-0.493,0.009-0.677
				c0.066-0.064,0.148-0.101,0.234-0.12V3.408c0-0.196-0.16-0.356-0.355-0.356c-0.198,0-0.357,0.16-0.357,0.356V5.92
				c0,0.082,0.033,0.157,0.082,0.218L5.048,7.74H4.941c-0.236,0-0.429,0.192-0.429,0.43c0,0.157,0.089,0.289,0.215,0.363
				C4.601,8.608,4.512,8.74,4.512,8.896c0,0.238,0.192,0.43,0.429,0.43h0.131v0.239h1.191c0.062,0.062,0.135,0.107,0.223,0.122
				C6.51,9.691,6.532,9.693,6.557,9.693c0.209,0,0.388-0.149,0.422-0.356l0.002-0.011h0.076c0.001,0.079,0,0.157,0.009,0.239h1.212
				V9.326h0.131c0.236,0,0.429-0.191,0.429-0.43c0-0.156-0.089-0.288-0.216-0.363c0.127-0.074,0.216-0.206,0.216-0.364
				c0-0.237-0.192-0.429-0.429-0.429H8.302l1.213-1.603c0.05-0.061,0.082-0.136,0.082-0.218V3.408
				C9.597,3.211,9.438,3.051,9.24,3.051z M4.727,8.169c0-0.118,0.096-0.214,0.214-0.214h1.406L6.273,8.384H4.941
				C4.823,8.383,4.727,8.288,4.727,8.169z M4.727,8.896c0-0.117,0.096-0.215,0.214-0.215h1.28l-0.074,0.43H4.941
				C4.823,9.111,4.727,9.016,4.727,8.896z M6.767,9.3C6.748,9.418,6.626,9.494,6.52,9.476c-0.057-0.01-0.106-0.041-0.139-0.087
				c-0.034-0.047-0.046-0.104-0.036-0.16l0.236-1.374C6.6,7.751,6.69,7.677,6.796,7.677c0.011,0,0.023,0,0.034,0.002
				c0.117,0.02,0.195,0.131,0.174,0.248L6.767,9.3z M8.623,8.896c0,0.119-0.096,0.215-0.214,0.215H7.018l0.074-0.43h1.317
				C8.527,8.682,8.623,8.779,8.623,8.896z M8.623,8.169c0,0.118-0.096,0.214-0.214,0.214H7.144l0.072-0.42
				c0.001-0.003,0-0.006,0-0.009h1.192C8.527,7.955,8.623,8.052,8.623,8.169z"/>
		</g>
		<g id="Eleve">
			<path id="attack" display="inline" fill="#FFFFFF" d="M8.332,7.013l2.116-1.355L8.404,5.441l0.555-2.376l-1.45,1.499L7.105,2.87
				L6.496,4.451L4.839,2.316L5.36,4.991L3.887,4.664c0,0,0.447,0.857,0.697,1.373L2.22,5.871l2.14,1.251L3.745,7.754L4.74,7.572
				l-0.705,2.493L6.13,8.313l0.543,1.354l0.559-1.083l1.806,1.865L8.135,7.952l1.98,0.201L8.332,7.013z"/>
		</g>
		<g id="Extreme">
			<path id="rebelion" display="inline" fill="#FFFFFF" d="M7.799,4.597c0,0.661-0.535,1.195-1.194,1.195
				c-0.661,0-1.197-0.535-1.197-1.195c0-0.661,0.536-1.195,1.197-1.195C7.264,3.402,7.799,3.936,7.799,4.597z M4.609,9.667h0.73
				h0.039l0.027-0.056l0.265-0.26L5.425,9.299L5.037,9.216L4.609,9.667z M9.61,4.819L9.353,5.075L9.37,5.093L9.163,5.302
				C9.191,5.327,9.218,5.353,9.24,5.383l0.209-0.209l0.043,0.039l0.253-0.258L9.61,4.819z M7.959,6.145l-0.11,0.109l0.013,0.031
				l0.025,0.059L6.144,8.092l0.187,0.04C6.503,8.168,6.652,8.271,6.748,8.42c0.013,0.021,0.017,0.047,0.028,0.069l0.005-0.006
				l0.128,0.085l0.046-0.01l0.508,0.369l0.342-0.468L7.048,7.868l0.017-0.049l0.125,0l0.743-0.872l0.083-0.781L7.959,6.145z
				 M8.769,5.372C8.543,5.347,8.323,5.516,8.297,5.75L8.269,6.005l0,0L8.251,6.189L8.168,6.971L8.16,7.044L8.114,7.1L7.448,7.88
				l0.501,0.393L8.13,8.414L8.025,8.557L8.051,8.61C8.12,8.76,8.273,8.853,8.437,8.853c0.023,0,0.047-0.001,0.071-0.006
				C8.696,8.815,8.84,8.662,8.861,8.473l0.284-2.629C9.172,5.608,9.002,5.396,8.769,5.372z M7.899,8.73L7.655,9.066l-0.14,0.192
				l-0.192-0.14l-0.42-0.304L6.865,8.823l-0.015-0.01c0,0.036-0.001,0.071-0.009,0.107c-0.008,0.035-0.02,0.067-0.034,0.1
				C6.781,9.082,6.746,9.136,6.705,9.186l0.03,0.067c0.029,0.067,0.07,0.154,0.119,0.23l0.117,0.183h0.898L7.899,8.73z M6.191,9.446
				c-0.01,0-0.021-0.003-0.031-0.004C6.156,9.461,6.153,9.475,6.153,9.475l0.101,0.191h0.243l0.158-0.055
				C6.601,9.528,6.558,9.438,6.518,9.348C6.419,9.405,6.311,9.446,6.191,9.446z M6.542,8.541c-0.017-0.027-0.044-0.048-0.068-0.07
				C6.46,8.458,6.448,8.44,6.431,8.429c-0.044-0.031-0.096-0.054-0.15-0.067L6.094,8.324L5.669,8.233l0,0l-0.376-0.08L5.147,8.122
				L4.906,8.07L4.89,8.067l0.038-0.039l0.163-0.162l0.174-0.175c0.015,0.12,0.021,0.215,0.021,0.217L5.343,7.92l0.527,0.112
				l0.108-0.108l1.631-1.638L7.572,6.195l0.013-0.011C7.349,6.113,7.071,6.072,6.72,6.072H6.605c0,0-0.114,0-0.115,0
				c-0.246,0-0.495,0.017-0.738,0.071C5.334,6.237,5.075,6.646,4.789,6.928C4.494,7.218,4.208,7.52,3.921,7.818
				C3.858,7.885,3.794,7.953,3.729,8.019C3.618,8.13,3.578,8.292,3.622,8.443C3.665,8.593,3.789,8.706,3.943,8.74l0.564,0.121
				l0.239,0.05L6.102,9.2c0.03,0.005,0.06,0.01,0.09,0.01c0.197,0,0.374-0.138,0.417-0.338c0.016-0.079,0.004-0.153-0.02-0.224
				L6.563,8.594C6.555,8.578,6.549,8.561,6.542,8.541z M5.944,9.585L5.903,9.508l0.02-0.086l0.004-0.017L5.862,9.391l-0.24,0.275
				h0.364L5.944,9.585z"/>
		</g>
	</g>
</g>
<g id="Icone">
</g>
</svg>
