<?xml version="1.0" encoding="utf-8"?>
<!-- Generator: Adobe Illustrator 16.0.0, SVG Export Plug-In . SVG Version: 6.00 Build 0)  -->
<!DOCTYPE svg PUBLIC "-//W3C//DTD SVG 1.1//EN" "http://www.w3.org/Graphics/SVG/1.1/DTD/svg11.dtd">
<svg version="1.1" id="Groupe" xmlns="http://www.w3.org/2000/svg" xmlns:xlink="http://www.w3.org/1999/xlink" x="0px" y="0px"
	 width="15.871px" height="15.65px" viewBox="0 0 15.871 15.65" enable-background="new 0 0 15.871 15.65" xml:space="preserve">
<g id="PinColor_1_">
	<path id="vert" display="none" fill="#2ABF00" stroke="#1D7500" stroke-width="0.2" stroke-miterlimit="10" d="M15.442,7.876
		c0,3.433-2.456,6.311-5.77,7.071c-0.556,0.123-2.962,0.123-3.536-0.022c-3.278-0.775-5.709-3.638-5.709-7.052
		c0-4.003,3.364-7.26,7.507-7.26C12.076,0.613,15.442,3.87,15.442,7.876z"/>
	<path id="orange" display="none" fill="#FF8500" stroke="#7F4500" stroke-width="0.2" stroke-miterlimit="10" d="M15.442,7.876
		c0,3.433-2.456,6.311-5.77,7.071c-0.556,0.123-2.962,0.123-3.536-0.022c-3.278-0.775-5.709-3.638-5.709-7.052
		c0-4.003,3.364-7.26,7.507-7.26C12.076,0.613,15.442,3.87,15.442,7.876z"/>
	<path id="gris" display="none" fill="#A5A5A5" stroke="#595959" stroke-width="0.2" stroke-miterlimit="10" d="M15.442,7.876
		c0,3.433-2.456,6.311-5.77,7.071c-0.556,0.123-2.962,0.123-3.536-0.022c-3.278-0.775-5.709-3.638-5.709-7.052
		c0-4.003,3.364-7.26,7.507-7.26C12.076,0.613,15.442,3.87,15.442,7.876z"/>
	<path id="bleu" fill="#0092FF" stroke="#00477C" stroke-width="0.2" stroke-miterlimit="10" d="M15.442,7.876
		c0,3.433-2.456,6.311-5.77,7.071c-0.556,0.123-2.962,0.123-3.536-0.022c-3.278-0.775-5.709-3.638-5.709-7.052
		c0-4.003,3.364-7.26,7.507-7.26C12.076,0.613,15.442,3.87,15.442,7.876z"/>
</g>
<g id="IconsGroup">
	<g id="MinimalGroup" display="none">
		<path id="ElectionGroup" display="inline" fill="#565656" d="M13.603,3.566l-3.413-1.459c-0.097-0.04-0.222-0.016-0.283,0.069
			L8.93,3.397C8.885,3.444,8.87,3.528,8.885,3.599C8.9,3.673,8.945,3.725,9.01,3.754L5.952,4.906c-0.256,0.09-0.479,0.271-0.62,0.51
			L4.322,7.1C4.108,7.456,4.087,7.896,4.277,8.267l0.078,0.142h-1.07c-0.136,0-0.241,0.111-0.241,0.246v4.621H2.313
			c-0.133,0-0.238,0.109-0.238,0.239c0,0.133,0.108,0.241,0.238,0.241h8.267c0.134,0,0.24-0.108,0.24-0.241
			c0-0.13-0.106-0.239-0.24-0.239H9.852V10.79c0-0.077-0.043-0.159-0.106-0.201c-0.073-0.048-0.164-0.056-0.241-0.015
			C9.238,10.7,9.038,10.761,8.947,10.79c-0.019,0-0.041,0.013-0.055,0.025L7.307,11.76c-0.253,0.15-0.54,0.236-0.829,0.236
			c-0.548,0-1.038-0.268-1.347-0.727c-0.251-0.363-0.338-0.802-0.243-1.233c0.091-0.428,0.345-0.796,0.709-1.032l0.234-0.147
			c0.168-0.1,0.322-0.191,0.452-0.276C6.38,8.526,6.415,8.409,6.386,8.3C6.328,8.106,6.231,7.933,6.132,7.8
			c0.37-0.157,0.874-0.448,1.129-0.743l0,0c0.053,0.032,0.116,0.069,0.187,0.103c0.005,0,0.005,0,0.013,0.004l0,0
			C7.642,7.252,7.864,7.34,8.133,7.392c-0.285,0.352-0.569,0.786-0.68,1.075c-0.189,0.092-0.61,0.318-1.587,0.946
			C5.607,9.575,5.427,9.836,5.369,10.14c-0.064,0.298-0.008,0.603,0.164,0.861c0.224,0.328,0.574,0.509,0.944,0.509
			c0.199,0,0.394-0.059,0.58-0.16l1.669-1.008c0.26-0.063,1.557-0.453,2.545-2.046c0.773-1.249,1.207-2.251,1.383-2.708l0.031,0.015
			c0.104,0.045,0.223,0.083,0.325,0.083c0.194,0,0.384-0.083,0.516-0.21c0.141-0.139,0.222-0.326,0.222-0.524v-1.16
			C13.741,3.692,13.69,3.599,13.603,3.566z"/>
	</g>
	<g id="FaibleGroup" display="none">
		<path id="FamineGroup" display="inline" fill="#F9F9F9" d="M11.074,12.132l-1.85,0.351l-3.016-1.647l1.099-1.356l2.459,0.817
			L11.074,12.132z M13.91,8.922v0.21l-1.944,0.613l-1.92,0.272L7.579,9.199L6.997,8.922h0.334C7.253,8.195,7.146,7.634,7.093,6.905
			l0,0c-0.004-0.02-0.03-0.506-0.034-0.711C7.02,5.969,6.913,5.884,6.572,5.644C6.381,5.53,6.24,5.486,6.169,5.486
			c-0.126,0-0.239,0.136-0.266,0.552c0.552,0.093,0.584,0.701,0.584,0.701C6.539,7.17,6.323,7.8,5.836,7.965
			C4.938,8.261,5.025,6.529,5.533,6.108c0.016-0.5,0.156-0.961,0.634-0.979c0.193,0,0.385,0.081,0.604,0.221
			c0.1,0.068,0.193,0.128,0.264,0.199C7.029,5.379,7.02,5.21,7.02,5.034c0-0.37,0.056-0.76,0.381-1.043
			c0.165-0.154,0.35-0.241,0.541-0.237c0.481,0.029,0.775,0.441,0.953,0.865c0.2-0.087,0.455-0.127,0.742-0.024
			c0.744,0.25,1.15,1.553,0.84,1.997C9.74,7.646,7.899,5.692,8.383,5.003c0,0,0.076-0.087,0.2-0.193
			C8.436,4.432,8.151,4.101,7.94,4.119c-0.083,0-0.184,0.03-0.298,0.137C7.437,4.44,7.378,4.695,7.378,5.034
			c0,0.239,0.032,0.503,0.032,0.766c0,0.14,0.008,0.261,0.011,0.395c0.035,0.235,0.035,0.412,0.035,0.663
			C7.51,7.583,7.798,8.178,7.881,8.923L13.91,8.922L13.91,8.922z M8.714,4.955l1.401,1.522c-0.25-1.079-1.131-1.68-1.131-1.68
			L8.714,4.955z M5.823,6.259L5.575,6.363c0,0-0.125,0.852,0,1.292L5.823,6.259z M4.575,11.387l1.111-0.667l1.152-1.43L6.482,8.922
			H3.926L3.417,9.944L4.575,11.387z M5.866,11.157l-1.962,1.341l0.257,0.323h4.524l-0.014-0.063L5.866,11.157z M1.827,8.922v1.545
			L3.08,9.791l0.387-0.869H1.827z M10.411,10.344l1.218,1.776l2.28,0.536V10.63l-1.642-0.526L10.411,10.344z M13.91,10.186V9.475
			l-1.282,0.343L13.91,10.186z M3.116,10.291l-1.29,0.611v1.919h0.942l1.407-1.149L3.116,10.291z M9.872,12.821h2.955l-1.408-0.339
			L9.872,12.821z"/>
		<path id="CycloneGroup" display="inline" fill="#FFFFFF" d="M7.912,4.771c-0.066,0-0.127-0.009-0.189-0.009
			c-0.555,0-1.072,0.144-1.523,0.391c0.807-2.749,2.824-2.996,2.824-2.996S4.564,2.538,4.564,7.74c0.002,0,0.002,0,0.009,0
			c0,0.059-0.005,0.117-0.005,0.184c0,0.548,0.145,1.075,0.393,1.529c-2.752-0.813-2.992-2.83-2.992-2.83s0.374,4.461,5.579,4.461
			c0-0.004,0-0.004,0-0.012c0.063,0.004,0.119,0.012,0.185,0.012c0.554,0,1.072-0.143,1.527-0.395
			c-0.816,2.761-2.835,2.999-2.835,2.999s4.466-0.377,4.466-5.582c-0.008,0-0.008,0-0.008,0c0-0.064,0.008-0.126,0.008-0.187
			c0-0.557-0.141-1.076-0.395-1.528c2.751,0.808,2.999,2.83,2.999,2.83s-0.373-4.46-5.583-4.46C7.912,4.767,7.912,4.771,7.912,4.771
			z"/>
		<path id="tsunamiGroup" display="inline" fill="#FFFFFF" d="M13.335,11.594C4.146,12.118,6.719,5.095,9.094,5.7
			C8.85,5.852,8.695,6.366,8.844,6.71c0.165,0.379,0.709,0.585,1.018,0.507c0.733-0.188,0.769-1.218,0.506-1.771
			c-0.28-0.56-1.01-1.264-2.286-1.264c-3.066,0-5.172,1.569-5.961,4.267v3.97h11.216L13.335,11.594L13.335,11.594z"/>
		<path id="earthquakeGroup" display="inline" fill="#FFFFFF" d="M10.993,8.272c-0.156,0-0.302,0.086-0.375,0.23L10.005,9.65
			l-0.75-2.211C9.191,7.272,9.038,7.158,8.861,7.151C8.677,7.147,8.521,7.25,8.458,7.416L7.94,8.64L7.124,3.743
			C7.085,3.541,6.887,3.386,6.696,3.398C6.482,3.405,6.307,3.541,6.28,3.746L5.559,9.42L4.973,6.377
			C4.942,6.201,4.793,6.06,4.609,6.038C4.433,6.016,4.256,6.108,4.168,6.27L3.209,8.272H1.731v0.851h1.755
			c0.162,0,0.312-0.089,0.385-0.24L4.386,7.81l0.832,4.324c0.039,0.195,0.219,0.341,0.413,0.341c0.008,0,0.012,0,0.014,0
			c0.214-0.005,0.386-0.159,0.413-0.368l0.709-5.581l0.596,3.67c0.034,0.19,0.182,0.331,0.37,0.354
			c0.193,0.017,0.369-0.082,0.44-0.256l0.638-1.517l0.711,2.089c0.06,0.157,0.198,0.264,0.367,0.279
			c0.174,0.01,0.334-0.076,0.412-0.226l0.954-1.802h1.824V8.272H10.993z"/>
	</g>
	<g id="EleveGroup" display="none">
		<path id="attackGroup" display="inline" fill="#FFFFFF" d="M10.75,8.816l2.991-1.922l-2.896-0.308l0.788-3.355L9.586,5.352
			L9.008,2.951L8.151,5.187L5.805,2.167l0.738,3.786L4.456,5.488c0,0,0.633,1.212,0.988,1.946L2.096,7.198l3.03,1.771L4.26,9.858
			l1.404-0.25L4.67,13.13l2.963-2.478l0.774,1.919l0.787-1.529l2.55,2.635l-1.28-3.533l2.807,0.286L10.75,8.816z"/>
	</g>
	<g id="ExtremeGroup" display="none">
		<path id="rebelionGroup" display="inline" fill="#FFFFFF" d="M9.998,4.346c0,1.221-0.994,2.207-2.203,2.207
			c-1.223,0-2.213-0.987-2.213-2.207c0-1.223,0.989-2.205,2.213-2.205C9.008,2.141,9.998,3.124,9.998,4.346z M4.108,13.702H5.45
			h0.075l0.053-0.1l0.488-0.479l-0.46-0.101l-0.71-0.15L4.108,13.702z M13.338,4.757l-0.47,0.476l0.028,0.034l-0.388,0.378
			c0.056,0.052,0.104,0.101,0.146,0.155l0.389-0.387l0.078,0.07l0.465-0.476L13.338,4.757z M10.292,7.202l-0.205,0.206l0.022,0.056
			l0.052,0.111l-3.219,3.223l0.342,0.082c0.321,0.066,0.593,0.25,0.773,0.53c0.026,0.038,0.033,0.085,0.05,0.125l0.007-0.01
			l0.239,0.153l0.083-0.021l0.938,0.684l0.631-0.862l-1.399-1.094l0.037-0.091h0.239l1.367-1.61l0.153-1.44L10.292,7.202z
			 M11.788,5.777c-0.42-0.045-0.824,0.27-0.871,0.701l-0.056,0.471l0,0l-0.032,0.338l-0.153,1.44l-0.015,0.137L10.58,8.963
			l-1.23,1.449l0.92,0.718l0.34,0.262l-0.198,0.264l0.052,0.092c0.125,0.278,0.405,0.446,0.706,0.446c0.044,0,0.088,0,0.132-0.011
			c0.348-0.053,0.611-0.339,0.65-0.688l0.529-4.857C12.533,6.211,12.215,5.825,11.788,5.777z M10.182,11.982L9.732,12.6l-0.258,0.35
			l-0.359-0.258l-0.776-0.561l-0.064,0.016l-0.033-0.016c0,0.067,0,0.13-0.019,0.194c-0.009,0.064-0.032,0.127-0.06,0.186
			c-0.044,0.115-0.112,0.205-0.184,0.307l0.055,0.125c0.053,0.126,0.129,0.285,0.216,0.427l0.223,0.332h1.657L10.182,11.982z
			 M7.029,13.296c-0.015,0-0.04-0.003-0.063-0.003c0,0.029-0.005,0.049-0.005,0.049l0.188,0.36h0.444l0.292-0.1
			c-0.1-0.15-0.179-0.316-0.254-0.487C7.448,13.224,7.253,13.296,7.029,13.296z M7.676,11.628c-0.03-0.048-0.082-0.089-0.125-0.126
			c-0.024-0.028-0.043-0.062-0.083-0.081c-0.075-0.056-0.177-0.104-0.277-0.126l-0.34-0.068L6.063,11.06l0,0l-0.699-0.149
			l-0.268-0.053l-0.44-0.1l-0.032-0.004L4.7,10.676l0.302-0.299l0.321-0.32c0.025,0.226,0.037,0.395,0.037,0.397l0.105,0.023
			l0.973,0.21l0.201-0.202L9.65,7.464L9.578,7.295L9.6,7.274c-0.433-0.127-0.947-0.21-1.596-0.21H7.795H7.582
			c-0.456,0-0.913,0.036-1.361,0.132C5.443,7.372,4.964,8.13,4.444,8.648c-0.548,0.537-1.076,1.093-1.602,1.646
			c-0.119,0.126-0.233,0.249-0.36,0.367c-0.202,0.21-0.277,0.508-0.202,0.786c0.083,0.275,0.31,0.483,0.597,0.548l1.041,0.228
			l0.443,0.091l2.505,0.534c0.056,0.006,0.109,0.014,0.163,0.014c0.364,0,0.694-0.248,0.773-0.626
			c0.03-0.148,0.007-0.277-0.041-0.407L7.72,11.723C7.702,11.693,7.688,11.668,7.676,11.628z M6.572,13.557l-0.077-0.143
			l0.044-0.158l0.004-0.028L6.416,13.19l-0.438,0.512h0.673L6.572,13.557z"/>
	</g>
	<path id="displacedGroup" display="none" fill="#FFFFFF" d="M7.857,3.599c0.092,0.571-0.293,1.105-0.86,1.201
		C6.429,4.901,5.886,4.51,5.796,3.946c-0.091-0.574,0.29-1.117,0.862-1.205C7.228,2.641,7.763,3.031,7.857,3.599z M7.534,7.747
		l0.925,1.479c0.132,0.209,0.402,0.275,0.619,0.149c0.21-0.127,0.279-0.39,0.16-0.611l-0.229-0.42
		C8.799,7.976,8.604,7.612,8.397,7.25L7.986,6.498C7.94,6.41,7.896,6.317,7.846,6.21c-0.252-0.53-0.648-1.355-1.519-1.281
		C5.583,4.996,4.826,5.352,4.084,5.983C3.206,6.677,2.587,7.677,2.569,7.731c-0.029,0.038-0.06,0.083-0.08,0.124
		c0,0,0,0-0.007,0.004l0,0c-0.08,0.158-0.122,0.3-0.021,0.482c0.083,0.138,0.238,0.229,0.4,0.229c0.199,0,0.298-0.096,0.396-0.236
		l0,0l0,0c0.029-0.04,0.057-0.085,0.083-0.13C3.343,8.196,3.86,7.36,4.663,6.686c0.243-0.194,0.48-0.324,0.7-0.394L5.182,8.436
		c-0.018,0.21-0.086,0.581-0.142,0.79L4.641,10.63c-0.049,0.172-0.204,0.472-0.318,0.61l-1.082,1.337
		c-0.14,0.177-0.295,0.37-0.172,0.639c0.08,0.156,0.237,0.253,0.416,0.253c0.207,0,0.32-0.123,0.465-0.277l1.093-1.179
		c0.196-0.209,0.449-0.578,0.578-0.831l0.544-1.105l2.009,3.378c0.101,0.166,0.227,0.375,0.499,0.375l0,0
		c0.155,0,0.3-0.084,0.386-0.209c0.146-0.229,0.045-0.43-0.039-0.615L7.386,9.475C7.323,9.34,7.291,9.056,7.315,8.904L7.534,7.747z
		 M9.23,11.421h2.434v0.723l2.424-1.396l-2.424-1.396v0.725H9.23V11.421z"/>
	<path id="enlevementGroup" display="none" fill="#FFFFFF" d="M12.848,1.787c-0.359,0-0.646,0.291-0.646,0.647v2.638
		c0.164,0.034,0.309,0.097,0.436,0.218c0.338,0.335,0.346,0.895,0.014,1.232l-1.231,1.262L11.25,7.62l1.23-1.257
		c0.24-0.259,0.236-0.659-0.017-0.908c-0.076-0.076-0.169-0.131-0.272-0.159c-0.105-0.026-0.213-0.026-0.313-0.006
		c-0.127,0.027-0.229,0.09-0.31,0.179c-0.731,0.746-1.461,1.495-2.191,2.245C9.191,7.898,8.861,8.318,8.87,8.754
		c0.008,0.402,0,0.814,0,1.221C8.773,9.892,8.663,9.84,8.529,9.816c-0.378-0.068-0.712,0.161-0.841,0.496H7.501
		c0-0.088,0-0.187,0-0.275c0.007-0.417-0.009-0.858,0-1.283c0.014-0.427-0.327-0.854-0.504-1.036
		c-0.73-0.753-1.456-1.502-2.185-2.253C4.729,5.38,4.618,5.318,4.501,5.291C4.394,5.267,4.286,5.27,4.176,5.297
		C4.078,5.324,3.981,5.38,3.907,5.456c-0.251,0.249-0.26,0.649-0.019,0.908L5.12,7.621L4.955,7.786L3.727,6.523
		c-0.331-0.34-0.324-0.898,0.015-1.234c0.126-0.117,0.27-0.18,0.425-0.217V2.434c0-0.357-0.292-0.648-0.648-0.648
		c-0.361,0-0.649,0.291-0.649,0.648v4.563c0,0.15,0.06,0.289,0.147,0.399l2.208,2.906H5.033c-0.43,0-0.775,0.35-0.775,0.784
		c0,0.288,0.157,0.522,0.393,0.659c-0.232,0.143-0.394,0.382-0.394,0.658c0,0.434,0.345,0.779,0.775,0.779h0.236v0.438h2.168
		c0.111,0.111,0.244,0.193,0.402,0.229c0.052,0.01,0.088,0.014,0.133,0.014c0.385,0,0.709-0.273,0.774-0.647V13.19h0.139
		c0,0.143,0,0.29,0.015,0.436h2.199V13.19h0.234c0.424,0,0.775-0.347,0.775-0.778c0-0.28-0.155-0.526-0.394-0.663
		c0.238-0.138,0.394-0.373,0.394-0.66c0-0.432-0.353-0.781-0.775-0.781h-0.189l2.201-2.905c0.094-0.115,0.152-0.249,0.152-0.398
		v-4.56C13.499,2.078,13.207,1.787,12.848,1.787z M4.64,11.09c0-0.212,0.178-0.387,0.393-0.387H7.59l-0.137,0.781h-2.42
		C4.818,11.476,4.64,11.303,4.64,11.09z M4.64,12.412c0-0.217,0.178-0.394,0.393-0.394H7.36l-0.132,0.785H5.033
		C4.818,12.803,4.64,12.63,4.64,12.412z M8.357,13.145c-0.035,0.213-0.261,0.35-0.448,0.322c-0.106-0.016-0.193-0.076-0.256-0.159
		c-0.06-0.084-0.08-0.188-0.063-0.297l0.43-2.497c0.034-0.188,0.197-0.323,0.389-0.323c0.022,0,0.044,0,0.064,0.004
		c0.217,0.043,0.355,0.239,0.318,0.453L8.357,13.145z M11.73,12.412c0,0.218-0.17,0.392-0.392,0.392H8.807l0.133-0.785h2.399
		C11.553,12.022,11.73,12.199,11.73,12.412z M11.73,11.09c0,0.214-0.17,0.391-0.392,0.391H9.038l0.13-0.76c0-0.003,0-0.01,0-0.014
		h2.171C11.553,10.703,11.73,10.88,11.73,11.09z"/>
	<path id="eruptionGroup" display="none" fill="#FFFFFF" d="M8.605,5.773c0.668,0.229,1.547,0.495,1.738-0.574
		c0.148-0.84,1.252-0.531,1.727-0.578c0.861-0.103,0.213-1.713-0.861-1.735C10.115,2.858,9.623,3.343,9.18,4.329
		C8.98,4.803,8.8,5.161,8.029,4.906C7.258,4.65,6.687,5.283,7.157,6.064C7.57,6.757,7.152,7.509,7.152,7.509h1.165
		c0,0-0.005-0.42-0.29-0.862C7.7,6.127,7.926,5.541,8.605,5.773z M2.444,12.964c2.992-2.181,3.743-5.188,3.743-5.188h3.072
		c0,0,0.742,3.007,3.736,5.188H2.444z"/>
	<path id="returnedGroup" display="none" fill="#FFFFFF" d="M7.86,3.599c0.088,0.571-0.293,1.105-0.864,1.201
		C6.428,4.896,5.885,4.51,5.799,3.939c-0.095-0.572,0.286-1.11,0.858-1.201C7.228,2.641,7.763,3.029,7.86,3.599z M7.534,7.744
		l0.925,1.482c0.132,0.209,0.402,0.271,0.619,0.149c0.21-0.13,0.279-0.39,0.16-0.611L9.009,8.341
		C8.804,7.976,8.604,7.612,8.405,7.246L7.986,6.498C7.94,6.41,7.9,6.317,7.846,6.21C7.594,5.679,7.198,4.85,6.327,4.928
		C5.587,4.992,4.83,5.344,4.084,5.975c-0.882,0.702-1.5,1.702-1.52,1.75C2.538,7.767,2.507,7.809,2.488,7.854L2.481,7.858l0,0
		c-0.08,0.158-0.121,0.3-0.021,0.482c0.083,0.138,0.237,0.232,0.4,0.232c0.199,0,0.298-0.095,0.391-0.236l0,0l0,0
		c0.027-0.043,0.055-0.089,0.083-0.134c0.008-0.007,0.523-0.839,1.321-1.517C4.903,6.491,5.14,6.358,5.36,6.285L5.182,8.436
		c-0.018,0.21-0.086,0.581-0.142,0.79L4.641,10.63c-0.049,0.177-0.204,0.472-0.325,0.61l-1.073,1.337
		c-0.14,0.177-0.295,0.37-0.172,0.639c0.08,0.156,0.238,0.253,0.417,0.253c0.207,0,0.32-0.123,0.465-0.277l1.093-1.18
		c0.194-0.208,0.447-0.577,0.57-0.83l0.544-1.105l2.01,3.378c0.097,0.166,0.23,0.375,0.498,0.375l0,0
		c0.154,0,0.298-0.084,0.389-0.215c0.139-0.223,0.041-0.429-0.037-0.606l-1.63-3.532C7.331,9.34,7.295,9.056,7.315,8.904
		L7.534,7.744z M14.3,8.5c0-1.478-1.2-2.671-2.673-2.671h-1.134v1.346h1.138c0.727,0,1.321,0.593,1.321,1.326
		c0,0.724-0.585,1.323-1.321,1.323h-0.24V9.095l-2.418,1.396l2.418,1.401v-0.723h0.266l0,0C13.115,11.149,14.3,9.962,14.3,8.5z"/>
	<g id="Affected">
		<path fill="#FFFFFF" d="M5.082,3.383c0,0.512-0.42,0.93-0.932,0.93c-0.514,0-0.933-0.417-0.933-0.93
			c0-0.516,0.419-0.933,0.933-0.933C4.667,2.45,5.082,2.867,5.082,3.383z M4.251,9.748l0.201,3.431c0,0.117,0.097,0.227,0.218,0.227
			c0.12,0,0.22-0.105,0.22-0.227l0.183-3.431h0.609L5.051,5.902l1.264,2.514C6.36,8.525,6.488,8.577,6.601,8.532
			c0.11-0.048,0.166-0.173,0.117-0.286c0,0-0.929-2.501-1.155-2.97C5.332,4.808,5.107,4.524,4.239,4.524H4.063
			c-0.869,0-1.099,0.285-1.326,0.752c-0.225,0.469-1.148,2.97-1.148,2.97C1.54,8.359,1.592,8.484,1.7,8.532
			C1.812,8.58,1.941,8.53,1.988,8.416l1.263-2.518l-0.626,3.85h0.608l0.189,3.431c0,0.117,0.098,0.227,0.219,0.227
			c0.12,0,0.217-0.105,0.217-0.227l0.19-3.431H4.251L4.251,9.748z M11.664,2.447c-0.512,0-0.93,0.416-0.93,0.932
			s0.416,0.934,0.93,0.934c0.515,0,0.927-0.417,0.927-0.934S12.178,2.447,11.664,2.447z M12.628,7.921l0.062-2.022l1.136,2.518
			c0.05,0.109,0.18,0.161,0.285,0.116c0.117-0.045,0.168-0.173,0.125-0.286c0,0-0.804-2.505-1.031-2.97
			c-0.237-0.468-0.584-0.752-1.449-0.752h-0.181c-0.869,0-1.221,0.285-1.451,0.752C9.898,5.741,9.1,8.241,9.1,8.241
			C9.051,8.357,9.104,8.478,9.217,8.532C9.328,8.58,9.453,8.53,9.497,8.416l1.142-2.518l0.061,2.022l-0.178,5.08
			c-0.015,0.206,0.135,0.384,0.34,0.391c0.006,0.008,0.021,0.008,0.021,0.008c0.199,0,0.353-0.146,0.371-0.346l0.41-4.188
			l0.418,4.188c0.009,0.199,0.172,0.346,0.364,0.346c0.008,0,0.014,0,0.021-0.008c0.2-0.007,0.354-0.186,0.341-0.391L12.628,7.921
			L12.628,7.921z M7.912,8.102c-0.314,0-0.574,0.253-0.574,0.565c0,0.318,0.255,0.569,0.574,0.569c0.315,0,0.564-0.25,0.564-0.569
			C8.477,8.357,8.223,8.102,7.912,8.102z M7.912,11.458l0.254,1.786c0.036,0.087,0.115,0.155,0.217,0.155
			c0.102,0,0.184-0.077,0.221-0.161c0-0.008,0.004-0.119,0-0.133l-0.103-2.188l0.03-0.76c0.035-0.246,0.039-0.176,0.33-0.349
			c0.302-0.18,0.797-0.963,0.83-1.005c0.02-0.038,0.07-0.104,0.078-0.147C9.783,8.573,9.732,8.5,9.658,8.484
			c-0.07-0.011-0.116,0.023-0.154,0.063C9.461,8.591,8.881,9.363,8.445,9.438C8.349,9.427,8.238,9.373,7.964,9.373H7.853
			c-0.277,0-0.385,0.055-0.482,0.069c-0.432-0.08-1.017-0.853-1.06-0.896c-0.037-0.04-0.082-0.073-0.146-0.063
			C6.089,8.5,6.031,8.573,6.05,8.655c0.008,0.043,0.053,0.109,0.079,0.148C6.154,8.842,6.662,9.63,6.961,9.808
			c0.292,0.173,0.297,0.1,0.324,0.349l0.03,0.76l-0.106,2.189c-0.004,0.021,0,0.125,0.004,0.133C7.244,13.323,7.328,13.4,7.432,13.4
			c0.098,0,0.181-0.068,0.214-0.154C7.649,13.245,7.912,11.458,7.912,11.458"/>
	</g>
	<path id="epidemieGroup" display="none" fill="#FFFFFF" d="M12.518,8.389c0-2.627-2.058-4.762-4.645-4.893
		C9.02,3.599,9.908,4.435,9.908,5.444c0,0.346-0.118,0.666-0.301,0.95c-0.518-0.508-1.218-0.82-2-0.82
		c-0.773,0-1.48,0.312-1.989,0.82C5.443,6.112,5.327,5.791,5.327,5.445c0-1.01,0.88-1.842,2.033-1.949
		C4.77,3.633,2.716,5.767,2.716,8.389c0,0.789,0.195,1.535,0.529,2.199c-0.46-1.035-0.182-2.204,0.682-2.696
		C4.229,7.718,4.56,7.651,4.901,7.666c-0.067,0.237-0.108,0.477-0.108,0.73c0,1.305,0.89,2.391,2.095,2.716
		c-0.02,0.024-0.044,0.052-0.06,0.083v0.004c-0.041,0.085-0.086,0.164-0.149,0.225c-0.129,0.17-0.276,0.321-0.47,0.429
		c-0.865,0.501-2.019,0.154-2.689-0.771c0.879,1.334,2.38,2.214,4.096,2.214c1.697,0,3.185-0.861,4.076-2.171
		c-0.685,0.895-1.813,1.226-2.668,0.732c-0.304-0.179-0.52-0.439-0.67-0.744c1.195-0.326,2.081-1.414,2.081-2.717
		c0-0.251-0.037-0.49-0.094-0.726c0.34-0.021,0.678,0.046,0.977,0.225c0.84,0.48,1.127,1.592,0.715,2.6
		C12.342,9.858,12.518,9.142,12.518,8.389z M8.133,10.276c-0.02-0.41,0.069-0.834,0.272-1.243L8.081,8.845
		C7.964,8.97,7.795,9.045,7.616,9.045c-0.185,0-0.352-0.076-0.47-0.194L6.828,9.03c0.209,0.405,0.292,0.836,0.269,1.25
		C6.266,10.048,5.65,9.3,5.65,8.397c0-0.172,0.032-0.336,0.071-0.49c0.364,0.18,0.695,0.467,0.944,0.845l0.33-0.191
		C6.982,8.504,6.961,8.449,6.961,8.39c0-0.307,0.208-0.554,0.492-0.624V7.385c-0.456-0.03-0.864-0.169-1.206-0.393
		C6.593,6.646,7.08,6.432,7.609,6.432c0.527,0,1.022,0.22,1.374,0.566c-0.346,0.226-0.756,0.36-1.206,0.396v0.374
		c0.276,0.075,0.489,0.316,0.489,0.625c0,0.059-0.018,0.114-0.032,0.166l0.333,0.188c0.244-0.375,0.578-0.661,0.938-0.844
		C9.541,8.06,9.578,8.219,9.578,8.389C9.572,9.299,8.963,10.044,8.133,10.276z"/>
</g>
</svg>
