<?xml version="1.0" encoding="utf-8"?>
<!-- Generator: Adobe Illustrator 16.0.0, SVG Export Plug-In . SVG Version: 6.00 Build 0)  -->
<!DOCTYPE svg PUBLIC "-//W3C//DTD SVG 1.1//EN" "http://www.w3.org/Graphics/SVG/1.1/DTD/svg11.dtd">
<svg version="1.1" id="Groupe" xmlns="http://www.w3.org/2000/svg" xmlns:xlink="http://www.w3.org/1999/xlink" x="0px" y="0px"
	 width="15.871px" height="15.65px" viewBox="0 0 15.871 15.65" enable-background="new 0 0 15.871 15.65" xml:space="preserve">
<g id="PinColor_1_">
	<path id="vert" display="none" fill="#2ABF00" stroke="#1D7500" stroke-width="0.2" stroke-miterlimit="10" d="M15.443,7.876
		c0,3.433-2.456,6.31-5.77,7.072c-0.557,0.123-2.962,0.123-3.537-0.023c-3.278-0.775-5.709-3.637-5.709-7.051
		c0-4.003,3.364-7.26,7.507-7.26C12.076,0.614,15.443,3.87,15.443,7.876z"/>
	<path id="orange" display="none" fill="#FF8500" stroke="#7F4500" stroke-width="0.2" stroke-miterlimit="10" d="M15.443,7.876
		c0,3.433-2.456,6.31-5.77,7.072c-0.557,0.123-2.962,0.123-3.537-0.023c-3.278-0.775-5.709-3.637-5.709-7.051
		c0-4.003,3.364-7.26,7.507-7.26C12.076,0.614,15.443,3.87,15.443,7.876z"/>
	<path id="gris" fill="#A5A5A5" stroke="#595959" stroke-width="0.2" stroke-miterlimit="10" d="M15.443,7.876
		c0,3.433-2.456,6.31-5.77,7.072c-0.557,0.123-2.962,0.123-3.537-0.023c-3.278-0.775-5.709-3.637-5.709-7.051
		c0-4.003,3.364-7.26,7.507-7.26C12.076,0.614,15.443,3.87,15.443,7.876z"/>
	<path id="bleu" display="none" fill="#0092FF" stroke="#00477C" stroke-width="0.2" stroke-miterlimit="10" d="M15.443,7.876
		c0,3.433-2.456,6.31-5.77,7.072c-0.557,0.123-2.962,0.123-3.537-0.023c-3.278-0.775-5.709-3.637-5.709-7.051
		c0-4.003,3.364-7.26,7.507-7.26C12.076,0.614,15.443,3.87,15.443,7.876z"/>
</g>
<g id="IconsGroup">
	<g id="MinimalGroup" display="none">
		<path id="ElectionGroup" display="inline" fill="#565656" d="M13.441,3.432l-3.41-1.455C9.935,1.936,9.811,1.961,9.748,2.046
			L8.774,3.263C8.729,3.312,8.713,3.396,8.729,3.465C8.744,3.539,8.787,3.591,8.854,3.62L5.799,4.772
			c-0.255,0.09-0.478,0.27-0.619,0.509L4.171,6.962C3.958,7.319,3.937,7.756,4.126,8.128l0.078,0.143H3.136
			c-0.135,0-0.24,0.109-0.24,0.246v4.613h-0.73c-0.133,0-0.237,0.109-0.237,0.24c0,0.133,0.107,0.242,0.237,0.242h8.255
			c0.135,0,0.242-0.109,0.242-0.242c0-0.129-0.107-0.24-0.242-0.24H9.694v-2.48c0-0.078-0.045-0.16-0.106-0.201
			c-0.072-0.049-0.164-0.057-0.242-0.016c-0.264,0.125-0.463,0.188-0.555,0.217c-0.018,0-0.041,0.012-0.055,0.023l-1.584,0.945
			c-0.252,0.15-0.539,0.234-0.827,0.234c-0.548,0-1.037-0.268-1.346-0.725c-0.25-0.363-0.336-0.801-0.241-1.232
			C4.83,9.468,5.083,9.1,5.446,8.864l0.233-0.148c0.168-0.098,0.322-0.189,0.452-0.273c0.096-0.057,0.131-0.171,0.103-0.281
			C6.176,7.966,6.08,7.794,5.98,7.661C6.35,7.503,6.853,7.212,7.107,6.917l0,0C7.161,6.951,7.224,6.99,7.293,7.021
			c0.005,0,0.005,0,0.013,0.004l0,0c0.18,0.09,0.403,0.178,0.672,0.229C7.693,7.606,7.409,8.04,7.298,8.327
			c-0.189,0.092-0.609,0.32-1.585,0.947c-0.26,0.16-0.438,0.422-0.497,0.725c-0.063,0.297-0.007,0.604,0.164,0.861
			c0.224,0.326,0.574,0.508,0.943,0.508c0.199,0,0.394-0.059,0.58-0.162L8.57,10.2c0.26-0.063,1.555-0.451,2.542-2.042
			c0.772-1.247,1.206-2.248,1.384-2.704l0.029,0.014c0.104,0.044,0.223,0.081,0.324,0.081c0.193,0,0.382-0.082,0.514-0.209
			c0.141-0.138,0.223-0.325,0.223-0.523V3.657C13.58,3.559,13.529,3.465,13.441,3.432z"/>
	</g>
	<g id="FaibleGroup" display="none">
		<path id="FamineGroup" display="inline" fill="#F9F9F9" d="M10.916,11.989l-1.849,0.35l-3.012-1.646l1.097-1.355l2.457,0.816
			L10.916,11.989z M13.748,8.782v0.211l-1.943,0.611L9.887,9.876L7.423,9.059L6.842,8.782h0.333
			C7.099,8.054,6.992,7.495,6.939,6.768l0,0c-0.003-0.02-0.03-0.506-0.034-0.71c-0.039-0.226-0.146-0.311-0.487-0.55
			C6.228,5.394,6.086,5.351,6.016,5.351c-0.125,0-0.238,0.135-0.265,0.551c0.551,0.093,0.584,0.7,0.584,0.7
			c0.052,0.431-0.164,1.06-0.651,1.224C4.787,8.123,4.875,6.393,5.38,5.971c0.016-0.499,0.156-0.959,0.634-0.978
			c0.192,0,0.385,0.081,0.603,0.22c0.1,0.069,0.193,0.128,0.263,0.2c-0.006-0.17-0.014-0.338-0.014-0.515
			c0-0.369,0.055-0.758,0.381-1.042c0.164-0.154,0.349-0.24,0.54-0.236c0.48,0.03,0.773,0.441,0.95,0.865
			C8.938,4.398,9.192,4.359,9.479,4.46c0.744,0.25,1.149,1.55,0.838,1.994c-0.735,1.054-2.574-0.899-2.09-1.587
			c0,0,0.075-0.087,0.2-0.194C8.279,4.298,7.997,3.967,7.784,3.986c-0.083,0-0.183,0.03-0.298,0.137
			C7.282,4.305,7.224,4.561,7.224,4.899c0,0.238,0.032,0.503,0.032,0.765c0,0.14,0.008,0.26,0.011,0.395
			C7.301,6.293,7.301,6.47,7.301,6.72c0.054,0.725,0.342,1.32,0.424,2.064h6.022V8.782z M8.558,4.821l1.401,1.52
			c-0.25-1.078-1.131-1.677-1.131-1.677L8.558,4.821z M5.67,6.122L5.423,6.227c0,0-0.125,0.85,0,1.29L5.67,6.122z M4.424,11.245
			l1.109-0.666l1.151-1.428L6.33,8.782H3.776L3.269,9.803L4.424,11.245z M5.713,11.012l-1.96,1.342l0.256,0.322h4.519l-0.012-0.063
			L5.713,11.012z M1.679,8.782v1.543l1.252-0.674l0.386-0.869H1.679z M10.254,10.204l1.217,1.773l2.277,0.535v-2.023l-1.642-0.527
			L10.254,10.204z M13.748,10.046V9.335l-1.281,0.342L13.748,10.046z M2.966,10.151l-1.288,0.607v1.918h0.942l1.404-1.146
			L2.966,10.151z M9.715,12.677h2.951l-1.408-0.34L9.715,12.677z"/>
		<path id="CycloneGroup" display="inline" fill="#FFFFFF" d="M7.757,4.636c-0.067,0-0.127-0.008-0.188-0.008
			c-0.554,0-1.071,0.144-1.522,0.391c0.805-2.745,2.82-2.992,2.82-2.992S4.413,2.407,4.413,7.603c0.002,0,0.002,0,0.009,0
			c0,0.059-0.005,0.116-0.005,0.184c0,0.548,0.146,1.076,0.393,1.527C2.061,8.501,1.822,6.488,1.822,6.488s0.372,4.455,5.571,4.455
			c0-0.002,0-0.002,0-0.012c0.062,0.006,0.119,0.012,0.184,0.012c0.553,0,1.071-0.143,1.526-0.395
			c-0.816,2.756-2.832,2.994-2.832,2.994s4.46-0.375,4.46-5.574c-0.007,0-0.007,0-0.007,0c0-0.063,0.007-0.126,0.007-0.186
			c0-0.556-0.14-1.074-0.394-1.527c2.746,0.808,2.994,2.828,2.994,2.828s-0.371-4.455-5.575-4.455
			C7.757,4.632,7.757,4.636,7.757,4.636z"/>
		<path id="tsunamiGroup" display="inline" fill="#FFFFFF" d="M13.174,11.45c-9.178,0.521-6.608-6.49-4.236-5.886
			C8.692,5.715,8.539,6.23,8.688,6.573c0.165,0.379,0.708,0.585,1.016,0.507c0.732-0.188,0.768-1.217,0.504-1.771
			C9.928,4.75,9.2,4.047,7.925,4.047c-3.063,0-5.166,1.568-5.954,4.262v3.965h11.203V11.45L13.174,11.45z"/>
		<path id="earthquakeGroup" display="inline" fill="#FFFFFF" d="M10.834,8.132c-0.156,0-0.302,0.086-0.375,0.232L9.848,9.509
			L9.099,7.3C9.035,7.133,8.883,7.021,8.705,7.013c-0.184-0.003-0.34,0.1-0.403,0.266L7.784,8.501l-0.815-4.89
			C6.932,3.408,6.732,3.253,6.542,3.266C6.33,3.272,6.153,3.408,6.127,3.613L5.406,9.28L4.821,6.241
			c-0.03-0.175-0.18-0.317-0.363-0.339C4.282,5.881,4.105,5.971,4.018,6.134L3.061,8.132H1.583v0.851h1.753
			c0.162,0,0.312-0.09,0.384-0.24l0.515-1.072l0.83,4.32c0.039,0.193,0.219,0.34,0.413,0.34c0.007,0,0.011,0,0.014,0
			c0.213-0.004,0.386-0.158,0.412-0.367L6.613,6.39l0.596,3.664c0.034,0.191,0.182,0.332,0.37,0.355
			c0.192,0.016,0.368-0.082,0.439-0.256l0.635-1.516l0.71,2.088c0.061,0.156,0.199,0.264,0.368,0.277
			c0.173,0.01,0.333-0.076,0.411-0.225l0.953-1.799h1.822V8.132H10.834z"/>
	</g>
	<g id="EleveGroup" display="none">
		<path id="attackGroup" display="inline" fill="#FFFFFF" d="M10.592,8.677l2.988-1.92L10.687,6.45l0.787-3.354L9.428,5.216
			L8.853,2.82L7.997,5.052L5.653,2.035L6.39,5.818L4.304,5.353c0,0,0.633,1.21,0.986,1.943L1.947,7.061l3.026,1.768L4.108,9.718
			l1.402-0.25l-0.993,3.518l2.959-2.475l0.773,1.916l0.786-1.525l2.549,2.631l-1.279-3.531l2.803,0.287L10.592,8.677z"/>
	</g>
	<g id="ExtremeGroup" display="none">
		<path id="rebelionGroup" display="inline" fill="#FFFFFF" d="M9.84,4.213c0,1.22-0.992,2.203-2.2,2.203
			c-1.221,0-2.21-0.986-2.21-2.203c0-1.222,0.988-2.204,2.21-2.204C8.853,2.009,9.84,2.991,9.84,4.213z M3.958,13.557h1.341h0.075
			l0.053-0.102l0.487-0.479l-0.46-0.1l-0.708-0.15L3.958,13.557z M13.176,4.622l-0.471,0.475l0.03,0.034l-0.387,0.377
			c0.055,0.052,0.104,0.102,0.146,0.155l0.387-0.386l0.08,0.068l0.463-0.474L13.176,4.622z M10.133,7.065L9.928,7.271L9.95,7.326
			l0.054,0.11l-3.214,3.22l0.342,0.082c0.321,0.064,0.592,0.248,0.772,0.529c0.026,0.035,0.033,0.084,0.05,0.123l0.007-0.01
			l0.237,0.154l0.083-0.021l0.937,0.684l0.631-0.863l-1.399-1.09l0.038-0.092h0.239l1.364-1.609l0.156-1.438L10.133,7.065z
			 M11.629,5.642c-0.42-0.046-0.824,0.268-0.871,0.698l-0.055,0.472l0,0L10.67,7.151l-0.152,1.438l-0.016,0.137l-0.08,0.098
			L9.192,10.27l0.919,0.717l0.34,0.262l-0.197,0.264l0.051,0.092c0.125,0.277,0.406,0.445,0.707,0.445c0.043,0,0.088,0,0.131-0.012
			c0.346-0.053,0.611-0.338,0.65-0.686l0.526-4.851C12.373,6.074,12.055,5.689,11.629,5.642z M10.023,11.839l-0.448,0.617
			l-0.258,0.35l-0.358-0.258l-0.775-0.559l-0.065,0.014l-0.032-0.014c0,0.064,0,0.129-0.019,0.193
			c-0.009,0.063-0.032,0.127-0.06,0.186c-0.044,0.113-0.112,0.205-0.183,0.305L7.879,12.8c0.052,0.123,0.128,0.283,0.215,0.426
			l0.222,0.332h1.656L10.023,11.839z M6.875,13.151c-0.015,0-0.04-0.004-0.063-0.004c0,0.029-0.005,0.051-0.005,0.051l0.188,0.361
			h0.443l0.292-0.104c-0.101-0.148-0.18-0.314-0.254-0.486C7.293,13.079,7.099,13.151,6.875,13.151z M7.521,11.485
			c-0.03-0.047-0.082-0.088-0.124-0.127c-0.024-0.027-0.043-0.063-0.083-0.08c-0.075-0.057-0.177-0.104-0.278-0.125l-0.338-0.07
			l-0.787-0.166l0,0l-0.699-0.148l-0.268-0.053l-0.439-0.1l-0.032-0.002l0.076-0.08l0.301-0.297l0.322-0.322
			c0.024,0.227,0.037,0.395,0.037,0.398l0.106,0.021l0.971,0.209l0.201-0.201l3.008-3.017L9.42,7.157l0.022-0.021
			C9.012,7.01,8.498,6.926,7.85,6.926H7.64H7.427c-0.456,0-0.912,0.036-1.359,0.134C5.292,7.236,4.813,7.991,4.294,8.509
			c-0.548,0.537-1.075,1.092-1.6,1.646c-0.119,0.125-0.233,0.248-0.359,0.365c-0.202,0.211-0.277,0.508-0.202,0.785
			c0.083,0.275,0.31,0.482,0.596,0.547l1.039,0.227l0.443,0.09l2.501,0.533c0.056,0.008,0.108,0.014,0.162,0.014
			c0.364,0,0.694-0.246,0.771-0.625c0.031-0.146,0.008-0.275-0.04-0.404l-0.041-0.107C7.547,11.55,7.533,11.524,7.521,11.485z
			 M6.418,13.411l-0.077-0.143l0.045-0.156l0.003-0.027l-0.126-0.041l-0.438,0.514h0.672L6.418,13.411z"/>
	</g>
	<path id="displacedGroup" display="none" fill="#FFFFFF" d="M7.702,3.465c0.092,0.571-0.292,1.106-0.859,1.201
		c-0.567,0.1-1.11-0.291-1.2-0.854C5.551,3.239,5.933,2.698,6.503,2.61C7.073,2.509,7.607,2.899,7.702,3.465z M7.378,7.609
		l0.924,1.476c0.133,0.209,0.403,0.275,0.62,0.15C9.131,9.108,9.2,8.846,9.082,8.624L8.853,8.205
		c-0.209-0.368-0.405-0.73-0.611-1.093l-0.411-0.75c-0.046-0.088-0.089-0.18-0.14-0.288C7.439,5.545,7.043,4.72,6.173,4.794
		C5.43,4.862,4.674,5.216,3.935,5.847C3.058,6.54,2.439,7.539,2.421,7.592c-0.029,0.038-0.06,0.083-0.08,0.124c0,0,0,0-0.007,0.004
		l0,0c-0.08,0.158-0.122,0.3-0.021,0.482C2.396,8.339,2.551,8.43,2.712,8.43c0.199,0,0.298-0.096,0.395-0.236l0,0l0,0
		c0.029-0.04,0.057-0.084,0.083-0.13c0.003-0.007,0.52-0.843,1.322-1.516c0.243-0.192,0.479-0.324,0.699-0.393L5.03,8.296
		c-0.018,0.21-0.086,0.58-0.143,0.789l-0.398,1.402c-0.048,0.172-0.203,0.471-0.317,0.609l-1.08,1.338
		C2.954,12.61,2.797,12.8,2.92,13.069C3,13.225,3.157,13.323,3.336,13.323c0.207,0,0.319-0.125,0.465-0.279l1.092-1.176
		c0.193-0.209,0.447-0.576,0.576-0.83l0.542-1.104l2.007,3.373c0.1,0.168,0.226,0.375,0.498,0.375l0,0
		c0.153,0,0.299-0.084,0.384-0.209c0.146-0.227,0.045-0.43-0.038-0.615L7.231,9.335C7.169,9.2,7.136,8.915,7.161,8.762L7.378,7.609z
		 M9.074,11.278h2.43v0.721l2.42-1.395l-2.42-1.395v0.725H9.073L9.074,11.278L9.074,11.278z"/>
	<path id="enlevementGroup" display="none" fill="#FFFFFF" d="M12.688,1.656c-0.359,0-0.646,0.291-0.646,0.646v2.635
		c0.162,0.033,0.308,0.096,0.435,0.218c0.338,0.334,0.345,0.893,0.015,1.229l-1.232,1.262L11.09,7.482l1.229-1.255
		c0.241-0.259,0.238-0.659-0.017-0.907c-0.075-0.076-0.168-0.131-0.271-0.159c-0.105-0.026-0.212-0.026-0.314-0.005
		c-0.127,0.027-0.229,0.09-0.31,0.179C10.678,6.078,9.95,6.826,9.221,7.575C9.035,7.76,8.705,8.179,8.713,8.616
		c0.008,0.4,0,0.813,0,1.217C8.619,9.751,8.506,9.7,8.374,9.675c-0.377-0.068-0.711,0.16-0.84,0.494H7.346c0-0.086,0-0.184,0-0.273
		c0.007-0.416-0.008-0.857,0-1.281C7.36,8.188,7.021,7.76,6.843,7.579c-0.73-0.753-1.455-1.501-2.183-2.251
		C4.578,5.243,4.466,5.182,4.35,5.155C4.242,5.13,4.134,5.133,4.025,5.16C3.927,5.188,3.831,5.243,3.756,5.32
		c-0.252,0.248-0.26,0.647-0.019,0.907l1.23,1.255L4.803,7.647L3.577,6.384c-0.33-0.338-0.323-0.895,0.015-1.23
		c0.126-0.118,0.27-0.18,0.425-0.217V2.301c0-0.354-0.292-0.646-0.648-0.646c-0.361,0-0.648,0.292-0.648,0.646v4.56
		c0,0.15,0.061,0.289,0.147,0.397l2.206,2.905H4.881c-0.43,0-0.774,0.348-0.774,0.783c0,0.287,0.157,0.52,0.392,0.658
		c-0.231,0.141-0.394,0.381-0.394,0.656c0,0.434,0.344,0.777,0.774,0.777h0.235v0.438H7.28c0.11,0.109,0.243,0.191,0.402,0.229
		c0.051,0.012,0.087,0.014,0.132,0.014c0.385,0,0.708-0.273,0.773-0.646v-0.027h0.138c0,0.143,0,0.289,0.015,0.436h2.195v-0.436
		h0.234c0.424,0,0.776-0.346,0.776-0.775c0-0.281-0.155-0.527-0.394-0.664c0.238-0.137,0.394-0.371,0.394-0.658
		c0-0.43-0.353-0.781-0.776-0.781h-0.187l2.2-2.9c0.093-0.114,0.15-0.249,0.15-0.397V2.313C13.336,1.948,13.045,1.656,12.688,1.656z
		 M4.489,10.948c0-0.213,0.177-0.387,0.393-0.387h2.553l-0.137,0.779H4.881C4.667,11.333,4.489,11.159,4.489,10.948z M4.489,12.268
		c0-0.219,0.177-0.395,0.393-0.395h2.323l-0.132,0.785H4.881C4.667,12.659,4.489,12.485,4.489,12.268z M8.2,12.997
		c-0.035,0.217-0.26,0.354-0.447,0.326c-0.105-0.016-0.193-0.076-0.254-0.16c-0.06-0.082-0.079-0.188-0.064-0.295l0.43-2.496
		c0.034-0.186,0.197-0.322,0.388-0.322c0.023,0,0.045,0,0.064,0.002c0.216,0.045,0.354,0.24,0.317,0.453L8.2,12.997z M11.569,12.268
		c0,0.217-0.169,0.391-0.39,0.391h-2.53l0.134-0.785h2.396C11.394,11.878,11.569,12.053,11.569,12.268z M11.569,10.948
		c0,0.213-0.169,0.389-0.39,0.389H8.883l0.129-0.758c0-0.004,0-0.01,0-0.014h2.168C11.394,10.561,11.569,10.739,11.569,10.948z"/>
	<path id="eruptionGroup" display="none" fill="#FFFFFF" d="M8.448,5.637c0.668,0.229,1.546,0.494,1.736-0.573
		c0.147-0.838,1.25-0.53,1.725-0.577c0.86-0.104,0.212-1.711-0.86-1.732c-1.09-0.027-1.584,0.455-2.025,1.441
		c-0.2,0.475-0.38,0.831-1.151,0.576C7.104,4.516,6.533,5.149,7.003,5.928C7.416,6.62,6.999,7.371,6.999,7.371h1.163
		c0,0-0.005-0.42-0.29-0.862C7.545,5.991,7.771,5.406,8.448,5.637z M2.296,12.819c2.989-2.178,3.738-5.184,3.738-5.184h3.068
		c0,0,0.741,3.002,3.729,5.184H2.296z"/>
	<path id="returnedGroup" display="none" fill="#FFFFFF" d="M7.707,3.465c0.087,0.571-0.294,1.106-0.864,1.201
		c-0.567,0.095-1.11-0.291-1.196-0.859C5.551,3.235,5.933,2.698,6.503,2.606C7.073,2.509,7.607,2.897,7.707,3.465z M7.378,7.606
		l0.924,1.479c0.133,0.209,0.403,0.271,0.62,0.15C9.131,9.106,9.2,8.846,9.082,8.624L8.853,8.201
		C8.647,7.837,8.447,7.475,8.25,7.109l-0.42-0.747c-0.046-0.088-0.085-0.18-0.14-0.288C7.439,5.545,7.043,4.716,6.173,4.794
		C5.436,4.858,4.679,5.208,3.935,5.839c-0.881,0.701-1.499,1.7-1.519,1.748C2.388,7.63,2.358,7.671,2.34,7.716L2.333,7.72l0,0
		c-0.079,0.157-0.121,0.3-0.021,0.481c0.083,0.137,0.237,0.233,0.4,0.233c0.198,0,0.297-0.096,0.39-0.237l0,0l0,0
		C3.128,8.155,3.157,8.11,3.185,8.065c0.007-0.007,0.522-0.839,1.32-1.516C4.752,6.354,4.989,6.22,5.208,6.148L5.03,8.297
		c-0.018,0.209-0.086,0.581-0.143,0.79l-0.398,1.402c-0.048,0.176-0.203,0.471-0.324,0.609l-1.072,1.336
		c-0.14,0.176-0.295,0.367-0.172,0.637C3,13.227,3.158,13.323,3.337,13.323c0.207,0,0.319-0.123,0.465-0.277l1.091-1.178
		c0.194-0.209,0.448-0.576,0.57-0.83l0.544-1.104l2.007,3.373c0.097,0.166,0.231,0.375,0.497,0.375l0,0
		c0.156,0,0.299-0.084,0.39-0.213c0.14-0.223,0.042-0.43-0.038-0.605L7.235,9.335C7.176,9.2,7.141,8.915,7.161,8.762L7.378,7.606z
		 M14.137,8.36c0-1.475-1.197-2.667-2.67-2.667h-1.133v1.345h1.137c0.726,0,1.32,0.592,1.32,1.325c0,0.723-0.584,1.322-1.32,1.322
		h-0.239V8.956L8.815,10.35l2.416,1.398v-0.721h0.265l0,0C12.953,11.007,14.137,9.821,14.137,8.36z"/>
	<g id="Affected">
		<path fill="#FFFFFF" d="M4.93,3.249c0,0.511-0.419,0.928-0.932,0.928c-0.513,0-0.931-0.417-0.931-0.928
			c0-0.516,0.419-0.931,0.931-0.931C4.516,2.319,4.93,2.735,4.93,3.249z M4.101,9.606l0.2,3.428c0,0.117,0.098,0.225,0.218,0.225
			c0.12,0,0.22-0.104,0.22-0.225l0.184-3.428H5.53L4.9,5.766l1.262,2.511c0.044,0.109,0.173,0.162,0.285,0.117
			c0.111-0.049,0.166-0.174,0.118-0.286c0,0-0.928-2.498-1.154-2.967C5.182,4.673,4.956,4.39,4.088,4.39H3.913
			c-0.868,0-1.097,0.283-1.325,0.751C2.362,5.61,1.441,8.108,1.441,8.108C1.393,8.219,1.445,8.344,1.553,8.393
			C1.666,8.442,1.794,8.391,1.84,8.277l1.262-2.516L2.478,9.606h0.607l0.188,3.428c0,0.117,0.098,0.225,0.219,0.225
			c0.121,0,0.217-0.104,0.217-0.225l0.189-3.428H4.101L4.101,9.606z M11.504,2.316c-0.513,0-0.93,0.415-0.93,0.931
			c0,0.515,0.417,0.932,0.93,0.932c0.514,0,0.926-0.417,0.926-0.932C12.43,2.731,12.018,2.316,11.504,2.316z M12.467,7.782
			l0.063-2.021l1.133,2.516c0.051,0.108,0.18,0.161,0.287,0.116c0.115-0.047,0.168-0.174,0.123-0.286c0,0-0.803-2.502-1.029-2.967
			c-0.238-0.468-0.584-0.751-1.447-0.751h-0.18c-0.867,0-1.22,0.283-1.451,0.751C9.74,5.606,8.942,8.102,8.942,8.102
			C8.896,8.217,8.946,8.339,9.061,8.393C9.172,8.442,9.297,8.391,9.34,8.277l1.142-2.515l0.058,2.021l-0.176,5.074
			c-0.014,0.207,0.135,0.383,0.34,0.391c0.006,0.008,0.021,0.008,0.021,0.008c0.198,0,0.353-0.146,0.37-0.346l0.41-4.182
			l0.416,4.182c0.01,0.199,0.174,0.346,0.364,0.346c0.007,0,0.015,0,0.021-0.008c0.199-0.008,0.355-0.186,0.341-0.391L12.467,7.782
			L12.467,7.782z M7.757,7.962c-0.314,0-0.574,0.254-0.574,0.566c0,0.318,0.255,0.568,0.574,0.568c0.314,0,0.563-0.25,0.563-0.568
			C8.32,8.217,8.067,7.962,7.757,7.962z M7.757,11.315L8.01,13.1c0.036,0.086,0.115,0.154,0.216,0.154
			c0.102,0,0.183-0.078,0.22-0.162c0-0.008,0.003-0.119,0-0.133l-0.102-2.186l0.032-0.758c0.034-0.246,0.039-0.178,0.329-0.35
			c0.303-0.18,0.797-0.961,0.83-1.004c0.02-0.039,0.07-0.104,0.077-0.146c0.015-0.082-0.036-0.156-0.11-0.172
			c-0.069-0.01-0.117,0.023-0.154,0.063C9.303,8.452,8.726,9.221,8.291,9.298c-0.097-0.01-0.208-0.064-0.482-0.064H7.697
			c-0.277,0-0.384,0.055-0.482,0.068C6.784,9.221,6.2,8.452,6.157,8.409C6.121,8.368,6.075,8.335,6.011,8.344
			C5.937,8.36,5.878,8.434,5.897,8.516c0.007,0.043,0.052,0.107,0.079,0.146c0.025,0.039,0.532,0.826,0.831,1.004
			c0.291,0.172,0.296,0.1,0.323,0.35l0.03,0.758L7.054,12.96c-0.004,0.023,0,0.125,0.003,0.133c0.032,0.084,0.116,0.162,0.22,0.162
			c0.098,0,0.181-0.068,0.213-0.154C7.495,13.1,7.757,11.315,7.757,11.315"/>
	</g>
	<path id="epidemieGroup" display="none" fill="#FFFFFF" d="M12.356,8.249c0-2.623-2.054-4.754-4.638-4.885
		c1.145,0.101,2.034,0.938,2.034,1.944c0,0.346-0.117,0.666-0.301,0.949C8.936,5.751,8.234,5.439,7.456,5.439
		c-0.772,0-1.478,0.312-1.987,0.819C5.292,5.976,5.176,5.655,5.176,5.309c0-1.009,0.878-1.84,2.03-1.946
		C4.621,3.499,2.569,5.631,2.569,8.249c0,0.789,0.195,1.535,0.528,2.197c-0.46-1.035-0.182-2.201,0.681-2.694
		c0.302-0.173,0.632-0.24,0.973-0.225c-0.068,0.237-0.11,0.475-0.11,0.729c0,1.304,0.889,2.388,2.091,2.712
		c-0.019,0.025-0.043,0.053-0.059,0.084v0.006c-0.04,0.082-0.085,0.16-0.148,0.223c-0.129,0.168-0.276,0.32-0.47,0.426
		c-0.863,0.5-2.016,0.154-2.685-0.77c0.877,1.334,2.377,2.213,4.091,2.213c1.694,0,3.181-0.861,4.07-2.17
		c-0.684,0.895-1.811,1.225-2.665,0.732c-0.303-0.178-0.519-0.438-0.67-0.744c1.195-0.324,2.078-1.41,2.078-2.711
		c0-0.251-0.037-0.489-0.093-0.724c0.34-0.021,0.676,0.046,0.975,0.223c0.84,0.482,1.126,1.589,0.715,2.597
		C12.182,9.718,12.356,9.001,12.356,8.249z M7.979,10.134C7.958,9.725,8.046,9.302,8.25,8.893L7.925,8.706
		C7.809,8.831,7.638,8.905,7.461,8.905c-0.184,0-0.352-0.076-0.469-0.195l-0.319,0.18c0.208,0.404,0.292,0.836,0.269,1.248
		c-0.829-0.23-1.445-0.979-1.445-1.88c0-0.172,0.033-0.336,0.071-0.489c0.364,0.18,0.694,0.467,0.943,0.844L6.84,8.421
		C6.828,8.366,6.807,8.31,6.807,8.25c0-0.305,0.208-0.552,0.491-0.623v-0.38C6.842,7.216,6.436,7.079,6.094,6.856
		c0.346-0.347,0.831-0.56,1.36-0.56c0.526,0,1.021,0.221,1.372,0.565C8.481,7.086,8.07,7.222,7.623,7.257V7.63
		C7.897,7.706,8.11,7.947,8.11,8.254c0,0.061-0.018,0.116-0.032,0.167L8.411,8.61c0.245-0.375,0.577-0.661,0.937-0.842
		C9.383,7.921,9.42,8.08,9.42,8.249C9.416,9.159,8.807,9.903,7.979,10.134z"/>
</g>
</svg>
