<?xml version="1.0" encoding="utf-8"?>
<!-- Generator: Adobe Illustrator 16.0.0, SVG Export Plug-In . SVG Version: 6.00 Build 0)  -->
<!DOCTYPE svg PUBLIC "-//W3C//DTD SVG 1.1//EN" "http://www.w3.org/Graphics/SVG/1.1/DTD/svg11.dtd">
<svg version="1.1" id="Layer_1" xmlns="http://www.w3.org/2000/svg" xmlns:xlink="http://www.w3.org/1999/xlink" x="0px" y="0px"
	 width="33.35px" height="40px" viewBox="-5 0 33.35 40" enable-background="new -5 0 33.35 40" xml:space="preserve">
<g id="PinColor">
	<path id="PinOmbre" opacity="0.3" enable-background="new    " d="M22.51,29.195c0,1.572-3.449,2.895-8.093,3.238
		c-0.783,0.063-2.439,3.746-2.439,3.746s-1.716-3.688-2.523-3.75c-4.599-0.357-8.011-1.673-8.011-3.234
		c0-1.84,4.718-3.331,10.534-3.331C17.793,25.864,22.51,27.355,22.51,29.195z"/>
	<path id="vert" display="none" fill="#2ABF00" stroke="#1D7500" stroke-width="0.2" stroke-miterlimit="10" d="M22.51,13.738
		c0,4.813-3.449,8.848-8.093,9.915c-0.783,0.178-2.439,11.463-2.439,11.463s-1.716-11.286-2.523-11.484
		c-4.599-1.092-8.011-5.109-8.011-9.896c0-5.626,4.718-10.188,10.534-10.188C17.793,3.547,22.51,8.111,22.51,13.738z"/>
	<path id="orange" display="none" fill="#FF8500" stroke="#7F4500" stroke-width="0.2" stroke-miterlimit="10" d="M22.51,13.738
		c0,4.813-3.449,8.848-8.093,9.915c-0.783,0.178-2.439,11.463-2.439,11.463s-1.716-11.286-2.523-11.484
		c-4.599-1.092-8.011-5.109-8.011-9.896c0-5.626,4.718-10.188,10.534-10.188C17.793,3.547,22.51,8.111,22.51,13.738z"/>
	<path id="gris" fill="#A5A5A5" stroke="#595959" stroke-width="0.2" stroke-miterlimit="10" d="M22.51,13.738
		c0,4.813-3.449,8.848-8.093,9.915c-0.783,0.178-2.439,11.463-2.439,11.463s-1.716-11.286-2.523-11.484
		c-4.599-1.092-8.011-5.109-8.011-9.896c0-5.626,4.718-10.188,10.534-10.188C17.793,3.547,22.51,8.111,22.51,13.738z"/>
	<path id="bleu" display="none" fill="#0092FF" stroke="#00477C" stroke-width="0.2" stroke-miterlimit="10" d="M22.51,13.738
		c0,4.813-3.449,8.848-8.093,9.915c-0.783,0.178-2.439,11.463-2.439,11.463s-1.716-11.286-2.523-11.484
		c-4.599-1.092-8.011-5.109-8.011-9.896c0-5.626,4.718-10.188,10.534-10.188C17.793,3.547,22.51,8.111,22.51,13.738z"/>
</g>
<g id="Icons">
	<g id="Minimal">
		<path id="Election" display="none" fill="#565656" d="M21.241,4.758l-3.36-1.441C17.78,3.275,17.663,3.304,17.6,3.389L16.637,4.59
			c-0.043,0.054-0.062,0.13-0.046,0.2c0.016,0.067,0.06,0.123,0.119,0.155l-3.017,1.13c-0.255,0.095-0.47,0.274-0.606,0.506
			l-0.999,1.663c-0.211,0.354-0.229,0.785-0.044,1.154l0.069,0.141h-1.051c-0.133,0-0.241,0.107-0.241,0.24v4.562h-0.72
			c-0.133,0-0.238,0.107-0.238,0.239c0,0.133,0.105,0.24,0.238,0.24h8.165c0.132,0,0.234-0.107,0.234-0.24
			c0-0.131-0.104-0.239-0.234-0.239h-0.722v-2.454c0-0.081-0.044-0.16-0.111-0.202c-0.07-0.045-0.156-0.051-0.23-0.016
			c-0.266,0.125-0.459,0.187-0.553,0.214c-0.02,0.005-0.039,0.013-0.056,0.026l-1.564,0.937c-0.248,0.15-0.53,0.229-0.818,0.229
			c-0.532,0-1.028-0.265-1.332-0.714c-0.242-0.36-0.325-0.795-0.236-1.218c0.091-0.423,0.343-0.786,0.705-1.018l0.228-0.145
			c0.168-0.101,0.313-0.194,0.447-0.275c0.093-0.058,0.135-0.17,0.104-0.274c-0.063-0.192-0.161-0.363-0.253-0.495
			c0.363-0.16,0.86-0.446,1.109-0.736c0,0,0.003,0.001,0.004,0.001c0.055,0.032,0.113,0.066,0.187,0.1
			c0.004,0.001,0.005,0.003,0.012,0.005l0,0c0.18,0.087,0.405,0.173,0.665,0.225c-0.277,0.345-0.563,0.777-0.667,1.063
			c-0.198,0.088-0.611,0.322-1.576,0.937c-0.256,0.163-0.431,0.415-0.489,0.712c-0.063,0.297-0.009,0.6,0.163,0.853
			c0.214,0.322,0.565,0.5,0.934,0.5c0.193,0,0.395-0.052,0.57-0.16l1.649-0.991c0.257-0.063,1.541-0.447,2.514-2.019
			c0.765-1.232,1.189-2.225,1.366-2.674l0.029,0.015c0.101,0.049,0.21,0.075,0.319,0.075c0.186,0,0.365-0.074,0.503-0.202
			c0.143-0.135,0.22-0.32,0.22-0.518V4.979C21.383,4.883,21.328,4.795,21.241,4.758z"/>
	</g>
	<g id="Faible">
		<path id="Famine" display="none" fill="#F9F9F9" d="M19.078,13.598l-1.906,0.361l-3.117-1.695l1.132-1.413l2.549,0.846
			L19.078,13.598z M22.011,10.285v0.211l-2.009,0.638l-1.983,0.282l-2.549-0.848l-0.601-0.283h0.345
			c-0.082-0.757-0.192-1.332-0.245-2.084h-0.003c-0.002-0.022-0.028-0.526-0.035-0.74c-0.039-0.226-0.146-0.316-0.501-0.56
			c-0.193-0.125-0.338-0.17-0.419-0.168c-0.13,0-0.246,0.141-0.272,0.564c0.566,0.096,0.605,0.724,0.605,0.724
			c0.051,0.446-0.169,1.098-0.673,1.267C12.738,9.6,12.832,7.802,13.36,7.372c0.015-0.517,0.159-0.993,0.651-1.011
			c0.193,0.001,0.395,0.082,0.624,0.228c0.109,0.066,0.199,0.133,0.276,0.202c-0.009-0.171-0.021-0.346-0.021-0.525
			c-0.001-0.378,0.06-0.789,0.395-1.081c0.172-0.157,0.365-0.238,0.56-0.236c0.499,0.024,0.808,0.454,0.985,0.894
			c0.21-0.092,0.474-0.136,0.771-0.032c0.768,0.266,1.181,1.604,0.859,2.07c-0.758,1.086-2.66-0.937-2.156-1.642
			c0,0,0.073-0.096,0.204-0.202c-0.147-0.39-0.445-0.737-0.667-0.713c-0.085,0.001-0.187,0.031-0.312,0.142
			c-0.212,0.187-0.268,0.452-0.268,0.8c0,0.245,0.029,0.518,0.029,0.791c0,0.143,0.01,0.268,0.014,0.406
			c0.035,0.243,0.036,0.43,0.035,0.687c0.052,0.75,0.354,1.365,0.435,2.137L22.011,10.285L22.011,10.285z M16.649,6.184l1.442,1.571
			c-0.257-1.114-1.171-1.734-1.171-1.734L16.649,6.184z M13.66,7.533l-0.26,0.106c0,0-0.128,0.878,0,1.337L13.66,7.533z
			 M12.368,12.832l1.146-0.689l1.195-1.478l-0.374-0.379h-2.642l-0.522,1.046L12.368,12.832z M13.705,12.594l-2.029,1.383
			l0.271,0.335h4.675l-0.017-0.069L13.705,12.594z M9.527,10.285v1.594l1.302-0.697l0.396-0.896L9.527,10.285L9.527,10.285z
			 M18.396,11.757l1.259,1.827l2.356,0.553v-2.089l-1.695-0.546L18.396,11.757z M22.011,11.591v-0.738L20.69,11.21L22.011,11.591z
			 M10.861,11.693l-1.334,0.635v1.984h0.977l1.451-1.19L10.861,11.693z M17.845,14.313h3.05l-1.459-0.353L17.845,14.313z"/>
		<path id="Cyclone" display="none" fill="#FFFFFF" d="M15.818,5.998c-0.063-0.003-0.129-0.011-0.189-0.011
			c-0.573,0-1.11,0.149-1.578,0.407c0.836-2.848,2.921-3.096,2.921-3.096s-4.609,0.384-4.609,5.761c0.004,0,0.007,0,0.01,0
			c-0.003,0.065-0.01,0.128-0.01,0.193c0,0.569,0.148,1.108,0.407,1.578C9.92,9.992,9.671,7.908,9.671,7.908
			s0.384,4.609,5.763,4.609c0-0.005,0-0.006,0-0.011c0.063,0.003,0.127,0.011,0.191,0.011c0.569,0,1.106-0.149,1.576-0.409
			c-0.834,2.849-2.923,3.098-2.923,3.098s4.609-0.385,4.609-5.762c-0.003,0-0.006,0-0.009,0c0.003-0.064,0.009-0.127,0.009-0.191
			c0-0.572-0.147-1.111-0.408-1.578c2.849,0.835,3.098,2.921,3.098,2.921s-0.383-4.609-5.761-4.609
			C15.818,5.991,15.818,5.994,15.818,5.998z"/>
		<path id="tsunami" display="none" fill="#FFFFFF" d="M21.414,13.045c-9.482,0.537-6.834-6.718-4.374-6.091
			c-0.254,0.154-0.414,0.688-0.261,1.047c0.173,0.384,0.729,0.604,1.047,0.524c0.766-0.197,0.801-1.27,0.521-1.833
			c-0.284-0.585-1.039-1.308-2.354-1.308c-3.178,0-5.345,1.622-6.157,4.411v4.1h11.581v-0.85H21.414z"/>
		<path id="earthquake" display="none" fill="#FFFFFF" d="M19,9.609c-0.162,0-0.313,0.09-0.391,0.234l-0.633,1.191l-0.778-2.283
			c-0.063-0.173-0.221-0.29-0.399-0.298c-0.188-0.005-0.354,0.101-0.423,0.269l-0.533,1.27L15,4.936
			c-0.041-0.212-0.239-0.372-0.443-0.362c-0.216,0.005-0.396,0.149-0.424,0.363l-0.747,5.867l-0.604-3.149
			c-0.034-0.186-0.188-0.327-0.374-0.354c-0.188-0.026-0.373,0.075-0.454,0.245l-0.989,2.062H9.428v0.878h1.813
			c0.169,0,0.323-0.098,0.397-0.248l0.531-1.108l0.855,4.466c0.041,0.207,0.222,0.357,0.435,0.357c0.004,0,0.008,0,0.012,0
			c0.214-0.006,0.396-0.168,0.424-0.381l0.734-5.765l0.611,3.795c0.035,0.192,0.19,0.336,0.388,0.358
			c0.192,0.018,0.379-0.087,0.455-0.268l0.657-1.567l0.733,2.151c0.058,0.167,0.205,0.283,0.379,0.298
			c0.176,0.009,0.343-0.078,0.426-0.232l0.983-1.857h1.887V9.608L19,9.609L19,9.609z"/>
	</g>
	<g id="Modéré">
	</g>
	<g id="Important">
	</g>
	<g id="Elevé">
	</g>
	<g id="Extreme" display="none">
		<path id="rebelion" display="inline" fill="#FFFFFF" d="M17.421,6.159c0,1.059-0.858,1.916-1.915,1.916
			c-1.063,0-1.918-0.858-1.918-1.916c0-1.06,0.854-1.917,1.918-1.917C16.563,4.243,17.421,5.099,17.421,6.159z M12.306,14.287h1.171
			h0.063l0.042-0.09l0.429-0.417l-0.396-0.083l-0.621-0.133L12.306,14.287z M20.323,6.514l-0.412,0.411l0.027,0.028l-0.332,0.335
			c0.044,0.041,0.088,0.082,0.124,0.13l0.335-0.335l0.069,0.063l0.403-0.413L20.323,6.514z M17.678,8.641L17.5,8.815l0.021,0.05
			l0.041,0.094l-2.795,2.803l0.301,0.064c0.275,0.058,0.515,0.223,0.669,0.462c0.021,0.034,0.026,0.075,0.043,0.111l0.009-0.01
			l0.207,0.136l0.072-0.016l0.814,0.591l0.548-0.75l-1.213-0.947l0.024-0.079h0.199l1.191-1.397l0.134-1.252L17.678,8.641z
			 M18.976,7.402c-0.362-0.04-0.714,0.231-0.757,0.606l-0.045,0.408l0,0l-0.028,0.295l-0.133,1.254L18,10.083l-0.075,0.09
			l-1.066,1.25l0.805,0.63l0.289,0.226l-0.169,0.229l0.042,0.084c0.11,0.24,0.354,0.39,0.618,0.39c0.037,0,0.074-0.001,0.114-0.009
			c0.3-0.052,0.532-0.297,0.563-0.6l0.456-4.215C19.622,7.779,19.35,7.44,18.976,7.402z M17.58,12.785l-0.393,0.539l-0.224,0.308
			l-0.31-0.224L15.98,12.92l-0.06,0.015l-0.025-0.017c0,0.058-0.001,0.113-0.014,0.171c-0.015,0.056-0.033,0.107-0.057,0.161
			c-0.044,0.099-0.099,0.186-0.163,0.266l0.049,0.107c0.047,0.107,0.109,0.248,0.188,0.369l0.188,0.293h1.438L17.58,12.785z
			 M14.842,13.933c-0.018,0-0.033-0.005-0.049-0.006c-0.008,0.03-0.013,0.053-0.013,0.053l0.162,0.306h0.393l0.253-0.088
			c-0.087-0.133-0.155-0.277-0.222-0.421C15.207,13.868,15.034,13.933,14.842,13.933z M15.406,12.482
			c-0.025-0.043-0.067-0.077-0.106-0.112c-0.021-0.021-0.041-0.05-0.069-0.067c-0.069-0.05-0.152-0.087-0.239-0.108l-0.301-0.06
			l-0.683-0.147l0,0l-0.604-0.128l-0.233-0.05l-0.388-0.083l-0.024-0.005l0.061-0.063l0.263-0.259l0.277-0.281
			c0.023,0.193,0.034,0.346,0.034,0.348l0.091,0.019l0.847,0.18l0.174-0.174l2.612-2.625l-0.061-0.146l0.021-0.017
			c-0.379-0.114-0.823-0.179-1.389-0.179h-0.185c0,0-0.185,0-0.187,0c-0.395,0-0.794,0.026-1.184,0.113
			c-0.667,0.15-1.082,0.807-1.541,1.258c-0.472,0.465-0.931,0.949-1.391,1.426C11.101,11.43,11,11.54,10.895,11.645
			c-0.177,0.178-0.241,0.438-0.171,0.68c0.069,0.24,0.269,0.422,0.514,0.477l0.905,0.193l0.384,0.081L14.7,13.54
			c0.051,0.008,0.1,0.016,0.146,0.016c0.314,0,0.6-0.221,0.668-0.542c0.025-0.127,0.007-0.246-0.031-0.359l-0.042-0.087
			C15.426,12.542,15.417,12.514,15.406,12.482z M14.446,14.156l-0.064-0.124l0.031-0.138l0.008-0.026l-0.104-0.023l-0.384,0.441
			h0.582L14.446,14.156z"/>
	</g>
	<path id="displaced" display="none" fill="#FFFFFF" d="M16.282,4.504c0.096,0.592-0.305,1.147-0.892,1.243
		c-0.589,0.098-1.148-0.302-1.245-0.89c-0.097-0.59,0.301-1.148,0.894-1.245C15.626,3.517,16.184,3.917,16.282,4.504z M15.945,8.793
		l0.956,1.529c0.138,0.215,0.417,0.284,0.637,0.157c0.223-0.132,0.296-0.41,0.178-0.633L17.47,9.407
		c-0.213-0.375-0.42-0.754-0.63-1.13l-0.426-0.772c-0.049-0.092-0.099-0.193-0.146-0.298c-0.262-0.551-0.672-1.403-1.572-1.326
		c-0.771,0.066-1.552,0.432-2.319,1.085c-0.91,0.718-1.547,1.76-1.569,1.805c-0.031,0.044-0.061,0.093-0.082,0.136
		c-0.002,0.001-0.002,0.003-0.003,0.004l0,0c-0.087,0.161-0.129,0.308-0.021,0.496c0.084,0.147,0.24,0.237,0.408,0.237
		c0.207,0,0.313-0.098,0.412-0.242l0,0c0.001,0,0.001-0.003,0.001-0.003c0.028-0.042,0.056-0.088,0.088-0.136
		c0.004-0.008,0.539-0.866,1.364-1.569c0.254-0.201,0.497-0.338,0.725-0.413l-0.186,2.226c-0.021,0.22-0.088,0.601-0.146,0.813
		l-0.415,1.451c-0.056,0.182-0.208,0.487-0.33,0.635l-1.119,1.386c-0.143,0.176-0.301,0.375-0.17,0.651
		c0.079,0.164,0.243,0.268,0.426,0.268c0.216,0,0.333-0.124,0.479-0.282l1.133-1.221c0.201-0.219,0.469-0.597,0.599-0.864
		l0.562-1.143l2.078,3.49c0.101,0.171,0.229,0.388,0.511,0.388l0,0c0.162,0,0.313-0.083,0.396-0.217
		c0.15-0.231,0.052-0.44-0.034-0.63l-1.68-3.649c-0.064-0.144-0.104-0.435-0.074-0.592L15.945,8.793z M17.704,12.591h2.52v0.748
		l2.5-1.444l-2.5-1.444v0.748h-2.52V12.591z"/>
	<path id="epidemie" display="none" fill="#FFFFFF" d="M20.573,9.733c0-2.711-2.125-4.917-4.802-5.055
		c1.184,0.112,2.104,0.97,2.104,2.014c0,0.358-0.119,0.689-0.313,0.981c-0.528-0.526-1.254-0.851-2.058-0.851
		c-0.803,0-1.526,0.324-2.054,0.849c-0.188-0.292-0.307-0.622-0.307-0.982c0-1.042,0.919-1.901,2.101-2.014
		c-2.676,0.139-4.8,2.346-4.8,5.058c0,0.817,0.199,1.588,0.542,2.273c-0.47-1.071-0.185-2.275,0.708-2.79
		c0.312-0.179,0.658-0.243,1.005-0.224c-0.065,0.239-0.109,0.487-0.109,0.747c0,1.347,0.921,2.471,2.162,2.806
		c-0.018,0.028-0.037,0.056-0.055,0.084c0,0.003,0,0.003,0,0.007c-0.041,0.093-0.095,0.167-0.155,0.231
		c-0.133,0.175-0.288,0.33-0.485,0.444c-0.896,0.517-2.09,0.159-2.779-0.795c0.907,1.375,2.462,2.286,4.229,2.286
		c1.752,0,3.294-0.891,4.205-2.244c-0.693,0.924-1.864,1.263-2.747,0.757c-0.313-0.183-0.542-0.456-0.698-0.771
		c1.241-0.335,2.155-1.461,2.155-2.804c0-0.26-0.042-0.508-0.107-0.747c0.354-0.023,0.698,0.042,1.012,0.222
		c0.867,0.5,1.161,1.648,0.747,2.697C20.393,11.25,20.573,10.513,20.573,9.733z M16.048,11.682
		c-0.022-0.422,0.064-0.864,0.276-1.282l-0.337-0.194c-0.12,0.125-0.289,0.202-0.479,0.202s-0.356-0.077-0.479-0.202L14.7,10.395
		c0.211,0.421,0.301,0.867,0.275,1.289c-0.855-0.235-1.492-1.015-1.492-1.945c0-0.178,0.028-0.346,0.072-0.51
		c0.374,0.189,0.714,0.484,0.974,0.874l0.339-0.197c-0.015-0.058-0.036-0.112-0.036-0.175c0-0.313,0.219-0.566,0.51-0.642V8.706
		c-0.472-0.03-0.896-0.176-1.25-0.407c0.365-0.361,0.864-0.582,1.415-0.582c0.553,0,1.054,0.223,1.421,0.584
		c-0.354,0.231-0.78,0.375-1.25,0.405v0.386c0.29,0.076,0.506,0.329,0.506,0.642c0,0.063-0.021,0.117-0.033,0.175l0.344,0.2
		c0.261-0.39,0.601-0.683,0.972-0.872c0.041,0.161,0.068,0.329,0.068,0.503C17.533,10.668,16.903,11.445,16.048,11.682z"/>
	<path id="enlevement" display="none" fill="#FFFFFF" d="M19.732,3.68c-0.313,0-0.569,0.257-0.569,0.571v2.326
		c0.14,0.03,0.271,0.088,0.376,0.192c0.303,0.297,0.311,0.784,0.017,1.087l-1.082,1.112l-0.149-0.145l1.087-1.109
		c0.219-0.225,0.211-0.582-0.013-0.802c-0.069-0.066-0.15-0.112-0.236-0.136c-0.099-0.026-0.191-0.027-0.287-0.008
		c-0.104,0.027-0.196,0.08-0.271,0.159c-0.643,0.658-1.287,1.317-1.929,1.977c-0.161,0.165-0.456,0.543-0.446,0.92
		c0.007,0.354-0.005,0.718,0.002,1.075c-0.085-0.067-0.188-0.118-0.301-0.139c-0.334-0.053-0.633,0.144-0.747,0.44h-0.17
		c0-0.081,0-0.162,0.002-0.243c0.008-0.372-0.007-0.758,0.003-1.13c0.008-0.378-0.286-0.756-0.447-0.921
		c-0.643-0.66-1.283-1.319-1.93-1.979c-0.073-0.077-0.165-0.131-0.271-0.157c-0.095-0.02-0.189-0.018-0.285,0.008
		c-0.087,0.025-0.17,0.072-0.239,0.137c-0.221,0.219-0.226,0.576-0.01,0.802l1.087,1.108l-0.15,0.145l-1.083-1.113
		c-0.296-0.304-0.288-0.79,0.015-1.086c0.105-0.103,0.237-0.162,0.375-0.192V4.253c0-0.315-0.258-0.572-0.568-0.572
		c-0.316,0-0.571,0.257-0.571,0.572V8.28c0,0.131,0.054,0.252,0.131,0.35l1.944,2.569h-0.172c-0.377,0-0.688,0.308-0.688,0.688
		c0,0.252,0.146,0.464,0.346,0.583c-0.2,0.12-0.346,0.332-0.346,0.582c0,0.381,0.312,0.69,0.688,0.69h0.21v0.383h1.908
		c0.102,0.099,0.218,0.171,0.355,0.196c0.039,0.006,0.075,0.009,0.114,0.009c0.335,0,0.622-0.239,0.677-0.571l0.003-0.017h0.122
		c0.002,0.127,0,0.251,0.016,0.383h1.941v-0.384H18.4c0.377,0,0.688-0.307,0.688-0.69c0-0.25-0.145-0.461-0.348-0.582
		c0.203-0.119,0.348-0.33,0.348-0.584c0-0.379-0.311-0.687-0.688-0.687h-0.173l1.945-2.57c0.08-0.098,0.132-0.218,0.132-0.35V4.253
		C20.303,3.938,20.048,3.68,19.732,3.68z M12.495,11.885c0-0.189,0.154-0.343,0.345-0.343h2.255l-0.12,0.688h-2.137
		C12.651,12.229,12.495,12.076,12.495,11.885z M12.495,13.051c0-0.188,0.154-0.344,0.345-0.344h2.052l-0.12,0.689h-1.934
		C12.651,13.396,12.495,13.244,12.495,13.051z M15.766,13.698c-0.029,0.189-0.228,0.312-0.396,0.283
		c-0.092-0.016-0.169-0.066-0.223-0.139c-0.055-0.076-0.073-0.167-0.059-0.257l0.379-2.203c0.028-0.167,0.174-0.286,0.345-0.286
		c0.019,0,0.036,0,0.056,0.004c0.188,0.032,0.313,0.21,0.278,0.397L15.766,13.698z M18.742,13.051c0,0.191-0.153,0.345-0.344,0.345
		H16.17l0.117-0.689H18.4C18.587,12.708,18.742,12.863,18.742,13.051z M18.742,11.885c0,0.189-0.153,0.343-0.344,0.343H16.37
		l0.114-0.673c0.002-0.005,0-0.01,0-0.014h1.912C18.587,11.543,18.742,11.697,18.742,11.885z"/>
	<path id="eruption" display="none" fill="#FFFFFF" d="M16.533,7.029c0.688,0.234,1.599,0.511,1.788-0.596
		c0.155-0.861,1.308-0.542,1.794-0.597c0.893-0.103,0.22-1.769-0.896-1.792c-1.128-0.025-1.643,0.469-2.089,1.493
		c-0.218,0.492-0.397,0.863-1.194,0.598c-0.797-0.266-1.381,0.388-0.896,1.194c0.431,0.713-0.006,1.492-0.006,1.492h1.201
		c0,0-0.01-0.442-0.299-0.896C15.598,7.398,15.83,6.789,16.533,7.029z M10.169,14.459c3.09-2.25,3.86-5.365,3.86-5.365h3.176
		c0,0,0.771,3.113,3.86,5.365H10.169z"/>
	<path id="returned" display="none" fill="#FFFFFF" d="M15.298,5.028c0.078,0.488-0.253,0.946-0.736,1.027
		c-0.486,0.08-0.944-0.25-1.024-0.736c-0.08-0.488,0.247-0.946,0.734-1.026C14.756,4.212,15.219,4.542,15.298,5.028z M15.019,8.569
		l0.791,1.264c0.109,0.176,0.345,0.234,0.526,0.127c0.178-0.107,0.238-0.338,0.141-0.522l-0.2-0.362
		c-0.174-0.31-0.343-0.623-0.517-0.934l-0.354-0.639c-0.04-0.072-0.079-0.156-0.121-0.244c-0.217-0.456-0.557-1.159-1.297-1.094
		c-0.636,0.054-1.279,0.357-1.913,0.895c-0.75,0.592-1.274,1.454-1.3,1.489c-0.022,0.039-0.046,0.077-0.064,0.114
		c-0.002,0.002-0.004,0.002-0.004,0.004l0,0c-0.069,0.132-0.104,0.254-0.019,0.408c0.069,0.122,0.197,0.197,0.338,0.197
		c0.169,0,0.255-0.08,0.338-0.201l0,0c0.003-0.001,0.003-0.001,0.003-0.001c0.022-0.037,0.047-0.075,0.071-0.116
		c0.005-0.006,0.446-0.713,1.127-1.295c0.21-0.164,0.408-0.278,0.599-0.34l-0.15,1.839c-0.016,0.183-0.072,0.495-0.124,0.673
		l-0.34,1.197c-0.045,0.151-0.173,0.402-0.273,0.524l-0.924,1.144c-0.118,0.147-0.249,0.311-0.14,0.539
		c0.063,0.133,0.199,0.22,0.349,0.22c0.18,0,0.274-0.104,0.396-0.234l0.937-1.008c0.168-0.18,0.384-0.492,0.49-0.714l0.463-0.943
		l1.717,2.881c0.084,0.143,0.192,0.319,0.424,0.319l0,0c0.134,0,0.256-0.067,0.327-0.181c0.122-0.189,0.041-0.361-0.028-0.517
		l-1.389-3.013c-0.055-0.117-0.084-0.358-0.063-0.488L15.019,8.569z M20.795,9.212c0-1.259-1.024-2.28-2.28-2.28h-0.969v1.151h0.968
		c0.621,0,1.127,0.505,1.127,1.129c0,0.622-0.506,1.128-1.127,1.128h-0.201V9.722l-2.065,1.194l2.065,1.193v-0.62h0.227v-0.001
		C19.783,11.475,20.795,10.461,20.795,9.212z"/>
	<path id="Attack" display="none" fill="#FFFFFF" d="M18.276,10.032L21.67,7.86l-3.278-0.348l0.892-3.81l-2.327,2.404L16.31,3.391
		l-0.978,2.535l-2.657-3.424l0.835,4.289l-2.361-0.525c0,0,0.718,1.374,1.118,2.201L8.476,8.201l3.432,2.006l-0.984,1.013
		l1.595-0.291l-1.13,3.997l3.357-2.81l0.87,2.171l0.896-1.736l2.896,2.99l-1.446-4.003l3.176,0.322L18.276,10.032z"/>
	<g>
		<path fill="#FFFFFF" d="M7.788,6.991c0,0.735-0.598,1.328-1.327,1.328c-0.734,0-1.332-0.595-1.332-1.328
			c0-0.733,0.595-1.327,1.332-1.327C7.194,5.664,7.788,6.256,7.788,6.991z M6.598,16.087l0.289,4.903
			c0,0.171,0.141,0.311,0.31,0.311c0.174,0,0.313-0.141,0.313-0.311l0.265-4.9H8.64l-0.895-5.499l1.806,3.59
			c0.067,0.159,0.25,0.232,0.408,0.169c0.159-0.068,0.234-0.248,0.169-0.409c0,0-1.321-3.576-1.652-4.241
			c-0.327-0.668-0.646-1.073-1.89-1.073H6.334c-1.241,0-1.566,0.403-1.891,1.073c-0.325,0.668-1.647,4.241-1.647,4.241
			c-0.067,0.164,0.007,0.343,0.166,0.412c0.158,0.068,0.342-0.01,0.408-0.169l1.803-3.592l-0.896,5.495h0.867l0.271,4.901
			c0,0.171,0.14,0.311,0.309,0.311c0.174,0,0.315-0.143,0.315-0.311l0.268-4.901H6.598L6.598,16.087z M17.197,5.658
			c-0.736,0-1.337,0.595-1.337,1.328c0,0.734,0.596,1.331,1.337,1.331c0.729,0,1.325-0.597,1.325-1.331
			C18.522,6.255,17.924,5.658,17.197,5.658z M18.569,13.479l0.085-2.89l1.63,3.595c0.063,0.159,0.25,0.232,0.407,0.167
			c0.161-0.067,0.237-0.25,0.172-0.409c0,0-1.146-3.575-1.471-4.241s-0.829-1.072-2.07-1.072h-0.256
			c-1.239,0-1.744,0.403-2.07,1.072c-0.318,0.665-1.468,4.238-1.468,4.238c-0.07,0.162,0.007,0.341,0.163,0.411
			c0.157,0.067,0.348-0.008,0.407-0.168l1.629-3.595l0.083,2.891l-0.254,7.264c-0.016,0.288,0.201,0.535,0.486,0.558
			c0.013,0,0.028,0,0.04,0c0.269,0,0.505-0.207,0.522-0.483l0.589-5.979l0.594,5.979c0.018,0.276,0.247,0.483,0.518,0.483
			c0.014,0,0.029,0,0.037,0c0.291-0.021,0.506-0.27,0.485-0.558L18.569,13.479L18.569,13.479z M11.827,13.737
			c-0.452,0-0.819,0.362-0.819,0.812c0,0.45,0.365,0.813,0.819,0.813c0.446,0,0.813-0.364,0.813-0.813
			C12.64,14.1,12.275,13.737,11.827,13.737z M11.827,18.535c0,0,0.363,2.547,0.363,2.551c0.05,0.125,0.166,0.213,0.313,0.213
			c0.144,0,0.268-0.097,0.313-0.229c0-0.012,0.009-0.158,0-0.187l-0.151-3.131l0.052-1.076c0.043-0.366,0.047-0.255,0.465-0.504
			c0.427-0.257,1.147-1.375,1.18-1.43c0.04-0.057,0.106-0.153,0.121-0.22c0.019-0.111-0.058-0.215-0.171-0.239
			c-0.084-0.015-0.151,0.031-0.207,0.089c-0.059,0.063-0.89,1.17-1.511,1.274c-0.145-0.022-0.289-0.094-0.691-0.094h-0.153
			c-0.396,0-0.545,0.075-0.688,0.094c-0.625-0.106-1.456-1.212-1.515-1.276c-0.051-0.056-0.12-0.103-0.209-0.087
			c-0.11,0.024-0.188,0.129-0.164,0.241c0.013,0.061,0.079,0.16,0.113,0.219c0.039,0.055,0.762,1.173,1.182,1.43
			c0.417,0.249,0.43,0.139,0.468,0.504l0.046,1.075l-0.148,3.133c-0.007,0.027,0,0.177,0.01,0.188c0.04,0.13,0.161,0.226,0.31,0.226
			c0.144,0,0.263-0.086,0.307-0.211C11.459,21.086,11.827,18.535,11.827,18.535"/>
	</g>
</g>
</svg>
