<?xml version="1.0" encoding="utf-8"?>
<!-- Generator: Adobe Illustrator 16.0.0, SVG Export Plug-In . SVG Version: 6.00 Build 0)  -->
<!DOCTYPE svg PUBLIC "-//W3C//DTD SVG 1.1//EN" "http://www.w3.org/Graphics/SVG/1.1/DTD/svg11.dtd">
<svg version="1.1" id="Layer_1" xmlns="http://www.w3.org/2000/svg" xmlns:xlink="http://www.w3.org/1999/xlink" x="0px" y="0px"
	 width="33.35px" height="40px" viewBox="-5 0 33.35 40" enable-background="new -5 0 33.35 40" xml:space="preserve">
<g id="PinColor">
	<path id="PinOmbre" opacity="0.3" enable-background="new    " d="M22.306,29.684c0,1.572-3.449,2.895-8.092,3.238
		c-0.783,0.063-2.44,3.746-2.44,3.746s-1.716-3.688-2.523-3.75c-4.599-0.357-8.01-1.672-8.01-3.234c0-1.84,4.717-3.332,10.533-3.332
		C17.589,26.352,22.306,27.844,22.306,29.684z"/>
	<path id="vert" fill="#2ABF00" stroke="#1D7500" stroke-width="0.2" stroke-miterlimit="10" d="M22.306,14.226
		c0,4.813-3.449,8.847-8.092,9.915c-0.783,0.178-2.44,11.463-2.44,11.463S10.058,24.316,9.25,24.118
		c-4.599-1.093-8.01-5.109-8.01-9.896c0-5.626,4.717-10.188,10.533-10.188C17.589,4.035,22.306,8.599,22.306,14.226z"/>
	<path id="orange" display="none" fill="#FF8500" stroke="#7F4500" stroke-width="0.2" stroke-miterlimit="10" d="M22.306,14.226
		c0,4.813-3.449,8.847-8.092,9.915c-0.783,0.178-2.44,11.463-2.44,11.463S10.058,24.316,9.25,24.118
		c-4.599-1.093-8.01-5.109-8.01-9.896c0-5.626,4.717-10.188,10.533-10.188C17.589,4.035,22.306,8.599,22.306,14.226z"/>
	<path id="gris" display="none" fill="#A5A5A5" stroke="#595959" stroke-width="0.2" stroke-miterlimit="10" d="M22.306,14.226
		c0,4.813-3.449,8.847-8.092,9.915c-0.783,0.178-2.44,11.463-2.44,11.463S10.058,24.316,9.25,24.118
		c-4.599-1.093-8.01-5.109-8.01-9.896c0-5.626,4.717-10.188,10.533-10.188C17.589,4.035,22.306,8.599,22.306,14.226z"/>
	<path id="bleu" display="none" fill="#0092FF" stroke="#00477C" stroke-width="0.2" stroke-miterlimit="10" d="M22.306,14.226
		c0,4.813-3.449,8.847-8.092,9.915c-0.783,0.178-2.44,11.463-2.44,11.463S10.058,24.316,9.25,24.118
		c-4.599-1.093-8.01-5.109-8.01-9.896c0-5.626,4.717-10.188,10.533-10.188C17.589,4.035,22.306,8.599,22.306,14.226z"/>
</g>
<g id="Icons">
	<g id="Minimal">
		<path id="Election" display="none" fill="#565656" d="M26.032,0.662l-4.421-1.895c-0.131-0.055-0.284-0.017-0.368,0.094
			L19.978,0.44c-0.059,0.071-0.08,0.171-0.063,0.263c0.021,0.088,0.08,0.162,0.158,0.204L16.11,2.392
			c-0.336,0.125-0.618,0.36-0.801,0.666l-1.311,2.187c-0.277,0.465-0.302,1.031-0.06,1.517l0.095,0.186H12.65
			c-0.174,0-0.315,0.141-0.315,0.315v5.997h-0.946c-0.175,0-0.313,0.141-0.313,0.314c0,0.175,0.14,0.315,0.313,0.315h10.733
			c0.174,0,0.309-0.141,0.309-0.315c0-0.172-0.137-0.314-0.309-0.314h-0.947v-3.226c0-0.106-0.059-0.21-0.146-0.266
			c-0.092-0.059-0.204-0.067-0.305-0.021c-0.348,0.164-0.604,0.246-0.727,0.281c-0.023,0.007-0.052,0.018-0.072,0.034l-2.057,1.232
			c-0.328,0.198-0.699,0.301-1.078,0.301c-0.697,0-1.353-0.348-1.75-0.938c-0.318-0.473-0.429-1.045-0.312-1.602
			c0.119-0.556,0.451-1.033,0.926-1.337l0.3-0.191c0.221-0.133,0.414-0.255,0.588-0.361c0.121-0.076,0.178-0.224,0.137-0.361
			c-0.08-0.252-0.209-0.477-0.332-0.651c0.48-0.209,1.135-0.586,1.461-0.967c0,0,0.004,0.001,0.006,0.001
			c0.068,0.042,0.146,0.086,0.242,0.131c0.006,0.001,0.006,0.004,0.016,0.007l0,0c0.234,0.114,0.533,0.228,0.875,0.296
			c-0.366,0.454-0.741,1.021-0.877,1.398c-0.262,0.116-0.805,0.424-2.071,1.23c-0.336,0.214-0.566,0.546-0.646,0.936
			c-0.084,0.391-0.01,0.789,0.213,1.122c0.281,0.423,0.746,0.657,1.228,0.657c0.256,0,0.52-0.068,0.75-0.21l2.172-1.303
			c0.336-0.083,2.022-0.587,3.303-2.654c1.004-1.62,1.564-2.925,1.797-3.515l0.039,0.02c0.131,0.065,0.275,0.099,0.42,0.099
			c0.244,0,0.48-0.098,0.66-0.266c0.188-0.177,0.289-0.42,0.289-0.68V0.952C26.218,0.826,26.146,0.71,26.032,0.662z"/>
	</g>
	<g id="Faible">
		<path id="Famine" display="none" fill="#F9F9F9" d="M23.189,12.283l-2.508,0.475l-4.098-2.229l1.487-1.858l3.353,1.113
			L23.189,12.283z M27.044,7.928v0.278l-2.642,0.838l-2.606,0.371L18.445,8.3l-0.789-0.372h0.451
			c-0.104-0.995-0.252-1.751-0.319-2.74h-0.004c-0.003-0.029-0.037-0.691-0.048-0.973c-0.051-0.297-0.19-0.415-0.657-0.736
			c-0.254-0.164-0.443-0.223-0.552-0.221c-0.172,0-0.323,0.186-0.358,0.742c0.746,0.125,0.797,0.952,0.797,0.952
			c0.065,0.586-0.223,1.443-0.885,1.666c-1.229,0.409-1.104-1.954-0.41-2.521c0.018-0.68,0.209-1.306,0.854-1.329
			c0.256,0.001,0.521,0.108,0.822,0.3c0.144,0.086,0.262,0.174,0.361,0.266c-0.01-0.225-0.025-0.455-0.025-0.691
			c0-0.497,0.078-1.037,0.519-1.421c0.227-0.206,0.481-0.313,0.733-0.31c0.656,0.031,1.063,0.597,1.297,1.175
			c0.275-0.121,0.621-0.179,1.017-0.042c1.01,0.35,1.553,2.108,1.129,2.722c-0.994,1.428-3.496-1.232-2.834-2.159
			c0,0,0.098-0.126,0.27-0.266c-0.192-0.512-0.586-0.969-0.877-0.937c-0.11,0.001-0.242,0.041-0.406,0.187
			c-0.278,0.246-0.352,0.594-0.352,1.051c0,0.322,0.037,0.681,0.037,1.04c0,0.188,0.014,0.353,0.02,0.534
			c0.045,0.32,0.048,0.565,0.045,0.903c0.068,0.986,0.468,1.794,0.572,2.809L27.044,7.928L27.044,7.928z M19.993,2.536l1.896,2.066
			c-0.338-1.465-1.539-2.28-1.539-2.28L19.993,2.536z M16.066,4.309l-0.34,0.14c0,0-0.168,1.154,0,1.757L16.066,4.309z
			 M14.366,11.275l1.508-0.906l1.571-1.942l-0.491-0.499h-3.472l-0.688,1.375L14.366,11.275z M16.124,10.963l-2.668,1.818
			l0.354,0.441h6.146l-0.021-0.091L16.124,10.963z M10.632,7.928v2.096l1.709-0.917l0.52-1.178L10.632,7.928L10.632,7.928z
			 M22.29,9.863l1.655,2.402l3.099,0.727v-2.746l-2.229-0.718L22.29,9.863z M27.044,9.644v-0.97l-1.738,0.47L27.044,9.644z
			 M12.386,9.779l-1.754,0.834v2.609h1.282l1.91-1.564L12.386,9.779z M21.568,13.222h4.009l-1.918-0.464L21.568,13.222z"/>
		<path id="Cyclone" display="none" fill="#FFFFFF" d="M18.902,2.291c-0.084-0.004-0.17-0.015-0.252-0.015
			c-0.754,0-1.459,0.196-2.073,0.535c1.1-3.744,3.838-4.07,3.838-4.07s-6.058,0.505-6.058,7.573c0.004,0,0.009,0,0.013,0
			c-0.004,0.086-0.013,0.168-0.013,0.255c0,0.748,0.195,1.457,0.535,2.074c-3.744-1.1-4.071-3.84-4.071-3.84
			s0.505,6.059,7.577,6.059c0-0.006,0-0.008,0-0.014c0.082,0.004,0.166,0.014,0.25,0.014c0.752,0,1.459-0.196,2.074-0.538
			c-1.098,3.746-3.844,4.073-3.844,4.073s6.061-0.507,6.061-7.575c-0.004,0-0.008,0-0.012,0c0.004-0.084,0.012-0.167,0.012-0.251
			c0-0.752-0.194-1.461-0.537-2.075c3.744,1.098,4.072,3.84,4.072,3.84s-0.502-6.059-7.572-6.059
			C18.902,2.283,18.902,2.287,18.902,2.291z"/>
		<path id="tsunami" display="none" fill="#FFFFFF" d="M26.259,11.556c-12.467,0.706-8.984-8.832-5.75-8.008
			c-0.334,0.203-0.545,0.905-0.342,1.377c0.227,0.504,0.955,0.794,1.375,0.689c1.006-0.259,1.051-1.67,0.688-2.41
			c-0.375-0.769-1.367-1.72-3.096-1.72c-4.178,0-7.025,2.132-8.096,5.799v5.39h15.225v-1.117H26.259L26.259,11.556z"/>
		<path id="earthquake" display="none" fill="#FFFFFF" d="M23.085,7.039c-0.213,0-0.41,0.118-0.51,0.308l-0.832,1.565l-1.025-3.001
			c-0.08-0.228-0.289-0.381-0.525-0.392c-0.248-0.006-0.463,0.133-0.557,0.354l-0.701,1.669l-1.106-6.647
			c-0.056-0.278-0.314-0.488-0.584-0.476c-0.283,0.006-0.521,0.196-0.558,0.478l-0.981,7.712l-0.793-4.14
			c-0.045-0.243-0.246-0.43-0.492-0.464c-0.246-0.033-0.49,0.1-0.599,0.324l-1.301,2.71h-2.02v1.154h2.383
			c0.223,0,0.426-0.129,0.523-0.326l0.698-1.457l1.127,5.871c0.054,0.271,0.291,0.469,0.568,0.469c0.006,0,0.01,0,0.016,0
			c0.281-0.008,0.521-0.221,0.558-0.501l0.967-7.579l0.805,4.989c0.047,0.252,0.252,0.442,0.508,0.471
			c0.257,0.023,0.498-0.114,0.599-0.353l0.865-2.06l0.967,2.828c0.074,0.22,0.27,0.372,0.498,0.392
			c0.229,0.012,0.451-0.102,0.561-0.305l1.293-2.441h2.479V7.037L23.085,7.039L23.085,7.039z"/>
	</g>
	<g id="Modéré">
	</g>
	<g id="Important">
	</g>
	<g id="Elevé">
	</g>
	<g id="Extreme" display="none">
		<path id="rebelion" display="inline" fill="#FFFFFF" d="M21.009,2.503c0,1.393-1.127,2.519-2.518,2.519
			c-1.396,0-2.521-1.128-2.521-2.519c0-1.394,1.127-2.52,2.521-2.52C19.882-0.015,21.009,1.11,21.009,2.503z M14.284,13.188h1.541
			h0.082l0.055-0.118l0.563-0.548l-0.518-0.109l-0.816-0.174L14.284,13.188z M24.825,2.97l-0.543,0.541l0.036,0.037l-0.436,0.441
			c0.059,0.053,0.115,0.107,0.162,0.171l0.438-0.44l0.093,0.083l0.53-0.543L24.825,2.97z M21.347,5.766l-0.231,0.229L21.14,6.06
			l0.055,0.124l-3.674,3.685l0.396,0.085c0.362,0.076,0.676,0.293,0.879,0.608c0.026,0.044,0.035,0.098,0.059,0.146l0.01-0.014
			l0.271,0.179l0.098-0.021l1.07,0.776l0.721-0.986l-1.596-1.245l0.033-0.104h0.264l1.566-1.836l0.176-1.646L21.347,5.766z
			 M23.054,4.138c-0.479-0.053-0.938,0.304-0.996,0.797l-0.059,0.537l0,0L21.962,5.86l-0.174,1.646L21.77,7.66l-0.1,0.118
			l-1.4,1.643l1.058,0.828l0.379,0.297l-0.224,0.301l0.058,0.111c0.146,0.315,0.469,0.513,0.813,0.513
			c0.049,0,0.099-0.001,0.15-0.012c0.395-0.068,0.699-0.39,0.74-0.788l0.602-5.542C23.904,4.633,23.544,4.188,23.054,4.138z
			 M21.218,11.214l-0.516,0.709l-0.293,0.405l-0.404-0.294l-0.887-0.641l-0.08,0.019l-0.031-0.022c0,0.076-0.002,0.148-0.021,0.225
			c-0.018,0.074-0.043,0.14-0.071,0.211c-0.058,0.13-0.129,0.244-0.215,0.349l0.063,0.142c0.063,0.141,0.146,0.326,0.25,0.484
			l0.248,0.385h1.893L21.218,11.214z M17.618,12.723c-0.021,0-0.043-0.006-0.063-0.008c-0.012,0.04-0.016,0.07-0.016,0.07
			l0.213,0.402h0.514l0.332-0.115c-0.115-0.175-0.205-0.364-0.291-0.553C18.099,12.638,17.872,12.723,17.618,12.723z M18.361,10.816
			c-0.036-0.056-0.092-0.101-0.143-0.147c-0.029-0.027-0.055-0.065-0.094-0.088c-0.092-0.065-0.199-0.114-0.314-0.142l-0.395-0.079
			l-0.896-0.193l0,0l-0.791-0.169l-0.311-0.066l-0.508-0.109l-0.031-0.006l0.08-0.083l0.344-0.34l0.365-0.37
			c0.031,0.254,0.047,0.455,0.047,0.458l0.117,0.025l1.112,0.237l0.229-0.229l3.436-3.451l-0.078-0.192l0.027-0.022
			c-0.498-0.149-1.082-0.235-1.824-0.235h-0.241c0,0-0.24,0-0.242,0c-0.521,0-1.043,0.034-1.558,0.148
			c-0.881,0.197-1.426,1.061-2.028,1.654c-0.619,0.611-1.224,1.247-1.828,1.874c-0.133,0.142-0.269,0.287-0.404,0.425
			c-0.231,0.234-0.316,0.575-0.225,0.893c0.092,0.316,0.352,0.555,0.676,0.627l1.188,0.254l0.505,0.106l2.856,0.609
			c0.064,0.01,0.129,0.021,0.189,0.021c0.414,0,0.789-0.291,0.879-0.713c0.033-0.167,0.01-0.323-0.041-0.472l-0.058-0.114
			C18.386,10.895,18.374,10.858,18.361,10.816z M17.099,13.017l-0.086-0.163l0.041-0.182l0.01-0.034l-0.137-0.03l-0.506,0.58h0.766
			L17.099,13.017z"/>
	</g>
	<path id="displaced" display="none" fill="#FFFFFF" d="M19.513,0.328c0.125,0.778-0.4,1.508-1.172,1.634
		c-0.773,0.128-1.512-0.397-1.637-1.17c-0.127-0.776,0.396-1.509,1.174-1.637C18.65-0.97,19.382-0.445,19.513,0.328z M19.068,5.967
		l1.259,2.01c0.18,0.282,0.549,0.374,0.836,0.207c0.291-0.174,0.391-0.539,0.231-0.833l-0.322-0.577
		c-0.278-0.493-0.551-0.991-0.825-1.485l-0.56-1.015c-0.063-0.121-0.129-0.254-0.192-0.392c-0.345-0.725-0.884-1.845-2.066-1.744
		c-1.012,0.087-2.039,0.568-3.049,1.426c-1.197,0.944-2.033,2.314-2.064,2.373c-0.041,0.058-0.08,0.122-0.106,0.179
		c-0.002,0.001-0.002,0.004-0.004,0.005l0,0c-0.114,0.212-0.169,0.405-0.029,0.652c0.109,0.193,0.316,0.312,0.537,0.312
		c0.272,0,0.408-0.128,0.543-0.318l0,0V6.763c0.037-0.055,0.072-0.116,0.117-0.179c0.004-0.01,0.707-1.138,1.793-2.063
		c0.332-0.264,0.651-0.444,0.951-0.543L15.87,6.905c-0.025,0.289-0.115,0.79-0.193,1.068l-0.545,1.908
		c-0.072,0.239-0.273,0.64-0.434,0.835l-1.472,1.822c-0.188,0.231-0.396,0.493-0.225,0.856c0.104,0.216,0.319,0.353,0.561,0.353
		c0.283,0,0.438-0.163,0.629-0.371l1.488-1.605c0.266-0.288,0.613-0.785,0.785-1.136l0.738-1.502l2.731,4.588
		c0.131,0.225,0.299,0.51,0.67,0.51l0,0c0.215,0,0.408-0.109,0.521-0.285c0.199-0.304,0.067-0.579-0.045-0.828l-2.209-4.797
		c-0.084-0.189-0.136-0.572-0.099-0.779L19.068,5.967z M21.382,10.959h3.311v0.983l3.287-1.898l-3.287-1.898v0.983h-3.311V10.959z"
		/>
	<path id="epidemie" display="none" fill="#FFFFFF" d="M25.152,7.202c0-3.564-2.793-6.464-6.311-6.646
		c1.555,0.147,2.768,1.275,2.768,2.648c0,0.47-0.157,0.906-0.409,1.29c-0.695-0.691-1.648-1.119-2.705-1.119
		c-1.056,0-2.007,0.426-2.699,1.117c-0.246-0.384-0.402-0.818-0.402-1.291c0-1.37,1.207-2.499,2.76-2.648
		c-3.516,0.183-6.308,3.084-6.308,6.649c0,1.074,0.262,2.087,0.712,2.988c-0.619-1.408-0.244-2.99,0.93-3.668
		c0.408-0.235,0.865-0.32,1.32-0.294c-0.086,0.314-0.145,0.641-0.145,0.982c0,1.771,1.209,3.249,2.842,3.689
		c-0.021,0.037-0.049,0.073-0.072,0.11c0,0.004,0,0.004,0,0.009c-0.055,0.123-0.123,0.219-0.203,0.303
		c-0.174,0.23-0.379,0.434-0.639,0.583c-1.18,0.68-2.748,0.209-3.654-1.045c1.193,1.808,3.234,3.005,5.562,3.005
		c2.303,0,4.33-1.171,5.526-2.95c-0.912,1.215-2.45,1.661-3.61,0.996c-0.412-0.241-0.713-0.6-0.918-1.014
		c1.633-0.44,2.834-1.92,2.834-3.686c0-0.342-0.056-0.668-0.142-0.982c0.461-0.03,0.918,0.055,1.328,0.292
		c1.142,0.658,1.527,2.167,0.98,3.545C24.915,9.195,25.152,8.227,25.152,7.202z M19.204,9.764c-0.027-0.555,0.088-1.136,0.364-1.685
		l-0.442-0.255c-0.158,0.165-0.381,0.265-0.629,0.265c-0.246,0-0.47-0.101-0.631-0.265l-0.435,0.249
		c0.277,0.553,0.396,1.139,0.363,1.694c-1.127-0.309-1.963-1.334-1.963-2.557c0-0.234,0.037-0.455,0.096-0.67
		c0.492,0.248,0.938,0.636,1.279,1.149l0.444-0.259c-0.02-0.077-0.049-0.147-0.049-0.23c0-0.412,0.287-0.744,0.67-0.844V5.852
		c-0.619-0.04-1.18-0.232-1.645-0.536c0.479-0.474,1.139-0.765,1.86-0.765c0.729,0,1.386,0.293,1.867,0.768
		c-0.465,0.304-1.024,0.493-1.643,0.533v0.507c0.381,0.1,0.664,0.433,0.664,0.844c0,0.083-0.025,0.153-0.043,0.23l0.449,0.263
		c0.342-0.513,0.788-0.898,1.276-1.146c0.053,0.212,0.09,0.433,0.09,0.661C21.157,8.432,20.327,9.453,19.204,9.764z"/>
	<path id="enlevement" display="none" fill="#FFFFFF" d="M24.046-0.755c-0.41,0-0.748,0.338-0.748,0.751v3.057
		c0.182,0.04,0.354,0.116,0.492,0.252c0.396,0.391,0.408,1.031,0.021,1.43L22.39,6.196l-0.197-0.19l1.429-1.458
		c0.287-0.296,0.276-0.765-0.017-1.055c-0.092-0.086-0.199-0.147-0.313-0.178c-0.129-0.034-0.252-0.035-0.377-0.011
		c-0.138,0.036-0.261,0.105-0.355,0.209c-0.846,0.865-1.692,1.731-2.537,2.599c-0.211,0.217-0.598,0.714-0.586,1.209
		c0.01,0.465-0.006,0.944,0.002,1.413c-0.11-0.088-0.246-0.155-0.396-0.183c-0.438-0.069-0.83,0.189-0.98,0.578h-0.221
		c0-0.106,0-0.212,0.002-0.319c0.012-0.489-0.01-0.997,0.004-1.486c0.012-0.497-0.375-0.994-0.588-1.211
		c-0.846-0.867-1.688-1.734-2.537-2.602c-0.096-0.099-0.217-0.17-0.356-0.204c-0.123-0.026-0.25-0.024-0.375,0.01
		c-0.113,0.033-0.224,0.095-0.314,0.181c-0.289,0.287-0.297,0.756-0.014,1.054l1.43,1.457l-0.199,0.19L13.47,4.736
		c-0.389-0.4-0.379-1.039,0.018-1.427c0.142-0.136,0.314-0.213,0.494-0.253v-3.058c0-0.414-0.338-0.752-0.75-0.752
		c-0.416,0-0.75,0.338-0.75,0.752v5.294c0,0.172,0.068,0.331,0.172,0.46l2.556,3.377h-0.226c-0.496,0-0.903,0.405-0.903,0.904
		c0,0.331,0.188,0.61,0.453,0.767c-0.265,0.158-0.453,0.436-0.453,0.765c0,0.5,0.407,0.907,0.905,0.907h0.275v0.504h2.51
		c0.133,0.13,0.285,0.225,0.47,0.257c0.053,0.008,0.1,0.012,0.149,0.012c0.439,0,0.816-0.314,0.891-0.751l0.005-0.022h0.159
		c0.002,0.167,0,0.33,0.021,0.504h2.555v-0.505h0.277c0.494,0,0.904-0.403,0.904-0.907c0-0.329-0.188-0.606-0.457-0.765
		c0.27-0.157,0.457-0.434,0.457-0.768c0-0.498-0.406-0.903-0.904-0.903h-0.229l2.56-3.378c0.104-0.129,0.172-0.287,0.172-0.46
		v-5.292C24.798-0.417,24.464-0.755,24.046-0.755z M14.534,10.031c0-0.249,0.202-0.451,0.45-0.451h2.966l-0.158,0.904h-2.81
		C14.738,10.482,14.534,10.282,14.534,10.031z M14.534,11.564c0-0.247,0.202-0.452,0.45-0.452h2.699l-0.158,0.905h-2.543
		C14.738,12.017,14.534,11.817,14.534,11.564z M18.833,12.414c-0.039,0.249-0.297,0.41-0.521,0.372
		c-0.119-0.021-0.223-0.086-0.291-0.183c-0.071-0.1-0.098-0.22-0.078-0.338l0.498-2.896c0.039-0.22,0.23-0.376,0.453-0.376
		c0.023,0,0.049,0,0.072,0.005c0.246,0.042,0.41,0.276,0.367,0.522L18.833,12.414z M22.747,11.564c0,0.251-0.203,0.454-0.451,0.454
		h-2.933l0.154-0.905h2.775C22.542,11.113,22.747,11.317,22.747,11.564z M22.747,10.031c0,0.248-0.203,0.451-0.451,0.451h-2.668
		l0.151-0.885c0.003-0.006,0-0.013,0-0.018h2.515C22.542,9.581,22.747,9.784,22.747,10.031z"/>
	<path id="eruption" display="none" fill="#FFFFFF" d="M19.843,3.647c0.9,0.308,2.1,0.672,2.352-0.784
		c0.203-1.132,1.718-0.713,2.357-0.785c1.172-0.135,0.287-2.326-1.178-2.355c-1.482-0.034-2.158,0.616-2.746,1.962
		c-0.285,0.647-0.521,1.135-1.57,0.787c-1.047-0.35-1.813,0.51-1.18,1.569c0.563,0.938-0.008,1.961-0.008,1.961h1.58
		c0,0-0.015-0.581-0.394-1.178C18.613,4.133,18.919,3.331,19.843,3.647z M11.476,13.415c4.063-2.958,5.078-7.053,5.078-7.053h4.174
		c0,0,1.015,4.093,5.076,7.053H11.476z"/>
	<path id="returned" display="none" fill="#FFFFFF" d="M18.218,1.016c0.104,0.642-0.332,1.244-0.969,1.35
		c-0.642,0.105-1.242-0.329-1.349-0.967c-0.104-0.641,0.326-1.243,0.968-1.349C17.505-0.056,18.115,0.377,18.218,1.016z
		 M17.851,5.672l1.041,1.662c0.144,0.231,0.453,0.307,0.691,0.167c0.231-0.14,0.313-0.444,0.186-0.686l-0.266-0.476
		c-0.229-0.408-0.449-0.819-0.678-1.228l-0.466-0.84C18.305,4.176,18.255,4.066,18.2,3.95c-0.285-0.6-0.732-1.524-1.705-1.438
		c-0.836,0.071-1.685,0.469-2.519,1.176c-0.983,0.778-1.674,1.912-1.705,1.957c-0.03,0.051-0.063,0.102-0.086,0.15
		c-0.004,0.003-0.006,0.003-0.006,0.006l0,0c-0.092,0.173-0.137,0.334-0.022,0.536c0.091,0.161,0.259,0.259,0.444,0.259
		c0.222,0,0.334-0.105,0.443-0.264l0,0c0.002-0.002,0.002-0.002,0.002-0.002c0.031-0.049,0.063-0.099,0.096-0.153
		c0.006-0.008,0.586-0.937,1.48-1.702c0.274-0.216,0.537-0.365,0.785-0.447l-0.197,2.417c-0.021,0.24-0.096,0.651-0.162,0.885
		l-0.447,1.574c-0.059,0.199-0.227,0.529-0.358,0.689l-1.216,1.504c-0.153,0.193-0.325,0.409-0.182,0.709
		c0.082,0.174,0.262,0.29,0.457,0.29c0.234,0,0.359-0.136,0.521-0.309l1.229-1.325c0.221-0.237,0.504-0.647,0.646-0.938l0.608-1.24
		l2.256,3.788c0.109,0.188,0.252,0.419,0.558,0.419l0,0c0.176,0,0.336-0.088,0.432-0.238c0.16-0.249,0.055-0.475-0.039-0.68
		l-1.824-3.96c-0.071-0.154-0.108-0.47-0.082-0.642L17.851,5.672z M25.445,6.517c0-1.655-1.346-2.998-2.998-2.998h-1.271v1.514
		h1.271c0.816,0,1.48,0.664,1.48,1.484c0,0.818-0.664,1.483-1.48,1.483h-0.266V7.187l-2.715,1.57l2.715,1.568V9.51h0.297V9.509
		C24.115,9.492,25.445,8.159,25.445,6.517z"/>
	<path id="Attack" display="none" fill="#FFFFFF" d="M22.132,7.595l4.463-2.854l-4.311-0.458l1.17-5.009l-3.058,3.161l-0.85-3.569
		l-1.285,3.333L14.77-2.303l1.099,5.639l-3.104-0.692c0,0,0.941,1.806,1.469,2.894L9.25,5.188l4.511,2.638l-1.295,1.331l2.096-0.383
		l-1.483,5.255l4.414-3.694l1.145,2.854l1.18-2.282l3.808,3.931L21.72,9.575l4.176,0.423L22.132,7.595z"/>
	<g>
		<path fill="#FFFFFF" d="M7.461,7.623c0,0.737-0.599,1.332-1.332,1.332c-0.735,0-1.335-0.597-1.335-1.332S5.39,6.292,6.129,6.292
			C6.863,6.291,7.461,6.887,7.461,7.623z M6.266,16.747l0.291,4.917c0,0.172,0.142,0.311,0.312,0.311
			c0.173,0,0.313-0.141,0.313-0.311l0.267-4.916h0.867l-0.897-5.514l1.811,3.602c0.069,0.159,0.251,0.231,0.41,0.169
			c0.16-0.068,0.236-0.249,0.169-0.41c0,0-1.325-3.587-1.657-4.254C7.822,9.67,7.501,9.265,6.254,9.265H6.001
			c-1.243,0-1.569,0.404-1.895,1.076c-0.327,0.669-1.653,4.254-1.653,4.254C2.386,14.76,2.46,14.938,2.62,15.008
			c0.157,0.068,0.344-0.009,0.409-0.169l1.81-3.604l-0.9,5.512h0.869l0.272,4.916c0,0.171,0.141,0.312,0.31,0.312
			c0.174,0,0.316-0.143,0.316-0.312l0.269-4.916H6.266L6.266,16.747z M16.898,6.286c-0.739,0-1.342,0.597-1.342,1.332
			c0,0.736,0.598,1.334,1.342,1.334c0.729,0,1.328-0.599,1.328-1.334C18.226,6.884,17.626,6.286,16.898,6.286z M18.273,14.13
			l0.086-2.898l1.636,3.605c0.063,0.16,0.25,0.232,0.405,0.167c0.164-0.066,0.24-0.25,0.177-0.409c0,0-1.152-3.587-1.478-4.254
			c-0.326-0.668-0.832-1.075-2.076-1.075h-0.258c-1.242,0-1.748,0.404-2.076,1.075c-0.319,0.666-1.471,4.25-1.471,4.25
			c-0.072,0.163,0.006,0.342,0.162,0.412c0.158,0.068,0.35-0.007,0.408-0.167l1.635-3.607l0.084,2.9l-0.256,7.287
			c-0.015,0.289,0.203,0.537,0.487,0.559c0.015,0,0.031,0,0.041,0c0.271,0,0.505-0.209,0.523-0.484l0.592-5.999l0.594,5.999
			c0.019,0.277,0.25,0.484,0.521,0.484c0.014,0,0.029,0,0.037,0c0.293-0.021,0.508-0.271,0.486-0.559L18.273,14.13L18.273,14.13z
			 M11.512,14.39c-0.455,0-0.823,0.364-0.823,0.814c0,0.452,0.367,0.815,0.823,0.815c0.447,0,0.813-0.365,0.813-0.815
			C12.325,14.754,11.96,14.39,11.512,14.39z M11.512,19.202c0,0,0.364,2.556,0.364,2.56c0.051,0.125,0.167,0.213,0.313,0.213
			c0.146,0,0.271-0.097,0.314-0.229c0-0.014,0.008-0.158,0-0.188l-0.152-3.141l0.051-1.08c0.043-0.367,0.048-0.255,0.468-0.506
			c0.43-0.257,1.151-1.378,1.184-1.433c0.041-0.057,0.105-0.154,0.121-0.22c0.018-0.112-0.059-0.215-0.17-0.241
			c-0.086-0.014-0.154,0.032-0.209,0.089c-0.062,0.063-0.894,1.174-1.517,1.278c-0.144-0.021-0.291-0.094-0.693-0.094h-0.153
			c-0.399,0-0.547,0.075-0.69,0.094c-0.626-0.105-1.46-1.215-1.52-1.279c-0.051-0.056-0.12-0.103-0.209-0.088
			c-0.11,0.025-0.187,0.13-0.164,0.242c0.012,0.062,0.079,0.161,0.113,0.22c0.038,0.055,0.763,1.177,1.185,1.433
			c0.418,0.25,0.432,0.139,0.47,0.505l0.047,1.08l-0.15,3.143c-0.007,0.027,0,0.179,0.01,0.188c0.041,0.131,0.161,0.228,0.312,0.228
			c0.143,0,0.264-0.086,0.308-0.213C11.143,21.762,11.512,19.202,11.512,19.202"/>
	</g>
</g>
</svg>
