<?xml version="1.0" encoding="utf-8"?>
<!-- Generator: Adobe Illustrator 16.0.0, SVG Export Plug-In . SVG Version: 6.00 Build 0)  -->
<!DOCTYPE svg PUBLIC "-//W3C//DTD SVG 1.1//EN" "http://www.w3.org/Graphics/SVG/1.1/DTD/svg11.dtd">
<svg version="1.1" id="Groupe" xmlns="http://www.w3.org/2000/svg" xmlns:xlink="http://www.w3.org/1999/xlink" x="0px" y="0px"
	 width="15.871px" height="15.65px" viewBox="0 0 15.871 15.65" enable-background="new 0 0 15.871 15.65" xml:space="preserve">
<g id="PinColor_1_">
	<path id="vert" display="none" fill="#2ABF00" stroke="#1D7500" stroke-width="0.2" stroke-miterlimit="10" d="M15.442,7.876
		c0,3.433-2.456,6.311-5.77,7.071c-0.556,0.123-2.962,0.123-3.536-0.022c-3.278-0.775-5.709-3.638-5.709-7.052
		c0-4.003,3.364-7.26,7.507-7.26C12.076,0.613,15.442,3.87,15.442,7.876z"/>
	<path id="orange" fill="#FF8500" stroke="#7F4500" stroke-width="0.2" stroke-miterlimit="10" d="M15.442,7.876
		c0,3.433-2.456,6.311-5.77,7.071c-0.556,0.123-2.962,0.123-3.536-0.022c-3.278-0.775-5.709-3.638-5.709-7.052
		c0-4.003,3.364-7.26,7.507-7.26C12.076,0.613,15.442,3.87,15.442,7.876z"/>
	<path id="gris" display="none" fill="#A5A5A5" stroke="#595959" stroke-width="0.2" stroke-miterlimit="10" d="M15.442,7.876
		c0,3.433-2.456,6.311-5.77,7.071c-0.556,0.123-2.962,0.123-3.536-0.022c-3.278-0.775-5.709-3.638-5.709-7.052
		c0-4.003,3.364-7.26,7.507-7.26C12.076,0.613,15.442,3.87,15.442,7.876z"/>
	<path id="bleu" display="none" fill="#0092FF" stroke="#00477C" stroke-width="0.2" stroke-miterlimit="10" d="M15.442,7.876
		c0,3.433-2.456,6.311-5.77,7.071c-0.556,0.123-2.962,0.123-3.536-0.022c-3.278-0.775-5.709-3.638-5.709-7.052
		c0-4.003,3.364-7.26,7.507-7.26C12.076,0.613,15.442,3.87,15.442,7.876z"/>
</g>
<g id="IconsGroup">
	<g id="MinimalGroup" display="none">
		<path id="ElectionGroup" display="inline" fill="#565656" d="M13.555,3.459l-3.326-1.42c-0.096-0.04-0.217-0.015-0.276,0.067
			L9.001,3.295c-0.044,0.047-0.06,0.129-0.044,0.197c0.014,0.072,0.059,0.123,0.121,0.151l-2.98,1.124
			C5.848,4.854,5.632,5.03,5.494,5.264L4.51,6.904C4.301,7.252,4.28,7.678,4.466,8.042l0.076,0.138H3.499
			c-0.132,0-0.234,0.109-0.234,0.24v4.503H2.553c-0.131,0-0.232,0.106-0.232,0.233c0,0.128,0.105,0.235,0.232,0.235h8.057
			c0.131,0,0.235-0.106,0.235-0.235c0-0.127-0.104-0.233-0.235-0.233H9.898v-2.422c0-0.075-0.043-0.155-0.104-0.194
			c-0.07-0.049-0.16-0.056-0.234-0.016c-0.26,0.121-0.455,0.183-0.543,0.21c-0.019,0-0.041,0.012-0.054,0.024l-1.545,0.922
			c-0.246,0.146-0.526,0.229-0.808,0.229c-0.535,0-1.011-0.261-1.313-0.708c-0.244-0.354-0.329-0.779-0.236-1.201
			C5.15,9.349,5.399,8.99,5.753,8.76l0.229-0.144c0.164-0.097,0.313-0.187,0.44-0.27C6.516,8.293,6.55,8.178,6.523,8.074
			c-0.058-0.19-0.152-0.357-0.249-0.487c0.36-0.154,0.852-0.438,1.101-0.727l0,0c0.051,0.033,0.112,0.069,0.182,0.101
			c0.005,0,0.005,0,0.012,0.004l0,0c0.176,0.087,0.392,0.173,0.655,0.225C7.946,7.532,7.669,7.956,7.561,8.237
			C7.378,8.326,6.965,8.548,6.014,9.159C5.762,9.317,5.586,9.572,5.53,9.867c-0.063,0.29-0.007,0.588,0.16,0.84
			c0.218,0.318,0.559,0.495,0.92,0.495c0.195,0,0.385-0.058,0.566-0.157l1.626-0.98c0.252-0.063,1.517-0.442,2.479-1.993
			c0.755-1.218,1.178-2.194,1.351-2.64l0.028,0.014c0.102,0.043,0.219,0.08,0.316,0.08c0.189,0,0.375-0.08,0.503-0.205
			c0.137-0.134,0.217-0.317,0.217-0.511V3.678C13.688,3.582,13.64,3.492,13.555,3.459z"/>
	</g>
	<g id="FaibleGroup" display="none">
		<path id="FamineGroup" display="inline" fill="#F9F9F9" d="M11.091,11.808l-1.804,0.341l-2.939-1.605L7.419,9.22l2.397,0.798
			L11.091,11.808z M13.853,8.678v0.205l-1.894,0.599l-1.872,0.265L7.683,8.95L7.116,8.679h0.326C7.365,7.971,7.262,7.425,7.21,6.715
			l0,0C7.207,6.695,7.181,6.22,7.177,6.022C7.139,5.802,7.035,5.719,6.703,5.486C6.516,5.374,6.379,5.331,6.309,5.331
			c-0.122,0-0.232,0.133-0.257,0.538c0.537,0.09,0.569,0.683,0.569,0.683c0.05,0.42-0.161,1.035-0.635,1.195
			c-0.876,0.29-0.791-1.4-0.296-1.81C5.706,5.449,5.842,5,6.308,4.983c0.188,0,0.376,0.079,0.589,0.214
			c0.098,0.067,0.187,0.126,0.256,0.195C7.147,5.226,7.139,5.062,7.139,4.89c0-0.36,0.054-0.741,0.372-1.018
			c0.161-0.149,0.341-0.235,0.527-0.229c0.469,0.027,0.754,0.43,0.927,0.843c0.196-0.085,0.443-0.124,0.725-0.023
			c0.726,0.243,1.121,1.513,0.818,1.945C9.79,7.436,7.995,5.532,8.467,4.861c0,0,0.073-0.085,0.195-0.189
			C8.52,4.303,8.242,3.982,8.036,3.999c-0.081,0-0.179,0.029-0.291,0.133c-0.2,0.18-0.258,0.43-0.258,0.759
			c0,0.233,0.032,0.49,0.032,0.747c0,0.136,0.008,0.254,0.01,0.385c0.035,0.229,0.035,0.4,0.035,0.646
			c0.053,0.707,0.333,1.288,0.415,2.014h5.874V8.678z M8.79,4.814l1.366,1.482C9.912,5.245,9.053,4.661,9.053,4.661L8.79,4.814z
			 M5.972,6.084L5.731,6.186c0,0-0.122,0.83,0,1.259L5.972,6.084z M4.756,11.084l1.083-0.649L6.963,9.04l-0.347-0.36H4.125
			L3.628,9.677L4.756,11.084z M6.014,10.857l-1.912,1.309l0.25,0.315h4.409L8.75,12.419L6.014,10.857z M2.078,8.678v1.508
			l1.221-0.659l0.377-0.849H2.078z M10.443,10.067l1.188,1.73l2.221,0.522v-1.976l-1.601-0.514L10.443,10.067z M13.853,9.913V9.219
			l-1.247,0.334L13.853,9.913z M3.334,10.014L2.077,10.61v1.871h0.918l1.371-1.121L3.334,10.014z M9.918,12.481h2.881l-1.373-0.332
			L9.918,12.481z"/>
		<path id="CycloneGroup" display="inline" fill="#FFFFFF" d="M8.008,4.635c-0.064,0-0.124-0.007-0.184-0.007
			c-0.541,0-1.044,0.141-1.485,0.38c0.786-2.679,2.752-2.919,2.752-2.919S4.744,2.46,4.744,7.53c0.003,0,0.003,0,0.008,0
			c0,0.058-0.004,0.114-0.004,0.18c0,0.535,0.14,1.048,0.382,1.49C2.448,8.407,2.215,6.443,2.215,6.443s0.364,4.348,5.437,4.348
			c0-0.004,0-0.004,0-0.012c0.062,0.003,0.118,0.01,0.181,0.01c0.54,0,1.045-0.14,1.489-0.384c-0.797,2.688-2.763,2.92-2.763,2.92
			s4.352-0.368,4.352-5.44c-0.007,0-0.007,0-0.007,0c0-0.063,0.007-0.123,0.007-0.181c0-0.542-0.136-1.048-0.384-1.49
			c2.682,0.787,2.921,2.76,2.921,2.76s-0.361-4.348-5.439-4.348C8.008,4.631,8.008,4.635,8.008,4.635z"/>
		<path id="tsunamiGroup" display="inline" fill="#FFFFFF" d="M13.293,11.284C4.337,11.794,6.845,4.95,9.16,5.539
			C8.92,5.687,8.771,6.188,8.916,6.523c0.161,0.371,0.691,0.571,0.99,0.495c0.717-0.184,0.75-1.188,0.494-1.728
			c-0.272-0.545-0.983-1.231-2.228-1.231c-2.989,0-5.041,1.529-5.81,4.158v3.87h10.932v-0.804H13.293z"/>
		<path id="earthquakeGroup" display="inline" fill="#FFFFFF" d="M11.011,8.046c-0.151,0-0.294,0.084-0.364,0.227l-0.599,1.117
			L9.316,7.234c-0.06-0.162-0.211-0.273-0.383-0.28C8.754,6.95,8.602,7.051,8.541,7.213L8.036,8.405L7.24,3.633
			C7.203,3.436,7.009,3.285,6.823,3.296C6.615,3.302,6.444,3.436,6.418,3.635l-0.703,5.53L5.143,6.2
			C5.114,6.029,4.969,5.891,4.79,5.869C4.618,5.848,4.446,5.937,4.359,6.095l-0.934,1.95H1.984v0.83h1.711
			c0.157,0,0.304-0.086,0.375-0.232l0.502-1.045l0.81,4.214c0.039,0.189,0.214,0.332,0.403,0.332c0.007,0,0.011,0,0.013,0
			c0.208-0.004,0.377-0.155,0.402-0.36l0.693-5.439l0.581,3.577c0.033,0.187,0.177,0.322,0.361,0.347
			c0.188,0.015,0.359-0.08,0.428-0.25l0.62-1.479l0.693,2.036c0.058,0.153,0.193,0.257,0.359,0.271
			c0.168,0.01,0.323-0.073,0.4-0.219l0.93-1.756h1.778V8.046H11.011z"/>
	</g>
	<g id="EleveGroup" display="none">
		<path id="attackGroup" display="inline" fill="#FFFFFF" d="M10.773,8.577l2.915-1.874l-2.823-0.299l0.77-3.271L9.641,5.201
			l-0.563-2.34l-0.835,2.18L5.956,2.095l0.719,3.69L4.64,5.333c0,0,0.617,1.182,0.963,1.896l-3.262-0.23l2.952,1.728L4.449,9.592
			l1.369-0.242l-0.969,3.433l2.887-2.416l0.754,1.869l0.768-1.489l2.484,2.568L10.495,9.87l2.735,0.28L10.773,8.577z"/>
	</g>
	<g id="ExtremeGroup" display="none">
		<path id="rebelionGroup" display="inline" fill="#FFFFFF" d="M10.041,4.22c0,1.188-0.969,2.15-2.147,2.15
			c-1.191,0-2.156-0.963-2.156-2.15c0-1.191,0.964-2.149,2.156-2.149C9.077,2.072,10.041,3.03,10.041,4.22z M4.301,13.339h1.308
			h0.074l0.051-0.097l0.476-0.467l-0.448-0.098l-0.693-0.146L4.301,13.339z M13.297,4.621l-0.46,0.463l0.03,0.032l-0.379,0.37
			c0.054,0.05,0.103,0.098,0.144,0.151l0.377-0.377l0.077,0.068l0.452-0.463L13.297,4.621z M10.329,7.004l-0.201,0.201l0.022,0.054
			l0.049,0.108l-3.135,3.142l0.333,0.079c0.313,0.064,0.578,0.243,0.754,0.518c0.025,0.037,0.031,0.083,0.049,0.122l0.006-0.011
			l0.231,0.15l0.082-0.021l0.914,0.668l0.615-0.842l-1.365-1.064l0.037-0.089h0.232l1.332-1.57l0.15-1.404L10.329,7.004z
			 M11.786,5.615c-0.409-0.044-0.804,0.262-0.849,0.683l-0.056,0.459l0,0l-0.03,0.33L10.702,8.49l-0.015,0.133l-0.08,0.097
			l-1.199,1.412l0.898,0.699l0.331,0.255l-0.194,0.258l0.051,0.091c0.121,0.27,0.396,0.435,0.688,0.435c0.043,0,0.086,0,0.129-0.011
			c0.338-0.052,0.596-0.329,0.635-0.669l0.515-4.733C12.512,6.038,12.203,5.661,11.786,5.615z M10.22,11.662l-0.437,0.604
			l-0.252,0.34l-0.35-0.25l-0.758-0.547l-0.062,0.016L8.33,11.808c0,0.064,0,0.126-0.019,0.188c-0.008,0.064-0.03,0.125-0.058,0.182
			c-0.043,0.11-0.11,0.2-0.179,0.299L8.128,12.6c0.052,0.12,0.125,0.275,0.21,0.414l0.217,0.324h1.616L10.22,11.662z M7.147,12.943
			c-0.014,0-0.039-0.002-0.061-0.002c0,0.027-0.004,0.048-0.004,0.048l0.183,0.35h0.434l0.283-0.097
			c-0.097-0.147-0.175-0.309-0.248-0.476C7.556,12.873,7.365,12.943,7.147,12.943z M7.778,11.317
			c-0.03-0.046-0.08-0.086-0.122-0.124c-0.023-0.026-0.041-0.06-0.08-0.078c-0.073-0.053-0.173-0.101-0.271-0.122l-0.33-0.067
			l-0.768-0.163l0,0l-0.682-0.145l-0.261-0.051l-0.43-0.098l-0.031-0.004l0.074-0.075l0.294-0.292l0.314-0.313
			c0.024,0.22,0.036,0.384,0.036,0.388l0.103,0.022l0.949,0.206l0.195-0.198l2.936-2.944L9.632,7.094l0.021-0.02
			C9.232,6.95,8.73,6.868,8.098,6.868H7.894H7.687c-0.445,0-0.89,0.035-1.327,0.13C5.602,7.17,5.135,7.908,4.629,8.413
			C4.094,8.936,3.58,9.478,3.067,10.018c-0.115,0.123-0.228,0.241-0.351,0.356c-0.196,0.207-0.27,0.496-0.196,0.768
			c0.081,0.268,0.302,0.47,0.582,0.533l1.014,0.222l0.432,0.088l2.441,0.521c0.055,0.006,0.105,0.015,0.158,0.015
			c0.355,0,0.677-0.241,0.754-0.61c0.029-0.144,0.007-0.27-0.039-0.396l-0.041-0.105C7.804,11.382,7.79,11.356,7.778,11.317z
			 M6.703,13.198l-0.075-0.14l0.042-0.153l0.004-0.028L6.55,12.84l-0.426,0.499H6.78L6.703,13.198z"/>
	</g>
	<path id="displacedGroup" display="none" fill="#FFFFFF" d="M7.955,3.492C8.044,4.049,7.669,4.57,7.117,4.663
		C6.563,4.76,6.033,4.38,5.946,3.829c-0.09-0.56,0.282-1.087,0.84-1.173C7.341,2.558,7.863,2.939,7.955,3.492z M7.64,7.535
		l0.901,1.441C8.67,9.178,8.934,9.244,9.145,9.122c0.205-0.125,0.273-0.38,0.157-0.596l-0.225-0.41
		C8.873,7.759,8.682,7.404,8.48,7.051L8.081,6.318c-0.045-0.086-0.088-0.176-0.137-0.28c-0.245-0.517-0.632-1.322-1.48-1.25
		C5.739,4.854,5.001,5.201,4.278,5.816c-0.856,0.676-1.459,1.65-1.477,1.703C2.773,7.554,2.743,7.599,2.724,7.64
		c0,0,0,0-0.008,0.003l0,0C2.639,7.798,2.598,7.936,2.695,8.114c0.081,0.133,0.232,0.222,0.39,0.222c0.194,0,0.29-0.093,0.386-0.229
		l0,0l0,0C3.498,8.067,3.526,8.023,3.552,7.98c0.003-0.007,0.508-0.822,1.29-1.479c0.237-0.188,0.467-0.316,0.682-0.383L5.348,8.207
		C5.33,8.412,5.264,8.773,5.209,8.976L4.82,10.344c-0.048,0.168-0.198,0.459-0.31,0.596l-1.055,1.304
		c-0.135,0.172-0.288,0.359-0.167,0.622c0.077,0.152,0.232,0.247,0.405,0.247c0.202,0,0.313-0.12,0.454-0.271l1.065-1.147
		c0.19-0.204,0.438-0.563,0.563-0.812l0.53-1.077l1.958,3.291c0.098,0.163,0.222,0.368,0.486,0.368l0,0
		c0.151,0,0.292-0.082,0.376-0.205c0.143-0.221,0.043-0.419-0.038-0.599l-1.592-3.44C7.435,9.087,7.403,8.81,7.426,8.662L7.64,7.535
		z M9.294,11.115h2.371v0.704l2.363-1.361l-2.363-1.359v0.706H9.294V11.115z"/>
	<path id="enlevementGroup" display="none" fill="#FFFFFF" d="M12.818,1.726c-0.351,0-0.629,0.282-0.629,0.631v2.57
		c0.158,0.033,0.301,0.096,0.422,0.213c0.33,0.326,0.338,0.871,0.017,1.201l-1.202,1.23l-0.165-0.161l1.199-1.225
		c0.235-0.253,0.231-0.643-0.017-0.885c-0.072-0.074-0.162-0.129-0.264-0.154c-0.103-0.026-0.207-0.026-0.307-0.007
		c-0.123,0.026-0.225,0.088-0.303,0.175c-0.711,0.726-1.422,1.457-2.133,2.188c-0.181,0.18-0.504,0.589-0.496,1.015
		c0.008,0.392,0,0.793,0,1.188C8.85,9.625,8.74,9.575,8.609,9.551C8.242,9.485,7.916,9.708,7.79,10.034H7.607
		c0-0.085,0-0.18,0-0.268c0.007-0.406-0.008-0.837,0-1.25C7.621,8.098,7.29,7.682,7.116,7.506C6.404,6.772,5.697,6.041,4.987,5.309
		C4.905,5.226,4.798,5.166,4.684,5.14C4.579,5.116,4.474,5.12,4.367,5.146c-0.095,0.025-0.19,0.08-0.262,0.154
		C3.859,5.543,3.852,5.933,4.087,6.185L5.288,7.41L5.127,7.572L3.93,6.341C3.608,6.01,3.614,5.467,3.945,5.139
		C4.069,5.025,4.209,4.964,4.36,4.927v-2.57c0-0.349-0.285-0.631-0.632-0.631c-0.352,0-0.632,0.282-0.632,0.631v4.448
		c0,0.147,0.059,0.281,0.144,0.391l2.151,2.833H5.202c-0.419,0-0.755,0.341-0.755,0.765c0,0.279,0.154,0.509,0.383,0.644
		c-0.226,0.136-0.384,0.368-0.384,0.639c0,0.423,0.336,0.759,0.755,0.759H5.43v0.425h2.113c0.108,0.109,0.238,0.19,0.393,0.224
		c0.05,0.01,0.085,0.014,0.13,0.014c0.375,0,0.691-0.268,0.754-0.631V12.84h0.135c0,0.14,0,0.281,0.014,0.425h2.143V12.84h0.229
		c0.413,0,0.758-0.337,0.758-0.758c0-0.273-0.152-0.513-0.385-0.646c0.232-0.136,0.385-0.364,0.385-0.645
		c0-0.42-0.344-0.762-0.757-0.762h-0.185l2.147-2.832c0.089-0.111,0.149-0.241,0.149-0.387V2.367
		C13.455,2.01,13.168,1.726,12.818,1.726z M4.82,10.792c0-0.207,0.173-0.377,0.382-0.377h2.493l-0.134,0.762H5.202
		C4.993,11.169,4.82,11.001,4.82,10.792z M4.82,12.082c0-0.212,0.173-0.384,0.382-0.384H7.47l-0.129,0.766H5.202
		C4.993,12.464,4.82,12.294,4.82,12.082z M8.441,12.795c-0.035,0.21-0.254,0.342-0.438,0.315c-0.102-0.016-0.187-0.073-0.248-0.156
		c-0.057-0.08-0.077-0.183-0.061-0.288l0.419-2.434c0.033-0.183,0.193-0.316,0.379-0.316c0.022,0,0.043,0,0.063,0.004
		c0.209,0.043,0.344,0.233,0.309,0.442L8.441,12.795z M11.73,12.082c0,0.212-0.166,0.382-0.383,0.382H8.88l0.13-0.766h2.338
		C11.557,11.702,11.73,11.873,11.73,12.082z M11.73,10.792c0,0.208-0.166,0.38-0.383,0.38H9.105l0.127-0.738
		c0-0.004,0-0.011,0-0.015h2.115C11.557,10.415,11.73,10.588,11.73,10.792z"/>
	<path id="eruptionGroup" display="none" fill="#FFFFFF" d="M8.684,5.611c0.653,0.224,1.508,0.481,1.695-0.561
		c0.145-0.817,1.221-0.517,1.682-0.563c0.84-0.102,0.209-1.669-0.84-1.691C10.156,2.77,9.675,3.242,9.244,4.204
		C9.05,4.667,8.873,5.014,8.122,4.767c-0.75-0.25-1.307,0.366-0.849,1.128C7.675,6.57,7.268,7.302,7.268,7.302h1.135
		c0,0-0.005-0.408-0.282-0.84C7.801,5.956,8.022,5.385,8.684,5.611z M2.679,12.62c2.917-2.126,3.647-5.059,3.647-5.059H9.32
		c0,0,0.723,2.931,3.641,5.059H2.679z"/>
	<path id="returnedGroup" display="none" fill="#FFFFFF" d="M7.959,3.492C8.044,4.049,7.673,4.57,7.116,4.663
		C6.563,4.756,6.033,4.38,5.949,3.824C5.856,3.266,6.228,2.742,6.786,2.653C7.341,2.558,7.863,2.936,7.959,3.492z M7.64,7.532
		l0.901,1.445C8.67,9.178,8.934,9.242,9.145,9.123c0.205-0.126,0.272-0.38,0.156-0.596L9.077,8.114
		c-0.2-0.355-0.396-0.71-0.589-1.067L8.08,6.318c-0.044-0.086-0.083-0.176-0.136-0.28c-0.245-0.517-0.632-1.326-1.481-1.25
		C5.742,4.85,5.005,5.193,4.277,5.808c-0.86,0.684-1.463,1.658-1.481,1.706C2.771,7.554,2.741,7.595,2.723,7.64L2.716,7.643l0,0
		C2.638,7.798,2.597,7.936,2.695,8.114C2.776,8.247,2.927,8.34,3.085,8.34c0.194,0,0.29-0.093,0.381-0.229l0,0l0,0
		C3.492,8.068,3.52,8.024,3.547,7.98c0.007-0.007,0.511-0.818,1.288-1.479c0.242-0.19,0.474-0.319,0.687-0.392L5.348,8.207
		C5.33,8.412,5.264,8.773,5.209,8.976L4.82,10.344c-0.048,0.173-0.198,0.46-0.317,0.596l-1.047,1.304
		c-0.135,0.172-0.288,0.359-0.167,0.622c0.077,0.152,0.232,0.247,0.406,0.247c0.202,0,0.312-0.12,0.454-0.271l1.065-1.147
		c0.19-0.204,0.437-0.563,0.556-0.812l0.532-1.077l1.958,3.291c0.094,0.163,0.225,0.368,0.485,0.368l0,0
		c0.151,0,0.291-0.082,0.38-0.209c0.134-0.217,0.04-0.42-0.038-0.592L7.5,9.219C7.442,9.087,7.406,8.81,7.426,8.662L7.64,7.532z
		 M14.235,8.268c0-1.44-1.171-2.604-2.605-2.604h-1.106v1.313h1.108c0.708,0,1.288,0.576,1.288,1.292
		c0,0.705-0.57,1.289-1.288,1.289h-0.233V8.85l-2.356,1.36l2.356,1.365v-0.705h0.258l0,0C13.079,10.85,14.235,9.693,14.235,8.268z"
		/>
	<g id="Affected">
		<path fill="#FFFFFF" d="M5.25,3.282c0,0.498-0.409,0.905-0.908,0.905c-0.5,0-0.909-0.407-0.909-0.905
			c0-0.503,0.409-0.909,0.909-0.909C4.845,2.372,5.25,2.778,5.25,3.282z M4.44,9.485l0.195,3.344c0,0.114,0.095,0.219,0.212,0.219
			c0.117,0,0.214-0.102,0.214-0.219l0.18-3.344h0.593L5.221,5.736l1.231,2.45C6.495,8.293,6.62,8.343,6.731,8.299
			c0.108-0.046,0.162-0.167,0.114-0.277c0,0-0.905-2.438-1.126-2.896C5.494,4.67,5.274,4.392,4.429,4.392H4.257
			c-0.848,0-1.071,0.277-1.292,0.733c-0.22,0.457-1.119,2.896-1.119,2.896C1.799,8.131,1.849,8.253,1.955,8.299
			c0.109,0.048,0.234-0.002,0.279-0.112l1.231-2.453L2.854,9.484h0.593l0.184,3.344c0,0.114,0.095,0.219,0.213,0.219
			c0.118,0,0.212-0.102,0.212-0.219l0.185-3.344L4.44,9.485L4.44,9.485z M11.665,2.369c-0.499,0-0.907,0.405-0.907,0.909
			c0,0.502,0.408,0.909,0.907,0.909c0.501,0,0.903-0.407,0.903-0.909C12.568,2.774,12.167,2.369,11.665,2.369z M12.605,7.704
			l0.061-1.971l1.104,2.453c0.049,0.106,0.176,0.156,0.28,0.112c0.113-0.043,0.162-0.167,0.12-0.277c0,0-0.783-2.441-1.005-2.896
			c-0.23-0.456-0.57-0.733-1.413-0.733h-0.174c-0.847,0-1.19,0.277-1.415,0.733C9.943,5.579,9.165,8.016,9.165,8.016
			C9.118,8.128,9.168,8.246,9.279,8.299c0.108,0.048,0.23-0.002,0.272-0.112l1.113-2.453l0.058,1.971l-0.171,4.952
			c-0.014,0.201,0.132,0.374,0.33,0.381c0.007,0.007,0.021,0.007,0.021,0.007c0.193,0,0.346-0.143,0.363-0.337l0.399-4.081
			l0.407,4.081c0.008,0.195,0.168,0.337,0.354,0.337c0.007,0,0.015,0,0.021-0.007c0.193-0.008,0.348-0.181,0.332-0.382L12.605,7.704
			L12.605,7.704z M8.008,7.881c-0.307,0-0.559,0.247-0.559,0.553c0,0.311,0.25,0.555,0.559,0.555c0.307,0,0.551-0.244,0.551-0.555
			C8.559,8.129,8.312,7.881,8.008,7.881z M8.008,11.151l0.249,1.741c0.034,0.084,0.111,0.151,0.21,0.151
			c0.1,0,0.178-0.075,0.215-0.158c0-0.007,0.004-0.114,0-0.129l-0.101-2.132l0.03-0.741c0.035-0.238,0.039-0.171,0.322-0.34
			c0.295-0.175,0.777-0.938,0.81-0.979C9.761,8.527,9.813,8.462,9.818,8.42c0.014-0.08-0.035-0.151-0.107-0.167
			c-0.068-0.01-0.113,0.023-0.152,0.063C9.518,8.358,8.953,9.11,8.527,9.183C8.434,9.173,8.325,9.119,8.059,9.119H7.951
			c-0.27,0-0.375,0.054-0.47,0.068C7.06,9.109,6.489,8.357,6.448,8.315c-0.036-0.039-0.08-0.072-0.142-0.063
			C6.232,8.268,6.175,8.34,6.193,8.42c0.008,0.042,0.052,0.107,0.078,0.145c0.024,0.037,0.52,0.805,0.812,0.979
			c0.283,0.168,0.289,0.097,0.314,0.34l0.029,0.741l-0.103,2.133c-0.003,0.021,0,0.122,0.004,0.129
			c0.031,0.083,0.112,0.158,0.214,0.158c0.095,0,0.176-0.067,0.208-0.149C7.753,12.894,8.008,11.151,8.008,11.151"/>
	</g>
	<path id="epidemieGroup" display="none" fill="#FFFFFF" d="M12.496,8.16c0-2.559-2.003-4.639-4.525-4.767
		c1.117,0.099,1.984,0.915,1.984,1.897c0,0.337-0.116,0.649-0.294,0.926c-0.503-0.495-1.187-0.8-1.948-0.8
		c-0.753,0-1.442,0.304-1.939,0.8C5.602,5.942,5.489,5.629,5.489,5.291c0-0.983,0.858-1.795,1.981-1.898
		C4.947,3.525,2.945,5.605,2.945,8.16c0,0.77,0.19,1.498,0.515,2.145C3.012,9.296,3.282,8.158,4.125,7.677
		c0.294-0.17,0.617-0.234,0.949-0.219C5.009,7.688,4.969,7.92,4.969,8.169c0,1.272,0.866,2.33,2.041,2.647
		c-0.019,0.023-0.044,0.05-0.058,0.082v0.003c-0.04,0.081-0.084,0.158-0.146,0.218c-0.125,0.166-0.27,0.313-0.458,0.417
		c-0.842,0.488-1.967,0.15-2.62-0.751c0.856,1.301,2.32,2.158,3.993,2.158c1.653,0,3.104-0.84,3.971-2.116
		c-0.666,0.873-1.767,1.195-2.6,0.714c-0.296-0.174-0.507-0.429-0.654-0.726c1.166-0.318,2.028-1.378,2.028-2.647
		c0-0.245-0.036-0.478-0.091-0.707c0.332-0.021,0.66,0.045,0.952,0.218c0.819,0.471,1.099,1.553,0.698,2.534
		C12.326,9.593,12.496,8.895,12.496,8.16z M8.224,9.999C8.204,9.6,8.291,9.187,8.488,8.788L8.173,8.606
		C8.059,8.728,7.893,8.801,7.72,8.801c-0.18,0-0.343-0.073-0.458-0.19l-0.31,0.175c0.203,0.394,0.284,0.814,0.263,1.218
		c-0.81-0.227-1.411-0.956-1.411-1.835C5.804,8,5.835,7.84,5.873,7.69c0.354,0.176,0.677,0.456,0.92,0.824l0.322-0.188
		C7.102,8.272,7.082,8.218,7.082,8.16c0-0.297,0.202-0.539,0.479-0.607v-0.37C7.116,7.152,6.719,7.018,6.386,6.8
		c0.338-0.338,0.811-0.546,1.327-0.546c0.514,0,0.996,0.214,1.339,0.553c-0.337,0.22-0.738,0.352-1.174,0.386v0.364
		c0.268,0.072,0.475,0.308,0.475,0.607c0,0.058-0.017,0.112-0.031,0.162l0.325,0.183c0.238-0.364,0.563-0.644,0.914-0.821
		C9.598,7.84,9.632,7.997,9.632,8.16C9.628,9.048,9.033,9.774,8.224,9.999z"/>
</g>
</svg>
