<?xml version="1.0" encoding="utf-8"?>
<!-- Generator: Adobe Illustrator 16.0.0, SVG Export Plug-In . SVG Version: 6.00 Build 0)  -->
<!DOCTYPE svg PUBLIC "-//W3C//DTD SVG 1.1//EN" "http://www.w3.org/Graphics/SVG/1.1/DTD/svg11.dtd">
<svg version="1.1" id="Groupe" xmlns="http://www.w3.org/2000/svg" xmlns:xlink="http://www.w3.org/1999/xlink" x="0px" y="0px"
	 width="15.871px" height="15.65px" viewBox="0 0 15.871 15.65" enable-background="new 0 0 15.871 15.65" xml:space="preserve">
<g id="PinColor_1_">
	<path id="vert" fill="#2ABF00" stroke="#1D7500" stroke-width="0.2" stroke-miterlimit="10" d="M15.443,7.875
		c0,3.432-2.455,6.311-5.77,7.071c-0.557,0.123-2.962,0.123-3.536-0.021c-3.278-0.775-5.709-3.639-5.709-7.052
		c0-4.003,3.364-7.26,7.507-7.26C12.077,0.613,15.443,3.869,15.443,7.875z"/>
	<path id="orange" display="none" fill="#FF8500" stroke="#7F4500" stroke-width="0.2" stroke-miterlimit="10" d="M15.443,7.875
		c0,3.432-2.455,6.311-5.77,7.071c-0.557,0.123-2.962,0.123-3.536-0.021c-3.278-0.775-5.709-3.639-5.709-7.052
		c0-4.003,3.364-7.26,7.507-7.26C12.077,0.613,15.443,3.869,15.443,7.875z"/>
	<path id="gris" display="none" fill="#A5A5A5" stroke="#595959" stroke-width="0.2" stroke-miterlimit="10" d="M15.443,7.875
		c0,3.432-2.455,6.311-5.77,7.071c-0.557,0.123-2.962,0.123-3.536-0.021c-3.278-0.775-5.709-3.639-5.709-7.052
		c0-4.003,3.364-7.26,7.507-7.26C12.077,0.613,15.443,3.869,15.443,7.875z"/>
	<path id="bleu" display="none" fill="#0092FF" stroke="#00477C" stroke-width="0.2" stroke-miterlimit="10" d="M15.443,7.875
		c0,3.432-2.455,6.311-5.77,7.071c-0.557,0.123-2.962,0.123-3.536-0.021c-3.278-0.775-5.709-3.639-5.709-7.052
		c0-4.003,3.364-7.26,7.507-7.26C12.077,0.613,15.443,3.869,15.443,7.875z"/>
</g>
<g id="IconsGroup">
	<g id="MinimalGroup" display="none">
		<path id="ElectionGroup" display="inline" fill="#565656" d="M13.543,3.452l-3.391-1.448C10.056,1.963,9.932,1.99,9.869,2.073
			L8.9,3.285C8.855,3.332,8.84,3.415,8.855,3.487C8.87,3.56,8.914,3.613,8.979,3.64L5.941,4.784
			c-0.254,0.09-0.476,0.269-0.615,0.507L4.322,6.963C4.11,7.319,4.089,7.754,4.278,8.124l0.078,0.142H3.293
			c-0.135,0-0.239,0.11-0.239,0.245v4.59H2.327c-0.132,0-0.236,0.109-0.236,0.238c0,0.131,0.108,0.24,0.236,0.24h8.213
			c0.134,0,0.239-0.109,0.239-0.24c0-0.129-0.105-0.238-0.239-0.238H9.816v-2.469c0-0.076-0.045-0.158-0.106-0.199
			c-0.072-0.049-0.163-0.057-0.24-0.016c-0.264,0.123-0.463,0.188-0.553,0.215c-0.019,0-0.041,0.014-0.054,0.025l-1.576,0.938
			c-0.251,0.15-0.536,0.234-0.823,0.234c-0.545,0-1.032-0.266-1.339-0.721c-0.249-0.361-0.335-0.795-0.24-1.227
			c0.09-0.426,0.342-0.791,0.705-1.025L5.822,8.71c0.167-0.1,0.32-0.189,0.449-0.273c0.096-0.057,0.131-0.171,0.102-0.28
			C6.316,7.963,6.219,7.792,6.121,7.66c0.366-0.158,0.867-0.447,1.122-0.74l0,0c0.053,0.034,0.115,0.07,0.185,0.104
			c0.005,0,0.005,0,0.013,0.004l0,0c0.18,0.088,0.401,0.177,0.668,0.228C7.825,7.604,7.542,8.036,7.432,8.323
			C7.245,8.415,6.826,8.641,5.856,9.264C5.598,9.423,5.419,9.682,5.362,9.985c-0.064,0.297-0.008,0.6,0.163,0.855
			c0.223,0.326,0.57,0.506,0.938,0.506c0.199,0,0.393-0.059,0.577-0.16l1.659-1c0.256-0.063,1.545-0.449,2.527-2.032
			c0.769-1.241,1.199-2.237,1.375-2.691l0.029,0.015c0.104,0.045,0.223,0.082,0.324,0.082c0.191,0,0.381-0.082,0.511-0.208
			c0.142-0.138,0.222-0.324,0.222-0.521V3.677C13.679,3.578,13.629,3.487,13.543,3.452z"/>
	</g>
	<g id="FaibleGroup" display="none">
		<path id="FamineGroup" display="inline" fill="#F9F9F9" d="M11.031,11.964l-1.84,0.348l-2.997-1.637l1.092-1.348l2.443,0.813
			L11.031,11.964z M13.847,8.776v0.207l-1.931,0.609l-1.908,0.271L7.557,9.05L6.979,8.776h0.332
			C7.233,8.052,7.127,7.495,7.075,6.771l0,0c-0.005-0.02-0.03-0.502-0.034-0.706C7.002,5.84,6.896,5.756,6.557,5.519
			c-0.19-0.114-0.33-0.157-0.401-0.157c-0.125,0-0.237,0.136-0.263,0.549c0.548,0.092,0.581,0.696,0.581,0.696
			C6.525,7.034,6.31,7.661,5.827,7.824C4.934,8.12,5.022,6.398,5.526,5.98c0.016-0.497,0.155-0.955,0.63-0.973
			c0.191,0,0.383,0.081,0.601,0.22c0.1,0.067,0.191,0.126,0.262,0.197c-0.008-0.17-0.017-0.337-0.017-0.513
			c0-0.367,0.055-0.755,0.379-1.036c0.164-0.154,0.348-0.24,0.537-0.235c0.479,0.029,0.77,0.438,0.945,0.859
			c0.201-0.087,0.453-0.127,0.738-0.023c0.739,0.248,1.143,1.542,0.834,1.983c-0.731,1.047-2.561-0.893-2.08-1.578
			c0,0,0.075-0.087,0.199-0.192C8.409,4.315,8.126,3.986,7.916,4.003c-0.083,0-0.182,0.03-0.296,0.137
			C7.416,4.323,7.358,4.575,7.358,4.911c0,0.238,0.031,0.5,0.031,0.761c0,0.139,0.008,0.26,0.011,0.393
			c0.036,0.233,0.036,0.41,0.036,0.659c0.054,0.72,0.339,1.313,0.422,2.052H13.847L13.847,8.776z M8.686,4.833l1.393,1.513
			C9.829,5.274,8.954,4.677,8.954,4.677L8.686,4.833z M5.813,6.128L5.567,6.233c0,0-0.124,0.845,0,1.283L5.813,6.128z M4.573,11.225
			l1.104-0.662l1.145-1.42L6.468,8.776H3.929L3.422,9.792L4.573,11.225z M5.856,10.995l-1.95,1.334l0.255,0.32h4.495l-0.012-0.063
			L5.856,10.995z M1.842,8.776v1.535l1.245-0.672l0.384-0.863H1.842z M10.371,10.19l1.211,1.764l2.265,0.531v-2.014l-1.632-0.523
			L10.371,10.19z M13.847,10.032V9.325l-1.274,0.34L13.847,10.032z M3.123,10.135l-1.282,0.605v1.908h0.937l1.397-1.143
			L3.123,10.135z M9.836,12.649h2.936l-1.398-0.338L9.836,12.649z"/>
		<path id="CycloneGroup" display="inline" fill="#FFFFFF" d="M7.888,4.652c-0.065,0-0.126-0.008-0.187-0.008
			c-0.552,0-1.065,0.142-1.514,0.388C6.988,2.3,8.992,2.054,8.992,2.054s-4.431,0.38-4.431,5.548c0.003,0,0.003,0,0.009,0
			c0,0.06-0.005,0.116-0.005,0.183c0,0.544,0.144,1.07,0.39,1.519C2.221,8.495,1.984,6.491,1.984,6.491s0.371,4.433,5.542,4.433
			c0-0.004,0-0.004,0-0.012c0.063,0.002,0.119,0.012,0.184,0.012c0.551,0,1.065-0.143,1.519-0.393
			c-0.813,2.74-2.817,2.979-2.817,2.979s4.437-0.375,4.437-5.545c-0.008,0-0.008,0-0.008,0c0-0.063,0.008-0.125,0.008-0.184
			c0-0.553-0.139-1.068-0.392-1.52c2.733,0.803,2.979,2.813,2.979,2.813s-0.369-4.431-5.548-4.431
			C7.888,4.647,7.888,4.652,7.888,4.652z"/>
		<path id="tsunamiGroup" display="inline" fill="#FFFFFF" d="M13.275,11.428C4.146,11.95,6.702,4.973,9.063,5.573
			C8.818,5.725,8.666,6.236,8.814,6.576C8.979,6.954,9.52,7.159,9.824,7.08c0.729-0.187,0.764-1.211,0.503-1.761
			c-0.278-0.555-1.003-1.255-2.271-1.255c-3.046,0-5.139,1.56-5.923,4.239v3.945h11.145v-0.82H13.275z"/>
		<path id="earthquakeGroup" display="inline" fill="#FFFFFF" d="M10.949,8.128c-0.155,0-0.301,0.085-0.373,0.23L9.968,9.497
			L9.223,7.301C9.16,7.136,9.007,7.024,8.831,7.016c-0.183-0.005-0.337,0.099-0.4,0.264L7.916,8.495L7.105,3.629
			C7.067,3.428,6.87,3.276,6.68,3.286C6.468,3.293,6.293,3.428,6.267,3.632L5.551,9.27L4.968,6.247
			C4.938,6.073,4.789,5.933,4.607,5.91C4.431,5.89,4.256,5.98,4.168,6.141L3.216,8.128H1.747v0.847h1.744
			c0.161,0,0.311-0.09,0.383-0.238L4.386,7.67l0.826,4.297c0.039,0.193,0.217,0.338,0.41,0.338c0.007,0,0.012,0,0.014,0
			c0.212-0.004,0.384-0.156,0.41-0.365l0.705-5.545l0.593,3.645c0.034,0.191,0.18,0.33,0.368,0.355
			c0.191,0.016,0.366-0.082,0.436-0.256l0.633-1.508l0.707,2.076c0.059,0.156,0.197,0.262,0.365,0.277
			c0.172,0.01,0.33-0.076,0.407-0.225l0.949-1.789h1.813V8.128H10.949z"/>
	</g>
	<g id="EleveGroup" display="none">
		<path id="attackGroup" display="inline" fill="#FFFFFF" d="M10.708,8.671l2.971-1.911l-2.877-0.305l0.784-3.335L9.551,5.228
			L8.979,2.842L8.126,5.065l-2.33-3.001l0.732,3.762L4.454,5.364c0,0,0.628,1.204,0.981,1.934L2.11,7.064l3.011,1.759l-0.86,0.883
			l1.395-0.248l-0.988,3.5l2.943-2.463l0.77,1.906l0.781-1.52l2.533,2.619l-1.272-3.512l2.789,0.285L10.708,8.671z"/>
	</g>
	<g id="ExtremeGroup" display="none">
		<path id="rebelionGroup" display="inline" fill="#FFFFFF" d="M9.961,4.23c0,1.211-0.986,2.191-2.189,2.191
			c-1.215,0-2.199-0.98-2.199-2.191c0-1.215,0.983-2.192,2.199-2.192C8.979,2.037,9.961,3.015,9.961,4.23z M4.109,13.524h1.334
			h0.075l0.053-0.1l0.485-0.477L5.598,12.85L4.893,12.7L4.109,13.524z M13.279,4.636L12.813,5.11l0.029,0.033l-0.386,0.376
			c0.055,0.051,0.103,0.1,0.146,0.154l0.385-0.384l0.08,0.069l0.461-0.473L13.279,4.636z M10.254,7.067l-0.205,0.205l0.021,0.055
			l0.052,0.11l-3.197,3.203l0.339,0.08c0.32,0.066,0.59,0.25,0.77,0.527c0.026,0.037,0.032,0.084,0.05,0.125l0.006-0.01l0.236,0.152
			l0.083-0.02l0.931,0.678l0.628-0.855l-1.392-1.086l0.037-0.092h0.238l1.356-1.602l0.153-1.431L10.254,7.067z M11.738,5.651
			c-0.416-0.045-0.817,0.267-0.863,0.695l-0.057,0.469l0,0l-0.031,0.337l-0.153,1.429l-0.015,0.137l-0.08,0.1l-1.223,1.438
			l0.916,0.713l0.338,0.262l-0.199,0.262l0.052,0.092c0.124,0.275,0.403,0.443,0.702,0.443c0.043,0,0.088,0,0.131-0.012
			c0.346-0.053,0.607-0.336,0.646-0.684l0.525-4.826C12.479,6.081,12.164,5.698,11.738,5.651z M10.143,11.815l-0.445,0.613
			l-0.256,0.348l-0.356-0.254l-0.772-0.559l-0.064,0.016l-0.033-0.016c0,0.066,0,0.129-0.018,0.193
			c-0.009,0.063-0.032,0.127-0.061,0.186c-0.043,0.113-0.111,0.203-0.182,0.303l0.055,0.127c0.053,0.123,0.127,0.279,0.214,0.422
			l0.221,0.33h1.646L10.143,11.815z M7.011,13.12c-0.015,0-0.04-0.002-0.062-0.002c0,0.031-0.005,0.051-0.005,0.051l0.188,0.355
			h0.441l0.29-0.1c-0.101-0.148-0.179-0.313-0.254-0.482C7.427,13.05,7.233,13.12,7.011,13.12z M7.653,11.464
			c-0.029-0.047-0.081-0.088-0.124-0.125c-0.023-0.027-0.042-0.063-0.082-0.082c-0.075-0.055-0.176-0.102-0.276-0.123l-0.336-0.068
			l-0.784-0.166l0,0l-0.694-0.148l-0.266-0.053L4.653,10.6l-0.031-0.004l0.075-0.078l0.3-0.297l0.319-0.318
			c0.025,0.223,0.037,0.391,0.037,0.395l0.104,0.023l0.967,0.207l0.2-0.199l2.993-3.002L9.543,7.158l0.021-0.021
			c-0.43-0.126-0.939-0.21-1.584-0.21H7.772h-0.21c-0.454,0-0.908,0.036-1.353,0.133c-0.774,0.176-1.25,0.929-1.766,1.443
			c-0.544,0.533-1.069,1.086-1.592,1.637c-0.118,0.125-0.232,0.246-0.358,0.363c-0.2,0.209-0.274,0.506-0.2,0.781
			c0.083,0.273,0.308,0.479,0.593,0.545l1.034,0.225l0.44,0.09l2.489,0.531c0.055,0.008,0.108,0.016,0.162,0.016
			c0.361,0,0.69-0.246,0.768-0.623c0.03-0.146,0.008-0.275-0.04-0.404l-0.042-0.104C7.68,11.528,7.666,11.503,7.653,11.464z
			 M6.557,13.382l-0.076-0.143l0.043-0.156l0.003-0.029l-0.125-0.039l-0.435,0.51h0.668L6.557,13.382z"/>
	</g>
	<path id="displacedGroup" display="none" fill="#FFFFFF" d="M7.833,3.487c0.092,0.567-0.291,1.099-0.854,1.194
		C6.414,4.78,5.874,4.392,5.786,3.83C5.694,3.259,6.073,2.72,6.642,2.634C7.208,2.534,7.74,2.922,7.833,3.487z M7.512,7.609
		L8.43,9.077c0.133,0.207,0.4,0.273,0.616,0.15C9.254,9.1,9.324,8.839,9.206,8.62L8.979,8.201C8.77,7.835,8.574,7.474,8.37,7.115
		L7.962,6.366c-0.046-0.086-0.09-0.179-0.139-0.285C7.572,5.554,7.178,4.735,6.314,4.809c-0.74,0.065-1.492,0.419-2.228,1.046
		C3.213,6.544,2.599,7.539,2.581,7.591C2.552,7.628,2.522,7.673,2.502,7.714c0,0,0,0-0.008,0.004l0,0
		c-0.078,0.157-0.12,0.299-0.021,0.48c0.083,0.136,0.236,0.226,0.398,0.226c0.197,0,0.296-0.094,0.393-0.233l0,0l0,0
		c0.029-0.04,0.056-0.084,0.083-0.129C3.35,8.056,3.865,7.225,4.662,6.556c0.241-0.192,0.476-0.323,0.695-0.392l-0.18,2.129
		C5.157,8.501,5.091,8.87,5.034,9.077l-0.396,1.395c-0.049,0.172-0.203,0.469-0.316,0.605l-1.074,1.33
		c-0.14,0.176-0.294,0.367-0.172,0.635c0.079,0.154,0.236,0.25,0.414,0.25c0.205,0,0.318-0.123,0.461-0.275l1.087-1.172
		c0.194-0.207,0.446-0.572,0.574-0.824l0.54-1.1l1.997,3.357c0.1,0.164,0.225,0.373,0.496,0.373l0,0
		c0.152,0,0.297-0.084,0.381-0.209c0.146-0.227,0.045-0.428-0.037-0.611L7.366,9.325C7.304,9.19,7.271,8.907,7.295,8.757
		L7.512,7.609z M9.199,11.257h2.416v0.719l2.408-1.387l-2.408-1.387v0.719H9.199V11.257z"/>
	<path id="enlevementGroup" display="none" fill="#FFFFFF" d="M12.793,1.686c-0.357,0-0.643,0.29-0.643,0.644V4.95
		c0.162,0.033,0.306,0.096,0.433,0.217c0.336,0.332,0.342,0.887,0.015,1.225l-1.225,1.253l-0.169-0.163l1.224-1.249
		c0.24-0.257,0.236-0.656-0.017-0.903c-0.076-0.075-0.169-0.13-0.271-0.157c-0.104-0.026-0.211-0.026-0.313-0.006
		c-0.126,0.027-0.227,0.09-0.307,0.178c-0.727,0.741-1.451,1.486-2.178,2.23C9.16,7.758,8.831,8.175,8.84,8.608
		c0.008,0.398,0,0.809,0,1.213C8.745,9.739,8.634,9.688,8.502,9.663c-0.376-0.068-0.708,0.16-0.836,0.492H7.48
		c0-0.086,0-0.184,0-0.273c0.007-0.414-0.008-0.852,0-1.273c0.014-0.424-0.324-0.85-0.501-1.029C6.253,6.83,5.532,6.085,4.808,5.339
		C4.725,5.255,4.615,5.194,4.499,5.167C4.393,5.144,4.286,5.147,4.177,5.173C4.08,5.2,3.983,5.255,3.909,5.33
		C3.659,5.577,3.651,5.977,3.89,6.234l1.224,1.248L4.95,7.645L3.73,6.39C3.401,6.053,3.408,5.498,3.745,5.164
		c0.126-0.117,0.269-0.179,0.423-0.216V2.327c0-0.354-0.291-0.644-0.644-0.644c-0.359,0-0.646,0.289-0.646,0.644v4.535
		c0,0.149,0.06,0.287,0.147,0.396l2.193,2.888h-0.19c-0.428,0-0.77,0.348-0.77,0.779c0,0.285,0.156,0.518,0.39,0.654
		c-0.23,0.143-0.392,0.379-0.392,0.654c0,0.432,0.343,0.773,0.771,0.773h0.234v0.436h2.154c0.11,0.109,0.243,0.189,0.4,0.227
		c0.051,0.012,0.087,0.016,0.132,0.016c0.382,0,0.706-0.273,0.769-0.645v-0.027h0.138c0,0.143,0,0.287,0.016,0.434h2.183v-0.434
		h0.234c0.421,0,0.772-0.344,0.772-0.771c0-0.279-0.156-0.523-0.393-0.66c0.236-0.137,0.393-0.369,0.393-0.654
		c0-0.43-0.352-0.777-0.772-0.777H11.1l2.188-2.886c0.092-0.114,0.15-0.247,0.15-0.396V2.338C13.439,1.976,13.15,1.686,12.793,1.686
		z M4.638,10.928c0-0.211,0.176-0.385,0.39-0.385h2.541l-0.137,0.777H5.028C4.814,11.313,4.638,11.141,4.638,10.928z M4.638,12.243
		c0-0.217,0.176-0.393,0.39-0.393H7.34l-0.132,0.781h-2.18C4.814,12.632,4.638,12.458,4.638,12.243z M8.33,12.969
		c-0.035,0.215-0.26,0.35-0.446,0.322c-0.105-0.016-0.191-0.074-0.253-0.16c-0.059-0.082-0.079-0.186-0.063-0.293l0.427-2.48
		c0.034-0.188,0.197-0.322,0.387-0.322c0.022,0,0.044,0,0.063,0.004c0.216,0.043,0.354,0.238,0.316,0.451L8.33,12.969z
		 M11.682,12.243c0,0.215-0.168,0.389-0.388,0.389H8.777l0.133-0.779h2.384C11.506,11.856,11.682,12.03,11.682,12.243z
		 M11.682,10.928c0,0.213-0.168,0.389-0.388,0.389H9.007l0.129-0.754c0-0.002,0-0.01,0-0.014h2.158
		C11.506,10.544,11.682,10.719,11.682,10.928z"/>
	<path id="eruptionGroup" display="none" fill="#FFFFFF" d="M8.576,5.647c0.666,0.228,1.537,0.49,1.729-0.571
		c0.146-0.834,1.243-0.527,1.715-0.574c0.855-0.103,0.211-1.702-0.856-1.724C10.078,2.75,9.588,3.232,9.148,4.212
		C8.949,4.685,8.77,5.038,8.004,4.784c-0.766-0.254-1.333,0.375-0.866,1.15c0.411,0.689-0.005,1.437-0.005,1.437H8.29
		c0,0-0.005-0.417-0.288-0.856C7.677,5.998,7.902,5.416,8.576,5.647z M2.456,12.792c2.973-2.168,3.718-5.157,3.718-5.157h3.053
		c0,0,0.737,2.989,3.709,5.157H2.456L2.456,12.792z"/>
	<path id="returnedGroup" display="none" fill="#FFFFFF" d="M7.837,3.487c0.087,0.567-0.291,1.099-0.859,1.194
		C6.414,4.775,5.874,4.392,5.789,3.824C5.694,3.256,6.073,2.72,6.642,2.63C7.208,2.534,7.74,2.919,7.837,3.487z M7.512,7.604
		L8.43,9.077c0.133,0.207,0.4,0.271,0.616,0.15c0.208-0.129,0.278-0.389,0.16-0.607L8.979,8.198c-0.205-0.363-0.404-0.725-0.6-1.088
		L7.962,6.366C7.916,6.281,7.876,6.188,7.823,6.081C7.572,5.554,7.178,4.731,6.314,4.809C5.578,4.87,4.827,5.22,4.086,5.848
		C3.21,6.544,2.595,7.539,2.575,7.586C2.549,7.628,2.519,7.669,2.5,7.714L2.492,7.718l0,0c-0.079,0.157-0.12,0.299-0.021,0.48
		c0.083,0.136,0.236,0.23,0.397,0.23c0.198,0,0.296-0.096,0.389-0.234l0,0l0,0C3.283,8.152,3.312,8.107,3.34,8.062
		c0.008-0.008,0.521-0.834,1.313-1.508C4.9,6.36,5.135,6.228,5.353,6.156L5.176,8.292C5.157,8.501,5.091,8.87,5.034,9.077
		l-0.396,1.395c-0.049,0.176-0.203,0.469-0.323,0.605l-1.066,1.33c-0.139,0.176-0.294,0.367-0.172,0.635
		c0.079,0.154,0.236,0.25,0.414,0.25c0.206,0,0.318-0.123,0.463-0.275l1.085-1.172c0.194-0.207,0.446-0.572,0.568-0.824l0.541-1.1
		l1.997,3.357c0.096,0.164,0.229,0.373,0.496,0.373l0,0c0.153,0,0.295-0.084,0.385-0.213c0.139-0.221,0.041-0.428-0.037-0.604
		L7.37,9.325C7.311,9.19,7.275,8.907,7.295,8.757L7.512,7.604z M14.236,8.356c0-1.469-1.193-2.655-2.657-2.655h-1.126v1.337h1.131
		c0.722,0,1.313,0.588,1.313,1.318c0,0.719-0.582,1.314-1.313,1.314h-0.239V8.948l-2.403,1.387l2.403,1.393v-0.719h0.265l0,0
		C13.059,10.987,14.236,9.807,14.236,8.356z"/>
	<g id="Affected">
		<path fill="#FFFFFF" d="M5.077,3.272c0,0.508-0.417,0.923-0.927,0.923S3.224,3.78,3.224,3.272c0-0.514,0.417-0.927,0.926-0.927
			C4.664,2.345,5.077,2.758,5.077,3.272z M4.251,9.594l0.199,3.41c0,0.115,0.097,0.225,0.216,0.225c0.119,0,0.219-0.104,0.219-0.225
			l0.183-3.41h0.605l-0.627-3.82l1.256,2.498c0.044,0.107,0.171,0.16,0.284,0.115c0.11-0.049,0.165-0.171,0.117-0.285
			c0,0-0.923-2.485-1.148-2.95C5.326,4.688,5.101,4.406,4.239,4.406H4.064c-0.864,0-1.092,0.283-1.317,0.748
			c-0.225,0.465-1.142,2.95-1.142,2.95C1.557,8.216,1.609,8.341,1.716,8.389c0.111,0.047,0.24-0.004,0.286-0.116l1.255-2.502
			L2.635,9.596h0.604l0.188,3.408c0,0.117,0.098,0.227,0.217,0.227c0.12,0,0.217-0.105,0.217-0.227L4.05,9.596h0.201V9.594z
			 M11.615,2.341c-0.508,0-0.922,0.414-0.922,0.928c0,0.512,0.414,0.926,0.922,0.926c0.512,0,0.922-0.415,0.922-0.926
			C12.537,2.754,12.127,2.341,11.615,2.341z M12.572,7.781l0.063-2.01l1.127,2.502c0.05,0.107,0.179,0.16,0.285,0.115
			c0.114-0.045,0.166-0.171,0.122-0.285c0,0-0.797-2.488-1.023-2.95c-0.234-0.465-0.58-0.748-1.438-0.748h-0.181
			c-0.863,0-1.213,0.283-1.442,0.748C9.861,5.615,9.066,8.098,9.066,8.098C9.02,8.212,9.07,8.333,9.186,8.387
			C9.295,8.436,9.42,8.385,9.462,8.273l1.135-2.502l0.06,2.01l-0.174,5.046c-0.016,0.207,0.133,0.383,0.336,0.391
			c0.006,0.008,0.021,0.008,0.021,0.008c0.197,0,0.351-0.146,0.369-0.346l0.407-4.16l0.416,4.16c0.008,0.197,0.17,0.346,0.361,0.346
			c0.006,0,0.014,0,0.021-0.01c0.198-0.008,0.354-0.184,0.338-0.389L12.572,7.781L12.572,7.781z M7.888,7.959
			c-0.312,0-0.57,0.252-0.57,0.563c0,0.314,0.254,0.564,0.57,0.564c0.313,0,0.562-0.248,0.562-0.564
			C8.449,8.213,8.198,7.959,7.888,7.959z M7.888,11.294l0.253,1.775c0.035,0.086,0.114,0.156,0.215,0.156s0.182-0.078,0.218-0.162
			c0-0.01,0.004-0.119,0-0.133l-0.103-2.174l0.032-0.754c0.034-0.244,0.038-0.176,0.327-0.348c0.3-0.178,0.793-0.955,0.825-0.998
			c0.02-0.039,0.07-0.105,0.076-0.146c0.016-0.082-0.035-0.154-0.108-0.172c-0.07-0.01-0.116,0.023-0.154,0.064
			C9.427,8.446,8.852,9.212,8.419,9.288C8.322,9.278,8.212,9.223,7.94,9.223H7.83c-0.276,0-0.382,0.055-0.479,0.068
			c-0.43-0.08-1.012-0.846-1.054-0.889C6.26,8.362,6.215,8.329,6.151,8.339C6.077,8.356,6.02,8.428,6.038,8.51
			c0.007,0.041,0.053,0.107,0.079,0.146c0.025,0.037,0.529,0.82,0.827,0.998c0.29,0.172,0.295,0.098,0.321,0.348l0.031,0.754
			L7.19,12.932c-0.003,0.02,0,0.123,0.004,0.131c0.031,0.084,0.114,0.162,0.218,0.162c0.097,0,0.18-0.068,0.212-0.154
			C7.628,13.071,7.888,11.294,7.888,11.294"/>
	</g>
	<path id="epidemieGroup" display="none" fill="#FFFFFF" d="M12.464,8.245c0-2.609-2.043-4.729-4.614-4.86
		c1.138,0.103,2.023,0.934,2.023,1.936c0,0.344-0.118,0.661-0.301,0.944C9.061,5.76,8.363,5.449,7.587,5.449
		c-0.768,0-1.471,0.309-1.977,0.815C5.435,5.984,5.319,5.664,5.319,5.321c0-1.003,0.874-1.83,2.02-1.937
		C4.766,3.521,2.725,5.641,2.725,8.245c0,0.785,0.194,1.527,0.525,2.187C2.794,9.403,3.07,8.241,3.929,7.751
		c0.3-0.172,0.629-0.239,0.968-0.224C4.83,7.762,4.789,7.999,4.789,8.252c0,1.297,0.884,2.375,2.081,2.7
		c-0.019,0.025-0.044,0.051-0.059,0.082v0.004c-0.04,0.084-0.085,0.162-0.148,0.223c-0.128,0.168-0.275,0.318-0.468,0.426
		c-0.858,0.498-2.004,0.154-2.67-0.766c0.873,1.326,2.365,2.199,4.07,2.199c1.687,0,3.165-0.855,4.05-2.156
		c-0.682,0.889-1.803,1.219-2.652,0.729c-0.301-0.178-0.516-0.438-0.667-0.74c1.188-0.324,2.067-1.404,2.067-2.7
		c0-0.25-0.037-0.486-0.093-0.72c0.338-0.021,0.673,0.046,0.97,0.223c0.836,0.479,1.121,1.582,0.711,2.583
		C12.29,9.706,12.464,8.993,12.464,8.245z M8.108,10.12C8.087,9.712,8.176,9.292,8.379,8.885L8.056,8.7
		C7.94,8.823,7.772,8.899,7.595,8.899c-0.184,0-0.35-0.076-0.468-0.195L6.811,8.882c0.208,0.402,0.29,0.83,0.268,1.242
		c-0.826-0.23-1.438-0.975-1.438-1.872c0-0.171,0.032-0.334,0.071-0.486c0.361,0.179,0.69,0.465,0.938,0.84l0.328-0.191
		C6.964,8.36,6.943,8.304,6.943,8.245c0-0.303,0.206-0.549,0.489-0.62V7.248c-0.453-0.03-0.858-0.168-1.198-0.39
		c0.344-0.345,0.827-0.558,1.353-0.558c0.523,0,1.015,0.22,1.365,0.563C8.609,7.088,8.2,7.223,7.755,7.257v0.371
		C8.028,7.704,8.24,7.944,8.24,8.249c0,0.06-0.018,0.115-0.032,0.166l0.33,0.188C8.781,8.229,9.113,7.946,9.47,7.764
		c0.037,0.155,0.073,0.314,0.073,0.481C9.539,9.151,8.934,9.889,8.108,10.12z"/>
</g>
</svg>
