<?xml version="1.0" encoding="utf-8"?>
<!-- Generator: Adobe Illustrator 16.0.0, SVG Export Plug-In . SVG Version: 6.00 Build 0)  -->
<!DOCTYPE svg PUBLIC "-//W3C//DTD SVG 1.1//EN" "http://www.w3.org/Graphics/SVG/1.1/DTD/svg11.dtd">
<svg version="1.1" id="Layer_1" xmlns="http://www.w3.org/2000/svg" xmlns:xlink="http://www.w3.org/1999/xlink" x="0px" y="0px"
	 width="33.35px" height="40px" viewBox="-5 0 33.35 40" enable-background="new -5 0 33.35 40" xml:space="preserve">
<g id="PinColor">
	<path id="PinOmbre" opacity="0.3" enable-background="new    " d="M22.466,29.631c0,1.572-3.449,2.893-8.093,3.238
		c-0.783,0.063-2.439,3.746-2.439,3.746s-1.716-3.689-2.523-3.75C4.812,32.506,1.4,31.193,1.4,29.631
		c0-1.84,4.718-3.332,10.534-3.332C17.749,26.299,22.466,27.79,22.466,29.631z"/>
	<path id="vert" display="none" fill="#2ABF00" stroke="#1D7500" stroke-width="0.2" stroke-miterlimit="10" d="M22.466,14.173
		c0,4.813-3.449,8.847-8.093,9.914c-0.783,0.179-2.439,11.462-2.439,11.462S10.218,24.264,9.41,24.064
		C4.812,22.973,1.4,18.957,1.4,14.169c0-5.626,4.718-10.188,10.534-10.188C17.749,3.982,22.466,8.546,22.466,14.173z"/>
	<path id="orange" display="none" fill="#FF8500" stroke="#7F4500" stroke-width="0.2" stroke-miterlimit="10" d="M22.466,14.173
		c0,4.813-3.449,8.847-8.093,9.914c-0.783,0.179-2.439,11.462-2.439,11.462S10.218,24.264,9.41,24.064
		C4.812,22.973,1.4,18.957,1.4,14.169c0-5.626,4.718-10.188,10.534-10.188C17.749,3.982,22.466,8.546,22.466,14.173z"/>
	<path id="gris" display="none" fill="#A5A5A5" stroke="#595959" stroke-width="0.2" stroke-miterlimit="10" d="M22.466,14.173
		c0,4.813-3.449,8.847-8.093,9.914c-0.783,0.179-2.439,11.462-2.439,11.462S10.218,24.264,9.41,24.064
		C4.812,22.973,1.4,18.957,1.4,14.169c0-5.626,4.718-10.188,10.534-10.188C17.749,3.982,22.466,8.546,22.466,14.173z"/>
	<path id="bleu" fill="#0092FF" stroke="#00477C" stroke-width="0.2" stroke-miterlimit="10" d="M22.466,14.173
		c0,4.813-3.449,8.847-8.093,9.914c-0.783,0.179-2.439,11.462-2.439,11.462S10.218,24.264,9.41,24.064
		C4.812,22.973,1.4,18.957,1.4,14.169c0-5.626,4.718-10.188,10.534-10.188C17.749,3.982,22.466,8.546,22.466,14.173z"/>
</g>
<g id="Icons">
	<g id="Minimal">
		<path id="Election" display="none" fill="#565656" d="M24.6,2.07l-4.082-1.75c-0.122-0.051-0.263-0.016-0.342,0.087l-1.169,1.458
			c-0.053,0.065-0.073,0.158-0.057,0.243c0.02,0.082,0.071,0.149,0.146,0.188l-3.661,1.372c-0.31,0.116-0.569,0.333-0.739,0.615
			l-1.211,2.02c-0.257,0.43-0.276,0.953-0.054,1.402l0.087,0.171H12.24c-0.161,0-0.294,0.13-0.294,0.291v5.54h-0.873
			c-0.161,0-0.289,0.129-0.289,0.291s0.128,0.291,0.289,0.291h9.914c0.16,0,0.285-0.13,0.285-0.291c0-0.16-0.126-0.291-0.285-0.291
			h-0.876v-2.98c0-0.098-0.054-0.194-0.136-0.245c-0.085-0.055-0.188-0.062-0.28-0.019c-0.32,0.152-0.558,0.227-0.67,0.26
			c-0.022,0.006-0.048,0.016-0.066,0.031l-1.9,1.137c-0.303,0.183-0.646,0.278-0.995,0.278c-0.646,0-1.249-0.322-1.618-0.867
			c-0.294-0.436-0.394-0.964-0.285-1.479c0.109-0.514,0.416-0.954,0.855-1.236l0.275-0.176c0.203-0.123,0.382-0.236,0.544-0.333
			c0.11-0.071,0.163-0.207,0.126-0.333c-0.074-0.233-0.194-0.44-0.308-0.601c0.444-0.194,1.048-0.542,1.352-0.894
			c0,0,0.003,0.001,0.005,0.001c0.063,0.039,0.138,0.08,0.224,0.122c0.005,0.001,0.007,0.004,0.016,0.006l0,0
			c0.217,0.106,0.491,0.21,0.808,0.273c-0.338,0.419-0.685,0.943-0.811,1.292c-0.24,0.107-0.743,0.392-1.913,1.137
			c-0.313,0.197-0.524,0.503-0.598,0.864c-0.076,0.361-0.009,0.728,0.198,1.036c0.26,0.392,0.688,0.607,1.132,0.607
			c0.236,0,0.479-0.063,0.694-0.195l2.004-1.203c0.313-0.076,1.871-0.542,3.052-2.452c0.928-1.496,1.445-2.702,1.66-3.247
			l0.035,0.018C23.633,4.569,23.766,4.6,23.9,4.6c0.227,0,0.445-0.09,0.61-0.246c0.173-0.164,0.267-0.388,0.267-0.628V2.337
			C24.772,2.222,24.706,2.115,24.6,2.07z"/>
	</g>
	<g id="Faible">
		<path id="Famine" display="none" fill="#F9F9F9" d="M21.973,12.804l-2.314,0.439l-3.784-2.059l1.375-1.716l3.095,1.028
			L21.973,12.804z M25.534,8.781v0.257l-2.438,0.774l-2.408,0.343l-3.096-1.03l-0.73-0.344h0.417
			c-0.099-0.919-0.23-1.618-0.297-2.531h-0.003c-0.002-0.026-0.034-0.639-0.042-0.898c-0.048-0.275-0.178-0.384-0.607-0.68
			c-0.234-0.152-0.41-0.207-0.51-0.204c-0.157,0-0.299,0.171-0.331,0.685c0.688,0.116,0.735,0.879,0.735,0.879
			c0.063,0.542-0.205,1.333-0.816,1.539c-1.135,0.378-1.02-1.805-0.379-2.328c0.019-0.628,0.193-1.206,0.791-1.228
			c0.236,0.001,0.479,0.1,0.759,0.277c0.134,0.08,0.241,0.162,0.335,0.246C16.904,4.33,16.89,4.118,16.89,3.9
			c-0.001-0.459,0.071-0.958,0.479-1.313c0.208-0.19,0.444-0.289,0.679-0.287c0.604,0.029,0.979,0.552,1.197,1.086
			c0.256-0.111,0.572-0.165,0.938-0.039c0.932,0.323,1.434,1.947,1.044,2.514c-0.92,1.319-3.229-1.138-2.618-1.994
			c0,0,0.089-0.117,0.247-0.246c-0.179-0.473-0.54-0.895-0.81-0.866c-0.104,0.001-0.227,0.038-0.376,0.172
			c-0.258,0.229-0.325,0.549-0.325,0.972c0,0.297,0.036,0.629,0.036,0.96c0,0.173,0.012,0.325,0.017,0.493
			c0.043,0.295,0.044,0.522,0.043,0.834c0.063,0.911,0.431,1.657,0.527,2.595H25.534L25.534,8.781L25.534,8.781z M19.023,3.801
			l1.751,1.908c-0.312-1.353-1.422-2.105-1.422-2.105L19.023,3.801z M15.394,5.44L15.08,5.568c0,0-0.154,1.066,0,1.624L15.394,5.44z
			 M13.824,11.874l1.393-0.837l1.452-1.794l-0.454-0.462h-3.207l-0.635,1.271L13.824,11.874z M15.448,11.586l-2.467,1.679
			l0.329,0.407h5.675l-0.019-0.084L15.448,11.586z M10.374,8.781v1.936l1.579-0.847l0.479-1.088L10.374,8.781L10.374,8.781z
			 M21.144,10.569l1.529,2.219l2.86,0.671v-2.537l-2.06-0.663L21.144,10.569z M25.534,10.367V9.471L23.93,9.904L25.534,10.367z
			 M11.993,10.491l-1.619,0.771v2.41h1.185l1.763-1.445L11.993,10.491z M20.475,13.672h3.704l-1.771-0.429L20.475,13.672z"/>
		<path id="Cyclone" display="none" fill="#FFFFFF" d="M18.013,3.575c-0.076-0.004-0.156-0.014-0.232-0.014
			c-0.694,0-1.348,0.181-1.915,0.494c1.016-3.458,3.547-3.759,3.547-3.759s-5.597,0.466-5.597,6.996c0.004,0,0.008,0,0.012,0
			c-0.004,0.079-0.013,0.155-0.013,0.234c0,0.691,0.182,1.346,0.495,1.916c-3.458-1.017-3.76-3.547-3.76-3.547
			s0.466,5.597,6.998,5.597c0-0.006,0-0.007,0-0.013c0.076,0.003,0.153,0.013,0.23,0.013c0.694,0,1.349-0.181,1.915-0.497
			c-1.014,3.46-3.549,3.762-3.549,3.762s5.599-0.468,5.599-6.997c-0.005,0-0.009,0-0.012,0c0.003-0.078,0.012-0.154,0.012-0.232
			c0-0.695-0.182-1.35-0.495-1.917c3.458,1.014,3.761,3.547,3.761,3.547s-0.464-5.597-6.995-5.597
			C18.013,3.567,18.013,3.571,18.013,3.575z"/>
		<path id="tsunami" display="none" fill="#FFFFFF" d="M24.81,12.133c-11.516,0.653-8.299-8.158-5.312-7.397
			c-0.311,0.188-0.505,0.835-0.315,1.272c0.209,0.466,0.883,0.733,1.271,0.636c0.93-0.24,0.973-1.542,0.636-2.226
			c-0.346-0.71-1.263-1.588-2.859-1.588c-3.856,0-6.488,1.97-7.478,5.356v4.979h14.063v-1.032H24.81z"/>
		<path id="earthquake" display="none" fill="#FFFFFF" d="M21.878,7.961c-0.197,0-0.38,0.109-0.474,0.284l-0.768,1.446l-0.946-2.772
			c-0.074-0.21-0.267-0.352-0.484-0.362c-0.229-0.006-0.429,0.123-0.516,0.327l-0.646,1.542l-1.023-6.14
			c-0.05-0.257-0.291-0.451-0.538-0.439c-0.262,0.006-0.479,0.181-0.515,0.441l-0.908,7.124l-0.733-3.824
			c-0.042-0.225-0.228-0.397-0.453-0.429c-0.229-0.031-0.454,0.092-0.554,0.298l-1.2,2.504h-1.865v1.066h2.2
			c0.205,0,0.395-0.119,0.483-0.301l0.646-1.345l1.041,5.423c0.05,0.251,0.268,0.434,0.523,0.434c0.005,0,0.011,0,0.015,0
			c0.261-0.007,0.479-0.204,0.516-0.463l0.892-7l0.743,4.609c0.044,0.233,0.232,0.408,0.471,0.435
			c0.235,0.022,0.46-0.105,0.554-0.326l0.799-1.903l0.893,2.611c0.068,0.203,0.249,0.343,0.461,0.361
			c0.213,0.011,0.416-0.094,0.518-0.281l1.193-2.255h2.291V7.96L21.878,7.961L21.878,7.961z"/>
	</g>
	<g id="Modéré">
	</g>
	<g id="Important">
	</g>
	<g id="Elevé">
	</g>
	<g id="Extreme" display="none">
		<path id="rebelion" display="inline" fill="#FFFFFF" d="M19.96,3.771c0,1.286-1.042,2.327-2.325,2.327
			c-1.289,0-2.329-1.042-2.329-2.327c0-1.287,1.04-2.328,2.329-2.328C18.918,1.444,19.96,2.484,19.96,3.771z M13.749,13.641h1.422
			h0.075l0.052-0.109l0.52-0.506l-0.479-0.101l-0.754-0.161L13.749,13.641z M23.485,4.202l-0.5,0.499l0.034,0.034l-0.402,0.408
			c0.055,0.049,0.106,0.099,0.15,0.158l0.406-0.407l0.084,0.076l0.491-0.501L23.485,4.202z M20.273,6.785l-0.216,0.212l0.024,0.061
			l0.05,0.114l-3.395,3.403l0.365,0.078c0.334,0.07,0.624,0.271,0.813,0.562c0.022,0.041,0.029,0.09,0.052,0.134l0.01-0.012
			l0.251,0.165l0.089-0.02l0.989,0.718l0.665-0.911l-1.473-1.15l0.029-0.096h0.243l1.446-1.696l0.162-1.521L20.273,6.785z
			 M21.849,5.281c-0.439-0.049-0.867,0.28-0.92,0.736l-0.054,0.496l0,0L20.84,6.871l-0.161,1.523l-0.017,0.142l-0.092,0.109
			l-1.294,1.517l0.978,0.765l0.352,0.274l-0.205,0.278l0.052,0.102c0.136,0.292,0.433,0.474,0.752,0.474
			c0.046,0,0.091-0.001,0.14-0.011c0.364-0.063,0.646-0.361,0.685-0.729l0.556-5.119C22.634,5.738,22.303,5.327,21.849,5.281z
			 M20.154,11.817l-0.476,0.655l-0.271,0.374l-0.373-0.272l-0.818-0.592L18.143,12l-0.031-0.02c0,0.07-0.001,0.137-0.017,0.208
			c-0.018,0.068-0.04,0.13-0.067,0.196c-0.053,0.12-0.118,0.225-0.197,0.322l0.059,0.131c0.058,0.129,0.136,0.301,0.23,0.447
			l0.229,0.356h1.748L20.154,11.817z M16.828,13.211c-0.021,0-0.041-0.006-0.061-0.007c-0.009,0.037-0.014,0.064-0.014,0.064
			l0.196,0.371h0.476l0.307-0.106c-0.104-0.162-0.188-0.336-0.269-0.511C17.272,13.132,17.062,13.211,16.828,13.211z M17.513,11.45
			c-0.033-0.052-0.084-0.094-0.132-0.137c-0.026-0.025-0.05-0.061-0.084-0.081c-0.085-0.061-0.188-0.105-0.292-0.131l-0.364-0.073
			l-0.828-0.178l0,0l-0.729-0.156l-0.286-0.061l-0.471-0.101l-0.029-0.006l0.073-0.077l0.317-0.313l0.338-0.342
			c0.029,0.235,0.042,0.42,0.042,0.423l0.11,0.023l1.026,0.219l0.212-0.211l3.173-3.188l-0.072-0.177l0.026-0.021
			c-0.46-0.138-1.001-0.217-1.688-0.217h-0.224c0,0-0.223,0-0.225,0c-0.479,0-0.965,0.031-1.438,0.137
			c-0.813,0.182-1.316,0.979-1.873,1.527c-0.572,0.565-1.129,1.153-1.688,1.732c-0.123,0.131-0.246,0.265-0.373,0.392
			c-0.216,0.216-0.293,0.532-0.208,0.826c0.084,0.292,0.324,0.513,0.624,0.579l1.1,0.234l0.466,0.099l2.638,0.563
			c0.063,0.009,0.12,0.019,0.179,0.019c0.383,0,0.729-0.268,0.812-0.658c0.032-0.154,0.008-0.299-0.038-0.436l-0.051-0.105
			C17.538,11.523,17.528,11.488,17.513,11.45z M16.348,13.482l-0.08-0.15l0.039-0.168l0.008-0.031l-0.127-0.028l-0.466,0.535h0.707
			L16.348,13.482z"/>
	</g>
	<path id="displaced" display="none" fill="#FFFFFF" d="M18.577,1.762c0.114,0.718-0.367,1.393-1.081,1.509
		C16.781,3.39,16.1,2.904,15.984,2.19c-0.116-0.717,0.365-1.394,1.084-1.512C17.781,0.563,18.458,1.048,18.577,1.762z M18.167,6.97
		l1.16,1.856c0.166,0.261,0.508,0.345,0.771,0.191c0.27-0.161,0.359-0.498,0.214-0.769l-0.296-0.533
		c-0.259-0.456-0.51-0.916-0.765-1.372l-0.517-0.937c-0.059-0.111-0.117-0.234-0.178-0.362c-0.316-0.669-0.814-1.704-1.909-1.61
		c-0.934,0.08-1.883,0.525-2.815,1.317c-1.105,0.872-1.877,2.137-1.905,2.192c-0.038,0.053-0.073,0.112-0.101,0.165
		c-0.002,0.001-0.002,0.004-0.003,0.005l0,0c-0.105,0.196-0.156,0.374-0.027,0.602c0.102,0.178,0.293,0.288,0.497,0.288
		c0.251,0,0.377-0.119,0.5-0.293l0,0c0.001,0,0.001-0.004,0.001-0.004c0.035-0.051,0.065-0.108,0.106-0.165
		c0.006-0.01,0.654-1.052,1.656-1.906c0.309-0.244,0.604-0.41,0.878-0.502l-0.223,2.704c-0.024,0.267-0.107,0.73-0.18,0.987
		l-0.505,1.763c-0.064,0.22-0.252,0.591-0.399,0.771l-1.359,1.683c-0.172,0.213-0.365,0.455-0.206,0.79
		c0.097,0.199,0.295,0.326,0.518,0.326c0.262,0,0.402-0.15,0.58-0.343l1.374-1.483c0.245-0.266,0.567-0.725,0.727-1.049l0.682-1.388
		l2.523,4.238c0.121,0.208,0.276,0.471,0.619,0.471l0,0c0.197,0,0.378-0.1,0.479-0.263c0.186-0.28,0.063-0.534-0.042-0.765
		l-2.04-4.431c-0.078-0.175-0.124-0.528-0.09-0.719L18.167,6.97z M20.305,11.582h3.058v0.909l3.036-1.753l-3.036-1.754v0.908h-3.058
		V11.582z"/>
	<path id="epidemie" display="none" fill="#FFFFFF" d="M23.787,8.111c0-3.292-2.579-5.971-5.829-6.139
		c1.437,0.136,2.556,1.178,2.556,2.446c0,0.435-0.146,0.836-0.378,1.191c-0.644-0.639-1.522-1.034-2.499-1.034
		c-0.974,0-1.854,0.394-2.492,1.031c-0.229-0.353-0.375-0.754-0.375-1.191c0-1.266,1.116-2.309,2.55-2.446
		c-3.248,0.169-5.826,2.849-5.826,6.142c0,0.992,0.241,1.928,0.657,2.76c-0.57-1.301-0.224-2.762,0.859-3.387
		c0.378-0.218,0.8-0.296,1.219-0.272c-0.08,0.291-0.133,0.591-0.133,0.907c0,1.636,1.118,3,2.625,3.407
		c-0.021,0.034-0.045,0.068-0.066,0.102c0,0.003,0,0.003,0,0.008c-0.05,0.113-0.112,0.203-0.188,0.28
		c-0.161,0.213-0.351,0.401-0.589,0.539c-1.09,0.629-2.538,0.194-3.375-0.965c1.102,1.67,2.987,2.776,5.136,2.776
		c2.127,0,4-1.082,5.105-2.725c-0.844,1.123-2.266,1.534-3.336,0.919c-0.382-0.222-0.657-0.554-0.85-0.936
		c1.508-0.407,2.618-1.774,2.618-3.405c0-0.315-0.052-0.617-0.131-0.907c0.427-0.028,0.848,0.051,1.228,0.27
		c1.055,0.607,1.411,2.001,0.907,3.275C23.57,9.952,23.787,9.058,23.787,8.111z M18.293,10.478
		c-0.027-0.512,0.081-1.049,0.337-1.556l-0.409-0.235c-0.146,0.151-0.354,0.245-0.581,0.245c-0.229,0-0.433-0.093-0.583-0.245
		l-0.401,0.229c0.257,0.511,0.364,1.052,0.337,1.564c-1.04-0.285-1.813-1.232-1.813-2.361c0-0.217,0.034-0.421,0.087-0.619
		c0.455,0.229,0.867,0.587,1.184,1.061l0.409-0.239c-0.017-0.071-0.044-0.136-0.044-0.212c0-0.38,0.267-0.687,0.618-0.78V6.864
		c-0.572-0.037-1.089-0.214-1.518-0.495c0.443-0.438,1.051-0.707,1.719-0.707c0.672,0,1.28,0.271,1.726,0.709
		c-0.431,0.28-0.946,0.455-1.518,0.492v0.468c0.353,0.093,0.615,0.4,0.615,0.78c0,0.077-0.023,0.142-0.04,0.212l0.416,0.243
		c0.313-0.474,0.728-0.83,1.179-1.059c0.05,0.195,0.084,0.399,0.084,0.611C20.097,9.247,19.331,10.19,18.293,10.478z"/>
	<path id="enlevement" display="none" fill="#FFFFFF" d="M22.767,0.761c-0.38,0-0.692,0.313-0.692,0.694v2.824
		c0.169,0.037,0.328,0.107,0.456,0.233c0.366,0.361,0.377,0.952,0.021,1.32l-1.313,1.35l-0.183-0.176l1.319-1.346
		c0.265-0.273,0.257-0.707-0.016-0.975c-0.086-0.08-0.184-0.136-0.288-0.165c-0.118-0.031-0.232-0.033-0.349-0.01
		c-0.126,0.033-0.24,0.097-0.33,0.193c-0.78,0.799-1.563,1.599-2.342,2.401c-0.196,0.2-0.555,0.659-0.542,1.117
		c0.008,0.43-0.006,0.872,0.002,1.306c-0.104-0.082-0.229-0.144-0.365-0.169c-0.404-0.064-0.768,0.175-0.907,0.534h-0.203
		c0-0.099,0-0.196,0.002-0.295c0.01-0.452-0.009-0.921,0.003-1.373c0.01-0.459-0.349-0.918-0.543-1.118
		c-0.779-0.801-1.561-1.602-2.344-2.403c-0.089-0.094-0.2-0.159-0.331-0.19c-0.111-0.024-0.229-0.022-0.345,0.01
		c-0.104,0.03-0.207,0.087-0.291,0.167c-0.268,0.265-0.273,0.699-0.012,0.973l1.317,1.345L14.31,7.185l-1.313-1.352
		c-0.358-0.369-0.351-0.959,0.018-1.318c0.129-0.125,0.289-0.197,0.455-0.234V1.457c0-0.382-0.313-0.695-0.691-0.695
		c-0.384,0-0.692,0.313-0.692,0.695v4.89c0,0.159,0.063,0.306,0.158,0.425l2.36,3.119h-0.208c-0.458,0-0.836,0.375-0.836,0.835
		c0,0.306,0.174,0.563,0.418,0.708c-0.243,0.147-0.417,0.404-0.417,0.708c0,0.462,0.376,0.838,0.836,0.838h0.255v0.465h2.318
		c0.122,0.12,0.263,0.208,0.433,0.238c0.048,0.007,0.092,0.011,0.141,0.011c0.405,0,0.755-0.291,0.819-0.694l0.005-0.021h0.147
		c0.002,0.154,0,0.305,0.019,0.465h2.357v-0.466h0.258c0.458,0,0.835-0.373,0.835-0.838c0-0.303-0.173-0.56-0.421-0.707
		c0.248-0.145,0.421-0.401,0.421-0.709c0-0.46-0.375-0.834-0.835-0.834h-0.21L23.3,6.769c0.096-0.119,0.159-0.265,0.159-0.425V1.456
		C23.46,1.073,23.151,0.761,22.767,0.761z M13.979,10.724c0-0.229,0.188-0.416,0.417-0.416h2.738l-0.146,0.835h-2.593
		C14.168,11.141,13.979,10.956,13.979,10.724z M13.979,12.14c0-0.229,0.188-0.417,0.417-0.417h2.493l-0.146,0.837h-2.349
		C14.168,12.56,13.979,12.375,13.979,12.14z M17.95,12.926c-0.034,0.229-0.274,0.379-0.48,0.344c-0.11-0.02-0.205-0.08-0.27-0.169
		c-0.065-0.093-0.091-0.203-0.07-0.312l0.46-2.675c0.035-0.203,0.211-0.348,0.418-0.348c0.021,0,0.044,0,0.065,0.005
		c0.229,0.039,0.38,0.255,0.34,0.482L17.95,12.926z M21.565,12.14c0,0.232-0.187,0.419-0.416,0.419h-2.708l0.146-0.837h2.563
		C21.376,11.724,21.565,11.912,21.565,12.14z M21.565,10.724c0,0.229-0.187,0.417-0.416,0.417h-2.464l0.141-0.817
		c0.002-0.006,0-0.012,0-0.017h2.321C21.376,10.309,21.565,10.496,21.565,10.724z"/>
	<path id="eruption" display="none" fill="#FFFFFF" d="M18.883,4.828c0.833,0.284,1.938,0.621,2.172-0.724
		c0.188-1.045,1.586-0.658,2.178-0.725c1.082-0.125,0.268-2.148-1.088-2.176c-1.369-0.031-1.993,0.569-2.536,1.813
		c-0.264,0.598-0.48,1.048-1.449,0.726c-0.969-0.323-1.678,0.472-1.091,1.45c0.522,0.866-0.007,1.812-0.007,1.812h1.459
		c0,0-0.012-0.537-0.361-1.088C17.746,5.276,18.029,4.535,18.883,4.828z M11.155,13.85c3.753-2.732,4.69-6.515,4.69-6.515h3.854
		c0,0,0.938,3.781,4.688,6.515H11.155z"/>
	<path id="returned" display="none" fill="#FFFFFF" d="M17.383,2.398c0.095,0.592-0.308,1.148-0.896,1.247
		c-0.592,0.097-1.146-0.304-1.244-0.894c-0.099-0.592,0.301-1.148,0.894-1.246C16.725,1.407,17.286,1.807,17.383,2.398z
		 M17.043,6.698l0.961,1.535c0.133,0.213,0.418,0.284,0.639,0.154c0.216-0.13,0.291-0.411,0.171-0.634l-0.243-0.44
		c-0.211-0.376-0.416-0.756-0.627-1.134l-0.43-0.775c-0.05-0.088-0.097-0.19-0.147-0.296C17.103,4.554,16.69,3.7,15.791,3.78
		c-0.772,0.063-1.556,0.432-2.324,1.085c-0.911,0.719-1.549,1.766-1.577,1.808c-0.029,0.048-0.056,0.094-0.08,0.139
		c-0.002,0.003-0.004,0.003-0.004,0.005l0,0c-0.085,0.16-0.127,0.309-0.021,0.495c0.084,0.148,0.239,0.24,0.409,0.24
		c0.206,0,0.312-0.098,0.411-0.245l0,0c0.002-0.001,0.002-0.001,0.002-0.001c0.028-0.045,0.057-0.091,0.087-0.141
		c0.007-0.007,0.542-0.866,1.369-1.573c0.254-0.199,0.495-0.337,0.726-0.412l-0.184,2.233c-0.019,0.222-0.087,0.601-0.148,0.818
		l-0.413,1.453c-0.057,0.184-0.21,0.488-0.332,0.636l-1.122,1.39c-0.145,0.178-0.303,0.377-0.169,0.654
		c0.076,0.161,0.242,0.267,0.423,0.267c0.217,0,0.333-0.126,0.481-0.285l1.137-1.224c0.205-0.218,0.467-0.597,0.596-0.866
		L15.62,9.11l2.085,3.499c0.103,0.174,0.232,0.387,0.516,0.387l0,0c0.161,0,0.309-0.082,0.396-0.22
		c0.147-0.229,0.051-0.438-0.035-0.628L16.895,8.49c-0.065-0.143-0.102-0.435-0.076-0.593L17.043,6.698z M24.058,7.479
		c0-1.529-1.244-2.769-2.771-2.769h-1.177v1.398h1.176c0.756,0,1.368,0.613,1.368,1.371c0,0.755-0.612,1.37-1.368,1.37h-0.243v-0.75
		l-2.51,1.45l2.51,1.449v-0.753h0.272v-0.001C22.829,10.226,24.058,8.996,24.058,7.479z"/>
	<path id="Attack" display="none" fill="#FFFFFF" d="M20.998,8.474l4.12-2.637l-3.98-0.423l1.082-4.627l-2.825,2.92L18.61,0.41
		l-1.186,3.079l-3.229-4.158l1.016,5.208l-2.867-0.638c0,0,0.871,1.668,1.357,2.673L9.098,6.251l4.166,2.437l-1.195,1.23
		l1.938-0.354l-1.373,4.853l4.078-3.412l1.057,2.636l1.089-2.108l3.518,3.631l-1.758-4.861l3.855,0.391L20.998,8.474z"/>
	<g>
		<path fill="#FFFFFF" d="M8.059,7.744c0,0.705-0.572,1.273-1.272,1.273c-0.704,0-1.276-0.571-1.276-1.273
			c0-0.702,0.568-1.273,1.275-1.273C7.487,6.47,8.059,7.039,8.059,7.744z M6.915,16.468l0.276,4.703
			c0,0.165,0.136,0.297,0.297,0.297c0.166,0,0.302-0.134,0.302-0.297l0.254-4.7h0.83l-0.857-5.275l1.731,3.445
			c0.063,0.153,0.238,0.222,0.392,0.162c0.152-0.066,0.227-0.238,0.161-0.392c0,0-1.268-3.43-1.584-4.068
			c-0.313-0.642-0.62-1.029-1.813-1.029H6.662c-1.188,0-1.502,0.387-1.813,1.029c-0.313,0.64-1.582,4.068-1.582,4.068
			c-0.063,0.157,0.006,0.328,0.159,0.396c0.151,0.064,0.328-0.009,0.392-0.162l1.729-3.446L4.689,16.47H5.52l0.261,4.701
			c0,0.165,0.134,0.298,0.296,0.298c0.167,0,0.305-0.136,0.305-0.298l0.255-4.701L6.915,16.468L6.915,16.468z M17.082,6.465
			c-0.708,0-1.282,0.571-1.282,1.273c0,0.704,0.569,1.276,1.282,1.276c0.695,0,1.271-0.573,1.271-1.276
			C18.353,7.038,17.779,6.465,17.082,6.465z M18.398,13.966l0.082-2.772l1.563,3.448c0.061,0.153,0.239,0.222,0.391,0.159
			c0.154-0.064,0.229-0.239,0.166-0.392c0,0-1.102-3.43-1.412-4.068c-0.313-0.639-0.795-1.028-1.985-1.028h-0.244
			c-1.188,0-1.673,0.387-1.985,1.028c-0.309,0.639-1.41,4.066-1.41,4.066c-0.067,0.155,0.007,0.327,0.157,0.394
			c0.149,0.064,0.333-0.008,0.39-0.161l1.563-3.449l0.079,2.773l-0.244,6.968c-0.016,0.276,0.191,0.514,0.466,0.534
			c0.014,0.001,0.029,0.001,0.039,0.001c0.257,0,0.481-0.199,0.501-0.464l0.565-5.737l0.565,5.737
			c0.019,0.267,0.238,0.464,0.496,0.464c0.017,0,0.029,0,0.037-0.001c0.279-0.021,0.483-0.258,0.467-0.534L18.398,13.966
			L18.398,13.966z M11.932,14.214c-0.436,0-0.786,0.348-0.786,0.779c0,0.432,0.352,0.779,0.786,0.779
			c0.429,0,0.779-0.349,0.779-0.779C12.711,14.562,12.361,14.214,11.932,14.214z M11.932,18.816c0,0,0.351,2.443,0.351,2.448
			c0.047,0.119,0.158,0.203,0.301,0.203c0.138,0,0.257-0.092,0.301-0.219c0-0.012,0.008-0.15,0-0.178l-0.147-3.003l0.05-1.032
			c0.041-0.351,0.045-0.245,0.445-0.484c0.41-0.246,1.104-1.318,1.132-1.371c0.039-0.054,0.104-0.147,0.116-0.211
			c0.017-0.106-0.056-0.206-0.164-0.229c-0.081-0.014-0.146,0.03-0.198,0.085c-0.058,0.06-0.854,1.123-1.449,1.222
			c-0.14-0.021-0.277-0.09-0.663-0.09h-0.147c-0.382,0-0.521,0.072-0.661,0.09c-0.598-0.102-1.395-1.162-1.45-1.224
			c-0.05-0.053-0.115-0.097-0.2-0.084c-0.105,0.024-0.179,0.125-0.156,0.231c0.012,0.06,0.075,0.154,0.107,0.211
			c0.037,0.053,0.729,1.125,1.134,1.371c0.397,0.238,0.412,0.133,0.447,0.483l0.045,1.032l-0.145,3.006
			c-0.006,0.025,0,0.168,0.009,0.179c0.039,0.124,0.154,0.216,0.297,0.216c0.138,0,0.252-0.083,0.295-0.203
			C11.578,21.264,11.932,18.816,11.932,18.816"/>
	</g>
</g>
</svg>
