<?xml version="1.0" encoding="utf-8"?>
<!-- Generator: Adobe Illustrator 16.0.0, SVG Export Plug-In . SVG Version: 6.00 Build 0)  -->
<!DOCTYPE svg PUBLIC "-//W3C//DTD SVG 1.1//EN" "http://www.w3.org/Graphics/SVG/1.1/DTD/svg11.dtd">
<svg version="1.1" id="Layer_1" xmlns="http://www.w3.org/2000/svg" xmlns:xlink="http://www.w3.org/1999/xlink" x="0px" y="0px"
	 width="33.35px" height="40px" viewBox="-5 0 33.35 40" enable-background="new -5 0 33.35 40" xml:space="preserve">
<g id="PinColor">
	<path id="PinOmbre" opacity="0.3" enable-background="new    " d="M22.062,29.51c0,1.572-3.449,2.895-8.093,3.238
		c-0.783,0.063-2.439,3.746-2.439,3.746s-1.716-3.688-2.523-3.75c-4.598-0.358-8.01-1.672-8.01-3.234
		c0-1.84,4.717-3.332,10.533-3.332C17.345,26.178,22.062,27.67,22.062,29.51z"/>
	<path id="vert" display="none" fill="#2ABF00" stroke="#1D7500" stroke-width="0.2" stroke-miterlimit="10" d="M22.062,14.052
		c0,4.813-3.449,8.847-8.093,9.915C13.186,24.145,11.53,35.43,11.53,35.43S9.814,24.143,9.005,23.943
		c-4.598-1.092-8.01-5.108-8.01-9.896C0.995,8.422,5.712,3.86,11.53,3.86C17.345,3.861,22.062,8.425,22.062,14.052z"/>
	<path id="orange" fill="#FF8500" stroke="#7F4500" stroke-width="0.2" stroke-miterlimit="10" d="M22.062,14.052
		c0,4.813-3.449,8.847-8.093,9.915C13.186,24.145,11.53,35.43,11.53,35.43S9.814,24.143,9.005,23.943
		c-4.598-1.092-8.01-5.108-8.01-9.896C0.995,8.422,5.712,3.86,11.53,3.86C17.345,3.861,22.062,8.425,22.062,14.052z"/>
	<path id="gris" display="none" fill="#A5A5A5" stroke="#595959" stroke-width="0.2" stroke-miterlimit="10" d="M22.062,14.052
		c0,4.813-3.449,8.847-8.093,9.915C13.186,24.145,11.53,35.43,11.53,35.43S9.814,24.143,9.005,23.943
		c-4.598-1.092-8.01-5.108-8.01-9.896C0.995,8.422,5.712,3.86,11.53,3.86C17.345,3.861,22.062,8.425,22.062,14.052z"/>
	<path id="bleu" display="none" fill="#0092FF" stroke="#00477C" stroke-width="0.2" stroke-miterlimit="10" d="M22.062,14.052
		c0,4.813-3.449,8.847-8.093,9.915C13.186,24.145,11.53,35.43,11.53,35.43S9.814,24.143,9.005,23.943
		c-4.598-1.092-8.01-5.108-8.01-9.896C0.995,8.422,5.712,3.86,11.53,3.86C17.345,3.861,22.062,8.425,22.062,14.052z"/>
</g>
<g id="Icons">
	<g id="Minimal">
		<path id="Election" display="none" fill="#565656" d="M23.449,2.634l-3.925-1.682c-0.116-0.049-0.253-0.015-0.328,0.084
			l-1.123,1.402c-0.051,0.063-0.07,0.151-0.055,0.233c0.02,0.078,0.068,0.144,0.14,0.181L14.64,4.171
			c-0.299,0.111-0.549,0.32-0.71,0.591l-1.165,1.941c-0.246,0.413-0.268,0.916-0.052,1.348l0.083,0.165h-1.229
			c-0.154,0-0.281,0.125-0.281,0.28v5.326h-0.841c-0.154,0-0.277,0.125-0.277,0.279s0.123,0.279,0.278,0.279h9.532
			c0.152,0,0.272-0.125,0.272-0.28c0-0.153-0.121-0.279-0.272-0.279h-0.843v-2.866c0-0.094-0.053-0.187-0.131-0.236
			c-0.082-0.052-0.184-0.059-0.271-0.018c-0.309,0.146-0.534,0.218-0.645,0.25c-0.022,0.006-0.046,0.016-0.064,0.03L16.2,12.075
			c-0.291,0.176-0.62,0.268-0.957,0.268c-0.621,0-1.2-0.31-1.556-0.833c-0.283-0.42-0.38-0.928-0.275-1.422
			c0.105-0.493,0.399-0.917,0.822-1.188L14.5,8.73c0.195-0.118,0.367-0.227,0.522-0.321c0.106-0.068,0.156-0.199,0.121-0.32
			c-0.07-0.225-0.188-0.424-0.294-0.579c0.426-0.187,1.006-0.521,1.297-0.859c0,0,0.004,0.001,0.005,0.001
			c0.063,0.038,0.133,0.077,0.216,0.117c0.004,0.001,0.006,0.003,0.014,0.006l0,0c0.208,0.102,0.474,0.203,0.777,0.263
			C16.833,7.441,16.5,7.945,16.379,8.28c-0.23,0.103-0.714,0.376-1.84,1.093c-0.298,0.19-0.502,0.484-0.572,0.831
			c-0.073,0.347-0.009,0.7,0.19,0.996c0.25,0.376,0.66,0.583,1.089,0.583c0.228,0,0.46-0.06,0.667-0.187l1.927-1.157
			c0.301-0.074,1.8-0.521,2.934-2.357c0.893-1.438,1.391-2.598,1.597-3.121l0.034,0.017c0.117,0.058,0.244,0.087,0.373,0.087
			c0.217,0,0.429-0.086,0.586-0.236c0.167-0.157,0.258-0.374,0.258-0.604V2.89C23.615,2.78,23.552,2.677,23.449,2.634z"/>
	</g>
	<g id="Faible">
		<path id="Famine" display="none" fill="#F9F9F9" d="M20.924,12.953l-2.226,0.422l-3.639-1.979l1.32-1.65l2.976,0.988
			L20.924,12.953z M24.348,9.085v0.247l-2.345,0.744l-2.314,0.33l-2.977-0.99l-0.7-0.331h0.4c-0.096-0.883-0.224-1.555-0.285-2.433
			h-0.003c-0.002-0.025-0.033-0.614-0.042-0.863c-0.045-0.264-0.171-0.369-0.584-0.654c-0.227-0.146-0.396-0.199-0.489-0.196
			c-0.15,0-0.286,0.165-0.317,0.658c0.661,0.112,0.707,0.846,0.707,0.846c0.061,0.52-0.196,1.281-0.785,1.479
			c-1.091,0.364-0.979-1.735-0.364-2.238c0.017-0.604,0.187-1.16,0.76-1.181c0.228,0.001,0.461,0.096,0.729,0.266
			c0.129,0.077,0.232,0.155,0.323,0.236c-0.009-0.2-0.022-0.404-0.022-0.613c-0.001-0.441,0.067-0.921,0.459-1.262
			c0.201-0.183,0.427-0.277,0.651-0.275c0.583,0.028,0.942,0.53,1.15,1.044c0.245-0.107,0.553-0.159,0.902-0.038
			c0.896,0.311,1.377,1.872,1.003,2.417C19.32,7.546,17.1,5.184,17.687,4.361c0,0,0.086-0.112,0.237-0.236
			c-0.172-0.455-0.521-0.86-0.777-0.832c-0.101,0.001-0.215,0.037-0.36,0.166c-0.248,0.219-0.313,0.528-0.313,0.934
			c0,0.286,0.033,0.604,0.033,0.923c0,0.167,0.013,0.313,0.017,0.474c0.041,0.284,0.042,0.501,0.041,0.802
			c0.062,0.875,0.414,1.593,0.507,2.495h7.275V9.085H24.348z M18.088,4.298l1.685,1.834c-0.3-1.301-1.365-2.024-1.365-2.024
			L18.088,4.298z M14.6,5.873l-0.303,0.124c0,0-0.148,1.024,0,1.561L14.6,5.873z M13.091,12.058l1.339-0.805l1.396-1.725
			l-0.438-0.443h-3.082l-0.611,1.222L13.091,12.058z M14.653,11.781l-2.369,1.614l0.314,0.392h5.456l-0.02-0.081L14.653,11.781z
			 M9.775,9.085v1.861l1.52-0.814l0.462-1.046L9.775,9.085L9.775,9.085L9.775,9.085z M20.127,10.804l1.471,2.133l2.751,0.646v-2.438
			l-1.979-0.637L20.127,10.804z M24.348,10.61V9.749l-1.542,0.417L24.348,10.61z M11.331,10.729L9.775,11.47v2.316h1.14l1.694-1.389
			L11.331,10.729z M19.485,13.787h3.562l-1.703-0.412L19.485,13.787z"/>
		<path id="Cyclone" display="none" fill="#FFFFFF" d="M17.118,4.08c-0.074-0.004-0.151-0.013-0.225-0.013
			c-0.669,0-1.296,0.174-1.842,0.475c0.976-3.324,3.409-3.614,3.409-3.614s-5.38,0.448-5.38,6.725c0.004,0,0.007,0,0.012,0
			c-0.005,0.076-0.012,0.149-0.012,0.226c0,0.664,0.173,1.293,0.477,1.842c-3.325-0.978-3.615-3.41-3.615-3.41
			s0.448,5.38,6.728,5.38c0-0.005,0-0.007,0-0.012c0.073,0.003,0.147,0.012,0.224,0.012c0.667,0,1.294-0.174,1.841-0.477
			c-0.976,3.326-3.411,3.616-3.411,3.616s5.381-0.45,5.381-6.727c-0.004,0-0.008,0-0.012,0c0.004-0.075,0.012-0.148,0.012-0.223
			c0-0.668-0.174-1.297-0.478-1.842c3.323,0.975,3.614,3.41,3.614,3.41s-0.445-5.38-6.724-5.38
			C17.118,4.073,17.118,4.076,17.118,4.08z"/>
		<path id="tsunami" display="none" fill="#FFFFFF" d="M23.652,12.307c-11.07,0.627-7.979-7.842-5.105-7.11
			C18.249,5.377,18.062,6,18.242,6.42c0.199,0.448,0.849,0.705,1.221,0.611c0.894-0.23,0.935-1.482,0.608-2.14
			c-0.33-0.683-1.213-1.527-2.747-1.527c-3.708,0-6.238,1.894-7.188,5.149V13.3h13.519v-0.993H23.652z"/>
		<path id="earthquake" display="none" fill="#FFFFFF" d="M20.833,8.297c-0.188,0-0.364,0.105-0.454,0.273l-0.737,1.39l-0.91-2.665
			c-0.07-0.203-0.256-0.339-0.467-0.348c-0.221-0.006-0.41,0.118-0.494,0.313l-0.622,1.482l-0.984-5.902
			c-0.048-0.248-0.279-0.434-0.519-0.422c-0.252,0.006-0.461,0.174-0.495,0.424L14.28,9.691l-0.705-3.676
			c-0.04-0.215-0.218-0.381-0.437-0.412c-0.219-0.03-0.437,0.088-0.53,0.286l-1.154,2.408H9.658v1.025h2.115
			c0.197,0,0.378-0.115,0.465-0.29l0.62-1.293l1.001,5.213c0.049,0.241,0.259,0.417,0.506,0.417c0.005,0,0.009,0,0.014,0
			c0.25-0.007,0.461-0.196,0.495-0.445l0.856-6.73l0.715,4.431c0.042,0.224,0.225,0.392,0.452,0.418
			c0.228,0.021,0.441-0.102,0.531-0.313l0.77-1.829l0.856,2.511c0.065,0.195,0.238,0.33,0.441,0.348
			c0.205,0.011,0.399-0.09,0.497-0.271l1.146-2.168h2.203V8.296L20.833,8.297L20.833,8.297z"/>
	</g>
	<g id="Modéré">
	</g>
	<g id="Important">
	</g>
	<g id="Elevé">
	</g>
	<g id="Extreme" display="none">
		<path id="rebelion" display="inline" fill="#FFFFFF" d="M18.99,4.27c0,1.236-1.003,2.237-2.235,2.237
			c-1.238,0-2.238-1.001-2.238-2.237c0-1.237,1-2.238,2.238-2.238C17.988,2.032,18.99,3.031,18.99,4.27z M13.019,13.757h1.367h0.072
			l0.049-0.105l0.5-0.487l-0.461-0.096l-0.726-0.156L13.019,13.757z M22.378,4.683l-0.48,0.48l0.033,0.032l-0.389,0.392
			c0.053,0.047,0.104,0.095,0.146,0.152l0.393-0.391l0.081,0.074l0.472-0.482L22.378,4.683z M19.289,7.166L19.082,7.37l0.023,0.058
			l0.048,0.11l-3.263,3.272l0.352,0.075c0.321,0.067,0.6,0.26,0.78,0.54c0.022,0.04,0.03,0.087,0.051,0.129l0.01-0.012l0.241,0.159
			l0.085-0.019l0.95,0.689L19,11.496l-1.416-1.105l0.028-0.092h0.234l1.391-1.631l0.156-1.461L19.289,7.166z M20.805,5.72
			c-0.424-0.046-0.833,0.271-0.885,0.708l-0.053,0.478l0,0l-0.032,0.344l-0.154,1.464L19.665,8.85l-0.088,0.105l-1.244,1.458
			l0.938,0.735l0.337,0.264l-0.196,0.268l0.05,0.098c0.13,0.28,0.415,0.456,0.724,0.456c0.043,0,0.086-0.001,0.133-0.011
			c0.352-0.06,0.621-0.346,0.658-0.7l0.531-4.921C21.56,6.16,21.241,5.764,20.805,5.72z M19.177,12.004l-0.457,0.629l-0.263,0.36
			L18.1,12.731l-0.788-0.569l-0.068,0.017l-0.03-0.02c0,0.067-0.001,0.132-0.017,0.2c-0.016,0.065-0.038,0.125-0.064,0.188
			c-0.05,0.115-0.112,0.216-0.189,0.31l0.057,0.125c0.056,0.125,0.13,0.29,0.223,0.43l0.221,0.342h1.681L19.177,12.004z
			 M15.98,13.344c-0.021,0-0.039-0.006-0.058-0.007c-0.009,0.035-0.014,0.062-0.014,0.062l0.188,0.357h0.456l0.295-0.103
			c-0.102-0.155-0.182-0.323-0.258-0.491C16.406,13.268,16.203,13.344,15.98,13.344z M16.637,11.65
			c-0.032-0.05-0.081-0.09-0.126-0.131c-0.025-0.024-0.049-0.058-0.081-0.078c-0.082-0.058-0.18-0.102-0.28-0.126l-0.351-0.07
			l-0.796-0.172l0,0L14.3,10.924l-0.274-0.059l-0.451-0.096l-0.028-0.006l0.071-0.074l0.306-0.302l0.325-0.329
			c0.026,0.226,0.04,0.404,0.04,0.407l0.105,0.022l0.986,0.21l0.203-0.204l3.05-3.063l-0.068-0.17l0.024-0.02
			c-0.441-0.133-0.963-0.209-1.619-0.209h-0.217c0,0-0.213,0-0.215,0c-0.46,0-0.928,0.03-1.383,0.132
			c-0.781,0.175-1.267,0.942-1.803,1.469c-0.549,0.543-1.085,1.107-1.622,1.664c-0.118,0.126-0.236,0.255-0.358,0.378
			c-0.206,0.207-0.281,0.511-0.199,0.793c0.081,0.28,0.313,0.493,0.601,0.557l1.058,0.225l0.447,0.095l2.536,0.541
			c0.06,0.009,0.115,0.018,0.17,0.018c0.368,0,0.7-0.257,0.78-0.633c0.03-0.148,0.008-0.287-0.036-0.419l-0.051-0.101
			C16.66,11.72,16.651,11.688,16.637,11.65z M15.517,13.604l-0.076-0.144l0.038-0.162l0.008-0.03l-0.123-0.027l-0.447,0.515h0.68
			L15.517,13.604z"/>
	</g>
	<path id="displaced" display="none" fill="#FFFFFF" d="M17.66,2.337c0.11,0.691-0.354,1.339-1.04,1.451
		c-0.688,0.114-1.342-0.353-1.453-1.039c-0.112-0.688,0.352-1.34,1.042-1.454C16.895,1.186,17.545,1.651,17.66,2.337z M17.266,7.344
		l1.115,1.785c0.16,0.251,0.487,0.332,0.742,0.184c0.259-0.154,0.347-0.479,0.207-0.739L19.046,8.06
		c-0.249-0.438-0.489-0.88-0.734-1.319L17.816,5.84c-0.058-0.107-0.113-0.225-0.171-0.348c-0.307-0.644-0.785-1.638-1.835-1.548
		c-0.897,0.077-1.812,0.504-2.708,1.267c-1.063,0.838-1.806,2.054-1.833,2.108c-0.036,0.051-0.07,0.107-0.096,0.158
		C11.17,7.479,11.17,7.48,11.169,7.481l0,0c-0.102,0.189-0.149,0.36-0.025,0.579c0.099,0.172,0.281,0.277,0.479,0.277
		c0.241,0,0.362-0.114,0.48-0.282l0,0c0.001,0,0.001-0.003,0.001-0.003c0.033-0.049,0.063-0.104,0.104-0.159
		c0.004-0.009,0.629-1.011,1.593-1.832c0.297-0.235,0.58-0.394,0.846-0.482l-0.217,2.598c-0.021,0.257-0.104,0.702-0.173,0.949
		l-0.483,1.695c-0.063,0.211-0.243,0.568-0.386,0.74l-1.307,1.618c-0.166,0.206-0.352,0.438-0.198,0.761
		c0.093,0.191,0.283,0.312,0.495,0.312c0.252,0,0.39-0.145,0.56-0.329l1.32-1.425c0.236-0.256,0.547-0.697,0.698-1.009l0.655-1.334
		l2.426,4.075c0.115,0.199,0.269,0.452,0.596,0.452l0,0c0.189,0,0.363-0.096,0.463-0.253c0.176-0.27,0.06-0.514-0.04-0.735
		l-1.962-4.259c-0.074-0.168-0.119-0.508-0.087-0.691L17.266,7.344z M19.321,11.778h2.94v0.873l2.918-1.686l-2.918-1.686v0.874
		h-2.94V11.778z"/>
	<path id="epidemie" display="none" fill="#FFFFFF" d="M22.669,8.441c0-3.165-2.48-5.74-5.604-5.901
		c1.38,0.131,2.456,1.132,2.456,2.351c0,0.418-0.14,0.804-0.362,1.145c-0.618-0.614-1.465-0.993-2.402-0.993
		c-0.937,0-1.781,0.378-2.396,0.991c-0.22-0.341-0.358-0.727-0.358-1.146c0-1.216,1.073-2.219,2.451-2.351
		c-3.124,0.162-5.604,2.739-5.604,5.904c0,0.954,0.231,1.854,0.633,2.653c-0.549-1.25-0.216-2.655,0.826-3.256
		c0.362-0.209,0.77-0.284,1.172-0.262c-0.076,0.279-0.128,0.569-0.128,0.872c0,1.573,1.075,2.885,2.523,3.276
		c-0.021,0.033-0.043,0.065-0.063,0.098c0,0.003,0,0.003,0,0.008c-0.048,0.109-0.108,0.195-0.182,0.27
		c-0.154,0.205-0.336,0.385-0.565,0.518c-1.047,0.603-2.439,0.185-3.245-0.928c1.06,1.605,2.873,2.669,4.938,2.669
		c2.046,0,3.846-1.041,4.908-2.62c-0.81,1.079-2.176,1.475-3.206,0.884c-0.365-0.214-0.633-0.532-0.814-0.9
		c1.449-0.391,2.517-1.706,2.517-3.273c0-0.303-0.05-0.593-0.125-0.872c0.409-0.027,0.814,0.049,1.18,0.259
		c1.015,0.583,1.356,1.924,0.872,3.148C22.459,10.211,22.669,9.353,22.669,8.441z M17.387,10.716
		c-0.026-0.492,0.077-1.008,0.323-1.496l-0.395-0.227c-0.143,0.146-0.339,0.236-0.56,0.236c-0.219,0-0.416-0.09-0.561-0.236
		l-0.384,0.221c0.247,0.491,0.351,1.012,0.323,1.504c-1-0.274-1.742-1.185-1.742-2.271c0-0.208,0.033-0.404,0.084-0.595
		c0.438,0.22,0.833,0.563,1.137,1.02l0.396-0.23c-0.017-0.068-0.042-0.131-0.042-0.204c0-0.366,0.254-0.661,0.594-0.75V7.24
		c-0.549-0.035-1.046-0.206-1.459-0.476c0.427-0.421,1.01-0.679,1.652-0.679c0.646,0,1.229,0.26,1.659,0.682
		C18,7.037,17.503,7.205,16.955,7.24v0.45c0.338,0.089,0.59,0.384,0.59,0.75c0,0.074-0.021,0.136-0.038,0.204l0.399,0.234
		c0.304-0.456,0.699-0.797,1.134-1.018c0.048,0.188,0.081,0.384,0.081,0.587C19.121,9.533,18.384,10.44,17.387,10.716z"/>
	<path id="enlevement" display="none" fill="#FFFFFF" d="M21.687,1.375c-0.363,0-0.665,0.3-0.665,0.667v2.715
		c0.161,0.035,0.314,0.103,0.438,0.224c0.354,0.347,0.36,0.916,0.02,1.27l-1.265,1.298L20.039,7.38l1.27-1.294
		c0.254-0.263,0.246-0.679-0.015-0.937c-0.082-0.077-0.177-0.13-0.276-0.158c-0.114-0.03-0.226-0.031-0.335-0.01
		c-0.121,0.032-0.229,0.093-0.316,0.186c-0.75,0.768-1.503,1.537-2.251,2.308c-0.188,0.193-0.532,0.634-0.521,1.074
		c0.009,0.414-0.006,0.839,0.003,1.255c-0.101-0.078-0.22-0.138-0.353-0.163c-0.391-0.062-0.738,0.168-0.872,0.514h-0.195
		c0-0.095,0-0.188,0.002-0.283c0.009-0.435-0.009-0.885,0.003-1.32c0.009-0.441-0.334-0.882-0.521-1.075
		c-0.75-0.771-1.499-1.54-2.252-2.31c-0.085-0.09-0.193-0.153-0.318-0.183c-0.109-0.025-0.223-0.022-0.333,0.008
		c-0.103,0.029-0.197,0.083-0.278,0.16c-0.258,0.255-0.264,0.672-0.013,0.936l1.269,1.293l-0.176,0.17l-1.264-1.3
		c-0.345-0.355-0.336-0.922,0.017-1.267c0.124-0.12,0.277-0.189,0.438-0.225V2.044c0-0.368-0.3-0.668-0.665-0.668
		c-0.369,0-0.667,0.3-0.667,0.668v4.701c0,0.153,0.063,0.294,0.151,0.409l2.271,2.999h-0.199c-0.439,0-0.805,0.359-0.805,0.803
		c0,0.294,0.167,0.542,0.401,0.681c-0.234,0.14-0.401,0.388-0.401,0.68c0,0.444,0.36,0.805,0.805,0.805h0.244v0.448h2.229
		c0.118,0.115,0.254,0.199,0.418,0.229c0.045,0.007,0.087,0.011,0.133,0.011c0.392,0,0.728-0.279,0.79-0.667l0.003-0.02h0.144
		c0.003,0.148,0,0.293,0.019,0.448h2.268V13.12h0.247c0.44,0,0.804-0.358,0.804-0.806c0-0.292-0.167-0.538-0.404-0.679
		c0.237-0.139,0.404-0.385,0.404-0.682c0-0.442-0.359-0.802-0.804-0.802H19.93l2.271-3c0.092-0.115,0.151-0.255,0.151-0.409V2.043
		C22.354,1.676,22.057,1.375,21.687,1.375z M13.24,10.953c0-0.221,0.181-0.4,0.4-0.4h2.632l-0.141,0.803H13.64
		C13.421,11.354,13.24,11.176,13.24,10.953z M13.24,12.314c0-0.219,0.181-0.401,0.4-0.401h2.396l-0.141,0.804H13.64
		C13.421,12.718,13.24,12.54,13.24,12.314z M17.058,13.07c-0.034,0.22-0.265,0.364-0.463,0.33c-0.106-0.019-0.197-0.077-0.26-0.162
		c-0.063-0.089-0.087-0.195-0.067-0.3l0.441-2.572c0.034-0.195,0.203-0.334,0.401-0.334c0.021,0,0.042,0,0.063,0.005
		c0.22,0.038,0.365,0.245,0.326,0.464L17.058,13.07z M20.532,12.314c0,0.223-0.182,0.403-0.4,0.403h-2.604l0.139-0.804h2.466
		C20.351,11.914,20.532,12.095,20.532,12.314z M20.532,10.953c0,0.221-0.182,0.4-0.4,0.4h-2.368l0.135-0.786
		c0.002-0.006,0-0.012,0-0.016h2.231C20.351,10.554,20.532,10.734,20.532,10.953z"/>
	<path id="eruption" display="none" fill="#FFFFFF" d="M17.953,5.285c0.802,0.273,1.864,0.597,2.089-0.696
		c0.183-1.005,1.523-0.633,2.094-0.696c1.041-0.121,0.256-2.065-1.046-2.092c-1.316-0.03-1.917,0.547-2.438,1.742
		c-0.253,0.575-0.464,1.008-1.396,0.698c-0.93-0.311-1.611,0.453-1.047,1.394c0.501,0.833-0.007,1.742-0.007,1.742h1.402
		c0,0-0.011-0.516-0.35-1.046C16.862,5.716,17.133,5.004,17.953,5.285z M10.525,13.958c3.606-2.626,4.51-6.263,4.51-6.263h3.707
		c0,0,0.899,3.634,4.507,6.263H10.525z"/>
	<path id="returned" display="none" fill="#FFFFFF" d="M16.512,2.949c0.091,0.569-0.296,1.104-0.859,1.199
		c-0.568,0.093-1.104-0.292-1.196-0.86c-0.095-0.569,0.288-1.104,0.857-1.197C15.879,1.996,16.419,2.381,16.512,2.949z
		 M16.186,7.082l0.923,1.476c0.128,0.205,0.402,0.273,0.615,0.148c0.207-0.125,0.278-0.395,0.164-0.609l-0.234-0.423
		c-0.201-0.362-0.398-0.727-0.604-1.09l-0.412-0.746c-0.049-0.084-0.094-0.183-0.143-0.285c-0.253-0.532-0.649-1.353-1.515-1.277
		c-0.742,0.063-1.494,0.417-2.233,1.045c-0.876,0.691-1.489,1.697-1.517,1.738c-0.027,0.046-0.054,0.09-0.076,0.134
		c-0.003,0.002-0.005,0.002-0.005,0.004l0,0c-0.082,0.154-0.122,0.296-0.021,0.476c0.081,0.143,0.229,0.23,0.396,0.23
		c0.197,0,0.297-0.093,0.396-0.235l0,0c0.002-0.001,0.002-0.001,0.002-0.001c0.028-0.043,0.056-0.088,0.084-0.136
		c0.006-0.006,0.521-0.832,1.314-1.511c0.245-0.191,0.478-0.324,0.698-0.396L13.844,7.77c-0.02,0.214-0.086,0.578-0.146,0.786
		l-0.396,1.397c-0.054,0.176-0.202,0.469-0.319,0.612L11.904,11.9c-0.138,0.172-0.29,0.363-0.162,0.629
		c0.073,0.155,0.232,0.257,0.406,0.257c0.208,0,0.319-0.121,0.464-0.273l1.093-1.177c0.195-0.21,0.447-0.574,0.571-0.833
		l0.541-1.102l2.004,3.364c0.099,0.167,0.226,0.372,0.495,0.372l0,0c0.154,0,0.297-0.078,0.383-0.211
		c0.143-0.221,0.048-0.421-0.034-0.604l-1.62-3.517c-0.063-0.137-0.099-0.417-0.072-0.57L16.186,7.082z M22.929,7.833
		c0-1.47-1.196-2.662-2.662-2.662h-1.131v1.344h1.13c0.726,0,1.314,0.589,1.314,1.318c0,0.726-0.592,1.316-1.314,1.316h-0.235V8.427
		l-2.411,1.396l2.411,1.393v-0.724h0.265V10.49C21.747,10.474,22.929,9.291,22.929,7.833z"/>
	<path id="Attack" display="none" fill="#FFFFFF" d="M19.988,8.79l3.962-2.536l-3.826-0.406L21.161,1.4l-2.716,2.807l-0.755-3.169
		l-1.14,2.959L13.449,0l0.975,5.007l-2.757-0.613c0,0,0.837,1.604,1.306,2.569l-4.426-0.31l4.006,2.342l-1.149,1.182l1.861-0.34
		l-1.318,4.666l3.921-3.28l1.016,2.534l1.048-2.026l3.38,3.491l-1.688-4.673l3.707,0.375L19.988,8.79z"/>
	<g>
		<path fill="#FFFFFF" d="M7.666,7.903c0,0.703-0.569,1.269-1.27,1.269c-0.702,0-1.272-0.569-1.272-1.269
			c0-0.701,0.568-1.269,1.272-1.269C7.098,6.633,7.666,7.199,7.666,7.903z M6.528,16.598l0.276,4.687
			c0,0.164,0.134,0.296,0.296,0.296c0.165,0,0.299-0.134,0.299-0.296l0.255-4.684h0.827l-0.854-5.258l1.726,3.433
			c0.064,0.152,0.238,0.222,0.392,0.161c0.151-0.065,0.226-0.237,0.16-0.39c0,0-1.263-3.419-1.578-4.055
			c-0.314-0.638-0.621-1.025-1.81-1.025h-0.24c-1.187,0-1.497,0.385-1.806,1.025c-0.312,0.639-1.577,4.055-1.577,4.055
			C2.828,14.703,2.9,14.874,3.052,14.94c0.15,0.065,0.326-0.009,0.391-0.161l1.723-3.434L4.31,16.598h0.828l0.26,4.685
			c0,0.164,0.133,0.297,0.294,0.297c0.167,0,0.303-0.137,0.303-0.297l0.255-4.685H6.528L6.528,16.598z M16.66,6.628
			c-0.706,0-1.278,0.569-1.278,1.269c0,0.702,0.569,1.272,1.278,1.272c0.693,0,1.268-0.571,1.268-1.272
			C17.927,7.198,17.356,6.628,16.66,6.628z M17.971,14.104l0.083-2.763l1.558,3.437c0.06,0.153,0.239,0.222,0.389,0.16
			c0.154-0.063,0.229-0.238,0.164-0.391c0,0-1.098-3.418-1.406-4.054c-0.31-0.637-0.792-1.024-1.979-1.024h-0.243
			c-1.186,0-1.667,0.385-1.979,1.024c-0.308,0.635-1.404,4.052-1.404,4.052c-0.067,0.154,0.007,0.326,0.156,0.392
			c0.149,0.063,0.332-0.008,0.391-0.16l1.557-3.438l0.08,2.764l-0.243,6.944c-0.015,0.275,0.192,0.512,0.466,0.532
			c0.013,0.001,0.027,0.001,0.039,0.001c0.256,0,0.48-0.199,0.499-0.463l0.563-5.717l0.565,5.717
			c0.018,0.266,0.236,0.463,0.494,0.463c0.014,0,0.027,0,0.034-0.001c0.279-0.021,0.481-0.257,0.467-0.532L17.971,14.104
			L17.971,14.104z M11.528,14.353c-0.433,0-0.783,0.346-0.783,0.775c0,0.431,0.351,0.777,0.783,0.777
			c0.428,0,0.775-0.347,0.775-0.777C12.303,14.698,11.954,14.353,11.528,14.353z M11.528,18.938c0,0,0.349,2.436,0.349,2.438
			c0.047,0.119,0.159,0.203,0.3,0.203c0.138,0,0.257-0.093,0.3-0.218c0-0.014,0.008-0.151,0-0.178L12.33,18.19l0.049-1.029
			c0.041-0.35,0.045-0.244,0.444-0.483c0.408-0.245,1.098-1.313,1.128-1.366c0.037-0.054,0.101-0.147,0.114-0.21
			c0.018-0.106-0.054-0.206-0.161-0.229c-0.08-0.013-0.146,0.03-0.197,0.085c-0.058,0.06-0.853,1.119-1.446,1.218
			c-0.137-0.021-0.276-0.09-0.66-0.09h-0.146c-0.38,0-0.521,0.071-0.658,0.09c-0.597-0.101-1.392-1.158-1.446-1.22
			c-0.05-0.054-0.116-0.097-0.2-0.084c-0.104,0.023-0.178,0.125-0.155,0.23c0.012,0.059,0.073,0.153,0.106,0.21
			c0.036,0.053,0.729,1.121,1.129,1.367c0.397,0.237,0.411,0.132,0.446,0.481l0.044,1.029l-0.143,2.997
			c-0.008,0.025,0,0.168,0.009,0.179c0.038,0.124,0.152,0.216,0.296,0.216c0.137,0,0.251-0.083,0.293-0.202
			C11.175,21.377,11.528,18.938,11.528,18.938"/>
	</g>
</g>
</svg>
