<?xml version="1.0" encoding="utf-8"?>
<!-- Generator: Adobe Illustrator 16.0.0, SVG Export Plug-In . SVG Version: 6.00 Build 0)  -->
<!DOCTYPE svg PUBLIC "-//W3C//DTD SVG 1.1//EN" "http://www.w3.org/Graphics/SVG/1.1/DTD/svg11.dtd">
<svg version="1.1" id="Groupe" xmlns="http://www.w3.org/2000/svg" xmlns:xlink="http://www.w3.org/1999/xlink" x="0px" y="0px"
	 width="15.871px" height="15.65px" viewBox="0 0 15.871 15.65" enable-background="new 0 0 15.871 15.65" xml:space="preserve">
<g id="PinColor_1_">
	<path id="vert" display="none" fill="#2ABF00" stroke="#1D7500" stroke-width="0.2" stroke-miterlimit="10" d="M15.256,7.875
		c0,3.346-2.396,6.151-5.625,6.895c-0.541,0.119-2.887,0.119-3.446-0.021c-3.198-0.758-5.569-3.547-5.569-6.876
		c0-3.904,3.28-7.08,7.32-7.08C11.975,0.792,15.256,3.968,15.256,7.875z"/>
	<path id="orange" fill="#FF8500" stroke="#7F4500" stroke-width="0.2" stroke-miterlimit="10" d="M15.256,7.875
		c0,3.346-2.396,6.151-5.625,6.895c-0.541,0.119-2.887,0.119-3.446-0.021c-3.198-0.758-5.569-3.547-5.569-6.876
		c0-3.904,3.28-7.08,7.32-7.08C11.975,0.792,15.256,3.968,15.256,7.875z"/>
	<path id="gris" display="none" fill="#A5A5A5" stroke="#595959" stroke-width="0.2" stroke-miterlimit="10" d="M15.256,7.875
		c0,3.346-2.396,6.151-5.625,6.895c-0.541,0.119-2.887,0.119-3.446-0.021c-3.198-0.758-5.569-3.547-5.569-6.876
		c0-3.904,3.28-7.08,7.32-7.08C11.975,0.792,15.256,3.968,15.256,7.875z"/>
	<path id="bleu" display="none" fill="#0092FF" stroke="#00477C" stroke-width="0.2" stroke-miterlimit="10" d="M15.256,7.875
		c0,3.346-2.396,6.151-5.625,6.895c-0.541,0.119-2.887,0.119-3.446-0.021c-3.198-0.758-5.569-3.547-5.569-6.876
		c0-3.904,3.28-7.08,7.32-7.08C11.975,0.792,15.256,3.968,15.256,7.875z"/>
</g>
<g id="IconsGroup">
	<g id="MinimalGroup" display="none">
		<path id="ElectionGroup" display="inline" fill="#565656" d="M13.533,3.081L9.959,1.552C9.857,1.51,9.725,1.537,9.66,1.627
			L8.634,2.904C8.588,2.955,8.572,3.044,8.588,3.117c0.018,0.076,0.063,0.13,0.131,0.161L5.515,4.487
			C5.248,4.58,5.014,4.77,4.866,5.021L3.807,6.787C3.582,7.161,3.559,7.62,3.76,8.011l0.08,0.149H2.72
			c-0.145,0-0.254,0.116-0.254,0.256v4.84H1.699c-0.139,0-0.25,0.117-0.25,0.254c0,0.139,0.115,0.256,0.25,0.256h8.667
			c0.141,0,0.252-0.117,0.252-0.256c0-0.137-0.111-0.254-0.252-0.254H9.6v-2.6c0-0.082-0.046-0.17-0.111-0.213
			c-0.072-0.051-0.172-0.057-0.25-0.014c-0.277,0.129-0.49,0.195-0.582,0.227c-0.022,0-0.043,0.012-0.06,0.023l-1.662,0.99
			c-0.264,0.16-0.565,0.248-0.869,0.248c-0.574,0-1.087-0.281-1.413-0.76c-0.261-0.385-0.354-0.842-0.251-1.295
			c0.092-0.447,0.362-0.832,0.742-1.08l0.245-0.156c0.179-0.104,0.338-0.199,0.474-0.289C5.964,8.28,6,8.157,5.97,8.045
			C5.912,7.841,5.809,7.658,5.705,7.519C6.092,7.353,6.621,7.048,6.888,6.74l0,0C6.941,6.774,7.01,6.811,7.081,6.847
			c0.008,0,0.008,0,0.015,0.002l0,0c0.187,0.093,0.422,0.187,0.705,0.24c-0.296,0.373-0.595,0.828-0.71,1.13
			C6.892,8.316,6.448,8.553,5.425,9.21c-0.272,0.172-0.46,0.445-0.521,0.762c-0.068,0.314-0.009,0.635,0.174,0.904
			c0.235,0.344,0.602,0.535,0.989,0.535c0.208,0,0.414-0.064,0.609-0.174l1.752-1.051c0.267-0.066,1.629-0.477,2.665-2.144
			c0.812-1.31,1.268-2.361,1.452-2.839l0.029,0.015c0.109,0.044,0.232,0.085,0.344,0.085c0.205,0,0.398-0.087,0.537-0.22
			c0.148-0.146,0.232-0.341,0.232-0.55V3.316C13.68,3.212,13.627,3.116,13.533,3.081z"/>
	</g>
	<g id="FaibleGroup" display="none">
		<path id="FamineGroup" display="inline" fill="#F9F9F9" d="M10.883,12.061L8.944,12.43l-3.16-1.727l1.151-1.428l2.582,0.857
			L10.883,12.061z M13.857,8.696v0.223l-2.041,0.641l-2.01,0.285L7.221,8.987L6.61,8.696h0.35C6.877,7.932,6.765,7.345,6.709,6.579
			l0,0C6.707,6.562,6.678,6.052,6.675,5.836C6.637,5.599,6.525,5.51,6.165,5.26c-0.2-0.12-0.349-0.166-0.425-0.166
			c-0.13,0-0.248,0.144-0.277,0.58c0.578,0.097,0.616,0.734,0.616,0.734c0.052,0.449-0.175,1.11-0.684,1.284
			C4.452,8.007,4.542,6.188,5.078,5.746c0.015-0.525,0.163-1.009,0.664-1.027c0.203,0,0.405,0.084,0.634,0.232
			C6.479,5.021,6.578,5.083,6.65,5.159c-0.008-0.178-0.015-0.355-0.015-0.54c0-0.386,0.058-0.795,0.401-1.094
			c0.173-0.163,0.367-0.251,0.567-0.248c0.502,0.029,0.811,0.464,1,0.907C8.81,4.092,9.078,4.051,9.379,4.158
			c0.779,0.265,1.205,1.627,0.88,2.094C9.486,7.358,7.557,5.31,8.063,4.589c0,0,0.079-0.094,0.21-0.206
			C8.119,3.99,7.821,3.642,7.599,3.661c-0.086,0-0.192,0.031-0.314,0.143C7.069,3.997,7.01,4.263,7.01,4.619
			c0,0.252,0.032,0.528,0.032,0.803c0,0.146,0.009,0.272,0.012,0.414c0.038,0.246,0.038,0.432,0.038,0.695
			C7.149,7.29,7.451,7.917,7.537,8.696H13.857z M8.411,4.539l1.468,1.595C9.617,5.001,8.692,4.371,8.692,4.371L8.411,4.539z
			 M5.379,5.904l-0.261,0.11c0,0-0.129,0.894,0,1.356L5.379,5.904z M4.072,11.28l1.163-0.697l1.209-1.498L6.068,8.696H3.391
			L2.857,9.768L4.072,11.28z M5.425,11.038l-2.058,1.404l0.27,0.34H8.38l-0.013-0.063L5.425,11.038z M1.188,8.696v1.621L2.502,9.61
			l0.404-0.914H1.188z M10.189,10.188l1.277,1.861l2.391,0.563v-2.127l-1.723-0.553L10.189,10.188z M13.857,10.022V9.276
			l-1.342,0.361L13.857,10.022z M2.54,10.132L1.188,10.77v2.014h0.989l1.476-1.207L2.54,10.132z M9.627,12.784h3.096l-1.475-0.355
			L9.627,12.784z"/>
		<path id="CycloneGroup" display="inline" fill="#FFFFFF" d="M7.567,4.345c-0.067,0-0.131-0.01-0.197-0.01
			c-0.581,0-1.124,0.15-1.595,0.41c0.844-2.879,2.96-3.14,2.96-3.14S4.061,2.003,4.061,7.457c0.002,0,0.002,0,0.009,0
			c0,0.062-0.004,0.124-0.004,0.193c0,0.575,0.149,1.127,0.411,1.602C1.59,8.399,1.34,6.287,1.34,6.287s0.393,4.676,5.849,4.676
			c0-0.004,0-0.004,0-0.012c0.062,0.006,0.121,0.014,0.19,0.014c0.581,0,1.126-0.152,1.601-0.414
			c-0.854,2.889-2.973,3.141-2.973,3.141s4.684-0.395,4.684-5.851c-0.007,0-0.007,0-0.007,0c0-0.066,0.007-0.131,0.007-0.192
			c0-0.583-0.146-1.128-0.412-1.604c2.885,0.846,3.143,2.967,3.143,2.967s-0.391-4.677-5.854-4.677
			C7.567,4.342,7.567,4.345,7.567,4.345z"/>
		<path id="eruptionGroup" display="inline" fill="#FFFFFF" d="M8.295,5.394c0.701,0.239,1.623,0.519,1.826-0.602
			c0.153-0.88,1.311-0.556,1.804-0.607c0.905-0.107,0.227-1.795-0.901-1.818C9.879,2.34,9.363,2.845,8.896,3.881
			C8.687,4.379,8.502,4.753,7.69,4.487C6.885,4.216,6.287,4.882,6.78,5.7c0.434,0.725-0.007,1.513-0.007,1.513h1.223
			c0,0-0.008-0.44-0.304-0.904C7.346,5.765,7.585,5.152,8.295,5.394z M1.835,12.934c3.139-2.285,3.925-5.442,3.925-5.442h3.22
			c0,0,0.78,3.157,3.917,5.442H1.835z"/>
		<path id="tsunamiGroup" display="inline" fill="#FFFFFF" d="M13.256,11.497c-9.635,0.551-6.938-6.813-4.447-6.181
			c-0.256,0.16-0.417,0.701-0.264,1.06C8.72,6.773,9.289,6.99,9.613,6.907c0.768-0.195,0.805-1.278,0.529-1.857
			C9.85,4.464,9.084,3.726,7.747,3.726c-3.215,0-5.422,1.646-6.25,4.475v4.164h11.759V11.497z"/>
		<path id="epidemieGroup" display="inline" fill="#FFFFFF" d="M12.398,8.137c0-2.754-2.154-4.992-4.868-5.13
			C8.731,3.116,9.662,3.993,9.662,5.05c0,0.363-0.123,0.7-0.315,0.996c-0.542-0.532-1.277-0.86-2.096-0.86
			c-0.811,0-1.551,0.327-2.083,0.86c-0.186-0.295-0.31-0.632-0.31-0.995c0-1.058,0.927-1.931,2.131-2.043
			c-2.712,0.142-4.866,2.38-4.866,5.13c0,0.828,0.204,1.611,0.553,2.306c-0.482-1.086-0.19-2.31,0.714-2.828
			c0.317-0.182,0.663-0.25,1.021-0.235C4.339,7.628,4.297,7.878,4.297,8.145c0,1.368,0.932,2.506,2.197,2.848
			c-0.023,0.027-0.048,0.055-0.064,0.09v0.002c-0.04,0.088-0.088,0.17-0.151,0.234c-0.138,0.178-0.293,0.338-0.495,0.449
			c-0.908,0.525-2.115,0.162-2.82-0.807c0.92,1.398,2.495,2.322,4.294,2.322c1.778,0,3.338-0.906,4.274-2.281
			c-0.72,0.939-1.9,1.289-2.799,0.77c-0.317-0.184-0.545-0.459-0.703-0.779c1.253-0.342,2.181-1.484,2.181-2.847
			c0-0.262-0.037-0.514-0.098-0.762c0.357-0.018,0.709,0.051,1.025,0.237c0.879,0.505,1.182,1.667,0.747,2.725
			C12.213,9.678,12.398,8.928,12.398,8.137z M7.802,10.114C7.779,9.686,7.873,9.243,8.085,8.813L7.745,8.616
			C7.623,8.749,7.447,8.825,7.26,8.825c-0.193,0-0.368-0.078-0.495-0.205L6.433,8.809C6.65,9.233,6.739,9.686,6.714,10.12
			C5.844,9.876,5.199,9.093,5.199,8.146c0-0.182,0.033-0.352,0.077-0.514c0.38,0.189,0.727,0.492,0.988,0.886l0.348-0.201
			C6.597,8.259,6.573,8.201,6.573,8.14c0-0.321,0.22-0.579,0.519-0.652v-0.4C6.609,7.051,6.183,6.909,5.824,6.673
			C6.187,6.31,6.696,6.086,7.25,6.086c0.555,0,1.073,0.23,1.443,0.594C8.333,6.917,7.9,7.06,7.429,7.096v0.396
			C7.718,7.565,7.94,7.821,7.94,8.141c0,0.063-0.018,0.119-0.033,0.175l0.347,0.197c0.258-0.395,0.607-0.692,0.984-0.884
			c0.038,0.166,0.076,0.333,0.076,0.51C9.312,9.093,8.67,9.872,7.802,10.114z"/>
		<path id="earthquakeGroup" display="inline" fill="#FFFFFF" d="M10.8,8.014c-0.162,0-0.318,0.093-0.394,0.244l-0.643,1.2
			L8.978,7.14C8.912,6.967,8.75,6.847,8.565,6.84C8.371,6.837,8.209,6.945,8.142,7.12L7.599,8.399L6.742,3.266
			C6.703,3.054,6.497,2.893,6.295,2.904C6.068,2.91,5.889,3.054,5.859,3.27L5.104,9.218l-0.616-3.19
			C4.455,5.842,4.301,5.697,4.106,5.674C3.922,5.651,3.734,5.747,3.643,5.916L2.639,8.014H1.087v0.893h1.841
			c0.169,0,0.328-0.094,0.403-0.252l0.54-1.123l0.872,4.531c0.044,0.207,0.231,0.359,0.435,0.359c0.009,0,0.013,0,0.016,0
			c0.222-0.006,0.404-0.168,0.431-0.387L6.37,6.184l0.624,3.846c0.034,0.201,0.189,0.348,0.387,0.375
			c0.203,0.016,0.386-0.09,0.463-0.27l0.67-1.592l0.742,2.189c0.062,0.166,0.209,0.277,0.388,0.293
			c0.181,0.014,0.347-0.076,0.429-0.232l1-1.891h1.911V8.014H10.8z"/>
	</g>
	<g id="ModereGroup" display="none">
		<path id="displacedGroup" display="inline" fill="#FFFFFF" d="M7.513,3.116c0.094,0.599-0.309,1.157-0.903,1.259
			C6.015,4.479,5.442,4.071,5.349,3.48C5.255,2.877,5.654,2.31,6.254,2.217C6.852,2.112,7.414,2.521,7.513,3.116z M7.172,7.465
			l0.969,1.549c0.139,0.219,0.424,0.289,0.649,0.158c0.222-0.131,0.293-0.41,0.17-0.645L8.72,8.091
			C8.502,7.706,8.295,7.321,8.079,6.944L7.646,6.156C7.599,6.063,7.553,5.966,7.5,5.854C7.236,5.299,6.823,4.433,5.91,4.511
			C5.125,4.58,4.333,4.955,3.557,5.615c-0.921,0.728-1.57,1.777-1.589,1.831C1.936,7.49,1.904,7.536,1.884,7.576
			c0,0,0,0-0.007,0.002l0,0C1.793,7.745,1.75,7.892,1.853,8.085c0.088,0.143,0.249,0.24,0.418,0.24c0.208,0,0.313-0.102,0.415-0.247
			l0,0l0,0c0.031-0.042,0.06-0.091,0.087-0.135c0.004-0.01,0.544-0.886,1.389-1.593c0.252-0.202,0.502-0.34,0.73-0.414L4.708,8.186
			C4.688,8.407,4.615,8.798,4.557,9.012l-0.42,1.473c-0.051,0.182-0.212,0.494-0.331,0.641l-1.133,1.402
			c-0.146,0.186-0.309,0.387-0.179,0.666c0.083,0.166,0.25,0.268,0.437,0.268c0.216,0,0.337-0.127,0.487-0.289l1.146-1.234
			c0.203-0.221,0.468-0.605,0.604-0.873l0.568-1.158l2.109,3.537c0.103,0.176,0.237,0.396,0.521,0.396l0,0
			c0.164,0,0.313-0.088,0.404-0.219c0.152-0.238,0.045-0.451-0.04-0.646L7.018,9.276C6.953,9.134,6.918,8.837,6.942,8.678
			L7.172,7.465z M8.951,11.317h2.551v0.754l2.541-1.461l-2.541-1.465v0.76H8.951V11.317z"/>
		<path id="returnedGroup" display="inline" fill="#FFFFFF" d="M7.516,3.116C7.607,3.715,7.208,4.274,6.61,4.375
			C6.015,4.476,5.442,4.071,5.353,3.472c-0.097-0.598,0.3-1.163,0.902-1.259C6.852,2.112,7.414,2.517,7.516,3.116z M7.172,7.462
			l0.969,1.552C8.281,9.233,8.565,9.3,8.791,9.173c0.222-0.135,0.293-0.41,0.17-0.645L8.72,8.087
			C8.506,7.706,8.295,7.321,8.085,6.941L7.646,6.156C7.599,6.063,7.557,5.966,7.5,5.854C7.236,5.299,6.823,4.429,5.91,4.511
			C5.131,4.576,4.336,4.947,3.557,5.608C2.632,6.342,1.984,7.392,1.964,7.442C1.936,7.49,1.904,7.532,1.884,7.577L1.876,7.579l0,0
			C1.793,7.746,1.75,7.893,1.853,8.086C1.94,8.229,2.102,8.329,2.271,8.329c0.208,0,0.313-0.102,0.413-0.247l0,0l0,0
			C2.71,8.035,2.742,7.99,2.771,7.943c0.006-0.007,0.548-0.879,1.384-1.589c0.26-0.207,0.51-0.345,0.738-0.421L4.708,8.187
			c-0.021,0.22-0.094,0.611-0.152,0.828l-0.42,1.471c-0.051,0.188-0.212,0.496-0.338,0.641l-1.126,1.402
			c-0.146,0.186-0.309,0.387-0.179,0.668c0.083,0.166,0.25,0.268,0.437,0.268c0.216,0,0.337-0.127,0.487-0.291l1.146-1.234
			c0.203-0.219,0.468-0.605,0.596-0.873l0.574-1.158l2.105,3.537c0.102,0.176,0.244,0.396,0.525,0.396l0,0
			c0.162,0,0.312-0.088,0.408-0.225c0.145-0.232,0.042-0.447-0.04-0.637L7.022,9.276c-0.063-0.143-0.1-0.439-0.08-0.598L7.172,7.462
			z M14.268,8.254c0-1.548-1.26-2.801-2.805-2.801h-1.188v1.409h1.192c0.76,0,1.387,0.622,1.387,1.393
			c0,0.757-0.614,1.386-1.387,1.386h-0.25v-0.76l-2.537,1.461l2.537,1.469v-0.758h0.278l0,0C13.024,11.03,14.268,9.786,14.268,8.254
			z"/>
	</g>
	<g id="ImportantGroup" display="none">
		<path id="enlevementGroup" display="inline" fill="#FFFFFF" d="M12.746,1.217c-0.379,0-0.68,0.304-0.68,0.678v2.767
			c0.17,0.033,0.325,0.101,0.456,0.229c0.354,0.353,0.363,0.936,0.017,1.29l-1.291,1.325L11.069,7.33l1.289-1.316
			c0.251-0.27,0.249-0.69-0.015-0.949c-0.081-0.083-0.178-0.141-0.285-0.167c-0.114-0.032-0.225-0.032-0.332-0.009
			c-0.134,0.028-0.241,0.091-0.325,0.187c-0.766,0.783-1.53,1.567-2.296,2.355c-0.193,0.192-0.54,0.633-0.533,1.087
			c0.006,0.422,0,0.855,0,1.281C8.474,9.716,8.355,9.659,8.217,9.632c-0.396-0.07-0.748,0.172-0.883,0.521H7.135
			c0-0.094,0-0.193,0-0.291c0.009-0.436-0.006-0.898,0-1.344C7.15,8.072,6.796,7.624,6.608,7.435
			C5.844,6.643,5.083,5.859,4.316,5.071C4.23,4.982,4.116,4.917,3.994,4.889C3.881,4.863,3.768,4.865,3.655,4.897
			C3.55,4.924,3.448,4.982,3.373,5.063C3.107,5.321,3.1,5.742,3.352,6.012l1.291,1.316L4.47,7.504L3.183,6.179
			c-0.349-0.354-0.339-0.938,0.015-1.29C3.329,4.765,3.481,4.699,3.643,4.66V1.894c0-0.375-0.306-0.678-0.679-0.678
			c-0.38,0-0.68,0.304-0.68,0.678V6.68c0,0.158,0.062,0.3,0.153,0.417l2.314,3.048h-0.2c-0.451,0-0.816,0.367-0.816,0.822
			c0,0.299,0.167,0.547,0.413,0.689c-0.241,0.148-0.413,0.396-0.413,0.688c0,0.455,0.365,0.82,0.816,0.82h0.248v0.455h2.271
			c0.117,0.121,0.256,0.201,0.423,0.238c0.052,0.014,0.091,0.018,0.139,0.018c0.403,0,0.743-0.285,0.812-0.682v-0.021H8.59
			c0,0.148,0,0.299,0.017,0.455h2.302v-0.455h0.25c0.443,0,0.813-0.365,0.813-0.816c0-0.295-0.167-0.553-0.414-0.695
			c0.247-0.145,0.414-0.391,0.414-0.691c0-0.451-0.371-0.818-0.813-0.818h-0.201l2.309-3.047c0.1-0.119,0.16-0.258,0.16-0.417V1.904
			C13.426,1.521,13.119,1.217,12.746,1.217z M4.138,10.969c0-0.225,0.187-0.406,0.413-0.406h2.682L7.09,11.382h-2.54
			C4.325,11.376,4.138,11.192,4.138,10.969z M4.138,12.356c0-0.229,0.187-0.414,0.413-0.414h2.44l-0.139,0.82H4.551
			C4.325,12.762,4.138,12.583,4.138,12.356z M8.036,13.126c-0.037,0.223-0.273,0.365-0.471,0.334
			c-0.112-0.016-0.203-0.076-0.265-0.166c-0.063-0.088-0.084-0.195-0.067-0.309l0.448-2.619c0.037-0.199,0.207-0.342,0.409-0.342
			c0.027,0,0.047,0,0.068,0.004c0.226,0.049,0.375,0.252,0.333,0.477L8.036,13.126z M11.572,12.356c0,0.229-0.178,0.408-0.408,0.408
			H8.51l0.139-0.822h2.516C11.388,11.946,11.572,12.132,11.572,12.356z M11.572,10.969c0,0.223-0.178,0.41-0.408,0.41H8.748
			l0.138-0.799c0-0.004,0-0.012,0-0.018h2.276C11.388,10.563,11.572,10.749,11.572,10.969z"/>
	</g>
	<g id="EleveGroup">
		<path id="attackGroup" fill="#FFFFFF" d="M10.543,8.585l3.137-2.016l-3.036-0.319l0.827-3.519L9.324,4.955L8.72,2.435L7.821,4.781
			L5.361,1.613l0.772,3.973L3.946,5.096c0,0,0.665,1.271,1.037,2.04L1.474,6.889l3.176,1.86l-0.907,0.93l1.473-0.264L4.17,13.108
			l3.104-2.6l0.812,2.01l0.828-1.602l2.674,2.762l-1.344-3.703l2.94,0.303L10.543,8.585z"/>
	</g>
	<g id="ExtremeGroup" display="none">
		<path id="rebelionGroup" display="inline" fill="#FFFFFF" d="M9.756,3.9c0,1.278-1.041,2.313-2.309,2.313
			c-1.283,0-2.32-1.034-2.32-2.313c0-1.282,1.037-2.313,2.32-2.313C8.72,1.587,9.756,2.618,9.756,3.9z M3.582,13.712h1.41h0.078
			l0.053-0.109l0.512-0.5l-0.482-0.105l-0.744-0.16L3.582,13.712z M13.259,4.328l-0.495,0.5l0.031,0.034L12.39,5.26
			c0.062,0.054,0.11,0.105,0.155,0.162l0.404-0.406l0.084,0.073l0.486-0.497L13.259,4.328z M10.066,6.894L9.85,7.11l0.023,0.06
			l0.055,0.118l-3.375,3.379l0.36,0.086c0.336,0.068,0.621,0.264,0.811,0.559c0.025,0.037,0.035,0.086,0.052,0.129l0.007-0.01
			l0.248,0.162l0.088-0.021l0.982,0.711l0.665-0.902l-1.47-1.148l0.038-0.096h0.25l1.436-1.689l0.162-1.511L10.066,6.894z
			 M11.635,5.398c-0.441-0.045-0.865,0.283-0.912,0.736l-0.064,0.493l0,0l-0.029,0.354l-0.164,1.512l-0.012,0.143l-0.086,0.105
			l-1.289,1.516l0.963,0.754l0.356,0.273l-0.208,0.279l0.055,0.096c0.129,0.289,0.424,0.467,0.739,0.467c0.044,0,0.093,0,0.14-0.01
			c0.362-0.059,0.643-0.355,0.681-0.725l0.557-5.089C12.412,5.854,12.08,5.448,11.635,5.398z M9.949,11.903l-0.472,0.648
			l-0.271,0.369l-0.373-0.273l-0.816-0.586L7.95,12.079l-0.033-0.018c0,0.068,0,0.137-0.02,0.207
			c-0.011,0.064-0.034,0.129-0.063,0.191c-0.047,0.119-0.12,0.217-0.193,0.322l0.06,0.131c0.053,0.131,0.134,0.297,0.225,0.445
			L8.16,13.71h1.74L9.949,11.903z M6.643,13.284c-0.016,0-0.04-0.006-0.063-0.006c0,0.031-0.009,0.053-0.009,0.053l0.198,0.381
			h0.467l0.305-0.109c-0.105-0.158-0.186-0.332-0.267-0.51C7.082,13.206,6.877,13.284,6.643,13.284z M7.323,11.532
			c-0.031-0.049-0.086-0.092-0.132-0.131c-0.025-0.029-0.045-0.064-0.085-0.084c-0.079-0.059-0.187-0.107-0.292-0.133l-0.355-0.072
			l-0.827-0.176l0,0l-0.732-0.158l-0.284-0.053l-0.46-0.105l-0.034-0.002l0.081-0.082l0.317-0.314l0.336-0.334
			c0.025,0.234,0.04,0.412,0.04,0.416l0.11,0.025l1.02,0.221l0.21-0.213l3.161-3.168L9.315,6.99l0.022-0.021
			C8.886,6.836,8.346,6.747,7.667,6.747h-0.22H7.223c-0.477,0-0.957,0.039-1.426,0.14c-0.815,0.185-1.315,0.98-1.863,1.52
			c-0.574,0.563-1.127,1.148-1.681,1.729c-0.124,0.131-0.245,0.262-0.376,0.385c-0.21,0.221-0.289,0.533-0.21,0.824
			c0.088,0.289,0.325,0.504,0.626,0.574l1.09,0.234l0.465,0.098l2.627,0.559c0.058,0.01,0.113,0.018,0.169,0.018
			c0.384,0,0.73-0.258,0.811-0.656c0.031-0.154,0.009-0.291-0.04-0.426l-0.047-0.111C7.352,11.6,7.334,11.575,7.323,11.532z
			 M6.165,13.559l-0.078-0.152l0.043-0.166l0.003-0.029L6,13.173l-0.459,0.539h0.704L6.165,13.559z"/>
	</g>
</g>
</svg>
