<?xml version="1.0" encoding="utf-8"?>
<!-- Generator: Adobe Illustrator 16.0.0, SVG Export Plug-In . SVG Version: 6.00 Build 0)  -->
<!DOCTYPE svg PUBLIC "-//W3C//DTD SVG 1.1//EN" "http://www.w3.org/Graphics/SVG/1.1/DTD/svg11.dtd">
<svg version="1.1" id="Groupe" xmlns="http://www.w3.org/2000/svg" xmlns:xlink="http://www.w3.org/1999/xlink" x="0px" y="0px"
	 width="15.871px" height="15.65px" viewBox="0 0 15.871 15.65" enable-background="new 0 0 15.871 15.65" xml:space="preserve">
<g id="PinColor_1_">
	<path id="vert" display="none" fill="#2ABF00" stroke="#1D7500" stroke-width="0.2" stroke-miterlimit="10" d="M15.255,7.876
		c0,3.346-2.396,6.151-5.625,6.896c-0.541,0.118-2.887,0.118-3.446-0.021c-3.198-0.759-5.569-3.548-5.569-6.877
		c0-3.904,3.28-7.08,7.32-7.08C11.975,0.793,15.255,3.969,15.255,7.876z"/>
	<path id="orange" display="none" fill="#FF8500" stroke="#7F4500" stroke-width="0.2" stroke-miterlimit="10" d="M15.255,7.876
		c0,3.346-2.396,6.151-5.625,6.896c-0.541,0.118-2.887,0.118-3.446-0.021c-3.198-0.759-5.569-3.548-5.569-6.877
		c0-3.904,3.28-7.08,7.32-7.08C11.975,0.793,15.255,3.969,15.255,7.876z"/>
	<path id="gris" display="none" fill="#A5A5A5" stroke="#595959" stroke-width="0.2" stroke-miterlimit="10" d="M15.255,7.876
		c0,3.346-2.396,6.151-5.625,6.896c-0.541,0.118-2.887,0.118-3.446-0.021c-3.198-0.759-5.569-3.548-5.569-6.877
		c0-3.904,3.28-7.08,7.32-7.08C11.975,0.793,15.255,3.969,15.255,7.876z"/>
	<path id="bleu" fill="#0092FF" stroke="#00477C" stroke-width="0.2" stroke-miterlimit="10" d="M15.255,7.876
		c0,3.346-2.396,6.151-5.625,6.896c-0.541,0.118-2.887,0.118-3.446-0.021c-3.198-0.759-5.569-3.548-5.569-6.877
		c0-3.904,3.28-7.08,7.32-7.08C11.975,0.793,15.255,3.969,15.255,7.876z"/>
</g>
<g id="IconsGroup">
	<g id="MinimalGroup" display="none">
		<path id="ElectionGroup" display="inline" fill="#565656" d="M13.496,3.033L9.883,1.488C9.782,1.446,9.646,1.472,9.582,1.563
			l-1.038,1.29C8.499,2.905,8.482,2.995,8.499,3.069C8.516,3.145,8.563,3.201,8.63,3.233L5.393,4.455
			C5.122,4.549,4.886,4.74,4.737,4.993l-1.07,1.784C3.44,7.154,3.417,7.62,3.62,8.014L3.7,8.166H2.568
			c-0.146,0-0.257,0.117-0.257,0.259v4.892H1.537c-0.14,0-0.252,0.119-0.252,0.259c0,0.139,0.116,0.256,0.252,0.256h8.759
			c0.142,0,0.252-0.117,0.252-0.256c0-0.14-0.11-0.259-0.252-0.259H9.52v-2.628c0-0.083-0.045-0.171-0.111-0.214
			c-0.074-0.05-0.174-0.058-0.253-0.014c-0.28,0.13-0.495,0.197-0.589,0.229c-0.022,0-0.043,0.013-0.061,0.024l-1.677,1
			c-0.269,0.162-0.572,0.251-0.879,0.251c-0.58,0-1.099-0.286-1.429-0.769c-0.263-0.389-0.357-0.851-0.253-1.309
			c0.093-0.453,0.367-0.842,0.749-1.093l0.248-0.156c0.181-0.104,0.341-0.202,0.479-0.293c0.103-0.058,0.14-0.183,0.108-0.296
			C5.794,7.844,5.69,7.659,5.585,7.517C5.976,7.35,6.511,7.042,6.78,6.729l0,0c0.054,0.035,0.123,0.073,0.195,0.109
			c0.008,0,0.008,0,0.016,0.003l0,0C7.18,6.935,7.417,7.029,7.703,7.084c-0.3,0.377-0.602,0.837-0.718,1.142
			c-0.201,0.097-0.65,0.339-1.684,1.001C5.027,9.398,4.837,9.676,4.775,9.997c-0.068,0.315-0.008,0.641,0.176,0.914
			c0.238,0.347,0.608,0.54,1,0.54c0.209,0,0.418-0.064,0.615-0.174l1.771-1.063c0.269-0.069,1.646-0.484,2.693-2.168
			c0.819-1.323,1.28-2.386,1.467-2.869l0.03,0.016c0.109,0.045,0.234,0.085,0.347,0.085c0.206,0,0.403-0.088,0.544-0.223
			c0.148-0.145,0.232-0.343,0.232-0.555V3.27C13.645,3.166,13.589,3.069,13.496,3.033z"/>
	</g>
	<g id="FaibleGroup" display="none">
		<path id="FamineGroup" display="inline" fill="#F9F9F9" d="M10.816,12.107L8.859,12.48l-3.194-1.745l1.164-1.44l2.608,0.866
			L10.816,12.107z M13.826,8.709v0.224L11.762,9.58L9.73,9.868L7.116,9.002L6.499,8.709h0.354C6.77,7.935,6.655,7.343,6.601,6.568
			l0,0C6.598,6.551,6.568,6.036,6.565,5.817C6.527,5.579,6.414,5.487,6.05,5.235C5.847,5.113,5.697,5.067,5.621,5.067
			c-0.131,0-0.25,0.146-0.281,0.586c0.584,0.099,0.622,0.742,0.622,0.742c0.053,0.455-0.176,1.122-0.69,1.298
			C4.318,8.01,4.41,6.174,4.951,5.726c0.015-0.531,0.164-1.019,0.671-1.039c0.206,0,0.409,0.085,0.642,0.235
			c0.105,0.07,0.203,0.133,0.277,0.21C6.532,4.954,6.525,4.775,6.525,4.588c0-0.389,0.059-0.803,0.405-1.104
			c0.176-0.165,0.372-0.255,0.574-0.25c0.507,0.029,0.82,0.468,1.01,0.917c0.209-0.096,0.479-0.136,0.783-0.027
			c0.789,0.267,1.219,1.644,0.891,2.115c-0.781,1.118-2.73-0.951-2.219-1.681c0,0,0.079-0.095,0.212-0.209
			C8.024,3.953,7.723,3.599,7.499,3.619c-0.087,0-0.194,0.031-0.317,0.145C6.964,3.96,6.903,4.227,6.903,4.588
			c0,0.255,0.033,0.534,0.033,0.811c0,0.148,0.009,0.276,0.013,0.418c0.038,0.25,0.038,0.438,0.038,0.703
			c0.059,0.768,0.363,1.4,0.45,2.188L13.826,8.709L13.826,8.709z M8.319,4.507l1.484,1.612C9.538,4.973,8.604,4.337,8.604,4.337
			L8.319,4.507z M5.257,5.885l-0.264,0.11c0,0-0.13,0.902,0,1.372L5.257,5.885z M3.934,11.319l1.175-0.704L6.331,9.1L5.953,8.709
			H3.247L2.708,9.792L3.934,11.319z M5.301,11.074l-2.079,1.42l0.272,0.342h4.794l-0.013-0.063L5.301,11.074z M1.021,8.709v1.638
			l1.328-0.715l0.409-0.923H1.021z M10.117,10.215l1.291,1.881l2.418,0.57v-2.15l-1.743-0.56L10.117,10.215z M13.826,10.049V9.295
			l-1.359,0.364L13.826,10.049z M2.387,10.158l-1.366,0.646v2.033h1l1.492-1.218L2.387,10.158z M9.548,12.837h3.13l-1.49-0.358
			L9.548,12.837z"/>
		<path id="CycloneGroup" display="inline" fill="#FFFFFF" d="M7.467,4.31c-0.068,0-0.133-0.01-0.2-0.01
			c-0.586,0-1.135,0.152-1.611,0.414c0.853-2.91,2.99-3.172,2.99-3.172S3.922,1.944,3.922,7.456c0.003,0,0.003,0,0.01,0
			c0,0.062-0.005,0.125-0.005,0.195c0,0.581,0.15,1.14,0.415,1.619C1.425,8.407,1.173,6.272,1.173,6.272S1.57,11,7.083,11
			c0-0.004,0-0.004,0-0.013C7.148,10.993,7.208,11,7.277,11c0.587,0,1.137-0.152,1.618-0.417c-0.862,2.919-3.002,3.173-3.002,3.173
			s4.733-0.399,4.733-5.912c-0.007,0-0.007,0-0.007,0c0-0.067,0.007-0.133,0.007-0.195c0-0.589-0.148-1.141-0.417-1.622
			c2.916,0.856,3.175,3,3.175,3s-0.394-4.726-5.916-4.726C7.467,4.307,7.467,4.31,7.467,4.31z"/>
		<path id="eruptionGroup" display="inline" fill="#FFFFFF" d="M8.203,5.372c0.707,0.239,1.641,0.522,1.844-0.609
			c0.156-0.89,1.325-0.561,1.823-0.612c0.915-0.109,0.229-1.815-0.911-1.84C9.803,2.285,9.282,2.795,8.811,3.842
			C8.598,4.345,8.412,4.722,7.592,4.455C6.777,4.18,6.173,4.853,6.67,5.679c0.438,0.733-0.007,1.53-0.007,1.53h1.236
			c0,0-0.008-0.445-0.307-0.914C7.243,5.746,7.485,5.127,8.203,5.372z M1.675,12.991c3.171-2.312,3.966-5.5,3.966-5.5h3.253
			c0,0,0.789,3.189,3.959,5.5H1.675z"/>
		<path id="tsunamiGroup" display="inline" fill="#FFFFFF" d="M13.215,11.537c-9.736,0.557-7.01-6.884-4.494-6.244
			C8.463,5.454,8.3,6.001,8.455,6.362C8.63,6.764,9.206,6.982,9.535,6.9c0.775-0.196,0.813-1.291,0.533-1.876
			C9.773,4.43,9,3.684,7.647,3.684c-3.249,0-5.479,1.663-6.315,4.521v4.207h11.883V11.537z"/>
		<path id="epidemieGroup" display="inline" fill="#FFFFFF" d="M12.35,8.142c0-2.783-2.178-5.043-4.918-5.184
			c1.213,0.109,2.155,0.996,2.155,2.064c0,0.367-0.124,0.707-0.32,1.006C8.719,5.493,7.975,5.161,7.148,5.161
			c-0.819,0-1.567,0.33-2.104,0.868C4.854,5.73,4.729,5.39,4.729,5.023c0-1.068,0.936-1.952,2.154-2.064
			C4.142,3.102,1.966,5.363,1.966,8.142c0,0.835,0.207,1.627,0.559,2.33C2.038,9.376,2.333,8.139,3.248,7.616
			c0.32-0.184,0.67-0.254,1.032-0.237C4.209,7.628,4.165,7.88,4.165,8.15c0,1.382,0.942,2.533,2.22,2.877
			c-0.024,0.027-0.05,0.056-0.065,0.091v0.003c-0.042,0.089-0.09,0.171-0.155,0.236c-0.139,0.18-0.295,0.343-0.5,0.454
			c-0.917,0.532-2.136,0.164-2.848-0.813c0.93,1.414,2.521,2.344,4.339,2.344c1.797,0,3.374-0.915,4.318-2.302
			c-0.728,0.947-1.92,1.301-2.828,0.775c-0.32-0.186-0.549-0.463-0.71-0.788c1.267-0.344,2.205-1.5,2.205-2.876
			c0-0.264-0.039-0.519-0.099-0.77c0.361-0.019,0.716,0.052,1.036,0.239c0.889,0.511,1.193,1.685,0.755,2.753
			C12.162,9.7,12.35,8.943,12.35,8.142z M7.704,10.14C7.681,9.707,7.776,9.26,7.991,8.826L7.646,8.628
			C7.523,8.76,7.344,8.837,7.156,8.837c-0.195,0-0.372-0.078-0.501-0.207L6.32,8.822c0.22,0.429,0.309,0.885,0.285,1.322
			C5.726,9.898,5.074,9.106,5.074,8.151c0-0.183,0.033-0.354,0.078-0.519C5.535,7.825,5.886,8.13,6.15,8.528L6.5,8.325
			c-0.014-0.06-0.038-0.118-0.038-0.18c0-0.324,0.222-0.584,0.524-0.659V7.081c-0.487-0.035-0.919-0.18-1.281-0.418
			c0.367-0.366,0.882-0.594,1.441-0.594c0.56,0,1.083,0.233,1.458,0.602C8.24,6.909,7.804,7.053,7.327,7.09v0.397
			c0.292,0.077,0.518,0.335,0.518,0.66c0,0.062-0.018,0.12-0.033,0.177l0.351,0.198c0.26-0.399,0.612-0.7,0.995-0.895
			c0.038,0.168,0.074,0.336,0.074,0.515C9.23,9.106,8.581,9.895,7.704,10.14z"/>
		<path id="earthquakeGroup" display="inline" fill="#FFFFFF" d="M10.732,8.018c-0.164,0-0.32,0.093-0.396,0.246L9.688,9.477
			L8.893,7.135c-0.066-0.175-0.23-0.297-0.416-0.304c-0.198-0.003-0.36,0.105-0.431,0.283L7.499,8.407L6.632,3.219
			c-0.038-0.214-0.248-0.377-0.45-0.366C5.953,2.86,5.771,3.006,5.741,3.224l-0.764,6.01L4.355,6.01
			C4.323,5.825,4.167,5.677,3.97,5.653C3.784,5.63,3.595,5.727,3.502,5.898l-1.014,2.12H0.92V8.92h1.861
			c0.171,0,0.331-0.093,0.407-0.253l0.546-1.135l0.881,4.579c0.043,0.209,0.231,0.361,0.438,0.361c0.009,0,0.014,0,0.016,0
			c0.225-0.006,0.409-0.168,0.436-0.39l0.751-5.914l0.63,3.887c0.035,0.203,0.191,0.352,0.393,0.38
			c0.205,0.016,0.39-0.09,0.468-0.272l0.676-1.608l0.751,2.214c0.061,0.167,0.211,0.28,0.391,0.296
			c0.185,0.012,0.353-0.08,0.435-0.237l1.011-1.91h1.93V8.018H10.732z"/>
	</g>
	<g id="ModereGroup" display="none">
		<path id="displacedGroup" display="inline" fill="#FFFFFF" d="M7.412,3.069C7.508,3.674,7.099,4.24,6.499,4.342
			C5.898,4.446,5.32,4.034,5.226,3.435C5.131,2.827,5.533,2.254,6.141,2.16C6.744,2.053,7.311,2.468,7.412,3.069z M7.068,7.464
			l0.979,1.564c0.141,0.222,0.43,0.294,0.656,0.16C8.928,9.056,9,8.775,8.875,8.539L8.63,8.094C8.412,7.707,8.203,7.318,7.983,6.936
			L7.548,6.14C7.499,6.048,7.452,5.949,7.4,5.836C7.132,5.274,6.714,4.4,5.791,4.478C5,4.549,4.198,4.927,3.414,5.594
			C2.482,6.329,1.828,7.389,1.809,7.444C1.777,7.487,1.744,7.536,1.724,7.577c0,0,0,0-0.008,0.002l0,0
			C1.633,7.747,1.588,7.895,1.692,8.091c0.089,0.145,0.252,0.242,0.423,0.242c0.21,0,0.316-0.103,0.419-0.249l0,0l0,0
			c0.032-0.043,0.061-0.091,0.088-0.137c0.004-0.01,0.55-0.896,1.404-1.608c0.255-0.205,0.507-0.344,0.738-0.418L4.579,8.192
			C4.558,8.416,4.484,8.809,4.425,9.027l-0.424,1.487c-0.052,0.183-0.214,0.5-0.335,0.646L2.52,12.578
			c-0.147,0.188-0.312,0.391-0.18,0.674c0.083,0.168,0.253,0.271,0.441,0.271c0.218,0,0.34-0.129,0.492-0.292l1.159-1.249
			c0.205-0.223,0.473-0.612,0.611-0.882l0.574-1.171l2.131,3.575c0.104,0.178,0.239,0.397,0.526,0.397l0,0
			c0.166,0,0.318-0.088,0.41-0.221c0.152-0.238,0.045-0.453-0.041-0.65L6.913,9.295C6.845,9.15,6.811,8.849,6.835,8.689L7.068,7.464
			z M8.866,11.355h2.577v0.763l2.568-1.478l-2.568-1.479v0.767H8.866V11.355z"/>
		<path id="returnedGroup" display="inline" fill="#FFFFFF" d="M7.414,3.069C7.507,3.674,7.103,4.24,6.498,4.342
			c-0.6,0.102-1.178-0.308-1.269-0.913C5.131,2.825,5.533,2.254,6.141,2.158C6.744,2.053,7.311,2.464,7.414,3.069z M7.068,7.461
			L8.047,9.03c0.141,0.222,0.43,0.288,0.656,0.159C8.928,9.052,9,8.775,8.875,8.54L8.63,8.093C8.414,7.707,8.203,7.318,7.99,6.934
			L7.548,6.14C7.499,6.048,7.456,5.949,7.4,5.836c-0.268-0.562-0.687-1.44-1.609-1.357c-0.785,0.066-1.589,0.44-2.377,1.108
			C2.48,6.329,1.825,7.389,1.805,7.44C1.777,7.487,1.744,7.532,1.724,7.577L1.716,7.579l0,0C1.633,7.747,1.588,7.895,1.692,8.091
			c0.089,0.144,0.252,0.245,0.423,0.245c0.21,0,0.316-0.104,0.417-0.25l0,0l0,0c0.027-0.047,0.059-0.094,0.089-0.141
			C2.628,7.939,3.175,7.057,4.019,6.34c0.263-0.207,0.516-0.347,0.746-0.424L4.579,8.193C4.558,8.417,4.484,8.81,4.425,9.028
			l-0.424,1.487c-0.051,0.188-0.214,0.5-0.341,0.647L2.521,12.58c-0.147,0.188-0.312,0.391-0.18,0.674
			c0.083,0.168,0.253,0.271,0.441,0.271c0.218,0,0.34-0.129,0.492-0.292l1.159-1.249c0.205-0.223,0.473-0.612,0.603-0.882
			l0.58-1.171l2.128,3.575c0.102,0.178,0.246,0.397,0.528,0.397l0,0c0.164,0,0.316-0.088,0.414-0.227
			c0.145-0.23,0.041-0.449-0.041-0.639L6.916,9.295C6.853,9.15,6.815,8.849,6.835,8.689L7.068,7.461z M14.238,8.26
			c0-1.564-1.274-2.83-2.834-2.83h-1.199v1.424h1.205c0.768,0,1.4,0.628,1.4,1.406c0,0.766-0.621,1.401-1.4,1.401h-0.254V8.892
			l-2.563,1.479l2.563,1.482V11.09h0.279l0,0C12.98,11.065,14.238,9.809,14.238,8.26z"/>
	</g>
	<g id="ImportantGroup" display="none">
		<path id="enlevementGroup" display="inline" fill="#FFFFFF" d="M12.7,1.149c-0.384,0-0.687,0.309-0.687,0.687V4.63
			c0.172,0.034,0.328,0.102,0.461,0.229c0.359,0.355,0.369,0.945,0.017,1.306l-1.304,1.339l-0.181-0.177l1.302-1.331
			c0.254-0.272,0.252-0.697-0.015-0.958c-0.082-0.084-0.178-0.143-0.289-0.169c-0.114-0.032-0.226-0.032-0.335-0.009
			c-0.135,0.027-0.244,0.093-0.328,0.188c-0.773,0.792-1.547,1.585-2.32,2.382c-0.195,0.194-0.545,0.639-0.539,1.1
			c0.007,0.426,0,0.865,0,1.293C8.383,9.736,8.264,9.68,8.123,9.653c-0.4-0.07-0.756,0.173-0.892,0.528H7.03
			c0-0.095,0-0.196,0-0.294c0.009-0.44-0.007-0.91,0-1.358c0.016-0.451-0.342-0.904-0.533-1.096c-0.772-0.801-1.54-1.594-2.315-2.39
			c-0.087-0.09-0.204-0.156-0.327-0.185C3.742,4.834,3.627,4.836,3.514,4.868C3.408,4.894,3.305,4.953,3.228,5.036
			C2.96,5.297,2.952,5.721,3.208,5.994l1.304,1.331L4.337,7.503L3.036,6.164C2.683,5.804,2.693,5.215,3.051,4.858
			c0.133-0.124,0.287-0.19,0.45-0.229V1.835c0-0.379-0.309-0.687-0.687-0.687c-0.384,0-0.688,0.309-0.688,0.687v4.836
			c0,0.159,0.063,0.303,0.155,0.421l2.339,3.08H4.417c-0.456,0-0.824,0.371-0.824,0.831c0,0.304,0.169,0.554,0.417,0.697
			c-0.243,0.148-0.417,0.4-0.417,0.694c0,0.459,0.368,0.829,0.824,0.829h0.25v0.46h2.295c0.118,0.121,0.258,0.205,0.428,0.238
			c0.053,0.016,0.091,0.02,0.14,0.02c0.408,0,0.75-0.287,0.82-0.688V13.23h0.147c0,0.151,0,0.304,0.017,0.461h2.326V13.23h0.254
			c0.447,0,0.82-0.368,0.82-0.823c0-0.299-0.168-0.559-0.418-0.704c0.25-0.145,0.418-0.395,0.418-0.697
			c0-0.456-0.375-0.829-0.82-0.829h-0.201l2.334-3.08c0.097-0.12,0.158-0.26,0.158-0.421V1.843
			C13.385,1.458,13.079,1.149,12.7,1.149z M4.001,11.005c0-0.228,0.189-0.411,0.417-0.411h2.711l-0.144,0.828H4.419
			C4.191,11.415,4.001,11.23,4.001,11.005z M4.001,12.405c0-0.231,0.189-0.418,0.417-0.418h2.466l-0.141,0.83H4.417
			C4.191,12.817,4.001,12.635,4.001,12.405z M7.94,13.182c-0.037,0.228-0.276,0.371-0.475,0.339
			c-0.114-0.016-0.206-0.076-0.268-0.168c-0.065-0.088-0.085-0.198-0.068-0.312l0.453-2.646c0.037-0.202,0.209-0.344,0.413-0.344
			c0.027,0,0.048,0,0.068,0.004c0.228,0.047,0.378,0.253,0.335,0.48L7.94,13.182z M11.514,12.405c0,0.229-0.179,0.412-0.412,0.412
			H8.419l0.14-0.83h2.543C11.327,11.992,11.514,12.178,11.514,12.405z M11.514,11.005c0,0.226-0.179,0.414-0.412,0.414h-2.44
			l0.138-0.807c0-0.004,0-0.011,0-0.017H11.1C11.327,10.594,11.514,10.782,11.514,11.005z"/>
	</g>
	<g id="EleveGroup">
		<path id="attackGroup" fill="#FFFFFF" d="M10.475,8.594l3.17-2.038l-3.068-0.322l0.836-3.555L9.243,4.927L8.63,2.381L7.723,4.752
			L5.238,1.55l0.78,4.014L3.806,5.069c0,0,0.673,1.285,1.048,2.062L1.308,6.883L4.517,8.76L3.601,9.7l1.488-0.267l-1.055,3.731
			l3.137-2.626l0.819,2.03l0.836-1.616l2.703,2.792l-1.357-3.743l2.973,0.305L10.475,8.594z"/>
	</g>
	<g id="ExtremeGroup" display="none">
		<path id="rebelionGroup" display="inline" fill="#FFFFFF" d="M9.678,3.861c0,1.292-1.051,2.338-2.333,2.338
			C6.048,6.199,5,5.153,5,3.861c0-1.297,1.048-2.338,2.344-2.338C8.63,1.523,9.678,2.565,9.678,3.861z M3.44,13.773h1.424h0.079
			l0.054-0.106l0.517-0.507l-0.487-0.105l-0.751-0.163L3.44,13.773z M13.219,4.294l-0.5,0.505l0.031,0.035l-0.41,0.401
			c0.061,0.056,0.111,0.106,0.157,0.164l0.409-0.408l0.083,0.073l0.493-0.502L13.219,4.294z M9.993,6.885l-0.22,0.219l0.023,0.059
			l0.055,0.12l-3.411,3.414l0.363,0.088c0.339,0.069,0.628,0.267,0.82,0.563c0.027,0.038,0.036,0.088,0.054,0.131l0.007-0.011
			l0.251,0.164l0.089-0.021l0.991,0.72l0.672-0.912l-1.484-1.16l0.038-0.096h0.254l1.448-1.706l0.164-1.528L9.993,6.885z
			 M11.577,5.375c-0.446-0.045-0.874,0.286-0.922,0.743l-0.063,0.498l0,0l-0.031,0.357l-0.164,1.529l-0.015,0.144l-0.086,0.105
			l-1.303,1.533l0.976,0.762l0.359,0.274l-0.211,0.283l0.055,0.098c0.131,0.292,0.43,0.471,0.747,0.471c0.046,0,0.093,0,0.142-0.01
			c0.365-0.06,0.647-0.358,0.688-0.731l0.563-5.143C12.363,5.836,12.029,5.426,11.577,5.375z M9.873,11.949l-0.477,0.654
			l-0.271,0.373l-0.378-0.274l-0.826-0.595l-0.068,0.018L7.82,12.107c0,0.071,0,0.14-0.02,0.208
			c-0.012,0.067-0.034,0.132-0.065,0.194c-0.047,0.122-0.12,0.221-0.194,0.326l0.061,0.133c0.053,0.133,0.135,0.301,0.227,0.451
			l0.237,0.354h1.758L9.873,11.949z M6.532,13.342c-0.016,0-0.041-0.004-0.063-0.004c0,0.031-0.009,0.053-0.009,0.053l0.201,0.383
			h0.471l0.308-0.107c-0.105-0.16-0.188-0.336-0.269-0.516C6.976,13.265,6.77,13.342,6.532,13.342z M7.22,11.571
			c-0.032-0.048-0.088-0.09-0.134-0.131C7.061,11.412,7.041,11.377,7,11.355c-0.08-0.059-0.189-0.108-0.295-0.133l-0.358-0.074
			l-0.836-0.176l0,0l-0.74-0.16l-0.287-0.054l-0.465-0.106l-0.034-0.003l0.082-0.084l0.321-0.315l0.339-0.338
			c0.025,0.237,0.041,0.417,0.041,0.421l0.111,0.024l1.031,0.222l0.212-0.217l3.192-3.201L9.232,6.982l0.023-0.02
			C8.799,6.828,8.254,6.737,7.568,6.737H7.344H7.119c-0.482,0-0.967,0.04-1.44,0.143c-0.824,0.188-1.33,0.991-1.883,1.537
			c-0.58,0.568-1.139,1.162-1.7,1.746c-0.125,0.133-0.248,0.266-0.38,0.389c-0.211,0.222-0.292,0.539-0.211,0.832
			c0.088,0.292,0.328,0.51,0.632,0.581l1.102,0.238l0.469,0.098l2.655,0.566c0.059,0.01,0.115,0.017,0.17,0.017
			c0.388,0,0.738-0.26,0.819-0.665c0.031-0.155,0.009-0.292-0.04-0.429l-0.046-0.115C7.248,11.642,7.232,11.618,7.22,11.571z
			 M6.05,13.621l-0.08-0.154L6.014,13.3l0.003-0.03L5.884,13.23L5.42,13.773h0.712L6.05,13.621z"/>
	</g>
</g>
</svg>
