<?xml version="1.0" encoding="utf-8"?>
<!-- Generator: Adobe Illustrator 16.0.0, SVG Export Plug-In . SVG Version: 6.00 Build 0)  -->
<!DOCTYPE svg PUBLIC "-//W3C//DTD SVG 1.1//EN" "http://www.w3.org/Graphics/SVG/1.1/DTD/svg11.dtd">
<svg version="1.1" id="Layer_1" xmlns="http://www.w3.org/2000/svg" xmlns:xlink="http://www.w3.org/1999/xlink" x="0px" y="0px"
	 width="33.35px" height="40px" viewBox="0 0 33.35 40" enable-background="new 0 0 33.35 40" xml:space="preserve">
<g id="PinColor">
	<path id="PinOmbre" opacity="0.3" enable-background="new    " d="M28.728,31.205c0,1.798-3.945,3.308-9.262,3.706
		c-0.895,0.068-2.792,4.285-2.792,4.285s-1.962-4.221-2.888-4.291c-5.26-0.41-9.165-1.913-9.165-3.7
		c0-2.104,5.397-3.812,12.053-3.812C23.331,27.394,28.728,29.098,28.728,31.205z"/>
	<path id="PinFaible" fill="#2ABF00" stroke="#1D7500" stroke-width="0.2" stroke-miterlimit="10" d="M28.728,13.516
		c0,5.507-3.945,10.125-9.262,11.345c-0.895,0.202-2.792,13.115-2.792,13.115s-1.961-12.913-2.887-13.141
		c-5.26-1.248-9.165-5.847-9.165-11.323c0-6.438,5.397-11.657,12.053-11.657C23.331,1.855,28.728,7.078,28.728,13.516z"/>
	<path id="PinImportant" display="none" fill="#FF8500" stroke="#BF3A00" stroke-width="0.2" stroke-miterlimit="10" d="
		M28.728,13.516c0,5.507-3.945,10.125-9.262,11.345c-0.895,0.202-2.792,13.115-2.792,13.115s-1.961-12.913-2.887-13.141
		c-5.26-1.248-9.165-5.847-9.165-11.323c0-6.438,5.397-11.657,12.053-11.657C23.331,1.855,28.728,7.078,28.728,13.516z"/>
	<path id="orange" display="none" fill="#A3A3A3" stroke="#444444" stroke-width="0.2" stroke-miterlimit="10" d="M28.728,13.516
		c0,5.507-3.945,10.125-9.262,11.345c-0.895,0.202-2.792,13.115-2.792,13.115s-1.961-12.913-2.887-13.141
		c-5.26-1.248-9.165-5.847-9.165-11.323c0-6.438,5.397-11.657,12.053-11.657C23.331,1.855,28.728,7.078,28.728,13.516z"/>
	<path id="bleu" display="none" fill="#0092FF" stroke="#333333" stroke-width="0.2" stroke-miterlimit="10" d="M28.728,13.516
		c0,5.507-3.945,10.125-9.262,11.345c-0.895,0.202-2.792,13.115-2.792,13.115s-1.961-12.913-2.887-13.141
		c-5.26-1.248-9.165-5.847-9.165-11.323c0-6.438,5.397-11.657,12.053-11.657C23.331,1.855,28.728,7.078,28.728,13.516z"/>
</g>
<g id="Icons">
	<g id="Minimal" display="none">
		<path id="Election" display="inline" fill="#565656" d="M26.236,6.149l-5.178-2.22c-0.154-0.065-0.334-0.021-0.436,0.11
			l-1.484,1.852c-0.063,0.083-0.09,0.2-0.068,0.308c0.023,0.103,0.09,0.189,0.184,0.238L14.61,8.179
			c-0.396,0.146-0.725,0.422-0.939,0.781l-1.537,2.561c-0.325,0.544-0.353,1.21-0.068,1.778l0.111,0.216h-1.621
			c-0.204,0-0.37,0.166-0.37,0.371v7.028h-1.11c-0.206,0-0.367,0.164-0.367,0.367c0,0.207,0.161,0.371,0.367,0.371h12.581
			c0.203,0,0.361-0.164,0.361-0.371c0-0.203-0.158-0.367-0.361-0.367h-1.113v-3.78c0-0.125-0.07-0.247-0.172-0.311
			c-0.109-0.068-0.242-0.079-0.357-0.025c-0.406,0.191-0.705,0.288-0.85,0.33c-0.031,0.008-0.059,0.019-0.086,0.041l-2.408,1.443
			c-0.384,0.23-0.82,0.353-1.265,0.353c-0.821,0-1.585-0.408-2.053-1.101c-0.372-0.554-0.499-1.224-0.363-1.876
			c0.142-0.653,0.529-1.211,1.086-1.57l0.352-0.222c0.257-0.155,0.483-0.3,0.69-0.425c0.142-0.087,0.206-0.262,0.157-0.421
			c-0.09-0.296-0.246-0.562-0.389-0.764c0.564-0.248,1.329-0.687,1.712-1.134c0,0,0.005,0.002,0.008,0.002
			c0.081,0.05,0.175,0.101,0.281,0.152c0.01,0.003,0.013,0.006,0.021,0.008l0,0c0.277,0.133,0.626,0.266,1.027,0.347
			c-0.432,0.535-0.869,1.199-1.03,1.642c-0.308,0.134-0.942,0.495-2.429,1.443c-0.394,0.25-0.663,0.638-0.755,1.095
			c-0.1,0.458-0.014,0.924,0.25,1.313c0.331,0.498,0.872,0.772,1.436,0.772c0.301,0,0.609-0.08,0.882-0.245l2.542-1.527
			c0.395-0.096,2.375-0.689,3.873-3.111c1.174-1.898,1.834-3.428,2.105-4.12l0.047,0.023c0.152,0.076,0.322,0.115,0.494,0.115
			c0.279,0,0.563-0.113,0.77-0.311c0.221-0.208,0.338-0.493,0.338-0.797V6.491C26.454,6.341,26.37,6.206,26.236,6.149z"/>
	</g>
	<g id="Faible" display="none">
		<path id="Famine" display="inline" fill="#F9F9F9" d="M22.906,19.771l-2.941,0.555l-4.799-2.61l1.744-2.178l3.928,1.304
			L22.906,19.771z M27.425,14.667v0.327l-3.098,0.981l-3.055,0.434l-3.93-1.306l-0.923-0.436h0.528
			c-0.125-1.167-0.295-2.053-0.376-3.211h-0.004c-0.003-0.035-0.043-0.811-0.056-1.141c-0.06-0.349-0.226-0.488-0.771-0.861
			c-0.298-0.193-0.521-0.263-0.646-0.26c-0.199,0-0.378,0.217-0.419,0.87c0.874,0.149,0.934,1.116,0.934,1.116
			c0.077,0.686-0.261,1.69-1.038,1.951c-1.438,0.479-1.289-2.29-0.479-2.955c0.021-0.797,0.246-1.529,1.003-1.559
			c0.302,0.005,0.609,0.126,0.963,0.352c0.168,0.1,0.306,0.204,0.427,0.311c-0.015-0.264-0.032-0.532-0.032-0.808
			c-0.001-0.582,0.091-1.216,0.608-1.666c0.262-0.239,0.561-0.365,0.856-0.362c0.77,0.038,1.246,0.698,1.521,1.376
			c0.322-0.143,0.727-0.211,1.189-0.05c1.182,0.41,1.82,2.469,1.324,3.189c-1.164,1.673-4.098-1.442-3.322-2.529
			c0,0,0.115-0.146,0.314-0.31c-0.227-0.602-0.686-1.138-1.029-1.1c-0.127,0.003-0.279,0.048-0.471,0.22
			c-0.328,0.287-0.413,0.696-0.413,1.233c0,0.378,0.045,0.797,0.045,1.218c0,0.219,0.014,0.413,0.023,0.624
			c0.05,0.375,0.054,0.664,0.05,1.058c0.082,1.154,0.548,2.103,0.671,3.292h9.602v0.002H27.425z M19.159,8.347l2.223,2.42
			c-0.395-1.716-1.803-2.673-1.803-2.673L19.159,8.347z M14.555,10.424l-0.396,0.164c0,0-0.199,1.353,0,2.06L14.555,10.424z
			 M12.566,18.588l1.765-1.061l1.842-2.277l-0.575-0.584h-4.066l-0.809,1.611L12.566,18.588z M14.626,18.223l-3.129,2.13
			l0.417,0.515h7.203l-0.025-0.104L14.626,18.223z M8.187,14.667v2.457l2.004-1.075l0.608-1.382H8.187z M21.853,16.936l1.939,2.813
			l3.633,0.854v-3.22l-2.613-0.841L21.853,16.936z M27.425,16.676V15.54l-2.039,0.551L27.425,16.676z M10.242,16.835l-2.056,0.978
			v3.055h1.503l2.238-1.833L10.242,16.835z M21.001,20.868h4.703l-2.25-0.543L21.001,20.868z"/>
		<path id="Cyclone" display="inline" fill="#FFFFFF" d="M17.878,8.058c-0.098-0.004-0.195-0.017-0.295-0.017
			c-0.882,0-1.709,0.23-2.431,0.626c1.288-4.386,4.501-4.769,4.501-4.769s-7.1,0.592-7.1,8.877c0.006,0,0.011,0,0.015,0
			c-0.005,0.1-0.015,0.196-0.015,0.298c0,0.876,0.229,1.707,0.627,2.43c-4.388-1.29-4.771-4.5-4.771-4.5s0.59,7.102,8.878,7.102
			c0-0.008,0-0.01,0-0.017c0.096,0.005,0.195,0.017,0.293,0.017c0.883,0,1.711-0.23,2.432-0.629
			c-1.287,4.388-4.502,4.773-4.502,4.773s7.102-0.595,7.102-8.879c-0.004,0-0.008,0-0.014,0c0.004-0.099,0.014-0.195,0.014-0.295
			c0-0.881-0.23-1.712-0.629-2.431c4.387,1.286,4.771,4.502,4.771,4.502s-0.59-7.103-8.877-7.103
			C17.878,8.049,17.878,8.054,17.878,8.058z"/>
		<path id="eruption" display="inline" fill="#FFFFFF" d="M18.984,9.65c1.057,0.361,2.459,0.787,2.756-0.919
			c0.238-1.327,2.01-0.835,2.76-0.92c1.375-0.157,0.336-2.724-1.377-2.761c-1.738-0.038-2.529,0.723-3.219,2.3
			c-0.332,0.76-0.613,1.329-1.842,0.922c-1.226-0.412-2.127,0.596-1.379,1.84c0.661,1.098-0.012,2.299-0.012,2.299h1.854
			c0,0-0.016-0.683-0.461-1.381C17.542,10.217,17.9,9.276,18.984,9.65z M9.177,21.098c4.763-3.467,5.953-8.267,5.953-8.267h4.891
			c0,0,1.189,4.797,5.949,8.267H9.177z"/>
		<path id="tsunami" display="inline" fill="#FFFFFF" d="M26.503,18.918c-14.612,0.827-10.531-10.351-6.74-9.386
			c-0.391,0.239-0.643,1.061-0.4,1.614c0.266,0.593,1.121,0.931,1.613,0.808c1.176-0.304,1.229-1.956,0.805-2.823
			c-0.439-0.904-1.604-2.017-3.629-2.017c-4.894,0-8.232,2.5-9.489,6.797v6.317h17.842L26.503,18.918L26.503,18.918z"/>
		<path id="epidemie" display="inline" fill="#FFFFFF" d="M25.204,13.814c0-4.178-3.27-7.578-7.395-7.789
			c1.82,0.173,3.238,1.494,3.238,3.103c0,0.552-0.182,1.062-0.477,1.512c-0.814-0.811-1.932-1.31-3.17-1.31
			c-1.234,0-2.353,0.499-3.162,1.308c-0.292-0.45-0.478-0.958-0.478-1.513c0-1.604,1.417-2.927,3.236-3.102
			c-4.12,0.211-7.393,3.612-7.393,7.791c0,1.259,0.307,2.448,0.834,3.503c-0.724-1.649-0.285-3.505,1.091-4.299
			c0.479-0.276,1.015-0.374,1.547-0.345c-0.103,0.367-0.169,0.75-0.169,1.151c0,2.076,1.418,3.808,3.33,4.323
			c-0.026,0.045-0.056,0.086-0.082,0.131c0,0.004,0,0.004,0,0.01c-0.063,0.144-0.146,0.257-0.24,0.355
			c-0.204,0.27-0.44,0.509-0.745,0.685c-1.383,0.797-3.222,0.243-4.282-1.226c1.397,2.12,3.793,3.522,6.516,3.522
			c2.699,0,5.074-1.372,6.479-3.458c-1.068,1.422-2.873,1.946-4.234,1.165c-0.484-0.283-0.836-0.701-1.074-1.188
			c1.912-0.516,3.32-2.25,3.32-4.321c0-0.4-0.063-0.783-0.166-1.151c0.541-0.035,1.076,0.064,1.559,0.343
			c1.336,0.77,1.791,2.539,1.152,4.155C24.929,16.151,25.204,15.018,25.204,13.814z M18.236,16.818
			c-0.033-0.65,0.104-1.332,0.428-1.976l-0.52-0.299c-0.188,0.193-0.447,0.311-0.738,0.311c-0.289,0-0.55-0.119-0.738-0.311
			l-0.509,0.292c0.325,0.649,0.462,1.337,0.427,1.985c-1.321-0.362-2.3-1.563-2.3-2.997c0-0.274,0.043-0.533,0.112-0.785
			c0.574,0.291,1.099,0.747,1.499,1.346l0.521-0.302c-0.022-0.089-0.056-0.173-0.056-0.269c0-0.482,0.333-0.873,0.781-0.989v-0.593
			c-0.725-0.047-1.381-0.272-1.925-0.628c0.563-0.556,1.333-0.897,2.183-0.897c0.85,0,1.623,0.344,2.188,0.899
			c-0.545,0.357-1.201,0.579-1.926,0.626v0.594c0.447,0.117,0.779,0.508,0.779,0.988c0,0.099-0.029,0.181-0.051,0.27l0.529,0.309
			c0.4-0.6,0.922-1.053,1.494-1.342c0.064,0.247,0.111,0.506,0.111,0.774C20.525,15.255,19.552,16.453,18.236,16.818z"/>
		<path id="earthquake" display="inline" fill="#FFFFFF" d="M22.784,13.625c-0.25,0-0.479,0.138-0.598,0.361L21.21,15.82
			l-1.199-3.519c-0.094-0.267-0.34-0.446-0.617-0.459c-0.289-0.008-0.541,0.156-0.652,0.416l-0.824,1.956l-1.296-7.791
			c-0.062-0.325-0.368-0.574-0.683-0.556c-0.333,0.007-0.61,0.228-0.654,0.56l-1.151,9.038l-0.931-4.851
			c-0.053-0.285-0.287-0.506-0.577-0.544c-0.287-0.04-0.573,0.116-0.698,0.378l-1.525,3.176H8.034v1.353h2.793
			c0.26,0,0.5-0.151,0.613-0.383l0.818-1.706l1.321,6.882c0.063,0.319,0.339,0.55,0.667,0.55c0.003,0,0.01,0,0.016,0
			c0.332-0.008,0.608-0.258,0.654-0.587l1.133-8.882l0.944,5.847c0.055,0.295,0.294,0.518,0.593,0.551
			c0.303,0.028,0.584-0.135,0.703-0.413l1.014-2.414l1.133,3.314c0.086,0.257,0.314,0.437,0.584,0.46
			c0.27,0.015,0.525-0.119,0.656-0.359l1.514-2.86h2.906v-1.353H22.784z"/>
	</g>
	<g id="Modéré" display="none">
		<path id="displaced" display="inline" fill="#FFFFFF" d="M17.077,6.569c0.12,0.751-0.387,1.458-1.132,1.581
			c-0.748,0.125-1.459-0.386-1.582-1.13c-0.123-0.756,0.381-1.463,1.133-1.585C16.244,5.311,16.953,5.818,17.077,6.569z
			 M16.648,12.024l1.218,1.944c0.17,0.273,0.529,0.36,0.809,0.2c0.279-0.167,0.375-0.521,0.221-0.803l-0.311-0.562
			c-0.268-0.478-0.531-0.957-0.799-1.438l-0.541-0.982c-0.063-0.116-0.125-0.246-0.188-0.379c-0.332-0.701-0.854-1.785-1.996-1.685
			c-0.981,0.085-1.976,0.549-2.949,1.38c-1.157,0.916-1.966,2.238-2,2.297c-0.038,0.057-0.072,0.116-0.104,0.173
			c-0.004,0-0.004,0.002-0.006,0.004l0,0c-0.106,0.204-0.16,0.391-0.024,0.63c0.104,0.188,0.306,0.305,0.52,0.305
			c0.26,0,0.396-0.124,0.521-0.31l0,0c0.002,0,0.002-0.004,0.002-0.004c0.04-0.055,0.071-0.111,0.11-0.174
			c0.008-0.015,0.689-1.105,1.736-1.998c0.322-0.254,0.632-0.428,0.922-0.522l-0.233,2.83c-0.022,0.282-0.11,0.762-0.188,1.035
			l-0.525,1.844c-0.069,0.232-0.268,0.618-0.42,0.808l-1.425,1.764c-0.181,0.225-0.384,0.478-0.215,0.827
			c0.103,0.208,0.31,0.339,0.541,0.339c0.273,0,0.424-0.156,0.61-0.36l1.439-1.553c0.258-0.278,0.592-0.759,0.759-1.1l0.709-1.449
			l2.647,4.439c0.127,0.219,0.293,0.49,0.648,0.49l0,0c0.205,0,0.393-0.104,0.502-0.273c0.191-0.295,0.064-0.562-0.047-0.8
			l-2.134-4.642c-0.082-0.183-0.129-0.555-0.094-0.754L16.648,12.024z M18.886,16.855h3.201v0.951l3.182-1.837l-3.182-1.839v0.951
			h-3.201V16.855z"/>
		<path id="returned" display="inline" fill="#FFFFFF" d="M17.079,6.567c0.12,0.75-0.389,1.457-1.134,1.581
			c-0.75,0.124-1.458-0.386-1.58-1.135c-0.124-0.751,0.381-1.456,1.134-1.581C16.244,5.308,16.958,5.815,17.079,6.567z
			 M16.649,12.021l1.219,1.948c0.168,0.271,0.531,0.36,0.811,0.197c0.275-0.166,0.371-0.521,0.217-0.806l-0.311-0.558
			c-0.266-0.476-0.527-0.959-0.795-1.438l-0.541-0.985c-0.064-0.11-0.125-0.24-0.188-0.375c-0.336-0.702-0.858-1.785-2-1.684
			c-0.981,0.083-1.973,0.547-2.949,1.377c-1.155,0.914-1.966,2.24-2.003,2.294c-0.035,0.06-0.069,0.12-0.102,0.175
			c-0.001,0.004-0.005,0.004-0.005,0.007l0,0c-0.106,0.207-0.161,0.393-0.024,0.63c0.104,0.188,0.304,0.303,0.52,0.303
			c0.26,0,0.396-0.122,0.521-0.308l0,0c0.002-0.002,0.002-0.002,0.002-0.002c0.036-0.057,0.071-0.116,0.11-0.18
			c0.007-0.01,0.688-1.098,1.736-1.995c0.324-0.252,0.631-0.428,0.922-0.524l-0.234,2.833c-0.022,0.283-0.11,0.763-0.188,1.036
			l-0.525,1.844c-0.07,0.233-0.268,0.618-0.423,0.808l-1.422,1.764c-0.181,0.225-0.384,0.478-0.215,0.829
			c0.099,0.206,0.31,0.339,0.539,0.339c0.273,0,0.422-0.158,0.612-0.361l1.439-1.554c0.258-0.277,0.589-0.758,0.754-1.1l0.715-1.452
			l2.646,4.441c0.129,0.219,0.297,0.49,0.65,0.49l0,0c0.207,0,0.396-0.104,0.508-0.278c0.188-0.293,0.063-0.558-0.049-0.796
			l-2.136-4.644c-0.084-0.179-0.132-0.551-0.097-0.75L16.649,12.021z M25.548,13.012c0-1.94-1.576-3.512-3.512-3.512h-1.494v1.772
			h1.49c0.957,0,1.736,0.777,1.736,1.739c0,0.958-0.779,1.738-1.736,1.738h-0.307v-0.951l-3.184,1.839l3.184,1.838v-0.954h0.344
			V16.52C23.991,16.5,25.548,14.937,25.548,13.012z"/>
	</g>
	<g id="Important" display="none">
		<path id="enlevement" display="inline" fill="#FFFFFF" d="M23.911,4.488c-0.484,0-0.879,0.396-0.879,0.882v3.583
			C23.245,9,23.448,9.089,23.613,9.25c0.463,0.457,0.475,1.208,0.021,1.675l-1.666,1.713l-0.232-0.222l1.674-1.709
			c0.336-0.346,0.328-0.896-0.016-1.236c-0.109-0.102-0.234-0.172-0.367-0.209c-0.15-0.04-0.295-0.042-0.441-0.012
			c-0.162,0.043-0.307,0.123-0.42,0.245c-0.988,1.015-1.982,2.03-2.969,3.045c-0.252,0.255-0.705,0.837-0.693,1.418
			c0.01,0.547-0.008,1.107,0.004,1.656c-0.131-0.103-0.289-0.182-0.463-0.214c-0.51-0.083-0.972,0.222-1.147,0.677h-0.261
			c0-0.125,0-0.25,0.003-0.374c0.013-0.572-0.008-1.167,0.006-1.742c0.011-0.582-0.441-1.164-0.69-1.418
			c-0.987-1.017-1.978-2.032-2.971-3.049c-0.115-0.121-0.256-0.206-0.421-0.244c-0.146-0.029-0.294-0.027-0.438,0.012
			c-0.136,0.039-0.264,0.111-0.37,0.211c-0.341,0.338-0.346,0.888-0.015,1.237l1.673,1.706l-0.232,0.222l-1.667-1.713
			c-0.455-0.467-0.443-1.218,0.022-1.672c0.163-0.157,0.366-0.25,0.579-0.297V5.371c0-0.486-0.396-0.881-0.878-0.881
			c-0.487,0-0.88,0.396-0.88,0.881v6.204c0,0.203,0.084,0.389,0.203,0.54l2.995,3.957H13.29c-0.582,0-1.06,0.474-1.06,1.061
			c0,0.389,0.221,0.714,0.53,0.897c-0.31,0.186-0.53,0.511-0.53,0.896c0,0.588,0.476,1.064,1.06,1.064h0.323v0.588h2.941
			c0.154,0.154,0.332,0.266,0.551,0.303c0.063,0.01,0.117,0.016,0.177,0.016c0.516,0,0.957-0.37,1.043-0.881l0.004-0.025h0.188
			c0.002,0.193,0,0.386,0.023,0.588h2.994v-0.587h0.326c0.582,0,1.057-0.474,1.057-1.064c0-0.385-0.217-0.71-0.533-0.896
			c0.314-0.184,0.533-0.509,0.533-0.9c0-0.584-0.475-1.059-1.057-1.059h-0.268l2.996-3.96c0.125-0.151,0.203-0.336,0.203-0.54v-6.2
			C24.79,4.884,24.398,4.488,23.911,4.488z M12.761,17.132c0-0.292,0.239-0.528,0.528-0.528h3.473l-0.184,1.058h-3.29
			C13,17.659,12.761,17.426,12.761,17.132z M12.761,18.926c0-0.289,0.239-0.529,0.528-0.529h3.162l-0.183,1.062H13.29
			C13,19.459,12.761,19.225,12.761,18.926z M17.8,19.926c-0.045,0.29-0.348,0.479-0.611,0.435c-0.14-0.025-0.258-0.103-0.341-0.217
			c-0.085-0.115-0.113-0.255-0.091-0.394l0.584-3.394c0.045-0.258,0.27-0.44,0.531-0.44c0.027,0,0.055,0,0.082,0.005
			c0.287,0.05,0.482,0.323,0.432,0.611L17.8,19.926z M22.386,18.926c0,0.295-0.238,0.532-0.527,0.532h-3.439l0.184-1.061h3.256
			C22.148,18.4,22.386,18.638,22.386,18.926z M22.386,17.132c0,0.292-0.238,0.528-0.527,0.528H18.73l0.18-1.036
			c0.002-0.008,0-0.015,0-0.021h2.943C22.148,16.604,22.386,16.841,22.386,17.132z"/>
	</g>
	<g id="Elevé">
		<path id="Attack" fill="#FFFFFF" d="M21.667,14.276l5.229-3.348l-5.053-0.536l1.371-5.869l-3.582,3.703l-0.998-4.184l-1.5,3.904
			l-4.096-5.273l1.287,6.608l-3.639-0.807c0,0,1.104,2.116,1.722,3.391l-5.839-0.41l5.284,3.09l-1.519,1.56l2.459-0.449
			l-1.743,6.158l5.175-4.329l1.344,3.346l1.379-2.675l4.461,4.607l-2.23-6.168l4.893,0.495L21.667,14.276z"/>
	</g>
	<g id="Extreme" display="none">
		<path id="rebelion" display="inline" fill="#FFFFFF" d="M20.351,8.308c0,1.632-1.322,2.952-2.951,2.952
			c-1.631,0-2.954-1.322-2.954-2.952c0-1.634,1.322-2.953,2.954-2.953C19.029,5.355,20.351,6.674,20.351,8.308z M12.469,20.831
			h1.806h0.097l0.063-0.137l0.656-0.643l-0.604-0.127l-0.957-0.206L12.469,20.831z M24.823,8.857l-0.635,0.632l0.043,0.043
			l-0.512,0.517c0.068,0.062,0.135,0.126,0.189,0.2l0.518-0.516l0.105,0.096l0.625-0.638L24.823,8.857z M20.745,12.133l-0.273,0.269
			l0.031,0.078l0.064,0.143l-4.306,4.317l0.464,0.1c0.424,0.088,0.792,0.344,1.03,0.711c0.029,0.051,0.037,0.116,0.068,0.171
			l0.012-0.014l0.316,0.208l0.115-0.024l1.256,0.91l0.842-1.155l-1.869-1.46l0.043-0.122h0.309l1.834-2.153l0.207-1.93
			L20.745,12.133z M22.745,10.223c-0.557-0.062-1.102,0.355-1.164,0.933l-0.072,0.629l0,0l-0.043,0.457l-0.203,1.932l-0.021,0.18
			l-0.115,0.137l-1.643,1.927l1.238,0.97l0.447,0.349l-0.262,0.354l0.064,0.129c0.17,0.37,0.549,0.601,0.955,0.601
			c0.057,0,0.115-0.001,0.176-0.013c0.463-0.08,0.818-0.457,0.869-0.925l0.703-6.494C23.743,10.804,23.322,10.282,22.745,10.223z
			 M20.595,18.516l-0.602,0.83l-0.344,0.476l-0.475-0.345l-1.039-0.752l-0.092,0.023l-0.037-0.026c0,0.091-0.002,0.176-0.023,0.263
			c-0.021,0.088-0.049,0.167-0.082,0.249c-0.066,0.153-0.152,0.285-0.254,0.411l0.072,0.164c0.072,0.165,0.174,0.383,0.295,0.568
			l0.289,0.452h2.221L20.595,18.516z M16.377,20.285c-0.023,0-0.052-0.008-0.074-0.009c-0.014,0.047-0.021,0.082-0.021,0.082
			l0.251,0.471h0.601l0.387-0.134c-0.133-0.206-0.238-0.43-0.336-0.651C16.941,20.186,16.674,20.285,16.377,20.285z M17.245,18.05
			c-0.043-0.065-0.108-0.117-0.168-0.172c-0.034-0.033-0.063-0.077-0.105-0.104c-0.108-0.077-0.237-0.134-0.374-0.166l-0.459-0.093
			l-1.051-0.225l0,0l-0.929-0.199l-0.361-0.076l-0.596-0.129l-0.038-0.006l0.094-0.098l0.402-0.398l0.431-0.433
			c0.034,0.296,0.053,0.532,0.053,0.537l0.139,0.03l1.303,0.277l0.267-0.268l4.027-4.046l-0.09-0.227l0.035-0.026
			c-0.586-0.175-1.273-0.276-2.141-0.276H17.4c0,0-0.28,0-0.284,0c-0.606,0-1.22,0.041-1.823,0.176
			c-1.031,0.23-1.671,1.242-2.378,1.938c-0.728,0.716-1.436,1.463-2.144,2.199c-0.157,0.164-0.314,0.334-0.476,0.496
			c-0.271,0.275-0.371,0.673-0.262,1.048c0.104,0.369,0.412,0.649,0.791,0.733l1.394,0.299l0.591,0.125l3.35,0.713
			c0.074,0.013,0.15,0.024,0.22,0.024c0.487,0,0.923-0.339,1.031-0.835c0.039-0.194,0.01-0.379-0.049-0.553l-0.064-0.135
			C17.277,18.144,17.263,18.1,17.245,18.05z M15.767,20.629l-0.102-0.189l0.051-0.21l0.01-0.042l-0.161-0.035l-0.593,0.677h0.897
			L15.767,20.629z"/>
	</g>
</g>
</svg>
