<?xml version="1.0" encoding="utf-8"?>
<!-- Generator: Adobe Illustrator 16.0.0, SVG Export Plug-In . SVG Version: 6.00 Build 0)  -->
<!DOCTYPE svg PUBLIC "-//W3C//DTD SVG 1.1//EN" "http://www.w3.org/Graphics/SVG/1.1/DTD/svg11.dtd">
<svg version="1.1" id="Groupe" xmlns="http://www.w3.org/2000/svg" xmlns:xlink="http://www.w3.org/1999/xlink" x="0px" y="0px"
	 width="15.871px" height="15.65px" viewBox="0 0 15.871 15.65" enable-background="new 0 0 15.871 15.65" xml:space="preserve">
<g id="PinColor_1_">
	<path id="vert" fill="#2ABF00" stroke="#1D7500" stroke-width="0.2" stroke-miterlimit="10" d="M15.256,7.876
		c0,3.346-2.396,6.151-5.625,6.896c-0.541,0.118-2.887,0.118-3.446-0.021c-3.198-0.759-5.569-3.548-5.569-6.877
		c0-3.904,3.28-7.08,7.32-7.08C11.975,0.793,15.256,3.969,15.256,7.876z"/>
	<path id="orange" display="none" fill="#FF8500" stroke="#7F4500" stroke-width="0.2" stroke-miterlimit="10" d="M15.256,7.876
		c0,3.346-2.396,6.151-5.625,6.896c-0.541,0.118-2.887,0.118-3.446-0.021c-3.198-0.759-5.569-3.548-5.569-6.877
		c0-3.904,3.28-7.08,7.32-7.08C11.975,0.793,15.256,3.969,15.256,7.876z"/>
	<path id="gris" display="none" fill="#A5A5A5" stroke="#595959" stroke-width="0.2" stroke-miterlimit="10" d="M15.256,7.876
		c0,3.346-2.396,6.151-5.625,6.896c-0.541,0.118-2.887,0.118-3.446-0.021c-3.198-0.759-5.569-3.548-5.569-6.877
		c0-3.904,3.28-7.08,7.32-7.08C11.975,0.793,15.256,3.969,15.256,7.876z"/>
	<path id="bleu" display="none" fill="#0092FF" stroke="#00477C" stroke-width="0.2" stroke-miterlimit="10" d="M15.256,7.876
		c0,3.346-2.396,6.151-5.625,6.896c-0.541,0.118-2.887,0.118-3.446-0.021c-3.198-0.759-5.569-3.548-5.569-6.877
		c0-3.904,3.28-7.08,7.32-7.08C11.975,0.793,15.256,3.969,15.256,7.876z"/>
</g>
<g id="IconsGroup">
	<g id="MinimalGroup" display="none">
		<path id="ElectionGroup" display="inline" fill="#565656" d="M13.475,3.105L9.908,1.582c-0.1-0.042-0.232-0.016-0.297,0.073
			L8.588,2.928C8.543,2.979,8.525,3.067,8.543,3.14C8.56,3.218,8.605,3.27,8.672,3.302L5.479,4.508
			C5.21,4.599,4.978,4.79,4.831,5.039L3.774,6.8c-0.224,0.373-0.246,0.831-0.047,1.22l0.079,0.149H2.69
			c-0.145,0-0.253,0.116-0.253,0.255v4.826H1.672c-0.138,0-0.249,0.118-0.249,0.254s0.114,0.254,0.249,0.254h8.642
			c0.141,0,0.25-0.118,0.25-0.254c0-0.137-0.109-0.254-0.25-0.254H9.551v-2.592c0-0.082-0.045-0.168-0.11-0.212
			c-0.073-0.05-0.171-0.057-0.25-0.014c-0.276,0.129-0.487,0.195-0.58,0.226c-0.022,0-0.043,0.013-0.06,0.023L6.895,11.67
			c-0.264,0.16-0.564,0.247-0.867,0.247c-0.572,0-1.084-0.281-1.409-0.758c-0.26-0.385-0.352-0.84-0.25-1.291
			C4.459,9.421,4.729,9.037,5.107,8.79l0.244-0.154c0.179-0.104,0.337-0.199,0.473-0.289c0.102-0.058,0.139-0.181,0.107-0.293
			C5.874,7.851,5.771,7.67,5.667,7.529C6.054,7.365,6.581,7.06,6.847,6.753l0,0C6.9,6.787,6.968,6.824,7.039,6.86
			c0.008,0,0.008,0,0.015,0.002l0,0c0.187,0.093,0.422,0.186,0.703,0.239C7.461,7.472,7.164,7.927,7.048,8.227
			c-0.198,0.098-0.64,0.335-1.66,0.989c-0.271,0.17-0.458,0.443-0.52,0.759c-0.067,0.313-0.008,0.633,0.173,0.902
			c0.235,0.342,0.601,0.533,0.986,0.533c0.207,0,0.413-0.064,0.607-0.171l1.747-1.05c0.267-0.067,1.625-0.477,2.658-2.139
			c0.809-1.305,1.264-2.354,1.447-2.831l0.031,0.015c0.107,0.044,0.23,0.084,0.341,0.084c0.204,0,0.399-0.087,0.536-0.219
			c0.148-0.144,0.23-0.34,0.23-0.548V3.34C13.621,3.236,13.564,3.14,13.475,3.105z"/>
	</g>
	<g id="FaibleGroup" display="none">
		<path id="FamineGroup" display="inline" fill="#F9F9F9" d="M10.83,12.058l-1.933,0.367l-3.15-1.721l1.147-1.422l2.574,0.854
			L10.83,12.058z M13.797,8.705v0.221l-2.035,0.64L9.758,9.848L7.179,8.994l-0.608-0.29h0.349c-0.083-0.762-0.196-1.347-0.25-2.11
			l0,0C6.667,6.576,6.638,6.067,6.635,5.852C6.597,5.616,6.485,5.527,6.125,5.277c-0.2-0.119-0.348-0.165-0.423-0.165
			c-0.129,0-0.247,0.145-0.276,0.578C6.002,5.788,6.04,6.423,6.04,6.423c0.052,0.449-0.174,1.106-0.681,1.281
			c-0.941,0.313-0.85-1.501-0.317-1.941C5.057,5.24,5.204,4.758,5.705,4.738c0.202,0,0.403,0.084,0.632,0.232
			C6.44,5.039,6.538,5.101,6.61,5.177C6.603,5.001,6.596,4.824,6.596,4.638c0-0.383,0.058-0.792,0.399-1.089
			C7.167,3.386,7.361,3.299,7.56,3.302c0.5,0.029,0.809,0.461,0.997,0.904C8.764,4.112,9.031,4.072,9.33,4.178
			c0.777,0.264,1.203,1.622,0.877,2.088C9.438,7.37,7.515,5.328,8.019,4.608c0,0,0.078-0.094,0.209-0.205
			c-0.154-0.391-0.451-0.738-0.671-0.72c-0.086,0-0.192,0.032-0.313,0.143C7.029,4.019,6.968,4.284,6.968,4.638
			C6.968,4.889,7,5.166,7,5.439C7,5.586,7.01,5.712,7.013,5.852c0.038,0.245,0.038,0.431,0.038,0.693
			c0.058,0.756,0.357,1.382,0.443,2.159H13.797z M8.366,4.558L9.83,6.149c-0.263-1.13-1.185-1.758-1.185-1.758L8.366,4.558z
			 M5.344,5.92l-0.26,0.108c0,0-0.128,0.891,0,1.354L5.344,5.92z M4.04,11.279l1.158-0.695L6.405,9.09L6.031,8.705H3.36L2.83,9.772
			L4.04,11.279z M5.389,11.039l-2.052,1.4l0.269,0.338h4.73l-0.013-0.063L5.389,11.039z M1.165,8.705v1.616l1.309-0.705l0.404-0.911
			H1.165z M10.14,10.191l1.274,1.855l2.385,0.562v-2.12l-1.721-0.553L10.14,10.191z M13.797,10.026V9.283l-1.34,0.358L13.797,10.026
			z M2.513,10.135l-1.348,0.638v2.005H2.15l1.471-1.202L2.513,10.135z M9.578,12.778h3.086l-1.47-0.354L9.578,12.778z"/>
		<path id="CycloneGroup" display="inline" fill="#FFFFFF" d="M7.525,4.366c-0.068,0-0.132-0.011-0.197-0.011
			c-0.579,0-1.121,0.15-1.59,0.409c0.841-2.871,2.951-3.13,2.951-3.13S4.027,2.03,4.027,7.469c0.003,0,0.003,0,0.009,0
			c0,0.061-0.004,0.123-0.004,0.193c0,0.572,0.148,1.124,0.409,1.598C1.563,8.408,1.314,6.302,1.314,6.302s0.392,4.663,5.831,4.663
			c0-0.004,0-0.004,0-0.013c0.063,0.006,0.123,0.013,0.191,0.013c0.58,0,1.123-0.15,1.596-0.412
			c-0.851,2.88-2.963,3.129-2.963,3.129s4.669-0.393,4.669-5.832c-0.006,0-0.006,0-0.006,0c0-0.065,0.006-0.131,0.006-0.191
			c0-0.582-0.146-1.125-0.411-1.601c2.877,0.845,3.134,2.959,3.134,2.959s-0.388-4.662-5.836-4.662
			C7.525,4.362,7.525,4.366,7.525,4.366z"/>
		<path id="eruptionGroup" display="inline" fill="#FFFFFF" d="M8.25,5.412c0.699,0.236,1.619,0.516,1.819-0.602
			c0.155-0.878,1.308-0.553,1.8-0.604c0.903-0.108,0.227-1.791-0.898-1.814C9.83,2.367,9.314,2.87,8.85,3.902
			c-0.209,0.497-0.393,0.87-1.202,0.605c-0.804-0.271-1.4,0.394-0.909,1.209C7.171,6.44,6.731,7.225,6.731,7.225h1.219
			c0,0-0.008-0.438-0.303-0.9C7.304,5.782,7.542,5.171,8.25,5.412z M1.81,12.929c3.129-2.279,3.913-5.427,3.913-5.427h3.21
			c0,0,0.776,3.146,3.905,5.427H1.81z"/>
		<path id="tsunamiGroup" display="inline" fill="#FFFFFF" d="M13.197,11.496C3.59,12.045,6.281,4.704,8.763,5.334
			C8.508,5.493,8.347,6.033,8.498,6.39c0.176,0.396,0.744,0.612,1.066,0.53c0.766-0.195,0.803-1.274,0.528-1.852
			C9.8,4.484,9.037,3.749,7.704,3.749c-3.206,0-5.407,1.64-6.231,4.46v4.15h11.725V11.496z"/>
		<path id="epidemieGroup" display="inline" fill="#FFFFFF" d="M12.342,8.146c0-2.746-2.148-4.977-4.853-5.114
			c1.198,0.107,2.126,0.981,2.126,2.037c0,0.361-0.123,0.697-0.315,0.993c-0.54-0.529-1.274-0.856-2.09-0.856
			c-0.808,0-1.546,0.326-2.076,0.856c-0.186-0.295-0.31-0.631-0.31-0.993c0-1.055,0.924-1.926,2.125-2.037
			C4.244,3.174,2.097,5.404,2.097,8.146c0,0.824,0.203,1.605,0.551,2.298C2.167,9.362,2.458,8.142,3.36,7.627
			c0.316-0.182,0.661-0.25,1.019-0.235C4.309,7.637,4.267,7.887,4.267,8.153c0,1.362,0.929,2.499,2.19,2.839
			c-0.022,0.026-0.048,0.055-0.063,0.09v0.002c-0.042,0.089-0.09,0.171-0.153,0.235c-0.138,0.177-0.291,0.336-0.493,0.447
			c-0.906,0.524-2.108,0.161-2.812-0.804c0.918,1.394,2.487,2.313,4.281,2.313c1.773,0,3.328-0.902,4.261-2.271
			c-0.717,0.936-1.896,1.284-2.79,0.766c-0.316-0.184-0.542-0.457-0.7-0.777c1.25-0.34,2.174-1.479,2.174-2.839
			c0-0.261-0.037-0.512-0.097-0.759c0.356-0.018,0.707,0.051,1.022,0.236c0.877,0.504,1.177,1.662,0.744,2.717
			C12.158,9.683,12.342,8.936,12.342,8.146z M7.759,10.119C7.735,9.689,7.829,9.25,8.042,8.82l-0.34-0.195
			C7.581,8.756,7.404,8.832,7.218,8.832c-0.193,0-0.367-0.078-0.494-0.205l-0.33,0.19C6.61,9.24,6.698,9.689,6.675,10.123
			C5.807,9.88,5.164,9.097,5.164,8.154c0-0.181,0.032-0.351,0.076-0.512c0.378,0.189,0.726,0.49,0.985,0.883l0.346-0.199
			C6.557,8.267,6.533,8.211,6.533,8.149c0-0.32,0.219-0.577,0.518-0.649v-0.4C6.569,7.064,6.144,6.923,5.787,6.686
			C6.148,6.325,6.657,6.1,7.208,6.1c0.553,0,1.07,0.23,1.438,0.593c-0.359,0.235-0.79,0.379-1.26,0.414v0.395
			c0.289,0.076,0.511,0.33,0.511,0.649c0,0.062-0.017,0.119-0.033,0.175L8.21,8.52c0.257-0.395,0.605-0.689,0.981-0.882
			c0.038,0.165,0.076,0.331,0.076,0.508C9.264,9.097,8.625,9.877,7.759,10.119z"/>
		<path id="earthquakeGroup" display="inline" fill="#FFFFFF" d="M10.748,8.023c-0.162,0-0.317,0.093-0.393,0.243L9.715,9.464
			L8.931,7.152c-0.065-0.173-0.228-0.292-0.41-0.3C8.326,6.85,8.166,6.959,8.097,7.133l-0.54,1.275L6.701,3.29
			C6.664,3.079,6.457,2.918,6.256,2.928c-0.226,0.007-0.405,0.15-0.435,0.366l-0.753,5.93L4.455,6.044
			c-0.032-0.186-0.186-0.33-0.38-0.354C3.891,5.668,3.704,5.763,3.613,5.931L2.611,8.023H1.065v0.89h1.836
			c0.168,0,0.326-0.094,0.401-0.25l0.539-1.12l0.87,4.519c0.042,0.206,0.229,0.356,0.432,0.356c0.009,0,0.013,0,0.016,0
			c0.221-0.005,0.401-0.165,0.429-0.385L6.33,6.199l0.622,3.835c0.036,0.199,0.189,0.346,0.387,0.374
			c0.202,0.016,0.385-0.089,0.462-0.27l0.667-1.586l0.741,2.184c0.061,0.166,0.207,0.276,0.386,0.293
			c0.18,0.012,0.346-0.078,0.427-0.234l0.997-1.884h1.906V8.023H10.748z"/>
	</g>
	<g id="ModereGroup" display="none">
		<path id="displacedGroup" display="inline" fill="#FFFFFF" d="M7.47,3.14c0.095,0.597-0.308,1.155-0.9,1.255
			C5.977,4.5,5.406,4.093,5.313,3.503C5.22,2.902,5.617,2.337,6.217,2.244C6.811,2.138,7.372,2.548,7.47,3.14z M7.13,7.475
			L8.097,9.02c0.14,0.22,0.424,0.29,0.647,0.157c0.221-0.129,0.293-0.407,0.17-0.64l-0.24-0.438C8.457,7.716,8.25,7.334,8.034,6.957
			L7.604,6.172C7.557,6.079,7.51,5.982,7.458,5.871C7.194,5.316,6.782,4.454,5.872,4.532c-0.78,0.067-1.572,0.442-2.345,1.1
			C2.606,6.355,1.96,7.403,1.941,7.458c-0.031,0.043-0.064,0.089-0.083,0.13c0,0,0,0-0.008,0.002l0,0
			C1.769,7.756,1.724,7.902,1.828,8.094c0.087,0.142,0.248,0.239,0.417,0.239c0.208,0,0.312-0.102,0.414-0.246l0,0l0,0
			c0.032-0.042,0.06-0.089,0.086-0.133c0.004-0.011,0.543-0.884,1.385-1.588c0.251-0.201,0.5-0.34,0.729-0.413L4.676,8.195
			C4.655,8.416,4.583,8.804,4.524,9.019l-0.418,1.468c-0.051,0.182-0.212,0.493-0.331,0.639l-1.13,1.397
			c-0.146,0.186-0.307,0.386-0.178,0.666c0.083,0.166,0.249,0.267,0.436,0.267c0.214,0,0.335-0.127,0.485-0.288l1.142-1.231
			c0.203-0.22,0.467-0.604,0.603-0.87l0.567-1.155l2.102,3.526c0.103,0.174,0.236,0.395,0.52,0.395l0,0
			c0.163,0,0.313-0.087,0.403-0.219c0.151-0.236,0.045-0.447-0.039-0.643L6.979,9.283C6.912,9.14,6.877,8.844,6.901,8.686
			L7.13,7.475z M8.904,11.316h2.543v0.752l2.533-1.458l-2.533-1.459V9.91H8.904V11.316z"/>
		<path id="returnedGroup" display="inline" fill="#FFFFFF" d="M7.473,3.14c0.092,0.597-0.307,1.155-0.903,1.255
			C5.976,4.497,5.406,4.092,5.316,3.496c-0.097-0.598,0.3-1.16,0.899-1.255C6.811,2.138,7.372,2.543,7.473,3.14z M7.13,7.472
			l0.966,1.549c0.14,0.219,0.424,0.284,0.647,0.157c0.221-0.135,0.293-0.408,0.17-0.642l-0.242-0.44
			C8.459,7.716,8.25,7.334,8.042,6.954L7.604,6.172c-0.048-0.093-0.09-0.189-0.146-0.301C7.194,5.316,6.782,4.45,5.872,4.532
			C5.097,4.595,4.304,4.966,3.525,5.625c-0.921,0.73-1.568,1.778-1.587,1.829c-0.028,0.047-0.061,0.09-0.081,0.134L1.851,7.591l0,0
			C1.769,7.757,1.724,7.903,1.828,8.095c0.087,0.142,0.248,0.242,0.417,0.242c0.208,0,0.312-0.102,0.412-0.246l0,0l0,0
			c0.027-0.047,0.058-0.093,0.087-0.138c0.007-0.008,0.547-0.876,1.38-1.585C4.382,6.163,4.632,6.024,4.859,5.95L4.676,8.196
			C4.655,8.417,4.583,8.805,4.524,9.02l-0.418,1.468c-0.051,0.186-0.212,0.493-0.337,0.639l-1.124,1.397
			C2.5,12.71,2.338,12.91,2.468,13.19c0.083,0.166,0.249,0.267,0.436,0.267c0.214,0,0.335-0.127,0.485-0.288l1.142-1.232
			c0.203-0.22,0.467-0.604,0.595-0.87l0.572-1.154l2.099,3.526c0.1,0.174,0.242,0.394,0.522,0.394l0,0
			c0.161,0,0.311-0.087,0.407-0.225c0.146-0.229,0.042-0.444-0.039-0.633L6.98,9.283C6.918,9.14,6.881,8.844,6.901,8.686L7.13,7.472
			z M14.205,8.262c0-1.543-1.256-2.792-2.795-2.792h-1.185v1.405h1.188c0.758,0,1.383,0.62,1.383,1.387
			c0,0.755-0.612,1.382-1.383,1.382h-0.25V8.886l-2.528,1.459l2.528,1.463v-0.755h0.277l0,0C12.967,11.03,14.205,9.791,14.205,8.262
			z"/>
	</g>
	<g id="ImportantGroup" display="none">
		<path id="enlevementGroup" display="inline" fill="#FFFFFF" d="M12.688,1.247c-0.378,0-0.677,0.304-0.677,0.677v2.756
			c0.169,0.035,0.323,0.101,0.454,0.229c0.354,0.351,0.363,0.933,0.016,1.286l-1.286,1.321l-0.177-0.173l1.285-1.313
			c0.25-0.27,0.248-0.688-0.016-0.944c-0.082-0.084-0.177-0.143-0.285-0.168c-0.113-0.032-0.223-0.032-0.33-0.008
			C11.539,4.935,11.432,5,11.348,5.093c-0.764,0.782-1.525,1.564-2.288,2.35c-0.194,0.191-0.539,0.63-0.534,1.085
			c0.008,0.42,0,0.854,0,1.275C8.429,9.719,8.311,9.664,8.172,9.637c-0.396-0.071-0.746,0.169-0.881,0.521H7.094
			c0-0.095,0-0.193,0-0.29c0.009-0.436-0.007-0.897,0-1.341c0.016-0.445-0.338-0.894-0.525-1.081
			c-0.762-0.789-1.52-1.571-2.285-2.357C4.198,5.001,4.083,4.935,3.96,4.908C3.849,4.882,3.735,4.885,3.624,4.916
			C3.519,4.942,3.417,5.001,3.343,5.082C3.078,5.339,3.069,5.758,3.322,6.027l1.287,1.313L4.437,7.515L3.152,6.194
			C2.805,5.841,2.814,5.259,3.167,4.908c0.131-0.123,0.283-0.189,0.444-0.229V1.924c0-0.375-0.306-0.677-0.677-0.677
			c-0.379,0-0.679,0.304-0.679,0.677v4.771c0,0.157,0.062,0.301,0.153,0.416l2.308,3.039h-0.2c-0.449,0-0.813,0.366-0.813,0.82
			c0,0.3,0.167,0.546,0.412,0.688c-0.24,0.146-0.412,0.396-0.412,0.686c0,0.453,0.364,0.818,0.813,0.818h0.248v0.45H7.03
			c0.115,0.12,0.254,0.203,0.421,0.237c0.052,0.014,0.09,0.019,0.138,0.019c0.402,0,0.741-0.285,0.809-0.681v-0.021h0.146
			c0,0.148,0,0.299,0.018,0.454h2.294v-0.454h0.25c0.442,0,0.812-0.363,0.812-0.813c0-0.294-0.168-0.551-0.414-0.693
			c0.246-0.143,0.414-0.389,0.414-0.688c0-0.45-0.371-0.818-0.812-0.818h-0.2l2.303-3.037c0.098-0.119,0.158-0.258,0.158-0.416V1.93
			C13.365,1.551,13.061,1.247,12.688,1.247z M4.105,10.969c0-0.224,0.187-0.405,0.411-0.405h2.675l-0.143,0.817H4.517
			C4.292,11.375,4.105,11.193,4.105,10.969z M4.105,12.352c0-0.229,0.187-0.413,0.411-0.413h2.434l-0.14,0.819H4.517
			C4.292,12.759,4.105,12.58,4.105,12.352z M7.992,13.119c-0.036,0.224-0.273,0.366-0.47,0.334
			c-0.111-0.015-0.202-0.075-0.263-0.165c-0.064-0.087-0.084-0.195-0.067-0.309l0.447-2.61c0.036-0.199,0.206-0.34,0.407-0.34
			c0.027,0,0.048,0,0.068,0.005c0.225,0.047,0.373,0.25,0.33,0.473L7.992,13.119z M11.518,12.352c0,0.228-0.176,0.406-0.407,0.406
			H8.463l0.14-0.819h2.507C11.332,11.944,11.518,12.128,11.518,12.352z M11.518,10.969c0,0.223-0.176,0.408-0.407,0.408H8.703
			l0.135-0.795c0-0.004,0-0.012,0-0.018h2.271C11.332,10.565,11.518,10.751,11.518,10.969z"/>
	</g>
	<g id="EleveGroup">
		<path id="attackGroup" fill="#FFFFFF" d="M10.492,8.593l3.129-2.01l-3.028-0.319l0.823-3.508l-2.14,2.219L8.674,2.462L7.776,4.801
			L5.326,1.641l0.77,3.96L3.914,5.115c0,0,0.664,1.267,1.034,2.032L1.449,6.902l3.166,1.854L3.71,9.683l1.468-0.263l-1.04,3.682
			l3.094-2.591l0.809,2.004l0.824-1.597l2.668,2.754l-1.341-3.693l2.935,0.301L10.492,8.593z"/>
	</g>
	<g id="ExtremeGroup" display="none">
		<path id="rebelionGroup" display="inline" fill="#FFFFFF" d="M9.705,3.923c0,1.272-1.037,2.305-2.301,2.305
			c-1.279,0-2.313-1.032-2.313-2.305c0-1.28,1.034-2.307,2.313-2.307C8.674,1.616,9.705,2.644,9.705,3.923z M3.552,13.703h1.405
			h0.078l0.053-0.107l0.511-0.5l-0.481-0.104l-0.743-0.16L3.552,13.703z M13.201,4.348l-0.494,0.499l0.029,0.034l-0.404,0.396
			c0.061,0.055,0.109,0.105,0.154,0.162l0.404-0.404l0.083,0.072l0.485-0.495L13.201,4.348z M10.017,6.907L9.8,7.123L9.824,7.18
			l0.053,0.118l-3.363,3.37l0.359,0.084c0.334,0.068,0.619,0.264,0.808,0.557c0.025,0.037,0.034,0.087,0.052,0.13l0.007-0.011
			l0.248,0.162l0.088-0.021l0.978,0.709l0.664-0.899L8.25,10.234l0.038-0.096h0.25L9.97,8.456l0.161-1.507L10.017,6.907z
			 M11.58,5.416c-0.439-0.045-0.861,0.281-0.91,0.732L10.606,6.64l0,0l-0.028,0.354l-0.164,1.508L10.4,8.643l-0.085,0.104
			L9.031,10.26l0.961,0.751l0.354,0.272l-0.207,0.277l0.054,0.096c0.129,0.288,0.424,0.466,0.737,0.466c0.045,0,0.092,0,0.142-0.011
			c0.359-0.058,0.637-0.354,0.676-0.721l0.556-5.074C12.355,5.871,12.024,5.466,11.58,5.416z M9.898,11.901L9.43,12.548
			l-0.268,0.369l-0.375-0.272l-0.813-0.586l-0.068,0.018l-0.033-0.018c0,0.069,0,0.137-0.02,0.206
			c-0.011,0.065-0.034,0.129-0.064,0.19c-0.045,0.121-0.118,0.219-0.191,0.321l0.059,0.132c0.054,0.132,0.134,0.297,0.225,0.444
			l0.233,0.351H9.85L9.898,11.901z M6.603,13.276c-0.017,0-0.04-0.004-0.063-0.004c0,0.03-0.009,0.053-0.009,0.053l0.198,0.378
			h0.465l0.304-0.107c-0.104-0.157-0.184-0.332-0.265-0.508C7.041,13.201,6.836,13.276,6.603,13.276z M7.281,11.529
			C7.25,11.482,7.194,11.44,7.148,11.4c-0.025-0.028-0.045-0.063-0.085-0.084c-0.078-0.058-0.186-0.107-0.29-0.131l-0.354-0.073
			l-0.825-0.175l0,0l-0.73-0.157l-0.283-0.054l-0.459-0.104L4.088,10.62l0.081-0.083l0.316-0.313L4.821,9.89
			c0.026,0.234,0.041,0.411,0.041,0.416l0.11,0.025l1.016,0.219l0.209-0.212l3.151-3.159l-0.08-0.177l0.023-0.02
			C8.838,6.848,8.301,6.76,7.624,6.76h-0.22H7.182C6.706,6.76,6.228,6.8,5.76,6.9C4.948,7.086,4.449,7.878,3.901,8.417
			C3.33,8.978,2.777,9.561,2.226,10.138c-0.123,0.131-0.245,0.263-0.375,0.384c-0.208,0.221-0.288,0.532-0.208,0.822
			c0.087,0.287,0.323,0.502,0.624,0.573l1.086,0.234l0.464,0.098l2.62,0.558c0.058,0.01,0.113,0.017,0.169,0.017
			c0.383,0,0.728-0.257,0.808-0.655c0.029-0.155,0.007-0.29-0.041-0.426l-0.047-0.111C7.309,11.599,7.292,11.575,7.281,11.529z
			 M6.125,13.552l-0.078-0.152l0.043-0.165l0.004-0.029l-0.132-0.039l-0.457,0.537h0.702L6.125,13.552z"/>
	</g>
</g>
</svg>
