<?xml version="1.0" encoding="utf-8"?>
<!-- Generator: Adobe Illustrator 16.0.0, SVG Export Plug-In . SVG Version: 6.00 Build 0)  -->
<!DOCTYPE svg PUBLIC "-//W3C//DTD SVG 1.1//EN" "http://www.w3.org/Graphics/SVG/1.1/DTD/svg11.dtd">
<svg version="1.1" id="Groupe" xmlns="http://www.w3.org/2000/svg" xmlns:xlink="http://www.w3.org/1999/xlink" x="0px" y="0px"
	 width="15.871px" height="15.65px" viewBox="0 0 15.871 15.65" enable-background="new 0 0 15.871 15.65" xml:space="preserve">
<g id="PinColor_1_">
	<path id="vert" display="none" fill="#2ABF00" stroke="#1D7500" stroke-width="0.2" stroke-miterlimit="10" d="M15.256,7.876
		c0,3.346-2.395,6.151-5.625,6.896c-0.541,0.118-2.887,0.118-3.446-0.021c-3.198-0.759-5.569-3.548-5.569-6.877
		c0-3.904,3.28-7.08,7.32-7.08C11.975,0.793,15.256,3.969,15.256,7.876z"/>
	<path id="orange" display="none" fill="#FF8500" stroke="#7F4500" stroke-width="0.2" stroke-miterlimit="10" d="M15.256,7.876
		c0,3.346-2.395,6.151-5.625,6.896c-0.541,0.118-2.887,0.118-3.446-0.021c-3.198-0.759-5.569-3.548-5.569-6.877
		c0-3.904,3.28-7.08,7.32-7.08C11.975,0.793,15.256,3.969,15.256,7.876z"/>
	<path id="gris" fill="#A5A5A5" stroke="#595959" stroke-width="0.2" stroke-miterlimit="10" d="M15.256,7.876
		c0,3.346-2.395,6.151-5.625,6.896c-0.541,0.118-2.887,0.118-3.446-0.021c-3.198-0.759-5.569-3.548-5.569-6.877
		c0-3.904,3.28-7.08,7.32-7.08C11.975,0.793,15.256,3.969,15.256,7.876z"/>
	<path id="bleu" display="none" fill="#0092FF" stroke="#00477C" stroke-width="0.2" stroke-miterlimit="10" d="M15.256,7.876
		c0,3.346-2.395,6.151-5.625,6.896c-0.541,0.118-2.887,0.118-3.446-0.021c-3.198-0.759-5.569-3.548-5.569-6.877
		c0-3.904,3.28-7.08,7.32-7.08C11.975,0.793,15.256,3.969,15.256,7.876z"/>
</g>
<g id="IconsGroup">
	<g id="MinimalGroup" display="none">
		<path id="ElectionGroup" display="inline" fill="#565656" d="M13.248,3.003L9.619,1.452C9.518,1.41,9.381,1.436,9.316,1.527
			L8.275,2.824C8.229,2.876,8.211,2.966,8.229,3.04c0.017,0.078,0.063,0.132,0.132,0.165L5.109,4.43
			C4.837,4.524,4.599,4.718,4.45,4.971L3.375,6.763C3.147,7.142,3.124,7.61,3.327,8.007l0.081,0.152H2.271
			c-0.147,0-0.258,0.117-0.258,0.26v4.913H1.234c-0.14,0-0.253,0.12-0.253,0.259s0.117,0.259,0.253,0.259h8.798
			c0.144,0,0.254-0.12,0.254-0.259s-0.11-0.26-0.254-0.26H9.255v-2.64c0-0.083-0.047-0.171-0.112-0.215
			c-0.074-0.051-0.174-0.057-0.254-0.014c-0.283,0.131-0.498,0.198-0.591,0.229c-0.023,0-0.044,0.014-0.061,0.025l-1.686,1.005
			c-0.269,0.163-0.574,0.252-0.883,0.252c-0.583,0-1.104-0.287-1.435-0.771c-0.265-0.392-0.358-0.854-0.255-1.314
			C4.072,9.431,4.346,9.042,4.731,8.79L4.98,8.633C5.162,8.527,5.323,8.43,5.461,8.34C5.565,8.279,5.602,8.154,5.57,8.042
			C5.512,7.836,5.407,7.649,5.302,7.508c0.392-0.167,0.93-0.479,1.2-0.791l0,0C6.557,6.753,6.626,6.79,6.698,6.826
			c0.008,0,0.008,0,0.015,0.003l0,0c0.19,0.094,0.429,0.188,0.716,0.242C7.128,7.45,6.825,7.912,6.708,8.218
			c-0.202,0.099-0.652,0.341-1.69,1.007C4.743,9.396,4.551,9.676,4.49,9.998c-0.069,0.316-0.008,0.644,0.176,0.917
			c0.238,0.349,0.611,0.542,1.004,0.542c0.21,0,0.42-0.064,0.618-0.174l1.778-1.068c0.272-0.069,1.653-0.484,2.706-2.176
			c0.822-1.328,1.285-2.396,1.473-2.881l0.029,0.016c0.111,0.044,0.236,0.086,0.349,0.086c0.207,0,0.405-0.089,0.547-0.224
			c0.148-0.146,0.235-0.347,0.235-0.559V3.243C13.396,3.136,13.341,3.04,13.248,3.003z"/>
	</g>
	<g id="FaibleGroup" display="none">
		<path id="FamineGroup" display="inline" fill="#F9F9F9" d="M10.557,12.118L8.59,12.492L5.382,10.74l1.169-1.448l2.621,0.87
			L10.557,12.118z M13.578,8.704v0.225l-2.072,0.65l-2.041,0.29L6.84,8.999L6.22,8.704h0.355C6.492,7.927,6.376,7.332,6.322,6.554
			l0,0C6.319,6.537,6.289,6.019,6.286,5.801C6.247,5.559,6.135,5.469,5.768,5.216C5.565,5.093,5.414,5.047,5.337,5.047
			c-0.132,0-0.251,0.146-0.281,0.588c0.587,0.099,0.625,0.746,0.625,0.746c0.052,0.456-0.177,1.126-0.694,1.304
			C4.03,8.004,4.122,6.158,4.665,5.709C4.68,5.176,4.83,4.685,5.339,4.666c0.206,0,0.411,0.085,0.643,0.235
			c0.106,0.07,0.205,0.135,0.28,0.211c-0.009-0.18-0.016-0.359-0.016-0.548c0-0.391,0.059-0.807,0.407-1.107
			c0.176-0.166,0.373-0.256,0.575-0.251c0.51,0.028,0.824,0.469,1.015,0.92C8.452,4.029,8.725,3.99,9.03,4.097
			c0.792,0.269,1.224,1.651,0.894,2.125C9.141,7.344,7.181,5.265,7.695,4.534c0,0,0.08-0.097,0.213-0.21
			C7.751,3.926,7.449,3.571,7.224,3.593c-0.088,0-0.195,0.032-0.319,0.144c-0.218,0.197-0.28,0.467-0.28,0.828
			c0,0.256,0.033,0.537,0.033,0.815c0,0.148,0.009,0.277,0.012,0.421c0.038,0.25,0.038,0.438,0.038,0.705
			c0.059,0.77,0.364,1.407,0.452,2.198H13.578z M8.047,4.483l1.491,1.619C9.271,4.953,8.333,4.313,8.333,4.313L8.047,4.483z
			 M4.972,5.869l-0.265,0.11c0,0-0.13,0.907,0,1.377L4.972,5.869z M3.644,11.326l1.18-0.708l1.227-1.521l-0.38-0.393H2.953
			L2.412,9.791L3.644,11.326z M5.017,11.08l-2.088,1.426l0.273,0.345h4.815l-0.013-0.063L5.017,11.08z M0.718,8.704v1.646
			l1.333-0.718l0.411-0.928H0.718z M9.854,10.217l1.297,1.889l2.428,0.572v-2.159l-1.749-0.562L9.854,10.217z M13.578,10.05V9.292
			l-1.365,0.366L13.578,10.05z M2.089,10.159l-1.371,0.648v2.042h1.003l1.498-1.225L2.089,10.159z M9.283,12.85h3.143l-1.496-0.359
			L9.283,12.85z"/>
		<path id="CycloneGroup" display="inline" fill="#FFFFFF" d="M7.192,4.287c-0.069,0-0.133-0.011-0.2-0.011
			c-0.589,0-1.141,0.153-1.619,0.417c0.856-2.924,3.004-3.186,3.004-3.186S3.632,1.911,3.632,7.446c0.003,0,0.003,0,0.009,0
			c0,0.063-0.004,0.125-0.004,0.197c0,0.583,0.151,1.145,0.417,1.625c-2.93-0.867-3.183-3.01-3.183-3.01s0.399,4.747,5.936,4.747
			c0-0.004,0-0.004,0-0.013c0.064,0.006,0.125,0.013,0.194,0.013c0.59,0,1.143-0.153,1.625-0.418
			c-0.867,2.93-3.017,3.185-3.017,3.185s4.754-0.399,4.754-5.937c-0.008,0-0.008,0-0.008,0c0-0.068,0.008-0.134,0.008-0.196
			c0-0.592-0.15-1.146-0.42-1.629c2.93,0.86,3.191,3.013,3.191,3.013s-0.396-4.747-5.943-4.747C7.192,4.284,7.192,4.287,7.192,4.287
			z"/>
		<path id="eruptionGroup" display="inline" fill="#FFFFFF" d="M7.931,5.351c0.709,0.242,1.647,0.525,1.852-0.61
			c0.156-0.895,1.331-0.563,1.832-0.615c0.919-0.11,0.23-1.823-0.915-1.848C9.538,2.252,9.016,2.764,8.541,3.815
			c-0.213,0.506-0.4,0.886-1.224,0.615c-0.818-0.275-1.425,0.4-0.926,1.231c0.441,0.735-0.006,1.535-0.006,1.535h1.24
			c0,0-0.007-0.445-0.308-0.917C6.967,5.728,7.21,5.105,7.931,5.351z M1.374,13.006c3.186-2.321,3.983-5.524,3.983-5.524h3.268
			c0,0,0.791,3.204,3.977,5.524H1.374z"/>
		<path id="tsunamiGroup" display="inline" fill="#FFFFFF" d="M12.967,11.545c-9.78,0.56-7.042-6.914-4.516-6.271
			c-0.259,0.16-0.422,0.711-0.267,1.075C8.361,6.752,8.939,6.97,9.27,6.887c0.779-0.198,0.816-1.297,0.537-1.884
			C9.508,4.408,8.732,3.658,7.373,3.658c-3.263,0-5.504,1.67-6.343,4.541v4.226h11.937V11.545z"/>
		<path id="epidemieGroup" display="inline" fill="#FFFFFF" d="M12.096,8.135c0-2.795-2.188-5.066-4.94-5.207
			c1.219,0.111,2.163,1,2.163,2.074c0,0.368-0.125,0.71-0.32,1.01C8.449,5.473,7.702,5.14,6.871,5.14
			c-0.823,0-1.574,0.332-2.113,0.873c-0.189-0.3-0.316-0.643-0.316-1.01c0-1.074,0.94-1.961,2.164-2.074
			C3.853,3.075,1.667,5.345,1.667,8.136c0,0.839,0.207,1.634,0.561,2.34C1.739,9.375,2.035,8.133,2.953,7.607
			C3.275,7.423,3.626,7.352,3.99,7.368c-0.071,0.25-0.115,0.504-0.115,0.775c0,1.387,0.945,2.544,2.229,2.891
			c-0.023,0.026-0.048,0.055-0.064,0.09v0.002c-0.042,0.09-0.091,0.172-0.155,0.239c-0.14,0.18-0.296,0.343-0.502,0.455
			c-0.922,0.534-2.147,0.165-2.862-0.817c0.933,1.419,2.531,2.354,4.357,2.354c1.806,0,3.39-0.919,4.338-2.313
			c-0.729,0.952-1.93,1.307-2.84,0.78c-0.321-0.188-0.552-0.466-0.713-0.792c1.272-0.347,2.213-1.507,2.213-2.89
			c0-0.266-0.037-0.521-0.099-0.772c0.363-0.019,0.721,0.053,1.041,0.24c0.893,0.513,1.199,1.691,0.759,2.767
			C11.908,9.7,12.096,8.939,12.096,8.135z M7.43,10.142C7.407,9.707,7.501,9.259,7.718,8.821L7.372,8.622
			C7.248,8.756,7.069,8.833,6.879,8.833c-0.196,0-0.373-0.079-0.502-0.208L6.04,8.818c0.222,0.431,0.311,0.889,0.286,1.328
			C5.443,9.898,4.788,9.103,4.788,8.144c0-0.184,0.033-0.356,0.079-0.521c0.385,0.192,0.737,0.499,1.002,0.899l0.353-0.204
			c-0.015-0.059-0.04-0.117-0.04-0.18c0-0.326,0.224-0.588,0.527-0.662V7.069c-0.489-0.034-0.922-0.18-1.286-0.42
			C5.79,6.28,6.308,6.052,6.87,6.052c0.563,0,1.089,0.234,1.464,0.603C7.968,6.895,7.53,7.043,7.051,7.077v0.4
			c0.294,0.077,0.52,0.336,0.52,0.662c0,0.063-0.017,0.121-0.033,0.177l0.352,0.2c0.262-0.401,0.617-0.703,1-0.897
			c0.037,0.169,0.076,0.338,0.076,0.518C8.962,9.103,8.312,9.896,7.43,10.142z"/>
		<path id="earthquakeGroup" display="inline" fill="#FFFFFF" d="M10.473,8.01c-0.164,0-0.322,0.094-0.398,0.247L9.421,9.476
			L8.623,7.124c-0.066-0.177-0.23-0.298-0.417-0.306C8.007,6.815,7.845,6.926,7.774,7.102L7.224,8.4L6.353,3.191
			c-0.038-0.215-0.248-0.38-0.452-0.367c-0.23,0.007-0.412,0.152-0.443,0.371L4.691,9.233L4.066,5.996
			C4.033,5.807,3.877,5.66,3.679,5.635C3.492,5.612,3.302,5.711,3.208,5.882L2.189,8.01H0.615v0.905h1.869
			c0.171,0,0.332-0.095,0.409-0.254l0.548-1.141l0.885,4.601c0.042,0.208,0.232,0.361,0.44,0.361c0.009,0,0.013,0,0.016,0
			c0.226-0.006,0.41-0.168,0.437-0.392l0.755-5.938l0.633,3.903c0.037,0.203,0.194,0.354,0.395,0.381
			c0.207,0.017,0.392-0.09,0.47-0.272l0.68-1.615l0.754,2.223c0.063,0.168,0.211,0.28,0.393,0.297
			c0.184,0.013,0.352-0.079,0.436-0.237l1.014-1.919h1.941V8.01H10.473z"/>
	</g>
	<g id="ModereGroup" display="none">
		<path id="displacedGroup" display="inline" fill="#FFFFFF" d="M7.136,3.04C7.232,3.646,6.823,4.215,6.22,4.317
			c-0.604,0.105-1.185-0.31-1.28-0.909C4.845,2.797,5.25,2.219,5.859,2.126C6.466,2.019,7.036,2.435,7.136,3.04z M6.791,7.453
			l0.983,1.571c0.142,0.223,0.432,0.295,0.659,0.16C8.659,9.053,8.732,8.77,8.605,8.533L8.361,8.088
			c-0.22-0.392-0.43-0.78-0.65-1.164L7.273,6.125C7.224,6.03,7.177,5.931,7.125,5.818C6.856,5.255,6.436,4.377,5.509,4.455
			c-0.795,0.069-1.6,0.45-2.388,1.12C2.185,6.312,1.528,7.38,1.508,7.434C1.476,7.477,1.443,7.525,1.423,7.566c0,0,0,0-0.007,0.002
			l0,0c-0.085,0.169-0.129,0.32-0.024,0.516c0.09,0.145,0.253,0.243,0.425,0.243c0.211,0,0.318-0.104,0.422-0.25l0,0l0,0
			C2.27,8.034,2.299,7.985,2.326,7.94c0.004-0.01,0.553-0.898,1.41-1.615c0.256-0.205,0.51-0.347,0.742-0.421L4.291,8.185
			C4.27,8.41,4.196,8.805,4.137,9.024l-0.426,1.494c-0.051,0.185-0.215,0.502-0.336,0.65l-1.15,1.424
			c-0.148,0.188-0.313,0.392-0.181,0.677c0.083,0.169,0.253,0.272,0.443,0.272c0.219,0,0.341-0.13,0.494-0.295l1.164-1.253
			c0.206-0.225,0.475-0.616,0.614-0.887l0.577-1.176l2.14,3.592c0.104,0.176,0.24,0.399,0.528,0.399l0,0
			c0.166,0,0.318-0.088,0.41-0.223c0.154-0.239,0.045-0.454-0.04-0.653L6.636,9.292C6.568,9.147,6.533,8.845,6.558,8.685
			L6.791,7.453z M8.598,11.362h2.588v0.767l2.581-1.484l-2.581-1.485v0.771H8.598V11.362z"/>
		<path id="returnedGroup" display="inline" fill="#FFFFFF" d="M7.139,3.04C7.232,3.646,6.827,4.215,6.22,4.317
			C5.616,4.42,5.035,4.008,4.944,3.4C4.845,2.794,5.25,2.219,5.86,2.124C6.466,2.019,7.036,2.43,7.139,3.04z M6.791,7.45
			l0.983,1.575c0.142,0.224,0.432,0.29,0.659,0.161C8.659,9.05,8.732,8.77,8.605,8.533L8.361,8.085
			c-0.217-0.389-0.43-0.777-0.643-1.163L7.273,6.125C7.224,6.03,7.181,5.931,7.125,5.818C6.856,5.255,6.436,4.372,5.509,4.455
			C4.72,4.52,3.913,4.897,3.121,5.567C2.183,6.312,1.525,7.38,1.505,7.429C1.476,7.477,1.443,7.52,1.423,7.566L1.416,7.568l0,0
			c-0.085,0.169-0.129,0.32-0.024,0.516C1.482,8.228,1.645,8.33,1.817,8.33c0.211,0,0.318-0.104,0.419-0.25l0,0l0,0
			c0.027-0.048,0.059-0.095,0.089-0.142C2.331,7.931,2.88,7.047,3.729,6.326c0.264-0.209,0.518-0.351,0.75-0.428L4.291,8.185
			C4.27,8.41,4.196,8.805,4.137,9.024l-0.426,1.494c-0.052,0.188-0.216,0.502-0.344,0.649l-1.142,1.425
			c-0.148,0.188-0.313,0.392-0.181,0.677c0.083,0.169,0.253,0.272,0.443,0.272c0.219,0,0.341-0.13,0.494-0.295l1.164-1.253
			c0.206-0.225,0.475-0.616,0.605-0.887l0.583-1.176l2.137,3.592c0.101,0.176,0.246,0.399,0.53,0.399l0,0
			c0.164,0,0.317-0.088,0.415-0.229c0.146-0.232,0.042-0.451-0.041-0.643l-1.736-3.76c-0.062-0.145-0.1-0.446-0.08-0.606L6.791,7.45
			z M13.993,8.254c0-1.571-1.279-2.843-2.847-2.843H9.941v1.431h1.209c0.771,0,1.408,0.63,1.408,1.412
			c0,0.769-0.623,1.407-1.408,1.407h-0.254V8.888l-2.574,1.486l2.574,1.49v-0.77h0.283l0,0C12.732,11.071,13.993,9.808,13.993,8.254
			z"/>
	</g>
	<g id="ImportantGroup" display="none">
		<path id="enlevementGroup" display="inline" fill="#FFFFFF" d="M12.448,1.111c-0.386,0-0.688,0.31-0.688,0.688v2.807
			c0.172,0.035,0.327,0.103,0.461,0.232c0.361,0.356,0.369,0.949,0.018,1.31L10.93,7.493l-0.183-0.177l1.308-1.336
			c0.254-0.273,0.252-0.702-0.016-0.962c-0.081-0.086-0.178-0.145-0.289-0.171c-0.115-0.033-0.227-0.033-0.336-0.009
			c-0.137,0.028-0.244,0.093-0.33,0.188c-0.777,0.794-1.553,1.592-2.33,2.393C8.557,7.613,8.206,8.06,8.211,8.523
			c0.007,0.428,0,0.868,0,1.298c-0.099-0.085-0.218-0.142-0.36-0.168c-0.402-0.071-0.759,0.174-0.896,0.529H6.753
			c0-0.095,0-0.196,0-0.295c0.009-0.443-0.007-0.914,0-1.364c0.016-0.454-0.344-0.91-0.535-1.101
			c-0.775-0.804-1.547-1.602-2.325-2.4c-0.088-0.09-0.204-0.155-0.328-0.184c-0.114-0.027-0.23-0.024-0.344,0.009
			c-0.107,0.026-0.21,0.085-0.286,0.168c-0.27,0.261-0.278,0.688-0.021,0.962l1.31,1.336l-0.176,0.18L2.742,6.147
			c-0.354-0.358-0.345-0.953,0.015-1.31C2.89,4.713,3.046,4.645,3.209,4.606V1.8c0-0.381-0.311-0.688-0.689-0.688
			c-0.385,0-0.69,0.31-0.69,0.688v4.857c0,0.159,0.063,0.305,0.155,0.422l2.349,3.093H4.131c-0.458,0-0.828,0.373-0.828,0.835
			c0,0.305,0.17,0.557,0.419,0.7c-0.244,0.148-0.419,0.402-0.419,0.697c0,0.462,0.37,0.832,0.828,0.832h0.251v0.46h2.305
			c0.118,0.122,0.26,0.207,0.43,0.241c0.052,0.017,0.092,0.02,0.14,0.02c0.409,0,0.753-0.288,0.823-0.691v-0.019h0.148
			c0,0.149,0,0.302,0.017,0.461h2.336v-0.461h0.254c0.451,0,0.826-0.371,0.826-0.828c0-0.3-0.169-0.563-0.42-0.708
			c0.251-0.146,0.42-0.396,0.42-0.7c0-0.458-0.376-0.833-0.826-0.833h-0.204l2.344-3.093c0.102-0.12,0.162-0.261,0.162-0.422V1.808
			C13.137,1.421,12.829,1.111,12.448,1.111z M3.711,11.009c0-0.229,0.189-0.412,0.419-0.412h2.723l-0.146,0.831H4.13
			C3.901,11.422,3.711,11.237,3.711,11.009z M3.711,12.419c0-0.234,0.189-0.421,0.419-0.421h2.477l-0.141,0.834H4.131
			C3.901,12.832,3.711,12.648,3.711,12.419z M7.667,13.197C7.63,13.426,7.39,13.57,7.189,13.538
			c-0.113-0.015-0.205-0.077-0.268-0.169c-0.065-0.089-0.086-0.197-0.068-0.313l0.455-2.657c0.037-0.202,0.21-0.346,0.414-0.346
			c0.028,0,0.049,0,0.069,0.004c0.229,0.048,0.38,0.254,0.337,0.482L7.667,13.197z M11.257,12.419c0,0.229-0.18,0.413-0.415,0.413
			H8.148l0.141-0.834h2.553C11.07,12.003,11.257,12.188,11.257,12.419z M11.257,11.009c0,0.228-0.18,0.416-0.415,0.416H8.391
			l0.139-0.809c0-0.005,0-0.012,0-0.018h2.311C11.07,10.597,11.257,10.786,11.257,11.009z"/>
	</g>
	<g id="EleveGroup">
		<path id="attackGroup" fill="#FFFFFF" d="M10.213,8.59l3.183-2.046l-3.081-0.325l0.84-3.571L8.977,4.905L8.361,2.348L7.449,4.729
			L4.953,1.512l0.783,4.032L3.515,5.049c0,0,0.676,1.29,1.053,2.07l-3.562-0.25l3.223,1.886L3.309,9.7l1.494-0.269L3.744,13.18
			l3.15-2.639l0.824,2.041l0.838-1.626l2.715,2.804l-1.362-3.76l2.983,0.306L10.213,8.59z"/>
	</g>
	<g id="ExtremeGroup" display="none">
		<path id="rebelionGroup" display="inline" fill="#FFFFFF" d="M9.413,3.836c0,1.297-1.056,2.347-2.344,2.347
			c-1.302,0-2.355-1.05-2.355-2.347c0-1.303,1.053-2.35,2.355-2.35C8.361,1.486,9.413,2.534,9.413,3.836z M3.147,13.793h1.43h0.08
			l0.054-0.111l0.52-0.508l-0.49-0.105l-0.756-0.163L3.147,13.793z M12.969,4.269l-0.503,0.507l0.032,0.035l-0.411,0.404
			c0.06,0.055,0.11,0.106,0.157,0.164l0.411-0.412l0.084,0.075l0.493-0.505L12.969,4.269z M9.729,6.874L9.508,7.093l0.024,0.059
			l0.055,0.12l-3.424,3.431l0.365,0.087c0.341,0.069,0.63,0.269,0.823,0.565c0.026,0.038,0.035,0.088,0.053,0.132l0.007-0.011
			l0.252,0.165l0.089-0.021l0.996,0.723l0.676-0.917L7.931,10.26l0.039-0.096h0.255l1.457-1.713l0.164-1.535L9.729,6.874z
			 M11.32,5.355c-0.448-0.046-0.879,0.287-0.926,0.746L10.33,6.602l0,0l-0.029,0.36l-0.166,1.534L10.12,8.641l-0.087,0.105
			l-1.309,1.54l0.979,0.765l0.36,0.277l-0.211,0.283l0.056,0.098c0.131,0.294,0.431,0.473,0.75,0.473c0.046,0,0.094,0,0.144-0.01
			c0.366-0.06,0.649-0.36,0.688-0.733l0.563-5.166C12.109,5.818,11.773,5.407,11.32,5.355z M9.609,11.958l-0.479,0.658l-0.273,0.376
			l-0.379-0.277l-0.83-0.597L7.58,12.135l-0.033-0.017c0,0.07,0,0.14-0.021,0.21c-0.011,0.064-0.034,0.132-0.064,0.192
			c-0.048,0.123-0.122,0.223-0.195,0.329l0.06,0.133c0.054,0.135,0.136,0.303,0.228,0.452l0.237,0.358h1.767L9.609,11.958z
			 M6.253,13.357c-0.017,0-0.042-0.004-0.063-0.004c0,0.031-0.009,0.054-0.009,0.054l0.202,0.386h0.473l0.309-0.111
			c-0.106-0.158-0.188-0.337-0.271-0.516C6.699,13.28,6.492,13.357,6.253,13.357z M6.944,11.58c-0.032-0.05-0.088-0.092-0.134-0.133
			c-0.026-0.028-0.046-0.063-0.087-0.085c-0.08-0.059-0.19-0.108-0.296-0.133l-0.36-0.075l-0.84-0.177l0,0l-0.743-0.16l-0.288-0.055
			l-0.467-0.107l-0.033-0.003l0.082-0.084l0.323-0.316l0.341-0.34c0.025,0.237,0.039,0.418,0.039,0.422l0.112,0.024l1.035,0.225
			l0.213-0.217l3.207-3.217l-0.082-0.18l0.023-0.02c-0.46-0.137-1.007-0.227-1.697-0.227H7.069H6.843
			c-0.485,0-0.971,0.039-1.448,0.143C4.568,7.053,4.06,7.86,3.504,8.409C2.921,8.98,2.36,9.576,1.797,10.163
			c-0.125,0.133-0.249,0.267-0.381,0.391c-0.213,0.223-0.293,0.541-0.213,0.836c0.089,0.293,0.329,0.513,0.635,0.584l1.106,0.239
			l0.473,0.098l2.667,0.568c0.059,0.01,0.116,0.018,0.171,0.018c0.39,0,0.741-0.262,0.823-0.668
			c0.031-0.156,0.009-0.294-0.041-0.432L6.99,11.682C6.972,11.65,6.956,11.626,6.944,11.58z M5.768,13.637l-0.079-0.154l0.044-0.168
			l0.003-0.03l-0.134-0.038l-0.465,0.546h0.714L5.768,13.637z"/>
	</g>
</g>
</svg>
