<?xml version="1.0" encoding="utf-8"?>
<!-- Generator: Adobe Illustrator 16.0.0, SVG Export Plug-In . SVG Version: 6.00 Build 0)  -->
<!DOCTYPE svg PUBLIC "-//W3C//DTD SVG 1.1//EN" "http://www.w3.org/Graphics/SVG/1.1/DTD/svg11.dtd">
<svg version="1.1" id="Layer_1" xmlns="http://www.w3.org/2000/svg" xmlns:xlink="http://www.w3.org/1999/xlink" x="0px" y="0px"
	 width="33.35px" height="40px" viewBox="0 0 33.35 40" enable-background="new 0 0 33.35 40" xml:space="preserve">
<g id="PinColor">
	<path id="PinOmbre" opacity="0.3" enable-background="new    " d="M28.728,30.679c0,1.798-3.945,3.308-9.262,3.706
		c-0.895,0.068-2.792,4.285-2.792,4.285s-1.962-4.221-2.888-4.291c-5.26-0.41-9.165-1.913-9.165-3.7
		c0-2.104,5.397-3.812,12.053-3.812C23.331,26.867,28.728,28.57,28.728,30.679z"/>
	<path id="PinFaible" display="none" fill="#2ABF00" stroke="#1D7500" stroke-width="0.2" stroke-miterlimit="10" d="M28.728,12.99
		c0,5.507-3.945,10.125-9.262,11.345c-0.895,0.202-2.792,13.115-2.792,13.115s-1.961-12.913-2.887-13.142
		c-5.26-1.248-9.165-5.846-9.165-11.322c0-6.438,5.397-11.657,12.053-11.657C23.331,1.329,28.728,6.552,28.728,12.99z"/>
	<path id="PinImportant" fill="#FF8500" stroke="#BF3A00" stroke-width="0.2" stroke-miterlimit="10" d="M28.728,12.99
		c0,5.507-3.945,10.125-9.262,11.345c-0.895,0.202-2.792,13.115-2.792,13.115s-1.961-12.913-2.887-13.142
		c-5.26-1.248-9.165-5.846-9.165-11.322c0-6.438,5.397-11.657,12.053-11.657C23.331,1.329,28.728,6.552,28.728,12.99z"/>
	<path id="orange" display="none" fill="#A3A3A3" stroke="#444444" stroke-width="0.2" stroke-miterlimit="10" d="M28.728,12.99
		c0,5.507-3.945,10.125-9.262,11.345c-0.895,0.202-2.792,13.115-2.792,13.115s-1.961-12.913-2.887-13.142
		c-5.26-1.248-9.165-5.846-9.165-11.322c0-6.438,5.397-11.657,12.053-11.657C23.331,1.329,28.728,6.552,28.728,12.99z"/>
	<path id="bleu" display="none" fill="#0092FF" stroke="#333333" stroke-width="0.2" stroke-miterlimit="10" d="M28.728,12.99
		c0,5.507-3.945,10.125-9.262,11.345c-0.895,0.202-2.792,13.115-2.792,13.115s-1.961-12.913-2.887-13.142
		c-5.26-1.248-9.165-5.846-9.165-11.322c0-6.438,5.397-11.657,12.053-11.657C23.331,1.329,28.728,6.552,28.728,12.99z"/>
</g>
<g id="Icons">
	<g id="Minimal" display="none">
		<path id="Election" display="inline" fill="#565656" d="M25.579,5.907l-5.273-2.261c-0.156-0.067-0.338-0.021-0.441,0.112
			l-1.512,1.886c-0.064,0.084-0.092,0.204-0.07,0.314C18.308,6.062,18.374,6.15,18.47,6.2l-4.727,1.773
			c-0.402,0.15-0.737,0.43-0.957,0.795l-1.564,2.608c-0.333,0.554-0.357,1.232-0.069,1.81l0.115,0.221H9.616
			c-0.209,0-0.378,0.168-0.378,0.377v7.155h-1.13c-0.209,0-0.373,0.168-0.373,0.375c0,0.209,0.164,0.377,0.373,0.377h12.809
			c0.207,0,0.367-0.168,0.367-0.377c0-0.207-0.16-0.375-0.367-0.375h-1.135v-3.85c0-0.127-0.07-0.251-0.176-0.316
			c-0.111-0.069-0.244-0.079-0.363-0.025c-0.414,0.195-0.717,0.294-0.865,0.336c-0.029,0.008-0.059,0.019-0.086,0.041l-2.453,1.47
			c-0.391,0.234-0.835,0.359-1.288,0.359c-0.836,0-1.613-0.416-2.09-1.121c-0.378-0.564-0.507-1.246-0.369-1.91
			c0.145-0.664,0.539-1.233,1.105-1.599l0.357-0.225c0.262-0.157,0.493-0.305,0.703-0.432c0.145-0.089,0.21-0.268,0.16-0.43
			c-0.091-0.301-0.25-0.572-0.395-0.778c0.572-0.252,1.353-0.699,1.743-1.155c0,0,0.004,0.003,0.007,0.003
			c0.083,0.05,0.179,0.102,0.287,0.155c0.009,0.002,0.012,0.005,0.021,0.008l0,0c0.281,0.136,0.638,0.271,1.045,0.352
			c-0.438,0.545-0.883,1.221-1.048,1.672c-0.312,0.138-0.958,0.504-2.473,1.469c-0.4,0.254-0.676,0.65-0.769,1.115
			c-0.101,0.467-0.013,0.941,0.255,1.338c0.337,0.507,0.89,0.786,1.461,0.786c0.307,0,0.621-0.082,0.898-0.25l2.588-1.555
			c0.4-0.098,2.416-0.702,3.943-3.167c1.193-1.933,1.865-3.491,2.143-4.196l0.045,0.024c0.158,0.077,0.332,0.117,0.504,0.117
			c0.285,0,0.574-0.116,0.785-0.316c0.225-0.211,0.344-0.501,0.344-0.812V6.255C25.802,6.102,25.716,5.965,25.579,5.907z"/>
	</g>
	<g id="Faible" display="none">
		<path id="Famine" display="inline" fill="#F9F9F9" d="M22.189,19.774l-2.994,0.566l-4.887-2.657l1.774-2.217l4,1.327
			L22.189,19.774z M26.79,14.578v0.333l-3.156,0.999l-3.109,0.442l-3.999-1.33l-0.94-0.444h0.537
			c-0.127-1.188-0.299-2.09-0.382-3.269h-0.005c-0.002-0.036-0.043-0.826-0.056-1.162c-0.062-0.355-0.229-0.497-0.785-0.877
			c-0.303-0.197-0.529-0.267-0.657-0.265c-0.204,0-0.385,0.22-0.427,0.886c0.89,0.151,0.949,1.136,0.949,1.136
			c0.079,0.7-0.266,1.722-1.057,1.987c-1.464,0.488-1.313-2.331-0.488-3.008c0.021-0.813,0.25-1.557,1.021-1.588
			c0.307,0.004,0.62,0.129,0.979,0.358c0.172,0.103,0.313,0.209,0.436,0.317c-0.015-0.268-0.033-0.541-0.033-0.823
			c-0.001-0.592,0.092-1.237,0.619-1.695c0.269-0.245,0.572-0.372,0.873-0.37c0.783,0.039,1.267,0.711,1.548,1.402
			c0.33-0.146,0.74-0.215,1.211-0.05c1.203,0.417,1.854,2.514,1.35,3.247c-1.186,1.702-4.172-1.47-3.383-2.576
			c0,0,0.117-0.15,0.32-0.315c-0.23-0.612-0.697-1.158-1.046-1.12c-0.132,0.003-0.286,0.047-0.483,0.223
			c-0.333,0.292-0.419,0.708-0.419,1.256c0,0.385,0.045,0.812,0.045,1.24c0,0.224,0.016,0.42,0.023,0.635
			c0.052,0.382,0.056,0.676,0.052,1.078c0.082,1.175,0.559,2.141,0.684,3.353H26.79L26.79,14.578z M18.374,8.144l2.262,2.464
			c-0.4-1.747-1.836-2.721-1.836-2.721L18.374,8.144z M13.688,10.259l-0.404,0.167c0,0-0.203,1.377,0,2.097L13.688,10.259z
			 M11.661,18.571l1.798-1.08l1.875-2.318l-0.585-0.595h-4.142l-0.822,1.641L11.661,18.571z M13.759,18.2l-3.186,2.168l0.425,0.524
			h7.333l-0.027-0.106L13.759,18.2z M7.204,14.578v2.501l2.042-1.094l0.619-1.407H7.204z M21.116,16.887l1.975,2.864l3.699,0.869
			v-3.278l-2.662-0.857L21.116,16.887z M26.79,16.626v-1.158l-2.076,0.561L26.79,16.626z M9.296,16.787l-2.093,0.996v3.109h1.531
			l2.278-1.867L9.296,16.787z M20.251,20.893h4.785l-2.291-0.553L20.251,20.893z"/>
		<path id="Cyclone" display="inline" fill="#FFFFFF" d="M17.072,7.851c-0.102-0.004-0.201-0.018-0.302-0.018
			c-0.899,0-1.741,0.234-2.477,0.637c1.313-4.466,4.584-4.855,4.584-4.855s-7.229,0.602-7.229,9.037c0.005,0,0.01,0,0.015,0
			c-0.005,0.102-0.015,0.2-0.015,0.304c0,0.893,0.231,1.738,0.639,2.475C7.821,14.118,7.43,10.85,7.43,10.85s0.602,7.23,9.039,7.23
			c0-0.007,0-0.009,0-0.017c0.099,0.004,0.198,0.016,0.3,0.016c0.898,0,1.742-0.234,2.476-0.64
			c-1.313,4.467-4.584,4.859-4.584,4.859s7.229-0.604,7.229-9.04c-0.006,0-0.008,0-0.014,0c0.006-0.101,0.014-0.199,0.014-0.3
			c0-0.898-0.234-1.743-0.641-2.475c4.469,1.31,4.859,4.583,4.859,4.583s-0.602-7.231-9.038-7.231
			C17.072,7.841,17.072,7.847,17.072,7.851z"/>
		<path id="eruption" display="inline" fill="#FFFFFF" d="M18.197,9.47c1.076,0.368,2.504,0.802,2.807-0.935
			c0.242-1.351,2.045-0.85,2.811-0.937c1.398-0.16,0.342-2.773-1.404-2.811c-1.77-0.039-2.574,0.736-3.277,2.341
			c-0.338,0.774-0.625,1.354-1.875,0.939c-1.248-0.418-2.167,0.608-1.405,1.874c0.673,1.117-0.012,2.34-0.012,2.34h1.887
			c0,0-0.016-0.695-0.471-1.405C16.728,10.048,17.093,9.091,18.197,9.47z M8.211,21.125c4.85-3.531,6.062-8.415,6.062-8.415h4.979
			c0,0,1.211,4.883,6.057,8.415H8.211z"/>
		<path id="tsunami" display="inline" fill="#FFFFFF" d="M25.853,18.907C10.974,19.749,15.13,8.368,18.99,9.352
			c-0.398,0.242-0.654,1.079-0.408,1.642c0.271,0.605,1.141,0.949,1.641,0.824c1.199-0.31,1.254-1.991,0.82-2.875
			c-0.447-0.92-1.631-2.053-3.693-2.053c-4.982,0-8.381,2.545-9.661,6.919v6.431h18.167L25.853,18.907L25.853,18.907z"/>
		<path id="epidemie" display="inline" fill="#FFFFFF" d="M24.531,13.711c0-4.253-3.332-7.714-7.529-7.93
			c1.855,0.177,3.296,1.521,3.296,3.159c0,0.562-0.186,1.081-0.486,1.539c-0.828-0.826-1.967-1.334-3.227-1.334
			c-1.257,0-2.396,0.508-3.219,1.332c-0.297-0.458-0.485-0.976-0.485-1.541c0-1.634,1.443-2.981,3.294-3.158
			c-4.194,0.216-7.526,3.679-7.526,7.933c0,1.283,0.312,2.493,0.849,3.566c-0.736-1.679-0.291-3.568,1.11-4.377
			c0.487-0.281,1.034-0.381,1.576-0.352c-0.105,0.375-0.173,0.765-0.173,1.173c0,2.113,1.444,3.876,3.391,4.4
			c-0.026,0.046-0.057,0.089-0.083,0.134c0,0.003,0,0.003,0,0.01c-0.063,0.146-0.147,0.262-0.244,0.362
			c-0.208,0.275-0.45,0.518-0.76,0.697c-1.406,0.812-3.279,0.248-4.359-1.248c1.422,2.158,3.861,3.586,6.634,3.586
			c2.749,0,5.167-1.397,6.594-3.521c-1.088,1.448-2.924,1.981-4.311,1.187c-0.492-0.289-0.85-0.714-1.092-1.21
			c1.945-0.525,3.379-2.291,3.379-4.399c0-0.407-0.064-0.796-0.168-1.172c0.551-0.036,1.096,0.065,1.586,0.349
			c1.359,0.784,1.822,2.585,1.172,4.23C24.247,16.089,24.531,14.935,24.531,13.711z M17.433,16.769
			c-0.033-0.662,0.105-1.356,0.436-2.012l-0.529-0.304c-0.19,0.196-0.455,0.317-0.75,0.317c-0.294,0-0.561-0.121-0.752-0.317
			L15.32,14.75c0.331,0.661,0.47,1.361,0.435,2.021c-1.344-0.368-2.341-1.592-2.341-3.05c0-0.28,0.044-0.543,0.113-0.799
			c0.586,0.296,1.119,0.76,1.525,1.37l0.531-0.309c-0.022-0.09-0.057-0.176-0.057-0.273c0-0.492,0.338-0.889,0.794-1.007v-0.604
			c-0.736-0.048-1.405-0.278-1.959-0.639c0.574-0.566,1.357-0.914,2.222-0.914c0.867,0,1.654,0.351,2.228,0.916
			c-0.553,0.363-1.225,0.589-1.959,0.637v0.605c0.456,0.118,0.793,0.517,0.793,1.006c0,0.1-0.031,0.184-0.053,0.274l0.539,0.315
			c0.406-0.611,0.939-1.072,1.521-1.368c0.063,0.252,0.111,0.516,0.111,0.79C19.765,15.177,18.775,16.397,17.433,16.769z"/>
		<path id="earthquake" display="inline" fill="#FFFFFF" d="M22.066,13.517c-0.256,0-0.488,0.141-0.609,0.369l-0.994,1.868
			l-1.221-3.584c-0.096-0.271-0.346-0.454-0.629-0.467c-0.295-0.008-0.549,0.159-0.662,0.423l-0.839,1.991L15.79,6.185
			c-0.063-0.329-0.374-0.583-0.695-0.565c-0.338,0.007-0.62,0.232-0.665,0.57l-1.173,9.201l-0.947-4.939
			c-0.054-0.29-0.292-0.515-0.588-0.554c-0.292-0.041-0.584,0.118-0.71,0.386l-1.554,3.233H7.049v1.378h2.844
			c0.265,0,0.509-0.154,0.624-0.39l0.834-1.737l1.345,7.006c0.063,0.325,0.346,0.561,0.679,0.561c0.004,0,0.011,0,0.018,0
			c0.336-0.009,0.617-0.264,0.664-0.599l1.153-9.043l0.961,5.952c0.057,0.301,0.3,0.528,0.605,0.563
			c0.307,0.028,0.595-0.138,0.714-0.42l1.033-2.458l1.152,3.375c0.088,0.262,0.32,0.445,0.596,0.469
			c0.273,0.015,0.537-0.121,0.668-0.366l1.541-2.912h2.959v-1.379H22.066z"/>
	</g>
	<g id="Modéré" display="none">
		<path id="displaced" display="inline" fill="#FFFFFF" d="M16.254,6.334c0.123,0.765-0.394,1.484-1.151,1.609
			c-0.763,0.127-1.486-0.393-1.611-1.15c-0.125-0.769,0.387-1.49,1.154-1.613C15.406,5.053,16.129,5.569,16.254,6.334z
			 M15.817,11.888l1.241,1.979c0.173,0.278,0.539,0.367,0.822,0.203c0.285-0.169,0.383-0.53,0.227-0.817l-0.316-0.572
			c-0.273-0.487-0.541-0.975-0.815-1.464l-0.551-1c-0.063-0.118-0.126-0.25-0.189-0.385c-0.339-0.714-0.869-1.818-2.033-1.717
			c-1,0.087-2.01,0.56-3.002,1.405c-1.178,0.932-2.002,2.278-2.036,2.339c-0.04,0.058-0.074,0.119-0.105,0.177
			c-0.005,0-0.005,0.002-0.007,0.005l0,0c-0.108,0.207-0.164,0.397-0.024,0.641c0.106,0.191,0.312,0.31,0.528,0.31
			c0.266,0,0.401-0.126,0.53-0.315l0,0c0.002,0,0.002-0.004,0.002-0.004c0.041-0.056,0.074-0.114,0.114-0.179
			c0.007-0.015,0.7-1.125,1.766-2.033c0.329-0.258,0.645-0.436,0.94-0.532l-0.238,2.88c-0.023,0.288-0.112,0.777-0.192,1.054
			l-0.535,1.878c-0.071,0.237-0.272,0.63-0.428,0.824l-1.449,1.795c-0.186,0.229-0.392,0.486-0.22,0.842
			c0.105,0.212,0.315,0.344,0.551,0.344c0.279,0,0.432-0.158,0.622-0.366l1.466-1.582c0.262-0.282,0.603-0.772,0.772-1.119
			l0.723-1.476l2.692,4.521c0.129,0.224,0.298,0.499,0.662,0.499l0,0c0.209,0,0.4-0.106,0.512-0.278
			c0.195-0.301,0.064-0.571-0.049-0.815l-2.172-4.726c-0.084-0.185-0.131-0.565-0.096-0.768L15.817,11.888z M18.097,16.807h3.258
			v0.968l3.238-1.871l-3.238-1.872V15h-3.258V16.807z"/>
		<path id="returned" display="inline" fill="#FFFFFF" d="M16.257,6.332c0.122,0.763-0.396,1.484-1.154,1.609
			c-0.765,0.126-1.485-0.392-1.609-1.155c-0.125-0.765,0.388-1.483,1.155-1.609C15.406,5.051,16.134,5.567,16.257,6.332z
			 M15.819,11.884l1.24,1.983c0.172,0.276,0.542,0.367,0.825,0.201c0.281-0.169,0.379-0.531,0.223-0.82L17.79,12.68
			c-0.271-0.485-0.539-0.977-0.81-1.465l-0.552-1.004c-0.064-0.112-0.127-0.244-0.19-0.382c-0.342-0.714-0.874-1.817-2.036-1.714
			c-1,0.084-2.007,0.558-3.002,1.403c-1.176,0.931-2.002,2.28-2.04,2.336c-0.036,0.061-0.07,0.121-0.102,0.179
			c-0.001,0.003-0.006,0.003-0.006,0.005l0,0c-0.109,0.21-0.164,0.4-0.025,0.642c0.106,0.192,0.309,0.309,0.528,0.309
			c0.266,0,0.401-0.125,0.53-0.314l0,0c0.003-0.002,0.003-0.002,0.003-0.002c0.037-0.058,0.074-0.118,0.113-0.182
			c0.007-0.011,0.7-1.119,1.767-2.031c0.33-0.257,0.644-0.437,0.94-0.535L12.67,12.81c-0.023,0.287-0.112,0.776-0.192,1.053
			l-0.535,1.878c-0.071,0.237-0.272,0.63-0.431,0.824l-1.446,1.795c-0.186,0.229-0.392,0.486-0.22,0.844
			c0.102,0.209,0.315,0.345,0.549,0.345c0.279,0,0.43-0.161,0.625-0.368l1.466-1.582c0.262-0.283,0.601-0.771,0.769-1.119
			l0.726-1.478l2.692,4.521c0.131,0.224,0.303,0.499,0.664,0.499l0,0c0.211,0,0.402-0.106,0.516-0.283
			c0.189-0.298,0.064-0.567-0.049-0.81L15.628,14.2c-0.087-0.181-0.134-0.562-0.099-0.764L15.819,11.884z M24.878,12.894
			c0-1.975-1.604-3.575-3.574-3.575h-1.521v1.805H21.3c0.975,0,1.77,0.792,1.77,1.771c0,0.976-0.795,1.77-1.77,1.77h-0.313v-0.97
			l-3.242,1.871l3.242,1.872v-0.972h0.35v-0.003C23.292,16.445,24.878,14.853,24.878,12.894z"/>
	</g>
	<g id="Important" display="none">
		<path id="enlevement" display="inline" fill="#FFFFFF" d="M23.212,4.215c-0.492,0-0.895,0.404-0.895,0.898V8.76
			c0.215,0.048,0.422,0.139,0.59,0.303c0.471,0.465,0.484,1.229,0.023,1.706l-1.697,1.744l-0.236-0.226l1.705-1.741
			c0.342-0.352,0.334-0.913-0.018-1.258c-0.111-0.103-0.238-0.175-0.373-0.213c-0.152-0.041-0.301-0.043-0.449-0.011
			c-0.164,0.042-0.313,0.125-0.426,0.249c-1.008,1.033-2.02,2.067-3.025,3.1c-0.256,0.259-0.717,0.852-0.703,1.443
			c0.008,0.557-0.01,1.127,0.002,1.687c-0.133-0.106-0.293-0.186-0.471-0.219c-0.521-0.084-0.991,0.226-1.168,0.689h-0.264
			c0-0.127,0-0.255,0.003-0.381c0.012-0.582-0.01-1.188,0.005-1.773c0.011-0.593-0.449-1.186-0.702-1.445
			c-1.006-1.034-2.016-2.067-3.026-3.103c-0.117-0.123-0.26-0.209-0.428-0.247c-0.147-0.031-0.299-0.029-0.446,0.011
			c-0.139,0.04-0.27,0.113-0.376,0.215c-0.347,0.344-0.354,0.904-0.016,1.26l1.703,1.737l-0.236,0.226l-1.698-1.744
			c-0.464-0.476-0.451-1.241,0.023-1.703c0.166-0.161,0.373-0.255,0.59-0.303V5.114c0-0.494-0.403-0.896-0.894-0.896
			c-0.496,0-0.896,0.404-0.896,0.896v6.316c0,0.207,0.085,0.396,0.207,0.55l3.05,4.029h-0.271c-0.592,0-1.078,0.482-1.078,1.08
			c0,0.396,0.224,0.727,0.54,0.914c-0.316,0.189-0.54,0.521-0.54,0.912c0,0.598,0.482,1.083,1.078,1.083h0.329v0.599h2.994
			c0.158,0.156,0.34,0.271,0.562,0.308c0.063,0.011,0.119,0.017,0.181,0.017c0.525,0,0.974-0.376,1.062-0.898l0.004-0.025h0.189
			c0.002,0.197,0,0.394,0.023,0.599h3.049V20h0.332c0.594,0,1.076-0.483,1.076-1.083c0-0.392-0.223-0.723-0.543-0.912
			c0.32-0.187,0.543-0.518,0.543-0.917c0-0.595-0.482-1.078-1.076-1.078h-0.271l3.051-4.031c0.127-0.154,0.207-0.343,0.207-0.55
			V5.115C24.109,4.619,23.708,4.215,23.212,4.215z M11.861,17.088c0-0.297,0.244-0.537,0.538-0.537h3.536l-0.188,1.077h-3.349
			C12.105,17.625,11.861,17.388,11.861,17.088z M11.861,18.915c0-0.294,0.244-0.539,0.538-0.539h3.219l-0.186,1.082h-3.033
			C12.105,19.458,11.861,19.219,11.861,18.915z M16.992,19.933c-0.047,0.295-0.355,0.488-0.623,0.443
			c-0.143-0.025-0.264-0.104-0.347-0.22c-0.088-0.119-0.116-0.261-0.093-0.403l0.597-3.455c0.045-0.262,0.271-0.448,0.539-0.448
			c0.026,0,0.056,0,0.084,0.006c0.293,0.05,0.489,0.329,0.438,0.623L16.992,19.933z M21.659,18.915c0,0.301-0.242,0.542-0.537,0.542
			h-3.5l0.186-1.081h3.313C21.415,18.379,21.659,18.622,21.659,18.915z M21.659,17.088c0,0.297-0.242,0.538-0.537,0.538h-3.184
			l0.182-1.054c0.004-0.008,0-0.016,0-0.022h2.998C21.415,16.549,21.659,16.793,21.659,17.088z"/>
	</g>
	<g id="Elevé">
		<path id="Attack" fill="#FFFFFF" d="M20.927,14.181l5.324-3.409l-5.143-0.546l1.395-5.974l-3.646,3.77l-1.016-4.26l-1.529,3.975
			l-4.169-5.37l1.31,6.728L9.748,8.274c0,0,1.124,2.154,1.753,3.453L5.557,11.31l5.379,3.145l-1.545,1.589l2.504-0.458l-1.774,6.27
			l5.268-4.408l1.366,3.406l1.405-2.723l4.543,4.691l-2.27-6.28l4.979,0.504L20.927,14.181z"/>
	</g>
	<g id="Extreme" display="none">
		<path id="rebelion" display="inline" fill="#FFFFFF" d="M19.587,8.105c0,1.662-1.346,3.005-3.004,3.005
			c-1.662,0-3.007-1.346-3.007-3.005c0-1.664,1.346-3.006,3.007-3.006C18.241,5.099,19.587,6.441,19.587,8.105z M11.563,20.854H13.4
			h0.099l0.065-0.14l0.669-0.654l-0.617-0.13l-0.974-0.209L11.563,20.854z M24.142,8.664l-0.646,0.644l0.043,0.044l-0.52,0.525
			c0.068,0.064,0.137,0.129,0.191,0.204l0.525-0.525l0.107,0.099l0.637-0.649L24.142,8.664z M19.99,11.999l-0.279,0.274l0.033,0.079
			l0.064,0.146l-4.383,4.396l0.473,0.101c0.432,0.091,0.805,0.351,1.048,0.724c0.029,0.052,0.038,0.117,0.068,0.174l0.013-0.015
			l0.323,0.212l0.117-0.024l1.277,0.926l0.859-1.176L17.7,16.331l0.041-0.124h0.316l1.865-2.191l0.209-1.966L19.99,11.999z
			 M22.027,10.054c-0.568-0.063-1.121,0.361-1.186,0.95l-0.074,0.64l0,0l-0.041,0.465l-0.209,1.967l-0.021,0.183l-0.117,0.14
			l-1.674,1.963l1.26,0.988l0.455,0.354l-0.266,0.36l0.064,0.131c0.176,0.376,0.561,0.611,0.975,0.611
			c0.057,0,0.117-0.001,0.178-0.014c0.471-0.081,0.834-0.465,0.885-0.941l0.715-6.612C23.04,10.646,22.613,10.115,22.027,10.054z
			 M19.837,18.498l-0.613,0.845l-0.352,0.484l-0.48-0.352l-1.059-0.765l-0.094,0.023l-0.037-0.025c0,0.092-0.004,0.179-0.025,0.268
			c-0.02,0.089-0.049,0.169-0.083,0.252c-0.068,0.156-0.154,0.291-0.258,0.419l0.074,0.167c0.073,0.168,0.176,0.39,0.299,0.579
			l0.293,0.46h2.26L19.837,18.498z M15.541,20.298c-0.023,0-0.053-0.008-0.075-0.009c-0.013,0.048-0.021,0.083-0.021,0.083
			l0.256,0.479h0.611l0.394-0.138c-0.133-0.208-0.241-0.436-0.342-0.661C16.117,20.196,15.844,20.298,15.541,20.298z M16.426,18.023
			c-0.043-0.066-0.108-0.12-0.171-0.175c-0.035-0.033-0.064-0.079-0.107-0.106c-0.111-0.079-0.241-0.136-0.38-0.169l-0.469-0.094
			l-1.069-0.23l0,0l-0.945-0.202l-0.368-0.078l-0.606-0.131l-0.038-0.006l0.096-0.1l0.41-0.406l0.438-0.441
			c0.034,0.303,0.054,0.542,0.054,0.547l0.142,0.031l1.327,0.282l0.271-0.272l4.101-4.12l-0.092-0.23l0.033-0.027
			c-0.596-0.179-1.295-0.281-2.178-0.281h-0.29c0,0-0.285,0-0.289,0c-0.617,0-1.242,0.042-1.854,0.179
			c-1.05,0.235-1.701,1.264-2.421,1.973c-0.741,0.728-1.462,1.489-2.183,2.239c-0.16,0.167-0.32,0.34-0.483,0.505
			c-0.277,0.28-0.379,0.686-0.268,1.066c0.107,0.376,0.419,0.662,0.805,0.747l1.42,0.304l0.603,0.128l3.41,0.726
			c0.075,0.013,0.151,0.025,0.224,0.025c0.497,0,0.942-0.347,1.05-0.851c0.039-0.199,0.01-0.386-0.052-0.564l-0.064-0.137
			C16.459,18.118,16.444,18.074,16.426,18.023z M14.921,20.648l-0.104-0.193l0.052-0.215l0.01-0.042l-0.163-0.034l-0.604,0.689
			h0.914L14.921,20.648z"/>
	</g>
</g>
</svg>
