<?xml version="1.0" encoding="utf-8"?>
<!-- Generator: Adobe Illustrator 16.0.0, SVG Export Plug-In . SVG Version: 6.00 Build 0)  -->
<!DOCTYPE svg PUBLIC "-//W3C//DTD SVG 1.1//EN" "http://www.w3.org/Graphics/SVG/1.1/DTD/svg11.dtd">
<svg version="1.1" id="Layer_1" xmlns="http://www.w3.org/2000/svg" xmlns:xlink="http://www.w3.org/1999/xlink" x="0px" y="0px"
	 width="33.35px" height="40px" viewBox="0 0 33.35 40" enable-background="new 0 0 33.35 40" xml:space="preserve">
<g id="PinColor">
	<path id="PinOmbre" opacity="0.3" enable-background="new    " d="M29.194,30.678c0,1.799-3.946,3.309-9.262,3.707
		c-0.896,0.068-2.792,4.285-2.792,4.285s-1.962-4.221-2.888-4.291c-5.26-0.41-9.165-1.914-9.165-3.701
		c0-2.104,5.397-3.811,12.053-3.811C23.797,26.867,29.194,28.57,29.194,30.678z"/>
	<path id="PinFaible" display="none" fill="#2ABF00" stroke="#1D7500" stroke-width="0.2" stroke-miterlimit="10" d="M29.194,12.989
		c0,5.507-3.946,10.125-9.262,11.345c-0.896,0.203-2.792,13.115-2.792,13.115s-1.961-12.912-2.887-13.141
		c-5.26-1.248-9.165-5.846-9.165-11.322c0-6.438,5.397-11.657,12.053-11.657C23.797,1.329,29.194,6.551,29.194,12.989z"/>
	<path id="PinImportant" display="none" fill="#FF8500" stroke="#BF3A00" stroke-width="0.2" stroke-miterlimit="10" d="
		M29.194,12.989c0,5.507-3.946,10.125-9.262,11.345c-0.896,0.203-2.792,13.115-2.792,13.115s-1.961-12.912-2.887-13.141
		c-5.26-1.248-9.165-5.846-9.165-11.322c0-6.438,5.397-11.657,12.053-11.657C23.797,1.329,29.194,6.551,29.194,12.989z"/>
	<path id="orange" fill="#A3A3A3" stroke="#444444" stroke-width="0.2" stroke-miterlimit="10" d="M29.194,12.989
		c0,5.507-3.946,10.125-9.262,11.345c-0.896,0.203-2.792,13.115-2.792,13.115s-1.961-12.912-2.887-13.141
		c-5.26-1.248-9.165-5.846-9.165-11.322c0-6.438,5.397-11.657,12.053-11.657C23.797,1.329,29.194,6.551,29.194,12.989z"/>
	<path id="bleu" display="none" fill="#0092FF" stroke="#333333" stroke-width="0.2" stroke-miterlimit="10" d="M29.194,12.989
		c0,5.507-3.946,10.125-9.262,11.345c-0.896,0.203-2.792,13.115-2.792,13.115s-1.961-12.912-2.887-13.141
		c-5.26-1.248-9.165-5.846-9.165-11.322c0-6.438,5.397-11.657,12.053-11.657C23.797,1.329,29.194,6.551,29.194,12.989z"/>
</g>
<g id="Icons">
	<g id="Minimal" display="none">
		<path id="Election" display="inline" fill="#565656" d="M26.139,6.187L20.92,3.95c-0.155-0.066-0.335-0.021-0.438,0.111
			l-1.496,1.865c-0.064,0.083-0.091,0.202-0.069,0.311c0.024,0.104,0.091,0.19,0.186,0.239l-4.679,1.756
			c-0.398,0.148-0.729,0.426-0.947,0.788l-1.549,2.581c-0.328,0.547-0.354,1.219-0.069,1.791l0.113,0.218h-1.634
			c-0.207,0-0.374,0.166-0.374,0.373v7.083H8.845c-0.207,0-0.369,0.165-0.369,0.37c0,0.208,0.162,0.374,0.369,0.374h12.678
			c0.204,0,0.362-0.166,0.362-0.374c0-0.205-0.159-0.37-0.362-0.37h-1.122v-3.81c0-0.126-0.069-0.249-0.174-0.313
			c-0.109-0.068-0.242-0.079-0.358-0.025c-0.411,0.193-0.71,0.291-0.857,0.333c-0.029,0.008-0.06,0.019-0.085,0.041l-2.427,1.454
			c-0.387,0.232-0.827,0.355-1.275,0.355c-0.826,0-1.598-0.412-2.068-1.109c-0.374-0.558-0.502-1.234-0.365-1.89
			c0.142-0.657,0.533-1.22,1.094-1.582l0.354-0.223c0.259-0.156,0.487-0.302,0.695-0.428c0.144-0.088,0.208-0.265,0.159-0.425
			c-0.09-0.298-0.247-0.566-0.391-0.77c0.567-0.25,1.339-0.692,1.725-1.143c0,0,0.004,0.002,0.008,0.002
			c0.081,0.05,0.177,0.101,0.284,0.154c0.01,0.002,0.013,0.005,0.021,0.008l0,0c0.276,0.134,0.631,0.268,1.034,0.349
			c-0.436,0.539-0.876,1.207-1.038,1.654c-0.311,0.136-0.949,0.499-2.448,1.454c-0.396,0.252-0.668,0.644-0.76,1.104
			c-0.101,0.462-0.015,0.931,0.252,1.323c0.334,0.502,0.88,0.778,1.446,0.778c0.304,0,0.614-0.081,0.89-0.247l2.563-1.539
			c0.397-0.097,2.393-0.694,3.902-3.135c1.182-1.913,1.847-3.455,2.121-4.152l0.046,0.024c0.155,0.076,0.327,0.116,0.498,0.116
			c0.283,0,0.568-0.114,0.776-0.313c0.222-0.209,0.341-0.496,0.341-0.803V6.533C26.361,6.379,26.276,6.245,26.139,6.187z"/>
	</g>
	<g id="Faible" display="none">
		<path id="Famine" display="inline" fill="#F9F9F9" d="M22.782,19.912l-2.963,0.56l-4.837-2.63l1.757-2.195l3.958,1.314
			L22.782,19.912z M27.336,14.77v0.329l-3.122,0.988l-3.079,0.438l-3.957-1.316l-0.93-0.439h0.531
			c-0.126-1.177-0.297-2.069-0.378-3.236h-0.006c-0.002-0.036-0.042-0.817-0.055-1.15c-0.061-0.352-0.228-0.492-0.776-0.868
			c-0.3-0.195-0.524-0.265-0.65-0.262c-0.203,0-0.381,0.218-0.423,0.876c0.881,0.15,0.94,1.125,0.94,1.125
			c0.077,0.692-0.264,1.704-1.048,1.966c-1.448,0.483-1.299-2.306-0.481-2.976c0.021-0.805,0.247-1.541,1.012-1.572
			c0.303,0.004,0.612,0.127,0.969,0.354c0.169,0.101,0.31,0.206,0.43,0.313c-0.014-0.265-0.032-0.535-0.032-0.814
			C16.28,7.939,16.372,7.3,16.893,6.848c0.267-0.242,0.566-0.367,0.864-0.365c0.775,0.038,1.255,0.704,1.533,1.386
			c0.327-0.144,0.732-0.212,1.199-0.05c1.189,0.413,1.834,2.488,1.335,3.213c-1.173,1.686-4.129-1.453-3.349-2.549
			c0,0,0.116-0.148,0.318-0.312c-0.229-0.605-0.691-1.146-1.037-1.107c-0.13,0.003-0.284,0.047-0.477,0.221
			c-0.331,0.289-0.416,0.701-0.416,1.243c0,0.381,0.045,0.803,0.045,1.228c0,0.221,0.014,0.415,0.022,0.628
			c0.052,0.378,0.056,0.669,0.052,1.067c0.082,1.163,0.553,2.119,0.678,3.317h9.675V14.77z M19.008,8.4l2.238,2.439
			C20.85,9.11,19.43,8.146,19.43,8.146L19.008,8.4z M14.369,10.495l-0.4,0.165c0,0-0.201,1.363,0,2.077L14.369,10.495z
			 M12.364,18.721l1.778-1.069l1.855-2.294l-0.578-0.589h-4.099l-0.814,1.623L12.364,18.721z M14.44,18.354L11.286,20.5l0.42,0.519
			h7.258l-0.024-0.104L14.44,18.354z M7.952,14.77v2.475l2.02-1.083l0.612-1.392H7.952z M21.722,17.054l1.955,2.834l3.66,0.86
			v-3.244l-2.633-0.848L21.722,17.054z M27.336,16.795v-1.146l-2.053,0.556L27.336,16.795z M10.023,16.955L7.951,17.94v3.078h1.514
			l2.257-1.847L10.023,16.955z M20.865,21.019h4.736l-2.268-0.547L20.865,21.019z"/>
		<path id="Cyclone" display="inline" fill="#FFFFFF" d="M17.718,8.11c-0.1-0.004-0.199-0.018-0.299-0.018
			c-0.889,0-1.723,0.232-2.45,0.631c1.297-4.42,4.537-4.805,4.537-4.805s-7.155,0.596-7.155,8.944c0.006,0,0.011,0,0.016,0
			c-0.005,0.101-0.016,0.198-0.016,0.3c0,0.884,0.23,1.72,0.633,2.45c-4.423-1.3-4.809-4.534-4.809-4.534s0.594,7.156,8.947,7.156
			c0-0.008,0-0.01,0-0.017c0.097,0.005,0.196,0.017,0.296,0.017c0.889,0,1.724-0.232,2.45-0.634c-1.298,4.422-4.538,4.81-4.538,4.81
			s7.156-0.599,7.156-8.947c-0.005,0-0.009,0-0.015,0c0.005-0.1,0.015-0.197,0.015-0.297c0-0.888-0.232-1.725-0.636-2.449
			c4.424,1.296,4.81,4.537,4.81,4.537s-0.595-7.157-8.944-7.157C17.718,8.102,17.718,8.106,17.718,8.11z"/>
		<path id="eruption" display="inline" fill="#FFFFFF" d="M18.831,9.713c1.064,0.364,2.478,0.794,2.778-0.926
			c0.239-1.337,2.024-0.841,2.781-0.927c1.385-0.158,0.338-2.744-1.389-2.782c-1.751-0.038-2.548,0.729-3.243,2.318
			c-0.337,0.765-0.619,1.339-1.856,0.928c-1.235-0.414-2.145,0.602-1.393,1.855c0.667,1.105-0.01,2.316-0.01,2.316h1.868
			c0,0-0.017-0.688-0.466-1.391C17.378,10.286,17.739,9.338,18.831,9.713z M8.948,21.25c4.8-3.495,6-8.33,6-8.33h4.929
			c0,0,1.199,4.833,5.994,8.33H8.948z"/>
		<path id="tsunami" display="inline" fill="#FFFFFF" d="M26.409,19.053c-14.726,0.833-10.613-10.431-6.793-9.457
			c-0.394,0.239-0.647,1.068-0.403,1.625c0.266,0.598,1.128,0.938,1.624,0.815c1.187-0.307,1.241-1.971,0.813-2.845
			C21.207,8.28,20.034,7.16,17.993,7.16c-4.932,0-8.295,2.519-9.563,6.848v6.366h17.98L26.409,19.053L26.409,19.053z"/>
		<path id="epidemie" display="inline" fill="#FFFFFF" d="M25.1,13.911c0-4.209-3.297-7.636-7.451-7.849
			c1.835,0.175,3.263,1.506,3.263,3.126c0,0.557-0.185,1.07-0.481,1.524c-0.819-0.817-1.945-1.32-3.192-1.32
			c-1.244,0-2.371,0.503-3.187,1.318c-0.295-0.454-0.479-0.965-0.479-1.525c0-1.617,1.428-2.95,3.261-3.125
			C12.679,6.272,9.38,9.7,9.38,13.911c0,1.269,0.311,2.466,0.841,3.529c-0.728-1.661-0.287-3.531,1.1-4.331
			c0.481-0.278,1.022-0.378,1.56-0.348c-0.104,0.371-0.17,0.756-0.17,1.16c0,2.091,1.429,3.837,3.355,4.355
			c-0.026,0.046-0.057,0.088-0.083,0.133c0,0.004,0,0.004,0,0.01c-0.063,0.145-0.146,0.259-0.241,0.357
			c-0.206,0.273-0.445,0.514-0.752,0.691c-1.394,0.804-3.246,0.245-4.314-1.235c1.407,2.136,3.82,3.55,6.565,3.55
			c2.72,0,5.111-1.382,6.526-3.484c-1.075,1.433-2.893,1.961-4.267,1.175c-0.486-0.286-0.84-0.708-1.081-1.199
			c1.927-0.52,3.346-2.268,3.346-4.354c0-0.402-0.063-0.788-0.167-1.16c0.544-0.035,1.084,0.065,1.569,0.345
			c1.346,0.776,1.804,2.559,1.161,4.187C24.822,16.265,25.1,15.123,25.1,13.911z M18.076,16.938
			c-0.033-0.655,0.104-1.342,0.432-1.991l-0.524-0.301c-0.189,0.194-0.45,0.313-0.743,0.313c-0.291,0-0.556-0.119-0.744-0.313
			l-0.512,0.294c0.327,0.653,0.465,1.347,0.43,2c-1.33-0.364-2.317-1.575-2.317-3.019c0-0.276,0.043-0.538,0.112-0.791
			c0.58,0.293,1.107,0.752,1.511,1.356l0.525-0.306c-0.023-0.089-0.056-0.174-0.056-0.27c0-0.487,0.335-0.88,0.785-0.997v-0.598
			c-0.728-0.047-1.391-0.274-1.938-0.632c0.567-0.56,1.344-0.904,2.199-0.904c0.857,0,1.636,0.346,2.206,0.906
			c-0.549,0.359-1.212,0.583-1.939,0.63v0.599c0.449,0.117,0.784,0.512,0.784,0.996c0,0.098-0.03,0.182-0.051,0.271l0.532,0.313
			c0.402-0.605,0.931-1.063,1.506-1.354c0.063,0.25,0.11,0.511,0.11,0.781C20.384,15.361,19.404,16.568,18.076,16.938z"/>
		<path id="earthquake" display="inline" fill="#FFFFFF" d="M22.661,13.718c-0.253,0-0.483,0.14-0.604,0.364l-0.982,1.849
			l-1.209-3.546c-0.096-0.268-0.343-0.448-0.622-0.462c-0.293-0.008-0.545,0.157-0.657,0.419l-0.83,1.97L16.45,6.461
			c-0.063-0.326-0.371-0.577-0.689-0.56c-0.335,0.008-0.613,0.23-0.657,0.565l-1.161,9.107l-0.938-4.888
			c-0.052-0.287-0.289-0.509-0.581-0.549c-0.289-0.04-0.578,0.117-0.703,0.382l-1.537,3.2H7.798v1.363h2.815
			c0.261,0,0.503-0.152,0.616-0.385l0.825-1.72l1.332,6.935c0.063,0.322,0.342,0.555,0.671,0.555c0.003,0,0.012,0,0.018,0
			c0.333-0.008,0.61-0.26,0.658-0.592l1.142-8.95l0.952,5.891c0.054,0.297,0.296,0.522,0.597,0.556
			c0.305,0.029,0.589-0.136,0.708-0.415l1.022-2.433l1.141,3.34c0.088,0.259,0.318,0.44,0.588,0.464
			c0.273,0.015,0.531-0.12,0.662-0.362l1.525-2.882H26v-1.365H22.661z"/>
	</g>
	<g id="Modéré" display="none">
		<path id="displaced" display="inline" fill="#FFFFFF" d="M16.909,6.609c0.122,0.757-0.391,1.468-1.142,1.593
			c-0.754,0.125-1.47-0.389-1.595-1.139c-0.122-0.761,0.385-1.475,1.144-1.597C16.07,5.341,16.785,5.853,16.909,6.609z
			 M16.477,12.106l1.229,1.958c0.172,0.275,0.534,0.364,0.813,0.202c0.282-0.167,0.38-0.525,0.224-0.809l-0.313-0.566
			c-0.271-0.482-0.535-0.964-0.807-1.449l-0.545-0.989c-0.063-0.118-0.125-0.248-0.188-0.382c-0.335-0.708-0.859-1.799-2.012-1.699
			c-0.989,0.085-1.99,0.554-2.972,1.391c-1.166,0.922-1.981,2.254-2.016,2.315c-0.038,0.057-0.072,0.117-0.104,0.174
			c-0.003,0-0.003,0.002-0.006,0.005l0,0c-0.108,0.205-0.162,0.393-0.026,0.634c0.106,0.189,0.308,0.307,0.524,0.307
			c0.262,0,0.396-0.125,0.524-0.312l0,0c0.002,0,0.002-0.004,0.002-0.004c0.04-0.055,0.073-0.112,0.112-0.176
			c0.007-0.015,0.693-1.112,1.748-2.013c0.325-0.256,0.638-0.431,0.93-0.526l-0.233,2.852c-0.023,0.284-0.113,0.768-0.19,1.042
			l-0.53,1.859c-0.07,0.234-0.269,0.623-0.423,0.815l-1.435,1.777c-0.184,0.227-0.388,0.481-0.217,0.833
			c0.104,0.209,0.312,0.342,0.544,0.342c0.275,0,0.428-0.157,0.614-0.363l1.451-1.566c0.261-0.279,0.599-0.765,0.767-1.109
			l0.715-1.46l2.666,4.474c0.128,0.221,0.295,0.494,0.654,0.494l0,0c0.206,0,0.396-0.105,0.507-0.275
			c0.192-0.298,0.063-0.566-0.048-0.807l-2.151-4.677c-0.083-0.184-0.13-0.56-0.095-0.76L16.477,12.106z M18.734,16.975h3.224v0.958
			l3.207-1.852l-3.207-1.853v0.958h-3.224V16.975z"/>
		<path id="returned" display="inline" fill="#FFFFFF" d="M16.912,6.606c0.12,0.756-0.394,1.469-1.144,1.593
			c-0.757,0.125-1.47-0.387-1.593-1.142c-0.124-0.758,0.384-1.469,1.144-1.594C16.07,5.339,16.79,5.851,16.912,6.606z
			 M16.478,12.103l1.229,1.962c0.171,0.273,0.535,0.364,0.818,0.199c0.276-0.168,0.374-0.526,0.218-0.812l-0.313-0.561
			c-0.27-0.48-0.532-0.966-0.802-1.45l-0.546-0.993c-0.064-0.112-0.125-0.242-0.189-0.378c-0.338-0.708-0.864-1.799-2.015-1.697
			c-0.989,0.083-1.987,0.553-2.972,1.388c-1.163,0.922-1.981,2.257-2.019,2.312c-0.035,0.06-0.069,0.12-0.102,0.177
			c-0.001,0.002-0.005,0.002-0.005,0.005l0,0c-0.108,0.208-0.162,0.396-0.025,0.635c0.106,0.19,0.306,0.306,0.524,0.306
			c0.262,0,0.396-0.123,0.524-0.311l0,0c0.002-0.002,0.002-0.002,0.002-0.002c0.037-0.057,0.073-0.117,0.112-0.181
			c0.007-0.01,0.693-1.106,1.75-2.01c0.325-0.253,0.635-0.431,0.928-0.527l-0.235,2.855c-0.023,0.284-0.113,0.768-0.19,1.042
			l-0.53,1.859c-0.07,0.234-0.269,0.623-0.425,0.815l-1.433,1.777c-0.184,0.227-0.388,0.481-0.217,0.835
			c0.1,0.207,0.312,0.342,0.542,0.342c0.275,0,0.425-0.16,0.617-0.364l1.451-1.566c0.259-0.279,0.596-0.763,0.76-1.107l0.721-1.463
			l2.666,4.475c0.129,0.221,0.298,0.494,0.656,0.494l0,0c0.208,0,0.397-0.105,0.51-0.28c0.188-0.296,0.063-0.563-0.048-0.804
			l-2.152-4.679c-0.085-0.18-0.133-0.556-0.098-0.756L16.478,12.103z M25.447,13.103c0-1.955-1.589-3.539-3.539-3.539h-1.506v1.787
			h1.502c0.964,0,1.751,0.783,1.751,1.752c0,0.965-0.787,1.751-1.751,1.751h-0.31v-0.959l-3.208,1.853l3.208,1.853v-0.962h0.348
			v-0.003C23.876,16.617,25.447,15.042,25.447,13.103z"/>
	</g>
	<g id="Important" display="none">
		<path id="enlevement" display="inline" fill="#FFFFFF" d="M23.795,4.511c-0.486,0-0.885,0.4-0.885,0.889v3.611
			c0.213,0.046,0.418,0.137,0.584,0.299c0.466,0.46,0.479,1.216,0.022,1.688l-1.68,1.726L21.603,12.5l1.688-1.723
			c0.339-0.349,0.331-0.904-0.017-1.245c-0.11-0.104-0.235-0.173-0.371-0.211c-0.149-0.04-0.297-0.042-0.443-0.011
			c-0.163,0.042-0.308,0.123-0.423,0.247c-0.996,1.022-1.998,2.046-2.994,3.068c-0.253,0.257-0.71,0.844-0.695,1.429
			c0.01,0.551-0.009,1.116,0.004,1.669c-0.133-0.105-0.292-0.183-0.468-0.216c-0.514-0.084-0.979,0.224-1.156,0.682h-0.262
			c0-0.126,0-0.252,0.003-0.377c0.013-0.577-0.009-1.177,0.005-1.756c0.012-0.586-0.444-1.173-0.694-1.429
			c-0.995-1.024-1.994-2.047-2.994-3.071c-0.116-0.122-0.259-0.207-0.424-0.245c-0.147-0.03-0.296-0.028-0.441,0.011
			c-0.138,0.039-0.267,0.112-0.373,0.213c-0.344,0.341-0.35,0.894-0.016,1.246l1.685,1.719l-0.232,0.225L11.303,11
			c-0.459-0.473-0.446-1.228,0.022-1.686c0.165-0.159,0.369-0.252,0.584-0.299V5.402c0-0.489-0.398-0.888-0.884-0.888
			c-0.491,0-0.888,0.4-0.888,0.888v6.252c0,0.205,0.084,0.392,0.205,0.544l3.019,3.987h-0.269c-0.586,0-1.066,0.478-1.066,1.07
			c0,0.391,0.222,0.719,0.534,0.904c-0.313,0.187-0.534,0.514-0.534,0.903c0,0.592,0.479,1.071,1.066,1.071h0.325v0.593h2.964
			c0.156,0.154,0.335,0.268,0.556,0.305c0.063,0.01,0.117,0.016,0.18,0.016c0.52,0,0.963-0.373,1.05-0.888l0.003-0.025h0.189
			c0.002,0.195,0,0.39,0.022,0.593h3.019v-0.591h0.327c0.588,0,1.066-0.478,1.066-1.072c0-0.388-0.221-0.715-0.539-0.902
			c0.318-0.186,0.539-0.513,0.539-0.907c0-0.589-0.479-1.067-1.066-1.067H21.46l3.019-3.99c0.125-0.153,0.204-0.34,0.204-0.544
			V5.404C24.683,4.912,24.286,4.511,23.795,4.511z M12.561,17.253c0-0.293,0.241-0.532,0.533-0.532h3.499l-0.184,1.067h-3.316
			C12.802,17.785,12.561,17.549,12.561,17.253z M12.561,19.063c0-0.292,0.241-0.534,0.533-0.534h3.187l-0.185,1.07h-3.003
			C12.802,19.599,12.561,19.362,12.561,19.063z M17.639,20.068c-0.046,0.292-0.351,0.482-0.615,0.438
			c-0.143-0.024-0.262-0.103-0.344-0.216c-0.088-0.117-0.115-0.258-0.093-0.398l0.59-3.42c0.044-0.26,0.27-0.444,0.535-0.444
			c0.026,0,0.055,0,0.083,0.006c0.29,0.05,0.485,0.326,0.434,0.616L17.639,20.068z M22.259,19.063c0,0.297-0.24,0.536-0.532,0.536
			h-3.464l0.185-1.069h3.279C22.018,18.53,22.259,18.771,22.259,19.063z M22.259,17.253c0,0.294-0.24,0.532-0.532,0.532h-3.15
			l0.181-1.044c0.003-0.008,0-0.016,0-0.021h2.967C22.018,16.72,22.259,16.96,22.259,17.253z"/>
	</g>
	<g id="Elevé">
		<path id="Attack" fill="#FFFFFF" d="M21.534,14.376l5.27-3.374l-5.091-0.541l1.382-5.913l-3.609,3.731L18.48,4.063l-1.514,3.934
			l-4.127-5.314l1.296,6.659L10.47,8.529c0,0,1.112,2.132,1.735,3.417l-5.883-0.414l5.325,3.113l-1.53,1.573l2.479-0.452
			l-1.756,6.204l5.213-4.361l1.354,3.371l1.39-2.695l4.496,4.644l-2.248-6.217l4.928,0.499L21.534,14.376z"/>
	</g>
	<g id="Extreme" display="none">
		<path id="rebelion" display="inline" fill="#FFFFFF" d="M20.209,8.362c0,1.645-1.333,2.975-2.974,2.975
			c-1.646,0-2.978-1.333-2.978-2.975c0-1.647,1.332-2.975,2.978-2.975C18.876,5.387,20.209,6.715,20.209,8.362z M12.266,20.98h1.818
			h0.098l0.064-0.139l0.662-0.646l-0.61-0.129l-0.964-0.207L12.266,20.98z M24.715,8.916l-0.64,0.638l0.043,0.043l-0.515,0.521
			c0.068,0.063,0.136,0.128,0.191,0.203l0.521-0.52l0.106,0.097l0.628-0.643L24.715,8.916z M20.605,12.216l-0.274,0.271l0.031,0.079
			l0.063,0.144l-4.337,4.35l0.467,0.1c0.429,0.089,0.796,0.347,1.038,0.716c0.029,0.052,0.038,0.117,0.069,0.173l0.011-0.014
			l0.319,0.21l0.116-0.024l1.265,0.917l0.851-1.164l-1.885-1.471l0.042-0.123h0.313l1.847-2.169l0.208-1.946L20.605,12.216z
			 M22.622,10.292c-0.563-0.063-1.11,0.357-1.173,0.94l-0.073,0.634l0,0l-0.043,0.46l-0.206,1.947l-0.021,0.181l-0.116,0.138
			l-1.655,1.943l1.248,0.978l0.449,0.351l-0.264,0.357l0.065,0.13c0.172,0.373,0.554,0.604,0.963,0.604
			c0.056,0,0.116-0.001,0.176-0.014c0.468-0.08,0.826-0.46,0.877-0.932l0.707-6.544C23.626,10.877,23.202,10.352,22.622,10.292z
			 M20.456,18.648l-0.608,0.836l-0.347,0.479l-0.477-0.347l-1.049-0.758l-0.092,0.023l-0.037-0.025c0,0.092-0.004,0.177-0.023,0.266
			c-0.021,0.087-0.05,0.167-0.083,0.25c-0.067,0.154-0.152,0.287-0.255,0.413l0.072,0.166c0.071,0.166,0.175,0.385,0.296,0.572
			l0.291,0.456h2.237L20.456,18.648z M16.204,20.43c-0.024,0-0.053-0.008-0.075-0.009c-0.013,0.047-0.02,0.083-0.02,0.083
			l0.253,0.476h0.604l0.391-0.136c-0.133-0.207-0.239-0.433-0.34-0.656C16.773,20.33,16.503,20.43,16.204,20.43z M17.078,18.178
			c-0.042-0.066-0.108-0.118-0.169-0.173c-0.034-0.033-0.063-0.078-0.106-0.105c-0.109-0.078-0.238-0.135-0.377-0.167l-0.463-0.093
			l-1.058-0.228l0,0l-0.937-0.2l-0.364-0.077l-0.601-0.13L12.966,17l0.095-0.098l0.406-0.401l0.434-0.437
			c0.034,0.299,0.053,0.536,0.053,0.542l0.141,0.03l1.313,0.28l0.268-0.27l4.06-4.078l-0.093-0.229l0.035-0.027
			c-0.591-0.176-1.282-0.277-2.156-0.277h-0.286c0,0-0.283,0-0.287,0c-0.61,0-1.229,0.041-1.836,0.177
			c-1.038,0.232-1.684,1.251-2.396,1.953c-0.732,0.721-1.446,1.474-2.16,2.215c-0.157,0.166-0.316,0.337-0.479,0.5
			c-0.274,0.278-0.374,0.679-0.265,1.056c0.106,0.373,0.415,0.655,0.798,0.74l1.404,0.301l0.597,0.126l3.374,0.718
			c0.074,0.013,0.151,0.025,0.222,0.025c0.491,0,0.932-0.343,1.039-0.842c0.039-0.196,0.009-0.382-0.051-0.558l-0.063-0.136
			C17.112,18.272,17.097,18.229,17.078,18.178z M15.589,20.776l-0.102-0.19l0.051-0.212l0.01-0.042l-0.162-0.034l-0.597,0.682h0.904
			L15.589,20.776z"/>
	</g>
</g>
</svg>
