<?xml version="1.0" encoding="utf-8"?>
<!-- Generator: Adobe Illustrator 16.0.0, SVG Export Plug-In . SVG Version: 6.00 Build 0)  -->
<!DOCTYPE svg PUBLIC "-//W3C//DTD SVG 1.1//EN" "http://www.w3.org/Graphics/SVG/1.1/DTD/svg11.dtd">
<svg version="1.1" id="Layer_1" xmlns="http://www.w3.org/2000/svg" xmlns:xlink="http://www.w3.org/1999/xlink" x="0px" y="0px"
	 width="33.35px" height="40px" viewBox="0 0 33.35 40" enable-background="new 0 0 33.35 40" xml:space="preserve">
<g id="PinColor">
	<path id="PinOmbre" opacity="0.3" enable-background="new    " d="M29.899,30.679c0,1.798-3.946,3.308-9.262,3.706
		c-0.896,0.068-2.792,4.285-2.792,4.285s-1.962-4.221-2.888-4.291c-5.26-0.41-9.165-1.913-9.165-3.7
		c0-2.104,5.397-3.812,12.053-3.812C24.502,26.867,29.899,28.57,29.899,30.679z"/>
	<path id="PinFaible" display="none" fill="#2ABF00" stroke="#1D7500" stroke-width="0.2" stroke-miterlimit="10" d="M29.899,12.99
		c0,5.507-3.946,10.125-9.262,11.345c-0.896,0.202-2.792,13.115-2.792,13.115s-1.961-12.913-2.887-13.142
		c-5.26-1.248-9.165-5.846-9.165-11.322c0-6.438,5.397-11.657,12.053-11.657C24.502,1.329,29.899,6.552,29.899,12.99z"/>
	<path id="PinImportant" display="none" fill="#FF8500" stroke="#BF3A00" stroke-width="0.2" stroke-miterlimit="10" d="
		M29.899,12.99c0,5.507-3.946,10.125-9.262,11.345c-0.896,0.202-2.792,13.115-2.792,13.115s-1.961-12.913-2.887-13.142
		c-5.26-1.248-9.165-5.846-9.165-11.322c0-6.438,5.397-11.657,12.053-11.657C24.502,1.329,29.899,6.552,29.899,12.99z"/>
	<path id="orange" display="none" fill="#ED1C24" stroke="#BA1522" stroke-width="0.2" stroke-miterlimit="10" d="M29.899,12.99
		c0,5.507-3.946,10.125-9.262,11.345c-0.896,0.202-2.792,13.115-2.792,13.115s-1.961-12.913-2.887-13.142
		c-5.26-1.248-9.165-5.846-9.165-11.322c0-6.438,5.397-11.657,12.053-11.657C24.502,1.329,29.899,6.552,29.899,12.99z"/>
	<path id="bleu" fill="#0092FF" stroke="#333333" stroke-width="0.2" stroke-miterlimit="10" d="M29.899,12.99
		c0,5.507-3.946,10.125-9.262,11.345c-0.896,0.202-2.792,13.115-2.792,13.115s-1.961-12.913-2.887-13.142
		c-5.26-1.248-9.165-5.846-9.165-11.322c0-6.438,5.397-11.657,12.053-11.657C24.502,1.329,29.899,6.552,29.899,12.99z"/>
</g>
<g id="Icons">
	<g id="Minimal" display="none">
		<path id="Election" display="inline" fill="#565656" d="M26.703,6.17l-5.195-2.227c-0.154-0.066-0.334-0.021-0.436,0.111
			l-1.49,1.856c-0.064,0.083-0.09,0.201-0.069,0.309c0.024,0.104,0.092,0.19,0.186,0.239L15.04,8.207
			c-0.397,0.147-0.727,0.423-0.942,0.783l-1.542,2.57c-0.327,0.545-0.353,1.213-0.068,1.783L12.6,13.56h-1.626
			c-0.206,0-0.371,0.166-0.371,0.372v7.05H9.489c-0.206,0-0.367,0.164-0.367,0.369c0,0.207,0.161,0.373,0.367,0.373H22.11
			c0.204,0,0.361-0.166,0.361-0.373c0-0.205-0.157-0.369-0.361-0.369h-1.118V17.19c0-0.125-0.069-0.248-0.172-0.312
			c-0.11-0.068-0.242-0.078-0.359-0.025c-0.409,0.192-0.707,0.29-0.853,0.332c-0.03,0.008-0.061,0.019-0.084,0.04l-2.417,1.447
			c-0.386,0.232-0.823,0.355-1.27,0.355c-0.824,0-1.59-0.41-2.06-1.104c-0.372-0.557-0.5-1.229-0.364-1.882
			c0.143-0.655,0.532-1.215,1.09-1.575l0.354-0.222c0.257-0.156,0.484-0.301,0.691-0.427c0.143-0.087,0.206-0.263,0.157-0.423
			c-0.089-0.297-0.245-0.564-0.389-0.766c0.564-0.248,1.333-0.689,1.717-1.138c0,0,0.004,0.002,0.008,0.002
			c0.081,0.05,0.176,0.101,0.283,0.153c0.009,0.002,0.012,0.005,0.021,0.008l0,0c0.276,0.134,0.628,0.267,1.03,0.347
			c-0.433,0.537-0.872,1.203-1.033,1.648c-0.308,0.135-0.944,0.496-2.436,1.446c-0.396,0.25-0.665,0.641-0.757,1.099
			c-0.101,0.46-0.015,0.927,0.251,1.318c0.332,0.499,0.875,0.774,1.438,0.774c0.302,0,0.611-0.081,0.885-0.246l2.552-1.532
			c0.395-0.096,2.38-0.691,3.885-3.121c1.177-1.905,1.838-3.439,2.112-4.134l0.046,0.023c0.153,0.076,0.324,0.115,0.496,0.115
			c0.28,0,0.564-0.114,0.772-0.311c0.221-0.209,0.339-0.495,0.339-0.8V6.512C26.923,6.363,26.838,6.228,26.703,6.17z"/>
	</g>
	<g id="Faible" display="none">
		<path id="Famine" display="inline" fill="#F9F9F9" d="M23.362,19.834l-2.95,0.557l-4.815-2.617l1.749-2.185l3.94,1.308
			L23.362,19.834z M27.895,14.714v0.328l-3.107,0.984l-3.065,0.436l-3.938-1.31l-0.927-0.438h0.527
			c-0.124-1.171-0.294-2.059-0.375-3.221h-0.005c-0.003-0.035-0.043-0.813-0.055-1.145c-0.061-0.35-0.227-0.489-0.774-0.864
			c-0.298-0.194-0.521-0.263-0.646-0.261c-0.202,0-0.38,0.217-0.421,0.873c0.877,0.149,0.936,1.12,0.936,1.12
			c0.078,0.689-0.262,1.696-1.042,1.958c-1.442,0.48-1.292-2.297-0.479-2.964c0.021-0.8,0.245-1.534,1.007-1.564
			c0.302,0.004,0.609,0.126,0.965,0.353C16.661,9.1,16.8,9.204,16.921,9.311c-0.014-0.265-0.032-0.535-0.032-0.812
			c-0.001-0.584,0.092-1.22,0.61-1.67c0.265-0.241,0.564-0.366,0.86-0.364c0.771,0.038,1.25,0.701,1.525,1.38
			c0.325-0.143,0.729-0.212,1.194-0.05c1.185,0.412,1.826,2.478,1.329,3.199c-1.168,1.678-4.11-1.447-3.333-2.538
			c0,0,0.115-0.147,0.316-0.31c-0.229-0.603-0.688-1.141-1.033-1.103c-0.13,0.003-0.282,0.047-0.476,0.221
			c-0.329,0.287-0.414,0.697-0.414,1.237c0,0.379,0.045,0.8,0.045,1.222c0,0.22,0.015,0.413,0.022,0.625
			c0.051,0.376,0.055,0.666,0.051,1.062c0.082,1.158,0.552,2.11,0.676,3.303L27.895,14.714L27.895,14.714z M19.605,8.375
			l2.229,2.428c-0.396-1.722-1.809-2.682-1.809-2.682L19.605,8.375z M14.987,10.459l-0.398,0.164c0,0-0.2,1.357,0,2.066
			L14.987,10.459z M12.99,18.649l1.771-1.064l1.848-2.284l-0.576-0.587h-4.08l-0.811,1.616L12.99,18.649z M15.056,18.283
			l-3.14,2.136l0.419,0.517h7.225l-0.024-0.104L15.056,18.283z M8.597,14.714v2.464l2.012-1.078l0.609-1.386H8.597z M22.306,16.99
			l1.945,2.822l3.644,0.856v-3.23l-2.62-0.844L22.306,16.99z M27.895,16.732v-1.14l-2.042,0.552L27.895,16.732z M10.658,16.89
			l-2.063,0.981v3.064h1.509l2.246-1.839L10.658,16.89z M21.453,20.936h4.716l-2.257-0.544L21.453,20.936z"/>
		<path id="Cyclone" display="inline" fill="#FFFFFF" d="M18.321,8.086c-0.101-0.003-0.198-0.018-0.297-0.018
			c-0.886,0-1.716,0.231-2.439,0.628c1.292-4.4,4.517-4.784,4.517-4.784s-7.123,0.593-7.123,8.905c0.004,0,0.01,0,0.015,0
			c-0.005,0.101-0.015,0.197-0.015,0.299c0,0.879,0.229,1.712,0.629,2.438C9.205,14.26,8.821,11.04,8.821,11.04
			s0.592,7.125,8.907,7.125c0-0.007,0-0.01,0-0.017c0.097,0.005,0.194,0.017,0.294,0.017c0.885,0,1.716-0.231,2.438-0.631
			c-1.292,4.401-4.517,4.788-4.517,4.788s7.123-0.596,7.123-8.906c-0.004,0-0.009,0-0.014,0c0.004-0.1,0.014-0.196,0.014-0.296
			c0-0.884-0.23-1.717-0.632-2.438c4.403,1.291,4.787,4.516,4.787,4.516s-0.591-7.125-8.902-7.125
			C18.321,8.077,18.321,8.082,18.321,8.086z"/>
		<path id="eruption" display="inline" fill="#FFFFFF" d="M19.427,9.681c1.061,0.363,2.468,0.79,2.766-0.921
			c0.238-1.331,2.016-0.837,2.77-0.923c1.378-0.158,0.337-2.732-1.383-2.77c-1.743-0.038-2.536,0.725-3.229,2.308
			c-0.333,0.761-0.614,1.333-1.847,0.924c-1.229-0.412-2.135,0.599-1.385,1.847c0.664,1.1-0.011,2.306-0.011,2.306h1.858
			c0,0-0.016-0.685-0.463-1.385C17.982,10.251,18.34,9.308,19.427,9.681z M9.589,21.165c4.778-3.479,5.973-8.292,5.973-8.292h4.905
			c0,0,1.194,4.812,5.968,8.292H9.589z"/>
		<path id="tsunami" display="inline" fill="#FFFFFF" d="M26.972,18.98c-14.659,0.829-10.564-10.384-6.763-9.415
			c-0.391,0.238-0.644,1.063-0.401,1.618c0.267,0.595,1.124,0.934,1.618,0.811c1.181-0.305,1.234-1.962,0.809-2.833
			c-0.441-0.906-1.608-2.023-3.641-2.023c-4.909,0-8.258,2.508-9.519,6.818v6.337h17.898L26.972,18.98L26.972,18.98z"/>
		<path id="epidemie" display="inline" fill="#FFFFFF" d="M25.669,13.86c0-4.19-3.282-7.602-7.418-7.814
			c1.826,0.174,3.248,1.499,3.248,3.112c0,0.554-0.184,1.065-0.479,1.517c-0.816-0.813-1.938-1.314-3.181-1.314
			c-1.237,0-2.359,0.501-3.171,1.312c-0.294-0.452-0.478-0.962-0.478-1.518c0-1.61,1.422-2.937,3.246-3.111
			c-4.135,0.212-7.418,3.624-7.418,7.816c0,1.263,0.309,2.456,0.837,3.514c-0.726-1.655-0.286-3.516,1.094-4.313
			c0.479-0.277,1.019-0.376,1.552-0.346c-0.102,0.369-0.169,0.753-0.169,1.154c0,2.082,1.423,3.82,3.34,4.336
			c-0.024,0.046-0.055,0.088-0.082,0.132c0,0.004,0,0.004,0,0.01c-0.062,0.145-0.144,0.258-0.24,0.357
			c-0.204,0.271-0.442,0.51-0.748,0.687c-1.387,0.8-3.231,0.244-4.295-1.23c1.401,2.126,3.805,3.534,6.537,3.534
			c2.707,0,5.089-1.376,6.497-3.469c-1.07,1.427-2.88,1.952-4.247,1.17c-0.484-0.285-0.838-0.705-1.077-1.193
			c1.919-0.518,3.331-2.258,3.331-4.335c0-0.4-0.063-0.785-0.166-1.154c0.542-0.035,1.08,0.063,1.563,0.343
			c1.34,0.773,1.796,2.547,1.155,4.168C25.391,16.203,25.669,15.066,25.669,13.86z M18.676,16.873
			c-0.033-0.652,0.104-1.336,0.431-1.982l-0.521-0.3c-0.188,0.193-0.449,0.312-0.74,0.312s-0.554-0.119-0.741-0.312l-0.511,0.292
			c0.327,0.65,0.463,1.341,0.429,1.992c-1.324-0.362-2.307-1.568-2.307-3.006c0-0.275,0.044-0.535,0.112-0.787
			c0.577,0.292,1.102,0.749,1.504,1.35l0.522-0.304c-0.023-0.089-0.057-0.174-0.057-0.27c0-0.484,0.333-0.875,0.783-0.992v-0.595
			c-0.726-0.047-1.384-0.273-1.93-0.63c0.564-0.557,1.338-0.9,2.188-0.9c0.854,0,1.629,0.345,2.196,0.902
			c-0.546,0.359-1.206,0.581-1.931,0.628v0.597c0.447,0.116,0.78,0.509,0.78,0.991c0,0.099-0.028,0.182-0.051,0.271l0.531,0.311
			c0.399-0.603,0.925-1.057,1.498-1.348c0.063,0.249,0.109,0.508,0.109,0.777C20.974,15.304,19.998,16.506,18.676,16.873z"/>
		<path id="earthquake" display="inline" fill="#FFFFFF" d="M23.241,13.669c-0.252,0-0.481,0.139-0.602,0.362l-0.979,1.841
			l-1.204-3.53c-0.095-0.267-0.34-0.447-0.62-0.46c-0.29-0.008-0.541,0.156-0.652,0.417l-0.826,1.961l-1.302-7.815
			c-0.062-0.326-0.368-0.575-0.685-0.558c-0.334,0.008-0.611,0.229-0.655,0.562l-1.157,9.066l-0.933-4.866
			c-0.052-0.286-0.287-0.507-0.579-0.546c-0.288-0.04-0.575,0.116-0.7,0.38l-1.53,3.186H8.444v1.357h2.802
			c0.261,0,0.501-0.152,0.615-0.384l0.82-1.711l1.326,6.903c0.063,0.32,0.341,0.552,0.668,0.552c0.003,0,0.012,0,0.018,0
			c0.332-0.008,0.608-0.259,0.654-0.59l1.138-8.91l0.946,5.865c0.055,0.297,0.295,0.521,0.597,0.554
			c0.303,0.029,0.585-0.135,0.704-0.414l1.018-2.421l1.135,3.325c0.088,0.258,0.317,0.438,0.586,0.462
			c0.272,0.015,0.529-0.12,0.659-0.36l1.52-2.87h2.917v-1.358H23.241z"/>
	</g>
	<g id="Modéré" display="none">
		<path id="displaced" display="inline" fill="#FFFFFF" d="M17.515,6.591c0.121,0.754-0.389,1.463-1.136,1.586
			c-0.75,0.124-1.464-0.388-1.587-1.134c-0.123-0.757,0.381-1.468,1.137-1.589C16.679,5.329,17.391,5.837,17.515,6.591z
			 M17.083,12.064l1.223,1.95c0.172,0.274,0.532,0.362,0.812,0.2c0.281-0.167,0.377-0.523,0.222-0.805l-0.311-0.564
			c-0.271-0.479-0.533-0.96-0.804-1.441l-0.542-0.986c-0.063-0.117-0.125-0.248-0.188-0.38c-0.333-0.704-0.856-1.791-2.002-1.692
			c-0.986,0.086-1.981,0.552-2.959,1.385c-1.161,0.918-1.973,2.245-2.006,2.304c-0.039,0.058-0.073,0.117-0.105,0.174
			c-0.003,0-0.003,0.002-0.006,0.005l0,0c-0.107,0.204-0.161,0.392-0.025,0.631c0.106,0.189,0.308,0.306,0.521,0.306
			c0.261,0,0.396-0.125,0.521-0.311l0,0c0.005,0,0.005-0.004,0.005-0.004c0.04-0.054,0.072-0.112,0.11-0.174
			c0.008-0.015,0.69-1.108,1.741-2.004c0.324-0.254,0.635-0.429,0.926-0.524l-0.234,2.838c-0.023,0.283-0.111,0.765-0.189,1.038
			l-0.528,1.85c-0.069,0.234-0.268,0.621-0.421,0.812l-1.429,1.768c-0.182,0.227-0.386,0.48-0.216,0.83
			c0.103,0.208,0.311,0.34,0.542,0.34c0.274,0,0.426-0.156,0.612-0.362l1.445-1.558c0.258-0.279,0.594-0.762,0.761-1.104
			l0.713-1.454l2.653,4.454c0.127,0.22,0.293,0.492,0.652,0.492l0,0c0.206,0,0.394-0.104,0.503-0.274
			c0.192-0.296,0.063-0.563-0.047-0.803l-2.14-4.655c-0.083-0.183-0.131-0.557-0.096-0.756L17.083,12.064z M19.33,16.91h3.209v0.954
			l3.192-1.843l-3.192-1.845v0.954H19.33V16.91z"/>
		<path id="returned" display="inline" fill="#FFFFFF" d="M17.517,6.589c0.12,0.752-0.39,1.462-1.138,1.586
			c-0.753,0.124-1.463-0.386-1.585-1.138c-0.124-0.754,0.382-1.462,1.138-1.586C16.679,5.327,17.396,5.835,17.517,6.589z
			 M17.085,12.06l1.223,1.954c0.171,0.271,0.533,0.362,0.814,0.198c0.276-0.167,0.372-0.523,0.217-0.808l-0.311-0.56
			c-0.269-0.479-0.53-0.962-0.798-1.443l-0.544-0.989c-0.064-0.111-0.124-0.242-0.188-0.377c-0.336-0.704-0.86-1.79-2.005-1.689
			c-0.985,0.083-1.979,0.55-2.958,1.382c-1.159,0.918-1.974,2.248-2.011,2.302c-0.035,0.06-0.069,0.119-0.102,0.176
			c-0.001,0.003-0.004,0.003-0.004,0.005l0,0c-0.109,0.208-0.162,0.395-0.026,0.633c0.106,0.189,0.306,0.304,0.521,0.304
			c0.261,0,0.396-0.123,0.523-0.309l0,0c0.003-0.003,0.003-0.003,0.003-0.003c0.035-0.057,0.071-0.116,0.11-0.18
			c0.007-0.01,0.69-1.102,1.742-2.001c0.324-0.252,0.633-0.429,0.925-0.525l-0.235,2.842c-0.023,0.283-0.111,0.765-0.189,1.038
			l-0.528,1.85c-0.069,0.234-0.268,0.621-0.423,0.812l-1.427,1.768c-0.182,0.227-0.386,0.48-0.216,0.833
			c0.1,0.206,0.311,0.34,0.54,0.34c0.275,0,0.424-0.158,0.615-0.362l1.444-1.56c0.258-0.279,0.592-0.76,0.757-1.103l0.718-1.457
			l2.653,4.455c0.128,0.22,0.296,0.492,0.653,0.492l0,0c0.208,0,0.396-0.104,0.507-0.279c0.189-0.293,0.063-0.559-0.047-0.798
			l-2.143-4.659c-0.085-0.179-0.133-0.553-0.098-0.753L17.085,12.06z M26.014,13.055c0-1.946-1.582-3.523-3.523-3.523h-1.499v1.779
			h1.496c0.959,0,1.743,0.78,1.743,1.745c0,0.961-0.783,1.744-1.743,1.744h-0.31v-0.957l-3.193,1.846l3.192,1.844v-0.958h0.347
			v-0.003C24.45,16.554,26.014,14.985,26.014,13.055z"/>
	</g>
	<g id="Important" display="none">
		<path id="enlevement" display="inline" fill="#FFFFFF" d="M24.37,4.503c-0.484,0-0.881,0.398-0.881,0.885v3.594
			c0.212,0.047,0.416,0.137,0.581,0.298c0.465,0.458,0.477,1.211,0.022,1.68l-1.672,1.719l-0.232-0.223l1.68-1.715
			c0.337-0.347,0.329-0.899-0.018-1.239c-0.108-0.102-0.233-0.173-0.368-0.21c-0.149-0.04-0.296-0.042-0.441-0.012
			c-0.163,0.042-0.307,0.123-0.421,0.246c-0.992,1.018-1.989,2.037-2.98,3.054c-0.253,0.256-0.708,0.84-0.692,1.423
			c0.01,0.549-0.008,1.112,0.003,1.662c-0.132-0.104-0.29-0.183-0.465-0.215c-0.513-0.084-0.976,0.222-1.152,0.678h-0.26
			c0-0.126,0-0.251,0.003-0.375c0.013-0.574-0.008-1.171,0.005-1.748c0.011-0.584-0.442-1.168-0.691-1.423
			c-0.99-1.019-1.985-2.037-2.98-3.057c-0.116-0.122-0.258-0.206-0.422-0.245c-0.146-0.029-0.295-0.027-0.439,0.012
			c-0.138,0.039-0.266,0.111-0.372,0.212c-0.342,0.339-0.348,0.89-0.016,1.241l1.678,1.711l-0.231,0.224l-1.673-1.719
			c-0.456-0.47-0.444-1.222,0.022-1.678c0.163-0.158,0.367-0.251,0.581-0.298V5.389c0-0.487-0.397-0.884-0.88-0.884
			c-0.489,0-0.883,0.398-0.883,0.884v6.224c0,0.204,0.083,0.39,0.204,0.542l3.006,3.97h-0.27c-0.583,0-1.062,0.475-1.062,1.064
			c0,0.39,0.221,0.717,0.531,0.9c-0.311,0.186-0.531,0.513-0.531,0.899c0,0.589,0.476,1.067,1.062,1.067h0.324v0.59h2.952
			c0.155,0.154,0.333,0.267,0.553,0.305c0.063,0.009,0.117,0.015,0.178,0.015c0.519,0,0.959-0.371,1.046-0.884l0.004-0.025h0.188
			c0.002,0.194,0,0.387,0.023,0.59h3.004v-0.587h0.326c0.585,0,1.062-0.476,1.062-1.067c0-0.386-0.22-0.712-0.537-0.898
			c0.317-0.185,0.537-0.511,0.537-0.903c0-0.586-0.477-1.062-1.062-1.062h-0.268l3.005-3.973c0.125-0.151,0.203-0.337,0.203-0.542
			V5.391C25.253,4.901,24.86,4.503,24.37,4.503z M13.185,17.188c0-0.292,0.241-0.53,0.53-0.53h3.484l-0.184,1.062h-3.3
			C13.426,17.716,13.185,17.482,13.185,17.188z M13.185,18.988c0-0.29,0.241-0.531,0.53-0.531h3.172l-0.183,1.066h-2.989
			C13.426,19.523,13.185,19.288,13.185,18.988z M18.241,19.991c-0.045,0.291-0.35,0.479-0.613,0.436
			c-0.141-0.025-0.26-0.103-0.342-0.217c-0.087-0.116-0.115-0.257-0.092-0.396l0.587-3.404c0.045-0.259,0.268-0.442,0.533-0.442
			c0.025,0,0.055,0,0.082,0.006c0.288,0.05,0.482,0.324,0.432,0.613L18.241,19.991z M22.84,18.988c0,0.296-0.239,0.533-0.528,0.533
			h-3.45l0.183-1.064h3.265C22.601,18.459,22.84,18.699,22.84,18.988z M22.84,17.188c0,0.292-0.239,0.53-0.528,0.53h-3.138
			l0.18-1.04c0.004-0.007,0-0.015,0-0.021h2.953C22.601,16.657,22.84,16.897,22.84,17.188z"/>
	</g>
	<g id="Elevé">
		<path id="Attack" fill="#FFFFFF" d="M22.119,14.323l5.246-3.358l-5.067-0.538l1.375-5.887l-3.594,3.714l-1.001-4.198l-1.507,3.918
			l-4.108-5.291l1.291,6.628l-3.649-0.808c0,0,1.106,2.122,1.727,3.402l-5.857-0.412l5.301,3.099l-1.522,1.565l2.467-0.45
			l-1.748,6.177l5.19-4.342l1.346,3.356l1.384-2.684l4.477,4.623l-2.236-6.189l4.906,0.497L22.119,14.323z"/>
	</g>
	<g id="Extreme" display="none">
		<path id="rebelion" display="inline" fill="#FFFFFF" d="M20.799,8.336c0,1.638-1.327,2.961-2.96,2.961
			c-1.638,0-2.964-1.326-2.964-2.961c0-1.639,1.326-2.962,2.963-2.962C19.472,5.374,20.799,6.697,20.799,8.336z M12.892,20.898
			h1.812H14.8l0.064-0.138l0.659-0.645l-0.608-0.128l-0.959-0.206L12.892,20.898z M25.286,8.887L24.65,9.521l0.043,0.043
			l-0.513,0.518c0.068,0.063,0.136,0.127,0.19,0.201l0.518-0.518l0.106,0.097l0.625-0.64L25.286,8.887z M21.195,12.173l-0.274,0.269
			l0.032,0.078l0.063,0.144l-4.318,4.332l0.465,0.1c0.425,0.089,0.793,0.345,1.034,0.713c0.027,0.052,0.037,0.116,0.067,0.172
			l0.012-0.015l0.317,0.209l0.115-0.024l1.259,0.913l0.848-1.158l-1.876-1.466l0.041-0.121h0.311l1.839-2.159l0.207-1.937
			L21.195,12.173z M23.202,10.257c-0.56-0.063-1.104,0.356-1.168,0.936l-0.072,0.631l0,0l-0.043,0.458l-0.205,1.938l-0.021,0.18
			l-0.116,0.138l-1.647,1.934l1.242,0.973l0.447,0.35l-0.262,0.355l0.065,0.129c0.171,0.371,0.55,0.602,0.958,0.602
			c0.057,0,0.115-0.001,0.176-0.013c0.466-0.081,0.822-0.459,0.873-0.928l0.704-6.515C24.201,10.84,23.78,10.316,23.202,10.257z
			 M21.045,18.577l-0.604,0.832l-0.346,0.477L19.62,19.54l-1.043-0.754l-0.092,0.023l-0.036-0.026c0,0.091-0.004,0.176-0.025,0.265
			c-0.021,0.087-0.05,0.166-0.083,0.248c-0.065,0.154-0.15,0.287-0.253,0.413l0.073,0.165c0.072,0.165,0.174,0.383,0.295,0.57
			l0.29,0.455h2.227L21.045,18.577z M16.813,20.351c-0.024,0-0.053-0.008-0.074-0.009c-0.015,0.047-0.021,0.083-0.021,0.083
			l0.252,0.474h0.603l0.389-0.136c-0.131-0.207-0.238-0.432-0.338-0.654C17.378,20.25,17.111,20.351,16.813,20.351z M17.683,18.109
			c-0.042-0.065-0.107-0.118-0.168-0.173c-0.034-0.033-0.063-0.077-0.105-0.104c-0.109-0.077-0.238-0.135-0.375-0.167l-0.46-0.092
			l-1.055-0.227l0,0l-0.932-0.199l-0.363-0.077l-0.598-0.129l-0.037-0.006l0.094-0.098l0.404-0.4l0.432-0.435
			c0.034,0.298,0.053,0.534,0.053,0.54l0.14,0.03l1.308,0.278l0.267-0.269l4.04-4.06l-0.091-0.226l0.034-0.027
			c-0.588-0.175-1.276-0.276-2.146-0.276h-0.285c0,0-0.281,0-0.285,0c-0.607,0-1.224,0.041-1.828,0.176
			c-1.033,0.231-1.676,1.246-2.385,1.944c-0.73,0.718-1.439,1.468-2.15,2.206c-0.158,0.165-0.316,0.335-0.478,0.498
			c-0.272,0.275-0.372,0.675-0.263,1.051c0.104,0.371,0.414,0.652,0.793,0.736l1.397,0.299l0.594,0.125l3.359,0.715
			c0.074,0.013,0.15,0.024,0.222,0.024c0.488,0,0.928-0.341,1.034-0.838c0.039-0.195,0.009-0.38-0.051-0.556l-0.063-0.133
			C17.716,18.202,17.701,18.159,17.683,18.109z M16.201,20.693l-0.103-0.189l0.052-0.21l0.009-0.043l-0.161-0.033l-0.595,0.681
			h0.899L16.201,20.693z"/>
	</g>
</g>
</svg>
