<?xml version="1.0" encoding="utf-8"?>
<!-- Generator: Adobe Illustrator 16.0.0, SVG Export Plug-In . SVG Version: 6.00 Build 0)  -->
<!DOCTYPE svg PUBLIC "-//W3C//DTD SVG 1.1//EN" "http://www.w3.org/Graphics/SVG/1.1/DTD/svg11.dtd">
<svg version="1.1" id="Layer_1" xmlns="http://www.w3.org/2000/svg" xmlns:xlink="http://www.w3.org/1999/xlink" x="0px" y="0px"
	 width="33.35px" height="40px" viewBox="0 0 33.35 40" enable-background="new 0 0 33.35 40" xml:space="preserve">
<g id="PinColor">
	<path id="PinOmbre" opacity="0.3" enable-background="new    " d="M28.81,30.508c0,1.764-3.873,3.245-9.086,3.637
		c-0.879,0.065-2.739,4.204-2.739,4.204s-1.925-4.142-2.833-4.211c-5.162-0.401-8.992-1.875-8.992-3.63
		c0-2.064,5.295-3.74,11.825-3.74S28.81,28.44,28.81,30.508z"/>
	<path id="vert" display="none" fill="#2ABF00" stroke="#1D7500" stroke-width="0.2" stroke-miterlimit="10" d="M28.81,13.153
		c0,5.403-3.873,9.935-9.086,11.129c-0.879,0.199-2.739,12.867-2.739,12.867s-1.925-12.668-2.833-12.89
		c-5.162-1.228-8.992-5.736-8.992-11.11c0-6.317,5.295-11.437,11.825-11.437S28.81,6.836,28.81,13.153z"/>
	<path id="orange" fill="#FF8500" stroke="#7F4500" stroke-width="0.2" stroke-miterlimit="10" d="M28.81,13.153
		c0,5.403-3.873,9.935-9.086,11.129c-0.879,0.199-2.739,12.867-2.739,12.867s-1.925-12.668-2.833-12.89
		c-5.162-1.228-8.992-5.736-8.992-11.11c0-6.317,5.295-11.437,11.825-11.437S28.81,6.836,28.81,13.153z"/>
	<path id="gris" display="none" fill="#A5A5A5" stroke="#595959" stroke-width="0.2" stroke-miterlimit="10" d="M28.81,13.153
		c0,5.403-3.873,9.935-9.086,11.129c-0.879,0.199-2.739,12.867-2.739,12.867s-1.925-12.668-2.833-12.89
		c-5.162-1.228-8.992-5.736-8.992-11.11c0-6.317,5.295-11.437,11.825-11.437S28.81,6.836,28.81,13.153z"/>
	<path id="bleu" display="none" fill="#0092FF" stroke="#00477C" stroke-width="0.2" stroke-miterlimit="10" d="M28.81,13.153
		c0,5.403-3.873,9.935-9.086,11.129c-0.879,0.199-2.739,12.867-2.739,12.867s-1.925-12.668-2.833-12.89
		c-5.162-1.228-8.992-5.736-8.992-11.11c0-6.317,5.295-11.437,11.825-11.437S28.81,6.836,28.81,13.153z"/>
</g>
<g id="Icons">
	<g id="Minimal">
		<path id="Election" display="none" fill="#565656" d="M26.602,1.427l-3.984-1.709c-0.118-0.05-0.256-0.016-0.334,0.085
			l-1.143,1.424c-0.051,0.063-0.069,0.154-0.055,0.238c0.021,0.08,0.07,0.146,0.142,0.184l-3.572,1.34
			c-0.303,0.112-0.558,0.324-0.723,0.6l-1.184,1.971c-0.25,0.418-0.271,0.93-0.052,1.367l0.085,0.168h-1.247
			c-0.158,0-0.286,0.127-0.286,0.285v5.408h-0.853c-0.158,0-0.282,0.127-0.282,0.283c0,0.158,0.125,0.285,0.282,0.285h9.681
			c0.155,0,0.278-0.127,0.278-0.285c0-0.156-0.123-0.283-0.278-0.283h-0.855V9.879c0-0.097-0.053-0.19-0.133-0.24
			c-0.083-0.053-0.186-0.06-0.272-0.019c-0.313,0.148-0.544,0.222-0.653,0.254c-0.023,0.006-0.047,0.015-0.065,0.031l-1.854,1.11
			c-0.298,0.178-0.633,0.272-0.975,0.272c-0.632,0-1.221-0.313-1.579-0.846c-0.288-0.427-0.386-0.943-0.28-1.444
			c0.106-0.502,0.406-0.932,0.835-1.208l0.271-0.171c0.197-0.12,0.373-0.23,0.53-0.327c0.108-0.068,0.158-0.201,0.121-0.325
			c-0.069-0.228-0.188-0.432-0.299-0.587c0.436-0.19,1.022-0.529,1.318-0.873c0,0,0.004,0.002,0.006,0.002
			c0.062,0.038,0.134,0.078,0.218,0.118c0.004,0.002,0.006,0.004,0.014,0.006l0,0c0.213,0.103,0.48,0.205,0.789,0.266
			c-0.331,0.411-0.669,0.922-0.791,1.262c-0.234,0.104-0.726,0.382-1.868,1.11c-0.304,0.194-0.512,0.493-0.581,0.845
			c-0.075,0.352-0.011,0.71,0.192,1.01c0.254,0.382,0.672,0.593,1.104,0.593c0.23,0,0.469-0.062,0.68-0.189l1.957-1.175
			c0.304-0.074,1.826-0.53,2.979-2.394c0.903-1.461,1.41-2.638,1.62-3.17l0.035,0.018c0.119,0.059,0.249,0.089,0.381,0.089
			c0.218,0,0.436-0.087,0.595-0.239c0.169-0.16,0.261-0.379,0.261-0.613V1.689C26.772,1.574,26.705,1.47,26.602,1.427z"/>
	</g>
	<g id="Faible" display="none">
		<path id="Famine" display="inline" fill="#F9F9F9" d="M24.037,11.907l-2.263,0.428l-3.693-2.009l1.342-1.675l3.021,1.003
			L24.037,11.907z M27.514,7.98v0.25l-2.38,0.756L22.781,9.32L19.76,8.315L19.048,7.98h0.406c-0.096-0.898-0.227-1.58-0.289-2.471
			h-0.004c-0.002-0.027-0.033-0.624-0.041-0.878c-0.046-0.268-0.175-0.375-0.593-0.664c-0.23-0.148-0.401-0.202-0.498-0.2
			c-0.153,0-0.291,0.167-0.322,0.669c0.671,0.114,0.718,0.858,0.718,0.858c0.061,0.529-0.2,1.302-0.799,1.501
			c-1.104,0.372-0.992-1.759-0.368-2.271c0.018-0.613,0.188-1.177,0.771-1.199c0.231,0.001,0.468,0.096,0.74,0.27
			c0.131,0.078,0.234,0.158,0.328,0.239c-0.011-0.202-0.022-0.409-0.022-0.622c-0.002-0.448,0.068-0.936,0.466-1.281
			c0.204-0.187,0.435-0.282,0.66-0.281c0.593,0.029,0.958,0.539,1.172,1.059c0.248-0.108,0.56-0.161,0.915-0.038
			c0.909,0.316,1.398,1.901,1.02,2.454c-0.896,1.287-3.152-1.11-2.557-1.946c0,0,0.087-0.114,0.241-0.239
			c-0.175-0.462-0.527-0.875-0.791-0.846c-0.1,0.002-0.216,0.037-0.365,0.169c-0.251,0.221-0.316,0.536-0.316,0.949
			c0,0.291,0.035,0.613,0.035,0.937c0,0.169,0.012,0.317,0.018,0.481c0.041,0.289,0.043,0.51,0.041,0.815
			c0.063,0.888,0.421,1.618,0.516,2.534L27.514,7.98L27.514,7.98z M21.156,3.118l1.71,1.863c-0.306-1.321-1.39-2.057-1.39-2.057
			L21.156,3.118z M17.614,4.717l-0.306,0.125c0,0-0.151,1.042,0,1.585L17.614,4.717z M16.081,10.998l1.359-0.817l1.416-1.752
			L18.415,7.98h-3.13l-0.622,1.24L16.081,10.998z M17.667,10.717l-2.407,1.639l0.32,0.397h5.541l-0.02-0.082L17.667,10.717z
			 M12.712,7.98v1.89l1.542-0.827l0.469-1.063H12.712z M23.229,9.724l1.493,2.166l2.792,0.656v-2.478l-2.01-0.647L23.229,9.724z
			 M27.514,9.527V8.653l-1.565,0.424L27.514,9.527z M14.294,9.648l-1.582,0.753v2.352h1.157l1.724-1.411L14.294,9.648z
			 M22.574,12.753h3.616l-1.729-0.418L22.574,12.753z"/>
		<path id="Cyclone" display="inline" fill="#FFFFFF" d="M20.171,2.896c-0.075-0.003-0.151-0.013-0.228-0.013
			c-0.681,0-1.316,0.176-1.871,0.482c0.991-3.376,3.464-3.67,3.464-3.67s-5.464,0.456-5.464,6.83c0.004,0,0.008,0,0.011,0
			c-0.003,0.077-0.011,0.152-0.011,0.23c0,0.675,0.177,1.313,0.481,1.87c-3.375-0.992-3.67-3.463-3.67-3.463
			s0.454,5.465,6.833,5.465c0-0.006,0-0.007,0-0.013c0.073,0.004,0.149,0.013,0.228,0.013c0.68,0,1.315-0.177,1.871-0.484
			c-0.992,3.377-3.467,3.672-3.467,3.672s5.466-0.457,5.466-6.832c-0.005,0-0.008,0-0.012,0c0.004-0.076,0.012-0.15,0.012-0.227
			c0-0.679-0.177-1.317-0.484-1.87c3.377,0.99,3.672,3.463,3.672,3.463s-0.452-5.464-6.829-5.464
			C20.171,2.888,20.171,2.892,20.171,2.896z"/>
		<path id="eruption" display="inline" fill="#FFFFFF" d="M21.022,4.12c0.813,0.277,1.893,0.606,2.12-0.708
			c0.185-1.021,1.547-0.642,2.125-0.707c1.058-0.122,0.26-2.097-1.063-2.125c-1.336-0.03-1.944,0.557-2.477,1.77
			c-0.257,0.583-0.473,1.023-1.417,0.709c-0.943-0.315-1.638,0.46-1.063,1.417c0.509,0.845-0.007,1.769-0.007,1.769h1.425
			c0,0-0.011-0.524-0.354-1.062C19.911,4.557,20.187,3.833,21.022,4.12z M13.475,12.928c3.664-2.668,4.579-6.36,4.579-6.36h3.766
			c0,0,0.915,3.69,4.577,6.36H13.475z"/>
		<path id="tsunami" display="inline" fill="#FFFFFF" d="M26.808,11.251c-11.244,0.637-8.104-7.964-5.188-7.221
			c-0.301,0.183-0.493,0.816-0.308,1.242c0.203,0.456,0.859,0.717,1.239,0.622c0.904-0.234,0.945-1.505,0.618-2.173
			c-0.338-0.694-1.23-1.551-2.791-1.551c-3.767,0-6.335,1.923-7.303,5.229v4.861h13.729v-1.009H26.808z"/>
		<path id="epidemie" display="inline" fill="#FFFFFF" d="M25.809,7.325c0-3.215-2.52-5.831-5.689-5.994
			c1.4,0.134,2.492,1.15,2.492,2.388c0,0.425-0.142,0.817-0.367,1.163c-0.627-0.624-1.485-1.008-2.438-1.008
			c-0.95,0-1.812,0.384-2.435,1.006c-0.226-0.346-0.368-0.738-0.368-1.164c0-1.235,1.091-2.253,2.489-2.387
			c-3.17,0.164-5.688,2.781-5.688,5.996c0,0.969,0.234,1.883,0.643,2.695c-0.558-1.271-0.22-2.697,0.838-3.308
			c0.369-0.212,0.781-0.289,1.19-0.265c-0.075,0.283-0.129,0.577-0.129,0.885c0,1.596,1.093,2.929,2.563,3.326
			c-0.021,0.035-0.044,0.067-0.063,0.101c0,0.003,0,0.003,0,0.008c-0.05,0.109-0.11,0.198-0.185,0.274
			c-0.158,0.207-0.342,0.391-0.576,0.526c-1.062,0.614-2.476,0.188-3.294-0.943c1.075,1.631,2.917,2.71,5.014,2.71
			c2.076,0,3.905-1.056,4.985-2.661c-0.821,1.095-2.211,1.498-3.258,0.897c-0.371-0.217-0.643-0.54-0.828-0.914
			c1.474-0.397,2.558-1.732,2.558-3.325c0-0.308-0.052-0.603-0.128-0.885c0.414-0.027,0.826,0.049,1.197,0.264
			c1.028,0.593,1.378,1.955,0.887,3.197C25.596,9.122,25.809,8.25,25.809,7.325z M20.445,9.636c-0.025-0.5,0.08-1.025,0.331-1.521
			l-0.401-0.23c-0.143,0.148-0.345,0.239-0.568,0.239c-0.222,0-0.423-0.091-0.566-0.239L18.847,8.11
			c0.25,0.5,0.355,1.028,0.328,1.528c-1.017-0.278-1.77-1.203-1.77-2.306c0-0.211,0.033-0.41,0.085-0.604
			c0.442,0.224,0.847,0.573,1.153,1.036l0.401-0.234c-0.017-0.069-0.043-0.133-0.043-0.207c0-0.371,0.258-0.671,0.604-0.761V6.106
			c-0.559-0.036-1.063-0.208-1.482-0.482c0.436-0.428,1.026-0.69,1.682-0.69c0.654,0,1.249,0.264,1.685,0.692
			c-0.42,0.273-0.925,0.444-1.48,0.48v0.458c0.343,0.09,0.601,0.39,0.601,0.761c0,0.074-0.022,0.138-0.039,0.207l0.405,0.237
			c0.308-0.462,0.709-0.81,1.148-1.034c0.048,0.19,0.083,0.39,0.083,0.597C22.205,8.432,21.457,9.354,20.445,9.636z"/>
		<path id="earthquake" display="inline" fill="#FFFFFF" d="M23.945,7.178c-0.193,0-0.369,0.106-0.46,0.277l-0.75,1.413L21.81,6.16
			c-0.071-0.205-0.26-0.343-0.476-0.354c-0.223-0.005-0.416,0.12-0.502,0.319L20.199,7.63l-0.998-5.995
			c-0.049-0.25-0.284-0.441-0.524-0.428c-0.258,0.005-0.471,0.175-0.504,0.43l-0.885,6.957l-0.717-3.733
			c-0.041-0.219-0.22-0.388-0.443-0.418c-0.221-0.031-0.439,0.089-0.538,0.29l-1.174,2.445h-1.819v1.041h2.148
			c0.2,0,0.384-0.116,0.473-0.294l0.629-1.313l1.019,5.295c0.048,0.246,0.262,0.424,0.512,0.424c0.004,0,0.011,0,0.015,0
			c0.254-0.008,0.469-0.2,0.503-0.452l0.87-6.835l0.729,4.5c0.043,0.227,0.228,0.399,0.457,0.425c0.23,0.021,0.449-0.104,0.54-0.317
			l0.78-1.858l0.871,2.55c0.065,0.198,0.243,0.336,0.448,0.354c0.208,0.011,0.406-0.092,0.506-0.275l1.165-2.202h2.236V7.18h-2.552
			L23.945,7.178L23.945,7.178z"/>
	</g>
	<g id="Modéré" display="none">
		<path id="returned" display="inline" fill="#FFFFFF" d="M19.556,1.747c0.094,0.578-0.3,1.121-0.873,1.217
			c-0.576,0.095-1.121-0.297-1.216-0.873c-0.095-0.578,0.294-1.122,0.872-1.217C18.912,0.78,19.462,1.169,19.556,1.747z
			 M19.225,5.944l0.938,1.498c0.13,0.209,0.409,0.278,0.624,0.151c0.212-0.127,0.286-0.401,0.167-0.619l-0.236-0.43
			c-0.206-0.367-0.406-0.738-0.611-1.106L19.687,4.68c-0.049-0.085-0.095-0.185-0.146-0.289c-0.259-0.54-0.661-1.374-1.539-1.296
			c-0.755,0.064-1.518,0.422-2.27,1.061c-0.89,0.703-1.513,1.723-1.54,1.765c-0.028,0.046-0.054,0.091-0.078,0.136
			c-0.002,0.001-0.003,0.001-0.003,0.003l0,0c-0.083,0.158-0.125,0.302-0.021,0.485c0.082,0.145,0.234,0.234,0.401,0.234
			c0.201,0,0.303-0.095,0.4-0.237l0,0c0.003-0.002,0.003-0.002,0.003-0.002c0.026-0.044,0.055-0.09,0.086-0.138
			c0.005-0.008,0.528-0.846,1.336-1.535c0.249-0.194,0.483-0.33,0.709-0.404l-0.181,2.18C16.826,6.86,16.76,7.231,16.698,7.44
			l-0.403,1.42c-0.054,0.179-0.206,0.477-0.324,0.621l-1.096,1.357c-0.139,0.174-0.295,0.368-0.165,0.639
			c0.076,0.158,0.237,0.261,0.414,0.261c0.211,0,0.324-0.122,0.472-0.277l1.107-1.196c0.199-0.214,0.455-0.584,0.581-0.847
			l0.55-1.118l2.034,3.417c0.102,0.169,0.229,0.378,0.503,0.378l0,0c0.158,0,0.304-0.08,0.389-0.214
			c0.146-0.225,0.049-0.428-0.035-0.613l-1.646-3.573c-0.063-0.138-0.1-0.424-0.074-0.578L19.225,5.944z M26.072,6.706
			c0-1.492-1.214-2.703-2.702-2.703h-1.148v1.364h1.146c0.737,0,1.337,0.599,1.337,1.338c0,0.738-0.6,1.338-1.337,1.338H23.13V7.312
			l-2.449,1.415l2.449,1.415V9.407h0.269V9.405C24.872,9.39,26.072,8.188,26.072,6.706z"/>
	</g>
	<g id="Important" display="none">
		<path id="enlevement" display="inline" fill="#FFFFFF" d="M24.814,0.148c-0.371,0-0.677,0.305-0.677,0.678v2.757
			c0.163,0.036,0.318,0.105,0.444,0.229c0.356,0.352,0.366,0.929,0.018,1.29L23.318,6.42l-0.18-0.172l1.288-1.315
			c0.259-0.267,0.251-0.69-0.014-0.951c-0.083-0.078-0.18-0.133-0.282-0.161c-0.114-0.031-0.229-0.033-0.34-0.01
			c-0.124,0.033-0.234,0.095-0.321,0.188c-0.763,0.781-1.525,1.563-2.287,2.344c-0.19,0.196-0.54,0.644-0.528,1.09
			c0.008,0.42-0.006,0.852,0.002,1.274c-0.102-0.08-0.222-0.139-0.355-0.165c-0.395-0.064-0.748,0.17-0.885,0.52h-0.198
			c0-0.096,0-0.192,0.002-0.288c0.009-0.441-0.009-0.898,0.004-1.34c0.01-0.448-0.34-0.896-0.53-1.092
			c-0.763-0.78-1.525-1.561-2.289-2.344c-0.087-0.092-0.197-0.156-0.323-0.187c-0.11-0.023-0.227-0.021-0.338,0.01
			c-0.104,0.03-0.202,0.085-0.284,0.163c-0.262,0.259-0.268,0.682-0.012,0.95l1.287,1.313L16.556,6.42l-1.282-1.319
			c-0.353-0.36-0.343-0.938,0.016-1.288c0.126-0.122,0.282-0.192,0.445-0.228V0.828c0-0.373-0.306-0.678-0.677-0.678
			c-0.375,0-0.678,0.305-0.678,0.678v4.774c0,0.156,0.063,0.299,0.156,0.415l2.307,3.045H16.64c-0.446,0-0.814,0.365-0.814,0.817
			c0,0.299,0.169,0.549,0.408,0.69c-0.24,0.142-0.409,0.394-0.409,0.69c0,0.452,0.366,0.818,0.814,0.818h0.248v0.454h2.266
			c0.119,0.118,0.257,0.203,0.424,0.232c0.046,0.008,0.089,0.011,0.135,0.011c0.397,0,0.737-0.283,0.804-0.676l0.003-0.021h0.146
			c0.002,0.15,0,0.298,0.018,0.454h2.305v-0.454h0.25c0.446,0,0.814-0.364,0.814-0.818c0-0.296-0.17-0.547-0.41-0.689
			c0.24-0.141,0.41-0.392,0.41-0.692c0-0.45-0.366-0.815-0.814-0.815H23.03l2.306-3.047c0.096-0.116,0.156-0.259,0.156-0.415V0.829
			C25.49,0.453,25.189,0.148,24.814,0.148z M16.233,9.877c0-0.225,0.185-0.407,0.406-0.407h2.673l-0.143,0.815H16.64
			C16.416,10.283,16.233,10.104,16.233,9.877z M16.233,11.259c0-0.223,0.185-0.408,0.406-0.408h2.435l-0.143,0.817H16.64
			C16.416,11.667,16.233,11.487,16.233,11.259z M20.111,12.026c-0.036,0.225-0.269,0.37-0.471,0.335
			c-0.106-0.02-0.199-0.078-0.265-0.165c-0.063-0.09-0.087-0.198-0.067-0.304l0.448-2.612c0.035-0.198,0.206-0.339,0.408-0.339
			c0.021,0,0.043,0,0.065,0.005c0.221,0.038,0.368,0.249,0.329,0.47L20.111,12.026z M23.639,11.259c0,0.227-0.185,0.409-0.405,0.409
			h-2.646l0.142-0.817h2.505C23.454,10.853,23.639,11.036,23.639,11.259z M23.639,9.877c0,0.225-0.185,0.406-0.405,0.406h-2.405
			l0.139-0.798c0.001-0.006,0-0.011,0-0.017h2.267C23.454,9.47,23.639,9.654,23.639,9.877z"/>
	</g>
	<g id="Elevé">
	</g>
	<g id="Extreme" display="none">
		<path id="rebelion" display="inline" fill="#FFFFFF" d="M22.072,3.088c0,1.256-1.018,2.271-2.271,2.271
			c-1.258,0-2.273-1.017-2.273-2.271c0-1.257,1.018-2.271,2.273-2.271C21.056,0.816,22.072,1.831,22.072,3.088z M16.008,12.724h1.39
			h0.073l0.052-0.107l0.505-0.494l-0.467-0.1l-0.738-0.156L16.008,12.724z M25.514,3.509l-0.488,0.487l0.033,0.033l-0.395,0.397
			c0.053,0.048,0.104,0.097,0.146,0.154l0.396-0.397l0.081,0.074l0.479-0.49L25.514,3.509z M22.376,6.03l-0.21,0.207l0.024,0.06
			l0.048,0.111l-3.313,3.323l0.355,0.076c0.328,0.068,0.609,0.264,0.793,0.547c0.023,0.04,0.031,0.089,0.052,0.132l0.011-0.012
			l0.244,0.162l0.088-0.019l0.965,0.701l0.649-0.889l-1.438-1.123l0.03-0.094h0.236l1.413-1.657l0.157-1.485L22.376,6.03z
			 M23.915,4.561c-0.429-0.047-0.847,0.274-0.896,0.719l-0.055,0.484l0,0l-0.033,0.35L22.776,7.6L22.76,7.739l-0.091,0.106
			l-1.264,1.482l0.952,0.747l0.344,0.268L22.5,10.614l0.052,0.1c0.132,0.285,0.421,0.462,0.731,0.462
			c0.045,0,0.09-0.002,0.136-0.011c0.356-0.061,0.632-0.352,0.67-0.711l0.541-4.998C24.683,5.009,24.36,4.606,23.915,4.561z
			 M22.262,10.943l-0.465,0.639l-0.266,0.365l-0.363-0.266l-0.801-0.578l-0.07,0.018l-0.028-0.02c0,0.069-0.002,0.135-0.018,0.203
			c-0.016,0.067-0.039,0.127-0.064,0.19c-0.05,0.118-0.114,0.22-0.192,0.315l0.056,0.127c0.057,0.127,0.134,0.293,0.228,0.437
			l0.223,0.348h1.708L22.262,10.943z M19.016,12.304c-0.02,0-0.039-0.005-0.059-0.007c-0.01,0.036-0.014,0.063-0.014,0.063
			l0.191,0.363h0.463l0.3-0.105c-0.104-0.158-0.187-0.329-0.262-0.5C19.448,12.228,19.243,12.304,19.016,12.304z M19.684,10.584
			c-0.032-0.051-0.084-0.091-0.13-0.132c-0.025-0.025-0.049-0.06-0.082-0.08c-0.083-0.06-0.183-0.103-0.285-0.128l-0.354-0.072
			l-0.807-0.173l0,0L17.31,9.846l-0.279-0.058l-0.459-0.1l-0.029-0.005l0.072-0.074l0.311-0.307l0.33-0.333
			c0.027,0.228,0.041,0.408,0.041,0.412l0.107,0.022l1.002,0.213l0.205-0.206l3.101-3.113L21.64,6.123l0.025-0.021
			c-0.448-0.135-0.979-0.212-1.644-0.212h-0.219c0,0-0.217,0-0.219,0c-0.468,0-0.939,0.032-1.402,0.135
			c-0.794,0.178-1.285,0.956-1.83,1.491c-0.562,0.551-1.104,1.126-1.65,1.692c-0.121,0.129-0.242,0.259-0.366,0.384
			c-0.21,0.211-0.285,0.519-0.202,0.805c0.081,0.285,0.317,0.5,0.608,0.565l1.073,0.229l0.453,0.096l2.577,0.549
			c0.059,0.009,0.114,0.019,0.171,0.019c0.375,0,0.711-0.262,0.792-0.642c0.031-0.15,0.009-0.292-0.036-0.426l-0.05-0.103
			C19.707,10.655,19.696,10.622,19.684,10.584z M18.545,12.568l-0.077-0.146l0.038-0.164l0.008-0.031L18.39,12.2l-0.455,0.522h0.69
			L18.545,12.568z"/>
	</g>
	<path id="displaced" fill="#FFFFFF" d="M16.642,3.716c0.154,0.979-0.502,1.897-1.474,2.055c-0.975,0.163-1.9-0.499-2.059-1.471
		c-0.161-0.976,0.497-1.9,1.476-2.06C15.557,2.083,16.479,2.742,16.642,3.716z M16.083,10.813l1.581,2.528
		c0.228,0.357,0.689,0.47,1.053,0.262c0.364-0.218,0.488-0.679,0.291-1.05l-0.405-0.726c-0.353-0.62-0.694-1.246-1.043-1.87
		l-0.7-1.279c-0.081-0.15-0.162-0.317-0.245-0.492c-0.431-0.911-1.109-2.321-2.598-2.195c-1.274,0.113-2.566,0.717-3.837,1.797
		C8.675,8.976,7.622,10.7,7.583,10.774C7.532,10.847,7.485,10.928,7.448,11c-0.004,0.001-0.004,0.004-0.006,0.006l0,0
		c-0.142,0.265-0.213,0.51-0.036,0.82c0.139,0.243,0.398,0.393,0.676,0.393c0.341,0,0.513-0.163,0.681-0.4l0,0
		c0.003,0,0.003-0.005,0.003-0.005c0.046-0.068,0.09-0.146,0.144-0.226c0.007-0.013,0.89-1.432,2.256-2.598
		c0.423-0.332,0.825-0.558,1.199-0.681l-0.305,3.682c-0.03,0.364-0.144,0.995-0.243,1.344l-0.686,2.402
		c-0.091,0.302-0.345,0.807-0.546,1.05l-1.853,2.294c-0.233,0.292-0.498,0.621-0.281,1.078c0.128,0.271,0.401,0.443,0.703,0.443
		c0.357,0,0.55-0.205,0.793-0.467l1.872-2.021c0.334-0.362,0.771-0.988,0.987-1.429l0.93-1.892l3.437,5.774
		c0.167,0.284,0.381,0.642,0.847,0.642l0,0c0.267,0,0.512-0.138,0.65-0.357c0.253-0.381,0.086-0.729-0.057-1.043l-2.779-6.037
		c-0.105-0.238-0.168-0.719-0.122-0.98L16.083,10.813z M18.992,17.094h4.167v1.237l4.135-2.388l-4.135-2.389v1.237h-4.167V17.094z"
		/>
	<path id="Attack" display="none" fill="#FFFFFF" d="M23.085,7.68l4.022-2.576L23.22,4.691l1.057-4.516l-2.756,2.85l-0.771-3.22
		l-1.154,3.005l-3.149-4.059l0.988,5.085l-2.798-0.621c0,0,0.851,1.629,1.324,2.61l-4.493-0.316l4.066,2.378l-1.168,1.201
		l1.893-0.345l-1.341,4.738l3.982-3.33l1.031,2.574l1.063-2.059l3.435,3.545l-1.718-4.747l3.766,0.381L23.085,7.68z"/>
</g>
</svg>
