<?xml version="1.0" encoding="utf-8"?>
<!-- Generator: Adobe Illustrator 16.0.0, SVG Export Plug-In . SVG Version: 6.00 Build 0)  -->
<!DOCTYPE svg PUBLIC "-//W3C//DTD SVG 1.1//EN" "http://www.w3.org/Graphics/SVG/1.1/DTD/svg11.dtd">
<svg version="1.1" id="Layer_1" xmlns="http://www.w3.org/2000/svg" xmlns:xlink="http://www.w3.org/1999/xlink" x="0px" y="0px"
	 width="33.35px" height="40px" viewBox="0 0 33.35 40" enable-background="new 0 0 33.35 40" xml:space="preserve">
<g id="PinColor">
	<path id="PinOmbre" opacity="0.3" enable-background="new    " d="M28.935,30.75c0,1.764-3.873,3.246-9.086,3.637
		c-0.879,0.066-2.739,4.205-2.739,4.205s-1.925-4.143-2.833-4.211c-5.162-0.402-8.992-1.875-8.992-3.631
		c0-2.064,5.295-3.74,11.825-3.74C23.64,27.01,28.935,28.684,28.935,30.75z"/>
	<path id="vert" display="none" fill="#2ABF00" stroke="#1D7500" stroke-width="0.2" stroke-miterlimit="10" d="M28.935,13.396
		c0,5.403-3.873,9.934-9.086,11.129c-0.879,0.199-2.739,12.867-2.739,12.867s-1.925-12.668-2.833-12.891
		c-5.162-1.227-8.992-5.736-8.992-11.11c0-6.317,5.295-11.437,11.825-11.437C23.64,1.955,28.935,7.079,28.935,13.396z"/>
	<path id="orange" display="none" fill="#FF8500" stroke="#7F4500" stroke-width="0.2" stroke-miterlimit="10" d="M28.935,13.396
		c0,5.403-3.873,9.934-9.086,11.129c-0.879,0.199-2.739,12.867-2.739,12.867s-1.925-12.668-2.833-12.891
		c-5.162-1.227-8.992-5.736-8.992-11.11c0-6.317,5.295-11.437,11.825-11.437C23.64,1.955,28.935,7.079,28.935,13.396z"/>
	<path id="gris" fill="#A5A5A5" stroke="#595959" stroke-width="0.2" stroke-miterlimit="10" d="M28.935,13.396
		c0,5.403-3.873,9.934-9.086,11.129c-0.879,0.199-2.739,12.867-2.739,12.867s-1.925-12.668-2.833-12.891
		c-5.162-1.227-8.992-5.736-8.992-11.11c0-6.317,5.295-11.437,11.825-11.437C23.64,1.955,28.935,7.079,28.935,13.396z"/>
	<path id="bleu" display="none" fill="#0092FF" stroke="#00477C" stroke-width="0.2" stroke-miterlimit="10" d="M28.935,13.396
		c0,5.403-3.873,9.934-9.086,11.129c-0.879,0.199-2.739,12.867-2.739,12.867s-1.925-12.668-2.833-12.891
		c-5.162-1.227-8.992-5.736-8.992-11.11c0-6.317,5.295-11.437,11.825-11.437C23.64,1.955,28.935,7.079,28.935,13.396z"/>
</g>
<g id="Icons">
	<g id="Minimal">
		<path id="Election" display="none" fill="#565656" d="M31.665-3.482l-4.998-2.144c-0.148-0.063-0.32-0.021-0.418,0.106
			l-1.434,1.786c-0.064,0.08-0.088,0.193-0.068,0.299c0.025,0.1,0.088,0.183,0.178,0.23l-4.48,1.682
			c-0.381,0.14-0.699,0.406-0.906,0.752l-1.484,2.473c-0.314,0.524-0.342,1.166-0.064,1.715l0.105,0.21h-1.564
			c-0.198,0-0.359,0.159-0.359,0.357v6.784h-1.069c-0.199,0-0.354,0.159-0.354,0.355c0,0.198,0.157,0.357,0.354,0.357h12.143
			c0.195,0,0.35-0.159,0.35-0.357c0-0.196-0.154-0.355-0.35-0.355h-1.074V7.119c0-0.121-0.064-0.238-0.166-0.301
			c-0.104-0.067-0.232-0.075-0.344-0.024c-0.393,0.186-0.682,0.279-0.818,0.319c-0.031,0.007-0.061,0.019-0.084,0.039l-2.324,1.392
			c-0.373,0.224-0.793,0.341-1.223,0.341c-0.793,0-1.529-0.393-1.98-1.061c-0.361-0.536-0.484-1.183-0.352-1.811
			c0.135-0.63,0.512-1.169,1.049-1.515l0.338-0.215c0.248-0.15,0.467-0.288,0.666-0.41c0.137-0.085,0.201-0.251,0.152-0.407
			c-0.088-0.286-0.236-0.542-0.375-0.737c0.545-0.238,1.281-0.663,1.652-1.095c0,0,0.006,0.003,0.008,0.003
			c0.076,0.047,0.168,0.097,0.273,0.146c0.006,0.002,0.008,0.005,0.018,0.008l0,0c0.266,0.129,0.604,0.257,0.99,0.333
			c-0.416,0.516-0.84,1.157-0.992,1.583c-0.295,0.13-0.91,0.479-2.344,1.392c-0.381,0.244-0.641,0.619-0.73,1.061
			c-0.094,0.442-0.012,0.89,0.244,1.266c0.318,0.479,0.842,0.744,1.383,0.744c0.291,0,0.59-0.078,0.854-0.237l2.455-1.474
			c0.381-0.093,2.291-0.665,3.736-3.003c1.135-1.833,1.77-3.309,2.033-3.976l0.043,0.022c0.15,0.074,0.314,0.111,0.479,0.111
			c0.271,0,0.545-0.109,0.746-0.299c0.211-0.201,0.326-0.475,0.326-0.77v-1.701C31.878-3.298,31.796-3.429,31.665-3.482z"/>
	</g>
	<g id="Faible" display="none">
		<path id="Famine" display="inline" fill="#F9F9F9" d="M28.45,9.663L25.613,10.2L20.98,7.68l1.682-2.101l3.791,1.258L28.45,9.663z
			 M32.81,4.737V5.05l-2.986,0.949l-2.951,0.419l-3.789-1.261l-0.893-0.42h0.51c-0.121-1.126-0.285-1.981-0.363-3.099h-0.004
			c-0.002-0.034-0.043-0.783-0.051-1.102c-0.059-0.336-0.221-0.471-0.746-0.833c-0.289-0.186-0.502-0.253-0.625-0.251
			c-0.191,0-0.365,0.209-0.402,0.839c0.842,0.144,0.898,1.076,0.898,1.076c0.076,0.664-0.25,1.633-1,1.883
			c-1.385,0.467-1.246-2.206-0.463-2.848c0.023-0.769,0.238-1.476,0.969-1.504c0.289,0.001,0.586,0.12,0.928,0.339
			c0.164,0.098,0.295,0.198,0.412,0.3c-0.014-0.253-0.027-0.513-0.027-0.78C22.224-1.805,22.31-2.417,22.81-2.85
			c0.256-0.234,0.543-0.354,0.828-0.352c0.742,0.036,1.201,0.676,1.469,1.328c0.313-0.136,0.701-0.202,1.148-0.048
			c1.141,0.396,1.754,2.385,1.277,3.078c-1.123,1.614-3.953-1.392-3.205-2.441c0,0,0.109-0.143,0.303-0.3
			c-0.219-0.58-0.662-1.098-0.992-1.061c-0.125,0.002-0.271,0.046-0.457,0.212c-0.316,0.278-0.398,0.673-0.398,1.19
			c0,0.365,0.043,0.769,0.043,1.175c0,0.212,0.016,0.398,0.023,0.603c0.051,0.363,0.053,0.64,0.051,1.023
			c0.076,1.113,0.527,2.029,0.646,3.178h9.266v0.002H32.81z M24.835-1.361l2.146,2.336c-0.383-1.657-1.744-2.58-1.744-2.58
			L24.835-1.361z M20.392,0.645l-0.383,0.156c0,0-0.191,1.307,0,1.988L20.392,0.645z M18.47,8.523l1.705-1.025l1.775-2.197
			l-0.553-0.563h-3.926l-0.78,1.555L18.47,8.523z M20.46,8.17l-3.021,2.056l0.404,0.498h6.949l-0.023-0.103L20.46,8.17z
			 M14.244,4.737v2.371l1.935-1.037l0.587-1.334H14.244z M27.435,6.924l1.873,2.717l3.502,0.822V7.356l-2.521-0.813L27.435,6.924z
			 M32.81,6.678V5.582l-1.963,0.531L32.81,6.678z M16.229,6.829l-1.985,0.945v2.95h1.452l2.161-1.77L16.229,6.829z M26.615,10.724
			h4.537l-2.17-0.524L26.615,10.724z"/>
		<path id="Cyclone" display="inline" fill="#FFFFFF" d="M23.601-1.642c-0.098-0.003-0.191-0.016-0.287-0.016
			c-0.855,0-1.652,0.22-2.348,0.604c1.244-4.235,4.346-4.604,4.346-4.604s-6.854,0.572-6.854,8.567c0.006,0,0.012,0,0.016,0
			c-0.004,0.098-0.016,0.193-0.016,0.29c0,0.847,0.223,1.647,0.605,2.346c-4.236-1.244-4.605-4.344-4.605-4.344
			s0.571,6.854,8.572,6.854c0-0.007,0-0.008,0-0.016c0.092,0.005,0.188,0.016,0.285,0.016c0.852,0,1.648-0.222,2.346-0.607
			c-1.244,4.236-4.348,4.606-4.348,4.606s6.855-0.573,6.855-8.57c-0.008,0-0.01,0-0.016,0c0.006-0.095,0.016-0.188,0.016-0.285
			c0-0.852-0.223-1.652-0.607-2.345c4.234,1.242,4.605,4.344,4.605,4.344s-0.568-6.854-8.566-6.854
			C23.601-1.65,23.601-1.645,23.601-1.642z"/>
		<path id="eruption" display="inline" fill="#FFFFFF" d="M24.665-0.105c1.021,0.348,2.375,0.76,2.66-0.888
			c0.232-1.281,1.941-0.806,2.666-0.887c1.326-0.153,0.326-2.63-1.332-2.666c-1.674-0.038-2.439,0.699-3.105,2.22
			c-0.322,0.731-0.592,1.283-1.777,0.889c-1.184-0.395-2.053,0.577-1.332,1.777c0.637,1.06-0.008,2.219-0.008,2.219h1.787
			c0,0-0.016-0.657-0.443-1.332C23.275,0.443,23.618-0.465,24.665-0.105z M15.2,10.943c4.596-3.346,5.745-7.977,5.745-7.977h4.723
			c0,0,1.148,4.628,5.74,7.977H15.2z"/>
		<path id="tsunami" display="inline" fill="#FFFFFF" d="M31.923,8.84C17.82,9.639,21.761-1.149,25.419-0.217
			c-0.377,0.229-0.619,1.023-0.387,1.558c0.256,0.572,1.08,0.899,1.555,0.78c1.137-0.293,1.188-1.888,0.777-2.726
			c-0.424-0.871-1.545-1.946-3.5-1.946c-4.725,0-7.947,2.413-9.161,6.559v6.098h17.221V8.84H31.923z"/>
		<path id="epidemie" display="inline" fill="#FFFFFF" d="M30.671,3.916c0-4.033-3.158-7.314-7.137-7.519
			c1.756,0.168,3.125,1.442,3.125,2.996c0,0.533-0.176,1.024-0.459,1.458c-0.787-0.782-1.865-1.265-3.059-1.265
			s-2.271,0.482-3.053,1.262c-0.283-0.433-0.461-0.925-0.461-1.459c0-1.549,1.367-2.827,3.123-2.994
			c-3.977,0.206-7.137,3.488-7.137,7.521c0,1.215,0.295,2.362,0.806,3.38c-0.699-1.593-0.275-3.383,1.052-4.15
			c0.463-0.266,0.98-0.362,1.492-0.331c-0.096,0.354-0.162,0.723-0.162,1.11c0,2.002,1.371,3.674,3.217,4.172
			c-0.027,0.044-0.057,0.084-0.082,0.127c0,0.003,0,0.003,0,0.01c-0.061,0.136-0.139,0.249-0.23,0.343
			c-0.197,0.26-0.428,0.491-0.723,0.661c-1.332,0.768-3.107,0.234-4.131-1.185c1.348,2.046,3.659,3.399,6.288,3.399
			c2.605,0,4.9-1.324,6.254-3.337c-1.031,1.373-2.773,1.878-4.086,1.125c-0.465-0.272-0.807-0.677-1.039-1.146
			c1.848-0.498,3.207-2.172,3.207-4.171c0-0.386-0.063-0.756-0.16-1.11c0.52-0.034,1.039,0.062,1.502,0.331
			c1.291,0.744,1.729,2.453,1.111,4.011C30.404,6.169,30.671,5.076,30.671,3.916z M23.943,6.815c-0.033-0.627,0.1-1.286,0.414-1.908
			l-0.502-0.288c-0.18,0.186-0.432,0.299-0.713,0.299c-0.277,0-0.531-0.114-0.711-0.299l-0.492,0.282
			c0.313,0.627,0.447,1.289,0.412,1.917c-1.273-0.349-2.219-1.509-2.219-2.893c0-0.265,0.041-0.515,0.107-0.758
			c0.555,0.281,1.063,0.719,1.445,1.3l0.504-0.294c-0.021-0.087-0.055-0.167-0.055-0.26c0-0.465,0.322-0.842,0.756-0.955V2.386
			c-0.699-0.045-1.332-0.261-1.857-0.604c0.545-0.537,1.287-0.865,2.107-0.865c0.822,0,1.566,0.331,2.113,0.868
			c-0.527,0.342-1.16,0.557-1.857,0.602v0.574c0.43,0.113,0.752,0.49,0.752,0.955c0,0.092-0.027,0.173-0.049,0.26l0.508,0.297
			c0.387-0.579,0.889-1.016,1.441-1.296c0.061,0.238,0.105,0.489,0.105,0.749C26.152,5.304,25.214,6.46,23.943,6.815z"/>
		<path id="earthquake" display="inline" fill="#FFFFFF" d="M28.333,3.731c-0.242,0-0.463,0.133-0.576,0.348l-0.941,1.772
			l-1.16-3.397c-0.09-0.257-0.326-0.43-0.596-0.444c-0.279-0.006-0.521,0.15-0.629,0.4l-0.793,1.888l-1.252-7.52
			c-0.063-0.313-0.357-0.553-0.66-0.537c-0.322,0.006-0.588,0.22-0.631,0.54l-1.109,8.727l-0.9-4.683
			c-0.051-0.275-0.277-0.487-0.557-0.524c-0.277-0.039-0.551,0.111-0.674,0.364l-1.473,3.066h-2.283v1.306h2.696
			c0.251,0,0.482-0.146,0.591-0.369l0.789-1.646l1.277,6.641c0.061,0.309,0.328,0.532,0.643,0.532c0.006,0,0.012,0,0.018,0
			c0.318-0.01,0.588-0.251,0.631-0.567l1.09-8.573L22.747,6.7c0.055,0.285,0.285,0.501,0.574,0.533
			c0.289,0.026,0.563-0.13,0.676-0.397l0.98-2.331l1.092,3.199c0.082,0.248,0.305,0.421,0.563,0.444
			c0.262,0.013,0.51-0.116,0.633-0.345l1.463-2.762h2.805V3.733h-3.199V3.731L28.333,3.731z"/>
	</g>
	<g id="Modéré" display="none">
		<path id="returned" display="inline" fill="#FFFFFF" d="M22.827-3.081c0.117,0.726-0.375,1.406-1.096,1.526
			c-0.723,0.12-1.406-0.372-1.525-1.094c-0.117-0.725,0.369-1.408,1.096-1.527C22.021-4.294,22.71-3.807,22.827-3.081z
			 M22.411,2.184l1.178,1.879c0.162,0.262,0.514,0.349,0.783,0.189c0.266-0.16,0.359-0.503,0.209-0.777l-0.297-0.54
			c-0.26-0.46-0.51-0.925-0.768-1.387l-0.525-0.951c-0.061-0.106-0.119-0.232-0.18-0.362c-0.326-0.678-0.83-1.724-1.932-1.625
			c-0.947,0.08-1.902,0.529-2.848,1.331c-1.116,0.882-1.897,2.161-1.931,2.213c-0.035,0.058-0.069,0.115-0.099,0.171
			c-0.002,0.001-0.005,0.001-0.005,0.004l0,0c-0.104,0.198-0.154,0.379-0.024,0.608c0.102,0.182,0.294,0.294,0.503,0.294
			c0.252,0,0.379-0.12,0.502-0.298l0,0c0.002-0.002,0.002-0.002,0.002-0.002c0.034-0.055,0.07-0.113,0.107-0.173
			c0.007-0.01,0.664-1.061,1.677-1.925c0.311-0.243,0.605-0.414,0.889-0.507L19.427,3.06c-0.021,0.272-0.105,0.737-0.184,1
			l-0.506,1.781c-0.066,0.224-0.258,0.598-0.406,0.779l-1.375,1.702c-0.174,0.218-0.369,0.461-0.207,0.801
			c0.097,0.199,0.298,0.328,0.521,0.328c0.264,0,0.406-0.153,0.59-0.348l1.391-1.5c0.25-0.268,0.57-0.732,0.729-1.063l0.689-1.402
			l2.553,4.286c0.125,0.212,0.287,0.474,0.631,0.474l0,0c0.199,0,0.379-0.1,0.484-0.269c0.186-0.282,0.063-0.537-0.043-0.769
			l-2.063-4.481c-0.082-0.173-0.125-0.532-0.094-0.725L22.411,2.184z M31.001,3.139c0-1.872-1.521-3.39-3.389-3.39h-1.443V1.46
			h1.439c0.924,0,1.676,0.751,1.676,1.678c0,0.926-0.752,1.678-1.676,1.678h-0.297V3.898l-3.074,1.775l3.074,1.775V6.527h0.334
			V6.525C29.497,6.505,31.001,4.998,31.001,3.139z"/>
	</g>
	<g id="Important" display="none">
		<path id="enlevement" display="inline" fill="#FFFFFF" d="M29.423-5.087c-0.467,0-0.85,0.383-0.85,0.851v3.458
			c0.205,0.045,0.4,0.131,0.559,0.286c0.447,0.441,0.461,1.166,0.021,1.618L27.546,2.78l-0.225-0.215l1.615-1.649
			c0.324-0.335,0.314-0.865-0.018-1.193c-0.104-0.098-0.225-0.167-0.354-0.202c-0.145-0.039-0.287-0.042-0.426-0.013
			c-0.156,0.042-0.295,0.119-0.404,0.235c-0.955,0.98-1.914,1.959-2.869,2.94c-0.238,0.246-0.676,0.808-0.662,1.367
			c0.01,0.527-0.008,1.069,0.002,1.598c-0.127-0.101-0.277-0.174-0.447-0.207c-0.494-0.081-0.938,0.213-1.107,0.652h-0.25
			c0-0.12,0-0.241,0.002-0.361c0.012-0.553-0.01-1.126,0.006-1.681c0.012-0.562-0.426-1.124-0.666-1.37
			c-0.957-0.979-1.912-1.958-2.871-2.94c-0.107-0.115-0.246-0.195-0.402-0.234c-0.141-0.029-0.285-0.026-0.426,0.013
			c-0.131,0.037-0.252,0.106-0.355,0.205c-0.328,0.325-0.334,0.855-0.016,1.191l1.615,1.647L19.064,2.78l-1.607-1.654
			c-0.441-0.451-0.43-1.176,0.021-1.615c0.158-0.154,0.354-0.241,0.557-0.287v-3.458c0-0.468-0.383-0.85-0.848-0.85
			c-0.472,0-0.85,0.382-0.85,0.85v5.988c0,0.196,0.08,0.375,0.196,0.521l2.892,3.819h-0.256c-0.559,0-1.02,0.458-1.02,1.024
			c0,0.375,0.211,0.689,0.512,0.866c-0.303,0.178-0.514,0.495-0.514,0.866c0,0.566,0.459,1.026,1.021,1.026h0.311v0.57h2.842
			c0.15,0.147,0.322,0.254,0.533,0.291c0.057,0.01,0.109,0.014,0.168,0.014c0.5,0,0.926-0.354,1.008-0.848l0.002-0.026h0.186
			c0.002,0.188,0,0.374,0.02,0.57h2.891v-0.57h0.314c0.559,0,1.021-0.457,1.021-1.026c0-0.372-0.213-0.687-0.516-0.864
			c0.303-0.177,0.516-0.492,0.516-0.868c0-0.564-0.461-1.022-1.021-1.022h-0.256l2.891-3.824c0.119-0.145,0.195-0.325,0.195-0.521
			v-5.986C30.271-4.704,29.892-5.087,29.423-5.087z M18.659,7.116c0-0.282,0.23-0.51,0.51-0.51h3.354l-0.178,1.022h-3.176
			C18.89,7.626,18.659,7.4,18.659,7.116z M18.659,8.85c0-0.28,0.23-0.512,0.51-0.512h3.055l-0.182,1.025h-2.873
			C18.89,9.361,18.659,9.136,18.659,8.85z M23.523,9.813c-0.043,0.282-0.336,0.463-0.59,0.42c-0.135-0.025-0.25-0.098-0.33-0.207
			c-0.082-0.113-0.109-0.249-0.086-0.381l0.563-3.276c0.045-0.249,0.258-0.425,0.514-0.425c0.025,0,0.053,0,0.08,0.006
			c0.277,0.048,0.463,0.313,0.414,0.589L23.523,9.813z M27.948,8.85c0,0.285-0.229,0.513-0.508,0.513h-3.318l0.176-1.025h3.143
			C27.718,8.339,27.948,8.57,27.948,8.85z M27.948,7.116c0,0.282-0.229,0.51-0.508,0.51h-3.018l0.172-1.001
			c0.002-0.008,0-0.014,0-0.021h2.844C27.718,6.606,27.948,6.837,27.948,7.116z"/>
	</g>
	<g id="Elevé">
	</g>
	<g id="Extreme" display="none">
		<path id="rebelion" display="inline" fill="#FFFFFF" d="M25.984-1.399c0,1.576-1.275,2.849-2.848,2.849
			c-1.576,0-2.852-1.276-2.852-2.849c0-1.577,1.275-2.849,2.852-2.849C24.708-4.248,25.984-2.976,25.984-1.399z M18.376,10.688
			h1.744h0.092l0.064-0.135l0.633-0.62l-0.584-0.125L19.4,9.613L18.376,10.688z M30.3-0.871L29.689-0.26l0.041,0.042L29.236,0.28
			c0.066,0.06,0.131,0.121,0.184,0.193l0.498-0.498l0.104,0.093l0.6-0.615L30.3-0.871z M26.366,2.291l-0.264,0.26l0.031,0.075
			l0.061,0.14l-4.158,4.167l0.447,0.096c0.412,0.085,0.764,0.331,0.996,0.686c0.029,0.05,0.039,0.112,0.064,0.166l0.014-0.015
			l0.307,0.204l0.109-0.024l1.209,0.879l0.816-1.115L24.195,6.4l0.039-0.118h0.297l1.771-2.078l0.197-1.863L26.366,2.291z
			 M28.296,0.447c-0.537-0.059-1.061,0.343-1.125,0.902l-0.066,0.607l0,0l-0.043,0.439L26.866,4.26l-0.02,0.175l-0.113,0.133
			l-1.586,1.859l1.195,0.937l0.43,0.336l-0.252,0.341l0.063,0.125c0.166,0.357,0.529,0.58,0.92,0.58c0.057,0,0.113-0.002,0.17-0.014
			c0.447-0.077,0.791-0.441,0.84-0.892l0.68-6.27C29.259,1.011,28.853,0.505,28.296,0.447z M26.222,8.454L25.64,9.255l-0.334,0.458
			L24.851,9.38l-1.004-0.725l-0.088,0.022l-0.037-0.025c0,0.086-0.002,0.169-0.021,0.254c-0.02,0.084-0.049,0.16-0.084,0.238
			c-0.061,0.148-0.143,0.276-0.24,0.395l0.07,0.159c0.07,0.16,0.168,0.368,0.285,0.548l0.279,0.437h2.143L26.222,8.454z
			 M22.15,10.161c-0.023,0-0.049-0.006-0.072-0.009c-0.012,0.045-0.018,0.08-0.018,0.08l0.238,0.455h0.582l0.375-0.131
			c-0.129-0.199-0.232-0.413-0.326-0.627C22.695,10.064,22.437,10.161,22.15,10.161z M22.988,8.003
			c-0.041-0.063-0.104-0.114-0.162-0.165c-0.033-0.031-0.061-0.076-0.104-0.101c-0.104-0.075-0.229-0.129-0.357-0.161l-0.443-0.09
			l-1.014-0.217l0,0l-0.896-0.191l-0.35-0.073l-0.576-0.126l-0.037-0.006l0.092-0.092l0.389-0.385l0.414-0.418
			c0.035,0.286,0.051,0.512,0.051,0.517l0.135,0.028l1.258,0.267l0.256-0.258l3.889-3.905l-0.088-0.218l0.033-0.026
			c-0.564-0.169-1.23-0.266-2.064-0.266h-0.273c0,0-0.271,0-0.273,0c-0.586,0-1.18,0.04-1.76,0.17
			c-0.996,0.223-1.611,1.199-2.295,1.87c-0.705,0.689-1.387,1.41-2.071,2.12c-0.151,0.162-0.303,0.326-0.459,0.482
			c-0.263,0.265-0.359,0.651-0.255,1.01c0.103,0.357,0.4,0.627,0.765,0.708l1.346,0.288l0.568,0.12l3.232,0.688
			c0.074,0.012,0.145,0.024,0.215,0.024c0.469,0,0.891-0.328,0.994-0.805c0.039-0.188,0.01-0.366-0.045-0.534l-0.064-0.129
			C23.019,8.092,23.003,8.051,22.988,8.003z M21.562,10.492l-0.1-0.184l0.051-0.206l0.008-0.039l-0.156-0.033l-0.57,0.655h0.867
			L21.562,10.492z"/>
	</g>
	<path id="displaced" fill="#FFFFFF" d="M17.2,4.507c0.154,0.98-0.502,1.898-1.473,2.056c-0.977,0.163-1.902-0.499-2.061-1.472
		c-0.161-0.976,0.497-1.9,1.477-2.06C16.114,2.874,17.037,3.534,17.2,4.507z M16.641,11.606l1.583,2.529
		c0.225,0.356,0.688,0.471,1.051,0.262c0.365-0.219,0.49-0.679,0.291-1.05l-0.404-0.725c-0.352-0.621-0.693-1.247-1.043-1.872
		l-0.699-1.279c-0.082-0.151-0.162-0.318-0.246-0.492c-0.432-0.912-1.109-2.322-2.6-2.196c-1.273,0.113-2.567,0.717-3.838,1.798
		c-1.506,1.188-2.559,2.914-2.597,2.987c-0.053,0.073-0.1,0.154-0.137,0.227c-0.004,0.001-0.004,0.004-0.007,0.007l0,0
		c-0.141,0.266-0.213,0.509-0.036,0.82c0.14,0.243,0.398,0.393,0.677,0.393c0.342,0,0.513-0.163,0.681-0.401l0,0
		c0.003,0,0.003-0.005,0.003-0.005c0.046-0.069,0.09-0.146,0.144-0.227c0.008-0.013,0.892-1.432,2.258-2.599
		c0.424-0.331,0.824-0.558,1.198-0.681l-0.304,3.685c-0.03,0.363-0.143,0.995-0.244,1.344l-0.685,2.402
		c-0.092,0.303-0.347,0.807-0.547,1.05l-1.854,2.295c-0.232,0.291-0.498,0.621-0.281,1.077c0.13,0.271,0.401,0.443,0.703,0.443
		c0.358,0,0.552-0.205,0.793-0.467l1.873-2.021c0.334-0.362,0.771-0.988,0.987-1.43l0.931-1.892l3.439,5.774
		c0.166,0.285,0.379,0.644,0.846,0.644l0,0c0.268,0,0.512-0.138,0.65-0.358c0.254-0.381,0.086-0.729-0.057-1.041l-2.78-6.04
		c-0.106-0.239-0.168-0.72-0.122-0.982L16.641,11.606z M19.552,17.891h4.168v1.237l4.137-2.389l-4.137-2.39v1.237h-4.168V17.891z"/>
	<path id="Attack" display="none" fill="#FFFFFF" d="M27.255,4.361l5.047-3.231l-4.877-0.518l1.324-5.665l-3.457,3.575l-0.965-4.039
		l-1.449,3.769l-3.951-5.091l1.24,6.378l-3.509-0.778c0,0,1.068,2.043,1.662,3.274l-5.637-0.397l5.102,2.983l-1.465,1.506
		l2.374-0.433l-1.681,5.943l4.994-4.176l1.293,3.229l1.334-2.583l4.307,4.446l-2.154-5.954l4.723,0.479L27.255,4.361z"/>
</g>
</svg>
