<?xml version="1.0" encoding="utf-8"?>
<!-- Generator: Adobe Illustrator 16.0.0, SVG Export Plug-In . SVG Version: 6.00 Build 0)  -->
<!DOCTYPE svg PUBLIC "-//W3C//DTD SVG 1.1//EN" "http://www.w3.org/Graphics/SVG/1.1/DTD/svg11.dtd">
<svg version="1.1" id="Layer_1" xmlns="http://www.w3.org/2000/svg" xmlns:xlink="http://www.w3.org/1999/xlink" x="0px" y="0px"
	 width="33.35px" height="40px" viewBox="0 0 33.35 40" enable-background="new 0 0 33.35 40" xml:space="preserve">
<g id="PinColor">
	<path id="PinOmbre" opacity="0.3" enable-background="new    " d="M28.714,30.37c0,1.765-3.873,3.245-9.086,3.638
		c-0.879,0.064-2.739,4.203-2.739,4.203S14.964,34.07,14.056,34c-5.162-0.4-8.992-1.875-8.992-3.63c0-2.063,5.295-3.74,11.825-3.74
		S28.714,28.303,28.714,30.37z"/>
	<path id="vert" fill="#2ABF00" stroke="#1D7500" stroke-width="0.2" stroke-miterlimit="10" d="M28.714,13.016
		c0,5.403-3.873,9.934-9.086,11.128c-0.879,0.199-2.739,12.867-2.739,12.867s-1.925-12.668-2.833-12.89
		c-5.162-1.228-8.992-5.736-8.992-11.11c0-6.317,5.295-11.437,11.825-11.437S28.714,6.699,28.714,13.016z"/>
	<path id="orange" display="none" fill="#FF8500" stroke="#7F4500" stroke-width="0.2" stroke-miterlimit="10" d="M28.714,13.016
		c0,5.403-3.873,9.934-9.086,11.128c-0.879,0.199-2.739,12.867-2.739,12.867s-1.925-12.668-2.833-12.89
		c-5.162-1.228-8.992-5.736-8.992-11.11c0-6.317,5.295-11.437,11.825-11.437S28.714,6.699,28.714,13.016z"/>
	<path id="gris" display="none" fill="#A5A5A5" stroke="#595959" stroke-width="0.2" stroke-miterlimit="10" d="M28.714,13.016
		c0,5.403-3.873,9.934-9.086,11.128c-0.879,0.199-2.739,12.867-2.739,12.867s-1.925-12.668-2.833-12.89
		c-5.162-1.228-8.992-5.736-8.992-11.11c0-6.317,5.295-11.437,11.825-11.437S28.714,6.699,28.714,13.016z"/>
	<path id="bleu" display="none" fill="#0092FF" stroke="#00477C" stroke-width="0.2" stroke-miterlimit="10" d="M28.714,13.016
		c0,5.403-3.873,9.934-9.086,11.128c-0.879,0.199-2.739,12.867-2.739,12.867s-1.925-12.668-2.833-12.89
		c-5.162-1.228-8.992-5.736-8.992-11.11c0-6.317,5.295-11.437,11.825-11.437S28.714,6.699,28.714,13.016z"/>
</g>
<g id="Icons">
	<g id="Minimal">
		<path id="Election" display="none" fill="#565656" d="M33.827-5.96l-5.043-2.163c-0.149-0.063-0.323-0.02-0.423,0.108
			l-1.445,1.802c-0.063,0.081-0.089,0.194-0.068,0.301c0.025,0.101,0.089,0.185,0.178,0.232l-4.521,1.696
			c-0.383,0.142-0.706,0.41-0.915,0.759L20.093-0.73C19.777-0.201,19.749,0.447,20.028,1l0.106,0.215h-1.578
			c-0.2,0-0.362,0.161-0.362,0.36V8.42h-1.081c-0.199,0-0.356,0.161-0.356,0.358c0,0.2,0.158,0.36,0.356,0.36h12.253
			c0.196,0,0.353-0.161,0.353-0.36c0-0.198-0.155-0.358-0.353-0.358h-1.084V4.738c0-0.123-0.064-0.241-0.167-0.304
			C28.01,4.367,27.88,4.358,27.768,4.41c-0.396,0.187-0.688,0.281-0.827,0.321c-0.031,0.007-0.059,0.019-0.084,0.04l-2.346,1.405
			c-0.375,0.226-0.799,0.344-1.232,0.344c-0.8,0-1.544-0.396-1.999-1.07c-0.363-0.541-0.487-1.194-0.354-1.828
			c0.135-0.635,0.514-1.18,1.057-1.529l0.341-0.217c0.251-0.152,0.473-0.291,0.673-0.414c0.138-0.086,0.201-0.254,0.153-0.411
			c-0.089-0.289-0.24-0.547-0.378-0.744c0.55-0.24,1.293-0.669,1.667-1.105c0,0,0.005,0.003,0.007,0.003
			c0.078,0.048,0.169,0.099,0.275,0.149c0.006,0.002,0.009,0.005,0.019,0.008l0,0c0.27,0.13,0.608,0.259,0.999,0.336
			c-0.419,0.521-0.847,1.167-1.001,1.598c-0.298,0.132-0.918,0.483-2.365,1.405c-0.384,0.246-0.646,0.625-0.735,1.07
			c-0.095,0.446-0.012,0.899,0.245,1.278c0.32,0.484,0.851,0.751,1.396,0.751c0.293,0,0.594-0.079,0.86-0.239l2.477-1.488
			c0.385-0.093,2.313-0.67,3.771-3.03c1.145-1.849,1.786-3.338,2.052-4.012l0.045,0.023c0.15,0.075,0.315,0.112,0.482,0.112
			c0.272,0,0.55-0.11,0.751-0.302c0.214-0.203,0.33-0.48,0.33-0.776v-1.716C34.042-5.774,33.959-5.905,33.827-5.96z"/>
	</g>
	<g id="Faible" display="none">
		<path id="Famine" display="inline" fill="#F9F9F9" d="M30.582,7.306l-2.863,0.541l-4.675-2.543l1.697-2.12l3.825,1.27
			L30.582,7.306z M34.983,2.334V2.65l-3.014,0.958L28.99,4.031l-3.823-1.272l-0.9-0.424h0.514c-0.122-1.136-0.288-1.999-0.365-3.127
			h-0.006c-0.002-0.035-0.042-0.79-0.052-1.112c-0.058-0.339-0.222-0.475-0.752-0.84C23.314-2.932,23.098-3,22.976-2.997
			c-0.194,0-0.368,0.211-0.408,0.847c0.852,0.145,0.909,1.086,0.909,1.086c0.077,0.67-0.253,1.648-1.01,1.899
			C21.068,1.306,21.21-1.391,22-2.039c0.021-0.776,0.239-1.49,0.976-1.518c0.293,0.001,0.592,0.121,0.938,0.342
			c0.166,0.099,0.298,0.2,0.416,0.302C24.315-3.168,24.301-3.43,24.301-3.7c-0.002-0.567,0.085-1.184,0.589-1.621
			c0.258-0.237,0.549-0.357,0.835-0.355c0.75,0.037,1.213,0.682,1.483,1.34c0.313-0.137,0.707-0.204,1.157-0.048
			c1.15,0.4,1.771,2.407,1.289,3.106c-1.133,1.629-3.989-1.405-3.233-2.463c0,0,0.109-0.145,0.305-0.303
			c-0.221-0.585-0.667-1.108-1.001-1.071c-0.127,0.002-0.274,0.046-0.462,0.214c-0.318,0.28-0.402,0.679-0.402,1.201
			c0,0.368,0.044,0.776,0.044,1.186c0,0.214,0.016,0.401,0.022,0.608c0.052,0.366,0.054,0.646,0.052,1.032
			c0.079,1.124,0.535,2.048,0.655,3.207L34.983,2.334L34.983,2.334z M26.936-3.819l2.165,2.357
			c-0.388-1.671-1.759-2.603-1.759-2.603L26.936-3.819z M22.451-1.795l-0.388,0.158c0,0-0.191,1.319,0,2.006L22.451-1.795z
			 M20.513,6.155l1.721-1.034l1.792-2.217l-0.559-0.569h-3.962l-0.788,1.57L20.513,6.155z M22.52,5.799l-3.048,2.074l0.407,0.502
			h7.014l-0.025-0.104L22.52,5.799z M16.248,2.334v2.393l1.951-1.047l0.593-1.346H16.248z M29.558,4.542l1.89,2.741l3.535,0.83
			V4.977l-2.544-0.819L29.558,4.542z M34.983,4.293V3.187l-1.981,0.536L34.983,4.293z M18.25,4.446l-2.002,0.953v2.977h1.465
			l2.18-1.786L18.25,4.446z M28.731,8.376h4.577l-2.188-0.529L28.731,8.376z"/>
		<path id="Cyclone" display="inline" fill="#FFFFFF" d="M25.689-4.102c-0.096-0.003-0.191-0.016-0.289-0.016
			c-0.86,0-1.666,0.223-2.368,0.61c1.254-4.273,4.385-4.646,4.385-4.646s-6.914,0.578-6.914,8.645c0.005,0,0.01,0,0.014,0
			c-0.004,0.098-0.014,0.193-0.014,0.291c0,0.855,0.224,1.663,0.608,2.367c-4.272-1.255-4.646-4.382-4.646-4.382
			s0.576,6.917,8.648,6.917c0-0.007,0-0.008,0-0.016c0.095,0.005,0.19,0.016,0.288,0.016c0.86,0,1.665-0.224,2.368-0.612
			c-1.255,4.274-4.388,4.647-4.388,4.647s6.918-0.579,6.918-8.647c-0.006,0-0.01,0-0.016,0c0.006-0.096,0.016-0.189,0.016-0.287
			c0-0.859-0.225-1.667-0.612-2.367c4.273,1.253,4.647,4.383,4.647,4.383S33.76-4.115,25.69-4.115
			C25.689-4.11,25.689-4.105,25.689-4.102z"/>
		<path id="eruption" display="inline" fill="#FFFFFF" d="M26.765-2.551c1.028,0.351,2.395,0.767,2.683-0.896
			c0.233-1.292,1.958-0.813,2.689-0.895c1.339-0.155,0.329-2.654-1.343-2.69c-1.691-0.038-2.463,0.706-3.136,2.241
			c-0.324,0.738-0.597,1.294-1.794,0.897c-1.193-0.398-2.07,0.583-1.345,1.794c0.645,1.07-0.009,2.239-0.009,2.239h1.804
			c0,0-0.014-0.663-0.448-1.344C25.36-1.998,25.707-2.914,26.765-2.551z M17.212,8.598c4.638-3.377,5.796-8.05,5.796-8.05h4.766
			c0,0,1.158,4.67,5.794,8.05H17.212z"/>
		<path id="tsunami" display="inline" fill="#FFFFFF" d="M34.088,6.475c-14.232,0.807-10.256-10.08-6.564-9.139
			c-0.381,0.231-0.625,1.033-0.39,1.572c0.257,0.577,1.089,0.908,1.567,0.787c1.146-0.296,1.198-1.905,0.784-2.75
			c-0.428-0.878-1.56-1.963-3.533-1.963c-4.768,0-8.018,2.434-9.242,6.618v6.153h17.378V6.475L34.088,6.475z"/>
		<path id="epidemie" display="inline" fill="#FFFFFF" d="M32.823,1.506c0-4.069-3.188-7.38-7.2-7.587
			c1.771,0.17,3.153,1.456,3.153,3.023c0,0.538-0.18,1.034-0.465,1.472c-0.794-0.79-1.881-1.276-3.086-1.276
			c-1.203,0-2.292,0.486-3.08,1.273c-0.286-0.438-0.465-0.934-0.465-1.473c0-1.563,1.379-2.852,3.151-3.021
			C20.82-5.875,17.63-2.562,17.63,1.506c0,1.226,0.298,2.383,0.813,3.411c-0.705-1.608-0.277-3.414,1.063-4.188
			c0.467-0.268,0.988-0.365,1.506-0.335c-0.096,0.358-0.164,0.73-0.164,1.12c0,2.02,1.383,3.708,3.245,4.21
			c-0.027,0.044-0.057,0.084-0.082,0.128c0,0.003,0,0.003,0,0.01C23.948,6,23.869,6.113,23.778,6.209
			c-0.2,0.262-0.433,0.495-0.729,0.667c-1.345,0.776-3.135,0.237-4.169-1.195c1.36,2.064,3.691,3.43,6.345,3.43
			c2.628,0,4.944-1.336,6.311-3.368c-1.041,1.386-2.799,1.896-4.122,1.135c-0.471-0.275-0.815-0.684-1.049-1.157
			c1.864-0.502,3.236-2.192,3.236-4.209c0-0.39-0.063-0.763-0.162-1.12c0.525-0.035,1.047,0.062,1.518,0.333
			c1.302,0.751,1.743,2.475,1.12,4.047C32.554,3.78,32.823,2.676,32.823,1.506z M26.033,4.431c-0.031-0.633,0.102-1.297,0.419-1.925
			l-0.508-0.291c-0.18,0.187-0.435,0.302-0.719,0.302c-0.279,0-0.535-0.115-0.717-0.302L24.012,2.5
			c0.315,0.633,0.451,1.301,0.416,1.934c-1.286-0.352-2.239-1.523-2.239-2.919c0-0.267,0.042-0.519,0.108-0.765
			c0.56,0.284,1.07,0.726,1.459,1.312l0.508-0.296c-0.021-0.088-0.055-0.169-0.055-0.262c0-0.47,0.324-0.849,0.763-0.963v-0.578
			c-0.706-0.045-1.345-0.264-1.875-0.61c0.55-0.542,1.299-0.873,2.127-0.873c0.829,0,1.581,0.334,2.132,0.875
			c-0.531,0.346-1.17,0.563-1.875,0.608v0.58c0.435,0.114,0.76,0.494,0.76,0.963c0,0.093-0.027,0.174-0.049,0.262l0.514,0.3
			c0.39-0.585,0.897-1.025,1.454-1.309c0.062,0.24,0.105,0.493,0.105,0.755C28.264,2.907,27.317,4.074,26.033,4.431z"/>
		<path id="earthquake" display="inline" fill="#FFFFFF" d="M30.465,1.32c-0.245,0-0.467,0.134-0.582,0.351l-0.949,1.788
			l-1.172-3.428c-0.091-0.26-0.329-0.434-0.602-0.448c-0.281-0.006-0.525,0.152-0.635,0.404l-0.801,1.905l-1.263-7.587
			c-0.063-0.316-0.36-0.558-0.665-0.542c-0.325,0.006-0.596,0.222-0.638,0.544L22.04,3.113l-0.907-4.725
			c-0.052-0.277-0.28-0.491-0.563-0.529c-0.278-0.04-0.557,0.112-0.681,0.367L18.405,1.32h-2.304v1.318h2.721
			c0.253,0,0.486-0.147,0.598-0.372l0.796-1.662l1.289,6.702c0.061,0.311,0.331,0.536,0.646,0.536c0.005,0,0.014,0,0.019,0
			c0.32-0.01,0.593-0.253,0.637-0.572l1.101-8.651l0.923,5.695c0.054,0.288,0.286,0.506,0.577,0.539
			c0.292,0.026,0.569-0.132,0.685-0.401l0.988-2.353l1.103,3.228c0.084,0.25,0.308,0.425,0.568,0.448
			c0.264,0.013,0.515-0.117,0.64-0.348l1.475-2.787h2.831V1.322h-3.229V1.32H30.465z"/>
	</g>
	<g id="Modéré" display="none">
		<path id="returned" display="inline" fill="#FFFFFF" d="M24.908-5.554c0.119,0.731-0.378,1.419-1.104,1.54
			c-0.729,0.12-1.419-0.376-1.539-1.104c-0.119-0.732,0.372-1.42,1.104-1.541C24.096-6.778,24.792-6.286,24.908-5.554z M24.49-0.242
			l1.188,1.896c0.164,0.265,0.518,0.352,0.79,0.191c0.269-0.161,0.362-0.507,0.211-0.784l-0.3-0.544
			c-0.262-0.464-0.515-0.934-0.774-1.4l-0.53-0.959c-0.062-0.108-0.119-0.234-0.183-0.366c-0.328-0.684-0.837-1.739-1.948-1.64
			c-0.956,0.081-1.921,0.534-2.873,1.343c-1.126,0.89-1.915,2.18-1.948,2.233c-0.036,0.059-0.069,0.116-0.1,0.172
			c-0.003,0.002-0.005,0.002-0.005,0.005l0,0c-0.104,0.2-0.157,0.382-0.026,0.613c0.104,0.184,0.298,0.297,0.509,0.297
			c0.254,0,0.383-0.121,0.506-0.3l0,0c0.003-0.002,0.003-0.002,0.003-0.002c0.034-0.056,0.07-0.114,0.107-0.174
			c0.007-0.011,0.669-1.071,1.691-1.943c0.315-0.245,0.612-0.417,0.897-0.512l-0.229,2.76c-0.021,0.275-0.107,0.744-0.184,1.008
			L20.781,3.45c-0.067,0.227-0.261,0.604-0.412,0.786l-1.383,1.716c-0.175,0.22-0.373,0.466-0.208,0.809
			c0.097,0.2,0.3,0.331,0.524,0.331c0.267,0,0.41-0.155,0.596-0.351l1.403-1.514c0.252-0.271,0.576-0.739,0.734-1.072l0.696-1.415
			l2.575,4.325c0.127,0.214,0.289,0.479,0.636,0.479l0,0c0.2,0,0.383-0.102,0.491-0.271c0.186-0.284,0.063-0.542-0.044-0.775
			l-2.082-4.522c-0.082-0.175-0.126-0.537-0.094-0.731L24.49-0.242z M33.157,0.722c0-1.889-1.536-3.421-3.421-3.421h-1.454v1.727
			h1.452c0.935,0,1.692,0.758,1.692,1.693c0,0.934-0.759,1.693-1.692,1.693h-0.301V1.487l-3.101,1.791l3.101,1.791V4.14h0.339V4.138
			C31.639,4.12,33.157,2.598,33.157,0.722z"/>
	</g>
	<g id="Important" display="none">
		<path id="enlevement" display="inline" fill="#FFFFFF" d="M31.564-7.579c-0.47,0-0.855,0.386-0.855,0.858v3.49
			c0.206,0.045,0.403,0.133,0.563,0.289c0.451,0.445,0.464,1.176,0.021,1.633L29.67,0.36l-0.228-0.217l1.631-1.665
			c0.327-0.338,0.317-0.873-0.017-1.204c-0.104-0.099-0.228-0.168-0.357-0.204c-0.146-0.04-0.289-0.042-0.43-0.013
			c-0.157,0.042-0.298,0.12-0.408,0.238c-0.964,0.989-1.931,1.977-2.895,2.967c-0.241,0.248-0.685,0.815-0.669,1.379
			c0.01,0.531-0.007,1.078,0.002,1.612c-0.128-0.102-0.28-0.175-0.451-0.209c-0.499-0.081-0.947,0.215-1.119,0.658h-0.251
			c0-0.121,0-0.243,0.002-0.365c0.011-0.558-0.01-1.136,0.005-1.696c0.013-0.566-0.43-1.134-0.671-1.382
			c-0.965-0.987-1.929-1.976-2.896-2.967c-0.11-0.116-0.249-0.197-0.408-0.236c-0.142-0.029-0.288-0.027-0.428,0.013
			c-0.133,0.038-0.257,0.107-0.359,0.207c-0.332,0.328-0.339,0.863-0.015,1.202l1.629,1.662L21.11,0.359L19.487-1.31
			c-0.444-0.456-0.434-1.188,0.021-1.63c0.159-0.154,0.356-0.243,0.563-0.289v-3.49c0-0.472-0.387-0.857-0.855-0.857
			c-0.476,0-0.856,0.385-0.856,0.857v6.042c0,0.198,0.08,0.379,0.198,0.525l2.918,3.854h-0.258c-0.565,0-1.031,0.462-1.031,1.034
			c0,0.379,0.214,0.695,0.517,0.874c-0.304,0.18-0.518,0.499-0.518,0.874c0,0.572,0.464,1.035,1.031,1.035h0.313v0.575h2.868
			c0.15,0.149,0.325,0.257,0.536,0.293c0.058,0.01,0.113,0.014,0.171,0.014c0.503,0,0.934-0.358,1.017-0.855l0.004-0.027h0.186
			c0.002,0.19,0,0.377,0.021,0.575h2.917V7.519h0.316c0.564,0,1.03-0.461,1.03-1.035c0-0.375-0.214-0.693-0.52-0.872
			c0.306-0.179,0.52-0.496,0.52-0.876c0-0.569-0.464-1.031-1.03-1.031h-0.259l2.918-3.856c0.12-0.146,0.198-0.328,0.198-0.525v-6.04
			C32.42-7.192,32.038-7.579,31.564-7.579z M20.702,4.736c0-0.284,0.233-0.515,0.515-0.515H24.6l-0.179,1.032h-3.203
			C20.936,5.25,20.702,5.022,20.702,4.736z M20.702,6.485c0-0.283,0.233-0.517,0.515-0.517h3.082l-0.182,1.034h-2.899
			C20.936,7.001,20.702,6.774,20.702,6.485z M25.611,7.456c-0.044,0.285-0.34,0.468-0.596,0.424
			c-0.135-0.025-0.252-0.099-0.334-0.209c-0.082-0.114-0.11-0.251-0.086-0.385l0.569-3.306c0.044-0.251,0.261-0.429,0.517-0.429
			c0.026,0,0.054,0,0.083,0.006c0.279,0.048,0.466,0.315,0.417,0.595L25.611,7.456z M30.077,6.485c0,0.288-0.231,0.517-0.514,0.517
			h-3.348l0.178-1.034h3.17C29.845,5.97,30.077,6.203,30.077,6.485z M30.077,4.736c0,0.285-0.231,0.514-0.514,0.514H26.52
			l0.174-1.01c0.001-0.008,0-0.014,0-0.022h2.869C29.845,4.221,30.077,4.454,30.077,4.736z"/>
	</g>
	<g id="Elevé">
	</g>
	<g id="Extreme" display="none">
		<path id="rebelion" display="inline" fill="#FFFFFF" d="M28.094-3.857c0,1.59-1.288,2.875-2.874,2.875
			c-1.591,0-2.877-1.287-2.877-2.875c0-1.591,1.288-2.875,2.877-2.875C26.808-6.732,28.094-5.448,28.094-3.857z M20.418,8.339h1.759
			h0.092l0.066-0.135l0.639-0.625l-0.59-0.127L21.45,7.255L20.418,8.339z M32.45-3.324l-0.617,0.616l0.042,0.042l-0.498,0.502
			c0.064,0.061,0.131,0.123,0.184,0.195l0.504-0.502l0.104,0.094l0.605-0.621L32.45-3.324z M28.48-0.133l-0.266,0.262l0.03,0.075
			l0.062,0.141l-4.194,4.206l0.451,0.097c0.414,0.086,0.771,0.334,1.004,0.692c0.03,0.051,0.04,0.113,0.065,0.167l0.012-0.015
			l0.312,0.205l0.109-0.024l1.221,0.887l0.823-1.125L26.29,4.013l0.037-0.119h0.301l1.789-2.097l0.197-1.879L28.48-0.133z
			 M30.428-1.994c-0.543-0.059-1.071,0.347-1.135,0.911l-0.068,0.612l0,0l-0.043,0.443l-0.197,1.882L28.964,2.03l-0.113,0.134
			l-1.6,1.875l1.205,0.946l0.436,0.339l-0.255,0.344L28.7,5.794c0.167,0.361,0.532,0.585,0.928,0.585
			c0.057,0,0.113-0.002,0.172-0.014c0.451-0.078,0.799-0.446,0.848-0.9l0.686-6.326C31.399-1.425,30.99-1.936,30.428-1.994z
			 M28.334,6.085l-0.587,0.809l-0.338,0.462L26.95,7.02l-1.014-0.732l-0.089,0.023l-0.037-0.025c0,0.087-0.002,0.171-0.021,0.257
			c-0.021,0.085-0.05,0.161-0.083,0.241c-0.063,0.149-0.146,0.278-0.243,0.398l0.069,0.161c0.072,0.161,0.169,0.371,0.288,0.553
			l0.282,0.44h2.162L28.334,6.085z M24.225,7.808c-0.023,0-0.049-0.006-0.073-0.009c-0.012,0.045-0.019,0.08-0.019,0.08l0.242,0.459
			h0.586l0.379-0.133c-0.131-0.2-0.235-0.417-0.331-0.633C24.774,7.71,24.515,7.808,24.225,7.808z M25.071,5.63
			c-0.041-0.064-0.105-0.115-0.165-0.167c-0.031-0.032-0.061-0.076-0.104-0.102c-0.105-0.076-0.229-0.13-0.361-0.162l-0.447-0.092
			l-1.021-0.219l0,0l-0.906-0.193l-0.352-0.072l-0.581-0.126l-0.037-0.006l0.091-0.093l0.393-0.389l0.419-0.421
			c0.033,0.289,0.052,0.516,0.052,0.521l0.136,0.028l1.27,0.27l0.258-0.261l3.924-3.941l-0.09-0.22l0.033-0.027
			c-0.569-0.17-1.24-0.268-2.082-0.268h-0.277c0,0-0.273,0-0.276,0c-0.592,0-1.189,0.04-1.775,0.171
			c-1.005,0.225-1.626,1.209-2.316,1.887c-0.709,0.697-1.396,1.425-2.087,2.141c-0.153,0.163-0.307,0.328-0.463,0.486
			c-0.266,0.268-0.363,0.657-0.258,1.019c0.104,0.361,0.402,0.633,0.771,0.715L20.174,6.4l0.573,0.121l3.262,0.695
			c0.074,0.012,0.146,0.024,0.216,0.024c0.475,0,0.9-0.331,1.002-0.813c0.041-0.19,0.011-0.37-0.046-0.539l-0.063-0.13
			C25.102,5.721,25.087,5.679,25.071,5.63z M23.631,8.142l-0.1-0.185l0.05-0.207l0.009-0.04l-0.157-0.034l-0.576,0.661h0.875
			L23.631,8.142z"/>
	</g>
	<path id="displaced" fill="#FFFFFF" d="M17.33,4.999c0.15,0.956-0.49,1.851-1.438,2.006c-0.952,0.159-1.856-0.486-2.01-1.437
		c-0.158-0.952,0.483-1.854,1.439-2.01C16.271,3.406,17.171,4.049,17.33,4.999z M16.784,11.926l1.545,2.467
		c0.221,0.348,0.673,0.459,1.026,0.256c0.356-0.214,0.479-0.663,0.284-1.024l-0.396-0.709c-0.344-0.606-0.677-1.217-1.019-1.826
		l-0.683-1.248c-0.079-0.146-0.158-0.31-0.239-0.48c-0.42-0.889-1.083-2.265-2.537-2.143c-1.242,0.11-2.504,0.7-3.744,1.754
		c-1.47,1.16-2.497,2.843-2.535,2.915c-0.05,0.071-0.097,0.15-0.133,0.221c-0.004,0.001-0.004,0.004-0.007,0.007l0,0
		c-0.138,0.259-0.208,0.498-0.035,0.8c0.136,0.238,0.389,0.384,0.66,0.384c0.333,0,0.5-0.159,0.664-0.391l0,0
		c0.002,0,0.002-0.005,0.002-0.005c0.045-0.067,0.088-0.143,0.141-0.221c0.008-0.013,0.87-1.397,2.202-2.536
		c0.414-0.324,0.806-0.545,1.17-0.665l-0.295,3.596c-0.029,0.354-0.139,0.97-0.238,1.311l-0.668,2.344
		c-0.09,0.295-0.337,0.787-0.533,1.025l-1.809,2.24c-0.228,0.284-0.485,0.605-0.273,1.051c0.125,0.266,0.391,0.434,0.686,0.434
		c0.349,0,0.538-0.2,0.774-0.457l1.827-1.972c0.326-0.353,0.753-0.965,0.964-1.396l0.907-1.846l3.354,5.636
		c0.163,0.277,0.371,0.627,0.825,0.627l0,0c0.261,0,0.5-0.135,0.636-0.35c0.246-0.373,0.083-0.711-0.056-1.018l-2.712-5.893
		c-0.104-0.232-0.164-0.701-0.119-0.957L16.784,11.926z M19.625,18.058h4.066v1.208l4.036-2.332l-4.036-2.332v1.208h-4.066V18.058z"
		/>
	<path id="Attack" display="none" fill="#FFFFFF" d="M29.377,1.955l5.092-3.261l-4.921-0.522l1.337-5.716l-3.488,3.607l-0.974-4.076
		L24.96-4.21l-3.986-5.137l1.251,6.436l-3.542-0.785c0,0,1.077,2.062,1.677,3.303l-5.688-0.4l5.147,3.01l-1.478,1.52l2.394-0.436
		L19.04,9.297l5.041-4.214l1.305,3.258l1.345-2.606l4.346,4.487l-2.173-6.009l4.767,0.482L29.377,1.955z"/>
</g>
</svg>
