<?xml version="1.0" encoding="utf-8"?>
<!-- Generator: Adobe Illustrator 16.0.0, SVG Export Plug-In . SVG Version: 6.00 Build 0)  -->
<!DOCTYPE svg PUBLIC "-//W3C//DTD SVG 1.1//EN" "http://www.w3.org/Graphics/SVG/1.1/DTD/svg11.dtd">
<svg version="1.1" id="Groupe" xmlns="http://www.w3.org/2000/svg" xmlns:xlink="http://www.w3.org/1999/xlink" x="0px" y="0px"
	 width="15.871px" height="15.65px" viewBox="0 0 15.871 15.65" enable-background="new 0 0 15.871 15.65" xml:space="preserve">
<g id="PinColor_1_">
	<path id="vert" display="none" fill="#2ABF00" stroke="#1D7500" stroke-width="0.2" stroke-miterlimit="10" d="M15.211,8.036
		c0,3.367-2.409,6.187-5.657,6.933c-0.545,0.125-2.905,0.125-3.468-0.02c-3.214-0.762-5.6-3.566-5.6-6.917
		c0-3.926,3.299-7.121,7.362-7.121C11.909,0.912,15.211,4.108,15.211,8.036z"/>
	<path id="orange" display="none" fill="#FF8500" stroke="#7F4500" stroke-width="0.2" stroke-miterlimit="10" d="M15.211,8.036
		c0,3.367-2.409,6.187-5.657,6.933c-0.545,0.125-2.905,0.125-3.468-0.02c-3.214-0.762-5.6-3.566-5.6-6.917
		c0-3.926,3.299-7.121,7.362-7.121C11.909,0.912,15.211,4.108,15.211,8.036z"/>
	<path id="gris" display="none" fill="#A5A5A5" stroke="#595959" stroke-width="0.2" stroke-miterlimit="10" d="M15.211,8.036
		c0,3.367-2.409,6.187-5.657,6.933c-0.545,0.125-2.905,0.125-3.468-0.02c-3.214-0.762-5.6-3.566-5.6-6.917
		c0-3.926,3.299-7.121,7.362-7.121C11.909,0.912,15.211,4.108,15.211,8.036z"/>
	<path id="bleu" fill="#0092FF" stroke="#00477C" stroke-width="0.2" stroke-miterlimit="10" d="M15.211,8.036
		c0,3.367-2.409,6.187-5.657,6.933c-0.545,0.125-2.905,0.125-3.468-0.02c-3.214-0.762-5.6-3.566-5.6-6.917
		c0-3.926,3.299-7.121,7.362-7.121C11.909,0.912,15.211,4.108,15.211,8.036z"/>
</g>
<g id="IconsGroup">
	<g id="MinimalGroup" display="none">
		<path id="ElectionGroup" display="inline" fill="#565656" d="M18.736-1.946l-3.104-1.327c-0.086-0.039-0.201-0.015-0.259,0.063
			L14.485-2.1c-0.043,0.043-0.058,0.121-0.043,0.185c0.017,0.067,0.056,0.114,0.114,0.14l-2.781,1.052
			c-0.233,0.08-0.437,0.245-0.563,0.463L10.29,1.27c-0.193,0.325-0.212,0.725-0.039,1.063l0.068,0.131H9.347
			c-0.125,0-0.219,0.1-0.219,0.223v4.203H8.462c-0.121,0-0.216,0.103-0.216,0.22c0,0.121,0.099,0.223,0.216,0.223h7.525
			c0.12,0,0.219-0.102,0.219-0.223c0-0.116-0.099-0.219-0.219-0.219h-0.664V4.629c0-0.072-0.04-0.147-0.097-0.186
			c-0.064-0.042-0.149-0.049-0.219-0.013c-0.242,0.115-0.424,0.173-0.506,0.2c-0.018,0-0.037,0.009-0.051,0.021l-1.444,0.86
			c-0.229,0.137-0.49,0.215-0.754,0.215c-0.498,0-0.943-0.246-1.228-0.661c-0.228-0.332-0.308-0.732-0.22-1.123
			c0.084-0.391,0.315-0.725,0.647-0.94l0.212-0.134c0.154-0.09,0.292-0.173,0.411-0.251c0.087-0.051,0.121-0.157,0.095-0.254
			c-0.054-0.178-0.143-0.336-0.232-0.456c0.337-0.146,0.795-0.409,1.027-0.678l0,0c0.047,0.03,0.105,0.063,0.168,0.094
			c0.006,0,0.006,0,0.014,0.002l0,0c0.164,0.082,0.368,0.163,0.612,0.21c-0.256,0.32-0.519,0.717-0.618,0.979
			c-0.172,0.083-0.557,0.292-1.445,0.862c-0.236,0.147-0.398,0.386-0.453,0.66c-0.059,0.271-0.007,0.55,0.15,0.786
			c0.201,0.299,0.521,0.463,0.857,0.463c0.182,0,0.362-0.055,0.529-0.149l1.521-0.915c0.234-0.058,1.418-0.413,2.314-1.859
			c0.706-1.139,1.1-2.049,1.264-2.465l0.025,0.013c0.094,0.042,0.201,0.074,0.295,0.074c0.18,0,0.352-0.074,0.471-0.191
			c0.127-0.125,0.201-0.294,0.201-0.478v-1.057C18.864-1.833,18.819-1.916,18.736-1.946z"/>
	</g>
	<g id="FaibleGroup" display="none">
		<path id="FamineGroup" display="inline" fill="#F9F9F9" d="M16.438,5.851l-1.684,0.318L12.009,4.67l0.998-1.237l2.243,0.744
			L16.438,5.851z M19.018,2.93v0.19l-1.77,0.557l-1.746,0.248l-2.247-0.744l-0.529-0.25h0.304c-0.073-0.666-0.169-1.176-0.215-1.84
			l0,0c-0.005-0.017-0.03-0.459-0.033-0.646c-0.033-0.204-0.13-0.281-0.442-0.5C12.164-0.16,12.036-0.2,11.972-0.2
			c-0.115,0-0.217,0.124-0.242,0.503c0.501,0.083,0.533,0.638,0.533,0.638c0.045,0.392-0.149,0.966-0.594,1.116
			c-0.818,0.272-0.738-1.307-0.273-1.688c0.012-0.457,0.14-0.875,0.576-0.893c0.174,0,0.351,0.074,0.549,0.201
			c0.094,0.062,0.176,0.114,0.242,0.182c-0.008-0.155-0.015-0.309-0.015-0.47c0-0.336,0.05-0.689,0.347-0.949
			c0.15-0.142,0.317-0.219,0.493-0.216c0.437,0.028,0.705,0.402,0.866,0.789c0.181-0.081,0.412-0.116,0.675-0.022
			c0.676,0.229,1.045,1.412,0.766,1.816c-0.672,0.959-2.348-0.817-1.907-1.445c0,0,0.067-0.08,0.183-0.176
			c-0.136-0.344-0.393-0.646-0.586-0.629c-0.076,0-0.166,0.028-0.272,0.123c-0.186,0.169-0.238,0.4-0.238,0.709
			c0,0.219,0.029,0.459,0.029,0.697c0,0.127,0.006,0.238,0.011,0.359c0.033,0.215,0.033,0.376,0.033,0.604
			c0.048,0.66,0.308,1.203,0.385,1.881H19.018z M14.288-0.681l1.275,1.385c-0.229-0.982-1.03-1.529-1.03-1.529L14.288-0.681z
			 M11.657,0.504l-0.227,0.095c0,0-0.112,0.775,0,1.179L11.657,0.504z M10.522,5.172l1.009-0.606l1.051-1.3L12.257,2.93H9.931
			L9.468,3.859L10.522,5.172z M11.696,4.962L9.91,6.182l0.233,0.295h4.118l-0.01-0.057L11.696,4.962z M8.019,2.93v1.404l1.143-0.613
			L9.513,2.93H8.019z M15.832,4.223l1.11,1.618l2.073,0.488V4.482l-1.493-0.479L15.832,4.223z M19.018,4.08V3.432L17.85,3.744
			L19.018,4.08z M9.193,4.174L8.019,4.731v1.748h0.859l1.28-1.048L9.193,4.174z M15.342,6.479h2.689l-1.279-0.311L15.342,6.479z"/>
		<path id="CycloneGroup" display="inline" fill="#FFFFFF" d="M13.559-0.848c-0.06,0-0.113-0.008-0.172-0.008
			c-0.505,0-0.976,0.131-1.386,0.355c0.733-2.503,2.57-2.727,2.57-2.727s-4.061,0.346-4.061,5.081c0.004,0,0.004,0,0.008,0
			c0,0.054-0.004,0.106-0.004,0.167c0,0.5,0.132,0.979,0.357,1.392C8.365,2.671,8.147,0.837,8.147,0.837s0.342,4.062,5.078,4.062
			c0-0.003,0-0.003,0-0.011c0.056,0.003,0.107,0.011,0.167,0.011c0.505,0,0.978-0.13,1.392-0.359
			c-0.741,2.509-2.58,2.726-2.58,2.726s4.063-0.342,4.063-5.079c-0.006,0-0.006,0-0.006,0c0-0.059,0.006-0.114,0.006-0.167
			c0-0.508-0.127-0.979-0.357-1.394c2.505,0.735,2.729,2.576,2.729,2.576s-0.34-4.059-5.082-4.059
			C13.559-0.852,13.559-0.848,13.559-0.848z"/>
		<path id="eruptionGroup" display="inline" fill="#FFFFFF" d="M14.19,0.063C14.797,0.27,15.6,0.51,15.773-0.461
			c0.134-0.764,1.141-0.483,1.57-0.526c0.785-0.094,0.192-1.559-0.787-1.58c-0.992-0.022-1.442,0.415-1.846,1.315
			c-0.181,0.432-0.345,0.757-1.046,0.526c-0.701-0.234-1.221,0.343-0.791,1.053c0.374,0.63-0.007,1.313-0.007,1.313h1.061
			c0,0-0.006-0.381-0.263-0.782C13.364,0.383,13.571-0.148,14.19,0.063z M8.58,6.609c2.726-1.986,3.407-4.727,3.407-4.727h2.796
			c0,0,0.678,2.74,3.4,4.727H8.58z"/>
		<path id="tsunamiGroup" display="inline" fill="#FFFFFF" d="M18.494,5.362c-8.362,0.476-6.022-5.916-3.859-5.366
			c-0.222,0.138-0.362,0.606-0.229,0.918c0.151,0.347,0.646,0.534,0.929,0.463C16,1.205,16.031,0.265,15.793-0.238
			c-0.256-0.509-0.92-1.149-2.082-1.149c-2.792,0-4.708,1.428-5.425,3.883v3.616h10.208V5.362z"/>
		<path id="epidemieGroup" display="inline" fill="#FFFFFF" d="M17.75,2.444c0-2.393-1.869-4.333-4.227-4.454
			c1.043,0.095,1.854,0.854,1.854,1.773c0,0.316-0.106,0.608-0.273,0.866c-0.471-0.464-1.109-0.75-1.822-0.75
			c-0.705,0-1.347,0.285-1.808,0.75c-0.162-0.26-0.27-0.55-0.27-0.866c0-0.918,0.803-1.677,1.852-1.772
			C10.701-1.885,8.83,0.056,8.83,2.445c0,0.718,0.179,1.399,0.481,2.002C8.89,3.502,9.144,2.44,9.931,1.99
			c0.273-0.156,0.576-0.216,0.887-0.203C10.757,2,10.72,2.218,10.72,2.45c0,1.188,0.809,2.178,1.908,2.474
			c-0.022,0.021-0.043,0.043-0.057,0.074v0.003c-0.036,0.077-0.08,0.148-0.134,0.206c-0.12,0.154-0.253,0.292-0.431,0.388
			c-0.785,0.456-1.836,0.143-2.447-0.701c0.801,1.214,2.168,2.016,3.729,2.016c1.544,0,2.9-0.784,3.711-1.979
			c-0.624,0.815-1.649,1.116-2.429,0.668c-0.275-0.16-0.473-0.398-0.609-0.677c1.088-0.297,1.891-1.289,1.891-2.472
			c0-0.229-0.032-0.444-0.084-0.66c0.31-0.018,0.615,0.043,0.89,0.204c0.767,0.44,1.026,1.449,0.653,2.369
			C17.59,3.782,17.75,3.13,17.75,2.444z M13.76,4.16c-0.021-0.372,0.063-0.759,0.248-1.129L13.711,2.86
			c-0.104,0.113-0.26,0.181-0.423,0.181c-0.167,0-0.318-0.067-0.429-0.178L12.57,3.026c0.19,0.369,0.265,0.763,0.245,1.138
			c-0.758-0.21-1.314-0.892-1.314-1.713c0-0.156,0.028-0.305,0.063-0.444c0.329,0.164,0.633,0.426,0.858,0.768l0.303-0.176
			c-0.014-0.05-0.033-0.1-0.033-0.153c0-0.278,0.189-0.503,0.449-0.567V1.531c-0.416-0.029-0.785-0.154-1.098-0.358
			c0.314-0.315,0.758-0.51,1.237-0.51c0.482,0,0.932,0.202,1.251,0.517c-0.313,0.204-0.688,0.329-1.097,0.358V1.88
			c0.253,0.068,0.445,0.287,0.445,0.567c0,0.054-0.018,0.104-0.029,0.15l0.304,0.172c0.224-0.343,0.524-0.602,0.854-0.769
			c0.033,0.144,0.066,0.289,0.066,0.442C15.071,3.272,14.514,3.949,13.76,4.16z"/>
		<path id="earthquakeGroup" display="inline" fill="#FFFFFF" d="M16.364,2.336c-0.142,0-0.276,0.082-0.343,0.212L15.463,3.59
			L14.78,1.577c-0.056-0.151-0.196-0.254-0.358-0.261c-0.168-0.004-0.308,0.091-0.367,0.241l-0.471,1.113l-0.743-4.457
			C12.806-1.97,12.628-2.111,12.452-2.1c-0.195,0.007-0.354,0.13-0.378,0.318l-0.657,5.165l-0.533-2.771
			c-0.029-0.162-0.164-0.288-0.33-0.309c-0.162-0.021-0.323,0.064-0.404,0.209l-0.87,1.823H7.932v0.775h1.599
			c0.146,0,0.284-0.08,0.351-0.218l0.469-0.977l0.758,3.938c0.035,0.177,0.197,0.308,0.375,0.308c0.006,0,0.011,0,0.014,0
			c0.193-0.002,0.35-0.143,0.373-0.334l0.646-5.081l0.541,3.34c0.029,0.174,0.166,0.301,0.338,0.325
			c0.175,0.014,0.335-0.079,0.399-0.234l0.582-1.382l0.647,1.9c0.053,0.144,0.181,0.241,0.335,0.254
			c0.158,0.011,0.301-0.067,0.372-0.203L16.6,3.107h1.658V2.334L16.364,2.336L16.364,2.336z"/>
	</g>
	<g id="ModereGroup">
		<path id="returnedGroup" display="none" fill="#FFFFFF" d="M13.512-1.916c0.08,0.52-0.267,1.007-0.786,1.094
			s-1.012-0.267-1.092-0.785c-0.084-0.521,0.263-1.01,0.785-1.094C12.937-2.788,13.424-2.436,13.512-1.916z M13.214,1.856
			l0.841,1.349c0.121,0.19,0.367,0.248,0.563,0.137c0.192-0.117,0.255-0.354,0.146-0.557l-0.207-0.384
			c-0.188-0.332-0.366-0.664-0.549-0.997l-0.383-0.682c-0.041-0.081-0.08-0.165-0.127-0.261c-0.229-0.482-0.591-1.238-1.384-1.168
			c-0.671,0.06-1.361,0.38-2.038,0.954C9.273,0.884,8.71,1.795,8.691,1.84C8.669,1.878,8.64,1.916,8.623,1.956L8.616,1.96l0,0
			c-0.072,0.146-0.111,0.272-0.021,0.44c0.076,0.123,0.218,0.21,0.365,0.21c0.182,0,0.271-0.085,0.356-0.214l0,0l0,0
			c0.024-0.039,0.051-0.08,0.077-0.12C9.399,2.27,9.87,1.512,10.595,0.896c0.227-0.179,0.442-0.3,0.644-0.366l-0.165,1.957
			c-0.018,0.19-0.08,0.529-0.13,0.719l-0.364,1.276c-0.043,0.162-0.184,0.429-0.295,0.558L9.308,6.256
			C9.179,6.417,9.038,6.592,9.15,6.835c0.073,0.146,0.217,0.232,0.38,0.232c0.188,0,0.292-0.111,0.421-0.252l0.997-1.073
			c0.178-0.19,0.409-0.526,0.52-0.757l0.498-1.007l1.831,3.072c0.086,0.151,0.207,0.343,0.452,0.343l0,0
			c0.142,0,0.271-0.073,0.354-0.194c0.127-0.201,0.037-0.39-0.034-0.55l-1.487-3.218c-0.053-0.125-0.086-0.383-0.067-0.521
			L13.214,1.856z M19.372,2.543c0-1.345-1.092-2.432-2.433-2.432h-1.034v1.225h1.036c0.658,0,1.205,0.54,1.205,1.207
			c0,0.659-0.533,1.205-1.205,1.205h-0.217v-0.66l-2.201,1.271l2.203,1.273V4.976h0.24l0,0C18.295,4.955,19.372,3.875,19.372,2.543z
			"/>
	</g>
	<g id="ImportantGroup" display="none">
		<path id="enlevementGroup" display="inline" fill="#FFFFFF" d="M18.053-3.565c-0.328,0-0.59,0.265-0.59,0.59v2.4
			c0.146,0.031,0.279,0.087,0.396,0.198c0.308,0.305,0.313,0.812,0.013,1.119l-1.117,1.151l-0.156-0.151l1.117-1.144
			c0.221-0.233,0.219-0.601-0.013-0.824c-0.069-0.071-0.151-0.122-0.247-0.146c-0.098-0.026-0.197-0.026-0.289-0.007
			c-0.113,0.024-0.207,0.082-0.281,0.162c-0.662,0.681-1.326,1.362-1.992,2.046c-0.168,0.167-0.471,0.55-0.465,0.946
			c0.008,0.365,0,0.742,0,1.11c-0.084-0.074-0.187-0.122-0.308-0.146c-0.343-0.06-0.647,0.148-0.766,0.454h-0.17
			c0-0.081,0-0.169,0-0.251c0.005-0.379-0.01-0.782,0-1.168c0.013-0.39-0.297-0.779-0.459-0.942
			c-0.666-0.687-1.324-1.368-1.99-2.052c-0.076-0.078-0.176-0.135-0.281-0.158c-0.097-0.025-0.197-0.02-0.296,0.006
			c-0.089,0.024-0.181,0.075-0.246,0.146c-0.229,0.223-0.233,0.59-0.014,0.823l1.12,1.144l-0.15,0.151L9.749,0.742
			C9.448,0.435,9.453-0.073,9.763-0.377c0.115-0.107,0.248-0.164,0.387-0.198v-2.4c0-0.325-0.266-0.59-0.59-0.59
			c-0.33,0-0.592,0.265-0.592,0.59v4.154c0,0.139,0.056,0.264,0.135,0.361l2.01,2.648h-0.174c-0.391,0-0.708,0.316-0.708,0.713
			c0,0.262,0.144,0.478,0.358,0.601c-0.211,0.126-0.358,0.346-0.358,0.596c0,0.396,0.315,0.713,0.708,0.713h0.215v0.395h1.973
			c0.1,0.103,0.221,0.178,0.365,0.207c0.046,0.009,0.08,0.015,0.121,0.015c0.351,0,0.646-0.249,0.704-0.592V6.814h0.127
			c0,0.13,0,0.261,0.016,0.396h2V6.814h0.213c0.387,0,0.709-0.316,0.709-0.709c0-0.254-0.144-0.479-0.359-0.603
			c0.214-0.124,0.359-0.339,0.359-0.601c0-0.393-0.322-0.71-0.709-0.71h-0.17l2.004-2.646c0.086-0.104,0.14-0.225,0.14-0.363v-4.15
			C18.646-3.301,18.377-3.565,18.053-3.565z M10.579,4.901c0-0.194,0.162-0.353,0.358-0.353h2.329L13.142,5.26h-2.203
			C10.741,5.252,10.579,5.096,10.579,4.901z M10.579,6.106c0-0.197,0.162-0.359,0.358-0.359h2.118l-0.119,0.715h-1.998
			C10.741,6.461,10.579,6.303,10.579,6.106z M13.963,6.774c-0.031,0.191-0.238,0.317-0.408,0.291
			c-0.096-0.014-0.175-0.067-0.229-0.144c-0.057-0.079-0.072-0.171-0.059-0.27l0.39-2.274c0.031-0.171,0.18-0.294,0.354-0.294
			c0.021,0,0.041,0,0.061,0.003c0.197,0.039,0.322,0.218,0.287,0.411L13.963,6.774z M17.033,6.106c0,0.198-0.152,0.356-0.355,0.356
			h-2.305l0.121-0.715h2.184C16.873,5.749,17.033,5.911,17.033,6.106z M17.033,4.901c0,0.194-0.152,0.356-0.355,0.356h-2.094
			l0.117-0.691c0-0.003,0-0.01,0-0.015h1.977C16.873,4.548,17.033,4.71,17.033,4.901z"/>
	</g>
	<g id="EleveGroup" display="none">
		<path id="attackGroup" display="inline" fill="#FFFFFF" d="M16.141,2.831l2.724-1.751l-2.636-0.277l0.718-3.055L15.082-0.32
			l-0.525-2.186l-0.779,2.034L11.642-3.22l0.67,3.446l-1.9-0.422c0,0,0.579,1.104,0.9,1.771L8.265,1.36l2.76,1.613l-0.79,0.81
			l1.28-0.229l-0.907,3.206l2.694-2.258l0.706,1.748l0.717-1.392l2.322,2.397l-1.166-3.217L18.434,4.3L16.141,2.831z"/>
	</g>
	<g id="ExtremeGroup" display="none">
		<path id="rebelionGroup" display="inline" fill="#FFFFFF" d="M15.455-1.236c0,1.109-0.902,2.01-2.004,2.01
			c-1.114,0-2.015-0.899-2.015-2.01c0-1.113,0.9-2.007,2.015-2.007C14.557-3.243,15.455-2.349,15.455-1.236z M10.097,7.283h1.222
			h0.069l0.047-0.095l0.443-0.436L11.46,6.661l-0.646-0.136L10.097,7.283z M18.497-0.864l-0.428,0.433l0.026,0.029l-0.354,0.347
			c0.051,0.047,0.094,0.09,0.137,0.141l0.352-0.352l0.072,0.063l0.422-0.432L18.497-0.864z M15.727,1.364l-0.189,0.188l0.021,0.052
			l0.046,0.099l-2.928,2.935l0.313,0.074c0.292,0.061,0.54,0.229,0.704,0.482c0.023,0.034,0.029,0.078,0.045,0.112l0.007-0.009
			l0.216,0.142l0.075-0.019l0.851,0.622l0.578-0.783L14.19,4.262l0.032-0.083h0.218l1.245-1.466l0.142-1.312L15.727,1.364z
			 M17.088,0.067c-0.384-0.04-0.752,0.245-0.791,0.637l-0.055,0.429l0,0l-0.027,0.312l-0.141,1.31l-0.016,0.123l-0.071,0.091
			l-1.121,1.318l0.84,0.653l0.308,0.237l-0.182,0.241l0.049,0.084c0.111,0.251,0.368,0.405,0.644,0.405c0.039,0,0.08,0,0.12-0.009
			c0.314-0.052,0.556-0.31,0.591-0.628l0.483-4.421C17.764,0.461,17.477,0.11,17.088,0.067z M15.624,5.713l-0.407,0.563
			l-0.234,0.317l-0.327-0.233l-0.707-0.51l-0.06,0.014L13.86,5.851c0,0.06,0,0.115-0.017,0.177
			c-0.013,0.058-0.031,0.115-0.057,0.169c-0.042,0.104-0.104,0.187-0.168,0.277l0.053,0.114c0.047,0.114,0.115,0.258,0.193,0.391
			l0.202,0.305h1.51L15.624,5.713z M12.755,6.909c-0.014,0-0.035-0.002-0.056-0.002c0,0.028-0.007,0.047-0.007,0.047l0.171,0.329
			h0.405l0.266-0.095c-0.089-0.138-0.163-0.288-0.232-0.442C13.136,6.842,12.956,6.909,12.755,6.909z M13.345,5.391
			c-0.027-0.043-0.076-0.08-0.114-0.112c-0.025-0.029-0.041-0.059-0.076-0.074C13.085,5.154,12.993,5.111,12.9,5.09l-0.308-0.064
			l-0.717-0.15l0,0l-0.637-0.138l-0.244-0.047l-0.4-0.092l-0.028-0.004l0.067-0.068l0.275-0.272l0.292-0.292
			c0.022,0.203,0.034,0.358,0.034,0.361l0.095,0.021l0.886,0.19l0.183-0.184l2.742-2.75l-0.064-0.154l0.021-0.018
			c-0.396-0.116-0.863-0.192-1.455-0.192h-0.191h-0.192c-0.416,0-0.832,0.034-1.238,0.121c-0.708,0.16-1.143,0.85-1.618,1.319
			c-0.497,0.49-0.979,0.997-1.459,1.5C8.835,4.291,8.73,4.406,8.616,4.511C8.433,4.703,8.365,4.976,8.433,5.226
			c0.076,0.25,0.283,0.438,0.543,0.498l0.947,0.204l0.403,0.084l2.279,0.486c0.051,0.006,0.099,0.015,0.147,0.015
			c0.332,0,0.632-0.225,0.704-0.569c0.027-0.136,0.008-0.253-0.033-0.369l-0.039-0.097C13.367,5.452,13.354,5.428,13.345,5.391z
			 M12.339,7.15l-0.068-0.132l0.037-0.144l0.004-0.028l-0.114-0.032l-0.399,0.47h0.612L12.339,7.15z"/>
	</g>
	<path id="displacedGroup" fill="#FFFFFF" d="M7.667,2.338c0.097,0.604-0.311,1.169-0.911,1.271
		C6.152,3.714,5.579,3.301,5.482,2.705C5.388,2.096,5.79,1.524,6.398,1.429C6.999,1.323,7.567,1.737,7.667,2.338z M7.324,6.729
		l0.979,1.562c0.14,0.224,0.426,0.294,0.654,0.161C9.181,8.318,9.253,8.038,9.13,7.804L8.886,7.36
		C8.664,6.972,8.458,6.584,8.239,6.203L7.801,5.407c-0.048-0.093-0.094-0.19-0.147-0.304C7.388,4.542,6.968,3.666,6.046,3.744
		c-0.789,0.069-1.59,0.45-2.371,1.116C2.744,5.592,2.088,6.655,2.07,6.709c-0.031,0.043-0.066,0.09-0.085,0.133c0,0,0,0-0.007,0.004
		l0,0C1.896,7.013,1.85,7.161,1.954,7.357c0.087,0.145,0.249,0.241,0.423,0.241c0.211,0,0.315-0.102,0.418-0.249l0,0l0,0
		c0.032-0.043,0.06-0.089,0.087-0.136c0.004-0.008,0.551-0.893,1.401-1.605c0.257-0.204,0.508-0.344,0.74-0.417L4.835,7.458
		C4.816,7.68,4.744,8.074,4.684,8.293L4.26,9.778c-0.05,0.184-0.214,0.498-0.336,0.646l-1.143,1.416
		c-0.148,0.189-0.313,0.389-0.18,0.676c0.083,0.166,0.251,0.268,0.44,0.268c0.218,0,0.339-0.125,0.491-0.291l1.157-1.248
		c0.207-0.223,0.474-0.613,0.611-0.883l0.575-1.17l2.127,3.572c0.104,0.176,0.24,0.4,0.529,0.4l0,0c0.163,0,0.313-0.086,0.405-0.225
		c0.153-0.236,0.049-0.449-0.04-0.646l-1.73-3.736C7.1,8.415,7.067,8.114,7.09,7.952L7.324,6.729z M9.121,10.618h2.574v0.764
		l2.566-1.479l-2.567-1.479v0.77H9.121V10.618z"/>
</g>
</svg>
