<?xml version="1.0" encoding="utf-8"?>
<!-- Generator: Adobe Illustrator 16.0.0, SVG Export Plug-In . SVG Version: 6.00 Build 0)  -->
<!DOCTYPE svg PUBLIC "-//W3C//DTD SVG 1.1//EN" "http://www.w3.org/Graphics/SVG/1.1/DTD/svg11.dtd">
<svg version="1.1" id="Groupe" xmlns="http://www.w3.org/2000/svg" xmlns:xlink="http://www.w3.org/1999/xlink" x="0px" y="0px"
	 width="15.871px" height="15.65px" viewBox="0 0 15.871 15.65" enable-background="new 0 0 15.871 15.65" xml:space="preserve">
<g id="PinColor_1_">
	<path id="vert" fill="#2ABF00" stroke="#1D7500" stroke-width="0.2" stroke-miterlimit="10" d="M15.236,8.046
		c0,3.365-2.408,6.186-5.657,6.933c-0.545,0.124-2.905,0.124-3.468-0.021c-3.214-0.761-5.6-3.566-5.6-6.915
		c0-3.926,3.299-7.121,7.362-7.121C11.936,0.922,15.236,4.117,15.236,8.046z"/>
	<path id="orange" display="none" fill="#FF8500" stroke="#7F4500" stroke-width="0.2" stroke-miterlimit="10" d="M15.236,8.046
		c0,3.365-2.408,6.186-5.657,6.933c-0.545,0.124-2.905,0.124-3.468-0.021c-3.214-0.761-5.6-3.566-5.6-6.915
		c0-3.926,3.299-7.121,7.362-7.121C11.936,0.922,15.236,4.117,15.236,8.046z"/>
	<path id="gris" display="none" fill="#A5A5A5" stroke="#595959" stroke-width="0.2" stroke-miterlimit="10" d="M15.236,8.046
		c0,3.365-2.408,6.186-5.657,6.933c-0.545,0.124-2.905,0.124-3.468-0.021c-3.214-0.761-5.6-3.566-5.6-6.915
		c0-3.926,3.299-7.121,7.362-7.121C11.936,0.922,15.236,4.117,15.236,8.046z"/>
	<path id="bleu" display="none" fill="#0092FF" stroke="#00477C" stroke-width="0.2" stroke-miterlimit="10" d="M15.236,8.046
		c0,3.365-2.408,6.186-5.657,6.933c-0.545,0.124-2.905,0.124-3.468-0.021c-3.214-0.761-5.6-3.566-5.6-6.915
		c0-3.926,3.299-7.121,7.362-7.121C11.936,0.922,15.236,4.117,15.236,8.046z"/>
</g>
<g id="IconsGroup">
	<g id="MinimalGroup" display="none">
		<path id="ElectionGroup" display="inline" fill="#565656" d="M18.859-1.899l-3.131-1.338c-0.086-0.04-0.203-0.014-0.26,0.063
			l-0.896,1.12c-0.043,0.043-0.057,0.12-0.043,0.186c0.018,0.068,0.057,0.115,0.117,0.142l-2.807,1.06
			c-0.234,0.081-0.438,0.247-0.566,0.467l-0.93,1.544c-0.195,0.328-0.213,0.73-0.039,1.072l0.068,0.131h-0.98
			c-0.125,0-0.221,0.1-0.221,0.224V7.01H8.499c-0.121,0-0.216,0.104-0.216,0.221c0,0.122,0.099,0.225,0.218,0.225h7.587
			c0.121,0,0.223-0.104,0.223-0.225c0-0.116-0.102-0.22-0.223-0.22h-0.67V4.732c0-0.072-0.041-0.149-0.098-0.188
			c-0.063-0.042-0.148-0.05-0.221-0.012c-0.244,0.115-0.428,0.174-0.51,0.202c-0.018,0-0.035,0.009-0.051,0.02l-1.457,0.868
			c-0.232,0.137-0.494,0.215-0.76,0.215c-0.501,0-0.951-0.248-1.237-0.667c-0.229-0.333-0.31-0.737-0.222-1.131
			c0.084-0.394,0.318-0.73,0.652-0.947l0.215-0.135c0.154-0.092,0.295-0.175,0.414-0.254c0.088-0.051,0.121-0.158,0.095-0.256
			c-0.054-0.181-0.144-0.341-0.233-0.461c0.34-0.146,0.801-0.412,1.036-0.684l0,0c0.048,0.032,0.106,0.064,0.168,0.095
			c0.007,0,0.007,0,0.015,0.002l0,0c0.166,0.083,0.371,0.164,0.617,0.211c-0.26,0.324-0.522,0.725-0.623,0.988
			c-0.174,0.084-0.561,0.294-1.457,0.869c-0.24,0.148-0.402,0.389-0.457,0.665c-0.06,0.274-0.008,0.555,0.151,0.792
			c0.203,0.301,0.524,0.467,0.865,0.467c0.182,0,0.364-0.055,0.534-0.148l1.531-0.923c0.236-0.059,1.432-0.416,2.334-1.875
			c0.713-1.147,1.109-2.066,1.273-2.486l0.027,0.014c0.094,0.042,0.201,0.074,0.297,0.074c0.18,0,0.354-0.074,0.475-0.193
			c0.127-0.125,0.203-0.297,0.203-0.48v-1.065C18.988-1.783,18.941-1.867,18.859-1.899z"/>
	</g>
	<g id="FaibleGroup" display="none">
		<path id="FamineGroup" display="inline" fill="#F9F9F9" d="M16.541,5.964l-1.697,0.321l-2.769-1.512l1.007-1.246l2.262,0.75
			L16.541,5.964z M19.143,3.019v0.191l-1.783,0.562l-1.762,0.25l-2.265-0.751l-0.534-0.252h0.307
			c-0.073-0.671-0.17-1.185-0.217-1.854l0,0c-0.004-0.019-0.031-0.463-0.033-0.654c-0.034-0.205-0.133-0.283-0.446-0.503
			c-0.177-0.104-0.306-0.146-0.371-0.146c-0.116,0-0.218,0.124-0.244,0.507c0.505,0.083,0.539,0.642,0.539,0.642
			c0.045,0.396-0.151,0.976-0.601,1.128c-0.823,0.274-0.742-1.318-0.274-1.704c0.013-0.46,0.142-0.883,0.58-0.899
			c0.175,0,0.354,0.076,0.554,0.204c0.094,0.061,0.178,0.114,0.244,0.182c-0.007-0.155-0.015-0.31-0.015-0.472
			c0-0.338,0.05-0.696,0.351-0.958c0.152-0.143,0.32-0.221,0.496-0.217c0.439,0.028,0.711,0.405,0.873,0.796
			c0.184-0.081,0.416-0.118,0.682-0.023c0.682,0.23,1.055,1.423,0.771,1.833c-0.676,0.966-2.367-0.826-1.922-1.459
			c0,0,0.068-0.081,0.184-0.178c-0.137-0.346-0.396-0.649-0.59-0.633c-0.076,0-0.17,0.027-0.275,0.124
			c-0.188,0.17-0.239,0.403-0.239,0.715c0,0.22,0.028,0.463,0.028,0.703c0,0.128,0.008,0.239,0.012,0.361
			c0.033,0.217,0.033,0.379,0.033,0.608c0.047,0.665,0.309,1.213,0.387,1.896H19.143z M14.375-0.622l1.285,1.396
			c-0.229-0.989-1.039-1.542-1.039-1.542L14.375-0.622z M11.723,0.573l-0.229,0.096c0,0-0.113,0.781,0,1.188L11.723,0.573z
			 M10.577,5.28l1.019-0.613l1.06-1.311l-0.329-0.337H9.98L9.514,3.955L10.577,5.28z M11.762,5.067L9.96,6.299l0.235,0.297h4.152
			l-0.01-0.057L11.762,5.067z M8.053,3.019v1.416l1.151-0.618L9.559,3.02L8.053,3.019L8.053,3.019z M15.932,4.323l1.119,1.631
			l2.092,0.493V4.583l-1.506-0.483L15.932,4.323z M19.143,4.178V3.525L17.965,3.84L19.143,4.178z M9.237,4.272L8.053,4.835v1.762
			h0.865l1.292-1.055L9.237,4.272z M15.438,6.596h2.711l-1.289-0.312L15.438,6.596z"/>
		<path id="CycloneGroup" display="inline" fill="#FFFFFF" d="M13.639-0.791c-0.061,0-0.113-0.008-0.172-0.008
			c-0.51,0-0.984,0.132-1.397,0.358C12.809-2.963,14.66-3.19,14.66-3.19s-4.096,0.349-4.096,5.122c0.005,0,0.005,0,0.01,0
			c0,0.055-0.005,0.108-0.005,0.169c0,0.504,0.133,0.988,0.36,1.403C8.403,2.758,8.182,0.909,8.182,0.909s0.344,4.094,5.123,4.094
			c0-0.003,0-0.003,0-0.01c0.055,0.003,0.107,0.01,0.166,0.01c0.51,0,0.984-0.131,1.402-0.362c-0.748,2.531-2.6,2.75-2.6,2.75
			s4.098-0.346,4.098-5.123c-0.008,0-0.008,0-0.008,0c0-0.058,0.008-0.114,0.008-0.169c0-0.511-0.129-0.987-0.361-1.404
			c2.525,0.74,2.752,2.598,2.752,2.598s-0.344-4.093-5.123-4.093C13.639-0.795,13.639-0.791,13.639-0.791z"/>
		<path id="eruptionGroup" display="inline" fill="#FFFFFF" d="M14.275,0.128c0.611,0.209,1.42,0.452,1.596-0.527
			c0.137-0.771,1.15-0.486,1.584-0.529c0.791-0.096,0.195-1.572-0.793-1.593c-1.002-0.023-1.455,0.418-1.861,1.325
			c-0.182,0.435-0.348,0.763-1.055,0.529c-0.708-0.236-1.23,0.345-0.797,1.062c0.377,0.636-0.007,1.325-0.007,1.325h1.069
			c0,0-0.01-0.384-0.266-0.789C13.443,0.452,13.65-0.085,14.275,0.128z M8.619,6.727c2.748-2.003,3.436-4.765,3.436-4.765h2.818
			c0,0,0.684,2.762,3.43,4.765H8.619z"/>
		<path id="tsunamiGroup" display="inline" fill="#FFFFFF" d="M18.615,5.469c-8.434,0.48-6.071-5.965-3.891-5.41
			c-0.225,0.14-0.367,0.611-0.232,0.927c0.154,0.35,0.652,0.538,0.938,0.467c0.672-0.172,0.703-1.12,0.463-1.627
			c-0.258-0.514-0.928-1.159-2.1-1.159c-2.814,0-4.748,1.439-5.471,3.915v3.646h10.293V5.469z"/>
		<path id="epidemieGroup" display="inline" fill="#FFFFFF" d="M17.865,2.528c0-2.412-1.887-4.37-4.262-4.491
			c1.051,0.096,1.867,0.861,1.867,1.79c0,0.317-0.107,0.612-0.275,0.873c-0.473-0.469-1.117-0.756-1.836-0.756
			c-0.711,0-1.357,0.286-1.823,0.755c-0.163-0.262-0.271-0.555-0.271-0.872c0-0.927,0.81-1.691,1.867-1.788
			C10.758-1.837,8.871,0.121,8.871,2.53c0,0.723,0.18,1.411,0.484,2.019C8.932,3.596,9.188,2.524,9.98,2.072
			c0.277-0.158,0.582-0.22,0.895-0.205c-0.063,0.215-0.099,0.435-0.099,0.668c0,1.196,0.815,2.194,1.924,2.494
			c-0.022,0.021-0.042,0.044-0.058,0.075v0.002c-0.035,0.079-0.08,0.15-0.135,0.208c-0.119,0.155-0.254,0.294-0.433,0.392
			c-0.791,0.461-1.853,0.143-2.468-0.707c0.808,1.224,2.186,2.032,3.759,2.032c1.558,0,2.923-0.791,3.741-1.994
			c-0.629,0.821-1.662,1.125-2.449,0.673c-0.275-0.162-0.477-0.402-0.613-0.683c1.098-0.3,1.906-1.3,1.906-2.492
			c0-0.231-0.033-0.448-0.086-0.666c0.314-0.019,0.621,0.043,0.896,0.205c0.771,0.443,1.037,1.461,0.658,2.389
			C17.703,3.878,17.865,3.22,17.865,2.528z M13.842,4.26c-0.021-0.375,0.063-0.765,0.25-1.139l-0.299-0.173
			c-0.107,0.114-0.264,0.182-0.427,0.182c-0.169,0-0.321-0.068-0.433-0.18l-0.291,0.165c0.191,0.373,0.267,0.77,0.248,1.146
			c-0.765-0.212-1.328-0.897-1.328-1.727c0-0.158,0.029-0.309,0.065-0.448c0.333,0.165,0.638,0.429,0.866,0.773l0.305-0.176
			c-0.015-0.051-0.033-0.101-0.033-0.154c0-0.281,0.191-0.508,0.453-0.572V1.607c-0.42-0.029-0.791-0.154-1.106-0.361
			c0.315-0.318,0.763-0.514,1.247-0.514c0.486,0,0.939,0.204,1.262,0.521c-0.316,0.206-0.693,0.331-1.105,0.361V1.96
			c0.254,0.069,0.447,0.291,0.447,0.572c0,0.054-0.018,0.104-0.027,0.152l0.305,0.173c0.225-0.345,0.529-0.605,0.859-0.773
			c0.033,0.145,0.066,0.292,0.066,0.445C15.164,3.364,14.602,4.046,13.842,4.26z"/>
		<path id="earthquakeGroup" display="inline" fill="#FFFFFF" d="M16.467,2.421c-0.143,0-0.277,0.083-0.346,0.213l-0.563,1.051
			l-0.689-2.029c-0.055-0.152-0.197-0.257-0.359-0.264c-0.168-0.004-0.311,0.092-0.369,0.244l-0.477,1.122l-0.749-4.494
			c-0.034-0.186-0.215-0.328-0.392-0.316c-0.197,0.007-0.356,0.131-0.381,0.32L11.48,3.475l-0.539-2.794
			c-0.029-0.163-0.165-0.29-0.334-0.31c-0.161-0.022-0.324,0.063-0.405,0.211L9.324,2.421H7.966v0.781h1.612
			c0.148,0,0.286-0.081,0.354-0.221l0.474-0.983l0.763,3.97c0.035,0.178,0.199,0.311,0.379,0.311c0.006,0,0.01,0,0.014,0
			c0.193-0.003,0.354-0.145,0.375-0.338l0.652-5.123l0.547,3.369c0.029,0.176,0.166,0.304,0.34,0.328
			c0.176,0.014,0.338-0.08,0.404-0.236l0.586-1.395L15.117,4.8c0.055,0.146,0.182,0.243,0.338,0.256
			c0.158,0.011,0.305-0.066,0.375-0.205l0.875-1.653h1.674V2.418h-1.912V2.421z"/>
	</g>
	<g id="ModereGroup">
		<path id="returnedGroup" display="none" fill="#FFFFFF" d="M13.592-1.867c0.082,0.524-0.268,1.015-0.793,1.104
			c-0.522,0.087-1.021-0.27-1.101-0.794c-0.086-0.523,0.264-1.017,0.791-1.102C13.012-2.746,13.502-2.393,13.592-1.867z
			 M13.292,1.935l0.849,1.36c0.121,0.192,0.371,0.25,0.566,0.138c0.195-0.117,0.258-0.357,0.148-0.561l-0.209-0.388
			c-0.191-0.336-0.371-0.67-0.555-1.006l-0.387-0.687c-0.041-0.081-0.08-0.166-0.127-0.263c-0.232-0.487-0.596-1.248-1.396-1.179
			c-0.676,0.061-1.371,0.384-2.055,0.962C9.317,0.956,8.749,1.875,8.73,1.92C8.708,1.959,8.68,1.997,8.662,2.037L8.656,2.041l0,0
			C8.582,2.186,8.544,2.314,8.635,2.485c0.076,0.123,0.219,0.212,0.367,0.212c0.182,0,0.271-0.086,0.359-0.217l0,0l0,0
			c0.025-0.039,0.051-0.081,0.078-0.122c0.007-0.006,0.48-0.771,1.212-1.393c0.228-0.178,0.446-0.3,0.647-0.367l-0.166,1.973
			c-0.016,0.193-0.08,0.534-0.131,0.725l-0.367,1.288c-0.043,0.163-0.186,0.432-0.298,0.563L9.352,6.373
			C9.223,6.535,9.081,6.712,9.194,6.957C9.268,7.102,9.412,7.19,9.577,7.19c0.188,0,0.294-0.111,0.425-0.254l1.006-1.083
			c0.18-0.19,0.411-0.529,0.523-0.764l0.502-1.014l1.844,3.098c0.088,0.153,0.209,0.346,0.457,0.346l0,0
			c0.145,0,0.271-0.073,0.357-0.195c0.127-0.202,0.037-0.394-0.035-0.556l-1.497-3.244c-0.054-0.125-0.087-0.385-0.069-0.523
			L13.292,1.935z M19.5,2.629c0-1.356-1.1-2.452-2.451-2.452h-1.043v1.234h1.045c0.664,0,1.215,0.544,1.215,1.217
			c0,0.664-0.537,1.215-1.215,1.215h-0.219V3.177L14.611,4.46l2.221,1.285V5.082h0.244l0,0C18.414,5.06,19.5,3.971,19.5,2.629z"/>
	</g>
	<g id="ImportantGroup" display="none">
		<path id="enlevementGroup" display="inline" fill="#FFFFFF" d="M18.172-3.531c-0.332,0-0.598,0.268-0.598,0.595v2.422
			c0.148,0.03,0.283,0.088,0.398,0.199c0.311,0.309,0.314,0.818,0.014,1.128l-1.127,1.161l-0.156-0.152l1.127-1.152
			c0.223-0.236,0.221-0.606-0.014-0.832c-0.07-0.071-0.154-0.123-0.248-0.147c-0.1-0.026-0.199-0.026-0.293-0.007
			c-0.113,0.024-0.209,0.083-0.283,0.163c-0.668,0.688-1.336,1.374-2.008,2.063c-0.17,0.169-0.475,0.554-0.469,0.954
			c0.006,0.368,0,0.748,0,1.119c-0.086-0.075-0.189-0.122-0.311-0.146c-0.348-0.061-0.654,0.15-0.773,0.458h-0.17
			c0-0.081,0-0.17,0-0.254c0.006-0.382-0.009-0.788,0-1.178c0.014-0.393-0.3-0.784-0.463-0.949
			c-0.671-0.692-1.336-1.379-2.007-2.069c-0.075-0.078-0.177-0.136-0.282-0.159c-0.099-0.025-0.201-0.02-0.3,0.006
			c-0.09,0.024-0.181,0.075-0.247,0.147c-0.23,0.225-0.236,0.595-0.015,0.831l1.129,1.152l-0.149,0.151l-1.129-1.16
			C9.495,0.503,9.5-0.009,9.813-0.316c0.115-0.107,0.248-0.166,0.39-0.199v-2.422c0-0.327-0.269-0.595-0.595-0.595
			c-0.332,0-0.596,0.268-0.596,0.595v4.19c0,0.139,0.055,0.265,0.135,0.364l2.025,2.67h-0.176c-0.395,0-0.713,0.319-0.713,0.719
			c0,0.265,0.145,0.482,0.361,0.606c-0.213,0.127-0.361,0.349-0.361,0.601c0,0.399,0.318,0.718,0.713,0.718h0.217V7.33h1.988
			c0.102,0.104,0.225,0.18,0.369,0.209c0.047,0.009,0.082,0.015,0.123,0.015c0.355,0,0.652-0.251,0.709-0.597V6.933h0.129
			c0,0.131,0,0.264,0.018,0.4h2.014v-0.4h0.217c0.389,0,0.715-0.317,0.715-0.715c0-0.256-0.145-0.482-0.363-0.606
			c0.217-0.124,0.363-0.342,0.363-0.606c0-0.396-0.324-0.716-0.715-0.716h-0.172l2.02-2.668c0.088-0.105,0.143-0.228,0.143-0.366
			V-2.93C18.768-3.264,18.496-3.531,18.172-3.531z M10.635,5.006c0-0.196,0.164-0.355,0.361-0.355h2.348l-0.125,0.719h-2.223
			C10.799,5.361,10.635,5.203,10.635,5.006z M10.635,6.219c0-0.198,0.164-0.361,0.361-0.361h2.137L13.012,6.58h-2.016
			C10.799,6.58,10.635,6.42,10.635,6.219z M14.049,6.893c-0.033,0.194-0.242,0.321-0.414,0.294c-0.096-0.014-0.176-0.066-0.23-0.144
			c-0.057-0.08-0.074-0.172-0.061-0.272l0.395-2.292c0.031-0.173,0.18-0.297,0.355-0.297c0.021,0,0.041,0,0.061,0.002
			c0.199,0.041,0.326,0.221,0.289,0.416L14.049,6.893z M17.143,6.219c0,0.201-0.154,0.36-0.359,0.36h-2.322l0.121-0.72h2.201
			C16.98,5.861,17.143,6.024,17.143,6.219z M17.143,5.006c0,0.197-0.154,0.36-0.359,0.36h-2.109l0.117-0.698
			c0-0.002,0-0.009,0-0.013h1.992C16.98,4.65,17.143,4.814,17.143,5.006z"/>
	</g>
	<g id="EleveGroup" display="none">
		<path id="attackGroup" display="inline" fill="#FFFFFF" d="M16.242,2.92l2.746-1.765l-2.658-0.28l0.725-3.081l-1.879,1.949
			l-0.529-2.205l-0.787,2.051l-2.154-2.772l0.676,3.476l-1.914-0.425c0,0,0.582,1.111,0.907,1.785L8.302,1.434l2.781,1.628
			l-0.796,0.815l1.291-0.231L10.663,6.88l2.718-2.276l0.711,1.763l0.723-1.403l2.34,2.418l-1.176-3.244l2.574,0.266L16.242,2.92z"/>
	</g>
	<g id="ExtremeGroup" display="none">
		<path id="rebelionGroup" display="inline" fill="#FFFFFF" d="M15.553-1.181c0,1.118-0.91,2.024-2.021,2.024
			c-1.123,0-2.031-0.907-2.031-2.024c0-1.123,0.908-2.024,2.031-2.024C14.646-3.205,15.553-2.304,15.553-1.181z M10.148,7.408h1.232
			h0.07l0.046-0.097l0.448-0.438l-0.424-0.092l-0.65-0.139L10.148,7.408z M18.619-0.806L18.186-0.37l0.027,0.029l-0.355,0.35
			c0.051,0.047,0.094,0.09,0.137,0.142l0.355-0.354l0.072,0.063l0.428-0.437L18.619-0.806z M15.824,1.439l-0.189,0.19l0.021,0.051
			l0.045,0.101L12.748,4.74l0.314,0.073c0.295,0.062,0.545,0.23,0.711,0.486c0.025,0.035,0.031,0.08,0.045,0.115l0.008-0.01
			l0.219,0.143l0.076-0.018l0.857,0.626l0.582-0.79l-1.285-1.004l0.033-0.084h0.219L15.783,2.8l0.143-1.322L15.824,1.439z
			 M17.197,0.132c-0.387-0.041-0.76,0.247-0.799,0.642l-0.053,0.433l0,0l-0.029,0.313L16.176,2.84L16.16,2.965l-0.074,0.092
			l-1.129,1.329l0.848,0.659l0.311,0.24l-0.184,0.243l0.047,0.085c0.115,0.254,0.373,0.408,0.648,0.408c0.039,0,0.082,0,0.121-0.009
			c0.318-0.051,0.563-0.312,0.598-0.633l0.486-4.458C17.879,0.53,17.59,0.175,17.197,0.132z M15.723,5.825l-0.412,0.567
			l-0.236,0.321l-0.33-0.236l-0.713-0.514l-0.059,0.014l-0.031-0.014c0,0.061,0,0.118-0.016,0.178
			c-0.012,0.059-0.031,0.116-0.057,0.17c-0.043,0.106-0.104,0.189-0.168,0.281l0.051,0.115c0.049,0.114,0.117,0.26,0.195,0.392
			l0.205,0.309h1.521L15.723,5.825z M12.829,7.031c-0.015,0-0.037-0.002-0.058-0.002c0,0.027-0.008,0.047-0.008,0.047l0.174,0.332
			h0.41l0.266-0.097c-0.09-0.138-0.164-0.29-0.232-0.444C13.211,6.964,13.032,7.031,12.829,7.031z M13.424,5.501
			c-0.029-0.044-0.078-0.082-0.115-0.114c-0.025-0.029-0.041-0.058-0.078-0.074c-0.069-0.052-0.161-0.095-0.256-0.114l-0.31-0.066
			L11.942,4.98l0,0l-0.642-0.14l-0.246-0.047l-0.403-0.092l-0.029-0.004l0.069-0.07l0.277-0.274l0.295-0.294
			c0.023,0.205,0.035,0.361,0.035,0.364l0.094,0.022l0.894,0.191l0.185-0.185l2.764-2.773l-0.066-0.155l0.021-0.018
			c-0.398-0.119-0.871-0.196-1.465-0.196h-0.195h-0.192c-0.419,0-0.838,0.034-1.249,0.122c-0.715,0.162-1.152,0.858-1.632,1.332
			C9.954,3.258,9.469,3.769,8.984,4.277C8.876,4.391,8.77,4.507,8.656,4.613C8.473,4.807,8.403,5.082,8.473,5.334
			c0.076,0.252,0.283,0.441,0.545,0.504l0.955,0.205l0.408,0.085l2.297,0.49c0.051,0.007,0.1,0.015,0.149,0.015
			c0.334,0,0.638-0.227,0.708-0.575c0.029-0.137,0.01-0.256-0.033-0.373l-0.039-0.097C13.445,5.561,13.432,5.538,13.424,5.501z
			 M12.409,7.272L12.34,7.14l0.039-0.144l0.002-0.029l-0.115-0.034l-0.401,0.475h0.616L12.409,7.272z"/>
	</g>
	<path id="displacedGroup" fill="#FFFFFF" d="M8.086,2.312c0.097,0.605-0.313,1.173-0.915,1.274
		c-0.604,0.105-1.18-0.308-1.277-0.907C5.8,2.07,6.203,1.495,6.813,1.399C7.416,1.295,7.986,1.709,8.086,2.312z M7.742,6.717
		l0.982,1.569c0.14,0.223,0.428,0.294,0.656,0.16c0.223-0.134,0.297-0.414,0.17-0.649L9.309,7.349
		c-0.223-0.389-0.43-0.777-0.648-1.16L8.222,5.39C8.173,5.298,8.128,5.2,8.073,5.086C7.806,4.523,7.385,3.645,6.46,3.722
		c-0.791,0.07-1.595,0.452-2.378,1.12c-0.935,0.734-1.593,1.8-1.61,1.854C2.439,6.741,2.404,6.788,2.385,6.832c0,0,0,0-0.007,0.004
		l0,0C2.294,7.003,2.249,7.152,2.353,7.346C2.442,7.493,2.604,7.59,2.778,7.59c0.211,0,0.316-0.102,0.42-0.25l0,0l0,0
		c0.031-0.043,0.06-0.089,0.087-0.136c0.004-0.009,0.553-0.896,1.406-1.612c0.257-0.205,0.51-0.344,0.743-0.418L5.245,7.449
		C5.226,7.672,5.154,8.066,5.094,8.286L4.669,9.777c-0.05,0.184-0.215,0.498-0.338,0.647l-1.146,1.421
		c-0.149,0.188-0.315,0.388-0.182,0.677c0.083,0.167,0.252,0.271,0.442,0.271c0.219,0,0.34-0.127,0.493-0.293l1.161-1.252
		c0.208-0.224,0.476-0.614,0.613-0.885l0.577-1.174l2.134,3.583c0.105,0.175,0.241,0.4,0.531,0.4l0,0
		c0.164,0,0.315-0.086,0.406-0.226c0.153-0.237,0.049-0.45-0.04-0.648L7.585,8.55c-0.068-0.143-0.1-0.444-0.077-0.604L7.742,6.717z
		 M9.545,10.617h2.583v0.767l2.575-1.484l-2.577-1.48v0.771H9.545V10.617z"/>
</g>
</svg>
