<?xml version="1.0" encoding="utf-8"?>
<!-- Generator: Adobe Illustrator 16.0.0, SVG Export Plug-In . SVG Version: 6.00 Build 0)  -->
<!DOCTYPE svg PUBLIC "-//W3C//DTD SVG 1.1//EN" "http://www.w3.org/Graphics/SVG/1.1/DTD/svg11.dtd">
<svg version="1.1" id="Groupe" xmlns="http://www.w3.org/2000/svg" xmlns:xlink="http://www.w3.org/1999/xlink" x="0px" y="0px"
	 width="15.871px" height="15.65px" viewBox="0 0 15.871 15.65" enable-background="new 0 0 15.871 15.65" xml:space="preserve">
<g id="PinColor_1_">
	<path id="vert" display="none" fill="#2ABF00" stroke="#1D7500" stroke-width="0.2" stroke-miterlimit="10" d="M15.078,7.794
		c0,3.365-2.409,6.185-5.658,6.933c-0.545,0.123-2.905,0.123-3.468-0.021c-3.214-0.76-5.6-3.566-5.6-6.915
		c0-3.926,3.299-7.121,7.362-7.121C11.775,0.67,15.078,3.865,15.078,7.794z"/>
	<path id="orange" fill="#FF8500" stroke="#7F4500" stroke-width="0.2" stroke-miterlimit="10" d="M15.078,7.794
		c0,3.365-2.409,6.185-5.658,6.933c-0.545,0.123-2.905,0.123-3.468-0.021c-3.214-0.76-5.6-3.566-5.6-6.915
		c0-3.926,3.299-7.121,7.362-7.121C11.775,0.67,15.078,3.865,15.078,7.794z"/>
	<path id="gris" display="none" fill="#A5A5A5" stroke="#595959" stroke-width="0.2" stroke-miterlimit="10" d="M15.078,7.794
		c0,3.365-2.409,6.185-5.658,6.933c-0.545,0.123-2.905,0.123-3.468-0.021c-3.214-0.76-5.6-3.566-5.6-6.915
		c0-3.926,3.299-7.121,7.362-7.121C11.775,0.67,15.078,3.865,15.078,7.794z"/>
	<path id="bleu" display="none" fill="#0092FF" stroke="#00477C" stroke-width="0.2" stroke-miterlimit="10" d="M15.078,7.794
		c0,3.365-2.409,6.185-5.658,6.933c-0.545,0.123-2.905,0.123-3.468-0.021c-3.214-0.76-5.6-3.566-5.6-6.915
		c0-3.926,3.299-7.121,7.362-7.121C11.775,0.67,15.078,3.865,15.078,7.794z"/>
</g>
<g id="IconsGroup">
	<g id="MinimalGroup" display="none">
		<path id="ElectionGroup" display="inline" fill="#565656" d="M18.189-1.563l-3.047-1.303c-0.084-0.038-0.199-0.013-0.254,0.063
			l-0.873,1.09c-0.041,0.042-0.055,0.118-0.041,0.181c0.016,0.066,0.055,0.112,0.113,0.139l-2.732,1.031
			c-0.229,0.078-0.428,0.24-0.551,0.454L9.898,1.594C9.709,1.913,9.691,2.305,9.859,2.637l0.067,0.129H8.973
			c-0.123,0-0.216,0.098-0.216,0.219v4.126H8.103c-0.118,0-0.21,0.1-0.21,0.215c0,0.118,0.096,0.218,0.212,0.218h7.385
			c0.119,0,0.217-0.1,0.217-0.218c0-0.114-0.098-0.214-0.217-0.214h-0.65v-2.22c0-0.07-0.039-0.146-0.094-0.183
			c-0.064-0.04-0.148-0.047-0.217-0.011c-0.238,0.111-0.418,0.168-0.498,0.195c-0.016,0-0.033,0.01-0.049,0.021l-1.418,0.844
			c-0.226,0.135-0.48,0.211-0.74,0.211c-0.488,0-0.926-0.242-1.204-0.648c-0.224-0.326-0.302-0.72-0.216-1.104
			c0.082-0.382,0.311-0.71,0.636-0.922l0.208-0.131c0.15-0.089,0.287-0.171,0.404-0.247c0.084-0.05,0.117-0.154,0.091-0.25
			c-0.052-0.175-0.14-0.33-0.228-0.448c0.33-0.142,0.779-0.399,1.008-0.665l0,0c0.047,0.03,0.104,0.063,0.166,0.092
			c0.006,0,0.006,0,0.013,0.003l0,0c0.161,0.081,0.362,0.159,0.603,0.205c-0.252,0.315-0.509,0.704-0.607,0.962
			c-0.168,0.081-0.547,0.286-1.42,0.847c-0.231,0.144-0.391,0.378-0.442,0.647c-0.06,0.267-0.008,0.539,0.147,0.771
			c0.197,0.293,0.511,0.454,0.842,0.454c0.177,0,0.355-0.055,0.52-0.146l1.492-0.897c0.23-0.058,1.393-0.405,2.271-1.826
			c0.693-1.117,1.08-2.011,1.24-2.42l0.025,0.013c0.092,0.041,0.197,0.072,0.289,0.072c0.176,0,0.344-0.072,0.463-0.188
			c0.123-0.123,0.195-0.289,0.195-0.469v-1.037C18.314-1.451,18.27-1.533,18.189-1.563z"/>
	</g>
	<g id="FaibleGroup" display="none">
		<path id="FamineGroup" display="inline" fill="#F9F9F9" d="M15.932,6.091l-1.652,0.313l-2.694-1.472l0.979-1.214l2.203,0.73
			L15.932,6.091z M18.465,3.224v0.188l-1.736,0.547L15.014,4.2l-2.205-0.73l-0.52-0.246h0.298c-0.071-0.652-0.166-1.152-0.211-1.805
			l0,0c-0.004-0.017-0.03-0.45-0.032-0.636c-0.033-0.199-0.128-0.275-0.435-0.49c-0.171-0.103-0.296-0.142-0.361-0.142
			c-0.112,0-0.212,0.12-0.237,0.493c0.491,0.082,0.523,0.625,0.523,0.625c0.045,0.387-0.146,0.949-0.582,1.099
			c-0.803,0.266-0.725-1.283-0.27-1.659c0.013-0.448,0.138-0.859,0.565-0.876c0.171,0,0.345,0.073,0.539,0.198
			c0.093,0.059,0.173,0.111,0.237,0.177c-0.006-0.151-0.014-0.302-0.014-0.46c0-0.33,0.049-0.678,0.342-0.934
			c0.147-0.137,0.312-0.213,0.482-0.209c0.43,0.027,0.693,0.395,0.852,0.773c0.178-0.079,0.404-0.114,0.662-0.022
			c0.664,0.226,1.025,1.387,0.75,1.784c-0.658,0.941-2.304-0.804-1.871-1.42c0,0,0.066-0.079,0.18-0.173
			c-0.133-0.337-0.387-0.632-0.575-0.617c-0.073,0-0.164,0.028-0.269,0.121c-0.182,0.166-0.233,0.394-0.233,0.696
			c0,0.214,0.028,0.451,0.028,0.685c0,0.125,0.007,0.234,0.011,0.353c0.032,0.211,0.032,0.369,0.032,0.592
			c0.048,0.648,0.303,1.181,0.379,1.847H18.465z M13.822-0.321l1.254,1.359c-0.225-0.964-1.012-1.501-1.012-1.501L13.822-0.321z
			 M11.24,0.843l-0.223,0.093c0,0-0.109,0.761,0,1.156L11.24,0.843z M10.127,5.425l0.99-0.597l1.031-1.275l-0.32-0.329H9.545
			L9.09,4.135L10.127,5.425z M11.277,5.218L9.525,6.417l0.229,0.289h4.043l-0.01-0.056L11.277,5.218z M7.669,3.224v1.378L8.79,4
			l0.346-0.776H7.669z M15.338,4.493l1.092,1.588l2.035,0.479V4.746L17,4.277L15.338,4.493z M18.465,4.353V3.717l-1.146,0.306
			L18.465,4.353z M8.822,4.446L7.669,4.991v1.716h0.842L9.77,5.68L8.822,4.446z M14.857,6.707h2.641l-1.256-0.304L14.857,6.707z"/>
		<path id="CycloneGroup" display="inline" fill="#FFFFFF" d="M13.105-0.485c-0.058,0-0.111-0.008-0.168-0.008
			c-0.494,0-0.957,0.129-1.359,0.35c0.72-2.456,2.521-2.676,2.521-2.676s-3.986,0.338-3.986,4.986c0.005,0,0.005,0,0.01,0
			c0,0.052-0.005,0.104-0.005,0.164c0,0.491,0.129,0.961,0.351,1.366C8.009,2.969,7.794,1.17,7.794,1.17s0.335,3.985,4.985,3.985
			c0-0.002,0-0.002,0-0.01c0.055,0.003,0.105,0.01,0.164,0.01c0.494,0,0.959-0.127,1.365-0.353
			c-0.727,2.464-2.531,2.677-2.531,2.677s3.99-0.336,3.99-4.986c-0.008,0-0.008,0-0.008,0c0-0.058,0.008-0.112,0.008-0.165
			c0-0.498-0.125-0.961-0.354-1.367c2.459,0.721,2.68,2.529,2.68,2.529s-0.334-3.984-4.988-3.984
			C13.105-0.489,13.105-0.485,13.105-0.485z"/>
		<path id="eruptionGroup" display="inline" fill="#FFFFFF" d="M13.727,0.409c0.596,0.204,1.383,0.439,1.555-0.515
			c0.133-0.75,1.119-0.475,1.541-0.517c0.771-0.092,0.189-1.53-0.771-1.55c-0.975-0.023-1.416,0.408-1.814,1.291
			c-0.174,0.425-0.338,0.743-1.025,0.516c-0.689-0.229-1.199,0.336-0.775,1.034c0.366,0.619-0.006,1.29-0.006,1.29h1.041
			c0,0-0.008-0.374-0.259-0.77C12.917,0.724,13.118,0.202,13.727,0.409z M8.22,6.835c2.675-1.95,3.345-4.639,3.345-4.639h2.744
			c0,0,0.664,2.688,3.34,4.639H8.22z"/>
		<path id="tsunamiGroup" display="inline" fill="#FFFFFF" d="M17.953,5.611c-8.211,0.468-5.912-5.808-3.789-5.268
			c-0.219,0.136-0.355,0.596-0.225,0.902c0.148,0.34,0.633,0.523,0.91,0.455c0.654-0.168,0.686-1.09,0.451-1.584
			c-0.252-0.5-0.904-1.13-2.043-1.13c-2.74,0-4.623,1.401-5.327,3.811v3.549h10.022V5.611z"/>
		<path id="epidemieGroup" display="inline" fill="#FFFFFF" d="M17.223,2.746c0-2.349-1.836-4.254-4.15-4.372
			c1.025,0.093,1.818,0.839,1.818,1.742c0,0.31-0.104,0.596-0.268,0.85c-0.463-0.456-1.088-0.735-1.788-0.735
			c-0.692,0-1.321,0.28-1.774,0.735c-0.16-0.255-0.265-0.54-0.265-0.85c0-0.901,0.788-1.646,1.817-1.741
			c-2.312,0.121-4.148,2.027-4.148,4.373c0,0.704,0.174,1.374,0.473,1.965C8.523,3.787,8.773,2.742,9.545,2.302
			c0.27-0.154,0.566-0.213,0.871-0.199c-0.061,0.208-0.096,0.424-0.096,0.65c0,1.166,0.793,2.138,1.873,2.428
			c-0.022,0.021-0.043,0.043-0.055,0.073v0.002c-0.035,0.077-0.078,0.146-0.133,0.203c-0.117,0.151-0.248,0.286-0.421,0.381
			c-0.771,0.448-1.804,0.139-2.401-0.688c0.784,1.19,2.125,1.979,3.657,1.979c1.517,0,2.847-0.77,3.644-1.942
			c-0.611,0.801-1.619,1.097-2.383,0.656c-0.271-0.158-0.467-0.392-0.6-0.665c1.066-0.292,1.855-1.265,1.855-2.427
			c0-0.225-0.031-0.437-0.082-0.647c0.305-0.017,0.604,0.042,0.871,0.2c0.752,0.433,1.01,1.423,0.643,2.325
			C17.064,4.06,17.223,3.42,17.223,2.746z M13.305,4.432c-0.02-0.366,0.061-0.745,0.244-1.108l-0.291-0.168
			c-0.105,0.11-0.256,0.177-0.417,0.177c-0.164,0-0.312-0.066-0.421-0.175l-0.284,0.16c0.187,0.362,0.261,0.748,0.241,1.116
			c-0.743-0.206-1.291-0.875-1.291-1.682c0-0.153,0.027-0.299,0.063-0.437c0.324,0.16,0.623,0.419,0.844,0.754l0.296-0.172
			c-0.015-0.05-0.033-0.099-0.033-0.15c0-0.273,0.187-0.494,0.44-0.558V1.85c-0.406-0.028-0.769-0.15-1.075-0.352
			c0.308-0.311,0.743-0.5,1.214-0.5c0.473,0,0.916,0.198,1.229,0.507c-0.307,0.201-0.674,0.323-1.076,0.352v0.337
			c0.248,0.066,0.436,0.282,0.436,0.557c0,0.053-0.016,0.103-0.027,0.147l0.297,0.168c0.219-0.336,0.518-0.59,0.838-0.754
			c0.033,0.142,0.066,0.284,0.066,0.435C14.592,3.559,14.045,4.224,13.305,4.432z"/>
		<path id="earthquakeGroup" display="inline" fill="#FFFFFF" d="M15.859,2.641c-0.139,0-0.271,0.08-0.336,0.208l-0.549,1.023
			l-0.67-1.977c-0.053-0.147-0.193-0.249-0.35-0.256c-0.166-0.004-0.303,0.09-0.359,0.238l-0.464,1.091l-0.729-4.375
			c-0.033-0.18-0.209-0.318-0.381-0.308c-0.193,0.007-0.348,0.128-0.373,0.313l-0.644,5.07l-0.524-2.72
			c-0.028-0.159-0.16-0.282-0.324-0.303C9.999,0.626,9.84,0.709,9.76,0.852l-0.854,1.79H7.585v0.761h1.569
			c0.145,0,0.279-0.079,0.344-0.215L9.959,2.23l0.743,3.865c0.034,0.173,0.194,0.302,0.368,0.302c0.007,0,0.011,0,0.014,0
			c0.188-0.003,0.344-0.141,0.365-0.328l0.635-4.986l0.533,3.279c0.027,0.17,0.16,0.295,0.33,0.318
			c0.171,0.014,0.328-0.077,0.393-0.229l0.57-1.357l0.637,1.866c0.051,0.14,0.176,0.236,0.328,0.25
			c0.154,0.01,0.295-0.066,0.365-0.2l0.854-1.611h1.627V2.64L15.859,2.641L15.859,2.641L15.859,2.641z"/>
	</g>
	<g id="ModereGroup">
		<path id="returnedGroup" display="none" fill="#FFFFFF" d="M13.061-1.533c0.08,0.51-0.261,0.988-0.771,1.073
			c-0.51,0.086-0.994-0.261-1.072-0.771c-0.083-0.511,0.258-0.99,0.77-1.073C12.496-2.388,12.975-2.043,13.061-1.533z M12.77,2.169
			l0.826,1.324c0.117,0.187,0.359,0.243,0.553,0.134c0.189-0.114,0.25-0.348,0.145-0.546l-0.205-0.377
			c-0.186-0.326-0.361-0.652-0.539-0.979l-0.377-0.669c-0.04-0.079-0.078-0.162-0.125-0.257c-0.227-0.474-0.58-1.214-1.357-1.146
			c-0.66,0.058-1.336,0.373-2,0.937C8.9,1.216,8.347,2.111,8.329,2.155C8.307,2.193,8.278,2.229,8.262,2.268L8.255,2.272l0,0
			c-0.071,0.143-0.108,0.268-0.02,0.433C8.309,2.825,8.447,2.91,8.593,2.91c0.177,0,0.265-0.084,0.351-0.21l0,0l0,0
			c0.023-0.038,0.05-0.079,0.074-0.118c0.008-0.007,0.469-0.75,1.18-1.356c0.223-0.175,0.435-0.293,0.632-0.357l-0.162,1.92
			c-0.017,0.188-0.078,0.521-0.127,0.706l-0.356,1.253c-0.043,0.159-0.182,0.42-0.291,0.547L8.934,6.49
			C8.809,6.647,8.67,6.82,8.779,7.058C8.852,7.2,8.993,7.285,9.152,7.285c0.185,0,0.287-0.109,0.414-0.247l0.979-1.054
			c0.175-0.188,0.4-0.518,0.51-0.744l0.488-0.988l1.797,3.016c0.084,0.15,0.203,0.338,0.445,0.338l0,0
			c0.139,0,0.264-0.071,0.346-0.189c0.125-0.197,0.037-0.382-0.033-0.54l-1.459-3.159c-0.052-0.122-0.084-0.376-0.066-0.511
			L12.77,2.169z M18.814,2.845c0-1.319-1.07-2.387-2.389-2.387H15.41V1.66h1.018c0.648,0,1.184,0.528,1.184,1.185
			c0,0.646-0.523,1.183-1.184,1.183h-0.211V3.38l-2.162,1.246l2.162,1.25V5.231h0.236l0,0C17.756,5.212,18.814,4.153,18.814,2.845z"
			/>
	</g>
	<g id="ImportantGroup" display="none">
		<path id="enlevementGroup" display="inline" fill="#FFFFFF" d="M17.52-3.152c-0.324,0-0.58,0.261-0.58,0.579v2.357
			c0.145,0.029,0.275,0.085,0.389,0.193c0.303,0.301,0.307,0.796,0.014,1.099l-1.098,1.13l-0.152-0.148l1.098-1.122
			c0.215-0.229,0.213-0.59-0.014-0.81c-0.068-0.069-0.148-0.12-0.242-0.143c-0.096-0.026-0.193-0.026-0.283-0.007
			C16.539,0,16.445,0.057,16.375,0.136c-0.65,0.669-1.303,1.337-1.955,2.009c-0.168,0.162-0.465,0.538-0.459,0.928
			c0.006,0.358,0,0.728,0,1.09c-0.084-0.073-0.184-0.12-0.301-0.144c-0.34-0.058-0.639,0.146-0.754,0.445h-0.168
			c0-0.079,0-0.166,0-0.247c0.006-0.372-0.008-0.767,0-1.146c0.014-0.382-0.291-0.764-0.45-0.924
			c-0.653-0.674-1.3-1.342-1.954-2.014c-0.073-0.076-0.171-0.132-0.275-0.155C9.964-0.047,9.865-0.042,9.77-0.016
			C9.682,0.007,9.592,0.057,9.527,0.127C9.303,0.346,9.298,0.706,9.514,0.936l1.1,1.122l-0.147,0.148l-1.098-1.13
			c-0.296-0.303-0.291-0.8,0.014-1.099C9.493-0.127,9.623-0.184,9.76-0.216v-2.357c0-0.318-0.261-0.579-0.578-0.579
			c-0.324,0-0.58,0.261-0.58,0.579v4.079c0,0.135,0.053,0.258,0.131,0.355l1.973,2.598h-0.171c-0.384,0-0.694,0.312-0.694,0.7
			c0,0.258,0.141,0.469,0.352,0.59C9.984,5.873,9.84,6.088,9.84,6.334c0,0.389,0.311,0.699,0.694,0.699h0.211V7.42h1.937
			c0.098,0.102,0.217,0.175,0.359,0.204c0.044,0.009,0.078,0.014,0.119,0.014c0.346,0,0.635-0.244,0.691-0.581V7.035h0.123
			c0,0.127,0,0.256,0.016,0.389h1.963V7.035h0.211c0.379,0,0.693-0.311,0.693-0.696c0-0.25-0.141-0.47-0.354-0.591
			c0.211-0.121,0.354-0.333,0.354-0.59c0-0.386-0.314-0.698-0.693-0.698h-0.168l1.967-2.597C18.047,1.76,18.1,1.642,18.1,1.507
			v-4.075C18.1-2.891,17.836-3.152,17.52-3.152z M10.184,5.158c0-0.19,0.158-0.347,0.352-0.347h2.285l-0.123,0.699h-2.163
			C10.342,5.503,10.184,5.35,10.184,5.158z M10.184,6.34c0-0.193,0.158-0.352,0.352-0.352h2.078L12.496,6.69h-1.962
			C10.342,6.69,10.184,6.535,10.184,6.34z M13.506,6.996c-0.033,0.188-0.234,0.313-0.402,0.286
			c-0.095-0.014-0.172-0.065-0.226-0.141c-0.056-0.078-0.071-0.168-0.058-0.265l0.383-2.232c0.031-0.169,0.178-0.289,0.348-0.289
			c0.021,0,0.041,0,0.059,0.003c0.193,0.039,0.316,0.214,0.281,0.404L13.506,6.996z M16.518,6.34c0,0.196-0.148,0.351-0.348,0.351
			h-2.264l0.119-0.7h2.145C16.359,5.991,16.518,6.151,16.518,6.34z M16.518,5.158c0,0.19-0.148,0.351-0.348,0.351h-2.057
			l0.115-0.679c0-0.002,0-0.009,0-0.013h1.939C16.359,4.813,16.518,4.972,16.518,5.158z"/>
	</g>
	<g id="EleveGroup" display="none">
		<path id="attackGroup" display="inline" fill="#FFFFFF" d="M15.643,3.127l2.672-1.718l-2.588-0.272l0.705-2.999l-1.83,1.897
			l-0.514-2.147L13.32-0.115l-2.096-2.698l0.657,3.384l-1.864-0.415c0,0,0.567,1.083,0.883,1.737L7.911,1.682l2.708,1.584
			L9.844,4.06l1.258-0.225L10.21,6.984l2.646-2.217l0.693,1.717l0.703-1.367l2.277,2.354l-1.145-3.158l2.506,0.258L15.643,3.127z"/>
	</g>
	<g id="ExtremeGroup" display="none">
		<path id="rebelionGroup" display="inline" fill="#FFFFFF" d="M14.969-0.865c0,1.089-0.885,1.972-1.967,1.972
			c-1.094,0-1.979-0.883-1.979-1.972c0-1.093,0.885-1.971,1.979-1.971C14.088-2.836,14.969-1.958,14.969-0.865z M9.709,7.496h1.199
			h0.068l0.045-0.093l0.438-0.428l-0.413-0.089l-0.634-0.134L9.709,7.496z M17.955-0.5l-0.42,0.424l0.025,0.029l-0.346,0.341
			c0.049,0.046,0.092,0.088,0.133,0.138l0.344-0.345l0.072,0.062l0.414-0.424L17.955-0.5z M15.234,1.686l-0.186,0.186l0.02,0.05
			l0.045,0.098l-2.873,2.88l0.307,0.072c0.286,0.06,0.53,0.224,0.691,0.474c0.023,0.033,0.029,0.077,0.043,0.111l0.008-0.009
			l0.213,0.139l0.074-0.017l0.836,0.609l0.564-0.769l-1.25-0.979l0.033-0.082h0.213l1.221-1.438l0.141-1.287L15.234,1.686z
			 M16.57,0.413c-0.375-0.04-0.738,0.24-0.775,0.625l-0.055,0.42l0,0l-0.025,0.306L15.576,3.05l-0.016,0.121L15.49,3.26
			l-1.098,1.294l0.822,0.642l0.303,0.233l-0.18,0.236l0.049,0.083c0.109,0.247,0.361,0.397,0.631,0.397c0.039,0,0.08,0,0.119-0.009
			c0.309-0.05,0.545-0.304,0.578-0.616l0.477-4.339C17.234,0.8,16.951,0.455,16.57,0.413z M15.135,5.956l-0.4,0.553l-0.23,0.313
			l-0.32-0.23l-0.693-0.5l-0.059,0.013l-0.029-0.013c0,0.06,0,0.114-0.018,0.173c-0.01,0.058-0.029,0.113-0.055,0.166
			c-0.039,0.103-0.1,0.185-0.163,0.273l0.051,0.11c0.046,0.112,0.114,0.255,0.19,0.384l0.197,0.299h1.482L15.135,5.956z
			 M12.318,7.13c-0.014,0-0.037-0.003-0.055-0.003c0,0.028-0.008,0.046-0.008,0.046l0.168,0.323h0.398l0.26-0.093
			c-0.087-0.135-0.159-0.282-0.227-0.434C12.689,7.064,12.516,7.13,12.318,7.13z M12.896,5.64c-0.027-0.043-0.076-0.08-0.111-0.111
			c-0.025-0.027-0.04-0.057-0.075-0.072c-0.067-0.05-0.158-0.092-0.249-0.111l-0.302-0.064l-0.704-0.147l0,0l-0.624-0.135
			l-0.24-0.046l-0.394-0.09l-0.028-0.004l0.067-0.068l0.271-0.268l0.286-0.285c0.023,0.199,0.034,0.352,0.034,0.354l0.093,0.021
			l0.869,0.187l0.179-0.18L14.66,1.92l-0.064-0.151l0.021-0.017c-0.389-0.115-0.848-0.19-1.426-0.19h-0.189h-0.189
			c-0.408,0-0.816,0.033-1.215,0.118c-0.697,0.157-1.123,0.835-1.59,1.296C9.52,3.457,9.046,3.955,8.576,4.449
			C8.47,4.56,8.367,4.672,8.255,4.777c-0.179,0.188-0.246,0.454-0.179,0.7c0.074,0.246,0.277,0.432,0.533,0.49l0.93,0.2L9.936,6.25
			l2.235,0.477c0.05,0.007,0.097,0.016,0.146,0.016c0.326,0,0.621-0.222,0.691-0.561c0.027-0.133,0.008-0.249-0.033-0.362
			l-0.039-0.096C12.919,5.699,12.906,5.676,12.896,5.64z M11.909,7.365l-0.067-0.129l0.037-0.141l0.002-0.027l-0.109-0.033
			l-0.393,0.461h0.6L11.909,7.365z"/>
	</g>
	<path id="displacedGroup" fill="#FFFFFF" d="M7.82,2.313C7.917,2.915,7.509,3.479,6.911,3.58c-0.602,0.104-1.173-0.307-1.269-0.9
		C5.548,2.072,5.948,1.501,6.554,1.406C7.155,1.301,7.721,1.712,7.82,2.313z M7.478,6.691l0.977,1.561
		c0.139,0.222,0.425,0.292,0.652,0.16c0.223-0.134,0.295-0.413,0.17-0.647l-0.24-0.443C8.814,6.934,8.609,6.547,8.391,6.167
		L7.955,5.373C7.907,5.281,7.861,5.183,7.807,5.07C7.542,4.511,7.124,3.637,6.204,3.715c-0.786,0.07-1.586,0.45-2.365,1.113
		C2.91,5.558,2.256,6.618,2.238,6.672c-0.031,0.042-0.066,0.09-0.085,0.133c0,0,0,0-0.007,0.004l0,0
		c-0.083,0.167-0.128,0.315-0.024,0.51C2.21,7.462,2.372,7.56,2.545,7.56c0.209,0,0.313-0.102,0.417-0.249l0,0l0,0
		c0.031-0.043,0.06-0.088,0.087-0.136c0.004-0.008,0.549-0.89,1.397-1.603C4.701,5.368,4.952,5.23,5.184,5.156L4.996,7.419
		C4.977,7.64,4.905,8.033,4.846,8.251l-0.423,1.48c-0.05,0.184-0.213,0.496-0.335,0.646L2.949,11.79
		c-0.148,0.188-0.313,0.387-0.18,0.674c0.083,0.166,0.25,0.268,0.439,0.268c0.217,0,0.338-0.127,0.49-0.293l1.154-1.244
		c0.206-0.221,0.473-0.611,0.609-0.881l0.573-1.164l2.122,3.563c0.104,0.172,0.239,0.396,0.528,0.396l0,0
		c0.164,0,0.313-0.086,0.404-0.225c0.152-0.236,0.048-0.449-0.04-0.645L7.323,8.514c-0.068-0.143-0.1-0.442-0.078-0.602L7.478,6.691
		z M9.271,10.567h2.566v0.764l2.559-1.475l-2.56-1.473v0.768H9.271V10.567z"/>
</g>
</svg>
