<?xml version="1.0" encoding="utf-8"?>
<!-- Generator: Adobe Illustrator 16.0.0, SVG Export Plug-In . SVG Version: 6.00 Build 0)  -->
<!DOCTYPE svg PUBLIC "-//W3C//DTD SVG 1.1//EN" "http://www.w3.org/Graphics/SVG/1.1/DTD/svg11.dtd">
<svg version="1.1" id="Layer_1" xmlns="http://www.w3.org/2000/svg" xmlns:xlink="http://www.w3.org/1999/xlink" x="0px" y="0px"
	 width="33.35px" height="40px" viewBox="0 0 33.35 40" enable-background="new 0 0 33.35 40" xml:space="preserve">
<g id="PinColor">
	<path id="PinOmbre" opacity="0.3" enable-background="new    " d="M28.552,30.267c0,1.765-3.873,3.245-9.086,3.638
		c-0.879,0.064-2.74,4.203-2.74,4.203s-1.925-4.141-2.833-4.211c-5.162-0.4-8.992-1.875-8.992-3.63c0-2.063,5.295-3.74,11.825-3.74
		C23.257,26.526,28.552,28.199,28.552,30.267z"/>
	<path id="vert" display="none" fill="#2ABF00" stroke="#1D7500" stroke-width="0.2" stroke-miterlimit="10" d="M28.552,12.913
		c0,5.403-3.873,9.934-9.086,11.128c-0.879,0.199-2.74,12.867-2.74,12.867s-1.925-12.668-2.833-12.89
		c-5.162-1.228-8.992-5.736-8.992-11.11c0-6.317,5.295-11.437,11.825-11.437C23.257,1.472,28.552,6.596,28.552,12.913z"/>
	<path id="orange" display="none" fill="#FF8500" stroke="#7F4500" stroke-width="0.2" stroke-miterlimit="10" d="M28.552,12.913
		c0,5.403-3.873,9.934-9.086,11.128c-0.879,0.199-2.74,12.867-2.74,12.867s-1.925-12.668-2.833-12.89
		c-5.162-1.228-8.992-5.736-8.992-11.11c0-6.317,5.295-11.437,11.825-11.437C23.257,1.472,28.552,6.596,28.552,12.913z"/>
	<path id="gris" display="none" fill="#A5A5A5" stroke="#595959" stroke-width="0.2" stroke-miterlimit="10" d="M28.552,12.913
		c0,5.403-3.873,9.934-9.086,11.128c-0.879,0.199-2.74,12.867-2.74,12.867s-1.925-12.668-2.833-12.89
		c-5.162-1.228-8.992-5.736-8.992-11.11c0-6.317,5.295-11.437,11.825-11.437C23.257,1.472,28.552,6.596,28.552,12.913z"/>
	<path id="bleu" fill="#0092FF" stroke="#00477C" stroke-width="0.2" stroke-miterlimit="10" d="M28.552,12.913
		c0,5.403-3.873,9.934-9.086,11.128c-0.879,0.199-2.74,12.867-2.74,12.867s-1.925-12.668-2.833-12.89
		c-5.162-1.228-8.992-5.736-8.992-11.11c0-6.317,5.295-11.437,11.825-11.437C23.257,1.472,28.552,6.596,28.552,12.913z"/>
</g>
<g id="Icons">
	<g id="Minimal">
		<path id="Election" display="none" fill="#565656" d="M30.954-3.959L25.966-6.1c-0.148-0.063-0.32-0.02-0.418,0.106L24.116-4.21
			c-0.063,0.08-0.086,0.192-0.066,0.298c0.023,0.1,0.088,0.183,0.176,0.23l-4.471,1.678c-0.379,0.14-0.699,0.405-0.906,0.75
			l-1.48,2.468c-0.313,0.525-0.34,1.166-0.064,1.713l0.105,0.21h-1.561c-0.198,0-0.358,0.159-0.358,0.356v6.771h-1.068
			c-0.198,0-0.354,0.159-0.354,0.354c0,0.198,0.156,0.356,0.354,0.356h12.121c0.193,0,0.348-0.159,0.348-0.356
			c0-0.195-0.154-0.354-0.348-0.354H25.47V6.622c0-0.121-0.066-0.238-0.166-0.3c-0.104-0.067-0.232-0.075-0.342-0.024
			c-0.393,0.185-0.682,0.278-0.818,0.318c-0.031,0.007-0.059,0.019-0.082,0.039L21.74,8.043c-0.369,0.223-0.791,0.341-1.219,0.341
			c-0.791,0-1.527-0.392-1.977-1.059c-0.359-0.535-0.482-1.181-0.352-1.808c0.135-0.628,0.51-1.167,1.045-1.512l0.338-0.214
			c0.248-0.15,0.467-0.288,0.666-0.41c0.137-0.085,0.199-0.251,0.152-0.406c-0.088-0.286-0.236-0.541-0.373-0.736
			c0.543-0.237,1.279-0.662,1.648-1.093c0,0,0.006,0.003,0.008,0.003c0.076,0.047,0.166,0.097,0.271,0.147
			c0.006,0.002,0.008,0.005,0.02,0.008l0,0c0.264,0.129,0.602,0.256,0.986,0.333c-0.414,0.515-0.836,1.155-0.988,1.581
			c-0.295,0.13-0.908,0.478-2.34,1.389c-0.381,0.243-0.641,0.618-0.729,1.058c-0.094,0.441-0.012,0.889,0.242,1.264
			c0.318,0.479,0.842,0.743,1.381,0.743c0.291,0,0.588-0.078,0.852-0.236l2.449-1.472c0.381-0.092,2.287-0.663,3.73-2.997
			C28.685,1.139,29.32-0.334,29.581-1l0.045,0.022c0.146,0.074,0.311,0.111,0.477,0.111c0.27,0,0.543-0.109,0.742-0.299
			c0.213-0.201,0.326-0.475,0.326-0.768v-1.697C31.167-3.774,31.085-3.905,30.954-3.959z"/>
	</g>
	<g id="Faible" display="none">
		<path id="Famine" display="inline" fill="#F9F9F9" d="M27.743,9.162l-2.832,0.535l-4.625-2.515l1.682-2.097l3.783,1.255
			L27.743,9.162z M32.097,4.245v0.313l-2.98,0.947l-2.945,0.418l-3.783-1.259l-0.891-0.419h0.51
			c-0.121-1.125-0.285-1.978-0.361-3.093H21.64c-0.002-0.034-0.041-0.781-0.051-1.1c-0.059-0.335-0.219-0.47-0.744-0.831
			c-0.287-0.185-0.502-0.253-0.623-0.25c-0.193,0-0.365,0.209-0.404,0.837c0.842,0.143,0.9,1.074,0.9,1.074
			c0.076,0.663-0.252,1.63-1,1.879c-1.383,0.466-1.244-2.201-0.463-2.843c0.021-0.767,0.236-1.473,0.967-1.5
			c0.289,0.001,0.586,0.12,0.926,0.338c0.164,0.098,0.295,0.198,0.412,0.299c-0.014-0.253-0.029-0.512-0.029-0.779
			c-0.002-0.561,0.084-1.171,0.584-1.604c0.256-0.234,0.543-0.354,0.826-0.352c0.742,0.036,1.199,0.674,1.467,1.325
			c0.313-0.135,0.699-0.201,1.146-0.048c1.139,0.396,1.752,2.38,1.275,3.073c-1.121,1.611-3.945-1.39-3.199-2.436
			c0,0,0.109-0.143,0.303-0.3c-0.219-0.578-0.66-1.095-0.99-1.059c-0.127,0.002-0.271,0.046-0.457,0.211
			c-0.314,0.277-0.396,0.671-0.396,1.188c0,0.364,0.043,0.768,0.043,1.173c0,0.212,0.016,0.397,0.021,0.602
			c0.051,0.362,0.055,0.639,0.051,1.021c0.078,1.111,0.527,2.025,0.646,3.172h9.248v0.003H32.097z M24.138-1.842l2.141,2.332
			c-0.383-1.653-1.74-2.575-1.74-2.575L24.138-1.842z M19.702,0.16l-0.385,0.157c0,0-0.188,1.304,0,1.984L19.702,0.16z
			 M17.784,8.022L19.486,7l1.773-2.193l-0.555-0.562h-3.917l-0.778,1.552L17.784,8.022z M19.769,7.671l-3.014,2.051l0.401,0.497
			h6.937l-0.023-0.103L19.769,7.671z M13.566,4.245V6.61l1.93-1.036l0.585-1.331L13.566,4.245L13.566,4.245z M26.73,6.428
			l1.871,2.712l3.496,0.821V6.858l-2.516-0.81L26.73,6.428z M32.097,6.182V5.087l-1.961,0.531L32.097,6.182z M15.547,6.333
			l-1.98,0.943v2.944h1.449l2.156-1.766L15.547,6.333z M25.913,10.22h4.527l-2.166-0.523L25.913,10.22z"/>
		<path id="Cyclone" display="inline" fill="#FFFFFF" d="M22.904-2.122c-0.094-0.003-0.189-0.016-0.285-0.016
			c-0.852,0-1.648,0.22-2.342,0.603c1.24-4.227,4.336-4.594,4.336-4.594s-6.84,0.571-6.84,8.55c0.006,0,0.01,0,0.014,0
			c-0.004,0.097-0.014,0.191-0.014,0.288c0,0.845,0.221,1.645,0.604,2.341C14.149,3.81,13.78,0.715,13.78,0.715
			s0.57,6.842,8.555,6.842c0-0.007,0-0.009,0-0.016c0.092,0.005,0.188,0.016,0.283,0.016c0.852,0,1.648-0.222,2.344-0.606
			c-1.242,4.228-4.34,4.597-4.34,4.597s6.844-0.572,6.844-8.553c-0.008,0-0.012,0-0.016,0c0.004-0.095,0.016-0.188,0.016-0.285
			c0-0.85-0.223-1.648-0.607-2.34c4.229,1.239,4.596,4.335,4.596,4.335s-0.566-6.841-8.549-6.841
			C22.904-2.13,22.904-2.125,22.904-2.122z"/>
		<path id="eruption" display="inline" fill="#FFFFFF" d="M23.968-0.587c1.016,0.347,2.369,0.759,2.652-0.886
			c0.232-1.278,1.938-0.804,2.66-0.885c1.324-0.153,0.326-2.625-1.328-2.66c-1.672-0.038-2.436,0.697-3.1,2.216
			c-0.322,0.73-0.59,1.281-1.775,0.888c-1.18-0.395-2.049,0.576-1.33,1.774c0.639,1.058-0.008,2.214-0.008,2.214h1.783
			c0,0-0.012-0.656-0.441-1.329C22.579-0.041,22.923-0.947,23.968-0.587z M14.52,10.438c4.586-3.34,5.733-7.962,5.733-7.962h4.713
			c0,0,1.146,4.62,5.73,7.962H14.52z"/>
		<path id="tsunami" display="inline" fill="#FFFFFF" d="M31.212,8.339c-14.078,0.798-10.145-9.97-6.494-9.04
			c-0.377,0.229-0.617,1.021-0.385,1.554c0.254,0.571,1.076,0.898,1.551,0.779c1.133-0.292,1.186-1.884,0.775-2.72
			c-0.424-0.869-1.543-1.942-3.494-1.942c-4.717,0-7.931,2.408-9.143,6.546v6.086h17.19V8.339L31.212,8.339z"/>
		<path id="epidemie" display="inline" fill="#FFFFFF" d="M29.96,3.424c0-4.025-3.152-7.3-7.123-7.504
			c1.754,0.168,3.119,1.439,3.119,2.99c0,0.532-0.176,1.023-0.459,1.456c-0.783-0.781-1.859-1.262-3.053-1.262
			c-1.188,0-2.266,0.481-3.047,1.259c-0.281-0.433-0.459-0.924-0.459-1.457c0-1.547,1.365-2.821,3.117-2.989
			c-3.969,0.206-7.124,3.482-7.124,7.507c0,1.212,0.294,2.357,0.804,3.374c-0.698-1.59-0.274-3.376,1.05-4.142
			c0.461-0.265,0.979-0.361,1.491-0.331c-0.094,0.354-0.162,0.722-0.162,1.108c0,1.999,1.369,3.667,3.209,4.164
			c-0.025,0.044-0.055,0.084-0.08,0.126c0,0.004,0,0.004,0,0.01c-0.063,0.136-0.139,0.248-0.23,0.343
			c-0.197,0.259-0.428,0.49-0.721,0.659c-1.33,0.769-3.102,0.235-4.124-1.181c1.346,2.042,3.651,3.393,6.274,3.393
			c2.602,0,4.893-1.322,6.244-3.331c-1.031,1.371-2.77,1.875-4.08,1.123c-0.463-0.272-0.805-0.676-1.037-1.145
			c1.844-0.497,3.201-2.168,3.201-4.163c0-0.386-0.063-0.755-0.16-1.108c0.521-0.034,1.035,0.061,1.5,0.33
			c1.287,0.743,1.727,2.448,1.109,4.003C29.695,5.674,29.96,4.583,29.96,3.424z M23.245,6.317c-0.031-0.626,0.102-1.283,0.414-1.904
			l-0.502-0.288c-0.178,0.185-0.43,0.299-0.711,0.299c-0.275,0-0.527-0.114-0.709-0.299l-0.492,0.282
			c0.314,0.626,0.447,1.287,0.412,1.913c-1.273-0.348-2.217-1.507-2.217-2.887c0-0.264,0.043-0.513,0.107-0.756
			c0.553,0.28,1.059,0.717,1.443,1.297l0.502-0.293c-0.021-0.086-0.055-0.167-0.055-0.259c0-0.465,0.322-0.84,0.754-0.953V1.898
			c-0.697-0.045-1.33-0.261-1.854-0.604c0.543-0.536,1.283-0.864,2.104-0.864s1.564,0.331,2.109,0.866
			c-0.527,0.342-1.158,0.556-1.855,0.601v0.573c0.43,0.113,0.752,0.488,0.752,0.953c0,0.092-0.027,0.172-0.049,0.259l0.506,0.296
			c0.387-0.579,0.889-1.014,1.439-1.294c0.061,0.238,0.104,0.488,0.104,0.747C25.45,4.811,24.515,5.964,23.245,6.317z"/>
		<path id="earthquake" display="inline" fill="#FFFFFF" d="M27.628,3.241c-0.242,0-0.463,0.133-0.576,0.347l-0.939,1.769
			l-1.16-3.39c-0.088-0.257-0.324-0.429-0.594-0.443c-0.279-0.006-0.52,0.15-0.627,0.399l-0.793,1.884l-1.25-7.505
			c-0.061-0.313-0.355-0.552-0.658-0.536c-0.32,0.006-0.588,0.22-0.629,0.539l-1.105,8.709L18.398,0.34
			c-0.051-0.275-0.277-0.487-0.555-0.524c-0.277-0.039-0.551,0.112-0.674,0.364l-1.47,3.06h-2.278v1.303h2.69
			c0.25,0,0.48-0.146,0.59-0.368l0.787-1.644l1.275,6.629c0.061,0.308,0.328,0.53,0.641,0.53c0.006,0,0.014,0,0.018,0
			c0.318-0.009,0.588-0.25,0.631-0.565l1.088-8.557l0.912,5.633c0.055,0.285,0.285,0.5,0.572,0.533
			c0.289,0.026,0.563-0.13,0.676-0.397l0.977-2.326l1.092,3.192c0.082,0.248,0.305,0.421,0.563,0.443
			c0.26,0.013,0.508-0.116,0.631-0.344l1.459-2.757h2.801V3.243h-3.193V3.241z"/>
	</g>
	<g id="Modéré" display="none">
		<path id="returned" display="inline" fill="#FFFFFF" d="M22.132-3.559c0.117,0.724-0.373,1.403-1.094,1.523
			c-0.721,0.119-1.402-0.372-1.521-1.093c-0.117-0.724,0.369-1.405,1.094-1.524C21.327-4.77,22.017-4.283,22.132-3.559z
			 M21.718,1.696l1.176,1.875c0.162,0.262,0.512,0.348,0.781,0.188c0.266-0.159,0.357-0.502,0.209-0.775l-0.297-0.539
			c-0.26-0.459-0.51-0.924-0.766-1.385l-0.525-0.949c-0.061-0.106-0.117-0.231-0.182-0.362c-0.322-0.676-0.828-1.72-1.926-1.623
			c-0.945,0.08-1.9,0.528-2.842,1.329c-1.114,0.88-1.894,2.156-1.927,2.209c-0.035,0.06-0.068,0.116-0.099,0.173
			c-0.002,0.001-0.005,0.001-0.005,0.003l0,0c-0.104,0.199-0.155,0.379-0.024,0.607c0.103,0.182,0.293,0.294,0.502,0.294
			c0.251,0,0.379-0.119,0.501-0.297l0,0c0.002-0.002,0.002-0.002,0.002-0.002c0.034-0.056,0.07-0.113,0.107-0.173
			c0.007-0.011,0.662-1.06,1.673-1.922c0.313-0.243,0.605-0.414,0.889-0.506l-0.229,2.729c-0.021,0.271-0.105,0.736-0.182,0.998
			l-0.504,1.778c-0.068,0.224-0.258,0.597-0.408,0.777l-1.37,1.699c-0.174,0.218-0.37,0.461-0.207,0.8
			c0.096,0.198,0.297,0.327,0.519,0.327c0.264,0,0.405-0.153,0.589-0.348l1.387-1.497c0.25-0.268,0.57-0.731,0.729-1.061
			l0.688-1.399l2.547,4.278c0.127,0.211,0.287,0.473,0.629,0.473l0,0c0.199,0,0.379-0.101,0.486-0.269
			c0.184-0.281,0.061-0.536-0.045-0.767l-2.059-4.473c-0.082-0.173-0.125-0.531-0.094-0.724L21.718,1.696z M30.292,2.649
			c0-1.868-1.521-3.384-3.385-3.384H25.47v1.708h1.436c0.924,0,1.674,0.75,1.674,1.675c0,0.924-0.75,1.675-1.674,1.675h-0.297V3.407
			l-3.066,1.772l3.066,1.771V6.032h0.336V6.03C28.79,6.009,30.292,4.504,30.292,2.649z"/>
	</g>
	<g id="Important" display="none">
		<path id="enlevement" display="inline" fill="#FFFFFF" d="M28.714-5.561c-0.463,0-0.848,0.382-0.848,0.849v3.451
			c0.205,0.045,0.4,0.131,0.559,0.286c0.445,0.44,0.459,1.163,0.021,1.615l-1.604,1.651l-0.227-0.215l1.613-1.646
			c0.324-0.334,0.314-0.864-0.016-1.191c-0.105-0.097-0.227-0.167-0.355-0.201C27.714-1,27.573-1.003,27.435-0.975
			c-0.156,0.042-0.295,0.119-0.404,0.235c-0.955,0.978-1.91,1.956-2.863,2.935c-0.238,0.245-0.676,0.806-0.662,1.364
			c0.01,0.526-0.008,1.067,0.002,1.595C23.38,5.054,23.23,4.98,23.062,4.948c-0.494-0.08-0.938,0.213-1.107,0.651h-0.248
			c0-0.12,0-0.24,0.004-0.361c0.01-0.552-0.012-1.124,0.004-1.677C21.726,3,21.288,2.438,21.05,2.193
			c-0.953-0.976-1.906-1.954-2.863-2.934c-0.109-0.115-0.246-0.195-0.404-0.234C17.644-1.003,17.497-1,17.359-0.961
			c-0.131,0.037-0.252,0.106-0.355,0.204c-0.328,0.324-0.335,0.854-0.016,1.189l1.611,1.644l-0.223,0.216l-1.605-1.651
			c-0.44-0.45-0.429-1.174,0.021-1.612c0.157-0.152,0.354-0.24,0.558-0.286v-3.451c0-0.467-0.383-0.849-0.847-0.849
			c-0.471,0-0.848,0.381-0.848,0.849v5.977c0,0.195,0.079,0.375,0.195,0.52L18.738,5.6h-0.256c-0.559,0-1.02,0.457-1.02,1.022
			c0,0.375,0.211,0.688,0.512,0.864c-0.301,0.178-0.512,0.493-0.512,0.864c0,0.565,0.457,1.024,1.02,1.024h0.311v0.569h2.836
			c0.148,0.147,0.32,0.254,0.529,0.29c0.059,0.01,0.111,0.014,0.168,0.014c0.498,0,0.924-0.354,1.006-0.846l0.004-0.026h0.184
			c0.002,0.188,0,0.373,0.02,0.569h2.887V9.375h0.313c0.559,0,1.02-0.456,1.02-1.024c0-0.371-0.211-0.685-0.514-0.862
			c0.303-0.177,0.514-0.491,0.514-0.867c0-0.563-0.457-1.021-1.02-1.021h-0.256l2.887-3.814c0.119-0.145,0.195-0.324,0.195-0.52
			v-5.974C29.562-5.178,29.185-5.561,28.714-5.561z M17.972,6.62c0-0.281,0.23-0.509,0.51-0.509h3.346L21.65,7.131h-3.168
			C18.202,7.127,17.972,6.902,17.972,6.62z M17.972,8.35c0-0.279,0.23-0.511,0.51-0.511h3.047L21.351,8.86h-2.869
			C18.202,8.86,17.972,8.636,17.972,8.35z M22.827,9.311c-0.045,0.281-0.336,0.463-0.59,0.419c-0.133-0.025-0.248-0.098-0.33-0.207
			c-0.08-0.113-0.107-0.248-0.084-0.381l0.563-3.27c0.045-0.248,0.258-0.424,0.512-0.424c0.025,0,0.053,0,0.082,0.006
			c0.275,0.048,0.461,0.312,0.412,0.588L22.827,9.311z M27.243,8.35c0,0.285-0.229,0.512-0.506,0.512h-3.313l0.176-1.022h3.137
			C27.015,7.839,27.243,8.071,27.243,8.35z M27.243,6.62c0,0.282-0.229,0.509-0.506,0.509h-3.012L23.9,6.129
			c0-0.008,0-0.014,0-0.021h2.836C27.015,6.109,27.243,6.34,27.243,6.62z"/>
	</g>
	<g id="Elevé">
	</g>
	<g id="Extreme" display="none">
		<path id="rebelion" display="inline" fill="#FFFFFF" d="M25.282-1.879c0,1.573-1.273,2.843-2.842,2.843
			c-1.574,0-2.846-1.273-2.846-2.843c0-1.574,1.273-2.844,2.846-2.844C24.011-4.724,25.282-3.454,25.282-1.879z M17.691,10.184h1.74
			h0.092l0.064-0.134l0.633-0.619l-0.584-0.125L18.712,9.11L17.691,10.184z M29.591-1.353L28.98-0.744l0.043,0.042l-0.494,0.497
			c0.064,0.06,0.131,0.121,0.184,0.192l0.498-0.497l0.102,0.093l0.6-0.614L29.591-1.353z M25.665,1.804l-0.264,0.259l0.031,0.075
			l0.059,0.14l-4.146,4.16l0.445,0.095c0.41,0.085,0.762,0.331,0.992,0.685c0.029,0.05,0.039,0.112,0.066,0.166l0.012-0.016
			l0.307,0.203l0.109-0.024l1.207,0.878l0.814-1.113l-1.799-1.406l0.037-0.118h0.299l1.768-2.074L25.8,1.854L25.665,1.804z
			 M27.591-0.038c-0.537-0.059-1.061,0.343-1.123,0.9L26.402,1.47l0,0l-0.043,0.438L26.163,3.77l-0.02,0.174l-0.113,0.132
			l-1.582,1.855l1.193,0.935l0.43,0.335L25.82,7.542l0.064,0.125c0.164,0.357,0.525,0.579,0.916,0.579
			c0.057,0,0.111-0.002,0.17-0.014c0.447-0.077,0.791-0.441,0.84-0.89l0.676-6.257C28.552,0.525,28.146,0.021,27.591-0.038z
			 M25.521,7.955l-0.582,0.8l-0.332,0.457l-0.455-0.333L23.15,8.155l-0.088,0.022l-0.037-0.025c0,0.086-0.002,0.169-0.021,0.254
			c-0.02,0.083-0.049,0.159-0.082,0.238c-0.063,0.148-0.143,0.275-0.24,0.394l0.07,0.159c0.07,0.159,0.166,0.367,0.283,0.547
			l0.279,0.436h2.139L25.521,7.955z M21.456,9.658c-0.023,0-0.049-0.006-0.072-0.009c-0.012,0.045-0.02,0.079-0.02,0.079l0.24,0.455
			h0.58l0.375-0.131c-0.129-0.198-0.232-0.412-0.328-0.626C21.999,9.562,21.741,9.658,21.456,9.658z M22.292,7.504
			c-0.041-0.063-0.105-0.114-0.162-0.165c-0.033-0.031-0.061-0.075-0.104-0.1c-0.104-0.075-0.229-0.129-0.357-0.16l-0.443-0.091
			l-1.01-0.216l0,0L19.32,6.581l-0.348-0.073l-0.574-0.125l-0.037-0.006l0.09-0.092l0.389-0.385l0.414-0.417
			c0.035,0.286,0.053,0.51,0.053,0.515l0.133,0.028l1.254,0.267l0.256-0.258l3.881-3.897l-0.088-0.218l0.033-0.026
			c-0.563-0.169-1.227-0.266-2.059-0.266h-0.275c0,0-0.27,0-0.271,0c-0.584,0-1.178,0.04-1.758,0.169
			c-0.992,0.223-1.607,1.197-2.291,1.867c-0.701,0.69-1.38,1.41-2.064,2.118c-0.152,0.162-0.303,0.325-0.458,0.481
			c-0.263,0.264-0.359,0.65-0.255,1.007c0.103,0.357,0.397,0.626,0.763,0.708l1.342,0.287l0.568,0.12l3.227,0.688
			c0.072,0.012,0.145,0.024,0.213,0.024c0.471,0,0.891-0.328,0.992-0.804c0.041-0.188,0.012-0.365-0.045-0.533l-0.063-0.129
			C22.323,7.594,22.31,7.553,22.292,7.504z M20.868,9.989l-0.098-0.184L20.82,9.6l0.008-0.039l-0.154-0.034l-0.57,0.653h0.865
			L20.868,9.989z"/>
	</g>
	<path id="displaced" fill="#FFFFFF" d="M16.939,3.99c0.156,0.985-0.505,1.91-1.483,2.069c-0.981,0.164-1.914-0.502-2.073-1.481
		c-0.162-0.982,0.5-1.913,1.485-2.074C15.847,2.346,16.775,3.009,16.939,3.99z M16.377,11.133l1.591,2.546
		c0.229,0.359,0.695,0.473,1.061,0.264c0.367-0.22,0.492-0.684,0.293-1.057l-0.408-0.73c-0.354-0.625-0.699-1.256-1.051-1.883
		l-0.704-1.288c-0.082-0.152-0.163-0.32-0.246-0.495c-0.435-0.918-1.117-2.337-2.616-2.21C13.013,6.393,11.712,7,10.433,8.088
		c-1.517,1.196-2.575,2.933-2.614,3.007c-0.052,0.074-0.1,0.156-0.137,0.228c-0.003,0.002-0.003,0.004-0.006,0.007l0,0
		c-0.144,0.267-0.215,0.513-0.036,0.825C7.78,12.4,8.042,12.55,8.321,12.55c0.344,0,0.517-0.164,0.686-0.403l0,0
		c0.002,0,0.002-0.005,0.002-0.005c0.047-0.069,0.091-0.147,0.146-0.228c0.007-0.013,0.896-1.441,2.272-2.615
		c0.425-0.334,0.828-0.562,1.205-0.686l-0.307,3.709c-0.03,0.366-0.144,1-0.245,1.352l-0.689,2.418
		c-0.092,0.305-0.348,0.813-0.551,1.057l-1.865,2.31c-0.234,0.293-0.501,0.625-0.283,1.083c0.129,0.273,0.404,0.447,0.708,0.447
		c0.359,0,0.554-0.207,0.797-0.471l1.886-2.034c0.338-0.364,0.776-0.996,0.994-1.439l0.938-1.905l3.46,5.813
		c0.166,0.287,0.381,0.646,0.852,0.646l0,0c0.27,0,0.516-0.141,0.654-0.359c0.254-0.386,0.086-0.734-0.057-1.051l-2.797-6.078
		c-0.107-0.239-0.17-0.723-0.123-0.986L16.377,11.133z M19.306,17.46h4.195v1.245l4.162-2.405l-4.162-2.405v1.246h-4.195V17.46z"/>
	<path id="Attack" display="none" fill="#FFFFFF" d="M26.552,3.87l5.037-3.225l-4.867-0.517l1.322-5.654l-3.449,3.568l-0.963-4.031
		l-1.447,3.762L18.241-7.31l1.236,6.366L15.974-1.72c0,0,1.064,2.04,1.66,3.268l-5.626-0.396l5.092,2.977l-1.462,1.503L18.005,5.2
		l-1.677,5.932l4.986-4.168l1.291,3.222l1.33-2.578l4.299,4.438l-2.148-5.943l4.713,0.478L26.552,3.87z"/>
</g>
</svg>
