<?xml version="1.0" encoding="utf-8"?>
<!-- Generator: Adobe Illustrator 16.0.0, SVG Export Plug-In . SVG Version: 6.00 Build 0)  -->
<!DOCTYPE svg PUBLIC "-//W3C//DTD SVG 1.1//EN" "http://www.w3.org/Graphics/SVG/1.1/DTD/svg11.dtd">
<svg version="1.1" id="Groupe" xmlns="http://www.w3.org/2000/svg" xmlns:xlink="http://www.w3.org/1999/xlink" x="0px" y="0px"
	 width="15.871px" height="15.65px" viewBox="0 0 15.871 15.65" enable-background="new 0 0 15.871 15.65" xml:space="preserve">
<g id="PinColor_1_">
	<path id="vert" display="none" fill="#2ABF00" stroke="#1D7500" stroke-width="0.2" stroke-miterlimit="10" d="M15.299,7.876
		c0,3.365-2.409,6.186-5.658,6.933c-0.545,0.124-2.905,0.124-3.468-0.021c-3.214-0.761-5.6-3.566-5.6-6.915
		c0-3.926,3.299-7.121,7.362-7.121C11.996,0.752,15.299,3.947,15.299,7.876z"/>
	<path id="orange" display="none" fill="#FF8500" stroke="#7F4500" stroke-width="0.2" stroke-miterlimit="10" d="M15.299,7.876
		c0,3.365-2.409,6.186-5.658,6.933c-0.545,0.124-2.905,0.124-3.468-0.021c-3.214-0.761-5.6-3.566-5.6-6.915
		c0-3.926,3.299-7.121,7.362-7.121C11.996,0.752,15.299,3.947,15.299,7.876z"/>
	<path id="gris" fill="#A5A5A5" stroke="#595959" stroke-width="0.2" stroke-miterlimit="10" d="M15.299,7.876
		c0,3.365-2.409,6.186-5.658,6.933c-0.545,0.124-2.905,0.124-3.468-0.021c-3.214-0.761-5.6-3.566-5.6-6.915
		c0-3.926,3.299-7.121,7.362-7.121C11.996,0.752,15.299,3.947,15.299,7.876z"/>
	<path id="bleu" display="none" fill="#0092FF" stroke="#00477C" stroke-width="0.2" stroke-miterlimit="10" d="M15.299,7.876
		c0,3.365-2.409,6.186-5.658,6.933c-0.545,0.124-2.905,0.124-3.468-0.021c-3.214-0.761-5.6-3.566-5.6-6.915
		c0-3.926,3.299-7.121,7.362-7.121C11.996,0.752,15.299,3.947,15.299,7.876z"/>
</g>
<g id="IconsGroup">
	<g id="MinimalGroup" display="none">
		<path id="ElectionGroup" display="inline" fill="#565656" d="M14.613,2.396l-2.266-0.969c-0.063-0.028-0.146-0.01-0.188,0.046
			l-0.649,0.811c-0.031,0.031-0.041,0.088-0.031,0.135c0.013,0.049,0.041,0.083,0.084,0.103l-2.03,0.767
			c-0.17,0.059-0.317,0.179-0.41,0.338L8.451,4.743C8.309,4.979,8.296,5.271,8.422,5.518l0.05,0.097h-0.71
			c-0.091,0-0.16,0.071-0.16,0.162v3.066H7.116c-0.088,0-0.157,0.074-0.157,0.16c0,0.088,0.072,0.162,0.158,0.162h5.491
			c0.088,0,0.16-0.074,0.16-0.162c0-0.085-0.072-0.159-0.16-0.159h-0.484V7.195c0-0.054-0.029-0.108-0.07-0.137
			c-0.047-0.029-0.109-0.036-0.16-0.009c-0.177,0.083-0.311,0.125-0.37,0.146c-0.012,0-0.026,0.007-0.036,0.015l-1.055,0.628
			c-0.168,0.099-0.357,0.156-0.55,0.156c-0.363,0-0.688-0.18-0.896-0.482C8.82,7.27,8.763,6.978,8.826,6.694
			c0.062-0.284,0.23-0.528,0.473-0.687L9.453,5.91c0.112-0.066,0.213-0.127,0.301-0.185C9.816,5.688,9.842,5.612,9.822,5.54
			c-0.039-0.129-0.104-0.244-0.17-0.332c0.246-0.105,0.58-0.298,0.75-0.494l0,0c0.034,0.022,0.077,0.046,0.123,0.068
			c0.004,0,0.004,0,0.01,0.002l0,0c0.119,0.06,0.269,0.118,0.446,0.151c-0.187,0.235-0.378,0.524-0.45,0.716
			c-0.125,0.061-0.406,0.213-1.056,0.629c-0.172,0.107-0.291,0.281-0.33,0.481C9.103,6.96,9.141,7.163,9.256,7.335
			c0.146,0.218,0.38,0.338,0.626,0.338c0.132,0,0.264-0.04,0.386-0.107l1.109-0.669c0.172-0.042,1.035-0.301,1.688-1.356
			c0.515-0.83,0.802-1.495,0.921-1.799l0.021,0.01c0.066,0.03,0.145,0.054,0.215,0.054c0.131,0,0.256-0.054,0.344-0.14
			c0.092-0.091,0.145-0.215,0.145-0.349V2.545C14.705,2.479,14.674,2.419,14.613,2.396z"/>
	</g>
	<g id="FaibleGroup" display="none">
		<path id="FamineGroup" display="inline" fill="#F9F9F9" d="M12.935,8.086l-1.228,0.232L9.703,7.224l0.729-0.901l1.637,0.543
			L12.935,8.086z M14.818,5.955v0.139L13.527,6.5L12.252,6.68l-1.639-0.543l-0.387-0.183h0.223
			c-0.054-0.485-0.123-0.857-0.158-1.342l0,0C10.289,4.6,10.27,4.278,10.268,4.14c-0.025-0.148-0.095-0.205-0.322-0.364
			C9.818,3.7,9.725,3.671,9.677,3.671c-0.084,0-0.158,0.09-0.177,0.367c0.365,0.061,0.39,0.465,0.39,0.465
			c0.033,0.286-0.11,0.705-0.435,0.815C8.859,5.516,8.918,4.364,9.257,4.085c0.009-0.333,0.103-0.639,0.42-0.651
			c0.127,0,0.256,0.056,0.401,0.147c0.067,0.044,0.127,0.083,0.176,0.132c-0.006-0.112-0.01-0.225-0.01-0.342
			c0-0.245,0.035-0.504,0.252-0.693c0.11-0.103,0.232-0.159,0.359-0.156c0.319,0.021,0.514,0.292,0.633,0.575
			c0.131-0.059,0.301-0.085,0.492-0.017c0.494,0.167,0.764,1.03,0.559,1.326c-0.489,0.698-1.713-0.598-1.392-1.056
			c0,0,0.05-0.059,0.134-0.129c-0.099-0.25-0.287-0.47-0.428-0.458c-0.055,0-0.122,0.021-0.199,0.09
			c-0.136,0.123-0.174,0.292-0.174,0.518c0,0.159,0.021,0.335,0.021,0.509c0,0.093,0.005,0.174,0.008,0.262
			c0.023,0.157,0.023,0.274,0.023,0.44c0.035,0.48,0.226,0.878,0.281,1.373H14.818z M11.367,3.319l0.932,1.011
			c-0.167-0.717-0.752-1.116-0.752-1.116L11.367,3.319z M9.447,4.184L9.283,4.254c0,0-0.082,0.565,0,0.859L9.447,4.184z
			 M8.619,7.591l0.735-0.443L10.121,6.2L9.885,5.955H8.188L7.849,6.632L8.619,7.591z M9.476,7.437L8.173,8.328l0.17,0.215h3.005
			l-0.007-0.041L9.476,7.437z M6.792,5.955v1.023l0.833-0.446l0.257-0.577H6.792z M12.494,6.897l0.811,1.182l1.514,0.355V7.087
			l-1.09-0.35L12.494,6.897z M14.818,6.794V6.321l-0.852,0.228L14.818,6.794z M7.65,6.862L6.792,7.268v1.275h0.626L8.354,7.78
			L7.65,6.862z M12.137,8.544H14.1l-0.934-0.226L12.137,8.544z"/>
		<path id="CycloneGroup" display="inline" fill="#FFFFFF" d="M10.834,3.197c-0.043,0-0.082-0.006-0.125-0.006
			c-0.367,0-0.711,0.096-1.01,0.26c0.535-1.826,1.875-1.989,1.875-1.989S8.611,1.714,8.611,5.169c0.002,0,0.002,0,0.006,0
			c0,0.039-0.004,0.078-0.004,0.122c0,0.365,0.096,0.715,0.262,1.016C7.046,5.765,6.887,4.427,6.887,4.427S7.136,7.39,10.593,7.39
			c0-0.002,0-0.002,0-0.007c0.04,0.002,0.078,0.007,0.121,0.007c0.368,0,0.713-0.095,1.015-0.262
			C11.188,8.96,9.847,9.118,9.847,9.118s2.966-0.25,2.966-3.707c-0.005,0-0.005,0-0.005,0c0-0.042,0.005-0.083,0.005-0.122
			c0-0.37-0.093-0.715-0.262-1.018c1.828,0.536,1.992,1.881,1.992,1.881s-0.25-2.962-3.709-2.962
			C10.834,3.194,10.834,3.197,10.834,3.197z"/>
		<path id="eruptionGroup" display="inline" fill="#FFFFFF" d="M11.296,3.862c0.442,0.15,1.028,0.326,1.155-0.383
			c0.098-0.557,0.832-0.352,1.146-0.383c0.57-0.068,0.141-1.138-0.575-1.152c-0.724-0.018-1.052,0.303-1.347,0.959
			c-0.131,0.315-0.251,0.553-0.764,0.384c-0.512-0.171-0.891,0.25-0.576,0.769c0.273,0.46-0.006,0.959-0.006,0.959h0.774
			c0,0-0.005-0.277-0.192-0.57C10.693,4.096,10.844,3.708,11.296,3.862z M7.202,8.638C9.189,7.19,9.688,5.191,9.688,5.191h2.04
			c0,0,0.494,1.999,2.481,3.447H7.202z"/>
		<path id="tsunamiGroup" display="inline" fill="#FFFFFF" d="M14.438,7.728c-6.104,0.348-4.395-4.316-2.818-3.916
			c-0.162,0.102-0.265,0.442-0.166,0.671c0.109,0.253,0.471,0.39,0.677,0.338c0.485-0.125,0.509-0.812,0.335-1.179
			c-0.186-0.371-0.67-0.838-1.518-0.838c-2.037,0-3.437,1.042-3.959,2.833v2.64h7.45V7.728z"/>
		<path id="epidemieGroup" display="inline" fill="#FFFFFF" d="M13.895,5.599c0-1.745-1.365-3.162-3.085-3.25
			c0.761,0.069,1.353,0.624,1.353,1.295c0,0.23-0.078,0.443-0.201,0.633c-0.344-0.34-0.809-0.548-1.328-0.548
			c-0.514,0-0.982,0.208-1.319,0.548c-0.118-0.19-0.196-0.402-0.196-0.633c0-0.67,0.586-1.224,1.352-1.294
			C8.75,2.44,7.385,3.857,7.385,5.6c0,0.523,0.13,1.021,0.351,1.461C7.429,6.373,7.614,5.596,8.188,5.269
			c0.2-0.113,0.422-0.157,0.646-0.147c-0.045,0.154-0.07,0.313-0.07,0.482c0,0.866,0.59,1.59,1.393,1.806
			c-0.018,0.015-0.031,0.031-0.041,0.054v0.002c-0.026,0.057-0.059,0.108-0.099,0.15C9.93,7.728,9.832,7.829,9.703,7.899
			C9.131,8.232,8.364,8.003,7.917,7.387c0.584,0.885,1.581,1.471,2.72,1.471c1.127,0,2.116-0.572,2.708-1.443
			c-0.456,0.595-1.204,0.814-1.771,0.487c-0.201-0.117-0.347-0.291-0.445-0.494c0.794-0.217,1.38-0.94,1.38-1.805
			c0-0.167-0.024-0.323-0.062-0.48c0.226-0.013,0.448,0.031,0.647,0.147C13.652,5.592,13.846,6.329,13.57,7
			C13.777,6.576,13.895,6.1,13.895,5.599z M10.981,6.852c-0.015-0.271,0.046-0.554,0.181-0.824l-0.215-0.125
			c-0.078,0.083-0.19,0.132-0.31,0.132c-0.122,0-0.231-0.049-0.313-0.13l-0.211,0.119c0.139,0.27,0.193,0.557,0.18,0.829
			C9.74,6.701,9.332,6.204,9.332,5.603c0-0.113,0.021-0.223,0.048-0.323c0.241,0.119,0.462,0.311,0.627,0.56l0.22-0.127
			c-0.01-0.037-0.023-0.073-0.023-0.112c0-0.203,0.139-0.366,0.328-0.414V4.933c-0.305-0.021-0.574-0.112-0.802-0.262
			C9.959,4.442,10.283,4.3,10.633,4.3c0.352,0,0.68,0.147,0.913,0.377c-0.229,0.149-0.503,0.24-0.8,0.262v0.25
			c0.184,0.051,0.324,0.211,0.324,0.414c0,0.039-0.013,0.076-0.021,0.11l0.221,0.125c0.163-0.25,0.385-0.438,0.623-0.561
			c0.023,0.104,0.049,0.211,0.049,0.322C11.938,6.204,11.533,6.698,10.981,6.852z"/>
		<path id="earthquakeGroup" display="inline" fill="#FFFFFF" d="M12.882,5.521c-0.103,0-0.201,0.061-0.25,0.154l-0.408,0.761
			l-0.498-1.469c-0.04-0.109-0.144-0.186-0.261-0.189c-0.122-0.004-0.225,0.065-0.268,0.176l-0.344,0.812l-0.543-3.252
			c-0.025-0.135-0.154-0.237-0.283-0.229C9.885,2.289,9.77,2.379,9.752,2.516L9.272,6.285l-0.39-2.021
			c-0.021-0.118-0.119-0.21-0.241-0.225C8.525,4.022,8.407,4.085,8.348,4.191L7.713,5.52H6.729v0.565h1.167
			c0.107,0,0.207-0.059,0.255-0.159l0.342-0.712l0.553,2.873C9.072,8.218,9.19,8.312,9.32,8.312c0.006,0,0.008,0,0.01,0
			C9.472,8.31,9.586,8.209,9.603,8.069l0.472-3.707L10.471,6.8c0.021,0.127,0.12,0.22,0.246,0.237
			c0.127,0.01,0.244-0.059,0.292-0.171l0.424-1.009l0.472,1.387c0.039,0.104,0.133,0.176,0.246,0.186
			c0.113,0.008,0.219-0.049,0.271-0.148l0.634-1.197h1.211V5.52L12.882,5.521L12.882,5.521z"/>
	</g>
	<g id="ModereGroup">
		<path id="returnedGroup" display="none" fill="#FFFFFF" d="M10.801,2.419c0.059,0.379-0.194,0.734-0.574,0.798
			C9.848,3.28,9.488,3.021,9.431,2.643c-0.062-0.38,0.19-0.735,0.571-0.798C10.381,1.782,10.736,2.039,10.801,2.419z M10.584,5.171
			l0.613,0.984c0.088,0.139,0.269,0.181,0.412,0.1c0.141-0.085,0.186-0.259,0.106-0.406l-0.152-0.28
			c-0.137-0.242-0.268-0.484-0.401-0.728l-0.278-0.497c-0.03-0.059-0.058-0.12-0.093-0.189c-0.168-0.354-0.432-0.903-1.01-0.854
			c-0.49,0.043-0.994,0.277-1.488,0.696c-0.586,0.465-0.997,1.13-1.01,1.162c-0.017,0.028-0.039,0.056-0.05,0.085L7.229,5.247l0,0
			C7.176,5.352,7.147,5.445,7.214,5.568C7.269,5.658,7.372,5.72,7.479,5.72c0.132,0,0.197-0.063,0.26-0.155l0,0l0,0
			c0.018-0.028,0.037-0.059,0.056-0.088C7.801,5.472,8.144,4.92,8.673,4.469c0.165-0.13,0.323-0.218,0.469-0.267l-0.12,1.428
			C9.01,5.77,8.964,6.017,8.927,6.155L8.66,7.087C8.63,7.205,8.527,7.399,8.445,7.494L7.733,8.382
			C7.639,8.499,7.536,8.627,7.618,8.804C7.671,8.91,7.776,8.973,7.895,8.973c0.137,0,0.213-0.081,0.308-0.184L8.93,8.007
			c0.13-0.139,0.298-0.384,0.379-0.553l0.363-0.734l1.335,2.242c0.063,0.11,0.151,0.25,0.331,0.25l0,0
			c0.103,0,0.197-0.054,0.258-0.142c0.092-0.146,0.027-0.284-0.025-0.401l-1.082-2.348c-0.039-0.092-0.063-0.279-0.051-0.38
			L10.584,5.171z M15.076,5.673c0-0.98-0.797-1.773-1.774-1.773h-0.754v0.894h0.756c0.481,0,0.88,0.394,0.88,0.881
			c0,0.48-0.391,0.879-0.88,0.879h-0.158V6.07l-1.606,0.927l1.606,0.93V7.447h0.177l0,0C14.289,7.432,15.076,6.644,15.076,5.673z"/>
	</g>
	<g id="ImportantGroup" display="none">
		<path id="enlevementGroup" display="inline" fill="#FFFFFF" d="M14.115,1.215c-0.24,0-0.432,0.193-0.432,0.431v1.752
			c0.105,0.022,0.205,0.063,0.289,0.146c0.225,0.223,0.229,0.592,0.01,0.816l-0.816,0.839l-0.113-0.11l0.816-0.834
			c0.16-0.171,0.158-0.438-0.01-0.602c-0.051-0.053-0.111-0.09-0.18-0.106c-0.072-0.02-0.145-0.02-0.212-0.005
			c-0.083,0.018-0.152,0.06-0.205,0.118c-0.483,0.497-0.968,0.994-1.454,1.493c-0.123,0.12-0.344,0.399-0.339,0.688
			c0.005,0.268,0,0.541,0,0.812c-0.062-0.055-0.136-0.09-0.226-0.106c-0.25-0.043-0.474,0.108-0.56,0.331h-0.123
			c0-0.059,0-0.123,0-0.184c0.004-0.276-0.006-0.57,0-0.854c0.011-0.283-0.216-0.567-0.335-0.687
			c-0.484-0.5-0.966-0.997-1.451-1.496C8.72,3.6,8.646,3.558,8.57,3.542c-0.072-0.02-0.145-0.015-0.217,0.004
			C8.289,3.562,8.223,3.6,8.175,3.652C8.008,3.815,8.004,4.083,8.164,4.254L8.98,5.088l-0.109,0.11l-0.815-0.84
			c-0.22-0.226-0.216-0.596,0.01-0.816c0.083-0.078,0.18-0.12,0.282-0.146V1.644c0-0.236-0.194-0.431-0.431-0.431
			c-0.24,0-0.431,0.193-0.431,0.431v3.033c0,0.102,0.04,0.191,0.098,0.265L9.05,6.874H8.923c-0.285,0-0.516,0.23-0.516,0.521
			c0,0.191,0.105,0.35,0.261,0.438C8.514,7.924,8.407,8.084,8.407,8.266c0,0.289,0.23,0.521,0.516,0.521H9.08v0.288h1.438
			c0.074,0.075,0.162,0.13,0.269,0.15c0.033,0.007,0.058,0.011,0.088,0.011c0.256,0,0.472-0.183,0.514-0.433V8.788h0.092
			c0,0.095,0,0.189,0.012,0.289h1.459V8.788h0.155c0.281,0,0.517-0.23,0.517-0.519c0-0.186-0.104-0.35-0.262-0.438
			c0.156-0.09,0.262-0.247,0.262-0.438c0-0.285-0.234-0.519-0.517-0.519h-0.125l1.464-1.931c0.063-0.076,0.102-0.164,0.102-0.266
			V1.649C14.547,1.408,14.352,1.215,14.115,1.215z M8.66,7.392c0-0.142,0.119-0.257,0.262-0.257h1.699l-0.092,0.521H8.923
			C8.779,7.649,8.66,7.535,8.66,7.392z M8.66,8.271c0-0.144,0.119-0.262,0.262-0.262h1.546l-0.087,0.521H8.923
			C8.779,8.531,8.66,8.416,8.66,8.271z M11.131,8.759c-0.024,0.141-0.174,0.232-0.299,0.213c-0.069-0.01-0.127-0.049-0.168-0.104
			c-0.041-0.058-0.053-0.125-0.043-0.197l0.285-1.659c0.023-0.125,0.131-0.215,0.258-0.215c0.017,0,0.031,0,0.043,0.002
			c0.145,0.029,0.236,0.159,0.211,0.301L11.131,8.759z M13.371,8.271c0,0.146-0.112,0.262-0.26,0.262H11.43l0.088-0.521h1.594
			C13.254,8.011,13.371,8.13,13.371,8.271z M13.371,7.392c0,0.144-0.112,0.262-0.26,0.262h-1.527l0.084-0.507
			c0-0.002,0-0.007,0-0.01h1.443C13.254,7.135,13.371,7.254,13.371,7.392z"/>
	</g>
	<g id="EleveGroup" display="none">
		<path id="attackGroup" display="inline" fill="#FFFFFF" d="M12.72,5.883l1.987-1.277l-1.924-0.202l0.522-2.229l-1.36,1.41
			l-0.382-1.596l-0.569,1.484L9.436,1.467L9.925,3.98L8.539,3.674c0,0,0.422,0.805,0.656,1.292L6.973,4.808l2.014,1.179L8.41,6.577
			L9.344,6.41L8.682,8.75l1.966-1.647l0.515,1.275l0.523-1.016l1.694,1.75l-0.851-2.349l1.863,0.191L12.72,5.883z"/>
	</g>
	<g id="ExtremeGroup" display="none">
		<path id="rebelionGroup" display="inline" fill="#FFFFFF" d="M12.22,2.915c0,0.81-0.659,1.466-1.463,1.466
			c-0.813,0-1.47-0.656-1.47-1.466c0-0.813,0.656-1.465,1.47-1.465C11.563,1.45,12.22,2.102,12.22,2.915z M8.309,9.131h0.893h0.051
			l0.033-0.069l0.324-0.316L9.304,8.677l-0.472-0.1L8.309,9.131z M14.439,3.186l-0.314,0.315l0.021,0.021l-0.258,0.254
			c0.037,0.033,0.066,0.064,0.1,0.103l0.256-0.257l0.053,0.046l0.309-0.315L14.439,3.186z M12.416,4.811l-0.137,0.138l0.016,0.037
			l0.033,0.071L10.19,7.2l0.228,0.054c0.214,0.044,0.395,0.166,0.514,0.351c0.02,0.026,0.023,0.059,0.034,0.083l0.005-0.007
			l0.158,0.104l0.055-0.014l0.621,0.454l0.421-0.57l-0.93-0.729l0.024-0.061h0.157l0.909-1.069L12.49,4.84L12.416,4.811z
			 M13.41,3.865c-0.279-0.029-0.549,0.179-0.578,0.465l-0.039,0.313l0,0l-0.021,0.227l-0.102,0.956l-0.011,0.09L12.606,5.98
			l-0.817,0.963l0.613,0.477l0.225,0.174l-0.133,0.176l0.035,0.063c0.082,0.184,0.27,0.296,0.469,0.296c0.029,0,0.06,0,0.088-0.007
			c0.229-0.037,0.406-0.227,0.432-0.458l0.354-3.227C13.904,4.153,13.693,3.896,13.41,3.865z M12.343,7.985l-0.298,0.411
			l-0.172,0.232l-0.237-0.171l-0.517-0.372l-0.045,0.01l-0.02-0.01c0,0.044,0,0.085-0.012,0.129
			c-0.008,0.042-0.023,0.084-0.041,0.123c-0.03,0.076-0.075,0.137-0.122,0.203l0.038,0.083c0.033,0.083,0.084,0.188,0.141,0.284
			l0.148,0.223h1.102L12.343,7.985z M10.248,8.858c-0.01,0-0.025-0.003-0.041-0.003c0,0.021-0.004,0.034-0.004,0.034l0.125,0.24
			h0.295l0.193-0.069c-0.064-0.1-0.117-0.21-0.169-0.321C10.525,8.809,10.396,8.858,10.248,8.858z M10.679,7.751
			c-0.021-0.032-0.056-0.06-0.083-0.083c-0.018-0.021-0.03-0.042-0.057-0.054c-0.049-0.037-0.116-0.068-0.185-0.083l-0.224-0.048
			L9.606,7.374l0,0L9.143,7.272L8.965,7.239L8.673,7.173L8.652,7.17l0.049-0.051l0.201-0.198l0.213-0.213
			c0.018,0.147,0.025,0.262,0.025,0.264l0.068,0.017l0.646,0.139l0.133-0.134l2.002-2.007l-0.049-0.113l0.016-0.013
			c-0.289-0.086-0.629-0.143-1.061-0.143h-0.14h-0.14c-0.305,0-0.607,0.024-0.904,0.088C9.195,4.924,8.879,5.427,8.531,5.77
			C8.168,6.128,7.817,6.498,7.467,6.865C7.389,6.948,7.312,7.031,7.229,7.108C7.096,7.249,7.046,7.447,7.096,7.63
			c0.055,0.183,0.206,0.32,0.396,0.364l0.691,0.147l0.294,0.063l1.663,0.354c0.037,0.005,0.071,0.012,0.108,0.012
			c0.242,0,0.461-0.164,0.514-0.416c0.02-0.1,0.005-0.186-0.025-0.271l-0.029-0.07C10.695,7.795,10.686,7.777,10.679,7.751z
			 M9.945,9.033L9.895,8.937l0.028-0.104l0.002-0.021L9.842,8.788L9.551,9.131h0.445L9.945,9.033z"/>
	</g>
	<path id="displacedGroup" fill="#FFFFFF" d="M8.224,2.803C8.318,3.388,7.922,3.937,7.34,4.036C6.756,4.138,6.2,3.738,6.105,3.16
		C6.015,2.57,6.404,2.014,6.993,1.923C7.577,1.82,8.127,2.22,8.224,2.803z M7.892,7.061l0.949,1.518
		c0.136,0.215,0.414,0.284,0.635,0.154c0.218-0.13,0.287-0.4,0.166-0.629L9.408,7.674C9.191,7.298,8.992,6.922,8.779,6.552
		L8.354,5.78C8.308,5.69,8.264,5.594,8.21,5.485C7.954,4.942,7.547,4.093,6.652,4.168C5.888,4.236,5.111,4.604,4.353,5.251
		c-0.903,0.71-1.539,1.74-1.557,1.793c-0.03,0.042-0.064,0.087-0.083,0.129c0,0,0,0-0.007,0.004l0,0
		C2.625,7.338,2.582,7.483,2.683,7.671c0.085,0.14,0.243,0.234,0.411,0.234c0.204,0,0.305-0.099,0.406-0.241l0,0l0,0
		c0.03-0.042,0.058-0.086,0.084-0.132c0.004-0.008,0.535-0.865,1.359-1.559C5.192,5.776,5.436,5.64,5.661,5.57L5.478,7.769
		c-0.018,0.216-0.089,0.598-0.147,0.81l-0.411,1.44c-0.048,0.179-0.208,0.482-0.326,0.626l-1.108,1.374
		c-0.144,0.183-0.304,0.376-0.175,0.655c0.081,0.162,0.244,0.26,0.428,0.26c0.211,0,0.329-0.123,0.476-0.282l1.122-1.21
		c0.2-0.217,0.46-0.595,0.593-0.856l0.557-1.133l2.063,3.464c0.103,0.168,0.233,0.387,0.514,0.387l0,0
		c0.158,0,0.306-0.083,0.394-0.218c0.147-0.231,0.047-0.437-0.039-0.628L7.74,8.834C7.675,8.696,7.643,8.405,7.665,8.25L7.892,7.061
		z M9.635,10.832h2.497v0.741l2.489-1.435l-2.49-1.433v0.746H9.635V10.832z"/>
</g>
</svg>
