<?xml version="1.0" encoding="utf-8"?>
<!-- Generator: Adobe Illustrator 16.0.0, SVG Export Plug-In . SVG Version: 6.00 Build 0)  -->
<!DOCTYPE svg PUBLIC "-//W3C//DTD SVG 1.1//EN" "http://www.w3.org/Graphics/SVG/1.1/DTD/svg11.dtd">
<svg version="1.1" id="Layer_1" xmlns="http://www.w3.org/2000/svg" xmlns:xlink="http://www.w3.org/1999/xlink" x="0px" y="0px"
	 width="33.35px" height="40px" viewBox="0 0 33.35 40" enable-background="new 0 0 33.35 40" xml:space="preserve">
<g id="PinColor">
	<path id="PinOmbre" opacity="0.3" enable-background="new    " d="M28.63,30.566c0,1.746-3.834,3.213-8.992,3.6
		c-0.871,0.066-2.713,4.162-2.713,4.162s-1.904-4.098-2.804-4.168c-5.108-0.398-8.9-1.855-8.9-3.594
		c0-2.043,5.241-3.701,11.704-3.701C23.388,26.865,28.63,28.521,28.63,30.566z"/>
	<path id="vert" fill="#2ABF00" stroke="#1D7500" stroke-width="0.2" stroke-miterlimit="10" d="M28.63,13.389
		c0,5.348-3.834,9.833-8.992,11.018c-0.871,0.197-2.713,12.736-2.713,12.736s-1.905-12.539-2.804-12.761
		c-5.109-1.213-8.901-5.678-8.901-10.997c0-6.253,5.241-11.321,11.704-11.321C23.388,2.064,28.63,7.136,28.63,13.389z"/>
	<path id="orange" display="none" fill="#FF8500" stroke="#7F4500" stroke-width="0.2" stroke-miterlimit="10" d="M28.63,13.389
		c0,5.348-3.834,9.833-8.992,11.018c-0.871,0.197-2.713,12.736-2.713,12.736s-1.905-12.539-2.804-12.761
		c-5.109-1.213-8.901-5.678-8.901-10.997c0-6.253,5.241-11.321,11.704-11.321C23.388,2.064,28.63,7.136,28.63,13.389z"/>
	<path id="gris" display="none" fill="#A5A5A5" stroke="#595959" stroke-width="0.2" stroke-miterlimit="10" d="M28.63,13.389
		c0,5.348-3.834,9.833-8.992,11.018c-0.871,0.197-2.713,12.736-2.713,12.736s-1.905-12.539-2.804-12.761
		c-5.109-1.213-8.901-5.678-8.901-10.997c0-6.253,5.241-11.321,11.704-11.321C23.388,2.064,28.63,7.136,28.63,13.389z"/>
	<path id="bleu" display="none" fill="#0092FF" stroke="#00477C" stroke-width="0.2" stroke-miterlimit="10" d="M28.63,13.389
		c0,5.348-3.834,9.833-8.992,11.018c-0.871,0.197-2.713,12.736-2.713,12.736s-1.905-12.539-2.804-12.761
		c-5.109-1.213-8.901-5.678-8.901-10.997c0-6.253,5.241-11.321,11.704-11.321C23.388,2.064,28.63,7.136,28.63,13.389z"/>
</g>
<g id="Icons">
	<g id="Minimal">
		<path id="Election" display="none" fill="#565656" d="M28.943-0.741l-4.064-1.742c-0.121-0.051-0.26-0.016-0.34,0.087
			l-1.164,1.451c-0.051,0.065-0.07,0.157-0.055,0.242c0.02,0.082,0.072,0.148,0.145,0.188l-3.643,1.367
			c-0.309,0.115-0.568,0.331-0.736,0.612l-1.205,2.01c-0.256,0.427-0.277,0.948-0.053,1.393l0.086,0.17h-1.271
			c-0.161,0-0.292,0.129-0.292,0.29v5.513h-0.87c-0.161,0-0.288,0.13-0.288,0.289c0,0.161,0.127,0.291,0.288,0.291h9.869
			c0.158,0,0.283-0.129,0.283-0.291c0-0.159-0.125-0.289-0.283-0.289h-0.873V7.876c0-0.099-0.053-0.194-0.135-0.244
			c-0.086-0.054-0.189-0.062-0.279-0.019c-0.32,0.15-0.555,0.226-0.666,0.259c-0.025,0.005-0.047,0.015-0.068,0.031l-1.891,1.131
			c-0.301,0.182-0.645,0.277-0.99,0.277c-0.645,0-1.244-0.32-1.611-0.863c-0.291-0.434-0.391-0.96-0.283-1.471
			c0.109-0.511,0.414-0.95,0.852-1.231l0.273-0.174c0.201-0.122,0.381-0.234,0.541-0.333c0.111-0.07,0.162-0.205,0.125-0.331
			c-0.072-0.232-0.193-0.44-0.305-0.599c0.441-0.194,1.043-0.54,1.344-0.89c0,0,0.004,0.002,0.006,0.002
			c0.063,0.039,0.137,0.08,0.221,0.12c0.006,0.002,0.008,0.004,0.016,0.006l0,0c0.217,0.105,0.49,0.209,0.805,0.271
			c-0.338,0.418-0.682,0.939-0.807,1.287c-0.24,0.106-0.74,0.389-1.904,1.132c-0.309,0.197-0.521,0.501-0.594,0.86
			c-0.076,0.358-0.01,0.725,0.197,1.03c0.26,0.39,0.686,0.604,1.127,0.604c0.236,0,0.477-0.063,0.691-0.193l1.994-1.198
			c0.311-0.076,1.861-0.541,3.037-2.44c0.922-1.489,1.438-2.689,1.652-3.232l0.035,0.018c0.121,0.06,0.254,0.091,0.389,0.091
			c0.221,0,0.441-0.089,0.605-0.244c0.172-0.163,0.264-0.387,0.264-0.625v-1.382C29.115-0.59,29.048-0.696,28.943-0.741z"/>
	</g>
	<g id="Faible">
		<path id="Famine" display="none" fill="#F9F9F9" d="M26.329,9.943l-2.307,0.437l-3.768-2.047l1.369-1.708l3.08,1.023L26.329,9.943
			z M29.872,5.94v0.256l-2.428,0.77l-2.396,0.34l-3.082-1.024L21.241,5.94h0.416c-0.1-0.916-0.23-1.61-0.297-2.519h-0.002
			c-0.002-0.027-0.035-0.636-0.043-0.895c-0.047-0.273-0.178-0.382-0.605-0.676c-0.232-0.151-0.408-0.206-0.506-0.204
			c-0.158,0-0.299,0.17-0.33,0.682c0.686,0.116,0.732,0.875,0.732,0.875c0.061,0.54-0.205,1.328-0.814,1.531
			c-1.127,0.378-1.012-1.795-0.375-2.316c0.016-0.625,0.191-1.2,0.787-1.222c0.236,0.002,0.477,0.098,0.754,0.275
			c0.133,0.08,0.24,0.161,0.336,0.244c-0.012-0.207-0.025-0.417-0.025-0.634c0-0.456,0.07-0.954,0.477-1.306
			c0.207-0.19,0.441-0.288,0.674-0.286c0.604,0.029,0.977,0.549,1.193,1.08c0.254-0.111,0.57-0.165,0.934-0.039
			c0.928,0.322,1.428,1.938,1.037,2.501c-0.914,1.312-3.215-1.132-2.604-1.984c0,0,0.088-0.117,0.246-0.244
			c-0.18-0.471-0.537-0.892-0.807-0.862c-0.104,0.001-0.223,0.038-0.373,0.172c-0.256,0.225-0.322,0.546-0.322,0.967
			c0,0.296,0.033,0.625,0.033,0.956c0,0.172,0.014,0.324,0.02,0.49c0.041,0.294,0.043,0.521,0.041,0.831
			c0.063,0.906,0.43,1.649,0.525,2.583H29.872z M23.392,0.984l1.742,1.899c-0.311-1.347-1.414-2.097-1.414-2.097L23.392,0.984z
			 M19.781,2.613l-0.314,0.128c0,0-0.154,1.062,0,1.616L19.781,2.613z M18.218,9.017l1.385-0.833l1.443-1.786L20.597,5.94h-3.189
			l-0.634,1.264L18.218,9.017z M19.835,8.73l-2.455,1.671l0.328,0.405h5.648l-0.021-0.083L19.835,8.73z M14.784,5.94v1.926
			l1.573-0.843l0.477-1.083H14.784z M25.503,7.719l1.521,2.208l2.848,0.668V8.07l-2.049-0.661L25.503,7.719z M29.872,7.517V6.626
			l-1.596,0.432L29.872,7.517z M16.396,7.641l-1.612,0.768v2.397h1.179l1.755-1.438L16.396,7.641z M24.837,10.806h3.688
			l-1.764-0.427L24.837,10.806z"/>
		<path id="Cyclone" display="none" fill="#FFFFFF" d="M22.388,0.758c-0.078-0.004-0.156-0.013-0.234-0.013
			c-0.691,0-1.342,0.18-1.906,0.492c1.01-3.442,3.531-3.742,3.531-3.742s-5.57,0.464-5.57,6.962c0.004,0,0.008,0,0.014,0
			c-0.006,0.078-0.014,0.154-0.014,0.234c0,0.688,0.182,1.338,0.492,1.906c-3.441-1.011-3.743-3.53-3.743-3.53
			s0.463,5.57,6.965,5.57c0-0.005,0-0.007,0-0.013c0.074,0.004,0.152,0.013,0.23,0.013c0.691,0,1.342-0.181,1.906-0.494
			c-1.01,3.443-3.531,3.744-3.531,3.744s5.57-0.465,5.57-6.964c-0.004,0-0.008,0-0.012,0c0.004-0.078,0.012-0.153,0.012-0.231
			c0-0.691-0.182-1.342-0.494-1.906c3.441,1.01,3.742,3.531,3.742,3.531s-0.461-5.571-6.959-5.571
			C22.388,0.75,22.388,0.754,22.388,0.758z"/>
		<path id="tsunami" display="none" fill="#FFFFFF" d="M29.152,9.275c-11.463,0.649-8.26-8.119-5.287-7.361
			C23.558,2.1,23.361,2.746,23.552,3.18c0.207,0.465,0.877,0.73,1.264,0.634c0.924-0.238,0.965-1.534,0.633-2.215
			c-0.346-0.708-1.258-1.581-2.846-1.581c-3.84,0-6.458,1.96-7.445,5.331v4.956h13.998V9.276L29.152,9.275L29.152,9.275z"/>
		<path id="earthquake" display="none" fill="#FFFFFF" d="M26.234,5.123c-0.197,0-0.377,0.109-0.469,0.283l-0.766,1.44l-0.941-2.76
			c-0.074-0.209-0.266-0.35-0.484-0.36c-0.227-0.006-0.424,0.122-0.512,0.326l-0.645,1.534L21.4-0.525
			c-0.049-0.255-0.289-0.449-0.535-0.436c-0.262,0.006-0.479,0.179-0.514,0.438l-0.902,7.09l-0.73-3.806
			c-0.041-0.223-0.225-0.395-0.453-0.426c-0.225-0.032-0.449,0.09-0.549,0.296l-1.195,2.492h-1.856v1.063h2.191
			c0.204,0,0.391-0.118,0.479-0.3l0.643-1.339l1.037,5.397c0.049,0.251,0.268,0.433,0.523,0.433c0.002,0,0.008,0,0.014,0
			c0.26-0.008,0.477-0.204,0.512-0.461l0.887-6.969l0.742,4.587c0.043,0.232,0.23,0.407,0.465,0.434
			c0.236,0.021,0.459-0.106,0.551-0.324l0.797-1.895l0.889,2.6c0.066,0.202,0.248,0.343,0.457,0.361
			c0.213,0.011,0.416-0.094,0.516-0.281l1.188-2.244h2.279V5.123H26.234z"/>
	</g>
	<g id="Modéré">
	</g>
	<g id="Important">
	</g>
	<g id="Elevé">
	</g>
	<g id="Extreme" display="none">
		<path id="rebelion" display="inline" fill="#FFFFFF" d="M24.325,0.953c0,1.28-1.037,2.315-2.314,2.315
			c-1.281,0-2.318-1.037-2.318-2.315c0-1.281,1.037-2.316,2.318-2.316C23.288-1.363,24.325-0.328,24.325,0.953z M18.142,10.777
			h1.416h0.074l0.053-0.108l0.516-0.503l-0.477-0.103l-0.75-0.16L18.142,10.777z M27.833,1.383L27.335,1.88l0.033,0.034L26.97,2.319
			c0.053,0.049,0.104,0.099,0.148,0.157l0.404-0.405l0.084,0.076l0.488-0.5L27.833,1.383z M24.636,3.952l-0.215,0.211l0.023,0.061
			l0.049,0.114l-3.377,3.387l0.363,0.078c0.334,0.07,0.621,0.27,0.809,0.558c0.023,0.041,0.031,0.091,0.053,0.134l0.01-0.012
			l0.25,0.165l0.09-0.019l0.982,0.714l0.662-0.906l-1.467-1.145l0.033-0.096h0.242l1.439-1.688l0.16-1.514L24.636,3.952z
			 M26.204,2.455c-0.438-0.048-0.863,0.279-0.914,0.732l-0.055,0.494l0,0L25.2,4.038l-0.16,1.516l-0.016,0.141l-0.09,0.109
			l-1.289,1.511l0.971,0.761l0.35,0.273l-0.205,0.277l0.053,0.102c0.133,0.291,0.43,0.471,0.746,0.471
			c0.047,0,0.092-0.001,0.139-0.011c0.363-0.063,0.643-0.358,0.684-0.725l0.551-5.095C26.986,2.912,26.656,2.501,26.204,2.455z
			 M24.517,8.961l-0.473,0.651l-0.271,0.372l-0.371-0.271l-0.814-0.59l-0.072,0.018l-0.029-0.02c0,0.07-0.002,0.137-0.018,0.208
			c-0.016,0.068-0.039,0.129-0.066,0.194c-0.051,0.12-0.117,0.224-0.195,0.322l0.057,0.129c0.057,0.13,0.137,0.299,0.23,0.446
			l0.229,0.355h1.738L24.517,8.961z M21.208,10.348c-0.02,0-0.039-0.006-0.059-0.008c-0.01,0.037-0.016,0.064-0.016,0.064
			l0.195,0.37h0.473l0.305-0.107c-0.104-0.161-0.188-0.335-0.266-0.509C21.652,10.27,21.441,10.348,21.208,10.348z M21.89,8.595
			c-0.035-0.052-0.086-0.093-0.135-0.135c-0.025-0.025-0.049-0.061-0.082-0.081c-0.086-0.061-0.186-0.105-0.291-0.131l-0.361-0.073
			l-0.822-0.177l0,0L19.47,7.843l-0.285-0.06l-0.467-0.101l-0.029-0.006l0.072-0.075l0.316-0.313l0.336-0.339
			c0.029,0.232,0.041,0.417,0.041,0.421l0.111,0.023l1.02,0.217l0.209-0.21l3.16-3.173L23.882,4.05l0.025-0.021
			c-0.457-0.138-0.996-0.217-1.676-0.217h-0.225c0,0-0.219,0-0.221,0c-0.477,0-0.959,0.032-1.432,0.137
			c-0.811,0.182-1.311,0.975-1.865,1.521c-0.568,0.561-1.123,1.147-1.678,1.724c-0.123,0.129-0.246,0.262-0.373,0.39
			c-0.214,0.215-0.292,0.529-0.206,0.821c0.083,0.291,0.323,0.51,0.62,0.576l1.094,0.233l0.463,0.098l2.627,0.56
			c0.059,0.009,0.117,0.019,0.174,0.019c0.383,0,0.727-0.267,0.809-0.655c0.033-0.153,0.008-0.297-0.037-0.434l-0.051-0.105
			C21.913,8.667,21.904,8.634,21.89,8.595z M20.73,10.618l-0.08-0.149l0.041-0.167l0.006-0.032l-0.127-0.027l-0.463,0.533h0.705
			L20.73,10.618z"/>
	</g>
	<path id="displaced" display="none" fill="#FFFFFF" d="M22.948-1.047c0.113,0.715-0.367,1.386-1.076,1.501
		c-0.711,0.118-1.389-0.364-1.504-1.075c-0.117-0.713,0.363-1.388,1.078-1.504C22.156-2.24,22.829-1.757,22.948-1.047z M22.54,4.137
		l1.156,1.848c0.164,0.26,0.504,0.344,0.768,0.19c0.268-0.159,0.357-0.496,0.213-0.766l-0.295-0.531
		c-0.258-0.453-0.508-0.911-0.762-1.366l-0.512-0.934c-0.061-0.111-0.117-0.233-0.178-0.36c-0.316-0.667-0.814-1.696-1.9-1.603
		c-0.93,0.082-1.873,0.524-2.803,1.313c-1.1,0.867-1.868,2.127-1.896,2.182c-0.038,0.053-0.071,0.112-0.098,0.164
		C16.23,4.276,16.23,4.278,16.228,4.28l0,0c-0.104,0.194-0.156,0.372-0.027,0.599c0.103,0.177,0.292,0.286,0.494,0.286
		c0.25,0,0.375-0.118,0.498-0.292l0,0c0.002,0,0.002-0.003,0.002-0.003c0.035-0.052,0.066-0.108,0.107-0.165
		c0.006-0.011,0.65-1.046,1.646-1.897c0.309-0.242,0.604-0.408,0.877-0.499l-0.225,2.69c-0.021,0.266-0.105,0.726-0.178,0.982
		l-0.5,1.754c-0.066,0.22-0.252,0.588-0.4,0.767l-1.352,1.676c-0.171,0.213-0.363,0.453-0.205,0.787
		c0.096,0.198,0.295,0.324,0.514,0.324c0.262,0,0.402-0.149,0.578-0.342l1.369-1.476c0.242-0.264,0.563-0.721,0.721-1.045
		l0.68-1.381l2.51,4.218c0.121,0.208,0.279,0.469,0.617,0.469l0,0c0.197,0,0.375-0.101,0.479-0.262
		c0.184-0.279,0.063-0.533-0.041-0.762l-2.031-4.41c-0.078-0.174-0.123-0.525-0.09-0.715L22.54,4.137z M24.667,8.727h3.043V9.63
		l3.021-1.745L27.71,6.139v0.904h-3.043V8.727z"/>
	<path id="epidemie" display="none" fill="#FFFFFF" d="M28.134,5.272c0-3.277-2.566-5.943-5.803-6.11
		c1.43,0.136,2.543,1.172,2.543,2.434c0,0.434-0.145,0.833-0.375,1.186c-0.641-0.636-1.516-1.027-2.486-1.027
		c-0.969,0-1.846,0.392-2.48,1.025c-0.23-0.353-0.373-0.752-0.373-1.186c0-1.259,1.109-2.297,2.537-2.434
		c-3.232,0.167-5.799,2.834-5.799,6.112c0,0.988,0.24,1.92,0.655,2.748c-0.568-1.294-0.224-2.75,0.855-3.372
		c0.375-0.216,0.795-0.294,1.215-0.271c-0.08,0.289-0.133,0.589-0.133,0.903c0,1.627,1.111,2.986,2.613,3.391
		c-0.021,0.035-0.047,0.068-0.066,0.103c0,0.003,0,0.003,0,0.008c-0.049,0.112-0.113,0.202-0.188,0.279
		c-0.16,0.211-0.35,0.398-0.586,0.536c-1.086,0.625-2.527,0.192-3.359-0.961c1.095,1.662,2.974,2.762,5.111,2.762
		c2.117,0,3.98-1.077,5.082-2.712c-0.838,1.117-2.252,1.527-3.32,0.915c-0.379-0.221-0.654-0.551-0.844-0.932
		c1.5-0.405,2.605-1.765,2.605-3.389c0-0.314-0.053-0.614-0.131-0.903c0.424-0.027,0.844,0.05,1.223,0.269
		c1.049,0.604,1.404,1.992,0.902,3.259C27.915,7.105,28.134,6.216,28.134,5.272z M22.665,7.628c-0.025-0.51,0.082-1.044,0.336-1.55
		l-0.406-0.234c-0.146,0.151-0.352,0.244-0.58,0.244c-0.227,0-0.432-0.092-0.578-0.244l-0.4,0.229
		c0.256,0.509,0.363,1.048,0.336,1.558c-1.035-0.283-1.803-1.226-1.803-2.35c0-0.216,0.033-0.418,0.086-0.616
		c0.453,0.229,0.863,0.585,1.178,1.056l0.408-0.239c-0.018-0.07-0.043-0.135-0.043-0.211c0-0.378,0.26-0.684,0.613-0.776V4.031
		c-0.568-0.037-1.084-0.213-1.512-0.492c0.443-0.436,1.047-0.704,1.713-0.704c0.668,0,1.273,0.27,1.717,0.706
		c-0.428,0.279-0.943,0.453-1.51,0.49v0.465c0.35,0.092,0.609,0.397,0.609,0.776c0,0.076-0.021,0.141-0.039,0.211l0.414,0.242
		c0.313-0.471,0.725-0.826,1.172-1.054c0.049,0.194,0.084,0.397,0.084,0.608C24.46,6.402,23.698,7.342,22.665,7.628z"/>
	<path id="enlevement" display="none" fill="#FFFFFF" d="M27.118-2.043c-0.379,0-0.689,0.312-0.689,0.691v2.811
		c0.168,0.037,0.326,0.106,0.453,0.232c0.363,0.359,0.373,0.947,0.02,1.314l-1.309,1.344l-0.182-0.174l1.313-1.341
		c0.264-0.271,0.256-0.703-0.014-0.969c-0.086-0.08-0.184-0.135-0.287-0.165c-0.117-0.031-0.232-0.033-0.348-0.01
		c-0.127,0.033-0.24,0.097-0.328,0.192c-0.775,0.795-1.557,1.592-2.332,2.389c-0.193,0.2-0.551,0.657-0.539,1.112
		c0.008,0.429-0.006,0.869,0.002,1.299c-0.102-0.081-0.225-0.142-0.363-0.167c-0.4-0.065-0.762,0.173-0.9,0.53h-0.201
		c0-0.097,0-0.196,0.002-0.293c0.008-0.45-0.008-0.916,0.004-1.366c0.01-0.457-0.348-0.914-0.543-1.114
		c-0.775-0.796-1.551-1.593-2.33-2.39c-0.09-0.094-0.199-0.159-0.33-0.19c-0.111-0.023-0.229-0.021-0.344,0.01
		c-0.105,0.03-0.207,0.086-0.289,0.165c-0.268,0.264-0.273,0.696-0.012,0.969l1.311,1.339L18.7,4.35l-1.307-1.344
		c-0.358-0.368-0.348-0.956,0.018-1.313c0.127-0.124,0.287-0.196,0.453-0.233v-2.811c0-0.38-0.311-0.691-0.688-0.691
		c-0.383,0-0.691,0.311-0.691,0.691v4.867c0,0.159,0.063,0.305,0.159,0.423l2.35,3.104h-0.209c-0.457,0-0.83,0.372-0.83,0.833
		c0,0.305,0.172,0.56,0.416,0.704c-0.244,0.145-0.416,0.401-0.416,0.703c0,0.461,0.371,0.833,0.83,0.833h0.254v0.462h2.309
		c0.121,0.121,0.262,0.208,0.432,0.237c0.047,0.007,0.092,0.011,0.139,0.011c0.404,0,0.75-0.289,0.816-0.689l0.004-0.021h0.148
		c0.002,0.153,0,0.304,0.018,0.462h2.348v-0.462h0.256c0.455,0,0.83-0.371,0.83-0.833c0-0.302-0.172-0.558-0.418-0.703
		c0.246-0.144,0.418-0.399,0.418-0.706c0-0.459-0.373-0.831-0.83-0.831h-0.207l2.35-3.106c0.096-0.118,0.158-0.264,0.158-0.423
		v-4.865C27.808-1.733,27.499-2.043,27.118-2.043z M18.372,7.874c0-0.229,0.188-0.415,0.414-0.415h2.725L21.366,8.29h-2.58
		C18.56,8.288,18.372,8.105,18.372,7.874z M18.372,9.283c0-0.227,0.188-0.417,0.414-0.417h2.48l-0.145,0.833h-2.336
		C18.56,9.699,18.372,9.516,18.372,9.283z M22.325,10.065c-0.037,0.229-0.271,0.377-0.479,0.342c-0.109-0.02-0.205-0.08-0.27-0.168
		c-0.064-0.092-0.09-0.202-0.07-0.311l0.459-2.662c0.035-0.202,0.211-0.345,0.416-0.345c0.021,0,0.043,0,0.066,0.004
		c0.225,0.039,0.375,0.254,0.336,0.48L22.325,10.065z M25.921,9.283c0,0.231-0.188,0.416-0.414,0.416h-2.695l0.143-0.833h2.553
		C25.734,8.868,25.921,9.056,25.921,9.283z M25.921,7.874c0,0.229-0.188,0.414-0.414,0.414h-2.451l0.141-0.813
		c0.002-0.006,0-0.011,0-0.017h2.311C25.734,7.46,25.921,7.647,25.921,7.874z"/>
	<path id="eruption" display="none" fill="#FFFFFF" d="M23.251,2.006c0.83,0.283,1.932,0.618,2.164-0.721
		c0.188-1.041,1.576-0.655,2.166-0.721c1.076-0.124,0.264-2.137-1.082-2.167c-1.361-0.03-1.982,0.568-2.523,1.804
		c-0.262,0.595-0.48,1.043-1.443,0.723c-0.963-0.322-1.67,0.469-1.084,1.444c0.518,0.862-0.008,1.803-0.008,1.803h1.453
		c0,0-0.014-0.535-0.361-1.083C22.122,2.451,22.402,1.713,23.251,2.006z M15.56,10.984c3.734-2.72,4.667-6.484,4.667-6.484h3.838
		c0,0,0.934,3.762,4.666,6.484H15.56z"/>
	<path id="returned" display="none" fill="#FFFFFF" d="M21.759-0.413c0.096,0.588-0.305,1.143-0.889,1.24
		c-0.59,0.097-1.145-0.303-1.24-0.889c-0.096-0.589,0.301-1.144,0.891-1.24C21.105-1.4,21.663-1.002,21.759-0.413z M21.421,3.865
		l0.957,1.527c0.133,0.213,0.416,0.283,0.637,0.154c0.215-0.129,0.291-0.409,0.17-0.631l-0.244-0.437
		c-0.209-0.374-0.414-0.752-0.623-1.128l-0.426-0.773c-0.051-0.087-0.098-0.188-0.148-0.294c-0.264-0.55-0.674-1.401-1.566-1.322
		c-0.77,0.065-1.549,0.43-2.314,1.081c-0.907,0.716-1.542,1.757-1.571,1.8c-0.027,0.046-0.055,0.093-0.08,0.138
		c-0.001,0.002-0.003,0.002-0.003,0.004l0,0c-0.085,0.16-0.127,0.307-0.021,0.494c0.083,0.147,0.238,0.238,0.409,0.238
		c0.204,0,0.308-0.097,0.408-0.242l0,0c0.002-0.002,0.002-0.002,0.002-0.002c0.028-0.044,0.058-0.091,0.088-0.14
		c0.006-0.007,0.539-0.862,1.361-1.565c0.254-0.198,0.494-0.336,0.723-0.412l-0.184,2.223c-0.018,0.221-0.086,0.598-0.148,0.812
		l-0.41,1.447c-0.057,0.183-0.211,0.486-0.332,0.634l-1.117,1.383c-0.142,0.177-0.3,0.375-0.168,0.651
		c0.078,0.161,0.242,0.266,0.421,0.266c0.217,0,0.332-0.124,0.48-0.283l1.131-1.218c0.201-0.218,0.463-0.595,0.592-0.863
		l0.561-1.139l2.074,3.482c0.102,0.172,0.232,0.385,0.512,0.385l0,0c0.162,0,0.311-0.082,0.396-0.219
		c0.148-0.229,0.049-0.436-0.035-0.625l-1.678-3.643c-0.066-0.141-0.102-0.432-0.074-0.589L21.421,3.865z M28.402,4.642
		c0-1.521-1.236-2.755-2.754-2.755h-1.172v1.391h1.17c0.75,0,1.361,0.61,1.361,1.364c0,0.752-0.611,1.364-1.361,1.364h-0.242V5.259
		l-2.498,1.442l2.498,1.442V7.394h0.271V7.392C27.181,7.378,28.402,6.152,28.402,4.642z"/>
	<path id="Attack" display="none" fill="#FFFFFF" d="M25.359,5.634l4.1-2.625l-3.963-0.421l1.078-4.604l-2.811,2.905L22.98-2.393
		l-1.178,3.064l-3.213-4.138l1.01,5.184l-2.855-0.634c0,0,0.867,1.661,1.351,2.661l-4.581-0.322l4.145,2.424L16.47,7.071
		l1.927-0.352l-1.366,4.83l4.059-3.395l1.053,2.624l1.082-2.098l3.502,3.614l-1.752-4.839l3.838,0.389L25.359,5.634z"/>
	<g id="affected" display="none">
		<path display="inline" fill="#FFFFFF" d="M18.874-0.766c0,0.595-0.482,1.076-1.076,1.076S16.72-0.172,16.72-0.766
			c0-0.594,0.482-1.075,1.078-1.075C18.392-1.841,18.874-1.361,18.874-0.766z M17.909,6.603l0.234,3.972
			c0,0.139,0.113,0.251,0.25,0.251c0.141,0,0.256-0.114,0.256-0.251l0.215-3.97h0.701L18.841,2.15l1.461,2.91
			c0.055,0.129,0.203,0.188,0.33,0.136c0.131-0.055,0.191-0.202,0.139-0.331c0,0-1.072-2.897-1.338-3.436
			c-0.266-0.541-0.525-0.87-1.531-0.87h-0.205c-1.004,0-1.268,0.327-1.532,0.87c-0.262,0.541-1.336,3.436-1.336,3.436
			c-0.054,0.132,0.006,0.277,0.135,0.333c0.13,0.054,0.276-0.007,0.332-0.136l1.46-2.91l-0.727,4.451h0.702l0.22,3.97
			c0,0.139,0.113,0.251,0.25,0.251c0.143,0,0.256-0.114,0.256-0.251l0.217-3.97H17.909L17.909,6.603z M26.495-1.846
			c-0.596,0-1.08,0.483-1.08,1.076c0,0.595,0.48,1.078,1.08,1.078c0.59,0,1.074-0.482,1.074-1.078
			C27.57-1.363,27.085-1.846,26.495-1.846z M27.609,4.489l0.068-2.341l1.318,2.912c0.051,0.129,0.203,0.188,0.33,0.134
			c0.133-0.055,0.193-0.201,0.139-0.331c0,0-0.928-2.897-1.189-3.436c-0.264-0.539-0.672-0.868-1.678-0.868h-0.205
			c-1.006,0-1.414,0.327-1.678,0.868c-0.262,0.539-1.189,3.434-1.189,3.434c-0.059,0.132,0.004,0.276,0.133,0.333
			c0.127,0.056,0.279-0.005,0.328-0.134l1.32-2.912l0.068,2.341l-0.209,5.885c-0.012,0.233,0.164,0.434,0.395,0.451
			c0.012,0.002,0.023,0.002,0.031,0.002c0.219,0,0.41-0.17,0.426-0.393l0.477-4.846l0.479,4.846c0.016,0.224,0.199,0.393,0.42,0.393
			c0.012,0,0.021,0,0.029-0.002c0.234-0.017,0.408-0.218,0.395-0.451L27.609,4.489L27.609,4.489z M22.148,4.699
			c-0.367,0-0.666,0.294-0.666,0.659c0,0.365,0.297,0.658,0.666,0.658c0.359,0,0.656-0.294,0.656-0.658
			C22.804,4.994,22.509,4.699,22.148,4.699z M22.148,8.586c0,0,0.295,2.063,0.295,2.065c0.039,0.103,0.133,0.174,0.252,0.174
			s0.219-0.079,0.254-0.186c0-0.008,0.008-0.127,0-0.149l-0.123-2.536l0.043-0.873c0.033-0.296,0.037-0.207,0.375-0.409
			c0.346-0.207,0.93-1.114,0.957-1.158c0.031-0.045,0.084-0.124,0.096-0.177c0.016-0.091-0.045-0.176-0.137-0.196
			c-0.068-0.011-0.125,0.025-0.17,0.072c-0.045,0.051-0.719,0.948-1.223,1.033c-0.115-0.018-0.234-0.076-0.561-0.076h-0.125
			c-0.32,0-0.441,0.06-0.559,0.076c-0.504-0.085-1.178-0.982-1.227-1.033c-0.041-0.046-0.098-0.083-0.168-0.072
			c-0.09,0.02-0.15,0.105-0.133,0.196c0.01,0.05,0.063,0.129,0.09,0.177c0.031,0.044,0.615,0.951,0.959,1.158
			c0.336,0.202,0.346,0.112,0.377,0.409l0.039,0.873l-0.119,2.538c-0.006,0.022,0,0.143,0.006,0.149
			c0.033,0.106,0.133,0.186,0.252,0.186c0.115,0,0.213-0.071,0.248-0.174C21.847,10.651,22.148,8.586,22.148,8.586"/>
	</g>
	<g id="foodsec" display="none">
		<path display="inline" fill="#FFFFFF" d="M29.482,5.718L29.482,5.718c-0.039,1.054-0.398,2.197-0.951,3.251
			c0,0-1.314,2.664-5.447,2.664c-4.137,0-5.475-2.643-5.475-2.643c-0.554-1.059-0.886-2.195-0.93-3.274h0.001
			c0-0.027-0.001-0.055-0.001-0.083c0-0.506,0.313-0.981,0.854-1.39l0.574,0.368c-0.357,0.238-0.563,0.506-0.563,0.789
			c0,1,2.48,1.81,5.539,1.81c3.055,0,5.531-0.81,5.531-1.81c0-0.69-1.186-1.291-2.934-1.595l0.01-0.727
			c2.23,0.438,3.793,1.415,3.793,2.554C29.486,5.661,29.484,5.689,29.482,5.718z M18.808,1.418c-0.023,0.168-0.051,0.44,0.156,0.81
			c0.262,0.446,0.592,0.603,0.697,0.678c-0.016-0.116,0.016-0.461-0.229-0.88c-0.207-0.373-0.438-0.542-0.572-0.672
			c-0.381-0.55-0.814-0.994-1.145-1.341l-0.783-0.814c0,0,0.283,0.326,0.751,0.841C18.009,0.401,18.433,0.858,18.808,1.418z
			 M20.767,5.723c0.166,0.157,0.379,0.415,0.85,0.677c0.529,0.294,0.973,0.294,1.123,0.329c-0.084-0.138-0.254-0.573-0.836-0.897
			c-0.48-0.264-0.836-0.212-1.055-0.175c-0.725-0.42-1.342-0.851-1.842-1.157c-0.711-0.439-1.172-0.664-1.17-0.664
			c-0.002,0,0.445,0.246,1.145,0.708C19.462,4.863,20.056,5.299,20.767,5.723z M21.191,3.427c-0.059,0.194-0.139,0.51,0.047,0.971
			c0.217,0.566,0.586,0.802,0.695,0.906c0.004-0.137,0.1-0.529-0.105-1.06c-0.184-0.473-0.424-0.707-0.561-0.882
			c-0.357-0.707-0.795-1.294-1.127-1.751l-0.801-1.079l0.758,1.101C20.419,2.108,20.845,2.712,21.191,3.427z M19.847,4.574
			c0.158,0.144,0.363,0.382,0.809,0.617c0.5,0.261,0.914,0.25,1.053,0.278c-0.084-0.123-0.254-0.524-0.801-0.812
			c-0.451-0.236-0.781-0.184-0.986-0.147c-0.678-0.378-1.26-0.767-1.729-1.047c-0.672-0.4-1.108-0.601-1.104-0.603
			c-0.004,0.003,0.422,0.227,1.077,0.647C18.616,3.794,19.179,4.193,19.847,4.574z M18.89,3.445c0.146,0.13,0.342,0.347,0.756,0.554
			c0.467,0.237,0.852,0.22,0.979,0.242c-0.08-0.114-0.244-0.477-0.754-0.734c-0.418-0.211-0.725-0.157-0.912-0.121
			c-0.635-0.341-1.182-0.693-1.617-0.949c-0.627-0.365-1.032-0.548-1.03-0.55c-0.002,0.002,0.394,0.205,1.006,0.587
			C17.738,2.739,18.265,3.1,18.89,3.445z M17.913,1.798c0.279,0.25,0.545,0.265,0.697,0.313c-0.033-0.122-0.006-0.424-0.326-0.707
			c-0.27-0.234-0.547-0.253-0.688-0.265c-1.124-0.963-2.123-1.581-2.352-1.729l-0.049-0.034c-0.009,0.007,1.088,0.73,2.375,1.86
			C17.613,1.375,17.687,1.606,17.913,1.798z M17.894,2.331c0.139,0.116,0.316,0.313,0.703,0.5c0.43,0.213,0.785,0.192,0.904,0.211
			c-0.074-0.103-0.232-0.43-0.703-0.663c-0.391-0.187-0.67-0.14-0.844-0.105c-0.588-0.304-1.091-0.629-1.5-0.858
			c-0.579-0.331-0.954-0.496-0.954-0.496s0.367,0.182,0.932,0.533C16.826,1.687,17.314,2.017,17.894,2.331z M20.031,2.39
			c-0.041,0.181-0.092,0.477,0.105,0.891c0.24,0.508,0.594,0.7,0.705,0.793c-0.008-0.126,0.049-0.494-0.176-0.973
			c-0.201-0.423-0.436-0.626-0.57-0.775c-0.375-0.63-0.809-1.146-1.143-1.549l-0.795-0.945l0.756,0.971
			C19.241,1.22,19.665,1.753,20.031,2.39z M24.45,3.472c-0.125,0.124-0.326,0.331-0.387,0.76c-0.078,0.521,0.092,0.851,0.131,0.978
			c0.063-0.104,0.307-0.364,0.381-0.854c0.064-0.438-0.012-0.715-0.041-0.903c0.039-0.686-0.041-1.316-0.1-1.802
			C24.349,0.942,24.286,0.5,24.286,0.5l0.107,1.151C24.435,2.146,24.497,2.784,24.45,3.472z M24.044,2.303
			c-0.109,0.124-0.279,0.327-0.311,0.727c-0.039,0.488,0.141,0.783,0.186,0.899c0.047-0.101,0.262-0.358,0.297-0.816
			c0.031-0.409-0.059-0.66-0.098-0.834c-0.004-0.634-0.111-1.211-0.191-1.658l-0.195-1.054l0.158,1.056
			C23.956,1.081,24.046,1.664,24.044,2.303z M23.573,1.158c-0.092,0.12-0.234,0.32-0.238,0.69c-0.008,0.451,0.18,0.71,0.229,0.813
			c0.037-0.096,0.213-0.347,0.221-0.769c0.004-0.38-0.092-0.603-0.139-0.76c-0.049-0.584-0.178-1.106-0.277-1.511l-0.24-0.959
			l0.203,0.963C23.415,0.04,23.536,0.571,23.573,1.158z M24.402,6.506c0.074-0.106,0.355-0.366,0.475-0.888
			c0.102-0.462,0.035-0.767,0.018-0.972c0.084-0.736,0.041-1.418,0.01-1.943c-0.051-0.768-0.092-1.246-0.092-1.246l0.039,1.244
			c0.02,0.534,0.047,1.222-0.049,1.958c-0.145,0.126-0.367,0.334-0.469,0.789C24.212,6.001,24.372,6.365,24.402,6.506z
			 M22.054,0.406c0.059,0.129,0.115,0.338,0.328,0.601c0.236,0.301,0.498,0.399,0.58,0.453c-0.02-0.1-0.016-0.391-0.273-0.719
			c-0.217-0.267-0.438-0.326-0.572-0.356c-0.313-0.421-0.563-0.822-0.777-1.124c-0.299-0.438-0.516-0.68-0.514-0.682
			c-0.002,0.002,0.201,0.255,0.484,0.697C21.509-0.419,21.743-0.013,22.054,0.406z M22.255,0.023
			c0.117,0.274,0.301,0.375,0.395,0.459c0.016-0.1,0.143-0.313,0.016-0.625c-0.111-0.262-0.307-0.367-0.404-0.421
			c-0.471-1.082-0.971-1.864-1.084-2.048l-0.025-0.041c-0.01,0.004,0.525,0.898,1.057,2.152C22.189-0.387,22.159-0.195,22.255,0.023
			z M22.726,2.213c0.252,0.325,0.537,0.442,0.623,0.501c-0.016-0.112-0.008-0.432-0.285-0.79c-0.229-0.292-0.467-0.357-0.615-0.392
			c-0.34-0.459-0.607-0.899-0.834-1.231c-0.322-0.474-0.547-0.742-0.547-0.744c0,0,0.213,0.281,0.518,0.763
			c0.211,0.333,0.463,0.771,0.793,1.235C22.441,1.699,22.503,1.92,22.726,2.213z M23.034,0.04c-0.076,0.118-0.188,0.307-0.172,0.646
			c0.029,0.415,0.213,0.638,0.264,0.729c0.027-0.089,0.174-0.331,0.148-0.721c-0.023-0.344-0.127-0.542-0.178-0.684
			c-0.08-0.527-0.236-0.998-0.352-1.359l-0.277-0.859c0,0,0.088,0.331,0.244,0.867C22.816-0.971,22.962-0.494,23.034,0.04z
			 M22.671,2.701c0.064,0.159,0.127,0.399,0.363,0.717c0.268,0.356,0.568,0.486,0.662,0.555c-0.016-0.121,0.002-0.469-0.289-0.863
			c-0.242-0.322-0.498-0.392-0.66-0.431c-0.355-0.503-0.641-0.98-0.877-1.342c-0.344-0.516-0.586-0.808-0.586-0.81
			c0,0.002,0.227,0.307,0.551,0.832C22.058,1.72,22.323,2.197,22.671,2.701z M19.202,5.849c0,0.002,0.396,0.225,1.014,0.662
			c0.045,0.008,0.086,0.018,0.135,0.028C19.656,6.078,19.202,5.849,19.202,5.849z M24.136,6.715
			c-0.092-0.141-0.189-0.25-0.285-0.331c-0.033-0.089-0.064-0.172-0.102-0.246c0.207,0.215,0.404,0.32,0.479,0.379
			c0-0.007,0-0.021,0-0.034c0.023,0.082,0.045,0.168,0.074,0.256c0.039-0.002,0.08-0.006,0.119-0.008
			c-0.072-0.248-0.152-0.488-0.24-0.715c-0.031-0.124-0.082-0.255-0.162-0.401c-0.078-0.178-0.156-0.35-0.232-0.514
			c0.096,0.063,0.172,0.105,0.209,0.136c-0.01-0.129,0.02-0.506-0.285-0.936c-0.182-0.252-0.373-0.364-0.531-0.425l-0.484-0.945
			c0,0,0.158,0.345,0.432,0.926c-0.043-0.012-0.082-0.025-0.113-0.033c-0.375-0.549-0.67-1.066-0.922-1.455
			c-0.357-0.561-0.611-0.878-0.609-0.878c0,0.002,0.238,0.33,0.576,0.899c0.232,0.392,0.51,0.909,0.873,1.457
			c0.063,0.168,0.125,0.431,0.371,0.778c0.115,0.163,0.236,0.281,0.354,0.372c0.039,0.095,0.084,0.194,0.129,0.298
			c-0.209-0.211-0.422-0.277-0.564-0.32c-0.041-0.063-0.078-0.128-0.117-0.189c-0.242-0.518-0.498-0.973-0.717-1.353
			c-0.479-0.833-0.787-1.342-0.785-1.342l0.729,1.366c0.059,0.102,0.113,0.215,0.174,0.327c-0.078-0.136-0.154-0.266-0.225-0.384
			c-0.373-0.603-0.643-0.941-0.643-0.943c0,0.002,0.248,0.354,0.602,0.969c0.205,0.362,0.445,0.823,0.74,1.322
			c0.133,0.291,0.256,0.599,0.365,0.924c-0.027,0.065-0.066,0.148-0.094,0.246c-0.328-0.562-0.598-1.083-0.836-1.484
			C22.335,4.3,22.265,4.184,22.2,4.075C21.9,3.457,21.554,2.927,21.277,2.5c-0.482-0.749-0.795-1.209-0.795-1.209l0.748,1.232
			c0.318,0.529,0.736,1.209,1.061,2c-0.074,0.205-0.188,0.538-0.021,1.048c0.195,0.622,0.572,0.902,0.688,1.024
			c0.01-0.137,0.125-0.515-0.012-1.048c0.086,0.161,0.174,0.326,0.271,0.497c-0.037,0.192-0.049,0.435,0.027,0.74
			c0.305-0.002,0.611-0.012,0.908-0.031C24.148,6.739,24.144,6.729,24.136,6.715z M19.781,5.561c-0.75-0.483-1.242-0.725-1.24-0.727
			c-0.002,0,0.477,0.267,1.209,0.771c0.428,0.294,0.945,0.682,1.543,1.08c0.074,0.009,0.148,0.015,0.223,0.023
			C20.845,6.285,20.261,5.866,19.781,5.561z M25.197,5.859c0.145-0.781,0.129-1.517,0.129-2.083l-0.021-1.342
			c0,0-0.014,0.512-0.023,1.337c-0.016,0.576-0.027,1.314-0.18,2.095c-0.166,0.125-0.414,0.334-0.559,0.81
			c-0.004,0.016-0.006,0.029-0.012,0.045c0.217-0.022,0.428-0.045,0.633-0.074C25.234,6.297,25.2,6.04,25.197,5.859z"/>
	</g>
	<g id="funding" display="none">
		<path display="inline" fill="#FFFFFF" d="M27.046-0.522l-1.771,1.651h-6.387l-1.773-1.651c0,0,0.884-1.234,2.337-1.396
			c1.42-0.159,1.914,0.714,2.631,0.751c0.711-0.037,1.207-0.909,2.627-0.751C26.163-1.756,27.046-0.522,27.046-0.522z M22.327,7.397
			v1.246c0.188-0.031,0.342-0.104,0.461-0.222c0.117-0.12,0.176-0.258,0.176-0.417c0-0.141-0.051-0.265-0.15-0.366
			C22.716,7.533,22.554,7.454,22.327,7.397z M21.288,5.803c0,0.115,0.041,0.217,0.123,0.314c0.08,0.099,0.201,0.176,0.365,0.236
			V5.249c-0.148,0.041-0.268,0.114-0.355,0.217S21.288,5.679,21.288,5.803z M28.122,10.083c0,0-0.387,1.474-2.156,1.474H18.2
			c-1.773,0-2.16-1.474-2.16-1.474c-1.156-5.117,2.369-7.892,2.369-7.892h7.346C25.755,2.191,29.279,4.966,28.122,10.083z
			 M23.892,7.889c0-0.346-0.111-0.627-0.332-0.848c-0.219-0.222-0.627-0.396-1.232-0.54V5.256c0.244,0.087,0.396,0.26,0.453,0.51
			l0.955-0.105c-0.064-0.318-0.215-0.574-0.451-0.762c-0.238-0.189-0.559-0.306-0.957-0.346V4.237h-0.551v0.316
			c-0.436,0.037-0.781,0.172-1.041,0.409c-0.264,0.238-0.393,0.531-0.393,0.88c0,0.346,0.115,0.638,0.348,0.882
			c0.229,0.238,0.594,0.418,1.086,0.538v1.335c-0.135-0.054-0.26-0.144-0.369-0.268c-0.111-0.124-0.188-0.271-0.229-0.44
			l-0.984,0.09c0.074,0.418,0.248,0.744,0.521,0.971c0.271,0.232,0.625,0.368,1.063,0.413v0.579h0.551V9.348
			c0.488-0.059,0.875-0.222,1.152-0.484C23.753,8.599,23.892,8.273,23.892,7.889z"/>
	</g>
	<g id="Education">
		<path fill="#FFFFFF" d="M16.925,9.452c-0.519-0.498-3.506-2.224-7.594-0.465c0,0.025,0,0.516,0,1.257v8.4h6.193
			c0.212,0.182,0.72,0.312,1.31,0.312c0.591,0,1.101-0.128,1.31-0.312h6.229v-8.397c0-0.745,0-1.233,0-1.258
			C20.456,7.261,17.322,9.088,16.925,9.452z M16.371,18.046c0-0.33-2.907-2.266-6.264-0.155v-8.19
			c0.664-0.383,1.559-0.615,2.545-0.615c2.055,0,3.719,0.672,3.719,1.923V18.046z M23.642,17.89
			c-3.354-2.111-6.258-0.174-6.258,0.156v-7.035c0-1.249,1.658-1.923,3.715-1.923c0.982,0,1.881,0.235,2.543,0.614V17.89
			L23.642,17.89z"/>
	</g>
</g>
</svg>
