<?xml version="1.0" encoding="utf-8"?>
<!-- Generator: Adobe Illustrator 16.0.0, SVG Export Plug-In . SVG Version: 6.00 Build 0)  -->
<!DOCTYPE svg PUBLIC "-//W3C//DTD SVG 1.1//EN" "http://www.w3.org/Graphics/SVG/1.1/DTD/svg11.dtd">
<svg version="1.1" id="Layer_1" xmlns="http://www.w3.org/2000/svg" xmlns:xlink="http://www.w3.org/1999/xlink" x="0px" y="0px"
	 width="33.35px" height="40px" viewBox="0 0 33.35 40" enable-background="new 0 0 33.35 40" xml:space="preserve">
<g id="PinColor">
	<path id="PinOmbre" opacity="0.3" enable-background="new    " d="M28.338,29.807c0,1.746-3.834,3.213-8.993,3.6
		c-0.87,0.066-2.713,4.162-2.713,4.162s-1.904-4.098-2.804-4.168c-5.108-0.398-8.9-1.855-8.9-3.594
		c0-2.043,5.241-3.701,11.704-3.701C23.096,26.105,28.338,27.762,28.338,29.807z"/>
	<path id="vert" display="none" fill="#2ABF00" stroke="#1D7500" stroke-width="0.2" stroke-miterlimit="10" d="M28.338,12.628
		c0,5.348-3.834,9.833-8.993,11.018c-0.87,0.196-2.713,12.736-2.713,12.736s-1.905-12.54-2.804-12.762
		c-5.109-1.213-8.901-5.678-8.901-10.997c0-6.253,5.241-11.321,11.704-11.321C23.096,1.304,28.338,6.375,28.338,12.628z"/>
	<path id="orange" fill="#FF8500" stroke="#7F4500" stroke-width="0.2" stroke-miterlimit="10" d="M28.338,12.628
		c0,5.348-3.834,9.833-8.993,11.018c-0.87,0.196-2.713,12.736-2.713,12.736s-1.905-12.54-2.804-12.762
		c-5.109-1.213-8.901-5.678-8.901-10.997c0-6.253,5.241-11.321,11.704-11.321C23.096,1.304,28.338,6.375,28.338,12.628z"/>
	<path id="gris" display="none" fill="#A5A5A5" stroke="#595959" stroke-width="0.2" stroke-miterlimit="10" d="M28.338,12.628
		c0,5.348-3.834,9.833-8.993,11.018c-0.87,0.196-2.713,12.736-2.713,12.736s-1.905-12.54-2.804-12.762
		c-5.109-1.213-8.901-5.678-8.901-10.997c0-6.253,5.241-11.321,11.704-11.321C23.096,1.304,28.338,6.375,28.338,12.628z"/>
	<path id="bleu" display="none" fill="#0092FF" stroke="#00477C" stroke-width="0.2" stroke-miterlimit="10" d="M28.338,12.628
		c0,5.348-3.834,9.833-8.993,11.018c-0.87,0.196-2.713,12.736-2.713,12.736s-1.905-12.54-2.804-12.762
		c-5.109-1.213-8.901-5.678-8.901-10.997c0-6.253,5.241-11.321,11.704-11.321C23.096,1.304,28.338,6.375,28.338,12.628z"/>
</g>
<g id="Icons">
	<g id="Minimal">
		<path id="Election" display="none" fill="#565656" d="M28.65-1.501l-4.063-1.742c-0.121-0.051-0.261-0.016-0.34,0.087
			l-1.164,1.451c-0.051,0.065-0.071,0.157-0.055,0.242c0.019,0.082,0.072,0.148,0.144,0.188l-3.643,1.367
			c-0.309,0.115-0.567,0.331-0.736,0.612l-1.205,2.01c-0.255,0.427-0.276,0.948-0.053,1.393l0.087,0.17H16.35
			c-0.161,0-0.292,0.129-0.292,0.29v5.513h-0.87c-0.161,0-0.288,0.13-0.288,0.289c0,0.161,0.127,0.291,0.288,0.291h9.868
			c0.158,0,0.283-0.129,0.283-0.291c0-0.159-0.125-0.289-0.283-0.289h-0.872V7.116c0-0.099-0.054-0.194-0.136-0.244
			c-0.085-0.054-0.188-0.062-0.279-0.019c-0.319,0.15-0.555,0.226-0.666,0.259c-0.024,0.005-0.047,0.015-0.067,0.031l-1.891,1.131
			c-0.301,0.182-0.645,0.277-0.991,0.277c-0.644,0-1.243-0.32-1.61-0.863c-0.292-0.434-0.392-0.96-0.284-1.471
			c0.109-0.511,0.414-0.95,0.852-1.231l0.274-0.174c0.201-0.122,0.38-0.234,0.541-0.333c0.11-0.07,0.162-0.205,0.125-0.331
			c-0.072-0.232-0.193-0.44-0.306-0.599c0.442-0.194,1.043-0.54,1.344-0.89c0,0,0.005,0.002,0.007,0.002
			c0.063,0.039,0.136,0.08,0.221,0.12c0.006,0.002,0.008,0.004,0.016,0.006l0,0c0.216,0.105,0.49,0.209,0.805,0.271
			c-0.338,0.418-0.682,0.939-0.807,1.287c-0.24,0.106-0.74,0.389-1.904,1.132c-0.31,0.197-0.521,0.501-0.594,0.86
			c-0.077,0.358-0.01,0.725,0.197,1.03c0.259,0.39,0.685,0.604,1.126,0.604c0.236,0,0.477-0.063,0.692-0.193l1.994-1.198
			c0.311-0.076,1.861-0.541,3.036-2.44c0.923-1.489,1.438-2.689,1.652-3.232l0.035,0.018c0.121,0.06,0.254,0.091,0.389,0.091
			c0.222,0,0.442-0.089,0.605-0.244c0.172-0.163,0.265-0.387,0.265-0.625v-1.382C28.822-1.351,28.755-1.457,28.65-1.501z"/>
	</g>
	<g id="Faible">
		<path id="Famine" display="none" fill="#F9F9F9" d="M26.036,9.183L23.73,9.62l-3.767-2.047l1.368-1.708l3.08,1.023L26.036,9.183z
			 M29.58,5.18v0.256l-2.428,0.77l-2.397,0.34l-3.081-1.024L20.949,5.18h0.415c-0.099-0.916-0.23-1.61-0.296-2.519h-0.003
			c-0.002-0.027-0.034-0.636-0.042-0.895c-0.048-0.273-0.178-0.382-0.605-0.676c-0.233-0.151-0.408-0.206-0.507-0.204
			c-0.157,0-0.298,0.17-0.33,0.682c0.687,0.116,0.732,0.875,0.732,0.875c0.061,0.54-0.204,1.328-0.813,1.531
			c-1.128,0.378-1.013-1.795-0.376-2.316c0.017-0.625,0.192-1.2,0.787-1.222c0.236,0.002,0.478,0.098,0.755,0.275
			c0.132,0.08,0.24,0.161,0.335,0.244c-0.012-0.207-0.024-0.417-0.024-0.634c-0.001-0.456,0.069-0.954,0.476-1.306
			c0.208-0.19,0.442-0.288,0.674-0.286c0.604,0.029,0.977,0.549,1.193,1.08c0.254-0.111,0.57-0.165,0.934-0.039
			c0.928,0.322,1.428,1.938,1.038,2.501c-0.914,1.312-3.215-1.132-2.604-1.984c0,0,0.089-0.117,0.246-0.244
			c-0.179-0.471-0.537-0.892-0.807-0.862c-0.103,0.001-0.222,0.038-0.373,0.172c-0.256,0.225-0.322,0.546-0.322,0.967
			c0,0.296,0.034,0.625,0.034,0.956c0,0.172,0.013,0.324,0.019,0.49c0.041,0.294,0.043,0.521,0.041,0.831
			c0.063,0.906,0.43,1.649,0.526,2.583H29.58z M23.1,0.224l1.742,1.899c-0.311-1.347-1.415-2.097-1.415-2.097L23.1,0.224z
			 M19.488,1.853L19.174,1.98c0,0-0.154,1.062,0,1.616L19.488,1.853z M17.926,8.256l1.385-0.833l1.443-1.786L20.305,5.18h-3.19
			l-0.634,1.264L17.926,8.256z M19.542,7.97l-2.454,1.671l0.327,0.405h5.648l-0.021-0.083L19.542,7.97z M14.491,5.18v1.926
			l1.573-0.843l0.477-1.083H14.491z M25.211,6.958l1.521,2.208l2.848,0.668V7.31l-2.049-0.661L25.211,6.958z M29.58,6.756V5.866
			l-1.597,0.432L29.58,6.756z M16.104,6.88l-1.612,0.768v2.397h1.179l1.756-1.438L16.104,6.88z M24.545,10.045h3.687l-1.763-0.427
			L24.545,10.045z"/>
		<path id="Cyclone" display="none" fill="#FFFFFF" d="M22.095-0.002c-0.078-0.004-0.155-0.013-0.233-0.013
			c-0.692,0-1.342,0.18-1.907,0.492c1.011-3.442,3.531-3.742,3.531-3.742s-5.569,0.464-5.569,6.962c0.004,0,0.008,0,0.013,0
			c-0.005,0.078-0.013,0.154-0.013,0.234c0,0.688,0.181,1.338,0.492,1.906c-3.441-1.011-3.743-3.53-3.743-3.53
			s0.463,5.57,6.965,5.57c0-0.005,0-0.007,0-0.013c0.075,0.004,0.153,0.013,0.23,0.013c0.692,0,1.342-0.181,1.907-0.494
			c-1.011,3.443-3.532,3.744-3.532,3.744s5.57-0.465,5.57-6.964c-0.004,0-0.008,0-0.012,0c0.004-0.078,0.012-0.153,0.012-0.231
			c0-0.691-0.181-1.342-0.493-1.906c3.44,1.01,3.742,3.531,3.742,3.531s-0.461-5.571-6.96-5.571
			C22.095-0.01,22.095-0.006,22.095-0.002z"/>
		<path id="tsunami" display="none" fill="#FFFFFF" d="M28.86,8.515c-11.464,0.649-8.26-8.119-5.287-7.361
			c-0.307,0.186-0.504,0.832-0.313,1.266c0.208,0.465,0.878,0.73,1.265,0.634c0.923-0.238,0.965-1.534,0.632-2.215
			c-0.345-0.708-1.257-1.581-2.846-1.581c-3.84,0-6.458,1.96-7.444,5.331v4.956h13.997V8.516L28.86,8.515L28.86,8.515z"/>
		<path id="earthquake" display="none" fill="#FFFFFF" d="M25.942,4.362c-0.197,0-0.377,0.109-0.47,0.283l-0.765,1.44l-0.941-2.76
			c-0.074-0.209-0.267-0.35-0.484-0.36c-0.228-0.006-0.424,0.122-0.512,0.326l-0.645,1.534l-1.019-6.111
			c-0.049-0.255-0.289-0.449-0.535-0.436c-0.262,0.006-0.479,0.179-0.513,0.438l-0.903,7.09L18.426,2
			c-0.042-0.223-0.226-0.395-0.453-0.426c-0.225-0.032-0.45,0.09-0.549,0.296l-1.195,2.492h-1.856v1.063h2.191
			c0.204,0,0.392-0.118,0.479-0.3l0.643-1.339l1.037,5.397c0.049,0.251,0.267,0.433,0.522,0.433c0.003,0,0.009,0,0.014,0
			c0.26-0.008,0.477-0.204,0.513-0.461l0.887-6.969l0.742,4.587c0.043,0.232,0.229,0.407,0.465,0.434
			c0.236,0.021,0.458-0.106,0.551-0.324l0.797-1.895l0.889,2.6c0.066,0.202,0.247,0.343,0.457,0.361
			c0.212,0.011,0.415-0.094,0.515-0.281l1.188-2.244h2.279V4.362H25.942z"/>
	</g>
	<g id="Modéré">
	</g>
	<g id="Important">
	</g>
	<g id="Elevé">
	</g>
	<g id="Extreme" display="none">
		<path id="rebelion" display="inline" fill="#FFFFFF" d="M24.032,0.192c0,1.28-1.037,2.315-2.313,2.315
			c-1.281,0-2.318-1.037-2.318-2.315c0-1.281,1.037-2.316,2.318-2.316C22.995-2.124,24.032-1.088,24.032,0.192z M17.85,10.017h1.416
			h0.074l0.053-0.108l0.515-0.503l-0.476-0.103l-0.751-0.16L17.85,10.017z M27.54,0.623L27.043,1.12l0.033,0.034l-0.399,0.405
			c0.053,0.049,0.104,0.099,0.148,0.157l0.404-0.405l0.084,0.076l0.489-0.5L27.54,0.623z M24.343,3.191l-0.215,0.211l0.024,0.061
			l0.049,0.114l-3.378,3.387l0.363,0.078c0.334,0.07,0.621,0.27,0.809,0.558c0.024,0.041,0.032,0.091,0.053,0.134l0.011-0.012
			l0.25,0.165l0.089-0.019l0.982,0.714l0.662-0.906l-1.466-1.145l0.033-0.096h0.242l1.438-1.688l0.161-1.514L24.343,3.191z
			 M25.911,1.694c-0.438-0.048-0.863,0.279-0.914,0.732L24.943,2.92l0,0l-0.034,0.357l-0.161,1.516l-0.015,0.141l-0.091,0.109
			l-1.289,1.511l0.971,0.761l0.351,0.273l-0.205,0.277l0.052,0.102c0.134,0.291,0.43,0.471,0.747,0.471
			c0.046,0,0.091-0.001,0.139-0.011c0.363-0.063,0.643-0.358,0.683-0.725l0.552-5.095C26.693,2.151,26.364,1.741,25.911,1.694z
			 M24.225,8.201l-0.474,0.651l-0.271,0.372L23.11,8.953l-0.815-0.59L22.223,8.38l-0.03-0.02c0,0.07-0.002,0.137-0.017,0.208
			c-0.017,0.068-0.04,0.129-0.066,0.194c-0.051,0.12-0.117,0.224-0.196,0.322l0.058,0.129c0.057,0.13,0.136,0.299,0.229,0.446
			l0.229,0.355h1.739L24.225,8.201z M20.915,9.587c-0.019,0-0.039-0.006-0.059-0.008c-0.009,0.037-0.015,0.064-0.015,0.064
			l0.195,0.37h0.473l0.305-0.107c-0.104-0.161-0.188-0.335-0.266-0.509C21.359,9.51,21.149,9.587,20.915,9.587z M21.597,7.834
			c-0.034-0.052-0.085-0.093-0.134-0.135c-0.025-0.025-0.049-0.061-0.083-0.081c-0.085-0.061-0.186-0.105-0.291-0.131l-0.36-0.073
			l-0.823-0.177l0,0l-0.729-0.155l-0.284-0.06l-0.467-0.101l-0.03-0.006l0.073-0.075l0.315-0.313l0.337-0.339
			c0.028,0.232,0.041,0.417,0.041,0.421l0.11,0.023l1.021,0.217l0.208-0.21l3.16-3.173L23.589,3.29l0.026-0.021
			c-0.457-0.138-0.997-0.217-1.676-0.217h-0.225c0,0-0.22,0-0.222,0c-0.477,0-0.959,0.032-1.431,0.137
			c-0.811,0.182-1.312,0.975-1.865,1.521c-0.568,0.561-1.123,1.147-1.679,1.724c-0.123,0.129-0.246,0.262-0.373,0.39
			c-0.214,0.215-0.292,0.529-0.206,0.821c0.083,0.291,0.323,0.51,0.62,0.576l1.094,0.233l0.464,0.098l2.626,0.56
			c0.06,0.009,0.117,0.019,0.174,0.019c0.384,0,0.727-0.267,0.81-0.655c0.032-0.153,0.008-0.297-0.038-0.434l-0.051-0.105
			C21.621,7.907,21.611,7.874,21.597,7.834z M20.437,9.857l-0.079-0.149l0.04-0.167l0.007-0.032l-0.127-0.027l-0.463,0.533h0.704
			L20.437,9.857z"/>
	</g>
	<path id="displaced" display="none" fill="#FFFFFF" d="M22.656-1.808c0.113,0.715-0.367,1.386-1.076,1.501
		c-0.712,0.118-1.39-0.364-1.505-1.075c-0.117-0.713,0.363-1.388,1.079-1.504C21.864-3,22.537-2.518,22.656-1.808z M22.248,3.376
		l1.155,1.848c0.165,0.26,0.504,0.344,0.769,0.19c0.268-0.159,0.357-0.496,0.213-0.766l-0.296-0.531
		c-0.258-0.453-0.507-0.911-0.761-1.366l-0.513-0.934c-0.06-0.111-0.117-0.233-0.178-0.36c-0.316-0.667-0.813-1.696-1.9-1.603
		c-0.929,0.082-1.873,0.524-2.802,1.313c-1.101,0.867-1.868,2.127-1.896,2.182c-0.038,0.053-0.071,0.112-0.098,0.164
		c-0.004,0.002-0.004,0.004-0.006,0.006l0,0c-0.104,0.194-0.156,0.372-0.027,0.599c0.103,0.177,0.292,0.286,0.494,0.286
		c0.25,0,0.375-0.118,0.498-0.292l0,0c0.002,0,0.002-0.003,0.002-0.003c0.034-0.052,0.066-0.108,0.106-0.165
		c0.006-0.011,0.65-1.046,1.647-1.897c0.309-0.242,0.603-0.408,0.876-0.499l-0.224,2.69c-0.022,0.266-0.105,0.726-0.178,0.982
		L18.63,6.975c-0.066,0.22-0.252,0.588-0.399,0.767l-1.353,1.676c-0.171,0.213-0.363,0.453-0.205,0.787
		c0.096,0.198,0.295,0.324,0.514,0.324c0.262,0,0.402-0.149,0.579-0.342l1.368-1.476c0.243-0.264,0.563-0.721,0.721-1.045
		l0.68-1.381l2.511,4.218c0.121,0.208,0.278,0.469,0.617,0.469l0,0c0.196,0,0.375-0.101,0.478-0.262
		c0.184-0.279,0.063-0.533-0.041-0.762l-2.03-4.41c-0.078-0.174-0.123-0.525-0.09-0.715L22.248,3.376z M24.375,7.967h3.042V8.87
		l3.022-1.745l-3.022-1.746v0.904h-3.042V7.967z"/>
	<path id="epidemie" display="none" fill="#FFFFFF" d="M27.842,4.512c0-3.277-2.567-5.943-5.803-6.11
		c1.43,0.136,2.542,1.172,2.542,2.434c0,0.434-0.145,0.833-0.375,1.186c-0.64-0.636-1.516-1.027-2.485-1.027
		s-1.846,0.392-2.48,1.025c-0.23-0.353-0.374-0.752-0.374-1.186c0-1.259,1.11-2.297,2.537-2.434
		c-3.231,0.167-5.799,2.834-5.799,6.112c0,0.988,0.24,1.92,0.655,2.748c-0.568-1.294-0.224-2.75,0.854-3.372
		c0.376-0.216,0.796-0.294,1.215-0.271c-0.08,0.289-0.133,0.589-0.133,0.903c0,1.627,1.112,2.986,2.613,3.391
		c-0.021,0.035-0.046,0.068-0.066,0.103c0,0.003,0,0.003,0,0.008c-0.049,0.112-0.113,0.202-0.188,0.279
		c-0.16,0.211-0.349,0.398-0.586,0.536c-1.085,0.625-2.526,0.192-3.358-0.961c1.095,1.662,2.974,2.762,5.111,2.762
		c2.116,0,3.98-1.077,5.082-2.712c-0.838,1.117-2.253,1.527-3.32,0.915c-0.379-0.221-0.655-0.551-0.844-0.932
		c1.5-0.405,2.604-1.765,2.604-3.389c0-0.314-0.052-0.614-0.131-0.903c0.424-0.027,0.844,0.05,1.223,0.269
		c1.049,0.604,1.404,1.992,0.902,3.259C27.623,6.345,27.842,5.456,27.842,4.512z M22.372,6.868c-0.025-0.51,0.082-1.044,0.337-1.55
		l-0.407-0.234c-0.146,0.151-0.352,0.244-0.579,0.244c-0.227,0-0.433-0.092-0.579-0.244l-0.399,0.229
		C21,5.821,21.108,6.36,21.079,6.871c-1.035-0.283-1.803-1.226-1.803-2.35c0-0.216,0.033-0.418,0.087-0.616
		c0.452,0.229,0.862,0.585,1.177,1.056l0.408-0.239c-0.017-0.07-0.043-0.135-0.043-0.211c0-0.378,0.261-0.684,0.613-0.776V3.271
		c-0.568-0.037-1.083-0.213-1.512-0.492c0.443-0.436,1.048-0.704,1.714-0.704c0.668,0,1.272,0.27,1.716,0.706
		c-0.428,0.279-0.942,0.453-1.51,0.49v0.465c0.351,0.092,0.61,0.397,0.61,0.776c0,0.076-0.021,0.141-0.04,0.211l0.415,0.242
		c0.313-0.471,0.724-0.826,1.171-1.054c0.049,0.194,0.085,0.397,0.085,0.608C24.168,5.642,23.406,6.582,22.372,6.868z"/>
	<path id="enlevement" display="none" fill="#FFFFFF" d="M26.825-2.804c-0.379,0-0.688,0.312-0.688,0.691v2.811
		c0.167,0.037,0.325,0.106,0.453,0.232c0.363,0.359,0.373,0.947,0.019,1.314l-1.308,1.344l-0.183-0.174l1.313-1.341
		c0.263-0.271,0.255-0.703-0.015-0.969c-0.085-0.08-0.184-0.135-0.287-0.165c-0.116-0.031-0.232-0.033-0.347-0.01
		c-0.127,0.033-0.24,0.097-0.329,0.192c-0.775,0.795-1.556,1.592-2.331,2.389c-0.194,0.2-0.551,0.657-0.54,1.112
		c0.009,0.429-0.005,0.869,0.002,1.299c-0.102-0.081-0.225-0.142-0.362-0.167c-0.4-0.065-0.763,0.173-0.9,0.53H21.12
		c0-0.097,0-0.196,0.002-0.293c0.009-0.45-0.008-0.916,0.004-1.366c0.01-0.457-0.347-0.914-0.542-1.114
		c-0.775-0.796-1.551-1.593-2.331-2.39c-0.089-0.094-0.199-0.159-0.329-0.19c-0.112-0.023-0.229-0.021-0.345,0.01
		c-0.105,0.03-0.206,0.086-0.289,0.165c-0.267,0.264-0.272,0.696-0.012,0.969l1.312,1.339l-0.182,0.175l-1.308-1.344
		c-0.357-0.368-0.348-0.956,0.018-1.313c0.128-0.124,0.287-0.196,0.454-0.233v-2.811c0-0.38-0.311-0.691-0.688-0.691
		c-0.383,0-0.69,0.311-0.69,0.691v4.867c0,0.159,0.063,0.305,0.159,0.423l2.35,3.104h-0.209c-0.456,0-0.83,0.372-0.83,0.833
		c0,0.305,0.172,0.56,0.416,0.704c-0.244,0.145-0.416,0.401-0.416,0.703c0,0.461,0.372,0.833,0.83,0.833h0.254v0.462h2.31
		c0.121,0.121,0.261,0.208,0.432,0.237c0.047,0.007,0.091,0.011,0.138,0.011c0.405,0,0.751-0.289,0.817-0.689l0.004-0.021h0.147
		c0.002,0.153,0,0.304,0.018,0.462h2.348V9.355h0.257c0.455,0,0.829-0.371,0.829-0.833c0-0.302-0.172-0.558-0.418-0.703
		c0.246-0.144,0.418-0.399,0.418-0.706c0-0.459-0.372-0.831-0.829-0.831h-0.208l2.35-3.106c0.097-0.118,0.159-0.264,0.159-0.423
		v-4.865C27.516-2.494,27.207-2.804,26.825-2.804z M18.079,7.113c0-0.229,0.188-0.415,0.414-0.415h2.726l-0.146,0.831h-2.58
		C18.267,7.527,18.079,7.345,18.079,7.113z M18.079,8.522c0-0.227,0.188-0.417,0.414-0.417h2.481l-0.146,0.833h-2.336
		C18.267,8.938,18.079,8.755,18.079,8.522z M22.032,9.305c-0.036,0.229-0.271,0.377-0.479,0.342c-0.109-0.02-0.204-0.08-0.27-0.168
		c-0.064-0.092-0.089-0.202-0.069-0.311l0.458-2.662c0.035-0.202,0.211-0.345,0.416-0.345c0.021,0,0.043,0,0.066,0.004
		c0.225,0.039,0.376,0.254,0.337,0.48L22.032,9.305z M25.629,8.522c0,0.231-0.188,0.416-0.414,0.416h-2.696l0.144-0.833h2.553
		C25.442,8.107,25.629,8.295,25.629,8.522z M25.629,7.113c0,0.229-0.188,0.414-0.414,0.414h-2.451l0.14-0.813
		c0.002-0.006,0-0.011,0-0.017h2.311C25.442,6.7,25.629,6.887,25.629,7.113z"/>
	<path id="eruption" display="none" fill="#FFFFFF" d="M22.959,1.246c0.829,0.283,1.932,0.618,2.163-0.721
		c0.188-1.041,1.576-0.655,2.166-0.721c1.077-0.124,0.265-2.137-1.082-2.167c-1.361-0.03-1.982,0.568-2.523,1.804
		c-0.262,0.595-0.48,1.043-1.443,0.723c-0.963-0.322-1.669,0.469-1.084,1.444c0.519,0.862-0.008,1.803-0.008,1.803h1.453
		c0,0-0.013-0.535-0.361-1.083C21.829,1.69,22.11,0.953,22.959,1.246z M15.268,10.224c3.734-2.72,4.668-6.484,4.668-6.484h3.837
		c0,0,0.934,3.762,4.667,6.484H15.268z"/>
	<path id="returned" display="none" fill="#FFFFFF" d="M21.467-1.173c0.095,0.588-0.306,1.143-0.89,1.24
		c-0.589,0.097-1.144-0.303-1.24-0.889c-0.096-0.589,0.301-1.144,0.891-1.24C20.812-2.161,21.371-1.763,21.467-1.173z M21.129,3.104
		l0.956,1.527c0.134,0.213,0.416,0.283,0.637,0.154c0.216-0.129,0.291-0.409,0.17-0.631l-0.243-0.437
		c-0.21-0.374-0.414-0.752-0.624-1.128l-0.426-0.773c-0.05-0.087-0.098-0.188-0.147-0.294c-0.264-0.55-0.674-1.401-1.567-1.322
		c-0.77,0.065-1.548,0.43-2.313,1.081c-0.907,0.716-1.542,1.757-1.571,1.8c-0.027,0.046-0.055,0.093-0.08,0.138
		c-0.001,0.002-0.003,0.002-0.003,0.004l0,0c-0.085,0.16-0.127,0.307-0.021,0.494c0.083,0.147,0.238,0.238,0.409,0.238
		c0.204,0,0.308-0.097,0.408-0.242l0,0c0.002-0.002,0.002-0.002,0.002-0.002c0.028-0.044,0.058-0.091,0.088-0.14
		c0.006-0.007,0.539-0.862,1.361-1.565c0.254-0.198,0.494-0.336,0.723-0.412l-0.184,2.223c-0.019,0.221-0.087,0.598-0.149,0.812
		l-0.41,1.447c-0.056,0.183-0.21,0.486-0.331,0.634l-1.117,1.383c-0.142,0.177-0.3,0.375-0.168,0.651
		c0.078,0.161,0.242,0.266,0.422,0.266c0.216,0,0.331-0.124,0.48-0.283l1.13-1.218c0.202-0.218,0.464-0.595,0.593-0.863l0.56-1.139
		l2.074,3.482c0.103,0.172,0.232,0.385,0.513,0.385l0,0c0.161,0,0.31-0.082,0.396-0.219c0.147-0.229,0.049-0.436-0.036-0.625
		l-1.677-3.643c-0.066-0.141-0.103-0.432-0.075-0.589L21.129,3.104z M28.11,3.881c0-1.521-1.237-2.755-2.755-2.755h-1.171v1.391
		h1.169c0.751,0,1.361,0.61,1.361,1.364c0,0.752-0.61,1.364-1.361,1.364h-0.242V4.499L22.614,5.94l2.497,1.442V6.634h0.271V6.631
		C26.888,6.618,28.11,5.392,28.11,3.881z"/>
	<path id="Attack" display="none" fill="#FFFFFF" d="M25.066,4.874l4.101-2.625l-3.963-0.421l1.077-4.604L23.47,0.128l-0.783-3.282
		l-1.178,3.064l-3.212-4.138l1.01,5.184l-2.855-0.634c0,0,0.867,1.661,1.352,2.661l-4.581-0.322l4.146,2.424l-1.189,1.225
		l1.928-0.352l-1.366,4.83l4.059-3.395l1.054,2.624l1.082-2.098l3.501,3.614l-1.751-4.839l3.838,0.389L25.066,4.874z"/>
	<g id="affected" display="none">
		<path display="inline" fill="#FFFFFF" d="M18.582-1.526c0,0.595-0.483,1.076-1.076,1.076c-0.595,0-1.078-0.482-1.078-1.076
			c0-0.594,0.481-1.075,1.078-1.075C18.1-2.602,18.582-2.122,18.582-1.526z M17.617,5.843l0.234,3.972
			c0,0.139,0.113,0.251,0.25,0.251c0.141,0,0.256-0.114,0.256-0.251l0.214-3.97h0.702L18.548,1.39L20.01,4.3
			c0.055,0.129,0.202,0.188,0.33,0.136c0.13-0.055,0.191-0.202,0.138-0.331c0,0-1.071-2.897-1.338-3.436
			c-0.266-0.541-0.524-0.87-1.531-0.87h-0.205c-1.004,0-1.268,0.327-1.531,0.87c-0.262,0.541-1.336,3.436-1.336,3.436
			c-0.054,0.132,0.006,0.277,0.135,0.333c0.13,0.054,0.276-0.007,0.332-0.136l1.46-2.91l-0.727,4.451h0.702l0.22,3.97
			c0,0.139,0.113,0.251,0.25,0.251c0.143,0,0.255-0.114,0.255-0.251l0.218-3.97H17.617L17.617,5.843z M26.202-2.606
			c-0.596,0-1.08,0.483-1.08,1.076c0,0.595,0.48,1.078,1.08,1.078c0.591,0,1.075-0.482,1.075-1.078
			C27.278-2.124,26.793-2.606,26.202-2.606z M27.316,3.729l0.069-2.341L28.703,4.3c0.051,0.129,0.202,0.188,0.329,0.134
			c0.133-0.055,0.193-0.201,0.14-0.331c0,0-0.929-2.897-1.19-3.436c-0.264-0.539-0.672-0.868-1.677-0.868h-0.206
			c-1.005,0-1.414,0.327-1.678,0.868c-0.261,0.539-1.189,3.434-1.189,3.434c-0.058,0.132,0.004,0.276,0.133,0.333
			c0.127,0.056,0.28-0.005,0.329-0.134l1.32-2.912l0.067,2.341l-0.208,5.885c-0.012,0.233,0.163,0.434,0.395,0.451
			c0.012,0.002,0.023,0.002,0.031,0.002c0.219,0,0.409-0.17,0.425-0.393L26.2,4.828l0.479,4.846c0.015,0.224,0.199,0.393,0.42,0.393
			c0.011,0,0.021,0,0.029-0.002c0.234-0.017,0.408-0.218,0.395-0.451L27.316,3.729L27.316,3.729z M21.855,3.938
			c-0.367,0-0.665,0.294-0.665,0.659c0,0.365,0.296,0.658,0.665,0.658c0.36,0,0.656-0.294,0.656-0.658
			C22.511,4.233,22.217,3.938,21.855,3.938z M21.855,7.826c0,0,0.295,2.063,0.295,2.065c0.04,0.103,0.134,0.174,0.253,0.174
			c0.118,0,0.218-0.079,0.254-0.186c0-0.008,0.008-0.127,0-0.149l-0.123-2.536l0.042-0.873c0.034-0.296,0.038-0.207,0.376-0.409
			c0.345-0.207,0.93-1.114,0.956-1.158c0.032-0.045,0.085-0.124,0.097-0.177C24.02,4.485,23.958,4.4,23.867,4.38
			c-0.068-0.011-0.125,0.025-0.17,0.072c-0.046,0.051-0.719,0.948-1.223,1.033C22.36,5.468,22.24,5.41,21.914,5.41h-0.125
			c-0.321,0-0.442,0.06-0.559,0.076c-0.505-0.085-1.179-0.982-1.228-1.033c-0.041-0.046-0.098-0.083-0.168-0.072
			c-0.089,0.02-0.15,0.105-0.133,0.196c0.01,0.05,0.063,0.129,0.091,0.177c0.03,0.044,0.615,0.951,0.958,1.158
			c0.337,0.202,0.347,0.112,0.378,0.409l0.038,0.873l-0.119,2.538c-0.006,0.022,0,0.143,0.007,0.149
			c0.033,0.106,0.133,0.186,0.252,0.186c0.114,0,0.212-0.071,0.247-0.174C21.555,9.891,21.855,7.826,21.855,7.826"/>
	</g>
	<g id="foodsec" display="none">
		<path display="inline" fill="#FFFFFF" d="M29.189,4.958L29.189,4.958c-0.038,1.054-0.397,2.197-0.95,3.251
			c0,0-1.314,2.664-5.447,2.664c-4.137,0-5.475-2.643-5.475-2.643c-0.555-1.059-0.887-2.195-0.931-3.274h0.001
			c0-0.027-0.001-0.055-0.001-0.083c0-0.506,0.313-0.981,0.854-1.39l0.575,0.368c-0.358,0.238-0.563,0.506-0.563,0.789
			c0,1,2.479,1.81,5.539,1.81c3.055,0,5.53-0.81,5.53-1.81c0-0.69-1.186-1.291-2.933-1.595l0.01-0.727
			c2.229,0.438,3.792,1.415,3.792,2.554C29.193,4.9,29.191,4.929,29.189,4.958z M18.515,0.658c-0.023,0.168-0.051,0.44,0.157,0.81
			c0.261,0.446,0.592,0.603,0.696,0.678c-0.016-0.116,0.016-0.461-0.228-0.88c-0.208-0.373-0.438-0.542-0.573-0.672
			c-0.381-0.55-0.813-0.994-1.145-1.341l-0.782-0.814c0,0,0.283,0.326,0.751,0.841C17.717-0.359,18.14,0.098,18.515,0.658z
			 M20.475,4.962c0.166,0.157,0.379,0.415,0.85,0.677c0.528,0.294,0.973,0.294,1.122,0.329c-0.083-0.138-0.254-0.573-0.836-0.897
			c-0.479-0.264-0.835-0.212-1.055-0.175c-0.724-0.42-1.342-0.851-1.842-1.157c-0.711-0.439-1.172-0.664-1.17-0.664
			c-0.002,0,0.446,0.246,1.146,0.708C19.169,4.103,19.763,4.539,20.475,4.962z M20.899,2.667c-0.06,0.194-0.14,0.51,0.046,0.971
			c0.217,0.566,0.586,0.802,0.696,0.906c0.003-0.137,0.1-0.529-0.106-1.06c-0.184-0.473-0.424-0.707-0.56-0.882
			c-0.358-0.707-0.795-1.294-1.128-1.751l-0.801-1.079l0.758,1.101C20.126,1.348,20.552,1.952,20.899,2.667z M19.555,3.813
			c0.158,0.144,0.362,0.382,0.809,0.617c0.499,0.261,0.914,0.25,1.052,0.278c-0.083-0.123-0.254-0.524-0.801-0.812
			c-0.45-0.236-0.781-0.184-0.985-0.147c-0.678-0.378-1.261-0.767-1.729-1.047c-0.672-0.4-1.107-0.601-1.104-0.603
			c-0.004,0.003,0.422,0.227,1.077,0.647C18.323,3.034,18.887,3.433,19.555,3.813z M18.598,2.685
			c0.146,0.13,0.341,0.347,0.755,0.554c0.468,0.237,0.852,0.22,0.979,0.242c-0.08-0.114-0.244-0.477-0.755-0.734
			c-0.418-0.211-0.725-0.157-0.911-0.121c-0.635-0.341-1.182-0.693-1.618-0.949c-0.627-0.365-1.031-0.548-1.029-0.55
			c-0.002,0.002,0.394,0.205,1.007,0.587C17.446,1.979,17.973,2.339,18.598,2.685z M17.621,1.038
			c0.278,0.25,0.545,0.265,0.696,0.313c-0.032-0.122-0.006-0.424-0.325-0.707c-0.271-0.234-0.547-0.253-0.688-0.265
			c-1.124-0.963-2.123-1.581-2.353-1.729l-0.049-0.034c-0.009,0.007,1.088,0.73,2.375,1.86C17.321,0.615,17.395,0.846,17.621,1.038z
			 M17.601,1.57c0.14,0.116,0.316,0.313,0.704,0.5c0.429,0.213,0.784,0.192,0.903,0.211c-0.074-0.103-0.232-0.43-0.703-0.663
			c-0.39-0.187-0.67-0.14-0.844-0.105c-0.587-0.304-1.091-0.629-1.499-0.858c-0.579-0.331-0.954-0.496-0.954-0.496
			s0.367,0.182,0.932,0.533C16.533,0.927,17.022,1.256,17.601,1.57z M19.739,1.629c-0.041,0.181-0.093,0.477,0.104,0.891
			c0.241,0.508,0.594,0.7,0.705,0.793c-0.008-0.126,0.05-0.494-0.175-0.973c-0.202-0.423-0.437-0.626-0.57-0.775
			c-0.375-0.63-0.809-1.146-1.144-1.549l-0.795-0.945l0.757,0.971C18.949,0.459,19.373,0.993,19.739,1.629z M24.157,2.711
			c-0.125,0.124-0.326,0.331-0.387,0.76c-0.077,0.521,0.093,0.851,0.131,0.978c0.063-0.104,0.307-0.364,0.381-0.854
			c0.065-0.438-0.012-0.715-0.04-0.903c0.038-0.686-0.042-1.316-0.101-1.802c-0.085-0.709-0.147-1.151-0.147-1.151l0.106,1.151
			C24.142,1.386,24.204,2.023,24.157,2.711z M23.752,1.542c-0.11,0.124-0.279,0.327-0.311,0.727
			c-0.039,0.488,0.141,0.783,0.186,0.899c0.046-0.101,0.261-0.358,0.297-0.816c0.03-0.409-0.059-0.66-0.098-0.834
			c-0.004-0.634-0.112-1.211-0.192-1.658l-0.195-1.054l0.159,1.056C23.663,0.32,23.754,0.903,23.752,1.542z M23.281,0.397
			c-0.093,0.12-0.235,0.32-0.239,0.69c-0.007,0.451,0.181,0.71,0.229,0.813c0.038-0.096,0.214-0.347,0.222-0.769
			c0.003-0.38-0.093-0.603-0.139-0.76c-0.049-0.584-0.178-1.106-0.278-1.511l-0.24-0.959l0.203,0.963
			C23.122-0.721,23.243-0.189,23.281,0.397z M24.11,5.746c0.074-0.106,0.354-0.366,0.474-0.888c0.102-0.462,0.035-0.767,0.019-0.972
			c0.083-0.736,0.04-1.418,0.01-1.943c-0.052-0.768-0.093-1.246-0.093-1.246l0.039,1.244c0.021,0.534,0.048,1.222-0.049,1.958
			c-0.145,0.126-0.367,0.334-0.469,0.789C23.92,5.241,24.079,5.604,24.11,5.746z M21.762-0.354c0.059,0.129,0.114,0.338,0.328,0.601
			c0.236,0.301,0.497,0.399,0.579,0.453c-0.02-0.1-0.016-0.391-0.273-0.719c-0.216-0.267-0.437-0.326-0.571-0.356
			c-0.313-0.421-0.563-0.822-0.778-1.124c-0.299-0.438-0.515-0.68-0.513-0.682c-0.002,0.002,0.2,0.255,0.484,0.697
			C21.217-1.18,21.451-0.773,21.762-0.354z M21.962-0.737c0.117,0.274,0.302,0.375,0.395,0.459c0.017-0.1,0.144-0.313,0.016-0.625
			c-0.111-0.262-0.307-0.367-0.404-0.421c-0.471-1.082-0.97-1.864-1.084-2.048l-0.025-0.041c-0.009,0.004,0.526,0.898,1.057,2.152
			C21.896-1.147,21.867-0.956,21.962-0.737z M22.433,1.453c0.252,0.325,0.538,0.442,0.623,0.501
			c-0.015-0.112-0.007-0.432-0.284-0.79c-0.229-0.292-0.467-0.357-0.616-0.392c-0.339-0.459-0.607-0.899-0.833-1.231
			c-0.323-0.474-0.547-0.742-0.547-0.744c0,0,0.212,0.281,0.517,0.763c0.212,0.333,0.464,0.771,0.793,1.235
			C22.148,0.938,22.21,1.16,22.433,1.453z M22.741-0.721c-0.075,0.118-0.188,0.307-0.172,0.646c0.03,0.415,0.214,0.638,0.265,0.729
			c0.026-0.089,0.173-0.331,0.147-0.721c-0.022-0.344-0.126-0.542-0.178-0.684c-0.079-0.527-0.236-0.998-0.351-1.359L22.176-2.97
			c0,0,0.087,0.331,0.243,0.867C22.523-1.731,22.67-1.254,22.741-0.721z M22.378,1.94c0.064,0.159,0.127,0.399,0.363,0.717
			c0.268,0.356,0.568,0.486,0.662,0.555c-0.015-0.121,0.002-0.469-0.289-0.863c-0.242-0.322-0.498-0.392-0.66-0.431
			c-0.355-0.503-0.64-0.98-0.876-1.342c-0.345-0.516-0.587-0.808-0.587-0.81c0,0.002,0.227,0.307,0.551,0.832
			C21.765,0.959,22.031,1.437,22.378,1.94z M18.91,5.088c0,0.002,0.396,0.225,1.014,0.662c0.045,0.008,0.086,0.018,0.134,0.028
			C19.363,5.317,18.91,5.088,18.91,5.088z M23.843,5.955c-0.092-0.141-0.188-0.25-0.284-0.331c-0.033-0.089-0.065-0.172-0.103-0.246
			c0.208,0.215,0.404,0.32,0.479,0.379c0-0.007,0-0.021,0-0.034c0.023,0.082,0.045,0.168,0.074,0.256
			c0.038-0.002,0.08-0.006,0.118-0.008c-0.071-0.248-0.152-0.488-0.239-0.715C23.857,5.131,23.807,5,23.726,4.854
			c-0.078-0.178-0.155-0.35-0.231-0.514c0.095,0.063,0.171,0.105,0.209,0.136c-0.01-0.129,0.02-0.506-0.286-0.936
			c-0.182-0.252-0.373-0.364-0.53-0.425L22.403,2.17c0,0,0.158,0.345,0.431,0.926c-0.043-0.012-0.081-0.025-0.112-0.033
			c-0.375-0.549-0.67-1.066-0.923-1.455c-0.356-0.561-0.611-0.878-0.609-0.878c0,0.002,0.238,0.33,0.577,0.899
			c0.231,0.392,0.509,0.909,0.872,1.457c0.063,0.168,0.125,0.431,0.372,0.778c0.115,0.163,0.236,0.281,0.353,0.372
			c0.04,0.095,0.085,0.194,0.129,0.298c-0.208-0.211-0.422-0.277-0.563-0.32c-0.041-0.063-0.079-0.128-0.117-0.189
			c-0.242-0.518-0.499-0.973-0.717-1.353c-0.479-0.833-0.787-1.342-0.785-1.342l0.729,1.366c0.058,0.102,0.113,0.215,0.174,0.327
			c-0.079-0.136-0.154-0.266-0.226-0.384c-0.372-0.603-0.642-0.941-0.642-0.943c0,0.002,0.248,0.354,0.601,0.969
			c0.206,0.362,0.446,0.823,0.741,1.322c0.133,0.291,0.256,0.599,0.365,0.924c-0.028,0.065-0.066,0.148-0.094,0.246
			c-0.329-0.562-0.598-1.083-0.836-1.484c-0.078-0.134-0.148-0.25-0.214-0.359c-0.301-0.618-0.646-1.148-0.924-1.575
			c-0.482-0.749-0.795-1.209-0.795-1.209l0.748,1.232c0.318,0.529,0.737,1.209,1.062,2c-0.074,0.205-0.188,0.538-0.021,1.048
			c0.195,0.622,0.572,0.902,0.687,1.024c0.01-0.137,0.125-0.515-0.012-1.048c0.086,0.161,0.175,0.326,0.271,0.497
			c-0.036,0.192-0.049,0.435,0.028,0.74c0.305-0.002,0.611-0.012,0.908-0.031C23.855,5.979,23.851,5.969,23.843,5.955z
			 M19.489,4.801c-0.751-0.483-1.243-0.725-1.241-0.727c-0.002,0,0.477,0.267,1.21,0.771c0.428,0.294,0.945,0.682,1.542,1.08
			c0.075,0.009,0.149,0.015,0.224,0.023C20.552,5.524,19.968,5.105,19.489,4.801z M24.905,5.099
			c0.144-0.781,0.129-1.517,0.129-2.083l-0.021-1.342c0,0-0.015,0.512-0.023,1.337c-0.017,0.576-0.028,1.314-0.18,2.095
			c-0.166,0.125-0.414,0.334-0.559,0.81c-0.004,0.016-0.006,0.029-0.012,0.045c0.216-0.022,0.428-0.045,0.632-0.074
			C24.941,5.537,24.908,5.279,24.905,5.099z"/>
	</g>
	<g id="funding" display="none">
		<path display="inline" fill="#FFFFFF" d="M26.753-1.282l-1.771,1.651h-6.387l-1.773-1.651c0,0,0.884-1.234,2.337-1.396
			c1.421-0.159,1.915,0.714,2.631,0.751c0.711-0.037,1.207-0.909,2.628-0.751C25.871-2.517,26.753-1.282,26.753-1.282z
			 M22.034,6.637v1.246c0.188-0.031,0.342-0.104,0.461-0.222c0.118-0.12,0.177-0.258,0.177-0.417c0-0.141-0.052-0.265-0.15-0.366
			C22.424,6.772,22.261,6.693,22.034,6.637z M20.995,5.042c0,0.115,0.041,0.217,0.123,0.314c0.081,0.099,0.202,0.176,0.365,0.236
			V4.488c-0.147,0.041-0.267,0.114-0.354,0.217C21.04,4.809,20.995,4.918,20.995,5.042z M27.83,9.323c0,0-0.387,1.474-2.157,1.474
			h-7.766c-1.772,0-2.159-1.474-2.159-1.474c-1.156-5.117,2.369-7.892,2.369-7.892h7.346C25.463,1.431,28.987,4.206,27.83,9.323z
			 M23.599,7.128c0-0.346-0.111-0.627-0.331-0.848c-0.219-0.222-0.628-0.396-1.233-0.54V4.496c0.244,0.087,0.396,0.26,0.454,0.51
			L23.444,4.9c-0.064-0.318-0.216-0.574-0.452-0.762c-0.238-0.189-0.559-0.306-0.957-0.346V3.477h-0.551v0.316
			c-0.435,0.037-0.78,0.172-1.041,0.409c-0.263,0.238-0.392,0.531-0.392,0.88c0,0.346,0.114,0.638,0.347,0.882
			c0.229,0.238,0.594,0.418,1.086,0.538v1.335c-0.135-0.054-0.26-0.144-0.369-0.268c-0.111-0.124-0.188-0.271-0.228-0.44
			l-0.985,0.09c0.075,0.418,0.248,0.744,0.521,0.971c0.272,0.232,0.626,0.368,1.063,0.413v0.579h0.551V8.587
			c0.489-0.059,0.876-0.222,1.152-0.484C23.461,7.838,23.599,7.513,23.599,7.128z"/>
	</g>
	<g id="Education">
		<path fill="#FFFFFF" d="M16.632,8.691c-0.519-0.498-3.506-2.224-7.594-0.465c0,0.025,0,0.516,0,1.257v8.4h6.193
			c0.212,0.182,0.72,0.312,1.31,0.312c0.591,0,1.101-0.128,1.311-0.312h6.229V9.486c0-0.745,0-1.233,0-1.258
			C20.163,6.5,17.03,8.328,16.632,8.691z M16.078,17.286c0-0.33-2.907-2.266-6.264-0.155V8.94c0.664-0.383,1.559-0.615,2.545-0.615
			c2.055,0,3.719,0.672,3.719,1.923V17.286z M23.35,17.129c-3.354-2.111-6.258-0.174-6.258,0.156V10.25
			c0-1.249,1.658-1.923,3.715-1.923c0.982,0,1.881,0.235,2.543,0.614V17.129L23.35,17.129z"/>
	</g>
</g>
</svg>
