<?xml version="1.0" encoding="utf-8"?>
<!-- Generator: Adobe Illustrator 16.0.0, SVG Export Plug-In . SVG Version: 6.00 Build 0)  -->
<!DOCTYPE svg PUBLIC "-//W3C//DTD SVG 1.1//EN" "http://www.w3.org/Graphics/SVG/1.1/DTD/svg11.dtd">
<svg version="1.1" id="Layer_1" xmlns="http://www.w3.org/2000/svg" xmlns:xlink="http://www.w3.org/1999/xlink" x="0px" y="0px"
	 width="33.35px" height="40px" viewBox="0 0 33.35 40" enable-background="new 0 0 33.35 40" xml:space="preserve">
<g id="PinColor">
	<path id="PinOmbre" opacity="0.3" enable-background="new    " d="M28.374,30.566c0,1.746-3.834,3.213-8.994,3.6
		c-0.869,0.066-2.712,4.162-2.712,4.162s-1.904-4.098-2.804-4.168c-5.108-0.398-8.9-1.855-8.9-3.594
		c0-2.043,5.241-3.701,11.704-3.701C23.132,26.865,28.374,28.521,28.374,30.566z"/>
	<path id="vert" display="none" fill="#2ABF00" stroke="#1D7500" stroke-width="0.2" stroke-miterlimit="10" d="M28.374,13.389
		c0,5.348-3.834,9.833-8.994,11.018c-0.869,0.197-2.712,12.736-2.712,12.736s-1.905-12.539-2.804-12.761
		c-5.109-1.213-8.901-5.678-8.901-10.997c0-6.253,5.241-11.321,11.704-11.321C23.132,2.064,28.374,7.136,28.374,13.389z"/>
	<path id="orange" display="none" fill="#FF8500" stroke="#7F4500" stroke-width="0.2" stroke-miterlimit="10" d="M28.374,13.389
		c0,5.348-3.834,9.833-8.994,11.018c-0.869,0.197-2.712,12.736-2.712,12.736s-1.905-12.539-2.804-12.761
		c-5.109-1.213-8.901-5.678-8.901-10.997c0-6.253,5.241-11.321,11.704-11.321C23.132,2.064,28.374,7.136,28.374,13.389z"/>
	<path id="gris" fill="#A5A5A5" stroke="#595959" stroke-width="0.2" stroke-miterlimit="10" d="M28.374,13.389
		c0,5.348-3.834,9.833-8.994,11.018c-0.869,0.197-2.712,12.736-2.712,12.736s-1.905-12.539-2.804-12.761
		c-5.109-1.213-8.901-5.678-8.901-10.997c0-6.253,5.241-11.321,11.704-11.321C23.132,2.064,28.374,7.136,28.374,13.389z"/>
	<path id="bleu" display="none" fill="#0092FF" stroke="#00477C" stroke-width="0.2" stroke-miterlimit="10" d="M28.374,13.389
		c0,5.348-3.834,9.833-8.994,11.018c-0.869,0.197-2.712,12.736-2.712,12.736s-1.905-12.539-2.804-12.761
		c-5.109-1.213-8.901-5.678-8.901-10.997c0-6.253,5.241-11.321,11.704-11.321C23.132,2.064,28.374,7.136,28.374,13.389z"/>
</g>
<g id="Icons">
	<g id="Minimal">
		<path id="Election" display="none" fill="#565656" d="M28.685-0.741l-4.063-1.742c-0.121-0.051-0.262-0.016-0.34,0.087
			l-1.164,1.451c-0.051,0.065-0.072,0.157-0.055,0.242c0.018,0.082,0.072,0.148,0.143,0.188l-3.643,1.367
			c-0.309,0.115-0.566,0.331-0.736,0.612l-1.205,2.01c-0.254,0.427-0.275,0.948-0.053,1.393l0.088,0.17h-1.272
			c-0.161,0-0.292,0.129-0.292,0.29v5.513h-0.87c-0.161,0-0.288,0.13-0.288,0.289c0,0.161,0.127,0.291,0.288,0.291h9.868
			c0.158,0,0.283-0.129,0.283-0.291c0-0.159-0.125-0.289-0.283-0.289H24.22V7.876c0-0.099-0.055-0.194-0.137-0.244
			c-0.084-0.054-0.188-0.062-0.279-0.019c-0.318,0.15-0.555,0.226-0.666,0.259c-0.023,0.005-0.047,0.015-0.066,0.031l-1.891,1.131
			c-0.301,0.182-0.645,0.277-0.992,0.277c-0.643,0-1.242-0.32-1.609-0.863c-0.293-0.434-0.393-0.96-0.285-1.471
			c0.109-0.511,0.414-0.95,0.852-1.231l0.275-0.174c0.201-0.122,0.379-0.234,0.541-0.333c0.109-0.07,0.162-0.205,0.125-0.331
			c-0.072-0.232-0.193-0.44-0.307-0.599c0.443-0.194,1.043-0.54,1.344-0.89c0,0,0.006,0.002,0.008,0.002
			c0.063,0.039,0.135,0.08,0.221,0.12c0.006,0.002,0.008,0.004,0.016,0.006l0,0c0.215,0.105,0.49,0.209,0.805,0.271
			c-0.338,0.418-0.682,0.939-0.807,1.287c-0.24,0.106-0.74,0.389-1.904,1.132c-0.311,0.197-0.521,0.501-0.594,0.86
			c-0.078,0.358-0.01,0.725,0.197,1.03c0.258,0.39,0.684,0.604,1.125,0.604c0.236,0,0.477-0.063,0.693-0.193l1.994-1.198
			c0.311-0.076,1.861-0.541,3.035-2.44c0.924-1.489,1.439-2.689,1.652-3.232l0.035,0.018c0.121,0.06,0.254,0.091,0.389,0.091
			c0.223,0,0.443-0.089,0.605-0.244c0.172-0.163,0.266-0.387,0.266-0.625v-1.382C28.857-0.59,28.79-0.696,28.685-0.741z"/>
	</g>
	<g id="Faible">
		<path id="Famine" display="none" fill="#F9F9F9" d="M26.072,9.943l-2.307,0.437l-3.766-2.047l1.367-1.708l3.08,1.023L26.072,9.943
			z M29.616,5.94v0.256l-2.428,0.77l-2.398,0.34l-3.08-1.024L20.986,5.94H21.4c-0.098-0.916-0.23-1.61-0.295-2.519h-0.004
			c-0.002-0.027-0.033-0.636-0.041-0.895c-0.049-0.273-0.178-0.382-0.605-0.676c-0.234-0.151-0.408-0.206-0.508-0.204
			c-0.156,0-0.297,0.17-0.33,0.682c0.688,0.116,0.732,0.875,0.732,0.875c0.061,0.54-0.203,1.328-0.813,1.531
			c-1.129,0.378-1.014-1.795-0.377-2.316c0.018-0.625,0.193-1.2,0.787-1.222c0.236,0.002,0.479,0.098,0.756,0.275
			c0.131,0.08,0.24,0.161,0.334,0.244c-0.012-0.207-0.023-0.417-0.023-0.634c-0.002-0.456,0.068-0.954,0.475-1.306
			c0.209-0.19,0.443-0.288,0.674-0.286c0.605,0.029,0.977,0.549,1.193,1.08c0.254-0.111,0.57-0.165,0.934-0.039
			c0.928,0.322,1.428,1.938,1.039,2.501c-0.914,1.312-3.215-1.132-2.605-1.984c0,0,0.09-0.117,0.246-0.244
			c-0.178-0.471-0.537-0.892-0.807-0.862c-0.102,0.001-0.221,0.038-0.373,0.172c-0.256,0.225-0.322,0.546-0.322,0.967
			c0,0.296,0.035,0.625,0.035,0.956c0,0.172,0.012,0.324,0.018,0.49c0.041,0.294,0.043,0.521,0.041,0.831
			c0.063,0.906,0.43,1.649,0.527,2.583H29.616z M23.136,0.984l1.742,1.899c-0.311-1.347-1.416-2.097-1.416-2.097L23.136,0.984z
			 M19.523,2.613L19.21,2.741c0,0-0.154,1.062,0,1.616L19.523,2.613z M17.962,9.017l1.385-0.833l1.443-1.786L20.341,5.94H17.15
			l-0.634,1.264L17.962,9.017z M19.577,8.73l-2.454,1.671l0.327,0.405h5.648l-0.02-0.083L19.577,8.73z M14.527,5.94v1.926
			L16.1,7.023l0.477-1.083H14.527z M25.247,7.719l1.521,2.208l2.848,0.668V8.07l-2.049-0.661L25.247,7.719z M29.616,7.517V6.626
			l-1.598,0.432L29.616,7.517z M16.139,7.641l-1.612,0.768v2.397h1.179l1.756-1.438L16.139,7.641z M24.581,10.806h3.686
			l-1.762-0.427L24.581,10.806z"/>
		<path id="Cyclone" display="none" fill="#FFFFFF" d="M22.13,0.758c-0.078-0.004-0.154-0.013-0.232-0.013
			c-0.693,0-1.342,0.18-1.908,0.492c1.012-3.442,3.531-3.742,3.531-3.742s-5.568,0.464-5.568,6.962c0.004,0,0.008,0,0.012,0
			c-0.004,0.078-0.012,0.154-0.012,0.234c0,0.688,0.18,1.338,0.492,1.906c-3.442-1.011-3.744-3.53-3.744-3.53s0.463,5.57,6.964,5.57
			c0-0.005,0-0.007,0-0.013c0.076,0.004,0.154,0.013,0.23,0.013c0.693,0,1.342-0.181,1.908-0.494
			c-1.012,3.443-3.533,3.744-3.533,3.744s5.57-0.465,5.57-6.964c-0.004,0-0.008,0-0.012,0c0.004-0.078,0.012-0.153,0.012-0.231
			c0-0.691-0.18-1.342-0.492-1.906c3.439,1.01,3.742,3.531,3.742,3.531S28.63,0.746,22.13,0.746C22.13,0.75,22.13,0.754,22.13,0.758
			z"/>
		<path id="tsunami" display="none" fill="#FFFFFF" d="M28.896,9.275c-11.465,0.649-8.26-8.119-5.287-7.361
			C23.302,2.1,23.105,2.746,23.294,3.18c0.209,0.465,0.879,0.73,1.266,0.634c0.922-0.238,0.965-1.534,0.631-2.215
			c-0.344-0.708-1.256-1.581-2.846-1.581c-3.84,0-6.458,1.96-7.444,5.331v4.956h13.997V9.276L28.896,9.275L28.896,9.275z"/>
		<path id="earthquake" display="none" fill="#FFFFFF" d="M25.978,5.123c-0.197,0-0.377,0.109-0.471,0.283l-0.764,1.44l-0.941-2.76
			c-0.074-0.209-0.268-0.35-0.484-0.36c-0.229-0.006-0.424,0.122-0.512,0.326l-0.645,1.534l-1.02-6.111
			c-0.049-0.255-0.289-0.449-0.535-0.436c-0.262,0.006-0.479,0.179-0.512,0.438l-0.904,7.09l-0.729-3.806
			c-0.043-0.223-0.227-0.395-0.453-0.426c-0.225-0.032-0.451,0.09-0.549,0.296l-1.196,2.492h-1.856v1.063h2.191
			c0.204,0,0.392-0.118,0.479-0.3l0.643-1.339l1.037,5.397c0.049,0.251,0.266,0.433,0.521,0.433c0.004,0,0.01,0,0.014,0
			c0.26-0.008,0.477-0.204,0.514-0.461l0.887-6.969l0.742,4.587c0.043,0.232,0.229,0.407,0.465,0.434
			c0.236,0.021,0.457-0.106,0.551-0.324l0.797-1.895l0.889,2.6c0.066,0.202,0.246,0.343,0.457,0.361
			c0.211,0.011,0.414-0.094,0.514-0.281l1.189-2.244h2.279V5.123H25.978z"/>
	</g>
	<g id="Modéré">
	</g>
	<g id="Important">
	</g>
	<g id="Elevé">
	</g>
	<g id="Extreme" display="none">
		<path id="rebelion" display="inline" fill="#FFFFFF" d="M24.068,0.953c0,1.28-1.037,2.315-2.313,2.315
			c-1.281,0-2.318-1.037-2.318-2.315c0-1.281,1.037-2.316,2.318-2.316C23.031-1.363,24.068-0.328,24.068,0.953z M17.886,10.777
			h1.416h0.074l0.053-0.108l0.514-0.503l-0.475-0.103l-0.752-0.16L17.886,10.777z M27.575,1.383L27.079,1.88l0.033,0.034l-0.4,0.405
			c0.053,0.049,0.105,0.099,0.148,0.157l0.404-0.405l0.084,0.076l0.49-0.5L27.575,1.383z M24.378,3.952l-0.215,0.211l0.025,0.061
			l0.049,0.114l-3.379,3.387l0.363,0.078c0.334,0.07,0.621,0.27,0.809,0.558c0.025,0.041,0.033,0.091,0.053,0.134l0.012-0.012
			l0.25,0.165l0.088-0.019l0.982,0.714l0.662-0.906l-1.465-1.145l0.033-0.096h0.242l1.438-1.688l0.162-1.514L24.378,3.952z
			 M25.947,2.455c-0.438-0.048-0.863,0.279-0.914,0.732l-0.055,0.494l0,0l-0.033,0.357l-0.162,1.516l-0.014,0.141l-0.092,0.109
			l-1.289,1.511l0.971,0.761l0.352,0.273l-0.205,0.277l0.051,0.102c0.135,0.291,0.43,0.471,0.748,0.471
			c0.045,0,0.09-0.001,0.139-0.011c0.363-0.063,0.643-0.358,0.682-0.725l0.553-5.095C26.728,2.912,26.4,2.501,25.947,2.455z
			 M24.261,8.961l-0.475,0.651l-0.27,0.372l-0.371-0.271l-0.816-0.59l-0.07,0.018l-0.031-0.02c0,0.07-0.002,0.137-0.016,0.208
			c-0.018,0.068-0.041,0.129-0.066,0.194c-0.051,0.12-0.117,0.224-0.197,0.322l0.059,0.129c0.057,0.13,0.135,0.299,0.229,0.446
			l0.229,0.355h1.74L24.261,8.961z M20.95,10.348c-0.018,0-0.039-0.006-0.059-0.008c-0.008,0.037-0.014,0.064-0.014,0.064
			l0.195,0.37h0.473l0.305-0.107c-0.105-0.161-0.189-0.335-0.266-0.509C21.394,10.27,21.185,10.348,20.95,10.348z M21.632,8.595
			c-0.033-0.052-0.084-0.093-0.133-0.135c-0.025-0.025-0.049-0.061-0.084-0.081c-0.084-0.061-0.186-0.105-0.291-0.131l-0.359-0.073
			l-0.824-0.177l0,0l-0.729-0.155l-0.283-0.06l-0.467-0.101l-0.031-0.006l0.074-0.075l0.314-0.313l0.338-0.339
			c0.027,0.232,0.041,0.417,0.041,0.421l0.109,0.023l1.021,0.217l0.207-0.21l3.16-3.173L23.624,4.05l0.027-0.021
			c-0.457-0.138-0.998-0.217-1.676-0.217h-0.225c0,0-0.221,0-0.223,0c-0.477,0-0.959,0.032-1.43,0.137
			c-0.811,0.182-1.313,0.975-1.865,1.521c-0.568,0.561-1.124,1.147-1.679,1.724c-0.123,0.129-0.246,0.262-0.373,0.39
			c-0.214,0.215-0.292,0.529-0.206,0.821c0.083,0.291,0.323,0.51,0.62,0.576l1.093,0.233l0.465,0.098l2.625,0.56
			c0.061,0.009,0.117,0.019,0.174,0.019c0.385,0,0.727-0.267,0.811-0.655c0.031-0.153,0.008-0.297-0.039-0.434l-0.051-0.105
			C21.657,8.667,21.646,8.634,21.632,8.595z M20.472,10.618l-0.078-0.149l0.039-0.167l0.008-0.032l-0.127-0.027l-0.463,0.533h0.703
			L20.472,10.618z"/>
	</g>
	<path id="displaced" display="none" fill="#FFFFFF" d="M22.693-1.047c0.113,0.715-0.367,1.386-1.076,1.501
		c-0.713,0.118-1.391-0.364-1.506-1.075c-0.117-0.713,0.363-1.388,1.08-1.504C21.9-2.24,22.573-1.757,22.693-1.047z M22.284,4.137
		l1.154,1.848c0.166,0.26,0.504,0.344,0.77,0.19c0.268-0.159,0.357-0.496,0.213-0.766l-0.297-0.531
		c-0.258-0.453-0.506-0.911-0.76-1.366l-0.514-0.934c-0.059-0.111-0.117-0.233-0.178-0.36c-0.316-0.667-0.813-1.696-1.9-1.603
		c-0.928,0.082-1.873,0.524-2.801,1.313c-1.101,0.867-1.869,2.127-1.897,2.182c-0.038,0.053-0.071,0.112-0.098,0.164
		c-0.004,0.002-0.004,0.004-0.006,0.006l0,0c-0.104,0.194-0.156,0.372-0.027,0.599c0.103,0.177,0.292,0.286,0.494,0.286
		c0.25,0,0.375-0.118,0.498-0.292l0,0c0.002,0,0.002-0.003,0.002-0.003c0.034-0.052,0.066-0.108,0.106-0.165
		c0.006-0.011,0.65-1.046,1.648-1.897c0.309-0.242,0.602-0.408,0.875-0.499l-0.223,2.69c-0.023,0.266-0.105,0.726-0.178,0.982
		l-0.502,1.754c-0.066,0.22-0.252,0.588-0.398,0.767l-1.353,1.676c-0.171,0.213-0.363,0.453-0.205,0.787
		c0.096,0.198,0.295,0.324,0.513,0.324c0.262,0,0.402-0.149,0.58-0.342l1.367-1.476c0.244-0.264,0.564-0.721,0.721-1.045l0.68-1.381
		l2.512,4.218c0.121,0.208,0.277,0.469,0.617,0.469l0,0c0.195,0,0.375-0.101,0.477-0.262c0.184-0.279,0.063-0.533-0.041-0.762
		l-2.029-4.41c-0.078-0.174-0.123-0.525-0.09-0.715L22.284,4.137z M24.411,8.727h3.041V9.63l3.023-1.745l-3.023-1.746v0.904h-3.041
		V8.727z"/>
	<path id="epidemie" display="none" fill="#FFFFFF" d="M27.878,5.272c0-3.277-2.568-5.943-5.803-6.11
		c1.43,0.136,2.541,1.172,2.541,2.434c0,0.434-0.145,0.833-0.375,1.186c-0.639-0.636-1.516-1.027-2.484-1.027
		c-0.971,0-1.846,0.392-2.48,1.025c-0.23-0.353-0.375-0.752-0.375-1.186c0-1.259,1.111-2.297,2.537-2.434
		c-3.23,0.167-5.798,2.834-5.798,6.112c0,0.988,0.24,1.92,0.655,2.748c-0.568-1.294-0.224-2.75,0.854-3.372
		c0.376-0.216,0.796-0.294,1.214-0.271c-0.08,0.289-0.133,0.589-0.133,0.903c0,1.627,1.113,2.986,2.613,3.391
		c-0.021,0.035-0.045,0.068-0.066,0.103c0,0.003,0,0.003,0,0.008c-0.049,0.112-0.113,0.202-0.188,0.279
		c-0.16,0.211-0.348,0.398-0.586,0.536c-1.084,0.625-2.525,0.192-3.358-0.961c1.094,1.662,2.973,2.762,5.112,2.762
		c2.115,0,3.98-1.077,5.082-2.712c-0.838,1.117-2.254,1.527-3.32,0.915c-0.379-0.221-0.656-0.551-0.844-0.932
		c1.5-0.405,2.604-1.765,2.604-3.389c0-0.314-0.051-0.614-0.131-0.903c0.424-0.027,0.844,0.05,1.223,0.269
		c1.049,0.604,1.404,1.992,0.902,3.259C27.659,7.105,27.878,6.216,27.878,5.272z M22.407,7.628c-0.025-0.51,0.082-1.044,0.338-1.55
		l-0.408-0.234c-0.146,0.151-0.352,0.244-0.578,0.244s-0.434-0.092-0.58-0.244l-0.398,0.229c0.256,0.509,0.363,1.048,0.334,1.558
		c-1.035-0.283-1.803-1.226-1.803-2.35c0-0.216,0.033-0.418,0.088-0.616c0.451,0.229,0.861,0.585,1.176,1.056l0.408-0.239
		c-0.016-0.07-0.043-0.135-0.043-0.211c0-0.378,0.262-0.684,0.613-0.776V4.031c-0.568-0.037-1.082-0.213-1.512-0.492
		c0.443-0.436,1.049-0.704,1.715-0.704c0.668,0,1.271,0.27,1.715,0.706c-0.428,0.279-0.941,0.453-1.51,0.49v0.465
		c0.352,0.092,0.611,0.397,0.611,0.776c0,0.076-0.021,0.141-0.041,0.211l0.416,0.242c0.313-0.471,0.723-0.826,1.17-1.054
		c0.049,0.194,0.086,0.397,0.086,0.608C24.204,6.402,23.441,7.342,22.407,7.628z"/>
	<path id="enlevement" display="none" fill="#FFFFFF" d="M26.861-2.043c-0.379,0-0.688,0.312-0.688,0.691v2.811
		c0.166,0.037,0.324,0.106,0.453,0.232c0.363,0.359,0.373,0.947,0.018,1.314l-1.307,1.344l-0.184-0.174l1.314-1.341
		c0.262-0.271,0.254-0.703-0.016-0.969c-0.084-0.08-0.184-0.135-0.287-0.165c-0.115-0.031-0.232-0.033-0.346-0.01
		c-0.127,0.033-0.24,0.097-0.33,0.192c-0.775,0.795-1.555,1.592-2.33,2.389c-0.195,0.2-0.551,0.657-0.541,1.112
		c0.01,0.429-0.004,0.869,0.002,1.299c-0.102-0.081-0.225-0.142-0.361-0.167c-0.4-0.065-0.764,0.173-0.9,0.53h-0.203
		c0-0.097,0-0.196,0.002-0.293c0.01-0.45-0.008-0.916,0.004-1.366c0.01-0.457-0.346-0.914-0.541-1.114
		c-0.775-0.796-1.551-1.593-2.332-2.39c-0.088-0.094-0.199-0.159-0.328-0.19c-0.113-0.023-0.23-0.021-0.346,0.01
		c-0.105,0.03-0.205,0.086-0.289,0.165c-0.266,0.264-0.272,0.696-0.012,0.969l1.313,1.339L18.445,4.35l-1.308-1.344
		c-0.357-0.368-0.348-0.956,0.018-1.313c0.128-0.124,0.287-0.196,0.455-0.233v-2.811c0-0.38-0.311-0.691-0.689-0.691
		c-0.383,0-0.69,0.311-0.69,0.691v4.867c0,0.159,0.063,0.305,0.159,0.423l2.349,3.104h-0.209c-0.455,0-0.83,0.372-0.83,0.833
		c0,0.305,0.172,0.56,0.416,0.704c-0.244,0.145-0.416,0.401-0.416,0.703c0,0.461,0.373,0.833,0.83,0.833h0.254v0.462h2.311
		c0.121,0.121,0.26,0.208,0.432,0.237c0.047,0.007,0.09,0.011,0.137,0.011c0.406,0,0.752-0.289,0.818-0.689l0.004-0.021h0.146
		c0.002,0.153,0,0.304,0.018,0.462h2.348v-0.462h0.258c0.455,0,0.828-0.371,0.828-0.833c0-0.302-0.172-0.558-0.418-0.703
		c0.246-0.144,0.418-0.399,0.418-0.706c0-0.459-0.371-0.831-0.828-0.831h-0.209l2.35-3.106c0.098-0.118,0.16-0.264,0.16-0.423
		v-4.865C27.552-1.733,27.243-2.043,26.861-2.043z M18.115,7.874c0-0.229,0.189-0.415,0.414-0.415h2.727L21.109,8.29h-2.58
		C18.302,8.288,18.115,8.105,18.115,7.874z M18.115,9.283c0-0.227,0.189-0.417,0.414-0.417h2.482l-0.146,0.833h-2.336
		C18.302,9.699,18.115,9.516,18.115,9.283z M22.068,10.065c-0.035,0.229-0.271,0.377-0.479,0.342c-0.109-0.02-0.203-0.08-0.27-0.168
		c-0.064-0.092-0.088-0.202-0.068-0.311l0.457-2.662c0.035-0.202,0.211-0.345,0.416-0.345c0.021,0,0.043,0,0.066,0.004
		c0.225,0.039,0.377,0.254,0.338,0.48L22.068,10.065z M25.665,9.283c0,0.231-0.188,0.416-0.414,0.416h-2.697l0.145-0.833h2.553
		C25.478,8.868,25.665,9.056,25.665,9.283z M25.665,7.874c0,0.229-0.188,0.414-0.414,0.414H22.8l0.139-0.813
		c0.002-0.006,0-0.011,0-0.017h2.311C25.478,7.46,25.665,7.647,25.665,7.874z"/>
	<path id="eruption" display="none" fill="#FFFFFF" d="M22.995,2.006c0.828,0.283,1.932,0.618,2.162-0.721
		c0.189-1.041,1.576-0.655,2.166-0.721c1.078-0.124,0.266-2.137-1.082-2.167c-1.361-0.03-1.982,0.568-2.523,1.804
		c-0.262,0.595-0.48,1.043-1.443,0.723c-0.963-0.322-1.668,0.469-1.084,1.444c0.52,0.862-0.008,1.803-0.008,1.803h1.453
		c0,0-0.012-0.535-0.361-1.083C21.865,2.451,22.146,1.713,22.995,2.006z M15.303,10.984c3.735-2.72,4.668-6.484,4.668-6.484h3.836
		c0,0,0.934,3.762,4.668,6.484H15.303z"/>
	<path id="returned" display="none" fill="#FFFFFF" d="M21.503-0.413c0.094,0.588-0.307,1.143-0.891,1.24
		c-0.588,0.097-1.143-0.303-1.24-0.889c-0.096-0.589,0.301-1.144,0.891-1.24C20.847-1.4,21.407-1.002,21.503-0.413z M21.165,3.865
		l0.955,1.527c0.135,0.213,0.416,0.283,0.637,0.154c0.217-0.129,0.291-0.409,0.17-0.631l-0.242-0.437
		c-0.211-0.374-0.414-0.752-0.625-1.128l-0.426-0.773c-0.049-0.087-0.098-0.188-0.146-0.294c-0.264-0.55-0.674-1.401-1.568-1.322
		c-0.77,0.065-1.547,0.43-2.313,1.081c-0.908,0.716-1.542,1.757-1.572,1.8c-0.027,0.046-0.055,0.093-0.08,0.138
		c-0.001,0.002-0.003,0.002-0.003,0.004l0,0c-0.085,0.16-0.127,0.307-0.021,0.494c0.083,0.147,0.238,0.238,0.409,0.238
		c0.204,0,0.308-0.097,0.408-0.242l0,0c0.002-0.002,0.002-0.002,0.002-0.002c0.028-0.044,0.058-0.091,0.088-0.14
		c0.006-0.007,0.54-0.862,1.362-1.565c0.254-0.198,0.494-0.336,0.723-0.412L18.74,4.578c-0.02,0.221-0.088,0.598-0.15,0.812
		l-0.41,1.447c-0.055,0.183-0.209,0.486-0.33,0.634l-1.118,1.383c-0.142,0.177-0.3,0.375-0.168,0.651
		c0.078,0.161,0.242,0.266,0.422,0.266c0.215,0,0.331-0.124,0.481-0.283l1.129-1.218c0.203-0.218,0.465-0.595,0.594-0.863
		l0.559-1.139l2.074,3.482c0.104,0.172,0.232,0.385,0.514,0.385l0,0c0.16,0,0.309-0.082,0.396-0.219
		c0.146-0.229,0.049-0.436-0.037-0.625l-1.676-3.643c-0.066-0.141-0.104-0.432-0.076-0.589L21.165,3.865z M28.146,4.642
		c0-1.521-1.238-2.755-2.756-2.755h-1.17v1.391h1.168c0.752,0,1.361,0.61,1.361,1.364c0,0.752-0.609,1.364-1.361,1.364h-0.242V5.259
		L22.65,6.701l2.496,1.442V7.394h0.271V7.392C26.923,7.378,28.146,6.152,28.146,4.642z"/>
	<path id="Attack" display="none" fill="#FFFFFF" d="M25.101,5.634l4.102-2.625L25.24,2.588l1.076-4.604l-2.811,2.905l-0.783-3.282
		l-1.178,3.064l-3.211-4.138l1.01,5.184l-2.856-0.634c0,0,0.868,1.661,1.352,2.661l-4.582-0.322l4.146,2.424l-1.19,1.225
		l1.928-0.352l-1.367,4.83l4.058-3.395l1.055,2.624L22.97,8.68l3.5,3.614l-1.75-4.839l3.838,0.389L25.101,5.634z"/>
	<g id="affected" display="none">
		<path display="inline" fill="#FFFFFF" d="M18.618-0.766c0,0.595-0.484,1.076-1.076,1.076c-0.595,0-1.079-0.482-1.079-1.076
			c0-0.594,0.481-1.075,1.079-1.075C18.136-1.841,18.618-1.361,18.618-0.766z M17.654,6.603l0.234,3.972
			c0,0.139,0.113,0.251,0.25,0.251c0.141,0,0.256-0.114,0.256-0.251l0.213-3.97h0.703L18.583,2.15l1.463,2.91
			c0.055,0.129,0.201,0.188,0.33,0.136c0.129-0.055,0.191-0.202,0.137-0.331c0,0-1.07-2.897-1.338-3.436
			c-0.266-0.541-0.523-0.87-1.531-0.87h-0.205c-1.003,0-1.267,0.327-1.531,0.87c-0.262,0.541-1.336,3.436-1.336,3.436
			c-0.054,0.132,0.006,0.277,0.135,0.333c0.13,0.054,0.276-0.007,0.332-0.136l1.46-2.91l-0.727,4.451h0.702l0.22,3.97
			c0,0.139,0.113,0.251,0.25,0.251c0.143,0,0.254-0.114,0.254-0.251l0.219-3.97H17.654L17.654,6.603z M26.238-1.846
			c-0.596,0-1.08,0.483-1.08,1.076c0,0.595,0.48,1.078,1.08,1.078c0.592,0,1.076-0.482,1.076-1.078
			C27.314-1.363,26.829-1.846,26.238-1.846z M27.351,4.489l0.07-2.341L28.74,5.06c0.051,0.129,0.201,0.188,0.328,0.134
			c0.133-0.055,0.193-0.201,0.141-0.331c0,0-0.93-2.897-1.191-3.436c-0.264-0.539-0.672-0.868-1.676-0.868h-0.207
			c-1.004,0-1.414,0.327-1.678,0.868c-0.26,0.539-1.189,3.434-1.189,3.434C23.21,4.993,23.271,5.137,23.4,5.194
			c0.127,0.056,0.281-0.005,0.33-0.134l1.32-2.912l0.066,2.341l-0.207,5.885c-0.012,0.233,0.162,0.434,0.395,0.451
			c0.012,0.002,0.023,0.002,0.031,0.002c0.219,0,0.408-0.17,0.424-0.393l0.477-4.846l0.48,4.846c0.014,0.224,0.199,0.393,0.42,0.393
			c0.01,0,0.021,0,0.029-0.002c0.234-0.017,0.408-0.218,0.395-0.451L27.351,4.489L27.351,4.489z M21.89,4.699
			c-0.367,0-0.664,0.294-0.664,0.659c0,0.365,0.295,0.658,0.664,0.658c0.361,0,0.656-0.294,0.656-0.658
			C22.546,4.994,22.253,4.699,21.89,4.699z M21.89,8.586c0,0,0.295,2.063,0.295,2.065c0.041,0.103,0.135,0.174,0.254,0.174
			c0.117,0,0.217-0.079,0.254-0.186c0-0.008,0.008-0.127,0-0.149L22.57,7.954l0.041-0.873c0.035-0.296,0.039-0.207,0.377-0.409
			c0.344-0.207,0.93-1.114,0.955-1.158c0.033-0.045,0.086-0.124,0.098-0.177c0.016-0.091-0.047-0.176-0.137-0.196
			c-0.068-0.011-0.125,0.025-0.17,0.072c-0.047,0.051-0.719,0.948-1.223,1.033C22.396,6.228,22.277,6.17,21.95,6.17h-0.125
			c-0.322,0-0.443,0.06-0.559,0.076c-0.506-0.085-1.18-0.982-1.229-1.033c-0.041-0.046-0.098-0.083-0.168-0.072
			c-0.088,0.02-0.15,0.105-0.133,0.196c0.01,0.05,0.064,0.129,0.092,0.177c0.029,0.044,0.615,0.951,0.957,1.158
			c0.338,0.202,0.348,0.112,0.379,0.409l0.037,0.873l-0.119,2.538c-0.006,0.022,0,0.143,0.008,0.149
			c0.033,0.106,0.133,0.186,0.252,0.186c0.113,0,0.211-0.071,0.246-0.174C21.591,10.651,21.89,8.586,21.89,8.586"/>
	</g>
	<g id="foodsec" display="none">
		<path display="inline" fill="#FFFFFF" d="M29.224,5.718L29.224,5.718c-0.037,1.054-0.396,2.197-0.949,3.251
			c0,0-1.314,2.664-5.447,2.664c-4.137,0-5.475-2.643-5.475-2.643c-0.555-1.059-0.887-2.195-0.931-3.274h0.001
			c0-0.027-0.001-0.055-0.001-0.083c0-0.506,0.313-0.981,0.853-1.39l0.576,0.368c-0.359,0.238-0.563,0.506-0.563,0.789
			c0,1,2.479,1.81,5.539,1.81c3.055,0,5.529-0.81,5.529-1.81c0-0.69-1.186-1.291-2.932-1.595l0.01-0.727
			c2.229,0.438,3.791,1.415,3.791,2.554C29.228,5.661,29.226,5.689,29.224,5.718z M18.55,1.418c-0.023,0.168-0.051,0.44,0.158,0.81
			c0.26,0.446,0.592,0.603,0.695,0.678c-0.016-0.116,0.016-0.461-0.227-0.88c-0.209-0.373-0.438-0.542-0.574-0.672
			c-0.381-0.55-0.813-0.994-1.145-1.341l-0.782-0.814c0,0,0.283,0.326,0.75,0.841C17.753,0.401,18.175,0.858,18.55,1.418z
			 M20.511,5.723c0.166,0.157,0.379,0.415,0.85,0.677c0.527,0.294,0.973,0.294,1.121,0.329c-0.082-0.138-0.254-0.573-0.836-0.897
			c-0.479-0.264-0.834-0.212-1.055-0.175c-0.723-0.42-1.342-0.851-1.842-1.157c-0.711-0.439-1.172-0.664-1.17-0.664
			c-0.002,0,0.447,0.246,1.146,0.708C19.204,4.863,19.798,5.299,20.511,5.723z M20.935,3.427c-0.061,0.194-0.141,0.51,0.045,0.971
			c0.217,0.566,0.586,0.802,0.697,0.906c0.002-0.137,0.1-0.529-0.107-1.06c-0.184-0.473-0.424-0.707-0.559-0.882
			c-0.359-0.707-0.795-1.294-1.129-1.751l-0.801-1.079l0.758,1.101C20.161,2.108,20.587,2.712,20.935,3.427z M19.591,4.574
			c0.158,0.144,0.361,0.382,0.809,0.617c0.498,0.261,0.914,0.25,1.051,0.278c-0.082-0.123-0.254-0.524-0.801-0.812
			C20.2,4.421,19.868,4.473,19.665,4.51c-0.678-0.378-1.262-0.767-1.73-1.047c-0.672-0.4-1.107-0.601-1.103-0.603
			c-0.004,0.003,0.421,0.227,1.078,0.647C18.359,3.794,18.923,4.193,19.591,4.574z M18.634,3.445c0.146,0.13,0.34,0.347,0.754,0.554
			c0.469,0.237,0.852,0.22,0.98,0.242c-0.08-0.114-0.244-0.477-0.756-0.734c-0.418-0.211-0.725-0.157-0.91-0.121
			c-0.635-0.341-1.182-0.693-1.619-0.949c-0.627-0.365-1.031-0.548-1.029-0.55c-0.002,0.002,0.394,0.205,1.007,0.587
			C17.482,2.739,18.009,3.1,18.634,3.445z M17.657,1.798c0.277,0.25,0.545,0.265,0.695,0.313c-0.031-0.122-0.006-0.424-0.324-0.707
			c-0.271-0.234-0.547-0.253-0.688-0.265c-1.125-0.963-2.124-1.581-2.353-1.729l-0.049-0.034c-0.009,0.007,1.088,0.73,2.375,1.86
			C17.357,1.375,17.431,1.606,17.657,1.798z M17.636,2.331c0.141,0.116,0.316,0.313,0.705,0.5c0.428,0.213,0.783,0.192,0.902,0.211
			c-0.074-0.103-0.232-0.43-0.703-0.663c-0.389-0.187-0.67-0.14-0.844-0.105c-0.586-0.304-1.09-0.629-1.499-0.858
			c-0.579-0.331-0.954-0.496-0.954-0.496s0.367,0.182,0.932,0.533C16.569,1.687,17.057,2.017,17.636,2.331z M19.775,2.39
			c-0.041,0.181-0.094,0.477,0.104,0.891c0.242,0.508,0.594,0.7,0.705,0.793c-0.008-0.126,0.051-0.494-0.174-0.973
			c-0.203-0.423-0.438-0.626-0.57-0.775c-0.375-0.63-0.809-1.146-1.145-1.549L17.9-0.168l0.758,0.971
			C18.986,1.22,19.409,1.753,19.775,2.39z M24.193,3.472c-0.125,0.124-0.326,0.331-0.387,0.76C23.73,4.753,23.9,5.083,23.937,5.21
			c0.063-0.104,0.307-0.364,0.381-0.854c0.066-0.438-0.012-0.715-0.039-0.903c0.037-0.686-0.043-1.316-0.102-1.802
			C24.093,0.942,24.031,0.5,24.031,0.5l0.105,1.151C24.177,2.146,24.24,2.784,24.193,3.472z M23.788,2.303
			c-0.111,0.124-0.279,0.327-0.311,0.727c-0.039,0.488,0.141,0.783,0.186,0.899c0.045-0.101,0.26-0.358,0.297-0.816
			c0.029-0.409-0.059-0.66-0.098-0.834c-0.004-0.634-0.113-1.211-0.193-1.658l-0.195-1.054l0.16,1.056
			C23.698,1.081,23.79,1.664,23.788,2.303z M23.318,1.158c-0.094,0.12-0.236,0.32-0.24,0.69c-0.006,0.451,0.182,0.71,0.229,0.813
			c0.039-0.096,0.215-0.347,0.223-0.769c0.002-0.38-0.094-0.603-0.139-0.76c-0.049-0.584-0.178-1.106-0.279-1.511l-0.24-0.959
			l0.203,0.963C23.157,0.04,23.279,0.571,23.318,1.158z M24.146,6.506C24.22,6.4,24.499,6.14,24.618,5.618
			c0.102-0.462,0.035-0.767,0.02-0.972c0.082-0.736,0.039-1.418,0.01-1.943c-0.053-0.768-0.094-1.246-0.094-1.246l0.039,1.244
			c0.021,0.534,0.049,1.222-0.049,1.958c-0.145,0.126-0.367,0.334-0.469,0.789C23.956,6.001,24.115,6.365,24.146,6.506z
			 M21.798,0.406c0.059,0.129,0.113,0.338,0.328,0.601c0.236,0.301,0.496,0.399,0.578,0.453c-0.02-0.1-0.016-0.391-0.273-0.719
			c-0.215-0.267-0.436-0.326-0.57-0.356c-0.314-0.421-0.564-0.822-0.779-1.124c-0.299-0.438-0.514-0.68-0.512-0.682
			c-0.002,0.002,0.199,0.255,0.484,0.697C21.253-0.419,21.488-0.013,21.798,0.406z M21.997,0.023
			c0.117,0.274,0.303,0.375,0.395,0.459c0.018-0.1,0.145-0.313,0.016-0.625c-0.111-0.262-0.307-0.367-0.404-0.421
			c-0.471-1.082-0.969-1.864-1.084-2.048l-0.025-0.041c-0.008,0.004,0.527,0.898,1.057,2.152
			C21.931-0.387,21.904-0.195,21.997,0.023z M22.468,2.213c0.252,0.325,0.539,0.442,0.623,0.501
			c-0.014-0.112-0.006-0.432-0.283-0.79c-0.23-0.292-0.467-0.357-0.617-0.392c-0.338-0.459-0.607-0.899-0.832-1.231
			c-0.324-0.474-0.547-0.742-0.547-0.744c0,0,0.211,0.281,0.516,0.763c0.213,0.333,0.465,0.771,0.793,1.235
			C22.183,1.699,22.245,1.92,22.468,2.213z M22.777,0.04c-0.074,0.118-0.188,0.307-0.172,0.646C22.636,1.1,22.82,1.323,22.87,1.414
			c0.025-0.089,0.172-0.331,0.146-0.721c-0.021-0.344-0.125-0.542-0.178-0.684c-0.078-0.527-0.236-0.998-0.35-1.359l-0.277-0.859
			c0,0,0.086,0.331,0.242,0.867C22.558-0.971,22.706-0.494,22.777,0.04z M22.413,2.701C22.478,2.86,22.54,3.1,22.777,3.418
			c0.268,0.356,0.568,0.486,0.662,0.555c-0.014-0.121,0.002-0.469-0.289-0.863c-0.242-0.322-0.498-0.392-0.66-0.431
			c-0.355-0.503-0.639-0.98-0.875-1.342c-0.346-0.516-0.588-0.808-0.588-0.81c0,0.002,0.227,0.307,0.551,0.832
			C21.8,1.72,22.066,2.197,22.413,2.701z M18.947,5.849c0,0.002,0.396,0.225,1.014,0.662c0.045,0.008,0.086,0.018,0.133,0.028
			C19.398,6.078,18.947,5.849,18.947,5.849z M23.878,6.715c-0.092-0.141-0.188-0.25-0.283-0.331
			c-0.033-0.089-0.066-0.172-0.104-0.246c0.209,0.215,0.404,0.32,0.48,0.379c0-0.007,0-0.021,0-0.034
			c0.023,0.082,0.045,0.168,0.074,0.256c0.037-0.002,0.08-0.006,0.117-0.008c-0.07-0.248-0.152-0.488-0.238-0.715
			c-0.033-0.124-0.082-0.255-0.164-0.401c-0.078-0.178-0.154-0.35-0.23-0.514c0.094,0.063,0.17,0.105,0.209,0.136
			c-0.01-0.129,0.02-0.506-0.287-0.936c-0.182-0.252-0.373-0.364-0.529-0.425l-0.484-0.945c0,0,0.158,0.345,0.43,0.926
			c-0.043-0.012-0.08-0.025-0.111-0.033c-0.375-0.549-0.67-1.066-0.924-1.455c-0.355-0.561-0.611-0.878-0.609-0.878
			c0,0.002,0.238,0.33,0.578,0.899c0.23,0.392,0.508,0.909,0.871,1.457c0.063,0.168,0.125,0.431,0.373,0.778
			c0.115,0.163,0.236,0.281,0.352,0.372c0.041,0.095,0.086,0.194,0.129,0.298c-0.207-0.211-0.422-0.277-0.563-0.32
			c-0.041-0.063-0.08-0.128-0.117-0.189c-0.242-0.518-0.5-0.973-0.717-1.353c-0.479-0.833-0.787-1.342-0.785-1.342l0.729,1.366
			c0.057,0.102,0.113,0.215,0.174,0.327c-0.08-0.136-0.154-0.266-0.227-0.384C21.65,2.797,21.38,2.459,21.38,2.457
			c0,0.002,0.248,0.354,0.6,0.969c0.207,0.362,0.447,0.823,0.742,1.322c0.133,0.291,0.256,0.599,0.365,0.924
			c-0.029,0.065-0.066,0.148-0.094,0.246c-0.33-0.562-0.598-1.083-0.836-1.484c-0.078-0.134-0.148-0.25-0.215-0.359
			c-0.301-0.618-0.645-1.148-0.924-1.575c-0.482-0.749-0.795-1.209-0.795-1.209l0.748,1.232c0.318,0.529,0.738,1.209,1.063,2
			c-0.074,0.205-0.188,0.538-0.021,1.048c0.195,0.622,0.572,0.902,0.686,1.024c0.01-0.137,0.125-0.515-0.012-1.048
			c0.086,0.161,0.176,0.326,0.271,0.497c-0.035,0.192-0.049,0.435,0.029,0.74c0.305-0.002,0.611-0.012,0.908-0.031
			C23.89,6.739,23.886,6.729,23.878,6.715z M19.525,5.561c-0.752-0.483-1.244-0.725-1.242-0.727c-0.002,0,0.477,0.267,1.211,0.771
			c0.428,0.294,0.945,0.682,1.541,1.08c0.076,0.009,0.15,0.015,0.225,0.023C20.587,6.285,20.003,5.866,19.525,5.561z M24.941,5.859
			c0.143-0.781,0.129-1.517,0.129-2.083l-0.021-1.342c0,0-0.016,0.512-0.023,1.337c-0.018,0.576-0.029,1.314-0.18,2.095
			c-0.166,0.125-0.414,0.334-0.559,0.81c-0.004,0.016-0.006,0.029-0.012,0.045c0.215-0.022,0.428-0.045,0.631-0.074
			C24.976,6.297,24.945,6.04,24.941,5.859z"/>
	</g>
	<g id="funding" display="none">
		<path display="inline" fill="#FFFFFF" d="M26.788-0.522l-1.77,1.651h-6.387l-1.774-1.651c0,0,0.883-1.234,2.336-1.396
			c1.422-0.159,1.916,0.714,2.631,0.751c0.711-0.037,1.207-0.909,2.629-0.751C25.907-1.756,26.788-0.522,26.788-0.522z M22.07,7.397
			v1.246c0.189-0.031,0.342-0.104,0.461-0.222c0.119-0.12,0.178-0.258,0.178-0.417c0-0.141-0.053-0.265-0.15-0.366
			C22.46,7.533,22.296,7.454,22.07,7.397z M21.031,5.803c0,0.115,0.041,0.217,0.123,0.314c0.082,0.099,0.203,0.176,0.365,0.236
			V5.249c-0.146,0.041-0.266,0.114-0.354,0.217C21.075,5.569,21.031,5.679,21.031,5.803z M27.866,10.083
			c0,0-0.387,1.474-2.158,1.474h-7.766c-1.772,0-2.159-1.474-2.159-1.474c-1.156-5.117,2.37-7.892,2.37-7.892h7.346
			C25.499,2.191,29.023,4.966,27.866,10.083z M23.634,7.889c0-0.346-0.111-0.627-0.33-0.848c-0.219-0.222-0.629-0.396-1.234-0.54
			V5.256c0.244,0.087,0.396,0.26,0.455,0.51l0.955-0.105c-0.064-0.318-0.217-0.574-0.453-0.762
			c-0.238-0.189-0.559-0.306-0.957-0.346V4.237h-0.551v0.316c-0.434,0.037-0.779,0.172-1.041,0.409
			c-0.262,0.238-0.391,0.531-0.391,0.88c0,0.346,0.113,0.638,0.346,0.882c0.23,0.238,0.594,0.418,1.086,0.538v1.335
			c-0.135-0.054-0.26-0.144-0.369-0.268c-0.111-0.124-0.188-0.271-0.227-0.44l-0.986,0.09c0.076,0.418,0.248,0.744,0.521,0.971
			c0.273,0.232,0.627,0.368,1.063,0.413v0.579h0.551V9.348c0.49-0.059,0.877-0.222,1.152-0.484
			C23.497,8.599,23.634,8.273,23.634,7.889z"/>
	</g>
	<g id="Education">
		<path fill="#FFFFFF" d="M16.668,9.452c-0.519-0.498-3.506-2.224-7.594-0.465c0,0.025,0,0.516,0,1.257v8.4h6.193
			c0.212,0.182,0.72,0.312,1.31,0.312c0.591,0,1.1-0.128,1.311-0.312h6.229v-8.397c0-0.745,0-1.233,0-1.258
			C20.198,7.261,17.065,9.088,16.668,9.452z M16.114,18.046c0-0.33-2.907-2.266-6.264-0.155v-8.19
			c0.664-0.383,1.559-0.615,2.545-0.615c2.055,0,3.719,0.672,3.719,1.923V18.046z M23.386,17.89
			c-3.355-2.111-6.258-0.174-6.258,0.156v-7.035c0-1.249,1.659-1.923,3.715-1.923c0.982,0,1.881,0.235,2.543,0.614V17.89
			L23.386,17.89z"/>
	</g>
</g>
</svg>
