<?xml version="1.0" encoding="utf-8"?>
<!-- Generator: Adobe Illustrator 16.0.0, SVG Export Plug-In . SVG Version: 6.00 Build 0)  -->
<!DOCTYPE svg PUBLIC "-//W3C//DTD SVG 1.1//EN" "http://www.w3.org/Graphics/SVG/1.1/DTD/svg11.dtd">
<svg version="1.1" id="Groupe" xmlns="http://www.w3.org/2000/svg" xmlns:xlink="http://www.w3.org/1999/xlink" x="0px" y="0px"
	 width="15.871px" height="15.65px" viewBox="0 0 15.871 15.65" enable-background="new 0 0 15.871 15.65" xml:space="preserve">
<g id="PinColor_1_">
	<path id="vert" fill="#2ABF00" stroke="#1D7500" stroke-width="0.2" stroke-miterlimit="10" d="M15.265,7.875
		c0,3.351-2.398,6.159-5.633,6.903c-0.543,0.121-2.891,0.121-3.452-0.021c-3.2-0.758-5.575-3.551-5.575-6.884
		c0-3.909,3.284-7.089,7.329-7.089C11.978,0.784,15.265,3.964,15.265,7.875z"/>
	<path id="orange" display="none" fill="#FF8500" stroke="#7F4500" stroke-width="0.2" stroke-miterlimit="10" d="M15.265,7.875
		c0,3.351-2.398,6.159-5.633,6.903c-0.543,0.121-2.891,0.121-3.452-0.021c-3.2-0.758-5.575-3.551-5.575-6.884
		c0-3.909,3.284-7.089,7.329-7.089C11.978,0.784,15.265,3.964,15.265,7.875z"/>
	<path id="gris" display="none" fill="#A5A5A5" stroke="#595959" stroke-width="0.2" stroke-miterlimit="10" d="M15.265,7.875
		c0,3.351-2.398,6.159-5.633,6.903c-0.543,0.121-2.891,0.121-3.452-0.021c-3.2-0.758-5.575-3.551-5.575-6.884
		c0-3.909,3.284-7.089,7.329-7.089C11.978,0.784,15.265,3.964,15.265,7.875z"/>
	<path id="bleu" display="none" fill="#0092FF" stroke="#00477C" stroke-width="0.2" stroke-miterlimit="10" d="M15.265,7.875
		c0,3.351-2.398,6.159-5.633,6.903c-0.543,0.121-2.891,0.121-3.452-0.021c-3.2-0.758-5.575-3.551-5.575-6.884
		c0-3.909,3.284-7.089,7.329-7.089C11.978,0.784,15.265,3.964,15.265,7.875z"/>
</g>
<g id="IconsGroup">
	<g id="MinimalGroup" display="none">
		<path id="ElectionGroup" display="inline" fill="#565656" d="M4.571,1.668L3.667,1.281C3.642,1.27,3.608,1.277,3.592,1.3
			L3.333,1.623C3.321,1.635,3.317,1.658,3.321,1.677C3.325,1.697,3.337,1.71,3.354,1.718l-0.81,0.307
			C2.476,2.047,2.417,2.094,2.38,2.158L2.112,2.604C2.055,2.699,2.05,2.815,2.1,2.914l0.02,0.038H1.837
			c-0.036,0-0.064,0.029-0.064,0.064v1.225H1.579c-0.035,0-0.063,0.029-0.063,0.063s0.029,0.063,0.063,0.063H3.77
			c0.035,0,0.063-0.029,0.063-0.063S3.805,4.241,3.77,4.241H3.577V3.583c0-0.021-0.012-0.043-0.028-0.054
			C3.53,3.516,3.506,3.514,3.485,3.525c-0.07,0.033-0.124,0.05-0.147,0.058c-0.005,0-0.011,0.003-0.015,0.006L2.903,3.84
			C2.836,3.88,2.76,3.902,2.683,3.902c-0.145,0-0.275-0.071-0.357-0.192C2.26,3.613,2.237,3.497,2.262,3.383
			C2.286,3.269,2.354,3.172,2.45,3.109L2.512,3.07c0.045-0.026,0.085-0.051,0.12-0.073c0.025-0.015,0.035-0.046,0.027-0.074
			C2.644,2.871,2.618,2.825,2.592,2.79C2.69,2.748,2.823,2.671,2.891,2.593l0,0C2.905,2.601,2.922,2.611,2.94,2.62
			c0.002,0,0.002,0,0.004,0.001l0,0c0.047,0.023,0.107,0.047,0.178,0.062C3.047,2.775,2.971,2.89,2.942,2.967
			C2.892,2.991,2.78,3.052,2.521,3.218C2.452,3.26,2.405,3.33,2.389,3.41C2.372,3.489,2.387,3.57,2.433,3.638
			c0.059,0.087,0.152,0.135,0.25,0.135c0.053,0,0.105-0.017,0.154-0.043L3.28,3.464c0.068-0.017,0.413-0.12,0.674-0.542
			c0.205-0.331,0.32-0.597,0.367-0.718l0.008,0.004c0.027,0.012,0.059,0.021,0.086,0.021c0.052,0,0.102-0.021,0.137-0.057
			C4.589,2.137,4.61,2.088,4.61,2.035V1.727C4.608,1.701,4.595,1.677,4.571,1.668z"/>
	</g>
	<g id="FaibleGroup" display="none">
		<path id="FamineGroup" display="inline" fill="#F9F9F9" d="M3.901,3.938l-0.49,0.093L2.612,3.594l0.291-0.359l0.653,0.217
			L3.901,3.938z M4.653,3.088v0.057L4.138,3.305L3.629,3.378L2.975,3.161L2.821,3.088h0.088C2.888,2.894,2.86,2.746,2.846,2.552l0,0
			C2.845,2.548,2.838,2.419,2.837,2.364c-0.01-0.06-0.038-0.082-0.129-0.146C2.657,2.188,2.62,2.177,2.601,2.177
			c-0.033,0-0.063,0.036-0.07,0.146c0.146,0.024,0.155,0.186,0.155,0.186C2.699,2.623,2.642,2.79,2.513,2.834
			c-0.238,0.079-0.215-0.381-0.08-0.492c0.004-0.133,0.041-0.255,0.168-0.26c0.051,0,0.102,0.021,0.16,0.06
			c0.027,0.018,0.051,0.032,0.07,0.053c-0.002-0.045-0.004-0.09-0.004-0.137c0-0.099,0.015-0.201,0.101-0.276
			C2.972,1.74,3.021,1.718,3.072,1.718c0.127,0.009,0.205,0.117,0.252,0.229C3.377,1.924,3.444,1.913,3.52,1.94
			c0.197,0.065,0.305,0.411,0.223,0.528c-0.195,0.28-0.683-0.237-0.555-0.42c0,0,0.02-0.022,0.053-0.052
			c-0.039-0.1-0.114-0.188-0.17-0.183c-0.022,0-0.049,0.008-0.08,0.036C2.937,1.899,2.922,1.967,2.922,2.056
			C2.922,2.12,2.93,2.19,2.93,2.26c0,0.037,0.002,0.069,0.003,0.104c0.01,0.063,0.01,0.109,0.01,0.176
			c0.014,0.192,0.09,0.352,0.112,0.548H4.653z M3.276,2.036l0.372,0.403c-0.066-0.286-0.3-0.445-0.3-0.445L3.276,2.036z M2.51,2.382
			L2.444,2.409c0,0-0.033,0.226,0,0.343L2.51,2.382z M2.179,3.741l0.294-0.177l0.306-0.379L2.684,3.088H2.007L1.872,3.358
			L2.179,3.741z M2.521,3.679l-0.52,0.354L2.069,4.12h1.199L3.265,4.104L2.521,3.679z M1.45,3.088v0.409l0.332-0.179l0.103-0.23
			H1.45z M3.726,3.465l0.323,0.472l0.604,0.143V3.54L4.218,3.4L3.726,3.465z M4.653,3.423V3.234l-0.34,0.091L4.653,3.423z
			 M1.792,3.45L1.45,3.612v0.509H1.7l0.373-0.305L1.792,3.45z M3.583,4.121h0.783l-0.373-0.09L3.583,4.121z"/>
		<path id="CycloneGroup" display="inline" fill="#FFFFFF" d="M3.063,1.987c-0.017,0-0.033-0.002-0.05-0.002
			c-0.147,0-0.284,0.038-0.403,0.104C2.823,1.36,3.358,1.295,3.358,1.295S2.176,1.395,2.176,2.774c0.001,0,0.001,0,0.002,0
			c0,0.016-0.001,0.031-0.001,0.049c0,0.146,0.038,0.285,0.104,0.405c-0.73-0.216-0.793-0.75-0.793-0.75s0.099,1.183,1.479,1.183
			c0-0.001,0-0.001,0-0.003c0.016,0.001,0.031,0.003,0.048,0.003c0.147,0,0.285-0.038,0.405-0.104
			C3.204,4.287,2.669,4.35,2.669,4.35S3.853,4.25,3.853,2.871c-0.002,0-0.002,0-0.002,0c0-0.017,0.002-0.033,0.002-0.049
			c0-0.147-0.037-0.285-0.104-0.405c0.729,0.214,0.795,0.75,0.795,0.75s-0.099-1.182-1.48-1.182
			C3.063,1.986,3.063,1.987,3.063,1.987z"/>
		<path id="tsunamiGroup" display="inline" fill="#FFFFFF" d="M4.501,3.796C2.065,3.934,2.747,2.073,3.377,2.233
			C3.312,2.273,3.271,2.41,3.31,2.501c0.044,0.102,0.188,0.155,0.27,0.135c0.194-0.05,0.203-0.322,0.134-0.47
			C3.64,2.017,3.446,1.831,3.108,1.831c-0.813,0-1.371,0.416-1.58,1.131v1.054h2.973V3.796z"/>
		<path id="earthquakeGroup" display="inline" fill="#FFFFFF" d="M3.88,2.915c-0.041,0-0.08,0.023-0.1,0.063L3.618,3.28L3.419,2.694
			C3.403,2.65,3.362,2.62,3.315,2.618c-0.049-0.001-0.09,0.026-0.107,0.07L3.071,3.012L2.854,1.715
			C2.844,1.661,2.792,1.62,2.741,1.623c-0.057,0.002-0.103,0.038-0.11,0.093L2.44,3.219L2.284,2.413
			c-0.008-0.047-0.047-0.084-0.096-0.09C2.141,2.317,2.094,2.342,2.071,2.385l-0.254,0.53H1.425V3.14H1.89
			c0.043,0,0.083-0.023,0.102-0.063l0.137-0.284l0.22,1.146c0.011,0.052,0.058,0.09,0.11,0.09c0.002,0,0.003,0,0.004,0
			c0.056-0.001,0.102-0.042,0.109-0.098L2.76,2.452l0.158,0.973C2.927,3.476,2.966,3.513,3.016,3.52
			c0.051,0.004,0.098-0.022,0.117-0.068L3.302,3.05L3.49,3.602c0.016,0.042,0.053,0.069,0.098,0.073
			c0.046,0.004,0.088-0.02,0.108-0.06l0.253-0.478h0.483V2.915H3.88z"/>
	</g>
	<g id="EleveGroup" display="none">
		<path id="attackGroup" display="inline" fill="#FFFFFF" d="M3.815,3.059l0.793-0.511l-0.767-0.08l0.209-0.89L3.507,2.141
			L3.354,1.505L3.127,2.097L2.505,1.297L2.7,2.301L2.147,2.177c0,0,0.168,0.321,0.262,0.517L1.522,2.631L2.325,3.1l-0.23,0.234
			l0.373-0.065L2.204,4.203l0.785-0.657l0.205,0.51L3.403,3.65l0.676,0.698l-0.34-0.938l0.744,0.076L3.815,3.059z"/>
	</g>
	<g id="ExtremeGroup" display="none">
		<path id="rebelionGroup" display="inline" fill="#FFFFFF" d="M3.616,1.875c0,0.323-0.263,0.585-0.584,0.585
			c-0.324,0-0.586-0.262-0.586-0.585c0-0.324,0.262-0.585,0.586-0.585C3.354,1.29,3.616,1.551,3.616,1.875z M2.055,4.355h0.356h0.02
			l0.014-0.027l0.129-0.127L2.452,4.175l-0.188-0.04L2.055,4.355z M4.502,1.983L4.377,2.109l0.008,0.009L4.282,2.219
			C4.297,2.232,4.31,2.245,4.321,2.26l0.103-0.103l0.021,0.019L4.567,2.05L4.502,1.983z M3.694,2.632L3.64,2.686l0.006,0.015
			L3.659,2.73L2.806,3.585l0.091,0.021c0.085,0.018,0.157,0.065,0.205,0.141c0.007,0.01,0.009,0.022,0.013,0.033l0.002-0.003
			L3.18,3.818l0.022-0.005L3.45,3.994l0.168-0.229l-0.371-0.29l0.01-0.024H3.32l0.363-0.427l0.041-0.382L3.694,2.632z M4.091,2.254
			C3.979,2.242,3.872,2.325,3.86,2.439L3.845,2.564l0,0l-0.008,0.09L3.796,3.036L3.792,3.072L3.771,3.098L3.444,3.482l0.244,0.189
			l0.09,0.069l-0.053,0.07l0.014,0.023c0.033,0.075,0.108,0.12,0.188,0.12c0.012,0,0.023,0,0.035-0.003
			c0.092-0.015,0.162-0.09,0.172-0.183l0.141-1.287C4.288,2.369,4.204,2.266,4.091,2.254z M3.665,3.898L3.546,4.062L3.478,4.155
			L3.383,4.087L3.177,3.938L3.159,3.942L3.151,3.938c0,0.018,0,0.034-0.005,0.052C3.143,4.007,3.137,4.023,3.13,4.039
			C3.118,4.069,3.1,4.094,3.081,4.12l0.015,0.033C3.11,4.186,3.13,4.228,3.153,4.266l0.059,0.089h0.439L3.665,3.898z M2.829,4.247
			c-0.004,0-0.01-0.001-0.016-0.001c0,0.008-0.002,0.014-0.002,0.014l0.05,0.097h0.118l0.077-0.027
			C3.03,4.288,3.009,4.244,2.989,4.199C2.94,4.227,2.888,4.247,2.829,4.247z M3.001,3.804C2.993,3.792,2.979,3.781,2.968,3.771
			C2.961,3.763,2.956,3.755,2.946,3.75c-0.02-0.015-0.047-0.026-0.074-0.033l-0.09-0.019L2.573,3.654l0,0l-0.185-0.04L2.317,3.6
			L2.2,3.574L2.192,3.573l0.02-0.021l0.08-0.078l0.085-0.085c0.007,0.06,0.01,0.104,0.01,0.104L2.415,3.5l0.258,0.057l0.053-0.055
			l0.798-0.801l-0.02-0.045L3.51,2.651C3.396,2.617,3.26,2.594,3.088,2.594H3.032H2.976c-0.121,0-0.242,0.011-0.361,0.035
			C2.409,2.677,2.282,2.878,2.144,3.014c-0.145,0.143-0.285,0.29-0.425,0.437C1.688,3.484,1.657,3.517,1.624,3.549
			C1.571,3.604,1.551,3.683,1.571,3.757C1.593,3.83,1.653,3.885,1.729,3.902l0.276,0.06l0.117,0.024l0.664,0.142
			C2.801,4.13,2.815,4.132,2.829,4.132c0.097,0,0.184-0.064,0.205-0.166c0.008-0.039,0.002-0.072-0.01-0.106L3.012,3.83
			C3.008,3.822,3.004,3.815,3.001,3.804z M2.708,4.316l-0.02-0.038l0.011-0.042L2.7,4.228L2.667,4.218L2.551,4.355h0.178
			L2.708,4.316z"/>
	</g>
	<path id="displacedGroup" display="none" fill="#FFFFFF" d="M3.049,1.677c0.024,0.151-0.078,0.293-0.228,0.318
		C2.67,2.021,2.526,1.918,2.502,1.768C2.478,1.616,2.579,1.472,2.731,1.449C2.882,1.423,3.024,1.526,3.049,1.677z M2.963,2.776
		l0.245,0.392c0.035,0.057,0.107,0.073,0.164,0.04c0.056-0.033,0.074-0.104,0.043-0.162L3.354,2.934
		C3.299,2.837,3.247,2.74,3.192,2.644L3.083,2.445C3.071,2.422,3.059,2.397,3.046,2.369C2.979,2.228,2.874,2.01,2.643,2.029
		C2.446,2.047,2.245,2.141,2.049,2.308C1.816,2.492,1.652,2.758,1.647,2.771C1.639,2.782,1.631,2.794,1.626,2.804
		c0,0,0,0-0.002,0.001l0,0C1.603,2.847,1.592,2.885,1.618,2.933C1.64,2.969,1.681,2.994,1.724,2.994
		c0.053,0,0.079-0.025,0.105-0.063l0,0l0,0C1.837,2.92,1.844,2.909,1.851,2.897c0.001-0.002,0.138-0.225,0.351-0.402
		C2.266,2.444,2.329,2.409,2.387,2.39L2.34,2.959C2.335,3.014,2.317,3.113,2.302,3.168L2.196,3.54
		C2.183,3.586,2.142,3.665,2.112,3.702L1.825,4.056C1.788,4.103,1.747,4.154,1.78,4.225c0.021,0.042,0.063,0.066,0.11,0.066
		c0.055,0,0.085-0.032,0.123-0.073l0.29-0.313C2.355,3.85,2.422,3.753,2.456,3.685L2.6,3.393l0.533,0.895
		c0.026,0.044,0.06,0.101,0.132,0.101l0,0c0.041,0,0.079-0.021,0.102-0.057c0.039-0.06,0.012-0.113-0.01-0.162L2.924,3.234
		C2.907,3.198,2.899,3.123,2.905,3.083L2.963,2.776z M3.413,3.75h0.645v0.191L4.7,3.571l-0.643-0.37v0.192H3.413V3.75z"/>
	<path id="enlevementGroup" display="none" fill="#FFFFFF" d="M4.372,1.196C4.276,1.196,4.2,1.273,4.2,1.368v0.699
		c0.043,0.009,0.082,0.024,0.115,0.058c0.09,0.089,0.092,0.236,0.004,0.326L3.993,2.786L3.948,2.742l0.326-0.333
		c0.063-0.068,0.063-0.175-0.004-0.24C4.25,2.148,4.226,2.134,4.198,2.127C4.17,2.119,4.142,2.119,4.114,2.125
		c-0.033,0.007-0.06,0.023-0.082,0.047C3.839,2.37,3.646,2.568,3.452,2.767C3.403,2.816,3.315,2.927,3.317,3.042
		c0.002,0.106,0,0.216,0,0.323C3.292,3.344,3.262,3.33,3.227,3.323c-0.1-0.018-0.189,0.043-0.223,0.132h-0.05
		c0-0.022,0-0.049,0-0.073c0.002-0.109-0.002-0.228,0-0.34c0.004-0.112-0.086-0.227-0.133-0.273c-0.194-0.2-0.386-0.398-0.58-0.599
		C2.219,2.148,2.19,2.132,2.159,2.125C2.131,2.118,2.102,2.119,2.073,2.127C2.047,2.134,2.021,2.148,2.002,2.169
		c-0.067,0.065-0.069,0.172-0.005,0.24l0.326,0.333L2.28,2.786L1.954,2.451c-0.088-0.09-0.086-0.237,0.004-0.326
		C1.991,2.094,2.03,2.077,2.071,2.067V1.368c0-0.095-0.078-0.172-0.172-0.172c-0.096,0-0.172,0.077-0.172,0.172v1.21
		c0,0.04,0.016,0.076,0.039,0.105l0.585,0.771H2.3c-0.114,0-0.206,0.093-0.206,0.208c0,0.076,0.042,0.139,0.104,0.175
		C2.137,3.874,2.094,3.937,2.094,4.01c0,0.115,0.092,0.207,0.206,0.207h0.063v0.115h0.574c0.03,0.03,0.065,0.052,0.107,0.062
		c0.013,0.003,0.023,0.004,0.035,0.004c0.102,0,0.188-0.072,0.205-0.172V4.219h0.037c0,0.038,0,0.076,0.004,0.115h0.582V4.219H3.97
		c0.112,0,0.206-0.092,0.206-0.205c0-0.074-0.042-0.141-0.104-0.177c0.063-0.036,0.104-0.099,0.104-0.175
		c0-0.114-0.094-0.207-0.206-0.207H3.92l0.584-0.771c0.024-0.03,0.04-0.065,0.04-0.105V1.37C4.544,1.273,4.467,1.196,4.372,1.196z
		 M2.196,3.662c0-0.057,0.047-0.103,0.104-0.103h0.678L2.942,3.766H2.3C2.243,3.764,2.196,3.719,2.196,3.662z M2.196,4.012
		c0-0.059,0.047-0.104,0.104-0.104h0.617L2.882,4.116H2.3C2.243,4.116,2.196,4.07,2.196,4.012z M3.181,4.207
		C3.172,4.263,3.112,4.3,3.062,4.292C3.034,4.288,3.011,4.272,2.995,4.25C2.979,4.228,2.974,4.2,2.978,4.172L3.092,3.51
		c0.009-0.05,0.052-0.086,0.103-0.086c0.006,0,0.012,0,0.017,0.001c0.057,0.013,0.094,0.063,0.084,0.12L3.181,4.207z M4.075,4.012
		c0,0.058-0.045,0.104-0.104,0.104h-0.67l0.035-0.208h0.636C4.028,3.909,4.075,3.956,4.075,4.012z M4.075,3.662
		c0,0.057-0.045,0.104-0.104,0.104h-0.61l0.034-0.201c0-0.001,0-0.003,0-0.004h0.576C4.028,3.559,4.075,3.606,4.075,3.662z"/>
	<path id="eruptionGroup" display="none" fill="#FFFFFF" d="M3.247,2.253C3.424,2.313,3.657,2.384,3.708,2.1
		C3.747,1.878,4.04,1.96,4.165,1.947c0.229-0.027,0.057-0.454-0.229-0.46C3.647,1.48,3.517,1.608,3.399,1.87
		c-0.053,0.126-0.1,0.221-0.305,0.153c-0.204-0.068-0.355,0.1-0.23,0.307c0.109,0.185-0.002,0.383-0.002,0.383h0.309
		c0,0-0.002-0.11-0.077-0.229C3.007,2.346,3.067,2.191,3.247,2.253z M1.614,4.159c0.793-0.578,0.992-1.376,0.992-1.376H3.42
		c0,0,0.197,0.798,0.99,1.376H1.614z"/>
	<path id="returnedGroup" display="none" fill="#FFFFFF" d="M3.05,1.677c0.023,0.151-0.078,0.293-0.229,0.318
		C2.67,2.02,2.526,1.918,2.503,1.766C2.478,1.615,2.579,1.472,2.731,1.448C2.882,1.423,3.024,1.525,3.05,1.677z M2.963,2.775
		l0.245,0.393c0.035,0.057,0.107,0.072,0.164,0.04c0.056-0.034,0.074-0.104,0.043-0.162L3.354,2.933
		C3.3,2.837,3.247,2.74,3.194,2.643L3.083,2.445C3.071,2.422,3.06,2.397,3.046,2.369c-0.067-0.141-0.172-0.36-0.403-0.34
		c-0.196,0.017-0.397,0.11-0.594,0.277C1.815,2.492,1.651,2.758,1.646,2.77c-0.007,0.012-0.015,0.021-0.02,0.034L1.624,2.805l0,0
		C1.603,2.847,1.592,2.885,1.618,2.933C1.64,2.969,1.681,2.995,1.724,2.995c0.053,0,0.079-0.025,0.104-0.063l0,0l0,0
		C1.835,2.921,1.843,2.909,1.85,2.897C1.852,2.895,1.989,2.675,2.2,2.495c0.066-0.052,0.129-0.087,0.187-0.105L2.34,2.959
		C2.335,3.014,2.317,3.113,2.302,3.168L2.196,3.54C2.183,3.587,2.142,3.665,2.11,3.702L1.825,4.056
		C1.788,4.103,1.747,4.154,1.78,4.225c0.021,0.042,0.063,0.066,0.11,0.066c0.055,0,0.085-0.032,0.123-0.073l0.29-0.313
		C2.355,3.85,2.422,3.753,2.454,3.685l0.145-0.293l0.533,0.895c0.025,0.044,0.061,0.101,0.132,0.101l0,0
		c0.041,0,0.079-0.021,0.103-0.058c0.037-0.059,0.011-0.113-0.01-0.16L2.925,3.234C2.909,3.198,2.9,3.123,2.905,3.083L2.963,2.775z
		 M4.757,2.975c0-0.393-0.318-0.708-0.709-0.708H3.747v0.355h0.302C4.241,2.623,4.4,2.78,4.4,2.975c0,0.19-0.155,0.351-0.351,0.351
		H3.985V3.134l-0.641,0.37l0.641,0.371V3.683h0.07l0,0C4.442,3.677,4.757,3.363,4.757,2.975z"/>
	<g id="Affected" display="none">
		<path display="inline" fill="#FFFFFF" d="M2.313,1.619c0,0.136-0.111,0.246-0.247,0.246c-0.136,0-0.247-0.11-0.247-0.246
			c0-0.137,0.111-0.247,0.247-0.247C2.203,1.372,2.313,1.482,2.313,1.619z M2.093,3.306l0.053,0.908
			c0,0.031,0.026,0.061,0.058,0.061c0.032,0,0.058-0.027,0.058-0.061l0.049-0.908h0.161L2.305,2.286L2.64,2.953
			c0.012,0.029,0.046,0.043,0.076,0.031C2.745,2.971,2.76,2.938,2.747,2.908c0,0-0.246-0.663-0.306-0.787
			C2.38,1.997,2.32,1.922,2.09,1.922H2.043c-0.23,0-0.291,0.075-0.351,0.199S1.387,2.908,1.387,2.908
			c-0.013,0.03,0.001,0.063,0.03,0.076c0.03,0.013,0.064-0.001,0.076-0.031l0.335-0.667L1.662,3.306h0.161l0.05,0.908
			c0,0.031,0.026,0.061,0.058,0.061c0.032,0,0.058-0.027,0.058-0.061l0.05-0.908H2.093L2.093,3.306z M4.058,1.371
			c-0.136,0-0.246,0.11-0.246,0.247s0.11,0.247,0.246,0.247c0.137,0,0.246-0.11,0.246-0.247S4.194,1.371,4.058,1.371z M4.313,2.822
			L4.33,2.286l0.301,0.667c0.013,0.029,0.048,0.043,0.076,0.031c0.03-0.013,0.044-0.046,0.032-0.076c0,0-0.213-0.664-0.273-0.787
			C4.403,1.997,4.312,1.922,4.082,1.922H4.034c-0.23,0-0.323,0.075-0.385,0.199C3.59,2.244,3.378,2.907,3.378,2.907
			c-0.013,0.03,0.001,0.063,0.031,0.077c0.029,0.013,0.063-0.001,0.074-0.031l0.303-0.667l0.016,0.536L3.755,4.169
			C3.751,4.223,3.791,4.27,3.845,4.272c0.002,0.002,0.006,0.002,0.006,0.002c0.053,0,0.094-0.039,0.099-0.092l0.108-1.109
			l0.111,1.109c0.002,0.053,0.045,0.092,0.096,0.092c0.002,0,0.004,0,0.006-0.002C4.323,4.27,4.364,4.223,4.36,4.169L4.313,2.822
			L4.313,2.822z M3.063,2.87c-0.083,0-0.152,0.067-0.152,0.15c0,0.084,0.068,0.149,0.152,0.149s0.15-0.065,0.15-0.149
			C3.213,2.937,3.146,2.87,3.063,2.87z M3.063,3.76l0.068,0.475c0.009,0.021,0.03,0.041,0.057,0.041s0.049-0.021,0.059-0.043
			c0-0.002,0.001-0.031,0-0.035l-0.028-0.58l0.009-0.201c0.009-0.064,0.01-0.047,0.087-0.093c0.08-0.047,0.211-0.255,0.22-0.266
			c0.005-0.012,0.019-0.028,0.021-0.04c0.004-0.021-0.01-0.041-0.029-0.045S3.495,2.977,3.485,2.988C3.474,3,3.32,3.204,3.205,3.224
			C3.179,3.221,3.15,3.207,3.077,3.207H3.048c-0.074,0-0.102,0.016-0.128,0.02C2.805,3.204,2.65,3,2.639,2.988
			C2.629,2.977,2.617,2.969,2.6,2.971C2.58,2.975,2.565,2.995,2.57,3.016c0.002,0.012,0.014,0.028,0.021,0.04
			c0.006,0.01,0.141,0.219,0.22,0.266C2.888,3.368,2.89,3.348,2.897,3.415l0.008,0.201l-0.028,0.58
			c-0.001,0.006,0,0.033,0.001,0.035c0.008,0.021,0.03,0.043,0.058,0.043c0.026,0,0.048-0.02,0.057-0.041
			C2.994,4.233,3.063,3.76,3.063,3.76"/>
	</g>
	<path id="epidemieGroup" display="none" fill="#FFFFFF" d="M4.284,2.946c0-0.696-0.545-1.262-1.231-1.297
		c0.304,0.026,0.54,0.249,0.54,0.517c0,0.092-0.031,0.177-0.08,0.252C3.376,2.283,3.19,2.2,2.983,2.2
		c-0.205,0-0.392,0.083-0.527,0.218c-0.047-0.075-0.078-0.16-0.078-0.252c0-0.268,0.234-0.488,0.539-0.517
		C2.231,1.685,1.686,2.251,1.686,2.946c0,0.209,0.052,0.407,0.14,0.583C1.704,3.255,1.778,2.945,2.007,2.814
		c0.08-0.046,0.168-0.063,0.258-0.061C2.247,2.817,2.237,2.881,2.237,2.948c0,0.346,0.235,0.634,0.555,0.72
		C2.786,3.675,2.78,3.681,2.776,3.69v0.001c-0.011,0.021-0.023,0.043-0.039,0.06C2.702,3.796,2.663,3.836,2.612,3.864
		C2.383,3.997,2.077,3.905,1.899,3.66C2.132,4.013,2.53,4.247,2.985,4.247c0.45,0,0.844-0.229,1.081-0.576
		c-0.182,0.237-0.48,0.325-0.708,0.194C3.278,3.818,3.22,3.749,3.18,3.668c0.317-0.086,0.551-0.375,0.551-0.72
		c0-0.066-0.01-0.13-0.024-0.192c0.09-0.005,0.179,0.014,0.259,0.061c0.223,0.128,0.299,0.422,0.189,0.688
		C4.237,3.336,4.284,3.146,4.284,2.946z M3.122,3.446C3.116,3.338,3.14,3.225,3.194,3.117l-0.086-0.05
		C3.077,3.1,3.032,3.12,2.985,3.12c-0.049,0-0.093-0.02-0.125-0.052L2.776,3.116c0.055,0.107,0.077,0.222,0.071,0.331
		c-0.22-0.063-0.383-0.26-0.383-0.499c0-0.046,0.008-0.089,0.019-0.13c0.096,0.048,0.184,0.124,0.25,0.224l0.088-0.051
		c-0.004-0.015-0.01-0.029-0.01-0.045c0-0.081,0.055-0.146,0.131-0.165V2.68c-0.121-0.01-0.229-0.046-0.32-0.104
		c0.092-0.092,0.221-0.148,0.361-0.148s0.271,0.06,0.364,0.15c-0.091,0.061-0.2,0.096-0.319,0.104v0.1
		c0.073,0.02,0.129,0.084,0.129,0.165c0,0.016-0.004,0.03-0.008,0.044l0.088,0.05c0.065-0.1,0.153-0.175,0.249-0.224
		c0.01,0.042,0.02,0.084,0.02,0.129C3.504,3.187,3.342,3.385,3.122,3.446z"/>
</g>
<g id="foodsec" display="none">
	<path display="inline" fill="#FFFFFF" d="M4.565,3.08L4.565,3.08C4.558,3.302,4.481,3.544,4.366,3.765c0,0-0.277,0.561-1.147,0.561
		c-0.87,0-1.152-0.557-1.152-0.557C1.951,3.548,1.88,3.308,1.872,3.081l0,0c0-0.006,0-0.012,0-0.018
		c0-0.107,0.066-0.207,0.179-0.292l0.122,0.077c-0.075,0.05-0.119,0.104-0.119,0.167c0,0.209,0.521,0.38,1.165,0.38
		c0.643,0,1.165-0.17,1.165-0.38c0-0.146-0.25-0.272-0.617-0.336l0.002-0.153C4.24,2.618,4.565,2.824,4.565,3.064
		C4.565,3.069,4.565,3.074,4.565,3.08z M2.319,2.176C2.314,2.212,2.309,2.27,2.353,2.348C2.408,2.441,2.477,2.473,2.5,2.489
		C2.496,2.465,2.502,2.392,2.452,2.304C2.408,2.225,2.36,2.19,2.331,2.162C2.25,2.047,2.16,1.953,2.09,1.88L1.925,1.709
		c0,0,0.06,0.068,0.158,0.177C2.151,1.962,2.24,2.058,2.319,2.176z M2.732,3.082c0.035,0.033,0.08,0.088,0.179,0.145
		c0.111,0.063,0.205,0.063,0.237,0.067C3.13,3.265,3.094,3.173,2.971,3.105C2.87,3.05,2.795,3.06,2.749,3.069
		C2.597,2.979,2.466,2.89,2.362,2.824c-0.15-0.092-0.247-0.139-0.247-0.139s0.094,0.052,0.241,0.147
		C2.457,2.901,2.583,2.992,2.732,3.082z M2.821,2.599C2.809,2.64,2.792,2.706,2.831,2.802c0.046,0.119,0.124,0.17,0.147,0.191
		c0-0.029,0.021-0.112-0.023-0.224c-0.039-0.1-0.089-0.148-0.118-0.186C2.762,2.436,2.67,2.312,2.601,2.217L2.432,1.99l0.159,0.232
		C2.659,2.321,2.748,2.448,2.821,2.599z M2.539,2.84c0.034,0.03,0.077,0.08,0.17,0.13C2.813,3.026,2.901,3.024,2.93,3.03
		C2.913,3.002,2.877,2.918,2.761,2.858c-0.094-0.05-0.164-0.039-0.207-0.031c-0.143-0.08-0.266-0.161-0.364-0.22
		C2.049,2.522,1.958,2.48,1.958,2.479c0,0.001,0.088,0.048,0.227,0.136C2.279,2.676,2.398,2.76,2.539,2.84z M2.337,2.602
		C2.369,2.63,2.408,2.675,2.496,2.719C2.594,2.769,2.675,2.765,2.703,2.77C2.686,2.746,2.652,2.67,2.543,2.616
		C2.456,2.572,2.391,2.582,2.352,2.59C2.218,2.518,2.103,2.444,2.011,2.39C1.879,2.314,1.793,2.275,1.794,2.275
		c0,0,0.083,0.043,0.212,0.124C2.094,2.454,2.206,2.53,2.337,2.602z M2.131,2.256C2.19,2.308,2.246,2.312,2.278,2.322
		c-0.006-0.026,0-0.089-0.068-0.149C2.152,2.124,2.094,2.12,2.065,2.117C1.828,1.915,1.619,1.784,1.57,1.754L1.56,1.746
		C1.558,1.748,1.789,1.9,2.06,2.137C2.068,2.167,2.084,2.215,2.131,2.256z M2.127,2.367c0.029,0.025,0.067,0.066,0.148,0.105
		c0.09,0.045,0.165,0.041,0.19,0.045c-0.016-0.022-0.05-0.093-0.148-0.142C2.235,2.339,2.176,2.349,2.14,2.356
		C2.017,2.292,1.91,2.223,1.825,2.176C1.703,2.106,1.624,2.072,1.624,2.072S1.702,2.11,1.821,2.184
		C1.902,2.233,2.005,2.302,2.127,2.367z M2.578,2.381C2.57,2.419,2.558,2.481,2.6,2.569c0.05,0.105,0.125,0.146,0.148,0.167
		c-0.002-0.028,0.01-0.105-0.037-0.205C2.668,2.441,2.62,2.399,2.59,2.367C2.512,2.235,2.42,2.126,2.35,2.041L2.183,1.843
		l0.16,0.205C2.411,2.135,2.5,2.246,2.578,2.381z M3.507,2.608c-0.025,0.024-0.068,0.068-0.081,0.16
		c-0.018,0.108,0.021,0.18,0.027,0.206c0.014-0.021,0.063-0.077,0.081-0.182c0.013-0.092-0.004-0.149-0.01-0.188
		c0.008-0.146-0.01-0.277-0.021-0.379c-0.018-0.15-0.029-0.242-0.029-0.242l0.021,0.243C3.503,2.329,3.517,2.463,3.507,2.608z
		 M3.422,2.362C3.399,2.388,3.363,2.43,3.356,2.516C3.348,2.618,3.386,2.68,3.395,2.704C3.406,2.683,3.45,2.629,3.458,2.533
		c0.006-0.086-0.014-0.139-0.021-0.176c0-0.134-0.022-0.255-0.04-0.35L3.356,1.786l0.033,0.223C3.403,2.105,3.422,2.228,3.422,2.362
		z M3.323,2.121c-0.02,0.025-0.05,0.067-0.051,0.146C3.271,2.361,3.31,2.416,3.32,2.438c0.008-0.021,0.044-0.073,0.046-0.162
		c0.001-0.08-0.02-0.126-0.029-0.16C3.327,1.992,3.3,1.883,3.279,1.798l-0.05-0.2l0.042,0.201C3.29,1.885,3.314,1.997,3.323,2.121z
		 M3.497,3.246c0.016-0.021,0.074-0.077,0.1-0.187c0.021-0.099,0.008-0.162,0.004-0.205C3.618,2.7,3.61,2.557,3.603,2.446
		c-0.011-0.162-0.02-0.262-0.02-0.262l0.01,0.262c0.004,0.113,0.008,0.258-0.01,0.412c-0.031,0.025-0.08,0.071-0.1,0.166
		C3.458,3.14,3.491,3.217,3.497,3.246z M3.003,1.963C3.015,1.99,3.027,2.034,3.072,2.089c0.049,0.063,0.104,0.084,0.122,0.098
		C3.19,2.164,3.191,2.102,3.136,2.033c-0.045-0.055-0.091-0.068-0.12-0.074C2.95,1.87,2.897,1.785,2.853,1.722
		C2.79,1.63,2.744,1.579,2.744,1.578c0,0,0.042,0.054,0.102,0.147C2.889,1.79,2.938,1.875,3.003,1.963z M3.045,1.882
		c0.024,0.06,0.063,0.08,0.083,0.099c0.004-0.021,0.03-0.066,0.003-0.132C3.107,1.792,3.067,1.77,3.046,1.759
		c-0.1-0.227-0.204-0.392-0.229-0.431L2.813,1.319c-0.001,0,0.111,0.188,0.222,0.453C3.031,1.796,3.025,1.837,3.045,1.882z
		 M3.145,2.343c0.053,0.069,0.112,0.096,0.131,0.106C3.272,2.425,3.274,2.358,3.215,2.282C3.167,2.221,3.117,2.207,3.086,2.2
		C3.014,2.103,2.958,2.01,2.911,1.941C2.843,1.841,2.795,1.785,2.795,1.784c0,0,0.045,0.059,0.109,0.161
		c0.044,0.07,0.098,0.163,0.167,0.259C3.084,2.235,3.098,2.281,3.145,2.343z M3.208,1.885C3.193,1.91,3.169,1.95,3.173,2.022
		c0.006,0.087,0.045,0.134,0.056,0.151c0.005-0.019,0.036-0.068,0.03-0.149C3.255,1.951,3.233,1.909,3.222,1.879
		C3.205,1.769,3.172,1.67,3.149,1.593L3.09,1.412c0,0,0.019,0.07,0.052,0.182C3.163,1.673,3.194,1.774,3.208,1.885z M3.133,2.446
		c0.013,0.033,0.026,0.084,0.076,0.15c0.057,0.073,0.12,0.103,0.14,0.115c-0.003-0.023,0-0.099-0.061-0.181
		c-0.052-0.066-0.106-0.082-0.139-0.09C3.073,2.336,3.014,2.235,2.964,2.159c-0.072-0.108-0.123-0.17-0.123-0.17
		s0.047,0.063,0.116,0.175C3.003,2.24,3.059,2.34,3.133,2.446z M2.403,3.108c0,0,0.083,0.048,0.213,0.14
		C2.625,3.25,2.634,3.252,2.644,3.254C2.498,3.156,2.403,3.108,2.403,3.108z M3.44,3.292C3.421,3.26,3.4,3.238,3.38,3.222
		C3.374,3.202,3.367,3.185,3.36,3.17c0.043,0.045,0.084,0.067,0.1,0.079c0-0.001,0-0.004,0-0.008C3.466,3.26,3.47,3.278,3.476,3.296
		c0.01,0,0.019-0.001,0.025-0.002C3.485,3.241,3.47,3.192,3.45,3.144C3.444,3.118,3.433,3.089,3.417,3.059
		C3.4,3.021,3.384,2.985,3.368,2.951c0.02,0.014,0.036,0.022,0.044,0.029C3.409,2.952,3.415,2.873,3.351,2.783
		C3.313,2.73,3.272,2.706,3.239,2.694l-0.102-0.2c0,0,0.033,0.073,0.09,0.195C3.219,2.687,3.211,2.684,3.204,2.682
		C3.125,2.567,3.063,2.458,3.01,2.376C2.935,2.258,2.882,2.192,2.882,2.192S2.932,2.26,3.003,2.38
		c0.048,0.083,0.108,0.191,0.183,0.308c0.014,0.036,0.027,0.09,0.08,0.164C3.29,2.885,3.316,2.91,3.339,2.929
		c0.009,0.02,0.018,0.039,0.027,0.063C3.322,2.948,3.278,2.934,3.248,2.925C3.239,2.911,3.23,2.898,3.222,2.885
		C3.172,2.776,3.118,2.68,3.072,2.6c-0.1-0.177-0.166-0.283-0.166-0.283L3.06,2.605C3.072,2.627,3.084,2.65,3.097,2.674
		C3.08,2.645,3.064,2.618,3.049,2.594C2.971,2.467,2.915,2.394,2.915,2.394c-0.001,0,0.052,0.073,0.125,0.204
		c0.043,0.074,0.094,0.173,0.156,0.276C3.224,2.937,3.251,3.001,3.273,3.07C3.268,3.085,3.26,3.102,3.254,3.123
		C3.185,3.004,3.128,2.895,3.078,2.81C3.062,2.783,3.047,2.758,3.033,2.735C2.97,2.605,2.897,2.493,2.838,2.404
		C2.737,2.246,2.671,2.149,2.671,2.149l0.157,0.259C2.896,2.52,2.984,2.663,3.053,2.829C3.036,2.873,3.013,2.943,3.047,3.05
		c0.042,0.132,0.12,0.19,0.145,0.218c0.002-0.029,0.026-0.108-0.003-0.223c0.019,0.034,0.038,0.069,0.058,0.104
		C3.239,3.19,3.237,3.24,3.252,3.306c0.065-0.001,0.13-0.005,0.192-0.009C3.442,3.296,3.442,3.294,3.44,3.292z M2.524,3.048
		C2.367,2.946,2.263,2.895,2.263,2.895s0.1,0.057,0.254,0.163C2.606,3.12,2.716,3.202,2.842,3.285
		C2.858,3.287,2.875,3.288,2.89,3.289C2.748,3.2,2.625,3.113,2.524,3.048z M3.665,3.111c0.029-0.165,0.027-0.319,0.027-0.438
		L3.687,2.39c0,0-0.002,0.105-0.006,0.279C3.679,2.793,3.677,2.948,3.644,3.113C3.61,3.138,3.558,3.182,3.526,3.282
		c-0.002,0.004-0.002,0.007-0.002,0.01c0.045-0.004,0.09-0.009,0.133-0.015C3.673,3.202,3.665,3.149,3.665,3.111z"/>
</g>
<g id="funding" display="none">
	<path display="inline" fill="#FFFFFF" d="M4.163,1.639L3.771,2.006H2.354L1.96,1.639c0,0,0.196-0.274,0.519-0.312
		c0.315-0.035,0.425,0.159,0.583,0.167c0.158-0.007,0.268-0.2,0.584-0.166C3.968,1.365,4.163,1.639,4.163,1.639z M3.116,3.396v0.274
		C3.158,3.667,3.192,3.65,3.219,3.624c0.026-0.025,0.04-0.059,0.04-0.093c0-0.032-0.012-0.06-0.034-0.081
		C3.203,3.427,3.167,3.409,3.116,3.396z M2.886,3.043c0,0.025,0.008,0.048,0.027,0.069c0.018,0.021,0.045,0.039,0.082,0.053V2.919
		c-0.034,0.009-0.06,0.026-0.079,0.048C2.896,2.99,2.886,3.015,2.886,3.043z M4.401,3.992c0,0-0.086,0.327-0.479,0.327H2.201
		c-0.393,0-0.479-0.327-0.479-0.327C1.465,2.857,2.247,2.241,2.247,2.241h1.63C3.877,2.241,4.658,2.857,4.401,3.992z M3.464,3.505
		c0-0.074-0.025-0.139-0.074-0.188C3.341,3.268,3.25,3.229,3.116,3.198V2.921C3.17,2.941,3.203,2.979,3.217,3.034L3.429,3.01
		C3.415,2.941,3.381,2.884,3.328,2.842C3.276,2.8,3.205,2.774,3.116,2.764V2.695H2.995v0.069C2.898,2.773,2.821,2.802,2.763,2.856
		C2.705,2.908,2.676,2.974,2.676,3.051c0,0.077,0.025,0.143,0.077,0.196C2.804,3.3,2.885,3.34,2.995,3.366v0.297
		C2.964,3.65,2.937,3.631,2.912,3.602c-0.024-0.027-0.041-0.061-0.05-0.1L2.643,3.525C2.66,3.618,2.698,3.69,2.759,3.741
		c0.06,0.051,0.139,0.082,0.236,0.092v0.128h0.122V3.829C3.225,3.816,3.31,3.78,3.372,3.721C3.433,3.663,3.464,3.592,3.464,3.505z"
		/>
</g>
<g id="Education">
	<path fill="#FFFFFF" d="M7.982,5.344c-0.313-0.3-2.105-1.336-4.559-0.28c0,0.014,0,0.311,0,0.758v5.042h3.717
		c0.126,0.109,0.431,0.186,0.787,0.186c0.354,0,0.654-0.075,0.783-0.186h3.744V5.822c0-0.447,0-0.742,0-0.758
		C10.099,4.027,8.216,5.126,7.982,5.344z M7.648,10.503c0-0.196-1.747-1.36-3.763-0.094V5.494c0.402-0.229,0.939-0.368,1.531-0.368
		c1.231,0,2.232,0.403,2.232,1.156V10.503z M12.013,10.409c-2.016-1.268-3.758-0.104-3.758,0.094V6.28
		c0-0.753,0.998-1.157,2.236-1.157c0.584,0,1.123,0.139,1.521,0.368L12.013,10.409L12.013,10.409z"/>
</g>
</svg>
