<?xml version="1.0" encoding="utf-8"?>
<!-- Generator: Adobe Illustrator 16.0.0, SVG Export Plug-In . SVG Version: 6.00 Build 0)  -->
<!DOCTYPE svg PUBLIC "-//W3C//DTD SVG 1.1//EN" "http://www.w3.org/Graphics/SVG/1.1/DTD/svg11.dtd">
<svg version="1.1" id="Groupe" xmlns="http://www.w3.org/2000/svg" xmlns:xlink="http://www.w3.org/1999/xlink" x="0px" y="0px"
	 width="15.871px" height="15.65px" viewBox="0 0 15.871 15.65" enable-background="new 0 0 15.871 15.65" xml:space="preserve">
<g id="PinColor_1_">
	<path id="vert" display="none" fill="#2ABF00" stroke="#1D7500" stroke-width="0.2" stroke-miterlimit="10" d="M15.05,7.669
		c0,3.337-2.39,6.136-5.61,6.877c-0.541,0.118-2.88,0.118-3.438-0.021c-3.189-0.757-5.555-3.539-5.555-6.859
		c0-3.895,3.271-7.063,7.301-7.063C11.775,0.603,15.05,3.771,15.05,7.669z"/>
	<path id="orange" display="none" fill="#FF8500" stroke="#7F4500" stroke-width="0.2" stroke-miterlimit="10" d="M15.05,7.669
		c0,3.337-2.39,6.136-5.61,6.877c-0.541,0.118-2.88,0.118-3.438-0.021c-3.189-0.757-5.555-3.539-5.555-6.859
		c0-3.895,3.271-7.063,7.301-7.063C11.775,0.603,15.05,3.771,15.05,7.669z"/>
	<path id="gris" fill="#A5A5A5" stroke="#595959" stroke-width="0.2" stroke-miterlimit="10" d="M15.05,7.669
		c0,3.337-2.39,6.136-5.61,6.877c-0.541,0.118-2.88,0.118-3.438-0.021c-3.189-0.757-5.555-3.539-5.555-6.859
		c0-3.895,3.271-7.063,7.301-7.063C11.775,0.603,15.05,3.771,15.05,7.669z"/>
	<path id="bleu" display="none" fill="#0092FF" stroke="#00477C" stroke-width="0.2" stroke-miterlimit="10" d="M15.05,7.669
		c0,3.337-2.39,6.136-5.61,6.877c-0.541,0.118-2.88,0.118-3.438-0.021c-3.189-0.757-5.555-3.539-5.555-6.859
		c0-3.895,3.271-7.063,7.301-7.063C11.775,0.603,15.05,3.771,15.05,7.669z"/>
</g>
<g id="IconsGroup">
	<g id="MinimalGroup" display="none">
		<path id="ElectionGroup" display="inline" fill="#565656" d="M15.688,1.232l-4.585-1.96c-0.131-0.053-0.298-0.02-0.38,0.097
			L9.406,1.006C9.348,1.07,9.327,1.184,9.348,1.278c0.019,0.098,0.081,0.167,0.167,0.208l-4.106,1.55
			C5.063,3.156,4.763,3.398,4.576,3.718l-1.36,2.263C2.927,6.463,2.902,7.052,3.155,7.552l0.103,0.194H1.821
			c-0.184,0-0.324,0.148-0.324,0.328v6.21H0.513c-0.179,0-0.319,0.148-0.319,0.323c0,0.18,0.146,0.328,0.319,0.328h11.114
			c0.182,0,0.324-0.148,0.324-0.328c0-0.175-0.143-0.323-0.324-0.323h-0.979v-3.337c0-0.107-0.062-0.22-0.144-0.272
			c-0.098-0.064-0.22-0.073-0.324-0.021c-0.354,0.165-0.624,0.251-0.747,0.294c-0.026,0-0.053,0.015-0.073,0.03l-2.132,1.271
			c-0.338,0.205-0.725,0.317-1.114,0.317c-0.734,0-1.394-0.361-1.809-0.975C3.965,11.097,3.848,10.51,3.979,9.93
			c0.122-0.576,0.464-1.07,0.953-1.387l0.313-0.196c0.228-0.136,0.431-0.26,0.607-0.372c0.13-0.075,0.179-0.233,0.139-0.376
			C5.915,7.333,5.784,7.102,5.65,6.922C6.148,6.71,6.824,6.318,7.167,5.924l0,0c0.071,0.044,0.155,0.094,0.248,0.139
			c0.011,0,0.011,0,0.02,0.003l0,0c0.24,0.116,0.541,0.237,0.904,0.306c-0.38,0.476-0.765,1.061-0.911,1.445
			C7.172,7.942,6.604,8.25,5.291,9.092C4.939,9.31,4.701,9.663,4.623,10.067c-0.087,0.401-0.011,0.813,0.222,1.16
			c0.299,0.439,0.769,0.683,1.267,0.683c0.266,0,0.532-0.081,0.78-0.218l2.248-1.351c0.347-0.084,2.089-0.609,3.42-2.749
			c1.036-1.678,1.622-3.027,1.858-3.641l0.039,0.019c0.143,0.061,0.298,0.111,0.437,0.111c0.261,0,0.515-0.111,0.691-0.282
			c0.188-0.185,0.298-0.436,0.298-0.704V1.534C15.875,1.401,15.806,1.278,15.688,1.232z"/>
	</g>
	<g id="FaibleGroup" display="none">
		<path id="FamineGroup" display="inline" fill="#F9F9F9" d="M12.29,12.749l-2.487,0.469l-4.052-2.214l1.479-1.826l3.31,1.1
			L12.29,12.749z M16.104,8.433v0.28l-2.618,0.821L10.91,9.904l-3.317-1.1L6.81,8.433h0.45C7.153,7.452,7.008,6.699,6.941,5.72l0,0
			C6.934,5.696,6.899,5.04,6.892,4.764C6.843,4.462,6.701,4.348,6.24,4.026C5.982,3.871,5.793,3.812,5.697,3.812
			c-0.169,0-0.318,0.186-0.356,0.744C6.082,4.679,6.13,5.496,6.13,5.496c0.068,0.581-0.222,1.427-0.876,1.65
			C4.045,7.547,4.162,5.213,4.847,4.649c0.019-0.675,0.207-1.292,0.85-1.317c0.259,0,0.519,0.109,0.814,0.295
			c0.134,0.091,0.254,0.171,0.354,0.267c-0.011-0.226-0.021-0.454-0.021-0.69c0-0.495,0.073-1.022,0.513-1.403
			c0.222-0.207,0.47-0.322,0.728-0.317c0.646,0.04,1.039,0.593,1.277,1.164c0.268-0.117,0.612-0.172,0.998-0.037
			c1,0.34,1.547,2.087,1.129,2.686c-0.99,1.417-3.465-1.205-2.816-2.135c0,0,0.104-0.117,0.271-0.263
			C8.745,2.397,8.363,1.952,8.08,1.975c-0.112,0-0.247,0.038-0.404,0.182c-0.273,0.25-0.352,0.589-0.352,1.047
			c0,0.32,0.042,0.678,0.042,1.028c0,0.189,0.011,0.351,0.015,0.531c0.049,0.317,0.049,0.556,0.049,0.89
			C7.502,6.628,7.889,7.434,8,8.431h8.104V8.433z M9.117,3.1l1.887,2.043c-0.338-1.449-1.521-2.257-1.521-2.257L9.117,3.1z
			 M5.235,4.854L4.899,4.992c0,0-0.166,1.146,0,1.739L5.235,4.854z M3.559,11.745l1.488-0.894l1.551-1.922L6.117,8.433H2.684
			L2,9.805L3.559,11.745z M5.291,11.436l-2.637,1.801l0.343,0.438h6.082l-0.015-0.084L5.291,11.436z M-0.14,8.433v2.077l1.684-0.908
			l0.52-1.169H-0.14z M11.396,10.344l1.641,2.391l3.066,0.722v-2.73l-2.208-0.71L11.396,10.344z M16.104,10.133V9.177l-1.727,0.459
			L16.104,10.133z M1.595,10.272l-1.734,0.822v2.58h1.267l1.894-1.548L1.595,10.272z M10.678,13.675h3.975l-1.894-0.457
			L10.678,13.675z"/>
		<path id="CycloneGroup" display="inline" fill="#FFFFFF" d="M8.04,2.853c-0.087,0-0.169-0.012-0.254-0.012
			c-0.744,0-1.441,0.194-2.043,0.525C6.824-0.328,9.537-0.66,9.537-0.66S3.541-0.15,3.541,6.844c0.003,0,0.003,0,0.011,0
			c0,0.079-0.007,0.158-0.007,0.247c0,0.739,0.193,1.445,0.529,2.055C0.371,8.051,0.05,5.343,0.05,5.343s0.502,5.998,7.501,5.998
			c0-0.005,0-0.005,0-0.014c0.082,0.004,0.158,0.014,0.245,0.014c0.747,0,1.445-0.189,2.054-0.528
			c-1.096,3.703-3.81,4.024-3.81,4.024s6.005-0.503,6.005-7.502c-0.012,0-0.012,0-0.012,0c0-0.084,0.012-0.168,0.012-0.249
			c0-0.748-0.189-1.445-0.53-2.056c3.697,1.088,4.032,3.806,4.032,3.806S15.045,2.842,8.04,2.842C8.04,2.848,8.04,2.853,8.04,2.853z
			"/>
		<path id="eruptionGroup" display="inline" fill="#FFFFFF" d="M8.974,4.198c0.898,0.308,2.08,0.664,2.339-0.772
			c0.196-1.128,1.682-0.714,2.318-0.778c1.16-0.139,0.285-2.303-1.161-2.332c-1.468-0.034-2.129,0.614-2.727,1.942
			c-0.27,0.639-0.508,1.118-1.546,0.778C7.162,2.689,6.394,3.54,7.028,4.592c0.556,0.931-0.011,1.94-0.011,1.94h1.568
			c0,0-0.008-0.566-0.388-1.161C7.754,4.676,8.058,3.887,8.974,4.198z M0.689,13.867c4.024-2.932,5.033-6.978,5.033-6.978H9.85
			c0,0,1.004,4.046,5.023,6.979L0.689,13.867L0.689,13.867z"/>
		<path id="tsunamiGroup" display="inline" fill="#FFFFFF" d="M15.33,12.024C2.978,12.729,6.436,3.289,9.631,4.101
			C9.303,4.303,9.095,4.996,9.29,5.457c0.225,0.51,0.953,0.788,1.371,0.684c0.986-0.255,1.026-1.641,0.68-2.383
			c-0.377-0.751-1.358-1.698-3.074-1.698c-4.124,0-6.952,2.109-8.013,5.734v5.34H15.33V12.024z"/>
		<path id="earthquakeGroup" display="inline" fill="#FFFFFF" d="M12.182,7.557c-0.208,0-0.408,0.118-0.504,0.312l-0.82,1.543
			L9.846,6.436c-0.084-0.221-0.29-0.374-0.527-0.385C9.067,6.048,8.861,6.185,8.776,6.407L8.08,8.052L6.981,1.47
			C6.93,1.198,6.666,0.99,6.407,1.006c-0.291,0.009-0.523,0.192-0.558,0.47L4.88,9.102l-0.792-4.09
			c-0.042-0.238-0.24-0.427-0.487-0.456C3.365,4.524,3.128,4.649,3.008,4.868L1.721,7.559h-1.989v1.145h2.36
			c0.217,0,0.421-0.117,0.516-0.324l0.694-1.442l1.118,5.815c0.055,0.264,0.295,0.455,0.557,0.455c0.01,0,0.013,0,0.019,0
			c0.284-0.007,0.518-0.211,0.551-0.494l0.955-7.502l0.801,4.934c0.044,0.254,0.242,0.441,0.498,0.479
			c0.257,0.02,0.494-0.115,0.591-0.345l0.856-2.042l0.957,2.806c0.078,0.214,0.266,0.356,0.492,0.376
			c0.236,0.017,0.444-0.098,0.551-0.303l1.283-2.418h2.451V7.557H12.182z"/>
	</g>
	<g id="ImportantGroup" display="none">
		<path id="enlevementGroup" display="inline" fill="#FFFFFF" d="M14.678-1.159c-0.486,0-0.874,0.392-0.874,0.873V3.26
			c0.217,0.043,0.419,0.126,0.586,0.29c0.455,0.452,0.461,1.2,0.019,1.656l-1.651,1.7l-0.229-0.225l1.653-1.69
			c0.322-0.346,0.32-0.885-0.021-1.218c-0.104-0.105-0.229-0.18-0.365-0.212c-0.146-0.039-0.288-0.039-0.427-0.011
			c-0.167,0.038-0.306,0.118-0.418,0.241c-0.978,1.001-1.957,2.008-2.938,3.018C9.762,7.057,9.318,7.621,9.327,8.207
			c0.01,0.54,0,1.097,0,1.638C9.2,9.732,9.052,9.663,8.872,9.634c-0.508-0.09-0.959,0.216-1.131,0.667H7.485c0-0.117,0-0.248,0-0.37
			c0.01-0.563-0.009-1.154,0-1.722C7.506,7.633,7.05,7.057,6.81,6.815C5.828,5.799,4.855,4.793,3.872,3.784
			c-0.11-0.116-0.259-0.2-0.416-0.235c-0.146-0.035-0.29-0.03-0.436,0.013C2.887,3.595,2.754,3.668,2.658,3.773
			C2.319,4.104,2.31,4.645,2.632,4.991l1.655,1.69L4.068,6.904l-1.652-1.7C1.969,4.749,1.978,4.001,2.434,3.549
			c0.17-0.156,0.365-0.242,0.572-0.29V-0.29c0-0.479-0.391-0.873-0.87-0.873c-0.487,0-0.872,0.392-0.872,0.873v6.137
			c0,0.201,0.083,0.386,0.199,0.534l2.965,3.91H4.168c-0.578,0-1.042,0.472-1.042,1.055c0,0.385,0.212,0.705,0.528,0.884
			c-0.311,0.189-0.528,0.51-0.528,0.881c0,0.583,0.464,1.047,1.042,1.047H4.49v0.588h2.912c0.151,0.152,0.328,0.263,0.542,0.304
			c0.066,0.017,0.117,0.021,0.178,0.021c0.518,0,0.953-0.366,1.041-0.87v-0.038h0.186c0,0.191,0,0.387,0.022,0.583h2.95v-0.583h0.32
			c0.571,0,1.043-0.468,1.043-1.045c0-0.375-0.21-0.71-0.53-0.892c0.32-0.183,0.53-0.5,0.53-0.885c0-0.578-0.478-1.048-1.043-1.048
			h-0.257l2.963-3.907c0.122-0.153,0.202-0.333,0.202-0.534v-6.129C15.551-0.767,15.157-1.159,14.678-1.159z M3.642,11.346
			c0-0.285,0.241-0.52,0.528-0.52h3.44l-0.183,1.049H4.168C3.881,11.866,3.642,11.632,3.642,11.346z M3.642,13.125
			c0-0.292,0.241-0.531,0.528-0.531H7.3l-0.179,1.053H4.168C3.881,13.648,3.642,13.415,3.642,13.125z M8.638,14.107
			c-0.047,0.288-0.35,0.474-0.603,0.43c-0.143-0.019-0.257-0.099-0.339-0.213c-0.083-0.114-0.108-0.251-0.087-0.396l0.575-3.354
			c0.048-0.251,0.267-0.433,0.525-0.433c0.03,0,0.059,0,0.085,0.005c0.29,0.055,0.478,0.318,0.427,0.605L8.638,14.107z
			 M13.171,13.125c0,0.288-0.229,0.521-0.521,0.521H9.247l0.176-1.053h3.227C12.937,12.6,13.171,12.837,13.171,13.125z
			 M13.171,11.346c0,0.285-0.229,0.525-0.521,0.525H9.556l0.173-1.021c0-0.004,0-0.017,0-0.021h2.921
			C12.937,10.825,13.171,11.063,13.171,11.346z"/>
	</g>
	<g id="EleveGroup" display="none">
		<path id="attackGroup" display="inline" fill="#FFFFFF" d="M11.854,8.29l4.021-2.586l-3.89-0.41l1.06-4.514l-2.753,2.855
			l-0.777-3.23L8.363,3.412L5.209-0.652l0.99,5.093L3.393,3.814c0,0,0.853,1.63,1.331,2.616l-4.5-0.313l4.076,2.383l-1.167,1.19
			l1.889-0.338L3.684,14.09l3.979-3.332l1.042,2.577l1.057-2.054l3.43,3.54l-1.724-4.749l3.774,0.389L11.854,8.29z"/>
	</g>
	<g id="ExtremeGroup" display="none">
		<path id="rebelionGroup" display="inline" fill="#FFFFFF" d="M10.848,2.281c0,1.638-1.335,2.967-2.963,2.967
			c-1.644,0-2.974-1.33-2.974-2.967c0-1.645,1.331-2.965,2.974-2.965C9.515-0.683,10.848,0.637,10.848,2.281z M2.927,14.862h1.805
			h0.1l0.071-0.137l0.655-0.647l-0.62-0.131l-0.952-0.199L2.927,14.862z M15.338,2.831l-0.641,0.641l0.041,0.042l-0.521,0.511
			c0.076,0.07,0.139,0.134,0.2,0.207l0.517-0.518l0.105,0.094l0.627-0.641L15.338,2.831z M11.241,6.121l-0.277,0.277l0.03,0.075
			l0.067,0.148l-4.325,4.332l0.461,0.11c0.43,0.088,0.797,0.337,1.041,0.715c0.034,0.046,0.041,0.113,0.064,0.167l0.01-0.017
			l0.321,0.21l0.11-0.026l1.257,0.916l0.855-1.159l-1.884-1.471l0.05-0.121h0.315l1.843-2.164l0.208-1.938L11.241,6.121z
			 M13.253,4.204c-0.567-0.059-1.112,0.361-1.173,0.941l-0.078,0.634l0,0l-0.036,0.456l-0.209,1.937l-0.02,0.183l-0.112,0.132
			l-1.651,1.949l1.239,0.965l0.455,0.35l-0.27,0.356l0.067,0.123c0.171,0.372,0.549,0.602,0.95,0.602c0.062,0,0.121,0,0.182-0.018
			c0.468-0.074,0.82-0.456,0.874-0.926l0.712-6.528C14.253,4.788,13.824,4.268,13.253,4.204z M11.09,12.545l-0.604,0.833
			l-0.345,0.468l-0.479-0.347l-1.045-0.75l-0.089,0.019l-0.042-0.019c0,0.088,0,0.172-0.024,0.261
			c-0.017,0.085-0.047,0.17-0.083,0.249c-0.061,0.152-0.151,0.275-0.248,0.413l0.076,0.167c0.071,0.169,0.172,0.383,0.289,0.571
			l0.298,0.452h2.23L11.09,12.545z M6.852,14.31c-0.019,0-0.052-0.003-0.08-0.003c0,0.04-0.012,0.069-0.012,0.069l0.254,0.487h0.599
			l0.392-0.138c-0.135-0.204-0.241-0.427-0.343-0.653C7.415,14.212,7.153,14.31,6.852,14.31z M7.725,12.069
			c-0.04-0.063-0.111-0.119-0.17-0.171c-0.033-0.037-0.058-0.084-0.109-0.108c-0.102-0.074-0.239-0.139-0.375-0.167l-0.456-0.098
			l-1.059-0.218l0,0l-0.938-0.205l-0.363-0.069L3.664,10.9l-0.042-0.006l0.102-0.105l0.407-0.401l0.43-0.429
			c0.033,0.302,0.051,0.531,0.051,0.535l0.143,0.031l1.306,0.282l0.268-0.272l4.049-4.062L10.28,6.245l0.028-0.025
			C9.727,6.048,9.037,5.932,8.166,5.932H7.884H7.599c-0.616,0-1.23,0.049-1.832,0.182C4.723,6.35,4.078,7.37,3.376,8.063
			c-0.73,0.722-1.442,1.47-2.152,2.214c-0.158,0.167-0.314,0.337-0.481,0.492c-0.271,0.282-0.374,0.688-0.271,1.055
			c0.111,0.372,0.416,0.646,0.802,0.738l1.4,0.303l0.593,0.125l3.369,0.718c0.074,0.01,0.147,0.019,0.217,0.019
			c0.492,0,0.934-0.333,1.04-0.842c0.04-0.198,0.009-0.37-0.05-0.545l-0.059-0.143C7.759,12.158,7.741,12.123,7.725,12.069z
			 M6.24,14.664l-0.103-0.191l0.056-0.214l0.004-0.039l-0.166-0.051l-0.588,0.693h0.903L6.24,14.664z"/>
	</g>
	<path id="displacedGroup" display="none" fill="#FFFFFF" d="M7.967,1.278C8.091,2.045,7.574,2.762,6.81,2.892
		c-0.764,0.133-1.493-0.39-1.615-1.15c-0.122-0.772,0.39-1.5,1.16-1.618C7.122-0.009,7.842,0.512,7.967,1.278z M7.532,6.854
		l1.245,1.987c0.177,0.283,0.542,0.37,0.832,0.203c0.284-0.17,0.378-0.525,0.217-0.823L9.515,7.657
		C9.235,7.16,8.974,6.671,8.694,6.185L8.141,5.174C8.08,5.057,8.018,4.932,7.953,4.788C7.613,4.072,7.082,2.965,5.91,3.063
		c-1,0.092-2.02,0.573-3.015,1.418C1.713,5.412,0.883,6.76,0.857,6.829c-0.039,0.053-0.08,0.114-0.106,0.167c0,0,0,0-0.008,0.005
		l0,0c-0.108,0.213-0.164,0.402-0.031,0.65c0.111,0.185,0.32,0.306,0.538,0.306c0.266,0,0.401-0.128,0.532-0.317l0,0l0,0
		c0.04-0.053,0.078-0.113,0.113-0.172c0.003-0.009,0.699-1.135,1.781-2.042c0.323-0.256,0.643-0.434,0.937-0.528L4.371,7.779
		C4.346,8.063,4.254,8.563,4.179,8.841l-0.537,1.886c-0.066,0.234-0.271,0.636-0.424,0.822l-1.455,1.797
		c-0.19,0.238-0.396,0.495-0.229,0.859c0.103,0.213,0.318,0.34,0.557,0.34c0.276,0,0.431-0.165,0.624-0.369l1.471-1.587
		c0.263-0.28,0.603-0.777,0.776-1.117l0.729-1.486l2.702,4.537c0.136,0.223,0.306,0.505,0.671,0.505l0,0
		c0.208,0,0.402-0.112,0.517-0.282c0.196-0.304,0.06-0.571-0.051-0.82L7.333,9.177C7.249,8.991,7.207,8.611,7.238,8.41L7.532,6.854z
		 M9.814,11.792h3.268v0.972l3.261-1.88L13.082,9.01v0.972H9.814V11.792z"/>
	<path id="returnedGroup" display="none" fill="#FFFFFF" d="M7.973,1.278C8.091,2.045,7.579,2.762,6.81,2.892
		c-0.764,0.126-1.495-0.39-1.614-1.159C5.073,0.965,5.584,0.242,6.354,0.119C7.122-0.009,7.842,0.511,7.973,1.278z M7.532,6.849
		l1.245,1.992c0.177,0.283,0.542,0.367,0.832,0.203c0.284-0.177,0.378-0.525,0.217-0.823L9.515,7.65
		c-0.271-0.493-0.539-0.979-0.81-1.472L8.141,5.172C8.08,5.057,8.023,4.932,7.953,4.788C7.613,4.076,7.082,2.962,5.91,3.065
		C4.915,3.148,3.897,3.626,2.895,4.472C1.709,5.414,0.876,6.76,0.852,6.826C0.819,6.885,0.777,6.938,0.751,6.997L0.743,7.002l0,0
		c-0.108,0.213-0.164,0.402-0.031,0.65c0.111,0.185,0.32,0.313,0.538,0.313c0.266,0,0.401-0.129,0.528-0.317l0,0l0,0
		c0.035-0.058,0.075-0.117,0.111-0.18c0.009-0.009,0.704-1.126,1.777-2.042C4,5.165,4.318,4.987,4.614,4.887L4.371,7.779
		C4.346,8.063,4.254,8.563,4.179,8.841l-0.537,1.886c-0.066,0.237-0.271,0.636-0.437,0.822l-1.444,1.797
		c-0.189,0.238-0.396,0.495-0.229,0.859c0.105,0.213,0.32,0.34,0.559,0.34c0.276,0,0.431-0.165,0.624-0.369l1.471-1.587
		c0.263-0.28,0.603-0.777,0.765-1.117l0.736-1.488l2.701,4.537c0.13,0.223,0.309,0.505,0.672,0.505l0,0
		c0.206,0,0.398-0.112,0.521-0.288c0.189-0.298,0.057-0.576-0.051-0.812L7.338,9.177C7.26,8.991,7.212,8.611,7.238,8.41L7.532,6.849
		z M16.63,7.865c0-1.988-1.616-3.591-3.596-3.591h-1.525v1.808h1.53c0.975,0,1.781,0.798,1.781,1.783
		c0,0.971-0.79,1.778-1.781,1.778h-0.322V8.666l-3.251,1.879l3.251,1.879v-0.966h0.354l0,0C15.034,11.425,16.63,9.83,16.63,7.865z"
		/>
	<path id="epidemieGroup" fill="#FFFFFF" d="M14.232,7.716c0-3.532-2.769-6.401-6.242-6.577c1.539,0.141,2.736,1.262,2.736,2.62
		c0,0.464-0.161,0.895-0.408,1.276c-0.693-0.684-1.634-1.1-2.687-1.1c-1.04,0-1.99,0.417-2.671,1.102
		C4.723,4.656,4.565,4.223,4.565,3.759c0-1.358,1.185-2.476,2.734-2.62C3.821,1.323,1.058,4.19,1.058,7.716
		c0,1.06,0.261,2.068,0.711,2.956C1.149,9.278,1.522,7.71,2.684,7.045c0.405-0.231,0.851-0.32,1.31-0.299
		C3.903,7.061,3.848,7.383,3.848,7.724c0,1.755,1.195,3.215,2.816,3.65c-0.029,0.035-0.061,0.068-0.08,0.116v0.003
		c-0.055,0.116-0.115,0.218-0.197,0.301c-0.177,0.229-0.375,0.431-0.636,0.577c-1.161,0.673-2.712,0.205-3.616-1.036
		c1.181,1.794,3.2,2.977,5.508,2.977c2.28,0,4.28-1.159,5.479-2.921c-0.92,1.202-2.437,1.646-3.585,0.984
		c-0.408-0.237-0.7-0.588-0.902-1.001c1.606-0.436,2.796-1.904,2.796-3.65c0-0.338-0.051-0.656-0.124-0.974
		c0.455-0.026,0.907,0.064,1.313,0.303c1.129,0.646,1.513,2.14,0.961,3.498C13.994,9.691,14.232,8.732,14.232,7.716z M8.339,10.251
		C8.309,9.7,8.43,9.131,8.705,8.582L8.267,8.329c-0.155,0.17-0.383,0.268-0.624,0.268c-0.249,0-0.471-0.1-0.635-0.266L6.584,8.577
		c0.281,0.547,0.39,1.123,0.361,1.681C5.828,9.946,5,8.938,5,7.726c0-0.232,0.043-0.448,0.097-0.657
		c0.487,0.243,0.935,0.628,1.268,1.135l0.447-0.26C6.791,7.869,6.76,7.796,6.76,7.716c0-0.413,0.282-0.741,0.666-0.836V6.37
		C6.81,6.325,6.263,6.144,5.804,5.841c0.464-0.468,1.12-0.754,1.83-0.754c0.71,0,1.375,0.299,1.851,0.762
		c-0.468,0.305-1.02,0.486-1.623,0.531v0.503c0.371,0.1,0.658,0.425,0.658,0.836c0,0.079-0.023,0.153-0.044,0.223l0.445,0.255
		c0.328-0.504,0.777-0.885,1.259-1.134c0.051,0.21,0.101,0.425,0.101,0.654C10.273,8.938,9.455,9.939,8.339,10.251z"/>
</g>
</svg>
