<?xml version="1.0" encoding="utf-8"?>
<!-- Generator: Adobe Illustrator 16.0.0, SVG Export Plug-In . SVG Version: 6.00 Build 0)  -->
<!DOCTYPE svg PUBLIC "-//W3C//DTD SVG 1.1//EN" "http://www.w3.org/Graphics/SVG/1.1/DTD/svg11.dtd">
<svg version="1.1" id="Layer_1" xmlns="http://www.w3.org/2000/svg" xmlns:xlink="http://www.w3.org/1999/xlink" x="0px" y="0px"
	 width="33.35px" height="40px" viewBox="0 0 33.35 40" enable-background="new 0 0 33.35 40" xml:space="preserve">
<g id="PinColor">
	<path id="PinOmbre" opacity="0.3" enable-background="new    " d="M28.178,30.525c0,1.772-3.891,3.263-9.128,3.654
		c-0.884,0.065-2.753,4.226-2.753,4.226s-1.935-4.16-2.846-4.231c-5.188-0.402-9.035-1.884-9.035-3.646
		c0-2.073,5.319-3.756,11.881-3.756S28.178,28.45,28.178,30.525z"/>
	<path id="vert" fill="#2ABF00" stroke="#1D7500" stroke-width="0.2" stroke-miterlimit="10" d="M28.178,13.09
		c0,5.429-3.891,9.98-9.128,11.184c-0.884,0.199-2.753,12.93-2.753,12.93s-1.935-12.729-2.846-12.954
		c-5.188-1.229-9.035-5.763-9.035-11.161c0-6.347,5.319-11.492,11.881-11.492C22.859,1.595,28.178,6.744,28.178,13.09z"/>
	<path id="orange" display="none" fill="#FF8500" stroke="#7F4500" stroke-width="0.2" stroke-miterlimit="10" d="M28.178,13.09
		c0,5.429-3.891,9.98-9.128,11.184c-0.884,0.199-2.753,12.93-2.753,12.93s-1.935-12.729-2.846-12.954
		c-5.188-1.229-9.035-5.763-9.035-11.161c0-6.347,5.319-11.492,11.881-11.492C22.859,1.595,28.178,6.744,28.178,13.09z"/>
	<path id="gris" display="none" fill="#A5A5A5" stroke="#595959" stroke-width="0.2" stroke-miterlimit="10" d="M28.178,13.09
		c0,5.429-3.891,9.98-9.128,11.184c-0.884,0.199-2.753,12.93-2.753,12.93s-1.935-12.729-2.846-12.954
		c-5.188-1.229-9.035-5.763-9.035-11.161c0-6.347,5.319-11.492,11.881-11.492C22.859,1.595,28.178,6.744,28.178,13.09z"/>
	<path id="bleu" display="none" fill="#0092FF" stroke="#00477C" stroke-width="0.2" stroke-miterlimit="10" d="M28.178,13.09
		c0,5.429-3.891,9.98-9.128,11.184c-0.884,0.199-2.753,12.93-2.753,12.93s-1.935-12.729-2.846-12.954
		c-5.188-1.229-9.035-5.763-9.035-11.161c0-6.347,5.319-11.492,11.881-11.492C22.859,1.595,28.178,6.744,28.178,13.09z"/>
</g>
<g id="Icons">
	<g id="Minimal">
		<path id="Election" display="none" fill="#565656" d="M28.609,14.489l-4.838-2.074c-0.144-0.062-0.312-0.019-0.406,0.103
			l-1.385,1.728c-0.061,0.077-0.086,0.188-0.066,0.289c0.022,0.097,0.084,0.176,0.172,0.223l-4.337,1.626
			c-0.365,0.137-0.675,0.395-0.875,0.729l-1.436,2.392c-0.303,0.511-0.329,1.129-0.063,1.661l0.104,0.202h-1.515
			c-0.191,0-0.347,0.156-0.347,0.346v6.565h-1.037c-0.19,0-0.343,0.155-0.343,0.344c0,0.191,0.152,0.346,0.343,0.346H24.33
			c0.188,0,0.338-0.154,0.338-0.346c0-0.188-0.149-0.344-0.338-0.344h-1.039v-3.53c0-0.119-0.065-0.231-0.161-0.291
			c-0.103-0.066-0.224-0.073-0.331-0.022c-0.382,0.178-0.661,0.269-0.797,0.307c-0.026,0.009-0.056,0.021-0.077,0.039l-2.251,1.346
			c-0.361,0.217-0.767,0.33-1.183,0.33c-0.764,0-1.481-0.382-1.917-1.027c-0.347-0.518-0.465-1.146-0.338-1.753
			c0.131-0.609,0.494-1.132,1.014-1.465l0.326-0.207c0.24-0.146,0.452-0.279,0.644-0.398c0.133-0.082,0.193-0.243,0.149-0.395
			c-0.086-0.276-0.23-0.522-0.364-0.711c0.526-0.231,1.242-0.643,1.599-1.06c0,0,0.005,0.002,0.008,0.002
			c0.075,0.047,0.163,0.095,0.265,0.143c0.007,0.002,0.01,0.004,0.019,0.008l0,0c0.258,0.124,0.583,0.247,0.957,0.322
			c-0.402,0.498-0.812,1.119-0.959,1.533c-0.286,0.126-0.881,0.465-2.27,1.347c-0.367,0.232-0.62,0.597-0.707,1.024
			c-0.093,0.425-0.012,0.862,0.233,1.227c0.308,0.465,0.816,0.72,1.341,0.72c0.281,0,0.567-0.076,0.824-0.23l2.374-1.426
			c0.369-0.09,2.217-0.645,3.616-2.907c1.097-1.772,1.712-3.201,1.967-3.848l0.043,0.022c0.144,0.072,0.302,0.108,0.462,0.108
			c0.265,0,0.526-0.105,0.72-0.291c0.206-0.194,0.318-0.46,0.318-0.745v-1.643C28.814,14.667,28.735,14.542,28.609,14.489z"/>
	</g>
	<g id="Faible">
		<path id="Famine" display="none" fill="#F9F9F9" d="M25.497,27.209l-2.747,0.519l-4.481-2.438l1.628-2.033l3.667,1.218
			L25.497,27.209z M29.717,22.441v0.306l-2.891,0.915l-2.854,0.407l-3.668-1.221l-0.862-0.407h0.493
			c-0.116-1.092-0.274-1.918-0.352-3h-0.005c-0.002-0.031-0.04-0.756-0.049-1.065c-0.058-0.325-0.214-0.456-0.721-0.806
			c-0.279-0.181-0.486-0.244-0.604-0.243c-0.188,0-0.356,0.203-0.394,0.812c0.813,0.139,0.87,1.042,0.87,1.042
			c0.074,0.643-0.242,1.581-0.966,1.823c-1.345,0.45-1.205-2.137-0.451-2.759c0.022-0.745,0.23-1.429,0.94-1.456
			c0.278,0.002,0.564,0.117,0.898,0.327c0.157,0.095,0.286,0.193,0.398,0.291c-0.013-0.245-0.026-0.497-0.026-0.755
			c-0.004-0.543,0.081-1.135,0.563-1.554c0.248-0.227,0.527-0.342,0.805-0.34c0.716,0.035,1.159,0.654,1.422,1.285
			c0.301-0.131,0.677-0.196,1.107-0.047c1.104,0.384,1.699,2.308,1.239,2.977c-1.09,1.563-3.83-1.345-3.104-2.36
			c0,0,0.105-0.139,0.292-0.291c-0.211-0.562-0.64-1.062-0.957-1.026c-0.122,0.002-0.266,0.046-0.445,0.205
			c-0.305,0.269-0.384,0.65-0.384,1.151c0,0.354,0.041,0.745,0.041,1.138c0,0.205,0.016,0.385,0.022,0.584
			c0.049,0.351,0.051,0.619,0.049,0.987c0.073,1.079,0.512,1.965,0.627,3.077h8.965L29.717,22.441L29.717,22.441z M22,16.541
			l2.078,2.261c-0.37-1.603-1.688-2.496-1.688-2.496L22,16.541z M17.7,18.482l-0.37,0.152c0,0-0.185,1.264,0,1.923L17.7,18.482z
			 M15.841,26.104l1.649-0.992l1.72-2.126l-0.536-0.548h-3.799l-0.756,1.506L15.841,26.104z M17.766,25.763l-2.922,1.989
			l0.389,0.481h6.723l-0.022-0.1L17.766,25.763z M11.752,22.441v2.293l1.873-1.002l0.567-1.291H11.752z M24.515,24.561l1.812,2.627
			l3.391,0.797v-3.007l-2.439-0.786L24.515,24.561z M29.717,24.319v-1.061l-1.901,0.515L29.717,24.319z M13.673,24.468l-1.918,0.914
			v2.854h1.401l2.09-1.713L13.673,24.468z M23.722,28.236h4.387l-2.1-0.509L23.722,28.236z"/>
		<path id="Cyclone" display="none" fill="#FFFFFF" d="M20.804,16.272c-0.091-0.005-0.184-0.016-0.276-0.016
			c-0.825,0-1.596,0.215-2.271,0.586c1.2-4.099,4.204-4.455,4.204-4.455s-6.63,0.553-6.63,8.288c0.004,0,0.008,0,0.013,0
			c-0.005,0.095-0.013,0.183-0.013,0.277c0,0.819,0.213,1.595,0.585,2.272c-4.099-1.205-4.456-4.204-4.456-4.204
			s0.552,6.632,8.292,6.632c0-0.008,0-0.01,0-0.017c0.09,0.004,0.183,0.017,0.273,0.017c0.825,0,1.599-0.217,2.274-0.59
			c-1.204,4.1-4.208,4.459-4.208,4.459s6.632-0.556,6.632-8.291c-0.005,0-0.01,0-0.014,0c0.004-0.093,0.014-0.182,0.014-0.274
			c0-0.822-0.215-1.597-0.588-2.269c4.098,1.202,4.456,4.203,4.456,4.203s-0.55-6.632-8.286-6.632
			C20.804,16.263,20.804,16.267,20.804,16.272z"/>
		<path id="eruption" display="none" fill="#FFFFFF" d="M21.834,17.757c0.986,0.337,2.298,0.735,2.574-0.858
			c0.222-1.239,1.877-0.78,2.578-0.858c1.283-0.147,0.315-2.544-1.289-2.579c-1.622-0.037-2.36,0.675-3.007,2.149
			c-0.312,0.708-0.57,1.24-1.719,0.861c-1.146-0.384-1.985,0.558-1.291,1.718c0.616,1.025-0.01,2.146-0.01,2.146h1.73
			c0,0-0.014-0.635-0.43-1.289C20.49,18.288,20.823,17.41,21.834,17.757z M12.676,28.448c4.447-3.239,5.557-7.721,5.557-7.721h4.57
			c0,0,1.108,4.479,5.554,7.721H12.676z"/>
		<path id="tsunami" display="none" fill="#FFFFFF" d="M28.86,26.412c-13.65,0.773-9.837-9.665-6.295-8.764
			c-0.366,0.222-0.6,0.99-0.373,1.508c0.247,0.552,1.047,0.869,1.504,0.755c1.1-0.283,1.147-1.826,0.753-2.637
			c-0.41-0.842-1.494-1.882-3.389-1.882c-4.57,0-7.688,2.333-8.862,6.347v5.898h16.664v-1.225H28.86L28.86,26.412z"/>
		<path id="earthquake" display="none" fill="#FFFFFF" d="M25.385,21.468c-0.233,0-0.45,0.13-0.56,0.339l-0.91,1.714l-1.121-3.286
			c-0.087-0.25-0.317-0.417-0.576-0.431c-0.271-0.007-0.507,0.147-0.61,0.387l-0.767,1.828l-1.211-7.275
			c-0.061-0.305-0.345-0.536-0.638-0.52c-0.313,0.007-0.57,0.214-0.612,0.521l-1.074,8.442l-0.869-4.531
			c-0.049-0.266-0.267-0.471-0.536-0.507c-0.268-0.038-0.537,0.107-0.655,0.352l-1.424,2.966h-2.209v1.265h2.608
			c0.244,0,0.466-0.14,0.573-0.358l0.762-1.592l1.236,6.427c0.06,0.298,0.317,0.513,0.62,0.513c0.006,0,0.014,0,0.019,0
			c0.308-0.009,0.565-0.24,0.61-0.548l1.056-8.297l0.884,5.461c0.053,0.276,0.273,0.486,0.554,0.516
			c0.282,0.025,0.546-0.126,0.658-0.385l0.948-2.256l1.058,3.097c0.079,0.239,0.295,0.407,0.545,0.429
			c0.252,0.014,0.493-0.111,0.61-0.335l1.415-2.671h2.715v-1.265H25.385L25.385,21.468z"/>
	</g>
	<g id="Modéré">
	</g>
	<g id="Important">
		<path id="enlevement" display="none" fill="#FFFFFF" d="M26.437,12.937c-0.45,0-0.82,0.37-0.82,0.823v3.346
			c0.198,0.043,0.388,0.127,0.541,0.277c0.433,0.427,0.445,1.127,0.022,1.564l-1.557,1.601l-0.218-0.21l1.563-1.596
			c0.314-0.322,0.305-0.836-0.017-1.153c-0.101-0.095-0.219-0.161-0.343-0.196c-0.14-0.038-0.276-0.04-0.412-0.011
			c-0.15,0.039-0.285,0.115-0.392,0.229c-0.924,0.947-1.853,1.895-2.775,2.843c-0.233,0.238-0.657,0.782-0.642,1.324
			c0.008,0.511-0.007,1.034,0.002,1.546c-0.122-0.099-0.27-0.171-0.433-0.199c-0.479-0.078-0.909,0.206-1.072,0.63h-0.242
			c0-0.116,0-0.231,0.003-0.348c0.011-0.536-0.01-1.092,0.004-1.628c0.013-0.544-0.412-1.088-0.644-1.327
			c-0.924-0.949-1.848-1.897-2.775-2.846c-0.106-0.109-0.239-0.188-0.393-0.224c-0.136-0.029-0.272-0.027-0.409,0.011
			c-0.127,0.037-0.247,0.103-0.345,0.198c-0.318,0.314-0.326,0.828-0.015,1.153l1.562,1.594l-0.218,0.208l-1.557-1.6
			c-0.425-0.438-0.415-1.138,0.021-1.563c0.154-0.148,0.343-0.233,0.542-0.277v-3.348c0-0.452-0.37-0.822-0.82-0.822
			c-0.456,0-0.822,0.37-0.822,0.822v5.795c0,0.188,0.077,0.362,0.189,0.503l2.798,3.696h-0.249c-0.543,0-0.988,0.442-0.988,0.991
			c0,0.363,0.205,0.665,0.496,0.839c-0.291,0.17-0.496,0.478-0.496,0.836c0,0.549,0.444,0.993,0.988,0.993h0.302v0.552h2.749
			c0.144,0.143,0.313,0.245,0.514,0.279c0.057,0.01,0.108,0.014,0.164,0.014c0.482,0,0.896-0.343,0.974-0.818l0.005-0.024h0.175
			c0.003,0.181,0,0.362,0.021,0.552h2.799v-0.552h0.304c0.543,0,0.989-0.442,0.989-0.994c0-0.359-0.205-0.662-0.498-0.836
			c0.293-0.172,0.498-0.476,0.498-0.844c0-0.545-0.444-0.987-0.989-0.987h-0.248l2.799-3.697c0.114-0.141,0.188-0.316,0.188-0.504
			v-5.792C27.259,13.307,26.892,12.937,26.437,12.937z M16.024,24.743c0-0.271,0.221-0.492,0.493-0.492h3.246l-0.171,0.989h-3.074
			C16.246,25.238,16.024,25.021,16.024,24.743z M16.024,26.422c0-0.27,0.221-0.495,0.493-0.495h2.955l-0.17,0.991h-2.784
			C16.246,26.918,16.024,26.697,16.024,26.422z M20.73,27.354c-0.042,0.271-0.321,0.447-0.566,0.406
			c-0.131-0.024-0.244-0.094-0.321-0.199c-0.076-0.111-0.105-0.24-0.082-0.369l0.547-3.169c0.042-0.241,0.25-0.414,0.495-0.414
			c0.024,0,0.052,0,0.077,0.007c0.269,0.046,0.448,0.303,0.401,0.569L20.73,27.354z M25.013,26.422c0,0.273-0.224,0.496-0.494,0.496
			H21.31l0.172-0.991h3.039C24.789,25.929,25.013,26.152,25.013,26.422z M25.013,24.743c0,0.271-0.224,0.495-0.494,0.495h-2.92
			l0.169-0.969c0.002-0.007,0-0.014,0-0.021h2.751C24.789,24.251,25.013,24.475,25.013,24.743z"/>
	</g>
	<g id="Elevé">
	</g>
	<g id="Extreme" display="none">
		<path id="rebelion" display="inline" fill="#FFFFFF" d="M23.112,16.505c0,1.524-1.235,2.756-2.755,2.756
			c-1.528,0-2.762-1.233-2.762-2.756c0-1.525,1.233-2.758,2.762-2.758C21.876,13.748,23.112,14.98,23.112,16.505z M15.753,28.2
			h1.686h0.091l0.061-0.127l0.611-0.602l-0.564-0.12l-0.896-0.192L15.753,28.2z M27.287,17.016l-0.593,0.591l0.041,0.041
			l-0.478,0.482c0.065,0.058,0.126,0.118,0.178,0.186l0.482-0.482l0.098,0.09l0.585-0.595L27.287,17.016z M23.482,20.076
			l-0.256,0.251l0.03,0.074l0.058,0.134l-4.021,4.033l0.434,0.092c0.396,0.081,0.738,0.319,0.959,0.663
			c0.029,0.048,0.038,0.11,0.065,0.161l0.012-0.017l0.297,0.196l0.106-0.022l1.172,0.85l0.788-1.079l-1.743-1.362l0.035-0.114h0.289
			l1.715-2.01l0.19-1.803L23.482,20.076z M25.349,18.293c-0.521-0.058-1.028,0.332-1.09,0.872l-0.066,0.589l0,0l-0.04,0.424
			l-0.19,1.804l-0.02,0.169l-0.108,0.128l-1.536,1.8l1.156,0.906l0.415,0.324l-0.244,0.33l0.063,0.122
			c0.159,0.346,0.511,0.562,0.889,0.562c0.055,0,0.109-0.003,0.166-0.014c0.432-0.075,0.766-0.428,0.813-0.863l0.656-6.066
			C26.279,18.837,25.887,18.349,25.349,18.293z M23.342,26.039l-0.564,0.775l-0.319,0.442l-0.443-0.321l-0.969-0.703l-0.086,0.023
			l-0.037-0.024c0,0.084-0.002,0.166-0.02,0.247c-0.019,0.081-0.048,0.155-0.078,0.23c-0.062,0.144-0.141,0.269-0.235,0.381
			l0.07,0.156c0.067,0.155,0.162,0.356,0.272,0.53l0.271,0.422h2.073L23.342,26.039z M19.402,27.69c-0.023,0-0.048-0.007-0.07-0.009
			c-0.014,0.042-0.021,0.077-0.021,0.077l0.234,0.439h0.562l0.364-0.127c-0.122-0.191-0.224-0.399-0.316-0.606
			C19.928,27.597,19.678,27.69,19.402,27.69z M20.212,25.603c-0.04-0.062-0.104-0.109-0.159-0.16c-0.03-0.03-0.06-0.073-0.1-0.098
			c-0.102-0.072-0.22-0.125-0.347-0.154l-0.43-0.087l-0.979-0.211l0,0l-0.867-0.185l-0.338-0.072l-0.558-0.122L16.4,24.509
			l0.087-0.091l0.375-0.371l0.401-0.406c0.034,0.277,0.05,0.498,0.05,0.503l0.131,0.026l1.217,0.259l0.247-0.251L22.67,20.4
			l-0.086-0.213l0.031-0.024c-0.545-0.167-1.188-0.26-1.995-0.26h-0.265c0,0-0.264,0-0.266,0c-0.567,0-1.143,0.039-1.704,0.165
			c-0.962,0.217-1.561,1.161-2.221,1.81c-0.681,0.67-1.343,1.366-2.003,2.054c-0.146,0.154-0.293,0.313-0.443,0.464
			c-0.254,0.258-0.346,0.63-0.245,0.979c0.099,0.348,0.385,0.609,0.739,0.687l1.301,0.277l0.553,0.118l3.127,0.665
			c0.07,0.012,0.14,0.024,0.208,0.024c0.455,0,0.862-0.317,0.962-0.78c0.036-0.182,0.008-0.354-0.046-0.516l-0.062-0.123
			C20.24,25.688,20.228,25.649,20.212,25.603z M18.832,28.011l-0.095-0.177l0.048-0.199l0.01-0.038l-0.152-0.033l-0.553,0.635h0.838
			L18.832,28.011z"/>
	</g>
	<path id="displaced" display="none" fill="#FFFFFF" d="M21.473,14.125c0.135,0.852-0.436,1.65-1.282,1.788
		c-0.847,0.141-1.652-0.434-1.788-1.28c-0.14-0.849,0.431-1.653,1.284-1.792C20.53,12.704,21.332,13.277,21.473,14.125z
		 M20.987,20.294l1.378,2.2c0.196,0.312,0.6,0.41,0.913,0.226c0.318-0.187,0.425-0.59,0.254-0.911l-0.354-0.63
		c-0.306-0.54-0.604-1.086-0.904-1.626l-0.611-1.114c-0.07-0.131-0.138-0.277-0.211-0.429c-0.377-0.793-0.967-2.019-2.262-1.908
		c-1.105,0.097-2.229,0.624-3.337,1.563c-1.307,1.033-2.224,2.532-2.258,2.597c-0.046,0.065-0.085,0.134-0.117,0.196
		c-0.004,0.002-0.004,0.005-0.007,0.007l0,0c-0.125,0.231-0.186,0.443-0.032,0.714c0.123,0.212,0.347,0.34,0.587,0.34
		c0.298,0,0.447-0.14,0.592-0.348l0,0c0.002,0,0.002-0.005,0.002-0.005c0.041-0.062,0.079-0.126,0.127-0.197
		c0.006-0.013,0.774-1.246,1.962-2.259c0.366-0.288,0.715-0.485,1.042-0.593l-0.266,3.203c-0.026,0.316-0.126,0.863-0.214,1.169
		l-0.598,2.088c-0.077,0.263-0.3,0.7-0.473,0.912l-1.609,1.997c-0.204,0.254-0.433,0.54-0.244,0.938
		c0.113,0.234,0.349,0.385,0.61,0.385c0.314,0,0.48-0.178,0.689-0.409l1.631-1.757c0.291-0.314,0.669-0.855,0.857-1.244l0.809-1.643
		l2.988,5.021c0.145,0.246,0.332,0.558,0.735,0.558l0,0c0.233,0,0.446-0.12,0.566-0.312c0.22-0.332,0.074-0.635-0.05-0.904
		l-2.418-5.251c-0.093-0.209-0.146-0.626-0.106-0.854L20.987,20.294z M23.519,25.761h3.625v1.074l3.596-2.076l-3.596-2.077v1.074
		h-3.625V25.761z"/>
	<path id="epidemie" fill="#FFFFFF" d="M27.081,12.893c0-5.776-4.523-10.474-10.227-10.768c2.518,0.242,4.477,2.066,4.477,4.29
		c0,0.764-0.252,1.467-0.658,2.089c-1.127-1.12-2.67-1.811-4.38-1.811c-1.706,0-3.252,0.691-4.374,1.807
		c-0.402-0.621-0.655-1.325-0.655-2.09c0-2.219,1.957-4.049,4.471-4.288C10.041,2.416,5.513,7.117,5.513,12.893
		c0,1.74,0.422,3.382,1.155,4.841c-0.999-2.282-0.395-4.845,1.507-5.942c0.665-0.382,1.407-0.519,2.14-0.476
		c-0.14,0.506-0.232,1.037-0.232,1.59c0,2.866,1.96,5.261,4.602,5.974c-0.036,0.062-0.078,0.12-0.114,0.181c0,0.007,0,0.007,0,0.017
		c-0.088,0.195-0.2,0.355-0.331,0.491c-0.283,0.371-0.614,0.701-1.032,0.945c-1.913,1.102-4.453,0.338-5.919-1.693
		c1.93,2.928,5.241,4.867,9.007,4.867c3.728,0,7.017-1.896,8.954-4.779c-1.477,1.966-3.969,2.691-5.85,1.613
		c-0.668-0.39-1.154-0.972-1.486-1.643c2.643-0.714,4.592-3.112,4.592-5.972c0-0.553-0.09-1.083-0.23-1.59
		c0.75-0.049,1.488,0.088,2.156,0.472c1.844,1.064,2.473,3.511,1.59,5.745C26.698,16.122,27.081,14.554,27.081,12.893z
		 M17.447,17.042c-0.045-0.899,0.143-1.84,0.596-2.729L17.322,13.9c-0.258,0.266-0.618,0.428-1.023,0.428
		c-0.397,0-0.76-0.163-1.021-0.428l-0.702,0.403c0.449,0.896,0.641,1.845,0.59,2.743c-1.824-0.498-3.177-2.16-3.177-4.141
		c0-0.382,0.059-0.739,0.152-1.085c0.797,0.4,1.521,1.029,2.074,1.859l0.72-0.42c-0.03-0.124-0.076-0.236-0.076-0.37
		c0-0.666,0.459-1.205,1.08-1.368v-0.817c-1-0.066-1.911-0.376-2.66-0.868c0.78-0.768,1.843-1.24,3.017-1.24
		c1.179,0,2.243,0.476,3.022,1.243c-0.754,0.492-1.66,0.798-2.66,0.865v0.822c0.617,0.161,1.078,0.699,1.078,1.368
		c0,0.134-0.037,0.248-0.068,0.372l0.729,0.426c0.547-0.831,1.271-1.457,2.063-1.857c0.088,0.343,0.152,0.7,0.152,1.073
		C20.611,14.883,19.267,16.537,17.447,17.042z"/>
	<path id="returned" display="none" fill="#FFFFFF" d="M20.056,14.879c0.115,0.7-0.362,1.36-1.057,1.477
		c-0.702,0.115-1.361-0.36-1.476-1.059c-0.117-0.702,0.355-1.362,1.058-1.477C19.278,13.704,19.945,14.177,20.056,14.879z
		 M19.656,19.973l1.14,1.818c0.158,0.254,0.496,0.336,0.757,0.183c0.257-0.154,0.348-0.486,0.203-0.751l-0.289-0.521
		c-0.249-0.445-0.492-0.897-0.743-1.344l-0.506-0.921c-0.06-0.103-0.117-0.224-0.177-0.349c-0.313-0.656-0.802-1.668-1.867-1.575
		c-0.915,0.079-1.842,0.513-2.753,1.288c-1.081,0.853-1.836,2.093-1.872,2.144c-0.032,0.055-0.065,0.11-0.095,0.165
		c-0.002,0.002-0.003,0.002-0.003,0.003l0,0c-0.102,0.192-0.151,0.368-0.024,0.589c0.099,0.176,0.284,0.284,0.487,0.284
		c0.244,0,0.366-0.116,0.486-0.289l0,0c0.002-0.002,0.002-0.002,0.002-0.002c0.032-0.053,0.068-0.108,0.103-0.168
		c0.007-0.01,0.643-1.024,1.622-1.862c0.301-0.235,0.588-0.399,0.86-0.49l-0.221,2.647c-0.023,0.265-0.104,0.713-0.177,0.967
		L16.1,23.511c-0.066,0.219-0.252,0.58-0.395,0.756l-1.33,1.646c-0.168,0.213-0.357,0.447-0.2,0.774
		c0.093,0.192,0.289,0.318,0.504,0.318c0.258,0,0.394-0.147,0.57-0.337l1.345-1.45c0.241-0.26,0.552-0.708,0.706-1.028l0.667-1.356
		l2.467,4.146c0.123,0.206,0.276,0.461,0.612,0.461l0,0c0.191,0,0.366-0.097,0.468-0.262c0.176-0.271,0.061-0.518-0.042-0.744
		l-1.994-4.337c-0.079-0.167-0.123-0.514-0.091-0.701L19.656,19.973z M27.966,20.897c0-1.812-1.474-3.28-3.279-3.28h-1.394v1.656
		h1.394c0.896,0,1.622,0.725,1.622,1.625c0,0.896-0.727,1.624-1.622,1.624h-0.289v-0.889l-2.973,1.717l2.973,1.716v-0.89h0.324
		v-0.003C26.511,24.154,27.966,22.694,27.966,20.897z"/>
	<path id="Attack" display="none" fill="#FFFFFF" d="M24.342,22.078l4.882-3.125l-4.718-0.501l1.283-5.481l-3.348,3.458
		l-0.933-3.909l-1.403,3.647l-3.824-4.924l1.201,6.172l-3.397-0.757c0,0,1.032,1.979,1.609,3.168l-5.453-0.384l4.936,2.889
		l-1.418,1.455l2.296-0.417l-1.628,5.749l4.833-4.04l1.252,3.122l1.289-2.497l4.169,4.303l-2.082-5.762l4.568,0.464L24.342,22.078z"
		/>
</g>
</svg>
