<?xml version="1.0" encoding="utf-8"?>
<!-- Generator: Adobe Illustrator 16.0.0, SVG Export Plug-In . SVG Version: 6.00 Build 0)  -->
<!DOCTYPE svg PUBLIC "-//W3C//DTD SVG 1.1//EN" "http://www.w3.org/Graphics/SVG/1.1/DTD/svg11.dtd">
<svg version="1.1" id="Layer_1" xmlns="http://www.w3.org/2000/svg" xmlns:xlink="http://www.w3.org/1999/xlink" x="0px" y="0px"
	 width="33.35px" height="40px" viewBox="0 0 33.35 40" enable-background="new 0 0 33.35 40" xml:space="preserve">
<g id="PinColor">
	<path id="PinOmbre" opacity="0.3" enable-background="new    " d="M28.771,30.525c0,1.772-3.891,3.263-9.129,3.654
		c-0.883,0.065-2.752,4.226-2.752,4.226s-1.934-4.16-2.846-4.231c-5.188-0.402-9.035-1.884-9.035-3.646
		c0-2.073,5.32-3.756,11.881-3.756S28.771,28.45,28.771,30.525z"/>
	<path id="vert" display="none" fill="#2ABF00" stroke="#1D7500" stroke-width="0.2" stroke-miterlimit="10" d="M28.771,13.09
		c0,5.429-3.891,9.98-9.129,11.184c-0.883,0.199-2.752,12.93-2.752,12.93s-1.934-12.729-2.846-12.954
		c-5.188-1.229-9.035-5.763-9.035-11.161c0-6.347,5.32-11.492,11.881-11.492C23.45,1.595,28.771,6.744,28.771,13.09z"/>
	<path id="orange" display="none" fill="#FF8500" stroke="#7F4500" stroke-width="0.2" stroke-miterlimit="10" d="M28.771,13.09
		c0,5.429-3.891,9.98-9.129,11.184c-0.883,0.199-2.752,12.93-2.752,12.93s-1.934-12.729-2.846-12.954
		c-5.188-1.229-9.035-5.763-9.035-11.161c0-6.347,5.32-11.492,11.881-11.492C23.45,1.595,28.771,6.744,28.771,13.09z"/>
	<path id="gris" fill="#A5A5A5" stroke="#595959" stroke-width="0.2" stroke-miterlimit="10" d="M28.771,13.09
		c0,5.429-3.891,9.98-9.129,11.184c-0.883,0.199-2.752,12.93-2.752,12.93s-1.934-12.729-2.846-12.954
		c-5.188-1.229-9.035-5.763-9.035-11.161c0-6.347,5.32-11.492,11.881-11.492C23.45,1.595,28.771,6.744,28.771,13.09z"/>
	<path id="bleu" display="none" fill="#0092FF" stroke="#00477C" stroke-width="0.2" stroke-miterlimit="10" d="M28.771,13.09
		c0,5.429-3.891,9.98-9.129,11.184c-0.883,0.199-2.752,12.93-2.752,12.93s-1.934-12.729-2.846-12.954
		c-5.188-1.229-9.035-5.763-9.035-11.161c0-6.347,5.32-11.492,11.881-11.492C23.45,1.595,28.771,6.744,28.771,13.09z"/>
</g>
<g id="Icons">
	<g id="Minimal">
		<path id="Election" display="none" fill="#565656" d="M26.215,12.728l-4.17-1.788c-0.124-0.053-0.27-0.017-0.353,0.089
			l-1.192,1.49c-0.054,0.066-0.075,0.162-0.058,0.249c0.02,0.084,0.072,0.151,0.147,0.192l-3.739,1.402
			c-0.316,0.118-0.582,0.34-0.755,0.628l-1.238,2.062c-0.261,0.44-0.282,0.974-0.053,1.432l0.089,0.174h-1.306
			c-0.165,0-0.299,0.136-0.299,0.298v5.661h-0.893c-0.165,0-0.295,0.134-0.295,0.296c0,0.166,0.13,0.299,0.295,0.299h10.129
			c0.162,0,0.29-0.133,0.29-0.299c0-0.162-0.128-0.296-0.29-0.296h-0.897v-3.044c0-0.103-0.056-0.199-0.139-0.251
			c-0.087-0.057-0.192-0.063-0.285-0.02c-0.328,0.154-0.57,0.233-0.687,0.265c-0.023,0.008-0.048,0.018-0.066,0.033l-1.941,1.162
			c-0.312,0.186-0.66,0.284-1.018,0.284c-0.66,0-1.279-0.33-1.654-0.887c-0.3-0.446-0.402-0.987-0.292-1.511
			c0.112-0.525,0.428-0.976,0.875-1.263l0.28-0.179c0.208-0.126,0.391-0.241,0.555-0.344c0.115-0.07,0.168-0.209,0.129-0.34
			c-0.073-0.238-0.197-0.45-0.312-0.613c0.454-0.199,1.071-0.554,1.377-0.914c0,0,0.004,0.002,0.006,0.002
			c0.064,0.041,0.142,0.082,0.229,0.124c0.006,0.002,0.008,0.004,0.016,0.007l0,0c0.225,0.106,0.504,0.213,0.825,0.277
			c-0.346,0.43-0.699,0.965-0.827,1.321c-0.247,0.109-0.759,0.401-1.956,1.162c-0.318,0.2-0.535,0.514-0.609,0.883
			c-0.081,0.365-0.01,0.742,0.202,1.057c0.265,0.401,0.703,0.62,1.156,0.62c0.242,0,0.489-0.065,0.71-0.197l2.047-1.23
			c0.319-0.077,1.912-0.555,3.118-2.506c0.944-1.528,1.476-2.759,1.695-3.317l0.037,0.02c0.125,0.062,0.261,0.093,0.4,0.093
			c0.227,0,0.451-0.091,0.619-0.251c0.179-0.167,0.273-0.397,0.273-0.642v-1.417C26.393,12.881,26.323,12.773,26.215,12.728z"/>
	</g>
	<g id="Faible">
		<path id="Famine" display="none" fill="#F9F9F9" d="M23.532,23.693l-2.368,0.449l-3.863-2.103l1.404-1.753l3.16,1.05
			L23.532,23.693z M27.171,19.584v0.264l-2.493,0.788l-2.461,0.352l-3.16-1.052l-0.744-0.352h0.424
			c-0.101-0.941-0.235-1.653-0.302-2.587h-0.004c-0.002-0.026-0.036-0.651-0.044-0.918c-0.047-0.28-0.185-0.393-0.62-0.694
			c-0.24-0.156-0.421-0.21-0.521-0.209c-0.162,0-0.307,0.175-0.337,0.7c0.7,0.119,0.75,0.898,0.75,0.898
			c0.063,0.554-0.209,1.363-0.833,1.571c-1.16,0.388-1.039-1.842-0.389-2.378c0.02-0.643,0.199-1.232,0.81-1.255
			c0.24,0.002,0.487,0.101,0.774,0.282c0.137,0.082,0.247,0.166,0.344,0.25c-0.01-0.211-0.022-0.428-0.022-0.651
			c-0.002-0.468,0.07-0.979,0.484-1.339c0.216-0.196,0.457-0.295,0.694-0.293c0.617,0.03,1.001,0.563,1.227,1.108
			c0.259-0.113,0.585-0.168,0.955-0.04c0.952,0.331,1.464,1.989,1.068,2.566c-0.938,1.347-3.302-1.159-2.676-2.035
			c0,0,0.091-0.12,0.251-0.251c-0.182-0.484-0.552-0.916-0.825-0.885c-0.105,0.002-0.228,0.04-0.383,0.177
			c-0.264,0.231-0.332,0.561-0.332,0.992c0,0.305,0.038,0.643,0.038,0.981c0,0.177,0.012,0.333,0.018,0.503
			c0.041,0.302,0.043,0.534,0.041,0.851c0.064,0.93,0.443,1.695,0.541,2.653h7.729L27.171,19.584L27.171,19.584z M20.519,14.497
			l1.79,1.95c-0.317-1.382-1.454-2.152-1.454-2.152L20.519,14.497z M16.811,16.17l-0.319,0.131c0,0-0.16,1.09,0,1.659L16.811,16.17z
			 M15.207,22.741l1.422-0.854l1.483-1.833l-0.462-0.472h-3.274l-0.653,1.297L15.207,22.741z M16.866,22.447l-2.519,1.715
			l0.336,0.417h5.797l-0.021-0.087L16.866,22.447z M11.683,19.584v1.977l1.614-0.863l0.491-1.113H11.683z M22.686,21.41l1.562,2.266
			l2.924,0.688V21.77l-2.104-0.677L22.686,21.41z M27.171,21.203v-0.914l-1.64,0.443L27.171,21.203z M13.338,21.331l-1.654,0.788
			v2.462h1.208l1.803-1.478L13.338,21.331z M22.002,24.581h3.781l-1.81-0.438L22.002,24.581z"/>
		<path id="Cyclone" display="none" fill="#FFFFFF" d="M19.488,14.265c-0.079-0.004-0.16-0.013-0.239-0.013
			c-0.711,0-1.376,0.185-1.957,0.505c1.034-3.534,3.624-3.841,3.624-3.841s-5.716,0.477-5.716,7.146c0.004,0,0.006,0,0.01,0
			c-0.004,0.081-0.01,0.157-0.01,0.239c0,0.706,0.185,1.375,0.503,1.959c-3.534-1.039-3.841-3.625-3.841-3.625
			s0.476,5.718,7.151,5.718c0-0.006,0-0.008,0-0.014c0.075,0.004,0.156,0.014,0.235,0.014c0.711,0,1.377-0.186,1.961-0.508
			c-1.039,3.534-3.627,3.844-3.627,3.844s5.716-0.478,5.716-7.147c-0.004,0-0.008,0-0.013,0c0.005-0.08,0.013-0.157,0.013-0.237
			c0-0.709-0.184-1.376-0.506-1.956c3.531,1.036,3.843,3.624,3.843,3.624s-0.476-5.718-7.146-5.718
			C19.488,14.257,19.488,14.261,19.488,14.265z"/>
		<path id="eruption" display="none" fill="#FFFFFF" d="M20.374,15.545c0.852,0.291,1.981,0.634,2.221-0.74
			c0.19-1.068,1.617-0.672,2.223-0.74c1.107-0.126,0.271-2.193-1.112-2.224c-1.398-0.031-2.034,0.583-2.591,1.853
			c-0.27,0.611-0.492,1.069-1.482,0.742c-0.99-0.331-1.712,0.481-1.114,1.481c0.533,0.884-0.008,1.85-0.008,1.85h1.491
			c0,0-0.012-0.547-0.369-1.111C19.215,16.003,19.503,15.246,20.374,15.545z M12.48,24.763c3.834-2.793,4.79-6.656,4.79-6.656h3.94
			c0,0,0.955,3.861,4.789,6.656H12.48z"/>
		<path id="tsunami" display="none" fill="#FFFFFF" d="M26.43,23.009c-11.767,0.665-8.48-8.334-5.426-7.558
			c-0.316,0.191-0.518,0.854-0.321,1.3c0.213,0.476,0.901,0.749,1.295,0.651c0.95-0.244,0.992-1.575,0.65-2.273
			c-0.354-0.727-1.289-1.623-2.922-1.623c-3.939,0-6.628,2.012-7.641,5.472v5.086h14.367v-1.055H26.43L26.43,23.009z"/>
		<path id="earthquake" display="none" fill="#FFFFFF" d="M23.436,18.744c-0.201,0-0.388,0.113-0.482,0.292l-0.783,1.477
			l-0.968-2.832c-0.075-0.215-0.274-0.359-0.498-0.371c-0.233-0.006-0.436,0.126-0.526,0.333l-0.659,1.576l-1.045-6.272
			c-0.051-0.263-0.298-0.462-0.551-0.448c-0.27,0.006-0.492,0.184-0.527,0.449l-0.926,7.278l-0.748-3.906
			c-0.043-0.229-0.232-0.406-0.462-0.438c-0.233-0.033-0.464,0.093-0.566,0.303l-1.228,2.557h-1.905v1.09h2.248
			c0.211,0,0.403-0.12,0.494-0.309l0.657-1.372l1.066,5.54c0.051,0.257,0.273,0.442,0.534,0.442c0.007,0,0.013,0,0.017,0
			c0.265-0.008,0.487-0.207,0.525-0.472l0.911-7.153l0.763,4.708c0.045,0.239,0.237,0.419,0.478,0.444
			c0.243,0.021,0.472-0.108,0.566-0.332l0.817-1.944l0.913,2.669c0.067,0.207,0.255,0.352,0.47,0.369
			c0.217,0.012,0.425-0.095,0.527-0.288l1.218-2.303h2.341v-1.09H23.436L23.436,18.744z"/>
	</g>
	<g id="Modéré">
	</g>
	<g id="Important">
		<path id="enlevement" display="none" fill="#FFFFFF" d="M24.343,11.39c-0.388,0-0.708,0.318-0.708,0.709v2.885
			c0.172,0.038,0.334,0.109,0.467,0.239c0.373,0.368,0.386,0.972,0.021,1.349l-1.343,1.379l-0.186-0.181l1.347-1.375
			c0.271-0.278,0.263-0.721-0.015-0.994c-0.087-0.082-0.189-0.139-0.297-0.169c-0.12-0.033-0.235-0.035-0.355-0.009
			c-0.128,0.034-0.244,0.099-0.338,0.197c-0.796,0.817-1.596,1.634-2.392,2.451c-0.201,0.206-0.564,0.675-0.553,1.142
			c0.006,0.44-0.006,0.892,0.002,1.333c-0.106-0.085-0.233-0.147-0.373-0.172c-0.413-0.067-0.784,0.178-0.925,0.542h-0.209
			c0-0.101,0-0.199,0.002-0.299c0.01-0.462-0.009-0.942,0.004-1.404c0.013-0.469-0.355-0.938-0.556-1.144
			c-0.796-0.819-1.592-1.635-2.392-2.454c-0.093-0.094-0.208-0.161-0.34-0.193c-0.116-0.025-0.234-0.023-0.352,0.009
			c-0.111,0.032-0.213,0.089-0.298,0.171c-0.274,0.271-0.28,0.714-0.012,0.994l1.347,1.374l-0.189,0.181l-1.343-1.379
			c-0.365-0.377-0.358-0.981,0.021-1.347c0.13-0.127,0.294-0.201,0.466-0.239V12.1c0-0.391-0.32-0.709-0.707-0.709
			c-0.393,0-0.71,0.318-0.71,0.709v4.996c0,0.162,0.066,0.313,0.163,0.435l2.413,3.185H15.79c-0.468,0-0.851,0.382-0.851,0.855
			c0,0.314,0.176,0.573,0.427,0.723c-0.251,0.148-0.427,0.411-0.427,0.722c0,0.474,0.383,0.856,0.851,0.856h0.261v0.477h2.372
			c0.124,0.122,0.269,0.211,0.442,0.241c0.047,0.008,0.093,0.012,0.14,0.012c0.417,0,0.773-0.297,0.84-0.707l0.005-0.022H20
			c0.002,0.158,0,0.314,0.019,0.477h2.412v-0.477h0.261c0.468,0,0.853-0.381,0.853-0.854c0-0.311-0.176-0.573-0.428-0.722
			c0.252-0.147,0.428-0.41,0.428-0.727c0-0.47-0.383-0.852-0.853-0.852h-0.214l2.414-3.188c0.1-0.122,0.162-0.272,0.162-0.434
			v-4.995C25.052,11.708,24.736,11.39,24.343,11.39z M15.365,21.568c0-0.233,0.191-0.425,0.424-0.425h2.8l-0.148,0.854H15.79
			C15.557,21.995,15.365,21.808,15.365,21.568z M15.365,23.017c0-0.233,0.191-0.427,0.424-0.427h2.549l-0.148,0.854H15.79
			C15.557,23.443,15.365,23.253,15.365,23.017z M19.422,23.82c-0.034,0.232-0.277,0.385-0.488,0.35
			c-0.113-0.02-0.21-0.081-0.277-0.172c-0.063-0.095-0.091-0.207-0.069-0.318l0.472-2.731c0.035-0.207,0.216-0.357,0.427-0.357
			c0.02,0,0.043,0,0.066,0.006c0.231,0.039,0.388,0.261,0.347,0.492L19.422,23.82z M23.116,23.017c0,0.234-0.194,0.427-0.427,0.427
			h-2.768l0.148-0.854h2.621C22.922,22.592,23.116,22.783,23.116,23.017z M23.116,21.568c0,0.235-0.194,0.427-0.427,0.427h-2.517
			l0.145-0.836c0.003-0.006,0-0.012,0-0.018h2.373C22.922,21.144,23.116,21.337,23.116,21.568z"/>
	</g>
	<g id="Elevé">
	</g>
	<g id="Extreme" display="none">
		<path id="rebelion" display="inline" fill="#FFFFFF" d="M21.477,14.466c0,1.314-1.064,2.376-2.376,2.376
			c-1.316,0-2.381-1.063-2.381-2.376c0-1.315,1.065-2.378,2.381-2.378C20.412,12.088,21.477,13.151,21.477,14.466z M15.132,24.549
			h1.452h0.079l0.051-0.108l0.529-0.52l-0.488-0.103l-0.772-0.166L15.132,24.549z M25.077,14.906l-0.513,0.509l0.036,0.036
			l-0.413,0.416c0.056,0.05,0.108,0.102,0.154,0.16l0.414-0.415l0.085,0.078l0.504-0.513L25.077,14.906z M21.794,17.544l-0.22,0.216
			l0.025,0.064l0.05,0.116l-3.467,3.478l0.373,0.079c0.342,0.069,0.637,0.274,0.827,0.571c0.025,0.041,0.033,0.095,0.056,0.14
			l0.011-0.016l0.256,0.17l0.092-0.02l1.011,0.732l0.68-0.93l-1.504-1.176l0.03-0.097h0.249l1.479-1.733l0.164-1.555L21.794,17.544z
			 M23.405,16.007c-0.448-0.049-0.885,0.286-0.938,0.752l-0.059,0.508l0,0l-0.033,0.365l-0.163,1.556l-0.019,0.145l-0.093,0.11
			l-1.323,1.553l0.994,0.779l0.359,0.281l-0.209,0.284l0.053,0.104c0.137,0.299,0.441,0.484,0.767,0.484
			c0.048,0,0.093-0.002,0.144-0.012c0.372-0.063,0.658-0.368,0.7-0.743l0.565-5.231C24.206,16.477,23.868,16.055,23.405,16.007z
			 M21.674,22.687l-0.486,0.667l-0.275,0.382l-0.381-0.276l-0.836-0.606l-0.074,0.02l-0.032-0.02c0,0.071-0.002,0.142-0.016,0.213
			c-0.016,0.069-0.041,0.133-0.069,0.197c-0.051,0.125-0.12,0.231-0.2,0.328l0.06,0.137c0.057,0.132,0.14,0.306,0.234,0.456
			l0.232,0.363h1.788L21.674,22.687z M18.277,24.11c-0.02,0-0.039-0.006-0.06-0.008c-0.012,0.035-0.019,0.065-0.019,0.065
			l0.204,0.379h0.484l0.313-0.108c-0.105-0.166-0.19-0.346-0.271-0.523C18.731,24.029,18.516,24.11,18.277,24.11z M18.976,22.31
			c-0.033-0.054-0.087-0.096-0.136-0.139c-0.026-0.025-0.053-0.063-0.085-0.083c-0.09-0.063-0.191-0.108-0.302-0.135l-0.368-0.074
			l-0.846-0.182l0,0l-0.749-0.158l-0.29-0.063l-0.48-0.104l-0.032-0.004l0.077-0.079l0.321-0.32l0.346-0.35
			c0.03,0.239,0.043,0.429,0.043,0.433l0.113,0.023l1.049,0.224l0.213-0.218l3.245-3.256l-0.074-0.184l0.027-0.021
			c-0.471-0.144-1.023-0.224-1.721-0.224H19.1c0,0-0.229,0-0.23,0c-0.487,0-0.983,0.033-1.468,0.142
			c-0.831,0.188-1.347,1-1.916,1.561c-0.586,0.578-1.155,1.178-1.726,1.771c-0.126,0.133-0.253,0.269-0.382,0.399
			c-0.219,0.223-0.298,0.543-0.211,0.843c0.085,0.301,0.332,0.525,0.637,0.593l1.122,0.239l0.476,0.103l2.696,0.573
			c0.062,0.01,0.12,0.021,0.18,0.021c0.395,0,0.743-0.274,0.83-0.674c0.031-0.156,0.006-0.306-0.04-0.444l-0.053-0.106
			C19.001,22.384,18.99,22.351,18.976,22.31z M17.787,24.385l-0.081-0.151l0.039-0.172l0.008-0.032L17.623,24l-0.478,0.547h0.724
			L17.787,24.385z"/>
	</g>
	<path id="displaced" display="none" fill="#FFFFFF" d="M20.065,12.414c0.113,0.734-0.378,1.422-1.107,1.541
		c-0.73,0.122-1.423-0.375-1.542-1.103c-0.12-0.732,0.372-1.425,1.106-1.545C19.25,11.188,19.942,11.683,20.065,12.414z
		 M19.644,17.733l1.187,1.896c0.17,0.269,0.518,0.354,0.788,0.194c0.273-0.161,0.367-0.508,0.22-0.785l-0.306-0.543
		c-0.265-0.466-0.521-0.937-0.779-1.402l-0.527-0.96c-0.061-0.113-0.117-0.239-0.182-0.37c-0.325-0.684-0.833-1.741-1.951-1.645
		c-0.952,0.083-1.922,0.538-2.876,1.348c-1.128,0.891-1.918,2.183-1.946,2.239c-0.04,0.056-0.072,0.115-0.101,0.169
		c-0.004,0.002-0.004,0.004-0.006,0.006l0,0c-0.107,0.199-0.16,0.382-0.027,0.615c0.105,0.183,0.299,0.293,0.505,0.293
		c0.257,0,0.385-0.12,0.512-0.3l0,0c0.002,0,0.002-0.004,0.002-0.004c0.036-0.053,0.067-0.108,0.108-0.169
		c0.006-0.011,0.668-1.075,1.693-1.948c0.317-0.249,0.616-0.418,0.899-0.512l-0.229,2.762c-0.023,0.272-0.108,0.744-0.184,1.007
		l-0.517,1.8c-0.066,0.226-0.258,0.603-0.408,0.786l-1.387,1.723c-0.176,0.218-0.373,0.464-0.211,0.808
		c0.099,0.202,0.302,0.332,0.526,0.332c0.27,0,0.413-0.154,0.594-0.354l1.405-1.515c0.251-0.271,0.578-0.737,0.74-1.073l0.697-1.416
		l2.575,4.33c0.125,0.211,0.286,0.479,0.634,0.479l0,0c0.202,0,0.386-0.103,0.49-0.269c0.188-0.286,0.063-0.547-0.044-0.78
		l-2.084-4.526c-0.081-0.18-0.127-0.539-0.093-0.736L19.644,17.733z M21.828,22.445h3.126v0.927l3.098-1.79l-3.098-1.791v0.926
		h-3.126V22.445z"/>
	<path id="epidemie" fill="#FFFFFF" d="M27.54,13.034c0-5.769-4.518-10.461-10.213-10.755c2.515,0.242,4.472,2.064,4.472,4.285
		c0,0.763-0.25,1.466-0.656,2.086c-1.123-1.118-2.666-1.809-4.374-1.809c-1.706,0-3.248,0.69-4.371,1.805
		c-0.4-0.62-0.654-1.324-0.654-2.088c0-2.215,1.954-4.044,4.466-4.283C10.522,2.569,6.001,7.265,6.001,13.034
		c0,1.738,0.42,3.378,1.153,4.836c-1-2.28-0.396-4.839,1.504-5.936c0.666-0.381,1.405-0.518,2.137-0.475
		c-0.139,0.506-0.232,1.035-0.232,1.588c0,2.863,1.957,5.254,4.595,5.966c-0.035,0.061-0.078,0.12-0.113,0.181
		c0,0.006,0,0.006,0,0.016c-0.086,0.196-0.2,0.355-0.33,0.491c-0.283,0.371-0.614,0.7-1.032,0.943
		c-1.909,1.102-4.448,0.339-5.912-1.69c1.927,2.924,5.236,4.863,8.998,4.863c3.724,0,7.008-1.897,8.944-4.774
		c-1.477,1.964-3.965,2.688-5.842,1.61c-0.669-0.39-1.154-0.972-1.486-1.642c2.642-0.713,4.587-3.107,4.587-5.963
		c0-0.553-0.089-1.082-0.231-1.588c0.75-0.049,1.487,0.088,2.153,0.471c1.846,1.063,2.471,3.507,1.589,5.738
		C27.156,16.26,27.54,14.693,27.54,13.034z M17.918,17.178c-0.048-0.898,0.143-1.838,0.593-2.726l-0.721-0.414
		c-0.259,0.267-0.618,0.429-1.019,0.429c-0.397,0-0.76-0.163-1.02-0.429l-0.703,0.403c0.449,0.896,0.64,1.843,0.589,2.74
		c-1.822-0.498-3.173-2.157-3.173-4.135c0-0.382,0.059-0.738,0.152-1.084c0.795,0.401,1.519,1.028,2.07,1.857l0.72-0.419
		c-0.031-0.123-0.077-0.236-0.077-0.369c0-0.666,0.459-1.204,1.079-1.367v-0.817c-0.999-0.065-1.908-0.375-2.657-0.866
		c0.778-0.766,1.84-1.238,3.015-1.238c1.173,0,2.24,0.476,3.019,1.242c-0.755,0.49-1.659,0.798-2.657,0.863v0.821
		c0.615,0.162,1.078,0.699,1.078,1.366c0,0.133-0.038,0.248-0.068,0.372l0.728,0.425c0.544-0.829,1.27-1.454,2.061-1.854
		c0.085,0.341,0.148,0.698,0.148,1.071C21.078,15.021,19.734,16.673,17.918,17.178z"/>
	<path id="returned" display="none" fill="#FFFFFF" d="M18.842,13.063c0.099,0.604-0.313,1.173-0.913,1.273
		c-0.604,0.099-1.173-0.311-1.272-0.913c-0.1-0.605,0.306-1.174,0.912-1.273C18.17,12.05,18.744,12.459,18.842,13.063z
		 M18.496,17.456l0.982,1.567c0.136,0.219,0.429,0.291,0.652,0.158c0.222-0.133,0.299-0.419,0.174-0.647l-0.249-0.45
		c-0.215-0.384-0.424-0.773-0.64-1.158l-0.437-0.794c-0.051-0.089-0.102-0.193-0.152-0.301c-0.271-0.565-0.69-1.438-1.609-1.357
		c-0.79,0.068-1.588,0.442-2.374,1.11c-0.931,0.735-1.584,1.805-1.614,1.848c-0.028,0.048-0.057,0.095-0.081,0.143
		c-0.003,0.002-0.004,0.002-0.004,0.003l0,0c-0.088,0.166-0.13,0.317-0.021,0.507c0.085,0.151,0.245,0.245,0.42,0.245
		c0.21,0,0.315-0.1,0.421-0.249l0,0c0.002-0.002,0.002-0.002,0.002-0.002c0.027-0.045,0.057-0.094,0.089-0.145
		c0.006-0.008,0.553-0.883,1.398-1.605c0.259-0.202,0.505-0.344,0.741-0.422l-0.191,2.282c-0.02,0.228-0.089,0.614-0.151,0.833
		l-0.421,1.485c-0.058,0.189-0.217,0.5-0.342,0.651l-1.146,1.419c-0.146,0.184-0.308,0.387-0.174,0.667
		c0.081,0.166,0.249,0.274,0.436,0.274c0.221,0,0.34-0.126,0.491-0.29l1.16-1.25c0.209-0.224,0.476-0.61,0.608-0.887l0.575-1.169
		l2.128,3.575c0.106,0.178,0.237,0.397,0.527,0.397l0,0c0.164,0,0.316-0.083,0.404-0.226c0.15-0.233,0.053-0.446-0.036-0.642
		l-1.721-3.739c-0.067-0.144-0.105-0.442-0.077-0.604L18.496,17.456z M25.662,18.252c0-1.561-1.271-2.828-2.829-2.828h-1.2v1.428
		h1.2c0.773,0,1.399,0.625,1.399,1.4c0,0.773-0.626,1.4-1.399,1.4h-0.249v-0.766l-2.563,1.48l2.563,1.479V21.08h0.279v-0.002
		C24.407,21.061,25.662,19.802,25.662,18.252z"/>
	<path id="Attack" display="none" fill="#FFFFFF" d="M22.537,19.271l4.209-2.694l-4.065-0.433l1.105-4.726L20.9,14.399l-0.804-3.37
		l-1.21,3.144l-3.297-4.245l1.035,5.321l-2.929-0.652c0,0,0.892,1.707,1.389,2.731l-4.702-0.331l4.255,2.491l-1.223,1.256
		l1.98-0.361l-1.403,4.957l4.166-3.484l1.08,2.692l1.11-2.152l3.596,3.709l-1.796-4.968l3.94,0.401L22.537,19.271z"/>
</g>
</svg>
