<?xml version="1.0" encoding="utf-8"?>
<!-- Generator: Adobe Illustrator 16.0.0, SVG Export Plug-In . SVG Version: 6.00 Build 0)  -->
<!DOCTYPE svg PUBLIC "-//W3C//DTD SVG 1.1//EN" "http://www.w3.org/Graphics/SVG/1.1/DTD/svg11.dtd">
<svg version="1.1" id="Groupe" xmlns="http://www.w3.org/2000/svg" xmlns:xlink="http://www.w3.org/1999/xlink" x="0px" y="0px"
	 width="15.871px" height="15.65px" viewBox="0 0 15.871 15.65" enable-background="new 0 0 15.871 15.65" xml:space="preserve">
<g id="PinColor_1_">
	<path id="vert" display="none" fill="#2ABF00" stroke="#1D7500" stroke-width="0.2" stroke-miterlimit="10" d="M15.236,7.877
		c0,3.337-2.389,6.136-5.609,6.877c-0.541,0.118-2.881,0.118-3.438-0.021C3,13.976,0.634,11.194,0.634,7.874
		c0-3.895,3.271-7.063,7.301-7.063C11.962,0.811,15.236,3.979,15.236,7.877z"/>
	<path id="orange" fill="#FF8500" stroke="#7F4500" stroke-width="0.2" stroke-miterlimit="10" d="M15.236,7.877
		c0,3.337-2.389,6.136-5.609,6.877c-0.541,0.118-2.881,0.118-3.438-0.021C3,13.976,0.634,11.194,0.634,7.874
		c0-3.895,3.271-7.063,7.301-7.063C11.962,0.811,15.236,3.979,15.236,7.877z"/>
	<path id="gris" display="none" fill="#A5A5A5" stroke="#595959" stroke-width="0.2" stroke-miterlimit="10" d="M15.236,7.877
		c0,3.337-2.389,6.136-5.609,6.877c-0.541,0.118-2.881,0.118-3.438-0.021C3,13.976,0.634,11.194,0.634,7.874
		c0-3.895,3.271-7.063,7.301-7.063C11.962,0.811,15.236,3.979,15.236,7.877z"/>
	<path id="bleu" display="none" fill="#0092FF" stroke="#00477C" stroke-width="0.2" stroke-miterlimit="10" d="M15.236,7.877
		c0,3.337-2.389,6.136-5.609,6.877c-0.541,0.118-2.881,0.118-3.438-0.021C3,13.976,0.634,11.194,0.634,7.874
		c0-3.895,3.271-7.063,7.301-7.063C11.962,0.811,15.236,3.979,15.236,7.877z"/>
</g>
<g id="IconsGroup">
	<g id="MinimalGroup" display="none">
		<path id="ElectionGroup" display="inline" fill="#565656" d="M16.16,1.334l-4.645-1.985c-0.135-0.053-0.303-0.02-0.387,0.098
			L9.801,1.105C9.736,1.17,9.719,1.285,9.736,1.381c0.021,0.099,0.084,0.17,0.17,0.211l-4.157,1.57
			c-0.352,0.121-0.654,0.366-0.844,0.69L3.528,6.146C3.235,6.633,3.21,7.229,3.466,7.735L3.57,7.932H2.115
			c-0.187,0-0.328,0.149-0.328,0.331v6.291H0.791c-0.181,0-0.324,0.148-0.324,0.326c0,0.182,0.148,0.333,0.324,0.333h11.256
			c0.18,0,0.324-0.151,0.324-0.333c0-0.178-0.145-0.326-0.324-0.326h-0.992v-3.381c0-0.108-0.061-0.223-0.143-0.276
			c-0.102-0.063-0.223-0.073-0.33-0.021c-0.361,0.168-0.633,0.254-0.758,0.298c-0.027,0-0.053,0.014-0.074,0.031l-2.159,1.286
			c-0.344,0.208-0.734,0.321-1.128,0.321c-0.744,0-1.412-0.366-1.833-0.985c-0.344-0.501-0.461-1.096-0.329-1.683
			C4.424,9.564,4.771,9.06,5.267,8.74l0.317-0.199c0.23-0.138,0.437-0.263,0.614-0.378C6.33,8.088,6.379,7.927,6.339,7.781
			c-0.078-0.267-0.21-0.501-0.345-0.683C6.498,6.883,7.183,6.487,7.53,6.086l0,0c0.072,0.043,0.157,0.095,0.252,0.141
			c0.011,0,0.011,0,0.019,0.003l0,0c0.243,0.118,0.548,0.24,0.916,0.31C8.331,7.022,7.942,7.614,7.794,8.004
			C7.536,8.13,6.959,8.442,5.629,9.295c-0.355,0.223-0.596,0.579-0.676,0.988c-0.088,0.407-0.011,0.823,0.225,1.175
			c0.303,0.445,0.779,0.693,1.283,0.693c0.27,0,0.54-0.083,0.791-0.223l2.276-1.367c0.348-0.086,2.119-0.617,3.465-2.784
			c1.053-1.701,1.645-3.067,1.885-3.689l0.037,0.02c0.145,0.061,0.303,0.111,0.445,0.111c0.262,0,0.52-0.111,0.697-0.285
			c0.193-0.187,0.303-0.441,0.303-0.713V1.64C16.348,1.506,16.281,1.381,16.16,1.334z"/>
	</g>
	<g id="FaibleGroup" display="none">
		<path id="FamineGroup" display="inline" fill="#F9F9F9" d="M12.721,13l-2.521,0.474l-4.103-2.242l1.498-1.851l3.35,1.114
			L12.721,13z M16.584,8.629v0.284l-2.652,0.831l-2.609,0.375l-3.36-1.114L7.169,8.629h0.455C7.515,7.635,7.37,6.872,7.301,5.881
			l0,0C7.294,5.855,7.258,5.192,7.251,4.913C7.2,4.606,7.058,4.491,6.59,4.164C6.33,4.008,6.139,3.948,6.042,3.948
			c-0.171,0-0.323,0.188-0.361,0.754C6.431,4.827,6.48,5.653,6.48,5.653c0.067,0.588-0.226,1.446-0.888,1.672
			C4.367,7.73,4.485,5.366,5.18,4.796C5.2,4.112,5.39,3.487,6.042,3.461c0.262,0,0.525,0.11,0.824,0.3
			c0.136,0.092,0.258,0.173,0.358,0.27C7.213,3.8,7.2,3.57,7.2,3.33c0-0.502,0.076-1.035,0.521-1.421
			C7.947,1.7,8.198,1.583,8.457,1.589c0.654,0.039,1.053,0.6,1.297,1.179c0.271-0.118,0.619-0.171,1.008-0.035
			c1.014,0.344,1.568,2.115,1.143,2.721c-1.002,1.435-3.506-1.222-2.85-2.162c0,0,0.104-0.118,0.275-0.266
			c-0.201-0.51-0.59-0.961-0.875-0.938c-0.114,0-0.252,0.038-0.411,0.184c-0.276,0.252-0.356,0.597-0.356,1.06
			c0,0.325,0.042,0.687,0.042,1.042c0,0.191,0.013,0.355,0.016,0.538c0.049,0.321,0.049,0.563,0.049,0.901
			C7.869,6.8,8.261,7.616,8.374,8.626h8.21V8.629z M9.506,3.227l1.906,2.071c-0.34-1.469-1.539-2.287-1.539-2.287L9.506,3.227z
			 M5.573,5.003l-0.34,0.141c0,0-0.167,1.161,0,1.761L5.573,5.003z M3.875,11.983l1.508-0.906l1.571-1.946L6.466,8.629H2.989
			l-0.693,1.39L3.875,11.983z M5.629,11.67l-2.67,1.824l0.347,0.443h6.159l-0.014-0.085L5.629,11.67z M0.129,8.629v2.103
			l1.706-0.919l0.526-1.184H0.129z M11.816,10.563l1.658,2.423l3.109,0.73v-2.766l-2.24-0.718L11.816,10.563z M16.584,10.349V9.381
			l-1.75,0.466L16.584,10.349z M1.886,10.491l-1.756,0.832v2.614h1.283L3.33,12.37L1.886,10.491z M11.084,13.937h4.023l-1.918-0.464
			L11.084,13.937z"/>
		<path id="CycloneGroup" display="inline" fill="#FFFFFF" d="M8.414,2.976c-0.088,0-0.171-0.012-0.257-0.012
			c-0.754,0-1.459,0.196-2.071,0.531C7.183-0.245,9.93-0.582,9.93-0.582s-6.073,0.517-6.073,7.6c0.003,0,0.003,0,0.011,0
			c0,0.079-0.007,0.16-0.007,0.25c0,0.748,0.195,1.463,0.535,2.081c-3.75-1.108-4.074-3.851-4.074-3.851s0.51,6.074,7.598,6.074
			c0-0.005,0-0.005,0-0.013c0.083,0.002,0.161,0.013,0.249,0.013c0.756,0,1.463-0.192,2.081-0.535
			c-1.113,3.75-3.859,4.076-3.859,4.076s6.078-0.51,6.078-7.598c-0.012,0-0.012,0-0.012,0c0-0.086,0.012-0.171,0.012-0.252
			c0-0.757-0.193-1.464-0.537-2.082c3.746,1.101,4.086,3.854,4.086,3.854s-0.508-6.069-7.602-6.069
			C8.414,2.97,8.414,2.976,8.414,2.976z"/>
		<path id="eruptionGroup" display="inline" fill="#FFFFFF" d="M9.359,4.339c0.908,0.312,2.107,0.672,2.365-0.782
			c0.203-1.144,1.709-0.723,2.348-0.788c1.176-0.14,0.291-2.333-1.172-2.361c-1.484-0.034-2.156,0.622-2.764,1.967
			C9.865,3.022,9.623,3.507,8.573,3.162c-1.049-0.352-1.826,0.51-1.185,1.576C7.952,5.68,7.379,6.703,7.379,6.703h1.587
			c0,0-0.008-0.574-0.393-1.175C8.124,4.822,8.433,4.024,9.359,4.339z M0.968,14.132c4.076-2.969,5.098-7.067,5.098-7.067h4.182
			c0,0,1.014,4.098,5.086,7.068L0.968,14.132L0.968,14.132z"/>
		<path id="tsunamiGroup" display="inline" fill="#FFFFFF" d="M15.801,12.266C3.288,12.98,6.792,3.418,10.025,4.24
			C9.691,4.446,9.48,5.147,9.682,5.614c0.225,0.516,0.961,0.799,1.389,0.692c0.998-0.258,1.041-1.662,0.688-2.414
			c-0.383-0.76-1.377-1.719-3.115-1.719c-4.176,0-7.04,2.136-8.114,5.809v5.407h15.272V12.266z"/>
		<path id="earthquakeGroup" display="inline" fill="#FFFFFF" d="M12.607,7.74c-0.213,0-0.412,0.12-0.51,0.316l-0.834,1.563
			l-1.025-3.012c-0.082-0.225-0.289-0.38-0.531-0.391C9.453,6.213,9.248,6.351,9.158,6.576L8.455,8.242L7.342,1.575
			C7.29,1.3,7.022,1.089,6.76,1.105C6.466,1.114,6.23,1.3,6.194,1.581L5.213,9.306L4.412,5.163C4.37,4.922,4.169,4.731,3.918,4.702
			C3.679,4.669,3.439,4.796,3.317,5.017L2.015,7.742H0v1.16h2.391c0.22,0,0.425-0.119,0.523-0.328l0.702-1.46l1.132,5.89
			c0.055,0.267,0.299,0.461,0.565,0.461c0.01,0,0.013,0,0.018,0c0.288-0.007,0.524-0.215,0.56-0.501l0.966-7.599l0.813,4.997
			c0.044,0.26,0.245,0.448,0.503,0.488c0.261,0.019,0.5-0.118,0.6-0.35l0.867-2.068l0.969,2.843c0.078,0.218,0.268,0.361,0.5,0.381
			c0.236,0.016,0.449-0.1,0.555-0.307l1.301-2.45h2.482V7.74H12.607z"/>
	</g>
	<g id="ImportantGroup" display="none">
		<path id="enlevementGroup" display="inline" fill="#FFFFFF" d="M15.137-1.087c-0.49,0-0.883,0.397-0.883,0.883v3.593
			c0.219,0.043,0.422,0.128,0.59,0.294c0.461,0.457,0.471,1.215,0.023,1.676l-1.678,1.722l-0.23-0.228l1.678-1.712
			c0.324-0.35,0.322-0.896-0.025-1.233c-0.102-0.107-0.23-0.182-0.365-0.214c-0.146-0.04-0.291-0.04-0.438-0.011
			c-0.166,0.037-0.309,0.118-0.42,0.243c-0.994,1.015-1.984,2.033-2.98,3.057c-0.252,0.251-0.701,0.822-0.689,1.415
			c0.01,0.547,0,1.111,0,1.659C9.588,9.944,9.438,9.874,9.254,9.844c-0.512-0.093-0.968,0.218-1.143,0.673H7.853
			c0-0.117,0-0.25,0-0.375c0.01-0.569-0.01-1.167,0-1.743c0.021-0.582-0.441-1.164-0.684-1.411C6.173,5.96,5.189,4.942,4.192,3.919
			C4.081,3.802,3.93,3.718,3.771,3.681C3.623,3.645,3.478,3.651,3.33,3.694c-0.135,0.034-0.27,0.107-0.367,0.214
			C2.619,4.243,2.61,4.792,2.938,5.141l1.675,1.712L4.391,7.079L2.718,5.358C2.265,4.896,2.274,4.139,2.735,3.681
			c0.172-0.159,0.37-0.245,0.58-0.293v-3.595c0-0.484-0.396-0.883-0.881-0.883C1.94-1.089,1.551-0.694,1.551-0.207v6.216
			c0,0.204,0.083,0.392,0.201,0.541l3.004,3.961H4.493c-0.585,0-1.056,0.478-1.056,1.067c0,0.388,0.216,0.713,0.536,0.895
			c-0.314,0.191-0.536,0.516-0.536,0.893c0,0.59,0.471,1.061,1.056,1.061h0.326v0.595h2.949c0.152,0.156,0.333,0.267,0.548,0.309
			c0.069,0.016,0.118,0.021,0.182,0.021c0.523,0,0.961-0.371,1.049-0.882v-0.037h0.191c0,0.192,0,0.392,0.021,0.589h2.99v-0.589
			h0.324c0.578,0,1.057-0.475,1.057-1.058c0-0.381-0.217-0.721-0.537-0.904c0.32-0.186,0.537-0.506,0.537-0.896
			c0-0.585-0.482-1.062-1.057-1.062h-0.26l2.996-3.957C15.938,6.4,16.02,6.218,16.02,6.014v-6.208
			C16.02-0.69,15.621-1.087,15.137-1.087z M3.959,11.579c0-0.288,0.245-0.525,0.536-0.525h3.483l-0.184,1.062H4.493
			C4.201,12.105,3.959,11.868,3.959,11.579z M3.959,13.381c0-0.297,0.245-0.538,0.536-0.538h3.17l-0.181,1.065H4.493
			C4.201,13.911,3.959,13.674,3.959,13.381z M9.02,14.375c-0.049,0.292-0.355,0.479-0.612,0.434
			c-0.144-0.018-0.259-0.099-0.343-0.214c-0.082-0.115-0.108-0.254-0.088-0.4l0.584-3.401c0.047-0.252,0.27-0.437,0.531-0.437
			c0.031,0,0.061,0,0.086,0.005c0.295,0.057,0.482,0.323,0.43,0.613L9.02,14.375z M13.609,13.381c0,0.291-0.229,0.527-0.529,0.527
			H9.635l0.18-1.065h3.268C13.375,12.848,13.609,13.088,13.609,13.381z M13.609,11.579c0,0.289-0.229,0.531-0.529,0.531H9.949
			l0.176-1.034c0-0.004,0-0.017,0-0.021h2.957C13.375,11.051,13.609,11.292,13.609,11.579z"/>
	</g>
	<g id="EleveGroup" display="none">
		<path id="attackGroup" display="inline" fill="#FFFFFF" d="M12.277,8.483l4.07-2.619L12.41,5.448l1.07-4.571l-2.789,2.891
			l-0.785-3.27L8.74,3.542L5.547-0.571L6.55,4.587L3.707,3.952c0,0,0.864,1.651,1.347,2.65L0.497,6.282l4.127,2.415L3.443,9.903
			L5.354,9.56l-1.353,4.797l4.029-3.375l1.055,2.611l1.072-2.08l3.475,3.585l-1.746-4.81l3.824,0.394L12.277,8.483z"/>
	</g>
	<g id="ExtremeGroup" display="none">
		<path id="rebelionGroup" display="inline" fill="#FFFFFF" d="M11.256,2.398c0,1.659-1.35,3.005-3,3.005
			c-1.665,0-3.012-1.347-3.012-3.005c0-1.666,1.347-3.003,3.012-3.003C9.906-0.605,11.256,0.732,11.256,2.398z M3.235,15.139h1.829
			h0.102L5.237,15L5.9,14.346l-0.628-0.134l-0.963-0.201L3.235,15.139z M15.803,2.955L15.16,3.603l0.037,0.043l-0.523,0.518
			c0.074,0.07,0.139,0.135,0.199,0.209l0.525-0.525l0.105,0.096l0.633-0.648L15.803,2.955z M11.658,6.286l-0.283,0.282l0.029,0.076
			l0.07,0.149l-4.38,4.388l0.467,0.111c0.435,0.091,0.806,0.344,1.053,0.726c0.035,0.047,0.041,0.115,0.066,0.169l0.01-0.017
			l0.324,0.213l0.113-0.026l1.273,0.928l0.861-1.175l-1.904-1.49l0.049-0.124h0.32l1.867-2.19l0.209-1.964L11.658,6.286z
			 M13.693,4.344c-0.576-0.06-1.125,0.366-1.189,0.954l-0.078,0.644l0,0l-0.039,0.462l-0.211,1.959l-0.018,0.186l-0.111,0.135
			l-1.674,1.973l1.252,0.977l0.461,0.356l-0.27,0.362l0.07,0.124c0.172,0.376,0.553,0.608,0.959,0.608c0.059,0,0.121,0,0.182-0.017
			c0.473-0.077,0.834-0.462,0.887-0.938l0.723-6.612C14.707,4.936,14.271,4.41,13.693,4.344z M11.506,12.793l-0.611,0.843
			l-0.352,0.475l-0.488-0.35l-1.057-0.76l-0.09,0.019l-0.041-0.019c0,0.09,0,0.174-0.025,0.264
			c-0.018,0.088-0.049,0.174-0.086,0.253c-0.061,0.154-0.151,0.279-0.25,0.418l0.078,0.169c0.07,0.171,0.172,0.388,0.291,0.579
			l0.303,0.458h2.258L11.506,12.793z M7.21,14.581c-0.018,0-0.052-0.004-0.081-0.004c0,0.041-0.011,0.069-0.011,0.069l0.257,0.495
			h0.607l0.396-0.138c-0.136-0.208-0.243-0.434-0.348-0.663C7.782,14.482,7.515,14.581,7.21,14.581z M8.095,12.31
			c-0.041-0.063-0.113-0.12-0.172-0.173c-0.035-0.038-0.06-0.085-0.112-0.109c-0.103-0.075-0.241-0.142-0.38-0.17L6.97,11.76
			l-1.072-0.22l0,0l-0.951-0.208L4.58,11.262l-0.597-0.136l-0.043-0.005l0.103-0.107l0.412-0.407l0.436-0.435
			c0.034,0.308,0.052,0.539,0.052,0.543l0.144,0.03l1.323,0.286l0.271-0.274l4.103-4.114l-0.1-0.231l0.029-0.025
			C10.121,6.213,9.42,6.095,8.542,6.095H8.255H7.967c-0.624,0-1.246,0.049-1.855,0.184C5.054,6.519,4.401,7.552,3.69,8.253
			c-0.74,0.732-1.46,1.489-2.179,2.242c-0.16,0.171-0.318,0.341-0.488,0.498c-0.274,0.286-0.378,0.697-0.274,1.069
			c0.112,0.377,0.421,0.654,0.812,0.748l1.417,0.307l0.601,0.126l3.412,0.728c0.076,0.01,0.149,0.018,0.219,0.018
			c0.499,0,0.947-0.336,1.054-0.852c0.042-0.2,0.01-0.374-0.051-0.552l-0.059-0.146C8.13,12.401,8.111,12.365,8.095,12.31z
			 M6.59,14.939l-0.104-0.195l0.057-0.215l0.003-0.039l-0.167-0.05l-0.596,0.701h0.915L6.59,14.939z"/>
	</g>
	<path id="displacedGroup" display="none" fill="#FFFFFF" d="M8.341,1.381c0.125,0.777-0.398,1.502-1.172,1.635
		C6.395,3.151,5.656,2.621,5.533,1.852C5.409,1.07,5.927,0.332,6.707,0.213C7.484,0.078,8.213,0.608,8.341,1.381z M7.9,7.029
		l1.258,2.012c0.182,0.286,0.549,0.375,0.844,0.205c0.289-0.171,0.381-0.531,0.219-0.832L9.906,7.842
		c-0.283-0.502-0.547-0.999-0.83-1.49L8.516,5.327c-0.061-0.119-0.124-0.245-0.19-0.391C7.982,4.211,7.443,3.09,6.256,3.189
		C5.243,3.283,4.211,3.77,3.203,4.626C2.007,5.569,1.166,6.933,1.139,7.004C1.101,7.057,1.058,7.119,1.032,7.173
		c0,0,0,0-0.009,0.006l0,0C0.913,7.394,0.857,7.585,0.991,7.835c0.112,0.187,0.325,0.31,0.544,0.31c0.27,0,0.407-0.131,0.539-0.321
		l0,0l0,0c0.041-0.052,0.08-0.115,0.114-0.175c0.004-0.009,0.708-1.15,1.804-2.068C4.32,5.322,4.644,5.141,4.942,5.046L4.698,7.967
		C4.672,8.253,4.58,8.76,4.504,9.041l-0.544,1.91c-0.067,0.236-0.275,0.646-0.43,0.831l-1.473,1.823
		c-0.192,0.241-0.401,0.502-0.232,0.871c0.104,0.216,0.322,0.344,0.564,0.344c0.279,0,0.436-0.168,0.632-0.375l1.49-1.606
		c0.267-0.284,0.61-0.787,0.786-1.132l0.738-1.505l2.737,4.595c0.137,0.223,0.309,0.508,0.68,0.508l0,0
		c0.209,0,0.406-0.112,0.521-0.285c0.199-0.308,0.064-0.579-0.049-0.831L7.698,9.381C7.613,9.194,7.57,8.808,7.602,8.604L7.9,7.029z
		 M10.211,12.03h3.311v0.983l3.301-1.902l-3.301-1.899v0.985h-3.311V12.03z"/>
	<path id="returnedGroup" display="none" fill="#FFFFFF" d="M8.345,1.381c0.121,0.777-0.398,1.502-1.176,1.635
		C6.395,3.144,5.654,2.621,5.534,1.843C5.409,1.064,5.927,0.332,6.707,0.207C7.484,0.078,8.213,0.604,8.345,1.381z M7.9,7.024
		l1.258,2.017c0.182,0.286,0.549,0.372,0.844,0.205c0.289-0.178,0.381-0.531,0.219-0.832L9.906,7.835
		c-0.275-0.5-0.547-0.992-0.82-1.492L8.514,5.325c-0.059-0.117-0.115-0.244-0.188-0.39c-0.343-0.721-0.882-1.85-2.07-1.745
		C5.248,3.276,4.218,3.759,3.203,4.616c-1.2,0.954-2.044,2.317-2.069,2.384C1.101,7.059,1.058,7.114,1.032,7.173L1.022,7.178l0,0
		C0.913,7.394,0.857,7.585,0.991,7.835c0.112,0.187,0.325,0.317,0.544,0.317c0.27,0,0.407-0.13,0.535-0.321l0,0l0,0
		c0.035-0.059,0.076-0.119,0.113-0.182c0.009-0.009,0.713-1.141,1.8-2.068c0.338-0.264,0.66-0.445,0.96-0.546L4.698,7.967
		C4.672,8.253,4.58,8.76,4.504,9.041l-0.544,1.91c-0.067,0.24-0.275,0.646-0.442,0.831l-1.462,1.823
		c-0.192,0.241-0.401,0.502-0.233,0.871c0.106,0.216,0.324,0.344,0.566,0.344c0.279,0,0.436-0.168,0.632-0.375l1.49-1.606
		c0.267-0.284,0.61-0.787,0.775-1.132l0.746-1.505l2.735,4.595c0.133,0.223,0.313,0.508,0.68,0.508l0,0
		c0.211,0,0.406-0.112,0.527-0.29c0.191-0.303,0.059-0.586-0.049-0.824l-2.22-4.81c-0.08-0.187-0.128-0.572-0.102-0.776L7.9,7.024z
		 M17.111,8.052c0-2.013-1.633-3.638-3.637-3.638h-1.547v1.832h1.551c0.986,0,1.799,0.807,1.799,1.806
		c0,0.982-0.797,1.802-1.799,1.802H13.15v-0.99l-3.293,1.902l3.293,1.903V11.69h0.359l0,0C15.498,11.659,17.111,10.043,17.111,8.052
		z"/>
	<path id="epidemieGroup" fill="#FFFFFF" d="M14.684,7.901c0-3.577-2.803-6.482-6.321-6.661c1.559,0.143,2.77,1.278,2.77,2.654
		c0,0.47-0.16,0.907-0.414,1.292c-0.697-0.693-1.652-1.118-2.716-1.118c-1.054,0-2.016,0.423-2.706,1.118
		C5.054,4.802,4.894,4.365,4.894,3.894c0-1.376,1.2-2.508,2.768-2.654c-3.521,0.186-6.32,3.09-6.32,6.661
		c0,1.075,0.264,2.096,0.72,2.995c-0.627-1.412-0.25-3,0.927-3.672C3.398,6.989,3.85,6.9,4.315,6.921
		C4.224,7.24,4.169,7.566,4.169,7.912c0,1.778,1.21,3.257,2.851,3.7c-0.029,0.034-0.061,0.065-0.081,0.115v0.003
		c-0.055,0.118-0.116,0.22-0.199,0.306c-0.179,0.231-0.38,0.436-0.644,0.583c-1.176,0.682-2.748,0.207-3.663-1.048
		c1.196,1.815,3.241,3.013,5.579,3.013c2.308,0,4.335-1.173,5.548-2.958c-0.93,1.219-2.467,1.667-3.633,0.997
		c-0.414-0.24-0.707-0.595-0.914-1.011c1.625-0.443,2.834-1.931,2.834-3.7c0-0.342-0.049-0.665-0.125-0.986
		c0.461-0.026,0.916,0.065,1.33,0.306c1.145,0.655,1.531,2.17,0.971,3.544C14.445,9.903,14.684,8.93,14.684,7.901z M8.717,10.469
		C8.686,9.911,8.809,9.334,9.086,8.779L8.643,8.521c-0.156,0.173-0.387,0.272-0.63,0.272c-0.251,0-0.476-0.101-0.643-0.268
		L6.939,8.774c0.285,0.553,0.395,1.137,0.366,1.701c-1.131-0.315-1.97-1.335-1.97-2.563c0-0.234,0.044-0.454,0.099-0.665
		c0.494,0.245,0.946,0.635,1.284,1.148L7.17,8.133C7.15,8.056,7.118,7.983,7.118,7.901c0-0.418,0.285-0.75,0.674-0.847V6.537
		C7.169,6.491,6.614,6.308,6.149,6.001c0.47-0.474,1.134-0.764,1.854-0.764c0.72,0,1.39,0.303,1.871,0.771
		C9.404,6.317,8.844,6.501,8.232,6.545v0.511C8.61,7.157,8.9,7.487,8.9,7.902c0,0.081-0.025,0.156-0.047,0.227l0.453,0.258
		c0.332-0.51,0.787-0.896,1.275-1.148c0.051,0.214,0.102,0.433,0.102,0.663C10.678,9.14,9.848,10.152,8.717,10.469z"/>
</g>
</svg>
