<?xml version="1.0" encoding="utf-8"?>
<!-- Generator: Adobe Illustrator 16.0.0, SVG Export Plug-In . SVG Version: 6.00 Build 0)  -->
<!DOCTYPE svg PUBLIC "-//W3C//DTD SVG 1.1//EN" "http://www.w3.org/Graphics/SVG/1.1/DTD/svg11.dtd">
<svg version="1.1" id="Layer_1" xmlns="http://www.w3.org/2000/svg" xmlns:xlink="http://www.w3.org/1999/xlink" x="0px" y="0px"
	 width="33.35px" height="40px" viewBox="0 0 33.35 40" enable-background="new 0 0 33.35 40" xml:space="preserve">
<g id="PinColor">
	<path id="PinOmbre" opacity="0.3" enable-background="new    " d="M27.635,30.525c0,1.773-3.891,3.263-9.129,3.654
		c-0.883,0.066-2.752,4.226-2.752,4.226s-1.935-4.16-2.846-4.23c-5.188-0.401-9.035-1.885-9.035-3.646
		c0-2.074,5.319-3.758,11.881-3.758C22.315,26.771,27.635,28.45,27.635,30.525z"/>
	<path id="vert" display="none" fill="#2ABF00" stroke="#1D7500" stroke-width="0.2" stroke-miterlimit="10" d="M27.635,13.09
		c0,5.429-3.891,9.98-9.129,11.184c-0.883,0.199-2.752,12.929-2.752,12.929s-1.935-12.729-2.846-12.953
		c-5.188-1.231-9.035-5.764-9.035-11.162c0-6.347,5.319-11.492,11.881-11.492C22.315,1.595,27.635,6.745,27.635,13.09z"/>
	<path id="orange" fill="#FF8500" stroke="#7F4500" stroke-width="0.2" stroke-miterlimit="10" d="M27.635,13.09
		c0,5.429-3.891,9.98-9.129,11.184c-0.883,0.199-2.752,12.929-2.752,12.929s-1.935-12.729-2.846-12.953
		c-5.188-1.231-9.035-5.764-9.035-11.162c0-6.347,5.319-11.492,11.881-11.492C22.315,1.595,27.635,6.745,27.635,13.09z"/>
	<path id="gris" display="none" fill="#A5A5A5" stroke="#595959" stroke-width="0.2" stroke-miterlimit="10" d="M27.635,13.09
		c0,5.429-3.891,9.98-9.129,11.184c-0.883,0.199-2.752,12.929-2.752,12.929s-1.935-12.729-2.846-12.953
		c-5.188-1.231-9.035-5.764-9.035-11.162c0-6.347,5.319-11.492,11.881-11.492C22.315,1.595,27.635,6.745,27.635,13.09z"/>
	<path id="bleu" display="none" fill="#0092FF" stroke="#00477C" stroke-width="0.2" stroke-miterlimit="10" d="M27.635,13.09
		c0,5.429-3.891,9.98-9.129,11.184c-0.883,0.199-2.752,12.929-2.752,12.929s-1.935-12.729-2.846-12.953
		c-5.188-1.231-9.035-5.764-9.035-11.162c0-6.347,5.319-11.492,11.881-11.492C22.315,1.595,27.635,6.745,27.635,13.09z"/>
</g>
<g id="Icons">
	<g id="Minimal">
		<path id="Election" display="none" fill="#565656" d="M28.135,14.174l-4.911-2.106c-0.146-0.063-0.316-0.02-0.414,0.104
			l-1.405,1.755c-0.064,0.079-0.089,0.191-0.069,0.293c0.024,0.099,0.087,0.179,0.175,0.227l-4.404,1.652
			c-0.372,0.138-0.687,0.401-0.889,0.74l-1.459,2.43c-0.307,0.518-0.333,1.147-0.063,1.685L14.8,21.16h-1.538
			c-0.193,0-0.351,0.157-0.351,0.352v6.666h-1.052c-0.193,0-0.348,0.158-0.348,0.349c0,0.195,0.155,0.352,0.348,0.352h11.932
			c0.191,0,0.342-0.156,0.342-0.352c0-0.19-0.15-0.349-0.342-0.349h-1.056v-3.586c0-0.118-0.066-0.234-0.164-0.295
			c-0.103-0.065-0.228-0.075-0.338-0.023c-0.385,0.18-0.67,0.273-0.808,0.313c-0.026,0.008-0.056,0.019-0.077,0.038l-2.287,1.366
			c-0.367,0.22-0.777,0.335-1.2,0.335c-0.775,0-1.505-0.386-1.947-1.043c-0.354-0.525-0.473-1.163-0.344-1.779
			c0.133-0.62,0.502-1.15,1.031-1.487l0.331-0.212c0.245-0.149,0.46-0.284,0.654-0.405c0.134-0.081,0.197-0.246,0.151-0.399
			c-0.086-0.279-0.233-0.531-0.369-0.722c0.535-0.235,1.263-0.654,1.624-1.077c0,0,0.005,0.002,0.007,0.002
			c0.076,0.049,0.167,0.098,0.269,0.146c0.008,0.002,0.01,0.004,0.019,0.007l0,0c0.264,0.125,0.594,0.253,0.973,0.328
			c-0.408,0.505-0.823,1.135-0.975,1.556c-0.291,0.128-0.894,0.472-2.303,1.367c-0.375,0.236-0.63,0.607-0.718,1.04
			c-0.096,0.432-0.012,0.876,0.237,1.247c0.312,0.472,0.829,0.729,1.361,0.729c0.286,0,0.577-0.075,0.838-0.233l2.41-1.449
			c0.376-0.089,2.252-0.653,3.674-2.951c1.112-1.801,1.738-3.25,1.996-3.907l0.045,0.022c0.146,0.073,0.307,0.109,0.47,0.109
			c0.269,0,0.532-0.107,0.73-0.295c0.209-0.196,0.322-0.468,0.322-0.756v-1.669C28.345,14.354,28.263,14.228,28.135,14.174z"/>
	</g>
	<g id="Faible">
		<path id="Famine" display="none" fill="#F9F9F9" d="M24.976,27.092l-2.791,0.526l-4.55-2.476l1.654-2.063l3.723,1.233
			L24.976,27.092z M29.261,22.249v0.311l-2.936,0.93l-2.899,0.413l-3.723-1.238l-0.876-0.415h0.5
			c-0.119-1.108-0.279-1.947-0.355-3.047h-0.005c-0.002-0.031-0.042-0.767-0.051-1.08c-0.058-0.33-0.218-0.462-0.73-0.818
			c-0.284-0.184-0.496-0.248-0.616-0.247c-0.189,0-0.36,0.206-0.397,0.824c0.826,0.141,0.884,1.059,0.884,1.059
			c0.076,0.651-0.246,1.605-0.98,1.85c-1.366,0.458-1.224-2.169-0.459-2.8c0.024-0.757,0.235-1.451,0.954-1.479
			c0.284,0.002,0.575,0.119,0.914,0.332c0.16,0.096,0.29,0.195,0.404,0.295c-0.012-0.249-0.028-0.505-0.028-0.767
			c-0.002-0.552,0.084-1.153,0.573-1.578c0.253-0.23,0.537-0.348,0.816-0.346c0.729,0.036,1.18,0.664,1.446,1.306
			c0.305-0.134,0.688-0.199,1.124-0.047c1.122,0.389,1.725,2.343,1.258,3.024c-1.106,1.587-3.889-1.368-3.151-2.399
			c0,0,0.107-0.141,0.296-0.295c-0.215-0.57-0.649-1.078-0.973-1.042c-0.123,0.002-0.268,0.046-0.451,0.208
			c-0.31,0.273-0.392,0.66-0.392,1.168c0,0.359,0.045,0.757,0.045,1.156c0,0.208,0.015,0.392,0.021,0.593
			c0.049,0.356,0.052,0.628,0.049,1.005c0.075,1.096,0.521,1.995,0.638,3.123h9.104v0.002H29.261z M21.425,16.258l2.109,2.296
			c-0.375-1.628-1.714-2.535-1.714-2.535L21.425,16.258z M17.058,18.228l-0.375,0.155c0,0-0.188,1.284,0,1.954L17.058,18.228z
			 M15.169,25.97l1.675-1.008l1.747-2.159l-0.544-0.554h-3.858l-0.768,1.528L15.169,25.97z M17.123,25.623l-2.965,2.02l0.396,0.49
			h6.828l-0.023-0.102L17.123,25.623z M11.017,22.249v2.329l1.902-1.018l0.576-1.312H11.017z M23.978,24.402l1.84,2.668l3.443,0.808
			v-3.054l-2.478-0.798L23.978,24.402z M29.261,24.158v-1.076l-1.931,0.521L29.261,24.158z M12.968,24.307l-1.95,0.929v2.899h1.424
			l2.124-1.738L12.968,24.307z M23.172,28.135h4.456l-2.131-0.517L23.172,28.135z"/>
		<path id="Cyclone" display="none" fill="#FFFFFF" d="M20.21,15.985c-0.093-0.005-0.188-0.016-0.281-0.016
			c-0.838,0-1.621,0.218-2.306,0.596c1.218-4.163,4.27-4.524,4.27-4.524s-6.733,0.562-6.733,8.419c0.005,0,0.007,0,0.012,0
			c-0.005,0.096-0.012,0.184-0.012,0.281c0,0.831,0.216,1.619,0.593,2.306c-4.162-1.223-4.524-4.267-4.524-4.267
			s0.561,6.736,8.421,6.736c0-0.008,0-0.011,0-0.018c0.091,0.005,0.187,0.018,0.279,0.018c0.838,0,1.622-0.22,2.31-0.598
			c-1.224,4.161-4.273,4.527-4.273,4.527s6.733-0.564,6.733-8.421c-0.004,0-0.009,0-0.014,0c0.005-0.094,0.014-0.185,0.014-0.279
			c0-0.834-0.216-1.621-0.596-2.304c4.16,1.22,4.525,4.269,4.525,4.269s-0.558-6.737-8.416-6.737
			C20.21,15.974,20.21,15.979,20.21,15.985z"/>
		<path id="eruption" display="none" fill="#FFFFFF" d="M21.255,17.493c1.003,0.343,2.334,0.747,2.614-0.871
			c0.226-1.259,1.906-0.792,2.62-0.872c1.303-0.149,0.319-2.583-1.311-2.619c-1.646-0.037-2.397,0.686-3.054,2.183
			c-0.316,0.719-0.578,1.26-1.745,0.874c-1.165-0.39-2.017,0.567-1.312,1.745c0.627,1.043-0.011,2.181-0.011,2.181h1.758
			c0,0-0.014-0.647-0.436-1.31C19.89,18.031,20.23,17.139,21.255,17.493z M11.954,28.35c4.518-3.289,5.644-7.839,5.644-7.839h4.642
			c0,0,1.125,4.548,5.641,7.839H11.954z"/>
		<path id="tsunami" display="none" fill="#FFFFFF" d="M28.389,26.282c-13.86,0.785-9.988-9.816-6.391-8.901
			c-0.373,0.225-0.61,1.006-0.379,1.532c0.251,0.561,1.062,0.88,1.526,0.766c1.118-0.286,1.167-1.855,0.766-2.678
			c-0.417-0.855-1.519-1.912-3.441-1.912c-4.642,0-7.808,2.371-9,6.445v5.99h16.924v-1.242L28.389,26.282L28.389,26.282z"/>
		<path id="earthquake" display="none" fill="#FFFFFF" d="M24.862,21.26c-0.236,0-0.456,0.133-0.567,0.345l-0.924,1.74l-1.141-3.336
			c-0.087-0.253-0.32-0.423-0.585-0.438c-0.274-0.007-0.513,0.149-0.62,0.394l-0.776,1.857l-1.23-7.389
			c-0.062-0.31-0.351-0.544-0.648-0.527c-0.317,0.007-0.579,0.217-0.621,0.528l-1.092,8.575l-0.882-4.602
			c-0.051-0.27-0.272-0.479-0.544-0.516c-0.273-0.039-0.547,0.109-0.666,0.357l-1.447,3.011h-2.243v1.285h2.648
			c0.249,0,0.474-0.143,0.582-0.364l0.774-1.616l1.255,6.526c0.061,0.303,0.322,0.521,0.629,0.521c0.007,0,0.015,0,0.02,0
			c0.312-0.01,0.573-0.245,0.619-0.557l1.072-8.426l0.898,5.546c0.053,0.279,0.277,0.493,0.563,0.523
			c0.286,0.025,0.554-0.128,0.667-0.391l0.963-2.291l1.075,3.145c0.08,0.242,0.3,0.414,0.554,0.435
			c0.256,0.015,0.5-0.113,0.62-0.339l1.436-2.713h2.757V21.26H24.862z"/>
	</g>
	<g id="Modéré">
	</g>
	<g id="Important">
		<path id="enlevement" display="none" fill="#FFFFFF" d="M25.93,12.597c-0.456,0-0.833,0.375-0.833,0.835v3.399
			c0.202,0.044,0.393,0.128,0.549,0.281c0.439,0.434,0.454,1.145,0.024,1.588l-1.582,1.626l-0.22-0.213l1.587-1.622
			c0.319-0.328,0.311-0.849-0.017-1.171c-0.103-0.096-0.225-0.163-0.349-0.199c-0.143-0.038-0.279-0.04-0.419-0.011
			c-0.152,0.04-0.289,0.117-0.398,0.233c-0.938,0.962-1.88,1.925-2.817,2.886c-0.237,0.242-0.666,0.796-0.651,1.345
			c0.007,0.519-0.008,1.051,0.002,1.57c-0.125-0.1-0.274-0.172-0.439-0.202c-0.486-0.078-0.924,0.211-1.089,0.64h-0.246
			c0-0.118,0-0.237,0.002-0.354c0.012-0.545-0.01-1.108,0.005-1.653c0.014-0.554-0.419-1.105-0.654-1.347
			c-0.938-0.965-1.875-1.928-2.817-2.892c-0.109-0.11-0.244-0.19-0.4-0.228c-0.137-0.03-0.277-0.027-0.414,0.011
			c-0.13,0.038-0.251,0.105-0.351,0.202c-0.324,0.319-0.331,0.84-0.015,1.171l1.587,1.618l-0.221,0.213L14.17,18.7
			c-0.431-0.446-0.422-1.155,0.023-1.588c0.155-0.15,0.347-0.237,0.55-0.281v-3.4c0-0.46-0.377-0.835-0.833-0.835
			c-0.464,0-0.835,0.375-0.835,0.835v5.884c0,0.193,0.076,0.369,0.191,0.513l2.843,3.752h-0.253c-0.551,0-1.003,0.449-1.003,1.007
			c0,0.37,0.207,0.678,0.502,0.852c-0.295,0.175-0.502,0.484-0.502,0.85c0,0.559,0.452,1.01,1.003,1.01h0.307v0.561h2.792
			c0.146,0.145,0.317,0.249,0.522,0.284c0.056,0.009,0.109,0.014,0.165,0.014c0.491,0,0.911-0.349,0.989-0.832l0.004-0.024h0.18
			c0.002,0.183,0,0.368,0.021,0.559h2.842V27.3h0.308c0.552,0,1.005-0.45,1.005-1.011c0-0.364-0.207-0.674-0.505-0.849
			c0.298-0.174,0.505-0.482,0.505-0.855c0-0.554-0.451-1.003-1.005-1.003h-0.251l2.843-3.755c0.116-0.145,0.19-0.321,0.19-0.512
			v-5.883C26.765,12.972,26.393,12.597,25.93,12.597z M15.355,24.587c0-0.275,0.225-0.5,0.5-0.5h3.296l-0.173,1.007h-3.123
			C15.581,25.091,15.355,24.869,15.355,24.587z M15.355,26.292c0-0.273,0.225-0.503,0.5-0.503h3.001l-0.175,1.008h-2.827
			C15.581,26.797,15.355,26.572,15.355,26.292z M20.134,27.238c-0.042,0.276-0.327,0.457-0.576,0.416
			c-0.133-0.026-0.246-0.099-0.325-0.205c-0.077-0.113-0.107-0.244-0.084-0.375l0.556-3.218c0.042-0.244,0.255-0.419,0.504-0.419
			c0.023,0,0.052,0,0.078,0.005c0.273,0.047,0.456,0.308,0.407,0.578L20.134,27.238z M24.485,26.292
			c0,0.277-0.228,0.505-0.502,0.505h-3.26l0.173-1.008h3.089C24.257,25.791,24.485,26.019,24.485,26.292z M24.485,24.587
			c0,0.277-0.228,0.504-0.502,0.504h-2.965l0.17-0.984c0.003-0.007,0-0.015,0-0.021h2.796
			C24.257,24.087,24.485,24.313,24.485,24.587z"/>
	</g>
	<g id="Elevé">
	</g>
	<g id="Extreme" display="none">
		<path id="rebelion" display="inline" fill="#FFFFFF" d="M22.554,16.221c0,1.548-1.254,2.799-2.801,2.799
			c-1.549,0-2.803-1.253-2.803-2.799c0-1.548,1.254-2.801,2.803-2.801C21.3,13.42,22.554,14.673,22.554,16.221z M15.08,28.101h1.711
			h0.093l0.061-0.13l0.623-0.61l-0.574-0.124l-0.91-0.195L15.08,28.101z M26.795,16.739l-0.603,0.601l0.042,0.042l-0.486,0.49
			c0.066,0.06,0.128,0.121,0.182,0.189l0.488-0.489l0.1,0.091l0.594-0.604L26.795,16.739z M22.928,19.848l-0.258,0.256l0.03,0.073
			l0.058,0.136l-4.083,4.096l0.439,0.093c0.402,0.083,0.75,0.325,0.974,0.674c0.03,0.049,0.04,0.11,0.066,0.164l0.012-0.018
			l0.303,0.2l0.107-0.023l1.19,0.863l0.801-1.096l-1.773-1.384l0.038-0.117h0.293l1.742-2.041l0.193-1.832L22.928,19.848z
			 M24.824,18.036c-0.528-0.058-1.042,0.337-1.106,0.886l-0.067,0.598l0,0l-0.04,0.429l-0.192,1.833l-0.021,0.171l-0.109,0.13
			l-1.56,1.827l1.173,0.922l0.422,0.329l-0.246,0.335l0.063,0.124c0.16,0.352,0.519,0.57,0.902,0.57
			c0.057,0,0.109-0.002,0.168-0.014c0.439-0.076,0.777-0.433,0.826-0.875l0.665-6.162C25.769,18.59,25.371,18.094,24.824,18.036z
			 M22.786,25.903l-0.572,0.788l-0.326,0.449l-0.449-0.327l-0.982-0.713l-0.089,0.022l-0.037-0.024c0,0.084-0.002,0.166-0.019,0.251
			c-0.02,0.082-0.049,0.157-0.081,0.232c-0.061,0.146-0.143,0.273-0.237,0.388l0.07,0.159c0.068,0.156,0.166,0.361,0.276,0.538
			l0.274,0.429h2.105L22.786,25.903z M18.784,27.58c-0.024,0-0.047-0.007-0.069-0.009c-0.016,0.043-0.022,0.078-0.022,0.078
			l0.239,0.446h0.57l0.369-0.129c-0.125-0.193-0.226-0.406-0.32-0.615C19.32,27.485,19.066,27.58,18.784,27.58z M19.608,25.462
			c-0.039-0.063-0.104-0.112-0.161-0.164c-0.029-0.031-0.061-0.075-0.101-0.1c-0.104-0.073-0.223-0.125-0.354-0.156l-0.435-0.088
			l-0.996-0.215l0,0l-0.881-0.188l-0.342-0.073l-0.566-0.123l-0.036-0.005l0.089-0.093l0.379-0.377l0.407-0.412
			c0.035,0.282,0.051,0.505,0.051,0.51l0.132,0.028l1.235,0.263l0.252-0.256l3.822-3.835l-0.089-0.215l0.033-0.025
			c-0.554-0.17-1.206-0.266-2.026-0.266h-0.271c0,0-0.268,0-0.27,0c-0.575,0-1.159,0.04-1.729,0.167
			c-0.98,0.221-1.587,1.18-2.257,1.838c-0.691,0.682-1.362,1.388-2.034,2.086c-0.148,0.158-0.297,0.317-0.451,0.471
			c-0.258,0.262-0.35,0.64-0.248,0.994c0.1,0.351,0.391,0.617,0.75,0.697l1.32,0.282l0.562,0.119l3.176,0.676
			c0.072,0.012,0.143,0.024,0.212,0.024c0.463,0,0.875-0.322,0.978-0.793c0.036-0.184,0.007-0.359-0.047-0.522l-0.063-0.125
			C19.638,25.547,19.624,25.508,19.608,25.462z M18.207,27.905l-0.096-0.178l0.047-0.203l0.011-0.039l-0.155-0.031l-0.561,0.645
			h0.852L18.207,27.905z"/>
	</g>
	<path id="displaced" display="none" fill="#FFFFFF" d="M20.89,13.804c0.135,0.865-0.444,1.676-1.303,1.815
		c-0.861,0.143-1.678-0.441-1.816-1.299c-0.142-0.863,0.437-1.679,1.304-1.819C19.932,12.361,20.745,12.942,20.89,13.804z
		 M20.395,20.069l1.399,2.234c0.2,0.317,0.609,0.417,0.927,0.23c0.323-0.191,0.433-0.6,0.259-0.927l-0.358-0.64
		c-0.312-0.549-0.614-1.103-0.918-1.652l-0.621-1.13c-0.072-0.133-0.14-0.281-0.214-0.436c-0.385-0.805-0.982-2.05-2.299-1.938
		c-1.122,0.099-2.264,0.633-3.389,1.588c-1.327,1.049-2.258,2.572-2.292,2.636c-0.047,0.066-0.086,0.137-0.119,0.2
		c-0.004,0.002-0.004,0.004-0.007,0.007l0,0c-0.126,0.235-0.188,0.449-0.032,0.724c0.123,0.217,0.351,0.346,0.595,0.346
		c0.303,0,0.454-0.141,0.603-0.354l0,0c0.002,0,0.002-0.005,0.002-0.005c0.042-0.063,0.079-0.127,0.128-0.198
		c0.007-0.014,0.787-1.267,1.994-2.295c0.372-0.292,0.726-0.493,1.059-0.603l-0.27,3.252c-0.028,0.322-0.128,0.879-0.217,1.187
		l-0.607,2.121c-0.078,0.268-0.305,0.713-0.481,0.928l-1.632,2.028c-0.208,0.256-0.44,0.547-0.249,0.952
		c0.117,0.237,0.356,0.391,0.62,0.391c0.316,0,0.486-0.182,0.7-0.415l1.656-1.785c0.294-0.318,0.681-0.868,0.871-1.263l0.821-1.668
		l3.034,5.098c0.146,0.251,0.337,0.567,0.747,0.567l0,0c0.237,0,0.453-0.123,0.575-0.316c0.223-0.338,0.076-0.645-0.051-0.922
		l-2.455-5.331c-0.095-0.212-0.148-0.634-0.109-0.865L20.395,20.069z M22.968,25.62h3.681v1.094l3.65-2.11l-3.65-2.11v1.094h-3.681
		V25.62z"/>
	<path id="epidemie" fill="#FFFFFF" d="M26.427,12.986c0-5.716-4.477-10.366-10.12-10.656c2.491,0.239,4.43,2.045,4.43,4.246
		c0,0.756-0.248,1.453-0.651,2.067c-1.114-1.109-2.641-1.792-4.336-1.792c-1.688,0-3.218,0.684-4.329,1.789
		c-0.398-0.615-0.648-1.312-0.648-2.069c0-2.195,1.937-4.007,4.425-4.244C9.562,2.617,5.082,7.27,5.082,12.986
		c0,1.722,0.417,3.348,1.143,4.792c-0.988-2.26-0.391-4.796,1.492-5.881c0.658-0.377,1.393-0.514,2.118-0.471
		c-0.138,0.502-0.23,1.026-0.23,1.574c0,2.837,1.94,5.207,4.555,5.913c-0.036,0.061-0.078,0.119-0.113,0.179
		c0,0.006,0,0.006,0,0.015c-0.087,0.194-0.198,0.352-0.328,0.486c-0.28,0.367-0.607,0.693-1.022,0.935
		c-1.893,1.092-4.406,0.334-5.858-1.676c1.91,2.897,5.187,4.818,8.914,4.818c3.691,0,6.943-1.879,8.863-4.73
		c-1.463,1.947-3.931,2.663-5.789,1.596c-0.661-0.387-1.145-0.963-1.472-1.627c2.615-0.707,4.544-3.079,4.544-5.909
		c0-0.548-0.087-1.072-0.229-1.574c0.743-0.048,1.474,0.087,2.135,0.468c1.825,1.053,2.446,3.475,1.574,5.686
		C26.047,16.185,26.427,14.631,26.427,12.986z M16.892,17.093c-0.046-0.89,0.141-1.821,0.589-2.701l-0.715-0.409
		c-0.255,0.264-0.611,0.425-1.01,0.425c-0.393,0-0.752-0.161-1.011-0.425l-0.694,0.399c0.444,0.888,0.632,1.826,0.584,2.714
		c-1.805-0.493-3.145-2.137-3.145-4.098c0-0.379,0.059-0.731,0.151-1.074c0.789,0.397,1.505,1.019,2.053,1.84l0.712-0.415
		c-0.03-0.123-0.075-0.235-0.075-0.367c0-0.659,0.455-1.192,1.067-1.354v-0.807c-0.988-0.064-1.89-0.372-2.631-0.858
		c0.771-0.76,1.824-1.227,2.986-1.227c1.164,0,2.22,0.471,2.993,1.23c-0.748,0.486-1.645,0.791-2.634,0.855v0.813
		c0.61,0.159,1.066,0.692,1.066,1.353c0,0.132-0.035,0.246-0.066,0.369l0.721,0.423c0.541-0.823,1.259-1.442,2.043-1.839
		c0.084,0.339,0.147,0.693,0.147,1.062C20.023,14.958,18.691,16.593,16.892,17.093z"/>
	<path id="returned" display="none" fill="#FFFFFF" d="M19.449,14.57c0.118,0.711-0.367,1.381-1.073,1.5
		c-0.713,0.117-1.382-0.366-1.499-1.075c-0.118-0.713,0.361-1.383,1.074-1.5C18.658,13.376,19.336,13.857,19.449,14.57z
		 M19.042,19.743l1.157,1.845c0.161,0.259,0.506,0.343,0.77,0.187c0.261-0.156,0.352-0.493,0.205-0.763l-0.293-0.529
		c-0.254-0.454-0.501-0.912-0.754-1.366l-0.515-0.935c-0.062-0.104-0.119-0.228-0.179-0.355c-0.319-0.666-0.814-1.694-1.896-1.598
		c-0.931,0.08-1.871,0.521-2.798,1.308c-1.096,0.866-1.865,2.125-1.899,2.176c-0.033,0.056-0.066,0.112-0.097,0.167
		c-0.002,0.002-0.003,0.002-0.003,0.005l0,0c-0.104,0.195-0.154,0.372-0.024,0.598c0.1,0.177,0.288,0.289,0.494,0.289
		c0.249,0,0.373-0.118,0.496-0.293l0,0c0.002-0.002,0.002-0.002,0.002-0.002c0.031-0.054,0.067-0.112,0.104-0.172
		c0.007-0.008,0.651-1.04,1.647-1.891c0.305-0.239,0.596-0.406,0.873-0.498l-0.225,2.689c-0.023,0.268-0.104,0.722-0.179,0.98
		l-0.496,1.751c-0.067,0.222-0.256,0.588-0.402,0.767l-1.35,1.671c-0.172,0.216-0.363,0.455-0.205,0.787
		c0.095,0.195,0.293,0.323,0.512,0.323c0.262,0,0.4-0.151,0.58-0.342l1.364-1.473c0.247-0.266,0.562-0.721,0.718-1.045l0.677-1.378
		l2.508,4.212c0.124,0.209,0.278,0.466,0.621,0.466l0,0c0.191,0,0.372-0.098,0.476-0.264c0.177-0.275,0.061-0.527-0.044-0.756
		L18.86,21.9c-0.077-0.172-0.123-0.521-0.089-0.714L19.042,19.743z M27.484,20.681c0-1.838-1.496-3.329-3.332-3.329h-1.414v1.683
		h1.414c0.91,0,1.647,0.736,1.647,1.65c0,0.911-0.737,1.65-1.647,1.65h-0.293v-0.903l-3.02,1.743l3.02,1.743v-0.905h0.328v-0.004
		C26.006,23.989,27.484,22.507,27.484,20.681z"/>
	<path id="Attack" display="none" fill="#FFFFFF" d="M23.803,21.882l4.958-3.174l-4.79-0.51l1.304-5.566l-3.4,3.511l-0.947-3.969
		l-1.426,3.704l-3.883-5l1.219,6.269l-3.451-0.769c0,0,1.049,2.01,1.636,3.218l-5.539-0.389l5.013,2.932l-1.44,1.479l2.33-0.425
		l-1.652,5.841l4.907-4.105l1.272,3.174l1.308-2.538l4.234,4.369l-2.114-5.85l4.64,0.472L23.803,21.882z"/>
</g>
</svg>
