<?xml version="1.0" encoding="utf-8"?>
<!-- Generator: Adobe Illustrator 16.0.0, SVG Export Plug-In . SVG Version: 6.00 Build 0)  -->
<!DOCTYPE svg PUBLIC "-//W3C//DTD SVG 1.1//EN" "http://www.w3.org/Graphics/SVG/1.1/DTD/svg11.dtd">
<svg version="1.1" id="Layer_1" xmlns="http://www.w3.org/2000/svg" xmlns:xlink="http://www.w3.org/1999/xlink" x="0px" y="0px"
	 width="33.35px" height="40px" viewBox="0 0 33.35 40" enable-background="new 0 0 33.35 40" xml:space="preserve">
<g id="PinColor">
	<path id="PinOmbre" opacity="0.3" enable-background="new    " d="M28.22,30.525c0,1.772-3.891,3.263-9.127,3.654
		c-0.885,0.065-2.753,4.226-2.753,4.226s-1.935-4.16-2.846-4.231c-5.188-0.402-9.035-1.884-9.035-3.646
		c0-2.073,5.319-3.756,11.881-3.756S28.22,28.45,28.22,30.525z"/>
	<path id="vert" display="none" fill="#2ABF00" stroke="#1D7500" stroke-width="0.2" stroke-miterlimit="10" d="M28.22,13.09
		c0,5.429-3.891,9.98-9.127,11.184c-0.885,0.199-2.753,12.93-2.753,12.93s-1.935-12.729-2.846-12.954
		c-5.188-1.229-9.035-5.763-9.035-11.161c0-6.347,5.319-11.492,11.881-11.492C22.902,1.595,28.22,6.744,28.22,13.09z"/>
	<path id="orange" display="none" fill="#FF8500" stroke="#7F4500" stroke-width="0.2" stroke-miterlimit="10" d="M28.22,13.09
		c0,5.429-3.891,9.98-9.127,11.184c-0.885,0.199-2.753,12.93-2.753,12.93s-1.935-12.729-2.846-12.954
		c-5.188-1.229-9.035-5.763-9.035-11.161c0-6.347,5.319-11.492,11.881-11.492C22.902,1.595,28.22,6.744,28.22,13.09z"/>
	<path id="gris" display="none" fill="#A5A5A5" stroke="#595959" stroke-width="0.2" stroke-miterlimit="10" d="M28.22,13.09
		c0,5.429-3.891,9.98-9.127,11.184c-0.885,0.199-2.753,12.93-2.753,12.93s-1.935-12.729-2.846-12.954
		c-5.188-1.229-9.035-5.763-9.035-11.161c0-6.347,5.319-11.492,11.881-11.492C22.902,1.595,28.22,6.744,28.22,13.09z"/>
	<path id="bleu" fill="#0092FF" stroke="#00477C" stroke-width="0.2" stroke-miterlimit="10" d="M28.22,13.09
		c0,5.429-3.891,9.98-9.127,11.184c-0.885,0.199-2.753,12.93-2.753,12.93s-1.935-12.729-2.846-12.954
		c-5.188-1.229-9.035-5.763-9.035-11.161c0-6.347,5.319-11.492,11.881-11.492C22.902,1.595,28.22,6.744,28.22,13.09z"/>
</g>
<g id="Icons">
	<g id="Minimal">
		<path id="Election" display="none" fill="#565656" d="M36.216,17.569l-6.362-2.727c-0.189-0.081-0.409-0.025-0.533,0.136
			l-1.822,2.272c-0.078,0.102-0.111,0.247-0.084,0.379c0.026,0.128,0.108,0.231,0.223,0.293l-5.701,2.139
			c-0.479,0.179-0.886,0.519-1.15,0.958L18.9,24.163c-0.401,0.672-0.434,1.484-0.085,2.184l0.139,0.265h-1.992
			c-0.251,0-0.457,0.207-0.457,0.455v8.633h-1.363c-0.25,0-0.451,0.203-0.451,0.452c0,0.252,0.201,0.455,0.451,0.455h15.447
			c0.25,0,0.445-0.203,0.445-0.455c0-0.249-0.195-0.452-0.445-0.452h-1.364v-4.642c0-0.156-0.088-0.304-0.214-0.383
			c-0.136-0.087-0.293-0.096-0.435-0.029c-0.503,0.233-0.87,0.354-1.048,0.403c-0.033,0.012-0.075,0.027-0.103,0.051l-2.958,1.77
			c-0.476,0.285-1.009,0.435-1.558,0.435c-1.003,0-1.944-0.502-2.52-1.352c-0.455-0.681-0.61-1.508-0.443-2.304
			c0.172-0.802,0.647-1.488,1.331-1.927l0.432-0.272c0.315-0.192,0.593-0.367,0.846-0.524c0.175-0.106,0.253-0.319,0.196-0.518
			c-0.114-0.363-0.305-0.688-0.48-0.936c0.693-0.305,1.633-0.845,2.104-1.394c0,0,0.006,0.004,0.012,0.004
			c0.097,0.062,0.211,0.125,0.347,0.188c0.009,0.003,0.012,0.006,0.023,0.011l0,0c0.338,0.163,0.766,0.325,1.256,0.423
			c-0.526,0.655-1.065,1.472-1.259,2.016c-0.376,0.166-1.159,0.611-2.984,1.771c-0.483,0.306-0.813,0.784-0.929,1.346
			c-0.121,0.56-0.016,1.135,0.307,1.613c0.407,0.611,1.072,0.946,1.767,0.946c0.367,0,0.743-0.1,1.081-0.303l3.123-1.875
			c0.482-0.118,2.913-0.847,4.754-3.823c1.442-2.329,2.25-4.208,2.587-5.058l0.055,0.029c0.189,0.094,0.397,0.142,0.608,0.142
			c0.347,0,0.692-0.139,0.945-0.383c0.271-0.255,0.419-0.605,0.419-0.979v-2.16C36.484,17.803,36.381,17.639,36.216,17.569z"/>
	</g>
	<g id="Faible">
		<path id="Famine" display="none" fill="#F9F9F9" d="M32.125,34.293l-3.611,0.682l-5.895-3.204l2.141-2.674l4.823,1.602
			L32.125,34.293z M37.673,28.024v0.402l-3.801,1.203l-3.753,0.535l-4.823-1.604l-1.135-0.536h0.65
			c-0.154-1.436-0.361-2.521-0.464-3.944h-0.006c-0.003-0.041-0.052-0.994-0.063-1.4c-0.075-0.427-0.28-0.599-0.949-1.06
			c-0.367-0.237-0.638-0.32-0.791-0.318c-0.247,0-0.469,0.267-0.52,1.066c1.073,0.183,1.146,1.37,1.146,1.37
			c0.096,0.845-0.316,2.078-1.271,2.396c-1.767,0.592-1.585-2.811-0.592-3.627c0.028-0.979,0.301-1.879,1.236-1.914
			c0.366,0.003,0.743,0.154,1.18,0.43c0.208,0.125,0.377,0.253,0.524,0.383c-0.019-0.322-0.033-0.654-0.033-0.994
			c-0.006-0.714,0.105-1.493,0.738-2.043c0.325-0.298,0.692-0.45,1.06-0.447c0.94,0.046,1.521,0.859,1.868,1.69
			c0.397-0.172,0.889-0.258,1.454-0.062c1.452,0.505,2.235,3.034,1.633,3.914c-1.437,2.055-5.039-1.768-4.081-3.103
			c0,0,0.139-0.182,0.386-0.383c-0.277-0.739-0.841-1.396-1.26-1.349c-0.162,0.003-0.35,0.06-0.584,0.27
			c-0.4,0.353-0.506,0.854-0.506,1.513c0,0.465,0.054,0.979,0.054,1.496c0,0.27,0.019,0.507,0.027,0.769
			c0.066,0.461,0.069,0.813,0.066,1.297c0.097,1.419,0.672,2.585,0.822,4.046h11.79v0.006H37.673z M27.526,20.267l2.731,2.973
			c-0.487-2.107-2.217-3.281-2.217-3.281L27.526,20.267z M21.872,22.818l-0.486,0.2c0,0-0.241,1.662,0,2.53L21.872,22.818z
			 M19.43,32.841l2.168-1.304l2.259-2.796l-0.705-0.72h-4.993L17.166,30L19.43,32.841z M21.96,32.393l-3.844,2.614l0.512,0.634h8.84
			l-0.03-0.131L21.96,32.393z M14.054,28.024v3.016l2.461-1.318l0.746-1.697H14.054z M30.833,30.811l2.382,3.455l4.458,1.047v-3.953
			l-3.207-1.033L30.833,30.811z M37.673,30.494V29.1l-2.5,0.677L37.673,30.494z M16.578,30.688l-2.522,1.202v3.753h1.842
			l2.749-2.251L16.578,30.688z M29.79,35.644h5.769l-2.762-0.669L29.79,35.644z"/>
		<path id="Cyclone" display="none" fill="#FFFFFF" d="M25.953,19.914c-0.121-0.007-0.241-0.021-0.364-0.021
			c-1.085,0-2.097,0.282-2.984,0.771c1.58-5.389,5.526-5.857,5.526-5.857s-8.717,0.728-8.717,10.898c0.006,0,0.013,0,0.019,0
			c-0.006,0.123-0.019,0.239-0.019,0.364c0,1.077,0.28,2.097,0.771,2.988c-5.391-1.584-5.859-5.527-5.859-5.527
			s0.726,8.721,10.903,8.721c0-0.011,0-0.014,0-0.023c0.118,0.007,0.238,0.023,0.359,0.023c1.084,0,2.103-0.285,2.99-0.776
			c-1.581,5.391-5.533,5.863-5.533,5.863s8.721-0.73,8.721-10.9c-0.006,0-0.013,0-0.019,0c0.006-0.122,0.019-0.24,0.019-0.362
			c0-1.081-0.283-2.099-0.774-2.983c5.389,1.58,5.858,5.526,5.858,5.526s-0.723-8.721-10.892-8.721
			C25.953,19.9,25.953,19.907,25.953,19.914z"/>
		<path id="eruption" display="none" fill="#FFFFFF" d="M27.309,21.866c1.295,0.443,3.021,0.967,3.386-1.128
			c0.292-1.63,2.467-1.026,3.389-1.129c1.687-0.193,0.412-3.345-1.693-3.391c-2.133-0.048-3.105,0.888-3.955,2.825
			c-0.409,0.932-0.75,1.631-2.262,1.132c-1.506-0.504-2.608,0.735-1.696,2.259c0.811,1.349-0.012,2.821-0.012,2.821h2.274
			c0,0-0.019-0.834-0.566-1.694C25.54,22.564,25.977,21.409,27.309,21.866z M15.267,35.923c5.847-4.26,7.308-10.151,7.308-10.151
			h6.009c0,0,1.457,5.889,7.301,10.151H15.267z"/>
		<path id="tsunami" display="none" fill="#FFFFFF" d="M36.544,33.246c-17.947,1.017-12.932-12.708-8.277-11.523
			c-0.479,0.291-0.786,1.302-0.491,1.982c0.325,0.726,1.38,1.142,1.979,0.992c1.446-0.372,1.51-2.401,0.988-3.467
			c-0.539-1.108-1.961-2.475-4.455-2.475c-6.007,0-10.106,3.069-11.65,8.344v7.757H36.55v-1.61H36.544L36.544,33.246z"/>
		<path id="earthquake" display="none" fill="#FFFFFF" d="M31.978,26.744c-0.308,0-0.594,0.172-0.738,0.446l-1.195,2.253
			l-1.474-4.319c-0.114-0.329-0.415-0.549-0.756-0.566c-0.355-0.009-0.669,0.192-0.805,0.509l-1.009,2.404l-1.59-9.565
			c-0.082-0.401-0.452-0.705-0.838-0.683c-0.413,0.009-0.75,0.281-0.805,0.685l-1.413,11.1l-1.145-5.957
			c-0.063-0.35-0.35-0.62-0.705-0.667c-0.353-0.05-0.705,0.142-0.861,0.462l-1.871,3.899h-2.905v1.663h3.429
			c0.321,0,0.613-0.184,0.755-0.472l1.002-2.092l1.625,8.449c0.078,0.392,0.415,0.675,0.814,0.675c0.006,0,0.017,0,0.022,0
			c0.407-0.013,0.746-0.316,0.803-0.72l1.39-10.91l1.156,7.181c0.069,0.363,0.361,0.639,0.729,0.678
			c0.37,0.033,0.717-0.166,0.867-0.506l1.247-2.966l1.389,4.071c0.103,0.314,0.389,0.536,0.717,0.563
			c0.331,0.018,0.65-0.146,0.802-0.44l1.861-3.512h3.569v-1.663H31.978L31.978,26.744z"/>
	</g>
	<g id="Modéré">
	</g>
	<g id="Important">
		<path id="enlevement" display="none" fill="#FFFFFF" d="M33.361,15.528c-0.594,0-1.079,0.486-1.079,1.082v4.4
			c0.26,0.058,0.51,0.166,0.711,0.364c0.569,0.562,0.585,1.481,0.03,2.057l-2.045,2.104l-0.289-0.275l2.057-2.099
			c0.413-0.424,0.4-1.1-0.023-1.516c-0.133-0.125-0.286-0.212-0.449-0.258c-0.184-0.05-0.364-0.053-0.542-0.014
			c-0.199,0.051-0.377,0.151-0.516,0.301c-1.214,1.245-2.437,2.491-3.65,3.738c-0.305,0.313-0.861,1.028-0.844,1.741
			c0.013,0.672-0.009,1.359,0.003,2.033c-0.159-0.13-0.352-0.225-0.569-0.263c-0.626-0.103-1.192,0.271-1.409,0.829h-0.316
			c0-0.155,0-0.307,0.003-0.458c0.016-0.705-0.012-1.438,0.006-2.142c0.016-0.716-0.542-1.431-0.846-1.744
			c-1.217-1.25-2.431-2.494-3.65-3.742c-0.139-0.143-0.313-0.246-0.515-0.294c-0.182-0.039-0.36-0.036-0.54,0.014
			c-0.165,0.049-0.322,0.136-0.451,0.261c-0.419,0.413-0.428,1.089-0.02,1.516l2.051,2.096l-0.286,0.275l-2.045-2.104
			c-0.561-0.575-0.545-1.495,0.027-2.054c0.203-0.194,0.453-0.307,0.712-0.364v-4.401c0-0.596-0.485-1.082-1.078-1.082
			c-0.6,0-1.082,0.486-1.082,1.082v7.618c0,0.247,0.101,0.478,0.249,0.662l3.678,4.858h-0.325c-0.714,0-1.302,0.582-1.302,1.305
			c0,0.478,0.271,0.874,0.654,1.103c-0.383,0.226-0.654,0.627-0.654,1.1c0,0.722,0.585,1.307,1.302,1.307h0.397v0.727h3.612
			c0.19,0.187,0.41,0.322,0.675,0.367c0.075,0.012,0.142,0.019,0.217,0.019c0.633,0,1.181-0.452,1.28-1.079l0.006-0.033h0.229
			c0.003,0.24,0,0.478,0.026,0.727h3.682v-0.727h0.4c0.714,0,1.301-0.581,1.301-1.306c0-0.471-0.271-0.872-0.656-1.1
			c0.386-0.224,0.656-0.625,0.656-1.106c0-0.717-0.584-1.298-1.301-1.298h-0.325l3.678-4.863c0.15-0.186,0.25-0.414,0.25-0.661
			v-7.617C34.442,16.014,33.956,15.528,33.361,15.528z M19.67,31.052c0-0.357,0.291-0.647,0.647-0.647h4.268l-0.223,1.301H20.32
			C19.963,31.702,19.67,31.416,19.67,31.052z M19.67,33.258c0-0.354,0.291-0.65,0.647-0.65h3.886L23.98,33.91h-3.66
			C19.963,33.91,19.67,33.621,19.67,33.258z M25.857,34.484c-0.058,0.356-0.422,0.589-0.744,0.534
			c-0.172-0.031-0.322-0.123-0.422-0.262c-0.102-0.146-0.139-0.316-0.108-0.485l0.717-4.167c0.058-0.316,0.329-0.544,0.651-0.544
			c0.033,0,0.069,0,0.103,0.009c0.355,0.061,0.59,0.398,0.529,0.749L25.857,34.484z M31.487,33.258c0,0.36-0.292,0.652-0.647,0.652
			h-4.221l0.227-1.303h3.994C31.195,32.61,31.487,32.904,31.487,33.258z M31.487,31.052c0,0.356-0.292,0.65-0.647,0.65h-3.841
			l0.223-1.274c0.007-0.009,0-0.018,0-0.026h3.618C31.195,30.404,31.487,30.698,31.487,31.052z"/>
	</g>
	<g id="Elevé">
	</g>
	<g id="Extreme" display="none">
		<path id="rebelion" display="inline" fill="#FFFFFF" d="M28.987,20.22c0,2.004-1.624,3.624-3.621,3.624
			c-2.009,0-3.63-1.622-3.63-3.624c0-2.004,1.621-3.626,3.63-3.626C27.363,16.594,28.987,18.215,28.987,20.22z M19.312,35.597h2.219
			h0.117l0.082-0.167l0.803-0.79l-0.743-0.158l-1.178-0.253L19.312,35.597z M34.478,20.891l-0.78,0.777l0.054,0.055l-0.626,0.634
			c0.087,0.077,0.166,0.155,0.231,0.244l0.636-0.633l0.13,0.118l0.768-0.781L34.478,20.891z M29.475,24.914l-0.338,0.33l0.039,0.098
			l0.078,0.177l-5.289,5.303l0.569,0.12c0.521,0.107,0.973,0.421,1.265,0.872c0.036,0.063,0.049,0.145,0.085,0.213l0.015-0.022
			l0.389,0.259l0.142-0.03l1.539,1.117l1.036-1.418l-2.289-1.793l0.045-0.148h0.38l2.253-2.644l0.253-2.37L29.475,24.914z
			 M31.929,22.57c-0.684-0.075-1.353,0.437-1.431,1.146l-0.087,0.774l0,0l-0.055,0.558l-0.25,2.372l-0.023,0.221l-0.145,0.169
			l-2.021,2.366l1.521,1.191l0.548,0.426l-0.322,0.434l0.081,0.161c0.211,0.455,0.672,0.738,1.169,0.738
			c0.072,0,0.145-0.003,0.22-0.018c0.566-0.099,1.006-0.563,1.066-1.135l0.864-7.976C33.153,23.286,32.637,22.644,31.929,22.57z
			 M29.29,32.755l-0.74,1.02l-0.419,0.582l-0.581-0.422l-1.277-0.925l-0.111,0.03l-0.049-0.032c0,0.11-0.003,0.219-0.027,0.325
			c-0.026,0.105-0.063,0.204-0.102,0.303c-0.082,0.188-0.185,0.353-0.311,0.5l0.09,0.207c0.091,0.203,0.214,0.468,0.362,0.697
			l0.355,0.554h2.726L29.29,32.755z M24.11,34.927c-0.03,0-0.063-0.009-0.094-0.012c-0.015,0.056-0.023,0.101-0.023,0.101
			l0.307,0.578h0.738l0.479-0.167c-0.163-0.251-0.296-0.525-0.416-0.797C24.802,34.804,24.474,34.927,24.11,34.927z M25.176,32.182
			c-0.055-0.082-0.136-0.145-0.208-0.211c-0.042-0.039-0.078-0.097-0.133-0.128c-0.132-0.096-0.289-0.164-0.454-0.204l-0.566-0.114
			l-1.287-0.277l0,0l-1.14-0.242l-0.446-0.095l-0.733-0.161l-0.044-0.006l0.113-0.119l0.494-0.488l0.526-0.534
			c0.046,0.364,0.066,0.655,0.066,0.661l0.172,0.034l1.601,0.341l0.325-0.33l4.946-4.967l-0.112-0.28l0.04-0.031
			c-0.718-0.219-1.563-0.343-2.624-0.343H25.36c0,0-0.343,0-0.347,0c-0.747,0-1.503,0.052-2.24,0.218
			c-1.264,0.286-2.051,1.525-2.918,2.379c-0.896,0.881-1.768,1.797-2.635,2.701c-0.193,0.203-0.385,0.411-0.583,0.609
			c-0.334,0.339-0.455,0.828-0.323,1.286c0.13,0.458,0.506,0.802,0.972,0.904l1.713,0.364l0.727,0.155l4.112,0.875
			c0.091,0.015,0.185,0.031,0.271,0.031c0.6,0,1.136-0.417,1.266-1.025c0.048-0.239,0.012-0.467-0.061-0.678l-0.078-0.163
			C25.212,32.294,25.198,32.243,25.176,32.182z M23.36,35.347l-0.123-0.231l0.063-0.262l0.016-0.05l-0.199-0.044l-0.731,0.834h1.103
			L23.36,35.347z"/>
	</g>
	<path id="displaced" display="none" fill="#FFFFFF" d="M26.832,17.089c0.178,1.12-0.569,2.169-1.687,2.351
		c-1.111,0.185-2.172-0.571-2.351-1.683c-0.184-1.117,0.567-2.173,1.691-2.355C25.592,15.222,26.649,15.976,26.832,17.089z
		 M26.195,25.202l1.813,2.892c0.257,0.41,0.786,0.539,1.199,0.297c0.419-0.246,0.558-0.775,0.334-1.197l-0.467-0.828
		c-0.4-0.711-0.792-1.429-1.187-2.139l-0.805-1.465c-0.09-0.173-0.181-0.364-0.276-0.564c-0.494-1.043-1.271-2.654-2.974-2.509
		c-1.455,0.128-2.932,0.82-4.388,2.056c-1.72,1.358-2.925,3.328-2.969,3.414c-0.06,0.086-0.11,0.177-0.153,0.258
		c-0.006,0.003-0.006,0.006-0.009,0.009l0,0c-0.164,0.305-0.244,0.583-0.042,0.938c0.161,0.278,0.457,0.447,0.772,0.447
		c0.392,0,0.587-0.184,0.779-0.458l0,0c0.003,0,0.003-0.006,0.003-0.006c0.055-0.081,0.105-0.166,0.169-0.259
		c0.006-0.017,1.018-1.639,2.578-2.971c0.485-0.378,0.943-0.638,1.371-0.779l-0.35,4.211c-0.033,0.415-0.166,1.134-0.277,1.536
		l-0.788,2.745c-0.101,0.345-0.395,0.921-0.622,1.199l-2.117,2.627c-0.267,0.332-0.569,0.709-0.32,1.231
		c0.148,0.309,0.457,0.506,0.801,0.506c0.414,0,0.633-0.233,0.907-0.537l2.146-2.311c0.383-0.413,0.878-1.125,1.125-1.636
		l1.063-2.16l3.931,6.602c0.19,0.324,0.438,0.733,0.968,0.733l0,0c0.307,0,0.584-0.158,0.743-0.409
		c0.29-0.438,0.097-0.835-0.063-1.19l-3.182-6.903c-0.12-0.274-0.192-0.822-0.138-1.122L26.195,25.202z M29.523,32.389h4.766v1.413
		l4.729-2.73l-4.729-2.73v1.413h-4.766V32.389z"/>
	<path id="epidemie" fill="#FFFFFF" d="M27.508,13.103c0-5.927-4.646-10.75-10.496-11.05c2.586,0.248,4.597,2.12,4.597,4.402
		c0,0.784-0.259,1.506-0.678,2.144c-1.155-1.149-2.739-1.858-4.496-1.858c-1.75,0-3.335,0.709-4.489,1.855
		c-0.413-0.638-0.671-1.36-0.671-2.146c0-2.277,2.008-4.156,4.589-4.401C10.018,2.35,5.372,7.175,5.372,13.103
		c0,1.786,0.434,3.472,1.185,4.97c-1.025-2.343-0.405-4.973,1.547-6.099c0.683-0.392,1.444-0.533,2.196-0.488
		c-0.143,0.52-0.238,1.064-0.238,1.632c0,2.942,2.011,5.399,4.723,6.131c-0.037,0.063-0.08,0.124-0.117,0.186
		c0,0.007,0,0.007,0,0.016c-0.09,0.202-0.206,0.365-0.339,0.504c-0.291,0.381-0.631,0.72-1.061,0.969
		c-1.963,1.132-4.57,0.348-6.075-1.738c1.98,3.005,5.379,4.998,9.244,4.998c3.826,0,7.202-1.948,9.19-4.906
		c-1.514,2.019-4.072,2.763-6.005,1.655c-0.686-0.4-1.183-0.998-1.523-1.687c2.711-0.732,4.712-3.193,4.712-6.128
		c0-0.568-0.093-1.112-0.237-1.632c0.771-0.05,1.526,0.09,2.211,0.484c1.894,1.092,2.541,3.604,1.633,5.897
		C27.115,16.418,27.508,14.808,27.508,13.103z M17.617,17.362c-0.046-0.923,0.146-1.889,0.609-2.801l-0.739-0.424
		c-0.266,0.273-0.634,0.44-1.05,0.44c-0.408,0-0.78-0.167-1.048-0.44l-0.721,0.414c0.462,0.92,0.658,1.893,0.606,2.814
		c-1.873-0.511-3.262-2.216-3.262-4.25c0-0.392,0.061-0.758,0.157-1.114c0.817,0.412,1.561,1.056,2.127,1.908l0.74-0.43
		c-0.031-0.127-0.079-0.243-0.079-0.38c0-0.684,0.472-1.237,1.107-1.404v-0.839c-1.025-0.067-1.959-0.386-2.729-0.891
		c0.799-0.788,1.892-1.272,3.096-1.272c1.209,0,2.303,0.488,3.104,1.276c-0.772,0.504-1.706,0.82-2.731,0.887V11.7
		c0.633,0.165,1.107,0.718,1.107,1.403c0,0.138-0.039,0.255-0.072,0.382l0.748,0.438c0.563-0.854,1.304-1.496,2.117-1.907
		c0.091,0.352,0.155,0.718,0.155,1.101C20.865,15.146,19.487,16.843,17.617,17.362z"/>
	<path id="returned" display="none" fill="#FFFFFF" d="M24.971,18.081c0.15,0.92-0.479,1.789-1.389,1.941
		c-0.924,0.151-1.79-0.474-1.94-1.392c-0.155-0.922,0.467-1.791,1.39-1.942C23.95,16.536,24.823,17.159,24.971,18.081z
		 M24.444,24.779l1.501,2.39c0.207,0.334,0.65,0.442,0.993,0.241c0.338-0.203,0.458-0.641,0.269-0.988l-0.38-0.686
		c-0.328-0.586-0.647-1.179-0.979-1.767l-0.666-1.211c-0.075-0.136-0.153-0.295-0.231-0.46c-0.41-0.862-1.055-2.192-2.456-2.07
		c-1.202,0.104-2.422,0.674-3.62,1.694c-1.419,1.121-2.415,2.752-2.46,2.818c-0.042,0.072-0.086,0.145-0.125,0.217
		c-0.003,0.003-0.004,0.003-0.004,0.005l0,0c-0.134,0.253-0.199,0.483-0.032,0.773c0.129,0.23,0.374,0.374,0.64,0.374
		c0.321,0,0.482-0.152,0.64-0.38l0,0c0.003-0.003,0.003-0.003,0.003-0.003c0.042-0.069,0.089-0.143,0.136-0.222
		c0.009-0.012,0.845-1.346,2.131-2.447c0.397-0.31,0.774-0.525,1.133-0.645l-0.291,3.48c-0.03,0.349-0.139,0.938-0.234,1.271
		l-0.642,2.266c-0.088,0.287-0.332,0.762-0.519,0.993l-1.748,2.163c-0.222,0.28-0.47,0.589-0.264,1.019
		c0.122,0.253,0.379,0.418,0.662,0.418c0.339,0,0.519-0.194,0.75-0.442l1.769-1.907c0.314-0.342,0.726-0.931,0.928-1.352
		l0.876-1.784l3.245,5.452c0.163,0.271,0.364,0.605,0.805,0.605l0,0c0.253,0,0.481-0.126,0.614-0.343
		c0.231-0.357,0.078-0.681-0.055-0.979l-2.62-5.702c-0.105-0.22-0.163-0.675-0.12-0.921L24.444,24.779z M35.369,25.994
		c0-2.381-1.937-4.312-4.311-4.312h-1.831v2.178h1.831c1.178,0,2.133,0.953,2.133,2.136c0,1.179-0.955,2.136-2.133,2.136h-0.38
		v-1.169l-3.906,2.258l3.906,2.256v-1.17h0.428v-0.004C33.456,30.277,35.369,28.357,35.369,25.994z"/>
	<path id="Attack" display="none" fill="#FFFFFF" d="M30.604,27.547l6.419-4.108l-6.199-0.66l1.685-7.206l-4.401,4.546l-1.226-5.139
		l-1.844,4.794L20.009,13.3l1.579,8.116l-4.469-0.996c0,0,1.355,2.602,2.116,4.166l-7.169-0.504l6.49,3.798l-1.863,1.914l3.018-0.55
		l-2.139,7.561l6.356-5.313l1.645,4.105l1.696-3.283l5.481,5.657l-2.74-7.575l6.006,0.611L30.604,27.547z"/>
</g>
</svg>
