<?xml version="1.0" encoding="utf-8"?>
<!-- Generator: Adobe Illustrator 16.0.0, SVG Export Plug-In . SVG Version: 6.00 Build 0)  -->
<!DOCTYPE svg PUBLIC "-//W3C//DTD SVG 1.1//EN" "http://www.w3.org/Graphics/SVG/1.1/DTD/svg11.dtd">
<svg version="1.1" id="Groupe" xmlns="http://www.w3.org/2000/svg" xmlns:xlink="http://www.w3.org/1999/xlink" x="0px" y="0px"
	 width="15.871px" height="15.65px" viewBox="0 0 15.871 15.65" enable-background="new 0 0 15.871 15.65" xml:space="preserve">
<g id="PinColor_1_">
	<path id="vert" display="none" fill="#2ABF00" stroke="#1D7500" stroke-width="0.2" stroke-miterlimit="10" d="M15.458,8.184
		c0,3.337-2.39,6.135-5.61,6.877c-0.539,0.118-2.881,0.118-3.438-0.021c-3.189-0.757-5.555-3.539-5.555-6.858
		c0-3.896,3.271-7.063,7.301-7.063C12.186,1.119,15.458,4.287,15.458,8.184z"/>
	<path id="orange" display="none" fill="#FF8500" stroke="#7F4500" stroke-width="0.2" stroke-miterlimit="10" d="M15.458,8.184
		c0,3.337-2.39,6.135-5.61,6.877c-0.539,0.118-2.881,0.118-3.438-0.021c-3.189-0.757-5.555-3.539-5.555-6.858
		c0-3.896,3.271-7.063,7.301-7.063C12.186,1.119,15.458,4.287,15.458,8.184z"/>
	<path id="gris" display="none" fill="#A5A5A5" stroke="#595959" stroke-width="0.2" stroke-miterlimit="10" d="M15.458,8.184
		c0,3.337-2.39,6.135-5.61,6.877c-0.539,0.118-2.881,0.118-3.438-0.021c-3.189-0.757-5.555-3.539-5.555-6.858
		c0-3.896,3.271-7.063,7.301-7.063C12.186,1.119,15.458,4.287,15.458,8.184z"/>
	<path id="bleu" fill="#0092FF" stroke="#00477C" stroke-width="0.2" stroke-miterlimit="10" d="M15.458,8.184
		c0,3.337-2.39,6.135-5.61,6.877c-0.539,0.118-2.881,0.118-3.438-0.021c-3.189-0.757-5.555-3.539-5.555-6.858
		c0-3.896,3.271-7.063,7.301-7.063C12.186,1.119,15.458,4.287,15.458,8.184z"/>
</g>
<g id="IconsGroup">
	<g id="MinimalGroup" display="none">
		<path id="ElectionGroup" display="inline" fill="#565656" d="M16.143,1.947l-4.541-1.942c-0.125-0.051-0.295-0.018-0.379,0.097
			l-1.297,1.62C9.863,1.787,9.846,1.9,9.863,1.993c0.021,0.097,0.08,0.166,0.166,0.206L5.963,3.733
			C5.62,3.852,5.324,4.092,5.138,4.409L3.794,6.651c-0.287,0.476-0.313,1.06-0.062,1.555l0.101,0.191h-1.42
			c-0.183,0-0.322,0.146-0.322,0.323v6.15H1.117c-0.176,0-0.315,0.145-0.315,0.318c0,0.18,0.145,0.328,0.315,0.328h11.006
			c0.178,0,0.318-0.148,0.318-0.328c0-0.174-0.141-0.318-0.318-0.318H11.15v-3.305c0-0.104-0.055-0.217-0.141-0.268
			c-0.096-0.063-0.215-0.072-0.32-0.023c-0.352,0.166-0.619,0.252-0.74,0.291c-0.025,0-0.053,0.016-0.076,0.031l-2.109,1.258
			c-0.335,0.203-0.718,0.314-1.102,0.314c-0.727,0-1.381-0.357-1.793-0.963c-0.335-0.49-0.451-1.072-0.32-1.645
			c0.121-0.568,0.46-1.059,0.944-1.371l0.31-0.197c0.226-0.135,0.426-0.256,0.601-0.368C6.531,8.55,6.582,8.391,6.542,8.249
			C6.467,7.99,6.334,7.76,6.205,7.582c0.492-0.21,1.162-0.598,1.501-0.989l0,0C7.777,6.637,7.86,6.686,7.95,6.731
			c0.01,0,0.01,0,0.02,0.003l0,0c0.238,0.115,0.536,0.234,0.897,0.303c-0.381,0.47-0.761,1.051-0.904,1.43
			C7.71,8.594,7.147,8.9,5.846,9.732C5.5,9.947,5.265,10.297,5.188,10.697C5.1,11.095,5.176,11.5,5.408,11.845
			c0.295,0.438,0.761,0.676,1.254,0.676c0.263,0,0.527-0.078,0.772-0.215l2.227-1.338c0.342-0.084,2.07-0.604,3.385-2.721
			c1.031-1.663,1.607-2.999,1.844-3.607l0.037,0.02c0.137,0.06,0.297,0.11,0.432,0.11c0.26,0,0.508-0.11,0.684-0.28
			c0.188-0.182,0.295-0.432,0.295-0.696V2.247C16.328,2.115,16.258,1.993,16.143,1.947z"/>
	</g>
	<g id="FaibleGroup" display="none">
		<path id="FamineGroup" display="inline" fill="#F9F9F9" d="M12.781,13.353l-2.463,0.463l-4.015-2.193l1.463-1.807l3.278,1.088
			L12.781,13.353z M16.555,9.078v0.281l-2.594,0.813l-2.549,0.363L8.129,9.447L7.353,9.078h0.446
			C7.69,8.107,7.547,7.362,7.482,6.392l0,0C7.476,6.367,7.441,5.719,7.432,5.446c-0.048-0.3-0.189-0.413-0.646-0.731
			C6.531,4.561,6.343,4.503,6.251,4.503c-0.167,0-0.315,0.185-0.353,0.736c0.732,0.124,0.779,0.93,0.779,0.93
			c0.067,0.575-0.22,1.414-0.868,1.634C4.613,8.2,4.729,5.892,5.408,5.331c0.019-0.668,0.205-1.28,0.842-1.304
			c0.257,0,0.513,0.107,0.805,0.294c0.134,0.088,0.253,0.168,0.351,0.263C7.394,4.358,7.383,4.133,7.383,3.899
			c0-0.489,0.074-1.01,0.509-1.387c0.219-0.206,0.465-0.319,0.721-0.314c0.637,0.037,1.027,0.585,1.27,1.151
			c0.262-0.116,0.602-0.169,0.984-0.037c0.988,0.337,1.533,2.068,1.115,2.662c-0.98,1.403-3.43-1.193-2.787-2.112
			c0,0,0.105-0.118,0.268-0.262C9.268,3.102,8.889,2.661,8.611,2.684c-0.113,0-0.248,0.038-0.402,0.179
			C7.939,3.111,7.862,3.447,7.862,3.9c0,0.317,0.041,0.671,0.041,1.02c0,0.186,0.01,0.346,0.014,0.525
			c0.049,0.312,0.049,0.548,0.049,0.881C8.039,7.291,8.42,8.09,8.531,9.078H16.555L16.555,9.078z M9.635,3.798l1.867,2.024
			c-0.33-1.436-1.504-2.236-1.504-2.236L9.635,3.798z M5.793,5.534L5.461,5.672c0,0-0.164,1.133,0,1.721L5.793,5.534z M4.133,12.357
			l1.475-0.885L7.144,9.57L6.665,9.078H3.267L2.59,10.437L4.133,12.357z M5.846,12.052l-2.61,1.781l0.339,0.434H9.6l-0.014-0.084
			L5.846,12.052z M0.469,9.078v2.057l1.668-0.896l0.514-1.16H0.469z M11.895,10.97l1.621,2.369l3.039,0.715v-2.705l-2.186-0.701
			L11.895,10.97z M16.555,10.76V9.816l-1.705,0.453L16.555,10.76z M2.189,10.9L0.47,11.713v2.557h1.255L3.6,12.738L2.189,10.9z
			 M11.184,14.269h3.934l-1.875-0.453L11.184,14.269z"/>
		<path id="CycloneGroup" display="inline" fill="#FFFFFF" d="M8.57,3.552c-0.086,0-0.167-0.014-0.25-0.014
			c-0.738,0-1.427,0.192-2.025,0.52c1.072-3.655,3.758-3.984,3.758-3.984s-5.94,0.506-5.94,7.43c0.004,0,0.004,0,0.011,0
			c0,0.078-0.007,0.158-0.007,0.246c0,0.731,0.191,1.43,0.523,2.035C0.976,8.699,0.657,6.019,0.657,6.019s0.498,5.94,7.429,5.94
			c0-0.006,0-0.006,0-0.014c0.081,0.002,0.157,0.014,0.241,0.014c0.742,0,1.429-0.189,2.033-0.525
			c-1.086,3.666-3.771,3.986-3.771,3.986s5.944-0.498,5.944-7.427c-0.01,0-0.01,0-0.01,0c0-0.085,0.01-0.169,0.01-0.249
			c0-0.738-0.186-1.432-0.525-2.036c3.662,1.079,3.99,3.768,3.99,3.768S15.504,3.54,8.57,3.54C8.57,3.547,8.57,3.552,8.57,3.552z"/>
		<path id="eruptionGroup" display="inline" fill="#FFFFFF" d="M9.494,4.885c0.887,0.305,2.059,0.657,2.314-0.765
			c0.193-1.117,1.666-0.705,2.293-0.77c1.15-0.138,0.281-2.279-1.148-2.309c-1.447-0.034-2.107,0.608-2.699,1.923
			C9.99,3.595,9.756,4.072,8.725,3.733c-1.026-0.344-1.786,0.5-1.158,1.542C8.12,6.197,7.559,7.196,7.559,7.196h1.555
			c0,0-0.01-0.559-0.385-1.147C8.286,5.358,8.586,4.577,9.494,4.885z M1.291,14.459C5.275,11.554,6.273,7.55,6.273,7.55h4.086
			c0,0,0.994,4.004,4.977,6.911L1.291,14.459L1.291,14.459z"/>
		<path id="tsunamiGroup" display="inline" fill="#FFFFFF" d="M15.793,12.635c-12.234,0.699-8.809-8.649-5.646-7.846
			C9.818,4.99,9.615,5.677,9.813,6.132c0.217,0.506,0.939,0.781,1.357,0.677c0.973-0.25,1.016-1.625,0.668-2.358
			c-0.373-0.746-1.342-1.683-3.043-1.683c-4.083,0-6.884,2.088-7.934,5.681v5.284h14.932V12.635z"/>
		<path id="earthquakeGroup" display="inline" fill="#FFFFFF" d="M12.674,8.211c-0.207,0-0.406,0.114-0.5,0.309l-0.814,1.526
			l-1-2.944c-0.082-0.22-0.289-0.372-0.523-0.382C9.59,6.716,9.387,6.852,9.301,7.073L8.611,8.701L7.522,2.183
			C7.47,1.916,7.208,1.708,6.954,1.723C6.665,1.733,6.436,1.916,6.402,2.187L5.439,9.74L4.658,5.691
			C4.614,5.455,4.418,5.268,4.176,5.24c-0.234-0.03-0.47,0.092-0.588,0.309L2.312,8.213H0.345v1.132h2.337
			c0.215,0,0.417-0.117,0.511-0.322L3.88,7.595l1.106,5.76c0.055,0.26,0.293,0.451,0.553,0.451c0.009,0,0.012,0,0.019,0
			c0.281-0.01,0.512-0.211,0.546-0.492l0.943-7.426l0.794,4.885c0.043,0.254,0.24,0.436,0.493,0.475
			c0.253,0.02,0.49-0.113,0.585-0.342l0.846-2.02l0.951,2.779c0.078,0.209,0.264,0.35,0.49,0.371
			c0.232,0.016,0.438-0.098,0.541-0.301l1.271-2.393h2.428V8.211H12.674z"/>
	</g>
	<g id="ImportantGroup" display="none">
		<path id="enlevementGroup" display="inline" fill="#FFFFFF" d="M15.143-0.42c-0.48,0-0.865,0.386-0.865,0.862v3.513
			c0.215,0.043,0.414,0.126,0.582,0.289c0.451,0.447,0.459,1.188,0.018,1.639l-1.635,1.681l-0.227-0.222l1.637-1.672
			c0.32-0.343,0.316-0.878-0.018-1.206c-0.105-0.105-0.227-0.179-0.365-0.211c-0.141-0.039-0.283-0.039-0.422-0.009
			c-0.166,0.035-0.303,0.114-0.412,0.236c-0.969,0.994-1.939,1.99-2.91,2.991c-0.248,0.245-0.689,0.804-0.68,1.384
			c0.01,0.533,0,1.088,0,1.623c-0.127-0.113-0.273-0.182-0.451-0.211c-0.504-0.088-0.953,0.213-1.119,0.66H8.022
			c0-0.119,0-0.248,0-0.367c0.009-0.559-0.009-1.141,0-1.705c0.02-0.568-0.431-1.139-0.669-1.379
			C6.378,6.469,5.418,5.474,4.443,4.475C4.335,4.361,4.185,4.278,4.032,4.244C3.887,4.207,3.744,4.213,3.6,4.255
			C3.469,4.287,3.335,4.361,3.242,4.464C2.906,4.792,2.897,5.328,3.214,5.67l1.639,1.672l-0.216,0.22L3.001,5.881
			C2.56,5.43,2.568,4.69,3.02,4.242c0.167-0.156,0.361-0.24,0.566-0.29V0.44c0-0.474-0.388-0.862-0.863-0.862
			c-0.481,0-0.862,0.386-0.862,0.862v6.078c0,0.201,0.082,0.382,0.196,0.529l2.938,3.873H4.737c-0.571,0-1.033,0.465-1.033,1.039
			c0,0.385,0.211,0.701,0.524,0.879c-0.307,0.188-0.524,0.506-0.524,0.873c0,0.574,0.461,1.033,1.033,1.033h0.317v0.582h2.884
			c0.15,0.152,0.326,0.264,0.536,0.303c0.068,0.014,0.115,0.021,0.178,0.021c0.512,0,0.945-0.363,1.029-0.863v-0.035h0.186
			c0,0.188,0,0.383,0.018,0.574h2.926v-0.574h0.314c0.566,0,1.035-0.465,1.035-1.033c0-0.373-0.209-0.705-0.525-0.887
			c0.316-0.18,0.525-0.494,0.525-0.875c0-0.572-0.473-1.037-1.035-1.037h-0.252l2.932-3.87c0.123-0.151,0.201-0.328,0.201-0.528
			V0.453C16.01-0.031,15.617-0.42,15.143-0.42z M4.216,11.961c0-0.279,0.238-0.512,0.524-0.512h3.405l-0.18,1.035H4.737
			C4.45,12.478,4.216,12.244,4.216,11.961z M4.216,13.724c0-0.289,0.238-0.525,0.524-0.525h3.098l-0.177,1.043H4.737
			C4.45,14.242,4.216,14.011,4.216,13.724z M9.164,14.699c-0.049,0.285-0.348,0.467-0.598,0.424
			c-0.141-0.018-0.255-0.098-0.336-0.209c-0.082-0.113-0.106-0.25-0.087-0.395l0.57-3.324c0.047-0.248,0.264-0.426,0.521-0.426
			c0.031,0,0.059,0,0.086,0.004c0.283,0.053,0.473,0.316,0.422,0.6L9.164,14.699z M13.654,13.724c0,0.287-0.225,0.518-0.521,0.518
			H9.766l0.174-1.043h3.193C13.418,13.205,13.654,13.439,13.654,13.724z M13.654,11.961c0,0.283-0.225,0.521-0.521,0.521H10.07
			l0.174-1.012c0-0.004,0-0.016,0-0.02h2.889C13.418,11.447,13.654,11.683,13.654,11.961z"/>
	</g>
	<g id="EleveGroup" display="none">
		<path id="attackGroup" display="inline" fill="#FFFFFF" d="M12.348,8.937l3.98-2.561l-3.852-0.406l1.047-4.472l-2.725,2.829
			l-0.77-3.199L8.889,4.106L5.766,0.084l0.98,5.042l-2.78-0.622c0,0,0.845,1.616,1.317,2.593L0.831,6.785l4.035,2.359l-1.156,1.18
			l1.87-0.336l-1.323,4.691l3.941-3.299l1.029,2.553l1.051-2.035l3.395,3.504l-1.707-4.701l3.74,0.385L12.348,8.937z"/>
	</g>
	<g id="ExtremeGroup" display="none">
		<path id="rebelionGroup" display="inline" fill="#FFFFFF" d="M11.35,2.988c0,1.623-1.32,2.938-2.934,2.938
			c-1.628,0-2.945-1.315-2.945-2.938c0-1.629,1.317-2.937,2.945-2.937C10.029,0.051,11.35,1.358,11.35,2.988z M3.507,15.443h1.787
			h0.099l0.071-0.137l0.647-0.639l-0.614-0.131L4.555,14.34L3.507,15.443z M15.797,3.532l-0.631,0.636l0.039,0.04l-0.514,0.506
			c0.07,0.069,0.137,0.134,0.195,0.206l0.512-0.515l0.105,0.094l0.621-0.633L15.797,3.532z M11.742,6.789l-0.277,0.275l0.031,0.073
			l0.068,0.146l-4.287,4.29l0.457,0.111c0.427,0.086,0.789,0.332,1.031,0.707c0.035,0.047,0.041,0.115,0.064,0.166l0.01-0.018
			l0.316,0.209l0.111-0.025l1.242,0.908l0.848-1.15l-1.863-1.457l0.047-0.121h0.314l1.824-2.143l0.207-1.919L11.742,6.789z
			 M13.73,4.89c-0.559-0.057-1.096,0.358-1.158,0.935l-0.08,0.627l0,0l-0.035,0.451l-0.205,1.919L12.23,9.004l-0.109,0.133
			l-1.637,1.924l1.227,0.955l0.451,0.348l-0.266,0.35l0.068,0.125c0.168,0.367,0.539,0.594,0.941,0.594c0.055,0,0.115,0,0.178-0.016
			c0.461-0.072,0.814-0.451,0.863-0.916l0.705-6.465C14.723,5.469,14.299,4.954,13.73,4.89z M11.592,13.15l-0.598,0.824
			l-0.344,0.465l-0.477-0.342l-1.031-0.742l-0.088,0.016l-0.043-0.016c0,0.086,0,0.168-0.021,0.256
			c-0.02,0.088-0.047,0.172-0.084,0.25c-0.059,0.15-0.148,0.27-0.246,0.406l0.076,0.166c0.07,0.17,0.17,0.379,0.285,0.568
			l0.297,0.445h2.207L11.592,13.15z M7.392,14.896c-0.018,0-0.05-0.002-0.079-0.002c0,0.039-0.011,0.066-0.011,0.066l0.251,0.486
			h0.593l0.389-0.139c-0.134-0.203-0.24-0.422-0.34-0.646C7.95,14.801,7.69,14.896,7.392,14.896z M8.256,12.679
			c-0.04-0.064-0.11-0.119-0.167-0.168c-0.032-0.039-0.058-0.084-0.108-0.109c-0.102-0.074-0.236-0.135-0.373-0.166l-0.451-0.094
			l-1.049-0.219l0,0L5.179,11.72L4.82,11.652l-0.584-0.131l-0.042-0.006l0.102-0.105l0.402-0.396l0.426-0.424
			c0.034,0.299,0.049,0.525,0.049,0.531l0.141,0.029l1.295,0.279l0.265-0.268l4.008-4.024l-0.096-0.225l0.029-0.025
			C10.24,6.716,9.559,6.602,8.695,6.602h-0.28H8.132c-0.61,0-1.218,0.049-1.813,0.182C5.284,7.018,4.645,8.026,3.951,8.711
			c-0.722,0.717-1.426,1.457-2.131,2.193c-0.156,0.168-0.311,0.336-0.477,0.49c-0.269,0.279-0.369,0.68-0.269,1.045
			c0.11,0.369,0.411,0.639,0.793,0.73l1.387,0.301l0.589,0.121l3.335,0.715c0.074,0.008,0.146,0.018,0.214,0.018
			c0.487,0,0.926-0.332,1.03-0.834c0.041-0.197,0.01-0.367-0.051-0.539l-0.057-0.143C8.292,12.767,8.275,12.732,8.256,12.679z
			 M6.786,15.25L6.685,15.06l0.056-0.211l0.003-0.041l-0.164-0.047l-0.584,0.686h0.896L6.786,15.25z"/>
	</g>
	<path id="displacedGroup" display="none" fill="#FFFFFF" d="M8.498,1.993c0.123,0.759-0.392,1.469-1.147,1.599
		C6.594,3.723,5.875,3.205,5.754,2.453C5.633,1.69,6.14,0.968,6.899,0.851C7.659,0.719,8.372,1.237,8.498,1.993z M8.065,7.515
		l1.235,1.967c0.174,0.279,0.535,0.367,0.82,0.199c0.281-0.166,0.375-0.52,0.219-0.813L10.033,8.31
		C9.756,7.818,9.494,7.333,9.221,6.852L8.668,5.851C8.611,5.735,8.547,5.612,8.482,5.469C8.146,4.762,7.619,3.664,6.46,3.761
		C5.468,3.852,4.459,4.328,3.474,5.166C2.305,6.087,1.481,7.421,1.456,7.49c-0.038,0.055-0.08,0.115-0.104,0.166
		c0,0,0,0-0.009,0.006l0,0c-0.106,0.21-0.163,0.399-0.03,0.642C1.424,8.487,1.63,8.608,1.846,8.608c0.264,0,0.397-0.129,0.527-0.314
		l0,0l0,0c0.04-0.053,0.078-0.115,0.112-0.174c0.003-0.006,0.689-1.122,1.763-2.019c0.319-0.256,0.637-0.43,0.928-0.523L4.936,8.43
		c-0.025,0.28-0.114,0.778-0.188,1.05l-0.533,1.869c-0.065,0.232-0.269,0.633-0.42,0.813l-1.44,1.783
		c-0.188,0.234-0.392,0.488-0.228,0.85c0.103,0.211,0.316,0.338,0.552,0.338c0.273,0,0.426-0.166,0.617-0.367l1.457-1.57
		c0.261-0.279,0.597-0.77,0.769-1.109l0.722-1.469l2.675,4.49c0.135,0.221,0.303,0.5,0.666,0.5l0,0c0.205,0,0.396-0.109,0.51-0.279
		c0.195-0.299,0.059-0.564-0.051-0.813L7.869,9.816C7.788,9.631,7.747,9.256,7.777,9.054L8.065,7.515z M10.324,12.404h3.238v0.963
		l3.229-1.863l-3.229-1.852v0.957h-3.238V12.404z"/>
	<path id="returnedGroup" display="none" fill="#FFFFFF" d="M8.504,1.993c0.117,0.759-0.389,1.469-1.153,1.599
		C6.594,3.719,5.873,3.205,5.755,2.445C5.633,1.683,6.14,0.968,6.899,0.845C7.659,0.719,8.372,1.234,8.504,1.993z M8.065,7.51
		l1.235,1.973c0.174,0.279,0.535,0.363,0.82,0.199c0.281-0.172,0.375-0.52,0.219-0.813l-0.307-0.565
		C9.762,7.816,9.494,7.333,9.23,6.847L8.668,5.851C8.611,5.735,8.553,5.612,8.482,5.469C8.146,4.763,7.619,3.66,6.461,3.763
		C5.473,3.845,4.469,4.318,3.474,5.157C2.301,6.089,1.476,7.421,1.451,7.488c-0.032,0.058-0.074,0.11-0.097,0.168L1.342,7.662l0,0
		c-0.106,0.21-0.163,0.399-0.03,0.642C1.424,8.487,1.63,8.612,1.846,8.612c0.264,0,0.397-0.125,0.523-0.311l0,0l0,0
		c0.034-0.06,0.074-0.118,0.11-0.181c0.009-0.006,0.694-1.113,1.757-2.019c0.33-0.261,0.646-0.436,0.939-0.536L4.936,8.43
		c-0.025,0.28-0.114,0.778-0.188,1.05l-0.533,1.869c-0.065,0.234-0.269,0.633-0.433,0.813l-1.43,1.783
		c-0.188,0.234-0.391,0.488-0.228,0.85c0.105,0.211,0.318,0.338,0.554,0.338c0.273,0,0.426-0.166,0.617-0.367l1.457-1.57
		c0.261-0.279,0.597-0.77,0.757-1.109l0.73-1.469l2.675,4.49c0.129,0.221,0.305,0.5,0.662,0.5l0,0c0.207,0,0.396-0.109,0.518-0.285
		c0.186-0.293,0.057-0.568-0.051-0.803L7.874,9.816C7.796,9.631,7.751,9.256,7.777,9.054L8.065,7.51z M17.078,8.516
		c0-1.971-1.602-3.559-3.563-3.559h-1.51v1.791h1.514c0.967,0,1.762,0.791,1.762,1.768c0,0.96-0.777,1.759-1.762,1.759h-0.316V9.31
		l-3.221,1.857l3.221,1.863v-0.959h0.35l0,0C15.498,12.041,17.078,10.463,17.078,8.516z"/>
	<path id="epidemieGroup" fill="#FFFFFF" d="M14.701,8.368c0-3.499-2.738-6.339-6.182-6.514c1.525,0.14,2.709,1.251,2.709,2.596
		c0,0.46-0.158,0.885-0.402,1.262c-0.686-0.677-1.617-1.089-2.66-1.089c-1.03,0-1.971,0.413-2.646,1.091
		C5.284,5.338,5.127,4.91,5.127,4.45c0-1.345,1.173-2.453,2.708-2.596C4.394,2.035,1.657,4.876,1.657,8.368
		c0,1.052,0.258,2.046,0.705,2.929C1.745,9.916,2.115,8.362,3.267,7.705c0.4-0.229,0.842-0.317,1.297-0.298
		c-0.09,0.312-0.145,0.631-0.145,0.97c0,1.737,1.185,3.183,2.788,3.616c-0.028,0.033-0.059,0.066-0.079,0.113v0.002
		c-0.054,0.115-0.113,0.217-0.195,0.299c-0.175,0.227-0.372,0.426-0.63,0.57c-1.149,0.67-2.685,0.205-3.581-1.025
		c1.169,1.777,3.17,2.949,5.454,2.949c2.259,0,4.237-1.148,5.425-2.895c-0.91,1.191-2.412,1.633-3.549,0.975
		C9.646,12.748,9.361,12.4,9.16,11.994c1.592-0.434,2.766-1.885,2.766-3.616c0-0.336-0.047-0.651-0.121-0.965
		c0.451-0.024,0.898,0.065,1.299,0.3c1.119,0.64,1.5,2.119,0.953,3.463C14.465,10.324,14.701,9.375,14.701,8.368z M8.867,10.877
		c-0.031-0.541,0.09-1.107,0.359-1.65l-0.432-0.25C8.641,9.144,8.416,9.24,8.177,9.24c-0.245,0-0.465-0.1-0.627-0.262L7.126,9.22
		c0.279,0.541,0.387,1.115,0.358,1.664c-1.106-0.309-1.924-1.307-1.924-2.507c0-0.228,0.044-0.445,0.095-0.651
		C6.14,7.966,6.582,8.348,6.912,8.849l0.442-0.255c-0.02-0.074-0.05-0.146-0.05-0.227c0-0.411,0.277-0.734,0.659-0.829V7.034
		C7.353,6.99,6.812,6.81,6.357,6.51c0.459-0.461,1.107-0.747,1.812-0.747c0.705,0,1.361,0.296,1.83,0.755
		c-0.461,0.301-1.006,0.48-1.605,0.525v0.5C8.764,7.64,9.045,7.962,9.045,8.372c0,0.078-0.023,0.152-0.043,0.221l0.443,0.251
		c0.324-0.499,0.768-0.878,1.244-1.124c0.047,0.211,0.098,0.423,0.098,0.648C10.785,9.578,9.971,10.57,8.867,10.877z"/>
</g>
</svg>
