<?xml version="1.0" encoding="utf-8"?>
<!-- Generator: Adobe Illustrator 16.0.0, SVG Export Plug-In . SVG Version: 6.00 Build 0)  -->
<!DOCTYPE svg PUBLIC "-//W3C//DTD SVG 1.1//EN" "http://www.w3.org/Graphics/SVG/1.1/DTD/svg11.dtd">
<svg version="1.1" id="Groupe" xmlns="http://www.w3.org/2000/svg" xmlns:xlink="http://www.w3.org/1999/xlink" x="0px" y="0px"
	 width="15.871px" height="15.65px" viewBox="0 0 15.871 15.65" enable-background="new 0 0 15.871 15.65" xml:space="preserve">
<g id="PinColor_1_">
	<path id="vert" fill="#2ABF00" stroke="#1D7500" stroke-width="0.2" stroke-miterlimit="10" d="M15.238,7.876
		c0,3.337-2.389,6.134-5.611,6.876c-0.539,0.119-2.88,0.119-3.438-0.02C3,13.975,0.634,11.194,0.634,7.873
		c0-3.895,3.271-7.063,7.301-7.063C11.964,0.811,15.238,3.979,15.238,7.876z"/>
	<path id="orange" display="none" fill="#FF8500" stroke="#7F4500" stroke-width="0.2" stroke-miterlimit="10" d="M15.238,7.876
		c0,3.337-2.389,6.134-5.611,6.876c-0.539,0.119-2.88,0.119-3.438-0.02C3,13.975,0.634,11.194,0.634,7.873
		c0-3.895,3.271-7.063,7.301-7.063C11.964,0.811,15.238,3.979,15.238,7.876z"/>
	<path id="gris" display="none" fill="#A5A5A5" stroke="#595959" stroke-width="0.2" stroke-miterlimit="10" d="M15.238,7.876
		c0,3.337-2.389,6.134-5.611,6.876c-0.539,0.119-2.88,0.119-3.438-0.02C3,13.975,0.634,11.194,0.634,7.873
		c0-3.895,3.271-7.063,7.301-7.063C11.964,0.811,15.238,3.979,15.238,7.876z"/>
	<path id="bleu" display="none" fill="#0092FF" stroke="#00477C" stroke-width="0.2" stroke-miterlimit="10" d="M15.238,7.876
		c0,3.337-2.389,6.134-5.611,6.876c-0.539,0.119-2.88,0.119-3.438-0.02C3,13.975,0.634,11.194,0.634,7.873
		c0-3.895,3.271-7.063,7.301-7.063C11.964,0.811,15.238,3.979,15.238,7.876z"/>
</g>
<g id="IconsGroup">
	<g id="MinimalGroup" display="none">
		<path id="ElectionGroup" display="inline" fill="#565656" d="M15.881,1.425L11.32-0.528c-0.131-0.053-0.298-0.018-0.38,0.096
			L9.633,1.2c-0.06,0.063-0.081,0.176-0.06,0.271C9.595,1.569,9.655,1.637,9.74,1.677L5.65,3.22c-0.344,0.119-0.642,0.36-0.83,0.681
			L3.468,6.153c-0.287,0.48-0.312,1.066-0.06,1.563L3.51,7.908H2.08c-0.183,0-0.323,0.147-0.323,0.326v6.181H0.777
			c-0.179,0-0.318,0.149-0.318,0.322c0,0.178,0.145,0.326,0.318,0.326h11.064c0.181,0,0.322-0.148,0.322-0.326
			c0-0.173-0.142-0.322-0.322-0.322h-0.975v-3.32c0-0.107-0.058-0.22-0.143-0.273c-0.096-0.061-0.22-0.069-0.322-0.019
			c-0.358,0.166-0.624,0.252-0.744,0.293c-0.025,0-0.053,0.015-0.074,0.029L7.461,12.39c-0.336,0.204-0.721,0.314-1.109,0.314
			c-0.73,0-1.386-0.357-1.8-0.967c-0.338-0.491-0.454-1.078-0.324-1.655C4.35,9.513,4.69,9.02,5.177,8.704l0.312-0.195
			c0.227-0.138,0.428-0.258,0.604-0.372C6.223,8.063,6.27,7.905,6.231,7.761C6.155,7.497,6.025,7.269,5.892,7.09
			C6.387,6.878,7.06,6.49,7.4,6.095l0,0C7.472,6.138,7.557,6.19,7.649,6.234c0.01,0,0.01,0,0.019,0.003l0,0
			c0.24,0.116,0.539,0.236,0.9,0.305C8.189,7.015,7.807,7.598,7.661,7.981C7.408,8.106,6.841,8.414,5.533,9.25
			C5.184,9.467,4.947,9.817,4.869,10.22c-0.087,0.401-0.01,0.808,0.221,1.156c0.298,0.438,0.766,0.68,1.262,0.68
			c0.264,0,0.528-0.083,0.776-0.22l2.24-1.344c0.343-0.084,2.08-0.604,3.4-2.735c1.035-1.671,1.617-3.014,1.854-3.625l0.035,0.019
			c0.139,0.061,0.299,0.11,0.436,0.11c0.26,0,0.511-0.11,0.688-0.28c0.187-0.184,0.294-0.434,0.294-0.701V1.726
			C16.072,1.592,16.001,1.471,15.881,1.425z"/>
	</g>
	<g id="FaibleGroup" display="none">
		<path id="FamineGroup" display="inline" fill="#F9F9F9" d="M12.504,12.888l-2.477,0.469l-4.036-2.205l1.473-1.818l3.295,1.097
			L12.504,12.888z M16.3,8.594v0.278l-2.608,0.818l-2.563,0.366L7.826,8.963L7.047,8.594h0.448c-0.108-0.977-0.25-1.726-0.317-2.703
			l0,0C7.17,5.869,7.135,5.215,7.128,4.941c-0.05-0.301-0.191-0.413-0.649-0.734c-0.256-0.154-0.446-0.212-0.54-0.212
			c-0.168,0-0.317,0.185-0.356,0.741C6.324,4.857,6.37,5.67,6.37,5.67c0.067,0.578-0.222,1.421-0.872,1.644
			C4.293,7.712,4.41,5.389,5.092,4.827c0.019-0.671,0.207-1.287,0.847-1.312c0.257,0,0.516,0.108,0.81,0.294
			c0.135,0.09,0.255,0.17,0.351,0.266c-0.01-0.227-0.021-0.454-0.021-0.689c0-0.493,0.075-1.017,0.513-1.396
			c0.221-0.205,0.467-0.32,0.724-0.315c0.641,0.039,1.035,0.59,1.277,1.159c0.262-0.117,0.605-0.17,0.984-0.035
			c0.995,0.338,1.545,2.078,1.126,2.674c-0.984,1.41-3.447-1.2-2.802-2.125c0,0,0.103-0.117,0.271-0.262
			C8.975,2.584,8.592,2.141,8.312,2.166c-0.113,0-0.248,0.037-0.404,0.181C7.635,2.595,7.557,2.933,7.557,3.388
			c0,0.319,0.042,0.676,0.042,1.025c0,0.188,0.011,0.349,0.015,0.528c0.049,0.315,0.049,0.552,0.049,0.886
			C7.735,6.798,8.12,7.6,8.23,8.594H16.3z M9.343,3.285l1.879,2.035c-0.338-1.445-1.514-2.247-1.514-2.247L9.343,3.285z
			 M5.479,5.031L5.144,5.167c0,0-0.163,1.139,0,1.731L5.479,5.031z M3.809,11.89l1.483-0.889l1.543-1.914l-0.48-0.493H2.938
			l-0.68,1.364L3.809,11.89z M5.533,11.582l-2.624,1.793l0.34,0.436h6.054L9.29,13.728L5.533,11.582z M0.128,8.594v2.065
			l1.676-0.902l0.517-1.163H0.128z M11.615,10.497l1.634,2.379l3.051,0.719v-2.718l-2.197-0.706L11.615,10.497z M16.3,10.285V9.334
			l-1.716,0.459L16.3,10.285z M1.855,10.423l-1.727,0.818v2.569h1.26l1.886-1.539L1.855,10.423z M10.899,13.81h3.954l-1.885-0.453
			L10.899,13.81z"/>
		<path id="CycloneGroup" display="inline" fill="#FFFFFF" d="M8.271,3.038c-0.087,0-0.168-0.013-0.253-0.013
			c-0.741,0-1.436,0.194-2.034,0.523C7.06-0.129,9.76-0.46,9.76-0.46S3.792,0.048,3.792,7.01c0.003,0,0.003,0,0.011,0
			c0,0.078-0.008,0.158-0.008,0.247c0,0.735,0.192,1.439,0.526,2.045c-3.686-1.09-4.004-3.785-4.004-3.785s0.5,5.974,7.467,5.974
			c0-0.008,0-0.008,0-0.015c0.082,0.003,0.16,0.015,0.245,0.015c0.743,0,1.438-0.189,2.045-0.528
			c-1.092,3.686-3.792,4.009-3.792,4.009S12.26,14.467,12.26,7.5c-0.015,0-0.015,0-0.015,0c0-0.086,0.015-0.168,0.015-0.249
			c0-0.744-0.191-1.439-0.528-2.047c3.679,1.083,4.011,3.789,4.011,3.789s-0.5-5.968-7.471-5.968
			C8.271,3.032,8.271,3.038,8.271,3.038z"/>
		<path id="eruptionGroup" display="inline" fill="#FFFFFF" d="M9.201,4.379c0.894,0.307,2.069,0.661,2.328-0.769
			c0.191-1.123,1.672-0.711,2.304-0.774c1.159-0.138,0.283-2.292-1.155-2.321c-1.456-0.035-2.115,0.612-2.711,1.931
			C9.701,3.082,9.463,3.558,8.427,3.22C7.397,2.873,6.632,3.721,7.262,4.767c0.555,0.928-0.01,1.935-0.01,1.935h1.563
			c0,0-0.009-0.563-0.386-1.155C7.985,4.852,8.29,4.069,9.201,4.379z M0.953,14.002c4.006-2.918,5.009-6.946,5.009-6.946h4.111
			c0,0,0.999,4.027,5,6.951H0.953V14.002z"/>
		<path id="tsunamiGroup" display="inline" fill="#FFFFFF" d="M15.529,12.171C3.232,12.872,6.676,3.471,9.856,4.281
			c-0.332,0.2-0.535,0.892-0.34,1.351c0.22,0.506,0.946,0.785,1.364,0.68c0.978-0.253,1.024-1.633,0.673-2.373
			c-0.375-0.75-1.349-1.69-3.058-1.69c-4.105,0-6.921,2.1-7.977,5.709v5.314h15.01V12.171z"/>
		<path id="earthquakeGroup" display="inline" fill="#FFFFFF" d="M12.394,7.72c-0.206,0-0.403,0.117-0.5,0.311l-0.817,1.535
			l-1.007-2.96c-0.085-0.22-0.291-0.372-0.524-0.384C9.293,6.218,9.089,6.355,9.003,6.576L8.312,8.215L7.217,1.66
			C7.167,1.391,6.903,1.184,6.646,1.2C6.355,1.207,6.125,1.391,6.089,1.666L5.126,9.26L4.337,5.189
			C4.296,4.951,4.098,4.763,3.853,4.736c-0.235-0.032-0.472,0.092-0.591,0.31l-1.28,2.677H0v1.139h2.35
			c0.216,0,0.42-0.118,0.513-0.321l0.691-1.436l1.114,5.789c0.053,0.263,0.294,0.454,0.553,0.454c0.011,0,0.014,0,0.02,0
			c0.282-0.009,0.516-0.21,0.549-0.494l0.95-7.468l0.799,4.914c0.042,0.254,0.24,0.439,0.494,0.477
			c0.256,0.021,0.49-0.115,0.589-0.343l0.852-2.031l0.953,2.793c0.077,0.212,0.266,0.354,0.492,0.375
			c0.233,0.014,0.443-0.1,0.546-0.3l1.279-2.411h2.441V7.72H12.394z"/>
	</g>
	<g id="ImportantGroup" display="none">
		<path id="enlevementGroup" display="inline" fill="#FFFFFF" d="M14.878-0.957c-0.481,0-0.867,0.39-0.867,0.869v3.531
			c0.216,0.043,0.414,0.125,0.584,0.289c0.453,0.45,0.461,1.194,0.018,1.647l-1.644,1.692l-0.227-0.223l1.644-1.684
			c0.322-0.344,0.319-0.88-0.019-1.211c-0.102-0.104-0.227-0.179-0.364-0.211c-0.142-0.039-0.284-0.039-0.425-0.011
			c-0.167,0.037-0.305,0.117-0.415,0.239c-0.976,1-1.95,1.999-2.927,3.005C9.984,7.225,9.545,7.785,9.552,8.368
			c0.011,0.539,0,1.091,0,1.632C9.428,9.886,9.278,9.819,9.098,9.789c-0.503-0.092-0.953,0.214-1.125,0.661H7.72
			c0-0.116,0-0.245,0-0.369c0.008-0.56-0.011-1.148,0-1.713c0.019-0.573-0.435-1.143-0.673-1.386
			C6.069,5.97,5.101,4.971,4.121,3.966C4.012,3.849,3.863,3.767,3.708,3.732c-0.145-0.036-0.288-0.03-0.433,0.012
			C3.141,3.777,3.009,3.849,2.913,3.954c-0.338,0.331-0.346,0.87-0.025,1.211l1.646,1.684L4.316,7.071L2.671,5.378
			C2.227,4.925,2.236,4.18,2.689,3.73c0.169-0.156,0.363-0.241,0.569-0.289V-0.09c0-0.477-0.39-0.868-0.867-0.868
			c-0.484,0-0.867,0.39-0.867,0.868v6.11c0,0.2,0.082,0.384,0.197,0.531l2.953,3.893H4.417c-0.576,0-1.038,0.468-1.038,1.049
			c0,0.383,0.211,0.701,0.526,0.879c-0.309,0.19-0.526,0.509-0.526,0.877c0,0.581,0.462,1.043,1.038,1.043h0.319v0.584h2.899
			c0.152,0.152,0.328,0.262,0.541,0.305c0.065,0.015,0.115,0.021,0.177,0.021c0.516,0,0.949-0.365,1.037-0.868v-0.038h0.185
			c0,0.19,0,0.387,0.021,0.581h2.938v-0.581h0.319c0.566,0,1.037-0.464,1.037-1.038c0-0.375-0.209-0.709-0.527-0.887
			c0.318-0.183,0.527-0.5,0.527-0.883c0-0.574-0.476-1.042-1.037-1.042h-0.256l2.948-3.89c0.124-0.152,0.202-0.331,0.202-0.531
			v-6.104C15.75-0.565,15.354-0.957,14.878-0.957z M3.892,11.493c0-0.284,0.24-0.517,0.526-0.517h3.425l-0.182,1.045H4.417
			C4.13,12.01,3.892,11.777,3.892,11.493z M3.892,13.266c0-0.291,0.24-0.529,0.526-0.529h3.117l-0.178,1.047h-2.94
			C4.13,13.786,3.892,13.552,3.892,13.266z M8.866,14.244c-0.048,0.287-0.35,0.473-0.601,0.428
			c-0.142-0.017-0.255-0.098-0.337-0.211c-0.081-0.114-0.108-0.249-0.088-0.395l0.574-3.342c0.046-0.251,0.266-0.432,0.523-0.432
			c0.03,0,0.058,0,0.084,0.006c0.289,0.053,0.477,0.316,0.425,0.603L8.866,14.244z M13.379,13.266c0,0.285-0.227,0.518-0.523,0.518
			H9.475l0.172-1.047h3.212C13.146,12.74,13.379,12.978,13.379,13.266z M13.379,11.493c0,0.284-0.227,0.524-0.523,0.524H9.778
			l0.174-1.017c0-0.004,0-0.016,0-0.022h2.906C13.146,10.976,13.379,11.214,13.379,11.493z"/>
	</g>
	<g id="EleveGroup" display="none">
		<path id="attackGroup" display="inline" fill="#FFFFFF" d="M12.068,8.453l4.004-2.575l-3.873-0.409l1.056-4.494l-2.746,2.844
			L9.74,0.601L8.592,3.596L5.453-0.449l0.985,5.069L3.645,3.998c0,0,0.849,1.623,1.325,2.605L0.488,6.287l4.058,2.371L3.385,9.843
			l1.879-0.335l-1.33,4.716l3.961-3.316l1.037,2.565l1.056-2.045L13.4,14.95l-1.715-4.726l3.76,0.387L12.068,8.453z"/>
	</g>
	<g id="ExtremeGroup" display="none">
		<path id="rebelionGroup" display="inline" fill="#FFFFFF" d="M11.064,2.47c0,1.63-1.328,2.954-2.95,2.954
			c-1.636,0-2.961-1.324-2.961-2.954c0-1.637,1.325-2.952,2.961-2.952C9.74-0.482,11.064,0.832,11.064,2.47z M3.181,14.995h1.795
			h0.101l0.069-0.136l0.652-0.646l-0.616-0.132l-0.947-0.196L3.181,14.995z M15.538,3.018l-0.639,0.638l0.043,0.042l-0.518,0.509
			c0.07,0.069,0.138,0.133,0.194,0.206l0.519-0.516l0.104,0.095l0.622-0.639L15.538,3.018z M11.458,6.291L11.179,6.57l0.034,0.074
			l0.067,0.147l-4.306,4.313l0.458,0.11c0.428,0.087,0.794,0.334,1.035,0.71c0.035,0.049,0.042,0.113,0.067,0.166l0.007-0.013
			l0.32,0.209l0.112-0.027l1.25,0.911l0.852-1.156l-1.875-1.463l0.05-0.12h0.314l1.834-2.155l0.208-1.931L11.458,6.291z
			 M13.457,4.383c-0.56-0.059-1.102,0.359-1.162,0.938l-0.082,0.632l0,0l-0.038,0.454l-0.203,1.927l-0.023,0.184l-0.106,0.129
			l-1.645,1.941l1.234,0.959l0.452,0.35l-0.266,0.354l0.067,0.124c0.17,0.368,0.542,0.6,0.946,0.6c0.056,0,0.117,0,0.177-0.021
			c0.465-0.074,0.818-0.453,0.868-0.921l0.713-6.5C14.457,4.965,14.032,4.448,13.457,4.383z M11.31,12.688l-0.602,0.829
			l-0.344,0.463l-0.479-0.343l-1.039-0.749l-0.088,0.02l-0.042-0.02c0,0.09,0,0.171-0.025,0.259
			c-0.017,0.087-0.046,0.171-0.081,0.249c-0.061,0.151-0.152,0.276-0.248,0.413l0.076,0.166c0.07,0.167,0.172,0.38,0.287,0.569
			l0.297,0.45h2.221L11.31,12.688z M7.089,14.445c-0.02,0-0.053-0.004-0.082-0.004c0,0.039-0.011,0.068-0.011,0.068l0.252,0.485
			h0.599l0.39-0.136c-0.135-0.203-0.241-0.427-0.342-0.648C7.649,14.346,7.387,14.445,7.089,14.445z M7.957,12.214
			c-0.039-0.064-0.109-0.119-0.17-0.169c-0.031-0.037-0.057-0.086-0.108-0.11c-0.101-0.074-0.238-0.139-0.373-0.167l-0.454-0.097
			l-1.053-0.218l0,0L4.863,11.25l-0.361-0.068l-0.588-0.131l-0.041-0.008l0.101-0.102l0.405-0.403l0.427-0.427
			c0.032,0.301,0.052,0.531,0.052,0.536L5,10.674l1.3,0.284l0.268-0.272l4.033-4.042l-0.103-0.227l0.032-0.025
			C9.952,6.218,9.266,6.105,8.396,6.105H8.115H7.832c-0.613,0-1.225,0.048-1.824,0.181C4.97,6.519,4.327,7.536,3.627,8.226
			C2.9,8.945,2.192,9.689,1.485,10.43c-0.156,0.167-0.313,0.333-0.479,0.488c-0.271,0.284-0.372,0.686-0.271,1.054
			c0.111,0.367,0.414,0.643,0.798,0.732l1.394,0.303l0.591,0.123l3.354,0.717c0.074,0.01,0.146,0.017,0.216,0.017
			c0.489,0,0.929-0.33,1.035-0.836c0.039-0.197,0.008-0.367-0.05-0.543L8.014,12.34C7.993,12.302,7.973,12.265,7.957,12.214z
			 M6.479,14.796l-0.102-0.19l0.057-0.213l0.003-0.037L6.27,14.303l-0.584,0.691h0.9L6.479,14.796z"/>
	</g>
	<path id="displacedGroup" display="none" fill="#FFFFFF" d="M8.198,1.471c0.124,0.763-0.392,1.476-1.151,1.607
		c-0.76,0.133-1.487-0.388-1.61-1.145C5.316,1.165,5.827,0.44,6.593,0.321C7.357,0.19,8.074,0.709,8.198,1.471z M7.766,7.023
		l1.237,1.976C9.18,9.282,9.545,9.366,9.827,9.2c0.288-0.166,0.378-0.521,0.221-0.818l-0.305-0.56
		C9.463,7.327,9.201,6.84,8.921,6.355L8.373,5.35C8.312,5.231,8.248,5.109,8.184,4.965C7.848,4.253,7.315,3.151,6.15,3.249
		c-0.996,0.09-2.011,0.57-3,1.412C1.972,5.588,1.146,6.928,1.12,6.998c-0.039,0.053-0.08,0.111-0.105,0.166c0,0,0,0-0.009,0.006l0,0
		c-0.107,0.212-0.163,0.4-0.031,0.645c0.11,0.185,0.32,0.304,0.535,0.304c0.265,0,0.399-0.127,0.529-0.315l0,0l0,0
		C2.08,7.753,2.118,7.69,2.152,7.632C2.156,7.625,2.847,6.502,3.925,5.6c0.321-0.255,0.641-0.433,0.933-0.527l-0.24,2.869
		C4.594,8.226,4.502,8.724,4.427,8.999l-0.535,1.878c-0.064,0.233-0.27,0.634-0.422,0.817l-1.448,1.79
		c-0.189,0.238-0.394,0.491-0.229,0.854c0.103,0.213,0.317,0.341,0.555,0.341c0.275,0,0.429-0.167,0.621-0.37l1.465-1.579
		c0.263-0.278,0.599-0.772,0.773-1.112l0.725-1.479l2.691,4.518c0.135,0.218,0.301,0.502,0.667,0.502l0,0
		c0.205,0,0.4-0.112,0.514-0.284c0.194-0.3,0.061-0.568-0.053-0.814L7.567,9.334C7.482,9.15,7.441,8.771,7.472,8.569L7.766,7.023z
		 M10.037,11.935h3.254v0.969l3.246-1.872l-3.246-1.863v0.968h-3.254V11.935z"/>
	<path id="returnedGroup" display="none" fill="#FFFFFF" d="M8.204,1.471c0.119,0.763-0.392,1.476-1.157,1.607
		c-0.76,0.125-1.489-0.388-1.606-1.153C5.316,1.158,5.827,0.44,6.593,0.316C7.357,0.19,8.074,0.706,8.204,1.471z M7.766,7.017
		l1.237,1.981C9.18,9.282,9.545,9.363,9.827,9.2c0.288-0.174,0.378-0.521,0.221-0.818L9.743,7.815
		C9.471,7.324,9.201,6.84,8.934,6.349l-0.561-1C8.312,5.231,8.255,5.109,8.184,4.965C7.848,4.255,7.315,3.147,6.15,3.249
		c-0.99,0.083-2.003,0.558-3,1.403c-1.18,0.938-2.01,2.277-2.035,2.342c-0.033,0.057-0.074,0.11-0.1,0.17L1.006,7.17l0,0
		c-0.107,0.212-0.163,0.4-0.031,0.645c0.11,0.185,0.32,0.311,0.535,0.311c0.265,0,0.399-0.126,0.526-0.315l0,0l0,0
		c0.035-0.058,0.074-0.116,0.11-0.179c0.009-0.009,0.7-1.122,1.77-2.032C4.248,5.339,4.566,5.162,4.86,5.063L4.619,7.942
		C4.594,8.226,4.502,8.724,4.427,8.999l-0.535,1.878c-0.064,0.237-0.27,0.634-0.435,0.817l-1.437,1.79
		c-0.189,0.238-0.395,0.491-0.229,0.854c0.104,0.213,0.319,0.341,0.556,0.341c0.275,0,0.429-0.167,0.621-0.37l1.465-1.579
		c0.263-0.278,0.599-0.772,0.763-1.112l0.731-1.479l2.688,4.518c0.132,0.22,0.308,0.503,0.67,0.503l0,0
		c0.206,0,0.396-0.111,0.518-0.286c0.188-0.298,0.056-0.575-0.05-0.808L7.573,9.334C7.495,9.15,7.447,8.771,7.472,8.569L7.766,7.017
		z M16.823,8.027c0-1.979-1.607-3.576-3.579-3.576h-1.523v1.8h1.528c0.967,0,1.771,0.794,1.771,1.775
		c0,0.966-0.783,1.771-1.771,1.771h-0.323V8.824L9.69,10.696l3.235,1.869v-0.962h0.354l0,0C15.236,11.571,16.823,9.984,16.823,8.027
		z"/>
	<path id="epidemieGroup" fill="#FFFFFF" d="M14.432,7.879c0-3.516-2.75-6.372-6.212-6.548c1.531,0.141,2.726,1.256,2.726,2.608
		c0,0.462-0.159,0.891-0.405,1.271C9.854,4.529,8.91,4.113,7.865,4.113c-1.035,0-1.981,0.416-2.658,1.099
		C4.97,4.833,4.81,4.402,4.81,3.939c0-1.352,1.18-2.465,2.722-2.608C4.071,1.513,1.319,4.369,1.319,7.879
		c0,1.056,0.259,2.057,0.708,2.944c-0.617-1.389-0.245-2.95,0.911-3.611c0.403-0.23,0.847-0.319,1.305-0.298
		C4.152,7.228,4.098,7.549,4.098,7.889c0,1.748,1.19,3.201,2.803,3.634c-0.029,0.034-0.061,0.068-0.08,0.115v0.004
		c-0.055,0.115-0.115,0.217-0.197,0.298c-0.175,0.23-0.372,0.428-0.633,0.573c-1.157,0.671-2.7,0.204-3.6-1.031
		c1.176,1.787,3.188,2.963,5.483,2.963c2.271,0,4.26-1.152,5.455-2.905c-0.914,1.197-2.425,1.639-3.573,0.978
		c-0.403-0.233-0.694-0.585-0.896-0.994c1.602-0.434,2.781-1.896,2.781-3.634c0-0.336-0.046-0.654-0.12-0.969
		c0.452-0.026,0.903,0.064,1.308,0.301c1.124,0.644,1.505,2.133,0.956,3.482C14.198,9.845,14.432,8.891,14.432,7.879z M8.568,10.401
		c-0.03-0.547,0.09-1.112,0.363-1.658L8.496,8.489C8.342,8.658,8.115,8.755,7.875,8.755c-0.249,0-0.468-0.098-0.631-0.264
		L6.821,8.736c0.278,0.546,0.389,1.118,0.36,1.673c-1.112-0.308-1.937-1.313-1.937-2.52c0-0.23,0.044-0.448,0.098-0.654
		C5.827,7.476,6.27,7.859,6.604,8.364l0.445-0.258c-0.02-0.075-0.052-0.147-0.052-0.227c0-0.411,0.28-0.738,0.663-0.833V6.539
		C7.047,6.494,6.5,6.314,6.043,6.013C6.508,5.547,7.16,5.261,7.865,5.261c0.709,0,1.371,0.298,1.843,0.758
		C9.243,6.323,8.694,6.502,8.092,6.548v0.501c0.372,0.099,0.656,0.423,0.656,0.833c0,0.078-0.023,0.152-0.043,0.222l0.443,0.253
		c0.33-0.503,0.775-0.883,1.254-1.131c0.05,0.213,0.096,0.425,0.096,0.652C10.498,9.097,9.676,10.093,8.568,10.401z"/>
</g>
</svg>
