<?xml version="1.0" encoding="utf-8"?>
<!-- Generator: Adobe Illustrator 16.0.0, SVG Export Plug-In . SVG Version: 6.00 Build 0)  -->
<!DOCTYPE svg PUBLIC "-//W3C//DTD SVG 1.1//EN" "http://www.w3.org/Graphics/SVG/1.1/DTD/svg11.dtd">
<svg version="1.1" id="Layer_1" xmlns="http://www.w3.org/2000/svg" xmlns:xlink="http://www.w3.org/1999/xlink" x="0px" y="0px"
	 width="33.35px" height="40px" viewBox="0 0 33.35 40" enable-background="new 0 0 33.35 40" xml:space="preserve">
<g id="PinColor">
	<path id="PinOmbre" opacity="0.3" enable-background="new    " d="M29.005,30.877c0,1.768-3.883,3.252-9.105,3.643
		c-0.881,0.068-2.746,4.217-2.746,4.217s-1.93-4.148-2.84-4.221C9.14,34.111,5.3,32.635,5.3,30.877c0-2.07,5.307-3.748,11.853-3.748
		C23.699,27.129,29.005,28.805,29.005,30.877z"/>
	<path id="vert" display="none" fill="#2ABF00" stroke="#1D7500" stroke-width="0.2" stroke-miterlimit="10" d="M29.005,13.482
		c0,5.416-3.883,9.956-9.105,11.157c-0.881,0.199-2.746,12.896-2.746,12.896s-1.93-12.695-2.84-12.921
		C9.14,23.385,5.3,18.865,5.3,13.479c0-6.331,5.307-11.463,11.853-11.463C23.698,2.014,29.005,7.15,29.005,13.482z"/>
	<path id="orange" display="none" fill="#FF8500" stroke="#7F4500" stroke-width="0.2" stroke-miterlimit="10" d="M29.005,13.482
		c0,5.416-3.883,9.956-9.105,11.157c-0.881,0.199-2.746,12.896-2.746,12.896s-1.93-12.695-2.84-12.921
		C9.14,23.385,5.3,18.865,5.3,13.479c0-6.331,5.307-11.463,11.853-11.463C23.698,2.014,29.005,7.15,29.005,13.482z"/>
	<path id="gris" display="none" fill="#A5A5A5" stroke="#595959" stroke-width="0.2" stroke-miterlimit="10" d="M29.005,13.482
		c0,5.416-3.883,9.956-9.105,11.157c-0.881,0.199-2.746,12.896-2.746,12.896s-1.93-12.695-2.84-12.921
		C9.14,23.385,5.3,18.865,5.3,13.479c0-6.331,5.307-11.463,11.853-11.463C23.698,2.014,29.005,7.15,29.005,13.482z"/>
	<path id="bleu" fill="#0092FF" stroke="#00477C" stroke-width="0.2" stroke-miterlimit="10" d="M29.005,13.482
		c0,5.416-3.883,9.956-9.105,11.157c-0.881,0.199-2.746,12.896-2.746,12.896s-1.93-12.695-2.84-12.921
		C9.14,23.385,5.3,18.865,5.3,13.479c0-6.331,5.307-11.463,11.853-11.463C23.698,2.014,29.005,7.15,29.005,13.482z"/>
</g>
<g id="Icons">
	<g id="Faible" display="none">
		<path id="Famine" fill="#F9F9F9" d="M10.341,8.976L9.132,9.204L7.159,8.131l0.717-0.895L9.49,7.773L10.341,8.976z M12.198,6.879
			v0.134l-1.273,0.403L9.669,7.595L8.056,7.059l-0.38-0.179h0.217C7.841,6.399,7.772,6.036,7.74,5.56H7.737
			C7.735,5.546,7.719,5.227,7.714,5.091C7.689,4.948,7.622,4.891,7.398,4.737C7.275,4.657,7.183,4.629,7.131,4.63
			c-0.082,0-0.155,0.089-0.172,0.357c0.358,0.061,0.384,0.459,0.384,0.459c0.03,0.283-0.108,0.695-0.426,0.802
			c-0.59,0.197-0.53-0.94-0.197-1.213c0.009-0.328,0.1-0.628,0.411-0.641c0.125,0.001,0.251,0.051,0.396,0.144
			c0.07,0.042,0.125,0.084,0.174,0.128C7.697,4.558,7.691,4.447,7.691,4.334c-0.001-0.239,0.035-0.5,0.249-0.685
			C8.049,3.55,8.173,3.499,8.292,3.5c0.316,0.015,0.512,0.287,0.626,0.565C9.05,4.007,9.216,3.979,9.406,4.045
			C9.892,4.213,10.153,5.06,9.95,5.356C9.471,6.043,8.267,4.763,8.586,4.317c0,0,0.047-0.061,0.129-0.128
			C8.622,3.942,8.434,3.722,8.293,3.738c-0.054,0-0.116,0.02-0.195,0.09c-0.134,0.118-0.17,0.286-0.17,0.506
			c0,0.155,0.019,0.328,0.019,0.5c0,0.091,0.006,0.17,0.009,0.257c0.021,0.153,0.023,0.273,0.021,0.435
			C8.01,6.001,8.203,6.391,8.253,6.88L12.198,6.879L12.198,6.879z M8.802,4.283l0.913,0.994C9.552,4.572,8.973,4.178,8.973,4.178
			L8.802,4.283z M6.91,5.136L6.747,5.204c0,0-0.082,0.556,0,0.846L6.91,5.136z M6.093,8.49l0.726-0.437l0.756-0.936l-0.236-0.24
			H5.667L5.335,7.541L6.093,8.49z M6.939,8.34L5.653,9.215l0.172,0.212h2.958l-0.01-0.044L6.939,8.34z M4.293,6.879v1.009
			l0.824-0.442l0.25-0.567H4.293z M9.909,7.811l0.797,1.156l1.492,0.35V7.994l-1.073-0.346L9.909,7.811z M12.198,7.705V7.238
			l-0.837,0.227L12.198,7.705z M5.137,7.77L4.293,8.172v1.256h0.618l0.92-0.753L5.137,7.77z M9.559,9.428h1.932l-0.925-0.224
			L9.559,9.428z"/>
		<path id="Cyclone" fill="#FFFFFF" d="M8.276,4.165C8.235,4.162,8.195,4.157,8.154,4.157c-0.361,0-0.703,0.094-0.999,0.258
			c0.529-1.804,1.85-1.96,1.85-1.96S6.087,2.699,6.087,6.102c0.003,0,0.005,0,0.007,0C6.092,6.143,6.087,6.183,6.087,6.225
			c0,0.36,0.094,0.701,0.258,0.998c-1.803-0.529-1.96-1.849-1.96-1.849s0.243,2.917,3.648,2.917c0-0.002,0-0.003,0-0.006
			c0.04,0.001,0.081,0.006,0.121,0.006c0.363,0,0.704-0.094,1-0.259c-0.53,1.804-1.851,1.961-1.851,1.961S10.22,9.75,10.22,6.346
			c-0.001,0-0.004,0-0.006,0c0.002-0.041,0.006-0.08,0.006-0.121c0-0.362-0.094-0.703-0.258-0.998c1.803,0.529,1.96,1.85,1.96,1.85
			S11.68,4.159,8.277,4.159C8.276,4.16,8.276,4.162,8.276,4.165z"/>
		<path id="tsunami" fill="#FFFFFF" d="M11.819,8.625C5.815,8.965,7.493,4.374,9.05,4.769C8.889,4.868,8.787,5.205,8.885,5.433
			c0.109,0.244,0.459,0.383,0.662,0.332c0.484-0.125,0.505-0.804,0.332-1.161C9.698,4.234,9.22,3.776,8.388,3.776
			c-2.011,0-3.383,1.026-3.899,2.792v2.597h7.332L11.819,8.625L11.819,8.625z"/>
		<path id="earthquake" fill="#FFFFFF" d="M10.291,6.451c-0.103,0-0.197,0.057-0.245,0.148l-0.4,0.754L9.15,5.907
			c-0.038-0.11-0.137-0.184-0.253-0.189C8.778,5.715,8.676,5.782,8.629,5.889L8.292,6.692L7.758,3.492
			C7.732,3.358,7.607,3.256,7.479,3.263C7.341,3.266,7.227,3.356,7.208,3.493L6.737,7.208L6.355,5.214
			C6.332,5.097,6.236,5.006,6.117,4.99C5.999,4.974,5.882,5.038,5.83,5.145L5.203,6.451H4.231v0.556h1.147
			c0.107,0,0.205-0.062,0.252-0.157l0.336-0.701L6.51,8.977c0.026,0.131,0.14,0.227,0.274,0.227c0.001,0,0.004,0,0.007,0
			C6.927,9.198,7.041,9.096,7.06,8.961l0.465-3.65l0.389,2.403c0.023,0.121,0.121,0.214,0.244,0.227
			c0.125,0.011,0.239-0.056,0.288-0.169L8.863,6.78l0.466,1.361C9.364,8.247,9.458,8.32,9.568,8.33
			c0.111,0.006,0.216-0.049,0.27-0.147l0.622-1.176h1.193V6.451H10.291z"/>
	</g>
	<g id="Extreme" display="none">
		<path id="rebelion" display="inline" fill="#FFFFFF" d="M9.291,4.266c0,0.671-0.543,1.212-1.212,1.212
			c-0.672,0-1.214-0.543-1.214-1.212c0-0.671,0.542-1.213,1.214-1.213C8.747,3.053,9.291,3.595,9.291,4.266z M6.052,9.413h0.742
			h0.04l0.028-0.057l0.269-0.264L6.883,9.038L6.489,8.954L6.052,9.413z M11.128,4.492l-0.26,0.26l0.019,0.018l-0.21,0.213
			c0.028,0.026,0.054,0.051,0.078,0.082l0.211-0.212l0.044,0.04l0.256-0.262L11.128,4.492z M9.453,5.837l-0.111,0.11l0.011,0.032
			l0.026,0.06L7.611,7.813l0.19,0.041C7.976,7.89,8.126,7.995,8.224,8.146c0.013,0.021,0.017,0.047,0.029,0.07L8.259,8.21
			l0.131,0.086l0.047-0.01L8.952,8.66l0.347-0.475l-0.768-0.6l0.017-0.05h0.128L9.43,6.651l0.084-0.793L9.453,5.837z M10.275,5.053
			c-0.229-0.025-0.452,0.146-0.479,0.383L9.767,5.695l0,0L9.749,5.882L9.665,6.676L9.656,6.75L9.609,6.807L8.934,7.598l0.509,0.399
			l0.183,0.143L9.518,8.286L9.546,8.34c0.07,0.152,0.224,0.247,0.391,0.247c0.024,0,0.048-0.001,0.071-0.006
			c0.192-0.033,0.337-0.188,0.358-0.379l0.289-2.669C10.684,5.292,10.512,5.077,10.275,5.053z M9.392,8.461l-0.249,0.34L9.002,8.997
			L8.808,8.855L8.381,8.546l-0.037,0.01l-0.016-0.01c0,0.037-0.002,0.071-0.01,0.109C8.31,8.69,8.297,8.723,8.284,8.756
			C8.256,8.819,8.223,8.874,8.18,8.925l0.031,0.068c0.03,0.068,0.071,0.156,0.12,0.233l0.12,0.186h0.911L9.392,8.461z M7.658,9.188
			c-0.01,0-0.021-0.003-0.03-0.004c-0.005,0.02-0.009,0.034-0.009,0.034l0.103,0.194h0.247l0.16-0.056
			C8.074,9.271,8.031,9.18,7.99,9.089C7.891,9.146,7.78,9.188,7.658,9.188z M8.015,8.27C7.997,8.242,7.969,8.22,7.945,8.199
			C7.932,8.186,7.919,8.167,7.902,8.156C7.857,8.125,7.804,8.101,7.749,8.088L7.559,8.049L7.129,7.957l0,0L6.747,7.875L6.598,7.844
			L6.353,7.791L6.337,7.787l0.039-0.04l0.166-0.163l0.176-0.179C6.732,7.528,6.74,7.625,6.74,7.626l0.057,0.012l0.536,0.114
			l0.109-0.11L9.097,5.98L9.059,5.889l0.015-0.011c-0.24-0.073-0.522-0.113-0.879-0.113H8.079c0,0-0.115,0-0.116,0
			c-0.25,0-0.504,0.018-0.75,0.071C6.79,5.931,6.528,6.347,6.237,6.632c-0.299,0.294-0.59,0.601-0.882,0.903
			C5.291,7.604,5.226,7.673,5.159,7.74C5.048,7.852,5.007,8.017,5.051,8.17C5.095,8.322,5.22,8.437,5.377,8.472l0.573,0.123
			l0.242,0.05l1.376,0.293c0.03,0.005,0.061,0.01,0.092,0.01c0.199,0,0.379-0.14,0.421-0.343c0.017-0.08,0.004-0.155-0.019-0.228
			L8.035,8.323C8.028,8.308,8.022,8.29,8.015,8.27z M7.407,9.329L7.365,9.251l0.021-0.087L7.39,9.147L7.325,9.132L7.081,9.411H7.45
			L7.407,9.329z"/>
	</g>
	<path id="displaced" display="none" fill="#FFFFFF" d="M8.57,3.219c0.06,0.375-0.193,0.726-0.564,0.786
		C7.634,4.067,7.28,3.814,7.219,3.442C7.158,3.068,7.408,2.715,7.783,2.654C8.155,2.594,8.508,2.847,8.57,3.219z M8.356,5.935
		l0.605,0.967c0.087,0.137,0.264,0.18,0.403,0.1c0.139-0.083,0.188-0.26,0.111-0.401L9.321,6.322
		C9.186,6.085,9.055,5.845,8.922,5.607l-0.268-0.49C8.622,5.06,8.593,4.996,8.561,4.929C8.396,4.58,8.136,4.041,7.567,4.09
		C7.08,4.132,6.585,4.364,6.098,4.777C5.522,5.232,5.12,5.892,5.105,5.919c-0.02,0.028-0.038,0.059-0.051,0.086
		C5.052,6.007,5.052,6.008,5.051,6.008l0,0C4.996,6.11,4.969,6.204,5.037,6.322c0.053,0.093,0.153,0.15,0.258,0.15
		c0.13,0,0.196-0.062,0.261-0.153l0,0c0,0,0-0.002,0-0.002c0.018-0.026,0.036-0.055,0.055-0.086
		c0.003-0.005,0.341-0.548,0.865-0.994C6.638,5.11,6.792,5.023,6.935,4.977L6.819,6.385c-0.012,0.14-0.054,0.38-0.093,0.514
		L6.464,7.819C6.428,7.934,6.331,8.126,6.254,8.22L5.545,9.099C5.456,9.21,5.355,9.335,5.438,9.511
		C5.489,9.614,5.592,9.68,5.707,9.68c0.137,0,0.211-0.078,0.303-0.179l0.717-0.773C6.856,8.589,7.022,8.35,7.104,8.181l0.356-0.724
		l1.315,2.21c0.063,0.109,0.146,0.246,0.323,0.246l0,0c0.104,0,0.196-0.053,0.25-0.137c0.095-0.147,0.032-0.28-0.021-0.399
		l-1.065-2.31C8.221,6.975,8.198,6.791,8.214,6.692L8.356,5.935z M9.47,8.338h1.594v0.473l1.583-0.914l-1.583-0.915v0.473H9.47
		V8.338z"/>
	<path id="epidemie" display="none" fill="#FFFFFF" d="M11.286,6.529c0-1.716-1.345-3.113-3.039-3.2
		C8.995,3.4,9.578,3.943,9.578,4.604c0,0.227-0.074,0.437-0.195,0.621C9.048,4.892,8.589,4.687,8.08,4.687
		c-0.507,0-0.967,0.205-1.3,0.537C6.661,5.039,6.586,4.83,6.586,4.602c0-0.659,0.582-1.203,1.33-1.275
		C6.222,3.415,4.878,4.813,4.878,6.529c0,0.518,0.125,1.006,0.342,1.439C4.923,7.29,5.103,6.528,5.668,6.202
		C5.865,6.088,6.085,6.047,6.305,6.06c-0.042,0.151-0.07,0.308-0.07,0.473c0,0.853,0.583,1.564,1.369,1.776
		C7.594,8.328,7.579,8.345,7.57,8.362c0,0.002,0,0.002,0,0.005C7.543,8.426,7.51,8.473,7.471,8.513
		C7.387,8.624,7.289,8.722,7.164,8.794C6.597,9.122,5.841,8.895,5.405,8.29c0.574,0.872,1.559,1.447,2.678,1.447
		c1.109,0,2.086-0.563,2.662-1.421c-0.438,0.585-1.18,0.8-1.739,0.479C8.806,8.68,8.661,8.507,8.562,8.308
		c0.786-0.212,1.365-0.924,1.365-1.775c0-0.165-0.027-0.321-0.069-0.473c0.223-0.014,0.442,0.027,0.642,0.141
		c0.548,0.316,0.735,1.043,0.473,1.707C11.173,7.489,11.286,7.022,11.286,6.529z M8.422,7.763C8.408,7.496,8.464,7.216,8.597,6.951
		L8.384,6.828C8.307,6.907,8.2,6.956,8.08,6.956c-0.117,0-0.227-0.048-0.303-0.127l-0.209,0.12c0.133,0.267,0.191,0.55,0.175,0.816
		C7.201,7.615,6.798,7.122,6.798,6.532c0-0.113,0.018-0.219,0.046-0.323c0.237,0.12,0.453,0.306,0.617,0.553l0.214-0.124
		c-0.01-0.037-0.023-0.071-0.023-0.11c0-0.197,0.136-0.358,0.321-0.406V5.878C7.676,5.858,7.406,5.766,7.182,5.62
		C7.414,5.392,7.73,5.251,8.079,5.251c0.351,0,0.667,0.142,0.898,0.37C8.755,5.768,8.485,5.859,8.189,5.878v0.245
		c0.183,0.048,0.319,0.208,0.319,0.406c0,0.04-0.012,0.074-0.02,0.111l0.216,0.126C8.867,6.52,9.081,6.333,9.316,6.214
		c0.027,0.102,0.046,0.208,0.046,0.319C9.363,7.12,8.962,7.613,8.422,7.763z"/>
	<path id="enlevement" display="none" fill="#FFFFFF" d="M10.754,2.697c-0.199,0-0.361,0.163-0.361,0.362v1.473
		c0.087,0.019,0.17,0.055,0.238,0.122c0.189,0.188,0.195,0.496,0.009,0.688L9.955,6.046L9.861,5.954l0.686-0.703
		c0.139-0.142,0.133-0.368-0.007-0.507c-0.045-0.042-0.096-0.07-0.151-0.085c-0.061-0.017-0.121-0.018-0.181-0.005
		c-0.066,0.018-0.125,0.051-0.173,0.101C9.629,5.171,9.22,5.589,8.814,6.005C8.713,6.11,8.526,6.35,8.531,6.587
		c0.005,0.224-0.003,0.455,0.001,0.681C8.479,7.226,8.415,7.194,8.343,7.18C8.133,7.146,7.944,7.271,7.871,7.458H7.764
		c0-0.051,0-0.103,0-0.154C7.77,7.069,7.76,6.825,7.767,6.589C7.773,6.35,7.586,6.11,7.484,6.005
		C7.077,5.589,6.671,5.171,6.262,4.753c-0.047-0.049-0.106-0.083-0.172-0.1c-0.06-0.012-0.121-0.011-0.18,0.005
		C5.855,4.675,5.802,4.704,5.758,4.747C5.619,4.885,5.615,5.111,5.752,5.253l0.687,0.701L6.344,6.046L5.661,5.342
		c-0.188-0.192-0.184-0.5,0.008-0.688C5.738,4.59,5.82,4.552,5.907,4.532V3.061c0-0.199-0.163-0.362-0.361-0.362
		c-0.2,0-0.362,0.163-0.362,0.362V5.61c0,0.083,0.034,0.159,0.083,0.221l1.231,1.626h-0.11c-0.239,0-0.436,0.195-0.436,0.436
		c0,0.16,0.091,0.293,0.219,0.369C6.043,8.338,5.953,8.473,5.953,8.63c0,0.241,0.196,0.437,0.436,0.437h0.133V9.31h1.208
		c0.064,0.062,0.137,0.108,0.227,0.124C7.983,9.438,8.005,9.439,8.03,9.439c0.213,0,0.394-0.151,0.428-0.362l0.001-0.01h0.078
		c0.001,0.08,0,0.159,0.01,0.243h1.23V9.066h0.133c0.239,0,0.437-0.194,0.437-0.437c0-0.158-0.09-0.292-0.22-0.368
		c0.13-0.075,0.22-0.209,0.22-0.37c0-0.241-0.196-0.436-0.437-0.436H9.801l1.231-1.627c0.05-0.061,0.084-0.138,0.084-0.221V3.06
		C11.116,2.859,10.954,2.697,10.754,2.697z M6.173,7.892c0-0.12,0.097-0.217,0.216-0.217h1.427L7.741,8.11H6.389
		C6.27,8.108,6.173,8.013,6.173,7.892z M6.173,8.63c0-0.12,0.097-0.218,0.216-0.218h1.299L7.614,8.848H6.39
		C6.27,8.848,6.173,8.752,6.173,8.63z M8.243,9.04C8.224,9.159,8.1,9.237,7.992,9.219c-0.057-0.01-0.107-0.042-0.14-0.089
		C7.818,9.083,7.804,9.025,7.815,8.968l0.241-1.395c0.018-0.106,0.109-0.181,0.217-0.181c0.01,0,0.023,0,0.034,0.002
		c0.117,0.02,0.197,0.133,0.177,0.251L8.243,9.04z M10.128,8.63c0,0.12-0.099,0.217-0.217,0.217H8.498l0.075-0.436H9.91
		C10.029,8.413,10.128,8.51,10.128,8.63z M10.128,7.892c0,0.12-0.099,0.217-0.217,0.217H8.626l0.072-0.426
		c0.001-0.003,0-0.006,0-0.009h1.211C10.029,7.674,10.128,7.773,10.128,7.892z"/>
	<path id="eruption" display="none" fill="#FFFFFF" d="M8.729,4.817C9.163,4.966,9.74,5.141,9.862,4.44
		c0.097-0.545,0.825-0.343,1.134-0.378c0.563-0.064,0.138-1.12-0.567-1.134C9.716,2.911,9.391,3.225,9.108,3.872
		C8.971,4.185,8.855,4.419,8.351,4.251C7.846,4.083,7.477,4.498,7.783,5.007c0.273,0.451-0.004,0.945-0.004,0.945H8.54
		c0,0-0.006-0.281-0.188-0.568C8.137,5.051,8.283,4.665,8.729,4.817z M4.699,9.521c1.957-1.425,2.445-3.396,2.445-3.396h2.011
		c0,0,0.489,1.971,2.445,3.396H4.699z"/>
	<path id="returned" display="none" fill="#FFFFFF" d="M7.947,3.551c0.05,0.309-0.16,0.599-0.466,0.65
		C7.173,4.252,6.883,4.042,6.832,3.735c-0.05-0.309,0.157-0.598,0.466-0.649C7.604,3.034,7.898,3.242,7.947,3.551z M7.77,5.792
		l0.5,0.8c0.07,0.112,0.218,0.148,0.333,0.081c0.112-0.069,0.152-0.214,0.09-0.331L8.567,6.113C8.456,5.917,8.349,5.719,8.24,5.522
		L8.016,5.117C7.99,5.072,7.965,5.019,7.938,4.963C7.801,4.674,7.586,4.229,7.117,4.271c-0.404,0.035-0.81,0.226-1.212,0.566
		C5.43,5.211,5.097,5.758,5.083,5.78C5.068,5.804,5.053,5.828,5.041,5.852C5.04,5.853,5.039,5.853,5.039,5.854l0,0
		C4.994,5.938,4.973,6.015,5.028,6.113c0.044,0.077,0.125,0.125,0.215,0.125c0.107,0,0.161-0.05,0.214-0.127l0,0
		c0.001,0,0.001,0,0.001,0c0.015-0.023,0.03-0.048,0.045-0.073c0.003-0.005,0.282-0.452,0.713-0.82
		C6.35,5.114,6.476,5.041,6.595,5.001L6.501,6.166C6.49,6.281,6.453,6.479,6.421,6.591L6.207,7.35
		c-0.03,0.095-0.111,0.254-0.173,0.332L5.449,8.406C5.374,8.499,5.29,8.602,5.359,8.747C5.4,8.831,5.487,8.886,5.58,8.886
		c0.113,0,0.173-0.064,0.253-0.148L6.425,8.1c0.106-0.114,0.243-0.312,0.31-0.452l0.294-0.596l1.086,1.825
		c0.053,0.09,0.122,0.201,0.269,0.201l0,0c0.084,0,0.162-0.042,0.208-0.114C8.67,8.843,8.617,8.735,8.573,8.637L7.694,6.728
		C7.66,6.654,7.641,6.501,7.654,6.419L7.77,5.792z M11.426,6.199c0-0.797-0.646-1.443-1.442-1.443H9.37v0.729h0.612
		c0.394,0,0.713,0.32,0.713,0.715c0,0.395-0.319,0.714-0.713,0.714H9.855V6.522L8.547,7.277l1.308,0.755V7.64h0.143v0
		C10.786,7.632,11.426,6.989,11.426,6.199z"/>
	<path id="Attack" display="none" fill="#FFFFFF" d="M9.832,6.719l2.148-1.375L9.905,5.123l0.563-2.412L8.997,4.232l-0.41-1.719
		L7.968,4.118L6.287,1.95l0.527,2.715L5.32,4.334c0,0,0.455,0.87,0.708,1.393l-2.4-0.167L5.8,6.828L5.177,7.47l1.01-0.185
		l-0.715,2.53l2.126-1.778l0.551,1.375l0.566-1.1l1.833,1.894L9.632,7.672l2.01,0.203L9.832,6.719z"/>
	<path id="Election" display="none" fill="#FFFFFF" d="M25.41,6.87l-4.713-2.019c-0.141-0.06-0.301-0.018-0.391,0.101l-1.351,1.683
		c-0.059,0.076-0.082,0.182-0.064,0.281c0.021,0.094,0.083,0.171,0.166,0.217l-4.221,1.582c-0.357,0.133-0.655,0.383-0.851,0.709
		L12.59,11.75c-0.296,0.496-0.322,1.1-0.062,1.616l0.101,0.198h-1.475c-0.187,0-0.337,0.151-0.337,0.338v6.387h-1.01
		c-0.185,0-0.333,0.149-0.333,0.335s0.148,0.336,0.333,0.336H21.24c0.186,0,0.33-0.15,0.33-0.336s-0.145-0.335-0.33-0.335h-1.009
		v-3.438c0-0.113-0.065-0.224-0.157-0.283c-0.1-0.062-0.219-0.072-0.328-0.021c-0.368,0.174-0.639,0.261-0.769,0.301
		c-0.027,0.004-0.056,0.017-0.079,0.034l-2.188,1.313c-0.349,0.21-0.745,0.322-1.15,0.322c-0.746,0-1.44-0.372-1.867-1.001
		c-0.339-0.505-0.455-1.115-0.33-1.707c0.129-0.594,0.482-1.102,0.987-1.426l0.32-0.202c0.234-0.142,0.436-0.273,0.626-0.386
		c0.13-0.082,0.188-0.238,0.145-0.383c-0.083-0.27-0.224-0.509-0.351-0.694c0.51-0.225,1.205-0.627,1.555-1.031
		c0,0,0.004,0.002,0.007,0.002c0.07,0.045,0.157,0.091,0.256,0.139c0.009,0.002,0.01,0.003,0.02,0.006l0,0
		c0.248,0.121,0.568,0.241,0.931,0.314c-0.391,0.484-0.789,1.088-0.934,1.491c-0.279,0.124-0.858,0.453-2.207,1.312
		c-0.361,0.228-0.605,0.58-0.687,0.995c-0.092,0.416-0.011,0.841,0.229,1.195c0.299,0.451,0.792,0.701,1.302,0.701
		c0.275,0,0.554-0.075,0.802-0.224l2.311-1.387c0.36-0.087,2.155-0.627,3.521-2.827c1.065-1.725,1.667-3.116,1.913-3.745
		l0.043,0.021c0.139,0.069,0.291,0.106,0.449,0.106c0.255,0,0.513-0.103,0.697-0.283c0.201-0.188,0.309-0.45,0.309-0.724V7.178
		C25.61,7.044,25.531,6.921,25.41,6.87z"/>
	<g id="affected" display="none">
		<path display="inline" fill="#FFFFFF" d="M6.436,3.366c0,0.312-0.253,0.563-0.564,0.563S5.307,3.677,5.307,3.366
			c0-0.311,0.253-0.562,0.564-0.562C6.184,2.804,6.436,3.054,6.436,3.366z M5.93,7.226l0.123,2.081c0,0.073,0.059,0.132,0.131,0.132
			c0.073,0,0.132-0.06,0.132-0.132l0.112-2.079h0.368L6.418,4.893l0.765,1.524c0.029,0.068,0.106,0.1,0.173,0.072
			C7.425,6.46,7.456,6.384,7.427,6.316c0,0-0.561-1.518-0.702-1.8C6.587,4.233,6.45,4.061,5.924,4.061H5.817
			c-0.525,0-0.664,0.171-0.801,0.455c-0.138,0.283-0.7,1.8-0.7,1.8C4.287,6.385,4.319,6.461,4.386,6.49
			c0.069,0.029,0.145-0.004,0.173-0.071l0.765-1.524l-0.38,2.332h0.368l0.115,2.079c0,0.074,0.059,0.132,0.13,0.132
			c0.074,0,0.133-0.06,0.133-0.132l0.113-2.079H5.93L5.93,7.226z M10.427,2.8c-0.312,0-0.565,0.253-0.565,0.563
			c0,0.312,0.251,0.565,0.565,0.565c0.31,0,0.563-0.253,0.563-0.565C10.991,3.053,10.737,2.8,10.427,2.8z M11.01,6.119l0.037-1.226
			l0.69,1.525c0.028,0.068,0.107,0.1,0.173,0.071c0.07-0.029,0.101-0.106,0.073-0.174c0,0-0.486-1.517-0.625-1.799
			c-0.137-0.283-0.353-0.455-0.878-0.455h-0.109c-0.526,0-0.74,0.171-0.877,0.455C9.356,4.797,8.87,6.314,8.87,6.314
			C8.84,6.383,8.872,6.459,8.94,6.489c0.067,0.029,0.148-0.003,0.173-0.071l0.69-1.525l0.036,1.226l-0.11,3.083
			C9.724,9.323,9.816,9.428,9.937,9.437c0.006,0.001,0.012,0.001,0.016,0.001c0.113,0,0.214-0.089,0.221-0.206l0.25-2.538
			l0.251,2.538c0.008,0.117,0.104,0.206,0.22,0.206c0.005,0,0.011,0,0.015-0.001c0.124-0.009,0.214-0.114,0.208-0.236L11.01,6.119
			L11.01,6.119z M8.15,6.229c-0.193,0-0.348,0.154-0.348,0.345S7.956,6.918,8.15,6.918c0.188,0,0.344-0.154,0.344-0.345
			S8.339,6.229,8.15,6.229z M8.15,8.265c0,0,0.154,1.081,0.154,1.082c0.02,0.055,0.071,0.092,0.132,0.092
			c0.061,0,0.113-0.042,0.132-0.097c0-0.004,0.005-0.067,0-0.079L8.505,7.934l0.022-0.457c0.017-0.155,0.019-0.108,0.195-0.214
			C8.904,7.153,9.21,6.678,9.224,6.656C9.24,6.632,9.269,6.59,9.274,6.563c0.009-0.047-0.024-0.091-0.07-0.102
			c-0.036-0.006-0.066,0.013-0.09,0.038C9.09,6.526,8.737,6.996,8.473,7.04C8.413,7.031,8.349,7,8.179,7H8.116
			C7.948,7,7.884,7.031,7.823,7.04C7.559,6.996,7.206,6.525,7.182,6.499C7.159,6.475,7.131,6.456,7.093,6.461
			c-0.046,0.01-0.079,0.055-0.069,0.102C7.028,6.59,7.055,6.631,7.071,6.656c0.016,0.023,0.321,0.498,0.502,0.606
			C7.747,7.368,7.755,7.321,7.77,7.477l0.021,0.457l-0.063,1.33c-0.003,0.011,0,0.075,0.003,0.078
			c0.017,0.056,0.07,0.097,0.132,0.097c0.062,0,0.112-0.037,0.13-0.091C7.993,9.346,8.15,8.265,8.15,8.265"/>
	</g>
	<g id="Floods" display="none">
		<path display="inline" fill="#FFFFFF" d="M47.892,47.465H26.676v-2.12c0.338-0.068,1.383-0.691,2.121-2.122
			c0.969-1.88,2.121-0.529,2.121-0.529c-0.915,0.079-0.693,1.085-0.528,1.59c0.195,0.603,0.724,0.98,1.06,1.062h0.53
			c0.339-0.068,0.854-0.69,1.591-2.122c0.971-1.879,2.122-0.529,2.122-0.529c-0.915,0.079-0.695,1.085-0.529,1.59
			c0.196,0.605,0.724,0.98,1.061,1.062h0.529c0.339-0.068,0.854-0.69,1.593-2.122c0.97-1.879,2.121-0.529,2.121-0.529
			c-0.913,0.079-0.697,1.085-0.531,1.59c0.199,0.605,0.725,0.98,1.062,1.062h0.53c0.337-0.068,1.389-0.69,2.122-2.121
			c0.972-1.88,2.121-0.53,2.121-0.53c-0.914,0.079-0.696,1.085-0.529,1.59c0.195,0.605,0.725,0.98,1.059,1.062h1.592V47.465
			L47.892,47.465z M44.71,38.979v-5.835l0.531,0.529l0.529-0.529l-5.04-4.244l-5.038,4.244l0.531,0.529l0.529-0.529v5.835h-0.529
			c-0.337-0.082-0.864-0.457-1.061-1.062c-0.165-0.506-0.386-1.512,0.529-1.591c0,0-1.151-1.348-2.122,0.528
			c-0.737,1.434-1.252,2.057-1.591,2.124h-0.53c-0.336-0.082-0.864-0.457-1.06-1.062c-0.165-0.506-0.387-1.512,0.528-1.591
			c0,0-1.152-1.349-2.121,0.528c-0.738,1.434-1.783,2.054-2.121,2.124v3.183c0.338-0.068,1.383-0.69,2.121-2.123
			c0.969-1.878,2.121-0.529,2.121-0.529c-0.915,0.079-0.693,1.085-0.528,1.591c0.195,0.605,0.724,0.979,1.06,1.062h0.53
			c0.339-0.068,0.854-0.69,1.591-2.123c0.971-1.877,2.122-0.529,2.122-0.529c-0.915,0.079-0.695,1.085-0.529,1.592
			c0.196,0.604,0.724,0.979,1.061,1.061h0.529c0.339-0.067,0.854-0.69,1.593-2.121c0.97-1.879,2.121-0.531,2.121-0.531
			c-0.913,0.079-0.697,1.085-0.531,1.592c0.199,0.604,0.725,0.979,1.062,1.061h0.53c0.337-0.067,1.389-0.69,2.122-2.121
			c0.972-1.879,2.121-0.531,2.121-0.531c-0.914,0.079-0.696,1.085-0.529,1.592c0.195,0.604,0.725,0.979,1.059,1.061h1.592v-3.183
			H44.71z M28.017,31.759h3.569v1.06l3.55-2.049l-3.55-2.049v1.061h-3.569V31.759z"/>
	</g>
	<g id="foodsec" display="none">
		<path display="inline" fill="#FFFFFF" d="M10.894,11.796L10.894,11.796c-0.025,0.689-0.259,1.436-0.623,2.125
			c0,0-0.858,1.742-3.56,1.742c-2.705,0-3.579-1.727-3.579-1.727c-0.362-0.694-0.58-1.438-0.609-2.143h0.002
			c0-0.018-0.002-0.036-0.002-0.054c0-0.332,0.207-0.642,0.558-0.908l0.377,0.24c-0.233,0.156-0.368,0.331-0.368,0.516
			c0,0.654,1.621,1.183,3.623,1.183c1.996,0,3.615-0.529,3.615-1.183c0-0.45-0.775-0.844-1.918-1.042l0.006-0.476
			c1.459,0.287,2.479,0.925,2.479,1.67C10.896,11.758,10.895,11.777,10.894,11.796z M3.915,8.985
			C3.902,9.095,3.883,9.273,4.02,9.514c0.169,0.291,0.386,0.394,0.456,0.444C4.463,9.882,4.484,9.656,4.325,9.382
			C4.189,9.138,4.04,9.028,3.95,8.943c-0.248-0.36-0.531-0.65-0.746-0.877L2.691,7.534c0,0,0.185,0.212,0.491,0.549
			C3.393,8.32,3.67,8.619,3.915,8.985z M5.198,11.799c0.109,0.103,0.248,0.271,0.555,0.442c0.345,0.193,0.636,0.193,0.734,0.215
			c-0.055-0.089-0.166-0.374-0.546-0.586c-0.314-0.172-0.546-0.139-0.689-0.115c-0.472-0.274-0.877-0.556-1.204-0.756
			c-0.465-0.287-0.767-0.434-0.766-0.434c-0.001,0,0.291,0.161,0.748,0.463C4.344,11.238,4.732,11.521,5.198,11.799z M5.474,10.298
			c-0.04,0.127-0.092,0.333,0.03,0.635c0.142,0.37,0.382,0.524,0.455,0.592c0.004-0.09,0.067-0.346-0.068-0.692
			c-0.121-0.309-0.278-0.463-0.368-0.577C5.29,9.795,5.005,9.411,4.786,9.112L4.263,8.407l0.494,0.719
			C4.97,9.435,5.249,9.831,5.474,10.298z M4.595,11.048c0.104,0.095,0.239,0.25,0.529,0.403c0.326,0.171,0.597,0.164,0.687,0.182
			c-0.055-0.08-0.166-0.342-0.523-0.53c-0.295-0.154-0.511-0.12-0.645-0.096c-0.444-0.247-0.824-0.502-1.131-0.685
			C3.073,10.06,2.789,9.928,2.791,9.927c-0.002,0.002,0.276,0.148,0.704,0.423C3.79,10.538,4.159,10.799,4.595,11.048z M3.97,10.31
			c0.097,0.085,0.222,0.228,0.494,0.363c0.305,0.153,0.556,0.143,0.64,0.157c-0.052-0.075-0.161-0.313-0.494-0.48
			c-0.273-0.138-0.473-0.103-0.597-0.079C3.599,10.048,3.243,9.818,2.956,9.65C2.547,9.413,2.282,9.292,2.283,9.292
			c0,0.001,0.257,0.134,0.658,0.383C3.216,9.849,3.562,10.085,3.97,10.31z M3.332,9.233c0.182,0.163,0.355,0.173,0.455,0.205
			c-0.021-0.08-0.003-0.278-0.212-0.462C3.398,8.823,3.216,8.81,3.125,8.802C2.39,8.173,1.738,7.769,1.587,7.672L1.555,7.65
			C1.549,7.655,2.268,8.128,3.108,8.866C3.135,8.956,3.184,9.107,3.332,9.233z M3.319,9.581C3.409,9.658,3.527,9.786,3.78,9.908
			c0.279,0.139,0.512,0.125,0.59,0.138C4.321,9.979,4.218,9.765,3.91,9.613C3.654,9.492,3.471,9.521,3.358,9.544
			C2.974,9.346,2.646,9.133,2.379,8.983C2,8.767,1.754,8.659,1.754,8.659s0.241,0.119,0.608,0.348
			C2.62,9.161,2.94,9.376,3.319,9.581z M4.716,9.62c-0.027,0.119-0.061,0.313,0.067,0.583c0.159,0.332,0.389,0.458,0.463,0.519
			c-0.006-0.082,0.032-0.323-0.114-0.636C4.999,9.809,4.846,9.677,4.758,9.579C4.514,9.167,4.231,8.83,4.011,8.567L3.49,7.949
			l0.496,0.634C4.2,8.856,4.478,9.204,4.716,9.62z M7.604,10.328c-0.081,0.081-0.212,0.216-0.251,0.497
			c-0.051,0.34,0.062,0.556,0.086,0.639c0.041-0.068,0.201-0.238,0.248-0.558c0.043-0.288-0.007-0.468-0.026-0.59
			c0.025-0.448-0.027-0.861-0.066-1.179C7.539,8.671,7.499,8.383,7.499,8.383l0.069,0.753C7.595,9.46,7.635,9.877,7.604,10.328z
			 M7.34,9.563c-0.073,0.081-0.182,0.214-0.203,0.475c-0.026,0.319,0.091,0.512,0.122,0.588c0.029-0.066,0.169-0.234,0.194-0.534
			c0.019-0.267-0.039-0.432-0.064-0.546C7.385,9.133,7.316,8.755,7.262,8.463L7.135,7.774l0.103,0.691
			C7.281,8.765,7.341,9.145,7.34,9.563z M7.032,8.814c-0.062,0.08-0.153,0.21-0.155,0.451C6.871,9.561,6.993,9.73,7.026,9.798
			C7.049,9.734,7.164,9.57,7.171,9.295c0.002-0.25-0.063-0.394-0.091-0.497C7.047,8.417,6.964,8.075,6.898,7.811L6.741,7.184
			l0.133,0.629C6.928,8.083,7.007,8.431,7.032,8.814z M7.574,12.311c0.048-0.069,0.23-0.239,0.309-0.58
			c0.067-0.303,0.022-0.502,0.012-0.636c0.054-0.481,0.026-0.928,0.006-1.271c-0.034-0.501-0.06-0.814-0.06-0.814l0.024,0.813
			c0.014,0.349,0.032,0.8-0.031,1.28c-0.095,0.083-0.24,0.218-0.306,0.516C7.449,11.98,7.553,12.219,7.574,12.311z M6.04,8.323
			c0.038,0.085,0.074,0.221,0.215,0.393c0.153,0.197,0.325,0.26,0.379,0.296C6.62,8.946,6.621,8.756,6.452,8.542
			C6.311,8.367,6.17,8.329,6.08,8.31C5.875,8.035,5.711,7.773,5.571,7.575C5.375,7.289,5.235,7.131,5.236,7.128
			C5.235,7.131,5.367,7.295,5.552,7.585C5.682,7.784,5.835,8.049,6.04,8.323z M6.17,8.072c0.076,0.18,0.197,0.245,0.257,0.3
			c0.012-0.064,0.095-0.204,0.011-0.408c-0.073-0.171-0.203-0.24-0.267-0.275C5.865,6.981,5.537,6.47,5.463,6.349L5.448,6.322
			C5.441,6.325,5.791,6.91,6.137,7.729C6.126,7.804,6.108,7.931,6.17,8.072z M6.478,9.504c0.164,0.213,0.352,0.289,0.408,0.328
			C6.877,9.759,6.882,9.55,6.701,9.315c-0.15-0.191-0.308-0.233-0.405-0.256c-0.222-0.3-0.397-0.588-0.544-0.805
			C5.54,7.944,5.395,7.77,5.395,7.768c0,0,0.138,0.184,0.337,0.499C5.87,8.484,6.034,8.771,6.25,9.074
			C6.292,9.168,6.332,9.313,6.478,9.504z M6.68,8.083C6.629,8.161,6.555,8.284,6.567,8.505c0.019,0.271,0.14,0.417,0.173,0.477
			c0.016-0.059,0.112-0.217,0.095-0.471C6.823,8.286,6.753,8.156,6.719,8.063C6.668,7.719,6.564,7.411,6.49,7.175L6.31,6.613
			c0,0,0.055,0.216,0.159,0.567C6.536,7.422,6.634,7.735,6.68,8.083z M6.441,9.823c0.043,0.104,0.083,0.261,0.239,0.469
			c0.174,0.232,0.37,0.318,0.433,0.363c-0.011-0.08,0-0.308-0.189-0.565C6.764,9.88,6.597,9.835,6.492,9.808
			C6.259,9.48,6.073,9.168,5.919,8.931c-0.226-0.338-0.384-0.529-0.384-0.53c0,0.001,0.147,0.201,0.36,0.543
			C6.04,9.183,6.214,9.494,6.441,9.823z M4.174,11.882c0,0.001,0.258,0.147,0.663,0.434c0.028,0.004,0.055,0.011,0.086,0.018
			C4.47,12.032,4.174,11.882,4.174,11.882z M7.399,12.447c-0.059-0.091-0.122-0.163-0.186-0.216
			c-0.022-0.058-0.042-0.112-0.066-0.161c0.134,0.141,0.263,0.209,0.311,0.248c0-0.004,0-0.013,0-0.022
			c0.016,0.053,0.03,0.109,0.048,0.167c0.025-0.001,0.054-0.003,0.077-0.004c-0.044-0.162-0.1-0.319-0.156-0.468
			c-0.021-0.081-0.053-0.167-0.106-0.262c-0.051-0.117-0.102-0.228-0.15-0.335c0.061,0.042,0.111,0.069,0.136,0.089
			c-0.006-0.085,0.014-0.331-0.187-0.612c-0.119-0.166-0.244-0.238-0.349-0.278L6.455,9.974c0,0,0.105,0.225,0.283,0.605
			c-0.03-0.008-0.053-0.016-0.074-0.021c-0.246-0.359-0.438-0.697-0.603-0.952c-0.233-0.366-0.4-0.574-0.399-0.574
			c0,0.001,0.155,0.214,0.377,0.587c0.152,0.257,0.333,0.595,0.57,0.954c0.041,0.109,0.083,0.281,0.243,0.508
			c0.076,0.106,0.155,0.183,0.23,0.243c0.025,0.061,0.055,0.126,0.084,0.194c-0.135-0.138-0.275-0.181-0.368-0.209
			c-0.028-0.041-0.052-0.083-0.076-0.123c-0.159-0.338-0.328-0.636-0.468-0.885C5.941,9.758,5.74,9.424,5.74,9.424l0.476,0.894
			c0.039,0.066,0.075,0.141,0.114,0.213c-0.051-0.089-0.102-0.173-0.148-0.251C5.94,9.887,5.765,9.665,5.765,9.664
			c0,0.001,0.161,0.232,0.391,0.633c0.136,0.237,0.292,0.538,0.485,0.864c0.087,0.19,0.168,0.392,0.24,0.605
			c-0.019,0.042-0.045,0.097-0.062,0.161c-0.215-0.368-0.39-0.708-0.546-0.971c-0.05-0.088-0.098-0.163-0.141-0.234
			c-0.196-0.404-0.421-0.751-0.603-1.03c-0.315-0.489-0.52-0.791-0.52-0.791l0.487,0.806c0.21,0.346,0.483,0.791,0.695,1.308
			c-0.047,0.134-0.124,0.352-0.014,0.685c0.129,0.406,0.375,0.589,0.448,0.67c0.008-0.089,0.081-0.337-0.008-0.686
			c0.057,0.104,0.115,0.212,0.179,0.325c-0.026,0.126-0.032,0.284,0.017,0.484c0.2-0.002,0.4-0.008,0.595-0.021
			C7.406,12.463,7.404,12.458,7.399,12.447z M4.553,11.693c-0.491-0.315-0.813-0.474-0.811-0.474c-0.001,0,0.31,0.174,0.79,0.504
			c0.28,0.192,0.619,0.445,1.009,0.706c0.05,0.006,0.097,0.009,0.146,0.015C5.249,12.167,4.865,11.893,4.553,11.693z M8.093,11.888
			c0.094-0.511,0.085-0.992,0.085-1.362L8.163,9.65c0,0-0.01,0.335-0.016,0.875c-0.01,0.376-0.018,0.859-0.117,1.37
			c-0.109,0.082-0.27,0.218-0.363,0.529c-0.003,0.011-0.005,0.02-0.009,0.03c0.142-0.014,0.279-0.03,0.415-0.048
			C8.117,12.174,8.095,12.006,8.093,11.888z"/>
	</g>
	<g id="flame">
		<path fill="#FFFFFF" d="M21.9,14.493c0-0.326,1.396-4.651-1.321-5.958c-3.133-1.507-4-2.709-3.973-4.636
			c-0.003,0.079-1.895,3.128-0.664,4.635c1.915,2.333,1.106,4.138,0,3.972c-1.855-0.277-1.631-2.7-1.322-3.31
			c-0.97-0.104-2.094,0.5-2.65,1.323c-1.67,2.482,1.95,4.856,0.664,6.621c-0.98,1.344-2.653-1.303-2.648-1.323
			c-1.988,10.375,12.447,10.638,13.241,1.986c0.236-2.595,2.572-4.006,2.646-3.972C23.385,12.682,21.9,14.575,21.9,14.493z
			 M17.268,21.774c-3.471,0.13-3.115-2.474-2.648-3.31c0.591-1.067,2.087-1.278,1.324-2.649c0.01,0.02,1.625,0.263,2.647,1.323
			C20.16,18.76,19.983,21.674,17.268,21.774z M19.254,5.885c-0.405-0.434-0.663-0.957-0.663-1.325c0-0.689,0.563-1.351,1.325-1.985
			c0.076,0.552-0.331,1.379,0,1.985c0.256,0.45,0.663,0.958,0.663,1.325c0,0.493-0.184,0.942-0.663,1.324
			C19.844,7.025,19.716,6.42,19.254,5.885z"/>
	</g>
	<g id="attacks_death" display="none">
		<path display="inline" fill="#FCFCFC" d="M43.481,48.209c0.056,0.488-0.291,0.934-0.782,0.989
			c-0.479,0.056-0.936-0.286-0.994-0.777l-0.473-3.917l-3.186-1.317l1.774,3.117c0.128,0.233,0.146,0.507,0.056,0.755l-1.874,4.853
			c-0.138,0.358-0.478,0.577-0.835,0.577c-0.106,0-0.214-0.019-0.318-0.059c-0.466-0.175-0.695-0.691-0.52-1.154l1.587-4.166
			l-2.22-2.964l-4.492-3.728l-3.003,0.772c-0.084,0.026-0.173,0.039-0.261,0.039c-0.207,0-0.415-0.073-0.58-0.211l-2.766-2.341
			c-0.378-0.32-0.423-0.887-0.105-1.263c0.319-0.38,0.885-0.424,1.26-0.105l2.396,2.028c0,0,3.154-0.574,4.285-1.314
			c1.128-0.74,3.757-2.108,3.757-2.108c0.261-0.249,0.651-0.315,0.979-0.172l3.829,1.704c0.449,0.196,0.652,0.728,0.454,1.178
			c-0.2,0.457-0.729,0.657-1.181,0.46l-3.281-1.461l-1.451,0.713l2.155,1.748l4.496,2.771c0.391,0.065,0.691,0.382,0.738,0.772
			L43.481,48.209z M33.144,36.148c0,1.105-0.894,2-1.991,2c-1.105,0-2.003-0.896-2.003-2c0-1.104,0.899-1.996,2.003-1.996
			C32.251,34.152,33.144,35.044,33.144,36.148z M34.53,35.065l-0.481-4.708l2.153,1.795l0.22-4.051l1.791,2.696l2.584-4.313
			l0.193,4.532l3.167-1.788l-1.646,3.958l3.79-0.989l-2.079,3.24l2.145,0.18l-3.616,3.026l1.64-2.287l-1.246-0.225l1.397-2.661
			l-2.838,0.36l0.71-2.717l-2.249,1.124l-0.143-2.926l-1.657,2.589l-1.352-1.785l-0.343,2.96l-2.116-1.482L34.53,35.065z"/>
	</g>
</g>
</svg>
