<?xml version="1.0" encoding="utf-8"?>
<!-- Generator: Adobe Illustrator 16.0.0, SVG Export Plug-In . SVG Version: 6.00 Build 0)  -->
<!DOCTYPE svg PUBLIC "-//W3C//DTD SVG 1.1//EN" "http://www.w3.org/Graphics/SVG/1.1/DTD/svg11.dtd">
<svg version="1.1" id="Groupe" xmlns="http://www.w3.org/2000/svg" xmlns:xlink="http://www.w3.org/1999/xlink" x="0px" y="0px"
	 width="15.871px" height="15.65px" viewBox="0 0 15.871 15.65" enable-background="new 0 0 15.871 15.65" xml:space="preserve">
<g id="PinColor_1_">
	<path id="vert" display="none" fill="#2ABF00" stroke="#1D7500" stroke-width="0.2" stroke-miterlimit="10" d="M15.376,7.876
		c0,3.4-2.437,6.251-5.719,7.007c-0.552,0.121-2.936,0.121-3.503-0.021c-3.25-0.771-5.66-3.605-5.66-6.989
		c0-3.968,3.334-7.196,7.44-7.196C12.039,0.677,15.376,3.905,15.376,7.876z"/>
	<path id="orange" display="none" fill="#FF8500" stroke="#7F4500" stroke-width="0.2" stroke-miterlimit="10" d="M15.376,7.876
		c0,3.4-2.437,6.251-5.719,7.007c-0.552,0.121-2.936,0.121-3.503-0.021c-3.25-0.771-5.66-3.605-5.66-6.989
		c0-3.968,3.334-7.196,7.44-7.196C12.039,0.677,15.376,3.905,15.376,7.876z"/>
	<path id="gris" display="none" fill="#A5A5A5" stroke="#595959" stroke-width="0.2" stroke-miterlimit="10" d="M15.376,7.876
		c0,3.4-2.437,6.251-5.719,7.007c-0.552,0.121-2.936,0.121-3.503-0.021c-3.25-0.771-5.66-3.605-5.66-6.989
		c0-3.968,3.334-7.196,7.44-7.196C12.039,0.677,15.376,3.905,15.376,7.876z"/>
	<path id="bleu" fill="#0092FF" stroke="#00477C" stroke-width="0.2" stroke-miterlimit="10" d="M15.376,7.876
		c0,3.4-2.437,6.251-5.719,7.007c-0.552,0.121-2.936,0.121-3.503-0.021c-3.25-0.771-5.66-3.605-5.66-6.989
		c0-3.968,3.334-7.196,7.44-7.196C12.039,0.677,15.376,3.905,15.376,7.876z"/>
</g>
<g id="IconsGroup">
	<g id="MinimalGroup" display="none">
		<path id="ElectionGroup" display="inline" fill="#565656" d="M4.571,1.668L3.667,1.281C3.642,1.27,3.608,1.277,3.592,1.3
			L3.333,1.623C3.321,1.635,3.317,1.658,3.321,1.677C3.325,1.697,3.337,1.71,3.354,1.718l-0.81,0.309
			C2.476,2.047,2.417,2.094,2.38,2.158L2.112,2.604C2.055,2.699,2.05,2.815,2.1,2.914l0.02,0.038H1.837
			c-0.036,0-0.064,0.029-0.064,0.064v1.225H1.579c-0.035,0-0.063,0.029-0.063,0.063c0,0.032,0.029,0.063,0.063,0.063H3.77
			c0.035,0,0.063-0.029,0.063-0.063c0-0.034-0.028-0.063-0.063-0.063H3.577V3.583c0-0.021-0.012-0.043-0.028-0.054
			C3.53,3.516,3.506,3.514,3.485,3.525c-0.07,0.033-0.124,0.05-0.147,0.058c-0.005,0-0.011,0.003-0.015,0.006L2.903,3.84
			C2.836,3.88,2.76,3.902,2.683,3.902c-0.145,0-0.275-0.071-0.357-0.192C2.26,3.613,2.237,3.497,2.262,3.383
			C2.286,3.269,2.354,3.172,2.45,3.109L2.512,3.07c0.045-0.026,0.085-0.051,0.12-0.073c0.025-0.015,0.035-0.046,0.027-0.074
			C2.644,2.871,2.618,2.825,2.592,2.79C2.69,2.748,2.823,2.671,2.891,2.593l0,0C2.905,2.601,2.922,2.611,2.94,2.62
			c0.002,0,0.002,0,0.004,0.001l0,0c0.047,0.023,0.107,0.047,0.178,0.063C3.047,2.775,2.971,2.89,2.942,2.967
			C2.892,2.991,2.78,3.052,2.521,3.218C2.452,3.26,2.405,3.33,2.389,3.41C2.372,3.489,2.387,3.57,2.433,3.638
			c0.059,0.087,0.152,0.135,0.25,0.135c0.053,0,0.105-0.019,0.154-0.043L3.28,3.464c0.068-0.017,0.413-0.12,0.674-0.542
			c0.205-0.331,0.32-0.597,0.367-0.718l0.008,0.004c0.027,0.012,0.059,0.021,0.086,0.021c0.052,0,0.102-0.021,0.137-0.059
			C4.589,2.137,4.61,2.088,4.61,2.035V1.727C4.608,1.701,4.595,1.677,4.571,1.668z"/>
	</g>
	<g id="FaibleGroup" display="none">
		<path id="FamineGroup" display="inline" fill="#F9F9F9" d="M3.901,3.938l-0.49,0.093L2.612,3.594l0.291-0.357l0.653,0.217
			L3.901,3.938z M4.653,3.088v0.059l-0.515,0.16L3.629,3.378L2.975,3.161L2.821,3.088h0.088C2.888,2.894,2.86,2.746,2.846,2.552l0,0
			C2.845,2.548,2.838,2.419,2.837,2.364c-0.01-0.06-0.038-0.082-0.129-0.146C2.657,2.188,2.62,2.177,2.601,2.177
			c-0.033,0-0.063,0.036-0.07,0.146c0.146,0.024,0.155,0.186,0.155,0.186C2.699,2.623,2.642,2.79,2.513,2.834
			c-0.238,0.079-0.215-0.381-0.08-0.492c0.004-0.133,0.041-0.255,0.168-0.26c0.051,0,0.102,0.021,0.16,0.062
			c0.027,0.018,0.051,0.03,0.07,0.053C2.829,2.15,2.827,2.105,2.827,2.058c0-0.101,0.015-0.201,0.101-0.276
			C2.972,1.74,3.021,1.718,3.072,1.718c0.127,0.011,0.205,0.117,0.252,0.229C3.377,1.924,3.444,1.913,3.52,1.94
			c0.197,0.063,0.305,0.411,0.223,0.526c-0.195,0.28-0.683-0.235-0.555-0.42c0,0,0.02-0.021,0.053-0.052
			c-0.039-0.1-0.114-0.188-0.17-0.183c-0.022,0-0.049,0.008-0.08,0.036c-0.054,0.05-0.069,0.116-0.069,0.207
			C2.922,2.12,2.93,2.19,2.93,2.26c0,0.037,0.002,0.069,0.003,0.104c0.01,0.063,0.01,0.109,0.01,0.176
			c0.014,0.192,0.09,0.354,0.112,0.548H4.653z M3.276,2.036l0.372,0.403c-0.066-0.286-0.3-0.445-0.3-0.445L3.276,2.036z M2.51,2.382
			L2.444,2.409c0,0-0.033,0.226,0,0.343L2.51,2.382z M2.179,3.741l0.294-0.177l0.306-0.379L2.684,3.088H2.007L1.872,3.358
			L2.179,3.741z M2.521,3.679l-0.52,0.354L2.069,4.12h1.199L3.265,4.104L2.521,3.679z M1.45,3.088v0.409l0.332-0.179l0.103-0.23
			H1.45z M3.726,3.465l0.323,0.474L4.653,4.08V3.54L4.218,3.4L3.726,3.465z M4.653,3.423V3.234l-0.34,0.091L4.653,3.423z
			 M1.792,3.45L1.45,3.612v0.509H1.7l0.373-0.305L1.792,3.45z M3.583,4.121h0.783l-0.373-0.09L3.583,4.121z"/>
		<path id="CycloneGroup" display="inline" fill="#FFFFFF" d="M3.063,1.987c-0.017,0-0.033-0.002-0.05-0.002
			c-0.147,0-0.284,0.038-0.403,0.104C2.823,1.36,3.358,1.295,3.358,1.295S2.176,1.395,2.176,2.774c0.001,0,0.001,0,0.002,0
			c0,0.016-0.001,0.031-0.001,0.049c0,0.146,0.038,0.285,0.104,0.405c-0.73-0.216-0.793-0.75-0.793-0.75s0.099,1.183,1.479,1.183
			c0-0.001,0-0.001,0-0.003c0.016,0.001,0.031,0.003,0.048,0.003c0.147,0,0.285-0.038,0.405-0.104
			C3.204,4.287,2.669,4.35,2.669,4.35S3.853,4.25,3.853,2.871c-0.002,0-0.002,0-0.002,0c0-0.017,0.002-0.033,0.002-0.049
			c0-0.147-0.037-0.285-0.104-0.405c0.729,0.214,0.795,0.75,0.795,0.75s-0.099-1.182-1.48-1.182
			C3.063,1.986,3.063,1.987,3.063,1.987z"/>
		<path id="tsunamiGroup" display="inline" fill="#FFFFFF" d="M4.501,3.796C2.065,3.934,2.747,2.073,3.377,2.233
			C3.312,2.273,3.271,2.41,3.31,2.501c0.044,0.104,0.188,0.155,0.27,0.135c0.194-0.05,0.203-0.32,0.134-0.47
			C3.64,2.017,3.446,1.831,3.108,1.831c-0.813,0-1.371,0.416-1.58,1.131v1.056h2.973V3.796z"/>
		<path id="earthquakeGroup" display="inline" fill="#FFFFFF" d="M3.88,2.915c-0.041,0-0.08,0.023-0.1,0.063L3.618,3.28L3.419,2.694
			C3.403,2.65,3.362,2.62,3.315,2.618c-0.049-0.001-0.09,0.026-0.107,0.07L3.071,3.012L2.854,1.715
			C2.844,1.661,2.792,1.62,2.741,1.623c-0.057,0.002-0.103,0.038-0.11,0.093L2.44,3.219L2.284,2.413
			c-0.008-0.047-0.047-0.084-0.096-0.09C2.141,2.317,2.094,2.342,2.071,2.385l-0.254,0.53H1.425V3.14H1.89
			c0.043,0,0.083-0.023,0.102-0.063l0.137-0.284l0.22,1.146c0.011,0.052,0.058,0.09,0.11,0.09c0.002,0,0.003,0,0.004,0
			c0.056-0.001,0.102-0.042,0.109-0.098L2.76,2.452l0.158,0.973C2.927,3.476,2.966,3.513,3.016,3.52
			c0.051,0.004,0.098-0.022,0.117-0.068L3.302,3.05L3.49,3.602C3.506,3.644,3.543,3.67,3.588,3.674
			c0.046,0.006,0.088-0.02,0.108-0.06l0.253-0.479h0.483V2.915H3.88z"/>
	</g>
	<g id="EleveGroup" display="none">
		<path id="attackGroup" display="inline" fill="#FFFFFF" d="M3.815,3.059l0.793-0.513l-0.767-0.08l0.209-0.89L3.507,2.141
			L3.354,1.505L3.127,2.097L2.505,1.297L2.7,2.301L2.147,2.177c0,0,0.168,0.321,0.262,0.519L1.522,2.631L2.325,3.1l-0.23,0.232
			l0.373-0.063L2.204,4.203l0.785-0.657l0.205,0.512L3.403,3.65l0.676,0.698L3.739,3.41l0.744,0.076L3.815,3.059z"/>
	</g>
	<g id="ExtremeGroup" display="none">
		<path id="rebelionGroup" display="inline" fill="#FFFFFF" d="M3.616,1.875c0,0.323-0.263,0.585-0.584,0.585
			c-0.324,0-0.586-0.262-0.586-0.585c0-0.324,0.262-0.585,0.586-0.585C3.354,1.29,3.616,1.551,3.616,1.875z M2.055,4.355h0.356h0.02
			l0.014-0.027l0.129-0.127L2.452,4.175l-0.188-0.04L2.055,4.355z M4.502,1.983L4.377,2.109l0.008,0.009L4.282,2.219
			C4.297,2.232,4.31,2.245,4.321,2.26l0.103-0.103l0.021,0.019L4.567,2.05L4.502,1.983z M3.694,2.632L3.64,2.686l0.006,0.015
			L3.659,2.73L2.806,3.585l0.091,0.021C2.982,3.624,3.054,3.67,3.102,3.747c0.007,0.01,0.009,0.022,0.013,0.033l0.002-0.003
			L3.18,3.818l0.022-0.005L3.45,3.994l0.168-0.229l-0.371-0.29l0.01-0.024H3.32l0.363-0.427l0.041-0.382L3.694,2.632z M4.091,2.254
			C3.979,2.242,3.872,2.325,3.86,2.439L3.845,2.564l0,0l-0.008,0.09L3.796,3.036L3.792,3.072L3.771,3.098L3.444,3.482L3.688,3.67
			l0.09,0.069L3.725,3.81l0.014,0.021c0.033,0.075,0.108,0.12,0.188,0.12c0.012,0,0.023,0,0.035-0.003
			c0.092-0.015,0.162-0.09,0.172-0.183L4.275,2.48C4.288,2.369,4.204,2.266,4.091,2.254z M3.665,3.898L3.546,4.062L3.478,4.155
			L3.383,4.087L3.177,3.938L3.159,3.942L3.151,3.938c0,0.018,0,0.034-0.005,0.052C3.143,4.007,3.137,4.023,3.13,4.039
			C3.118,4.069,3.1,4.094,3.081,4.12l0.015,0.033C3.11,4.186,3.13,4.228,3.153,4.266l0.059,0.089h0.439L3.665,3.898z M2.829,4.247
			c-0.004,0-0.01-0.001-0.016-0.001c0,0.008-0.002,0.014-0.002,0.014l0.05,0.099h0.118L3.056,4.33
			C3.03,4.288,3.009,4.244,2.989,4.199C2.94,4.227,2.888,4.247,2.829,4.247z M3.001,3.804C2.993,3.792,2.979,3.781,2.968,3.771
			C2.961,3.763,2.956,3.755,2.946,3.75c-0.02-0.015-0.047-0.024-0.074-0.033l-0.09-0.019L2.573,3.654l0,0l-0.185-0.04L2.317,3.6
			L2.2,3.574L2.192,3.573l0.02-0.021l0.08-0.076L2.377,3.39c0.007,0.06,0.01,0.104,0.01,0.104L2.415,3.5l0.258,0.059l0.053-0.057
			l0.798-0.801l-0.02-0.045L3.51,2.651C3.396,2.617,3.26,2.594,3.088,2.594H3.032H2.976c-0.121,0-0.242,0.013-0.361,0.035
			C2.409,2.677,2.282,2.878,2.144,3.014c-0.145,0.143-0.285,0.29-0.425,0.437C1.688,3.484,1.657,3.517,1.624,3.549
			C1.571,3.604,1.551,3.683,1.571,3.757C1.593,3.83,1.653,3.885,1.729,3.902l0.276,0.06l0.117,0.024l0.664,0.142
			C2.801,4.13,2.815,4.132,2.829,4.132c0.097,0,0.184-0.063,0.205-0.166c0.008-0.039,0.002-0.07-0.01-0.104L3.012,3.83
			C3.008,3.822,3.004,3.815,3.001,3.804z M2.708,4.316l-0.02-0.038l0.011-0.042L2.7,4.228L2.667,4.218L2.551,4.355h0.178
			L2.708,4.316z"/>
	</g>
	<path id="displacedGroup" display="none" fill="#FFFFFF" d="M3.049,1.677c0.024,0.151-0.078,0.293-0.228,0.318
		C2.67,2.021,2.526,1.918,2.502,1.768C2.478,1.616,2.579,1.472,2.731,1.449C2.882,1.423,3.024,1.526,3.049,1.677z M2.963,2.776
		l0.245,0.392c0.035,0.059,0.107,0.073,0.164,0.04c0.056-0.033,0.074-0.104,0.043-0.162L3.354,2.934
		C3.299,2.837,3.247,2.74,3.192,2.644L3.083,2.445C3.071,2.422,3.059,2.397,3.046,2.369C2.979,2.228,2.874,2.01,2.643,2.029
		C2.446,2.047,2.245,2.141,2.049,2.308C1.816,2.492,1.652,2.758,1.647,2.771C1.639,2.782,1.631,2.794,1.626,2.804
		c0,0,0,0-0.002,0.001l0,0C1.603,2.847,1.592,2.885,1.618,2.933C1.64,2.969,1.681,2.994,1.724,2.994
		c0.053,0,0.079-0.025,0.105-0.063l0,0l0,0C1.837,2.92,1.844,2.909,1.851,2.897c0.001-0.002,0.138-0.227,0.351-0.402
		C2.266,2.444,2.329,2.409,2.387,2.39L2.34,2.959C2.335,3.014,2.317,3.113,2.302,3.168L2.196,3.54
		C2.183,3.586,2.142,3.665,2.112,3.702L1.825,4.056C1.788,4.103,1.747,4.154,1.78,4.225C1.801,4.267,1.843,4.29,1.89,4.29
		c0.055,0,0.085-0.032,0.123-0.073l0.29-0.313c0.052-0.055,0.119-0.152,0.153-0.22L2.6,3.393l0.533,0.895
		C3.159,4.332,3.193,4.39,3.265,4.39l0,0c0.041,0,0.079-0.021,0.102-0.059c0.039-0.06,0.012-0.113-0.01-0.162L2.924,3.234
		C2.907,3.198,2.899,3.123,2.905,3.083L2.963,2.776z M3.413,3.75h0.645v0.191L4.7,3.571l-0.643-0.37v0.192H3.413V3.75z"/>
	<path id="enlevementGroup" display="none" fill="#FFFFFF" d="M4.372,1.196C4.276,1.196,4.2,1.273,4.2,1.368v0.699
		C4.243,2.076,4.282,2.09,4.315,2.125c0.09,0.089,0.092,0.236,0.004,0.326L3.993,2.786L3.948,2.742l0.326-0.333
		c0.063-0.068,0.063-0.175-0.004-0.24C4.25,2.148,4.226,2.134,4.198,2.127C4.17,2.119,4.142,2.119,4.114,2.125
		c-0.033,0.007-0.06,0.023-0.082,0.047C3.839,2.37,3.646,2.568,3.452,2.767C3.403,2.816,3.315,2.927,3.317,3.042
		c0.002,0.106,0,0.216,0,0.323C3.292,3.344,3.262,3.33,3.227,3.323c-0.1-0.018-0.189,0.043-0.223,0.132h-0.05
		c0-0.021,0-0.049,0-0.073c0.002-0.107-0.002-0.228,0-0.34C2.958,2.93,2.868,2.815,2.821,2.769c-0.194-0.2-0.386-0.398-0.58-0.601
		C2.219,2.148,2.19,2.132,2.159,2.125C2.131,2.118,2.102,2.119,2.073,2.127C2.047,2.134,2.021,2.148,2.002,2.169
		c-0.067,0.065-0.069,0.172-0.005,0.24l0.326,0.333L2.28,2.786L1.954,2.451c-0.088-0.09-0.086-0.237,0.004-0.326
		C1.991,2.094,2.03,2.077,2.071,2.067V1.368c0-0.095-0.078-0.172-0.172-0.172c-0.096,0-0.172,0.077-0.172,0.172v1.21
		c0,0.04,0.016,0.076,0.039,0.105l0.585,0.771H2.3c-0.114,0-0.206,0.093-0.206,0.208c0,0.076,0.042,0.139,0.104,0.175
		C2.137,3.874,2.094,3.937,2.094,4.01c0,0.115,0.092,0.207,0.206,0.207h0.063v0.115h0.574c0.03,0.03,0.065,0.052,0.107,0.063
		c0.013,0.003,0.023,0.004,0.035,0.004c0.102,0,0.188-0.072,0.205-0.172V4.219h0.037c0,0.038,0,0.076,0.004,0.115h0.582V4.219H3.97
		c0.112,0,0.206-0.092,0.206-0.203c0-0.074-0.042-0.143-0.104-0.179c0.063-0.036,0.104-0.099,0.104-0.175
		c0-0.114-0.094-0.207-0.206-0.207H3.92l0.584-0.771c0.024-0.03,0.04-0.065,0.04-0.105V1.37C4.544,1.273,4.467,1.196,4.372,1.196z
		 M2.196,3.662c0-0.057,0.047-0.103,0.104-0.103h0.678L2.942,3.766H2.3C2.243,3.764,2.196,3.719,2.196,3.662z M2.196,4.012
		c0-0.061,0.047-0.104,0.104-0.104h0.617L2.882,4.116H2.3C2.243,4.116,2.196,4.07,2.196,4.012z M3.181,4.207
		C3.172,4.263,3.112,4.3,3.062,4.292C3.034,4.288,3.011,4.272,2.995,4.25C2.979,4.228,2.974,4.2,2.978,4.172L3.092,3.51
		c0.009-0.05,0.052-0.086,0.103-0.086c0.006,0,0.012,0,0.017,0.001c0.057,0.015,0.094,0.063,0.084,0.12L3.181,4.207z M4.075,4.012
		c0,0.058-0.045,0.104-0.104,0.104h-0.67l0.035-0.208h0.636C4.028,3.909,4.075,3.956,4.075,4.012z M4.075,3.662
		c0,0.057-0.045,0.104-0.104,0.104h-0.61l0.034-0.201c0-0.001,0-0.003,0-0.004h0.576C4.028,3.559,4.075,3.606,4.075,3.662z"/>
	<path id="eruptionGroup" display="none" fill="#FFFFFF" d="M3.247,2.253C3.424,2.313,3.657,2.384,3.708,2.1
		C3.747,1.878,4.04,1.96,4.165,1.947c0.229-0.027,0.057-0.454-0.229-0.46C3.647,1.48,3.517,1.608,3.399,1.87
		c-0.053,0.126-0.1,0.221-0.305,0.153c-0.204-0.068-0.355,0.1-0.23,0.307c0.109,0.187-0.002,0.383-0.002,0.383h0.309
		c0,0-0.002-0.108-0.077-0.229C3.007,2.346,3.067,2.191,3.247,2.253z M1.614,4.159c0.793-0.578,0.992-1.376,0.992-1.376H3.42
		c0,0,0.197,0.798,0.99,1.376H1.614z"/>
	<path id="returnedGroup" display="none" fill="#FFFFFF" d="M3.05,1.677c0.023,0.151-0.078,0.293-0.229,0.318
		C2.67,2.02,2.526,1.918,2.503,1.766C2.478,1.615,2.579,1.472,2.731,1.448C2.882,1.423,3.024,1.525,3.05,1.677z M2.963,2.775
		l0.245,0.393c0.035,0.059,0.107,0.072,0.164,0.04c0.056-0.034,0.074-0.104,0.043-0.162L3.354,2.933
		C3.3,2.837,3.247,2.74,3.194,2.643L3.083,2.445C3.071,2.422,3.06,2.397,3.046,2.369c-0.067-0.141-0.172-0.36-0.403-0.34
		c-0.196,0.017-0.397,0.11-0.594,0.277C1.815,2.492,1.651,2.758,1.646,2.77c-0.007,0.012-0.015,0.021-0.02,0.034L1.624,2.805l0,0
		C1.603,2.847,1.592,2.885,1.618,2.933C1.64,2.969,1.681,2.995,1.724,2.995c0.053,0,0.079-0.025,0.104-0.063l0,0l0,0
		C1.835,2.921,1.843,2.909,1.85,2.897C1.852,2.895,1.989,2.675,2.2,2.495C2.266,2.443,2.329,2.408,2.387,2.39L2.34,2.959
		C2.335,3.014,2.317,3.113,2.302,3.168L2.196,3.54C2.183,3.587,2.142,3.665,2.11,3.702L1.825,4.056
		C1.788,4.103,1.747,4.154,1.78,4.225C1.801,4.267,1.843,4.29,1.89,4.29c0.055,0,0.085-0.032,0.123-0.073l0.29-0.313
		c0.052-0.055,0.119-0.152,0.151-0.22l0.145-0.293l0.533,0.895C3.157,4.33,3.193,4.388,3.264,4.388l0,0
		c0.041,0,0.079-0.021,0.103-0.06c0.037-0.059,0.011-0.113-0.01-0.16L2.925,3.234C2.909,3.198,2.9,3.123,2.905,3.083L2.963,2.775z
		 M4.757,2.975c0-0.395-0.318-0.708-0.709-0.708H3.747v0.354h0.302C4.241,2.623,4.4,2.78,4.4,2.975c0,0.188-0.155,0.351-0.351,0.351
		H3.985V3.134l-0.641,0.37l0.641,0.371V3.683h0.07l0,0C4.442,3.677,4.757,3.363,4.757,2.975z"/>
	<g id="Affected" display="none">
		<path display="inline" fill="#FFFFFF" d="M2.313,1.619c0,0.136-0.111,0.246-0.247,0.246c-0.136,0-0.247-0.11-0.247-0.246
			c0-0.137,0.111-0.247,0.247-0.247C2.203,1.372,2.313,1.482,2.313,1.619z M2.093,3.306l0.053,0.906
			c0,0.031,0.026,0.063,0.058,0.063c0.032,0,0.058-0.027,0.058-0.063l0.049-0.906h0.161L2.305,2.286L2.64,2.953
			c0.012,0.029,0.046,0.043,0.076,0.031C2.745,2.971,2.76,2.938,2.747,2.908c0,0-0.246-0.663-0.306-0.787
			C2.38,1.997,2.32,1.922,2.09,1.922H2.043c-0.23,0-0.291,0.075-0.351,0.199S1.387,2.908,1.387,2.908
			c-0.013,0.03,0.001,0.063,0.03,0.076c0.03,0.013,0.064-0.001,0.076-0.031l0.335-0.667L1.662,3.306h0.161l0.05,0.906
			c0,0.031,0.026,0.063,0.058,0.063c0.032,0,0.058-0.027,0.058-0.063l0.05-0.906H2.093L2.093,3.306z M4.058,1.371
			c-0.136,0-0.246,0.11-0.246,0.247s0.11,0.247,0.246,0.247c0.137,0,0.246-0.11,0.246-0.247S4.194,1.371,4.058,1.371z M4.313,2.822
			L4.33,2.286l0.301,0.667c0.013,0.029,0.048,0.043,0.076,0.031c0.03-0.013,0.044-0.046,0.032-0.076c0,0-0.213-0.664-0.273-0.787
			C4.403,1.997,4.312,1.922,4.082,1.922H4.034c-0.23,0-0.323,0.075-0.385,0.199C3.59,2.244,3.378,2.907,3.378,2.907
			c-0.013,0.03,0.001,0.063,0.031,0.077c0.029,0.013,0.063-0.001,0.074-0.031l0.303-0.667l0.016,0.536L3.755,4.169
			C3.751,4.223,3.791,4.27,3.845,4.272c0.002,0.002,0.006,0.002,0.006,0.002c0.053,0,0.094-0.039,0.099-0.092l0.108-1.109
			l0.111,1.109c0.002,0.053,0.045,0.092,0.096,0.092c0.002,0,0.004,0,0.006-0.002C4.323,4.27,4.364,4.223,4.36,4.169L4.313,2.822
			L4.313,2.822z M3.063,2.87c-0.083,0-0.152,0.067-0.152,0.15c0,0.084,0.068,0.147,0.152,0.147s0.15-0.063,0.15-0.147
			C3.213,2.937,3.146,2.87,3.063,2.87z M3.063,3.76l0.068,0.477c0.009,0.021,0.03,0.041,0.057,0.041s0.049-0.021,0.059-0.043
			c0-0.002,0.001-0.031,0-0.035l-0.028-0.58l0.009-0.201c0.009-0.063,0.01-0.047,0.087-0.093c0.08-0.047,0.211-0.255,0.22-0.266
			C3.54,3.046,3.554,3.03,3.556,3.018c0.004-0.021-0.01-0.041-0.029-0.045C3.508,2.969,3.495,2.977,3.485,2.988
			C3.474,3,3.32,3.204,3.205,3.224C3.179,3.221,3.15,3.207,3.077,3.207H3.048c-0.074,0-0.102,0.018-0.128,0.021
			C2.805,3.204,2.65,3,2.639,2.988C2.629,2.977,2.617,2.969,2.6,2.971C2.58,2.975,2.565,2.995,2.57,3.016
			c0.002,0.012,0.014,0.026,0.021,0.04c0.006,0.01,0.141,0.219,0.22,0.266C2.888,3.368,2.89,3.348,2.897,3.415l0.008,0.201
			l-0.028,0.58c-0.001,0.006,0,0.033,0.001,0.035c0.008,0.021,0.03,0.043,0.058,0.043c0.026,0,0.048-0.021,0.057-0.041
			C2.994,4.233,3.063,3.76,3.063,3.76"/>
	</g>
	<path id="epidemieGroup" display="none" fill="#FFFFFF" d="M4.284,2.946c0-0.696-0.545-1.262-1.231-1.297
		c0.304,0.024,0.54,0.249,0.54,0.517c0,0.092-0.031,0.177-0.08,0.252C3.376,2.283,3.19,2.2,2.983,2.2
		c-0.205,0-0.392,0.083-0.527,0.218c-0.047-0.075-0.078-0.16-0.078-0.252c0-0.268,0.234-0.488,0.539-0.517
		C2.231,1.685,1.686,2.251,1.686,2.946c0,0.209,0.052,0.407,0.14,0.583C1.704,3.255,1.778,2.945,2.007,2.814
		c0.08-0.046,0.168-0.063,0.258-0.063C2.247,2.817,2.237,2.881,2.237,2.948c0,0.346,0.235,0.634,0.555,0.72
		C2.786,3.675,2.78,3.681,2.776,3.69v0.001c-0.011,0.021-0.023,0.043-0.039,0.06C2.702,3.796,2.663,3.836,2.612,3.864
		C2.383,3.997,2.077,3.905,1.899,3.66C2.132,4.013,2.53,4.247,2.985,4.247c0.45,0,0.844-0.229,1.081-0.576
		c-0.182,0.237-0.48,0.325-0.708,0.194C3.278,3.818,3.22,3.749,3.18,3.668c0.317-0.086,0.551-0.375,0.551-0.72
		c0-0.066-0.01-0.13-0.024-0.192c0.09-0.005,0.179,0.016,0.259,0.063C4.189,2.946,4.265,3.24,4.155,3.506
		C4.237,3.336,4.284,3.146,4.284,2.946z M3.122,3.446C3.116,3.338,3.14,3.225,3.194,3.117l-0.086-0.05
		C3.077,3.1,3.032,3.12,2.985,3.12c-0.049,0-0.093-0.02-0.125-0.052L2.776,3.116c0.055,0.107,0.077,0.222,0.071,0.331
		c-0.22-0.063-0.383-0.26-0.383-0.499c0-0.046,0.008-0.089,0.019-0.13c0.096,0.048,0.184,0.124,0.25,0.224l0.088-0.051
		c-0.004-0.015-0.01-0.029-0.01-0.045c0-0.081,0.055-0.146,0.131-0.165V2.68C2.821,2.67,2.713,2.634,2.622,2.576
		c0.092-0.092,0.221-0.148,0.361-0.148s0.271,0.062,0.364,0.15c-0.091,0.063-0.2,0.096-0.319,0.104v0.1
		c0.073,0.02,0.129,0.084,0.129,0.165c0,0.016-0.004,0.03-0.008,0.044l0.088,0.05c0.065-0.1,0.153-0.175,0.249-0.224
		c0.01,0.042,0.02,0.084,0.02,0.129C3.504,3.187,3.342,3.385,3.122,3.446z"/>
	<g id="Floods">
		<path fill="#FFFFFF" d="M13.298,12.001H2.463V10.92c0.172-0.036,0.707-0.354,1.083-1.085c0.495-0.959,1.083-0.27,1.083-0.27
			c-0.468,0.039-0.354,0.554-0.271,0.813c0.101,0.309,0.37,0.499,0.541,0.542h0.271c0.173-0.036,0.436-0.354,0.812-1.085
			c0.496-0.959,1.084-0.27,1.084-0.27c-0.467,0.039-0.354,0.554-0.271,0.813c0.101,0.309,0.37,0.499,0.542,0.542H7.61
			c0.173-0.036,0.435-0.354,0.813-1.085c0.495-0.959,1.083-0.27,1.083-0.27c-0.466,0.039-0.356,0.554-0.271,0.813
			c0.102,0.309,0.369,0.499,0.541,0.542h0.271c0.174-0.036,0.711-0.354,1.085-1.085c0.496-0.959,1.083-0.27,1.083-0.27
			c-0.468,0.039-0.355,0.554-0.271,0.813c0.101,0.309,0.371,0.499,0.541,0.542h0.813V12.001L13.298,12.001z M11.673,7.669v-2.98
			l0.271,0.271l0.271-0.271L9.641,2.52L7.068,4.688l0.271,0.271L7.61,4.688v2.98H7.339C7.167,7.626,6.898,7.435,6.797,7.126
			C6.714,6.868,6.601,6.354,7.068,6.313c0,0-0.588-0.688-1.084,0.271C5.608,7.316,5.345,7.633,5.172,7.669H4.901
			C4.73,7.626,4.46,7.435,4.36,7.126C4.276,6.868,4.163,6.354,4.63,6.313c0,0-0.589-0.688-1.083,0.271
			C3.17,7.316,2.636,7.633,2.463,7.669v1.624C2.636,9.259,3.17,8.941,3.547,8.21C4.042,7.25,4.63,7.939,4.63,7.939
			C4.163,7.98,4.276,8.494,4.36,8.753C4.46,9.06,4.73,9.252,4.901,9.293h0.271C5.345,9.259,5.608,8.941,5.984,8.21
			C6.48,7.251,7.068,7.939,7.068,7.939C6.601,7.98,6.714,8.494,6.797,8.753c0.101,0.308,0.37,0.499,0.542,0.542H7.61
			C7.783,9.259,8.045,8.941,8.423,8.21C8.918,7.251,9.506,7.94,9.506,7.94C9.04,7.98,9.149,8.494,9.235,8.753
			C9.337,9.06,9.604,9.252,9.776,9.295h0.271c0.174-0.036,0.711-0.354,1.085-1.084c0.496-0.959,1.083-0.271,1.083-0.271
			c-0.468,0.041-0.355,0.554-0.271,0.813c0.101,0.308,0.371,0.499,0.541,0.542h0.813V7.669H11.673z M3.148,3.981h1.823v0.541
			l1.812-1.046L4.972,2.429v0.542H3.148V3.981z"/>
	</g>
</g>
<g id="food" display="none">
	<path display="inline" fill="#FFFFFF" d="M14.786,8.655L14.786,8.655c-0.033,0.899-0.345,1.877-0.81,2.774
		c0,0-1.121,2.27-4.643,2.27c-3.521,0-4.665-2.253-4.665-2.253C4.2,10.55,3.91,9.582,3.88,8.663l0,0c0-0.025,0-0.051,0-0.074
		c0-0.433,0.267-0.838,0.724-1.183l0.494,0.313C4.796,7.921,4.619,8.146,4.619,8.397c0,0.845,2.111,1.533,4.716,1.533
		c2.604,0,4.716-0.685,4.716-1.533c0-0.596-1.014-1.104-2.499-1.36l0.009-0.622c1.91,0.372,3.227,1.208,3.227,2.179
		C14.786,8.612,14.786,8.635,14.786,8.655z M5.689,4.997c-0.02,0.146-0.04,0.379,0.138,0.695c0.225,0.381,0.503,0.51,0.596,0.574
		C6.408,6.168,6.431,5.876,6.229,5.52c-0.177-0.322-0.373-0.464-0.49-0.577C5.411,4.476,5.047,4.094,4.762,3.798l-0.669-0.69
		c0,0,0.244,0.275,0.642,0.716C5.01,4.132,5.371,4.522,5.689,4.997z M7.361,8.665c0.144,0.134,0.325,0.354,0.725,0.582
		c0.45,0.255,0.832,0.255,0.96,0.275C8.973,9.406,8.829,9.033,8.33,8.76C7.92,8.537,7.617,8.579,7.431,8.612
		C6.817,8.248,6.284,7.89,5.864,7.621C5.258,7.25,4.866,7.06,4.866,7.06s0.379,0.208,0.975,0.6C6.25,7.933,6.759,8.302,7.361,8.665z
		 M7.721,6.713C7.673,6.88,7.604,7.142,7.764,7.534C7.95,8.017,8.266,8.218,8.358,8.308c0-0.118,0.085-0.452-0.092-0.903
		C8.107,6.998,7.905,6.8,7.787,6.651C7.486,6.054,7.109,5.551,6.832,5.165L6.148,4.246l0.643,0.941
		C7.067,5.587,7.427,6.101,7.721,6.713z M6.582,7.683C6.72,7.807,6.894,8.008,7.268,8.209c0.421,0.225,0.778,0.216,0.895,0.244
		C8.096,8.342,7.95,8,7.481,7.759c-0.383-0.2-0.664-0.155-0.838-0.126C6.063,7.31,5.565,6.981,5.168,6.744
		C4.597,6.401,4.229,6.231,4.229,6.227c0,0.004,0.355,0.191,0.919,0.549C5.528,7.02,6.009,7.362,6.582,7.683z M5.762,6.723
		c0.13,0.112,0.29,0.294,0.646,0.473C6.805,7.403,7.13,7.385,7.244,7.405C7.177,7.307,7.036,6.998,6.598,6.781
		C6.246,6.603,5.983,6.642,5.824,6.673c-0.542-0.289-1.008-0.59-1.379-0.806c-0.537-0.308-0.884-0.465-0.88-0.465
		c0,0,0.336,0.174,0.858,0.502C4.78,6.125,5.232,6.432,5.762,6.723z M4.929,5.321C5.169,5.532,5.396,5.55,5.524,5.59
		c-0.023-0.105,0-0.359-0.274-0.604C5.013,4.787,4.78,4.771,4.662,4.759c-0.958-0.816-1.805-1.347-2.004-1.47l-0.039-0.03
		C2.61,3.266,3.546,3.883,4.644,4.842C4.674,4.962,4.739,5.156,4.929,5.321z M4.914,5.771c0.115,0.103,0.271,0.268,0.598,0.428
		C5.876,6.38,6.179,6.365,6.281,6.38c-0.065-0.089-0.202-0.373-0.6-0.566C5.35,5.656,5.111,5.701,4.966,5.729
		C4.469,5.468,4.035,5.191,3.692,4.997C3.199,4.716,2.877,4.579,2.877,4.579s0.316,0.155,0.796,0.455
		C4.001,5.231,4.419,5.507,4.914,5.771z M6.738,5.828c-0.032,0.155-0.081,0.407,0.09,0.763C7.03,7.022,7.334,7.185,7.427,7.267
		C7.42,7.152,7.466,6.839,7.276,6.437C7.104,6.072,6.908,5.902,6.789,5.771C6.474,5.239,6.099,4.795,5.816,4.45L5.14,3.649
		L5.787,4.48C6.063,4.831,6.423,5.281,6.738,5.828z M10.501,6.748c-0.106,0.104-0.278,0.28-0.33,0.648
		C10.1,7.84,10.253,8.124,10.279,8.231c0.056-0.089,0.261-0.313,0.328-0.733c0.053-0.371-0.019-0.607-0.039-0.765
		c0.033-0.59-0.039-1.123-0.084-1.535c-0.073-0.608-0.121-0.981-0.121-0.981L10.454,5.2C10.484,5.617,10.54,6.16,10.501,6.748z
		 M10.154,5.753c-0.092,0.106-0.239,0.276-0.268,0.625c-0.031,0.409,0.122,0.663,0.157,0.76c0.046-0.083,0.224-0.305,0.258-0.693
		c0.022-0.35-0.059-0.563-0.091-0.711c0-0.541-0.091-1.033-0.158-1.411L9.889,3.42l0.137,0.902
		C10.08,4.713,10.154,5.211,10.154,5.753z M9.755,4.776c-0.08,0.102-0.203,0.271-0.207,0.589C9.545,5.749,9.703,5.969,9.742,6.061
		C9.773,5.973,9.92,5.765,9.932,5.406c0.002-0.325-0.082-0.51-0.121-0.649C9.77,4.254,9.661,3.811,9.574,3.468L9.373,2.655
		l0.172,0.817C9.623,3.823,9.717,4.275,9.755,4.776z M10.458,9.329c0.063-0.088,0.301-0.313,0.403-0.753
		c0.088-0.396,0.031-0.655,0.014-0.833c0.074-0.622,0.044-1.2,0.01-1.65c-0.044-0.656-0.078-1.058-0.078-1.058l0.037,1.058
		c0.02,0.458,0.029,1.043-0.037,1.666c-0.123,0.107-0.322,0.289-0.402,0.676C10.303,8.902,10.438,9.212,10.458,9.329z M8.458,4.134
		c0.049,0.112,0.099,0.289,0.276,0.512c0.199,0.256,0.423,0.339,0.496,0.39C9.215,4.95,9.221,4.699,9,4.42
		C8.814,4.199,8.629,4.144,8.516,4.119c-0.269-0.36-0.485-0.704-0.663-0.956c-0.255-0.376-0.44-0.582-0.44-0.586
		c0,0,0.17,0.216,0.413,0.596C7.999,3.437,8.196,3.78,8.458,4.134z M8.629,3.807c0.098,0.236,0.256,0.324,0.338,0.394
		c0.014-0.088,0.12-0.269,0.01-0.532C8.88,3.443,8.718,3.355,8.634,3.309C8.227,2.391,7.806,1.724,7.706,1.567L7.689,1.531
		c-0.003,0,0.45,0.757,0.901,1.834C8.572,3.459,8.548,3.627,8.629,3.807z M9.032,5.674c0.216,0.28,0.456,0.384,0.53,0.432
		C9.55,6.007,9.557,5.736,9.318,5.427C9.122,5.182,8.922,5.124,8.795,5.098c-0.29-0.395-0.518-0.771-0.708-1.052
		c-0.276-0.403-0.468-0.63-0.468-0.634c0,0,0.179,0.238,0.438,0.652c0.181,0.285,0.399,0.66,0.677,1.049
		C8.787,5.239,8.844,5.424,9.032,5.674z M9.289,3.823C9.229,3.922,9.13,4.084,9.146,4.379c0.025,0.35,0.182,0.54,0.229,0.616
		c0.02-0.076,0.146-0.279,0.121-0.61c-0.018-0.297-0.105-0.467-0.15-0.589C9.277,3.349,9.145,2.951,9.05,2.638L8.811,1.904
		c0,0,0.078,0.285,0.211,0.737C9.107,2.962,9.232,3.373,9.289,3.823z M8.982,6.093c0.055,0.136,0.107,0.341,0.31,0.609
		c0.233,0.3,0.489,0.416,0.565,0.472c-0.014-0.101,0-0.399-0.248-0.732C9.4,6.168,9.184,6.104,9.05,6.072
		C8.743,5.647,8.505,5.239,8.299,4.93C8.01,4.491,7.803,4.242,7.803,4.242s0.19,0.257,0.469,0.708
		C8.458,5.258,8.688,5.661,8.982,6.093z M6.03,8.771c0,0,0.334,0.195,0.864,0.564C6.928,9.344,6.967,9.353,7.007,9.36
		C6.416,8.967,6.03,8.771,6.03,8.771z M10.23,9.515c-0.076-0.133-0.162-0.219-0.242-0.284C9.963,9.15,9.934,9.083,9.904,9.019
		c0.176,0.184,0.34,0.271,0.404,0.32c0-0.004,0-0.015,0-0.031c0.024,0.074,0.037,0.15,0.063,0.224c0.039,0,0.074-0.006,0.104-0.008
		c-0.064-0.217-0.129-0.412-0.207-0.608c-0.024-0.103-0.068-0.223-0.137-0.34c-0.07-0.154-0.134-0.3-0.197-0.441
		c0.082,0.057,0.147,0.092,0.178,0.12c-0.01-0.116,0.016-0.438-0.245-0.799C9.714,7.243,9.548,7.142,9.413,7.097L9.002,6.286
		c0,0,0.133,0.297,0.365,0.79c-0.033-0.005-0.066-0.02-0.096-0.027c-0.319-0.465-0.57-0.908-0.785-1.24
		C8.184,5.33,7.968,5.064,7.968,5.064s0.204,0.275,0.49,0.763C8.652,6.162,8.895,6.6,9.2,7.069c0.057,0.146,0.104,0.362,0.325,0.663
		c0.096,0.135,0.203,0.236,0.291,0.314C9.855,8.128,9.893,8.209,9.93,8.302c-0.183-0.18-0.363-0.233-0.479-0.271
		c-0.038-0.06-0.074-0.11-0.105-0.165C9.145,7.427,8.927,7.041,8.736,6.718C8.336,6.007,8.065,5.57,8.065,5.57l0.625,1.166
		c0.049,0.088,0.099,0.181,0.15,0.276C8.771,6.899,8.706,6.787,8.643,6.688C8.33,6.175,8.102,5.884,8.102,5.884
		c-0.003,0,0.21,0.301,0.505,0.827c0.175,0.305,0.381,0.7,0.629,1.122C9.354,8.081,9.461,8.342,9.55,8.621
		c-0.021,0.059-0.053,0.128-0.077,0.21c-0.274-0.479-0.509-0.92-0.711-1.266C8.698,7.456,8.637,7.353,8.581,7.262
		c-0.255-0.525-0.55-0.98-0.792-1.341c-0.407-0.641-0.674-1.03-0.674-1.03l0.638,1.046c0.273,0.454,0.629,1.032,0.909,1.702
		C8.593,7.817,8.5,8.103,8.637,8.536c0.17,0.526,0.485,0.769,0.59,0.874c0.006-0.119,0.102-0.44-0.016-0.896
		c0.078,0.139,0.156,0.28,0.236,0.424C9.413,9.102,9.402,9.306,9.466,9.574c0.267-0.003,0.525-0.015,0.778-0.03
		C10.238,9.532,10.238,9.524,10.23,9.515z M6.521,8.528C5.886,8.113,5.464,7.911,5.464,7.911S5.869,8.138,6.493,8.57
		C6.85,8.818,7.296,9.15,7.806,9.486c0.064,0.01,0.133,0.016,0.195,0.018C7.427,9.144,6.928,8.791,6.521,8.528z M11.141,8.782
		c0.119-0.667,0.107-1.291,0.107-1.771l-0.021-1.142c0,0-0.01,0.431-0.025,1.135c-0.006,0.492-0.016,1.119-0.149,1.788
		c-0.132,0.103-0.348,0.28-0.475,0.684c-0.007,0.02-0.007,0.029-0.007,0.042c0.183-0.015,0.363-0.036,0.539-0.06
		C11.17,9.15,11.141,8.938,11.141,8.782z"/>
</g>
</svg>
