<?xml version="1.0" encoding="utf-8"?>
<!-- Generator: Adobe Illustrator 16.0.0, SVG Export Plug-In . SVG Version: 6.00 Build 0)  -->
<!DOCTYPE svg PUBLIC "-//W3C//DTD SVG 1.1//EN" "http://www.w3.org/Graphics/SVG/1.1/DTD/svg11.dtd">
<svg version="1.1" id="Layer_1" xmlns="http://www.w3.org/2000/svg" xmlns:xlink="http://www.w3.org/1999/xlink" x="0px" y="0px"
	 width="33.35px" height="40px" viewBox="0 0 33.35 40" enable-background="new 0 0 33.35 40" xml:space="preserve">
<g id="PinColor">
	<path id="PinOmbre" opacity="0.3" enable-background="new    " d="M29.005,30.877c0,1.768-3.883,3.252-9.105,3.643
		c-0.881,0.068-2.746,4.217-2.746,4.217s-1.93-4.148-2.84-4.221C9.14,34.111,5.3,32.635,5.3,30.877c0-2.07,5.307-3.748,11.853-3.748
		C23.699,27.129,29.005,28.805,29.005,30.877z"/>
	<path id="vert" display="none" fill="#2ABF00" stroke="#1D7500" stroke-width="0.2" stroke-miterlimit="10" d="M29.005,13.482
		c0,5.416-3.883,9.956-9.105,11.157c-0.881,0.199-2.746,12.896-2.746,12.896s-1.93-12.695-2.84-12.921
		C9.14,23.385,5.3,18.865,5.3,13.479c0-6.331,5.307-11.463,11.853-11.463C23.698,2.014,29.005,7.15,29.005,13.482z"/>
	<path id="orange" display="none" fill="#FF8500" stroke="#7F4500" stroke-width="0.2" stroke-miterlimit="10" d="M29.005,13.482
		c0,5.416-3.883,9.956-9.105,11.157c-0.881,0.199-2.746,12.896-2.746,12.896s-1.93-12.695-2.84-12.921
		C9.14,23.385,5.3,18.865,5.3,13.479c0-6.331,5.307-11.463,11.853-11.463C23.698,2.014,29.005,7.15,29.005,13.482z"/>
	<path id="gris" fill="#A5A5A5" stroke="#595959" stroke-width="0.2" stroke-miterlimit="10" d="M29.005,13.482
		c0,5.416-3.883,9.956-9.105,11.157c-0.881,0.199-2.746,12.896-2.746,12.896s-1.93-12.695-2.84-12.921
		C9.14,23.385,5.3,18.865,5.3,13.479c0-6.331,5.307-11.463,11.853-11.463C23.698,2.014,29.005,7.15,29.005,13.482z"/>
	<path id="bleu" display="none" fill="#0092FF" stroke="#00477C" stroke-width="0.2" stroke-miterlimit="10" d="M29.005,13.482
		c0,5.416-3.883,9.956-9.105,11.157c-0.881,0.199-2.746,12.896-2.746,12.896s-1.93-12.695-2.84-12.921
		C9.14,23.385,5.3,18.865,5.3,13.479c0-6.331,5.307-11.463,11.853-11.463C23.698,2.014,29.005,7.15,29.005,13.482z"/>
</g>
<g id="Icons">
	<g id="Minimal" display="none">
		<path id="Election" fill="#565656" d="M-4.301-16.495l-1.786-0.766c-0.053-0.022-0.114-0.007-0.148,0.038l-0.512,0.638
			c-0.022,0.029-0.031,0.069-0.024,0.106c0.008,0.036,0.032,0.065,0.063,0.083l-1.601,0.6c-0.135,0.051-0.249,0.146-0.323,0.269
			l-0.529,0.883c-0.112,0.188-0.122,0.417-0.023,0.613l0.038,0.075h-0.559c-0.071,0-0.128,0.058-0.128,0.128v2.422h-0.383
			c-0.07,0-0.126,0.057-0.126,0.126c0,0.071,0.056,0.128,0.126,0.128h4.335c0.07,0,0.125-0.057,0.125-0.128
			c0-0.069-0.055-0.126-0.125-0.126h-0.382v-1.304c0-0.043-0.025-0.085-0.06-0.107c-0.038-0.023-0.083-0.027-0.124-0.008
			c-0.14,0.066-0.243,0.099-0.292,0.114c-0.011,0.002-0.021,0.006-0.03,0.013l-0.83,0.498c-0.132,0.08-0.283,0.122-0.436,0.122
			c-0.283,0-0.546-0.141-0.708-0.379c-0.128-0.192-0.172-0.423-0.125-0.647c0.049-0.225,0.183-0.417,0.375-0.541l0.121-0.077
			c0.089-0.054,0.166-0.103,0.238-0.146c0.049-0.031,0.071-0.09,0.055-0.145c-0.031-0.103-0.085-0.193-0.133-0.264
			c0.193-0.085,0.457-0.237,0.59-0.391c0,0,0.001,0.001,0.002,0.001c0.027,0.017,0.06,0.035,0.097,0.053
			c0.004,0.001,0.004,0.001,0.008,0.002l0,0c0.094,0.046,0.215,0.091,0.353,0.119c-0.148,0.184-0.299,0.413-0.354,0.565
			c-0.106,0.046-0.325,0.171-0.837,0.497c-0.137,0.086-0.229,0.22-0.261,0.378c-0.035,0.157-0.004,0.318,0.087,0.453
			c0.113,0.171,0.3,0.266,0.494,0.266c0.104,0,0.21-0.028,0.304-0.085l0.877-0.526c0.136-0.033,0.817-0.238,1.335-1.072
			c0.404-0.654,0.632-1.182,0.726-1.42l0.016,0.008c0.053,0.026,0.111,0.04,0.17,0.04c0.097,0,0.195-0.039,0.265-0.107
			c0.076-0.071,0.117-0.171,0.117-0.275v-0.608C-4.225-16.429-4.255-16.476-4.301-16.495z"/>
	</g>
	<g id="Faible" display="none">
		<path id="Famine" fill="#F9F9F9" d="M-5.449-11.801l-1.014,0.191l-1.654-0.9l0.602-0.75l1.354,0.45L-5.449-11.801z M-3.891-13.56
			v0.112l-1.068,0.338l-1.053,0.15l-1.353-0.45l-0.319-0.15h0.182c-0.043-0.403-0.102-0.708-0.129-1.107h-0.002
			c-0.001-0.012-0.015-0.279-0.019-0.393c-0.021-0.12-0.077-0.168-0.265-0.297c-0.104-0.066-0.18-0.09-0.224-0.089
			c-0.069,0-0.13,0.075-0.145,0.299c0.301,0.051,0.322,0.385,0.322,0.385c0.025,0.237-0.09,0.583-0.357,0.673
			c-0.495,0.166-0.444-0.789-0.165-1.018c0.007-0.275,0.084-0.527,0.345-0.537c0.104,0.001,0.21,0.043,0.333,0.121
			c0.059,0.035,0.105,0.071,0.146,0.107c-0.004-0.09-0.01-0.183-0.01-0.278c-0.001-0.201,0.03-0.419,0.208-0.574
			c0.092-0.083,0.196-0.126,0.296-0.125c0.265,0.013,0.43,0.241,0.525,0.474c0.111-0.049,0.25-0.072,0.41-0.017
			c0.408,0.141,0.626,0.852,0.457,1.1c-0.402,0.577-1.413-0.497-1.145-0.872c0,0,0.04-0.051,0.108-0.107
			c-0.078-0.207-0.235-0.392-0.354-0.378c-0.045,0-0.097,0.017-0.164,0.076c-0.112,0.099-0.143,0.24-0.143,0.425
			c0,0.13,0.016,0.275,0.016,0.419c0,0.076,0.005,0.143,0.008,0.216c0.018,0.129,0.02,0.229,0.018,0.365
			c0.027,0.398,0.189,0.725,0.231,1.135L-3.891-13.56L-3.891-13.56z M-6.74-15.738l0.766,0.834
			c-0.136-0.591-0.622-0.921-0.622-0.921L-6.74-15.738z M-8.326-15.022l-0.137,0.057c0,0-0.068,0.466,0,0.71L-8.326-15.022z
			 M-9.012-12.208l0.608-0.366l0.634-0.785l-0.198-0.201h-1.402l-0.278,0.556L-9.012-12.208z M-8.302-12.334L-9.381-11.6
			l0.145,0.178h2.481l-0.008-0.037L-8.302-12.334z M-10.522-13.56v0.847l0.691-0.371l0.209-0.476H-10.522z M-5.811-12.778
			l0.668,0.97l1.251,0.294v-1.11l-0.9-0.29L-5.811-12.778z M-3.891-12.867v-0.392l-0.702,0.19L-3.891-12.867z M-9.814-12.813
			l-0.708,0.337v1.053h0.519l0.771-0.632L-9.814-12.813z M-6.104-11.422h1.62l-0.775-0.188L-6.104-11.422z"/>
		<path id="Cyclone" fill="#FFFFFF" d="M-7.181-15.837c-0.034-0.002-0.068-0.006-0.102-0.006c-0.303,0-0.59,0.079-0.838,0.216
			c0.444-1.513,1.552-1.644,1.552-1.644s-2.447,0.204-2.447,3.059c0.002,0,0.004,0,0.006,0c-0.002,0.034-0.006,0.067-0.006,0.103
			c0,0.302,0.079,0.588,0.216,0.837c-1.512-0.444-1.645-1.551-1.645-1.551s0.204,2.447,3.061,2.447c0-0.002,0-0.003,0-0.005
			c0.033,0.001,0.067,0.005,0.101,0.005c0.304,0,0.59-0.079,0.838-0.217c-0.444,1.513-1.552,1.645-1.552,1.645
			s2.448-0.205,2.448-3.06c-0.001,0-0.003,0-0.005,0c0.002-0.034,0.005-0.067,0.005-0.101c0-0.304-0.079-0.59-0.216-0.837
			c1.513,0.444,1.645,1.552,1.645,1.552s-0.203-2.448-3.058-2.448C-7.181-15.841-7.181-15.839-7.181-15.837z"/>
		<path id="tsunami" fill="#FFFFFF" d="M-4.209-12.095c-5.037,0.285-3.629-3.567-2.323-3.235c-0.135,0.083-0.221,0.366-0.139,0.557
			c0.092,0.204,0.386,0.321,0.556,0.278c0.406-0.105,0.424-0.674,0.278-0.974c-0.152-0.311-0.552-0.694-1.25-0.694
			c-1.687,0-2.838,0.861-3.271,2.342v2.178h6.15L-4.209-12.095L-4.209-12.095z"/>
		<path id="earthquake" fill="#FFFFFF" d="M-5.491-13.919c-0.086,0-0.165,0.048-0.206,0.125l-0.336,0.632l-0.415-1.213
			c-0.032-0.092-0.115-0.154-0.213-0.159c-0.1-0.002-0.186,0.054-0.225,0.143l-0.283,0.674l-0.448-2.685
			c-0.021-0.112-0.127-0.197-0.234-0.191c-0.115,0.002-0.211,0.078-0.227,0.192l-0.396,3.116l-0.32-1.672
			c-0.019-0.098-0.1-0.174-0.199-0.188c-0.099-0.014-0.197,0.04-0.241,0.13l-0.526,1.096h-0.816v0.466h0.963
			c0.09,0,0.172-0.052,0.211-0.132l0.282-0.588l0.456,2.372c0.021,0.11,0.117,0.19,0.23,0.19c0.001,0,0.004,0,0.006,0
			c0.113-0.004,0.209-0.09,0.225-0.203l0.39-3.062l0.326,2.016c0.019,0.102,0.101,0.179,0.204,0.19
			c0.104,0.009,0.201-0.047,0.242-0.142l0.35-0.833l0.391,1.142c0.03,0.089,0.108,0.15,0.201,0.158
			c0.093,0.005,0.181-0.041,0.227-0.124l0.521-0.986h1.002v-0.466H-5.491z"/>
	</g>
	<g id="Modéré">
	</g>
	<g id="Important">
	</g>
	<g id="Elevé">
	</g>
	<g id="Extreme" display="none">
		<path id="rebelion" display="inline" fill="#FFFFFF" d="M-6.329-15.751c0,0.563-0.456,1.017-1.017,1.017
			c-0.563,0-1.019-0.456-1.019-1.017c0-0.563,0.455-1.018,1.019-1.018C-6.785-16.769-6.329-16.314-6.329-15.751z M-9.046-11.435
			h0.622h0.034l0.023-0.048l0.226-0.222l-0.208-0.044l-0.331-0.071L-9.046-11.435z M-4.788-15.563l-0.218,0.218l0.016,0.015
			l-0.176,0.178c0.023,0.022,0.045,0.043,0.065,0.068l0.177-0.178l0.037,0.033l0.215-0.219L-4.788-15.563z M-6.194-14.434
			l-0.093,0.093l0.01,0.027l0.022,0.05l-1.483,1.488l0.159,0.034c0.146,0.031,0.273,0.118,0.355,0.245
			c0.011,0.018,0.015,0.04,0.024,0.059l0.004-0.005l0.11,0.072l0.039-0.008l0.433,0.313l0.291-0.398l-0.644-0.503l0.014-0.042h0.107
			l0.633-0.742l0.071-0.666L-6.194-14.434z M-5.504-15.091c-0.192-0.021-0.379,0.123-0.402,0.321l-0.024,0.217l0,0l-0.015,0.157
			l-0.07,0.666l-0.008,0.062l-0.04,0.048l-0.566,0.664l0.427,0.335l0.154,0.12l-0.09,0.122l0.023,0.045
			c0.059,0.127,0.188,0.207,0.328,0.207c0.021,0,0.041-0.001,0.06-0.005c0.161-0.027,0.283-0.158,0.3-0.318l0.242-2.239
			C-5.161-14.891-5.305-15.072-5.504-15.091z M-6.244-12.232l-0.208,0.286l-0.119,0.164l-0.163-0.119l-0.358-0.259l-0.031,0.008
			l-0.013-0.009c0,0.031-0.001,0.06-0.009,0.091c-0.007,0.03-0.018,0.057-0.028,0.085c-0.023,0.053-0.051,0.099-0.087,0.142
			l0.026,0.058c0.025,0.057,0.059,0.131,0.101,0.196l0.101,0.156h0.764L-6.244-12.232z M-7.699-11.623
			c-0.008,0-0.017-0.002-0.025-0.003c-0.004,0.017-0.007,0.028-0.007,0.028l0.086,0.163h0.208l0.134-0.047
			c-0.045-0.071-0.082-0.147-0.116-0.224C-7.504-11.658-7.597-11.623-7.699-11.623z M-7.4-12.393
			c-0.015-0.023-0.039-0.042-0.059-0.06c-0.01-0.011-0.022-0.027-0.036-0.036c-0.038-0.026-0.082-0.046-0.129-0.058l-0.159-0.032
			l-0.361-0.078l0,0l-0.32-0.069l-0.125-0.026l-0.205-0.044l-0.014-0.003l0.033-0.033l0.139-0.137l0.148-0.15
			c0.012,0.103,0.018,0.183,0.018,0.185l0.048,0.01l0.449,0.096l0.092-0.092l1.389-1.394l-0.031-0.077l0.012-0.009
			c-0.202-0.061-0.438-0.095-0.737-0.095h-0.097c0,0-0.096,0-0.097,0c-0.209,0-0.422,0.015-0.629,0.06
			c-0.355,0.08-0.576,0.428-0.819,0.668c-0.251,0.247-0.495,0.504-0.74,0.758c-0.054,0.057-0.108,0.115-0.164,0.171
			c-0.094,0.094-0.128,0.232-0.091,0.361c0.037,0.127,0.142,0.224,0.273,0.253l0.48,0.103l0.203,0.042l1.155,0.246
			c0.025,0.004,0.051,0.008,0.077,0.008c0.167,0,0.318-0.117,0.354-0.288c0.015-0.067,0.004-0.13-0.016-0.191l-0.023-0.046
			C-7.389-12.361-7.394-12.376-7.4-12.393z M-7.909-11.504l-0.035-0.065l0.018-0.073l0.003-0.014l-0.055-0.012l-0.205,0.233h0.31
			L-7.909-11.504z"/>
	</g>
	<path id="displaced" display="none" fill="#FFFFFF" d="M-6.934-16.63c0.05,0.314-0.162,0.609-0.473,0.659
		c-0.312,0.052-0.609-0.16-0.66-0.472c-0.051-0.313,0.159-0.61,0.474-0.661C-7.283-17.154-6.987-16.942-6.934-16.63z M-7.114-14.352
		l0.508,0.811c0.073,0.115,0.221,0.151,0.338,0.084c0.117-0.07,0.158-0.218,0.093-0.336l-0.13-0.233
		c-0.113-0.199-0.223-0.4-0.334-0.6l-0.225-0.411c-0.027-0.048-0.052-0.102-0.079-0.158c-0.138-0.293-0.356-0.745-0.834-0.704
		c-0.408,0.036-0.823,0.23-1.231,0.576c-0.483,0.382-0.82,0.935-0.833,0.958c-0.017,0.023-0.032,0.05-0.043,0.072
		c-0.001,0.001-0.001,0.002-0.002,0.002l0,0c-0.046,0.085-0.068,0.164-0.012,0.263c0.045,0.078,0.128,0.126,0.217,0.126
		c0.109,0,0.164-0.052,0.219-0.128l0,0c0,0,0-0.002,0-0.002c0.015-0.022,0.03-0.046,0.046-0.072
		c0.002-0.004,0.286-0.459,0.725-0.833c0.136-0.106,0.265-0.179,0.385-0.219l-0.098,1.182c-0.01,0.117-0.045,0.319-0.078,0.432
		l-0.22,0.771c-0.029,0.097-0.111,0.258-0.176,0.337l-0.595,0.737c-0.075,0.093-0.159,0.199-0.089,0.346
		c0.042,0.086,0.128,0.142,0.226,0.142c0.115,0,0.177-0.065,0.254-0.15l0.602-0.649c0.108-0.116,0.248-0.316,0.316-0.458
		l0.299-0.607l1.103,1.854c0.053,0.091,0.123,0.207,0.271,0.207l0,0c0.087,0,0.164-0.044,0.21-0.115
		c0.08-0.123,0.027-0.234-0.018-0.335l-0.894-1.938c-0.034-0.077-0.054-0.231-0.04-0.314L-7.114-14.352z M-6.179-12.335h1.337v0.396
		l1.328-0.767l-1.328-0.767v0.397h-1.337V-12.335z"/>
	<path id="epidemie" display="none" fill="#FFFFFF" d="M-4.656-13.854c0-1.44-1.128-2.611-2.549-2.685
		c0.627,0.06,1.117,0.515,1.117,1.07c0,0.19-0.062,0.366-0.164,0.521c-0.281-0.279-0.667-0.451-1.093-0.451
		c-0.426,0-0.811,0.172-1.09,0.451c-0.1-0.155-0.164-0.331-0.164-0.521c0-0.553,0.488-1.009,1.116-1.069
		c-1.42,0.073-2.548,1.246-2.548,2.686c0,0.434,0.105,0.844,0.287,1.207c-0.25-0.568-0.098-1.208,0.375-1.481
		c0.166-0.095,0.35-0.129,0.535-0.119c-0.035,0.127-0.059,0.258-0.059,0.396c0,0.715,0.489,1.312,1.148,1.49
		c-0.008,0.016-0.021,0.03-0.029,0.045c0,0.001,0,0.001,0,0.004c-0.022,0.049-0.049,0.088-0.083,0.122
		c-0.07,0.093-0.153,0.175-0.257,0.236c-0.476,0.275-1.11,0.084-1.476-0.423c0.481,0.731,1.308,1.214,2.246,1.214
		c0.93,0,1.75-0.473,2.233-1.192c-0.368,0.491-0.99,0.671-1.459,0.402c-0.167-0.097-0.288-0.242-0.371-0.409
		c0.659-0.178,1.145-0.775,1.145-1.489c0-0.138-0.023-0.27-0.058-0.396c0.187-0.012,0.371,0.022,0.538,0.118
		c0.46,0.266,0.617,0.875,0.396,1.432C-4.751-13.048-4.656-13.439-4.656-13.854z M-7.059-12.818
		c-0.011-0.224,0.036-0.459,0.147-0.681l-0.179-0.103c-0.064,0.066-0.154,0.107-0.255,0.107c-0.098,0-0.19-0.041-0.254-0.107
		l-0.175,0.101c0.112,0.224,0.16,0.461,0.147,0.684c-0.455-0.125-0.793-0.539-0.793-1.033c0-0.095,0.015-0.184,0.039-0.271
		c0.199,0.101,0.38,0.257,0.518,0.464l0.18-0.104c-0.009-0.031-0.02-0.06-0.02-0.093c0-0.166,0.114-0.3,0.269-0.34v-0.205
		c-0.249-0.017-0.476-0.094-0.663-0.216c0.194-0.192,0.459-0.31,0.752-0.31c0.294,0,0.56,0.119,0.754,0.31
		c-0.188,0.123-0.414,0.2-0.662,0.216v0.205c0.154,0.041,0.268,0.175,0.268,0.341c0,0.033-0.01,0.062-0.017,0.093l0.181,0.106
		c0.137-0.207,0.317-0.363,0.514-0.463c0.022,0.085,0.039,0.175,0.039,0.268C-6.269-13.357-6.605-12.944-7.059-12.818z"/>
	<path id="enlevement" display="none" fill="#FFFFFF" d="M-5.102-17.068c-0.167,0-0.303,0.136-0.303,0.304v1.235
		c0.073,0.016,0.143,0.046,0.199,0.102c0.159,0.157,0.164,0.416,0.008,0.577l-0.575,0.591l-0.079-0.077l0.576-0.589
		c0.116-0.119,0.112-0.309-0.006-0.426c-0.038-0.035-0.081-0.059-0.127-0.072c-0.051-0.014-0.102-0.015-0.152-0.004
		c-0.055,0.015-0.104,0.042-0.145,0.084c-0.34,0.35-0.683,0.7-1.023,1.05c-0.085,0.087-0.242,0.289-0.237,0.488
		c0.004,0.188-0.002,0.381,0.001,0.571c-0.045-0.035-0.099-0.062-0.16-0.074c-0.176-0.029-0.334,0.077-0.395,0.233h-0.09
		c0-0.042,0-0.086,0-0.129c0.004-0.197-0.004-0.402,0.002-0.6c0.004-0.2-0.152-0.401-0.238-0.489c-0.341-0.35-0.682-0.7-1.024-1.05
		c-0.04-0.042-0.089-0.069-0.145-0.083c-0.05-0.01-0.102-0.009-0.151,0.004c-0.046,0.014-0.091,0.038-0.128,0.074
		c-0.116,0.116-0.119,0.306-0.005,0.425l0.577,0.588l-0.079,0.077l-0.574-0.591c-0.158-0.162-0.154-0.42,0.007-0.577
		c0.057-0.054,0.126-0.086,0.2-0.103v-1.234c0-0.167-0.137-0.304-0.303-0.304c-0.168,0-0.304,0.136-0.304,0.304v2.138
		c0,0.069,0.028,0.134,0.07,0.186l1.033,1.364h-0.092c-0.2,0-0.366,0.163-0.366,0.366c0,0.134,0.077,0.246,0.184,0.31
		c-0.108,0.063-0.184,0.176-0.184,0.309c0,0.202,0.165,0.366,0.366,0.366h0.111v0.204h1.014c0.054,0.052,0.115,0.091,0.19,0.104
		c0.021,0.003,0.04,0.005,0.061,0.005c0.178,0,0.33-0.127,0.358-0.303l0.001-0.009h0.065c0.001,0.067,0,0.133,0.008,0.204h1.032
		v-0.205h0.111c0.201,0,0.366-0.163,0.366-0.367c0-0.132-0.076-0.245-0.185-0.309c0.109-0.063,0.185-0.175,0.185-0.31
		c0-0.202-0.164-0.365-0.366-0.365h-0.091l1.033-1.365c0.042-0.051,0.07-0.116,0.07-0.186v-2.137
		C-4.799-16.932-4.934-17.068-5.102-17.068z M-8.945-12.71c0-0.1,0.082-0.182,0.182-0.182h1.197l-0.063,0.365h-1.134
		C-8.864-12.528-8.945-12.609-8.945-12.71z M-8.945-12.091c0-0.1,0.082-0.183,0.182-0.183h1.089l-0.063,0.366h-1.026
		C-8.864-11.908-8.945-11.989-8.945-12.091z M-7.208-11.747c-0.016,0.1-0.12,0.165-0.211,0.15c-0.048-0.008-0.09-0.035-0.117-0.075
		c-0.029-0.04-0.04-0.088-0.031-0.136l0.202-1.17c0.015-0.089,0.092-0.152,0.182-0.152c0.009,0,0.02,0,0.029,0.002
		c0.098,0.017,0.165,0.111,0.148,0.21L-7.208-11.747z M-5.628-12.091c0,0.101-0.083,0.183-0.182,0.183h-1.185l0.063-0.366h1.122
		C-5.71-12.273-5.628-12.191-5.628-12.091z M-5.628-12.71c0,0.101-0.083,0.182-0.182,0.182h-1.077l0.061-0.358
		c0.001-0.002,0-0.005,0-0.007h1.016C-5.71-12.893-5.628-12.81-5.628-12.71z"/>
	<path id="eruption" display="none" fill="#FFFFFF" d="M-6.801-15.289c0.364,0.125,0.848,0.271,0.95-0.317
		c0.082-0.457,0.692-0.288,0.952-0.317c0.473-0.054,0.115-0.939-0.476-0.952c-0.598-0.014-0.871,0.25-1.108,0.792
		c-0.114,0.262-0.212,0.458-0.635,0.318c-0.423-0.142-0.733,0.207-0.477,0.634c0.229,0.378-0.003,0.792-0.003,0.792h0.639
		c0,0-0.005-0.235-0.158-0.476C-7.297-15.093-7.175-15.417-6.801-15.289z M-10.181-11.344c1.641-1.195,2.051-2.849,2.051-2.849
		h1.687c0,0,0.41,1.653,2.051,2.849H-10.181z"/>
	<path id="returned" display="none" fill="#FFFFFF" d="M-7.457-16.352c0.042,0.259-0.134,0.502-0.391,0.545
		c-0.258,0.043-0.502-0.133-0.544-0.391c-0.042-0.259,0.131-0.502,0.391-0.545C-7.745-16.785-7.498-16.61-7.457-16.352z
		 M-7.605-14.472l0.42,0.671c0.059,0.094,0.183,0.125,0.28,0.068c0.094-0.058,0.128-0.18,0.075-0.277l-0.107-0.192
		c-0.092-0.164-0.182-0.331-0.274-0.496l-0.188-0.34c-0.022-0.038-0.043-0.083-0.065-0.129c-0.115-0.242-0.295-0.616-0.688-0.581
		c-0.339,0.029-0.68,0.189-1.017,0.475c-0.399,0.314-0.678,0.772-0.69,0.791c-0.013,0.02-0.024,0.041-0.035,0.061
		c-0.001,0.001-0.001,0.001-0.001,0.002l0,0c-0.038,0.07-0.056,0.135-0.009,0.217c0.037,0.064,0.105,0.104,0.18,0.104
		c0.09,0,0.135-0.042,0.18-0.106l0,0c0.001,0,0.001,0,0.001,0c0.012-0.02,0.025-0.04,0.038-0.061
		c0.003-0.004,0.237-0.379,0.599-0.688c0.111-0.087,0.217-0.148,0.317-0.181l-0.08,0.977c-0.009,0.097-0.04,0.263-0.067,0.357
		l-0.18,0.636c-0.025,0.08-0.093,0.213-0.146,0.278l-0.49,0.608c-0.063,0.078-0.133,0.165-0.075,0.286
		c0.034,0.07,0.107,0.117,0.186,0.117c0.095,0,0.146-0.054,0.212-0.125l0.497-0.535c0.089-0.096,0.204-0.262,0.26-0.379l0.247-0.5
		l0.911,1.531c0.044,0.076,0.103,0.169,0.226,0.169l0,0c0.071,0,0.136-0.036,0.174-0.096c0.065-0.101,0.022-0.192-0.016-0.274
		l-0.737-1.601c-0.028-0.062-0.044-0.19-0.034-0.259L-7.605-14.472z M-4.538-14.13c0-0.669-0.543-1.211-1.21-1.211h-0.514v0.611
		h0.514c0.33,0,0.598,0.268,0.598,0.6c0,0.331-0.268,0.599-0.598,0.599h-0.107v-0.328l-1.097,0.633l1.097,0.634v-0.329h0.12v0
		C-5.075-12.928-4.538-13.467-4.538-14.13z"/>
	<path id="Attack" display="none" fill="#FFFFFF" d="M-5.876-13.694l1.802-1.154l-1.741-0.185l0.473-2.023l-1.235,1.276
		l-0.344-1.442l-0.52,1.347l-1.41-1.818l0.442,2.278l-1.253-0.278c0,0,0.381,0.729,0.594,1.168l-2.013-0.141l1.822,1.064
		l-0.523,0.539l0.848-0.155l-0.6,2.123l1.784-1.492l0.462,1.153l0.475-0.922l1.538,1.589l-0.769-2.126l1.687,0.17L-5.876-13.694z"/>
	<g id="affected" display="none">
		<path display="inline" fill="#FFFFFF" d="M-8.724-16.507c0,0.262-0.212,0.473-0.473,0.473c-0.261,0-0.474-0.212-0.474-0.473
			s0.212-0.472,0.474-0.472C-8.936-16.979-8.724-16.768-8.724-16.507z M-9.149-13.269l0.104,1.745c0,0.061,0.049,0.111,0.11,0.111
			c0.061,0,0.111-0.05,0.111-0.111l0.094-1.744h0.309l-0.318-1.958l0.642,1.279c0.024,0.057,0.089,0.083,0.145,0.06
			c0.058-0.024,0.084-0.088,0.06-0.146c0,0-0.47-1.273-0.588-1.51c-0.116-0.237-0.231-0.382-0.673-0.382h-0.09
			c-0.441,0-0.557,0.144-0.672,0.382c-0.116,0.238-0.587,1.51-0.587,1.51c-0.024,0.058,0.003,0.122,0.059,0.146
			c0.058,0.024,0.122-0.003,0.146-0.06l0.642-1.279l-0.318,1.956h0.309l0.097,1.744c0,0.062,0.05,0.111,0.109,0.111
			c0.063,0,0.112-0.05,0.112-0.111l0.095-1.744H-9.149L-9.149-13.269z M-5.376-16.981c-0.261,0-0.474,0.212-0.474,0.473
			c0,0.261,0.211,0.474,0.474,0.474c0.26,0,0.472-0.212,0.472-0.474C-4.903-16.769-5.116-16.981-5.376-16.981z M-4.887-14.198
			l0.031-1.028l0.579,1.279c0.023,0.057,0.09,0.083,0.146,0.06c0.058-0.024,0.084-0.089,0.061-0.146c0,0-0.408-1.273-0.524-1.509
			c-0.115-0.237-0.296-0.381-0.737-0.381h-0.091c-0.441,0-0.621,0.144-0.736,0.381c-0.116,0.236-0.523,1.509-0.523,1.509
			c-0.025,0.058,0.001,0.122,0.058,0.146c0.057,0.024,0.124-0.003,0.146-0.06l0.579-1.279l0.03,1.028l-0.092,2.586
			c-0.005,0.102,0.072,0.19,0.174,0.198c0.005,0.001,0.01,0.001,0.014,0.001c0.095,0,0.18-0.075,0.186-0.172l0.21-2.129l0.211,2.129
			c0.007,0.098,0.088,0.172,0.185,0.172c0.004,0,0.009,0,0.012-0.001c0.104-0.008,0.18-0.096,0.174-0.198L-4.887-14.198
			L-4.887-14.198z M-7.287-14.105c-0.162,0-0.292,0.129-0.292,0.29s0.129,0.289,0.292,0.289c0.158,0,0.289-0.129,0.289-0.289
			S-7.128-14.105-7.287-14.105z M-7.287-12.397c0,0,0.129,0.907,0.129,0.907c0.017,0.046,0.06,0.077,0.111,0.077
			s0.095-0.035,0.111-0.082c0-0.004,0.004-0.057,0-0.066l-0.053-1.115l0.019-0.383c0.014-0.13,0.016-0.091,0.164-0.18
			c0.152-0.091,0.409-0.49,0.42-0.509c0.013-0.02,0.038-0.055,0.042-0.078c0.008-0.04-0.02-0.077-0.059-0.085
			c-0.03-0.005-0.055,0.011-0.075,0.032c-0.021,0.022-0.316,0.417-0.538,0.454c-0.05-0.008-0.104-0.033-0.247-0.033h-0.052
			c-0.142,0-0.195,0.026-0.246,0.033c-0.222-0.037-0.518-0.432-0.539-0.454c-0.019-0.021-0.043-0.037-0.075-0.032
			c-0.039,0.009-0.066,0.046-0.058,0.085c0.004,0.022,0.026,0.057,0.04,0.078c0.014,0.02,0.27,0.417,0.421,0.509
			c0.146,0.089,0.152,0.049,0.165,0.18l0.018,0.383l-0.053,1.116c-0.002,0.01,0,0.063,0.002,0.065
			c0.014,0.046,0.059,0.082,0.111,0.082c0.051,0,0.094-0.031,0.109-0.077C-7.418-11.49-7.287-12.397-7.287-12.397"/>
	</g>
	<g id="Floods">
		<path fill="#FFFFFF" d="M26.051,20.486H8.254v-1.778c0.283-0.058,1.161-0.58,1.78-1.78c0.813-1.577,1.78-0.445,1.78-0.445
			c-0.769,0.066-0.582,0.911-0.444,1.335c0.165,0.506,0.607,0.821,0.889,0.89h0.445c0.284-0.058,0.716-0.579,1.333-1.78
			c0.814-1.576,1.781-0.445,1.781-0.445c-0.768,0.067-0.583,0.911-0.445,1.335c0.166,0.507,0.607,0.821,0.89,0.89h0.444
			c0.284-0.058,0.716-0.579,1.336-1.78c0.813-1.576,1.779-0.444,1.779-0.444c-0.766,0.066-0.585,0.911-0.445,1.334
			c0.167,0.507,0.607,0.821,0.891,0.89h0.444c0.283-0.058,1.165-0.579,1.78-1.78c0.815-1.577,1.779-0.445,1.779-0.445
			c-0.767,0.067-0.584,0.911-0.444,1.334c0.164,0.507,0.608,0.821,0.889,0.89h1.335V20.486L26.051,20.486z M23.382,13.367V8.473
			l0.445,0.444l0.444-0.444l-4.228-3.561l-4.227,3.561l0.445,0.444l0.444-0.444v4.895h-0.444c-0.283-0.069-0.725-0.384-0.89-0.891
			c-0.137-0.424-0.323-1.268,0.445-1.335c0,0-0.966-1.131-1.781,0.444c-0.618,1.202-1.049,1.724-1.333,1.781h-0.445
			c-0.281-0.068-0.724-0.383-0.889-0.89c-0.138-0.424-0.325-1.268,0.444-1.335c0,0-0.967-1.131-1.78,0.444
			c-0.619,1.202-1.497,1.723-1.78,1.781v2.67c0.283-0.057,1.161-0.579,1.78-1.78c0.813-1.576,1.78-0.444,1.78-0.444
			c-0.769,0.067-0.582,0.911-0.444,1.334c0.165,0.508,0.607,0.822,0.889,0.89h0.445c0.284-0.057,0.716-0.579,1.333-1.78
			c0.814-1.575,1.781-0.444,1.781-0.444c-0.768,0.067-0.583,0.911-0.445,1.335c0.166,0.507,0.607,0.821,0.89,0.89h0.444
			c0.284-0.057,0.716-0.579,1.336-1.78c0.813-1.576,1.779-0.445,1.779-0.445c-0.766,0.066-0.585,0.911-0.445,1.335
			c0.167,0.507,0.607,0.821,0.891,0.89h0.444c0.283-0.057,1.165-0.579,1.78-1.78c0.815-1.576,1.779-0.445,1.779-0.445
			c-0.767,0.066-0.584,0.911-0.444,1.335c0.164,0.507,0.608,0.821,0.889,0.89h1.335v-2.67H23.382z M9.38,7.311h2.994V8.2
			l2.977-1.719l-2.977-1.718v0.89H9.38V7.311z"/>
	</g>
	<g id="foodsec" display="none">
		<path display="inline" fill="#FFFFFF" d="M-4.985-9.435L-4.985-9.435C-5.006-8.857-5.202-8.23-5.507-7.652
			c0,0-0.72,1.461-2.986,1.461c-2.27,0-3.002-1.449-3.002-1.449c-0.304-0.582-0.486-1.206-0.511-1.797h0.001
			c0-0.015-0.001-0.03-0.001-0.045c0-0.278,0.173-0.538,0.468-0.762l0.316,0.202c-0.196,0.131-0.309,0.277-0.309,0.433
			c0,0.549,1.359,0.993,3.039,0.993c1.674,0,3.033-0.444,3.033-0.993c0-0.377-0.65-0.708-1.609-0.875l0.005-0.399
			c1.224,0.241,2.08,0.776,2.08,1.401C-4.983-9.467-4.984-9.451-4.985-9.435z M-10.839-11.793c-0.011,0.092-0.027,0.241,0.088,0.444
			c0.142,0.244,0.324,0.331,0.382,0.372c-0.011-0.064,0.007-0.253-0.126-0.483c-0.114-0.205-0.239-0.297-0.314-0.368
			c-0.208-0.302-0.446-0.545-0.626-0.736l-0.43-0.446c0,0,0.155,0.178,0.412,0.46C-11.277-12.351-11.045-12.101-10.839-11.793z
			 M-9.763-9.433c0.091,0.086,0.208,0.227,0.465,0.371C-9.009-8.9-8.764-8.9-8.682-8.881C-8.728-8.957-8.821-9.195-9.14-9.373
			c-0.263-0.144-0.458-0.116-0.578-0.096c-0.396-0.23-0.736-0.466-1.01-0.634c-0.39-0.241-0.644-0.364-0.643-0.364
			c-0.001,0,0.244,0.135,0.627,0.388C-10.479-9.903-10.154-9.666-9.763-9.433z M-9.531-10.691c-0.033,0.106-0.077,0.28,0.025,0.533
			c0.119,0.31,0.321,0.439,0.382,0.497c0.003-0.076,0.057-0.291-0.058-0.581c-0.101-0.259-0.233-0.388-0.308-0.484
			c-0.195-0.387-0.435-0.709-0.618-0.96l-0.439-0.592l0.415,0.604C-9.954-11.416-9.72-11.084-9.531-10.691z M-10.268-10.063
			c0.087,0.079,0.2,0.21,0.443,0.338c0.274,0.143,0.501,0.137,0.577,0.152c-0.046-0.067-0.139-0.287-0.439-0.445
			c-0.248-0.129-0.428-0.101-0.541-0.081c-0.372-0.207-0.691-0.421-0.949-0.575c-0.368-0.219-0.607-0.33-0.605-0.331
			c-0.002,0.002,0.231,0.125,0.59,0.355C-10.944-10.491-10.635-10.271-10.268-10.063z M-10.793-10.682
			c0.081,0.072,0.186,0.191,0.415,0.305c0.256,0.128,0.466,0.12,0.537,0.132c-0.044-0.063-0.135-0.262-0.414-0.402
			c-0.229-0.116-0.397-0.086-0.501-0.066c-0.347-0.188-0.646-0.38-0.887-0.521c-0.343-0.199-0.565-0.3-0.564-0.301
			c0,0.001,0.216,0.112,0.552,0.321C-11.426-11.068-11.135-10.871-10.793-10.682z M-11.328-11.585
			c0.152,0.137,0.298,0.146,0.381,0.172c-0.018-0.067-0.003-0.233-0.178-0.388c-0.148-0.128-0.3-0.139-0.376-0.146
			c-0.617-0.528-1.164-0.867-1.29-0.948l-0.027-0.019c-0.005,0.004,0.598,0.401,1.303,1.02
			C-11.493-11.817-11.452-11.69-11.328-11.585z M-11.34-11.293c0.076,0.064,0.175,0.172,0.387,0.274
			c0.234,0.117,0.43,0.105,0.495,0.115c-0.041-0.056-0.127-0.235-0.386-0.363c-0.215-0.102-0.368-0.077-0.463-0.057
			c-0.322-0.167-0.597-0.345-0.821-0.471c-0.318-0.182-0.524-0.271-0.524-0.271s0.202,0.1,0.51,0.292
			C-11.925-11.646-11.657-11.465-11.34-11.293z M-10.167-11.26c-0.023,0.1-0.051,0.262,0.057,0.489
			c0.133,0.279,0.326,0.384,0.388,0.435c-0.005-0.068,0.027-0.271-0.096-0.533c-0.112-0.232-0.24-0.343-0.314-0.425
			c-0.205-0.346-0.442-0.628-0.626-0.849l-0.437-0.518l0.416,0.532C-10.6-11.901-10.367-11.609-10.167-11.26z M-7.744-10.667
			c-0.068,0.068-0.178,0.182-0.211,0.417c-0.042,0.285,0.052,0.466,0.072,0.536c0.034-0.057,0.168-0.2,0.208-0.468
			c0.036-0.241-0.006-0.393-0.022-0.495c0.021-0.376-0.022-0.722-0.055-0.989c-0.047-0.389-0.081-0.631-0.081-0.631l0.058,0.632
			C-7.752-11.395-7.719-11.044-7.744-10.667z M-7.966-11.308c-0.061,0.068-0.153,0.18-0.17,0.398
			c-0.022,0.268,0.076,0.43,0.103,0.493c0.024-0.056,0.142-0.196,0.163-0.448c0.016-0.224-0.033-0.362-0.054-0.458
			c-0.003-0.347-0.062-0.664-0.106-0.909l-0.106-0.578l0.086,0.58C-8.016-11.978-7.965-11.659-7.966-11.308z M-8.224-11.936
			c-0.052,0.066-0.128,0.176-0.13,0.378c-0.005,0.248,0.097,0.39,0.125,0.446c0.02-0.053,0.116-0.191,0.122-0.421
			c0.002-0.209-0.053-0.331-0.076-0.417c-0.028-0.32-0.098-0.607-0.153-0.829l-0.132-0.525l0.111,0.528
			C-8.311-12.55-8.245-12.258-8.224-11.936z M-7.77-9.003c0.04-0.058,0.193-0.201,0.259-0.486c0.056-0.254,0.019-0.421,0.01-0.533
			c0.045-0.404,0.021-0.778,0.005-1.066c-0.029-0.42-0.05-0.683-0.05-0.683l0.02,0.682c0.011,0.293,0.027,0.671-0.026,1.074
			c-0.08,0.069-0.201,0.183-0.256,0.433C-7.874-9.28-7.787-9.081-7.77-9.003z M-9.057-12.349c0.032,0.071,0.063,0.186,0.18,0.33
			c0.129,0.165,0.273,0.218,0.318,0.249c-0.011-0.055-0.01-0.214-0.152-0.395c-0.119-0.146-0.237-0.179-0.313-0.195
			c-0.172-0.23-0.309-0.45-0.427-0.616c-0.164-0.24-0.282-0.373-0.281-0.375c-0.001,0.002,0.11,0.14,0.266,0.383
			C-9.357-12.801-9.228-12.579-9.057-12.349z M-8.948-12.559c0.064,0.15,0.165,0.206,0.216,0.251
			c0.01-0.054,0.079-0.171,0.009-0.343c-0.062-0.143-0.17-0.201-0.224-0.23c-0.256-0.594-0.531-1.022-0.594-1.124l-0.013-0.022
			c-0.006,0.002,0.288,0.493,0.578,1.18C-8.984-12.784-9-12.677-8.948-12.559z M-8.689-11.358c0.138,0.179,0.295,0.243,0.342,0.275
			c-0.007-0.061-0.003-0.236-0.154-0.433c-0.126-0.16-0.258-0.195-0.34-0.215c-0.187-0.251-0.333-0.493-0.457-0.675
			c-0.178-0.26-0.299-0.406-0.299-0.408c0,0,0.116,0.154,0.283,0.418c0.116,0.183,0.253,0.423,0.435,0.677
			C-8.845-11.639-8.812-11.518-8.689-11.358z M-8.52-12.55c-0.042,0.065-0.105,0.168-0.095,0.354
			c0.016,0.228,0.117,0.35,0.146,0.399c0.013-0.049,0.094-0.182,0.08-0.395c-0.011-0.189-0.069-0.297-0.097-0.375
			c-0.043-0.289-0.13-0.547-0.192-0.745l-0.151-0.471c0,0,0.046,0.182,0.133,0.476C-8.64-13.104-8.559-12.842-8.52-12.55z
			 M-8.72-11.09c0.036,0.087,0.07,0.219,0.2,0.393c0.146,0.195,0.31,0.267,0.363,0.305c-0.009-0.067,0-0.258-0.159-0.474
			c-0.133-0.176-0.274-0.214-0.362-0.236c-0.195-0.275-0.352-0.537-0.481-0.736c-0.189-0.283-0.322-0.443-0.322-0.444
			c0,0.001,0.123,0.168,0.302,0.456C-9.056-11.627-8.911-11.366-8.72-11.09z M-10.622-9.363c0,0.001,0.216,0.124,0.556,0.364
			c0.023,0.004,0.046,0.009,0.073,0.015C-10.374-9.237-10.622-9.363-10.622-9.363z M-7.916-8.889
			c-0.05-0.077-0.103-0.137-0.156-0.181c-0.019-0.049-0.035-0.094-0.056-0.135c0.112,0.118,0.221,0.176,0.261,0.208
			c0-0.004,0-0.011,0-0.019c0.014,0.044,0.025,0.092,0.041,0.14c0.021-0.001,0.045-0.002,0.065-0.003
			c-0.037-0.136-0.084-0.268-0.131-0.393c-0.017-0.068-0.044-0.14-0.089-0.22C-8.024-9.59-8.067-9.684-8.108-9.773
			c0.051,0.035,0.093,0.058,0.114,0.075C-7.998-9.77-7.982-9.976-8.15-10.212c-0.1-0.139-0.205-0.2-0.293-0.233l-0.265-0.518
			c0,0,0.088,0.189,0.238,0.508c-0.025-0.006-0.044-0.013-0.063-0.018c-0.206-0.301-0.367-0.585-0.506-0.798
			c-0.195-0.307-0.336-0.481-0.335-0.481c0,0.001,0.13,0.18,0.316,0.493c0.127,0.215,0.279,0.499,0.479,0.8
			c0.035,0.092,0.069,0.235,0.204,0.426c0.064,0.089,0.13,0.154,0.193,0.204c0.021,0.051,0.046,0.106,0.071,0.163
			c-0.113-0.116-0.23-0.152-0.309-0.176c-0.023-0.034-0.043-0.069-0.064-0.103c-0.133-0.284-0.275-0.534-0.393-0.742
			c-0.263-0.457-0.432-0.737-0.431-0.737l0.399,0.75c0.032,0.056,0.063,0.118,0.096,0.179c-0.042-0.075-0.085-0.146-0.124-0.211
			c-0.204-0.33-0.351-0.516-0.351-0.517c0,0.001,0.135,0.195,0.328,0.531c0.114,0.199,0.245,0.451,0.407,0.725
			c0.073,0.16,0.141,0.329,0.201,0.508c-0.016,0.035-0.038,0.081-0.052,0.135c-0.181-0.309-0.327-0.594-0.458-0.814
			c-0.042-0.074-0.082-0.137-0.118-0.196c-0.164-0.339-0.354-0.63-0.505-0.864c-0.265-0.41-0.437-0.663-0.437-0.663l0.409,0.676
			c0.176,0.29,0.405,0.663,0.583,1.097c-0.039,0.112-0.104,0.295-0.012,0.575c0.108,0.341,0.314,0.495,0.376,0.563
			c0.006-0.075,0.068-0.283-0.007-0.575c0.048,0.088,0.096,0.178,0.15,0.272C-8.444-9.15-8.449-9.017-8.408-8.85
			c0.168-0.001,0.335-0.007,0.5-0.018C-7.91-8.875-7.912-8.88-7.916-8.889z M-10.304-9.521c-0.412-0.265-0.682-0.397-0.68-0.398
			c0,0,0.26,0.146,0.663,0.423c0.234,0.161,0.519,0.373,0.846,0.592C-9.433-8.9-9.393-8.897-9.353-8.893
			C-9.72-9.124-10.042-9.354-10.304-9.521z M-7.335-9.358c0.079-0.428,0.071-0.832,0.071-1.143l-0.012-0.735
			c0,0-0.008,0.281-0.013,0.733c-0.008,0.316-0.015,0.721-0.099,1.149C-7.478-9.285-7.614-9.17-7.692-8.909
			C-7.695-8.9-7.696-8.893-7.699-8.884c0.119-0.012,0.234-0.025,0.348-0.041C-7.314-9.118-7.332-9.259-7.335-9.358z"/>
	</g>
</g>
</svg>
