<?xml version="1.0" encoding="utf-8"?>
<!-- Generator: Adobe Illustrator 16.0.0, SVG Export Plug-In . SVG Version: 6.00 Build 0)  -->
<!DOCTYPE svg PUBLIC "-//W3C//DTD SVG 1.1//EN" "http://www.w3.org/Graphics/SVG/1.1/DTD/svg11.dtd">
<svg version="1.1" id="Layer_1" xmlns="http://www.w3.org/2000/svg" xmlns:xlink="http://www.w3.org/1999/xlink" x="0px" y="0px"
	 width="33.35px" height="40px" viewBox="0 0 33.35 40" enable-background="new 0 0 33.35 40" xml:space="preserve">
<g id="PinColor">
	<path id="PinOmbre" opacity="0.3" enable-background="new    " d="M28.868,30.302c0,1.769-3.884,3.253-9.105,3.644
		c-0.883,0.068-2.747,4.218-2.747,4.218s-1.93-4.149-2.84-4.222c-5.174-0.403-9.014-1.881-9.014-3.64
		c0-2.069,5.307-3.747,11.853-3.747C23.56,26.555,28.868,28.229,28.868,30.302z"/>
	<path id="vert" display="none" fill="#2ABF00" stroke="#1D7500" stroke-width="0.2" stroke-miterlimit="10" d="M28.868,12.907
		c0,5.416-3.884,9.956-9.105,11.155c-0.883,0.199-2.747,12.896-2.747,12.896s-1.93-12.695-2.84-12.922
		c-5.173-1.227-9.013-5.747-9.013-11.134c0-6.331,5.307-11.463,11.853-11.463C23.56,1.439,28.868,6.576,28.868,12.907z"/>
	<path id="orange" fill="#FF8500" stroke="#7F4500" stroke-width="0.2" stroke-miterlimit="10" d="M28.868,12.907
		c0,5.416-3.884,9.956-9.105,11.155c-0.883,0.199-2.747,12.896-2.747,12.896s-1.93-12.695-2.84-12.922
		c-5.173-1.227-9.013-5.747-9.013-11.134c0-6.331,5.307-11.463,11.853-11.463C23.56,1.439,28.868,6.576,28.868,12.907z"/>
	<path id="gris" display="none" fill="#A5A5A5" stroke="#595959" stroke-width="0.2" stroke-miterlimit="10" d="M28.868,12.907
		c0,5.416-3.884,9.956-9.105,11.155c-0.883,0.199-2.747,12.896-2.747,12.896s-1.93-12.695-2.84-12.922
		c-5.173-1.227-9.013-5.747-9.013-11.134c0-6.331,5.307-11.463,11.853-11.463C23.56,1.439,28.868,6.576,28.868,12.907z"/>
	<path id="bleu" display="none" fill="#0092FF" stroke="#00477C" stroke-width="0.2" stroke-miterlimit="10" d="M28.868,12.907
		c0,5.416-3.884,9.956-9.105,11.155c-0.883,0.199-2.747,12.896-2.747,12.896s-1.93-12.695-2.84-12.922
		c-5.173-1.227-9.013-5.747-9.013-11.134c0-6.331,5.307-11.463,11.853-11.463C23.56,1.439,28.868,6.576,28.868,12.907z"/>
</g>
<g id="Icons">
	<g id="Minimal">
		<path id="Election" display="none" fill="#565656" d="M32.537-1l-4.382-1.877c-0.132-0.056-0.281-0.017-0.368,0.093L26.534-1.22
			c-0.056,0.07-0.076,0.169-0.06,0.261c0.021,0.088,0.077,0.16,0.155,0.203l-3.925,1.471c-0.333,0.124-0.614,0.357-0.795,0.66
			l-1.299,2.167c-0.274,0.46-0.297,1.022-0.057,1.503l0.094,0.183h-1.37c-0.174,0-0.314,0.14-0.314,0.314v5.943h-0.938
			c-0.174,0-0.311,0.14-0.311,0.311c0,0.172,0.137,0.313,0.311,0.313h10.637c0.172,0,0.309-0.14,0.309-0.313
			c0-0.171-0.137-0.311-0.309-0.311h-0.941V8.287c0-0.105-0.059-0.209-0.146-0.263c-0.092-0.058-0.204-0.066-0.3-0.021
			c-0.347,0.162-0.6,0.243-0.72,0.279c-0.025,0.006-0.052,0.016-0.073,0.034l-2.034,1.22c-0.324,0.197-0.694,0.299-1.071,0.299
			c-0.691,0-1.341-0.344-1.736-0.93c-0.313-0.47-0.42-1.036-0.305-1.588c0.117-0.551,0.445-1.024,0.918-1.326l0.295-0.188
			c0.221-0.131,0.41-0.252,0.583-0.359c0.12-0.076,0.175-0.222,0.137-0.356c-0.077-0.251-0.209-0.474-0.329-0.646
			c0.479-0.209,1.122-0.582,1.448-0.959c0,0,0.006,0.002,0.008,0.002c0.065,0.042,0.146,0.085,0.236,0.13
			c0.006,0.002,0.008,0.004,0.016,0.006l0,0c0.234,0.112,0.529,0.226,0.867,0.293c-0.36,0.45-0.733,1.012-0.869,1.386
			c-0.258,0.114-0.797,0.42-2.053,1.219c-0.331,0.212-0.561,0.541-0.639,0.927c-0.083,0.387-0.011,0.781,0.212,1.111
			c0.279,0.42,0.738,0.652,1.215,0.652c0.255,0,0.513-0.069,0.747-0.208l2.149-1.29c0.334-0.082,2.007-0.583,3.272-2.631
			c0.995-1.604,1.55-2.897,1.782-3.483l0.039,0.02c0.13,0.064,0.271,0.098,0.417,0.098c0.237,0,0.478-0.096,0.651-0.263
			c0.188-0.175,0.285-0.417,0.285-0.674v-1.49C32.722-0.839,32.651-0.952,32.537-1z"/>
	</g>
	<g id="Faible">
		<path id="Famine" display="none" fill="#F9F9F9" d="M29.719,10.516l-2.486,0.469l-4.059-2.207l1.474-1.841l3.323,1.103
			L29.719,10.516z M33.539,6.202v0.276l-2.617,0.83L28.34,7.673l-3.322-1.104l-0.779-0.367h0.442
			c-0.104-0.987-0.248-1.736-0.315-2.715h-0.004c-0.004-0.029-0.037-0.685-0.045-0.965c-0.052-0.295-0.19-0.411-0.652-0.729
			c-0.254-0.163-0.442-0.222-0.547-0.22c-0.17,0-0.32,0.185-0.356,0.734c0.736,0.126,0.788,0.944,0.788,0.944
			c0.066,0.582-0.221,1.431-0.876,1.65c-1.216,0.406-1.092-1.935-0.404-2.497c0.018-0.674,0.208-1.293,0.849-1.318
			c0.255,0.002,0.513,0.105,0.813,0.296c0.145,0.086,0.261,0.173,0.362,0.263c-0.014-0.223-0.027-0.45-0.027-0.683
			c-0.002-0.492,0.076-1.029,0.513-1.408c0.225-0.205,0.479-0.31,0.728-0.308c0.648,0.032,1.052,0.591,1.285,1.164
			c0.272-0.12,0.613-0.178,1.006-0.042c0.998,0.346,1.536,2.09,1.12,2.697c-0.985,1.415-3.464-1.219-2.811-2.138
			c0,0,0.097-0.126,0.268-0.264c-0.192-0.507-0.579-0.961-0.868-0.929c-0.109,0.002-0.239,0.042-0.402,0.186
			c-0.274,0.243-0.35,0.588-0.35,1.042c0,0.318,0.037,0.674,0.037,1.029c0,0.187,0.014,0.35,0.021,0.528
			c0.045,0.316,0.047,0.562,0.045,0.896c0.066,0.977,0.462,1.779,0.566,2.786H33.539z M26.555,0.857l1.879,2.047
			c-0.337-1.451-1.528-2.26-1.528-2.26L26.555,0.857z M22.659,2.615l-0.336,0.138c0,0-0.167,1.144,0,1.742L22.659,2.615z
			 M20.978,9.517l1.49-0.897l1.56-1.926L23.542,6.2h-3.439L19.42,7.563L20.978,9.517z M22.721,9.208l-2.648,1.801l0.355,0.437h6.088
			l-0.02-0.089L22.721,9.208z M17.277,6.202v2.077l1.695-0.909l0.512-1.168H17.277z M28.831,8.117l1.639,2.379l3.071,0.721V8.496
			l-2.21-0.711L28.831,8.117z M33.539,7.9V6.939l-1.723,0.467L33.539,7.9z M19.013,8.033l-1.737,0.828v2.584h1.271l1.892-1.551
			L19.013,8.033z M28.114,11.445h3.972l-1.9-0.459L28.114,11.445z"/>
		<path id="Cyclone" display="none" fill="#FFFFFF" d="M25.472,0.614C25.388,0.61,25.303,0.6,25.22,0.6
			c-0.747,0-1.446,0.193-2.056,0.53c1.09-3.71,3.806-4.032,3.806-4.032s-6.002,0.5-6.002,7.504c0.004,0,0.008,0,0.012,0
			c-0.004,0.085-0.012,0.167-0.012,0.252c0,0.741,0.191,1.443,0.526,2.055c-3.707-1.09-4.031-3.805-4.031-3.805
			s0.501,6.004,7.507,6.004c0-0.006,0-0.008,0-0.014c0.082,0.004,0.165,0.014,0.249,0.014c0.747,0,1.447-0.194,2.057-0.532
			c-1.09,3.711-3.81,4.035-3.81,4.035s6.007-0.502,6.007-7.507c-0.005,0-0.009,0-0.013,0c0.004-0.083,0.013-0.165,0.013-0.248
			c0-0.746-0.192-1.447-0.532-2.055c3.71,1.089,4.035,3.806,4.035,3.806s-0.498-6.005-7.504-6.005
			C25.472,0.605,25.472,0.609,25.472,0.614z"/>
		<path id="tsunami" display="none" fill="#FFFFFF" d="M32.763,9.794c-12.355,0.7-8.902-8.75-5.699-7.935
			c-0.33,0.201-0.543,0.897-0.338,1.365c0.224,0.501,0.945,0.787,1.362,0.683c0.993-0.257,1.039-1.654,0.683-2.388
			c-0.371-0.763-1.356-1.704-3.069-1.704c-4.138,0-6.961,2.113-8.023,5.746v5.342h15.088V9.794H32.763z"/>
		<path id="earthquake" display="none" fill="#FFFFFF" d="M29.618,5.32c-0.212,0-0.407,0.118-0.507,0.305l-0.823,1.551l-1.016-2.975
			c-0.079-0.225-0.285-0.377-0.523-0.389c-0.244-0.006-0.456,0.132-0.552,0.352l-0.694,1.654l-1.096-6.586
			c-0.057-0.275-0.315-0.484-0.578-0.47c-0.281,0.006-0.516,0.191-0.553,0.472l-0.974,7.642l-0.786-4.103
			c-0.046-0.24-0.241-0.426-0.487-0.46c-0.242-0.033-0.484,0.098-0.592,0.321l-1.289,2.685h-2.001v1.144h2.362
			c0.221,0,0.422-0.126,0.519-0.323l0.693-1.443l1.115,5.818c0.056,0.271,0.287,0.466,0.565,0.466c0.004,0,0.01,0,0.014,0
			c0.279-0.008,0.515-0.219,0.554-0.498l0.955-7.51l0.8,4.945c0.047,0.249,0.25,0.438,0.501,0.466
			c0.256,0.023,0.496-0.114,0.595-0.349l0.86-2.042l0.954,2.804c0.072,0.217,0.268,0.369,0.491,0.388
			c0.23,0.012,0.448-0.101,0.558-0.303l1.277-2.419h2.459V5.32H29.618z"/>
	</g>
	<g id="Modéré">
	</g>
	<g id="Important">
	</g>
	<g id="Elevé">
	</g>
	<g id="Extreme" display="none">
		<path id="rebelion" display="inline" fill="#FFFFFF" d="M27.559,0.825c0,1.38-1.116,2.495-2.495,2.495
			c-1.381,0-2.496-1.118-2.496-2.495c0-1.381,1.115-2.497,2.496-2.497C26.443-1.672,27.559-0.555,27.559,0.825z M20.897,11.415
			h1.525h0.082l0.057-0.117l0.554-0.543l-0.511-0.108l-0.813-0.173L20.897,11.415z M31.342,1.289l-0.537,0.535l0.036,0.037
			l-0.432,0.437c0.057,0.053,0.113,0.107,0.161,0.169l0.436-0.438l0.09,0.082l0.529-0.54L31.342,1.289z M27.895,4.059l-0.232,0.227
			l0.028,0.065l0.053,0.123l-3.641,3.65l0.393,0.083c0.357,0.075,0.669,0.291,0.871,0.602c0.025,0.043,0.033,0.098,0.058,0.145
			l0.01-0.013l0.272,0.177l0.096-0.021l1.06,0.77l0.715-0.978l-1.581-1.233l0.034-0.104h0.263l1.553-1.82l0.173-1.632L27.895,4.059z
			 M29.585,2.444c-0.472-0.052-0.93,0.3-0.984,0.789l-0.062,0.533l0,0l-0.037,0.383l-0.173,1.634l-0.016,0.152l-0.099,0.117
			l-1.39,1.628l1.045,0.822l0.379,0.296l-0.221,0.298l0.055,0.111c0.146,0.313,0.465,0.507,0.81,0.507
			c0.047,0,0.097-0.002,0.146-0.012c0.392-0.067,0.693-0.387,0.734-0.781l0.596-5.492C30.429,2.935,30.073,2.493,29.585,2.444z
			 M27.767,9.457l-0.508,0.702l-0.293,0.4l-0.399-0.292l-0.878-0.634l-0.079,0.02l-0.03-0.022c0,0.075-0.004,0.148-0.021,0.223
			c-0.018,0.074-0.044,0.14-0.073,0.209c-0.055,0.13-0.126,0.242-0.212,0.347l0.063,0.14c0.062,0.139,0.146,0.322,0.25,0.48
			l0.244,0.383h1.875L27.767,9.457z M24.2,10.953c-0.021,0-0.043-0.006-0.064-0.008c-0.01,0.041-0.016,0.07-0.016,0.07l0.212,0.398
			h0.509l0.328-0.115c-0.112-0.173-0.202-0.361-0.285-0.548C24.678,10.869,24.452,10.953,24.2,10.953z M24.935,9.063
			c-0.037-0.056-0.092-0.101-0.144-0.146c-0.029-0.028-0.053-0.066-0.09-0.088c-0.093-0.065-0.199-0.113-0.314-0.14l-0.39-0.079
			l-0.889-0.19l0,0l-0.784-0.168l-0.304-0.063l-0.506-0.109l-0.031-0.007l0.079-0.081l0.34-0.337l0.364-0.366
			c0.028,0.251,0.045,0.45,0.045,0.454l0.118,0.024L23.532,8l0.224-0.227l3.406-3.42l-0.076-0.19l0.027-0.022
			c-0.494-0.148-1.073-0.233-1.807-0.233h-0.242c0,0-0.234,0-0.236,0c-0.516,0-1.034,0.035-1.543,0.148
			c-0.872,0.196-1.413,1.05-2.01,1.639c-0.617,0.605-1.216,1.237-1.814,1.858c-0.132,0.139-0.266,0.283-0.402,0.42
			c-0.229,0.23-0.313,0.569-0.222,0.885c0.089,0.313,0.348,0.55,0.669,0.621l1.18,0.251l0.499,0.105l2.83,0.604
			c0.064,0.01,0.126,0.021,0.189,0.021c0.412,0,0.779-0.288,0.87-0.706c0.033-0.165,0.008-0.32-0.041-0.468l-0.056-0.113
			C24.961,9.14,24.948,9.104,24.935,9.063z M23.684,11.243l-0.085-0.16l0.043-0.18l0.009-0.034l-0.139-0.03l-0.499,0.573h0.76
			L23.684,11.243z"/>
	</g>
	<path id="displaced" display="none" fill="#FFFFFF" d="M26.076-1.33c0.122,0.771-0.396,1.494-1.159,1.618
		C24.15,0.416,23.42-0.104,23.296-0.87c-0.128-0.769,0.393-1.497,1.162-1.622C25.222-2.617,25.948-2.098,26.076-1.33z M25.637,4.256
		l1.246,1.991c0.177,0.281,0.543,0.371,0.826,0.206c0.287-0.171,0.386-0.535,0.229-0.825l-0.318-0.573
		c-0.273-0.488-0.546-0.982-0.817-1.472l-0.554-1.006c-0.064-0.118-0.126-0.25-0.191-0.388c-0.339-0.719-0.874-1.828-2.047-1.728
		c-1.003,0.087-2.021,0.564-3.021,1.415c-1.186,0.936-2.013,2.294-2.045,2.352c-0.042,0.057-0.078,0.121-0.105,0.177
		c-0.004,0.002-0.004,0.004-0.007,0.006l0,0c-0.112,0.209-0.167,0.401-0.028,0.645c0.109,0.192,0.315,0.309,0.532,0.309
		c0.27,0,0.402-0.127,0.535-0.315l0,0c0.002,0,0.002-0.004,0.002-0.004c0.036-0.055,0.072-0.115,0.115-0.177
		c0.006-0.011,0.702-1.128,1.777-2.044c0.333-0.262,0.649-0.44,0.944-0.538l-0.241,2.899c-0.022,0.287-0.113,0.783-0.189,1.058
		l-0.543,1.891c-0.07,0.238-0.271,0.634-0.43,0.827l-1.459,1.809c-0.183,0.229-0.392,0.487-0.22,0.848
		c0.102,0.212,0.313,0.348,0.551,0.348c0.283,0,0.435-0.161,0.626-0.368l1.474-1.59c0.264-0.285,0.607-0.776,0.774-1.126
		l0.734-1.488l2.705,4.546c0.133,0.223,0.302,0.506,0.665,0.506l0,0c0.212,0,0.404-0.108,0.516-0.283
		c0.197-0.301,0.065-0.574-0.046-0.821l-2.189-4.754c-0.083-0.187-0.132-0.566-0.095-0.771L25.637,4.256z M27.928,9.203h3.28v0.974
		l3.259-1.881l-3.259-1.881v0.974h-3.28V9.203z"/>
	<path id="epidemie" display="none" fill="#FFFFFF" d="M31.666,5.481c0-3.534-2.769-6.407-6.255-6.586
		c1.539,0.146,2.739,1.264,2.739,2.624c0,0.467-0.155,0.898-0.403,1.278c-0.689-0.685-1.633-1.107-2.681-1.107
		c-1.042,0-1.989,0.421-2.671,1.105c-0.248-0.38-0.403-0.811-0.403-1.279c0-1.357,1.198-2.476,2.735-2.623
		c-3.481,0.179-6.251,3.056-6.251,6.588c0,1.064,0.259,2.069,0.706,2.961c-0.613-1.395-0.242-2.963,0.922-3.634
		c0.404-0.234,0.86-0.317,1.309-0.292c-0.084,0.311-0.141,0.634-0.141,0.973c0,1.754,1.195,3.219,2.815,3.654
		c-0.022,0.038-0.049,0.074-0.07,0.11c0,0.004,0,0.004,0,0.009c-0.053,0.121-0.124,0.217-0.201,0.301
		c-0.175,0.227-0.376,0.43-0.634,0.579c-1.169,0.674-2.722,0.208-3.62-1.037c1.181,1.792,3.206,2.978,5.509,2.978
		c2.284,0,4.292-1.16,5.479-2.924c-0.902,1.203-2.43,1.646-3.581,0.986c-0.407-0.238-0.706-0.593-0.911-1.004
		c1.62-0.437,2.812-1.902,2.812-3.652c0-0.339-0.055-0.662-0.142-0.973c0.455-0.029,0.906,0.054,1.316,0.29
		c1.13,0.651,1.516,2.147,0.975,3.514C31.431,7.457,31.666,6.496,31.666,5.481z M25.771,8.021c-0.026-0.549,0.089-1.126,0.363-1.671
		l-0.441-0.253C25.538,6.26,25.315,6.36,25.07,6.36c-0.241,0-0.467-0.1-0.623-0.263l-0.431,0.248
		c0.275,0.548,0.393,1.13,0.359,1.678c-1.114-0.305-1.943-1.321-1.943-2.533c0-0.232,0.034-0.451,0.095-0.664
		c0.483,0.246,0.929,0.629,1.267,1.138l0.443-0.257c-0.021-0.075-0.051-0.146-0.051-0.227c0-0.408,0.28-0.738,0.662-0.836V4.142
		c-0.609-0.04-1.167-0.229-1.63-0.53c0.481-0.47,1.129-0.759,1.848-0.759c0.721,0,1.372,0.291,1.851,0.761
		c-0.462,0.301-1.017,0.489-1.627,0.528v0.503c0.378,0.098,0.657,0.428,0.657,0.836c0,0.082-0.022,0.152-0.043,0.227l0.445,0.261
		c0.339-0.507,0.781-0.891,1.264-1.136c0.053,0.209,0.093,0.428,0.093,0.656C27.706,6.699,26.885,7.711,25.771,8.021z"/>
	<path id="enlevement" display="none" fill="#FFFFFF" d="M30.571-2.404c-0.407,0-0.743,0.333-0.743,0.744v3.03
		c0.181,0.04,0.352,0.115,0.491,0.251c0.391,0.386,0.397,1.021,0.018,1.417l-1.408,1.449l-0.196-0.189l1.415-1.445
		c0.282-0.292,0.274-0.758-0.015-1.044c-0.093-0.085-0.198-0.146-0.311-0.177c-0.128-0.034-0.252-0.036-0.374-0.01
		c-0.138,0.036-0.26,0.104-0.356,0.207c-0.837,0.857-1.676,1.717-2.514,2.575c-0.211,0.215-0.594,0.708-0.578,1.198
		c0.007,0.462-0.01,0.936,0.002,1.401c-0.11-0.087-0.244-0.153-0.395-0.181c-0.433-0.071-0.821,0.188-0.972,0.571h-0.218
		c0-0.104,0-0.211,0.002-0.315c0.01-0.484-0.007-0.987,0.004-1.472c0.01-0.492-0.373-0.985-0.583-1.201
		c-0.836-0.859-1.673-1.718-2.512-2.577c-0.096-0.102-0.216-0.171-0.355-0.205c-0.122-0.026-0.248-0.024-0.372,0.01
		c-0.114,0.034-0.222,0.093-0.313,0.18c-0.286,0.284-0.295,0.75-0.012,1.044l1.415,1.441l-0.195,0.189l-1.407-1.449
		c-0.386-0.397-0.375-1.031,0.018-1.415c0.14-0.134,0.312-0.211,0.491-0.252v-3.03c0-0.409-0.336-0.744-0.744-0.744
		c-0.411,0-0.744,0.335-0.744,0.744v5.245c0,0.171,0.069,0.33,0.171,0.457l2.534,3.346h-0.226c-0.489,0-0.896,0.401-0.896,0.898
		c0,0.329,0.186,0.603,0.448,0.759c-0.264,0.156-0.448,0.433-0.448,0.757c0,0.498,0.401,0.899,0.896,0.899h0.273V11.2h2.488
		c0.129,0.129,0.28,0.224,0.464,0.255c0.054,0.008,0.101,0.012,0.149,0.012c0.437,0,0.81-0.311,0.883-0.743l0.004-0.022h0.158
		c0.002,0.165,0,0.327,0.018,0.499h2.533v-0.498h0.274c0.49,0,0.896-0.399,0.896-0.899c0-0.325-0.188-0.602-0.45-0.757
		c0.266-0.156,0.45-0.431,0.45-0.761c0-0.495-0.401-0.896-0.896-0.896h-0.225l2.533-3.348c0.105-0.127,0.171-0.285,0.171-0.457
		v-5.243C31.315-2.071,30.983-2.404,30.571-2.404z M21.143,8.284c0-0.246,0.202-0.446,0.444-0.446h2.939l-0.155,0.896H21.59
		C21.345,8.732,21.143,8.534,21.143,8.284z M21.143,9.805c0-0.244,0.202-0.449,0.444-0.449h2.676l-0.154,0.897H21.59
		C21.345,10.251,21.143,10.056,21.143,9.805z M25.404,10.647c-0.037,0.247-0.293,0.406-0.516,0.369
		c-0.118-0.021-0.22-0.085-0.291-0.182c-0.069-0.099-0.095-0.218-0.074-0.334l0.493-2.87c0.039-0.217,0.229-0.373,0.448-0.373
		c0.021,0,0.047,0,0.073,0.006c0.24,0.042,0.403,0.273,0.36,0.517L25.404,10.647z M29.281,9.805c0,0.249-0.201,0.449-0.445,0.449
		h-2.907l0.154-0.897h2.75C29.079,9.358,29.281,9.559,29.281,9.805z M29.281,8.284c0,0.248-0.201,0.447-0.445,0.447h-2.645
		l0.151-0.877c0.002-0.006,0-0.012,0-0.018h2.491C29.079,7.838,29.281,8.041,29.281,8.284z"/>
	<path id="eruption" display="none" fill="#FFFFFF" d="M26.404,1.96c0.896,0.305,2.079,0.667,2.331-0.776
		c0.202-1.122,1.698-0.707,2.334-0.777c1.16-0.134,0.282-2.304-1.165-2.336c-1.468-0.033-2.139,0.612-2.722,1.945
		c-0.281,0.641-0.52,1.124-1.557,0.778c-1.038-0.347-1.798,0.506-1.167,1.557c0.558,0.929-0.008,1.944-0.008,1.944h1.565
		c0,0-0.013-0.576-0.391-1.167C25.185,2.44,25.488,1.645,26.404,1.96z M18.113,11.637c4.024-2.932,5.03-6.989,5.03-6.989h4.137
		c0,0,1.004,4.055,5.028,6.989H18.113z"/>
	<path id="returned" display="none" fill="#FFFFFF" d="M24.793-0.648c0.103,0.634-0.328,1.232-0.958,1.337
		c-0.636,0.104-1.232-0.326-1.337-0.959c-0.104-0.634,0.323-1.232,0.959-1.336C24.088-1.71,24.693-1.283,24.793-0.648z
		 M24.431,3.964L25.46,5.61c0.144,0.229,0.448,0.304,0.686,0.166c0.231-0.14,0.315-0.44,0.186-0.681l-0.263-0.471
		c-0.227-0.403-0.444-0.812-0.673-1.216l-0.459-0.833c-0.053-0.094-0.104-0.204-0.158-0.317c-0.283-0.594-0.728-1.51-1.693-1.425
		C22.259,0.904,21.419,1.297,20.594,2c-0.978,0.771-1.663,1.894-1.693,1.939c-0.029,0.049-0.059,0.1-0.086,0.149
		c-0.002,0.002-0.004,0.002-0.004,0.004l0,0c-0.092,0.173-0.136,0.331-0.021,0.533c0.09,0.159,0.257,0.256,0.441,0.256
		c0.22,0,0.332-0.104,0.441-0.261l0,0c0.002-0.002,0.002-0.002,0.002-0.002c0.03-0.048,0.062-0.098,0.094-0.151
		c0.006-0.008,0.581-0.929,1.468-1.687c0.271-0.213,0.531-0.362,0.779-0.443l-0.198,2.395c-0.022,0.238-0.095,0.646-0.162,0.877
		l-0.44,1.559c-0.062,0.197-0.229,0.524-0.357,0.684l-1.204,1.491c-0.152,0.19-0.323,0.403-0.182,0.701
		c0.084,0.174,0.262,0.287,0.454,0.287c0.23,0,0.356-0.134,0.518-0.305l1.219-1.313c0.218-0.234,0.499-0.643,0.639-0.93l0.604-1.228
		l2.237,3.753c0.11,0.186,0.252,0.416,0.553,0.416l0,0c0.174,0,0.331-0.087,0.427-0.236c0.158-0.247,0.055-0.47-0.038-0.673
		l-1.809-3.928c-0.071-0.152-0.108-0.465-0.081-0.634L24.431,3.964z M31.955,4.801c0-1.64-1.335-2.97-2.969-2.97h-1.265V3.33h1.263
		c0.809,0,1.468,0.658,1.468,1.471c0,0.812-0.659,1.47-1.468,1.47h-0.262V5.466L26.027,7.02l2.696,1.555V7.769h0.293V7.767
		C30.636,7.752,31.955,6.43,31.955,4.801z"/>
	<path id="Attack" display="none" fill="#FFFFFF" d="M28.673,5.87l4.423-2.83l-4.272-0.454l1.161-4.963l-3.031,3.13l-0.846-3.538
		l-1.27,3.302l-3.46-4.459l1.087,5.588L19.39,0.963c0,0,0.933,1.79,1.457,2.868l-4.939-0.346l4.469,2.612l-1.283,1.32l2.077-0.379
		l-1.472,5.206l4.376-3.658l1.134,2.828l1.167-2.262l3.774,3.896l-1.887-5.215l4.134,0.418L28.673,5.87z"/>
	<g id="affected" display="none">
		<path display="inline" fill="#FFFFFF" d="M21.685-1.028c0,0.641-0.523,1.159-1.159,1.159c-0.642,0-1.164-0.52-1.164-1.159
			c0-0.64,0.521-1.158,1.164-1.158C21.166-2.185,21.685-1.669,21.685-1.028z M20.645,6.915l0.254,4.28
			c0,0.15,0.122,0.271,0.27,0.271c0.151,0,0.274-0.124,0.274-0.271l0.231-4.278h0.757L21.65,2.114l1.572,3.138
			c0.063,0.138,0.222,0.203,0.358,0.147c0.14-0.06,0.206-0.218,0.146-0.357c0,0-1.152-3.123-1.442-3.704
			C21.998,0.755,21.717,0.4,20.634,0.4h-0.218c-1.083,0-1.367,0.354-1.651,0.937s-1.44,3.704-1.44,3.704
			c-0.06,0.142,0.007,0.299,0.145,0.359c0.141,0.058,0.298-0.008,0.358-0.147L19.4,2.116l-0.782,4.799h0.758l0.234,4.278
			c0,0.15,0.123,0.271,0.271,0.271c0.151,0,0.273-0.124,0.273-0.271l0.236-4.278H20.645L20.645,6.915z M29.9-2.191
			c-0.646,0-1.165,0.52-1.165,1.16c0,0.641,0.519,1.161,1.165,1.161c0.638,0,1.156-0.52,1.156-1.161
			C31.057-1.672,30.537-2.191,29.9-2.191z M31.098,4.636l0.075-2.522l1.423,3.14c0.055,0.138,0.218,0.203,0.354,0.145
			c0.146-0.06,0.209-0.218,0.151-0.357c0,0-1-3.124-1.285-3.704c-0.279-0.581-0.724-0.935-1.806-0.935h-0.223
			c-1.082,0-1.524,0.354-1.808,0.935c-0.281,0.582-1.283,3.702-1.283,3.702c-0.062,0.142,0.004,0.298,0.145,0.36
			c0.138,0.06,0.303-0.007,0.355-0.145l1.423-3.14l0.073,2.522l-0.225,6.344c-0.015,0.251,0.175,0.467,0.425,0.485
			c0.012,0.002,0.024,0.002,0.032,0.002c0.235,0,0.441-0.183,0.457-0.422l0.517-5.224l0.516,5.224
			c0.018,0.241,0.216,0.422,0.453,0.422c0.012,0,0.022,0,0.031-0.002c0.252-0.018,0.44-0.235,0.425-0.485L31.098,4.636L31.098,4.636
			z M25.212,4.862c-0.397,0-0.718,0.316-0.718,0.71c0,0.394,0.318,0.709,0.718,0.709c0.39,0,0.708-0.317,0.708-0.709
			C25.92,5.18,25.602,4.862,25.212,4.862z M25.212,9.052c0,0,0.316,2.224,0.316,2.226c0.043,0.112,0.146,0.188,0.272,0.188
			c0.127,0,0.234-0.085,0.274-0.199c0-0.01,0.008-0.138,0-0.162l-0.134-2.733l0.046-0.941c0.036-0.32,0.04-0.223,0.406-0.44
			c0.371-0.224,1.001-1.201,1.03-1.25c0.032-0.048,0.091-0.133,0.103-0.189c0.018-0.098-0.048-0.189-0.146-0.21
			c-0.072-0.012-0.136,0.027-0.186,0.078c-0.049,0.055-0.774,1.022-1.316,1.113c-0.126-0.019-0.254-0.081-0.606-0.081h-0.132
			c-0.347,0-0.476,0.064-0.602,0.081c-0.544-0.091-1.271-1.058-1.322-1.113c-0.045-0.05-0.104-0.09-0.183-0.078
			c-0.095,0.021-0.162,0.112-0.141,0.21c0.01,0.054,0.063,0.14,0.098,0.189c0.031,0.048,0.662,1.026,1.03,1.25
			c0.366,0.217,0.376,0.121,0.411,0.44l0.04,0.941l-0.131,2.735c-0.006,0.023,0,0.154,0.006,0.162
			c0.038,0.113,0.144,0.199,0.272,0.199c0.124,0,0.229-0.076,0.268-0.187C24.89,11.278,25.212,9.052,25.212,9.052"/>
	</g>
	<g id="foodsec">
		<path fill="#FFFFFF" d="M27.755,14.62L27.755,14.62c-0.053,1.476-0.553,3.077-1.33,4.554c0,0-1.842,3.733-7.63,3.733
			c-5.795,0-7.667-3.702-7.667-3.702c-0.777-1.485-1.243-3.077-1.304-4.589h0.002c0-0.039-0.002-0.077-0.002-0.116
			c0-0.71,0.442-1.375,1.195-1.946l0.807,0.516c-0.501,0.333-0.789,0.708-0.789,1.105c0,1.401,3.471,2.536,7.759,2.536
			c4.277,0,7.747-1.135,7.747-2.536c0-0.966-1.662-1.808-4.107-2.234l0.014-1.018c3.124,0.614,5.313,1.982,5.313,3.579
			C27.763,14.541,27.761,14.58,27.755,14.62z M12.806,8.597c-0.032,0.235-0.071,0.616,0.224,1.134
			c0.362,0.624,0.825,0.845,0.975,0.951c-0.027-0.164,0.018-0.647-0.323-1.233c-0.291-0.524-0.612-0.76-0.803-0.942
			c-0.532-0.771-1.14-1.392-1.601-1.879l-1.098-1.14c0,0,0.398,0.456,1.054,1.177C11.684,7.173,12.28,7.811,12.806,8.597z
			 M15.551,14.627c0.233,0.219,0.532,0.579,1.191,0.946c0.738,0.413,1.362,0.413,1.569,0.46c-0.117-0.191-0.354-0.802-1.169-1.254
			c-0.673-0.369-1.169-0.298-1.478-0.247c-1.01-0.588-1.877-1.19-2.577-1.622c-0.998-0.613-1.643-0.929-1.641-0.929
			c-0.002,0,0.624,0.347,1.603,0.992C13.725,13.425,14.553,14.033,15.551,14.627z M16.147,11.412
			c-0.086,0.272-0.199,0.715,0.063,1.36c0.305,0.792,0.82,1.122,0.976,1.269c0.007-0.192,0.142-0.741-0.149-1.483
			c-0.257-0.663-0.595-0.991-0.784-1.236c-0.501-0.989-1.113-1.812-1.58-2.453l-1.121-1.512L14.612,8.9
			C15.065,9.564,15.658,10.409,16.147,11.412z M14.261,13.019c0.223,0.203,0.512,0.536,1.132,0.864
			c0.7,0.364,1.281,0.35,1.471,0.389c-0.115-0.173-0.353-0.733-1.12-1.136c-0.631-0.331-1.094-0.258-1.38-0.206
			c-0.951-0.53-1.766-1.076-2.422-1.467c-0.943-0.562-1.551-0.843-1.545-0.846c-0.005,0.005,0.59,0.317,1.507,0.907
			C12.537,11.925,13.328,12.482,14.261,13.019z M12.923,11.437c0.206,0.183,0.476,0.487,1.058,0.777
			c0.655,0.33,1.192,0.306,1.372,0.338c-0.112-0.161-0.342-0.669-1.058-1.028c-0.586-0.296-1.014-0.22-1.28-0.168
			c-0.886-0.479-1.65-0.971-2.264-1.331c-0.877-0.51-1.444-0.768-1.443-0.771c-0.001,0.002,0.551,0.288,1.411,0.822
			C11.309,10.449,12.048,10.953,12.923,11.437z M11.555,9.131c0.389,0.351,0.761,0.371,0.974,0.438
			c-0.046-0.171-0.008-0.595-0.456-0.991c-0.379-0.328-0.766-0.355-0.963-0.371c-1.574-1.35-2.972-2.215-3.294-2.421L7.746,5.738
			c-0.012,0.011,1.526,1.023,3.328,2.606C11.135,8.536,11.238,8.859,11.555,9.131z M11.525,9.877c0.195,0.162,0.444,0.438,0.988,0.7
			c0.6,0.297,1.098,0.268,1.266,0.294c-0.105-0.143-0.326-0.601-0.987-0.927c-0.546-0.26-0.94-0.197-1.182-0.146
			c-0.822-0.426-1.526-0.881-2.098-1.204C8.7,8.131,8.174,7.9,8.174,7.9s0.515,0.255,1.305,0.746
			C10.031,8.973,10.713,9.435,11.525,9.877z M14.519,9.958c-0.058,0.253-0.13,0.67,0.146,1.249c0.339,0.711,0.83,0.981,0.987,1.11
			c-0.01-0.175,0.07-0.691-0.243-1.362c-0.282-0.593-0.612-0.877-0.799-1.087c-0.525-0.881-1.132-1.604-1.602-2.169l-1.114-1.323
			l1.061,1.359C13.414,8.322,14.009,9.067,14.519,9.958z M20.708,11.473c-0.176,0.174-0.456,0.463-0.541,1.065
			c-0.107,0.729,0.13,1.191,0.184,1.369c0.088-0.144,0.43-0.51,0.533-1.196c0.092-0.614-0.014-1.003-0.054-1.266
			c0.051-0.96-0.061-1.844-0.144-2.524c-0.121-0.995-0.205-1.613-0.205-1.613l0.148,1.614C20.687,9.618,20.776,10.512,20.708,11.473
			z M20.141,9.836c-0.155,0.174-0.393,0.459-0.433,1.019c-0.057,0.683,0.194,1.097,0.256,1.258c0.064-0.141,0.365-0.5,0.419-1.142
			c0.041-0.572-0.083-0.926-0.14-1.169c-0.002-0.887-0.156-1.696-0.271-2.321L19.7,6.003l0.224,1.48
			C20.016,8.127,20.143,8.939,20.141,9.836z M19.483,8.235c-0.132,0.169-0.33,0.447-0.333,0.965
			c-0.014,0.631,0.251,0.996,0.316,1.14c0.054-0.136,0.3-0.487,0.313-1.077c0.003-0.534-0.133-0.844-0.197-1.064
			c-0.067-0.819-0.249-1.549-0.386-2.117l-0.34-1.344l0.283,1.349C19.261,6.666,19.43,7.41,19.483,8.235z M20.641,15.726
			c0.101-0.149,0.496-0.514,0.662-1.243c0.146-0.648,0.051-1.075,0.029-1.362c0.117-1.032,0.054-1.988,0.011-2.722
			c-0.069-1.074-0.126-1.746-0.126-1.746l0.054,1.744c0.027,0.748,0.067,1.712-0.072,2.743c-0.201,0.177-0.512,0.467-0.654,1.105
			C20.378,15.017,20.6,15.527,20.641,15.726z M17.355,7.179c0.082,0.181,0.158,0.473,0.459,0.841
			c0.329,0.422,0.698,0.559,0.812,0.634c-0.028-0.14-0.023-0.547-0.385-1.008c-0.302-0.373-0.609-0.456-0.8-0.497
			c-0.439-0.588-0.791-1.15-1.09-1.574c-0.417-0.612-0.721-0.952-0.718-0.956c-0.002,0.004,0.282,0.359,0.68,0.977
			C16.588,6.025,16.918,6.592,17.355,7.179z M17.634,6.643c0.164,0.386,0.42,0.526,0.551,0.644c0.025-0.14,0.202-0.437,0.021-0.877
			c-0.157-0.365-0.43-0.514-0.568-0.588c-0.656-1.517-1.356-2.611-1.518-2.87l-0.034-0.057c-0.015,0.006,0.735,1.257,1.477,3.014
			C17.541,6.069,17.501,6.341,17.634,6.643z M18.293,9.71c0.354,0.456,0.753,0.619,0.873,0.703
			c-0.017-0.156-0.009-0.605-0.397-1.106c-0.318-0.409-0.654-0.499-0.865-0.548c-0.474-0.642-0.851-1.261-1.164-1.724
			c-0.455-0.664-0.767-1.04-0.767-1.042c0,0,0.295,0.395,0.722,1.069c0.295,0.466,0.649,1.08,1.106,1.729
			C17.893,8.991,17.982,9.301,18.293,9.71z M18.728,6.666c-0.108,0.167-0.267,0.43-0.244,0.905c0.043,0.582,0.301,0.894,0.372,1.021
			c0.033-0.125,0.243-0.464,0.204-1.01c-0.029-0.482-0.176-0.759-0.25-0.958c-0.109-0.739-0.329-1.399-0.49-1.904l-0.386-1.202
			c0,0,0.12,0.464,0.343,1.214C18.419,5.25,18.625,5.918,18.728,6.666z M18.217,10.396c0.091,0.221,0.178,0.559,0.511,1.004
			c0.374,0.497,0.794,0.681,0.927,0.778c-0.024-0.171,0.003-0.658-0.407-1.21c-0.338-0.449-0.699-0.547-0.926-0.603
			c-0.497-0.706-0.895-1.373-1.225-1.881c-0.483-0.723-0.823-1.131-0.823-1.134c0,0.002,0.314,0.429,0.772,1.165
			C17.359,9.021,17.728,9.688,18.217,10.396z M13.358,14.806c0,0.003,0.553,0.315,1.422,0.928c0.06,0.009,0.118,0.025,0.185,0.038
			C13.992,15.126,13.358,14.806,13.358,14.806z M20.268,16.017c-0.127-0.196-0.262-0.35-0.397-0.463
			c-0.045-0.125-0.091-0.241-0.144-0.346c0.292,0.301,0.568,0.448,0.669,0.532c0-0.011,0-0.029,0-0.048
			c0.032,0.113,0.067,0.235,0.104,0.356c0.056-0.003,0.115-0.007,0.167-0.01c-0.101-0.345-0.213-0.681-0.335-1.001
			c-0.042-0.172-0.114-0.357-0.228-0.562c-0.109-0.249-0.214-0.49-0.323-0.719c0.133,0.09,0.238,0.149,0.293,0.191
			c-0.014-0.181,0.026-0.708-0.4-1.311c-0.258-0.353-0.523-0.509-0.745-0.595l-0.679-1.324c0,0,0.223,0.483,0.607,1.297
			c-0.063-0.017-0.116-0.034-0.159-0.045c-0.525-0.769-0.941-1.493-1.293-2.04c-0.5-0.784-0.858-1.229-0.855-1.229
			c0,0.003,0.333,0.46,0.809,1.259c0.324,0.55,0.713,1.274,1.22,2.041c0.089,0.236,0.176,0.602,0.525,1.089
			c0.162,0.229,0.329,0.395,0.49,0.522c0.058,0.133,0.119,0.271,0.181,0.417c-0.29-0.296-0.592-0.389-0.788-0.45
			c-0.059-0.089-0.112-0.177-0.165-0.264c-0.34-0.725-0.699-1.362-1.005-1.896c-0.669-1.166-1.103-1.881-1.1-1.881l1.019,1.915
			c0.082,0.142,0.16,0.301,0.247,0.457c-0.111-0.19-0.216-0.372-0.318-0.537c-0.52-0.844-0.894-1.319-0.894-1.322
			c0,0.003,0.347,0.497,0.837,1.357c0.289,0.507,0.626,1.152,1.038,1.851c0.184,0.408,0.357,0.839,0.512,1.296
			c-0.038,0.091-0.092,0.208-0.13,0.345c-0.46-0.787-0.838-1.518-1.173-2.079c-0.105-0.188-0.209-0.351-0.299-0.503
			c-0.42-0.865-0.902-1.608-1.293-2.206c-0.675-1.049-1.114-1.694-1.114-1.694l1.047,1.727c0.447,0.74,1.035,1.695,1.486,2.8
			c-0.101,0.287-0.26,0.754-0.031,1.468c0.277,0.87,0.804,1.265,0.963,1.436c0.014-0.193,0.176-0.721-0.018-1.468
			c0.12,0.227,0.247,0.456,0.384,0.696c-0.054,0.268-0.069,0.608,0.038,1.036c0.427-0.002,0.853-0.017,1.272-0.043
			C20.284,16.05,20.279,16.036,20.268,16.017z M14.169,14.402c-1.051-0.677-1.74-1.017-1.737-1.019
			c-0.001,0,0.665,0.374,1.694,1.081c0.6,0.412,1.325,0.955,2.16,1.512c0.107,0.014,0.21,0.021,0.314,0.031
			C15.658,15.417,14.84,14.829,14.169,14.402z M21.755,14.816c0.202-1.094,0.179-2.125,0.179-2.918l-0.03-1.876
			c0,0-0.021,0.715-0.03,1.873c-0.023,0.807-0.04,1.842-0.252,2.934c-0.233,0.174-0.579,0.468-0.781,1.134
			c-0.006,0.023-0.008,0.041-0.018,0.063c0.304-0.03,0.602-0.063,0.888-0.103C21.804,15.43,21.758,15.07,21.755,14.816z"/>
	</g>
</g>
</svg>
