<?xml version="1.0" encoding="utf-8"?>
<!-- Generator: Adobe Illustrator 16.0.0, SVG Export Plug-In . SVG Version: 6.00 Build 0)  -->
<!DOCTYPE svg PUBLIC "-//W3C//DTD SVG 1.1//EN" "http://www.w3.org/Graphics/SVG/1.1/DTD/svg11.dtd">
<svg version="1.1" id="Groupe" xmlns="http://www.w3.org/2000/svg" xmlns:xlink="http://www.w3.org/1999/xlink" x="0px" y="0px"
	 width="15.871px" height="15.65px" viewBox="0 0 15.871 15.65" enable-background="new 0 0 15.871 15.65" xml:space="preserve">
<g id="PinColor_1_">
	<path id="vert" display="none" fill="#2ABF00" stroke="#1D7500" stroke-width="0.2" stroke-miterlimit="10" d="M15.376,7.581
		c0,3.4-2.437,6.251-5.718,7.008c-0.553,0.121-2.936,0.121-3.504-0.021c-3.25-0.771-5.66-3.605-5.66-6.989
		c0-3.968,3.334-7.196,7.44-7.196C12.04,0.382,15.376,3.609,15.376,7.581z"/>
	<path id="orange" fill="#FF8500" stroke="#7F4500" stroke-width="0.2" stroke-miterlimit="10" d="M15.376,7.581
		c0,3.4-2.437,6.251-5.718,7.008c-0.553,0.121-2.936,0.121-3.504-0.021c-3.25-0.771-5.66-3.605-5.66-6.989
		c0-3.968,3.334-7.196,7.44-7.196C12.04,0.382,15.376,3.609,15.376,7.581z"/>
	<path id="gris" display="none" fill="#A5A5A5" stroke="#595959" stroke-width="0.2" stroke-miterlimit="10" d="M15.376,7.581
		c0,3.4-2.437,6.251-5.718,7.008c-0.553,0.121-2.936,0.121-3.504-0.021c-3.25-0.771-5.66-3.605-5.66-6.989
		c0-3.968,3.334-7.196,7.44-7.196C12.04,0.382,15.376,3.609,15.376,7.581z"/>
	<path id="bleu" display="none" fill="#0092FF" stroke="#00477C" stroke-width="0.2" stroke-miterlimit="10" d="M15.376,7.581
		c0,3.4-2.437,6.251-5.718,7.008c-0.553,0.121-2.936,0.121-3.504-0.021c-3.25-0.771-5.66-3.605-5.66-6.989
		c0-3.968,3.334-7.196,7.44-7.196C12.04,0.382,15.376,3.609,15.376,7.581z"/>
</g>
<g id="IconsGroup">
	<g id="MinimalGroup" display="none">
		<path id="ElectionGroup" display="inline" fill="#565656" d="M4.571,1.668L3.667,1.281C3.642,1.27,3.608,1.277,3.592,1.3
			L3.333,1.623C3.321,1.635,3.317,1.658,3.321,1.677C3.325,1.697,3.337,1.71,3.354,1.718l-0.81,0.308
			C2.476,2.047,2.417,2.094,2.38,2.158L2.112,2.604C2.055,2.699,2.05,2.815,2.1,2.914l0.02,0.038H1.837
			c-0.036,0-0.064,0.029-0.064,0.064v1.225H1.579c-0.035,0-0.063,0.029-0.063,0.063c0,0.033,0.029,0.063,0.063,0.063H3.77
			c0.035,0,0.063-0.029,0.063-0.063c0-0.034-0.028-0.063-0.063-0.063H3.577V3.583c0-0.021-0.012-0.043-0.028-0.054
			C3.53,3.516,3.506,3.514,3.485,3.525c-0.07,0.033-0.124,0.05-0.147,0.058c-0.005,0-0.011,0.003-0.015,0.006L2.903,3.84
			C2.836,3.88,2.76,3.902,2.683,3.902c-0.145,0-0.275-0.071-0.357-0.192C2.26,3.613,2.237,3.497,2.262,3.383
			C2.286,3.269,2.354,3.172,2.45,3.109L2.512,3.07c0.045-0.026,0.085-0.051,0.12-0.073c0.025-0.015,0.035-0.046,0.027-0.074
			C2.644,2.871,2.618,2.825,2.592,2.79C2.69,2.748,2.823,2.671,2.891,2.593l0,0C2.905,2.601,2.922,2.611,2.94,2.62
			c0.002,0,0.002,0,0.004,0.001l0,0c0.047,0.023,0.107,0.047,0.178,0.063C3.047,2.775,2.971,2.89,2.942,2.967
			C2.892,2.991,2.78,3.052,2.521,3.218C2.452,3.26,2.405,3.33,2.389,3.41C2.372,3.489,2.387,3.57,2.433,3.638
			c0.059,0.087,0.152,0.135,0.25,0.135c0.053,0,0.105-0.018,0.154-0.043L3.28,3.464c0.068-0.017,0.413-0.12,0.674-0.542
			c0.205-0.331,0.32-0.597,0.367-0.718l0.008,0.004c0.027,0.012,0.059,0.021,0.086,0.021c0.052,0,0.102-0.021,0.137-0.058
			C4.589,2.137,4.61,2.088,4.61,2.035V1.727C4.608,1.701,4.595,1.677,4.571,1.668z"/>
	</g>
	<g id="FaibleGroup" display="none">
		<path id="FamineGroup" display="inline" fill="#F9F9F9" d="M3.901,3.938l-0.49,0.093L2.612,3.594l0.291-0.358l0.653,0.217
			L3.901,3.938z M4.653,3.088v0.058l-0.515,0.16L3.629,3.378L2.975,3.161L2.821,3.088h0.088C2.888,2.894,2.86,2.746,2.846,2.552l0,0
			C2.845,2.548,2.838,2.419,2.837,2.364c-0.01-0.06-0.038-0.082-0.129-0.146C2.657,2.188,2.62,2.177,2.601,2.177
			c-0.033,0-0.063,0.036-0.07,0.146c0.146,0.024,0.155,0.186,0.155,0.186C2.699,2.623,2.642,2.79,2.513,2.834
			c-0.238,0.079-0.215-0.381-0.08-0.492c0.004-0.133,0.041-0.255,0.168-0.26c0.051,0,0.102,0.021,0.16,0.061
			c0.027,0.018,0.051,0.031,0.07,0.053C2.829,2.15,2.827,2.105,2.827,2.058c0-0.1,0.015-0.201,0.101-0.276
			C2.972,1.74,3.021,1.718,3.072,1.718c0.127,0.01,0.205,0.117,0.252,0.229C3.377,1.924,3.444,1.913,3.52,1.94
			c0.197,0.064,0.305,0.411,0.223,0.527c-0.195,0.28-0.683-0.236-0.555-0.42c0,0,0.02-0.021,0.053-0.052
			c-0.039-0.1-0.114-0.188-0.17-0.183c-0.022,0-0.049,0.008-0.08,0.036c-0.054,0.05-0.069,0.117-0.069,0.207
			C2.922,2.12,2.93,2.19,2.93,2.26c0,0.037,0.002,0.069,0.003,0.104c0.01,0.063,0.01,0.109,0.01,0.176
			c0.014,0.192,0.09,0.353,0.112,0.548H4.653z M3.276,2.036l0.372,0.403c-0.066-0.286-0.3-0.445-0.3-0.445L3.276,2.036z M2.51,2.382
			L2.444,2.409c0,0-0.033,0.226,0,0.343L2.51,2.382z M2.179,3.741l0.294-0.177l0.306-0.379L2.684,3.088H2.007L1.872,3.358
			L2.179,3.741z M2.521,3.679l-0.52,0.354L2.069,4.12h1.199L3.265,4.104L2.521,3.679z M1.45,3.088v0.409l0.332-0.179l0.103-0.23
			H1.45z M3.726,3.465l0.323,0.473L4.653,4.08V3.54L4.218,3.4L3.726,3.465z M4.653,3.423V3.234l-0.34,0.091L4.653,3.423z
			 M1.792,3.45L1.45,3.612v0.509H1.7l0.373-0.305L1.792,3.45z M3.583,4.121h0.783l-0.373-0.09L3.583,4.121z"/>
		<path id="CycloneGroup" display="inline" fill="#FFFFFF" d="M3.063,1.987c-0.017,0-0.033-0.002-0.05-0.002
			c-0.147,0-0.284,0.038-0.403,0.104C2.823,1.36,3.358,1.295,3.358,1.295S2.176,1.395,2.176,2.774c0.001,0,0.001,0,0.002,0
			c0,0.016-0.001,0.031-0.001,0.049c0,0.146,0.038,0.285,0.104,0.405c-0.73-0.216-0.793-0.75-0.793-0.75s0.099,1.183,1.479,1.183
			c0-0.001,0-0.001,0-0.003c0.016,0.001,0.031,0.003,0.048,0.003c0.147,0,0.285-0.038,0.405-0.104
			C3.204,4.287,2.669,4.35,2.669,4.35S3.853,4.25,3.853,2.871c-0.002,0-0.002,0-0.002,0c0-0.017,0.002-0.033,0.002-0.049
			c0-0.147-0.037-0.285-0.104-0.405c0.729,0.214,0.795,0.75,0.795,0.75s-0.099-1.182-1.48-1.182
			C3.063,1.986,3.063,1.987,3.063,1.987z"/>
		<path id="tsunamiGroup" display="inline" fill="#FFFFFF" d="M4.501,3.796C2.065,3.934,2.747,2.073,3.377,2.233
			C3.312,2.273,3.271,2.41,3.31,2.501c0.044,0.103,0.188,0.155,0.27,0.135c0.194-0.05,0.203-0.321,0.134-0.47
			C3.64,2.017,3.446,1.831,3.108,1.831c-0.813,0-1.371,0.416-1.58,1.131v1.055h2.973V3.796z"/>
		<path id="earthquakeGroup" display="inline" fill="#FFFFFF" d="M3.88,2.915c-0.041,0-0.08,0.023-0.1,0.063L3.618,3.28L3.419,2.694
			C3.403,2.65,3.362,2.62,3.315,2.618c-0.049-0.001-0.09,0.026-0.107,0.07L3.071,3.012L2.854,1.715
			C2.844,1.661,2.792,1.62,2.741,1.623c-0.057,0.002-0.103,0.038-0.11,0.093L2.44,3.219L2.284,2.413
			c-0.008-0.047-0.047-0.084-0.096-0.09C2.141,2.317,2.094,2.342,2.071,2.385l-0.254,0.53H1.425V3.14H1.89
			c0.043,0,0.083-0.023,0.102-0.063l0.137-0.284l0.22,1.146c0.011,0.052,0.058,0.09,0.11,0.09c0.002,0,0.003,0,0.004,0
			c0.056-0.001,0.102-0.042,0.109-0.098L2.76,2.452l0.158,0.973C2.927,3.476,2.966,3.513,3.016,3.52
			c0.051,0.004,0.098-0.022,0.117-0.068L3.302,3.05L3.49,3.602c0.016,0.042,0.053,0.068,0.098,0.072
			c0.046,0.005,0.088-0.02,0.108-0.06l0.253-0.478h0.483V2.915H3.88z"/>
	</g>
	<g id="EleveGroup" display="none">
		<path id="attackGroup" display="inline" fill="#FFFFFF" d="M3.815,3.059l0.793-0.512l-0.767-0.08l0.209-0.89L3.507,2.141
			L3.354,1.505L3.127,2.097L2.505,1.297L2.7,2.301L2.147,2.177c0,0,0.168,0.321,0.262,0.518L1.522,2.631L2.325,3.1l-0.23,0.233
			l0.373-0.064L2.204,4.203l0.785-0.657l0.205,0.511L3.403,3.65l0.676,0.698L3.739,3.41l0.744,0.076L3.815,3.059z"/>
	</g>
	<g id="ExtremeGroup" display="none">
		<path id="rebelionGroup" display="inline" fill="#FFFFFF" d="M3.616,1.875c0,0.323-0.263,0.585-0.584,0.585
			c-0.324,0-0.586-0.262-0.586-0.585c0-0.324,0.262-0.585,0.586-0.585C3.354,1.29,3.616,1.551,3.616,1.875z M2.055,4.355h0.356h0.02
			l0.014-0.027l0.129-0.127L2.452,4.175l-0.188-0.04L2.055,4.355z M4.502,1.983L4.377,2.109l0.008,0.009L4.282,2.219
			C4.297,2.232,4.31,2.245,4.321,2.26l0.103-0.103l0.021,0.019L4.567,2.05L4.502,1.983z M3.694,2.632L3.64,2.686l0.006,0.015
			L3.659,2.73L2.806,3.585l0.091,0.021c0.085,0.018,0.157,0.064,0.205,0.141c0.007,0.01,0.009,0.022,0.013,0.033l0.002-0.003
			L3.18,3.818l0.022-0.005L3.45,3.994l0.168-0.229l-0.371-0.29l0.01-0.024H3.32l0.363-0.427l0.041-0.382L3.694,2.632z M4.091,2.254
			C3.979,2.242,3.872,2.325,3.86,2.439L3.845,2.564l0,0l-0.008,0.09L3.796,3.036L3.792,3.072L3.771,3.098L3.444,3.482l0.244,0.188
			l0.09,0.069L3.725,3.81l0.014,0.022c0.033,0.075,0.108,0.12,0.188,0.12c0.012,0,0.023,0,0.035-0.003
			c0.092-0.015,0.162-0.09,0.172-0.183L4.275,2.48C4.288,2.369,4.204,2.266,4.091,2.254z M3.665,3.898L3.546,4.062L3.478,4.155
			L3.383,4.087L3.177,3.938L3.159,3.942L3.151,3.938c0,0.018,0,0.034-0.005,0.052C3.143,4.007,3.137,4.023,3.13,4.039
			C3.118,4.069,3.1,4.094,3.081,4.12l0.015,0.033C3.11,4.186,3.13,4.228,3.153,4.266l0.059,0.089h0.439L3.665,3.898z M2.829,4.247
			c-0.004,0-0.01-0.001-0.016-0.001c0,0.008-0.002,0.014-0.002,0.014l0.05,0.098h0.118L3.056,4.33
			C3.03,4.288,3.009,4.244,2.989,4.199C2.94,4.227,2.888,4.247,2.829,4.247z M3.001,3.804C2.993,3.792,2.979,3.781,2.968,3.771
			C2.961,3.763,2.956,3.755,2.946,3.75c-0.02-0.015-0.047-0.025-0.074-0.033l-0.09-0.019L2.573,3.654l0,0l-0.185-0.04L2.317,3.6
			L2.2,3.574L2.192,3.573l0.02-0.021l0.08-0.077l0.085-0.085c0.007,0.06,0.01,0.104,0.01,0.104L2.415,3.5l0.258,0.058l0.053-0.056
			l0.798-0.801l-0.02-0.045L3.51,2.651C3.396,2.617,3.26,2.594,3.088,2.594H3.032H2.976c-0.121,0-0.242,0.012-0.361,0.035
			C2.409,2.677,2.282,2.878,2.144,3.014c-0.145,0.143-0.285,0.29-0.425,0.437C1.688,3.484,1.657,3.517,1.624,3.549
			C1.571,3.604,1.551,3.683,1.571,3.757C1.593,3.83,1.653,3.885,1.729,3.902l0.276,0.06l0.117,0.024l0.664,0.142
			C2.801,4.13,2.815,4.132,2.829,4.132c0.097,0,0.184-0.063,0.205-0.166c0.008-0.039,0.002-0.071-0.01-0.105L3.012,3.83
			C3.008,3.822,3.004,3.815,3.001,3.804z M2.708,4.316l-0.02-0.038l0.011-0.042L2.7,4.228L2.667,4.218L2.551,4.355h0.178
			L2.708,4.316z"/>
	</g>
	<path id="displacedGroup" display="none" fill="#FFFFFF" d="M3.049,1.677c0.024,0.151-0.078,0.293-0.228,0.318
		C2.67,2.021,2.526,1.918,2.502,1.768C2.478,1.616,2.579,1.472,2.731,1.449C2.882,1.423,3.024,1.526,3.049,1.677z M2.963,2.776
		l0.245,0.392c0.035,0.058,0.107,0.073,0.164,0.04c0.056-0.033,0.074-0.104,0.043-0.162L3.354,2.934
		C3.299,2.837,3.247,2.74,3.192,2.644L3.083,2.445C3.071,2.422,3.059,2.397,3.046,2.369C2.979,2.228,2.874,2.01,2.643,2.029
		C2.446,2.047,2.245,2.141,2.049,2.308C1.816,2.492,1.652,2.758,1.647,2.771C1.639,2.782,1.631,2.794,1.626,2.804
		c0,0,0,0-0.002,0.001l0,0C1.603,2.847,1.592,2.885,1.618,2.933C1.64,2.969,1.681,2.994,1.724,2.994
		c0.053,0,0.079-0.025,0.105-0.063l0,0l0,0C1.837,2.92,1.844,2.909,1.851,2.897c0.001-0.002,0.138-0.226,0.351-0.402
		C2.266,2.444,2.329,2.409,2.387,2.39L2.34,2.959C2.335,3.014,2.317,3.113,2.302,3.168L2.196,3.54
		C2.183,3.586,2.142,3.665,2.112,3.702L1.825,4.056C1.788,4.103,1.747,4.154,1.78,4.225c0.021,0.042,0.063,0.065,0.11,0.065
		c0.055,0,0.085-0.032,0.123-0.073l0.29-0.313c0.052-0.055,0.119-0.152,0.153-0.22L2.6,3.393l0.533,0.895
		c0.026,0.044,0.06,0.102,0.132,0.102l0,0c0.041,0,0.079-0.021,0.102-0.058c0.039-0.06,0.012-0.113-0.01-0.162L2.924,3.234
		C2.907,3.198,2.899,3.123,2.905,3.083L2.963,2.776z M3.413,3.75h0.645v0.191L4.7,3.571l-0.643-0.37v0.192H3.413V3.75z"/>
	<path id="enlevementGroup" display="none" fill="#FFFFFF" d="M4.372,1.196C4.276,1.196,4.2,1.273,4.2,1.368v0.699
		c0.043,0.009,0.082,0.023,0.115,0.058c0.09,0.089,0.092,0.236,0.004,0.326L3.993,2.786L3.948,2.742l0.326-0.333
		c0.063-0.068,0.063-0.175-0.004-0.24C4.25,2.148,4.226,2.134,4.198,2.127C4.17,2.119,4.142,2.119,4.114,2.125
		c-0.033,0.007-0.06,0.023-0.082,0.047C3.839,2.37,3.646,2.568,3.452,2.767C3.403,2.816,3.315,2.927,3.317,3.042
		c0.002,0.106,0,0.216,0,0.323C3.292,3.344,3.262,3.33,3.227,3.323c-0.1-0.018-0.189,0.043-0.223,0.132h-0.05
		c0-0.021,0-0.049,0-0.073c0.002-0.108-0.002-0.228,0-0.34C2.958,2.93,2.868,2.815,2.821,2.769c-0.194-0.2-0.386-0.398-0.58-0.6
		C2.219,2.148,2.19,2.132,2.159,2.125C2.131,2.118,2.102,2.119,2.073,2.127C2.047,2.134,2.021,2.148,2.002,2.169
		c-0.067,0.065-0.069,0.172-0.005,0.24l0.326,0.333L2.28,2.786L1.954,2.451c-0.088-0.09-0.086-0.237,0.004-0.326
		C1.991,2.094,2.03,2.077,2.071,2.067V1.368c0-0.095-0.078-0.172-0.172-0.172c-0.096,0-0.172,0.077-0.172,0.172v1.21
		c0,0.04,0.016,0.076,0.039,0.105l0.585,0.771H2.3c-0.114,0-0.206,0.093-0.206,0.208c0,0.076,0.042,0.139,0.104,0.175
		C2.137,3.874,2.094,3.937,2.094,4.01c0,0.115,0.092,0.207,0.206,0.207h0.063v0.115h0.574c0.03,0.03,0.065,0.052,0.107,0.063
		c0.013,0.003,0.023,0.004,0.035,0.004c0.102,0,0.188-0.072,0.205-0.172V4.219h0.037c0,0.038,0,0.076,0.004,0.115h0.582V4.219H3.97
		c0.112,0,0.206-0.092,0.206-0.204c0-0.074-0.042-0.142-0.104-0.178c0.063-0.036,0.104-0.099,0.104-0.175
		c0-0.114-0.094-0.207-0.206-0.207H3.92l0.584-0.771c0.024-0.03,0.04-0.065,0.04-0.105V1.37C4.544,1.273,4.467,1.196,4.372,1.196z
		 M2.196,3.662c0-0.057,0.047-0.103,0.104-0.103h0.678L2.942,3.766H2.3C2.243,3.764,2.196,3.719,2.196,3.662z M2.196,4.012
		c0-0.06,0.047-0.104,0.104-0.104h0.617L2.882,4.116H2.3C2.243,4.116,2.196,4.07,2.196,4.012z M3.181,4.207
		C3.172,4.263,3.112,4.3,3.062,4.292C3.034,4.288,3.011,4.272,2.995,4.25C2.979,4.228,2.974,4.2,2.978,4.172L3.092,3.51
		c0.009-0.05,0.052-0.086,0.103-0.086c0.006,0,0.012,0,0.017,0.001c0.057,0.014,0.094,0.063,0.084,0.12L3.181,4.207z M4.075,4.012
		c0,0.058-0.045,0.104-0.104,0.104h-0.67l0.035-0.208h0.636C4.028,3.909,4.075,3.956,4.075,4.012z M4.075,3.662
		c0,0.057-0.045,0.104-0.104,0.104h-0.61l0.034-0.201c0-0.001,0-0.003,0-0.004h0.576C4.028,3.559,4.075,3.606,4.075,3.662z"/>
	<path id="eruptionGroup" display="none" fill="#FFFFFF" d="M3.247,2.253C3.424,2.313,3.657,2.384,3.708,2.1
		C3.747,1.878,4.04,1.96,4.165,1.947c0.229-0.027,0.057-0.454-0.229-0.46C3.647,1.48,3.517,1.608,3.399,1.87
		c-0.053,0.126-0.1,0.221-0.305,0.153c-0.204-0.068-0.355,0.1-0.23,0.307c0.109,0.186-0.002,0.383-0.002,0.383h0.309
		c0,0-0.002-0.109-0.077-0.229C3.007,2.346,3.067,2.191,3.247,2.253z M1.614,4.159c0.793-0.578,0.992-1.376,0.992-1.376H3.42
		c0,0,0.197,0.798,0.99,1.376H1.614z"/>
	<path id="returnedGroup" display="none" fill="#FFFFFF" d="M3.05,1.677c0.023,0.151-0.078,0.293-0.229,0.318
		C2.67,2.02,2.526,1.918,2.503,1.766C2.478,1.615,2.579,1.472,2.731,1.448C2.882,1.423,3.024,1.525,3.05,1.677z M2.963,2.775
		l0.245,0.393c0.035,0.058,0.107,0.072,0.164,0.04c0.056-0.034,0.074-0.104,0.043-0.162L3.354,2.933
		C3.3,2.837,3.247,2.74,3.194,2.643L3.083,2.445C3.071,2.422,3.06,2.397,3.046,2.369c-0.067-0.141-0.172-0.36-0.403-0.34
		c-0.196,0.017-0.397,0.11-0.594,0.277C1.815,2.492,1.651,2.758,1.646,2.77c-0.007,0.012-0.015,0.021-0.02,0.034L1.624,2.805l0,0
		C1.603,2.847,1.592,2.885,1.618,2.933C1.64,2.969,1.681,2.995,1.724,2.995c0.053,0,0.079-0.025,0.104-0.063l0,0l0,0
		C1.835,2.921,1.843,2.909,1.85,2.897C1.852,2.895,1.989,2.675,2.2,2.495C2.266,2.443,2.329,2.408,2.387,2.39L2.34,2.959
		C2.335,3.014,2.317,3.113,2.302,3.168L2.196,3.54C2.183,3.587,2.142,3.665,2.11,3.702L1.825,4.056
		C1.788,4.103,1.747,4.154,1.78,4.225c0.021,0.042,0.063,0.065,0.11,0.065c0.055,0,0.085-0.032,0.123-0.073l0.29-0.313
		c0.052-0.055,0.119-0.152,0.151-0.22l0.145-0.293l0.533,0.895c0.025,0.044,0.061,0.102,0.132,0.102l0,0
		c0.041,0,0.079-0.021,0.103-0.059c0.037-0.059,0.011-0.113-0.01-0.16L2.925,3.234C2.909,3.198,2.9,3.123,2.905,3.083L2.963,2.775z
		 M4.757,2.975c0-0.394-0.318-0.708-0.709-0.708H3.747v0.354h0.302C4.241,2.623,4.4,2.78,4.4,2.975c0,0.189-0.155,0.351-0.351,0.351
		H3.985V3.134l-0.641,0.37l0.641,0.371V3.683h0.07l0,0C4.442,3.677,4.757,3.363,4.757,2.975z"/>
	<g id="Affected" display="none">
		<path display="inline" fill="#FFFFFF" d="M2.313,1.619c0,0.136-0.111,0.246-0.247,0.246c-0.136,0-0.247-0.11-0.247-0.246
			c0-0.137,0.111-0.247,0.247-0.247C2.203,1.372,2.313,1.482,2.313,1.619z M2.093,3.306l0.053,0.907
			c0,0.031,0.026,0.062,0.058,0.062c0.032,0,0.058-0.027,0.058-0.062l0.049-0.907h0.161L2.305,2.286L2.64,2.953
			c0.012,0.029,0.046,0.043,0.076,0.031C2.745,2.971,2.76,2.938,2.747,2.908c0,0-0.246-0.663-0.306-0.787
			C2.38,1.997,2.32,1.922,2.09,1.922H2.043c-0.23,0-0.291,0.075-0.351,0.199S1.387,2.908,1.387,2.908
			c-0.013,0.03,0.001,0.063,0.03,0.076c0.03,0.013,0.064-0.001,0.076-0.031l0.335-0.667L1.662,3.306h0.161l0.05,0.907
			c0,0.031,0.026,0.062,0.058,0.062c0.032,0,0.058-0.027,0.058-0.062l0.05-0.907H2.093L2.093,3.306z M4.058,1.371
			c-0.136,0-0.246,0.11-0.246,0.247s0.11,0.247,0.246,0.247c0.137,0,0.246-0.11,0.246-0.247S4.194,1.371,4.058,1.371z M4.313,2.822
			L4.33,2.286l0.301,0.667c0.013,0.029,0.048,0.043,0.076,0.031c0.03-0.013,0.044-0.046,0.032-0.076c0,0-0.213-0.664-0.273-0.787
			C4.403,1.997,4.312,1.922,4.082,1.922H4.034c-0.23,0-0.323,0.075-0.385,0.199C3.59,2.244,3.378,2.907,3.378,2.907
			c-0.013,0.03,0.001,0.063,0.031,0.077c0.029,0.013,0.063-0.001,0.074-0.031l0.303-0.667l0.016,0.536L3.755,4.169
			C3.751,4.223,3.791,4.27,3.845,4.272c0.002,0.002,0.006,0.002,0.006,0.002c0.053,0,0.094-0.039,0.099-0.092l0.108-1.109
			l0.111,1.109c0.002,0.053,0.045,0.092,0.096,0.092c0.002,0,0.004,0,0.006-0.002C4.323,4.27,4.364,4.223,4.36,4.169L4.313,2.822
			L4.313,2.822z M3.063,2.87c-0.083,0-0.152,0.067-0.152,0.15c0,0.084,0.068,0.148,0.152,0.148s0.15-0.064,0.15-0.148
			C3.213,2.937,3.146,2.87,3.063,2.87z M3.063,3.76l0.068,0.476c0.009,0.021,0.03,0.041,0.057,0.041s0.049-0.021,0.059-0.043
			c0-0.002,0.001-0.031,0-0.035l-0.028-0.58l0.009-0.201c0.009-0.063,0.01-0.047,0.087-0.093c0.08-0.047,0.211-0.255,0.22-0.266
			C3.54,3.046,3.554,3.03,3.556,3.018c0.004-0.021-0.01-0.041-0.029-0.045C3.508,2.969,3.495,2.977,3.485,2.988
			C3.474,3,3.32,3.204,3.205,3.224C3.179,3.221,3.15,3.207,3.077,3.207H3.048c-0.074,0-0.102,0.017-0.128,0.021
			C2.805,3.204,2.65,3,2.639,2.988C2.629,2.977,2.617,2.969,2.6,2.971C2.58,2.975,2.565,2.995,2.57,3.016
			c0.002,0.012,0.014,0.027,0.021,0.04c0.006,0.01,0.141,0.219,0.22,0.266C2.888,3.368,2.89,3.348,2.897,3.415l0.008,0.201
			l-0.028,0.58c-0.001,0.006,0,0.033,0.001,0.035c0.008,0.021,0.03,0.043,0.058,0.043c0.026,0,0.048-0.021,0.057-0.041
			C2.994,4.233,3.063,3.76,3.063,3.76"/>
	</g>
	<path id="epidemieGroup" display="none" fill="#FFFFFF" d="M4.284,2.946c0-0.696-0.545-1.262-1.231-1.297
		c0.304,0.025,0.54,0.249,0.54,0.517c0,0.092-0.031,0.177-0.08,0.252C3.376,2.283,3.19,2.2,2.983,2.2
		c-0.205,0-0.392,0.083-0.527,0.218c-0.047-0.075-0.078-0.16-0.078-0.252c0-0.268,0.234-0.488,0.539-0.517
		C2.231,1.685,1.686,2.251,1.686,2.946c0,0.209,0.052,0.407,0.14,0.583C1.704,3.255,1.778,2.945,2.007,2.814
		c0.08-0.046,0.168-0.063,0.258-0.062C2.247,2.817,2.237,2.881,2.237,2.948c0,0.346,0.235,0.634,0.555,0.72
		C2.786,3.675,2.78,3.681,2.776,3.69v0.001c-0.011,0.021-0.023,0.043-0.039,0.06C2.702,3.796,2.663,3.836,2.612,3.864
		C2.383,3.997,2.077,3.905,1.899,3.66C2.132,4.013,2.53,4.247,2.985,4.247c0.45,0,0.844-0.229,1.081-0.576
		c-0.182,0.237-0.48,0.325-0.708,0.194C3.278,3.818,3.22,3.749,3.18,3.668c0.317-0.086,0.551-0.375,0.551-0.72
		c0-0.066-0.01-0.13-0.024-0.192c0.09-0.005,0.179,0.015,0.259,0.062c0.223,0.128,0.299,0.422,0.189,0.688
		C4.237,3.336,4.284,3.146,4.284,2.946z M3.122,3.446C3.116,3.338,3.14,3.225,3.194,3.117l-0.086-0.05
		C3.077,3.1,3.032,3.12,2.985,3.12c-0.049,0-0.093-0.02-0.125-0.052L2.776,3.116c0.055,0.107,0.077,0.222,0.071,0.331
		c-0.22-0.063-0.383-0.26-0.383-0.499c0-0.046,0.008-0.089,0.019-0.13c0.096,0.048,0.184,0.124,0.25,0.224l0.088-0.051
		c-0.004-0.015-0.01-0.029-0.01-0.045c0-0.081,0.055-0.146,0.131-0.165V2.68C2.821,2.67,2.713,2.634,2.622,2.576
		c0.092-0.092,0.221-0.148,0.361-0.148s0.271,0.061,0.364,0.15c-0.091,0.062-0.2,0.096-0.319,0.104v0.1
		c0.073,0.02,0.129,0.084,0.129,0.165c0,0.016-0.004,0.03-0.008,0.044l0.088,0.05c0.065-0.1,0.153-0.175,0.249-0.224
		c0.01,0.042,0.02,0.084,0.02,0.129C3.504,3.187,3.342,3.385,3.122,3.446z"/>
</g>
<g>
	<path fill="#FFFFFF" d="M14.849,8.294L14.849,8.294c-0.033,0.887-0.337,1.852-0.798,2.736c0,0-1.105,2.238-4.575,2.238
		c-3.473,0-4.601-2.223-4.601-2.223C4.413,10.16,4.126,9.207,4.097,8.298l0,0c0-0.023,0-0.047,0-0.072
		C4.097,7.8,4.36,7.4,4.811,7.062L5.297,7.37C5,7.569,4.825,7.791,4.825,8.038c0,0.833,2.079,1.514,4.65,1.514
		c2.566,0,4.649-0.675,4.649-1.514c0-0.585-1.001-1.085-2.466-1.34l0.009-0.613c1.883,0.367,3.182,1.19,3.182,2.148
		C14.849,8.251,14.849,8.272,14.849,8.294z M5.88,4.686C5.859,4.831,5.84,5.061,6.017,5.372c0.221,0.375,0.495,0.501,0.587,0.564
		C6.588,5.84,6.613,5.552,6.412,5.201C6.238,4.885,6.045,4.745,5.929,4.633c-0.323-0.46-0.684-0.835-0.963-1.128L4.305,2.823
		c0,0,0.241,0.272,0.632,0.707C5.21,3.833,5.565,4.219,5.88,4.686z M7.529,8.302c0.14,0.132,0.319,0.35,0.714,0.574
		c0.442,0.251,0.819,0.251,0.945,0.272C9.116,9.033,8.975,8.667,8.485,8.397C8.082,8.176,7.782,8.218,7.597,8.251
		C6.993,7.891,6.466,7.536,6.052,7.274C5.455,6.907,5.067,6.719,5.067,6.719s0.375,0.205,0.961,0.591
		C6.432,7.582,6.935,7.943,7.529,8.302z M7.882,6.378c-0.047,0.163-0.115,0.425,0.042,0.81C8.107,7.663,8.419,7.861,8.51,7.95
		c0-0.117,0.084-0.445-0.09-0.891C8.263,6.656,8.065,6.464,7.948,6.316C7.651,5.727,7.281,5.231,7.006,4.85L6.331,3.946l0.634,0.928
		C7.237,5.267,7.592,5.774,7.882,6.378z M6.76,7.336c0.136,0.123,0.308,0.318,0.678,0.517C7.85,8.075,8.202,8.067,8.32,8.093
		c-0.069-0.11-0.212-0.445-0.673-0.684C7.271,7.212,6.993,7.256,6.821,7.286c-0.572-0.32-1.063-0.643-1.456-0.876
		c-0.563-0.34-0.926-0.506-0.926-0.51c0,0.004,0.35,0.189,0.906,0.542C5.721,6.681,6.195,7.017,6.76,7.336z M5.951,6.388
		c0.128,0.11,0.286,0.289,0.636,0.465c0.392,0.205,0.712,0.188,0.826,0.208C7.347,6.963,7.207,6.656,6.775,6.444
		C6.429,6.269,6.169,6.307,6.013,6.339c-0.535-0.285-0.994-0.582-1.36-0.794C4.124,5.241,3.78,5.084,3.786,5.084
		c0,0,0.331,0.172,0.846,0.495C4.982,5.798,5.43,6.101,5.951,6.388z M5.129,5.006C5.365,5.215,5.591,5.233,5.715,5.27
		c-0.022-0.104,0-0.355-0.27-0.597c-0.232-0.194-0.463-0.209-0.58-0.221C3.922,3.647,3.088,3.124,2.891,3.003L2.852,2.971
		c-0.01,0.007,0.915,0.617,1.997,1.563C4.878,4.653,4.943,4.842,5.129,5.006z M5.115,5.45c0.114,0.102,0.268,0.264,0.59,0.422
		c0.359,0.179,0.657,0.162,0.759,0.179C6.398,5.961,6.264,5.683,5.872,5.49C5.545,5.337,5.31,5.38,5.166,5.408
		C4.677,5.15,4.248,4.878,3.912,4.686C3.424,4.409,3.106,4.273,3.106,4.273S3.419,4.426,3.893,4.72
		C4.215,4.916,4.627,5.188,5.115,5.45z M6.916,5.505C6.883,5.657,6.834,5.906,7.002,6.257c0.199,0.424,0.499,0.585,0.589,0.666
		C7.585,6.81,7.63,6.501,7.443,6.105c-0.17-0.358-0.36-0.526-0.481-0.655c-0.31-0.525-0.678-0.963-0.957-1.302L5.338,3.358
		l0.638,0.819C6.249,4.523,6.604,4.966,6.916,5.505z M10.623,6.413c-0.104,0.102-0.273,0.276-0.325,0.639
		c-0.071,0.437,0.083,0.716,0.108,0.823c0.056-0.087,0.255-0.308,0.324-0.723c0.052-0.365-0.018-0.599-0.039-0.754
		c0.032-0.582-0.038-1.106-0.086-1.513c-0.068-0.6-0.114-0.968-0.114-0.968l0.084,0.969C10.605,5.299,10.661,5.832,10.623,6.413z
		 M10.282,5.43c-0.091,0.105-0.235,0.274-0.265,0.618c-0.029,0.404,0.124,0.654,0.155,0.748c0.046-0.083,0.223-0.3,0.255-0.682
		c0.022-0.344-0.055-0.554-0.089-0.701c0-0.533-0.09-1.019-0.157-1.391l-0.164-0.89l0.135,0.89
		C10.207,4.406,10.282,4.896,10.282,5.43z M9.888,4.468C9.809,4.569,9.689,4.736,9.686,5.05C9.68,5.425,9.837,5.646,9.875,5.735
		c0.033-0.085,0.176-0.292,0.186-0.646c0.002-0.319-0.079-0.502-0.118-0.641c-0.037-0.493-0.147-0.93-0.233-1.269L9.511,2.378
		l0.167,0.806C9.757,3.53,9.853,3.973,9.888,4.468z M10.58,8.958c0.063-0.087,0.298-0.31,0.4-0.744
		c0.085-0.389,0.03-0.645,0.013-0.819c0.072-0.615,0.042-1.185,0.008-1.627c-0.04-0.647-0.076-1.046-0.076-1.046l0.038,1.045
		c0.018,0.452,0.029,1.028-0.038,1.643c-0.123,0.107-0.319,0.286-0.396,0.666C10.428,8.536,10.56,8.841,10.58,8.958z M8.608,3.836
		c0.051,0.11,0.098,0.284,0.275,0.503c0.198,0.253,0.415,0.334,0.489,0.385c-0.017-0.085-0.012-0.332-0.23-0.607
		C8.961,3.898,8.78,3.844,8.664,3.821C8.401,3.467,8.188,3.127,8.015,2.878C7.762,2.507,7.58,2.305,7.58,2.301
		c0,0,0.166,0.213,0.407,0.587C8.156,3.147,8.351,3.486,8.608,3.836z M8.78,3.513c0.094,0.233,0.249,0.32,0.331,0.389
		C9.124,3.817,9.23,3.638,9.12,3.377C9.027,3.155,8.865,3.069,8.782,3.022C8.381,2.118,7.968,1.458,7.868,1.304L7.853,1.268
		c-0.002,0,0.443,0.747,0.888,1.808C8.722,3.171,8.698,3.334,8.78,3.513z M9.176,5.353C9.387,5.63,9.622,5.732,9.699,5.777
		C9.686,5.68,9.692,5.416,9.457,5.112C9.264,4.87,9.066,4.812,8.94,4.784c-0.285-0.386-0.51-0.76-0.695-1.035
		C7.971,3.351,7.782,3.128,7.782,3.124c0,0,0.179,0.234,0.434,0.643c0.178,0.28,0.393,0.65,0.665,1.032
		C8.935,4.925,8.99,5.108,9.176,5.353z M9.428,3.53C9.37,3.626,9.274,3.785,9.29,4.074C9.313,4.42,9.469,4.609,9.514,4.683
		c0.02-0.074,0.145-0.275,0.119-0.601c-0.017-0.293-0.106-0.46-0.147-0.582c-0.068-0.438-0.2-0.834-0.291-1.14L8.959,1.637
		c0,0,0.073,0.281,0.206,0.727C9.249,2.678,9.373,3.084,9.428,3.53z M9.128,5.767c0.053,0.132,0.105,0.335,0.306,0.599
		C9.66,6.662,9.913,6.776,9.992,6.83c-0.011-0.098,0-0.393-0.245-0.722C9.541,5.84,9.327,5.775,9.194,5.747
		C8.891,5.326,8.655,4.925,8.455,4.619C8.167,4.188,7.966,3.942,7.966,3.942S8.152,4.196,8.428,4.64
		C8.608,4.944,8.838,5.342,9.128,5.767z M6.215,8.408c0,0,0.33,0.193,0.852,0.559c0.035,0.007,0.071,0.015,0.111,0.022
		C6.596,8.6,6.215,8.408,6.215,8.408z M10.357,9.14c-0.075-0.129-0.158-0.215-0.239-0.28c-0.026-0.079-0.056-0.145-0.084-0.208
		c0.173,0.182,0.339,0.269,0.401,0.315c0-0.001,0-0.014,0-0.03c0.024,0.075,0.037,0.148,0.061,0.221
		c0.041,0,0.075-0.005,0.102-0.008c-0.061-0.213-0.125-0.408-0.202-0.6c-0.025-0.103-0.07-0.22-0.133-0.336
		c-0.068-0.153-0.132-0.296-0.197-0.435c0.081,0.055,0.145,0.091,0.176,0.118C10.231,7.782,10.257,7.466,10,7.11
		C9.848,6.9,9.683,6.801,9.553,6.756L9.146,5.957c0,0,0.13,0.292,0.36,0.777C9.474,6.729,9.439,6.714,9.412,6.71
		C9.096,6.251,8.849,5.814,8.637,5.487c-0.297-0.474-0.51-0.734-0.51-0.734s0.202,0.272,0.482,0.752
		c0.192,0.33,0.432,0.763,0.733,1.225C9.397,6.874,9.447,7.087,9.66,7.384c0.097,0.133,0.201,0.233,0.292,0.31
		c0.034,0.08,0.071,0.159,0.108,0.249C9.88,7.767,9.704,7.713,9.588,7.677C9.553,7.618,9.516,7.569,9.485,7.515
		c-0.2-0.433-0.415-0.813-0.602-1.134C8.488,5.68,8.223,5.249,8.223,5.249L8.84,6.401C8.884,6.486,8.935,6.58,8.986,6.673
		C8.917,6.56,8.854,6.452,8.79,6.354C8.482,5.848,8.257,5.561,8.257,5.561c-0.002,0,0.208,0.296,0.499,0.815
		c0.173,0.3,0.375,0.689,0.62,1.107C9.491,7.726,9.601,7.985,9.687,8.26C9.666,8.316,9.633,8.385,9.608,8.467
		c-0.27-0.475-0.499-0.908-0.699-1.248C8.846,7.112,8.785,7.008,8.73,6.921c-0.251-0.519-0.542-0.969-0.78-1.322
		C7.548,4.966,7.286,4.582,7.286,4.582l0.627,1.031c0.271,0.45,0.621,1.019,0.898,1.68c-0.068,0.174-0.16,0.456-0.026,0.882
		c0.167,0.521,0.479,0.759,0.58,0.863c0.008-0.117,0.101-0.433-0.014-0.885c0.076,0.137,0.154,0.278,0.231,0.417
		c-0.03,0.163-0.039,0.363,0.022,0.628c0.259-0.004,0.516-0.015,0.765-0.03C10.366,9.157,10.366,9.149,10.357,9.14z M6.699,8.167
		C6.074,7.759,5.658,7.558,5.658,7.558s0.399,0.224,1.013,0.65c0.354,0.246,0.793,0.572,1.297,0.903
		c0.063,0.011,0.132,0.016,0.193,0.019C7.592,8.774,7.102,8.427,6.699,8.167z M11.255,8.419c0.115-0.66,0.107-1.274,0.107-1.749
		l-0.024-1.125c0,0-0.008,0.424-0.025,1.119c-0.002,0.485-0.015,1.104-0.146,1.764c-0.131,0.101-0.344,0.277-0.47,0.672
		c-0.005,0.02-0.005,0.03-0.005,0.041c0.179-0.014,0.357-0.034,0.53-0.058C11.284,8.781,11.255,8.571,11.255,8.419z"/>
</g>
</svg>
