<?xml version="1.0" encoding="utf-8"?>
<!-- Generator: Adobe Illustrator 16.0.0, SVG Export Plug-In . SVG Version: 6.00 Build 0)  -->
<!DOCTYPE svg PUBLIC "-//W3C//DTD SVG 1.1//EN" "http://www.w3.org/Graphics/SVG/1.1/DTD/svg11.dtd">
<svg version="1.1" id="Groupe" xmlns="http://www.w3.org/2000/svg" xmlns:xlink="http://www.w3.org/1999/xlink" x="0px" y="0px"
	 width="15.871px" height="15.65px" viewBox="0 0 15.871 15.65" enable-background="new 0 0 15.871 15.65" xml:space="preserve">
<g id="PinColor_1_">
	<path id="vert" fill="#2ABF00" stroke="#1D7500" stroke-width="0.2" stroke-miterlimit="10" d="M15.376,7.876
		c0,3.4-2.437,6.251-5.718,7.007c-0.553,0.121-2.936,0.121-3.504-0.021c-3.25-0.771-5.66-3.605-5.66-6.989
		c0-3.968,3.334-7.196,7.44-7.196S15.376,3.905,15.376,7.876z"/>
	<path id="orange" display="none" fill="#FF8500" stroke="#7F4500" stroke-width="0.2" stroke-miterlimit="10" d="M15.376,7.876
		c0,3.4-2.437,6.251-5.718,7.007c-0.553,0.121-2.936,0.121-3.504-0.021c-3.25-0.771-5.66-3.605-5.66-6.989
		c0-3.968,3.334-7.196,7.44-7.196S15.376,3.905,15.376,7.876z"/>
	<path id="gris" display="none" fill="#A5A5A5" stroke="#595959" stroke-width="0.2" stroke-miterlimit="10" d="M15.376,7.876
		c0,3.4-2.437,6.251-5.718,7.007c-0.553,0.121-2.936,0.121-3.504-0.021c-3.25-0.771-5.66-3.605-5.66-6.989
		c0-3.968,3.334-7.196,7.44-7.196S15.376,3.905,15.376,7.876z"/>
	<path id="bleu" display="none" fill="#0092FF" stroke="#00477C" stroke-width="0.2" stroke-miterlimit="10" d="M15.376,7.876
		c0,3.4-2.437,6.251-5.718,7.007c-0.553,0.121-2.936,0.121-3.504-0.021c-3.25-0.771-5.66-3.605-5.66-6.989
		c0-3.968,3.334-7.196,7.44-7.196S15.376,3.905,15.376,7.876z"/>
</g>
<g id="IconsGroup">
	<g id="MinimalGroup" display="none">
		<path id="ElectionGroup" display="inline" fill="#565656" d="M4.571,1.668L3.667,1.281C3.642,1.27,3.608,1.277,3.592,1.3
			L3.333,1.623C3.321,1.635,3.317,1.658,3.321,1.677C3.325,1.697,3.337,1.71,3.354,1.718l-0.81,0.308
			C2.476,2.047,2.417,2.094,2.38,2.158L2.112,2.604C2.055,2.699,2.05,2.815,2.1,2.914l0.02,0.038H1.837
			c-0.036,0-0.064,0.029-0.064,0.064v1.225H1.579c-0.035,0-0.063,0.029-0.063,0.063c0,0.033,0.029,0.063,0.063,0.063H3.77
			c0.035,0,0.063-0.029,0.063-0.063c0-0.034-0.028-0.063-0.063-0.063H3.577V3.583c0-0.021-0.012-0.043-0.028-0.054
			C3.53,3.516,3.506,3.514,3.485,3.525c-0.07,0.033-0.124,0.05-0.147,0.058c-0.005,0-0.011,0.003-0.015,0.006L2.903,3.84
			C2.836,3.88,2.76,3.902,2.683,3.902c-0.145,0-0.275-0.071-0.357-0.192C2.26,3.613,2.237,3.497,2.262,3.383
			C2.286,3.269,2.354,3.172,2.45,3.109L2.512,3.07c0.045-0.026,0.085-0.051,0.12-0.073c0.025-0.015,0.035-0.046,0.027-0.074
			C2.644,2.871,2.618,2.825,2.592,2.79C2.69,2.748,2.823,2.671,2.891,2.593l0,0C2.905,2.601,2.922,2.611,2.94,2.62
			c0.002,0,0.002,0,0.004,0.001l0,0c0.047,0.023,0.107,0.047,0.178,0.063C3.047,2.775,2.971,2.89,2.942,2.967
			C2.892,2.991,2.78,3.052,2.521,3.218C2.452,3.26,2.405,3.33,2.389,3.41C2.372,3.489,2.387,3.57,2.433,3.638
			c0.059,0.087,0.152,0.135,0.25,0.135c0.053,0,0.105-0.018,0.154-0.043L3.28,3.464c0.068-0.017,0.413-0.12,0.674-0.542
			c0.205-0.331,0.32-0.597,0.367-0.718l0.008,0.004c0.027,0.012,0.059,0.021,0.086,0.021c0.052,0,0.102-0.021,0.137-0.058
			C4.589,2.137,4.61,2.088,4.61,2.035V1.727C4.608,1.701,4.595,1.677,4.571,1.668z"/>
	</g>
	<g id="FaibleGroup" display="none">
		<path id="FamineGroup" display="inline" fill="#F9F9F9" d="M3.901,3.938l-0.49,0.093L2.612,3.594l0.291-0.358l0.653,0.217
			L3.901,3.938z M4.653,3.088v0.058l-0.515,0.16L3.629,3.378L2.975,3.161L2.821,3.088h0.088C2.888,2.894,2.86,2.746,2.846,2.552l0,0
			C2.845,2.548,2.838,2.419,2.837,2.364c-0.01-0.06-0.038-0.082-0.129-0.146C2.657,2.188,2.62,2.177,2.601,2.177
			c-0.033,0-0.063,0.036-0.07,0.146c0.146,0.024,0.155,0.186,0.155,0.186C2.699,2.623,2.642,2.79,2.513,2.834
			c-0.238,0.079-0.215-0.381-0.08-0.492c0.004-0.133,0.041-0.255,0.168-0.26c0.051,0,0.102,0.021,0.16,0.061
			c0.027,0.018,0.051,0.031,0.07,0.053C2.829,2.15,2.827,2.105,2.827,2.058c0-0.1,0.015-0.201,0.101-0.276
			C2.972,1.74,3.021,1.718,3.072,1.718c0.127,0.01,0.205,0.117,0.252,0.229C3.377,1.924,3.444,1.913,3.52,1.94
			c0.197,0.064,0.305,0.411,0.223,0.527c-0.195,0.28-0.683-0.236-0.555-0.42c0,0,0.02-0.021,0.053-0.052
			c-0.039-0.1-0.114-0.188-0.17-0.183c-0.022,0-0.049,0.008-0.08,0.036c-0.054,0.05-0.069,0.117-0.069,0.207
			C2.922,2.12,2.93,2.19,2.93,2.26c0,0.037,0.002,0.069,0.003,0.104c0.01,0.063,0.01,0.109,0.01,0.176
			c0.014,0.192,0.09,0.353,0.112,0.548H4.653z M3.276,2.036l0.372,0.403c-0.066-0.286-0.3-0.445-0.3-0.445L3.276,2.036z M2.51,2.382
			L2.444,2.409c0,0-0.033,0.226,0,0.343L2.51,2.382z M2.179,3.741l0.294-0.177l0.306-0.379L2.684,3.088H2.007L1.872,3.358
			L2.179,3.741z M2.521,3.679l-0.52,0.354L2.069,4.12h1.199L3.265,4.104L2.521,3.679z M1.45,3.088v0.409l0.332-0.179l0.103-0.23
			H1.45z M3.726,3.465l0.323,0.473L4.653,4.08V3.54L4.218,3.4L3.726,3.465z M4.653,3.423V3.234l-0.34,0.091L4.653,3.423z
			 M1.792,3.45L1.45,3.612v0.509H1.7l0.373-0.305L1.792,3.45z M3.583,4.121h0.783l-0.373-0.09L3.583,4.121z"/>
		<path id="CycloneGroup" display="inline" fill="#FFFFFF" d="M3.063,1.987c-0.017,0-0.033-0.002-0.05-0.002
			c-0.147,0-0.284,0.038-0.403,0.104C2.823,1.36,3.358,1.295,3.358,1.295S2.176,1.395,2.176,2.774c0.001,0,0.001,0,0.002,0
			c0,0.016-0.001,0.031-0.001,0.049c0,0.146,0.038,0.285,0.104,0.405c-0.73-0.216-0.793-0.75-0.793-0.75s0.099,1.183,1.479,1.183
			c0-0.001,0-0.001,0-0.003c0.016,0.001,0.031,0.003,0.048,0.003c0.147,0,0.285-0.038,0.405-0.104
			C3.204,4.287,2.669,4.35,2.669,4.35S3.853,4.25,3.853,2.871c-0.002,0-0.002,0-0.002,0c0-0.017,0.002-0.033,0.002-0.049
			c0-0.147-0.037-0.285-0.104-0.405c0.729,0.214,0.795,0.75,0.795,0.75s-0.099-1.182-1.48-1.182
			C3.063,1.986,3.063,1.987,3.063,1.987z"/>
		<path id="tsunamiGroup" display="inline" fill="#FFFFFF" d="M4.501,3.796C2.065,3.934,2.747,2.073,3.377,2.233
			C3.312,2.273,3.271,2.41,3.31,2.501c0.044,0.103,0.188,0.155,0.27,0.135c0.194-0.05,0.203-0.321,0.134-0.47
			C3.64,2.017,3.446,1.831,3.108,1.831c-0.813,0-1.371,0.416-1.58,1.131v1.055h2.973V3.796z"/>
		<path id="earthquakeGroup" display="inline" fill="#FFFFFF" d="M3.88,2.915c-0.041,0-0.08,0.023-0.1,0.063L3.618,3.28L3.419,2.694
			C3.403,2.65,3.362,2.62,3.315,2.618c-0.049-0.001-0.09,0.026-0.107,0.07L3.071,3.012L2.854,1.715
			C2.844,1.661,2.792,1.62,2.741,1.623c-0.057,0.002-0.103,0.038-0.11,0.093L2.44,3.219L2.284,2.413
			c-0.008-0.047-0.047-0.084-0.096-0.09C2.141,2.317,2.094,2.342,2.071,2.385l-0.254,0.53H1.425V3.14H1.89
			c0.043,0,0.083-0.023,0.102-0.063l0.137-0.284l0.22,1.146c0.011,0.052,0.058,0.09,0.11,0.09c0.002,0,0.003,0,0.004,0
			c0.056-0.001,0.102-0.042,0.109-0.098L2.76,2.452l0.158,0.973C2.927,3.476,2.966,3.513,3.016,3.52
			c0.051,0.004,0.098-0.022,0.117-0.068L3.302,3.05L3.49,3.602c0.016,0.042,0.053,0.068,0.098,0.072
			c0.046,0.005,0.088-0.02,0.108-0.06l0.253-0.478h0.483V2.915H3.88z"/>
	</g>
	<g id="EleveGroup" display="none">
		<path id="attackGroup" display="inline" fill="#FFFFFF" d="M3.815,3.059l0.793-0.512l-0.767-0.08l0.209-0.89L3.507,2.141
			L3.354,1.505L3.127,2.097L2.505,1.297L2.7,2.301L2.147,2.177c0,0,0.168,0.321,0.262,0.518L1.522,2.631L2.325,3.1l-0.23,0.233
			l0.373-0.064L2.204,4.203l0.785-0.657l0.205,0.511L3.403,3.65l0.676,0.698L3.739,3.41l0.744,0.076L3.815,3.059z"/>
	</g>
	<g id="ExtremeGroup" display="none">
		<path id="rebelionGroup" display="inline" fill="#FFFFFF" d="M3.616,1.875c0,0.323-0.263,0.585-0.584,0.585
			c-0.324,0-0.586-0.262-0.586-0.585c0-0.324,0.262-0.585,0.586-0.585C3.354,1.29,3.616,1.551,3.616,1.875z M2.055,4.355h0.356h0.02
			l0.014-0.027l0.129-0.127L2.452,4.175l-0.188-0.04L2.055,4.355z M4.502,1.983L4.377,2.109l0.008,0.009L4.282,2.219
			C4.297,2.232,4.31,2.245,4.321,2.26l0.103-0.103l0.021,0.019L4.567,2.05L4.502,1.983z M3.694,2.632L3.64,2.686l0.006,0.015
			L3.659,2.73L2.806,3.585l0.091,0.021c0.085,0.018,0.157,0.064,0.205,0.141c0.007,0.01,0.009,0.022,0.013,0.033l0.002-0.003
			L3.18,3.818l0.022-0.005L3.45,3.994l0.168-0.229l-0.371-0.29l0.01-0.024H3.32l0.363-0.427l0.041-0.382L3.694,2.632z M4.091,2.254
			C3.979,2.242,3.872,2.325,3.86,2.439L3.845,2.564l0,0l-0.008,0.09L3.796,3.036L3.792,3.072L3.771,3.098L3.444,3.482l0.244,0.188
			l0.09,0.069L3.725,3.81l0.014,0.022c0.033,0.075,0.108,0.12,0.188,0.12c0.012,0,0.023,0,0.035-0.003
			c0.092-0.015,0.162-0.09,0.172-0.183L4.275,2.48C4.288,2.369,4.204,2.266,4.091,2.254z M3.665,3.898L3.546,4.062L3.478,4.155
			L3.383,4.087L3.177,3.938L3.159,3.942L3.151,3.938c0,0.018,0,0.034-0.005,0.052C3.143,4.007,3.137,4.023,3.13,4.039
			C3.118,4.069,3.1,4.094,3.081,4.12l0.015,0.033C3.11,4.186,3.13,4.228,3.153,4.266l0.059,0.089h0.439L3.665,3.898z M2.829,4.247
			c-0.004,0-0.01-0.001-0.016-0.001c0,0.008-0.002,0.014-0.002,0.014l0.05,0.098h0.118L3.056,4.33
			C3.03,4.288,3.009,4.244,2.989,4.199C2.94,4.227,2.888,4.247,2.829,4.247z M3.001,3.804C2.993,3.792,2.979,3.781,2.968,3.771
			C2.961,3.763,2.956,3.755,2.946,3.75c-0.02-0.015-0.047-0.025-0.074-0.033l-0.09-0.019L2.573,3.654l0,0l-0.185-0.04L2.317,3.6
			L2.2,3.574L2.192,3.573l0.02-0.021l0.08-0.077l0.085-0.085c0.007,0.06,0.01,0.104,0.01,0.104L2.415,3.5l0.258,0.058l0.053-0.056
			l0.798-0.801l-0.02-0.045L3.51,2.651C3.396,2.617,3.26,2.594,3.088,2.594H3.032H2.976c-0.121,0-0.242,0.012-0.361,0.035
			C2.409,2.677,2.282,2.878,2.144,3.014c-0.145,0.143-0.285,0.29-0.425,0.437C1.688,3.484,1.657,3.517,1.624,3.549
			C1.571,3.604,1.551,3.683,1.571,3.757C1.593,3.83,1.653,3.885,1.729,3.902l0.276,0.06l0.117,0.024l0.664,0.142
			C2.801,4.13,2.815,4.132,2.829,4.132c0.097,0,0.184-0.063,0.205-0.166c0.008-0.039,0.002-0.071-0.01-0.105L3.012,3.83
			C3.008,3.822,3.004,3.815,3.001,3.804z M2.708,4.316l-0.02-0.038l0.011-0.042L2.7,4.228L2.667,4.218L2.551,4.355h0.178
			L2.708,4.316z"/>
	</g>
	<path id="displacedGroup" display="none" fill="#FFFFFF" d="M3.049,1.677c0.024,0.151-0.078,0.293-0.228,0.318
		C2.67,2.021,2.526,1.918,2.502,1.768C2.478,1.616,2.579,1.472,2.731,1.449C2.882,1.423,3.024,1.526,3.049,1.677z M2.963,2.776
		l0.245,0.392c0.035,0.058,0.107,0.073,0.164,0.04c0.056-0.033,0.074-0.104,0.043-0.162L3.354,2.934
		C3.299,2.837,3.247,2.74,3.192,2.644L3.083,2.445C3.071,2.422,3.059,2.397,3.046,2.369C2.979,2.228,2.874,2.01,2.643,2.029
		C2.446,2.047,2.245,2.141,2.049,2.308C1.816,2.492,1.652,2.758,1.647,2.771C1.639,2.782,1.631,2.794,1.626,2.804
		c0,0,0,0-0.002,0.001l0,0C1.603,2.847,1.592,2.885,1.618,2.933C1.64,2.969,1.681,2.994,1.724,2.994
		c0.053,0,0.079-0.025,0.105-0.063l0,0l0,0C1.837,2.92,1.844,2.909,1.851,2.897c0.001-0.002,0.138-0.226,0.351-0.402
		C2.266,2.444,2.329,2.409,2.387,2.39L2.34,2.959C2.335,3.014,2.317,3.113,2.302,3.168L2.196,3.54
		C2.183,3.586,2.142,3.665,2.112,3.702L1.825,4.056C1.788,4.103,1.747,4.154,1.78,4.225c0.021,0.042,0.063,0.065,0.11,0.065
		c0.055,0,0.085-0.032,0.123-0.073l0.29-0.313c0.052-0.055,0.119-0.152,0.153-0.22L2.6,3.393l0.533,0.895
		c0.026,0.044,0.06,0.102,0.132,0.102l0,0c0.041,0,0.079-0.021,0.102-0.058c0.039-0.06,0.012-0.113-0.01-0.162L2.924,3.234
		C2.907,3.198,2.899,3.123,2.905,3.083L2.963,2.776z M3.413,3.75h0.645v0.191L4.7,3.571l-0.643-0.37v0.192H3.413V3.75z"/>
	<path id="enlevementGroup" display="none" fill="#FFFFFF" d="M4.372,1.196C4.276,1.196,4.2,1.273,4.2,1.368v0.699
		c0.043,0.009,0.082,0.023,0.115,0.058c0.09,0.089,0.092,0.236,0.004,0.326L3.993,2.786L3.948,2.742l0.326-0.333
		c0.063-0.068,0.063-0.175-0.004-0.24C4.25,2.148,4.226,2.134,4.198,2.127C4.17,2.119,4.142,2.119,4.114,2.125
		c-0.033,0.007-0.06,0.023-0.082,0.047C3.839,2.37,3.646,2.568,3.452,2.767C3.403,2.816,3.315,2.927,3.317,3.042
		c0.002,0.106,0,0.216,0,0.323C3.292,3.344,3.262,3.33,3.227,3.323c-0.1-0.018-0.189,0.043-0.223,0.132h-0.05
		c0-0.021,0-0.049,0-0.073c0.002-0.108-0.002-0.228,0-0.34C2.958,2.93,2.868,2.815,2.821,2.769c-0.194-0.2-0.386-0.398-0.58-0.6
		C2.219,2.148,2.19,2.132,2.159,2.125C2.131,2.118,2.102,2.119,2.073,2.127C2.047,2.134,2.021,2.148,2.002,2.169
		c-0.067,0.065-0.069,0.172-0.005,0.24l0.326,0.333L2.28,2.786L1.954,2.451c-0.088-0.09-0.086-0.237,0.004-0.326
		C1.991,2.094,2.03,2.077,2.071,2.067V1.368c0-0.095-0.078-0.172-0.172-0.172c-0.096,0-0.172,0.077-0.172,0.172v1.21
		c0,0.04,0.016,0.076,0.039,0.105l0.585,0.771H2.3c-0.114,0-0.206,0.093-0.206,0.208c0,0.076,0.042,0.139,0.104,0.175
		C2.137,3.874,2.094,3.937,2.094,4.01c0,0.115,0.092,0.207,0.206,0.207h0.063v0.115h0.574c0.03,0.03,0.065,0.052,0.107,0.063
		c0.013,0.003,0.023,0.004,0.035,0.004c0.102,0,0.188-0.072,0.205-0.172V4.219h0.037c0,0.038,0,0.076,0.004,0.115h0.582V4.219H3.97
		c0.112,0,0.206-0.092,0.206-0.204c0-0.074-0.042-0.142-0.104-0.178c0.063-0.036,0.104-0.099,0.104-0.175
		c0-0.114-0.094-0.207-0.206-0.207H3.92l0.584-0.771c0.024-0.03,0.04-0.065,0.04-0.105V1.37C4.544,1.273,4.467,1.196,4.372,1.196z
		 M2.196,3.662c0-0.057,0.047-0.103,0.104-0.103h0.678L2.942,3.766H2.3C2.243,3.764,2.196,3.719,2.196,3.662z M2.196,4.012
		c0-0.06,0.047-0.104,0.104-0.104h0.617L2.882,4.116H2.3C2.243,4.116,2.196,4.07,2.196,4.012z M3.181,4.207
		C3.172,4.263,3.112,4.3,3.062,4.292C3.034,4.288,3.011,4.272,2.995,4.25C2.979,4.228,2.974,4.2,2.978,4.172L3.092,3.51
		c0.009-0.05,0.052-0.086,0.103-0.086c0.006,0,0.012,0,0.017,0.001c0.057,0.014,0.094,0.063,0.084,0.12L3.181,4.207z M4.075,4.012
		c0,0.058-0.045,0.104-0.104,0.104h-0.67l0.035-0.208h0.636C4.028,3.909,4.075,3.956,4.075,4.012z M4.075,3.662
		c0,0.057-0.045,0.104-0.104,0.104h-0.61l0.034-0.201c0-0.001,0-0.003,0-0.004h0.576C4.028,3.559,4.075,3.606,4.075,3.662z"/>
	<path id="eruptionGroup" display="none" fill="#FFFFFF" d="M3.247,2.253C3.424,2.313,3.657,2.384,3.708,2.1
		C3.747,1.878,4.04,1.96,4.165,1.947c0.229-0.027,0.057-0.454-0.229-0.46C3.647,1.48,3.517,1.608,3.399,1.87
		c-0.053,0.126-0.1,0.221-0.305,0.153c-0.204-0.068-0.355,0.1-0.23,0.307c0.109,0.186-0.002,0.383-0.002,0.383h0.309
		c0,0-0.002-0.109-0.077-0.229C3.007,2.346,3.067,2.191,3.247,2.253z M1.614,4.159c0.793-0.578,0.992-1.376,0.992-1.376H3.42
		c0,0,0.197,0.798,0.99,1.376H1.614z"/>
	<path id="returnedGroup" display="none" fill="#FFFFFF" d="M3.05,1.677c0.023,0.151-0.078,0.293-0.229,0.318
		C2.67,2.02,2.526,1.918,2.503,1.766C2.478,1.615,2.579,1.472,2.731,1.448C2.882,1.423,3.024,1.525,3.05,1.677z M2.963,2.775
		l0.245,0.393c0.035,0.058,0.107,0.072,0.164,0.04c0.056-0.034,0.074-0.104,0.043-0.162L3.354,2.933
		C3.3,2.837,3.247,2.74,3.194,2.643L3.083,2.445C3.071,2.422,3.06,2.397,3.046,2.369c-0.067-0.141-0.172-0.36-0.403-0.34
		c-0.196,0.017-0.397,0.11-0.594,0.277C1.815,2.492,1.651,2.758,1.646,2.77c-0.007,0.012-0.015,0.021-0.02,0.034L1.624,2.805l0,0
		C1.603,2.847,1.592,2.885,1.618,2.933C1.64,2.969,1.681,2.995,1.724,2.995c0.053,0,0.079-0.025,0.104-0.063l0,0l0,0
		C1.835,2.921,1.843,2.909,1.85,2.897C1.852,2.895,1.989,2.675,2.2,2.495C2.266,2.443,2.329,2.408,2.387,2.39L2.34,2.959
		C2.335,3.014,2.317,3.113,2.302,3.168L2.196,3.54C2.183,3.587,2.142,3.665,2.11,3.702L1.825,4.056
		C1.788,4.103,1.747,4.154,1.78,4.225c0.021,0.042,0.063,0.065,0.11,0.065c0.055,0,0.085-0.032,0.123-0.073l0.29-0.313
		c0.052-0.055,0.119-0.152,0.151-0.22l0.145-0.293l0.533,0.895c0.025,0.044,0.061,0.102,0.132,0.102l0,0
		c0.041,0,0.079-0.021,0.103-0.059c0.037-0.059,0.011-0.113-0.01-0.16L2.925,3.234C2.909,3.198,2.9,3.123,2.905,3.083L2.963,2.775z
		 M4.757,2.975c0-0.394-0.318-0.708-0.709-0.708H3.747v0.354h0.302C4.241,2.623,4.4,2.78,4.4,2.975c0,0.189-0.155,0.351-0.351,0.351
		H3.985V3.134l-0.641,0.37l0.641,0.371V3.683h0.07l0,0C4.442,3.677,4.757,3.363,4.757,2.975z"/>
	<g id="Affected" display="none">
		<path display="inline" fill="#FFFFFF" d="M2.313,1.619c0,0.136-0.111,0.246-0.247,0.246c-0.136,0-0.247-0.11-0.247-0.246
			c0-0.137,0.111-0.247,0.247-0.247C2.203,1.372,2.313,1.482,2.313,1.619z M2.093,3.306l0.053,0.907
			c0,0.031,0.026,0.062,0.058,0.062c0.032,0,0.058-0.027,0.058-0.062l0.049-0.907h0.161L2.305,2.286L2.64,2.953
			c0.012,0.029,0.046,0.043,0.076,0.031C2.745,2.971,2.76,2.938,2.747,2.908c0,0-0.246-0.663-0.306-0.787
			C2.38,1.997,2.32,1.922,2.09,1.922H2.043c-0.23,0-0.291,0.075-0.351,0.199S1.387,2.908,1.387,2.908
			c-0.013,0.03,0.001,0.063,0.03,0.076c0.03,0.013,0.064-0.001,0.076-0.031l0.335-0.667L1.662,3.306h0.161l0.05,0.907
			c0,0.031,0.026,0.062,0.058,0.062c0.032,0,0.058-0.027,0.058-0.062l0.05-0.907H2.093L2.093,3.306z M4.058,1.371
			c-0.136,0-0.246,0.11-0.246,0.247s0.11,0.247,0.246,0.247c0.137,0,0.246-0.11,0.246-0.247S4.194,1.371,4.058,1.371z M4.313,2.822
			L4.33,2.286l0.301,0.667c0.013,0.029,0.048,0.043,0.076,0.031c0.03-0.013,0.044-0.046,0.032-0.076c0,0-0.213-0.664-0.273-0.787
			C4.403,1.997,4.312,1.922,4.082,1.922H4.034c-0.23,0-0.323,0.075-0.385,0.199C3.59,2.244,3.378,2.907,3.378,2.907
			c-0.013,0.03,0.001,0.063,0.031,0.077c0.029,0.013,0.063-0.001,0.074-0.031l0.303-0.667l0.016,0.536L3.755,4.169
			C3.751,4.223,3.791,4.27,3.845,4.272c0.002,0.002,0.006,0.002,0.006,0.002c0.053,0,0.094-0.039,0.099-0.092l0.108-1.109
			l0.111,1.109c0.002,0.053,0.045,0.092,0.096,0.092c0.002,0,0.004,0,0.006-0.002C4.323,4.27,4.364,4.223,4.36,4.169L4.313,2.822
			L4.313,2.822z M3.063,2.87c-0.083,0-0.152,0.067-0.152,0.15c0,0.084,0.068,0.148,0.152,0.148s0.15-0.064,0.15-0.148
			C3.213,2.937,3.146,2.87,3.063,2.87z M3.063,3.76l0.068,0.476c0.009,0.021,0.03,0.041,0.057,0.041s0.049-0.021,0.059-0.043
			c0-0.002,0.001-0.031,0-0.035l-0.028-0.58l0.009-0.201c0.009-0.063,0.01-0.047,0.087-0.093c0.08-0.047,0.211-0.255,0.22-0.266
			C3.54,3.046,3.554,3.03,3.556,3.018c0.004-0.021-0.01-0.041-0.029-0.045C3.508,2.969,3.495,2.977,3.485,2.988
			C3.474,3,3.32,3.204,3.205,3.224C3.179,3.221,3.15,3.207,3.077,3.207H3.048c-0.074,0-0.102,0.017-0.128,0.021
			C2.805,3.204,2.65,3,2.639,2.988C2.629,2.977,2.617,2.969,2.6,2.971C2.58,2.975,2.565,2.995,2.57,3.016
			c0.002,0.012,0.014,0.027,0.021,0.04c0.006,0.01,0.141,0.219,0.22,0.266C2.888,3.368,2.89,3.348,2.897,3.415l0.008,0.201
			l-0.028,0.58c-0.001,0.006,0,0.033,0.001,0.035c0.008,0.021,0.03,0.043,0.058,0.043c0.026,0,0.048-0.021,0.057-0.041
			C2.994,4.233,3.063,3.76,3.063,3.76"/>
	</g>
	<path id="epidemieGroup" display="none" fill="#FFFFFF" d="M4.284,2.946c0-0.696-0.545-1.262-1.231-1.297
		c0.304,0.025,0.54,0.249,0.54,0.517c0,0.092-0.031,0.177-0.08,0.252C3.376,2.283,3.19,2.2,2.983,2.2
		c-0.205,0-0.392,0.083-0.527,0.218c-0.047-0.075-0.078-0.16-0.078-0.252c0-0.268,0.234-0.488,0.539-0.517
		C2.231,1.685,1.686,2.251,1.686,2.946c0,0.209,0.052,0.407,0.14,0.583C1.704,3.255,1.778,2.945,2.007,2.814
		c0.08-0.046,0.168-0.063,0.258-0.062C2.247,2.817,2.237,2.881,2.237,2.948c0,0.346,0.235,0.634,0.555,0.72
		C2.786,3.675,2.78,3.681,2.776,3.69v0.001c-0.011,0.021-0.023,0.043-0.039,0.06C2.702,3.796,2.663,3.836,2.612,3.864
		C2.383,3.997,2.077,3.905,1.899,3.66C2.132,4.013,2.53,4.247,2.985,4.247c0.45,0,0.844-0.229,1.081-0.576
		c-0.182,0.237-0.48,0.325-0.708,0.194C3.278,3.818,3.22,3.749,3.18,3.668c0.317-0.086,0.551-0.375,0.551-0.72
		c0-0.066-0.01-0.13-0.024-0.192c0.09-0.005,0.179,0.015,0.259,0.062c0.223,0.128,0.299,0.422,0.189,0.688
		C4.237,3.336,4.284,3.146,4.284,2.946z M3.122,3.446C3.116,3.338,3.14,3.225,3.194,3.117l-0.086-0.05
		C3.077,3.1,3.032,3.12,2.985,3.12c-0.049,0-0.093-0.02-0.125-0.052L2.776,3.116c0.055,0.107,0.077,0.222,0.071,0.331
		c-0.22-0.063-0.383-0.26-0.383-0.499c0-0.046,0.008-0.089,0.019-0.13c0.096,0.048,0.184,0.124,0.25,0.224l0.088-0.051
		c-0.004-0.015-0.01-0.029-0.01-0.045c0-0.081,0.055-0.146,0.131-0.165V2.68C2.821,2.67,2.713,2.634,2.622,2.576
		c0.092-0.092,0.221-0.148,0.361-0.148s0.271,0.061,0.364,0.15c-0.091,0.062-0.2,0.096-0.319,0.104v0.1
		c0.073,0.02,0.129,0.084,0.129,0.165c0,0.016-0.004,0.03-0.008,0.044l0.088,0.05c0.065-0.1,0.153-0.175,0.249-0.224
		c0.01,0.042,0.02,0.084,0.02,0.129C3.504,3.187,3.342,3.385,3.122,3.446z"/>
</g>
<g>
	<path fill="#FFFFFF" d="M14.315,8.393L14.315,8.393c-0.032,0.853-0.324,1.779-0.767,2.63c0,0-1.063,2.152-4.401,2.152
		c-3.339,0-4.423-2.136-4.423-2.136c-0.445-0.851-0.72-1.768-0.749-2.641l0,0c0-0.024,0-0.047,0-0.069
		c0-0.41,0.253-0.795,0.687-1.122L5.13,7.505C4.844,7.696,4.676,7.91,4.676,8.148c0,0.801,2,1.454,4.472,1.454
		c2.47,0,4.473-0.648,4.473-1.454c0-0.564-0.963-1.045-2.372-1.29l0.008-0.59c1.812,0.353,3.061,1.145,3.061,2.066
		C14.315,8.352,14.315,8.373,14.315,8.393z M5.691,4.924c-0.021,0.139-0.038,0.36,0.131,0.66c0.213,0.361,0.477,0.482,0.564,0.543
		C6.372,6.034,6.396,5.757,6.203,5.42C6.035,5.115,5.849,4.98,5.738,4.873C5.427,4.43,5.082,4.069,4.811,3.787L4.176,3.132
		c0,0,0.231,0.262,0.608,0.68C5.046,4.103,5.388,4.473,5.691,4.924z M7.276,8.402c0.135,0.127,0.307,0.336,0.688,0.552
		c0.426,0.241,0.788,0.241,0.91,0.262c-0.07-0.11-0.206-0.465-0.677-0.724C7.807,8.281,7.519,8.32,7.342,8.352
		C6.76,8.007,6.254,7.667,5.856,7.412C5.282,7.06,4.908,6.881,4.908,6.881s0.36,0.197,0.925,0.568
		C6.222,7.708,6.705,8.057,7.276,8.402z M7.616,6.552C7.571,6.709,7.505,6.96,7.657,7.33C7.833,7.787,8.132,7.978,8.22,8.064
		c0-0.112,0.081-0.428-0.087-0.856c-0.15-0.386-0.341-0.574-0.453-0.715C7.392,5.926,7.038,5.449,6.772,5.083L6.124,4.212
		l0.61,0.892C6.996,5.483,7.337,5.971,7.616,6.552z M6.537,7.471C6.668,7.589,6.833,7.78,7.188,7.97
		c0.397,0.214,0.735,0.206,0.849,0.231C7.971,8.095,7.834,7.772,7.39,7.543C7.027,7.352,6.76,7.395,6.595,7.424
		c-0.55-0.307-1.022-0.619-1.4-0.844c-0.542-0.325-0.89-0.486-0.89-0.49c0,0.004,0.337,0.183,0.872,0.521
		C5.538,6.843,5.994,7.166,6.537,7.471z M5.758,6.561C5.883,6.668,6.035,6.84,6.372,7.009C6.747,7.206,7.057,7.19,7.165,7.207
		C7.102,7.115,6.967,6.821,6.552,6.615C6.218,6.447,5.969,6.484,5.818,6.513C5.304,6.24,4.862,5.954,4.511,5.749
		c-0.509-0.292-0.84-0.442-0.834-0.442c0,0,0.319,0.166,0.814,0.476C4.827,5.993,5.257,6.284,5.758,6.561z M4.968,5.231
		c0.228,0.201,0.443,0.218,0.564,0.255c-0.021-0.101,0-0.341-0.26-0.574C5.049,4.724,4.827,4.71,4.715,4.698
		C3.808,3.924,3.005,3.421,2.816,3.305L2.779,3.276C2.77,3.282,3.658,3.868,4.699,4.778C4.728,4.891,4.79,5.075,4.968,5.231z
		 M4.955,5.658c0.11,0.098,0.257,0.254,0.567,0.406c0.345,0.172,0.632,0.157,0.729,0.172C6.19,6.151,6.061,5.883,5.683,5.698
		C5.369,5.55,5.143,5.592,5.004,5.618c-0.471-0.248-0.884-0.51-1.207-0.694C3.329,4.657,3.022,4.528,3.022,4.528
		s0.3,0.147,0.756,0.431C4.089,5.146,4.486,5.408,4.955,5.658z M6.687,5.712C6.655,5.859,6.608,6.098,6.77,6.435
		c0.192,0.408,0.48,0.563,0.567,0.641C7.33,6.968,7.374,6.671,7.194,6.29C7.03,5.943,6.848,5.782,6.731,5.658
		C6.434,5.153,6.08,4.733,5.812,4.406l-0.642-0.76l0.613,0.788C6.045,4.767,6.386,5.194,6.687,5.712z M10.252,6.585
		c-0.1,0.098-0.264,0.266-0.313,0.614c-0.068,0.42,0.079,0.69,0.102,0.792c0.055-0.084,0.248-0.296,0.311-0.695
		c0.051-0.352-0.016-0.576-0.035-0.726c0.033-0.559-0.037-1.064-0.081-1.456c-0.065-0.576-0.11-0.929-0.11-0.929l0.082,0.932
		C10.235,5.512,10.289,6.027,10.252,6.585z M9.924,5.641c-0.087,0.1-0.227,0.262-0.254,0.592C9.641,6.621,9.789,6.862,9.819,6.953
		c0.044-0.08,0.214-0.288,0.244-0.657c0.022-0.33-0.053-0.531-0.084-0.674c0-0.513-0.085-0.979-0.151-1.338L9.67,3.429L9.8,4.284
		C9.853,4.655,9.924,5.126,9.924,5.641z M9.544,4.714C9.468,4.81,9.353,4.972,9.348,5.273c-0.003,0.363,0.147,0.574,0.185,0.66
		c0.032-0.083,0.169-0.28,0.18-0.622c0.002-0.308-0.078-0.483-0.114-0.616C9.562,4.219,9.456,3.799,9.372,3.474l-0.19-0.771
		l0.16,0.775C9.419,3.811,9.512,4.24,9.544,4.714z M10.211,9.031c0.061-0.083,0.285-0.296,0.383-0.713
		c0.083-0.375,0.03-0.622,0.014-0.789c0.069-0.59,0.041-1.138,0.008-1.565c-0.038-0.623-0.074-1.003-0.074-1.003l0.036,1.003
		c0.017,0.435,0.028,0.989-0.036,1.58c-0.117,0.102-0.306,0.274-0.381,0.64C10.063,8.627,10.19,8.921,10.211,9.031z M8.315,4.106
		C8.362,4.212,8.409,4.38,8.579,4.59C8.77,4.833,8.979,4.911,9.05,4.96C9.034,4.878,9.038,4.641,8.828,4.376
		c-0.175-0.209-0.35-0.262-0.46-0.286C8.115,3.749,7.911,3.423,7.744,3.183C7.5,2.826,7.325,2.632,7.325,2.628
		c0,0,0.16,0.205,0.392,0.564C7.879,3.445,8.066,3.77,8.315,4.106z M8.479,3.795C8.57,4.02,8.72,4.103,8.798,4.169
		c0.013-0.082,0.114-0.253,0.009-0.503c-0.09-0.214-0.244-0.297-0.325-0.341C8.096,2.453,7.699,1.821,7.603,1.671L7.588,1.638
		c-0.002,0,0.426,0.718,0.854,1.74C8.423,3.466,8.401,3.625,8.479,3.795z M8.859,5.565c0.206,0.266,0.433,0.364,0.505,0.409
		C9.35,5.881,9.356,5.625,9.131,5.333C8.944,5.1,8.755,5.045,8.634,5.019C8.36,4.647,8.143,4.288,7.965,4.023
		C7.702,3.639,7.519,3.425,7.519,3.421c0,0,0.172,0.226,0.418,0.619c0.172,0.27,0.378,0.625,0.64,0.994
		C8.628,5.153,8.681,5.329,8.859,5.565z M9.103,3.811C9.047,3.905,8.955,4.058,8.97,4.337C8.992,4.669,9.142,4.85,9.185,4.922
		C9.203,4.85,9.323,4.657,9.3,4.344C9.284,4.062,9.198,3.901,9.158,3.785c-0.066-0.423-0.193-0.801-0.28-1.097L8.65,1.991
		c0,0,0.071,0.271,0.2,0.699C8.931,2.994,9.05,3.384,9.103,3.811z M8.814,5.963c0.051,0.128,0.101,0.323,0.294,0.578
		c0.218,0.284,0.461,0.394,0.536,0.447c-0.011-0.095,0-0.379-0.235-0.695C9.211,6.034,9.005,5.974,8.878,5.943
		C8.586,5.54,8.36,5.153,8.167,4.861C7.891,4.444,7.696,4.208,7.696,4.208s0.18,0.245,0.444,0.671
		C8.315,5.172,8.534,5.553,8.814,5.963z M6.013,8.503c0,0,0.317,0.187,0.819,0.536C6.863,9.048,6.9,9.055,6.939,9.063
		C6.378,8.687,6.013,8.503,6.013,8.503z M9.996,9.209c-0.073-0.124-0.151-0.206-0.229-0.27C9.741,8.862,9.714,8.799,9.686,8.738
		c0.167,0.175,0.325,0.258,0.387,0.304c0-0.003,0-0.013,0-0.029c0.021,0.073,0.035,0.144,0.058,0.212
		c0.04,0,0.073-0.005,0.098-0.008c-0.058-0.205-0.12-0.392-0.194-0.576c-0.024-0.099-0.067-0.212-0.128-0.323
		C9.839,8.171,9.778,8.033,9.716,7.9c0.078,0.053,0.14,0.086,0.17,0.114C9.875,7.903,9.9,7.598,9.652,7.256
		c-0.146-0.202-0.305-0.297-0.43-0.341L8.83,6.147c0,0,0.126,0.282,0.347,0.749C9.146,6.89,9.113,6.877,9.087,6.87
		C8.783,6.428,8.545,6.008,8.341,5.694c-0.286-0.454-0.49-0.706-0.49-0.706s0.194,0.262,0.464,0.723
		C8.5,6.029,8.73,6.445,9.02,6.888c0.055,0.139,0.102,0.344,0.307,0.629c0.093,0.128,0.193,0.226,0.28,0.299
		c0.034,0.077,0.068,0.153,0.104,0.24C9.538,7.888,9.368,7.836,9.256,7.801C9.223,7.744,9.188,7.696,9.158,7.645
		C8.965,7.23,8.759,6.862,8.579,6.555c-0.38-0.674-0.636-1.088-0.636-1.088l0.594,1.105c0.044,0.083,0.091,0.172,0.142,0.262
		C8.611,6.727,8.55,6.621,8.489,6.528C8.193,6.041,7.977,5.765,7.977,5.765c-0.002,0,0.2,0.284,0.479,0.784
		c0.166,0.289,0.361,0.664,0.597,1.064C9.164,7.848,9.268,8.095,9.352,8.36C9.331,8.416,9.3,8.481,9.276,8.559
		c-0.26-0.456-0.48-0.873-0.673-1.2C8.542,7.256,8.484,7.158,8.431,7.073c-0.24-0.499-0.521-0.93-0.75-1.271
		c-0.387-0.608-0.64-0.978-0.64-0.978l0.604,0.991C7.906,6.247,8.244,6.795,8.51,7.43C8.444,7.598,8.356,7.869,8.484,8.279
		c0.161,0.5,0.46,0.729,0.558,0.83C9.05,8.997,9.14,8.693,9.029,8.26c0.073,0.132,0.147,0.267,0.223,0.401
		C9.223,8.817,9.214,9.01,9.273,9.264c0.248-0.003,0.496-0.014,0.735-0.029C10.006,9.224,10.006,9.217,9.996,9.209z M6.479,8.273
		C5.877,7.879,5.477,7.687,5.477,7.687S5.86,7.903,6.451,8.312c0.341,0.235,0.763,0.55,1.248,0.87
		C7.76,9.191,7.826,9.197,7.884,9.199C7.337,8.857,6.866,8.521,6.479,8.273z M10.859,8.513c0.111-0.633,0.104-1.225,0.104-1.681
		L10.94,5.75c0,0-0.008,0.409-0.022,1.076c-0.006,0.467-0.018,1.062-0.145,1.695c-0.125,0.097-0.33,0.266-0.45,0.647
		c-0.006,0.019-0.006,0.029-0.006,0.04c0.172-0.014,0.344-0.034,0.511-0.056C10.888,8.862,10.859,8.661,10.859,8.513z"/>
</g>
</svg>
