<?xml version="1.0" encoding="utf-8"?>
<!-- Generator: Adobe Illustrator 16.0.0, SVG Export Plug-In . SVG Version: 6.00 Build 0)  -->
<!DOCTYPE svg PUBLIC "-//W3C//DTD SVG 1.1//EN" "http://www.w3.org/Graphics/SVG/1.1/DTD/svg11.dtd">
<svg version="1.1" id="Layer_1" xmlns="http://www.w3.org/2000/svg" xmlns:xlink="http://www.w3.org/1999/xlink" x="0px" y="0px"
	 width="33.35px" height="40px" viewBox="0 0 33.35 40" enable-background="new 0 0 33.35 40" xml:space="preserve">
<g id="PinColor">
	<path id="PinOmbre" opacity="0.3" enable-background="new    " d="M28.608,30.877c0,1.77-3.883,3.253-9.104,3.645
		c-0.882,0.066-2.746,4.217-2.746,4.217s-1.93-4.15-2.84-4.223c-5.174-0.402-9.015-1.88-9.015-3.639
		c0-2.07,5.308-3.748,11.854-3.748C23.3,27.129,28.608,28.805,28.608,30.877z"/>
	<path id="vert" display="none" fill="#2ABF00" stroke="#1D7500" stroke-width="0.2" stroke-miterlimit="10" d="M28.608,13.482
		c0,5.416-3.883,9.956-9.104,11.157c-0.882,0.198-2.746,12.896-2.746,12.896s-1.93-12.696-2.84-12.921
		c-5.174-1.229-9.015-5.749-9.015-11.135c0-6.331,5.308-11.463,11.854-11.463C23.3,2.015,28.608,7.151,28.608,13.482z"/>
	<path id="orange" display="none" fill="#FF8500" stroke="#7F4500" stroke-width="0.2" stroke-miterlimit="10" d="M28.608,13.482
		c0,5.416-3.883,9.956-9.104,11.157c-0.882,0.198-2.746,12.896-2.746,12.896s-1.93-12.696-2.84-12.921
		c-5.174-1.229-9.015-5.749-9.015-11.135c0-6.331,5.308-11.463,11.854-11.463C23.3,2.015,28.608,7.151,28.608,13.482z"/>
	<path id="gris" display="none" fill="#A5A5A5" stroke="#595959" stroke-width="0.2" stroke-miterlimit="10" d="M28.608,13.482
		c0,5.416-3.883,9.956-9.104,11.157c-0.882,0.198-2.746,12.896-2.746,12.896s-1.93-12.696-2.84-12.921
		c-5.174-1.229-9.015-5.749-9.015-11.135c0-6.331,5.308-11.463,11.854-11.463C23.3,2.015,28.608,7.151,28.608,13.482z"/>
	<path id="bleu" fill="#0092FF" stroke="#00477C" stroke-width="0.2" stroke-miterlimit="10" d="M28.608,13.482
		c0,5.416-3.883,9.956-9.104,11.157c-0.882,0.198-2.746,12.896-2.746,12.896s-1.93-12.696-2.84-12.921
		c-5.174-1.229-9.015-5.749-9.015-11.135c0-6.331,5.308-11.463,11.854-11.463C23.3,2.015,28.608,7.151,28.608,13.482z"/>
</g>
<g id="Icons">
	<g id="Minimal">
		<path id="Election" display="none" fill="#565656" d="M32.048-0.729l-4.446-1.905C27.47-2.691,27.317-2.652,27.23-2.54
			l-1.273,1.588c-0.056,0.071-0.077,0.171-0.06,0.264c0.021,0.089,0.079,0.163,0.157,0.206L22.07,1.012
			c-0.337,0.126-0.621,0.362-0.805,0.67L19.947,3.88c-0.279,0.466-0.302,1.038-0.058,1.525l0.096,0.186h-1.392
			c-0.176,0-0.318,0.142-0.318,0.319v6.031h-0.952c-0.176,0-0.314,0.142-0.314,0.315c0,0.176,0.139,0.317,0.314,0.317h10.794
			c0.174,0,0.312-0.142,0.312-0.317c0-0.174-0.138-0.315-0.312-0.315h-0.954V8.695c0-0.106-0.06-0.212-0.148-0.267
			c-0.094-0.059-0.208-0.067-0.307-0.021c-0.35,0.164-0.606,0.247-0.729,0.283c-0.027,0.006-0.053,0.017-0.075,0.035l-2.064,1.239
			c-0.328,0.199-0.703,0.303-1.085,0.303c-0.703,0-1.36-0.349-1.762-0.943c-0.318-0.477-0.429-1.052-0.311-1.611
			c0.12-0.56,0.453-1.04,0.931-1.346l0.301-0.191c0.223-0.134,0.416-0.256,0.592-0.364c0.122-0.077,0.178-0.225,0.137-0.362
			c-0.077-0.255-0.211-0.48-0.331-0.655c0.483-0.212,1.138-0.59,1.468-0.973c0,0,0.005,0.002,0.007,0.002
			c0.068,0.043,0.15,0.087,0.242,0.132c0.007,0.002,0.009,0.004,0.017,0.006l0,0c0.236,0.115,0.536,0.229,0.88,0.297
			c-0.368,0.458-0.745,1.027-0.882,1.407c-0.264,0.115-0.81,0.426-2.084,1.238c-0.338,0.215-0.569,0.548-0.648,0.94
			c-0.085,0.392-0.01,0.792,0.216,1.127c0.283,0.427,0.748,0.662,1.231,0.662c0.259,0,0.521-0.069,0.758-0.211l2.182-1.31
			c0.339-0.083,2.036-0.591,3.321-2.669c1.009-1.628,1.574-2.941,1.81-3.535l0.039,0.02c0.132,0.065,0.276,0.099,0.424,0.099
			c0.241,0,0.485-0.097,0.66-0.267c0.19-0.178,0.291-0.424,0.291-0.684v-1.512C32.236-0.565,32.163-0.681,32.048-0.729z"/>
	</g>
	<g id="Faible">
		<path id="Famine" display="none" fill="#F9F9F9" d="M29.189,10.957l-2.523,0.478l-4.119-2.239l1.497-1.869l3.37,1.119
			L29.189,10.957z M33.066,6.579v0.28L30.41,7.701l-2.623,0.373l-3.369-1.121l-0.793-0.374h0.452
			c-0.106-1.002-0.253-1.762-0.321-2.755h-0.005c-0.003-0.029-0.036-0.695-0.046-0.979c-0.052-0.299-0.192-0.418-0.66-0.74
			c-0.258-0.165-0.448-0.225-0.556-0.223c-0.172,0-0.325,0.187-0.362,0.746c0.749,0.127,0.801,0.958,0.801,0.958
			c0.067,0.59-0.223,1.452-0.89,1.675c-1.232,0.413-1.106-1.964-0.41-2.534c0.019-0.684,0.21-1.312,0.861-1.337
			c0.26,0.002,0.521,0.107,0.826,0.301c0.147,0.087,0.263,0.175,0.366,0.266c-0.014-0.225-0.026-0.456-0.026-0.693
			c-0.003-0.5,0.075-1.043,0.519-1.429c0.229-0.208,0.486-0.314,0.738-0.312c0.659,0.032,1.068,0.6,1.305,1.181
			c0.277-0.121,0.622-0.181,1.021-0.043c1.014,0.352,1.561,2.12,1.137,2.737c-1,1.436-3.517-1.237-2.852-2.17
			c0,0,0.098-0.127,0.271-0.267c-0.193-0.515-0.586-0.975-0.881-0.943c-0.111,0.002-0.242,0.042-0.407,0.189
			c-0.277,0.246-0.354,0.597-0.354,1.058c0,0.324,0.039,0.684,0.039,1.044c0,0.189,0.013,0.354,0.019,0.536
			c0.046,0.32,0.048,0.57,0.046,0.909c0.068,0.99,0.47,1.805,0.576,2.826H33.066z M25.977,1.157l1.905,2.077
			c-0.34-1.472-1.55-2.293-1.55-2.293L25.977,1.157z M22.025,2.939l-0.341,0.14c0,0-0.17,1.161,0,1.768L22.025,2.939z M20.318,9.945
			l1.513-0.911l1.581-1.955l-0.492-0.501h-3.49l-0.694,1.384L20.318,9.945z M22.085,9.63l-2.685,1.828l0.359,0.443h6.179
			l-0.021-0.091L22.085,9.63z M16.561,6.579v2.107l1.721-0.922l0.521-1.185H16.561z M28.286,8.523l1.664,2.414l3.115,0.732V8.907
			l-2.24-0.722L28.286,8.523z M33.066,8.304V7.329l-1.747,0.474L33.066,8.304z M18.324,8.438L16.56,9.277V11.9h1.291l1.92-1.574
			L18.324,8.438z M27.558,11.901h4.032l-1.931-0.467L27.558,11.901z"/>
		<path id="Cyclone" display="none" fill="#FFFFFF" d="M24.878,0.909c-0.086-0.004-0.171-0.015-0.256-0.015
			c-0.757,0-1.468,0.197-2.086,0.539c1.104-3.765,3.862-4.093,3.862-4.093s-6.093,0.507-6.093,7.615c0.006,0,0.01,0,0.014,0
			c-0.004,0.086-0.014,0.168-0.014,0.255c0,0.753,0.196,1.465,0.537,2.085c-3.763-1.106-4.092-3.86-4.092-3.86
			s0.507,6.093,7.619,6.093c0-0.006,0-0.008,0-0.014c0.083,0.004,0.167,0.014,0.252,0.014c0.758,0,1.468-0.197,2.087-0.54
			c-1.105,3.766-3.865,4.095-3.865,4.095s6.095-0.51,6.095-7.618c-0.004,0-0.009,0-0.013,0c0.004-0.085,0.013-0.167,0.013-0.252
			c0-0.756-0.194-1.468-0.539-2.085c3.766,1.105,4.095,3.863,4.095,3.863s-0.505-6.094-7.614-6.094
			C24.878,0.9,24.878,0.905,24.878,0.909z"/>
		<path id="tsunami" display="none" fill="#FFFFFF" d="M32.277,10.226c-12.538,0.709-9.035-8.881-5.782-8.053
			c-0.336,0.205-0.551,0.91-0.344,1.385c0.227,0.509,0.958,0.798,1.382,0.693c1.01-0.26,1.055-1.679,0.693-2.423
			c-0.377-0.774-1.377-1.729-3.115-1.729c-4.197,0-7.064,2.145-8.143,5.831v5.421h15.311v-1.125H32.277z"/>
		<path id="earthquake" display="none" fill="#FFFFFF" d="M29.086,5.685c-0.216,0-0.413,0.119-0.514,0.309l-0.837,1.575l-1.031-3.02
			c-0.079-0.229-0.289-0.383-0.531-0.394c-0.247-0.006-0.463,0.134-0.559,0.356L24.91,6.189l-1.114-6.684
			c-0.055-0.279-0.318-0.491-0.585-0.477c-0.286,0.006-0.524,0.195-0.563,0.479l-0.987,7.757l-0.796-4.163
			c-0.047-0.244-0.247-0.433-0.495-0.467c-0.246-0.034-0.492,0.099-0.601,0.325l-1.308,2.725H16.43v1.161h2.398
			c0.224,0,0.43-0.128,0.527-0.328l0.702-1.464l1.133,5.904c0.057,0.275,0.292,0.474,0.574,0.474c0.004,0,0.01,0,0.014,0
			c0.283-0.009,0.521-0.223,0.562-0.505l0.97-7.622l0.813,5.018c0.048,0.253,0.252,0.445,0.508,0.474
			c0.26,0.023,0.502-0.117,0.603-0.354l0.873-2.072l0.971,2.844c0.073,0.221,0.271,0.375,0.499,0.394
			C27.81,9.62,28.029,9.505,28.141,9.3l1.297-2.455h2.495V5.685H29.086z"/>
	</g>
	<g id="Modéré">
	</g>
	<g id="Important">
	</g>
	<g id="Elevé">
	</g>
	<g id="Extreme" display="none">
		<path id="rebelion" display="inline" fill="#FFFFFF" d="M26.997,1.122c0,1.401-1.135,2.532-2.532,2.532
			c-1.402,0-2.534-1.134-2.534-2.532c0-1.401,1.132-2.533,2.534-2.533C25.863-1.411,26.997-0.278,26.997,1.122z M20.235,11.869
			h1.548h0.084l0.057-0.118l0.563-0.551l-0.521-0.11l-0.822-0.176L20.235,11.869z M30.835,1.594L30.29,2.137l0.037,0.038
			l-0.438,0.443c0.058,0.054,0.113,0.108,0.162,0.172l0.444-0.443l0.091,0.082l0.536-0.546L30.835,1.594z M27.337,4.404
			l-0.234,0.231l0.026,0.066l0.054,0.125L23.489,8.53l0.399,0.084c0.362,0.077,0.679,0.295,0.882,0.611
			c0.027,0.044,0.035,0.099,0.061,0.147l0.01-0.013l0.274,0.18l0.099-0.02l1.075,0.781l0.726-0.991l-1.604-1.252l0.035-0.105h0.266
			l1.576-1.847l0.176-1.656L27.337,4.404z M29.052,2.766c-0.478-0.053-0.943,0.306-1,0.801l-0.061,0.54l0,0l-0.038,0.391
			l-0.175,1.658L27.762,6.31l-0.101,0.118l-1.41,1.653l1.062,0.833l0.383,0.3l-0.223,0.303l0.056,0.112
			c0.148,0.318,0.47,0.515,0.818,0.515c0.05,0,0.1-0.002,0.149-0.012c0.398-0.069,0.703-0.393,0.746-0.793l0.604-5.573
			C29.907,3.266,29.546,2.816,29.052,2.766z M27.208,9.883l-0.519,0.711l-0.296,0.407l-0.405-0.296l-0.892-0.645l-0.078,0.021
			l-0.033-0.022c0,0.077-0.003,0.15-0.021,0.227c-0.017,0.074-0.043,0.142-0.072,0.212c-0.056,0.132-0.128,0.245-0.216,0.352
			l0.065,0.142c0.062,0.142,0.148,0.327,0.252,0.488l0.247,0.388h1.904L27.208,9.883z M23.587,11.4
			c-0.021,0-0.043-0.006-0.064-0.008c-0.01,0.041-0.016,0.07-0.016,0.07l0.214,0.404h0.517l0.333-0.116
			c-0.113-0.176-0.204-0.366-0.289-0.557C24.073,11.315,23.843,11.4,23.587,11.4z M24.333,9.483
			c-0.038-0.057-0.094-0.102-0.146-0.149c-0.029-0.027-0.055-0.066-0.092-0.089c-0.094-0.066-0.201-0.115-0.319-0.143l-0.395-0.08
			l-0.9-0.191l0,0L21.686,8.66l-0.311-0.065l-0.511-0.111l-0.033-0.007l0.081-0.083l0.345-0.342l0.368-0.372
			c0.029,0.255,0.045,0.457,0.045,0.46l0.119,0.024l1.12,0.238l0.228-0.229l3.456-3.471l-0.078-0.193l0.029-0.022
			c-0.502-0.151-1.09-0.237-1.834-0.237h-0.244c0,0-0.238,0-0.24,0c-0.523,0-1.05,0.036-1.565,0.15
			c-0.886,0.199-1.435,1.066-2.041,1.663c-0.626,0.614-1.232,1.255-1.843,1.886c-0.133,0.141-0.268,0.287-0.406,0.426
			c-0.234,0.234-0.319,0.578-0.226,0.898c0.091,0.318,0.353,0.558,0.679,0.63l1.197,0.255l0.506,0.106l2.872,0.613
			c0.065,0.01,0.128,0.021,0.192,0.021c0.417,0,0.791-0.292,0.882-0.717c0.035-0.167,0.01-0.325-0.041-0.475l-0.057-0.115
			C24.361,9.562,24.347,9.525,24.333,9.483z M23.064,11.696l-0.087-0.164l0.044-0.183l0.008-0.035l-0.139-0.031l-0.507,0.582h0.771
			L23.064,11.696z"/>
	</g>
	<path id="displaced" display="none" fill="#FFFFFF" d="M25.492-1.064c0.124,0.783-0.402,1.517-1.176,1.643
		c-0.78,0.129-1.519-0.398-1.646-1.176c-0.129-0.78,0.396-1.518,1.18-1.645C24.624-2.369,25.362-1.842,25.492-1.064z M25.045,4.606
		l1.264,2.021c0.182,0.285,0.551,0.376,0.84,0.208c0.291-0.173,0.392-0.542,0.233-0.838l-0.323-0.581
		c-0.279-0.495-0.555-0.997-0.83-1.494l-0.563-1.021c-0.063-0.121-0.127-0.254-0.193-0.394c-0.345-0.729-0.888-1.854-2.078-1.753
		c-1.016,0.089-2.049,0.573-3.065,1.436c-1.202,0.95-2.042,2.329-2.074,2.387c-0.042,0.058-0.079,0.122-0.106,0.18
		c-0.004,0.002-0.004,0.004-0.007,0.006l0,0c-0.113,0.212-0.17,0.406-0.029,0.655c0.111,0.195,0.319,0.313,0.541,0.313
		c0.273,0,0.407-0.128,0.542-0.319l0,0c0.002,0,0.002-0.005,0.002-0.005c0.038-0.055,0.074-0.116,0.117-0.179
		c0.006-0.011,0.712-1.145,1.805-2.075c0.336-0.265,0.658-0.446,0.957-0.545l-0.244,2.941C21.81,5.84,21.719,6.343,21.64,6.623
		l-0.55,1.918c-0.072,0.241-0.276,0.643-0.437,0.839l-1.482,1.834c-0.188,0.232-0.399,0.495-0.225,0.861
		c0.104,0.215,0.32,0.354,0.562,0.354c0.285,0,0.44-0.164,0.633-0.374l1.497-1.614c0.268-0.289,0.616-0.788,0.787-1.143l0.744-1.51
		l2.746,4.614c0.132,0.227,0.305,0.514,0.674,0.514l0,0c0.215,0,0.41-0.11,0.522-0.287c0.2-0.305,0.067-0.583-0.046-0.833
		l-2.222-4.824c-0.085-0.191-0.134-0.575-0.097-0.783L25.045,4.606z M27.371,9.626h3.33v0.988l3.305-1.908l-3.305-1.91v0.988h-3.33
		V9.626z"/>
	<path id="epidemie" display="none" fill="#FFFFFF" d="M31.164,5.848c0-3.585-2.81-6.501-6.349-6.683
		c1.563,0.149,2.781,1.282,2.781,2.663c0,0.474-0.157,0.911-0.409,1.297C26.489,2.429,25.53,2,24.468,2
		c-1.061,0-2.019,0.428-2.714,1.123c-0.249-0.386-0.406-0.823-0.406-1.298c0-1.378,1.215-2.513,2.776-2.662
		c-3.535,0.182-6.345,3.101-6.345,6.685c0,1.081,0.263,2.101,0.716,3.005c-0.622-1.415-0.245-3.007,0.935-3.688
		c0.411-0.237,0.872-0.322,1.329-0.296c-0.086,0.315-0.145,0.644-0.145,0.987c0,1.78,1.215,3.267,2.858,3.708
		c-0.023,0.039-0.05,0.075-0.072,0.111c0,0.004,0,0.004,0,0.01c-0.054,0.122-0.124,0.22-0.205,0.305
		c-0.176,0.23-0.381,0.436-0.642,0.587c-1.187,0.684-2.763,0.21-3.674-1.052c1.198,1.819,3.253,3.021,5.591,3.021
		c2.317,0,4.356-1.177,5.56-2.967c-0.916,1.221-2.465,1.67-3.633,1.001c-0.414-0.243-0.716-0.603-0.924-1.02
		c1.642-0.443,2.852-1.931,2.852-3.707c0-0.344-0.057-0.672-0.145-0.988c0.463-0.029,0.922,0.056,1.338,0.294
		c1.146,0.661,1.536,2.179,0.988,3.566C30.926,7.854,31.164,6.879,31.164,5.848z M25.182,8.425
		c-0.029-0.557,0.089-1.142,0.368-1.696l-0.448-0.256c-0.158,0.165-0.383,0.267-0.633,0.267c-0.245,0-0.473-0.102-0.632-0.267
		L23.4,6.724c0.279,0.557,0.398,1.147,0.366,1.703c-1.132-0.309-1.975-1.34-1.975-2.571c0-0.236,0.037-0.458,0.097-0.674
		c0.493,0.25,0.944,0.639,1.288,1.155l0.446-0.26C23.603,6,23.573,5.929,23.573,5.846c0-0.413,0.285-0.749,0.671-0.849V4.488
		c-0.619-0.041-1.184-0.232-1.651-0.539c0.487-0.477,1.145-0.77,1.874-0.77c0.73,0,1.393,0.295,1.877,0.772
		c-0.468,0.305-1.03,0.496-1.649,0.536v0.511c0.383,0.1,0.666,0.436,0.666,0.849c0,0.083-0.023,0.154-0.043,0.231l0.453,0.264
		c0.342-0.515,0.789-0.903,1.281-1.153c0.054,0.213,0.094,0.437,0.094,0.667C27.147,7.083,26.312,8.112,25.182,8.425z"/>
	<path id="enlevement" display="none" fill="#FFFFFF" d="M30.052-2.155c-0.413,0-0.753,0.339-0.753,0.756v3.074
		c0.183,0.041,0.356,0.117,0.497,0.254c0.397,0.393,0.405,1.037,0.019,1.438l-1.43,1.47l-0.197-0.192l1.434-1.466
		c0.288-0.297,0.279-0.769-0.014-1.06c-0.094-0.087-0.201-0.148-0.315-0.179c-0.13-0.033-0.255-0.035-0.38-0.011
		c-0.14,0.037-0.262,0.106-0.362,0.21C27.701,3.01,26.849,3.882,26,4.753c-0.213,0.218-0.602,0.719-0.589,1.216
		c0.01,0.469-0.007,0.95,0.002,1.421c-0.11-0.088-0.245-0.155-0.397-0.184c-0.439-0.071-0.833,0.191-0.985,0.58h-0.222
		c0-0.106,0-0.214,0.002-0.32c0.01-0.491-0.009-1.002,0.004-1.494c0.01-0.499-0.379-1-0.592-1.218
		c-0.849-0.872-1.697-1.743-2.55-2.615c-0.099-0.103-0.22-0.173-0.36-0.208c-0.124-0.024-0.251-0.023-0.376,0.012
		c-0.116,0.034-0.227,0.095-0.319,0.182c-0.29,0.29-0.298,0.761-0.012,1.06l1.437,1.462l-0.197,0.192l-1.429-1.47
		c-0.392-0.402-0.38-1.045,0.019-1.436c0.142-0.136,0.315-0.214,0.498-0.255v-3.074c0-0.416-0.34-0.756-0.754-0.756
		c-0.418,0-0.756,0.34-0.756,0.756v5.323c0,0.173,0.07,0.334,0.174,0.462l2.572,3.396H20.94c-0.497,0-0.909,0.406-0.909,0.911
		c0,0.334,0.188,0.613,0.456,0.77c-0.27,0.159-0.456,0.439-0.456,0.77c0,0.504,0.407,0.912,0.909,0.912h0.277v0.506h2.525
		c0.132,0.13,0.285,0.227,0.472,0.258c0.053,0.008,0.102,0.013,0.151,0.013c0.442,0,0.821-0.316,0.895-0.755l0.004-0.022h0.161
		c0.002,0.167,0,0.332,0.019,0.506h2.57v-0.506h0.277c0.499,0,0.91-0.406,0.91-0.912c0-0.33-0.189-0.611-0.456-0.77
		c0.269-0.157,0.456-0.437,0.456-0.771c0-0.503-0.406-0.909-0.91-0.909h-0.228l2.571-3.398c0.106-0.128,0.174-0.289,0.174-0.462
		v-5.321C30.808-1.816,30.47-2.155,30.052-2.155z M20.486,8.694c0-0.25,0.203-0.454,0.451-0.454h2.98l-0.155,0.909h-2.824
		C20.69,9.147,20.486,8.947,20.486,8.694z M20.486,10.236c0-0.249,0.203-0.456,0.451-0.456h2.714l-0.158,0.911h-2.555
		C20.69,10.69,20.486,10.49,20.486,10.236z M24.809,11.091c-0.039,0.25-0.298,0.412-0.523,0.374
		c-0.119-0.021-0.224-0.087-0.294-0.185c-0.072-0.1-0.097-0.221-0.077-0.339l0.502-2.912c0.039-0.221,0.23-0.378,0.454-0.378
		c0.021,0,0.048,0,0.072,0.005c0.245,0.043,0.411,0.277,0.368,0.525L24.809,11.091z M28.743,10.236c0,0.252-0.204,0.455-0.453,0.455
		h-2.949l0.156-0.911h2.791C28.539,9.782,28.743,9.986,28.743,10.236z M28.743,8.694c0,0.251-0.204,0.453-0.453,0.453h-2.683
		l0.153-0.891c0.002-0.006,0-0.012,0-0.018h2.527C28.539,8.24,28.743,8.445,28.743,8.694z"/>
	<path id="eruption" display="none" fill="#FFFFFF" d="M25.823,2.275c0.907,0.31,2.11,0.676,2.366-0.789
		c0.203-1.138,1.723-0.717,2.368-0.788c1.178-0.136,0.287-2.338-1.183-2.37c-1.49-0.034-2.169,0.621-2.762,1.974
		c-0.285,0.652-0.527,1.141-1.579,0.791c-1.053-0.353-1.825,0.513-1.186,1.579c0.567,0.942-0.009,1.973-0.009,1.973h1.59
		c0,0-0.013-0.585-0.396-1.185C24.587,2.762,24.894,1.954,25.823,2.275z M17.408,12.096c4.086-2.976,5.106-7.093,5.106-7.093h4.197
		c0,0,1.021,4.115,5.105,7.093H17.408z"/>
	<path id="returned" display="none" fill="#FFFFFF" d="M24.19-0.371c0.104,0.643-0.333,1.251-0.973,1.357
		c-0.644,0.106-1.251-0.331-1.355-0.973c-0.107-0.644,0.327-1.251,0.973-1.357C23.474-1.45,24.087-1.015,24.19-0.371z M23.822,4.309
		l1.045,1.67c0.146,0.232,0.454,0.31,0.696,0.168c0.234-0.142,0.319-0.447,0.187-0.69l-0.266-0.479
		c-0.229-0.408-0.452-0.823-0.683-1.233L24.335,2.9c-0.054-0.095-0.105-0.207-0.161-0.322c-0.286-0.603-0.737-1.532-1.717-1.446
		c-0.84,0.071-1.69,0.471-2.528,1.183c-0.993,0.782-1.688,1.921-1.72,1.968c-0.03,0.05-0.06,0.101-0.087,0.151
		c-0.003,0.002-0.005,0.002-0.005,0.004l0,0c-0.093,0.176-0.138,0.336-0.021,0.54c0.092,0.162,0.261,0.261,0.447,0.261
		c0.224,0,0.338-0.105,0.447-0.265l0,0c0.003-0.002,0.003-0.002,0.003-0.002c0.03-0.049,0.063-0.099,0.096-0.153
		c0.006-0.008,0.589-0.942,1.49-1.711c0.275-0.216,0.54-0.368,0.789-0.45l-0.199,2.431c-0.021,0.242-0.098,0.655-0.164,0.889
		l-0.449,1.583c-0.061,0.2-0.23,0.532-0.361,0.693l-1.221,1.514c-0.156,0.192-0.329,0.41-0.185,0.711
		c0.084,0.176,0.265,0.292,0.461,0.292c0.233,0,0.361-0.136,0.526-0.31l1.235-1.333c0.221-0.238,0.507-0.651,0.647-0.943
		l0.614-1.246l2.269,3.81c0.112,0.188,0.256,0.421,0.562,0.421l0,0c0.176,0,0.338-0.089,0.434-0.239
		c0.161-0.251,0.056-0.477-0.039-0.683l-1.836-3.986c-0.071-0.155-0.109-0.474-0.083-0.645L23.822,4.309z M31.458,5.159
		c0-1.665-1.354-3.015-3.014-3.015h-1.281v1.522h1.279c0.822,0,1.49,0.667,1.49,1.493c0,0.823-0.668,1.492-1.49,1.492h-0.266V5.833
		L25.444,7.41l2.733,1.578V8.168h0.298V8.167C30.12,8.153,31.458,6.811,31.458,5.159z"/>
	<path id="Attack" display="none" fill="#FFFFFF" d="M28.126,6.244l4.488-2.873L28.28,2.91l1.177-5.037l-3.075,3.177l-0.857-3.59
		l-1.288,3.352l-3.512-4.525l1.103,5.67l-3.121-0.693c0,0,0.948,1.816,1.477,2.91l-5.01-0.35l4.533,2.651l-1.3,1.339l2.106-0.385
		l-1.494,5.283L23.461,9l1.15,2.869l1.183-2.295l3.829,3.954l-1.914-5.292l4.196,0.424L28.126,6.244z"/>
	<g id="affected" display="none">
		<path display="inline" fill="#FFFFFF" d="M21.035-0.757c0,0.65-0.531,1.176-1.178,1.176c-0.649,0-1.18-0.528-1.18-1.176
			c0-0.649,0.53-1.175,1.18-1.175C20.508-1.932,21.035-1.408,21.035-0.757z M19.98,7.304l0.257,4.344
			c0,0.152,0.124,0.276,0.273,0.276c0.153,0,0.279-0.126,0.279-0.276l0.233-4.342h0.768l-0.792-4.874l1.596,3.184
			c0.063,0.141,0.223,0.207,0.362,0.149c0.142-0.06,0.209-0.22,0.148-0.362c0,0-1.17-3.168-1.464-3.758
			c-0.289-0.591-0.575-0.951-1.675-0.951h-0.222c-1.098,0-1.386,0.358-1.675,0.951s-1.462,3.758-1.462,3.758
			c-0.06,0.144,0.008,0.303,0.147,0.365c0.142,0.059,0.302-0.009,0.362-0.15l1.597-3.184l-0.794,4.87h0.768l0.24,4.342
			c0,0.152,0.124,0.275,0.273,0.275c0.155,0,0.278-0.125,0.278-0.275l0.238-4.342H19.98L19.98,7.304z M29.371-1.938
			c-0.653,0-1.181,0.528-1.181,1.178c0,0.65,0.525,1.178,1.181,1.178c0.647,0,1.175-0.528,1.175-1.178
			C30.547-1.411,30.017-1.938,29.371-1.938z M30.588,4.991l0.076-2.56l1.443,3.186c0.056,0.141,0.221,0.207,0.359,0.147
			c0.147-0.06,0.212-0.22,0.154-0.362c0,0-1.017-3.169-1.305-3.758c-0.286-0.589-0.735-0.949-1.834-0.949h-0.226
			c-1.099,0-1.547,0.358-1.833,0.949c-0.287,0.59-1.303,3.756-1.303,3.756c-0.062,0.144,0.004,0.302,0.146,0.364
			c0.14,0.062,0.308-0.006,0.361-0.147l1.442-3.186l0.075,2.56l-0.229,6.438c-0.013,0.255,0.179,0.475,0.432,0.493
			c0.013,0.002,0.026,0.002,0.034,0.002c0.238,0,0.447-0.186,0.464-0.429l0.522-5.3l0.524,5.3c0.017,0.245,0.219,0.429,0.46,0.429
			c0.012,0,0.022,0,0.03-0.002c0.257-0.018,0.448-0.239,0.432-0.493L30.588,4.991L30.588,4.991z M24.615,5.221
			c-0.404,0-0.727,0.322-0.727,0.721c0,0.399,0.32,0.72,0.727,0.72c0.395,0,0.718-0.322,0.718-0.72
			C25.332,5.543,25.009,5.221,24.615,5.221z M24.615,9.473c0,0,0.321,2.256,0.321,2.258c0.043,0.113,0.148,0.191,0.277,0.191
			c0.128,0,0.236-0.087,0.276-0.204c0-0.009,0.009-0.14,0-0.163l-0.135-2.775l0.046-0.955c0.036-0.324,0.041-0.227,0.411-0.447
			c0.377-0.227,1.017-1.218,1.045-1.267c0.033-0.049,0.095-0.136,0.106-0.193c0.017-0.099-0.05-0.192-0.149-0.214
			c-0.074-0.012-0.138,0.028-0.188,0.079c-0.05,0.057-0.788,1.038-1.339,1.13c-0.125-0.02-0.257-0.082-0.614-0.082H24.54
			c-0.351,0-0.483,0.065-0.609,0.082c-0.553-0.093-1.292-1.074-1.342-1.13c-0.046-0.05-0.105-0.091-0.185-0.079
			c-0.098,0.022-0.165,0.115-0.146,0.214c0.011,0.055,0.067,0.142,0.101,0.193c0.032,0.049,0.671,1.041,1.045,1.267
			c0.368,0.221,0.379,0.124,0.414,0.447l0.042,0.955l-0.133,2.777c-0.006,0.023,0,0.156,0.006,0.163
			c0.037,0.116,0.146,0.203,0.276,0.203c0.127,0,0.233-0.078,0.272-0.19C24.287,11.731,24.615,9.473,24.615,9.473"/>
	</g>
	<g id="foodsec">
		<path fill="#FFFFFF" d="M27.328,15.234L27.328,15.234c-0.051,1.445-0.543,3.013-1.303,4.459c0,0-1.803,3.653-7.472,3.653
			c-5.673,0-7.508-3.623-7.508-3.623C10.285,18.27,9.83,16.71,9.77,15.23h0.002c0-0.039-0.002-0.075-0.002-0.114
			c0-0.695,0.431-1.347,1.17-1.906l0.79,0.505c-0.491,0.327-0.772,0.694-0.772,1.083c0,1.372,3.399,2.482,7.596,2.482
			c4.189,0,7.586-1.11,7.586-2.482c0-0.946-1.627-1.771-4.022-2.188l0.014-0.997c3.06,0.601,5.201,1.94,5.201,3.504
			C27.335,15.155,27.332,15.194,27.328,15.234z M12.689,9.337c-0.03,0.23-0.069,0.603,0.218,1.11
			c0.356,0.611,0.81,0.826,0.956,0.931c-0.025-0.16,0.018-0.633-0.315-1.207c-0.284-0.513-0.599-0.744-0.786-0.922
			c-0.521-0.754-1.117-1.363-1.567-1.839l-1.076-1.118c0,0,0.39,0.445,1.03,1.153C11.593,7.941,12.175,8.567,12.689,9.337z
			 M15.379,15.24c0.228,0.215,0.52,0.567,1.165,0.928c0.724,0.403,1.332,0.403,1.54,0.451c-0.116-0.188-0.348-0.785-1.148-1.229
			c-0.657-0.361-1.145-0.291-1.445-0.241c-0.989-0.575-1.838-1.167-2.525-1.587c-0.976-0.602-1.608-0.911-1.605-0.911
			c-0.002,0,0.611,0.339,1.57,0.971C13.589,14.062,14.402,14.658,15.379,15.24z M15.961,12.092c-0.081,0.267-0.193,0.7,0.063,1.331
			c0.298,0.776,0.803,1.1,0.956,1.244c0.006-0.188,0.138-0.726-0.146-1.454c-0.253-0.648-0.582-0.969-0.767-1.209
			c-0.49-0.969-1.091-1.774-1.547-2.402L13.42,8.122l1.039,1.51C14.901,10.282,15.485,11.111,15.961,12.092z M14.117,13.666
			c0.218,0.198,0.5,0.524,1.107,0.845c0.687,0.357,1.255,0.343,1.442,0.382c-0.114-0.168-0.346-0.719-1.096-1.114
			c-0.618-0.323-1.072-0.252-1.353-0.202c-0.931-0.519-1.729-1.052-2.372-1.437c-0.923-0.548-1.518-0.824-1.513-0.827
			c-0.005,0.005,0.578,0.312,1.476,0.888C12.427,12.594,13.202,13.142,14.117,13.666z M12.804,12.115
			c0.201,0.18,0.466,0.477,1.036,0.762c0.64,0.322,1.167,0.299,1.344,0.33c-0.109-0.156-0.336-0.654-1.036-1.006
			c-0.575-0.29-0.993-0.215-1.253-0.165c-0.868-0.469-1.617-0.951-2.217-1.304c-0.858-0.5-1.414-0.751-1.413-0.754
			c-0.001,0.002,0.538,0.282,1.381,0.804C11.224,11.149,11.948,11.644,12.804,12.115z M11.466,9.858
			c0.381,0.343,0.745,0.363,0.955,0.43c-0.045-0.169-0.009-0.583-0.447-0.97c-0.371-0.321-0.75-0.348-0.942-0.365
			C9.49,7.633,8.12,6.785,7.804,6.583L7.737,6.536c-0.012,0.01,1.494,1.001,3.257,2.551C11.053,9.278,11.154,9.594,11.466,9.858z
			 M11.436,10.589c0.193,0.159,0.436,0.429,0.966,0.684c0.589,0.292,1.077,0.264,1.24,0.29c-0.102-0.14-0.318-0.589-0.966-0.907
			c-0.534-0.254-0.92-0.193-1.156-0.144c-0.805-0.417-1.497-0.863-2.056-1.179c-0.794-0.454-1.31-0.678-1.31-0.678
			s0.504,0.249,1.278,0.73C9.972,9.705,10.642,10.158,11.436,10.589z M14.368,10.668c-0.057,0.248-0.127,0.656,0.144,1.223
			c0.333,0.696,0.814,0.96,0.967,1.088c-0.009-0.172,0.067-0.678-0.239-1.334c-0.277-0.581-0.6-0.859-0.782-1.063
			c-0.513-0.865-1.109-1.572-1.569-2.124L11.8,7.162l1.038,1.331C13.286,9.066,13.868,9.796,14.368,10.668z M20.429,12.152
			c-0.172,0.171-0.447,0.454-0.529,1.043c-0.107,0.714,0.128,1.166,0.18,1.341c0.085-0.143,0.42-0.5,0.521-1.172
			c0.089-0.601-0.016-0.981-0.055-1.239c0.052-0.94-0.057-1.806-0.139-2.473c-0.117-0.973-0.2-1.58-0.2-1.58l0.142,1.582
			C20.408,10.334,20.493,11.209,20.429,12.152z M19.873,10.55c-0.151,0.171-0.384,0.451-0.424,0.997
			c-0.056,0.669,0.191,1.074,0.254,1.233c0.063-0.138,0.355-0.491,0.408-1.119c0.042-0.561-0.082-0.906-0.136-1.144
			c-0.005-0.869-0.153-1.661-0.265-2.273l-0.268-1.447l0.218,1.449C19.75,8.875,19.876,9.672,19.873,10.55z M19.228,8.98
			c-0.128,0.165-0.321,0.439-0.325,0.946c-0.013,0.619,0.246,0.975,0.31,1.116c0.052-0.132,0.292-0.476,0.308-1.054
			c0.004-0.523-0.132-0.827-0.193-1.043c-0.067-0.801-0.244-1.517-0.38-2.072l-0.331-1.315l0.277,1.321
			C19.009,7.446,19.176,8.174,19.228,8.98z M20.363,16.314c0.102-0.144,0.487-0.502,0.65-1.215c0.14-0.636,0.05-1.053,0.027-1.334
			c0.115-1.01,0.055-1.946,0.013-2.666c-0.071-1.051-0.127-1.708-0.127-1.708l0.053,1.707c0.028,0.732,0.067,1.677-0.067,2.687
			c-0.197,0.173-0.503,0.458-0.64,1.082C20.105,15.622,20.321,16.121,20.363,16.314z M17.144,7.948
			c0.082,0.177,0.157,0.463,0.451,0.824c0.323,0.413,0.683,0.547,0.796,0.622c-0.029-0.138-0.024-0.537-0.377-0.987
			c-0.297-0.366-0.598-0.448-0.783-0.488c-0.432-0.576-0.773-1.125-1.068-1.54c-0.408-0.6-0.705-0.932-0.702-0.936
			c-0.003,0.004,0.273,0.351,0.662,0.957C16.395,6.817,16.718,7.373,17.144,7.948z M17.418,7.422c0.161,0.376,0.415,0.515,0.54,0.63
			c0.023-0.136,0.197-0.428,0.021-0.857c-0.151-0.359-0.423-0.504-0.559-0.577c-0.642-1.485-1.326-2.558-1.486-2.811l-0.032-0.056
			c-0.013,0.005,0.72,1.231,1.447,2.952C17.327,6.86,17.288,7.126,17.418,7.422z M18.064,10.425
			c0.346,0.447,0.738,0.607,0.854,0.688c-0.017-0.153-0.008-0.592-0.389-1.084c-0.313-0.401-0.641-0.488-0.847-0.536
			c-0.466-0.63-0.833-1.234-1.142-1.689c-0.444-0.649-0.751-1.017-0.751-1.02c0,0,0.291,0.385,0.707,1.046
			c0.29,0.457,0.636,1.058,1.087,1.693C17.672,9.722,17.759,10.025,18.064,10.425z M18.489,7.446
			c-0.104,0.162-0.26,0.421-0.237,0.886c0.041,0.569,0.293,0.875,0.364,0.999c0.033-0.123,0.236-0.454,0.199-0.987
			c-0.026-0.473-0.172-0.744-0.242-0.939c-0.108-0.723-0.325-1.369-0.48-1.864l-0.379-1.178c0,0,0.118,0.454,0.333,1.189
			C18.187,6.059,18.39,6.715,18.489,7.446z M17.989,11.096c0.091,0.217,0.176,0.547,0.5,0.983c0.367,0.487,0.778,0.667,0.909,0.762
			c-0.023-0.167,0.001-0.645-0.4-1.185c-0.33-0.441-0.683-0.536-0.904-0.592c-0.485-0.689-0.876-1.343-1.201-1.841
			c-0.473-0.707-0.805-1.107-0.805-1.111c0,0.004,0.308,0.422,0.756,1.142C17.146,9.751,17.511,10.406,17.989,11.096z
			 M13.232,15.415c0,0.002,0.542,0.308,1.391,0.909c0.059,0.009,0.116,0.023,0.181,0.037C13.852,15.729,13.232,15.415,13.232,15.415
			z M19.997,16.601c-0.124-0.193-0.257-0.342-0.389-0.454c-0.047-0.122-0.088-0.236-0.14-0.339c0.284,0.296,0.553,0.439,0.652,0.522
			c0-0.012,0-0.028,0-0.048c0.034,0.111,0.063,0.231,0.101,0.349c0.057-0.002,0.115-0.006,0.165-0.009
			c-0.097-0.338-0.209-0.668-0.328-0.98c-0.042-0.17-0.11-0.349-0.223-0.55c-0.106-0.244-0.212-0.479-0.313-0.704
			c0.129,0.088,0.231,0.146,0.284,0.187c-0.015-0.178,0.027-0.693-0.392-1.284c-0.253-0.346-0.513-0.499-0.731-0.583l-0.663-1.295
			c0,0,0.218,0.472,0.592,1.269c-0.062-0.016-0.113-0.033-0.153-0.044c-0.514-0.753-0.922-1.463-1.269-1.997
			c-0.487-0.768-0.84-1.204-0.837-1.204c0,0.003,0.327,0.451,0.791,1.232c0.321,0.538,0.702,1.248,1.199,1.999
			c0.084,0.23,0.173,0.59,0.512,1.066c0.16,0.223,0.322,0.386,0.48,0.51c0.056,0.129,0.117,0.266,0.178,0.409
			c-0.285-0.29-0.579-0.381-0.771-0.44c-0.06-0.086-0.109-0.173-0.161-0.259c-0.334-0.71-0.686-1.334-0.985-1.855
			c-0.654-1.143-1.081-1.843-1.079-1.843l0.999,1.875c0.08,0.139,0.157,0.295,0.242,0.448c-0.108-0.188-0.212-0.365-0.311-0.527
			c-0.512-0.826-0.878-1.291-0.878-1.294c0,0.003,0.338,0.487,0.823,1.329c0.281,0.497,0.61,1.128,1.017,1.813
			c0.181,0.4,0.35,0.823,0.5,1.269c-0.038,0.089-0.091,0.204-0.128,0.338c-0.451-0.771-0.818-1.487-1.146-2.036
			c-0.105-0.185-0.205-0.343-0.294-0.492c-0.413-0.848-0.885-1.576-1.267-2.161c-0.661-1.027-1.092-1.659-1.092-1.659l1.026,1.692
			c0.439,0.724,1.013,1.659,1.456,2.741c-0.1,0.28-0.255,0.738-0.029,1.437c0.27,0.853,0.784,1.238,0.938,1.406
			c0.017-0.188,0.173-0.706-0.015-1.437c0.117,0.22,0.24,0.445,0.375,0.681c-0.054,0.263-0.068,0.595,0.036,1.015
			c0.42-0.003,0.837-0.017,1.247-0.043C20.014,16.633,20.008,16.62,19.997,16.601z M14.026,15.019
			c-1.029-0.662-1.704-0.994-1.701-0.997c-0.001,0,0.652,0.366,1.659,1.058c0.586,0.404,1.297,0.935,2.116,1.481
			c0.105,0.014,0.205,0.021,0.306,0.031C15.485,16.013,14.682,15.438,14.026,15.019z M21.454,15.427
			c0.197-1.071,0.175-2.081,0.175-2.857l-0.03-1.838c0,0-0.019,0.701-0.03,1.834c-0.023,0.79-0.039,1.803-0.248,2.873
			c-0.228,0.171-0.568,0.458-0.764,1.111c-0.006,0.022-0.008,0.04-0.016,0.063c0.297-0.03,0.586-0.063,0.868-0.103
			C21.502,16.027,21.458,15.674,21.454,15.427z"/>
	</g>
</g>
</svg>
