<?xml version="1.0" encoding="utf-8"?>
<!-- Generator: Adobe Illustrator 16.0.0, SVG Export Plug-In . SVG Version: 6.00 Build 0)  -->
<!DOCTYPE svg PUBLIC "-//W3C//DTD SVG 1.1//EN" "http://www.w3.org/Graphics/SVG/1.1/DTD/svg11.dtd">
<svg version="1.1" id="Layer_1" xmlns="http://www.w3.org/2000/svg" xmlns:xlink="http://www.w3.org/1999/xlink" x="0px" y="0px"
	 width="33.35px" height="40px" viewBox="0 0 33.35 40" enable-background="new 0 0 33.35 40" xml:space="preserve">
<g id="PinColor">
	<path id="PinOmbre" opacity="0.3" enable-background="new    " d="M29.005,30.877c0,1.768-3.883,3.252-9.105,3.643
		c-0.881,0.068-2.746,4.217-2.746,4.217s-1.93-4.149-2.84-4.221C9.14,34.111,5.3,32.635,5.3,30.877c0-2.07,5.307-3.748,11.853-3.748
		S29.005,28.805,29.005,30.877z"/>
	<path id="vert" display="none" fill="#2ABF00" stroke="#1D7500" stroke-width="0.2" stroke-miterlimit="10" d="M29.005,13.482
		c0,5.416-3.883,9.956-9.105,11.157c-0.881,0.199-2.746,12.896-2.746,12.896s-1.93-12.695-2.84-12.921
		C9.14,23.385,5.3,18.865,5.3,13.479c0-6.331,5.307-11.463,11.853-11.463C23.698,2.014,29.005,7.15,29.005,13.482z"/>
	<path id="orange" display="none" fill="#FF8500" stroke="#7F4500" stroke-width="0.2" stroke-miterlimit="10" d="M29.005,13.482
		c0,5.416-3.883,9.956-9.105,11.157c-0.881,0.199-2.746,12.896-2.746,12.896s-1.93-12.695-2.84-12.921
		C9.14,23.385,5.3,18.865,5.3,13.479c0-6.331,5.307-11.463,11.853-11.463C23.698,2.014,29.005,7.15,29.005,13.482z"/>
	<path id="gris" fill="#A5A5A5" stroke="#595959" stroke-width="0.2" stroke-miterlimit="10" d="M29.005,13.482
		c0,5.416-3.883,9.956-9.105,11.157c-0.881,0.199-2.746,12.896-2.746,12.896s-1.93-12.695-2.84-12.921
		C9.14,23.385,5.3,18.865,5.3,13.479c0-6.331,5.307-11.463,11.853-11.463C23.698,2.014,29.005,7.15,29.005,13.482z"/>
	<path id="bleu" display="none" fill="#0092FF" stroke="#00477C" stroke-width="0.2" stroke-miterlimit="10" d="M29.005,13.482
		c0,5.416-3.883,9.956-9.105,11.157c-0.881,0.199-2.746,12.896-2.746,12.896s-1.93-12.695-2.84-12.921
		C9.14,23.385,5.3,18.865,5.3,13.479c0-6.331,5.307-11.463,11.853-11.463C23.698,2.014,29.005,7.15,29.005,13.482z"/>
</g>
<g id="Icons">
	<g id="Minimal">
		<path id="Election" display="none" fill="#565656" d="M29.749-2.508l-4.466-1.914c-0.132-0.056-0.285-0.017-0.371,0.096
			l-1.28,1.595c-0.057,0.072-0.078,0.172-0.061,0.266c0.021,0.089,0.08,0.163,0.158,0.206l-4.002,1.5
			c-0.339,0.126-0.622,0.364-0.808,0.672l-1.323,2.208c-0.28,0.468-0.305,1.042-0.059,1.532l0.096,0.187h-1.397
			c-0.177,0-0.321,0.143-0.321,0.32v6.057h-0.957c-0.176,0-0.316,0.142-0.316,0.316c0,0.177,0.14,0.319,0.316,0.319h10.84
			c0.176,0,0.313-0.142,0.313-0.319c0-0.174-0.138-0.316-0.313-0.316h-0.957V6.957c0-0.107-0.061-0.213-0.148-0.268
			c-0.095-0.059-0.208-0.067-0.31-0.021c-0.351,0.165-0.608,0.248-0.73,0.285c-0.027,0.006-0.053,0.017-0.076,0.034l-2.074,1.244
			c-0.331,0.2-0.707,0.304-1.091,0.304c-0.706,0-1.366-0.351-1.769-0.947c-0.321-0.479-0.431-1.057-0.313-1.618
			c0.122-0.563,0.456-1.044,0.936-1.352l0.303-0.192c0.222-0.135,0.415-0.258,0.595-0.366c0.121-0.077,0.178-0.226,0.136-0.363
			c-0.078-0.256-0.212-0.483-0.332-0.658c0.484-0.213,1.144-0.593,1.475-0.977c0,0,0.004,0.002,0.006,0.002
			c0.067,0.043,0.149,0.087,0.242,0.132c0.009,0.002,0.011,0.004,0.019,0.006l0,0c0.235,0.115,0.538,0.229,0.883,0.298
			c-0.37,0.459-0.747,1.032-0.885,1.414c-0.265,0.116-0.813,0.428-2.093,1.243c-0.341,0.216-0.574,0.55-0.652,0.944
			c-0.086,0.394-0.01,0.796,0.218,1.132c0.283,0.429,0.75,0.665,1.234,0.665c0.262,0,0.526-0.07,0.761-0.212l2.192-1.315
			c0.341-0.083,2.044-0.594,3.337-2.681c1.011-1.635,1.581-2.953,1.815-3.55l0.04,0.02c0.132,0.065,0.278,0.1,0.426,0.1
			c0.243,0,0.487-0.098,0.663-0.268c0.19-0.178,0.292-0.426,0.292-0.687v-1.519C29.94-2.343,29.865-2.459,29.749-2.508z"/>
	</g>
	<g id="Faible">
		<path id="Famine" display="none" fill="#F9F9F9" d="M26.879,9.229l-2.535,0.479l-4.137-2.25l1.504-1.876l3.385,1.124L26.879,9.229
			z M30.773,4.832v0.281l-2.669,0.846l-2.633,0.375l-3.383-1.126L21.29,4.832h0.455c-0.108-1.007-0.254-1.769-0.322-2.767h-0.006
			c-0.002-0.03-0.036-0.699-0.047-0.983c-0.052-0.301-0.193-0.42-0.662-0.744c-0.259-0.166-0.45-0.226-0.56-0.224
			c-0.172,0-0.325,0.188-0.362,0.749c0.752,0.128,0.806,0.962,0.806,0.962c0.064,0.593-0.226,1.458-0.894,1.682
			c-1.238,0.414-1.111-1.972-0.413-2.545c0.019-0.687,0.211-1.317,0.863-1.343c0.261,0.002,0.526,0.108,0.831,0.302
			c0.147,0.087,0.264,0.176,0.367,0.268c-0.012-0.226-0.025-0.458-0.025-0.696c-0.002-0.502,0.075-1.048,0.521-1.435
			c0.23-0.209,0.489-0.316,0.741-0.313c0.663,0.032,1.074,0.603,1.313,1.186c0.277-0.122,0.625-0.181,1.023-0.043
			c1.02,0.353,1.568,2.129,1.142,2.749c-1.005,1.442-3.531-1.243-2.862-2.179c0,0,0.099-0.128,0.271-0.269
			c-0.194-0.517-0.589-0.979-0.886-0.946c-0.113,0.002-0.243,0.042-0.409,0.189c-0.28,0.248-0.357,0.6-0.357,1.063
			c0,0.325,0.04,0.687,0.04,1.049c0,0.19,0.012,0.356,0.019,0.539c0.046,0.322,0.049,0.572,0.046,0.913
			c0.067,0.995,0.474,1.812,0.578,2.838H30.773z M23.653-0.614l1.914,2.085c-0.34-1.479-1.556-2.303-1.556-2.303L23.653-0.614z
			 M19.685,1.176l-0.343,0.141c0,0-0.171,1.166,0,1.775L19.685,1.176z M17.97,8.211l1.521-0.915l1.586-1.963l-0.495-0.503h-3.505
			l-0.695,1.389L17.97,8.211z M19.744,7.896l-2.696,1.835l0.361,0.445h6.205l-0.021-0.091L19.744,7.896z M14.197,4.832v2.116
			l1.728-0.926l0.524-1.19H14.197z M25.973,6.785l1.672,2.424l3.129,0.735V7.17l-2.251-0.725L25.973,6.785z M30.773,6.563V5.584
			L29.018,6.06L30.773,6.563z M15.967,6.7l-1.771,0.843v2.634h1.295l1.929-1.581L15.967,6.7z M25.24,10.176h4.05l-1.938-0.469
			L25.24,10.176z"/>
		<path id="Cyclone" display="none" fill="#FFFFFF" d="M22.548-0.862c-0.086-0.004-0.17-0.015-0.256-0.015
			c-0.758,0-1.473,0.197-2.095,0.541c1.109-3.781,3.879-4.11,3.879-4.11s-6.118,0.51-6.118,7.648c0.006,0,0.01,0,0.014,0
			c-0.004,0.086-0.014,0.169-0.014,0.256c0,0.756,0.198,1.472,0.54,2.094c-3.78-1.11-4.111-3.877-4.111-3.877
			s0.51,6.119,7.651,6.119c0-0.006,0-0.008,0-0.014c0.083,0.004,0.169,0.014,0.253,0.014c0.761,0,1.476-0.198,2.097-0.542
			c-1.111,3.782-3.881,4.112-3.881,4.112s6.119-0.512,6.119-7.65c-0.004,0-0.008,0-0.012,0c0.004-0.085,0.012-0.168,0.012-0.253
			c0-0.76-0.196-1.475-0.54-2.094c3.782,1.11,4.111,3.88,4.111,3.88s-0.507-6.121-7.646-6.121
			C22.548-0.872,22.548-0.868,22.548-0.862z"/>
		<path id="tsunami" display="none" fill="#FFFFFF" d="M29.98,8.494c-12.592,0.713-9.073-8.918-5.807-8.087
			c-0.339,0.206-0.553,0.914-0.347,1.391c0.229,0.511,0.964,0.802,1.389,0.696c1.016-0.262,1.06-1.686,0.695-2.434
			c-0.379-0.777-1.38-1.736-3.127-1.736c-4.216,0-7.094,2.154-8.177,5.855v5.445h15.376v-1.13H29.98z"/>
		<path id="earthquake" display="none" fill="#FFFFFF" d="M26.775,3.933c-0.216,0-0.413,0.12-0.515,0.311l-0.84,1.581l-1.037-3.032
			c-0.08-0.23-0.289-0.385-0.532-0.396c-0.249-0.007-0.465,0.134-0.562,0.357L22.582,4.44l-1.119-6.713
			c-0.055-0.28-0.318-0.493-0.587-0.479c-0.287,0.006-0.527,0.196-0.565,0.481L19.32,5.52l-0.801-4.181
			c-0.046-0.245-0.248-0.435-0.497-0.469c-0.247-0.034-0.493,0.1-0.603,0.326l-1.314,2.738h-2.04v1.166h2.407
			c0.225,0,0.43-0.129,0.529-0.329l0.705-1.47l1.14,5.929c0.055,0.276,0.293,0.475,0.575,0.475c0.004,0,0.01,0,0.015,0
			c0.283-0.009,0.522-0.224,0.563-0.507l0.975-7.654l0.815,5.04c0.048,0.254,0.253,0.447,0.511,0.476
			c0.261,0.023,0.502-0.117,0.605-0.356l0.875-2.081l0.976,2.855c0.074,0.222,0.272,0.377,0.503,0.396
			c0.233,0.012,0.453-0.103,0.566-0.309l1.304-2.466h2.505V3.933H26.775z"/>
	</g>
	<g id="Modéré">
	</g>
	<g id="Important">
	</g>
	<g id="Elevé">
	</g>
	<g id="Extreme" display="none">
		<path id="rebelion" display="inline" fill="#FFFFFF" d="M24.678-0.648c0,1.407-1.139,2.543-2.543,2.543
			c-1.408,0-2.546-1.139-2.546-2.543c0-1.407,1.138-2.544,2.546-2.544C23.538-3.192,24.678-2.055,24.678-0.648z M17.886,10.144
			h1.555h0.084l0.059-0.119l0.564-0.554l-0.522-0.111l-0.826-0.177L17.886,10.144z M28.531-0.176L27.986,0.37l0.038,0.038
			l-0.441,0.445c0.059,0.055,0.114,0.108,0.164,0.172l0.444-0.445l0.092,0.083l0.537-0.548L28.531-0.176z M25.018,2.646
			l-0.234,0.232l0.025,0.067l0.055,0.125l-3.709,3.72l0.398,0.085c0.366,0.077,0.683,0.296,0.888,0.613
			c0.027,0.044,0.036,0.1,0.06,0.148l0.012-0.014l0.274,0.181l0.098-0.021l1.083,0.784l0.727-0.996l-1.61-1.257l0.034-0.105h0.269
			l1.582-1.855l0.177-1.663L25.018,2.646z M26.741,1.002c-0.479-0.053-0.948,0.307-1.004,0.804l-0.061,0.542l0,0L25.639,2.74
			l-0.176,1.666l-0.019,0.155l-0.1,0.119l-1.416,1.66l1.067,0.837l0.385,0.3l-0.225,0.305l0.057,0.113
			c0.148,0.319,0.471,0.517,0.821,0.517c0.051,0,0.101-0.002,0.149-0.013c0.401-0.068,0.707-0.394,0.751-0.795l0.605-5.597
			C27.6,1.503,27.238,1.052,26.741,1.002z M24.89,8.15l-0.521,0.714l-0.297,0.409l-0.407-0.297L22.77,8.328l-0.078,0.021
			l-0.034-0.022c0,0.077-0.002,0.15-0.021,0.228c-0.017,0.075-0.044,0.143-0.071,0.213c-0.058,0.132-0.128,0.246-0.217,0.354
			l0.064,0.143c0.063,0.143,0.149,0.328,0.252,0.49l0.251,0.39h1.911L24.89,8.15z M21.252,9.673c-0.02,0-0.042-0.006-0.063-0.008
			c-0.011,0.041-0.018,0.071-0.018,0.071l0.215,0.406h0.519l0.335-0.117c-0.114-0.177-0.205-0.368-0.291-0.559
			C21.74,9.587,21.509,9.673,21.252,9.673z M22.002,7.748c-0.038-0.058-0.096-0.103-0.147-0.149
			c-0.027-0.028-0.055-0.067-0.09-0.089c-0.095-0.066-0.205-0.116-0.322-0.144l-0.397-0.08l-0.903-0.194l0,0L19.343,6.92
			l-0.313-0.065l-0.513-0.111l-0.034-0.007l0.082-0.083l0.347-0.343l0.37-0.374c0.03,0.256,0.044,0.458,0.044,0.463l0.12,0.024
			l1.124,0.239l0.229-0.231l3.472-3.485l-0.078-0.193l0.03-0.022c-0.505-0.152-1.096-0.238-1.844-0.238h-0.243c0,0-0.24,0-0.242,0
			c-0.525,0-1.056,0.036-1.572,0.15c-0.89,0.2-1.44,1.071-2.049,1.67c-0.628,0.617-1.238,1.26-1.85,1.895
			c-0.134,0.142-0.27,0.288-0.41,0.428c-0.234,0.235-0.319,0.58-0.227,0.902c0.091,0.319,0.354,0.56,0.682,0.633l1.201,0.256
			l0.509,0.106l2.887,0.616c0.063,0.01,0.128,0.021,0.192,0.021c0.418,0,0.795-0.293,0.885-0.72c0.036-0.168,0.01-0.326-0.04-0.477
			l-0.058-0.115C22.03,7.827,22.016,7.79,22.002,7.748z M20.728,9.97L20.64,9.806l0.044-0.183l0.008-0.035l-0.138-0.031
			l-0.511,0.584h0.774L20.728,9.97z"/>
	</g>
	<path id="displaced" display="none" fill="#FFFFFF" d="M23.165-2.845c0.126,0.787-0.403,1.523-1.182,1.649
		c-0.781,0.13-1.523-0.4-1.651-1.181c-0.128-0.783,0.398-1.524,1.185-1.652C22.294-4.155,23.035-3.626,23.165-2.845z M22.717,2.85
		l1.27,2.029c0.183,0.286,0.553,0.377,0.844,0.209c0.292-0.174,0.395-0.545,0.234-0.841L24.74,3.664
		c-0.282-0.497-0.557-1.001-0.835-1.5l-0.563-1.026c-0.066-0.121-0.129-0.255-0.196-0.396C22.8,0.01,22.256-1.12,21.061-1.018
		c-1.02,0.089-2.059,0.575-3.079,1.441c-1.208,0.954-2.051,2.338-2.083,2.396C15.857,2.878,15.819,2.943,15.791,3
		c-0.004,0.002-0.004,0.004-0.007,0.006l0,0c-0.114,0.213-0.17,0.408-0.029,0.657c0.112,0.196,0.321,0.315,0.542,0.315
		c0.275,0,0.411-0.129,0.547-0.321l0,0c0.002,0,0.002-0.004,0.002-0.004c0.038-0.055,0.074-0.117,0.116-0.181
		c0.006-0.011,0.714-1.149,1.813-2.084c0.339-0.266,0.662-0.448,0.963-0.547l-0.246,2.955c-0.024,0.292-0.114,0.797-0.194,1.079
		l-0.551,1.927c-0.073,0.242-0.277,0.646-0.439,0.843l-1.486,1.842c-0.187,0.233-0.399,0.497-0.224,0.864
		c0.104,0.216,0.321,0.354,0.563,0.354c0.287,0,0.443-0.164,0.635-0.375l1.505-1.622c0.27-0.29,0.619-0.791,0.791-1.147l0.747-1.517
		l2.758,4.634c0.133,0.228,0.307,0.516,0.677,0.516l0,0c0.217,0,0.41-0.111,0.525-0.288c0.2-0.307,0.067-0.586-0.046-0.837
		L22.52,5.225c-0.086-0.192-0.135-0.578-0.1-0.786L22.717,2.85z M25.054,7.892h3.343v0.992l3.319-1.917L28.397,5.05v0.992h-3.343
		V7.892z"/>
	<path id="epidemie" display="none" fill="#FFFFFF" d="M28.862,4.097c0-3.6-2.82-6.529-6.373-6.712
		c1.568,0.15,2.792,1.288,2.792,2.675c0,0.476-0.157,0.915-0.411,1.302c-0.702-0.699-1.666-1.129-2.731-1.129
		s-2.027,0.43-2.726,1.127c-0.251-0.388-0.409-0.827-0.409-1.304c0-1.383,1.22-2.523,2.789-2.673
		c-3.551,0.183-6.371,3.115-6.371,6.714c0,1.085,0.263,2.11,0.718,3.018c-0.624-1.421-0.245-3.02,0.938-3.704
		c0.415-0.238,0.876-0.323,1.337-0.297c-0.088,0.317-0.147,0.646-0.147,0.992c0,1.787,1.223,3.28,2.871,3.724
		c-0.021,0.039-0.051,0.075-0.071,0.112c0,0.004,0,0.004,0,0.01c-0.056,0.123-0.124,0.221-0.207,0.306
		c-0.176,0.232-0.382,0.438-0.643,0.59c-1.191,0.687-2.776,0.211-3.691-1.057c1.204,1.827,3.269,3.035,5.616,3.035
		c2.325,0,4.375-1.182,5.582-2.98c-0.919,1.227-2.476,1.678-3.648,1.005c-0.416-0.243-0.719-0.605-0.927-1.023
		c1.648-0.445,2.862-1.939,2.862-3.722c0-0.346-0.057-0.675-0.145-0.992c0.467-0.029,0.928,0.056,1.345,0.295
		c1.151,0.664,1.543,2.188,0.991,3.581C28.623,6.111,28.862,5.133,28.862,4.097z M22.855,6.685c-0.029-0.56,0.089-1.147,0.368-1.703
		l-0.448-0.258c-0.16,0.167-0.385,0.268-0.637,0.268c-0.246,0-0.475-0.102-0.635-0.268l-0.438,0.252
		c0.279,0.559,0.4,1.152,0.367,1.71c-1.137-0.311-1.983-1.346-1.983-2.582c0-0.237,0.038-0.46,0.097-0.677
		c0.497,0.251,0.949,0.642,1.294,1.16l0.449-0.261C21.268,4.25,21.24,4.178,21.24,4.095c0-0.415,0.285-0.751,0.673-0.852V2.732
		c-0.623-0.041-1.189-0.234-1.658-0.541c0.486-0.479,1.149-0.773,1.881-0.773c0.735,0,1.399,0.296,1.885,0.775
		c-0.469,0.307-1.033,0.499-1.656,0.539v0.513c0.385,0.101,0.669,0.437,0.669,0.852c0,0.083-0.024,0.155-0.042,0.232l0.453,0.265
		c0.343-0.517,0.793-0.907,1.286-1.157c0.055,0.213,0.095,0.437,0.095,0.669C24.828,5.337,23.989,6.371,22.855,6.685z"/>
	<path id="enlevement" display="none" fill="#FFFFFF" d="M27.746-3.939c-0.417,0-0.757,0.34-0.757,0.759v3.088
		c0.183,0.041,0.357,0.117,0.498,0.255c0.398,0.394,0.409,1.041,0.019,1.444l-1.436,1.477l-0.198-0.193l1.44-1.473
		c0.29-0.298,0.279-0.772-0.015-1.065c-0.095-0.087-0.202-0.148-0.317-0.18c-0.128-0.034-0.254-0.036-0.38-0.01
		C26.462,0.2,26.338,0.27,26.238,0.375c-0.851,0.874-1.708,1.75-2.56,2.624c-0.214,0.219-0.604,0.722-0.593,1.221
		c0.01,0.471-0.006,0.954,0.002,1.428c-0.112-0.089-0.246-0.156-0.398-0.185c-0.441-0.072-0.837,0.192-0.989,0.582h-0.224
		c0-0.106,0-0.215,0.002-0.322c0.011-0.493-0.01-1.006,0.004-1.5C21.493,3.722,21.103,3.219,20.888,3
		c-0.854-0.875-1.704-1.75-2.562-2.626c-0.1-0.104-0.222-0.174-0.361-0.209c-0.126-0.025-0.254-0.023-0.378,0.01
		c-0.115,0.035-0.227,0.095-0.32,0.184c-0.291,0.291-0.298,0.764-0.013,1.064l1.443,1.469l-0.199,0.193l-1.434-1.477
		c-0.394-0.404-0.384-1.05,0.018-1.442c0.144-0.136,0.317-0.215,0.499-0.256v-3.087c0-0.418-0.341-0.759-0.757-0.759
		c-0.418,0-0.758,0.341-0.758,0.759v5.346c0,0.174,0.07,0.335,0.174,0.465l2.583,3.41h-0.23c-0.501,0-0.915,0.408-0.915,0.915
		c0,0.335,0.191,0.615,0.459,0.773c-0.271,0.159-0.459,0.441-0.459,0.772c0,0.506,0.411,0.916,0.915,0.916h0.277v0.509h2.536
		c0.135,0.131,0.286,0.228,0.475,0.259c0.053,0.009,0.101,0.013,0.151,0.013c0.446,0,0.826-0.317,0.897-0.758l0.004-0.022h0.162
		c0.002,0.168,0,0.333,0.02,0.509h2.582V9.418h0.278c0.502,0,0.915-0.407,0.915-0.916c0-0.331-0.19-0.613-0.461-0.772
		c0.271-0.158,0.461-0.438,0.461-0.775c0-0.505-0.41-0.913-0.915-0.913h-0.229l2.583-3.413c0.106-0.129,0.176-0.29,0.176-0.464
		v-5.344C28.505-3.599,28.165-3.939,27.746-3.939z M18.138,6.955c0-0.251,0.204-0.455,0.455-0.455h2.992l-0.156,0.912h-2.836
		C18.342,7.41,18.138,7.209,18.138,6.955z M18.138,8.504c0-0.25,0.204-0.458,0.455-0.458h2.724l-0.158,0.915h-2.565
		C18.342,8.96,18.138,8.759,18.138,8.504z M22.481,9.363c-0.04,0.25-0.301,0.413-0.528,0.375c-0.119-0.021-0.224-0.087-0.293-0.186
		c-0.072-0.1-0.1-0.221-0.078-0.34l0.505-2.925c0.037-0.222,0.23-0.38,0.455-0.38c0.022,0,0.048,0,0.072,0.005
		c0.246,0.043,0.413,0.279,0.371,0.527L22.481,9.363z M26.432,8.504c0,0.253-0.206,0.457-0.455,0.457h-2.962l0.156-0.915h2.805
		C26.226,8.048,26.432,8.253,26.432,8.504z M26.432,6.955c0,0.252-0.206,0.455-0.455,0.455h-2.694l0.153-0.895
		c0.002-0.006,0-0.012,0-0.018h2.539C26.226,6.5,26.432,6.706,26.432,6.955z"/>
	<path id="eruption" display="none" fill="#FFFFFF" d="M23.498,0.508c0.911,0.311,2.12,0.679,2.376-0.792
		c0.204-1.143,1.731-0.72,2.38-0.792c1.182-0.136,0.288-2.349-1.19-2.38c-1.496-0.034-2.177,0.624-2.771,1.982
		c-0.285,0.655-0.529,1.146-1.587,0.794c-1.057-0.354-1.832,0.516-1.191,1.586c0.572,0.946-0.008,1.981-0.008,1.981h1.597
		c0,0-0.013-0.588-0.397-1.19C22.258,0.998,22.565,0.187,23.498,0.508z M15.049,10.372c4.103-2.988,5.127-7.123,5.127-7.123h4.216
		c0,0,1.026,4.133,5.128,7.123H15.049z"/>
	<path id="returned" display="none" fill="#FFFFFF" d="M21.858-2.148c0.105,0.646-0.335,1.256-0.976,1.363
		c-0.646,0.107-1.256-0.333-1.361-0.977c-0.106-0.647,0.328-1.256,0.977-1.363C21.139-3.232,21.755-2.795,21.858-2.148z
		 M21.489,2.551l1.049,1.678c0.147,0.234,0.457,0.311,0.7,0.169c0.235-0.143,0.32-0.449,0.187-0.693l-0.267-0.481
		c-0.231-0.41-0.455-0.826-0.685-1.239l-0.469-0.849c-0.056-0.095-0.107-0.207-0.163-0.323c-0.288-0.605-0.738-1.539-1.722-1.452
		c-0.846,0.072-1.699,0.473-2.541,1.188c-0.997,0.786-1.696,1.93-1.726,1.977c-0.031,0.05-0.061,0.101-0.088,0.152
		C15.762,2.68,15.76,2.68,15.76,2.682l0,0c-0.094,0.176-0.139,0.337-0.022,0.542C15.83,3.386,16,3.486,16.188,3.486
		c0.224,0,0.337-0.105,0.449-0.266l0,0c0.002-0.002,0.002-0.002,0.002-0.002c0.031-0.049,0.064-0.1,0.096-0.153
		c0.006-0.009,0.591-0.947,1.497-1.719c0.278-0.217,0.542-0.369,0.793-0.452l-0.2,2.441c-0.021,0.243-0.099,0.658-0.167,0.893
		l-0.449,1.59c-0.062,0.201-0.231,0.534-0.363,0.696l-1.227,1.52c-0.156,0.194-0.331,0.412-0.187,0.715
		c0.085,0.176,0.267,0.292,0.464,0.292c0.236,0,0.364-0.136,0.529-0.311l1.242-1.338c0.222-0.239,0.51-0.654,0.65-0.947l0.617-1.251
		l2.278,3.826c0.111,0.189,0.256,0.423,0.564,0.423l0,0c0.177,0,0.339-0.089,0.435-0.24c0.163-0.252,0.055-0.479-0.04-0.686
		l-1.843-4.003c-0.071-0.155-0.111-0.475-0.084-0.647L21.489,2.551z M29.156,3.405c0-1.672-1.358-3.027-3.026-3.027h-1.286v1.528
		h1.284c0.825,0,1.496,0.67,1.496,1.499c0,0.827-0.671,1.498-1.496,1.498h-0.267V4.082l-2.744,1.584l2.744,1.584V6.428h0.3V6.426
		C27.815,6.412,29.156,5.063,29.156,3.405z"/>
	<path id="Attack" display="none" fill="#FFFFFF" d="M25.812,4.495l4.506-2.884l-4.352-0.463l1.182-5.058L24.061-0.72l-0.861-3.606
		L21.903-0.96l-3.526-4.545l1.107,5.694l-3.134-0.696c0,0,0.954,1.824,1.484,2.922l-5.032-0.352l4.554,2.662l-1.307,1.346
		l2.118-0.387l-1.5,5.306l4.46-3.729l1.156,2.882l1.188-2.305l3.846,3.971l-1.923-5.315l4.216,0.427L25.812,4.495z"/>
	<g id="affected" display="none">
		<path display="inline" fill="#FFFFFF" d="M18.691-2.536c0,0.653-0.532,1.181-1.184,1.181c-0.653,0-1.184-0.53-1.184-1.181
			c0-0.652,0.531-1.18,1.184-1.18C18.161-3.716,18.691-3.19,18.691-2.536z M17.629,5.56l0.259,4.362
			c0,0.153,0.124,0.277,0.275,0.277c0.153,0,0.279-0.126,0.279-0.277l0.235-4.36h0.771l-0.795-4.895l1.604,3.197
			c0.061,0.142,0.223,0.208,0.362,0.15c0.144-0.061,0.211-0.221,0.15-0.364c0,0-1.176-3.182-1.471-3.774
			c-0.29-0.594-0.577-0.955-1.683-0.955h-0.223c-1.103,0-1.392,0.36-1.681,0.955c-0.289,0.594-1.468,3.774-1.468,3.774
			c-0.06,0.145,0.007,0.305,0.148,0.366c0.143,0.06,0.304-0.008,0.364-0.15l1.604-3.197L15.563,5.56h0.771l0.241,4.36
			c0,0.153,0.125,0.277,0.274,0.277c0.156,0,0.28-0.126,0.28-0.277l0.237-4.36H17.629L17.629,5.56z M27.061-3.723
			c-0.654,0-1.186,0.53-1.186,1.182c0,0.653,0.528,1.184,1.186,1.184c0.649,0,1.18-0.53,1.18-1.184
			C28.243-3.192,27.71-3.723,27.061-3.723z M28.283,3.236l0.077-2.571l1.447,3.199c0.058,0.142,0.224,0.208,0.364,0.148
			c0.146-0.061,0.212-0.221,0.153-0.364c0,0-1.021-3.183-1.31-3.774c-0.288-0.592-0.74-0.953-1.843-0.953h-0.228
			c-1.104,0-1.552,0.36-1.84,0.953c-0.289,0.592-1.308,3.772-1.308,3.772c-0.063,0.145,0.004,0.304,0.146,0.366
			c0.141,0.062,0.309-0.006,0.363-0.148l1.447-3.199l0.076,2.571l-0.23,6.465c-0.012,0.256,0.181,0.477,0.435,0.495
			c0.013,0.002,0.026,0.002,0.034,0.002c0.237,0,0.449-0.187,0.465-0.431l0.524-5.323l0.527,5.323
			c0.017,0.246,0.22,0.431,0.461,0.431c0.012,0,0.023,0,0.031-0.002c0.259-0.019,0.45-0.24,0.435-0.495L28.283,3.236L28.283,3.236z
			 M22.284,3.467c-0.405,0-0.729,0.323-0.729,0.724c0,0.4,0.322,0.723,0.729,0.723c0.396,0,0.721-0.324,0.721-0.723
			C23.005,3.792,22.681,3.467,22.284,3.467z M22.284,7.738c0,0,0.324,2.266,0.324,2.268c0.042,0.114,0.148,0.192,0.277,0.192
			c0.128,0,0.238-0.087,0.277-0.204c0-0.009,0.01-0.141,0-0.164L23.03,7.043l0.046-0.959c0.036-0.325,0.04-0.227,0.411-0.449
			c0.379-0.228,1.021-1.224,1.05-1.272c0.034-0.05,0.094-0.137,0.106-0.194c0.019-0.099-0.05-0.192-0.148-0.214
			c-0.076-0.012-0.138,0.028-0.188,0.079c-0.051,0.057-0.791,1.042-1.345,1.135c-0.126-0.02-0.259-0.083-0.617-0.083h-0.13
			c-0.354,0-0.487,0.065-0.614,0.083c-0.555-0.093-1.296-1.079-1.347-1.135c-0.046-0.05-0.107-0.091-0.186-0.079
			c-0.098,0.022-0.166,0.115-0.146,0.214c0.01,0.056,0.066,0.143,0.1,0.194c0.034,0.049,0.675,1.044,1.052,1.272
			c0.367,0.222,0.381,0.124,0.414,0.449l0.043,0.959l-0.132,2.789c-0.006,0.024,0,0.157,0.007,0.164
			c0.035,0.116,0.146,0.203,0.276,0.203c0.129,0,0.235-0.078,0.273-0.191C21.955,10.006,22.284,7.738,22.284,7.738"/>
	</g>
	<g id="foodsec">
		<path fill="#FFFFFF" d="M28.039,15.143L28.039,15.143c-0.052,1.445-0.544,3.012-1.305,4.458c0,0-1.801,3.653-7.466,3.653
			c-5.674,0-7.506-3.622-7.506-3.622c-0.762-1.455-1.217-3.014-1.277-4.493h0.003c0-0.038-0.003-0.075-0.003-0.114
			c0-0.695,0.433-1.346,1.171-1.905l0.789,0.505c-0.49,0.327-0.772,0.693-0.772,1.082c0,1.372,3.399,2.481,7.597,2.481
			c4.186,0,7.582-1.109,7.582-2.481c0-0.945-1.625-1.77-4.022-2.187l0.013-0.997c3.061,0.602,5.201,1.941,5.201,3.503
			C28.044,15.064,28.042,15.103,28.039,15.143z M13.404,9.248c-0.029,0.23-0.069,0.603,0.219,1.11
			c0.354,0.61,0.809,0.826,0.955,0.93c-0.026-0.16,0.018-0.632-0.315-1.207c-0.285-0.513-0.598-0.743-0.786-0.921
			c-0.521-0.755-1.115-1.363-1.566-1.839l-1.075-1.116c0,0,0.389,0.445,1.03,1.152C12.309,7.853,12.89,8.479,13.404,9.248z
			 M16.094,15.15c0.228,0.215,0.519,0.567,1.163,0.927c0.723,0.404,1.333,0.404,1.539,0.451c-0.115-0.188-0.348-0.785-1.146-1.229
			c-0.658-0.36-1.146-0.291-1.445-0.241c-0.99-0.575-1.84-1.166-2.524-1.586c-0.976-0.602-1.609-0.911-1.607-0.911
			c-0.002,0,0.611,0.339,1.569,0.971C14.303,13.972,15.115,14.567,16.094,15.15z M16.674,12.002c-0.083,0.267-0.193,0.7,0.062,1.332
			c0.296,0.775,0.802,1.099,0.955,1.243c0.008-0.189,0.141-0.726-0.145-1.453c-0.253-0.648-0.583-0.97-0.769-1.209
			c-0.49-0.968-1.088-1.773-1.546-2.401l-1.098-1.479l1.037,1.509C15.615,10.192,16.2,11.021,16.674,12.002z M14.83,13.575
			c0.218,0.198,0.5,0.524,1.109,0.845c0.684,0.357,1.253,0.342,1.441,0.381c-0.114-0.169-0.348-0.719-1.098-1.113
			c-0.618-0.323-1.07-0.251-1.352-0.201c-0.93-0.518-1.727-1.052-2.371-1.437c-0.921-0.548-1.518-0.825-1.513-0.827
			c-0.005,0.005,0.579,0.312,1.476,0.888C13.142,12.504,13.915,13.052,14.83,13.575z M13.518,12.026
			c0.203,0.179,0.465,0.477,1.036,0.761c0.641,0.322,1.166,0.299,1.344,0.33c-0.111-0.157-0.337-0.654-1.036-1.006
			c-0.574-0.29-0.993-0.215-1.252-0.165c-0.869-0.468-1.617-0.951-2.218-1.303C10.534,10.145,9.979,9.893,9.98,9.89
			c-0.001,0.003,0.54,0.282,1.381,0.804C11.938,11.06,12.663,11.554,13.518,12.026z M12.18,9.769
			c0.381,0.342,0.746,0.363,0.954,0.43c-0.045-0.168-0.008-0.583-0.446-0.97c-0.37-0.32-0.75-0.348-0.941-0.364
			c-1.542-1.32-2.91-2.167-3.225-2.37L8.453,6.448c-0.012,0.01,1.495,1.002,3.257,2.55C11.768,9.188,11.87,9.505,12.18,9.769z
			 M12.152,10.499c0.191,0.16,0.437,0.429,0.966,0.685c0.587,0.292,1.075,0.263,1.239,0.289c-0.103-0.14-0.319-0.589-0.965-0.908
			c-0.536-0.254-0.919-0.192-1.157-0.143c-0.804-0.417-1.494-0.863-2.053-1.178c-0.795-0.454-1.31-0.679-1.31-0.679
			s0.504,0.249,1.276,0.73C10.689,9.616,11.358,10.068,12.152,10.499z M15.083,10.58c-0.057,0.249-0.127,0.656,0.142,1.223
			c0.333,0.696,0.815,0.96,0.97,1.087c-0.012-0.171,0.067-0.677-0.24-1.333c-0.279-0.581-0.6-0.859-0.784-1.063
			c-0.512-0.864-1.105-1.571-1.566-2.123l-1.091-1.296l1.039,1.331C14.001,8.977,14.583,9.707,15.083,10.58z M21.141,12.063
			c-0.17,0.17-0.446,0.454-0.528,1.042c-0.106,0.713,0.129,1.166,0.18,1.341c0.086-0.143,0.421-0.5,0.521-1.172
			c0.09-0.602-0.016-0.981-0.055-1.238c0.052-0.94-0.057-1.805-0.139-2.472c-0.116-0.973-0.201-1.579-0.201-1.579l0.145,1.58
			C21.12,10.245,21.205,11.12,21.141,12.063z M20.586,10.461c-0.152,0.17-0.382,0.45-0.426,0.996
			c-0.054,0.669,0.191,1.074,0.256,1.233c0.062-0.139,0.355-0.491,0.407-1.119c0.041-0.561-0.082-0.906-0.134-1.145
			c-0.008-0.868-0.155-1.66-0.266-2.272l-0.266-1.446l0.217,1.449C20.462,8.786,20.589,9.583,20.586,10.461z M19.942,8.891
			c-0.129,0.166-0.322,0.439-0.327,0.946c-0.011,0.619,0.244,0.974,0.312,1.115c0.049-0.132,0.289-0.477,0.305-1.053
			c0.005-0.523-0.132-0.827-0.191-1.042c-0.069-0.801-0.245-1.517-0.382-2.072l-0.33-1.314l0.279,1.32
			C19.723,7.357,19.888,8.086,19.942,8.891z M21.076,16.224c0.101-0.145,0.484-0.502,0.649-1.216
			c0.14-0.635,0.047-1.052,0.026-1.333c0.113-1.01,0.054-1.946,0.013-2.665c-0.072-1.051-0.126-1.708-0.126-1.708l0.051,1.706
			c0.028,0.732,0.067,1.677-0.066,2.685c-0.199,0.173-0.503,0.458-0.64,1.082C20.816,15.53,21.032,16.03,21.076,16.224z
			 M17.859,7.86c0.079,0.177,0.156,0.463,0.45,0.823c0.323,0.413,0.682,0.546,0.795,0.622c-0.028-0.138-0.026-0.536-0.379-0.987
			c-0.297-0.366-0.594-0.447-0.782-0.487c-0.43-0.576-0.773-1.125-1.067-1.54c-0.41-0.6-0.705-0.932-0.703-0.936
			c-0.002,0.004,0.275,0.35,0.664,0.956C17.109,6.729,17.43,7.284,17.859,7.86z M18.131,7.334c0.16,0.376,0.413,0.514,0.539,0.629
			c0.026-0.136,0.198-0.427,0.023-0.857c-0.155-0.358-0.426-0.503-0.559-0.576c-0.641-1.484-1.328-2.557-1.485-2.81l-0.032-0.056
			c-0.014,0.005,0.72,1.231,1.446,2.95C18.04,6.772,18.002,7.038,18.131,7.334z M18.779,10.336c0.343,0.447,0.737,0.607,0.854,0.688
			c-0.018-0.153-0.008-0.592-0.387-1.083c-0.314-0.401-0.645-0.489-0.848-0.537c-0.467-0.629-0.834-1.233-1.143-1.688
			c-0.444-0.651-0.749-1.017-0.749-1.02c0,0,0.289,0.385,0.707,1.046c0.289,0.457,0.634,1.058,1.086,1.692
			C18.387,9.633,18.472,9.936,18.779,10.336z M19.201,7.357c-0.105,0.163-0.261,0.421-0.237,0.885
			c0.039,0.569,0.292,0.875,0.363,0.999c0.034-0.123,0.235-0.454,0.201-0.987C19.5,7.781,19.354,7.51,19.284,7.315
			c-0.108-0.722-0.325-1.368-0.48-1.863l-0.379-1.178c0,0,0.116,0.454,0.333,1.189C18.9,5.971,19.104,6.626,19.201,7.357z
			 M18.701,11.006c0.09,0.217,0.175,0.547,0.5,0.983c0.366,0.487,0.776,0.668,0.908,0.762c-0.023-0.168,0-0.645-0.397-1.185
			c-0.333-0.44-0.684-0.536-0.905-0.591c-0.487-0.689-0.878-1.343-1.202-1.84c-0.472-0.708-0.804-1.108-0.804-1.111
			c0,0.003,0.308,0.421,0.755,1.14C17.861,9.662,18.224,10.316,18.701,11.006z M13.947,15.323c0,0.002,0.541,0.309,1.39,0.909
			c0.059,0.01,0.116,0.024,0.182,0.037C14.567,15.638,13.947,15.323,13.947,15.323z M20.71,16.509
			c-0.124-0.192-0.256-0.342-0.39-0.454c-0.046-0.122-0.088-0.235-0.139-0.338c0.28,0.295,0.552,0.439,0.652,0.521
			c0-0.011,0-0.028,0-0.047c0.033,0.111,0.064,0.23,0.101,0.349c0.054-0.002,0.113-0.006,0.162-0.009
			c-0.093-0.339-0.209-0.668-0.327-0.981c-0.042-0.169-0.111-0.349-0.222-0.549c-0.106-0.244-0.212-0.479-0.315-0.704
			c0.129,0.088,0.232,0.146,0.286,0.187c-0.013-0.178,0.029-0.693-0.392-1.283c-0.25-0.346-0.513-0.499-0.732-0.583l-0.663-1.296
			c0,0,0.22,0.473,0.594,1.27c-0.063-0.016-0.111-0.033-0.157-0.044c-0.514-0.753-0.917-1.462-1.264-1.996
			c-0.489-0.767-0.84-1.204-0.837-1.204c0,0.003,0.326,0.451,0.791,1.232c0.318,0.538,0.698,1.248,1.196,2
			c0.087,0.229,0.173,0.588,0.51,1.065c0.16,0.223,0.325,0.385,0.482,0.51c0.055,0.129,0.116,0.266,0.178,0.409
			c-0.283-0.29-0.577-0.38-0.773-0.44c-0.057-0.086-0.108-0.174-0.159-0.258c-0.333-0.71-0.687-1.334-0.983-1.855
			c-0.657-1.142-1.08-1.842-1.077-1.842l0.998,1.875c0.081,0.139,0.157,0.295,0.239,0.448c-0.105-0.187-0.212-0.364-0.31-0.527
			c-0.51-0.826-0.877-1.291-0.877-1.293c0,0.003,0.338,0.487,0.82,1.328c0.284,0.497,0.611,1.128,1.017,1.813
			c0.183,0.399,0.353,0.822,0.503,1.269c-0.039,0.089-0.094,0.203-0.129,0.337c-0.452-0.771-0.818-1.485-1.146-2.036
			c-0.105-0.184-0.204-0.342-0.295-0.491c-0.41-0.847-0.884-1.574-1.264-2.16c-0.662-1.026-1.091-1.658-1.091-1.658l1.023,1.691
			c0.44,0.724,1.013,1.658,1.457,2.741c-0.098,0.281-0.258,0.738-0.029,1.437c0.27,0.852,0.785,1.237,0.94,1.406
			c0.016-0.188,0.17-0.706-0.016-1.438c0.119,0.221,0.24,0.446,0.374,0.682c-0.055,0.263-0.067,0.595,0.036,1.014
			c0.42-0.003,0.838-0.017,1.248-0.044C20.726,16.542,20.72,16.53,20.71,16.509z M14.741,14.928
			c-1.029-0.662-1.704-0.994-1.701-0.996c-0.001,0,0.651,0.365,1.658,1.057c0.586,0.404,1.298,0.934,2.116,1.48
			c0.103,0.013,0.204,0.019,0.305,0.031C16.2,15.921,15.396,15.346,14.741,14.928z M22.164,15.336
			c0.199-1.071,0.179-2.08,0.179-2.856l-0.031-1.837c0,0-0.019,0.702-0.031,1.833c-0.021,0.79-0.039,1.802-0.247,2.872
			c-0.228,0.171-0.567,0.458-0.761,1.111c-0.008,0.023-0.011,0.041-0.019,0.063c0.297-0.03,0.586-0.063,0.869-0.102
			C22.216,15.937,22.17,15.583,22.164,15.336z"/>
	</g>
</g>
</svg>
