<?xml version="1.0" encoding="utf-8"?>
<!-- Generator: Adobe Illustrator 16.0.0, SVG Export Plug-In . SVG Version: 6.00 Build 0)  -->
<!DOCTYPE svg PUBLIC "-//W3C//DTD SVG 1.1//EN" "http://www.w3.org/Graphics/SVG/1.1/DTD/svg11.dtd">
<svg version="1.1" id="Layer_1" xmlns="http://www.w3.org/2000/svg" xmlns:xlink="http://www.w3.org/1999/xlink" x="0px" y="0px"
	 width="33.35px" height="40px" viewBox="0 0 33.35 40" enable-background="new 0 0 33.35 40" xml:space="preserve">
<g id="PinColor">
	<path id="PinOmbre" opacity="0.3" enable-background="new    " d="M28.497,30.361c0,1.768-3.884,3.252-9.105,3.643
		c-0.882,0.068-2.746,4.217-2.746,4.217s-1.93-4.15-2.84-4.221c-5.174-0.404-9.014-1.881-9.014-3.639
		c0-2.07,5.307-3.748,11.853-3.748C23.19,26.613,28.497,28.289,28.497,30.361z"/>
	<path id="vert" fill="#2ABF00" stroke="#1D7500" stroke-width="0.2" stroke-miterlimit="10" d="M28.497,12.966
		c0,5.416-3.884,9.956-9.105,11.157c-0.882,0.199-2.746,12.895-2.746,12.895s-1.93-12.694-2.84-12.92
		c-5.174-1.229-9.014-5.749-9.014-11.135C4.792,6.631,10.099,1.5,16.645,1.5C23.19,1.499,28.497,6.635,28.497,12.966z"/>
	<path id="orange" display="none" fill="#FF8500" stroke="#7F4500" stroke-width="0.2" stroke-miterlimit="10" d="M28.497,12.966
		c0,5.416-3.884,9.956-9.105,11.157c-0.882,0.199-2.746,12.895-2.746,12.895s-1.93-12.694-2.84-12.92
		c-5.174-1.229-9.014-5.749-9.014-11.135C4.792,6.631,10.099,1.5,16.645,1.5C23.19,1.499,28.497,6.635,28.497,12.966z"/>
	<path id="gris" display="none" fill="#A5A5A5" stroke="#595959" stroke-width="0.2" stroke-miterlimit="10" d="M28.497,12.966
		c0,5.416-3.884,9.956-9.105,11.157c-0.882,0.199-2.746,12.895-2.746,12.895s-1.93-12.694-2.84-12.92
		c-5.174-1.229-9.014-5.749-9.014-11.135C4.792,6.631,10.099,1.5,16.645,1.5C23.19,1.499,28.497,6.635,28.497,12.966z"/>
	<path id="bleu" display="none" fill="#0092FF" stroke="#00477C" stroke-width="0.2" stroke-miterlimit="10" d="M28.497,12.966
		c0,5.416-3.884,9.956-9.105,11.157c-0.882,0.199-2.746,12.895-2.746,12.895s-1.93-12.694-2.84-12.92
		c-5.174-1.229-9.014-5.749-9.014-11.135C4.792,6.631,10.099,1.5,16.645,1.5C23.19,1.499,28.497,6.635,28.497,12.966z"/>
</g>
<g id="Icons">
	<g id="Minimal">
		<path id="Election" display="none" fill="#565656" d="M32.062-0.849l-4.276-1.832c-0.127-0.054-0.273-0.017-0.357,0.091
			l-1.224,1.527c-0.055,0.068-0.074,0.165-0.059,0.254c0.021,0.086,0.076,0.156,0.151,0.198l-3.831,1.436
			c-0.324,0.121-0.597,0.349-0.774,0.645l-1.267,2.114c-0.268,0.449-0.29,0.998-0.056,1.467l0.092,0.178h-1.336
			c-0.171,0-0.308,0.137-0.308,0.307v5.799h-0.916c-0.17,0-0.303,0.137-0.303,0.303c0,0.169,0.133,0.306,0.303,0.306h10.379
			c0.167,0,0.3-0.137,0.3-0.306c0-0.167-0.133-0.303-0.3-0.303h-0.918V8.213c0-0.103-0.058-0.205-0.143-0.256
			c-0.09-0.057-0.198-0.064-0.295-0.021c-0.336,0.158-0.584,0.237-0.7,0.273c-0.026,0.005-0.05,0.016-0.072,0.033l-1.985,1.19
			c-0.316,0.191-0.678,0.292-1.045,0.292c-0.675,0-1.308-0.336-1.693-0.907c-0.307-0.459-0.411-1.012-0.298-1.55
			c0.115-0.538,0.436-1,0.895-1.294l0.289-0.184c0.214-0.128,0.399-0.247,0.569-0.351c0.117-0.074,0.172-0.216,0.132-0.348
			c-0.074-0.245-0.203-0.462-0.319-0.63c0.466-0.204,1.096-0.567,1.412-0.936c0,0,0.005,0.002,0.008,0.002
			c0.063,0.042,0.143,0.083,0.23,0.127c0.007,0.002,0.009,0.004,0.018,0.006l0,0c0.227,0.11,0.515,0.22,0.845,0.286
			c-0.353,0.439-0.716,0.987-0.847,1.353c-0.254,0.11-0.779,0.409-2.004,1.19c-0.325,0.207-0.549,0.527-0.625,0.904
			c-0.081,0.377-0.009,0.762,0.208,1.084c0.271,0.41,0.72,0.636,1.184,0.636c0.249,0,0.503-0.067,0.729-0.204l2.099-1.259
			c0.326-0.08,1.958-0.569,3.194-2.567c0.969-1.566,1.513-2.828,1.739-3.399l0.038,0.019c0.127,0.063,0.266,0.096,0.407,0.096
			c0.232,0,0.467-0.094,0.635-0.257c0.184-0.17,0.279-0.407,0.279-0.658V-0.57C32.242-0.691,32.172-0.801,32.062-0.849z"/>
	</g>
	<g id="Faible">
		<path id="Famine" display="none" fill="#F9F9F9" d="M29.312,10.389l-2.426,0.458l-3.961-2.153l1.44-1.797l3.241,1.076
			L29.312,10.389z M33.04,6.179v0.269l-2.555,0.811l-2.521,0.358l-3.241-1.078l-0.762-0.359h0.434
			c-0.102-0.963-0.242-1.694-0.308-2.649h-0.005c-0.003-0.028-0.035-0.668-0.044-0.941c-0.051-0.288-0.187-0.401-0.636-0.712
			c-0.247-0.159-0.43-0.216-0.534-0.214c-0.165,0-0.313,0.18-0.347,0.717C23.241,2.501,23.291,3.3,23.291,3.3
			c0.064,0.568-0.215,1.396-0.855,1.61c-1.185,0.396-1.064-1.888-0.394-2.436c0.017-0.658,0.202-1.262,0.827-1.286
			c0.249,0.002,0.502,0.103,0.794,0.29c0.142,0.083,0.254,0.169,0.353,0.256c-0.012-0.217-0.025-0.439-0.025-0.667
			c-0.002-0.48,0.073-1.003,0.5-1.374c0.22-0.2,0.468-0.302,0.71-0.3c0.635,0.031,1.027,0.577,1.255,1.136
			c0.266-0.117,0.598-0.174,0.981-0.042c0.975,0.337,1.5,2.038,1.092,2.631c-0.961,1.381-3.38-1.19-2.741-2.086
			c0,0,0.095-0.123,0.261-0.257C25.862,0.28,25.484-0.162,25.2-0.131c-0.107,0.002-0.233,0.04-0.393,0.182
			c-0.267,0.237-0.34,0.574-0.34,1.017c0,0.312,0.037,0.658,0.037,1.004c0,0.182,0.013,0.341,0.019,0.516
			c0.045,0.308,0.047,0.548,0.045,0.874c0.064,0.953,0.451,1.735,0.553,2.717H33.04z M26.224,0.965l1.833,1.998
			c-0.327-1.417-1.491-2.206-1.491-2.206L26.224,0.965z M22.423,2.68l-0.327,0.134c0,0-0.163,1.117,0,1.7L22.423,2.68z
			 M20.781,9.414l1.456-0.876l1.52-1.879l-0.474-0.482h-3.355l-0.667,1.331L20.781,9.414z M22.482,9.113l-2.583,1.757l0.347,0.426
			h5.94l-0.02-0.087L22.482,9.113z M17.17,6.179v2.027l1.654-0.887l0.501-1.14H17.17z M28.445,8.048l1.601,2.321l2.996,0.704V8.417
			l-2.155-0.694L28.445,8.048z M33.04,7.837V6.898l-1.68,0.456L33.04,7.837z M18.865,7.967L17.17,8.774v2.521h1.24l1.847-1.513
			L18.865,7.967z M27.744,11.296h3.877l-1.855-0.449L27.744,11.296z"/>
		<path id="Cyclone" display="none" fill="#FFFFFF" d="M25.167,0.726c-0.083-0.004-0.164-0.013-0.246-0.013
			c-0.728,0-1.41,0.188-2.006,0.517c1.063-3.62,3.714-3.936,3.714-3.936s-5.857,0.488-5.857,7.323c0.005,0,0.008,0,0.012,0
			C20.78,4.7,20.772,4.779,20.772,4.863c0,0.724,0.188,1.409,0.516,2.005c-3.619-1.063-3.936-3.712-3.936-3.712
			s0.488,5.859,7.326,5.859c0-0.006,0-0.008,0-0.014c0.079,0.004,0.161,0.014,0.242,0.014c0.729,0,1.413-0.189,2.007-0.52
			c-1.063,3.621-3.716,3.937-3.716,3.937s5.86-0.489,5.86-7.325c-0.004,0-0.009,0-0.013,0c0.004-0.082,0.013-0.161,0.013-0.242
			c0-0.728-0.188-1.412-0.519-2.005c3.62,1.062,3.937,3.714,3.937,3.714s-0.484-5.859-7.321-5.859
			C25.167,0.719,25.167,0.721,25.167,0.726z"/>
		<path id="tsunami" display="none" fill="#FFFFFF" d="M32.281,9.685c-12.057,0.683-8.688-8.54-5.561-7.743
			c-0.323,0.196-0.529,0.875-0.33,1.332c0.218,0.489,0.922,0.768,1.329,0.667c0.971-0.25,1.014-1.614,0.666-2.33
			c-0.362-0.745-1.322-1.663-2.995-1.663c-4.036,0-6.792,2.062-7.83,5.606v5.213h14.723V9.685H32.281z"/>
		<path id="earthquake" display="none" fill="#FFFFFF" d="M29.213,5.319c-0.207,0-0.396,0.115-0.493,0.297L27.915,7.13l-0.992-2.903
			c-0.076-0.22-0.277-0.368-0.51-0.379c-0.237-0.005-0.444,0.129-0.537,0.343l-0.678,1.614l-1.071-6.429
			c-0.054-0.268-0.307-0.472-0.563-0.458c-0.275,0.005-0.504,0.187-0.54,0.46l-0.95,7.459l-0.767-4.003
			c-0.045-0.235-0.237-0.417-0.477-0.449c-0.236-0.032-0.473,0.095-0.577,0.313l-1.258,2.621h-1.952v1.117h2.305
			c0.215,0,0.413-0.124,0.507-0.315l0.676-1.408l1.091,5.677c0.053,0.264,0.278,0.455,0.55,0.455c0.004,0,0.01,0,0.014,0
			c0.272-0.008,0.502-0.214,0.541-0.485l0.932-7.329l0.78,4.825c0.048,0.244,0.243,0.428,0.489,0.456
			c0.249,0.022,0.482-0.112,0.58-0.341l0.838-1.992l0.935,2.735c0.07,0.212,0.261,0.36,0.48,0.378
			c0.225,0.012,0.436-0.098,0.542-0.295l1.248-2.361h2.399V5.319H29.213z"/>
	</g>
	<g id="Modéré">
	</g>
	<g id="Important">
	</g>
	<g id="Elevé">
	</g>
	<g id="Extreme" display="none">
		<path id="rebelion" display="inline" fill="#FFFFFF" d="M27.204,0.931c0,1.348-1.09,2.436-2.434,2.436
			c-1.348,0-2.438-1.091-2.438-2.436c0-1.347,1.09-2.436,2.438-2.436C26.115-1.505,27.204-0.415,27.204,0.931z M20.702,11.266h1.488
			h0.08l0.056-0.114l0.541-0.53l-0.499-0.106l-0.793-0.169L20.702,11.266z M30.896,1.385l-0.524,0.522l0.036,0.036l-0.422,0.426
			c0.056,0.052,0.11,0.104,0.157,0.165l0.426-0.426l0.087,0.08l0.516-0.525L30.896,1.385z M27.531,4.087L27.307,4.31l0.025,0.063
			l0.052,0.12l-3.553,3.563l0.383,0.081c0.349,0.074,0.652,0.284,0.85,0.587c0.024,0.042,0.032,0.096,0.057,0.142l0.009-0.013
			l0.265,0.173l0.095-0.02l1.034,0.751l0.697-0.954L25.678,7.6l0.033-0.101h0.257l1.515-1.776l0.169-1.592L27.531,4.087z
			 M29.181,2.513c-0.459-0.051-0.907,0.293-0.961,0.77l-0.06,0.52l0,0l-0.036,0.375l-0.168,1.595L27.94,5.919l-0.096,0.114
			l-1.354,1.59l1.02,0.801l0.369,0.288l-0.215,0.292l0.055,0.108c0.142,0.305,0.451,0.495,0.787,0.495
			c0.047,0,0.095-0.002,0.143-0.012c0.384-0.065,0.677-0.377,0.718-0.762l0.58-5.359C30.003,2.992,29.656,2.561,29.181,2.513z
			 M27.407,9.355L26.91,10.04l-0.285,0.391l-0.39-0.284l-0.857-0.62l-0.075,0.02l-0.031-0.022c0,0.074-0.003,0.145-0.021,0.218
			c-0.017,0.072-0.042,0.137-0.069,0.204c-0.055,0.126-0.122,0.236-0.207,0.339l0.062,0.136c0.06,0.137,0.144,0.314,0.243,0.469
			l0.238,0.374h1.831L27.407,9.355z M23.926,10.815c-0.021,0-0.041-0.006-0.063-0.008c-0.01,0.039-0.015,0.067-0.015,0.067
			l0.206,0.389h0.496l0.32-0.111c-0.109-0.169-0.196-0.353-0.278-0.535C24.392,10.733,24.171,10.815,23.926,10.815z M24.644,8.971
			c-0.036-0.055-0.091-0.098-0.141-0.144c-0.027-0.026-0.052-0.063-0.087-0.085c-0.09-0.064-0.194-0.111-0.308-0.137l-0.38-0.077
			l-0.866-0.186l0,0l-0.765-0.164l-0.299-0.063L21.308,8.01l-0.032-0.007l0.078-0.079l0.331-0.329l0.355-0.357
			c0.027,0.246,0.043,0.439,0.043,0.443l0.115,0.023l1.075,0.229l0.219-0.22l3.325-3.338l-0.075-0.186l0.026-0.022
			c-0.48-0.145-1.047-0.228-1.763-0.228h-0.234c0,0-0.23,0-0.231,0c-0.503,0-1.01,0.035-1.506,0.144
			c-0.852,0.192-1.379,1.025-1.962,1.6c-0.603,0.59-1.186,1.207-1.771,1.813c-0.128,0.135-0.258,0.276-0.392,0.409
			c-0.225,0.225-0.306,0.556-0.217,0.865c0.087,0.305,0.339,0.536,0.653,0.605l1.15,0.245l0.487,0.103l2.762,0.589
			c0.062,0.01,0.122,0.021,0.185,0.021c0.401,0,0.762-0.281,0.849-0.689c0.033-0.161,0.009-0.313-0.039-0.457l-0.056-0.11
			C24.669,9.046,24.656,9.011,24.644,8.971z M23.423,11.099l-0.084-0.157l0.042-0.177l0.008-0.034l-0.134-0.029l-0.487,0.559h0.741
			L23.423,11.099z"/>
	</g>
	<path id="displaced" display="none" fill="#FFFFFF" d="M25.758-1.17c0.119,0.752-0.388,1.458-1.132,1.579
		c-0.749,0.125-1.461-0.383-1.582-1.13c-0.124-0.75,0.383-1.46,1.134-1.582C24.923-2.427,25.632-1.919,25.758-1.17z M25.328,4.281
		l1.216,1.943c0.173,0.273,0.529,0.361,0.807,0.2c0.279-0.167,0.377-0.521,0.224-0.805l-0.311-0.559
		c-0.269-0.476-0.533-0.958-0.798-1.437l-0.54-0.982c-0.062-0.116-0.122-0.245-0.187-0.379c-0.332-0.701-0.854-1.783-1.998-1.686
		c-0.978,0.085-1.971,0.551-2.948,1.38c-1.156,0.913-1.964,2.239-1.993,2.295c-0.04,0.056-0.077,0.118-0.104,0.173
		c-0.004,0.001-0.004,0.003-0.007,0.005l0,0c-0.109,0.205-0.163,0.391-0.028,0.63c0.107,0.188,0.309,0.301,0.521,0.301
		c0.263,0,0.393-0.124,0.522-0.307l0,0c0.002,0,0.002-0.004,0.002-0.004c0.036-0.053,0.069-0.112,0.111-0.173
		c0.007-0.011,0.685-1.101,1.735-1.995c0.324-0.256,0.633-0.429,0.921-0.524L22.24,5.187c-0.023,0.28-0.11,0.764-0.187,1.033
		l-0.531,1.845c-0.069,0.231-0.266,0.619-0.42,0.807l-1.423,1.765c-0.179,0.224-0.383,0.476-0.215,0.828
		c0.099,0.207,0.308,0.34,0.539,0.34c0.275,0,0.424-0.157,0.609-0.359l1.438-1.553c0.258-0.277,0.594-0.757,0.758-1.098l0.716-1.452
		l2.641,4.436c0.127,0.218,0.293,0.494,0.647,0.494l0,0c0.207,0,0.394-0.106,0.503-0.276c0.191-0.293,0.064-0.561-0.044-0.801
		l-2.138-4.639c-0.081-0.184-0.128-0.553-0.093-0.752L25.328,4.281z M27.565,9.108h3.201v0.95l3.179-1.835l-3.179-1.836v0.952
		h-3.201V9.108z"/>
	<path id="epidemie" display="none" fill="#FFFFFF" d="M31.212,5.476c0-3.447-2.701-6.251-6.104-6.427
		c1.501,0.144,2.673,1.234,2.673,2.562c0,0.456-0.151,0.875-0.394,1.247c-0.673-0.668-1.593-1.081-2.614-1.081
		c-1.02,0-1.941,0.411-2.609,1.079c-0.24-0.371-0.392-0.791-0.392-1.248c0-1.324,1.169-2.417,2.669-2.56
		c-3.398,0.175-6.101,2.982-6.101,6.428c0,1.039,0.254,2.02,0.689,2.89c-0.598-1.361-0.236-2.892,0.898-3.547
		c0.396-0.228,0.839-0.31,1.277-0.285c-0.083,0.304-0.139,0.619-0.139,0.95c0,1.711,1.169,3.141,2.748,3.566
		c-0.021,0.038-0.048,0.072-0.068,0.107c0,0.004,0,0.004,0,0.009c-0.053,0.118-0.119,0.212-0.197,0.293
		c-0.169,0.222-0.366,0.42-0.616,0.565c-1.142,0.658-2.657,0.203-3.534-1.012c1.152,1.749,3.129,2.906,5.377,2.906
		c2.228,0,4.188-1.132,5.345-2.854c-0.879,1.174-2.37,1.606-3.493,0.962c-0.397-0.232-0.688-0.579-0.888-0.98
		c1.579-0.426,2.741-1.857,2.741-3.564c0-0.331-0.054-0.646-0.138-0.95c0.445-0.028,0.887,0.053,1.285,0.283
		c1.104,0.635,1.479,2.096,0.952,3.429C30.983,7.404,31.212,6.468,31.212,5.476z M25.459,7.954
		c-0.026-0.536,0.086-1.099,0.354-1.631l-0.431-0.247c-0.152,0.159-0.368,0.256-0.608,0.256c-0.235,0-0.455-0.097-0.607-0.256
		l-0.422,0.242c0.269,0.535,0.384,1.103,0.353,1.638C23.009,7.658,22.2,6.667,22.2,5.484c0-0.227,0.035-0.44,0.092-0.648
		c0.475,0.241,0.908,0.615,1.238,1.111l0.43-0.25c-0.02-0.074-0.047-0.143-0.047-0.222c0-0.397,0.273-0.72,0.645-0.816V4.169
		c-0.596-0.039-1.139-0.224-1.589-0.518c0.468-0.458,1.101-0.74,1.803-0.74c0.703,0,1.339,0.284,1.805,0.742
		c-0.449,0.294-0.991,0.478-1.587,0.516V4.66c0.368,0.096,0.642,0.418,0.642,0.815c0,0.08-0.023,0.148-0.041,0.222l0.435,0.254
		c0.328-0.495,0.76-0.869,1.231-1.108c0.053,0.204,0.091,0.418,0.091,0.64C27.349,6.664,26.546,7.653,25.459,7.954z"/>
	<path id="enlevement" display="none" fill="#FFFFFF" d="M30.143-2.22c-0.398,0-0.726,0.326-0.726,0.727v2.956
		c0.176,0.04,0.343,0.112,0.479,0.245c0.382,0.377,0.39,0.997,0.018,1.383l-1.374,1.414l-0.19-0.185l1.38-1.41
		c0.275-0.286,0.268-0.739-0.015-1.02c-0.09-0.083-0.193-0.142-0.303-0.172c-0.124-0.033-0.245-0.035-0.365-0.01
		c-0.133,0.036-0.252,0.102-0.347,0.202c-0.816,0.837-1.636,1.675-2.452,2.513c-0.205,0.21-0.58,0.691-0.566,1.169
		c0.009,0.45-0.007,0.913,0.002,1.367c-0.107-0.085-0.237-0.149-0.384-0.177c-0.422-0.069-0.801,0.184-0.947,0.558h-0.213
		c0-0.103,0-0.207,0.002-0.309c0.01-0.472-0.009-0.962,0.004-1.437c0.01-0.48-0.364-0.961-0.569-1.171
		c-0.816-0.839-1.632-1.676-2.452-2.515c-0.094-0.1-0.211-0.167-0.346-0.201c-0.12-0.024-0.243-0.022-0.363,0.01
		c-0.111,0.033-0.217,0.091-0.306,0.175c-0.279,0.278-0.286,0.731-0.013,1.02l1.382,1.406l-0.188,0.185l-1.373-1.414
		c-0.377-0.387-0.366-1.005,0.017-1.381c0.138-0.13,0.305-0.206,0.479-0.246v-2.956c0-0.4-0.326-0.727-0.725-0.727
		c-0.401,0-0.726,0.327-0.726,0.727v5.119c0,0.167,0.067,0.321,0.167,0.445l2.473,3.266h-0.22c-0.479,0-0.875,0.391-0.875,0.875
		c0,0.321,0.182,0.589,0.438,0.74c-0.258,0.152-0.438,0.422-0.438,0.74c0,0.484,0.392,0.877,0.875,0.877h0.266v0.486h2.429
		c0.128,0.126,0.273,0.218,0.454,0.249c0.051,0.008,0.097,0.011,0.145,0.011c0.427,0,0.79-0.303,0.86-0.726l0.004-0.021h0.155
		c0.002,0.16,0,0.319,0.018,0.486h2.472v-0.485h0.267c0.48,0,0.876-0.391,0.876-0.877c0-0.317-0.183-0.587-0.439-0.74
		c0.259-0.151,0.439-0.42,0.439-0.742c0-0.483-0.392-0.874-0.876-0.874h-0.219l2.473-3.268c0.102-0.124,0.168-0.278,0.168-0.445
		v-5.117C30.869-1.894,30.544-2.22,30.143-2.22z M20.943,8.211c0-0.241,0.197-0.436,0.436-0.436h2.866l-0.15,0.874h-2.715
		C21.14,8.648,20.943,8.455,20.943,8.211z M20.943,9.695c0-0.239,0.197-0.438,0.436-0.438h2.608l-0.15,0.876h-2.457
		C21.14,10.131,20.943,9.939,20.943,9.695z M25.101,10.518c-0.037,0.241-0.287,0.396-0.505,0.359
		c-0.114-0.02-0.214-0.083-0.282-0.177c-0.068-0.097-0.093-0.212-0.073-0.326l0.481-2.8c0.037-0.212,0.223-0.364,0.438-0.364
		c0.021,0,0.046,0,0.07,0.005c0.234,0.042,0.394,0.267,0.353,0.504L25.101,10.518z M28.884,9.695c0,0.242-0.196,0.438-0.436,0.438
		h-2.836l0.15-0.876h2.684C28.688,9.259,28.884,9.456,28.884,9.695z M28.884,8.211c0,0.242-0.196,0.436-0.436,0.436h-2.58
		l0.148-0.856c0.002-0.006,0-0.012,0-0.018h2.43C28.688,7.776,28.884,7.974,28.884,8.211z"/>
	<path id="eruption" display="none" fill="#FFFFFF" d="M26.075,2.04c0.874,0.297,2.03,0.65,2.276-0.758
		c0.196-1.095,1.657-0.689,2.278-0.758c1.131-0.13,0.274-2.249-1.139-2.279c-1.433-0.033-2.086,0.597-2.655,1.898
		c-0.274,0.626-0.506,1.097-1.519,0.76c-1.013-0.339-1.755,0.494-1.141,1.519c0.546,0.907-0.008,1.897-0.008,1.897h1.529
		c0,0-0.013-0.563-0.381-1.139C24.888,2.508,25.182,1.732,26.075,2.04z M17.985,11.483c3.929-2.861,4.91-6.82,4.91-6.82h4.035
		c0,0,0.981,3.957,4.909,6.82H17.985z"/>
	<path id="returned" display="none" fill="#FFFFFF" d="M24.505-0.505c0.1,0.618-0.32,1.203-0.935,1.305
		c-0.62,0.103-1.202-0.318-1.305-0.936c-0.102-0.62,0.314-1.203,0.937-1.305C23.817-1.542,24.406-1.124,24.505-0.505z M24.152,3.995
		l1.005,1.606c0.14,0.224,0.438,0.297,0.669,0.162c0.227-0.136,0.308-0.43,0.181-0.664L25.75,4.64
		c-0.222-0.394-0.435-0.792-0.657-1.187L24.646,2.64c-0.053-0.092-0.103-0.199-0.155-0.309c-0.275-0.58-0.709-1.474-1.65-1.391
		c-0.808,0.068-1.626,0.453-2.433,1.138c-0.953,0.752-1.622,1.848-1.65,1.894c-0.03,0.048-0.059,0.097-0.086,0.145
		c-0.002,0.001-0.004,0.001-0.004,0.003l0,0c-0.089,0.169-0.132,0.323-0.02,0.52c0.087,0.155,0.25,0.25,0.43,0.25
		c0.216,0,0.324-0.101,0.43-0.254l0,0c0.002-0.002,0.002-0.002,0.002-0.002c0.03-0.047,0.061-0.095,0.093-0.147
		c0.006-0.007,0.566-0.906,1.433-1.646c0.267-0.208,0.52-0.354,0.76-0.433l-0.192,2.337c-0.021,0.233-0.093,0.631-0.158,0.855
		l-0.431,1.522c-0.06,0.192-0.223,0.511-0.348,0.667L19.49,9.244c-0.148,0.186-0.315,0.394-0.178,0.684
		c0.082,0.169,0.255,0.28,0.444,0.28c0.225,0,0.347-0.131,0.505-0.297l1.188-1.281c0.214-0.229,0.488-0.626,0.624-0.908l0.59-1.198
		l2.182,3.663c0.107,0.182,0.245,0.405,0.541,0.405l0,0c0.168,0,0.322-0.085,0.416-0.23c0.155-0.241,0.053-0.458-0.038-0.657
		L24,5.872c-0.069-0.148-0.106-0.455-0.08-0.62L24.152,3.995z M31.493,4.812c0-1.601-1.301-2.899-2.897-2.899h-1.232v1.463h1.23
		c0.79,0,1.433,0.642,1.433,1.436c0,0.792-0.643,1.435-1.433,1.435h-0.255V5.461l-2.63,1.516l2.63,1.517V7.708h0.286V7.706
		C30.208,7.692,31.493,6.402,31.493,4.812z"/>
	<path id="Attack" display="none" fill="#FFFFFF" d="M28.291,5.856l4.314-2.762l-4.168-0.443l1.133-4.843l-2.957,3.055L25.788-2.59
		l-1.239,3.224l-3.377-4.353l1.06,5.453l-3.001-0.667c0,0,0.912,1.747,1.421,2.799l-4.818-0.337l4.36,2.549l-1.251,1.29l2.027-0.37
		l-1.438,5.08l4.271-3.57l1.107,2.759l1.138-2.207l3.683,3.802L27.89,7.771l4.035,0.409L28.291,5.856z"/>
	<g id="affected" display="none">
		<path display="inline" fill="#FFFFFF" d="M21.472-0.875c0,0.625-0.511,1.131-1.132,1.131c-0.625,0-1.134-0.508-1.134-1.131
			c0-0.625,0.509-1.13,1.134-1.13C20.966-2.005,21.472-1.502,21.472-0.875z M20.457,6.876l0.247,4.177
			c0,0.146,0.119,0.265,0.264,0.265c0.146,0,0.268-0.121,0.268-0.265l0.226-4.175h0.738l-0.763-4.687l1.535,3.062
			c0.059,0.135,0.214,0.198,0.348,0.144c0.136-0.058,0.201-0.212,0.144-0.349c0,0-1.126-3.047-1.409-3.614
			c-0.277-0.569-0.552-0.915-1.609-0.915h-0.213c-1.056,0-1.333,0.345-1.611,0.915c-0.278,0.569-1.405,3.614-1.405,3.614
			c-0.059,0.138,0.007,0.292,0.141,0.351c0.138,0.057,0.291-0.008,0.35-0.144l1.537-3.062L18.48,6.876h0.738l0.229,4.175
			c0,0.146,0.119,0.265,0.265,0.265c0.147,0,0.267-0.121,0.267-0.265l0.229-4.175H20.457L20.457,6.876z M29.488-2.011
			c-0.629,0-1.136,0.507-1.136,1.132s0.505,1.133,1.136,1.133c0.621,0,1.129-0.508,1.129-1.133
			C30.618-1.505,30.109-2.011,29.488-2.011z M30.657,4.651l0.074-2.461l1.387,3.063c0.054,0.135,0.213,0.198,0.348,0.141
			c0.141-0.058,0.203-0.212,0.146-0.348c0,0-0.977-3.048-1.253-3.614c-0.275-0.567-0.708-0.913-1.765-0.913h-0.217
			c-1.057,0-1.487,0.345-1.764,0.913c-0.274,0.567-1.252,3.612-1.252,3.612c-0.06,0.139,0.004,0.292,0.14,0.352
			c0.135,0.059,0.296-0.006,0.348-0.141l1.388-3.063l0.071,2.461l-0.22,6.19c-0.013,0.246,0.172,0.457,0.416,0.474
			c0.011,0.002,0.023,0.002,0.032,0.002c0.229,0,0.43-0.179,0.445-0.412l0.503-5.097l0.504,5.097
			c0.016,0.235,0.211,0.412,0.441,0.412c0.012,0,0.022,0,0.031-0.002c0.246-0.018,0.43-0.229,0.415-0.474L30.657,4.651L30.657,4.651
			z M24.913,4.873c-0.387,0-0.698,0.309-0.698,0.693c0,0.384,0.309,0.692,0.698,0.692c0.38,0,0.69-0.309,0.69-0.692
			C25.604,5.183,25.293,4.873,24.913,4.873z M24.913,8.961c0,0,0.311,2.17,0.311,2.172c0.041,0.109,0.142,0.184,0.266,0.184
			c0.123,0,0.228-0.083,0.267-0.195c0-0.009,0.008-0.134,0-0.157l-0.131-2.668l0.044-0.917c0.035-0.312,0.039-0.218,0.396-0.431
			c0.362-0.217,0.977-1.171,1.005-1.218c0.032-0.047,0.09-0.131,0.102-0.186c0.017-0.095-0.048-0.185-0.143-0.205
			c-0.072-0.012-0.134,0.026-0.182,0.076c-0.048,0.054-0.757,0.998-1.286,1.087c-0.121-0.019-0.247-0.08-0.592-0.08h-0.127
			c-0.338,0-0.465,0.063-0.587,0.08c-0.531-0.089-1.241-1.033-1.29-1.087c-0.044-0.048-0.102-0.088-0.177-0.076
			c-0.094,0.021-0.159,0.11-0.14,0.205c0.01,0.053,0.063,0.136,0.096,0.186c0.032,0.047,0.646,1.001,1.006,1.218
			c0.354,0.212,0.365,0.119,0.397,0.431l0.04,0.917l-0.127,2.67c-0.006,0.022,0,0.15,0.005,0.157
			c0.036,0.111,0.142,0.194,0.267,0.194c0.122,0,0.224-0.075,0.262-0.183C24.599,11.132,24.913,8.961,24.913,8.961"/>
	</g>
	<g id="foodsec">
		<path fill="#FFFFFF" d="M27.366,14.437L27.366,14.437c-0.051,1.435-0.539,2.992-1.295,4.429c0,0-1.789,3.628-7.418,3.628
			c-5.636,0-7.458-3.598-7.458-3.598c-0.757-1.444-1.208-2.994-1.268-4.463H9.93c0-0.038-0.002-0.074-0.002-0.113
			c0-0.69,0.43-1.337,1.163-1.893l0.785,0.501c-0.488,0.325-0.768,0.689-0.768,1.076c0,1.362,3.376,2.466,7.546,2.466
			c4.158,0,7.533-1.104,7.533-2.466c0-0.939-1.615-1.759-3.994-2.173l0.012-0.989c3.039,0.597,5.166,1.928,5.166,3.48
			C27.372,14.36,27.37,14.398,27.366,14.437z M12.826,8.579c-0.03,0.229-0.068,0.599,0.218,1.104
			c0.353,0.606,0.803,0.821,0.949,0.924c-0.026-0.158,0.017-0.627-0.314-1.198c-0.282-0.51-0.595-0.738-0.781-0.916
			c-0.517-0.75-1.108-1.353-1.557-1.827l-1.067-1.109c0,0,0.387,0.443,1.025,1.146C11.738,7.195,12.316,7.817,12.826,8.579z
			 M15.498,14.444c0.228,0.214,0.517,0.563,1.156,0.921c0.718,0.401,1.324,0.401,1.527,0.448c-0.113-0.187-0.344-0.781-1.138-1.22
			c-0.653-0.359-1.137-0.29-1.437-0.239c-0.982-0.571-1.826-1.158-2.506-1.577c-0.971-0.597-1.599-0.904-1.596-0.904
			c-0.003,0,0.606,0.337,1.559,0.965C13.72,13.275,14.527,13.866,15.498,14.444z M16.076,11.317
			c-0.083,0.264-0.193,0.695,0.062,1.322c0.296,0.771,0.797,1.092,0.949,1.235c0.006-0.188,0.138-0.721-0.145-1.444
			c-0.251-0.644-0.578-0.963-0.761-1.201c-0.489-0.962-1.085-1.762-1.538-2.386l-1.091-1.47l1.032,1.5
			C15.023,9.52,15.602,10.343,16.076,11.317z M14.244,12.88c0.216,0.197,0.496,0.521,1.101,0.839
			c0.681,0.355,1.246,0.341,1.43,0.379c-0.112-0.168-0.344-0.714-1.089-1.106c-0.612-0.322-1.063-0.25-1.342-0.201
			c-0.925-0.515-1.717-1.045-2.355-1.427c-0.916-0.545-1.508-0.819-1.503-0.822c-0.005,0.005,0.574,0.309,1.466,0.883
			C12.567,11.816,13.335,12.36,14.244,12.88z M12.941,11.342c0.2,0.177,0.463,0.473,1.029,0.756c0.637,0.32,1.159,0.297,1.335,0.328
			c-0.11-0.156-0.335-0.649-1.029-0.999c-0.57-0.289-0.986-0.214-1.244-0.165c-0.863-0.465-1.607-0.944-2.203-1.293
			c-0.853-0.497-1.405-0.748-1.403-0.75c-0.001,0.002,0.536,0.28,1.373,0.799C11.372,10.38,12.09,10.872,12.941,11.342z
			 M11.612,9.099c0.379,0.34,0.74,0.36,0.947,0.426c-0.044-0.167-0.008-0.579-0.443-0.963c-0.368-0.319-0.744-0.346-0.937-0.361
			c-1.53-1.312-2.891-2.154-3.204-2.355L7.908,5.799c-0.012,0.01,1.484,0.995,3.236,2.534C11.202,8.522,11.302,8.835,11.612,9.099z
			 M11.582,9.824c0.19,0.159,0.432,0.426,0.96,0.681c0.583,0.289,1.068,0.261,1.231,0.286c-0.103-0.139-0.316-0.585-0.959-0.901
			c-0.532-0.252-0.915-0.191-1.149-0.142c-0.799-0.415-1.485-0.857-2.041-1.171c-0.79-0.45-1.3-0.674-1.3-0.674
			S8.823,8.15,9.592,8.628C10.129,8.945,10.794,9.395,11.582,9.824z M14.494,9.903c-0.056,0.246-0.127,0.651,0.142,1.215
			c0.33,0.691,0.81,0.954,0.961,1.08c-0.009-0.17,0.067-0.672-0.237-1.325c-0.276-0.577-0.597-0.854-0.777-1.056
			c-0.51-0.857-1.101-1.56-1.559-2.109L11.942,6.42l1.031,1.322C13.419,8.312,13.997,9.037,14.494,9.903z M20.513,11.378
			c-0.17,0.169-0.443,0.451-0.525,1.035c-0.104,0.709,0.127,1.159,0.18,1.332c0.084-0.141,0.418-0.496,0.516-1.163
			c0.09-0.598-0.012-0.976-0.053-1.231c0.053-0.933-0.057-1.793-0.137-2.456c-0.115-0.967-0.201-1.568-0.201-1.568l0.145,1.569
			C20.493,9.572,20.577,10.442,20.513,11.378z M19.962,9.785c-0.15,0.169-0.381,0.447-0.422,0.99
			c-0.055,0.665,0.191,1.067,0.252,1.224c0.063-0.137,0.354-0.487,0.406-1.11c0.041-0.557-0.082-0.901-0.135-1.137
			c-0.004-0.862-0.152-1.65-0.264-2.258l-0.268-1.437l0.217,1.439C19.839,8.123,19.964,8.913,19.962,9.785z M19.32,8.227
			c-0.127,0.164-0.318,0.437-0.322,0.939c-0.014,0.615,0.242,0.969,0.307,1.108c0.051-0.132,0.291-0.474,0.305-1.047
			c0.004-0.519-0.129-0.821-0.191-1.036c-0.066-0.796-0.242-1.506-0.377-2.058l-0.328-1.306l0.275,1.311
			C19.103,6.702,19.269,7.427,19.32,8.227z M20.448,15.511c0.1-0.144,0.482-0.499,0.643-1.208c0.141-0.63,0.051-1.045,0.029-1.325
			c0.113-1.003,0.055-1.933,0.012-2.647c-0.07-1.044-0.125-1.697-0.125-1.697l0.053,1.695c0.027,0.728,0.066,1.665-0.068,2.667
			c-0.197,0.173-0.498,0.455-0.635,1.075C20.191,14.823,20.407,15.319,20.448,15.511z M17.251,7.202
			c0.08,0.176,0.156,0.459,0.449,0.818c0.32,0.41,0.676,0.543,0.787,0.617c-0.029-0.137-0.023-0.532-0.373-0.98
			c-0.295-0.363-0.592-0.444-0.778-0.484c-0.427-0.572-0.768-1.118-1.061-1.53c-0.405-0.596-0.7-0.925-0.697-0.929
			c-0.002,0.004,0.273,0.349,0.66,0.949C16.507,6.079,16.828,6.631,17.251,7.202z M17.524,6.68c0.157,0.375,0.409,0.512,0.534,0.626
			c0.025-0.136,0.197-0.425,0.021-0.852c-0.152-0.356-0.42-0.501-0.552-0.573c-0.64-1.475-1.319-2.54-1.479-2.792l-0.031-0.055
			c-0.013,0.005,0.716,1.223,1.436,2.932C17.433,6.122,17.396,6.386,17.524,6.68z M18.165,9.663
			c0.342,0.444,0.732,0.603,0.848,0.683c-0.016-0.151-0.008-0.587-0.385-1.076c-0.311-0.398-0.637-0.485-0.842-0.532
			c-0.463-0.626-0.826-1.226-1.134-1.678c-0.441-0.646-0.745-1.01-0.745-1.013c0,0,0.288,0.383,0.702,1.04
			c0.288,0.454,0.632,1.051,1.079,1.682C17.777,8.963,17.861,9.265,18.165,9.663z M18.585,6.702
			c-0.104,0.161-0.258,0.418-0.234,0.88c0.039,0.564,0.291,0.868,0.361,0.991c0.031-0.121,0.234-0.45,0.197-0.981
			c-0.027-0.47-0.172-0.738-0.242-0.932c-0.107-0.719-0.32-1.36-0.475-1.852l-0.377-1.17c0,0,0.115,0.451,0.332,1.182
			C18.288,5.325,18.488,5.975,18.585,6.702z M18.089,10.329c0.088,0.215,0.174,0.543,0.496,0.976
			c0.365,0.485,0.773,0.664,0.904,0.757c-0.025-0.167,0-0.64-0.398-1.177c-0.328-0.437-0.676-0.533-0.896-0.588
			c-0.484-0.685-0.871-1.334-1.195-1.829c-0.468-0.702-0.799-1.1-0.799-1.102c0,0.002,0.306,0.418,0.75,1.132
			C17.255,8.993,17.616,9.643,18.089,10.329z M13.366,14.617c0,0.003,0.539,0.307,1.381,0.903c0.059,0.009,0.116,0.024,0.181,0.036
			C13.982,14.929,13.366,14.617,13.366,14.617z M20.085,15.795c-0.123-0.19-0.254-0.34-0.387-0.45
			c-0.043-0.121-0.088-0.234-0.139-0.336c0.283,0.293,0.551,0.436,0.65,0.519c0-0.011,0-0.029,0-0.048
			c0.031,0.111,0.063,0.229,0.1,0.347c0.055-0.002,0.111-0.006,0.162-0.009c-0.094-0.336-0.207-0.663-0.326-0.973
			c-0.041-0.168-0.111-0.348-0.219-0.547c-0.107-0.243-0.211-0.476-0.314-0.7c0.129,0.087,0.23,0.146,0.283,0.186
			c-0.012-0.176,0.027-0.689-0.389-1.275c-0.25-0.343-0.51-0.495-0.727-0.578l-0.658-1.288c0,0,0.217,0.469,0.59,1.263
			c-0.061-0.017-0.113-0.035-0.156-0.045c-0.51-0.749-0.914-1.453-1.258-1.983c-0.485-0.763-0.833-1.196-0.83-1.196
			c0,0.003,0.324,0.448,0.785,1.225c0.316,0.534,0.695,1.239,1.188,1.985c0.086,0.229,0.172,0.585,0.51,1.059
			c0.158,0.222,0.322,0.383,0.479,0.507c0.055,0.129,0.115,0.264,0.176,0.407c-0.283-0.289-0.574-0.378-0.768-0.438
			c-0.057-0.086-0.109-0.172-0.16-0.257c-0.33-0.705-0.68-1.325-0.975-1.844c-0.652-1.133-1.077-1.829-1.074-1.829l0.992,1.861
			c0.082,0.139,0.156,0.294,0.238,0.445c-0.105-0.186-0.209-0.362-0.307-0.523c-0.507-0.821-0.872-1.282-0.872-1.284
			c0,0.002,0.336,0.483,0.815,1.32c0.281,0.493,0.607,1.121,1.01,1.799c0.18,0.397,0.348,0.817,0.498,1.26
			c-0.039,0.089-0.092,0.202-0.127,0.335c-0.447-0.766-0.813-1.476-1.141-2.021c-0.102-0.184-0.201-0.341-0.291-0.489
			c-0.409-0.842-0.877-1.565-1.258-2.146c-0.657-1.02-1.085-1.647-1.085-1.647l1.02,1.68c0.435,0.719,1.006,1.648,1.444,2.723
			c-0.096,0.278-0.252,0.732-0.027,1.427c0.268,0.846,0.779,1.229,0.934,1.397c0.016-0.188,0.172-0.701-0.016-1.428
			c0.115,0.219,0.24,0.443,0.371,0.676c-0.051,0.261-0.066,0.591,0.039,1.008c0.416-0.003,0.828-0.017,1.236-0.043
			C20.101,15.828,20.097,15.814,20.085,15.795z M14.153,14.224c-1.023-0.658-1.692-0.987-1.689-0.99
			c-0.001,0,0.647,0.363,1.648,1.051c0.582,0.401,1.289,0.928,2.101,1.47c0.104,0.014,0.204,0.021,0.305,0.031
			C15.602,15.211,14.806,14.64,14.153,14.224z M21.532,14.629c0.195-1.063,0.174-2.066,0.174-2.836l-0.029-1.826
			c0,0-0.02,0.697-0.031,1.822c-0.021,0.784-0.037,1.79-0.244,2.853c-0.227,0.169-0.564,0.456-0.76,1.104
			c-0.006,0.023-0.01,0.041-0.018,0.062c0.295-0.029,0.582-0.062,0.863-0.101C21.579,15.225,21.536,14.876,21.532,14.629z"/>
	</g>
</g>
</svg>
