<?xml version="1.0" encoding="utf-8"?>
<!-- Generator: Adobe Illustrator 16.0.0, SVG Export Plug-In . SVG Version: 6.00 Build 0)  -->
<!DOCTYPE svg PUBLIC "-//W3C//DTD SVG 1.1//EN" "http://www.w3.org/Graphics/SVG/1.1/DTD/svg11.dtd">
<svg version="1.1" id="Layer_1" xmlns="http://www.w3.org/2000/svg" xmlns:xlink="http://www.w3.org/1999/xlink" x="0px" y="0px"
	 width="33.35px" height="40px" viewBox="0 0 33.35 40" enable-background="new 0 0 33.35 40" xml:space="preserve">
<g id="PinColor">
	<path id="PinOmbre" opacity="0.3" enable-background="new    " d="M28.527,30.59c0,1.76-3.863,3.238-9.064,3.627
		c-0.879,0.066-2.733,4.195-2.733,4.195s-1.92-4.131-2.827-4.201c-5.149-0.4-8.973-1.871-8.973-3.621
		c0-2.061,5.283-3.731,11.8-3.731C23.245,26.858,28.527,28.528,28.527,30.59z"/>
	<path id="vert" display="none" fill="#2ABF00" stroke="#1D7500" stroke-width="0.2" stroke-miterlimit="10" d="M28.527,13.273
		c0,5.391-3.863,9.91-9.064,11.105c-0.879,0.197-2.733,12.838-2.733,12.838s-1.92-12.641-2.827-12.863
		c-5.149-1.223-8.973-5.722-8.973-11.083c0-6.303,5.283-11.412,11.8-11.412C23.245,1.858,28.527,6.97,28.527,13.273z"/>
	<path id="orange" display="none" fill="#FF8500" stroke="#7F4500" stroke-width="0.2" stroke-miterlimit="10" d="M28.527,13.273
		c0,5.391-3.863,9.91-9.064,11.105c-0.879,0.197-2.733,12.838-2.733,12.838s-1.92-12.641-2.827-12.863
		c-5.149-1.223-8.973-5.722-8.973-11.083c0-6.303,5.283-11.412,11.8-11.412C23.245,1.858,28.527,6.97,28.527,13.273z"/>
	<path id="gris" fill="#A5A5A5" stroke="#595959" stroke-width="0.2" stroke-miterlimit="10" d="M28.527,13.273
		c0,5.391-3.863,9.91-9.064,11.105c-0.879,0.197-2.733,12.838-2.733,12.838s-1.92-12.641-2.827-12.863
		c-5.149-1.223-8.973-5.722-8.973-11.083c0-6.303,5.283-11.412,11.8-11.412C23.245,1.858,28.527,6.97,28.527,13.273z"/>
	<path id="bleu" display="none" fill="#0092FF" stroke="#00477C" stroke-width="0.2" stroke-miterlimit="10" d="M28.527,13.273
		c0,5.391-3.863,9.91-9.064,11.105c-0.879,0.197-2.733,12.838-2.733,12.838s-1.92-12.641-2.827-12.863
		c-5.149-1.223-8.973-5.722-8.973-11.083c0-6.303,5.283-11.412,11.8-11.412C23.245,1.858,28.527,6.97,28.527,13.273z"/>
</g>
<g id="Icons">
	<g id="Minimal">
		<path id="Election" display="none" fill="#565656" d="M28.171-0.142l-3.975-1.704c-0.117-0.05-0.254-0.016-0.332,0.085
			l-1.139,1.42c-0.051,0.064-0.07,0.154-0.055,0.237c0.02,0.08,0.07,0.146,0.141,0.183l-3.563,1.336
			c-0.301,0.112-0.555,0.324-0.721,0.599L17.351,3.98c-0.25,0.417-0.272,0.927-0.053,1.363l0.084,0.167h-1.243
			c-0.156,0-0.284,0.127-0.284,0.284v5.393h-0.853c-0.157,0-0.281,0.127-0.281,0.283c0,0.157,0.124,0.284,0.281,0.284h9.653
			c0.156,0,0.279-0.127,0.279-0.284c0-0.156-0.123-0.283-0.279-0.283h-0.854v-2.9c0-0.096-0.051-0.19-0.131-0.239
			c-0.082-0.053-0.186-0.06-0.273-0.019c-0.313,0.147-0.541,0.221-0.65,0.253c-0.025,0.006-0.047,0.015-0.066,0.031l-1.85,1.107
			c-0.295,0.178-0.629,0.271-0.971,0.271c-0.629,0-1.215-0.313-1.574-0.844c-0.285-0.426-0.383-0.94-0.277-1.44
			c0.107-0.5,0.404-0.929,0.832-1.204l0.27-0.17c0.197-0.119,0.371-0.229,0.529-0.326c0.107-0.068,0.158-0.201,0.121-0.324
			c-0.068-0.228-0.188-0.431-0.299-0.586c0.436-0.19,1.021-0.528,1.314-0.87c0,0,0.004,0.002,0.006,0.002
			c0.063,0.038,0.133,0.078,0.217,0.118c0.006,0.001,0.008,0.003,0.016,0.005l0,0c0.211,0.103,0.479,0.205,0.785,0.266
			c-0.328,0.409-0.666,0.919-0.787,1.259c-0.234,0.104-0.725,0.38-1.863,1.107c-0.305,0.192-0.512,0.49-0.582,0.841
			c-0.076,0.35-0.01,0.709,0.193,1.007c0.254,0.381,0.67,0.591,1.102,0.591c0.23,0,0.467-0.062,0.678-0.188l1.951-1.172
			c0.303-0.074,1.822-0.528,2.971-2.387c0.902-1.457,1.406-2.63,1.617-3.162l0.035,0.018c0.117,0.059,0.248,0.089,0.379,0.089
			c0.217,0,0.434-0.087,0.592-0.239c0.168-0.159,0.26-0.378,0.26-0.612V0.118C28.339,0.005,28.275-0.099,28.171-0.142z"/>
	</g>
	<g id="Faible">
		<path id="Famine" display="none" fill="#F9F9F9" d="M25.615,10.309l-2.256,0.427l-3.686-2.003l1.34-1.671l3.014,1L25.615,10.309z
			 M29.081,6.393v0.25l-2.373,0.753l-2.346,0.333l-3.016-1.002l-0.709-0.334h0.406c-0.096-0.896-0.227-1.575-0.289-2.464h-0.002
			c-0.002-0.027-0.033-0.622-0.041-0.875c-0.047-0.268-0.174-0.374-0.594-0.662c-0.229-0.148-0.398-0.201-0.496-0.199
			c-0.152,0-0.289,0.167-0.32,0.667c0.67,0.114,0.717,0.856,0.717,0.856c0.059,0.527-0.201,1.298-0.797,1.498
			c-1.104,0.368-0.99-1.757-0.369-2.267c0.018-0.612,0.189-1.174,0.77-1.196c0.232,0.002,0.467,0.096,0.74,0.269
			c0.129,0.078,0.232,0.158,0.326,0.239c-0.012-0.202-0.023-0.408-0.023-0.62c-0.002-0.446,0.068-0.933,0.465-1.277
			c0.203-0.186,0.434-0.282,0.658-0.28c0.592,0.029,0.955,0.537,1.168,1.056C23.204,1.03,23.515,0.977,23.87,1.1
			c0.906,0.315,1.396,1.896,1.016,2.447c-0.895,1.284-3.145-1.107-2.549-1.941c0,0,0.086-0.114,0.24-0.239
			c-0.174-0.461-0.525-0.872-0.789-0.843c-0.1,0.002-0.217,0.037-0.363,0.168c-0.25,0.22-0.316,0.534-0.316,0.946
			c0,0.29,0.035,0.612,0.035,0.935c0,0.168,0.012,0.316,0.018,0.479C21.2,3.34,21.202,3.561,21.2,3.865
			c0.063,0.886,0.422,1.613,0.516,2.527L29.081,6.393L29.081,6.393z M22.741,1.544l1.705,1.857
			c-0.303-1.317-1.385-2.051-1.385-2.051L22.741,1.544z M19.208,3.138l-0.305,0.125c0,0-0.152,1.039,0,1.581L19.208,3.138z
			 M17.681,9.403l1.355-0.814l1.412-1.748l-0.439-0.448h-3.122l-0.619,1.236L17.681,9.403z M19.263,9.122l-2.402,1.635l0.32,0.396
			h5.525l-0.02-0.081L19.263,9.122z M14.322,6.393v1.884l1.539-0.825l0.466-1.06L14.322,6.393L14.322,6.393z M24.808,8.133
			l1.488,2.16l2.785,0.654V8.476L27.077,7.83L24.808,8.133z M29.081,7.936V7.064l-1.561,0.423L29.081,7.936z M15.899,8.057
			l-1.577,0.75v2.345h1.153l1.717-1.406L15.899,8.057z M24.157,11.153h3.604l-1.725-0.417L24.157,11.153z"/>
		<path id="Cyclone" display="none" fill="#FFFFFF" d="M21.759,1.322c-0.074-0.004-0.15-0.013-0.227-0.013
			c-0.678,0-1.314,0.176-1.867,0.481c0.988-3.367,3.455-3.661,3.455-3.661s-5.447,0.456-5.447,6.813c0.002,0,0.006,0,0.012,0
			c-0.006,0.076-0.012,0.15-0.012,0.228c0,0.673,0.176,1.31,0.48,1.865c-3.367-0.989-3.662-3.453-3.662-3.453s0.454,5.45,6.812,5.45
			c0-0.006,0-0.007,0-0.013c0.074,0.004,0.15,0.013,0.229,0.013c0.676,0,1.313-0.177,1.865-0.483
			c-0.988,3.368-3.457,3.663-3.457,3.663s5.451-0.456,5.451-6.813c-0.006,0-0.01,0-0.014,0c0.004-0.076,0.014-0.15,0.014-0.226
			c0-0.677-0.178-1.313-0.484-1.865c3.367,0.988,3.662,3.454,3.662,3.454s-0.451-5.45-6.811-5.45
			C21.759,1.315,21.759,1.319,21.759,1.322z"/>
		<path id="tsunami" display="none" fill="#FFFFFF" d="M28.376,9.655c-11.213,0.635-8.08-7.942-5.172-7.202
			c-0.299,0.183-0.492,0.814-0.307,1.239c0.203,0.454,0.857,0.714,1.236,0.62c0.902-0.233,0.943-1.501,0.617-2.167
			c-0.336-0.692-1.229-1.546-2.783-1.546c-3.756,0-6.318,1.917-7.282,5.214v4.848h13.692V9.655H28.376z"/>
		<path id="earthquake" display="none" fill="#FFFFFF" d="M25.523,5.593c-0.193,0-0.369,0.106-0.459,0.277l-0.748,1.409l-0.922-2.7
			c-0.072-0.204-0.26-0.342-0.475-0.353c-0.223-0.005-0.414,0.12-0.5,0.318l-0.631,1.501l-0.996-5.978
			c-0.049-0.25-0.283-0.44-0.523-0.427c-0.256,0.005-0.469,0.175-0.502,0.429l-0.883,6.937l-0.715-3.723
			c-0.039-0.219-0.219-0.387-0.441-0.417c-0.221-0.031-0.441,0.088-0.537,0.289l-1.169,2.438h-1.816v1.039h2.144
			c0.2,0,0.385-0.116,0.472-0.293l0.626-1.31l1.016,5.28c0.047,0.245,0.26,0.423,0.51,0.423c0.006,0,0.012,0,0.014,0
			c0.254-0.007,0.467-0.199,0.502-0.451l0.869-6.817l0.725,4.487c0.043,0.227,0.227,0.398,0.455,0.424
			c0.232,0.021,0.449-0.104,0.539-0.316l0.779-1.853l0.867,2.543c0.066,0.197,0.242,0.335,0.449,0.353
			c0.207,0.011,0.404-0.092,0.502-0.275l1.164-2.195h2.23V5.593H25.523z"/>
	</g>
	<g id="Modéré">
	</g>
	<g id="Important">
	</g>
	<g id="Elevé">
	</g>
	<g id="Extreme" display="none">
		<path id="rebelion" display="inline" fill="#FFFFFF" d="M23.656,1.514c0,1.252-1.016,2.265-2.264,2.265
			c-1.256,0-2.27-1.015-2.27-2.265c0-1.253,1.014-2.266,2.27-2.266C22.642-0.752,23.656,0.261,23.656,1.514z M17.607,11.125h1.385
			h0.074l0.051-0.106l0.504-0.493l-0.465-0.099l-0.736-0.157L17.607,11.125z M27.087,1.934L26.601,2.42l0.033,0.033l-0.393,0.396
			c0.051,0.048,0.104,0.097,0.145,0.153l0.396-0.396l0.082,0.074l0.479-0.489L27.087,1.934z M23.958,4.448l-0.209,0.207l0.023,0.059
			l0.049,0.111l-3.305,3.313l0.355,0.076c0.324,0.068,0.607,0.264,0.789,0.546c0.025,0.04,0.031,0.089,0.053,0.132l0.01-0.012
			l0.244,0.161l0.086-0.019l0.965,0.699l0.646-0.887l-1.436-1.12l0.031-0.093h0.236l1.41-1.652l0.156-1.481L23.958,4.448z
			 M25.493,2.983c-0.428-0.047-0.844,0.273-0.895,0.716l-0.055,0.483l0,0l-0.033,0.349l-0.156,1.482l-0.016,0.138l-0.09,0.106
			l-1.26,1.478l0.949,0.745l0.342,0.268L24.083,9.02l0.049,0.1c0.131,0.284,0.42,0.461,0.732,0.461c0.043,0,0.088-0.002,0.135-0.011
			c0.355-0.061,0.629-0.351,0.668-0.709l0.539-4.984C26.257,3.43,25.935,3.029,25.493,2.983z M23.843,9.348L23.38,9.985
			l-0.264,0.364l-0.363-0.265l-0.797-0.577l-0.07,0.018l-0.029-0.02c0,0.069-0.002,0.134-0.018,0.203
			c-0.016,0.067-0.039,0.127-0.064,0.19c-0.049,0.118-0.115,0.219-0.191,0.314l0.055,0.127c0.057,0.127,0.135,0.292,0.227,0.436
			l0.223,0.347h1.703L23.843,9.348z M20.607,10.705c-0.02,0-0.039-0.005-0.059-0.007c-0.01,0.036-0.016,0.063-0.016,0.063
			l0.193,0.362h0.461l0.297-0.104c-0.102-0.158-0.184-0.328-0.258-0.498C21.038,10.628,20.833,10.705,20.607,10.705z M21.273,8.99
			c-0.033-0.051-0.084-0.091-0.129-0.132c-0.027-0.025-0.051-0.06-0.082-0.08c-0.084-0.059-0.184-0.103-0.285-0.127l-0.354-0.072
			l-0.805-0.173l0,0l-0.713-0.152l-0.277-0.058l-0.459-0.1l-0.027-0.005l0.07-0.074l0.311-0.306l0.33-0.333
			c0.025,0.228,0.041,0.408,0.041,0.412l0.105,0.021l1,0.213l0.203-0.205l3.092-3.104l-0.07-0.173l0.025-0.021
			c-0.447-0.135-0.975-0.212-1.641-0.212h-0.217c0,0-0.217,0-0.219,0c-0.467,0-0.938,0.031-1.398,0.134
			c-0.791,0.178-1.283,0.954-1.824,1.488c-0.561,0.55-1.103,1.123-1.647,1.687C16.184,7.746,16.064,7.875,15.94,8
			c-0.209,0.21-0.285,0.518-0.202,0.804c0.082,0.284,0.316,0.499,0.606,0.563l1.071,0.229l0.453,0.095l2.568,0.548
			c0.059,0.009,0.115,0.018,0.172,0.018c0.373,0,0.709-0.261,0.789-0.64c0.031-0.15,0.008-0.291-0.037-0.425l-0.049-0.103
			C21.296,9.06,21.286,9.028,21.273,8.99z M20.138,10.968l-0.076-0.146l0.039-0.163l0.006-0.031l-0.123-0.027l-0.453,0.521h0.688
			L20.138,10.968z"/>
	</g>
	<path id="displaced" display="none" fill="#FFFFFF" d="M22.31-0.443c0.109,0.7-0.359,1.356-1.055,1.469
		c-0.695,0.115-1.357-0.356-1.473-1.052c-0.113-0.698,0.355-1.357,1.057-1.472C21.534-1.61,22.193-1.137,22.31-0.443z M21.909,4.629
		l1.131,1.808c0.16,0.254,0.492,0.336,0.752,0.186c0.26-0.156,0.35-0.485,0.207-0.749l-0.289-0.52
		c-0.252-0.443-0.496-0.891-0.744-1.336l-0.502-0.914c-0.057-0.108-0.113-0.228-0.174-0.353c-0.309-0.652-0.793-1.659-1.857-1.568
		c-0.908,0.08-1.832,0.512-2.742,1.284c-1.076,0.848-1.827,2.081-1.855,2.134c-0.037,0.053-0.069,0.11-0.096,0.161
		c-0.004,0.002-0.004,0.003-0.006,0.005l0,0c-0.103,0.19-0.152,0.364-0.026,0.586c0.101,0.174,0.285,0.28,0.483,0.28
		c0.245,0,0.367-0.116,0.486-0.286l0,0c0.002,0,0.002-0.004,0.002-0.004c0.033-0.05,0.064-0.104,0.104-0.161
		c0.005-0.01,0.637-1.023,1.612-1.855c0.303-0.237,0.588-0.399,0.857-0.487l-0.219,2.631c-0.021,0.26-0.104,0.71-0.174,0.96
		l-0.49,1.716c-0.064,0.215-0.246,0.575-0.391,0.75l-1.324,1.64c-0.167,0.208-0.355,0.443-0.2,0.77
		c0.093,0.194,0.287,0.317,0.502,0.317c0.254,0,0.395-0.146,0.567-0.334l1.338-1.444c0.238-0.258,0.551-0.706,0.705-1.022
		l0.664-1.351l2.457,4.126c0.117,0.203,0.271,0.459,0.604,0.459l0,0c0.191,0,0.367-0.099,0.467-0.256
		c0.18-0.273,0.061-0.521-0.041-0.745l-1.986-4.314c-0.074-0.17-0.119-0.514-0.086-0.7L21.909,4.629z M23.99,9.118h2.977v0.884
		l2.957-1.707l-2.957-1.708v0.884H23.99V9.118z"/>
	<path id="epidemie" display="none" fill="#FFFFFF" d="M27.382,5.739c0-3.207-2.514-5.814-5.676-5.978
		c1.396,0.133,2.486,1.147,2.486,2.381c0,0.424-0.143,0.814-0.367,1.16c-0.625-0.621-1.482-1.004-2.432-1.004
		s-1.807,0.383-2.43,1.003c-0.223-0.345-0.363-0.735-0.363-1.16c0-1.232,1.088-2.248,2.482-2.381
		c-3.162,0.163-5.674,2.773-5.674,5.979c0,0.966,0.235,1.878,0.641,2.688c-0.555-1.266-0.218-2.689,0.838-3.299
		c0.368-0.212,0.78-0.288,1.188-0.265c-0.078,0.282-0.129,0.576-0.129,0.883c0,1.592,1.088,2.921,2.557,3.317
		c-0.021,0.034-0.045,0.067-0.064,0.1c0,0.003,0,0.003,0,0.008c-0.049,0.109-0.111,0.197-0.184,0.273
		c-0.158,0.207-0.342,0.39-0.574,0.525c-1.061,0.612-2.471,0.188-3.286-0.94c1.071,1.626,2.909,2.703,5,2.703
		c2.07,0,3.895-1.053,4.973-2.654c-0.82,1.092-2.205,1.494-3.25,0.895c-0.369-0.216-0.641-0.539-0.824-0.912
		c1.467-0.396,2.549-1.727,2.549-3.315c0-0.308-0.051-0.601-0.129-0.883c0.416-0.027,0.826,0.049,1.197,0.263
		c1.025,0.591,1.373,1.949,0.883,3.188C27.169,7.532,27.382,6.662,27.382,5.739z M22.031,8.044c-0.025-0.499,0.08-1.021,0.33-1.516
		l-0.4-0.229c-0.143,0.148-0.342,0.239-0.564,0.239c-0.221,0-0.424-0.09-0.566-0.239l-0.391,0.224
		c0.25,0.498,0.354,1.025,0.328,1.523c-1.014-0.277-1.766-1.2-1.766-2.299c0-0.211,0.033-0.409,0.086-0.603
		c0.441,0.223,0.844,0.572,1.15,1.033l0.398-0.233c-0.016-0.068-0.041-0.132-0.041-0.206c0-0.37,0.256-0.669,0.6-0.759V4.525
		c-0.557-0.036-1.061-0.208-1.479-0.481c0.436-0.427,1.023-0.688,1.678-0.688c0.652,0,1.244,0.264,1.678,0.69
		c-0.418,0.273-0.922,0.443-1.479,0.479v0.456c0.344,0.09,0.6,0.389,0.6,0.759c0,0.074-0.021,0.138-0.039,0.206l0.406,0.237
		c0.305-0.46,0.707-0.808,1.145-1.031c0.049,0.189,0.084,0.389,0.084,0.595C23.788,6.844,23.042,7.763,22.031,8.044z"/>
	<path id="enlevement" display="none" fill="#FFFFFF" d="M26.388-1.417c-0.371,0-0.674,0.304-0.674,0.676v2.75
		c0.162,0.036,0.318,0.104,0.443,0.228c0.354,0.351,0.365,0.926,0.018,1.286l-1.279,1.315l-0.178-0.171l1.283-1.313
		c0.258-0.266,0.25-0.688-0.012-0.948c-0.084-0.078-0.18-0.132-0.281-0.161c-0.115-0.031-0.229-0.032-0.34-0.009
		c-0.123,0.032-0.234,0.094-0.322,0.188c-0.758,0.778-1.52,1.558-2.279,2.337c-0.189,0.195-0.539,0.642-0.527,1.087
		c0.008,0.419-0.006,0.85,0.002,1.271c-0.1-0.08-0.221-0.139-0.355-0.164c-0.393-0.064-0.744,0.169-0.881,0.519h-0.197
		c0-0.096,0-0.192,0.002-0.287c0.01-0.438-0.008-0.896,0.004-1.336c0.01-0.447-0.34-0.894-0.529-1.089
		c-0.76-0.779-1.518-1.559-2.281-2.339c-0.088-0.094-0.197-0.157-0.324-0.188c-0.111-0.023-0.225-0.021-0.336,0.009
		c-0.104,0.03-0.201,0.085-0.283,0.163c-0.262,0.258-0.268,0.681-0.012,0.948l1.283,1.31l-0.178,0.171l-1.279-1.315
		c-0.35-0.359-0.341-0.935,0.018-1.284c0.124-0.122,0.28-0.192,0.443-0.228v-2.75c0-0.372-0.303-0.676-0.673-0.676
		c-0.375,0-0.676,0.304-0.676,0.676v4.761c0,0.156,0.063,0.298,0.156,0.414l2.298,3.037h-0.203c-0.447,0-0.814,0.364-0.814,0.814
		c0,0.298,0.168,0.548,0.408,0.688c-0.238,0.142-0.406,0.393-0.406,0.689c0,0.451,0.363,0.815,0.813,0.815h0.248v0.453h2.258
		c0.117,0.118,0.256,0.203,0.422,0.231c0.047,0.007,0.088,0.011,0.135,0.011c0.396,0,0.734-0.282,0.801-0.675l0.004-0.021h0.145
		c0.002,0.15,0,0.297,0.018,0.453h2.297v-0.452h0.25c0.445,0,0.813-0.362,0.813-0.815c0-0.295-0.17-0.546-0.41-0.688
		c0.24-0.141,0.41-0.391,0.41-0.69c0-0.449-0.365-0.813-0.813-0.813h-0.203l2.299-3.039c0.094-0.116,0.154-0.258,0.154-0.414V-0.74
		C27.062-1.114,26.761-1.417,26.388-1.417z M17.831,8.284c0-0.224,0.184-0.405,0.406-0.405h2.664l-0.141,0.813h-2.523
		C18.015,8.69,17.831,8.51,17.831,8.284z M17.831,9.663c0-0.222,0.184-0.407,0.406-0.407h2.426l-0.141,0.814h-2.285
		C18.015,10.07,17.831,9.89,17.831,9.663z M21.698,10.428c-0.035,0.224-0.268,0.369-0.469,0.334
		c-0.107-0.019-0.199-0.078-0.264-0.165c-0.064-0.09-0.088-0.197-0.068-0.304l0.447-2.604c0.035-0.197,0.205-0.337,0.408-0.337
		c0.021,0,0.043,0,0.064,0.004c0.221,0.038,0.369,0.248,0.33,0.469L21.698,10.428z M25.218,9.663c0,0.226-0.184,0.407-0.406,0.407
		h-2.639l0.143-0.814h2.496C25.034,9.257,25.218,9.441,25.218,9.663z M25.218,8.284c0,0.224-0.184,0.405-0.406,0.405h-2.398
		l0.137-0.796c0.002-0.005,0-0.011,0-0.017h2.262C25.034,7.879,25.218,8.062,25.218,8.284z"/>
	<path id="eruption" display="none" fill="#FFFFFF" d="M22.605,2.543c0.811,0.277,1.889,0.604,2.115-0.705
		c0.184-1.018,1.543-0.641,2.119-0.705c1.055-0.122,0.258-2.091-1.059-2.12c-1.332-0.03-1.939,0.555-2.469,1.765
		c-0.256,0.582-0.471,1.02-1.412,0.707c-0.943-0.315-1.633,0.459-1.063,1.412c0.508,0.843-0.008,1.764-0.008,1.764h1.422
		c0,0-0.01-0.523-0.354-1.059C21.499,2.979,21.775,2.258,22.605,2.543z M15.081,11.327c3.655-2.661,4.567-6.343,4.567-6.343h3.754
		c0,0,0.912,3.68,4.563,6.343H15.081z"/>
	<path id="returned" display="none" fill="#FFFFFF" d="M21.146,0.177c0.092,0.576-0.301,1.118-0.871,1.213
		c-0.576,0.095-1.117-0.296-1.213-0.87c-0.096-0.577,0.293-1.119,0.869-1.213C20.505-0.788,21.052-0.399,21.146,0.177z
		 M20.816,4.363l0.934,1.494c0.131,0.208,0.408,0.277,0.623,0.151c0.211-0.126,0.285-0.4,0.166-0.617l-0.236-0.429
		c-0.205-0.366-0.404-0.736-0.609-1.103l-0.418-0.756c-0.047-0.085-0.094-0.184-0.145-0.288c-0.258-0.539-0.658-1.371-1.535-1.293
		c-0.752,0.063-1.512,0.421-2.262,1.057c-0.886,0.701-1.508,1.719-1.537,1.76c-0.027,0.046-0.053,0.091-0.077,0.136
		c-0.002,0.002-0.004,0.002-0.004,0.004l0,0c-0.084,0.157-0.124,0.301-0.021,0.483c0.082,0.145,0.232,0.233,0.399,0.233
		c0.2,0,0.303-0.094,0.4-0.237l0,0c0.002-0.002,0.002-0.002,0.002-0.002c0.028-0.043,0.055-0.089,0.085-0.137
		c0.006-0.007,0.527-0.843,1.333-1.531c0.248-0.193,0.482-0.328,0.707-0.402l-0.18,2.174c-0.02,0.217-0.086,0.586-0.146,0.795
		L17.894,7.27c-0.055,0.178-0.205,0.476-0.324,0.62l-1.091,1.353C16.34,9.417,16.184,9.61,16.313,9.88
		c0.075,0.157,0.236,0.26,0.413,0.26c0.211,0,0.323-0.122,0.47-0.277L18.3,8.671c0.199-0.213,0.453-0.582,0.58-0.844l0.547-1.114
		l2.029,3.407c0.1,0.168,0.229,0.376,0.502,0.376l0,0c0.158,0,0.301-0.08,0.387-0.213c0.146-0.224,0.049-0.427-0.033-0.611
		l-1.643-3.563c-0.063-0.138-0.1-0.423-0.074-0.577L20.816,4.363z M27.644,5.123c0-1.488-1.211-2.695-2.695-2.695h-1.146v1.361
		h1.146c0.732,0,1.332,0.597,1.332,1.334c0,0.736-0.6,1.334-1.332,1.334H24.71v-0.73l-2.441,1.411l2.441,1.41V7.816h0.268V7.814
		C26.448,7.8,27.644,6.6,27.644,5.123z"/>
	<path id="Attack" display="none" fill="#FFFFFF" d="M24.665,6.093l4.012-2.568L24.8,3.113l1.055-4.504l-2.748,2.842L22.339-1.76
		l-1.152,2.997L18.044-2.81l0.986,5.071l-2.792-0.62c0,0,0.848,1.625,1.323,2.603l-4.483-0.315L17.135,6.3L15.97,7.498l1.886-0.344
		l-1.335,4.724l3.97-3.321l1.029,2.567l1.059-2.053l3.424,3.536l-1.711-4.733l3.754,0.38L24.665,6.093z"/>
	<g id="affected" display="none">
		<path display="inline" fill="#FFFFFF" d="M18.323-0.167c0,0.583-0.475,1.053-1.053,1.053c-0.582,0-1.056-0.472-1.056-1.053
			c0-0.58,0.473-1.051,1.056-1.051C17.851-1.219,18.323-0.75,18.323-0.167z M17.38,7.042l0.229,3.886
			c0,0.136,0.111,0.246,0.244,0.246c0.139,0,0.25-0.112,0.25-0.246l0.209-3.884h0.688L18.29,2.685l1.43,2.847
			c0.055,0.126,0.197,0.184,0.324,0.133c0.125-0.054,0.188-0.197,0.133-0.324c0,0-1.049-2.834-1.309-3.361
			c-0.26-0.529-0.514-0.851-1.498-0.851h-0.2c-0.982,0-1.24,0.32-1.498,0.851c-0.257,0.529-1.307,3.361-1.307,3.361
			c-0.054,0.129,0.006,0.271,0.131,0.326c0.126,0.053,0.271-0.008,0.325-0.133l1.429-2.847L15.54,7.042h0.688l0.214,3.884
			c0,0.136,0.11,0.246,0.244,0.246c0.139,0,0.25-0.112,0.25-0.246l0.213-3.884H17.38L17.38,7.042z M25.779-1.223
			c-0.584,0-1.059,0.472-1.059,1.052c0,0.582,0.471,1.054,1.059,1.054c0.576,0,1.051-0.472,1.051-1.054
			C26.829-0.752,26.355-1.223,25.779-1.223z M26.866,4.973l0.068-2.29l1.291,2.849c0.049,0.126,0.197,0.184,0.32,0.131
			c0.129-0.054,0.189-0.197,0.139-0.324c0,0-0.91-2.834-1.166-3.362c-0.26-0.526-0.658-0.849-1.643-0.849h-0.201
			c-0.982,0-1.383,0.32-1.641,0.849c-0.254,0.528-1.164,3.36-1.164,3.36c-0.055,0.128,0.004,0.27,0.131,0.326
			c0.123,0.055,0.273-0.005,0.322-0.131l1.291-2.849l0.066,2.29l-0.203,5.757c-0.012,0.229,0.158,0.425,0.385,0.441
			c0.012,0.002,0.023,0.002,0.031,0.002c0.213,0,0.398-0.167,0.414-0.384l0.467-4.74l0.469,4.74c0.016,0.22,0.197,0.384,0.41,0.384
			c0.012,0,0.021,0,0.031-0.002c0.229-0.017,0.398-0.214,0.385-0.441L26.866,4.973L26.866,4.973z M21.525,5.178
			c-0.359,0-0.65,0.288-0.65,0.644s0.289,0.644,0.65,0.644c0.354,0,0.643-0.288,0.643-0.644S21.878,5.178,21.525,5.178z
			 M21.525,8.981c0,0,0.289,2.019,0.289,2.021c0.039,0.101,0.131,0.17,0.248,0.17c0.113,0,0.213-0.078,0.248-0.181
			c0-0.008,0.006-0.125,0-0.146l-0.121-2.481l0.041-0.853c0.031-0.29,0.037-0.203,0.367-0.4c0.338-0.203,0.908-1.089,0.936-1.133
			c0.031-0.044,0.084-0.122,0.094-0.173c0.018-0.089-0.043-0.172-0.133-0.191c-0.066-0.011-0.121,0.025-0.166,0.07
			c-0.045,0.05-0.703,0.927-1.195,1.011c-0.113-0.018-0.229-0.074-0.549-0.074h-0.121c-0.314,0-0.434,0.059-0.547,0.074
			c-0.494-0.083-1.152-0.961-1.199-1.011c-0.041-0.045-0.096-0.082-0.166-0.07c-0.086,0.02-0.146,0.103-0.129,0.191
			c0.01,0.049,0.063,0.127,0.09,0.173c0.029,0.043,0.602,0.93,0.938,1.133c0.328,0.197,0.338,0.11,0.369,0.4l0.037,0.853
			l-0.119,2.481c-0.006,0.021,0,0.14,0.006,0.146c0.033,0.104,0.129,0.181,0.246,0.181c0.113,0,0.207-0.069,0.242-0.17
			C21.232,11.001,21.525,8.981,21.525,8.981"/>
	</g>
	<g id="foodsec" display="none">
		<path display="inline" fill="#FFFFFF" d="M28.698,6.175L28.698,6.175c-0.037,1.031-0.389,2.149-0.928,3.18
			c0,0-1.287,2.606-5.33,2.606c-4.047,0-5.355-2.585-5.355-2.585c-0.543-1.036-0.869-2.148-0.911-3.203h0.002
			c0-0.026-0.002-0.053-0.002-0.081c0-0.495,0.308-0.96,0.835-1.36l0.564,0.36c-0.352,0.233-0.55,0.496-0.55,0.772
			c0,0.979,2.425,1.771,5.417,1.771c2.988,0,5.412-0.792,5.412-1.771c0-0.674-1.162-1.262-2.869-1.56l0.008-0.711
			c2.184,0.428,3.711,1.384,3.711,2.499C28.702,6.12,28.7,6.147,28.698,6.175z M18.257,1.968c-0.021,0.166-0.049,0.431,0.156,0.793
			c0.252,0.436,0.576,0.589,0.68,0.664c-0.016-0.114,0.014-0.451-0.223-0.861c-0.205-0.366-0.428-0.53-0.561-0.657
			c-0.373-0.539-0.797-0.973-1.119-1.313l-0.767-0.796c0,0,0.277,0.318,0.734,0.823C17.476,0.974,17.892,1.421,18.257,1.968z
			 M20.175,6.181c0.162,0.153,0.369,0.405,0.83,0.662c0.518,0.288,0.953,0.288,1.1,0.322c-0.082-0.135-0.248-0.562-0.818-0.877
			C20.818,6.03,20.47,6.08,20.255,6.117c-0.707-0.412-1.313-0.833-1.803-1.133c-0.695-0.43-1.146-0.65-1.146-0.65
			c-0.002,0,0.438,0.241,1.121,0.692C18.898,5.34,19.48,5.765,20.175,6.181z M20.589,3.934c-0.057,0.19-0.137,0.499,0.045,0.95
			c0.213,0.554,0.574,0.785,0.682,0.887c0.004-0.134,0.098-0.518-0.104-1.037c-0.18-0.463-0.416-0.691-0.549-0.863
			c-0.35-0.691-0.777-1.266-1.104-1.713l-0.783-1.056l0.74,1.077C19.833,2.643,20.251,3.235,20.589,3.934z M19.275,5.056
			c0.154,0.141,0.355,0.374,0.791,0.603c0.488,0.256,0.895,0.245,1.027,0.272c-0.08-0.121-0.248-0.513-0.781-0.794
			c-0.441-0.23-0.766-0.179-0.965-0.143c-0.662-0.37-1.232-0.751-1.691-1.026c-0.657-0.39-1.083-0.587-1.079-0.589
			c-0.004,0.004,0.412,0.222,1.053,0.633C18.07,4.293,18.622,4.683,19.275,5.056z M18.339,3.951c0.145,0.128,0.332,0.34,0.738,0.542
			c0.457,0.231,0.832,0.215,0.959,0.237c-0.078-0.112-0.238-0.466-0.738-0.718c-0.41-0.206-0.709-0.153-0.893-0.117
			c-0.621-0.334-1.156-0.679-1.583-0.929c-0.612-0.357-1.008-0.537-1.006-0.539c-0.002,0.002,0.385,0.202,0.984,0.575
			C17.212,3.261,17.728,3.614,18.339,3.951z M17.384,2.341c0.271,0.244,0.533,0.259,0.68,0.306
			c-0.031-0.119-0.004-0.415-0.318-0.691c-0.264-0.23-0.533-0.248-0.671-0.26c-1.099-0.943-2.077-1.547-2.301-1.691l-0.048-0.033
			c-0.01,0.007,1.063,0.714,2.322,1.819C17.089,1.927,17.161,2.153,17.384,2.341z M17.363,2.862
			c0.137,0.114,0.311,0.307,0.688,0.489c0.42,0.208,0.77,0.188,0.887,0.207c-0.074-0.1-0.229-0.42-0.689-0.648
			c-0.381-0.183-0.654-0.138-0.824-0.104c-0.575-0.297-1.066-0.616-1.466-0.84c-0.567-0.323-0.934-0.484-0.934-0.484
			s0.359,0.177,0.911,0.521C16.319,2.232,16.797,2.554,17.363,2.862z M19.454,2.92c-0.041,0.177-0.09,0.466,0.102,0.872
			c0.238,0.497,0.582,0.685,0.691,0.776c-0.008-0.123,0.047-0.483-0.17-0.952c-0.199-0.414-0.428-0.613-0.561-0.758
			c-0.365-0.617-0.789-1.121-1.117-1.515l-0.777-0.925l0.74,0.95C18.683,1.775,19.097,2.296,19.454,2.92z M23.777,3.978
			C23.656,4.1,23.458,4.302,23.4,4.721c-0.076,0.51,0.09,0.832,0.127,0.957c0.063-0.102,0.301-0.356,0.373-0.835
			c0.063-0.429-0.012-0.7-0.039-0.883c0.037-0.671-0.041-1.287-0.1-1.763c-0.084-0.694-0.145-1.126-0.145-1.126l0.104,1.126
			C23.763,2.681,23.823,3.305,23.777,3.978z M23.38,2.835c-0.107,0.122-0.271,0.32-0.303,0.711
			c-0.039,0.478,0.137,0.767,0.182,0.879c0.045-0.098,0.254-0.35,0.291-0.798c0.029-0.4-0.059-0.646-0.098-0.816
			c-0.004-0.62-0.109-1.185-0.188-1.622l-0.189-1.031l0.154,1.033C23.294,1.639,23.382,2.209,23.38,2.835z M22.919,1.715
			c-0.09,0.117-0.229,0.313-0.232,0.675c-0.008,0.441,0.178,0.695,0.223,0.796c0.037-0.095,0.209-0.34,0.217-0.752
			c0.004-0.372-0.09-0.59-0.135-0.743c-0.049-0.572-0.174-1.082-0.271-1.479l-0.234-0.938l0.197,0.942
			C22.765,0.621,22.882,1.14,22.919,1.715z M23.732,6.946c0.07-0.104,0.348-0.358,0.461-0.868c0.102-0.453,0.035-0.75,0.02-0.951
			c0.082-0.72,0.039-1.388,0.01-1.901c-0.051-0.75-0.092-1.219-0.092-1.219l0.039,1.217c0.021,0.522,0.047,1.195-0.049,1.916
			c-0.141,0.124-0.357,0.327-0.457,0.772C23.546,6.452,23.7,6.808,23.732,6.946z M21.433,0.979c0.059,0.127,0.113,0.331,0.322,0.587
			c0.23,0.294,0.486,0.391,0.566,0.443c-0.02-0.098-0.016-0.382-0.27-0.703c-0.211-0.261-0.426-0.318-0.559-0.348
			c-0.309-0.412-0.553-0.804-0.762-1.1c-0.293-0.428-0.504-0.666-0.502-0.667c-0.002,0.001,0.195,0.25,0.475,0.682
			C20.9,0.172,21.13,0.568,21.433,0.979z M21.63,0.604c0.115,0.269,0.295,0.368,0.385,0.449c0.018-0.097,0.141-0.305,0.016-0.611
			c-0.109-0.257-0.301-0.359-0.396-0.412c-0.459-1.058-0.947-1.823-1.061-2.004l-0.023-0.04c-0.01,0.003,0.516,0.878,1.033,2.104
			C21.566,0.202,21.536,0.391,21.63,0.604z M22.091,2.746c0.246,0.318,0.525,0.433,0.609,0.491
			c-0.014-0.109-0.006-0.422-0.279-0.773c-0.223-0.286-0.457-0.349-0.604-0.383c-0.33-0.449-0.594-0.879-0.814-1.204
			C20.689,0.414,20.47,0.151,20.47,0.15c0,0,0.207,0.275,0.506,0.747c0.205,0.326,0.453,0.754,0.773,1.208
			C21.812,2.243,21.872,2.46,22.091,2.746z M22.392,0.621c-0.074,0.116-0.186,0.3-0.168,0.631c0.029,0.405,0.209,0.624,0.26,0.713
			c0.023-0.087,0.168-0.324,0.145-0.706c-0.021-0.337-0.125-0.53-0.174-0.669c-0.078-0.516-0.232-0.977-0.344-1.33l-0.271-0.84
			c0,0,0.086,0.324,0.238,0.848C22.177-0.368,22.322,0.098,22.392,0.621z M22.036,3.224c0.064,0.155,0.125,0.39,0.355,0.701
			c0.262,0.348,0.557,0.476,0.646,0.542c-0.014-0.119,0.002-0.459-0.283-0.844c-0.234-0.314-0.484-0.383-0.645-0.421
			c-0.35-0.493-0.627-0.959-0.857-1.313c-0.338-0.504-0.574-0.791-0.574-0.792c0,0.001,0.221,0.3,0.539,0.813
			C21.437,2.265,21.697,2.731,22.036,3.224z M18.644,6.304c0,0.002,0.387,0.22,0.992,0.648c0.041,0.007,0.082,0.018,0.129,0.027
			C19.087,6.528,18.644,6.304,18.644,6.304z M23.47,7.151c-0.09-0.138-0.184-0.244-0.277-0.324c-0.033-0.087-0.064-0.168-0.1-0.241
			c0.203,0.21,0.396,0.313,0.469,0.371c0-0.007,0-0.021,0-0.033c0.023,0.08,0.045,0.165,0.07,0.25
			c0.039-0.002,0.08-0.006,0.117-0.008c-0.07-0.242-0.148-0.479-0.234-0.7c-0.031-0.121-0.08-0.25-0.158-0.392
			C23.281,5.9,23.204,5.731,23.13,5.571c0.092,0.064,0.166,0.106,0.203,0.134c-0.01-0.126,0.02-0.495-0.279-0.915
			c-0.178-0.247-0.365-0.356-0.521-0.416L22.06,3.449c0,0,0.154,0.337,0.422,0.906c-0.043-0.012-0.08-0.025-0.111-0.033
			c-0.367-0.537-0.656-1.043-0.902-1.423c-0.35-0.548-0.6-0.859-0.598-0.859c0,0.002,0.234,0.322,0.564,0.879
			c0.229,0.383,0.498,0.889,0.854,1.425c0.063,0.165,0.123,0.421,0.365,0.761c0.113,0.159,0.23,0.275,0.344,0.364
			c0.039,0.092,0.084,0.189,0.127,0.292c-0.205-0.207-0.414-0.271-0.553-0.313c-0.041-0.062-0.078-0.125-0.115-0.185
			c-0.236-0.506-0.488-0.951-0.701-1.323c-0.467-0.814-0.77-1.313-0.768-1.313L21.7,3.963c0.055,0.1,0.111,0.21,0.17,0.32
			c-0.078-0.133-0.152-0.26-0.221-0.376c-0.363-0.589-0.627-0.921-0.627-0.923c0,0.002,0.242,0.347,0.586,0.948
			c0.203,0.354,0.438,0.806,0.727,1.293c0.129,0.284,0.25,0.585,0.357,0.904c-0.027,0.064-0.064,0.146-0.092,0.241
			c-0.322-0.55-0.584-1.06-0.818-1.452c-0.074-0.13-0.146-0.244-0.209-0.351c-0.293-0.604-0.631-1.124-0.902-1.541
			c-0.473-0.732-0.777-1.183-0.777-1.183l0.73,1.206c0.314,0.518,0.723,1.183,1.039,1.956c-0.072,0.201-0.184,0.527-0.021,1.026
			c0.191,0.608,0.561,0.883,0.672,1.002c0.01-0.134,0.123-0.503-0.012-1.025c0.084,0.157,0.17,0.318,0.268,0.486
			c-0.037,0.188-0.049,0.425,0.027,0.724c0.299-0.002,0.598-0.011,0.889-0.031C23.482,7.174,23.478,7.166,23.47,7.151z M19.21,6.022
			c-0.734-0.472-1.217-0.709-1.215-0.711c-0.002,0,0.465,0.261,1.184,0.754c0.418,0.288,0.926,0.667,1.51,1.056
			c0.072,0.009,0.145,0.015,0.219,0.022C20.251,6.731,19.679,6.321,19.21,6.022z M24.509,6.313c0.141-0.764,0.125-1.484,0.125-2.037
			l-0.021-1.313c0,0-0.012,0.5-0.021,1.308c-0.018,0.564-0.029,1.286-0.178,2.05c-0.162,0.122-0.404,0.327-0.545,0.792
			c-0.004,0.016-0.006,0.029-0.012,0.044c0.211-0.021,0.418-0.044,0.619-0.072C24.544,6.741,24.511,6.49,24.509,6.313z"/>
	</g>
	<g id="funding">
		<path fill="#FFFFFF" d="M21.659,8.097l-1.787,1.664h-6.436l-1.787-1.664c0,0,0.891-1.243,2.354-1.407
			c1.433-0.161,1.931,0.72,2.651,0.757c0.717-0.037,1.217-0.916,2.649-0.757C20.769,6.854,21.659,8.097,21.659,8.097z M16.902,16.08
			v1.256c0.189-0.031,0.345-0.104,0.466-0.224c0.117-0.121,0.176-0.26,0.176-0.42c0-0.143-0.051-0.267-0.152-0.369
			C17.294,16.217,17.131,16.137,16.902,16.08z M15.855,14.473c0,0.115,0.041,0.218,0.124,0.316c0.081,0.099,0.204,0.178,0.368,0.238
			v-1.113c-0.148,0.041-0.27,0.115-0.357,0.218C15.901,14.237,15.855,14.348,15.855,14.473z M22.743,18.787
			c0,0-0.389,1.485-2.174,1.485h-7.828c-1.787,0-2.177-1.485-2.177-1.485c-1.165-5.158,2.388-7.955,2.388-7.955h7.406
			C20.359,10.833,23.909,13.629,22.743,18.787z M18.48,16.575c0-0.349-0.113-0.632-0.334-0.854c-0.221-0.223-0.635-0.4-1.244-0.543
			v-1.256c0.246,0.088,0.398,0.262,0.457,0.514l0.963-0.106c-0.063-0.32-0.217-0.578-0.455-0.768
			c-0.24-0.19-0.563-0.309-0.964-0.349v-0.318h-0.555v0.318c-0.438,0.037-0.786,0.173-1.05,0.412
			c-0.265,0.24-0.395,0.535-0.395,0.887c0,0.349,0.116,0.643,0.35,0.889c0.232,0.241,0.6,0.421,1.095,0.543v1.345
			c-0.137-0.054-0.262-0.145-0.372-0.27c-0.113-0.125-0.189-0.273-0.23-0.444l-0.993,0.091c0.077,0.421,0.25,0.75,0.526,0.979
			c0.274,0.234,0.631,0.371,1.069,0.416v0.583h0.557v-0.598c0.494-0.06,0.882-0.224,1.162-0.489
			C18.339,17.292,18.48,16.963,18.48,16.575z"/>
	</g>
</g>
</svg>
