<?xml version="1.0" encoding="utf-8"?>
<!-- Generator: Adobe Illustrator 16.0.0, SVG Export Plug-In . SVG Version: 6.00 Build 0)  -->
<!DOCTYPE svg PUBLIC "-//W3C//DTD SVG 1.1//EN" "http://www.w3.org/Graphics/SVG/1.1/DTD/svg11.dtd">
<svg version="1.1" id="Layer_1" xmlns="http://www.w3.org/2000/svg" xmlns:xlink="http://www.w3.org/1999/xlink" x="0px" y="0px"
	 width="33.35px" height="40px" viewBox="0 0 33.35 40" enable-background="new 0 0 33.35 40" xml:space="preserve">
<g id="PinColor">
	<path id="PinOmbre" opacity="0.3" enable-background="new    " d="M28.872,29.936c0,1.76-3.865,3.238-9.066,3.627
		c-0.877,0.066-2.732,4.195-2.732,4.195s-1.92-4.131-2.827-4.201c-5.149-0.4-8.973-1.871-8.973-3.621
		c0-2.061,5.283-3.732,11.8-3.732C23.589,26.203,28.872,27.873,28.872,29.936z"/>
	<path id="vert" display="none" fill="#2ABF00" stroke="#1D7500" stroke-width="0.2" stroke-miterlimit="10" d="M28.872,12.619
		c0,5.391-3.865,9.911-9.066,11.106c-0.877,0.197-2.732,12.838-2.732,12.838s-1.92-12.641-2.827-12.863
		c-5.149-1.223-8.973-5.723-8.973-11.084c0-6.303,5.283-11.412,11.8-11.412C23.589,1.204,28.872,6.315,28.872,12.619z"/>
	<path id="orange" fill="#FF8500" stroke="#7F4500" stroke-width="0.2" stroke-miterlimit="10" d="M28.872,12.619
		c0,5.391-3.865,9.911-9.066,11.106c-0.877,0.197-2.732,12.838-2.732,12.838s-1.92-12.641-2.827-12.863
		c-5.149-1.223-8.973-5.723-8.973-11.084c0-6.303,5.283-11.412,11.8-11.412C23.589,1.204,28.872,6.315,28.872,12.619z"/>
	<path id="gris" display="none" fill="#A5A5A5" stroke="#595959" stroke-width="0.2" stroke-miterlimit="10" d="M28.872,12.619
		c0,5.391-3.865,9.911-9.066,11.106c-0.877,0.197-2.732,12.838-2.732,12.838s-1.92-12.641-2.827-12.863
		c-5.149-1.223-8.973-5.723-8.973-11.084c0-6.303,5.283-11.412,11.8-11.412C23.589,1.204,28.872,6.315,28.872,12.619z"/>
	<path id="bleu" display="none" fill="#0092FF" stroke="#00477C" stroke-width="0.2" stroke-miterlimit="10" d="M28.872,12.619
		c0,5.391-3.865,9.911-9.066,11.106c-0.877,0.197-2.732,12.838-2.732,12.838s-1.92-12.641-2.827-12.863
		c-5.149-1.223-8.973-5.723-8.973-11.084c0-6.303,5.283-11.412,11.8-11.412C23.589,1.204,28.872,6.315,28.872,12.619z"/>
</g>
<g id="Icons">
	<g id="Minimal">
		<path id="Election" display="none" fill="#565656" d="M28.227-0.812l-4.072-1.746c-0.122-0.051-0.262-0.016-0.342,0.087
			l-1.167,1.455c-0.052,0.065-0.072,0.158-0.056,0.243c0.02,0.082,0.072,0.15,0.146,0.188l-3.651,1.369
			c-0.309,0.115-0.568,0.332-0.736,0.613l-1.209,2.014c-0.256,0.428-0.278,0.95-0.054,1.396l0.088,0.171h-1.274
			c-0.16,0-0.292,0.13-0.292,0.291v5.525h-0.873c-0.161,0-0.289,0.13-0.289,0.29c0,0.161,0.127,0.291,0.289,0.291h9.891
			c0.158,0,0.284-0.13,0.284-0.291c0-0.16-0.126-0.29-0.284-0.29H23.75V7.824c0-0.098-0.054-0.194-0.134-0.245
			c-0.086-0.055-0.19-0.062-0.28-0.02c-0.322,0.151-0.557,0.227-0.668,0.259C22.644,7.825,22.622,7.834,22.6,7.85l-1.895,1.135
			c-0.301,0.182-0.645,0.278-0.993,0.278c-0.644,0-1.246-0.321-1.614-0.865c-0.292-0.436-0.393-0.963-0.284-1.475
			c0.109-0.512,0.416-0.952,0.854-1.234l0.273-0.174c0.204-0.122,0.383-0.234,0.543-0.333c0.111-0.07,0.164-0.207,0.126-0.333
			c-0.072-0.233-0.194-0.441-0.307-0.6c0.444-0.195,1.047-0.542,1.347-0.892c0,0,0.004,0.002,0.006,0.002
			c0.063,0.039,0.137,0.08,0.223,0.121c0.004,0.001,0.006,0.003,0.014,0.005l0,0c0.219,0.105,0.492,0.21,0.807,0.272
			c-0.338,0.418-0.683,0.941-0.809,1.29c-0.24,0.106-0.74,0.39-1.909,1.134c-0.31,0.197-0.521,0.502-0.594,0.862
			c-0.078,0.359-0.01,0.726,0.196,1.031c0.26,0.391,0.686,0.605,1.13,0.605c0.236,0,0.479-0.063,0.694-0.192l1.999-1.201
			c0.311-0.076,1.865-0.541,3.044-2.445c0.923-1.493,1.44-2.695,1.654-3.24l0.036,0.019c0.122,0.061,0.255,0.091,0.389,0.091
			c0.222,0,0.444-0.089,0.608-0.245c0.172-0.163,0.264-0.388,0.264-0.627v-1.385C28.399-0.661,28.333-0.768,28.227-0.812z"/>
	</g>
	<g id="Faible">
		<path id="Famine" display="none" fill="#F9F9F9" d="M25.608,9.896l-2.312,0.438l-3.775-2.052l1.37-1.712l3.09,1.024L25.608,9.896z
			 M29.159,5.883V6.14l-2.434,0.771l-2.403,0.341l-3.087-1.026l-0.727-0.342h0.414c-0.098-0.918-0.23-1.613-0.296-2.524h-0.002
			c-0.002-0.027-0.034-0.637-0.042-0.896c-0.047-0.274-0.179-0.383-0.606-0.678c-0.236-0.151-0.41-0.206-0.509-0.204
			c-0.158,0-0.298,0.171-0.33,0.684c0.687,0.116,0.734,0.877,0.734,0.877c0.063,0.54-0.204,1.33-0.816,1.535
			c-1.13,0.377-1.015-1.8-0.376-2.323c0.016-0.627,0.192-1.203,0.788-1.225c0.236,0.002,0.479,0.098,0.757,0.275
			c0.132,0.08,0.24,0.162,0.336,0.245c-0.012-0.208-0.024-0.418-0.024-0.636c-0.002-0.457,0.07-0.956,0.475-1.308
			c0.21-0.19,0.446-0.289,0.677-0.287c0.604,0.03,0.979,0.55,1.196,1.082c0.254-0.11,0.57-0.165,0.935-0.039
			c0.929,0.323,1.431,1.943,1.04,2.507c-0.914,1.315-3.222-1.134-2.611-1.988c0,0,0.091-0.117,0.249-0.245
			c-0.181-0.472-0.541-0.894-0.809-0.864c-0.103,0.002-0.223,0.038-0.375,0.172c-0.256,0.225-0.321,0.547-0.321,0.969
			c0,0.297,0.036,0.627,0.036,0.958c0,0.172,0.01,0.324,0.016,0.491c0.042,0.295,0.044,0.521,0.042,0.833
			c0.062,0.908,0.43,1.652,0.526,2.589L29.159,5.883L29.159,5.883z M22.664,0.916l1.746,1.902c-0.312-1.349-1.418-2.102-1.418-2.102
			L22.664,0.916z M19.044,2.549L18.73,2.677c0,0-0.154,1.064,0,1.62L19.044,2.549z M17.48,8.967l1.387-0.834l1.448-1.791
			l-0.452-0.459h-3.197L16.031,7.15L17.48,8.967z M19.098,8.679l-2.459,1.675l0.326,0.406h5.661l-0.019-0.083L19.098,8.679z
			 M14.037,5.883v1.931l1.577-0.846l0.477-1.086L14.037,5.883L14.037,5.883z M24.781,7.666l1.522,2.213l2.854,0.67V8.018
			l-2.054-0.662L24.781,7.666z M29.159,7.464V6.571l-1.601,0.433L29.159,7.464z M15.653,7.588l-1.616,0.768v2.403h1.182l1.76-1.441
			L15.653,7.588z M24.113,10.76h3.694l-1.77-0.427L24.113,10.76z"/>
		<path id="Cyclone" display="none" fill="#FFFFFF" d="M21.657,0.688c-0.078-0.004-0.156-0.013-0.234-0.013
			c-0.694,0-1.345,0.181-1.911,0.493c1.013-3.45,3.538-3.751,3.538-3.751s-5.581,0.467-5.581,6.98c0.004,0,0.008,0,0.013,0
			c-0.005,0.078-0.013,0.154-0.013,0.234c0,0.689,0.181,1.341,0.492,1.91c-3.448-1.013-3.75-3.537-3.75-3.537
			s0.465,5.583,6.98,5.583c0-0.006,0-0.007,0-0.014c0.075,0.004,0.153,0.014,0.231,0.014c0.694,0,1.345-0.182,1.911-0.495
			c-1.013,3.451-3.54,3.753-3.54,3.753s5.583-0.467,5.583-6.98c-0.004,0-0.008,0-0.012,0c0.004-0.078,0.012-0.153,0.012-0.231
			c0-0.694-0.18-1.345-0.494-1.911c3.45,1.013,3.75,3.539,3.75,3.539s-0.462-5.584-6.978-5.584
			C21.657,0.681,21.657,0.685,21.657,0.688z"/>
		<path id="tsunami" display="none" fill="#FFFFFF" d="M28.437,9.226c-11.489,0.651-8.278-8.137-5.299-7.379
			c-0.308,0.188-0.504,0.834-0.313,1.27c0.208,0.465,0.878,0.731,1.265,0.635c0.926-0.239,0.966-1.538,0.634-2.22
			c-0.346-0.709-1.259-1.584-2.854-1.584c-3.848,0-6.472,1.964-7.459,5.342v4.967h14.026V9.226L28.437,9.226z"/>
		<path id="earthquake" display="none" fill="#FFFFFF" d="M25.511,5.064c-0.195,0-0.376,0.108-0.47,0.284l-0.767,1.444l-0.942-2.767
			c-0.074-0.208-0.269-0.35-0.488-0.362c-0.227-0.005-0.424,0.123-0.51,0.326l-0.648,1.538l-1.021-6.125
			c-0.049-0.256-0.29-0.451-0.534-0.438c-0.265,0.005-0.482,0.18-0.515,0.439l-0.904,7.107L17.98,2.697
			C17.938,2.473,17.753,2.3,17.528,2.27c-0.227-0.032-0.452,0.09-0.551,0.296l-1.199,2.498h-1.861v1.064h2.196
			c0.205,0,0.394-0.119,0.483-0.3l0.644-1.342l1.038,5.409c0.05,0.251,0.269,0.434,0.524,0.434c0.004,0,0.01,0,0.014,0
			c0.261-0.007,0.479-0.204,0.515-0.462l0.889-6.984l0.744,4.597c0.044,0.233,0.232,0.408,0.466,0.435
			c0.236,0.021,0.459-0.107,0.553-0.324l0.798-1.898l0.889,2.605c0.068,0.202,0.248,0.343,0.458,0.361
			c0.213,0.012,0.417-0.094,0.517-0.282l1.19-2.249h2.285V5.064H25.511z"/>
	</g>
	<g id="Modéré">
	</g>
	<g id="Important">
	</g>
	<g id="Elevé">
	</g>
	<g id="Extreme" display="none">
		<path id="rebelion" display="inline" fill="#FFFFFF" d="M23.598,0.885c0,1.283-1.04,2.321-2.318,2.321
			c-1.285,0-2.323-1.04-2.323-2.321c0-1.284,1.038-2.322,2.323-2.322C22.56-1.437,23.598-0.399,23.598,0.885z M17.404,10.731h1.418
			h0.076l0.051-0.109l0.516-0.504l-0.476-0.102l-0.753-0.161L17.404,10.731z M27.115,1.315l-0.497,0.499l0.032,0.033l-0.402,0.406
			c0.055,0.05,0.106,0.1,0.15,0.157l0.406-0.406l0.084,0.076l0.49-0.501L27.115,1.315z M23.91,3.891l-0.216,0.212l0.026,0.061
			l0.048,0.113l-3.384,3.395l0.362,0.078c0.334,0.07,0.622,0.271,0.81,0.56c0.024,0.041,0.032,0.091,0.053,0.135l0.01-0.012
			l0.25,0.165l0.09-0.02l0.987,0.716l0.662-0.908L22.14,7.237l0.03-0.095h0.243l1.443-1.692l0.162-1.518L23.91,3.891z M25.482,2.39
			c-0.438-0.048-0.865,0.28-0.917,0.733l-0.054,0.495l0,0l-0.036,0.358l-0.16,1.518l-0.016,0.142l-0.091,0.108l-1.292,1.514
			l0.975,0.763l0.35,0.274l-0.204,0.279l0.053,0.103c0.134,0.291,0.43,0.472,0.748,0.472c0.046,0,0.092-0.002,0.138-0.011
			c0.364-0.063,0.645-0.36,0.685-0.727l0.553-5.106C26.266,2.848,25.936,2.437,25.482,2.39z M23.792,8.911l-0.474,0.653
			l-0.272,0.373l-0.37-0.271l-0.818-0.591l-0.072,0.019l-0.03-0.021c0,0.071-0.002,0.137-0.018,0.208
			c-0.014,0.068-0.04,0.13-0.064,0.194c-0.052,0.121-0.118,0.224-0.198,0.322l0.059,0.13c0.058,0.13,0.136,0.299,0.232,0.447
			l0.226,0.355h1.745L23.792,8.911z M20.475,10.301c-0.021,0-0.04-0.005-0.061-0.007c-0.008,0.037-0.014,0.064-0.014,0.064
			l0.196,0.371h0.473l0.306-0.107c-0.106-0.162-0.188-0.335-0.266-0.51C20.919,10.223,20.709,10.301,20.475,10.301z M21.157,8.544
			c-0.034-0.052-0.084-0.093-0.133-0.135c-0.025-0.025-0.05-0.062-0.084-0.082c-0.084-0.061-0.186-0.105-0.292-0.13l-0.362-0.074
			l-0.824-0.177l0,0l-0.73-0.156l-0.284-0.059L17.98,7.628l-0.03-0.005l0.074-0.076l0.318-0.313l0.336-0.341
			c0.028,0.233,0.042,0.417,0.042,0.422l0.11,0.022l1.022,0.219l0.21-0.21l3.165-3.18l-0.071-0.177l0.027-0.021
			c-0.46-0.139-1-0.218-1.681-0.218H21.28c0,0-0.221,0-0.223,0c-0.479,0-0.96,0.032-1.433,0.138
			c-0.813,0.182-1.314,0.978-1.871,1.524c-0.574,0.564-1.128,1.15-1.686,1.729c-0.122,0.13-0.245,0.263-0.372,0.391
			c-0.214,0.215-0.292,0.53-0.208,0.823c0.084,0.291,0.324,0.511,0.622,0.577l1.096,0.235l0.464,0.098l2.634,0.561
			c0.058,0.009,0.116,0.019,0.174,0.019c0.384,0,0.727-0.268,0.811-0.656c0.03-0.154,0.008-0.298-0.038-0.435l-0.052-0.106
			C21.183,8.616,21.171,8.583,21.157,8.544z M19.994,10.571l-0.078-0.15l0.04-0.167l0.008-0.031l-0.128-0.028l-0.464,0.534h0.704
			L19.994,10.571z"/>
	</g>
	<path id="displaced" display="none" fill="#FFFFFF" d="M22.22-1.12c0.114,0.717-0.368,1.389-1.081,1.505
		c-0.712,0.117-1.391-0.365-1.507-1.078c-0.118-0.715,0.362-1.39,1.081-1.508C21.425-2.316,22.1-1.831,22.22-1.12z M21.81,4.076
		l1.158,1.852c0.166,0.261,0.506,0.345,0.771,0.191c0.268-0.16,0.36-0.497,0.212-0.767L23.656,4.82
		c-0.258-0.454-0.509-0.913-0.763-1.369L22.38,2.515c-0.061-0.11-0.118-0.233-0.179-0.361c-0.318-0.668-0.814-1.7-1.902-1.606
		c-0.933,0.082-1.879,0.524-2.81,1.315c-1.103,0.869-1.873,2.132-1.902,2.186c-0.038,0.055-0.071,0.113-0.098,0.165
		c-0.004,0.002-0.004,0.003-0.006,0.005l0,0c-0.105,0.195-0.156,0.374-0.027,0.601c0.103,0.179,0.292,0.287,0.495,0.287
		c0.251,0,0.376-0.119,0.499-0.293l0,0c0.002,0,0.002-0.004,0.002-0.004c0.034-0.051,0.065-0.106,0.106-0.165
		c0.006-0.01,0.652-1.048,1.652-1.9c0.309-0.243,0.603-0.409,0.877-0.499L18.866,4.94c-0.024,0.267-0.108,0.727-0.181,0.983
		l-0.502,1.758c-0.066,0.22-0.252,0.589-0.4,0.769l-1.355,1.68c-0.171,0.213-0.364,0.454-0.205,0.789
		c0.095,0.199,0.293,0.325,0.513,0.325c0.263,0,0.406-0.15,0.581-0.342l1.37-1.48c0.246-0.264,0.566-0.723,0.723-1.047l0.683-1.384
		l2.515,4.227c0.122,0.208,0.278,0.471,0.618,0.471l0,0c0.198,0,0.377-0.101,0.479-0.262c0.187-0.28,0.064-0.534-0.042-0.764
		l-2.033-4.419c-0.078-0.174-0.124-0.527-0.09-0.717L21.81,4.076z M23.943,8.675h3.05v0.906l3.027-1.749l-3.027-1.75v0.905h-3.05
		V8.675z"/>
	<path id="epidemie" display="none" fill="#FFFFFF" d="M27.416,5.213c0-3.286-2.573-5.957-5.814-6.125
		c1.433,0.136,2.547,1.175,2.547,2.439c0,0.435-0.146,0.834-0.376,1.188c-0.641-0.636-1.519-1.029-2.491-1.029
		c-0.971,0-1.852,0.393-2.487,1.028c-0.229-0.354-0.372-0.753-0.372-1.188c0-1.262,1.112-2.303,2.541-2.439
		c-3.239,0.167-5.813,2.841-5.813,6.125c0,0.99,0.241,1.924,0.656,2.754c-0.568-1.297-0.223-2.755,0.858-3.379
		c0.378-0.217,0.798-0.295,1.218-0.272c-0.08,0.289-0.134,0.59-0.134,0.905c0,1.631,1.117,2.993,2.619,3.398
		c-0.02,0.035-0.046,0.069-0.065,0.103c0,0.003,0,0.003,0,0.009c-0.05,0.111-0.112,0.201-0.188,0.279
		c-0.16,0.212-0.348,0.4-0.588,0.538c-1.087,0.626-2.531,0.192-3.365-0.963c1.098,1.666,2.98,2.77,5.122,2.77
		c2.121,0,3.992-1.079,5.095-2.719c-0.841,1.119-2.26,1.531-3.328,0.917c-0.38-0.221-0.656-0.552-0.847-0.935
		c1.505-0.405,2.611-1.769,2.611-3.396c0-0.316-0.05-0.616-0.13-0.905c0.425-0.027,0.845,0.05,1.225,0.27
		c1.051,0.605,1.407,1.997,0.904,3.267C27.198,7.05,27.416,6.159,27.416,5.213z M21.936,7.575c-0.026-0.511,0.082-1.046,0.338-1.553
		l-0.41-0.235c-0.146,0.152-0.351,0.245-0.58,0.245c-0.227,0-0.433-0.092-0.58-0.245l-0.4,0.23c0.256,0.51,0.364,1.05,0.336,1.56
		c-1.038-0.284-1.809-1.229-1.809-2.355c0-0.216,0.036-0.419,0.088-0.618c0.454,0.229,0.864,0.586,1.181,1.059l0.408-0.238
		c-0.019-0.07-0.044-0.136-0.044-0.211c0-0.379,0.262-0.685,0.616-0.778V3.97c-0.57-0.037-1.087-0.213-1.515-0.493
		c0.444-0.438,1.048-0.705,1.717-0.705c0.668,0,1.274,0.27,1.721,0.707c-0.431,0.28-0.944,0.454-1.515,0.491v0.467
		C21.839,4.529,22.1,4.835,22.1,5.214c0,0.076-0.022,0.142-0.038,0.211l0.414,0.242c0.313-0.471,0.725-0.827,1.175-1.056
		c0.048,0.193,0.084,0.398,0.084,0.609C23.735,6.346,22.97,7.287,21.936,7.575z"/>
	<path id="enlevement" display="none" fill="#FFFFFF" d="M26.398-2.118c-0.378,0-0.69,0.311-0.69,0.692v2.817
		c0.166,0.037,0.326,0.106,0.456,0.233c0.362,0.36,0.372,0.949,0.017,1.318l-1.309,1.347l-0.185-0.175l1.316-1.345
		C26.268,2.499,26.26,2.066,25.99,1.8c-0.084-0.08-0.184-0.135-0.288-0.165c-0.118-0.032-0.232-0.033-0.346-0.009
		c-0.129,0.033-0.242,0.096-0.331,0.193c-0.778,0.797-1.559,1.596-2.335,2.394c-0.196,0.2-0.552,0.658-0.54,1.114
		c0.006,0.429-0.006,0.871,0.002,1.302c-0.104-0.082-0.226-0.142-0.364-0.168c-0.402-0.065-0.765,0.174-0.904,0.532h-0.2
		c0-0.098,0-0.196,0-0.294c0.01-0.449-0.008-0.917,0.004-1.369c0.01-0.458-0.348-0.916-0.542-1.116
		c-0.776-0.798-1.555-1.597-2.335-2.396c-0.093-0.097-0.204-0.161-0.333-0.193c-0.113-0.023-0.231-0.021-0.346,0.009
		c-0.106,0.031-0.204,0.087-0.288,0.167c-0.269,0.265-0.274,0.698-0.012,0.972l1.313,1.342L17.961,4.29l-1.309-1.347
		c-0.358-0.368-0.35-0.958,0.019-1.316c0.126-0.125,0.286-0.196,0.454-0.233v-2.817c0-0.381-0.313-0.692-0.691-0.692
		c-0.384,0-0.692,0.311-0.692,0.692v4.877c0,0.16,0.064,0.306,0.16,0.424l2.356,3.111h-0.211c-0.456,0-0.832,0.374-0.832,0.834
		c0,0.306,0.172,0.562,0.416,0.705c-0.244,0.146-0.416,0.402-0.416,0.706c0,0.462,0.374,0.835,0.835,0.835h0.254v0.464h2.311
		c0.122,0.121,0.263,0.208,0.433,0.237c0.048,0.007,0.092,0.011,0.14,0.011c0.406,0,0.753-0.289,0.821-0.692l0.002-0.021h0.147
		c0.002,0.154,0,0.305,0.019,0.464h2.354v-0.463h0.255c0.456,0,0.832-0.371,0.832-0.835c0-0.302-0.172-0.559-0.418-0.705
		c0.246-0.144,0.418-0.4,0.418-0.707c0-0.459-0.374-0.833-0.832-0.833h-0.209l2.355-3.113c0.099-0.119,0.16-0.264,0.16-0.424v-4.875
		C27.09-1.808,26.78-2.118,26.398-2.118z M17.633,7.821c0-0.229,0.187-0.415,0.414-0.415h2.731l-0.146,0.833h-2.586
		C17.82,8.237,17.633,8.052,17.633,7.821z M17.633,9.233c0-0.227,0.187-0.417,0.414-0.417h2.487l-0.144,0.834h-2.344
		C17.82,9.651,17.633,9.466,17.633,9.233z M21.593,10.018c-0.036,0.229-0.273,0.378-0.478,0.342c-0.11-0.02-0.206-0.08-0.271-0.169
		c-0.066-0.092-0.09-0.202-0.07-0.311l0.459-2.668c0.035-0.202,0.21-0.346,0.416-0.346c0.021,0,0.044,0,0.065,0.004
		c0.227,0.039,0.379,0.254,0.339,0.48L21.593,10.018z M25.199,9.233c0,0.232-0.188,0.417-0.414,0.417h-2.704l0.145-0.834h2.56
		C25.011,8.818,25.199,9.006,25.199,9.233z M25.199,7.821c0,0.229-0.188,0.415-0.414,0.415h-2.46l0.141-0.816
		c0.002-0.005,0-0.011,0-0.017h2.317C25.011,7.406,25.199,7.593,25.199,7.821z"/>
	<path id="eruption" display="none" fill="#FFFFFF" d="M22.524,1.939c0.831,0.284,1.934,0.619,2.167-0.723
		c0.188-1.043,1.579-0.657,2.171-0.722c1.081-0.125,0.263-2.142-1.084-2.172c-1.367-0.03-1.989,0.569-2.531,1.809
		c-0.263,0.596-0.482,1.045-1.447,0.725c-0.964-0.323-1.673,0.47-1.086,1.447c0.518,0.863-0.008,1.807-0.008,1.807h1.456
		c0,0-0.012-0.536-0.362-1.085C21.391,2.386,21.671,1.647,22.524,1.939z M14.815,10.938c3.743-2.726,4.678-6.499,4.678-6.499h3.846
		c0,0,0.937,3.77,4.677,6.499H14.815z"/>
	<path id="returned" display="none" fill="#FFFFFF" d="M21.028-0.485c0.094,0.59-0.307,1.146-0.891,1.243
		c-0.591,0.098-1.146-0.303-1.243-0.892c-0.098-0.591,0.301-1.146,0.891-1.243C20.37-1.474,20.933-1.075,21.028-0.485z
		 M20.689,3.804l0.959,1.531c0.132,0.213,0.416,0.284,0.636,0.155c0.217-0.129,0.292-0.41,0.172-0.632l-0.243-0.439
		c-0.211-0.375-0.415-0.754-0.625-1.13l-0.426-0.775c-0.05-0.087-0.099-0.188-0.15-0.295c-0.262-0.552-0.674-1.404-1.57-1.324
		c-0.771,0.064-1.551,0.431-2.317,1.083c-0.909,0.718-1.546,1.761-1.576,1.803c-0.028,0.047-0.054,0.093-0.079,0.139
		c-0.002,0.002-0.004,0.002-0.004,0.004l0,0c-0.086,0.161-0.127,0.309-0.021,0.495c0.084,0.149,0.238,0.239,0.409,0.239
		c0.205,0,0.311-0.097,0.41-0.243l0,0c0.002-0.002,0.002-0.002,0.002-0.002c0.029-0.044,0.056-0.091,0.087-0.14
		c0.006-0.007,0.541-0.864,1.365-1.569c0.255-0.198,0.497-0.335,0.725-0.412l-0.184,2.227c-0.019,0.223-0.086,0.601-0.15,0.814
		l-0.41,1.45c-0.056,0.183-0.21,0.488-0.332,0.635l-1.119,1.386c-0.142,0.178-0.301,0.376-0.169,0.653
		c0.077,0.161,0.242,0.266,0.423,0.266c0.217,0,0.331-0.125,0.48-0.284l1.133-1.221C18.316,8,18.577,7.621,18.706,7.353l0.562-1.141
		l2.079,3.49c0.103,0.172,0.234,0.385,0.515,0.385l0,0c0.16,0,0.309-0.082,0.396-0.218c0.147-0.229,0.05-0.437-0.036-0.625
		l-1.681-3.65c-0.066-0.142-0.103-0.434-0.076-0.591L20.689,3.804z M27.687,4.582c0-1.524-1.241-2.761-2.762-2.761H23.75v1.394
		h1.173c0.752,0,1.366,0.612,1.366,1.367c0,0.754-0.614,1.367-1.366,1.367h-0.242V5.201l-2.503,1.445l2.503,1.445v-0.75h0.274V7.339
		C26.46,7.325,27.687,6.095,27.687,4.582z"/>
	<path id="Attack" display="none" fill="#FFFFFF" d="M24.635,5.576l4.108-2.631l-3.971-0.422l1.081-4.614L23.036,0.82l-0.787-3.29
		l-1.18,3.07l-3.22-4.146l1.012,5.195l-2.86-0.636c0,0,0.868,1.665,1.354,2.667l-4.592-0.323l4.156,2.429l-1.193,1.228l1.934-0.353
		l-1.369,4.84l4.066-3.402l1.055,2.63l1.087-2.104l3.508,3.623L24.25,7.401l3.847,0.389L24.635,5.576z"/>
	<g id="affected" display="none">
		<path display="inline" fill="#FFFFFF" d="M18.138-0.838c0,0.597-0.488,1.078-1.081,1.078c-0.595,0-1.081-0.483-1.081-1.078
			s0.484-1.077,1.081-1.077S18.138-1.435,18.138-0.838z M17.169,6.548l0.236,3.981c0,0.139,0.112,0.252,0.25,0.252
			c0.14,0,0.256-0.115,0.256-0.252l0.214-3.979h0.705l-0.727-4.465l1.463,2.917c0.056,0.129,0.204,0.188,0.332,0.136
			c0.13-0.055,0.192-0.202,0.136-0.332c0,0-1.072-2.903-1.341-3.444c-0.264-0.542-0.524-0.871-1.532-0.871h-0.206
			c-1.006,0-1.271,0.328-1.535,0.871c-0.263,0.542-1.338,3.444-1.338,3.444c-0.055,0.132,0.006,0.278,0.134,0.334
			c0.129,0.054,0.278-0.009,0.333-0.137l1.464-2.917l-0.728,4.461h0.704l0.219,3.979c0,0.139,0.113,0.252,0.25,0.252
			c0.143,0,0.257-0.115,0.257-0.252l0.218-3.979H17.169L17.169,6.548z M25.774-1.919c-0.597,0-1.083,0.483-1.083,1.077
			c0,0.597,0.482,1.08,1.083,1.08c0.592,0,1.078-0.483,1.078-1.08C26.852-1.437,26.365-1.919,25.774-1.919z M26.89,4.429l0.07-2.346
			l1.32,2.919c0.053,0.129,0.202,0.188,0.33,0.134c0.133-0.055,0.192-0.202,0.141-0.332c0,0-0.931-2.903-1.194-3.445
			C27.292,0.82,26.884,0.49,25.875,0.49h-0.206c-1.006,0-1.416,0.328-1.681,0.869c-0.262,0.542-1.192,3.443-1.192,3.443
			c-0.059,0.131,0.004,0.277,0.132,0.333s0.28-0.005,0.33-0.134l1.325-2.919l0.065,2.346l-0.208,5.898
			c-0.012,0.234,0.162,0.436,0.396,0.452c0.01,0.002,0.021,0.002,0.032,0.002c0.218,0,0.408-0.171,0.424-0.394l0.479-4.856
			l0.48,4.856c0.014,0.226,0.199,0.394,0.42,0.394c0.012,0,0.021,0,0.03-0.002c0.233-0.018,0.408-0.219,0.394-0.452L26.89,4.429
			L26.89,4.429z M21.415,4.639c-0.368,0-0.664,0.295-0.664,0.66s0.294,0.66,0.664,0.66c0.362,0,0.658-0.295,0.658-0.66
			S21.778,4.639,21.415,4.639z M21.415,8.535c0,0,0.296,2.068,0.296,2.07c0.04,0.104,0.135,0.174,0.254,0.174
			c0.116,0,0.219-0.08,0.255-0.186c0-0.008,0.008-0.128,0-0.149l-0.122-2.542l0.04-0.874c0.034-0.297,0.038-0.208,0.376-0.41
			c0.346-0.208,0.933-1.116,0.96-1.161c0.032-0.045,0.085-0.125,0.097-0.177c0.016-0.091-0.046-0.176-0.137-0.196
			c-0.067-0.012-0.126,0.025-0.172,0.071c-0.044,0.052-0.72,0.95-1.225,1.036c-0.114-0.019-0.233-0.076-0.56-0.076h-0.127
			c-0.321,0-0.443,0.061-0.56,0.076c-0.507-0.085-1.181-0.984-1.229-1.036c-0.042-0.046-0.099-0.084-0.169-0.071
			c-0.09,0.021-0.149,0.105-0.132,0.196c0.008,0.05,0.063,0.13,0.09,0.177c0.03,0.044,0.619,0.953,0.961,1.161
			c0.338,0.202,0.349,0.113,0.38,0.41l0.038,0.874l-0.122,2.542c-0.006,0.021,0,0.144,0.004,0.149
			c0.034,0.106,0.135,0.186,0.253,0.186c0.115,0,0.214-0.071,0.25-0.174C21.117,10.604,21.415,8.535,21.415,8.535"/>
	</g>
	<g id="foodsec" display="none">
		<path display="inline" fill="#FFFFFF" d="M28.767,5.66L28.767,5.66c-0.038,1.056-0.398,2.202-0.952,3.258
			c0,0-1.318,2.67-5.461,2.67c-4.145,0-5.484-2.648-5.484-2.648c-0.557-1.062-0.891-2.201-0.935-3.282h0.002
			c0-0.026-0.002-0.055-0.002-0.083c0-0.507,0.315-0.983,0.856-1.393l0.576,0.369c-0.358,0.238-0.563,0.508-0.563,0.791
			c0,1.003,2.483,1.814,5.551,1.814c3.06,0,5.543-0.811,5.543-1.814c0-0.69-1.188-1.293-2.939-1.599l0.01-0.729
			c2.235,0.438,3.8,1.418,3.8,2.561C28.771,5.604,28.769,5.632,28.767,5.66z M18.068,1.35c-0.022,0.17-0.048,0.442,0.16,0.813
			c0.26,0.447,0.592,0.603,0.698,0.68c-0.018-0.117,0.014-0.462-0.23-0.882c-0.208-0.375-0.438-0.543-0.574-0.673
			c-0.38-0.552-0.816-0.997-1.145-1.345L16.19-0.873c0,0,0.284,0.326,0.752,0.843C17.269,0.332,17.694,0.79,18.068,1.35z
			 M20.032,5.666c0.168,0.157,0.38,0.416,0.853,0.679c0.53,0.295,0.975,0.295,1.125,0.33c-0.082-0.139-0.255-0.575-0.837-0.899
			c-0.48-0.264-0.836-0.213-1.057-0.175C19.39,5.179,18.77,4.747,18.27,4.44C17.557,4,17.093,3.774,17.095,3.774
			c-0.002,0,0.448,0.247,1.146,0.708C18.724,4.805,19.321,5.24,20.032,5.666z M20.459,3.364c-0.061,0.195-0.141,0.511,0.044,0.973
			c0.218,0.567,0.588,0.805,0.7,0.909c0.004-0.137,0.1-0.53-0.108-1.062c-0.184-0.475-0.424-0.708-0.561-0.885
			c-0.359-0.708-0.796-1.297-1.13-1.755l-0.803-1.082l0.759,1.104C19.685,2.042,20.111,2.648,20.459,3.364z M19.113,4.514
			c0.157,0.145,0.361,0.383,0.808,0.618c0.501,0.263,0.917,0.251,1.055,0.279c-0.084-0.124-0.254-0.525-0.802-0.813
			c-0.45-0.236-0.783-0.183-0.989-0.146c-0.678-0.379-1.261-0.77-1.732-1.051C16.779,3,16.343,2.798,16.347,2.796
			c-0.004,0.004,0.421,0.227,1.078,0.648C17.877,3.732,18.442,4.131,19.113,4.514z M18.152,3.381
			c0.15,0.131,0.342,0.349,0.757,0.556c0.468,0.236,0.854,0.22,0.982,0.243c-0.08-0.115-0.244-0.478-0.757-0.735
			c-0.418-0.211-0.727-0.157-0.914-0.12c-0.635-0.342-1.183-0.695-1.622-0.952c-0.627-0.366-1.032-0.55-1.03-0.552
			c-0.002,0.002,0.395,0.207,1.009,0.589C16.997,2.675,17.526,3.036,18.152,3.381z M17.173,1.732
			c0.278,0.25,0.546,0.265,0.698,0.313c-0.032-0.122-0.006-0.425-0.326-0.708c-0.271-0.235-0.548-0.253-0.688-0.266
			c-1.126-0.966-2.128-1.584-2.357-1.732L14.45-0.695c-0.01,0.007,1.089,0.731,2.379,1.864C16.871,1.308,16.945,1.54,17.173,1.732z
			 M17.154,2.266c0.14,0.117,0.317,0.314,0.704,0.5c0.43,0.213,0.788,0.193,0.906,0.212c-0.076-0.102-0.234-0.43-0.704-0.664
			c-0.391-0.188-0.673-0.141-0.847-0.106c-0.588-0.304-1.091-0.631-1.501-0.86c-0.582-0.331-0.957-0.496-0.957-0.496
			s0.368,0.181,0.933,0.534C16.083,1.621,16.573,1.95,17.154,2.266z M19.296,2.326c-0.042,0.181-0.094,0.477,0.104,0.893
			c0.242,0.509,0.594,0.702,0.706,0.795c-0.006-0.126,0.05-0.495-0.174-0.975c-0.202-0.424-0.438-0.628-0.572-0.776
			C18.984,1.63,18.55,1.113,18.214,0.71l-0.797-0.948l0.761,0.973C18.506,1.152,18.93,1.686,19.296,2.326z M23.725,3.409
			c-0.127,0.125-0.326,0.332-0.389,0.761c-0.076,0.523,0.094,0.853,0.132,0.98c0.063-0.104,0.307-0.365,0.381-0.855
			c0.065-0.439-0.013-0.717-0.04-0.904c0.038-0.688-0.042-1.319-0.101-1.807c-0.086-0.71-0.147-1.153-0.147-1.153l0.105,1.153
			C23.708,2.081,23.771,2.72,23.725,3.409z M23.319,2.238c-0.112,0.125-0.28,0.328-0.313,0.729c-0.038,0.49,0.142,0.786,0.187,0.9
			c0.046-0.101,0.26-0.358,0.298-0.817c0.03-0.41-0.059-0.662-0.099-0.836C23.388,1.579,23.281,1,23.198,0.552l-0.194-1.057
			l0.16,1.059C23.228,1.013,23.321,1.597,23.319,2.238z M22.846,1.091c-0.094,0.12-0.234,0.321-0.238,0.691
			c-0.008,0.452,0.181,0.712,0.229,0.815C22.874,2.5,23.05,2.25,23.058,1.827c0.004-0.381-0.094-0.604-0.14-0.761
			C22.87,0.48,22.74-0.042,22.64-0.449L22.4-1.41l0.204,0.965C22.686-0.03,22.808,0.501,22.846,1.091z M23.676,6.45
			c0.072-0.106,0.356-0.367,0.475-0.89c0.103-0.464,0.036-0.768,0.018-0.974c0.085-0.738,0.04-1.422,0.011-1.948
			c-0.05-0.769-0.093-1.249-0.093-1.249l0.04,1.247c0.022,0.535,0.047,1.225-0.05,1.963c-0.144,0.127-0.368,0.335-0.468,0.791
			C23.487,5.944,23.647,6.309,23.676,6.45z M21.323,0.336c0.058,0.131,0.114,0.339,0.328,0.602c0.238,0.301,0.5,0.4,0.58,0.454
			c-0.02-0.101-0.016-0.391-0.276-0.72c-0.216-0.267-0.436-0.326-0.572-0.356c-0.313-0.422-0.564-0.824-0.778-1.127
			c-0.3-0.439-0.517-0.683-0.514-0.684c-0.003,0.001,0.199,0.256,0.483,0.699C20.777-0.49,21.011-0.084,21.323,0.336z M21.524-0.048
			c0.118,0.276,0.302,0.377,0.394,0.46c0.019-0.1,0.146-0.313,0.019-0.626c-0.112-0.264-0.309-0.368-0.406-0.422
			c-0.471-1.084-0.971-1.868-1.087-2.053l-0.025-0.041c-0.009,0.003,0.528,0.899,1.058,2.156
			C21.457-0.459,21.429-0.266,21.524-0.048z M21.995,2.147c0.252,0.326,0.538,0.444,0.625,0.503
			c-0.015-0.112-0.007-0.433-0.284-0.792c-0.23-0.293-0.469-0.358-0.619-0.393c-0.34-0.46-0.61-0.901-0.834-1.233
			c-0.324-0.475-0.548-0.744-0.548-0.745c0,0,0.212,0.281,0.518,0.765c0.212,0.333,0.465,0.772,0.795,1.237
			C21.709,1.632,21.772,1.854,21.995,2.147z M22.306-0.03c-0.076,0.119-0.19,0.308-0.174,0.647c0.029,0.415,0.216,0.639,0.266,0.73
			c0.026-0.089,0.172-0.333,0.148-0.724c-0.022-0.345-0.126-0.543-0.179-0.685c-0.08-0.529-0.235-1.001-0.35-1.363l-0.28-0.86
			c0,0,0.088,0.332,0.246,0.868C22.085-1.043,22.234-0.566,22.306-0.03z M21.942,2.637c0.063,0.159,0.126,0.399,0.364,0.718
			c0.266,0.357,0.568,0.488,0.662,0.555c-0.016-0.122,0.002-0.47-0.29-0.865c-0.242-0.322-0.498-0.392-0.662-0.431
			c-0.356-0.505-0.641-0.982-0.879-1.345c-0.344-0.516-0.586-0.811-0.586-0.812c0,0.001,0.226,0.308,0.55,0.833
			C21.327,1.654,21.591,2.132,21.942,2.637z M18.466,5.792c0,0.002,0.396,0.226,1.015,0.664c0.044,0.008,0.086,0.019,0.132,0.027
			C18.918,6.022,18.466,5.792,18.466,5.792z M23.408,6.66c-0.09-0.142-0.187-0.25-0.282-0.332c-0.034-0.089-0.066-0.172-0.104-0.247
			c0.208,0.215,0.406,0.321,0.48,0.38c0-0.007,0-0.022,0-0.034c0.024,0.082,0.046,0.169,0.074,0.256
			c0.04-0.002,0.082-0.006,0.118-0.008c-0.072-0.248-0.152-0.49-0.24-0.717c-0.03-0.124-0.08-0.256-0.162-0.402
			c-0.078-0.178-0.156-0.351-0.232-0.515c0.095,0.065,0.17,0.108,0.208,0.137c-0.008-0.129,0.021-0.507-0.286-0.937
			C22.8,3.988,22.61,3.876,22.449,3.815l-0.486-0.948c0,0,0.158,0.345,0.433,0.928c-0.044-0.012-0.08-0.026-0.114-0.034
			c-0.374-0.55-0.67-1.068-0.922-1.458c-0.358-0.562-0.614-0.88-0.612-0.88c0,0.002,0.237,0.33,0.578,0.901
			c0.231,0.392,0.51,0.91,0.874,1.459c0.063,0.169,0.124,0.431,0.372,0.779c0.116,0.163,0.236,0.282,0.354,0.374
			c0.04,0.094,0.084,0.193,0.128,0.299c-0.208-0.212-0.422-0.277-0.564-0.32c-0.042-0.064-0.08-0.128-0.118-0.19
			c-0.242-0.518-0.5-0.974-0.718-1.355c-0.479-0.834-0.791-1.345-0.788-1.345l0.729,1.369c0.059,0.102,0.114,0.215,0.177,0.328
			c-0.08-0.136-0.156-0.266-0.227-0.385c-0.374-0.603-0.645-0.943-0.645-0.945c0,0.002,0.248,0.355,0.603,0.971
			c0.206,0.362,0.448,0.826,0.742,1.324c0.135,0.292,0.257,0.6,0.366,0.927c-0.027,0.065-0.065,0.149-0.092,0.247
			c-0.33-0.563-0.601-1.086-0.838-1.487c-0.078-0.134-0.15-0.25-0.215-0.36c-0.302-0.619-0.646-1.151-0.926-1.579
			c-0.482-0.75-0.795-1.212-0.795-1.212l0.748,1.235c0.32,0.531,0.739,1.212,1.063,2.004c-0.073,0.206-0.186,0.54-0.02,1.051
			c0.196,0.623,0.574,0.904,0.688,1.026c0.008-0.137,0.124-0.515-0.014-1.05c0.086,0.161,0.176,0.326,0.273,0.498
			c-0.038,0.193-0.048,0.436,0.028,0.742c0.306-0.002,0.614-0.011,0.91-0.032C23.42,6.684,23.416,6.675,23.408,6.66z M19.046,5.503
			c-0.755-0.483-1.247-0.727-1.245-0.729c-0.002,0,0.477,0.268,1.211,0.773c0.431,0.294,0.95,0.683,1.547,1.082
			c0.076,0.009,0.15,0.015,0.225,0.022C20.111,6.23,19.525,5.81,19.046,5.503z M24.473,5.801c0.146-0.782,0.13-1.52,0.13-2.086
			L24.581,2.37c0,0-0.015,0.512-0.024,1.339c-0.018,0.579-0.028,1.318-0.18,2.101c-0.169,0.125-0.417,0.335-0.561,0.812
			c-0.004,0.017-0.006,0.03-0.012,0.045c0.216-0.021,0.43-0.045,0.634-0.073C24.509,6.24,24.477,5.983,24.473,5.801z"/>
	</g>
	<g id="funding">
		<path fill="#FFFFFF" d="M23.596,4.703L21.153,6.98H12.34L9.892,4.703c0,0,1.22-1.703,3.224-1.927
			c1.961-0.22,2.643,0.986,3.63,1.037c0.983-0.051,1.668-1.254,3.628-1.037C22.38,3,23.596,4.703,23.596,4.703z M17.085,15.632
			v1.721c0.261-0.043,0.471-0.143,0.637-0.307c0.16-0.166,0.243-0.357,0.243-0.575c0-0.196-0.072-0.366-0.209-0.505
			C17.623,15.82,17.399,15.71,17.085,15.632z M15.651,13.432c0,0.158,0.056,0.299,0.17,0.433c0.111,0.136,0.279,0.244,0.503,0.326
			v-1.524c-0.203,0.056-0.369,0.158-0.489,0.298C15.714,13.109,15.651,13.26,15.651,13.432z M25.084,19.338
			c0,0-0.535,2.034-2.979,2.034H11.389c-2.447,0-2.98-2.034-2.98-2.034c-1.596-7.062,3.269-10.891,3.269-10.891h10.138
			C21.816,8.448,26.678,12.276,25.084,19.338z M19.243,16.31c0-0.478-0.152-0.865-0.458-1.169c-0.298-0.306-0.865-0.548-1.7-0.743
			v-1.72c0.337,0.121,0.543,0.358,0.626,0.703l1.319-0.145c-0.089-0.438-0.298-0.791-0.624-1.052
			c-0.332-0.26-0.773-0.422-1.321-0.477v-0.436h-0.76v0.436c-0.599,0.05-1.076,0.236-1.438,0.564
			c-0.362,0.328-0.539,0.732-0.539,1.214c0,0.478,0.158,0.88,0.478,1.217c0.318,0.33,0.821,0.577,1.499,0.744v1.841
			c-0.187-0.074-0.358-0.198-0.509-0.369c-0.155-0.172-0.259-0.374-0.315-0.608l-1.359,0.125c0.105,0.576,0.342,1.027,0.72,1.34
			c0.376,0.321,0.864,0.508,1.464,0.569v0.798h0.763v-0.818c0.676-0.083,1.208-0.307,1.588-0.669
			C19.054,17.291,19.243,16.841,19.243,16.31z"/>
	</g>
</g>
</svg>
