<?xml version="1.0" encoding="utf-8"?>
<!-- Generator: Adobe Illustrator 16.0.0, SVG Export Plug-In . SVG Version: 6.00 Build 0)  -->
<!DOCTYPE svg PUBLIC "-//W3C//DTD SVG 1.1//EN" "http://www.w3.org/Graphics/SVG/1.1/DTD/svg11.dtd">
<svg version="1.1" id="Layer_1" xmlns="http://www.w3.org/2000/svg" xmlns:xlink="http://www.w3.org/1999/xlink" x="0px" y="0px"
	 width="33.35px" height="40px" viewBox="0 0 33.35 40" enable-background="new 0 0 33.35 40" xml:space="preserve">
<g id="PinColor">
	<path id="PinOmbre" opacity="0.3" enable-background="new    " d="M28.793,30.439c0,1.76-3.864,3.238-9.065,3.627
		c-0.878,0.066-2.732,4.195-2.732,4.195s-1.92-4.131-2.827-4.201c-5.149-0.4-8.973-1.871-8.973-3.621
		c0-2.061,5.283-3.731,11.8-3.731C23.511,26.708,28.793,28.378,28.793,30.439z"/>
	<path id="vert" display="none" fill="#2ABF00" stroke="#1D7500" stroke-width="0.2" stroke-miterlimit="10" d="M28.793,13.123
		c0,5.391-3.864,9.91-9.065,11.105c-0.878,0.197-2.732,12.838-2.732,12.838s-1.92-12.641-2.827-12.863
		C9.019,22.98,5.196,18.481,5.196,13.12c0-6.303,5.283-11.412,11.8-11.412C23.511,1.708,28.793,6.82,28.793,13.123z"/>
	<path id="orange" display="none" fill="#FF8500" stroke="#7F4500" stroke-width="0.2" stroke-miterlimit="10" d="M28.793,13.123
		c0,5.391-3.864,9.91-9.065,11.105c-0.878,0.197-2.732,12.838-2.732,12.838s-1.92-12.641-2.827-12.863
		C9.019,22.98,5.196,18.481,5.196,13.12c0-6.303,5.283-11.412,11.8-11.412C23.511,1.708,28.793,6.82,28.793,13.123z"/>
	<path id="gris" display="none" fill="#A5A5A5" stroke="#595959" stroke-width="0.2" stroke-miterlimit="10" d="M28.793,13.123
		c0,5.391-3.864,9.91-9.065,11.105c-0.878,0.197-2.732,12.838-2.732,12.838s-1.92-12.641-2.827-12.863
		C9.019,22.98,5.196,18.481,5.196,13.12c0-6.303,5.283-11.412,11.8-11.412C23.511,1.708,28.793,6.82,28.793,13.123z"/>
	<path id="bleu" fill="#0092FF" stroke="#00477C" stroke-width="0.2" stroke-miterlimit="10" d="M28.793,13.123
		c0,5.391-3.864,9.91-9.065,11.105c-0.878,0.197-2.732,12.838-2.732,12.838s-1.92-12.641-2.827-12.863
		C9.019,22.98,5.196,18.481,5.196,13.12c0-6.303,5.283-11.412,11.8-11.412C23.511,1.708,28.793,6.82,28.793,13.123z"/>
</g>
<g id="Icons">
	<g id="Minimal">
		<path id="Election" display="none" fill="#565656" d="M28.864-0.779l-4.069-1.745c-0.121-0.051-0.261-0.017-0.341,0.087
			l-1.166,1.454c-0.052,0.065-0.072,0.157-0.056,0.242c0.02,0.082,0.071,0.15,0.145,0.188l-3.648,1.369
			C19.42,0.93,19.159,1.146,18.99,1.428l-1.206,2.013c-0.257,0.427-0.278,0.949-0.055,1.396l0.087,0.171h-1.272
			c-0.16,0-0.291,0.13-0.291,0.291v5.521H15.38c-0.161,0-0.288,0.13-0.288,0.29c0,0.161,0.127,0.291,0.288,0.291h9.884
			c0.159,0,0.285-0.13,0.285-0.291c0-0.16-0.126-0.29-0.285-0.29H24.39V7.851c0-0.098-0.053-0.194-0.134-0.244
			c-0.085-0.055-0.19-0.062-0.28-0.02c-0.32,0.15-0.555,0.227-0.667,0.259c-0.024,0.006-0.047,0.016-0.067,0.032l-1.894,1.134
			c-0.302,0.182-0.645,0.277-0.993,0.277c-0.645,0-1.245-0.32-1.613-0.864c-0.292-0.436-0.392-0.962-0.283-1.475
			c0.109-0.512,0.414-0.951,0.853-1.233l0.275-0.174c0.202-0.122,0.381-0.234,0.541-0.333c0.111-0.07,0.163-0.206,0.125-0.332
			c-0.07-0.233-0.192-0.441-0.306-0.6c0.445-0.195,1.046-0.541,1.346-0.891c0,0,0.004,0.002,0.006,0.002
			c0.063,0.039,0.137,0.08,0.223,0.121c0.005,0.001,0.007,0.003,0.015,0.005l0,0c0.217,0.105,0.491,0.21,0.805,0.272
			c-0.337,0.418-0.682,0.941-0.807,1.289c-0.24,0.106-0.741,0.389-1.908,1.133c-0.311,0.197-0.522,0.502-0.595,0.861
			c-0.078,0.358-0.01,0.726,0.197,1.031c0.26,0.39,0.686,0.605,1.129,0.605c0.236,0,0.478-0.063,0.693-0.192l1.998-1.2
			c0.311-0.076,1.865-0.541,3.042-2.444c0.923-1.492,1.439-2.693,1.654-3.238l0.036,0.019c0.121,0.061,0.254,0.091,0.388,0.091
			c0.223,0,0.444-0.089,0.607-0.245c0.172-0.163,0.265-0.387,0.265-0.627v-1.384C29.035-0.628,28.969-0.735,28.864-0.779z"/>
	</g>
	<g id="Faible">
		<path id="Famine" display="none" fill="#F9F9F9" d="M26.245,9.921l-2.31,0.438l-3.773-2.051l1.371-1.711L24.62,7.62L26.245,9.921z
			 M29.795,5.912v0.256l-2.431,0.771l-2.401,0.341l-3.087-1.026l-0.726-0.342h0.415c-0.099-0.917-0.231-1.612-0.296-2.523h-0.002
			c-0.002-0.027-0.034-0.637-0.042-0.896c-0.047-0.275-0.179-0.383-0.607-0.678c-0.234-0.151-0.409-0.206-0.508-0.204
			c-0.157,0-0.297,0.171-0.329,0.683c0.687,0.117,0.734,0.876,0.734,0.876c0.061,0.54-0.205,1.329-0.816,1.534
			c-1.13,0.377-1.014-1.799-0.377-2.321c0.018-0.626,0.193-1.202,0.788-1.224c0.237,0.002,0.478,0.098,0.757,0.275
			c0.132,0.08,0.239,0.162,0.335,0.245c-0.012-0.207-0.023-0.418-0.023-0.635c-0.002-0.456,0.069-0.955,0.475-1.307
			c0.209-0.19,0.445-0.289,0.675-0.287c0.604,0.03,0.978,0.55,1.196,1.081c0.254-0.11,0.57-0.165,0.935-0.039
			c0.928,0.323,1.43,1.941,1.04,2.506c-0.915,1.314-3.22-1.133-2.61-1.987c0,0,0.089-0.117,0.247-0.245
			c-0.179-0.472-0.539-0.893-0.808-0.863c-0.102,0.002-0.222,0.038-0.373,0.172c-0.256,0.225-0.323,0.546-0.323,0.968
			c0,0.297,0.036,0.627,0.036,0.958c0,0.172,0.011,0.324,0.018,0.49c0.041,0.295,0.043,0.521,0.041,0.833
			c0.063,0.907,0.431,1.651,0.526,2.587L29.795,5.912L29.795,5.912z M23.304,0.947l1.746,1.901C24.74,1.5,23.632,0.748,23.632,0.748
			L23.304,0.947z M19.687,2.579l-0.313,0.128c0,0-0.154,1.064,0,1.619L19.687,2.579z M18.123,8.994L19.51,8.16l1.446-1.79
			l-0.451-0.459H17.31l-0.634,1.266L18.123,8.994z M19.741,8.706l-2.458,1.674l0.326,0.405h5.657l-0.019-0.083L19.741,8.706z
			 M14.683,5.912v1.929l1.576-0.845l0.477-1.085L14.683,5.912L14.683,5.912z M25.42,7.693l1.522,2.211l2.852,0.669v-2.53
			l-2.052-0.661L25.42,7.693z M29.795,7.491V6.599l-1.599,0.433L29.795,7.491z M16.298,7.615l-1.615,0.768v2.401h1.181l1.759-1.439
			L16.298,7.615z M24.753,10.785h3.69l-1.767-0.427L24.753,10.785z"/>
		<path id="Cyclone" display="none" fill="#FFFFFF" d="M22.298,0.72c-0.077-0.004-0.154-0.014-0.232-0.014
			c-0.694,0-1.345,0.181-1.911,0.493c1.012-3.448,3.536-3.749,3.536-3.749s-5.577,0.467-5.577,6.976c0.003,0,0.008,0,0.013,0
			c-0.005,0.078-0.013,0.153-0.013,0.233c0,0.689,0.181,1.341,0.492,1.909c-3.446-1.012-3.749-3.535-3.749-3.535
			s0.465,5.58,6.975,5.58c0-0.006,0-0.007,0-0.014c0.076,0.004,0.154,0.014,0.233,0.014c0.692,0,1.344-0.182,1.909-0.495
			c-1.012,3.449-3.538,3.75-3.538,3.75s5.58-0.467,5.58-6.976c-0.005,0-0.009,0-0.013,0c0.004-0.078,0.013-0.153,0.013-0.231
			c0-0.693-0.181-1.344-0.495-1.91c3.447,1.012,3.749,3.537,3.749,3.537s-0.462-5.581-6.974-5.581
			C22.298,0.713,22.298,0.717,22.298,0.72z"/>
		<path id="tsunami" display="none" fill="#FFFFFF" d="M29.073,9.251C17.592,9.902,20.8,1.12,23.779,1.877
			c-0.308,0.188-0.504,0.833-0.314,1.269c0.208,0.464,0.878,0.731,1.265,0.634c0.925-0.238,0.966-1.537,0.633-2.219
			c-0.345-0.708-1.258-1.583-2.851-1.583c-3.845,0-6.468,1.962-7.455,5.338v4.964h14.018L29.073,9.251L29.073,9.251z"/>
		<path id="earthquake" display="none" fill="#FFFFFF" d="M26.151,5.093c-0.196,0-0.377,0.108-0.47,0.283l-0.766,1.443l-0.943-2.765
			c-0.074-0.208-0.267-0.35-0.486-0.361c-0.228-0.005-0.425,0.123-0.512,0.326l-0.646,1.537l-1.02-6.121
			c-0.05-0.256-0.29-0.451-0.535-0.438c-0.263,0.005-0.481,0.179-0.514,0.439L19.355,6.54l-0.731-3.812
			c-0.041-0.224-0.226-0.396-0.452-0.427c-0.227-0.031-0.452,0.09-0.55,0.296l-1.198,2.496h-1.86v1.063h2.195
			c0.205,0,0.394-0.119,0.483-0.3l0.642-1.341l1.039,5.406c0.049,0.251,0.267,0.434,0.522,0.434c0.005,0,0.011,0,0.014,0
			c0.261-0.008,0.479-0.204,0.515-0.462l0.889-6.979l0.743,4.594c0.044,0.232,0.231,0.407,0.466,0.435
			c0.236,0.021,0.459-0.107,0.552-0.324L23.42,5.72l0.888,2.604c0.068,0.201,0.248,0.343,0.459,0.361
			c0.212,0.012,0.415-0.094,0.515-0.281l1.191-2.248h2.283V5.093H26.151z"/>
	</g>
	<g id="Modéré">
	</g>
	<g id="Important">
	</g>
	<g id="Elevé">
	</g>
	<g id="Extreme" display="none">
		<path id="rebelion" display="inline" fill="#FFFFFF" d="M24.24,0.916c0,1.282-1.04,2.319-2.318,2.319
			c-1.284,0-2.322-1.04-2.322-2.319c0-1.283,1.038-2.32,2.322-2.32C23.201-1.404,24.24-0.367,24.24,0.916z M18.047,10.756h1.418
			h0.075l0.052-0.109l0.516-0.504l-0.476-0.102L18.879,9.88L18.047,10.756z M27.752,1.346l-0.496,0.498l0.032,0.033l-0.401,0.406
			c0.053,0.049,0.105,0.099,0.148,0.157l0.406-0.405l0.084,0.075l0.49-0.5L27.752,1.346z M24.55,3.92l-0.215,0.212l0.024,0.061
			l0.05,0.113l-3.383,3.392l0.363,0.078c0.332,0.069,0.621,0.27,0.809,0.559c0.024,0.041,0.032,0.091,0.053,0.135l0.01-0.012
			l0.25,0.165l0.089-0.02l0.987,0.715l0.662-0.908l-1.469-1.147l0.031-0.095h0.242l1.443-1.691l0.161-1.516L24.55,3.92z M26.12,2.42
			c-0.438-0.048-0.863,0.279-0.915,0.733L25.15,3.648l0,0l-0.035,0.357l-0.159,1.517l-0.017,0.142l-0.091,0.108l-1.291,1.513
			l0.974,0.763l0.35,0.274l-0.203,0.278l0.051,0.103c0.134,0.291,0.43,0.472,0.749,0.472c0.045,0,0.091-0.002,0.138-0.011
			c0.364-0.063,0.645-0.359,0.685-0.726l0.552-5.103C26.904,2.878,26.573,2.467,26.12,2.42z M24.432,8.937l-0.474,0.652
			l-0.271,0.373l-0.37-0.271L22.499,9.1l-0.072,0.019l-0.029-0.021c0,0.07-0.002,0.137-0.019,0.208
			c-0.015,0.068-0.04,0.13-0.064,0.194c-0.052,0.121-0.118,0.224-0.197,0.321l0.057,0.13c0.059,0.13,0.138,0.299,0.232,0.446
			l0.227,0.355h1.744L24.432,8.937z M21.117,10.326c-0.02,0-0.04-0.005-0.06-0.007c-0.01,0.037-0.016,0.064-0.016,0.064l0.197,0.371
			h0.472l0.306-0.106c-0.105-0.162-0.188-0.335-0.266-0.51C21.561,10.248,21.351,10.326,21.117,10.326z M21.799,8.571
			c-0.033-0.052-0.085-0.093-0.132-0.135c-0.026-0.025-0.051-0.062-0.084-0.082c-0.085-0.061-0.187-0.105-0.292-0.13L20.93,8.15
			l-0.824-0.177l0,0l-0.729-0.155l-0.284-0.06l-0.469-0.103L18.594,7.65l0.073-0.076l0.317-0.313l0.337-0.341
			c0.027,0.233,0.042,0.417,0.042,0.422l0.109,0.022l1.022,0.219l0.209-0.21l3.165-3.178l-0.072-0.177l0.027-0.021
			c-0.459-0.138-0.999-0.217-1.68-0.217h-0.224c0,0-0.221,0-0.223,0c-0.478,0-0.96,0.032-1.432,0.137
			c-0.812,0.182-1.314,0.977-1.869,1.523c-0.574,0.563-1.129,1.15-1.686,1.728c-0.122,0.13-0.245,0.262-0.372,0.39
			c-0.214,0.215-0.292,0.53-0.207,0.823c0.084,0.291,0.324,0.511,0.621,0.576l1.096,0.234l0.464,0.098l2.631,0.561
			c0.059,0.009,0.117,0.019,0.175,0.019c0.383,0,0.726-0.268,0.809-0.656c0.031-0.153,0.009-0.298-0.037-0.435l-0.052-0.105
			C21.824,8.642,21.814,8.609,21.799,8.571z M20.638,10.596l-0.078-0.149l0.04-0.167l0.007-0.031L20.48,10.22l-0.464,0.534h0.704
			L20.638,10.596z"/>
	</g>
	<path id="displaced" display="none" fill="#FFFFFF" d="M22.862-1.087c0.112,0.717-0.368,1.388-1.08,1.504
		c-0.712,0.118-1.39-0.364-1.507-1.077c-0.117-0.714,0.363-1.389,1.081-1.507C22.068-2.282,22.741-1.798,22.862-1.087z
		 M22.451,4.106l1.158,1.851c0.164,0.26,0.505,0.344,0.77,0.19c0.267-0.16,0.358-0.497,0.212-0.767l-0.295-0.532
		c-0.258-0.454-0.508-0.912-0.762-1.368l-0.514-0.936c-0.06-0.11-0.117-0.233-0.179-0.361c-0.316-0.668-0.813-1.699-1.901-1.606
		c-0.931,0.082-1.877,0.524-2.808,1.315c-1.102,0.868-1.871,2.131-1.9,2.185c-0.038,0.055-0.071,0.113-0.098,0.165
		c-0.004,0.002-0.004,0.003-0.006,0.005l0,0c-0.105,0.195-0.156,0.373-0.027,0.6c0.103,0.178,0.292,0.287,0.495,0.287
		c0.251,0,0.376-0.119,0.498-0.293l0,0c0.002,0,0.002-0.004,0.002-0.004c0.034-0.051,0.066-0.106,0.107-0.165
		c0.005-0.01,0.651-1.047,1.65-1.899c0.309-0.243,0.602-0.409,0.877-0.499l-0.223,2.694c-0.023,0.266-0.107,0.727-0.18,0.983
		l-0.502,1.757c-0.065,0.22-0.252,0.588-0.399,0.768l-1.355,1.679c-0.171,0.213-0.364,0.454-0.205,0.789
		c0.095,0.199,0.294,0.325,0.514,0.325c0.261,0,0.405-0.15,0.58-0.342l1.369-1.479c0.245-0.264,0.565-0.723,0.723-1.046l0.681-1.383
		l2.515,4.224c0.121,0.208,0.278,0.47,0.618,0.47l0,0c0.196,0,0.376-0.101,0.478-0.262c0.186-0.279,0.063-0.533-0.042-0.763
		l-2.032-4.417c-0.077-0.174-0.123-0.526-0.09-0.716L22.451,4.106z M24.582,8.702h3.048v0.905l3.026-1.748L27.63,6.11v0.905h-3.048
		V8.702z"/>
	<path id="epidemie" display="none" fill="#FFFFFF" d="M28.055,5.242c0-3.284-2.573-5.953-5.812-6.121
		c1.431,0.136,2.546,1.174,2.546,2.438c0,0.435-0.146,0.833-0.376,1.188c-0.641-0.636-1.518-1.028-2.49-1.028
		c-0.971,0-1.85,0.392-2.486,1.027c-0.228-0.354-0.372-0.752-0.372-1.188c0-1.261,1.113-2.302,2.541-2.438
		c-3.238,0.167-5.81,2.839-5.81,6.122c0,0.989,0.241,1.923,0.656,2.752c-0.568-1.296-0.223-2.753,0.858-3.377
		c0.377-0.217,0.798-0.295,1.217-0.271c-0.08,0.289-0.133,0.59-0.133,0.904c0,1.63,1.115,2.991,2.618,3.396
		c-0.021,0.035-0.047,0.069-0.066,0.103c0,0.003,0,0.003,0,0.008c-0.05,0.112-0.113,0.202-0.188,0.28
		c-0.16,0.212-0.349,0.399-0.588,0.538c-1.085,0.626-2.529,0.192-3.363-0.962c1.097,1.665,2.979,2.768,5.119,2.768
		c2.12,0,3.989-1.079,5.092-2.718c-0.84,1.118-2.258,1.53-3.327,0.917c-0.379-0.221-0.655-0.552-0.845-0.934
		c1.503-0.405,2.61-1.768,2.61-3.394c0-0.315-0.052-0.615-0.132-0.904c0.426-0.027,0.846,0.05,1.226,0.27
		c1.05,0.605,1.405,1.995,0.903,3.264C27.836,7.078,28.055,6.187,28.055,5.242z M22.576,7.602c-0.026-0.511,0.082-1.045,0.338-1.552
		l-0.41-0.234c-0.146,0.151-0.35,0.245-0.579,0.245c-0.226,0-0.433-0.092-0.579-0.245l-0.4,0.229
		c0.256,0.509,0.363,1.049,0.336,1.56c-1.038-0.284-1.808-1.229-1.808-2.354c0-0.216,0.035-0.418,0.088-0.617
		c0.453,0.229,0.864,0.586,1.179,1.058l0.408-0.238c-0.018-0.069-0.043-0.136-0.043-0.211c0-0.379,0.262-0.685,0.614-0.777V3.999
		c-0.569-0.037-1.085-0.213-1.514-0.492c0.445-0.438,1.048-0.705,1.717-0.705c0.668,0,1.274,0.27,1.719,0.707
		c-0.429,0.279-0.943,0.454-1.514,0.49v0.467c0.353,0.092,0.613,0.398,0.613,0.777c0,0.076-0.022,0.142-0.039,0.211l0.415,0.242
		c0.312-0.471,0.724-0.827,1.173-1.055c0.049,0.193,0.085,0.398,0.085,0.609C24.375,6.374,23.612,7.314,22.576,7.602z"/>
	<path id="enlevement" display="none" fill="#FFFFFF" d="M27.036-2.084c-0.379,0-0.689,0.311-0.689,0.692v2.815
		c0.166,0.037,0.326,0.107,0.455,0.234c0.361,0.359,0.373,0.948,0.017,1.317L25.51,4.32l-0.183-0.175l1.314-1.344
		c0.264-0.272,0.256-0.704-0.013-0.97c-0.085-0.08-0.185-0.135-0.288-0.165c-0.118-0.031-0.233-0.033-0.348-0.009
		c-0.127,0.032-0.24,0.096-0.329,0.192c-0.777,0.796-1.558,1.595-2.334,2.393c-0.195,0.2-0.552,0.657-0.54,1.113
		c0.007,0.429-0.006,0.871,0.002,1.301c-0.103-0.082-0.226-0.142-0.364-0.168c-0.401-0.065-0.763,0.173-0.902,0.532h-0.201
		c0-0.098,0-0.197,0.001-0.294c0.01-0.449-0.008-0.917,0.004-1.368c0.01-0.458-0.348-0.915-0.542-1.115
		c-0.776-0.797-1.554-1.596-2.335-2.395c-0.091-0.097-0.202-0.161-0.331-0.192c-0.114-0.024-0.231-0.021-0.346,0.009
		c-0.105,0.031-0.205,0.087-0.289,0.167c-0.268,0.265-0.273,0.697-0.012,0.971l1.313,1.341l-0.182,0.175l-1.309-1.347
		c-0.358-0.368-0.349-0.957,0.018-1.314c0.127-0.125,0.287-0.197,0.454-0.233v-2.816c0-0.381-0.311-0.692-0.69-0.692
		c-0.384,0-0.692,0.311-0.692,0.692v4.875c0,0.16,0.064,0.305,0.16,0.424l2.354,3.109h-0.209c-0.457,0-0.833,0.373-0.833,0.833
		c0,0.306,0.172,0.562,0.417,0.705C18.031,8.7,17.86,8.957,17.86,9.26c0,0.462,0.373,0.834,0.833,0.834h0.254v0.464h2.311
		c0.121,0.121,0.263,0.208,0.433,0.237c0.048,0.007,0.091,0.011,0.139,0.011c0.406,0,0.752-0.289,0.82-0.691l0.003-0.021h0.147
		c0.002,0.154,0,0.305,0.019,0.464h2.353v-0.463h0.255c0.456,0,0.832-0.37,0.832-0.834c0-0.302-0.173-0.559-0.419-0.705
		c0.246-0.144,0.419-0.4,0.419-0.707c0-0.459-0.374-0.833-0.832-0.833h-0.208l2.354-3.111c0.097-0.119,0.159-0.264,0.159-0.424
		v-4.873C27.728-1.774,27.418-2.084,27.036-2.084z M18.277,7.848c0-0.229,0.188-0.415,0.415-0.415h2.729l-0.145,0.833h-2.584
		C18.464,8.264,18.277,8.079,18.277,7.848z M18.277,9.26c0-0.227,0.188-0.417,0.415-0.417h2.485l-0.145,0.833h-2.341
		C18.464,9.676,18.277,9.492,18.277,9.26z M22.236,10.043c-0.036,0.229-0.274,0.378-0.479,0.342c-0.109-0.02-0.205-0.08-0.27-0.169
		c-0.066-0.092-0.09-0.201-0.07-0.311l0.458-2.666c0.036-0.202,0.21-0.345,0.417-0.345c0.022,0,0.044,0,0.066,0.004
		c0.226,0.039,0.378,0.253,0.338,0.48L22.236,10.043z M25.839,9.26c0,0.231-0.188,0.417-0.415,0.417h-2.702l0.146-0.833h2.557
		C25.651,8.844,25.839,9.033,25.839,9.26z M25.839,7.848c0,0.229-0.188,0.415-0.415,0.415h-2.457l0.141-0.815
		c0.002-0.005,0-0.011,0-0.017h2.315C25.651,7.433,25.839,7.62,25.839,7.848z"/>
	<path id="eruption" display="none" fill="#FFFFFF" d="M23.164,1.97c0.83,0.283,1.933,0.618,2.166-0.722
		c0.188-1.042,1.578-0.656,2.169-0.722c1.08-0.125,0.264-2.141-1.083-2.171c-1.365-0.03-1.987,0.568-2.529,1.807
		c-0.262,0.596-0.481,1.044-1.445,0.724c-0.965-0.322-1.672,0.47-1.087,1.446c0.519,0.863-0.008,1.806-0.008,1.806h1.455
		c0,0-0.011-0.536-0.361-1.084C22.032,2.416,22.314,1.678,23.164,1.97z M15.46,10.963c3.741-2.724,4.676-6.494,4.676-6.494h3.843
		c0,0,0.936,3.768,4.673,6.494H15.46z"/>
	<path id="returned" display="none" fill="#FFFFFF" d="M21.669-0.453c0.094,0.59-0.307,1.145-0.891,1.242
		c-0.59,0.098-1.145-0.303-1.242-0.891c-0.098-0.591,0.301-1.146,0.891-1.242C21.014-1.44,21.574-1.042,21.669-0.453z M21.331,3.833
		l0.957,1.53c0.133,0.213,0.417,0.283,0.637,0.154c0.216-0.129,0.292-0.41,0.171-0.632l-0.243-0.439
		c-0.209-0.375-0.413-0.754-0.623-1.129l-0.428-0.774c-0.049-0.087-0.097-0.188-0.148-0.294c-0.263-0.552-0.674-1.404-1.571-1.324
		c-0.77,0.064-1.549,0.431-2.315,1.082c-0.908,0.718-1.545,1.76-1.574,1.802c-0.028,0.047-0.054,0.093-0.079,0.139
		C16.112,3.95,16.11,3.95,16.11,3.952l0,0c-0.086,0.161-0.127,0.309-0.021,0.495c0.084,0.148,0.238,0.238,0.409,0.238
		c0.205,0,0.31-0.096,0.41-0.242l0,0C16.91,4.44,16.91,4.44,16.91,4.44c0.029-0.044,0.056-0.091,0.087-0.14
		c0.006-0.008,0.54-0.863,1.364-1.568c0.254-0.197,0.495-0.335,0.725-0.412l-0.185,2.226c-0.019,0.222-0.087,0.6-0.149,0.813
		L18.341,6.81c-0.057,0.182-0.21,0.487-0.332,0.635L16.891,8.83c-0.142,0.177-0.301,0.376-0.169,0.652
		c0.077,0.161,0.242,0.266,0.423,0.266c0.215,0,0.331-0.125,0.481-0.284l1.131-1.22c0.203-0.218,0.464-0.596,0.593-0.864
		l0.561-1.141l2.078,3.488c0.102,0.172,0.233,0.385,0.514,0.385l0,0c0.161,0,0.308-0.082,0.396-0.218
		c0.148-0.229,0.05-0.437-0.035-0.625l-1.681-3.648c-0.065-0.142-0.103-0.434-0.076-0.591L21.331,3.833z M28.323,4.611
		c0-1.523-1.24-2.759-2.76-2.759H24.39v1.393h1.173c0.751,0,1.365,0.612,1.365,1.366c0,0.754-0.614,1.366-1.365,1.366H25.32V5.229
		l-2.5,1.445l2.5,1.444v-0.75h0.274V7.367C27.099,7.353,28.323,6.124,28.323,4.611z"/>
	<path id="Attack" display="none" fill="#FFFFFF" d="M25.274,5.604l4.106-2.629l-3.968-0.422l1.079-4.611l-2.814,2.91l-0.786-3.288
		l-1.18,3.069l-3.218-4.144l1.012,5.192l-2.859-0.635c0,0,0.868,1.664,1.354,2.666l-4.59-0.323l4.152,2.428l-1.191,1.227
		l1.932-0.352l-1.368,4.837l4.064-3.401l1.054,2.629l1.085-2.102l3.506,3.62l-1.753-4.846l3.844,0.389L25.274,5.604z"/>
	<g id="affected" display="none">
		<path display="inline" fill="#FFFFFF" d="M18.781-0.806c0,0.597-0.486,1.078-1.078,1.078c-0.595,0-1.081-0.483-1.081-1.078
			c0-0.594,0.484-1.076,1.081-1.076C18.297-1.882,18.781-1.401,18.781-0.806z M17.814,6.575l0.235,3.979
			c0,0.139,0.113,0.252,0.25,0.252c0.141,0,0.256-0.115,0.256-0.252l0.214-3.977h0.704l-0.726-4.462l1.462,2.915
			c0.057,0.129,0.203,0.188,0.332,0.136c0.129-0.055,0.192-0.202,0.137-0.332c0,0-1.073-2.901-1.34-3.441
			c-0.266-0.542-0.525-0.871-1.533-0.871H17.6c-1.006,0-1.27,0.327-1.534,0.871c-0.263,0.542-1.338,3.441-1.338,3.441
			c-0.055,0.132,0.006,0.278,0.134,0.334c0.129,0.054,0.278-0.008,0.333-0.136l1.462-2.915L15.93,6.575h0.704l0.219,3.977
			c0,0.139,0.113,0.252,0.25,0.252c0.142,0,0.255-0.115,0.255-0.252l0.219-3.977H17.814L17.814,6.575z M26.412-1.886
			c-0.597,0-1.082,0.483-1.082,1.077c0,0.596,0.481,1.079,1.082,1.079c0.592,0,1.077-0.483,1.077-1.079
			C27.49-1.404,27.004-1.886,26.412-1.886z M27.528,4.458l0.07-2.345l1.32,2.917c0.051,0.129,0.202,0.188,0.329,0.134
			c0.132-0.055,0.193-0.202,0.141-0.332c0,0-0.931-2.901-1.193-3.442c-0.265-0.539-0.673-0.869-1.681-0.869h-0.206
			c-1.006,0-1.416,0.328-1.68,0.869c-0.261,0.541-1.192,3.44-1.192,3.44c-0.057,0.131,0.005,0.276,0.134,0.333
			c0.127,0.057,0.279-0.005,0.329-0.134l1.323-2.917l0.067,2.345l-0.208,5.895c-0.013,0.234,0.162,0.435,0.395,0.452
			c0.011,0.002,0.023,0.002,0.032,0.002c0.218,0,0.408-0.171,0.424-0.393l0.478-4.853l0.48,4.853
			c0.015,0.225,0.201,0.393,0.42,0.393c0.012,0,0.021,0,0.031-0.002c0.233-0.018,0.407-0.219,0.394-0.452L27.528,4.458L27.528,4.458
			z M22.058,4.667c-0.368,0-0.665,0.295-0.665,0.66c0,0.364,0.295,0.659,0.665,0.659c0.361,0,0.657-0.295,0.657-0.659
			C22.715,4.962,22.419,4.667,22.058,4.667z M22.058,8.562c0,0,0.296,2.067,0.296,2.069c0.04,0.103,0.134,0.174,0.254,0.174
			c0.115,0,0.218-0.08,0.254-0.186c0-0.008,0.007-0.128,0-0.149l-0.123-2.54l0.041-0.874c0.033-0.297,0.038-0.208,0.376-0.409
			c0.346-0.208,0.931-1.115,0.959-1.161c0.031-0.045,0.085-0.124,0.096-0.177c0.017-0.091-0.045-0.176-0.136-0.195
			c-0.068-0.012-0.125,0.025-0.171,0.071c-0.046,0.052-0.721,0.949-1.225,1.035c-0.114-0.018-0.233-0.076-0.561-0.076h-0.125
			c-0.322,0-0.444,0.061-0.56,0.076c-0.506-0.085-1.181-0.983-1.229-1.035c-0.042-0.046-0.098-0.084-0.169-0.071
			c-0.089,0.021-0.149,0.105-0.132,0.195c0.009,0.05,0.063,0.13,0.091,0.177c0.03,0.044,0.617,0.953,0.96,1.161
			c0.337,0.201,0.347,0.112,0.379,0.409l0.038,0.874l-0.122,2.54c-0.006,0.021,0,0.144,0.005,0.149
			c0.034,0.106,0.134,0.186,0.252,0.186c0.116,0,0.213-0.071,0.249-0.174C21.758,10.63,22.058,8.562,22.058,8.562"/>
	</g>
	<g id="foodsec" display="none">
		<path display="inline" fill="#FFFFFF" d="M29.404,5.688L29.404,5.688c-0.038,1.055-0.398,2.2-0.951,3.255
			c0,0-1.317,2.669-5.457,2.669c-4.143,0-5.482-2.647-5.482-2.647c-0.556-1.061-0.89-2.199-0.933-3.279h0.002
			c0-0.026-0.002-0.055-0.002-0.083c0-0.507,0.315-0.983,0.854-1.392l0.577,0.368c-0.359,0.239-0.563,0.508-0.563,0.791
			c0,1.002,2.482,1.813,5.547,1.813c3.059,0,5.54-0.811,5.54-1.813c0-0.69-1.188-1.292-2.938-1.597l0.009-0.728
			c2.235,0.438,3.799,1.417,3.799,2.559C29.407,5.632,29.406,5.66,29.404,5.688z M18.712,1.381c-0.022,0.17-0.049,0.442,0.159,0.812
			c0.26,0.447,0.592,0.603,0.697,0.68c-0.017-0.117,0.014-0.462-0.229-0.881c-0.209-0.375-0.438-0.543-0.574-0.673
			c-0.381-0.552-0.816-0.996-1.145-1.344l-0.786-0.815c0,0,0.284,0.326,0.752,0.843C17.913,0.363,18.338,0.821,18.712,1.381z
			 M20.676,5.694c0.167,0.157,0.379,0.415,0.851,0.678c0.529,0.295,0.975,0.295,1.125,0.33c-0.083-0.138-0.254-0.575-0.837-0.898
			c-0.48-0.264-0.836-0.213-1.056-0.175c-0.726-0.422-1.346-0.853-1.847-1.16c-0.712-0.44-1.175-0.666-1.174-0.666
			c-0.002,0,0.448,0.247,1.147,0.708C19.367,4.833,19.964,5.269,20.676,5.694z M21.101,3.394c-0.06,0.195-0.141,0.511,0.045,0.973
			c0.218,0.567,0.588,0.804,0.698,0.908c0.005-0.137,0.101-0.53-0.106-1.061c-0.185-0.475-0.425-0.708-0.561-0.884
			c-0.359-0.707-0.797-1.296-1.13-1.753l-0.803-1.082l0.758,1.103C20.326,2.072,20.753,2.678,21.101,3.394z M19.755,4.542
			c0.157,0.145,0.362,0.383,0.809,0.618c0.5,0.262,0.916,0.251,1.053,0.278c-0.083-0.124-0.254-0.525-0.801-0.813
			c-0.451-0.235-0.783-0.183-0.988-0.146c-0.678-0.378-1.261-0.769-1.731-1.05c-0.672-0.399-1.108-0.601-1.104-0.603
			c-0.004,0.004,0.422,0.227,1.078,0.648C18.521,3.762,19.086,4.161,19.755,4.542z M18.796,3.411
			c0.148,0.131,0.341,0.349,0.756,0.555c0.468,0.236,0.853,0.22,0.981,0.242c-0.08-0.114-0.244-0.477-0.756-0.735
			c-0.419-0.211-0.726-0.156-0.914-0.12c-0.635-0.342-1.183-0.695-1.62-0.951c-0.627-0.365-1.032-0.55-1.03-0.552
			c-0.002,0.002,0.394,0.207,1.008,0.589C17.642,2.705,18.17,3.066,18.796,3.411z M17.818,1.763c0.278,0.25,0.546,0.265,0.697,0.313
			c-0.032-0.122-0.005-0.425-0.326-0.708c-0.271-0.235-0.547-0.253-0.688-0.266c-1.125-0.965-2.127-1.583-2.356-1.731l-0.049-0.034
			c-0.01,0.007,1.089,0.731,2.377,1.863C17.516,1.339,17.59,1.57,17.818,1.763z M17.797,2.296c0.14,0.117,0.317,0.314,0.704,0.5
			c0.43,0.213,0.787,0.192,0.906,0.212c-0.076-0.102-0.233-0.43-0.705-0.663c-0.39-0.188-0.671-0.141-0.845-0.107
			c-0.588-0.304-1.091-0.63-1.5-0.86c-0.581-0.331-0.956-0.495-0.956-0.495s0.368,0.181,0.933,0.533
			C16.728,1.651,17.217,1.981,17.797,2.296z M19.939,2.356c-0.042,0.181-0.093,0.477,0.104,0.893
			c0.243,0.508,0.596,0.701,0.707,0.794c-0.007-0.126,0.049-0.495-0.174-0.975c-0.203-0.424-0.438-0.627-0.573-0.776
			c-0.374-0.632-0.809-1.148-1.145-1.551l-0.796-0.947l0.759,0.972C19.149,1.184,19.573,1.717,19.939,2.356z M24.365,3.439
			C24.24,3.564,24.038,3.771,23.977,4.2c-0.077,0.522,0.094,0.852,0.131,0.98c0.063-0.104,0.308-0.365,0.382-0.855
			c0.064-0.439-0.013-0.717-0.04-0.904c0.038-0.688-0.042-1.318-0.102-1.805C24.262,0.905,24.2,0.463,24.2,0.463l0.105,1.153
			C24.349,2.111,24.411,2.75,24.365,3.439z M23.958,2.269c-0.111,0.125-0.279,0.328-0.312,0.728c-0.038,0.489,0.142,0.785,0.187,0.9
			c0.046-0.101,0.26-0.359,0.298-0.817c0.03-0.41-0.059-0.662-0.099-0.836c-0.004-0.635-0.112-1.213-0.193-1.661l-0.194-1.056
			l0.159,1.058C23.869,1.044,23.96,1.628,23.958,2.269z M23.487,1.122c-0.094,0.12-0.234,0.32-0.238,0.691
			c-0.008,0.452,0.181,0.712,0.228,0.815c0.038-0.097,0.214-0.348,0.223-0.77c0.004-0.381-0.094-0.604-0.14-0.76
			c-0.049-0.586-0.178-1.108-0.277-1.514l-0.24-0.96l0.203,0.964C23.327,0.002,23.448,0.533,23.487,1.122z M24.317,6.478
			c0.072-0.106,0.356-0.367,0.474-0.889c0.103-0.463,0.036-0.768,0.019-0.973c0.084-0.737,0.04-1.421,0.01-1.947
			c-0.051-0.768-0.093-1.248-0.093-1.248l0.04,1.246c0.022,0.534,0.047,1.224-0.05,1.962c-0.144,0.127-0.367,0.335-0.468,0.79
			C24.127,5.972,24.286,6.336,24.317,6.478z M21.964,0.368c0.06,0.13,0.115,0.339,0.329,0.602c0.237,0.301,0.499,0.4,0.58,0.453
			c-0.021-0.1-0.016-0.391-0.276-0.72c-0.216-0.267-0.436-0.325-0.571-0.356c-0.315-0.422-0.565-0.823-0.779-1.126
			c-0.3-0.438-0.516-0.682-0.514-0.683c-0.002,0.001,0.2,0.256,0.484,0.698C21.418-0.458,21.654-0.052,21.964,0.368z M22.165-0.016
			c0.118,0.275,0.302,0.377,0.395,0.46c0.018-0.1,0.145-0.313,0.017-0.625c-0.112-0.264-0.308-0.368-0.406-0.422
			c-0.47-1.083-0.97-1.866-1.086-2.052L21.06-2.696c-0.01,0.003,0.527,0.899,1.058,2.154C22.099-0.427,22.071-0.234,22.165-0.016z
			 M22.637,2.178c0.252,0.326,0.538,0.443,0.624,0.503c-0.014-0.112-0.006-0.432-0.285-0.792c-0.229-0.293-0.468-0.357-0.617-0.393
			c-0.339-0.459-0.609-0.9-0.834-1.232c-0.323-0.474-0.547-0.743-0.547-0.744c0,0,0.212,0.281,0.518,0.765
			c0.211,0.333,0.464,0.772,0.793,1.236C22.352,1.663,22.413,1.885,22.637,2.178z M22.947,0.002
			c-0.076,0.119-0.19,0.307-0.173,0.646c0.029,0.414,0.215,0.639,0.266,0.729c0.025-0.089,0.172-0.332,0.147-0.723
			C23.165,0.31,23.06,0.112,23.009-0.03c-0.08-0.528-0.236-1-0.351-1.362l-0.279-0.86c0,0,0.088,0.332,0.245,0.868
			C22.726-1.011,22.874-0.534,22.947,0.002z M22.582,2.667c0.065,0.159,0.127,0.399,0.364,0.718
			c0.267,0.356,0.568,0.487,0.662,0.555c-0.016-0.122,0.002-0.47-0.29-0.865c-0.241-0.321-0.497-0.392-0.661-0.431
			C22.3,2.14,22.017,1.663,21.78,1.3c-0.345-0.516-0.587-0.81-0.587-0.811c0,0.001,0.226,0.308,0.551,0.833
			C21.968,1.685,22.234,2.163,22.582,2.667z M19.109,5.82c0,0.002,0.396,0.226,1.015,0.664c0.043,0.007,0.085,0.019,0.132,0.027
			C19.562,6.05,19.109,5.82,19.109,5.82z M24.049,6.688c-0.091-0.142-0.187-0.25-0.283-0.332c-0.034-0.089-0.065-0.172-0.103-0.247
			c0.208,0.215,0.406,0.32,0.479,0.38c0-0.007,0-0.022,0-0.034c0.024,0.082,0.046,0.169,0.073,0.256
			c0.04-0.002,0.082-0.006,0.119-0.008c-0.072-0.248-0.152-0.49-0.24-0.717c-0.031-0.124-0.081-0.256-0.162-0.401
			c-0.078-0.178-0.155-0.351-0.231-0.515c0.094,0.065,0.17,0.108,0.208,0.137c-0.01-0.129,0.02-0.506-0.286-0.937
			c-0.182-0.253-0.373-0.365-0.533-0.426l-0.484-0.947c0,0,0.157,0.345,0.432,0.927c-0.044-0.012-0.081-0.025-0.114-0.034
			C22.548,3.241,22.252,2.724,22,2.334c-0.357-0.562-0.614-0.879-0.611-0.879c0,0.002,0.238,0.33,0.577,0.9
			c0.233,0.392,0.51,0.91,0.874,1.459c0.063,0.169,0.125,0.431,0.373,0.779c0.116,0.163,0.236,0.282,0.353,0.373
			c0.04,0.094,0.086,0.193,0.13,0.299c-0.209-0.212-0.423-0.277-0.565-0.32c-0.042-0.063-0.08-0.128-0.118-0.189
			c-0.241-0.518-0.5-0.974-0.718-1.354c-0.478-0.833-0.789-1.344-0.787-1.344l0.73,1.368c0.057,0.102,0.114,0.215,0.175,0.328
			c-0.08-0.136-0.156-0.266-0.226-0.385c-0.373-0.603-0.644-0.943-0.644-0.945c0,0.002,0.248,0.355,0.602,0.97
			c0.207,0.363,0.447,0.826,0.742,1.324c0.134,0.291,0.256,0.599,0.366,0.926c-0.028,0.065-0.066,0.149-0.093,0.247
			c-0.33-0.563-0.599-1.085-0.838-1.486c-0.077-0.134-0.15-0.25-0.214-0.36c-0.301-0.618-0.646-1.15-0.925-1.578
			c-0.483-0.75-0.795-1.211-0.795-1.211l0.748,1.235c0.32,0.531,0.738,1.211,1.063,2.003c-0.074,0.206-0.188,0.54-0.021,1.05
			c0.196,0.623,0.574,0.904,0.688,1.026c0.009-0.137,0.125-0.515-0.014-1.049c0.087,0.161,0.176,0.325,0.274,0.498
			c-0.038,0.192-0.049,0.435,0.028,0.741c0.306-0.002,0.612-0.011,0.909-0.032C24.061,6.711,24.057,6.702,24.049,6.688z
			 M19.689,5.532c-0.753-0.483-1.246-0.727-1.244-0.729c-0.002,0,0.477,0.268,1.211,0.772c0.429,0.294,0.949,0.683,1.546,1.081
			c0.075,0.01,0.149,0.016,0.224,0.022C20.753,6.258,20.167,5.838,19.689,5.532z M25.113,5.83c0.146-0.782,0.129-1.52,0.129-2.085
			L25.22,2.4c0,0-0.013,0.512-0.023,1.339c-0.018,0.578-0.028,1.317-0.181,2.099c-0.167,0.125-0.415,0.335-0.559,0.811
			c-0.004,0.017-0.006,0.029-0.013,0.045c0.217-0.021,0.43-0.045,0.635-0.073C25.149,6.268,25.116,6.011,25.113,5.83z"/>
	</g>
	<g id="funding">
		<path fill="#FFFFFF" d="M23.765,5.244l-2.416,2.251h-8.708l-2.418-2.251c0,0,1.206-1.682,3.186-1.903
			c1.938-0.218,2.612,0.973,3.586,1.023c0.971-0.05,1.649-1.239,3.584-1.023C22.562,3.562,23.765,5.244,23.765,5.244z
			 M17.329,16.044v1.7c0.256-0.042,0.467-0.141,0.631-0.303c0.158-0.164,0.238-0.352,0.238-0.568c0-0.193-0.07-0.361-0.205-0.499
			C17.861,16.23,17.639,16.122,17.329,16.044z M15.913,13.871c0,0.155,0.056,0.295,0.167,0.427c0.11,0.134,0.276,0.241,0.499,0.322
			v-1.506c-0.201,0.055-0.365,0.156-0.484,0.295C15.975,13.551,15.913,13.702,15.913,13.871z M25.232,19.707
			c0,0-0.525,2.01-2.941,2.01H11.701c-2.418,0-2.945-2.01-2.945-2.01c-1.576-6.978,3.23-10.761,3.23-10.761h10.019
			C22.005,8.945,26.81,12.729,25.232,19.707z M19.462,16.714c0-0.472-0.15-0.855-0.451-1.155c-0.295-0.302-0.857-0.542-1.682-0.735
			v-1.699c0.334,0.119,0.537,0.354,0.619,0.695l1.303-0.144c-0.086-0.432-0.295-0.782-0.617-1.039
			c-0.326-0.257-0.762-0.417-1.305-0.472v-0.431h-0.75v0.431c-0.592,0.05-1.064,0.233-1.42,0.558
			c-0.358,0.324-0.534,0.723-0.534,1.2c0,0.472,0.158,0.87,0.474,1.203c0.314,0.326,0.81,0.569,1.48,0.734v1.819
			c-0.186-0.072-0.354-0.196-0.504-0.365c-0.153-0.169-0.255-0.369-0.311-0.601l-1.344,0.124c0.104,0.569,0.338,1.014,0.712,1.324
			c0.371,0.316,0.854,0.502,1.447,0.562v0.789h0.754v-0.808c0.668-0.082,1.193-0.303,1.57-0.662
			C19.275,17.683,19.462,17.239,19.462,16.714z"/>
	</g>
</g>
</svg>
