<?xml version="1.0" encoding="utf-8"?>
<!-- Generator: Adobe Illustrator 16.0.0, SVG Export Plug-In . SVG Version: 6.00 Build 0)  -->
<!DOCTYPE svg PUBLIC "-//W3C//DTD SVG 1.1//EN" "http://www.w3.org/Graphics/SVG/1.1/DTD/svg11.dtd">
<svg version="1.1" id="Layer_1" xmlns="http://www.w3.org/2000/svg" xmlns:xlink="http://www.w3.org/1999/xlink" x="0px" y="0px"
	 width="33.35px" height="40px" viewBox="0 0 33.35 40" enable-background="new 0 0 33.35 40" xml:space="preserve">
<g id="PinColor">
	<path id="PinOmbre" opacity="0.3" enable-background="new    " d="M28.937,30.651c0,1.76-3.865,3.238-9.066,3.627
		c-0.877,0.066-2.732,4.195-2.732,4.195s-1.92-4.131-2.827-4.201c-5.149-0.4-8.973-1.871-8.973-3.621
		c0-2.062,5.283-3.731,11.8-3.731C23.654,26.92,28.937,28.59,28.937,30.651z"/>
	<path id="vert" fill="#2ABF00" stroke="#1D7500" stroke-width="0.2" stroke-miterlimit="10" d="M28.937,13.334
		c0,5.391-3.865,9.911-9.066,11.106c-0.877,0.196-2.732,12.838-2.732,12.838s-1.92-12.642-2.827-12.863
		c-5.149-1.223-8.973-5.723-8.973-11.084c0-6.303,5.283-11.412,11.8-11.412C23.654,1.919,28.937,7.031,28.937,13.334z"/>
	<path id="orange" display="none" fill="#FF8500" stroke="#7F4500" stroke-width="0.2" stroke-miterlimit="10" d="M28.937,13.334
		c0,5.391-3.865,9.911-9.066,11.106c-0.877,0.196-2.732,12.838-2.732,12.838s-1.92-12.642-2.827-12.863
		c-5.149-1.223-8.973-5.723-8.973-11.084c0-6.303,5.283-11.412,11.8-11.412C23.654,1.919,28.937,7.031,28.937,13.334z"/>
	<path id="gris" display="none" fill="#A5A5A5" stroke="#595959" stroke-width="0.2" stroke-miterlimit="10" d="M28.937,13.334
		c0,5.391-3.865,9.911-9.066,11.106c-0.877,0.196-2.732,12.838-2.732,12.838s-1.92-12.642-2.827-12.863
		c-5.149-1.223-8.973-5.723-8.973-11.084c0-6.303,5.283-11.412,11.8-11.412C23.654,1.919,28.937,7.031,28.937,13.334z"/>
	<path id="bleu" display="none" fill="#0092FF" stroke="#00477C" stroke-width="0.2" stroke-miterlimit="10" d="M28.937,13.334
		c0,5.391-3.865,9.911-9.066,11.106c-0.877,0.196-2.732,12.838-2.732,12.838s-1.92-12.642-2.827-12.863
		c-5.149-1.223-8.973-5.723-8.973-11.084c0-6.303,5.283-11.412,11.8-11.412C23.654,1.919,28.937,7.031,28.937,13.334z"/>
</g>
<g id="Icons">
	<g id="Minimal">
		<path id="Election" display="none" fill="#565656" d="M28.77-0.296l-4.017-1.722c-0.12-0.051-0.259-0.016-0.338,0.086l-1.15,1.435
			c-0.051,0.064-0.071,0.155-0.055,0.239c0.02,0.081,0.07,0.148,0.144,0.185l-3.603,1.351c-0.304,0.113-0.561,0.327-0.726,0.605
			l-1.192,1.986c-0.253,0.422-0.274,0.937-0.054,1.378l0.087,0.168H16.61c-0.158,0-0.287,0.128-0.287,0.288v5.449h-0.862
			c-0.159,0-0.284,0.129-0.284,0.287c0,0.159,0.125,0.287,0.284,0.287h9.756c0.156,0,0.28-0.128,0.28-0.287
			c0-0.158-0.124-0.287-0.28-0.287h-0.862v-2.93c0-0.097-0.054-0.192-0.133-0.242c-0.085-0.054-0.188-0.061-0.276-0.019
			c-0.317,0.148-0.548,0.224-0.659,0.256c-0.023,0.006-0.045,0.015-0.066,0.031l-1.869,1.119c-0.297,0.18-0.636,0.274-0.979,0.274
			c-0.636,0-1.229-0.316-1.593-0.853c-0.288-0.43-0.387-0.95-0.28-1.455c0.108-0.505,0.41-0.939,0.843-1.217l0.271-0.171
			c0.201-0.121,0.377-0.231,0.535-0.329c0.11-0.069,0.161-0.204,0.124-0.328c-0.071-0.23-0.191-0.436-0.302-0.592
			c0.438-0.192,1.032-0.534,1.328-0.879c0,0,0.004,0.002,0.006,0.002c0.062,0.039,0.135,0.079,0.219,0.12
			c0.005,0.001,0.007,0.003,0.015,0.005l0,0c0.215,0.104,0.485,0.207,0.795,0.269c-0.333,0.413-0.673,0.929-0.797,1.272
			c-0.237,0.105-0.73,0.384-1.884,1.119c-0.306,0.194-0.515,0.496-0.586,0.85c-0.077,0.354-0.01,0.716,0.193,1.018
			c0.257,0.385,0.677,0.597,1.115,0.597c0.233,0,0.472-0.063,0.685-0.19l1.973-1.185c0.306-0.074,1.839-0.533,3.002-2.412
			c0.91-1.473,1.421-2.658,1.632-3.196L27.7,2.103c0.12,0.06,0.25,0.089,0.383,0.089c0.219,0,0.438-0.087,0.6-0.241
			c0.17-0.161,0.261-0.382,0.261-0.619v-1.366C28.94-0.148,28.874-0.253,28.77-0.296z"/>
	</g>
	<g id="Faible">
		<path id="Famine" display="none" fill="#F9F9F9" d="M26.186,10.265l-2.279,0.432l-3.725-2.024l1.353-1.689l3.047,1.011
			L26.186,10.265z M29.69,6.308V6.56l-2.4,0.761l-2.37,0.337l-3.046-1.013l-0.716-0.337h0.408c-0.097-0.906-0.227-1.591-0.292-2.49
			h-0.002c-0.002-0.027-0.034-0.628-0.042-0.884c-0.045-0.271-0.176-0.378-0.598-0.669c-0.233-0.149-0.404-0.203-0.501-0.201
			c-0.156,0-0.295,0.168-0.326,0.674c0.677,0.115,0.725,0.865,0.725,0.865c0.061,0.532-0.201,1.312-0.806,1.514
			c-1.115,0.372-1.001-1.775-0.371-2.291c0.016-0.618,0.189-1.186,0.778-1.208c0.232,0.002,0.472,0.097,0.746,0.271
			c0.13,0.079,0.236,0.16,0.331,0.242c-0.012-0.204-0.023-0.413-0.023-0.626c-0.002-0.451,0.069-0.943,0.468-1.291
			c0.207-0.188,0.44-0.285,0.667-0.283c0.596,0.029,0.965,0.542,1.181,1.067c0.25-0.109,0.563-0.163,0.921-0.039
			c0.916,0.319,1.412,1.916,1.027,2.473c-0.902,1.297-3.179-1.119-2.576-1.961c0,0,0.089-0.115,0.245-0.242
			c-0.178-0.466-0.533-0.881-0.798-0.852c-0.101,0.002-0.219,0.037-0.369,0.169c-0.253,0.222-0.317,0.54-0.317,0.956
			c0,0.293,0.035,0.619,0.035,0.945c0,0.17,0.01,0.319,0.016,0.484c0.042,0.292,0.044,0.514,0.042,0.822
			c0.061,0.896,0.424,1.63,0.519,2.554L29.69,6.308L29.69,6.308z M23.282,1.408l1.724,1.876c-0.309-1.331-1.399-2.073-1.399-2.073
			L23.282,1.408z M19.712,3.018l-0.31,0.126c0,0-0.152,1.05,0,1.598L19.712,3.018z M18.169,9.35l1.367-0.823l1.43-1.767L20.52,6.308
			h-3.154L16.74,7.557L18.169,9.35z M19.766,9.065l-2.426,1.652l0.321,0.4h5.584l-0.018-0.082L19.766,9.065z M14.773,6.308v1.904
			l1.556-0.833L16.8,6.307L14.773,6.308L14.773,6.308z M25.371,8.066l1.502,2.183l2.814,0.661V8.413L27.662,7.76L25.371,8.066z
			 M29.69,7.867V6.986l-1.579,0.427L29.69,7.867z M16.367,7.989l-1.594,0.758v2.37h1.166l1.736-1.421L16.367,7.989z M24.712,11.118
			h3.644l-1.745-0.421L24.712,11.118z"/>
		<path id="Cyclone" display="none" fill="#FFFFFF" d="M22.29,1.183c-0.077-0.004-0.154-0.013-0.231-0.013
			c-0.685,0-1.326,0.178-1.885,0.486c0.999-3.403,3.489-3.7,3.489-3.7s-5.505,0.461-5.505,6.885c0.004,0,0.009,0,0.013,0
			c-0.004,0.077-0.013,0.152-0.013,0.23c0,0.68,0.178,1.324,0.486,1.884c-3.402-0.999-3.7-3.489-3.7-3.489s0.459,5.507,6.885,5.507
			c0-0.006,0-0.007,0-0.014c0.075,0.005,0.151,0.014,0.229,0.014c0.686,0,1.326-0.179,1.885-0.488
			c-0.998,3.404-3.491,3.702-3.491,3.702s5.507-0.461,5.507-6.885c-0.004,0-0.008,0-0.012,0c0.004-0.077,0.012-0.151,0.012-0.229
			c0-0.684-0.178-1.327-0.487-1.885c3.402,0.999,3.698,3.491,3.698,3.491s-0.456-5.508-6.882-5.508
			C22.29,1.176,22.29,1.18,22.29,1.183z"/>
		<path id="tsunami" display="none" fill="#FFFFFF" d="M28.977,9.604c-11.333,0.642-8.165-8.026-5.227-7.278
			c-0.304,0.185-0.497,0.823-0.31,1.252c0.205,0.458,0.866,0.722,1.247,0.626c0.914-0.235,0.954-1.517,0.626-2.19
			c-0.342-0.699-1.241-1.563-2.814-1.563c-3.796,0-6.384,1.938-7.358,5.269v4.899h13.835V9.604L28.977,9.604z"/>
		<path id="earthquake" display="none" fill="#FFFFFF" d="M26.091,5.499c-0.193,0-0.371,0.107-0.464,0.28l-0.756,1.424l-0.93-2.729
			c-0.072-0.206-0.264-0.345-0.481-0.356c-0.223-0.005-0.418,0.121-0.503,0.322l-0.64,1.517l-1.007-6.041
			c-0.047-0.253-0.286-0.445-0.526-0.432c-0.261,0.005-0.477,0.177-0.508,0.434l-0.892,7.01l-0.723-3.763
			c-0.042-0.221-0.224-0.391-0.446-0.421c-0.223-0.031-0.446,0.089-0.543,0.292L16.49,5.499h-1.835v1.05h2.166
			c0.203,0,0.389-0.118,0.477-0.296l0.634-1.324l1.024,5.335c0.05,0.248,0.265,0.428,0.518,0.428c0.004,0,0.01,0,0.014,0
			c0.256-0.008,0.472-0.202,0.507-0.456l0.876-6.889l0.734,4.534c0.044,0.229,0.229,0.402,0.46,0.429
			c0.233,0.021,0.452-0.105,0.545-0.319l0.788-1.873l0.876,2.57c0.067,0.199,0.245,0.338,0.452,0.356
			c0.209,0.012,0.41-0.093,0.509-0.278l1.175-2.218h2.254v-1.05H26.091z"/>
	</g>
	<g id="Modéré">
	</g>
	<g id="Important">
	</g>
	<g id="Elevé">
	</g>
	<g id="Extreme" display="none">
		<path id="rebelion" display="inline" fill="#FFFFFF" d="M24.204,1.377c0,1.265-1.026,2.289-2.287,2.289
			c-1.268,0-2.292-1.026-2.292-2.289c0-1.266,1.024-2.29,2.292-2.29C23.18-0.913,24.204,0.111,24.204,1.377z M18.094,11.089h1.399
			h0.075l0.049-0.107l0.51-0.498l-0.471-0.1l-0.741-0.159L18.094,11.089z M27.672,1.801l-0.489,0.492l0.031,0.033l-0.396,0.4
			c0.054,0.049,0.104,0.098,0.148,0.155l0.4-0.4l0.083,0.074l0.483-0.494L27.672,1.801z M24.512,4.342l-0.213,0.209l0.025,0.06
			l0.048,0.112l-3.338,3.348l0.357,0.077c0.33,0.069,0.614,0.267,0.8,0.552c0.023,0.041,0.031,0.09,0.051,0.133l0.01-0.012
			l0.247,0.163l0.089-0.019l0.973,0.706l0.653-0.896l-1.448-1.132l0.029-0.094h0.241l1.423-1.669l0.16-1.497L24.512,4.342z
			 M26.062,2.862c-0.433-0.048-0.853,0.276-0.904,0.723l-0.053,0.488l0,0l-0.036,0.353l-0.157,1.498l-0.016,0.14L24.807,6.17
			l-1.275,1.494l0.961,0.752l0.346,0.271l-0.201,0.274l0.051,0.102c0.133,0.287,0.425,0.466,0.738,0.466
			c0.046,0,0.091-0.002,0.137-0.011c0.359-0.062,0.636-0.354,0.675-0.716l0.545-5.037C26.835,3.313,26.51,2.908,26.062,2.862z
			 M24.396,9.294l-0.468,0.644l-0.269,0.368l-0.365-0.267l-0.807-0.583l-0.071,0.018l-0.029-0.02c0,0.07-0.002,0.135-0.018,0.205
			c-0.015,0.068-0.04,0.128-0.063,0.192c-0.052,0.119-0.116,0.221-0.195,0.317l0.057,0.128c0.058,0.128,0.135,0.295,0.229,0.44
			l0.223,0.351h1.722L24.396,9.294z M21.123,10.665c-0.02,0-0.039-0.005-0.059-0.007c-0.009,0.037-0.015,0.063-0.015,0.063
			l0.193,0.366h0.466l0.303-0.105c-0.104-0.16-0.186-0.331-0.263-0.503C21.562,10.587,21.355,10.665,21.123,10.665z M21.796,8.932
			c-0.033-0.051-0.082-0.092-0.13-0.133c-0.025-0.025-0.05-0.061-0.083-0.081C21.5,8.658,21.4,8.614,21.295,8.59l-0.357-0.073
			l-0.813-0.175l0,0l-0.72-0.153l-0.28-0.059l-0.462-0.102l-0.029-0.005l0.072-0.075L19.02,7.64l0.331-0.336
			c0.027,0.23,0.042,0.412,0.042,0.417l0.108,0.021l1.009,0.216l0.207-0.207l3.122-3.137l-0.07-0.174l0.027-0.021
			c-0.454-0.137-0.987-0.214-1.658-0.214h-0.221c0,0-0.218,0-0.22,0c-0.472,0-0.947,0.031-1.413,0.135
			c-0.801,0.18-1.297,0.964-1.846,1.504c-0.566,0.556-1.112,1.135-1.663,1.705c-0.12,0.128-0.242,0.259-0.367,0.385
			c-0.211,0.212-0.288,0.523-0.204,0.813c0.083,0.287,0.32,0.504,0.613,0.569l1.082,0.231l0.458,0.096l2.597,0.554
			c0.058,0.009,0.115,0.018,0.172,0.018c0.379,0,0.717-0.264,0.8-0.647c0.029-0.151,0.008-0.294-0.038-0.429l-0.051-0.104
			C21.823,9.002,21.811,8.971,21.796,8.932z M20.65,10.931l-0.077-0.148l0.04-0.165l0.008-0.031l-0.127-0.027l-0.457,0.526h0.694
			L20.65,10.931z"/>
	</g>
	<path id="displaced" display="none" fill="#FFFFFF" d="M22.845-0.601c0.112,0.708-0.363,1.37-1.066,1.484
		C21.076,1,20.407,0.524,20.292-0.179c-0.116-0.705,0.357-1.372,1.066-1.487C22.061-1.78,22.726-1.302,22.845-0.601z M22.44,4.525
		l1.144,1.827c0.163,0.257,0.499,0.34,0.76,0.188c0.264-0.158,0.354-0.49,0.209-0.757l-0.29-0.525
		c-0.255-0.447-0.502-0.9-0.752-1.35l-0.508-0.924c-0.059-0.109-0.116-0.229-0.176-0.356c-0.313-0.659-0.803-1.677-1.877-1.585
		c-0.92,0.081-1.854,0.518-2.771,1.298c-1.088,0.857-1.847,2.103-1.876,2.156c-0.038,0.054-0.07,0.111-0.097,0.163
		c-0.004,0.002-0.004,0.003-0.006,0.005l0,0c-0.104,0.193-0.154,0.368-0.027,0.592c0.102,0.176,0.289,0.283,0.489,0.283
		c0.248,0,0.371-0.117,0.491-0.289l0,0c0.002,0,0.002-0.004,0.002-0.004c0.034-0.05,0.065-0.105,0.105-0.163
		c0.006-0.01,0.644-1.034,1.63-1.875c0.305-0.239,0.595-0.403,0.865-0.492l-0.22,2.659c-0.023,0.263-0.106,0.717-0.178,0.97
		l-0.495,1.735c-0.065,0.217-0.249,0.581-0.395,0.758l-1.337,1.657c-0.169,0.21-0.359,0.448-0.202,0.778
		c0.094,0.196,0.29,0.321,0.507,0.321c0.258,0,0.4-0.148,0.572-0.337l1.352-1.46c0.243-0.26,0.559-0.713,0.713-1.033L20.746,7.4
		l2.481,4.169c0.12,0.206,0.274,0.464,0.609,0.464l0,0c0.195,0,0.371-0.1,0.472-0.258c0.184-0.276,0.063-0.527-0.041-0.753
		l-2.006-4.36c-0.076-0.171-0.122-0.52-0.089-0.707L22.44,4.525z M24.544,9.062h3.008v0.894l2.986-1.725l-2.986-1.726v0.893h-3.008
		V9.062z"/>
	<path id="epidemie" display="none" fill="#FFFFFF" d="M27.97,5.646c0-3.241-2.538-5.875-5.735-6.041
		c1.413,0.134,2.513,1.159,2.513,2.406c0,0.429-0.145,0.822-0.371,1.172c-0.632-0.628-1.498-1.015-2.457-1.015
		c-0.958,0-1.826,0.387-2.454,1.014c-0.225-0.349-0.366-0.743-0.366-1.172c0-1.245,1.097-2.272,2.506-2.406
		c-3.195,0.165-5.733,2.802-5.733,6.042c0,0.976,0.238,1.898,0.647,2.717c-0.561-1.28-0.22-2.718,0.846-3.334
		c0.373-0.214,0.787-0.291,1.202-0.268c-0.079,0.285-0.133,0.582-0.133,0.892c0,1.609,1.102,2.952,2.584,3.352
		c-0.02,0.035-0.045,0.068-0.065,0.102c0,0.003,0,0.003,0,0.008c-0.049,0.11-0.11,0.199-0.186,0.276
		c-0.157,0.209-0.343,0.394-0.58,0.53c-1.071,0.618-2.497,0.19-3.319-0.95c1.083,1.643,2.94,2.731,5.053,2.731
		c2.092,0,3.938-1.064,5.025-2.682c-0.829,1.104-2.229,1.51-3.283,0.904c-0.375-0.218-0.647-0.545-0.835-0.922
		c1.484-0.399,2.576-1.745,2.576-3.35c0-0.312-0.05-0.607-0.128-0.892c0.418-0.027,0.833,0.049,1.208,0.266
		c1.036,0.597,1.387,1.969,0.892,3.222C27.755,7.458,27.97,6.579,27.97,5.646z M22.565,7.976c-0.026-0.504,0.08-1.032,0.333-1.532
		l-0.404-0.231c-0.145,0.149-0.346,0.241-0.572,0.241c-0.224,0-0.427-0.091-0.572-0.241l-0.396,0.226
		c0.253,0.503,0.359,1.036,0.332,1.539c-1.024-0.28-1.784-1.213-1.784-2.323c0-0.213,0.035-0.413,0.087-0.609
		c0.448,0.225,0.853,0.578,1.164,1.044l0.403-0.235c-0.019-0.069-0.044-0.134-0.044-0.208c0-0.374,0.259-0.676,0.608-0.767V4.42
		c-0.563-0.037-1.072-0.21-1.494-0.486c0.438-0.432,1.034-0.695,1.693-0.695s1.257,0.267,1.697,0.697
		c-0.425,0.276-0.932,0.447-1.494,0.484v0.461c0.348,0.091,0.604,0.393,0.604,0.767c0,0.075-0.021,0.14-0.037,0.208l0.408,0.239
		c0.309-0.465,0.715-0.816,1.159-1.042c0.047,0.191,0.083,0.393,0.083,0.601C24.339,6.763,23.585,7.692,22.565,7.976z"/>
	<path id="enlevement" display="none" fill="#FFFFFF" d="M26.966-1.584c-0.373,0-0.682,0.307-0.682,0.683v2.779
		c0.164,0.037,0.322,0.105,0.45,0.23c0.357,0.354,0.367,0.936,0.016,1.299l-1.29,1.329l-0.182-0.173l1.299-1.326
		c0.26-0.269,0.252-0.695-0.015-0.958c-0.082-0.079-0.181-0.133-0.284-0.163c-0.116-0.031-0.229-0.032-0.341-0.009
		c-0.127,0.032-0.239,0.095-0.326,0.19c-0.768,0.786-1.537,1.574-2.303,2.361c-0.194,0.198-0.545,0.649-0.533,1.099
		c0.006,0.423-0.006,0.859,0.002,1.284c-0.103-0.08-0.224-0.14-0.359-0.166c-0.396-0.065-0.754,0.171-0.892,0.524h-0.198
		c0-0.097,0-0.194,0-0.29c0.011-0.443-0.008-0.905,0.004-1.35c0.011-0.452-0.343-0.903-0.534-1.101
		c-0.766-0.787-1.534-1.575-2.304-2.363c-0.091-0.095-0.201-0.159-0.327-0.19c-0.113-0.023-0.229-0.021-0.342,0.009
		c-0.104,0.031-0.201,0.086-0.284,0.165c-0.265,0.261-0.271,0.688-0.012,0.958l1.295,1.324l-0.18,0.173l-1.291-1.329
		C17,3.043,17.009,2.461,17.371,2.109c0.124-0.124,0.282-0.194,0.448-0.23v-2.779c0-0.376-0.308-0.683-0.682-0.683
		c-0.379,0-0.683,0.307-0.683,0.683V3.91c0,0.158,0.063,0.302,0.158,0.418l2.324,3.069H18.73c-0.45,0-0.821,0.368-0.821,0.823
		c0,0.301,0.17,0.554,0.41,0.695c-0.24,0.144-0.41,0.397-0.41,0.696c0,0.456,0.369,0.824,0.823,0.824h0.25v0.458h2.28
		c0.12,0.119,0.258,0.205,0.426,0.233c0.048,0.007,0.091,0.011,0.139,0.011c0.4,0,0.742-0.285,0.809-0.683l0.002-0.021h0.146
		c0.002,0.152,0,0.3,0.018,0.458h2.323v-0.457h0.251c0.45,0,0.821-0.366,0.821-0.824c0-0.298-0.17-0.551-0.413-0.695
		c0.243-0.143,0.413-0.395,0.413-0.697c0-0.454-0.369-0.822-0.821-0.822h-0.206l2.323-3.071c0.097-0.117,0.158-0.26,0.158-0.418
		v-4.809C27.649-1.279,27.343-1.584,26.966-1.584z M18.321,8.219c0-0.227,0.184-0.409,0.409-0.409h2.693L21.28,8.631h-2.55
		C18.504,8.629,18.321,8.447,18.321,8.219z M18.321,9.612c0-0.224,0.184-0.411,0.409-0.411h2.453l-0.143,0.822H18.73
		C18.504,10.023,18.321,9.841,18.321,9.612z M22.227,10.385c-0.035,0.227-0.271,0.373-0.472,0.337
		c-0.108-0.019-0.203-0.079-0.267-0.167c-0.065-0.091-0.089-0.199-0.069-0.307l0.452-2.631c0.036-0.2,0.207-0.341,0.411-0.341
		c0.021,0,0.043,0,0.064,0.005c0.224,0.038,0.373,0.25,0.334,0.474L22.227,10.385z M25.783,9.612c0,0.229-0.186,0.412-0.408,0.412
		h-2.667l0.143-0.822h2.524C25.598,9.202,25.783,9.388,25.783,9.612z M25.783,8.219c0,0.226-0.186,0.409-0.408,0.409h-2.426
		l0.138-0.805c0.002-0.005,0-0.011,0-0.017h2.286C25.598,7.81,25.783,7.994,25.783,8.219z"/>
	<path id="eruption" display="none" fill="#FFFFFF" d="M23.145,2.417c0.819,0.28,1.906,0.61,2.138-0.712
		c0.186-1.029,1.557-0.648,2.142-0.712c1.065-0.124,0.258-2.113-1.07-2.143c-1.348-0.03-1.962,0.561-2.497,1.784
		c-0.258,0.588-0.476,1.031-1.427,0.714c-0.951-0.318-1.649,0.464-1.071,1.427c0.511,0.852-0.008,1.782-0.008,1.782h1.437
		c0,0-0.012-0.528-0.357-1.07C22.028,2.857,22.304,2.129,23.145,2.417z M15.54,11.293c3.692-2.688,4.614-6.41,4.614-6.41h3.793
		c0,0,0.924,3.719,4.613,6.41H15.54z"/>
	<path id="returned" display="none" fill="#FFFFFF" d="M21.668,0.026c0.093,0.583-0.302,1.13-0.878,1.226
		c-0.583,0.096-1.131-0.299-1.227-0.879c-0.097-0.583,0.297-1.13,0.879-1.226C21.021-0.949,21.575-0.556,21.668,0.026z
		 M21.334,4.256l0.946,1.51c0.13,0.21,0.41,0.28,0.627,0.152c0.214-0.127,0.288-0.404,0.17-0.624l-0.24-0.433
		c-0.208-0.37-0.409-0.744-0.616-1.115L21.8,2.982c-0.049-0.085-0.097-0.186-0.147-0.291c-0.259-0.544-0.665-1.385-1.55-1.307
		c-0.76,0.064-1.529,0.425-2.285,1.068c-0.897,0.708-1.525,1.737-1.554,1.779c-0.027,0.046-0.053,0.092-0.078,0.137
		c-0.002,0.002-0.004,0.002-0.004,0.004l0,0c-0.085,0.159-0.125,0.305-0.021,0.489c0.083,0.146,0.235,0.235,0.404,0.235
		c0.202,0,0.306-0.095,0.404-0.239l0,0c0.002-0.002,0.002-0.002,0.002-0.002c0.029-0.043,0.056-0.09,0.086-0.138
		c0.006-0.008,0.533-0.853,1.347-1.548c0.251-0.195,0.489-0.331,0.715-0.406L18.937,4.96c-0.018,0.219-0.085,0.592-0.148,0.803
		l-0.404,1.43c-0.056,0.18-0.207,0.481-0.328,0.626l-1.104,1.367c-0.14,0.175-0.297,0.371-0.167,0.644
		c0.076,0.159,0.239,0.263,0.418,0.263c0.214,0,0.326-0.124,0.474-0.28l1.117-1.205c0.199-0.215,0.458-0.588,0.584-0.853
		l0.555-1.125l2.051,3.442c0.101,0.17,0.231,0.38,0.508,0.38l0,0c0.158,0,0.304-0.08,0.391-0.215
		c0.146-0.227,0.05-0.431-0.035-0.617l-1.658-3.601c-0.065-0.14-0.101-0.428-0.075-0.583L21.334,4.256z M28.237,5.024
		c0-1.503-1.224-2.723-2.724-2.723h-1.158v1.375h1.156c0.742,0,1.349,0.604,1.349,1.348c0,0.744-0.606,1.349-1.349,1.349h-0.238
		V5.634l-2.47,1.426l2.47,1.425v-0.74h0.27V7.744C27.027,7.729,28.237,6.517,28.237,5.024z"/>
	<path id="Attack" display="none" fill="#FFFFFF" d="M25.227,6.004l4.052-2.595l-3.915-0.417l1.065-4.552L23.65,1.313l-0.775-3.245
		l-1.165,3.029l-3.176-4.09l0.999,5.125l-2.822-0.626c0,0,0.856,1.642,1.335,2.63l-4.529-0.318l4.1,2.396l-1.177,1.21l1.907-0.348
		l-1.35,4.774l4.011-3.356l1.04,2.595l1.072-2.075l3.46,3.573l-1.731-4.783l3.794,0.384L25.227,6.004z"/>
	<g id="affected" display="none">
		<path display="inline" fill="#FFFFFF" d="M18.818-0.322c0,0.589-0.481,1.063-1.065,1.063c-0.586,0-1.066-0.477-1.066-1.063
			s0.478-1.063,1.066-1.063C18.34-1.385,18.818-0.911,18.818-0.322z M17.863,6.963l0.233,3.927c0,0.137,0.11,0.249,0.246,0.249
			c0.139,0,0.253-0.113,0.253-0.249l0.211-3.925h0.695L18.784,2.56l1.443,2.877c0.055,0.127,0.201,0.186,0.327,0.135
			c0.128-0.055,0.189-0.199,0.135-0.328c0,0-1.059-2.864-1.323-3.397c-0.26-0.534-0.517-0.859-1.512-0.859h-0.203
			c-0.992,0-1.253,0.323-1.513,0.859c-0.26,0.535-1.321,3.397-1.321,3.397c-0.054,0.13,0.006,0.274,0.132,0.33
			c0.127,0.053,0.274-0.008,0.329-0.135l1.444-2.877l-0.718,4.401h0.695l0.216,3.925c0,0.137,0.112,0.249,0.247,0.249
			c0.14,0,0.252-0.113,0.252-0.249l0.216-3.925H17.863L17.863,6.963z M26.35-1.389c-0.588,0-1.067,0.477-1.067,1.063
			c0,0.588,0.476,1.065,1.067,1.065c0.584,0,1.064-0.477,1.064-1.065C27.414-0.913,26.934-1.389,26.35-1.389z M27.451,4.873
			l0.069-2.314l1.303,2.879c0.051,0.127,0.199,0.186,0.325,0.132c0.13-0.054,0.189-0.199,0.139-0.327c0,0-0.918-2.864-1.179-3.398
			c-0.261-0.531-0.663-0.857-1.658-0.857h-0.203c-0.993,0-1.397,0.323-1.658,0.857c-0.258,0.534-1.176,3.396-1.176,3.396
			c-0.058,0.129,0.004,0.273,0.13,0.329c0.126,0.056,0.276-0.005,0.326-0.132l1.307-2.879l0.064,2.314l-0.205,5.818
			c-0.012,0.23,0.16,0.43,0.391,0.446c0.01,0.002,0.022,0.002,0.032,0.002c0.215,0,0.402-0.169,0.418-0.388l0.472-4.79l0.474,4.79
			c0.014,0.223,0.197,0.388,0.415,0.388c0.012,0,0.021,0,0.029-0.002c0.23-0.017,0.402-0.216,0.389-0.446L27.451,4.873L27.451,4.873
			z M22.051,5.08c-0.363,0-0.655,0.292-0.655,0.651c0,0.36,0.29,0.651,0.655,0.651c0.357,0,0.649-0.291,0.649-0.651
			C22.7,5.371,22.408,5.08,22.051,5.08z M22.051,8.923c0,0,0.292,2.04,0.292,2.042c0.04,0.102,0.133,0.172,0.251,0.172
			c0.114,0,0.215-0.079,0.251-0.183c0-0.008,0.008-0.126,0-0.147l-0.121-2.507l0.04-0.862c0.033-0.293,0.037-0.206,0.371-0.404
			c0.341-0.205,0.92-1.1,0.947-1.145c0.031-0.044,0.083-0.123,0.095-0.175c0.016-0.09-0.046-0.174-0.135-0.193
			c-0.066-0.012-0.124,0.025-0.169,0.07c-0.044,0.051-0.711,0.937-1.208,1.022c-0.113-0.018-0.231-0.075-0.553-0.075h-0.125
			c-0.317,0-0.438,0.06-0.552,0.075c-0.5-0.084-1.165-0.971-1.212-1.022c-0.042-0.045-0.097-0.083-0.166-0.07
			c-0.089,0.02-0.148,0.104-0.131,0.193c0.008,0.049,0.062,0.128,0.089,0.175c0.03,0.043,0.61,0.94,0.947,1.145
			c0.334,0.199,0.344,0.111,0.376,0.404l0.037,0.862l-0.12,2.507c-0.006,0.021,0,0.142,0.004,0.147
			c0.033,0.105,0.132,0.183,0.248,0.183c0.115,0,0.212-0.07,0.247-0.172C21.757,10.964,22.051,8.923,22.051,8.923"/>
	</g>
	<g id="foodsec" display="none">
		<path display="inline" fill="#FFFFFF" d="M29.303,6.087L29.303,6.087c-0.038,1.042-0.393,2.171-0.939,3.213
			c0,0-1.301,2.634-5.387,2.634c-4.088,0-5.41-2.612-5.41-2.612c-0.549-1.047-0.879-2.171-0.921-3.237h0.002
			c0-0.026-0.002-0.054-0.002-0.082c0-0.5,0.311-0.97,0.844-1.374l0.568,0.364c-0.353,0.235-0.555,0.501-0.555,0.78
			c0,0.989,2.45,1.79,5.476,1.79c3.018,0,5.468-0.8,5.468-1.79c0-0.681-1.173-1.275-2.899-1.577l0.01-0.718
			c2.204,0.432,3.748,1.398,3.748,2.525C29.307,6.032,29.305,6.059,29.303,6.087z M18.749,1.836
			c-0.021,0.167-0.048,0.436,0.157,0.801c0.257,0.44,0.585,0.595,0.689,0.671c-0.018-0.115,0.014-0.456-0.228-0.87
			c-0.205-0.37-0.432-0.536-0.566-0.664c-0.375-0.545-0.805-0.983-1.129-1.327l-0.776-0.804c0,0,0.28,0.321,0.743,0.832
			C17.961,0.831,18.38,1.283,18.749,1.836z M20.688,6.093c0.165,0.155,0.375,0.41,0.841,0.669c0.522,0.292,0.961,0.292,1.108,0.326
			c-0.08-0.137-0.25-0.567-0.824-0.887c-0.474-0.26-0.825-0.21-1.043-0.172c-0.716-0.417-1.328-0.842-1.821-1.145
			c-0.703-0.435-1.161-0.657-1.159-0.657c-0.002,0,0.442,0.243,1.132,0.699C19.397,5.244,19.985,5.673,20.688,6.093z M21.108,3.822
			c-0.06,0.192-0.138,0.504,0.043,0.96c0.216,0.56,0.581,0.793,0.691,0.896c0.004-0.135,0.099-0.523-0.106-1.047
			c-0.182-0.468-0.419-0.698-0.553-0.873c-0.355-0.698-0.786-1.279-1.115-1.731L19.276,0.96l0.748,1.088
			C20.344,2.518,20.764,3.116,21.108,3.822z M19.78,4.957c0.155,0.143,0.357,0.378,0.797,0.609c0.494,0.259,0.904,0.248,1.04,0.275
			c-0.082-0.123-0.25-0.518-0.791-0.803c-0.444-0.232-0.771-0.18-0.975-0.145c-0.67-0.374-1.244-0.759-1.71-1.037
			c-0.663-0.394-1.093-0.593-1.089-0.595c-0.004,0.004,0.416,0.224,1.063,0.64C18.562,4.186,19.118,4.58,19.78,4.957z M18.832,3.84
			c0.147,0.129,0.337,0.344,0.746,0.548c0.462,0.233,0.843,0.217,0.969,0.239c-0.079-0.113-0.241-0.471-0.746-0.726
			c-0.412-0.208-0.717-0.154-0.902-0.118c-0.625-0.338-1.166-0.686-1.599-0.939c-0.619-0.36-1.019-0.542-1.017-0.544
			c-0.002,0.002,0.389,0.204,0.995,0.581C17.693,3.143,18.214,3.499,18.832,3.84z M17.866,2.213c0.274,0.247,0.539,0.262,0.689,0.31
			c-0.032-0.121-0.006-0.419-0.322-0.699c-0.269-0.232-0.541-0.25-0.679-0.263c-1.111-0.953-2.1-1.563-2.326-1.709l-0.048-0.033
			c-0.01,0.007,1.075,0.721,2.347,1.838C17.569,1.794,17.642,2.023,17.866,2.213z M17.847,2.739
			c0.139,0.115,0.313,0.311,0.695,0.494c0.424,0.21,0.777,0.19,0.894,0.209c-0.075-0.101-0.23-0.424-0.694-0.655
			c-0.385-0.185-0.663-0.139-0.835-0.105c-0.58-0.3-1.077-0.622-1.481-0.849c-0.574-0.327-0.943-0.489-0.943-0.489
			s0.363,0.179,0.92,0.527C16.792,2.103,17.275,2.428,17.847,2.739z M19.961,2.798c-0.042,0.179-0.093,0.471,0.103,0.881
			c0.238,0.502,0.586,0.692,0.696,0.784c-0.006-0.125,0.05-0.488-0.172-0.962c-0.199-0.418-0.432-0.619-0.564-0.766
			c-0.371-0.624-0.799-1.133-1.131-1.531L18.108,0.27l0.75,0.96C19.181,1.641,19.6,2.167,19.961,2.798z M24.329,3.867
			c-0.125,0.124-0.322,0.328-0.384,0.751c-0.074,0.516,0.093,0.841,0.131,0.967c0.061-0.103,0.302-0.36,0.375-0.844
			c0.065-0.434-0.012-0.708-0.04-0.892c0.038-0.679-0.041-1.301-0.099-1.782c-0.085-0.701-0.146-1.138-0.146-1.138l0.104,1.138
			C24.313,2.556,24.374,3.187,24.329,3.867z M23.928,2.712c-0.11,0.123-0.276,0.323-0.308,0.718
			c-0.037,0.483,0.14,0.775,0.184,0.888c0.045-0.099,0.257-0.354,0.294-0.806c0.029-0.405-0.058-0.653-0.097-0.825
			c-0.004-0.626-0.11-1.197-0.191-1.639l-0.191-1.042l0.158,1.044C23.839,1.503,23.93,2.08,23.928,2.712z M23.462,1.58
			c-0.093,0.119-0.23,0.316-0.234,0.682c-0.008,0.446,0.178,0.703,0.225,0.804c0.038-0.096,0.211-0.343,0.219-0.76
			c0.004-0.376-0.093-0.596-0.138-0.75c-0.048-0.579-0.176-1.094-0.274-1.495l-0.236-0.948l0.201,0.952
			C23.305,0.475,23.425,0.999,23.462,1.58z M24.281,6.867c0.071-0.105,0.352-0.362,0.468-0.877c0.101-0.458,0.035-0.758,0.018-0.961
			c0.083-0.728,0.04-1.403,0.01-1.921c-0.049-0.758-0.091-1.231-0.091-1.231l0.04,1.229c0.021,0.527,0.045,1.208-0.05,1.936
			c-0.142,0.125-0.363,0.331-0.462,0.78C24.094,6.367,24.252,6.727,24.281,6.867z M21.96,0.836c0.058,0.129,0.112,0.335,0.324,0.594
			c0.234,0.297,0.493,0.396,0.572,0.448c-0.02-0.099-0.016-0.386-0.272-0.71c-0.213-0.264-0.431-0.321-0.564-0.352
			c-0.311-0.417-0.557-0.813-0.768-1.112c-0.297-0.433-0.51-0.673-0.508-0.674c-0.002,0.001,0.197,0.252,0.478,0.689
			C21.421,0.021,21.653,0.421,21.96,0.836z M22.157,0.457c0.117,0.272,0.298,0.372,0.389,0.454c0.019-0.098,0.145-0.309,0.019-0.617
			c-0.111-0.26-0.305-0.363-0.401-0.417c-0.464-1.069-0.957-1.842-1.071-2.025l-0.025-0.041c-0.009,0.003,0.521,0.887,1.044,2.126
			C22.093,0.051,22.065,0.242,22.157,0.457z M22.623,2.622c0.249,0.322,0.531,0.438,0.616,0.496c-0.014-0.11-0.006-0.426-0.28-0.781
			c-0.228-0.29-0.462-0.353-0.61-0.388c-0.335-0.453-0.602-0.888-0.822-1.216C21.206,0.265,20.986,0,20.986-0.001
			c0,0,0.209,0.277,0.511,0.755c0.209,0.329,0.458,0.762,0.784,1.22C22.341,2.114,22.403,2.333,22.623,2.622z M22.93,0.475
			c-0.075,0.117-0.188,0.303-0.172,0.638c0.029,0.409,0.213,0.631,0.263,0.721c0.025-0.088,0.169-0.328,0.146-0.714
			c-0.021-0.34-0.124-0.536-0.176-0.676c-0.079-0.521-0.232-0.987-0.346-1.344L22.369-1.75c0,0,0.086,0.327,0.242,0.856
			C22.712-0.525,22.859-0.054,22.93,0.475z M22.571,3.105c0.063,0.157,0.124,0.394,0.359,0.708c0.262,0.352,0.561,0.481,0.653,0.548
			c-0.017-0.121,0.002-0.464-0.287-0.853c-0.238-0.317-0.491-0.387-0.653-0.425c-0.351-0.498-0.631-0.969-0.866-1.327
			c-0.339-0.509-0.578-0.799-0.578-0.8c0,0.001,0.223,0.303,0.543,0.822C21.964,2.136,22.225,2.607,22.571,3.105z M19.142,6.218
			c0,0.002,0.391,0.222,1.001,0.655c0.043,0.007,0.085,0.018,0.13,0.027C19.588,6.444,19.142,6.218,19.142,6.218z M24.017,7.074
			c-0.089-0.14-0.184-0.247-0.278-0.328c-0.033-0.088-0.065-0.17-0.103-0.243c0.205,0.212,0.4,0.316,0.474,0.375
			c0-0.007,0-0.022,0-0.034c0.023,0.081,0.046,0.167,0.073,0.253c0.039-0.002,0.081-0.006,0.116-0.008
			c-0.071-0.245-0.149-0.483-0.236-0.708c-0.03-0.122-0.079-0.252-0.16-0.396c-0.077-0.176-0.154-0.347-0.229-0.508
			c0.094,0.064,0.168,0.107,0.206,0.135c-0.008-0.127,0.02-0.5-0.282-0.924c-0.18-0.25-0.367-0.36-0.525-0.42l-0.479-0.935
			c0,0,0.156,0.34,0.426,0.916c-0.043-0.012-0.078-0.025-0.112-0.033c-0.369-0.543-0.661-1.054-0.909-1.438
			c-0.354-0.554-0.606-0.868-0.604-0.868c0,0.002,0.235,0.325,0.57,0.888c0.229,0.387,0.504,0.898,0.862,1.44
			c0.062,0.167,0.123,0.425,0.367,0.769c0.115,0.161,0.233,0.278,0.35,0.368c0.04,0.093,0.083,0.191,0.126,0.295
			c-0.205-0.209-0.416-0.274-0.557-0.316c-0.041-0.063-0.078-0.126-0.116-0.187c-0.238-0.511-0.493-0.961-0.708-1.336
			c-0.472-0.823-0.78-1.327-0.778-1.327l0.721,1.35c0.058,0.101,0.112,0.212,0.174,0.323c-0.079-0.134-0.154-0.263-0.224-0.38
			c-0.368-0.595-0.635-0.931-0.635-0.933c0,0.002,0.244,0.35,0.594,0.958c0.203,0.358,0.442,0.815,0.732,1.307
			c0.132,0.287,0.253,0.591,0.361,0.914c-0.028,0.064-0.065,0.147-0.091,0.243c-0.326-0.556-0.593-1.071-0.827-1.467
			c-0.077-0.132-0.148-0.247-0.211-0.355c-0.299-0.61-0.638-1.136-0.914-1.557c-0.476-0.74-0.783-1.196-0.783-1.196l0.737,1.219
			c0.316,0.524,0.729,1.196,1.049,1.977c-0.073,0.203-0.184,0.532-0.021,1.037c0.193,0.614,0.566,0.892,0.68,1.012
			c0.008-0.135,0.122-0.508-0.014-1.036c0.084,0.159,0.173,0.321,0.27,0.491c-0.037,0.19-0.047,0.43,0.028,0.732
			c0.302-0.002,0.605-0.011,0.897-0.032C24.029,7.097,24.025,7.088,24.017,7.074z M19.714,5.933
			c-0.744-0.478-1.229-0.717-1.228-0.719c-0.002,0,0.47,0.264,1.194,0.763c0.424,0.291,0.938,0.674,1.525,1.066
			c0.075,0.01,0.148,0.016,0.221,0.022C20.764,6.649,20.186,6.235,19.714,5.933z M25.067,6.227c0.145-0.772,0.129-1.5,0.129-2.058
			l-0.021-1.327c0,0-0.015,0.505-0.024,1.322c-0.018,0.57-0.027,1.3-0.178,2.072c-0.165,0.124-0.41,0.331-0.553,0.8
			c-0.004,0.017-0.006,0.029-0.012,0.044c0.214-0.021,0.425-0.044,0.626-0.072C25.103,6.659,25.071,6.406,25.067,6.227z"/>
	</g>
	<g id="funding">
		<path fill="#FFFFFF" d="M23.946,4.9L21.47,7.207h-8.924L10.068,4.9c0,0,1.235-1.723,3.264-1.95
			c1.987-0.223,2.677,0.998,3.676,1.049c0.996-0.051,1.689-1.269,3.674-1.049C22.713,3.177,23.946,4.9,23.946,4.9z M17.351,15.968
			v1.742c0.263-0.043,0.478-0.144,0.645-0.31c0.162-0.168,0.247-0.361,0.247-0.583c0-0.199-0.072-0.37-0.212-0.512
			C17.895,16.158,17.669,16.047,17.351,15.968z M15.9,13.74c0,0.16,0.057,0.303,0.172,0.438c0.112,0.138,0.283,0.247,0.51,0.331
			v-1.544c-0.205,0.057-0.374,0.16-0.495,0.303C15.963,13.413,15.9,13.567,15.9,13.74z M25.45,19.721c0,0-0.542,2.059-3.016,2.059
			H11.583c-2.478,0-3.018-2.059-3.018-2.059C6.95,12.57,11.876,8.693,11.876,8.693h10.265C22.141,8.693,27.065,12.57,25.45,19.721z
			 M19.536,16.654c0-0.484-0.154-0.876-0.462-1.184c-0.305-0.31-0.878-0.555-1.724-0.753v-1.741c0.342,0.121,0.55,0.362,0.634,0.712
			l1.335-0.147c-0.089-0.444-0.301-0.801-0.63-1.064c-0.336-0.264-0.784-0.428-1.339-0.484v-0.441h-0.77v0.441
			c-0.606,0.052-1.09,0.24-1.455,0.571c-0.367,0.333-0.547,0.742-0.547,1.229c0,0.484,0.161,0.892,0.485,1.233
			c0.321,0.333,0.83,0.583,1.517,0.752v1.864c-0.189-0.074-0.362-0.201-0.516-0.374c-0.156-0.174-0.263-0.378-0.319-0.616
			l-1.377,0.126c0.106,0.583,0.347,1.04,0.729,1.356c0.381,0.325,0.875,0.515,1.482,0.577v0.809h0.772v-0.829
			c0.685-0.083,1.225-0.311,1.609-0.678C19.345,17.647,19.536,17.192,19.536,16.654z"/>
	</g>
</g>
</svg>
