<?xml version="1.0" encoding="utf-8"?>
<!-- Generator: Adobe Illustrator 16.0.0, SVG Export Plug-In . SVG Version: 6.00 Build 0)  -->
<!DOCTYPE svg PUBLIC "-//W3C//DTD SVG 1.1//EN" "http://www.w3.org/Graphics/SVG/1.1/DTD/svg11.dtd">
<svg version="1.1" id="Layer_1" xmlns="http://www.w3.org/2000/svg" xmlns:xlink="http://www.w3.org/1999/xlink" x="0px" y="0px"
	 width="33.35px" height="40px" viewBox="-10 -10 33.35 40" enable-background="new -10 -10 33.35 40" xml:space="preserve">
<g id="Groupe">
	<g id="PinColor_1_">
		<path id="PinOmbreGroup" opacity="0.2" enable-background="new    " d="M18.88,20.415c0,1.776-3.9,3.27-9.152,3.662
			c-0.885,0.067-2.759,4.236-2.759,4.236s-1.939-4.171-2.854-4.242c-5.199-0.404-9.058-1.889-9.058-3.656
			c0-2.079,5.334-3.767,11.911-3.767C13.547,16.648,18.88,18.333,18.88,20.415z"/>
		
			<path id="PinGroupeGroup" opacity="0.3" fill="#FFFFFF" stroke="#848484" stroke-width="0.2" stroke-miterlimit="10" enable-background="new    " d="
			M18.88,2.934c0,5.442-3.9,10.006-9.152,11.211c-0.885,0.2-2.759,12.96-2.759,12.96S5.03,14.346,4.115,14.121
			C-1.084,12.886-4.942,8.343-4.942,2.93c0-6.362,5.334-11.52,11.911-11.52C13.547-8.59,18.88-3.429,18.88,2.934z"/>
		<path id="PinMinimalGroup" display="none" fill="#FFFFFF" stroke="#848484" stroke-width="0.2" stroke-miterlimit="10" d="
			M12.137,2.394c0,2.365-1.693,4.348-3.976,4.871C7.776,7.351,6.12,7.351,5.723,7.252C3.465,6.715,1.79,4.744,1.79,2.392
			c0-2.763,2.316-5.004,5.173-5.004C9.82-2.612,12.137-0.368,12.137,2.394z"/>
		<path id="PinFaibleGroup" display="none" fill="#2ABF00" stroke="#1D7500" stroke-width="0.2" stroke-miterlimit="10" d="
			M12.137,2.394c0,2.365-1.693,4.348-3.976,4.871C7.776,7.351,6.12,7.351,5.723,7.252C3.465,6.715,1.79,4.744,1.79,2.392
			c0-2.763,2.316-5.004,5.173-5.004C9.82-2.612,12.137-0.368,12.137,2.394z"/>
		<path id="PinModereGroup" display="none" fill="#EDD600" stroke="#CE9D00" stroke-width="0.2" stroke-miterlimit="10" d="
			M12.137,2.394c0,2.365-1.693,4.348-3.976,4.871C7.776,7.351,6.12,7.351,5.723,7.252C3.465,6.715,1.79,4.744,1.79,2.392
			c0-2.763,2.316-5.004,5.173-5.004C9.82-2.612,12.137-0.368,12.137,2.394z"/>
		<path id="PinImportantGroup" display="none" fill="#FF8500" stroke="#BF3A00" stroke-width="0.2" stroke-miterlimit="10" d="
			M12.137,2.394c0,2.365-1.693,4.348-3.976,4.871C7.776,7.351,6.12,7.351,5.723,7.252C3.465,6.715,1.79,4.744,1.79,2.392
			c0-2.763,2.316-5.004,5.173-5.004C9.82-2.612,12.137-0.368,12.137,2.394z"/>
		<path id="PinEleveGroup" display="none" fill="#ED1C24" stroke="#BA1522" stroke-width="0.2" stroke-miterlimit="10" d="
			M12.137,2.394c0,2.365-1.693,4.348-3.976,4.871C7.776,7.351,6.12,7.351,5.723,7.252C3.465,6.715,1.79,4.744,1.79,2.392
			c0-2.763,2.316-5.004,5.173-5.004C9.82-2.612,12.137-0.368,12.137,2.394z"/>
		<path id="PinExtremeGroup" display="none" stroke="#333333" stroke-width="0.2" stroke-miterlimit="10" d="M12.137,2.394
			c0,2.365-1.693,4.348-3.976,4.871C7.776,7.351,6.12,7.351,5.723,7.252C3.465,6.715,1.79,4.744,1.79,2.392
			c0-2.763,2.316-5.004,5.173-5.004C9.82-2.612,12.137-0.368,12.137,2.394z"/>
	</g>
	<g id="IconsGroup" display="none">
		<g id="MinimalGroup" display="inline">
			<path id="ElectionGroup" fill="#565656" d="M13.876-2.513L9.742-4.286C9.619-4.337,9.477-4.302,9.395-4.197L8.211-2.72
				c-0.053,0.066-0.073,0.16-0.056,0.246c0.019,0.083,0.072,0.151,0.146,0.191L4.595-0.893C4.281-0.777,4.017-0.556,3.846-0.27
				L2.619,1.775C2.36,2.209,2.339,2.739,2.566,3.193l0.088,0.174H1.36c-0.164,0-0.296,0.131-0.296,0.295v5.61H0.178
				c-0.164,0-0.293,0.132-0.293,0.293c0,0.164,0.129,0.296,0.293,0.296h10.041c0.162,0,0.289-0.132,0.289-0.296
				c0-0.162-0.127-0.293-0.289-0.293H9.331V6.255c0-0.101-0.054-0.198-0.137-0.249C9.109,5.951,9.002,5.943,8.909,5.987
				C8.585,6.14,8.346,6.217,8.232,6.25C8.208,6.257,8.184,6.266,8.163,6.282L6.24,7.434C5.933,7.619,5.584,7.716,5.231,7.716
				c-0.655,0-1.265-0.326-1.639-0.878C3.295,6.395,3.193,5.86,3.303,5.34C3.415,4.819,3.725,4.374,4.17,4.087L4.448,3.91
				C4.655,3.786,4.836,3.671,5,3.571C5.114,3.5,5.165,3.362,5.127,3.234C5.053,2.998,4.93,2.787,4.817,2.625
				c0.45-0.198,1.061-0.549,1.367-0.905c0,0,0.003,0.002,0.006,0.002c0.063,0.04,0.139,0.081,0.225,0.122
				C6.421,1.846,6.423,1.848,6.43,1.85l0,0c0.219,0.106,0.499,0.212,0.818,0.276c-0.343,0.426-0.693,0.956-0.821,1.31
				C6.183,3.543,5.676,3.832,4.49,4.587c-0.314,0.2-0.53,0.51-0.603,0.875c-0.079,0.365-0.01,0.737,0.2,1.048
				C4.35,6.907,4.784,7.126,5.232,7.126c0.241,0,0.485-0.064,0.706-0.197L7.967,5.71c0.315-0.077,1.894-0.549,3.09-2.483
				c0.938-1.516,1.464-2.736,1.682-3.289l0.036,0.019c0.123,0.061,0.259,0.092,0.396,0.092c0.225,0,0.45-0.09,0.615-0.248
				c0.175-0.166,0.27-0.394,0.27-0.637v-1.406C14.052-2.36,13.985-2.468,13.876-2.513z"/>
		</g>
		<g id="FaibleGroup" display="inline">
			<path id="FamineGroup" fill="#F9F9F9" d="M8.615,4.557L7.649,4.74L6.074,3.882l0.574-0.713l1.291,0.428L8.615,4.557z
				 M10.098,2.881v0.107L9.083,3.31L8.079,3.453L6.791,3.026L6.487,2.881h0.172C6.618,2.499,6.563,2.207,6.535,1.828l0,0
				C6.534,1.816,6.521,1.562,6.519,1.453C6.497,1.336,6.443,1.292,6.262,1.169C6.164,1.106,6.091,1.084,6.053,1.084
				c-0.067,0-0.126,0.071-0.139,0.286C6.202,1.419,6.22,1.737,6.22,1.737c0.023,0.225-0.087,0.555-0.341,0.641
				c-0.472,0.156-0.423-0.75-0.158-0.971c0.008-0.262,0.082-0.502,0.332-0.512c0.098,0,0.199,0.042,0.316,0.114
				c0.054,0.033,0.1,0.067,0.138,0.103C6.503,1.027,6.497,0.939,6.497,0.848c0-0.19,0.031-0.397,0.2-0.546
				c0.087-0.081,0.183-0.123,0.281-0.12c0.251,0.012,0.406,0.23,0.497,0.451c0.107-0.047,0.238-0.068,0.393-0.015
				c0.389,0.134,0.597,0.811,0.436,1.046C7.92,2.213,6.957,1.191,7.212,0.832c0,0,0.036-0.049,0.102-0.102
				C7.239,0.533,7.09,0.358,6.979,0.369c-0.042,0-0.095,0.016-0.158,0.071C6.715,0.537,6.686,0.67,6.686,0.848
				c0,0.125,0.016,0.263,0.016,0.4c0,0.074,0.004,0.137,0.005,0.205c0.018,0.124,0.019,0.216,0.018,0.348
				c0.026,0.378,0.178,0.689,0.223,1.08H10.098z M7.385,0.807l0.731,0.794C7.984,1.037,7.524,0.725,7.524,0.725L7.385,0.807z
				 M5.873,1.489L5.742,1.542c0,0-0.066,0.445,0,0.676L5.873,1.489z M5.221,4.168L5.8,3.82l0.603-0.748L6.217,2.881H4.883
				L4.614,3.412L5.221,4.168z M5.897,4.048L4.868,4.749l0.138,0.169h2.364L7.363,4.884L5.897,4.048z M3.782,2.881v0.807l0.657-0.353
				l0.202-0.454H3.782z M8.272,3.624l0.637,0.925l1.189,0.282V3.772L9.241,3.497L8.272,3.624z M10.098,3.542V3.169L9.43,3.348
				L10.098,3.542z M4.458,3.595L3.782,3.914v1.004h0.493L5.01,4.316L4.458,3.595z M7.99,4.918h1.542L8.796,4.74L7.99,4.918z"/>
			<path id="CycloneGroup" fill="#FFFFFF" d="M6.966,0.71c-0.034,0-0.066-0.003-0.098-0.003c-0.291,0-0.561,0.075-0.798,0.205
				c0.422-1.439,1.477-1.565,1.477-1.565s-2.33,0.196-2.33,2.915c0.002,0,0.002,0,0.005,0C5.219,2.294,5.217,2.324,5.217,2.358
				c0,0.29,0.076,0.562,0.205,0.799C3.98,2.733,3.856,1.679,3.856,1.679s0.196,2.333,2.917,2.333c0-0.002,0-0.002,0-0.007
				c0.031,0.003,0.061,0.007,0.095,0.007c0.289,0,0.562-0.076,0.799-0.208C7.241,5.246,6.187,5.37,6.187,5.37S8.52,5.176,8.52,2.456
				c-0.003,0-0.004,0-0.004,0c0-0.034,0.004-0.065,0.004-0.097c0-0.29-0.073-0.561-0.209-0.798c1.441,0.421,1.568,1.479,1.568,1.479
				s-0.19-2.333-2.914-2.333C6.966,0.708,6.966,0.71,6.966,0.71z"/>
			<path id="eruptionGroup" fill="#FFFFFF" d="M7.327,1.235c0.349,0.119,0.809,0.258,0.907-0.301
				c0.076-0.436,0.656-0.274,0.903-0.303C9.59,0.578,9.249-0.263,8.687-0.276c-0.57-0.013-0.83,0.239-1.059,0.756
				C7.521,0.728,7.429,0.915,7.026,0.781c-0.403-0.134-0.7,0.197-0.456,0.605c0.218,0.36-0.001,0.755-0.001,0.755h0.608
				c0,0-0.004-0.222-0.151-0.454C6.854,1.419,6.971,1.112,7.327,1.235z M4.109,4.993c1.561-1.14,1.954-2.714,1.954-2.714H7.67
				c0,0,0.39,1.574,1.952,2.714H4.109z"/>
			<path id="tsunamiGroup" fill="#FFFFFF" d="M9.797,4.277c-4.8,0.272-3.458-3.397-2.214-3.082C7.454,1.274,7.374,1.545,7.45,1.724
				c0.086,0.196,0.368,0.305,0.53,0.266c0.387-0.098,0.402-0.64,0.266-0.926C8.101,0.77,7.72,0.403,7.054,0.403
				c-1.604,0-2.704,0.82-3.116,2.23v2.074h5.859V4.277z"/>
			<path id="epidemieGroup" fill="#FFFFFF" d="M9.37,2.601c0-1.373-1.075-2.488-2.426-2.557C7.54,0.1,8.009,0.535,8.009,1.063
				c0,0.181-0.063,0.349-0.158,0.497C7.58,1.293,7.216,1.13,6.807,1.13c-0.406,0-0.772,0.164-1.04,0.43
				C5.673,1.412,5.613,1.244,5.613,1.063c0-0.529,0.462-0.963,1.062-1.02C5.323,0.115,4.249,1.231,4.249,2.601
				c0,0.412,0.099,0.803,0.273,1.149C4.284,3.21,4.429,2.599,4.883,2.341C5.039,2.25,5.213,2.219,5.39,2.227
				c-0.035,0.12-0.056,0.246-0.056,0.378c0,0.683,0.466,1.251,1.093,1.42c-0.011,0.013-0.02,0.027-0.028,0.043V4.07
				C6.379,4.117,6.353,4.155,6.32,4.188C6.253,4.277,6.176,4.356,6.075,4.411C5.624,4.673,5.019,4.492,4.67,4.009
				c0.458,0.697,1.244,1.157,2.14,1.157c0.888,0,1.665-0.452,2.129-1.136C8.585,4.498,7.993,4.672,7.545,4.413
				C7.388,4.32,7.274,4.185,7.195,4.025c0.625-0.169,1.088-0.739,1.088-1.42c0-0.13-0.02-0.256-0.052-0.378
				c0.179-0.01,0.354,0.021,0.512,0.114c0.437,0.252,0.589,0.832,0.376,1.362C9.281,3.37,9.37,2.996,9.37,2.601z M7.081,3.587
				C7.07,3.374,7.115,3.151,7.222,2.938l-0.17-0.098C6.991,2.905,6.903,2.945,6.81,2.945c-0.095,0-0.181-0.04-0.244-0.103
				L6.399,2.936C6.506,3.148,6.551,3.374,6.54,3.589C6.107,3.47,5.784,3.077,5.784,2.604c0-0.09,0.016-0.175,0.037-0.256
				c0.189,0.094,0.36,0.245,0.494,0.442l0.171-0.101C6.478,2.66,6.469,2.633,6.469,2.601c0-0.16,0.108-0.287,0.256-0.326V2.078
				C6.487,2.063,6.274,1.991,6.094,1.874c0.182-0.182,0.437-0.292,0.714-0.292s0.536,0.113,0.719,0.296
				c-0.18,0.115-0.396,0.189-0.633,0.205v0.196C7.04,2.319,7.15,2.445,7.15,2.604c0,0.032-0.01,0.06-0.017,0.087l0.173,0.099
				c0.132-0.197,0.305-0.346,0.49-0.442c0.02,0.083,0.039,0.166,0.039,0.254C7.834,3.077,7.515,3.468,7.081,3.587z"/>
			<path id="earthquakeGroup" fill="#FFFFFF" d="M8.575,2.54c-0.081,0-0.158,0.045-0.198,0.119L8.06,3.259L7.666,2.104
				C7.634,2.018,7.555,1.959,7.462,1.955C7.365,1.952,7.285,2.006,7.248,2.092l-0.27,0.641L6.551,0.174
				C6.532,0.068,6.43-0.013,6.328-0.007c-0.11,0.004-0.2,0.075-0.216,0.183L5.735,3.143L5.428,1.55
				C5.412,1.457,5.334,1.385,5.24,1.373C5.146,1.36,5.053,1.41,5.01,1.497L4.509,2.54H3.735v0.443h0.917
				c0.084,0,0.163-0.047,0.2-0.124l0.27-0.56l0.434,2.259c0.019,0.102,0.111,0.177,0.217,0.177c0.003,0,0.006,0,0.008,0
				c0.109-0.002,0.2-0.083,0.213-0.191l0.371-2.916l0.311,1.918C6.694,3.645,6.77,3.719,6.868,3.731
				C6.967,3.739,7.06,3.688,7.1,3.597l0.333-0.793l0.37,1.089c0.032,0.083,0.105,0.141,0.194,0.149
				c0.091,0.004,0.174-0.04,0.214-0.118l0.496-0.94h0.956V2.54H8.575z"/>
		</g>
		<g id="ModereGroup" display="inline">
			<path id="displacedGroup" fill="#FFFFFF" d="M6.937,0.099c0.045,0.299-0.154,0.578-0.45,0.627
				c-0.297,0.051-0.58-0.152-0.628-0.447C5.81-0.022,6.011-0.304,6.309-0.351C6.608-0.402,6.889-0.199,6.937,0.099z M6.767,2.266
				l0.484,0.773C7.32,3.146,7.46,3.183,7.572,3.118c0.111-0.065,0.148-0.208,0.087-0.32l-0.122-0.22
				C7.429,2.386,7.325,2.194,7.22,2.006L7.004,1.613c-0.025-0.045-0.048-0.095-0.073-0.15C6.798,1.186,6.59,0.755,6.135,0.792
				c-0.39,0.036-0.784,0.222-1.17,0.551C4.503,1.706,4.181,2.232,4.172,2.256C4.156,2.277,4.141,2.302,4.129,2.322
				c0,0,0,0-0.001,0.002l0,0C4.085,2.408,4.064,2.482,4.115,2.576C4.157,2.65,4.239,2.696,4.324,2.696
				c0.102,0,0.156-0.05,0.206-0.125l0,0l0,0c0.017-0.02,0.03-0.046,0.045-0.068c0.002-0.004,0.272-0.438,0.69-0.792
				c0.128-0.102,0.25-0.171,0.365-0.208L5.539,2.627C5.529,2.736,5.494,2.93,5.463,3.039L5.254,3.772
				C5.229,3.863,5.147,4.019,5.088,4.092L4.522,4.791C4.451,4.882,4.369,4.982,4.435,5.124c0.041,0.083,0.124,0.133,0.216,0.133
				c0.108,0,0.167-0.063,0.242-0.145l0.572-0.617c0.102-0.11,0.235-0.301,0.3-0.436l0.285-0.577l1.052,1.764
				c0.05,0.087,0.115,0.195,0.26,0.195l0,0c0.08,0,0.155-0.041,0.197-0.108c0.078-0.118,0.025-0.223-0.017-0.32L6.69,3.169
				C6.657,3.098,6.64,2.95,6.653,2.871L6.767,2.266z M7.655,4.187h1.271v0.376l1.268-0.729L8.925,3.104v0.379H7.655V4.187z"/>
			<path id="returnedGroup" fill="#FFFFFF" d="M6.938,0.099c0.046,0.299-0.153,0.58-0.452,0.627C6.189,0.775,5.906,0.574,5.86,0.274
				C5.81-0.024,6.011-0.304,6.309-0.353C6.608-0.402,6.889-0.201,6.938,0.099z M6.767,2.264l0.484,0.775
				c0.066,0.107,0.211,0.141,0.32,0.079C7.683,3.05,7.72,2.911,7.658,2.798L7.536,2.576c-0.105-0.19-0.209-0.381-0.314-0.572
				L7.004,1.613c-0.025-0.045-0.047-0.095-0.073-0.15C6.798,1.186,6.59,0.753,6.135,0.792c-0.39,0.034-0.784,0.219-1.17,0.548
				C4.503,1.706,4.181,2.23,4.17,2.254C4.156,2.277,4.141,2.302,4.129,2.322L4.128,2.324l0,0C4.085,2.408,4.064,2.48,4.115,2.576
				C4.157,2.65,4.239,2.698,4.324,2.698c0.102,0,0.156-0.05,0.204-0.125l0,0l0,0c0.016-0.021,0.031-0.044,0.044-0.068
				c0.003-0.003,0.273-0.438,0.689-0.792C5.394,1.609,5.516,1.54,5.631,1.5L5.539,2.627C5.529,2.736,5.494,2.93,5.463,3.039
				L5.254,3.772C5.229,3.865,5.147,4.019,5.086,4.092L4.522,4.791C4.451,4.882,4.369,4.982,4.435,5.124
				c0.041,0.083,0.124,0.133,0.216,0.133c0.108,0,0.167-0.063,0.242-0.145l0.572-0.617C5.568,4.386,5.7,4.194,5.764,4.06
				l0.285-0.577L7.1,5.247c0.05,0.087,0.117,0.195,0.26,0.195l0,0c0.081,0,0.157-0.041,0.2-0.109
				c0.074-0.117,0.023-0.224-0.02-0.316L6.693,3.169C6.659,3.098,6.64,2.95,6.653,2.871L6.767,2.264z M10.304,2.659
				c0-0.769-0.627-1.396-1.397-1.396H8.314v0.707h0.595c0.379,0,0.689,0.309,0.689,0.69c0,0.38-0.309,0.692-0.689,0.692H8.782V2.972
				L7.521,3.701l1.262,0.732V4.055h0.14l0,0C9.684,4.046,10.304,3.423,10.304,2.659z"/>
		</g>
		<g id="ImportantGroup" display="inline">
			<path id="enlevementGroup" fill="#FFFFFF" d="M9.546-0.85c-0.189,0-0.339,0.152-0.339,0.339v1.378
				c0.082,0.018,0.159,0.053,0.225,0.114C9.61,1.157,9.615,1.447,9.44,1.625L8.796,2.286L8.71,2.199l0.641-0.656
				C9.48,1.408,9.477,1.197,9.345,1.069C9.305,1.027,9.257,1,9.203,0.986C9.147,0.971,9.089,0.971,9.035,0.982
				C8.972,0.996,8.916,1.027,8.874,1.075C8.494,1.466,8.111,1.856,7.73,2.248C7.635,2.345,7.46,2.567,7.466,2.792
				c0.004,0.208-0.002,0.425,0,0.636c-0.05-0.04-0.107-0.068-0.177-0.083c-0.197-0.034-0.374,0.084-0.44,0.261H6.747
				c0-0.048,0-0.097,0-0.145c0.004-0.22-0.003-0.449,0-0.67C6.756,2.567,6.58,2.345,6.487,2.248
				C6.104,1.856,5.726,1.466,5.343,1.073C5.299,1.027,5.242,0.996,5.18,0.982C5.127,0.969,5.069,0.971,5.013,0.986
				C4.961,1,4.911,1.027,4.873,1.069C4.74,1.197,4.735,1.408,4.863,1.542l0.642,0.656L5.419,2.286L4.778,1.625
				C4.603,1.447,4.607,1.157,4.785,0.982c0.063-0.062,0.141-0.095,0.222-0.114V-0.51c0-0.188-0.152-0.339-0.337-0.339
				c-0.189,0-0.339,0.152-0.339,0.339v2.386c0,0.079,0.031,0.15,0.077,0.208l1.154,1.52H5.46c-0.225,0-0.406,0.183-0.406,0.411
				c0,0.149,0.083,0.273,0.204,0.344c-0.12,0.073-0.204,0.198-0.204,0.345c0,0.227,0.181,0.408,0.406,0.408h0.124v0.227h1.132
				c0.06,0.059,0.129,0.103,0.212,0.117C6.952,5.46,6.973,5.462,6.997,5.462c0.2,0,0.369-0.143,0.401-0.339V5.112h0.074
				c0,0.076,0,0.15,0.008,0.228h1.149V5.112h0.125c0.222,0,0.406-0.181,0.406-0.408c0-0.147-0.083-0.274-0.204-0.345
				C9.077,4.289,9.16,4.165,9.16,4.015c0-0.225-0.185-0.408-0.406-0.408H8.654l1.152-1.521C9.852,2.027,9.885,1.959,9.885,1.88
				v-2.386C9.885-0.698,9.733-0.85,9.546-0.85z M5.255,4.014c0-0.113,0.091-0.203,0.205-0.203h1.336L6.725,4.218H5.46
				C5.348,4.215,5.255,4.125,5.255,4.014z M5.255,4.705C5.255,4.593,5.346,4.5,5.46,4.5h1.215L6.608,4.908H5.46
				C5.348,4.908,5.255,4.817,5.255,4.705z M7.197,5.087C7.179,5.199,7.06,5.271,6.962,5.255C6.908,5.247,6.862,5.216,6.83,5.172
				C6.798,5.127,6.788,5.073,6.796,5.019l0.225-1.304c0.018-0.098,0.103-0.169,0.203-0.169c0.009,0,0.021,0,0.033,0.002
				c0.111,0.02,0.184,0.124,0.165,0.237L7.197,5.087z M8.96,4.705c0,0.113-0.091,0.205-0.204,0.205H7.435L7.505,4.5h1.251
				C8.868,4.5,8.96,4.593,8.96,4.705z M8.96,4.014c0,0.111-0.091,0.202-0.204,0.202H7.552l0.07-0.398c0-0.001,0-0.005,0-0.007h1.134
				C8.868,3.811,8.96,3.903,8.96,4.014z"/>
		</g>
		<g id="EleveGroup" display="inline">
			<path id="attackGroup" fill="#FFFFFF" d="M8.448,2.824l1.564-1.002L8.497,1.663l0.412-1.756L7.84,1.014L7.539-0.241L7.09,0.929
				L5.864-0.648l0.383,1.977l-1.088-0.24c0,0,0.332,0.633,0.514,1.014L3.927,1.98l1.581,0.925L5.055,3.372L5.79,3.238L5.269,5.08
				l1.55-1.296l0.402,1.001l0.412-0.8l1.333,1.377L8.298,3.518l1.467,0.15L8.448,2.824z"/>
		</g>
		<g id="ExtremeGroup" display="inline">
			<path id="rebelionGroup" fill="#FFFFFF" d="M8.053,0.49c0,0.636-0.517,1.153-1.151,1.153c-0.637,0-1.154-0.517-1.154-1.153
				c0-0.639,0.517-1.154,1.154-1.154C7.536-0.664,8.053-0.149,8.053,0.49z M4.976,5.38h0.703h0.039l0.025-0.054l0.254-0.25
				L5.76,5.024L5.39,4.945L4.976,5.38z M9.801,0.702L9.556,0.951l0.016,0.018L9.368,1.169c0.029,0.024,0.055,0.05,0.077,0.079
				l0.202-0.203l0.041,0.038l0.242-0.249L9.801,0.702z M8.209,1.981L8.101,2.089l0.013,0.029L8.14,2.175L6.456,3.861l0.18,0.04
				C6.802,3.936,6.947,4.034,7.04,4.179c0.012,0.019,0.016,0.044,0.025,0.065L7.07,4.237L7.195,4.32l0.042-0.01l0.491,0.357
				l0.329-0.453L7.327,3.645l0.02-0.047h0.121l0.716-0.842l0.081-0.753L8.209,1.981z M8.991,1.236
				c-0.22-0.024-0.432,0.14-0.455,0.365l-0.03,0.247l0,0L8.49,2.025L8.409,2.779l-0.008,0.07L8.358,2.902L7.717,3.658l0.48,0.378
				l0.177,0.137L8.272,4.311l0.026,0.051c0.065,0.145,0.212,0.233,0.37,0.233c0.022,0,0.044,0,0.069-0.006
				c0.181-0.03,0.317-0.178,0.338-0.361L9.353,1.69C9.379,1.463,9.214,1.261,8.991,1.236z M8.152,4.478L7.917,4.802L7.781,4.984
				L7.595,4.851L7.189,4.557L7.153,4.565L7.137,4.557c0,0.036,0,0.068-0.008,0.102c-0.007,0.034-0.02,0.065-0.033,0.098
				c-0.025,0.059-0.06,0.109-0.098,0.159l0.031,0.065c0.026,0.065,0.067,0.148,0.114,0.223L7.258,5.38h0.865L8.152,4.478z
				 M6.501,5.167c-0.007,0-0.017-0.002-0.029-0.002C6.471,5.18,6.467,5.193,6.467,5.193L6.563,5.38h0.235L6.95,5.326
				C6.899,5.247,6.858,5.161,6.82,5.071C6.722,5.127,6.618,5.167,6.501,5.167z M6.84,4.294C6.824,4.269,6.8,4.247,6.776,4.228
				C6.763,4.213,6.751,4.196,6.735,4.187c-0.041-0.03-0.092-0.054-0.146-0.065l-0.18-0.038l-0.41-0.087l0,0L5.635,3.918l-0.14-0.027
				L5.263,3.839L5.248,3.837L5.286,3.8l0.156-0.158l0.17-0.167c0.013,0.116,0.019,0.208,0.019,0.21l0.054,0.011l0.511,0.108L6.3,3.7
				l1.573-1.579l-0.037-0.09l0.012-0.01C7.62,1.952,7.353,1.91,7.013,1.91H6.902h-0.11c-0.238,0-0.477,0.017-0.712,0.07
				C5.676,2.07,5.425,2.467,5.152,2.736c-0.288,0.28-0.563,0.572-0.839,0.861C4.252,3.662,4.191,3.727,4.128,3.79
				C4.021,3.898,3.983,4.055,4.023,4.2c0.042,0.145,0.162,0.253,0.311,0.286l0.544,0.119l0.231,0.047l1.308,0.28
				c0.03,0.004,0.058,0.008,0.086,0.008c0.19,0,0.362-0.132,0.402-0.328c0.016-0.077,0.004-0.147-0.019-0.214L6.864,4.345
				C6.855,4.328,6.848,4.314,6.84,4.294z M6.262,5.302L6.224,5.228l0.02-0.083l0.003-0.015L6.183,5.112L5.954,5.38h0.35L6.262,5.302
				z"/>
		</g>
	</g>
</g>
<g id="Unique" display="none">
	<g id="PinColor" display="inline">
		<path id="PinOmbre" opacity="0.3" enable-background="new    " d="M12.72,15.352c0,0.901-1.979,1.658-4.642,1.857
			c-0.449,0.034-1.399,2.148-1.399,2.148s-0.983-2.115-1.447-2.151c-2.637-0.205-4.594-0.958-4.594-1.854
			c0-1.055,2.705-1.91,6.041-1.91S12.72,14.296,12.72,15.352z"/>
		<path id="PinMinimal" fill="#FFFFFF" stroke="#848484" stroke-width="0.2" stroke-miterlimit="10" d="M12.72,6.486
			c0,2.76-1.979,5.075-4.642,5.686c-0.449,0.102-1.399,6.573-1.399,6.573s-0.983-6.472-1.447-6.586
			c-2.637-0.626-4.594-2.93-4.594-5.675c0-3.227,2.705-5.843,6.041-5.843S12.72,3.259,12.72,6.486z"/>
		<path id="PinFaible" fill="#2ABF00" stroke="#1D7500" stroke-width="0.2" stroke-miterlimit="10" d="M12.72,6.486
			c0,2.76-1.979,5.075-4.642,5.686c-0.449,0.102-1.399,6.573-1.399,6.573s-0.983-6.472-1.447-6.586
			c-2.637-0.626-4.594-2.93-4.594-5.675c0-3.227,2.705-5.843,6.041-5.843S12.72,3.259,12.72,6.486z"/>
		<path id="PinModere" fill="#EDD600" stroke="#CE9D00" stroke-width="0.2" stroke-miterlimit="10" d="M12.72,6.486
			c0,2.76-1.979,5.075-4.642,5.686c-0.449,0.102-1.399,6.573-1.399,6.573s-0.983-6.472-1.447-6.586
			c-2.637-0.626-4.594-2.93-4.594-5.675c0-3.227,2.705-5.843,6.041-5.843S12.72,3.259,12.72,6.486z"/>
		<path id="PinImportant" fill="#FF8500" stroke="#BF3A00" stroke-width="0.2" stroke-miterlimit="10" d="M12.72,6.486
			c0,2.76-1.979,5.075-4.642,5.686c-0.449,0.102-1.399,6.573-1.399,6.573s-0.983-6.472-1.447-6.586
			c-2.637-0.626-4.594-2.93-4.594-5.675c0-3.227,2.705-5.843,6.041-5.843S12.72,3.259,12.72,6.486z"/>
		<path id="PinEleve" fill="#ED1C24" stroke="#BA1522" stroke-width="0.2" stroke-miterlimit="10" d="M12.72,6.486
			c0,2.76-1.979,5.075-4.642,5.686c-0.449,0.102-1.399,6.573-1.399,6.573s-0.983-6.472-1.447-6.586
			c-2.637-0.626-4.594-2.93-4.594-5.675c0-3.227,2.705-5.843,6.041-5.843S12.72,3.259,12.72,6.486z"/>
		<path id="PinExtreme" stroke="#333333" stroke-width="0.2" stroke-miterlimit="10" d="M12.72,6.486
			c0,2.76-1.979,5.075-4.642,5.686c-0.449,0.102-1.399,6.573-1.399,6.573s-0.983-6.472-1.447-6.586
			c-2.637-0.626-4.594-2.93-4.594-5.675c0-3.227,2.705-5.843,6.041-5.843S12.72,3.259,12.72,6.486z"/>
	</g>
	<g id="Icons" display="inline">
		<g id="Minimal">
			<path id="Election" fill="#565656" d="M10.182,3.723L8.085,2.824C8.023,2.798,7.95,2.816,7.909,2.869L7.309,3.618
				C7.282,3.652,7.272,3.699,7.281,3.743C7.29,3.785,7.318,3.82,7.355,3.84l-1.88,0.705c-0.159,0.059-0.293,0.171-0.38,0.316
				L4.473,5.898C4.341,6.118,4.33,6.387,4.446,6.617L4.49,6.705H3.834c-0.083,0-0.15,0.067-0.15,0.15V9.7H3.235
				c-0.083,0-0.148,0.067-0.148,0.149c0,0.083,0.065,0.15,0.148,0.15h5.093c0.082,0,0.146-0.067,0.146-0.15
				c0-0.082-0.064-0.149-0.146-0.149h-0.45V8.17c0-0.051-0.027-0.1-0.069-0.126C7.764,8.016,7.71,8.012,7.663,8.034
				C7.498,8.112,7.377,8.151,7.32,8.168C7.307,8.171,7.295,8.176,7.284,8.184L6.309,8.768C6.154,8.862,5.977,8.911,5.797,8.911
				c-0.332,0-0.642-0.165-0.831-0.445C4.816,8.241,4.764,7.97,4.82,7.706c0.057-0.264,0.214-0.49,0.439-0.635l0.142-0.09
				C5.505,6.918,5.597,6.86,5.68,6.809c0.058-0.036,0.084-0.106,0.064-0.171c-0.037-0.12-0.1-0.227-0.157-0.309
				c0.229-0.1,0.538-0.278,0.693-0.459c0,0,0.002,0.001,0.003,0.001c0.032,0.02,0.07,0.041,0.114,0.062
				c0.003,0.001,0.004,0.002,0.008,0.003l0,0c0.111,0.054,0.253,0.108,0.415,0.14C6.647,6.292,6.469,6.561,6.405,6.74
				C6.281,6.795,6.023,6.941,5.421,7.324C5.262,7.426,5.153,7.583,5.115,7.768C5.075,7.953,5.111,8.142,5.217,8.3
				c0.134,0.201,0.354,0.312,0.581,0.312c0.122,0,0.246-0.033,0.357-0.1l1.029-0.618c0.16-0.039,0.961-0.279,1.567-1.259
				c0.476-0.769,0.742-1.388,0.853-1.668l0.019,0.009c0.063,0.031,0.131,0.047,0.2,0.047c0.114,0,0.229-0.046,0.313-0.126
				c0.089-0.084,0.137-0.2,0.137-0.323V3.861C10.271,3.801,10.237,3.746,10.182,3.723z"/>
		</g>
		<g id="Faible">
			<path id="Famine" display="none" fill="#F9F9F9" d="M8.833,9.237l-1.19,0.225L5.699,8.405l0.706-0.881l1.59,0.528L8.833,9.237z
				 M10.662,7.171v0.132L9.409,7.7L8.172,7.876l-1.59-0.529L6.208,7.171h0.214C6.371,6.698,6.303,6.34,6.27,5.871H6.268
				C6.267,5.857,6.25,5.543,6.246,5.409C6.222,5.268,6.155,5.212,5.934,5.06C5.813,4.982,5.723,4.954,5.672,4.955
				c-0.081,0-0.153,0.088-0.17,0.352C5.856,5.367,5.88,5.759,5.88,5.759c0.031,0.278-0.105,0.685-0.42,0.79
				C4.878,6.743,4.938,5.622,5.266,5.353c0.009-0.323,0.1-0.619,0.406-0.631c0.122,0.001,0.246,0.051,0.39,0.142
				C6.13,4.905,6.186,4.947,6.235,4.99C6.229,4.884,6.222,4.775,6.222,4.663C6.221,4.428,6.258,4.171,6.467,3.989
				c0.107-0.098,0.229-0.148,0.348-0.147c0.312,0.015,0.504,0.283,0.616,0.557c0.131-0.057,0.294-0.085,0.481-0.02
				c0.479,0.166,0.736,1,0.536,1.291C7.977,6.347,6.789,5.086,7.104,4.646c0,0,0.046-0.06,0.127-0.126
				C7.139,4.277,6.953,4.06,6.815,4.075C6.762,4.076,6.7,4.095,6.622,4.164C6.49,4.28,6.455,4.446,6.455,4.663
				c0,0.153,0.019,0.323,0.019,0.493c0,0.089,0.006,0.167,0.009,0.253c0.021,0.152,0.022,0.269,0.021,0.429
				c0.032,0.467,0.222,0.851,0.271,1.333H10.662z M7.318,4.613l0.899,0.98c-0.16-0.695-0.73-1.082-0.73-1.082L7.318,4.613z
				 M5.453,5.454L5.292,5.52c0,0-0.08,0.548,0,0.834L5.453,5.454z M4.648,8.759l0.715-0.43l0.745-0.922L5.875,7.171H4.229
				L3.902,7.823L4.648,8.759z M5.482,8.611L4.215,9.473l0.169,0.209h2.915l-0.01-0.043L5.482,8.611z M2.875,7.171v0.994L3.687,7.73
				l0.246-0.559H2.875z M8.407,8.089l0.785,1.139l1.47,0.345V8.27L9.605,7.929L8.407,8.089z M10.662,7.985v-0.46L9.838,7.748
				L10.662,7.985z M3.707,8.049L2.875,8.445v1.237h0.608L4.39,8.94L3.707,8.049z M8.064,9.682h1.902l-0.91-0.22L8.064,9.682z"/>
			<path id="Cyclone" display="none" fill="#FFFFFF" d="M6.799,4.496c-0.04-0.002-0.08-0.007-0.12-0.007
				c-0.357,0-0.692,0.093-0.984,0.254c0.521-1.776,1.822-1.931,1.822-1.931s-2.874,0.24-2.874,3.593c0.002,0,0.004,0,0.006,0
				c-0.002,0.041-0.006,0.08-0.006,0.121c0,0.355,0.093,0.691,0.254,0.984C3.12,6.988,2.965,5.688,2.965,5.688
				S3.204,8.563,6.56,8.563c0-0.003,0-0.004,0-0.007c0.039,0.002,0.079,0.007,0.119,0.007c0.357,0,0.692-0.093,0.984-0.255
				C7.142,10.085,5.84,10.24,5.84,10.24S8.715,10,8.715,6.646c-0.002,0-0.004,0-0.006,0c0.002-0.04,0.006-0.079,0.006-0.119
				c0-0.357-0.093-0.693-0.255-0.984c1.776,0.521,1.932,1.822,1.932,1.822S10.154,4.49,6.799,4.49
				C6.799,4.492,6.799,4.494,6.799,4.496z"/>
			<path id="eruption" display="none" fill="#FFFFFF" d="M7.245,5.14c0.428,0.146,0.996,0.319,1.116-0.372
				C8.458,4.231,9.175,4.43,9.48,4.396c0.556-0.064,0.136-1.103-0.559-1.118C8.218,3.262,7.898,3.571,7.618,4.209
				C7.484,4.516,7.37,4.747,6.873,4.582c-0.497-0.166-0.861,0.242-0.56,0.745C6.581,5.772,6.31,6.258,6.31,6.258h0.75
				c0,0-0.006-0.276-0.187-0.559C6.662,5.37,6.807,4.989,7.245,5.14z M3.276,9.774C5.203,8.37,5.685,6.428,5.685,6.428h1.98
				c0,0,0.481,1.941,2.408,3.346H3.276z"/>
			<path id="tsunami" display="none" fill="#FFFFFF" d="M10.29,8.892c-5.916,0.335-4.263-4.19-2.729-3.799
				C7.404,5.189,7.302,5.522,7.4,5.746c0.107,0.24,0.453,0.377,0.652,0.327C8.529,5.95,8.55,5.281,8.378,4.93
				C8.2,4.565,7.73,4.114,6.909,4.114c-1.981,0-3.333,1.012-3.842,2.751v2.558h7.224L10.29,8.892L10.29,8.892z"/>
			<path id="epidemie" display="none" fill="#FFFFFF" d="M9.765,6.826c0-1.691-1.325-3.067-2.994-3.153
				c0.737,0.07,1.312,0.605,1.312,1.256c0,0.224-0.074,0.43-0.193,0.612c-0.33-0.328-0.782-0.53-1.283-0.53
				c-0.5,0-0.952,0.202-1.28,0.529C5.207,5.358,5.133,5.152,5.133,4.928c0-0.65,0.573-1.186,1.31-1.256
				C4.775,3.758,3.449,5.135,3.449,6.826c0,0.51,0.124,0.991,0.338,1.418c-0.293-0.668-0.115-1.419,0.441-1.74
				c0.194-0.112,0.411-0.152,0.627-0.14C4.815,6.513,4.787,6.668,4.787,6.83c0,0.84,0.574,1.541,1.349,1.75
				C6.125,8.598,6.113,8.615,6.102,8.633c0,0.002,0,0.002,0,0.004C6.076,8.695,6.043,8.741,6.005,8.781
				C5.922,8.89,5.825,8.987,5.702,9.058c-0.56,0.323-1.304,0.099-1.733-0.496C4.534,9.42,5.504,9.988,6.607,9.988
				c1.093,0,2.055-0.556,2.623-1.4C8.797,9.164,8.067,9.376,7.516,9.06C7.321,8.946,7.178,8.776,7.08,8.579
				C7.855,8.37,8.425,7.668,8.425,6.83c0-0.162-0.026-0.317-0.067-0.466C8.576,6.35,8.793,6.39,8.989,6.503
				C9.53,6.815,9.713,7.531,9.454,8.185C9.653,7.772,9.765,7.313,9.765,6.826z M6.943,8.042c-0.014-0.263,0.042-0.539,0.174-0.8
				L6.906,7.121C6.83,7.199,6.725,7.247,6.607,7.247c-0.116,0-0.223-0.048-0.299-0.126L6.102,7.239
				C6.234,7.502,6.289,7.78,6.275,8.043C5.74,7.897,5.344,7.41,5.344,6.83c0-0.111,0.018-0.216,0.045-0.318
				C5.622,6.63,5.834,6.814,5.996,7.057l0.211-0.123c-0.009-0.036-0.022-0.07-0.022-0.109c0-0.195,0.135-0.353,0.316-0.4v-0.24
				c-0.293-0.019-0.559-0.11-0.779-0.254c0.229-0.225,0.54-0.363,0.884-0.363c0.345,0,0.657,0.139,0.886,0.364
				C7.271,6.076,7.005,6.166,6.712,6.185v0.241c0.181,0.047,0.315,0.205,0.315,0.4c0,0.039-0.012,0.073-0.021,0.109L7.221,7.06
				c0.161-0.243,0.373-0.426,0.604-0.544c0.025,0.1,0.044,0.205,0.044,0.314C7.869,7.409,7.476,7.894,6.943,8.042z"/>
			<path id="earthquake" display="none" fill="#FFFFFF" d="M8.784,6.749c-0.102,0-0.194,0.056-0.242,0.146L8.148,7.638L7.661,6.214
				c-0.038-0.108-0.137-0.181-0.25-0.186C7.294,6.025,7.193,6.091,7.148,6.196L6.815,6.988L6.289,3.834
				C6.264,3.702,6.14,3.602,6.013,3.609C5.878,3.612,5.766,3.701,5.748,3.835L5.282,7.494L4.906,5.53
				C4.884,5.415,4.789,5.326,4.672,5.31C4.556,5.294,4.44,5.357,4.389,5.463L3.772,6.749H2.814v0.548h1.131
				c0.105,0,0.202-0.061,0.248-0.155l0.331-0.691l0.535,2.786C5.084,9.366,5.197,9.46,5.328,9.46c0.002,0,0.005,0,0.007,0
				C5.469,9.456,5.581,9.355,5.6,9.222l0.458-3.596l0.383,2.367c0.022,0.12,0.119,0.21,0.24,0.224
				C6.803,8.228,6.917,8.162,6.965,8.05l0.411-0.978l0.458,1.342C7.869,8.518,7.962,8.591,8.071,8.6
				C8.18,8.606,8.284,8.552,8.336,8.455l0.613-1.158h1.177V6.749H8.784z"/>
		</g>
		<g id="Modere">
			<path id="displaced" fill="#FFFFFF" d="M6.474,3.893c0.049,0.304-0.156,0.59-0.458,0.64c-0.303,0.05-0.591-0.156-0.641-0.458
				C5.325,3.77,5.53,3.483,5.834,3.434C6.137,3.384,6.424,3.589,6.474,3.893z M6.3,6.101l0.493,0.787
				C6.863,6.999,7.008,7.034,7.12,6.969c0.113-0.067,0.152-0.211,0.09-0.325L7.085,6.417C6.976,6.223,6.869,6.029,6.761,5.835
				L6.542,5.437C6.517,5.39,6.492,5.338,6.466,5.284C6.331,5,6.12,4.561,5.657,4.601C5.261,4.636,4.859,4.824,4.464,5.16
				c-0.469,0.37-0.796,0.906-0.81,0.93C3.639,6.113,3.625,6.137,3.613,6.16c-0.001,0-0.001,0.001-0.002,0.002l0,0
				C3.567,6.244,3.545,6.32,3.6,6.417C3.643,6.493,3.724,6.54,3.811,6.54c0.105,0,0.159-0.05,0.211-0.125l0,0
				c0.001,0,0.001-0.002,0.001-0.002c0.016-0.022,0.029-0.045,0.045-0.07C4.071,6.337,4.346,5.896,4.77,5.534
				c0.131-0.103,0.256-0.173,0.373-0.212L5.049,6.468c-0.01,0.114-0.045,0.309-0.077,0.419L4.76,7.634
				C4.732,7.728,4.652,7.885,4.59,7.961L4.013,8.675C3.94,8.766,3.858,8.868,3.926,9.01c0.041,0.084,0.125,0.137,0.219,0.137
				c0.111,0,0.172-0.063,0.247-0.146l0.583-0.629c0.104-0.112,0.24-0.307,0.308-0.445L5.57,7.34l1.07,1.797
				c0.052,0.089,0.119,0.199,0.264,0.199l0,0c0.083,0,0.159-0.042,0.203-0.111c0.077-0.119,0.025-0.227-0.019-0.324L6.223,7.022
				C6.19,6.948,6.171,6.798,6.185,6.717L6.3,6.101z M7.206,8.057h1.296v0.385L9.79,7.698L8.502,6.954v0.385H7.206V8.057z"/>
			<path id="returned" fill="#FFFFFF" d="M6.475,3.892c0.049,0.304-0.157,0.59-0.459,0.64c-0.304,0.05-0.59-0.156-0.64-0.459
				c-0.05-0.304,0.154-0.59,0.459-0.64C6.137,3.383,6.426,3.588,6.475,3.892z M6.301,6.1l0.493,0.788
				c0.068,0.11,0.215,0.146,0.328,0.08c0.111-0.067,0.15-0.211,0.088-0.326L7.085,6.416C6.977,6.223,6.871,6.028,6.763,5.834
				l-0.22-0.399C6.518,5.39,6.493,5.338,6.467,5.283C6.331,4.999,6.119,4.56,5.657,4.601C5.261,4.635,4.86,4.823,4.464,5.159
				c-0.468,0.37-0.796,0.907-0.811,0.929C3.639,6.112,3.625,6.136,3.613,6.159C3.612,6.16,3.611,6.16,3.611,6.161l0,0
				C3.567,6.244,3.545,6.32,3.6,6.416c0.043,0.076,0.123,0.123,0.211,0.123c0.105,0,0.159-0.05,0.211-0.125l0,0
				c0.001-0.001,0.001-0.001,0.001-0.001C4.037,6.39,4.052,6.366,4.068,6.341c0.003-0.004,0.278-0.445,0.703-0.808
				C4.902,5.431,5.026,5.36,5.144,5.321L5.049,6.468c-0.01,0.114-0.045,0.309-0.077,0.419L4.76,7.634
				C4.732,7.728,4.652,7.885,4.589,7.961L4.013,8.675C3.94,8.766,3.858,8.868,3.926,9.011c0.04,0.083,0.125,0.137,0.218,0.137
				c0.111,0,0.171-0.064,0.248-0.146l0.583-0.629c0.104-0.112,0.239-0.307,0.306-0.445L5.57,7.34l1.07,1.797
				c0.053,0.089,0.12,0.199,0.265,0.199l0,0c0.083,0,0.159-0.042,0.204-0.113C7.185,9.105,7.134,8.998,7.09,8.901l-0.865-1.88
				C6.191,6.948,6.172,6.798,6.186,6.717L6.301,6.1z M9.904,6.501c0-0.785-0.639-1.422-1.422-1.422H7.877v0.718h0.604
				c0.388,0,0.703,0.315,0.703,0.704c0,0.388-0.315,0.704-0.703,0.704H8.356V6.82L7.067,7.564l1.289,0.744V7.922h0.141V7.921
				C9.273,7.913,9.904,7.28,9.904,6.501z"/>
		</g>
		<g id="Important">
			<path id="enlevement" fill="#FFFFFF" d="M9.24,3.051c-0.195,0-0.355,0.16-0.355,0.356v1.451c0.086,0.019,0.168,0.055,0.234,0.12
				c0.188,0.185,0.192,0.489,0.009,0.678L8.453,6.35L8.36,6.26l0.678-0.692c0.136-0.14,0.132-0.363-0.007-0.5
				c-0.044-0.041-0.095-0.07-0.148-0.085c-0.061-0.016-0.12-0.017-0.179-0.005c-0.065,0.017-0.124,0.05-0.17,0.099
				C8.133,5.488,7.731,5.899,7.33,6.31C7.23,6.413,7.046,6.649,7.052,6.884c0.004,0.221-0.003,0.448,0.001,0.67
				C7,7.512,6.937,7.481,6.865,7.468C6.658,7.434,6.472,7.557,6.401,7.741H6.296c0-0.05,0-0.101,0.001-0.151
				c0.005-0.232-0.004-0.473,0.002-0.705C6.304,6.649,6.12,6.413,6.02,6.31c-0.4-0.411-0.801-0.822-1.203-1.234
				c-0.046-0.048-0.104-0.082-0.17-0.098C4.588,4.966,4.528,4.967,4.469,4.983C4.414,4.999,4.363,5.028,4.32,5.069
				c-0.138,0.136-0.141,0.359-0.006,0.5L4.99,6.26L4.897,6.35L4.222,5.656c-0.185-0.189-0.18-0.493,0.009-0.677
				c0.066-0.064,0.148-0.101,0.234-0.12V3.408c0-0.196-0.16-0.356-0.355-0.356c-0.197,0-0.356,0.16-0.356,0.356V5.92
				c0,0.082,0.033,0.157,0.082,0.218L5.048,7.74H4.941c-0.235,0-0.429,0.192-0.429,0.43c0,0.157,0.089,0.289,0.215,0.363
				C4.601,8.608,4.512,8.74,4.512,8.896c0,0.238,0.192,0.43,0.429,0.43h0.131v0.239h1.191c0.063,0.062,0.135,0.107,0.223,0.122
				C6.51,9.691,6.532,9.693,6.557,9.693c0.209,0,0.388-0.149,0.422-0.356l0.002-0.011h0.076c0.001,0.079,0,0.157,0.009,0.239h1.212
				V9.326h0.132c0.235,0,0.429-0.191,0.429-0.43c0-0.156-0.089-0.288-0.216-0.363c0.127-0.074,0.216-0.206,0.216-0.364
				c0-0.237-0.192-0.429-0.429-0.429H8.302l1.213-1.603c0.05-0.061,0.082-0.136,0.082-0.218V3.408
				C9.597,3.211,9.438,3.051,9.24,3.051z M4.727,8.169c0-0.118,0.097-0.214,0.214-0.214h1.406L6.273,8.384H4.941
				C4.823,8.383,4.727,8.288,4.727,8.169z M4.727,8.896c0-0.117,0.097-0.215,0.214-0.215h1.28l-0.074,0.43H4.941
				C4.823,9.111,4.727,9.016,4.727,8.896z M6.767,9.3C6.748,9.418,6.626,9.494,6.52,9.476c-0.057-0.01-0.105-0.041-0.139-0.087
				c-0.034-0.047-0.046-0.104-0.036-0.16l0.236-1.374C6.6,7.751,6.69,7.677,6.796,7.677c0.011,0,0.022,0,0.034,0.002
				c0.116,0.02,0.194,0.131,0.174,0.248L6.767,9.3z M8.623,8.896c0,0.119-0.097,0.215-0.214,0.215H7.018l0.074-0.43h1.317
				C8.527,8.682,8.623,8.779,8.623,8.896z M8.623,8.169c0,0.118-0.097,0.214-0.214,0.214H7.144l0.072-0.42
				c0.001-0.003,0-0.006,0-0.009h1.192C8.527,7.955,8.623,8.052,8.623,8.169z"/>
		</g>
		<g id="Eleve">
			<path id="attack" fill="#FFFFFF" d="M8.332,7.013l2.116-1.355L8.404,5.441l0.556-2.376l-1.45,1.499L7.105,2.87L6.496,4.451
				L4.839,2.316L5.36,4.991L3.887,4.664c0,0,0.447,0.857,0.697,1.373L2.22,5.871l2.14,1.251L3.745,7.754L4.74,7.572l-0.705,2.493
				L6.13,8.313l0.543,1.354l0.559-1.083l1.807,1.865L8.135,7.952l1.98,0.201L8.332,7.013z"/>
		</g>
		<g id="Extreme">
			<path id="rebelion" fill="#FFFFFF" d="M7.799,4.597c0,0.661-0.535,1.195-1.194,1.195c-0.661,0-1.196-0.535-1.196-1.195
				c0-0.661,0.535-1.195,1.196-1.195C7.264,3.402,7.799,3.936,7.799,4.597z M4.609,9.667h0.73h0.039l0.026-0.056l0.266-0.26
				L5.425,9.299L5.037,9.216L4.609,9.667z M9.61,4.819L9.353,5.075L9.37,5.093L9.163,5.302C9.191,5.327,9.218,5.353,9.24,5.383
				l0.209-0.209l0.043,0.039l0.253-0.258L9.61,4.819z M7.959,6.145l-0.11,0.109l0.013,0.031l0.025,0.059L6.144,8.092l0.188,0.04
				c0.172,0.036,0.32,0.139,0.417,0.288c0.013,0.021,0.017,0.047,0.027,0.069l0.005-0.006l0.129,0.085l0.046-0.01l0.508,0.369
				l0.342-0.468L7.048,7.868l0.017-0.049H7.19l0.743-0.872l0.083-0.781L7.959,6.145z M8.769,5.372
				C8.543,5.347,8.323,5.516,8.297,5.75L8.269,6.005l0,0L8.251,6.189L8.168,6.971L8.16,7.044L8.114,7.1L7.448,7.88l0.501,0.393
				L8.13,8.414L8.025,8.557L8.051,8.61C8.12,8.76,8.273,8.853,8.437,8.853c0.023,0,0.047-0.001,0.071-0.006
				C8.696,8.815,8.84,8.662,8.861,8.473l0.284-2.629C9.172,5.608,9.002,5.396,8.769,5.372z M7.899,8.73L7.655,9.066l-0.14,0.192
				l-0.191-0.14L6.903,8.814L6.865,8.823L6.85,8.813c0,0.036-0.001,0.071-0.009,0.107c-0.008,0.035-0.021,0.067-0.034,0.1
				C6.781,9.082,6.746,9.136,6.705,9.186l0.029,0.067c0.029,0.067,0.07,0.154,0.119,0.23l0.117,0.183h0.898L7.899,8.73z
				 M6.191,9.446c-0.01,0-0.021-0.003-0.03-0.004C6.156,9.461,6.153,9.475,6.153,9.475l0.102,0.191h0.243l0.157-0.055
				C6.601,9.528,6.558,9.438,6.518,9.348C6.419,9.405,6.311,9.446,6.191,9.446z M6.542,8.541c-0.018-0.027-0.044-0.048-0.068-0.07
				C6.46,8.458,6.448,8.44,6.431,8.429c-0.044-0.031-0.096-0.054-0.15-0.067L6.094,8.324L5.669,8.233l0,0l-0.376-0.08L5.147,8.122
				L4.906,8.07L4.89,8.067l0.038-0.039l0.163-0.162l0.174-0.175c0.015,0.12,0.021,0.215,0.021,0.217L5.343,7.92L5.87,8.032
				l0.107-0.108l1.631-1.638L7.572,6.195l0.014-0.011C7.349,6.113,7.071,6.072,6.72,6.072H6.605c0,0-0.113,0-0.114,0
				c-0.246,0-0.495,0.017-0.738,0.071C5.334,6.237,5.075,6.646,4.789,6.928c-0.295,0.29-0.581,0.592-0.868,0.89
				C3.858,7.885,3.794,7.953,3.729,8.019c-0.11,0.111-0.15,0.273-0.106,0.424c0.043,0.15,0.167,0.263,0.32,0.297l0.564,0.121
				l0.239,0.05L6.102,9.2c0.03,0.005,0.061,0.01,0.09,0.01c0.197,0,0.374-0.138,0.417-0.338c0.017-0.079,0.004-0.153-0.02-0.224
				L6.563,8.594C6.555,8.578,6.549,8.561,6.542,8.541z M5.944,9.585L5.903,9.508l0.021-0.086l0.004-0.017L5.862,9.391L5.622,9.666
				h0.363L5.944,9.585z"/>
		</g>
	</g>
</g>
<g id="Icone">
</g>
</svg>
