<?xml version="1.0" encoding="utf-8"?>
<!-- Generator: Adobe Illustrator 16.0.0, SVG Export Plug-In . SVG Version: 6.00 Build 0)  -->
<!DOCTYPE svg PUBLIC "-//W3C//DTD SVG 1.1//EN" "http://www.w3.org/Graphics/SVG/1.1/DTD/svg11.dtd">
<svg version="1.1" id="Groupe" xmlns="http://www.w3.org/2000/svg" xmlns:xlink="http://www.w3.org/1999/xlink" x="0px" y="0px"
	 width="15.871px" height="15.65px" viewBox="0 0 15.871 15.65" enable-background="new 0 0 15.871 15.65" xml:space="preserve">
<g id="PinColor_1_">
	<path id="vert" display="none" fill="#2ABF00" stroke="#1D7500" stroke-width="0.2" stroke-miterlimit="10" d="M15.472,7.876
		c0,3.444-2.464,6.334-5.791,7.101c-0.559,0.122-2.973,0.122-3.55-0.023c-3.291-0.778-5.733-3.651-5.733-7.079
		c0-4.021,3.377-7.29,7.537-7.29C12.093,0.584,15.472,3.853,15.472,7.876z"/>
	<path id="orange" display="none" fill="#FF8500" stroke="#7F4500" stroke-width="0.2" stroke-miterlimit="10" d="M15.472,7.876
		c0,3.444-2.464,6.334-5.791,7.101c-0.559,0.122-2.973,0.122-3.55-0.023c-3.291-0.778-5.733-3.651-5.733-7.079
		c0-4.021,3.377-7.29,7.537-7.29C12.093,0.584,15.472,3.853,15.472,7.876z"/>
	<path id="gris" display="none" fill="#A5A5A5" stroke="#595959" stroke-width="0.2" stroke-miterlimit="10" d="M15.472,7.876
		c0,3.444-2.464,6.334-5.791,7.101c-0.559,0.122-2.973,0.122-3.55-0.023c-3.291-0.778-5.733-3.651-5.733-7.079
		c0-4.021,3.377-7.29,7.537-7.29C12.093,0.584,15.472,3.853,15.472,7.876z"/>
	<path id="bleu" fill="#0092FF" stroke="#00477C" stroke-width="0.2" stroke-miterlimit="10" d="M15.472,7.876
		c0,3.444-2.464,6.334-5.791,7.101c-0.559,0.122-2.973,0.122-3.55-0.023c-3.291-0.778-5.733-3.651-5.733-7.079
		c0-4.021,3.377-7.29,7.537-7.29C12.093,0.584,15.472,3.853,15.472,7.876z"/>
</g>
<g id="IconsGroup">
	<g id="MinimalGroup" display="none">
		<path id="ElectionGroup" display="inline" fill="#565656" d="M13.099,4.487l-3.272-1.4C9.734,3.048,9.614,3.073,9.553,3.153
			L8.616,4.324C8.573,4.37,8.558,4.451,8.573,4.518c0.016,0.071,0.06,0.121,0.122,0.149L5.761,5.774
			c-0.247,0.084-0.46,0.257-0.595,0.488l-0.97,1.615C3.99,8.22,3.972,8.641,4.155,9l0.07,0.135H3.2
			c-0.131,0-0.231,0.106-0.231,0.234v4.434H2.267c-0.128,0-0.229,0.105-0.229,0.23c0,0.127,0.104,0.232,0.229,0.232H10.2
			c0.126,0,0.23-0.105,0.23-0.232c0-0.125-0.104-0.23-0.23-0.23H9.5v-2.382c0-0.076-0.041-0.157-0.102-0.196
			c-0.066-0.043-0.158-0.053-0.229-0.013c-0.257,0.119-0.448,0.18-0.535,0.209c-0.019,0-0.039,0.01-0.054,0.02l-1.521,0.909
			c-0.243,0.144-0.517,0.227-0.796,0.227c-0.524,0-0.996-0.258-1.291-0.698c-0.241-0.349-0.323-0.771-0.231-1.184
			c0.086-0.409,0.332-0.762,0.68-0.989l0.223-0.143C5.808,9.469,5.953,9.38,6.078,9.299c0.092-0.053,0.129-0.167,0.1-0.27
			c-0.055-0.186-0.149-0.354-0.244-0.48C6.29,8.397,6.771,8.117,7.017,7.836l0,0c0.051,0.031,0.112,0.066,0.177,0.097
			c0.009,0,0.009,0,0.015,0.006l0,0C7.38,8.022,7.595,8.107,7.854,8.157C7.581,8.498,7.307,8.914,7.201,9.189
			c-0.18,0.088-0.587,0.306-1.523,0.908c-0.25,0.154-0.421,0.405-0.476,0.696c-0.064,0.285-0.007,0.579,0.159,0.828
			c0.213,0.314,0.55,0.485,0.903,0.485c0.192,0,0.379-0.056,0.557-0.154l1.605-0.965c0.247-0.062,1.492-0.437,2.441-1.963
			c0.741-1.199,1.158-2.159,1.328-2.597l0.028,0.015c0.1,0.041,0.212,0.077,0.312,0.077c0.188,0,0.37-0.079,0.497-0.202
			c0.134-0.132,0.212-0.312,0.212-0.502V4.703C13.233,4.607,13.184,4.518,13.099,4.487z"/>
	</g>
	<g id="FaibleGroup" display="none">
		<path id="FamineGroup" display="inline" fill="#F9F9F9" d="M10.673,12.705L8.9,13.043l-2.894-1.581l1.053-1.304l2.363,0.784
			L10.673,12.705z M13.397,9.627v0.201l-1.866,0.587l-1.843,0.262L7.32,9.891L6.762,9.627h0.32c-0.076-0.7-0.18-1.238-0.228-1.937
			l0,0C6.85,7.671,6.824,7.206,6.82,7.008C6.787,6.791,6.683,6.71,6.354,6.481C6.169,6.372,6.036,6.33,5.967,6.33
			c-0.12,0-0.229,0.13-0.255,0.529c0.528,0.089,0.562,0.672,0.562,0.672C6.322,7.945,6.116,8.549,5.648,8.71
			C4.788,8.994,4.87,7.329,5.36,6.925c0.013-0.481,0.148-0.922,0.607-0.94c0.184,0,0.369,0.08,0.579,0.213
			c0.096,0.064,0.183,0.121,0.252,0.19C6.792,6.227,6.787,6.064,6.787,5.894c0-0.355,0.052-0.729,0.364-1.001
			c0.159-0.149,0.337-0.23,0.521-0.226c0.462,0.027,0.742,0.423,0.914,0.83c0.19-0.085,0.436-0.123,0.71-0.024
			c0.713,0.24,1.105,1.488,0.808,1.916c-0.71,1.01-2.475-0.862-2.01-1.524c0,0,0.072-0.085,0.193-0.186
			C8.143,5.318,7.87,4.999,7.667,5.017c-0.079,0-0.177,0.027-0.289,0.131C7.182,5.325,7.129,5.568,7.129,5.894
			c0,0.228,0.031,0.483,0.031,0.734c0,0.133,0.005,0.25,0.01,0.378c0.034,0.227,0.034,0.396,0.034,0.636
			c0.052,0.698,0.328,1.269,0.408,1.984H13.397z M8.41,5.819L9.755,7.28C9.514,6.243,8.667,5.667,8.667,5.667L8.41,5.819z
			 M5.636,7.071l-0.239,0.1c0,0-0.117,0.816,0,1.241L5.636,7.071z M4.441,11.993l1.063-0.64L6.609,9.98L6.268,9.627H3.817
			l-0.488,0.979L4.441,11.993z M5.677,11.768l-1.882,1.288l0.246,0.312h4.341l-0.01-0.062L5.677,11.768z M1.8,9.627v1.48
			l1.202-0.646l0.372-0.834H1.8z M10.038,10.991l1.17,1.704l2.189,0.517v-1.948l-1.578-0.505L10.038,10.991z M13.397,10.84v-0.682
			l-1.23,0.329L13.397,10.84z M3.038,10.939l-1.236,0.587v1.842h0.905l1.351-1.104L3.038,10.939z M9.521,13.368h2.836l-1.349-0.325
			L9.521,13.368z"/>
		<path id="CycloneGroup" display="inline" fill="#FFFFFF" d="M7.639,5.642c-0.063,0-0.121-0.005-0.18-0.005
			c-0.533,0-1.03,0.137-1.459,0.374c0.771-2.636,2.707-2.875,2.707-2.875S4.428,3.5,4.428,8.493c0.002,0,0.002,0,0.008,0
			c0,0.056-0.006,0.112-0.006,0.175c0,0.527,0.138,1.033,0.377,1.468c-2.644-0.78-2.872-2.714-2.872-2.714s0.359,4.281,5.354,4.281
			c0-0.002,0-0.002,0-0.01c0.058,0.002,0.113,0.01,0.177,0.01c0.531,0,1.031-0.136,1.466-0.377
			c-0.783,2.643-2.721,2.872-2.721,2.872s4.286-0.359,4.286-5.355c-0.008,0-0.008,0-0.008,0c0-0.061,0.008-0.121,0.008-0.178
			c0-0.534-0.135-1.032-0.38-1.468c2.64,0.775,2.877,2.717,2.877,2.717s-0.358-4.277-5.356-4.277
			C7.639,5.639,7.639,5.642,7.639,5.642z"/>
		<path id="tsunamiGroup" display="inline" fill="#FFFFFF" d="M12.845,12.188c-8.82,0.504-6.349-6.234-4.069-5.654
			C8.542,6.678,8.392,7.173,8.534,7.503C8.695,7.865,9.212,8.064,9.51,7.99c0.703-0.181,0.736-1.17,0.485-1.701
			C9.727,5.752,9.027,5.077,7.802,5.077c-2.943,0-4.963,1.506-5.721,4.094v3.812h10.764V12.188z"/>
		<path id="earthquakeGroup" display="inline" fill="#FFFFFF" d="M10.597,9.003c-0.151,0-0.291,0.083-0.363,0.222l-0.584,1.1
			L8.928,8.202c-0.06-0.16-0.207-0.27-0.377-0.276C8.374,7.922,8.227,8.022,8.165,8.181L7.667,9.355L6.882,4.657
			C6.848,4.462,6.659,4.313,6.473,4.324C6.268,4.332,6.102,4.462,6.075,4.659l-0.69,5.445L4.82,7.184
			C4.79,7.013,4.649,6.88,4.471,6.859c-0.169-0.021-0.34,0.066-0.423,0.222L3.129,9.003h-1.42v0.815h1.684
			c0.156,0,0.301-0.083,0.369-0.231l0.495-1.028l0.798,4.151c0.039,0.187,0.21,0.325,0.398,0.325c0.006,0,0.01,0,0.014,0
			c0.203-0.003,0.368-0.152,0.395-0.354l0.681-5.356l0.572,3.523c0.033,0.183,0.174,0.315,0.355,0.341
			c0.184,0.015,0.353-0.082,0.423-0.247l0.61-1.456l0.685,2.004c0.053,0.151,0.191,0.254,0.354,0.269
			c0.165,0.01,0.317-0.069,0.393-0.215l0.914-1.729h1.749V9.003H10.597z"/>
	</g>
	<g id="EleveGroup" display="none">
		<path id="attackGroup" display="inline" fill="#FFFFFF" d="M10.364,9.524l2.869-1.844l-2.779-0.294l0.759-3.221L9.247,6.2
			L8.695,3.896L7.872,6.043l-2.253-2.9l0.707,3.634L4.323,6.332c0,0,0.607,1.163,0.949,1.867L2.06,7.973l2.907,1.702l-0.832,0.852
			l1.348-0.24L4.53,13.664l2.84-2.381l0.744,1.844l0.755-1.468l2.45,2.527l-1.232-3.389l2.694,0.276L10.364,9.524z"/>
	</g>
	<g id="ExtremeGroup" display="none">
		<path id="rebelionGroup" display="inline" fill="#FFFFFF" d="M9.642,5.237c0,1.169-0.952,2.117-2.114,2.117
			c-1.172,0-2.123-0.947-2.123-2.117c0-1.174,0.949-2.118,2.123-2.118C8.695,3.118,9.642,4.062,9.642,5.237z M3.99,14.216h1.29h0.07
			l0.05-0.1l0.468-0.459l-0.44-0.094l-0.681-0.146L3.99,14.216z M12.849,5.628l-0.453,0.457l0.027,0.032l-0.369,0.364
			c0.052,0.049,0.098,0.096,0.14,0.149l0.371-0.372l0.075,0.066l0.446-0.456L12.849,5.628z M9.925,7.975L9.727,8.174l0.021,0.053
			l0.051,0.105l-3.09,3.094l0.33,0.078c0.306,0.064,0.568,0.24,0.742,0.509c0.025,0.037,0.031,0.081,0.047,0.121l0.006-0.011
			l0.228,0.147l0.081-0.018l0.897,0.654l0.605-0.827l-1.339-1.049l0.033-0.088h0.229l1.313-1.546l0.147-1.381L9.925,7.975z
			 M11.36,6.608c-0.401-0.042-0.793,0.259-0.834,0.672L10.47,7.733l0,0l-0.03,0.324L10.292,9.44l-0.013,0.131l-0.078,0.094
			l-1.18,1.391l0.884,0.688l0.323,0.254l-0.19,0.252l0.049,0.089c0.12,0.264,0.39,0.427,0.679,0.427c0.042,0,0.085,0,0.129-0.012
			c0.334-0.052,0.587-0.323,0.623-0.66l0.507-4.659C12.075,7.024,11.77,6.653,11.36,6.608z M9.819,12.56l-0.431,0.596L9.14,13.491
			l-0.344-0.248l-0.745-0.538l-0.063,0.015l-0.029-0.015c0,0.066,0,0.126-0.018,0.188c-0.013,0.061-0.033,0.12-0.059,0.177
			c-0.043,0.11-0.109,0.199-0.177,0.294l0.056,0.119c0.049,0.122,0.121,0.272,0.205,0.411l0.213,0.321h1.588L9.819,12.56z
			 M6.792,13.823c-0.013,0-0.037-0.003-0.058-0.003c0,0.027-0.007,0.049-0.007,0.049l0.18,0.346h0.427l0.28-0.1
			c-0.096-0.146-0.171-0.305-0.245-0.467C7.193,13.753,7.007,13.823,6.792,13.823z M7.416,12.221
			c-0.028-0.045-0.08-0.086-0.121-0.12c-0.026-0.026-0.042-0.061-0.08-0.078c-0.073-0.053-0.168-0.099-0.267-0.118l-0.326-0.068
			l-0.756-0.159l0,0l-0.67-0.146l-0.258-0.049l-0.422-0.096l-0.031-0.004l0.073-0.074l0.29-0.287l0.308-0.308
			c0.025,0.218,0.038,0.379,0.038,0.383l0.101,0.021l0.935,0.2l0.193-0.192l2.888-2.899L9.238,8.064L9.26,8.047
			C8.846,7.922,8.352,7.843,7.729,7.843H7.527H7.324c-0.437,0-0.876,0.034-1.307,0.126c-0.745,0.17-1.205,0.897-1.705,1.394
			c-0.524,0.515-1.031,1.05-1.538,1.579c-0.112,0.12-0.224,0.24-0.344,0.352c-0.192,0.201-0.266,0.49-0.192,0.756
			c0.079,0.264,0.297,0.463,0.572,0.526l0.998,0.214l0.427,0.089l2.403,0.514c0.053,0.006,0.104,0.015,0.157,0.015
			c0.349,0,0.667-0.237,0.741-0.602c0.027-0.143,0.007-0.266-0.038-0.391l-0.042-0.102C7.44,12.287,7.425,12.261,7.416,12.221z
			 M6.354,14.074l-0.071-0.138l0.04-0.153l0.003-0.027l-0.119-0.036l-0.422,0.496h0.645L6.354,14.074z"/>
	</g>
	<path id="displacedGroup" display="none" fill="#FFFFFF" d="M7.587,4.518c0.089,0.549-0.281,1.061-0.825,1.153
		C6.216,5.766,5.694,5.392,5.608,4.852C5.521,4.299,5.888,3.78,6.436,3.696C6.982,3.6,7.497,3.973,7.587,4.518z M7.277,8.498
		l0.888,1.419c0.126,0.201,0.387,0.266,0.593,0.145c0.205-0.119,0.27-0.374,0.155-0.587L8.695,9.071
		c-0.2-0.353-0.388-0.702-0.59-1.049L7.712,7.301C7.667,7.216,7.626,7.127,7.576,7.024c-0.241-0.508-0.622-1.3-1.456-1.229
		C5.405,5.858,4.678,6.2,3.968,6.806C3.125,7.47,2.53,8.432,2.512,8.482C2.484,8.52,2.456,8.561,2.437,8.601c0,0,0,0-0.006,0.004
		l0,0C2.354,8.757,2.313,8.892,2.409,9.068C2.488,9.2,2.637,9.287,2.792,9.287c0.192,0,0.286-0.092,0.379-0.226l0,0l0,0
		C3.2,9.021,3.226,8.979,3.25,8.937c0.004-0.009,0.5-0.809,1.271-1.457c0.231-0.184,0.459-0.311,0.67-0.378l-0.17,2.059
		C5.002,9.363,4.938,9.718,4.883,9.917l-0.382,1.347c-0.047,0.167-0.197,0.452-0.305,0.586l-1.038,1.283
		c-0.134,0.172-0.283,0.356-0.164,0.613c0.077,0.152,0.229,0.244,0.399,0.244c0.198,0,0.309-0.116,0.447-0.265l1.05-1.131
		c0.187-0.202,0.428-0.555,0.553-0.8l0.521-1.063l1.929,3.237c0.095,0.16,0.216,0.36,0.479,0.36l0,0c0.147,0,0.288-0.076,0.37-0.2
		c0.139-0.216,0.041-0.41-0.039-0.588l-1.568-3.384c-0.06-0.131-0.089-0.404-0.067-0.549L7.277,8.498z M8.909,12.023h2.332v0.694
		l2.326-1.341l-2.327-1.34v0.695H8.909V12.023z"/>
	<path id="enlevementGroup" fill="#FFFFFF" d="M12.378,2.779c-0.346,0-0.622,0.28-0.622,0.623v2.531
		c0.155,0.032,0.298,0.093,0.416,0.209c0.325,0.321,0.332,0.855,0.015,1.182l-1.179,1.212l-0.164-0.159l1.18-1.207
		c0.231-0.248,0.229-0.633-0.012-0.87c-0.075-0.072-0.165-0.125-0.264-0.152c-0.103-0.026-0.203-0.026-0.306-0.006
		c-0.117,0.025-0.215,0.085-0.296,0.169c-0.701,0.717-1.398,1.436-2.1,2.157C8.869,8.643,8.551,9.047,8.558,9.465
		c0.008,0.386,0,0.779,0,1.171c-0.091-0.078-0.198-0.128-0.325-0.153c-0.361-0.063-0.684,0.155-0.808,0.478h-0.18
		c0-0.084,0-0.177,0-0.266c0.008-0.398-0.007-0.823,0-1.229C7.26,9.054,6.934,8.643,6.762,8.47C6.061,7.747,5.367,7.028,4.664,6.306
		c-0.08-0.079-0.186-0.14-0.296-0.165C4.265,6.117,4.161,6.121,4.056,6.147C3.961,6.174,3.869,6.227,3.798,6.3
		C3.556,6.537,3.549,6.923,3.781,7.17l1.181,1.207L4.803,8.535L3.625,7.323c-0.319-0.326-0.31-0.86,0.012-1.182
		c0.121-0.113,0.261-0.173,0.41-0.209V3.401c0-0.342-0.283-0.623-0.624-0.623c-0.346,0-0.622,0.28-0.622,0.623v4.382
		c0,0.144,0.058,0.274,0.142,0.38l2.117,2.791H4.876c-0.412,0-0.745,0.335-0.745,0.75c0,0.279,0.153,0.505,0.377,0.636
		c-0.22,0.135-0.377,0.363-0.377,0.627c0,0.419,0.333,0.752,0.745,0.752h0.229v0.418h2.078c0.107,0.108,0.236,0.186,0.387,0.216
		c0.049,0.014,0.083,0.016,0.129,0.016c0.367,0,0.679-0.263,0.742-0.622v-0.026h0.132c0,0.14,0,0.276,0.016,0.42h2.106v-0.42h0.226
		c0.407,0,0.747-0.332,0.747-0.747c0-0.269-0.15-0.503-0.378-0.634c0.228-0.13,0.378-0.357,0.378-0.636
		c0-0.413-0.34-0.748-0.747-0.748h-0.178l2.114-2.789C12.945,8.057,13,7.93,13,7.786V3.407C13,3.059,12.721,2.779,12.378,2.779z
		 M4.501,11.704c0-0.202,0.17-0.369,0.375-0.369h2.456l-0.131,0.748H4.876C4.671,12.077,4.501,11.91,4.501,11.704z M4.501,12.973
		c0-0.205,0.17-0.376,0.375-0.376H7.11l-0.127,0.752H4.876C4.671,13.349,4.501,13.183,4.501,12.973z M8.066,13.677
		c-0.033,0.206-0.251,0.335-0.431,0.308c-0.101-0.016-0.185-0.071-0.242-0.15c-0.058-0.082-0.077-0.181-0.062-0.282l0.411-2.397
		c0.034-0.182,0.191-0.312,0.374-0.312c0.023,0,0.043,0,0.063,0.005c0.208,0.042,0.34,0.229,0.304,0.432L8.066,13.677z
		 M11.304,12.973c0,0.21-0.163,0.377-0.375,0.377H8.5l0.128-0.753h2.302C11.134,12.599,11.304,12.769,11.304,12.973z M11.304,11.704
		c0,0.206-0.163,0.376-0.375,0.376H8.721l0.125-0.726c0-0.007,0-0.014,0-0.017h2.083C11.134,11.335,11.304,11.504,11.304,11.704z"/>
	<path id="eruptionGroup" display="none" fill="#FFFFFF" d="M8.307,6.604c0.64,0.219,1.484,0.474,1.667-0.55
		c0.141-0.808,1.202-0.509,1.654-0.557c0.829-0.1,0.206-1.643-0.826-1.665c-1.046-0.023-1.52,0.439-1.945,1.387
		C8.665,5.674,8.495,6.017,7.753,5.774c-0.738-0.247-1.286,0.36-0.834,1.108c0.395,0.666-0.008,1.387-0.008,1.387H8.03
		c0,0-0.006-0.404-0.277-0.827C7.435,6.944,7.653,6.381,8.307,6.604z M2.394,13.505c2.871-2.093,3.59-4.981,3.59-4.981h2.948
		c0,0,0.712,2.889,3.586,4.981H2.394z"/>
	<path id="returnedGroup" display="none" fill="#FFFFFF" d="M7.592,4.518c0.084,0.549-0.282,1.061-0.83,1.153
		C6.216,5.763,5.694,5.392,5.611,4.844C5.522,4.295,5.888,3.78,6.438,3.692C6.982,3.6,7.497,3.97,7.592,4.518z M7.277,8.496
		l0.888,1.421c0.126,0.201,0.387,0.263,0.593,0.145c0.203-0.122,0.27-0.374,0.155-0.587L8.695,9.068
		c-0.2-0.35-0.388-0.699-0.581-1.05L7.712,7.301C7.667,7.216,7.628,7.127,7.576,7.024C7.335,6.515,6.955,5.72,6.12,5.795
		C5.409,5.854,4.683,6.195,3.968,6.8C3.121,7.47,2.526,8.432,2.51,8.478C2.484,8.52,2.456,8.558,2.437,8.601L2.43,8.605l0,0
		C2.354,8.757,2.313,8.892,2.409,9.068C2.488,9.2,2.637,9.291,2.792,9.291c0.192,0,0.286-0.091,0.376-0.225l0,0l0,0
		c0.025-0.044,0.053-0.086,0.08-0.127C3.254,8.93,3.75,8.132,4.515,7.482c0.238-0.187,0.466-0.314,0.678-0.384L5.021,9.161
		C5.002,9.363,4.938,9.718,4.883,9.917l-0.382,1.347c-0.047,0.17-0.197,0.452-0.313,0.586l-1.031,1.283
		c-0.134,0.172-0.283,0.356-0.164,0.613c0.077,0.152,0.229,0.244,0.399,0.244c0.198,0,0.309-0.116,0.447-0.265l1.05-1.131
		c0.187-0.202,0.428-0.555,0.547-0.8l0.525-1.063l1.928,3.237c0.092,0.16,0.221,0.36,0.479,0.36l0,0
		c0.147,0,0.286-0.076,0.374-0.203c0.132-0.213,0.038-0.409-0.039-0.583l-1.565-3.386c-0.056-0.132-0.09-0.404-0.073-0.551
		L7.277,8.496z M13.771,9.221c0-1.419-1.152-2.564-2.566-2.564h-1.091v1.291h1.094c0.696,0,1.271,0.569,1.271,1.273
		c0,0.692-0.563,1.268-1.271,1.268h-0.229V9.794l-2.321,1.339l2.321,1.344v-0.692h0.253l0,0
		C12.633,11.762,13.771,10.624,13.771,9.221z"/>
	<path id="epidemieGroup" display="none" fill="#FFFFFF" d="M12.059,9.115c0-2.521-1.971-4.567-4.455-4.695
		c1.1,0.099,1.955,0.901,1.955,1.87c0,0.333-0.114,0.64-0.29,0.914c-0.496-0.49-1.17-0.792-1.921-0.792
		c-0.741,0-1.419,0.3-1.906,0.79c-0.17-0.273-0.283-0.581-0.283-0.913c0-0.969,0.848-1.768,1.951-1.87
		C4.627,4.55,2.654,6.597,2.654,9.114c0,0.756,0.187,1.473,0.507,2.109c-0.443-0.992-0.176-2.112,0.655-2.586
		c0.289-0.165,0.607-0.23,0.933-0.216C4.685,8.649,4.649,8.878,4.649,9.123c0,1.251,0.852,2.295,2.01,2.606
		c-0.023,0.022-0.046,0.048-0.058,0.079v0.004c-0.041,0.081-0.084,0.156-0.144,0.216c-0.124,0.16-0.266,0.306-0.451,0.408
		c-0.829,0.481-1.936,0.15-2.582-0.736c0.844,1.28,2.285,2.123,3.932,2.123c1.627,0,3.056-0.828,3.913-2.085
		c-0.657,0.859-1.74,1.177-2.563,0.702c-0.291-0.17-0.499-0.419-0.644-0.712c1.148-0.312,1.998-1.359,1.998-2.607
		c0-0.241-0.034-0.471-0.089-0.695c0.325-0.019,0.646,0.045,0.936,0.216c0.807,0.462,1.083,1.525,0.688,2.494
		C11.891,10.523,12.059,9.839,12.059,9.115z M7.854,10.925c-0.021-0.394,0.065-0.799,0.26-1.191L7.802,9.552
		C7.69,9.673,7.527,9.744,7.356,9.744c-0.177,0-0.335-0.071-0.454-0.188L6.601,9.731c0.199,0.387,0.278,0.8,0.256,1.195
		c-0.796-0.222-1.387-0.938-1.387-1.806c0-0.166,0.03-0.322,0.07-0.471C5.888,8.825,6.207,9.1,6.444,9.462l0.318-0.185
		C6.748,9.223,6.727,9.171,6.727,9.115c0-0.294,0.2-0.53,0.474-0.597V8.153C6.762,8.12,6.37,7.99,6.043,7.774
		c0.333-0.332,0.799-0.537,1.305-0.537c0.507,0,0.982,0.212,1.319,0.546C8.337,7.997,7.941,8.129,7.512,8.16v0.362
		C7.776,8.594,7.979,8.826,7.979,9.12c0,0.057-0.014,0.109-0.03,0.159L8.267,9.46c0.236-0.363,0.558-0.635,0.903-0.813
		c0.034,0.151,0.07,0.304,0.07,0.467C9.233,9.988,8.65,10.702,7.854,10.925z"/>
</g>
</svg>
