<?xml version="1.0" encoding="utf-8"?>
<!-- Generator: Adobe Illustrator 16.0.0, SVG Export Plug-In . SVG Version: 6.00 Build 0)  -->
<!DOCTYPE svg PUBLIC "-//W3C//DTD SVG 1.1//EN" "http://www.w3.org/Graphics/SVG/1.1/DTD/svg11.dtd">
<svg version="1.1" id="Layer_1" xmlns="http://www.w3.org/2000/svg" xmlns:xlink="http://www.w3.org/1999/xlink" x="0px" y="0px"
	 width="33.35px" height="40px" viewBox="0 0 33.35 40" enable-background="new 0 0 33.35 40" xml:space="preserve">
<g id="PinColor">
	<path id="PinOmbre" opacity="0.3" enable-background="new    " d="M29.478,30.465c0,1.793-3.938,3.299-9.236,3.695
		c-0.894,0.068-2.784,4.275-2.784,4.275s-1.957-4.209-2.88-4.281c-5.247-0.408-9.141-1.906-9.141-3.689
		c0-2.1,5.382-3.801,12.021-3.801C24.095,26.665,29.478,28.363,29.478,30.465z"/>
	<path id="vert" display="none" fill="#2ABF00" stroke="#1D7500" stroke-width="0.2" stroke-miterlimit="10" d="M29.478,12.824
		c0,5.492-3.938,10.098-9.236,11.313c-0.894,0.203-2.784,13.08-2.784,13.08S15.5,24.34,14.577,24.111
		C9.33,22.867,5.437,18.283,5.437,12.82c0-6.421,5.382-11.626,12.021-11.626C24.095,1.194,29.478,6.403,29.478,12.824z"/>
	<path id="orange" display="none" fill="#FF8500" stroke="#7F4500" stroke-width="0.2" stroke-miterlimit="10" d="M29.478,12.824
		c0,5.492-3.938,10.098-9.236,11.313c-0.894,0.203-2.784,13.08-2.784,13.08S15.5,24.34,14.577,24.111
		C9.33,22.867,5.437,18.283,5.437,12.82c0-6.421,5.382-11.626,12.021-11.626C24.095,1.194,29.478,6.403,29.478,12.824z"/>
	<path id="gris" display="none" fill="#A5A5A5" stroke="#595959" stroke-width="0.2" stroke-miterlimit="10" d="M29.478,12.824
		c0,5.492-3.938,10.098-9.236,11.313c-0.894,0.203-2.784,13.08-2.784,13.08S15.5,24.34,14.577,24.111
		C9.33,22.867,5.437,18.283,5.437,12.82c0-6.421,5.382-11.626,12.021-11.626C24.095,1.194,29.478,6.403,29.478,12.824z"/>
	<path id="bleu" fill="#0092FF" stroke="#00477C" stroke-width="0.2" stroke-miterlimit="10" d="M29.478,12.824
		c0,5.492-3.938,10.098-9.236,11.313c-0.894,0.203-2.784,13.08-2.784,13.08S15.5,24.34,14.577,24.111
		C9.33,22.867,5.437,18.283,5.437,12.82c0-6.421,5.382-11.626,12.021-11.626C24.095,1.194,29.478,6.403,29.478,12.824z"/>
</g>
<g id="Icons">
	<g id="Minimal">
		<path id="Election" display="none" fill="#565656" d="M29.497-0.904l-4.834-2.073c-0.144-0.06-0.312-0.018-0.405,0.103
			l-1.384,1.728c-0.063,0.078-0.086,0.187-0.066,0.289c0.022,0.096,0.085,0.177,0.171,0.222L18.645,0.99
			c-0.366,0.136-0.674,0.394-0.875,0.728l-1.433,2.392c-0.305,0.507-0.33,1.126-0.063,1.657l0.104,0.203h-1.513
			c-0.191,0-0.346,0.154-0.346,0.345v6.56h-1.037c-0.192,0-0.342,0.154-0.342,0.343c0,0.191,0.151,0.345,0.342,0.345h11.741
			c0.188,0,0.337-0.154,0.337-0.345c0-0.189-0.148-0.343-0.337-0.343h-1.038V9.347c0-0.117-0.063-0.231-0.16-0.291
			c-0.102-0.064-0.225-0.073-0.332-0.022c-0.381,0.178-0.659,0.269-0.794,0.307c-0.028,0.007-0.058,0.019-0.081,0.038l-2.247,1.346
			c-0.36,0.217-0.767,0.331-1.182,0.331c-0.764,0-1.478-0.38-1.915-1.027c-0.347-0.517-0.466-1.143-0.338-1.751
			c0.131-0.609,0.493-1.131,1.013-1.464l0.325-0.208c0.241-0.145,0.453-0.279,0.645-0.396c0.133-0.083,0.193-0.245,0.149-0.395
			c-0.086-0.276-0.229-0.523-0.363-0.712c0.527-0.23,1.241-0.642,1.601-1.058c0,0,0.004,0.002,0.007,0.002
			c0.073,0.046,0.161,0.095,0.263,0.143c0.008,0.002,0.01,0.004,0.02,0.007l0,0c0.256,0.125,0.583,0.249,0.955,0.324
			c-0.4,0.498-0.809,1.118-0.958,1.531c-0.285,0.125-0.881,0.462-2.267,1.346c-0.368,0.233-0.621,0.596-0.707,1.021
			c-0.092,0.427-0.012,0.862,0.234,1.226c0.309,0.463,0.814,0.719,1.338,0.719c0.281,0,0.568-0.075,0.824-0.229l2.375-1.425
			c0.367-0.09,2.215-0.643,3.612-2.903c1.095-1.771,1.71-3.198,1.964-3.845l0.042,0.021C28.352,2.055,28.51,2.09,28.67,2.09
			c0.263,0,0.526-0.105,0.721-0.29c0.204-0.193,0.313-0.46,0.313-0.744v-1.644C29.701-0.726,29.624-0.852,29.497-0.904z"/>
	</g>
	<g id="Faible">
		<path id="Famine" display="none" fill="#F9F9F9" d="M26.388,11.805l-2.743,0.519l-4.479-2.437l1.628-2.032l3.663,1.216
			L26.388,11.805z M30.605,7.043v0.303l-2.889,0.917l-2.853,0.405L21.199,7.45l-0.862-0.407h0.493
			c-0.118-1.09-0.273-1.917-0.353-2.996h-0.004c-0.003-0.032-0.041-0.756-0.05-1.065c-0.055-0.325-0.213-0.454-0.719-0.803
			c-0.28-0.181-0.487-0.245-0.605-0.243c-0.185,0-0.353,0.203-0.391,0.812c0.815,0.138,0.871,1.041,0.871,1.041
			c0.073,0.642-0.243,1.579-0.968,1.821c-1.34,0.448-1.205-2.137-0.447-2.756C18.187,2.109,18.394,1.427,19.1,1.4
			c0.282,0.002,0.568,0.117,0.899,0.328c0.158,0.095,0.286,0.191,0.399,0.29c-0.014-0.245-0.028-0.496-0.028-0.754
			c-0.002-0.543,0.081-1.134,0.563-1.554c0.248-0.226,0.526-0.342,0.8-0.34c0.72,0.035,1.163,0.652,1.422,1.283
			c0.303-0.13,0.679-0.195,1.11-0.045c1.103,0.382,1.697,2.305,1.235,2.976c-1.088,1.561-3.824-1.348-3.101-2.362
			c0,0,0.106-0.138,0.293-0.29c-0.211-0.561-0.639-1.06-0.96-1.025c-0.119,0.002-0.262,0.044-0.443,0.205
			c-0.303,0.268-0.385,0.65-0.385,1.15c0,0.352,0.044,0.744,0.044,1.137c0,0.205,0.014,0.384,0.021,0.583
			c0.049,0.35,0.052,0.62,0.049,0.988c0.074,1.077,0.511,1.962,0.626,3.074H30.605z M22.894,1.146l2.074,2.259
			c-0.37-1.602-1.685-2.494-1.685-2.494L22.894,1.146z M18.597,3.084l-0.372,0.153c0,0-0.183,1.263,0,1.923L18.597,3.084z
			 M16.74,10.703l1.648-0.99l1.717-2.125l-0.537-0.544h-3.794L15.02,8.547L16.74,10.703z M18.661,10.363l-2.919,1.988l0.389,0.482
			h6.719l-0.022-0.099L18.661,10.363z M12.654,7.043v2.292l1.872-1.003l0.567-1.289H12.654z M25.406,9.159l1.812,2.626l3.388,0.795
			V9.577l-2.439-0.786L25.406,9.159z M30.605,8.92V7.859l-1.901,0.514L30.605,8.92z M14.572,9.066L12.654,9.98v2.852h1.402
			l2.089-1.711L14.572,9.066z M24.614,12.832H29l-2.1-0.508L24.614,12.832z"/>
		<path id="Cyclone" display="none" fill="#FFFFFF" d="M21.699,0.877c-0.093-0.005-0.186-0.016-0.276-0.016
			c-0.824,0-1.597,0.215-2.27,0.585c1.201-4.095,4.201-4.451,4.201-4.451s-6.627,0.553-6.627,8.283c0.004,0,0.011,0,0.015,0
			c-0.004,0.094-0.015,0.183-0.015,0.279c0,0.818,0.215,1.593,0.586,2.268c-4.095-1.205-4.454-4.201-4.454-4.201
			s0.552,6.627,8.287,6.627c0-0.006,0-0.009,0-0.016c0.091,0.004,0.182,0.016,0.275,0.016c0.823,0,1.597-0.215,2.27-0.587
			c-1.202,4.097-4.204,4.453-4.204,4.453s6.629-0.554,6.629-8.284c-0.005,0-0.01,0-0.014,0c0.004-0.093,0.014-0.183,0.014-0.274
			c0-0.822-0.215-1.598-0.589-2.269c4.095,1.202,4.453,4.199,4.453,4.199s-0.55-6.626-8.281-6.626
			C21.699,0.868,21.699,0.872,21.699,0.877z"/>
		<path id="tsunami" display="none" fill="#FFFFFF" d="M29.746,11.011c-13.636,0.772-9.826-9.66-6.289-8.758
			c-0.365,0.221-0.601,0.989-0.375,1.506c0.248,0.553,1.046,0.869,1.505,0.754c1.099-0.283,1.147-1.825,0.752-2.635
			c-0.41-0.842-1.494-1.881-3.387-1.881c-4.566,0-7.683,2.332-8.856,6.342v5.896h16.652V11.01L29.746,11.011L29.746,11.011z"/>
		<path id="earthquake" display="none" fill="#FFFFFF" d="M26.276,6.07c-0.233,0-0.448,0.129-0.558,0.337L24.81,8.121l-1.122-3.284
			c-0.088-0.249-0.315-0.417-0.577-0.43c-0.271-0.007-0.504,0.145-0.607,0.387l-0.769,1.826l-1.209-7.27
			c-0.06-0.304-0.345-0.534-0.638-0.519c-0.313,0.007-0.57,0.213-0.609,0.522l-1.076,8.435L17.333,3.26
			c-0.049-0.265-0.267-0.47-0.538-0.506c-0.268-0.038-0.536,0.107-0.653,0.352L14.719,6.07h-2.208v1.263h2.607
			c0.244,0,0.466-0.142,0.572-0.357l0.763-1.593l1.233,6.421c0.06,0.299,0.316,0.515,0.622,0.515c0.004,0,0.011,0,0.016,0
			c0.31-0.01,0.566-0.242,0.609-0.548l1.056-8.29l0.883,5.457c0.052,0.275,0.274,0.484,0.555,0.516
			c0.281,0.025,0.545-0.126,0.654-0.386l0.948-2.253l1.056,3.093c0.079,0.24,0.295,0.408,0.544,0.429
			c0.252,0.014,0.493-0.111,0.613-0.335l1.413-2.67h2.714V6.067h-3.093V6.07z"/>
	</g>
	<g id="Modéré">
	</g>
	<g id="Important">
	</g>
	<g id="Elevé">
	</g>
	<g id="Extreme" display="none">
		<path id="rebelion" display="inline" fill="#FFFFFF" d="M24.004,1.109c0,1.523-1.232,2.754-2.753,2.754
			c-1.523,0-2.759-1.233-2.759-2.754c0-1.523,1.233-2.755,2.759-2.755C22.772-1.646,24.004-0.414,24.004,1.109z M16.649,12.797
			h1.685h0.088l0.063-0.129l0.61-0.598l-0.563-0.121l-0.894-0.191L16.649,12.797z M28.179,1.622l-0.593,0.59l0.04,0.041L27.15,2.735
			c0.063,0.058,0.125,0.118,0.177,0.186l0.481-0.482l0.101,0.091l0.582-0.594L28.179,1.622z M24.374,4.678l-0.256,0.251l0.029,0.072
			l0.058,0.135l-4.019,4.03l0.433,0.092c0.396,0.083,0.738,0.321,0.961,0.664c0.029,0.048,0.039,0.109,0.063,0.16l0.012-0.015
			l0.297,0.196l0.106-0.022l1.171,0.85l0.788-1.079l-1.745-1.362l0.039-0.113H22.6l1.713-2.009l0.19-1.8L24.374,4.678z M26.24,2.896
			c-0.52-0.057-1.025,0.333-1.086,0.872l-0.066,0.587l0,0l-0.041,0.424l-0.19,1.804l-0.02,0.168L24.729,6.88l-1.533,1.798
			l1.155,0.906l0.416,0.325l-0.242,0.331l0.061,0.121c0.159,0.345,0.511,0.561,0.891,0.561c0.053,0,0.107-0.002,0.164-0.013
			c0.433-0.074,0.765-0.427,0.813-0.863l0.653-6.062C27.169,3.44,26.777,2.952,26.24,2.896z M24.234,10.637l-0.563,0.773
			l-0.322,0.443l-0.441-0.322l-0.97-0.701l-0.086,0.021l-0.035-0.024c0,0.084-0.002,0.164-0.021,0.247
			c-0.018,0.082-0.047,0.155-0.077,0.231c-0.062,0.144-0.14,0.267-0.233,0.382l0.066,0.154c0.069,0.154,0.164,0.356,0.274,0.531
			l0.271,0.422h2.069L24.234,10.637z M20.296,12.287c-0.022,0-0.047-0.007-0.069-0.009c-0.013,0.043-0.021,0.076-0.021,0.076
			l0.234,0.44h0.562l0.362-0.127c-0.122-0.192-0.222-0.397-0.314-0.605C20.823,12.194,20.573,12.287,20.296,12.287z M21.107,10.202
			c-0.041-0.063-0.102-0.11-0.157-0.162c-0.031-0.03-0.06-0.072-0.1-0.096c-0.102-0.072-0.222-0.125-0.346-0.155l-0.431-0.087
			l-0.981-0.21l0,0l-0.865-0.185L17.89,9.235l-0.556-0.121L17.3,9.108l0.086-0.09l0.376-0.373l0.402-0.404
			c0.033,0.276,0.048,0.495,0.048,0.501l0.131,0.028l1.215,0.26l0.247-0.25l3.761-3.776L23.48,4.792l0.03-0.024
			c-0.544-0.165-1.185-0.258-1.995-0.258H21.25c0,0-0.262,0-0.264,0c-0.568,0-1.142,0.039-1.702,0.164
			c-0.962,0.215-1.559,1.158-2.218,1.809c-0.68,0.668-1.339,1.364-2.001,2.052c-0.146,0.154-0.292,0.312-0.443,0.463
			c-0.255,0.256-0.347,0.629-0.246,0.978c0.099,0.345,0.385,0.606,0.738,0.686l1.302,0.278l0.551,0.116l3.125,0.666
			c0.069,0.012,0.139,0.023,0.206,0.023c0.456,0,0.862-0.317,0.962-0.778c0.037-0.182,0.009-0.354-0.045-0.517l-0.062-0.126
			C21.136,10.288,21.122,10.248,21.107,10.202z M19.728,12.607l-0.096-0.177l0.048-0.198l0.011-0.038l-0.152-0.033l-0.552,0.634
			h0.837L19.728,12.607z"/>
	</g>
	<path id="displaced" display="none" fill="#FFFFFF" d="M22.367-1.269c0.135,0.85-0.437,1.649-1.28,1.787
		c-0.846,0.141-1.652-0.434-1.79-1.279c-0.139-0.848,0.434-1.65,1.283-1.789C21.424-2.689,22.226-2.115,22.367-1.269z M21.882,4.897
		l1.376,2.198c0.196,0.31,0.599,0.409,0.912,0.227c0.317-0.189,0.425-0.59,0.254-0.911L24.072,5.78
		c-0.307-0.54-0.603-1.084-0.903-1.625l-0.61-1.111c-0.07-0.132-0.141-0.277-0.211-0.429c-0.377-0.792-0.967-2.017-2.262-1.907
		c-1.106,0.098-2.229,0.623-3.334,1.562c-1.308,1.032-2.222,2.531-2.256,2.595c-0.045,0.065-0.085,0.134-0.117,0.197
		c-0.004,0.001-0.004,0.003-0.005,0.005l0,0c-0.124,0.231-0.185,0.443-0.031,0.713c0.12,0.212,0.345,0.342,0.585,0.342
		c0.297,0,0.445-0.142,0.592-0.348l0,0c0.002,0,0.002-0.005,0.002-0.005c0.041-0.06,0.079-0.127,0.127-0.196
		c0.007-0.013,0.775-1.245,1.961-2.257c0.364-0.289,0.715-0.484,1.04-0.594l-0.265,3.201c-0.025,0.316-0.126,0.864-0.21,1.167
		l-0.597,2.088c-0.078,0.262-0.3,0.7-0.476,0.913l-1.608,1.992c-0.203,0.254-0.433,0.54-0.244,0.938
		c0.112,0.235,0.349,0.386,0.609,0.386c0.312,0,0.479-0.178,0.69-0.407l1.627-1.756c0.29-0.314,0.671-0.857,0.857-1.242l0.809-1.643
		l2.985,5.018c0.146,0.246,0.333,0.558,0.735,0.558l0,0c0.233,0,0.445-0.121,0.568-0.312c0.216-0.333,0.071-0.633-0.051-0.906
		l-2.415-5.246c-0.093-0.208-0.147-0.626-0.107-0.852L21.882,4.897z M24.411,10.357h3.62v1.075l3.597-2.076l-3.597-2.078v1.076
		h-3.62V10.357z"/>
	<path id="epidemie" display="none" fill="#FFFFFF" d="M28.536,6.248c0-3.899-3.056-7.071-6.902-7.268
		c1.699,0.163,3.023,1.395,3.023,2.896c0,0.516-0.172,0.991-0.448,1.412c-0.759-0.757-1.803-1.222-2.957-1.222
		c-1.152,0-2.194,0.465-2.951,1.22c-0.271-0.422-0.443-0.897-0.443-1.414c0-1.498,1.322-2.732,3.018-2.895
		c-3.843,0.198-6.9,3.373-6.9,7.271c0,1.175,0.286,2.284,0.778,3.269c-0.673-1.539-0.263-3.27,1.02-4.011
		c0.448-0.258,0.947-0.35,1.445-0.323c-0.094,0.344-0.156,0.701-0.156,1.076c0,1.936,1.324,3.552,3.11,4.034
		c-0.025,0.042-0.055,0.081-0.079,0.122c0,0.005,0,0.005,0,0.01c-0.06,0.133-0.135,0.24-0.224,0.333
		c-0.19,0.251-0.412,0.474-0.697,0.639c-1.291,0.742-3.007,0.227-3.998-1.145c1.304,1.978,3.54,3.287,6.082,3.287
		c2.518,0,4.735-1.281,6.046-3.228c-0.996,1.328-2.681,1.817-3.95,1.088c-0.451-0.263-0.778-0.655-1.003-1.109
		c1.785-0.482,3.1-2.1,3.1-4.031c0-0.375-0.061-0.732-0.156-1.075c0.505-0.032,1.005,0.061,1.455,0.32
		c1.247,0.719,1.669,2.371,1.073,3.878C28.278,8.429,28.536,7.372,28.536,6.248z M22.03,9.051c-0.032-0.606,0.097-1.242,0.4-1.843
		l-0.485-0.279c-0.173,0.18-0.416,0.29-0.688,0.29c-0.268,0-0.515-0.109-0.689-0.29l-0.475,0.273
		c0.304,0.606,0.432,1.248,0.397,1.852c-1.23-0.337-2.145-1.458-2.145-2.795c0-0.258,0.04-0.499,0.103-0.734
		c0.539,0.271,1.027,0.696,1.401,1.256l0.485-0.284c-0.02-0.083-0.052-0.161-0.052-0.252c0-0.45,0.312-0.814,0.729-0.923V4.769
		c-0.675-0.044-1.287-0.254-1.796-0.584c0.525-0.52,1.244-0.838,2.037-0.838c0.796,0,1.516,0.32,2.042,0.84
		c-0.508,0.333-1.121,0.54-1.796,0.583v0.555c0.416,0.109,0.727,0.473,0.727,0.923c0,0.091-0.026,0.168-0.048,0.252l0.493,0.289
		c0.372-0.561,0.859-0.983,1.394-1.255c0.061,0.23,0.101,0.473,0.101,0.725C24.165,7.593,23.259,8.71,22.03,9.051z"/>
	<path id="enlevement" fill="#FFFFFF" d="M24.703,4.534c-0.562,0-1.018,0.459-1.018,1.022v4.163c0.245,0.055,0.48,0.158,0.672,0.344
		c0.537,0.531,0.552,1.403,0.025,1.947L22.446,14l-0.27-0.259l1.945-1.985c0.39-0.403,0.378-1.041-0.021-1.435
		c-0.125-0.118-0.27-0.2-0.424-0.244c-0.176-0.046-0.345-0.049-0.511-0.015c-0.19,0.05-0.357,0.144-0.487,0.284
		c-1.151,1.178-2.307,2.357-3.455,3.539c-0.288,0.295-0.813,0.971-0.798,1.646c0.011,0.635-0.009,1.287,0.003,1.923
		c-0.149-0.122-0.334-0.211-0.538-0.249c-0.594-0.097-1.129,0.257-1.333,0.784h-0.299c0-0.144,0-0.289,0.002-0.433
		c0.014-0.665-0.011-1.355,0.006-2.023c0.014-0.676-0.513-1.353-0.801-1.649c-1.15-1.18-2.298-2.359-3.453-3.54
		c-0.131-0.138-0.297-0.234-0.487-0.281c-0.167-0.034-0.342-0.032-0.51,0.015c-0.156,0.046-0.306,0.129-0.428,0.246
		c-0.396,0.393-0.404,1.03-0.017,1.436l1.941,1.983L12.241,14l-1.934-1.992c-0.53-0.544-0.517-1.415,0.023-1.943
		c0.191-0.183,0.427-0.289,0.673-0.344V5.559c0-0.563-0.458-1.022-1.02-1.022c-0.566,0-1.022,0.459-1.022,1.022v7.206
		c0,0.235,0.095,0.452,0.235,0.626l3.479,4.596h-0.308c-0.674,0-1.229,0.551-1.229,1.233c0,0.451,0.254,0.829,0.615,1.042
		c-0.36,0.214-0.615,0.594-0.615,1.041c0,0.682,0.552,1.234,1.229,1.234h0.376v0.684h3.417c0.181,0.178,0.387,0.305,0.639,0.352
		c0.07,0.012,0.134,0.018,0.205,0.018c0.6,0,1.111-0.43,1.21-1.023l0.008-0.029h0.216c0.003,0.227,0,0.449,0.027,0.684h3.475v-0.684
		h0.38c0.675,0,1.229-0.549,1.229-1.234c0-0.447-0.256-0.827-0.618-1.041c0.362-0.212,0.618-0.591,0.618-1.045
		c0-0.679-0.552-1.23-1.229-1.23h-0.308l3.479-4.599c0.144-0.176,0.233-0.391,0.233-0.626V5.559
		C25.725,4.994,25.269,4.534,24.703,4.534z M11.754,19.217c0-0.338,0.278-0.614,0.614-0.614h4.034l-0.213,1.231h-3.821
		C12.032,19.831,11.754,19.558,11.754,19.217z M11.754,21.303c0-0.336,0.278-0.617,0.614-0.617h3.673l-0.214,1.232h-3.459
		C12.032,21.918,11.754,21.646,11.754,21.303z M17.607,22.459c-0.053,0.34-0.402,0.559-0.707,0.508
		c-0.163-0.029-0.302-0.119-0.398-0.25c-0.1-0.137-0.134-0.297-0.105-0.459l0.679-3.941c0.053-0.298,0.312-0.511,0.619-0.511
		c0.029,0,0.063,0,0.095,0.007c0.334,0.058,0.559,0.375,0.501,0.711L17.607,22.459z M22.933,21.303c0,0.342-0.277,0.615-0.613,0.615
		h-3.994l0.213-1.232h3.78C22.656,20.689,22.933,20.967,22.933,21.303z M22.933,19.217c0,0.338-0.277,0.613-0.613,0.613h-3.632
		l0.209-1.204c0.003-0.009,0-0.018,0-0.027h3.422C22.656,18.604,22.933,18.881,22.933,19.217z"/>
	<path id="eruption" display="none" fill="#FFFFFF" d="M22.728,2.361c0.985,0.337,2.295,0.735,2.572-0.856
		c0.224-1.239,1.876-0.778,2.579-0.858c1.28-0.147,0.313-2.542-1.287-2.578c-1.621-0.036-2.36,0.675-3.005,2.146
		c-0.311,0.708-0.569,1.241-1.717,0.861c-1.146-0.384-1.984,0.558-1.289,1.717c0.617,1.025-0.009,2.146-0.009,2.146h1.729
		c0,0-0.016-0.636-0.432-1.288C21.384,2.891,21.717,2.014,22.728,2.361z M13.576,13.043C18.021,9.808,19.13,5.33,19.13,5.33h4.566
		c0,0,1.109,4.476,5.551,7.714H13.576z"/>
	<path id="returned" display="none" fill="#FFFFFF" d="M20.951-0.516c0.112,0.7-0.363,1.36-1.058,1.476
		c-0.7,0.115-1.36-0.36-1.476-1.059c-0.114-0.701,0.357-1.36,1.059-1.475C20.173-1.689,20.839-1.217,20.951-0.516z M20.55,4.574
		l1.137,1.817c0.157,0.254,0.495,0.337,0.756,0.184c0.256-0.154,0.348-0.486,0.202-0.75l-0.287-0.521
		c-0.25-0.445-0.493-0.895-0.743-1.341l-0.508-0.919c-0.059-0.103-0.114-0.224-0.175-0.35c-0.313-0.654-0.801-1.667-1.865-1.572
		c-0.913,0.075-1.839,0.51-2.751,1.285c-1.078,0.851-1.833,2.09-1.869,2.141c-0.034,0.055-0.064,0.109-0.094,0.165
		c-0.002,0.002-0.004,0.002-0.004,0.004l0,0c-0.101,0.191-0.15,0.365-0.024,0.587c0.098,0.176,0.283,0.284,0.487,0.284
		c0.243,0,0.365-0.115,0.486-0.289l0,0C15.3,5.296,15.3,5.296,15.3,5.296c0.032-0.052,0.067-0.108,0.103-0.167
		c0.005-0.009,0.64-1.025,1.62-1.862c0.302-0.235,0.588-0.399,0.86-0.49l-0.219,2.645c-0.023,0.264-0.104,0.712-0.177,0.966
		L16.998,8.11c-0.066,0.218-0.25,0.58-0.394,0.754l-1.329,1.645c-0.168,0.211-0.357,0.446-0.2,0.775
		c0.091,0.191,0.287,0.315,0.501,0.315c0.258,0,0.396-0.147,0.572-0.337l1.345-1.449c0.24-0.259,0.551-0.707,0.704-1.025
		l0.666-1.355l2.468,4.144c0.12,0.206,0.274,0.458,0.609,0.458l0,0c0.19,0,0.366-0.096,0.469-0.26
		c0.178-0.271,0.06-0.519-0.041-0.744l-1.994-4.333c-0.08-0.168-0.123-0.514-0.091-0.701L20.55,4.574z M28.855,5.499
		c0-1.811-1.473-3.279-3.277-3.279h-1.394v1.655h1.392c0.893,0,1.62,0.727,1.62,1.623c0,0.894-0.728,1.623-1.62,1.623h-0.289V6.233
		l-2.97,1.715l2.97,1.716V8.773h0.323V8.771C27.401,8.753,28.855,7.295,28.855,5.499z"/>
	<path id="Attack" display="none" fill="#FFFFFF" d="M25.234,6.68l4.879-3.123l-4.715-0.501l1.279-5.478l-3.343,3.456l-0.933-3.906
		L21,0.773l-3.821-4.922l1.2,6.167l-3.394-0.753c0,0,1.032,1.976,1.608,3.165l-5.45-0.382l4.931,2.884l-1.417,1.456l2.295-0.418
		l-1.626,5.747l4.83-4.04l1.251,3.122l1.287-2.497l4.165,4.299l-2.082-5.756l4.564,0.462L25.234,6.68z"/>
</g>
</svg>
