<?xml version="1.0" encoding="utf-8"?>
<!-- Generator: Adobe Illustrator 16.0.0, SVG Export Plug-In . SVG Version: 6.00 Build 0)  -->
<!DOCTYPE svg PUBLIC "-//W3C//DTD SVG 1.1//EN" "http://www.w3.org/Graphics/SVG/1.1/DTD/svg11.dtd">
<svg version="1.1" id="Layer_1" xmlns="http://www.w3.org/2000/svg" xmlns:xlink="http://www.w3.org/1999/xlink" x="0px" y="0px"
	 width="33.35px" height="40px" viewBox="0 0 33.35 40" enable-background="new 0 0 33.35 40" xml:space="preserve">
<g id="PinColor">
	<path id="PinOmbre" opacity="0.3" enable-background="new    " d="M29.273,30.465c0,1.793-3.938,3.299-9.236,3.695
		c-0.893,0.068-2.783,4.275-2.783,4.275s-1.958-4.209-2.88-4.281c-5.247-0.408-9.141-1.906-9.141-3.689
		c0-2.1,5.382-3.801,12.021-3.801C23.89,26.665,29.273,28.363,29.273,30.465z"/>
	<path id="vert" display="none" fill="#2ABF00" stroke="#1D7500" stroke-width="0.2" stroke-miterlimit="10" d="M29.273,12.824
		c0,5.492-3.938,10.098-9.236,11.313c-0.893,0.203-2.783,13.08-2.783,13.08s-1.958-12.877-2.88-13.105
		c-5.247-1.244-9.141-5.829-9.141-11.292c0-6.421,5.382-11.626,12.021-11.626C23.89,1.194,29.273,6.403,29.273,12.824z"/>
	<path id="orange" display="none" fill="#FF8500" stroke="#7F4500" stroke-width="0.2" stroke-miterlimit="10" d="M29.273,12.824
		c0,5.492-3.938,10.098-9.236,11.313c-0.893,0.203-2.783,13.08-2.783,13.08s-1.958-12.877-2.88-13.105
		c-5.247-1.244-9.141-5.829-9.141-11.292c0-6.421,5.382-11.626,12.021-11.626C23.89,1.194,29.273,6.403,29.273,12.824z"/>
	<path id="gris" fill="#A5A5A5" stroke="#595959" stroke-width="0.2" stroke-miterlimit="10" d="M29.273,12.824
		c0,5.492-3.938,10.098-9.236,11.313c-0.893,0.203-2.783,13.08-2.783,13.08s-1.958-12.877-2.88-13.105
		c-5.247-1.244-9.141-5.829-9.141-11.292c0-6.421,5.382-11.626,12.021-11.626C23.89,1.194,29.273,6.403,29.273,12.824z"/>
	<path id="bleu" display="none" fill="#0092FF" stroke="#00477C" stroke-width="0.2" stroke-miterlimit="10" d="M29.273,12.824
		c0,5.492-3.938,10.098-9.236,11.313c-0.893,0.203-2.783,13.08-2.783,13.08s-1.958-12.877-2.88-13.105
		c-5.247-1.244-9.141-5.829-9.141-11.292c0-6.421,5.382-11.626,12.021-11.626C23.89,1.194,29.273,6.403,29.273,12.824z"/>
</g>
<g id="Icons">
	<g id="Minimal">
		<path id="Election" display="none" fill="#565656" d="M28.833-1.446l-4.901-2.102c-0.145-0.061-0.314-0.019-0.411,0.104
			l-1.404,1.752c-0.063,0.079-0.085,0.189-0.066,0.292c0.022,0.098,0.087,0.18,0.174,0.226l-4.396,1.648
			c-0.37,0.138-0.682,0.4-0.886,0.738l-1.455,2.425c-0.308,0.515-0.333,1.143-0.064,1.681l0.105,0.206h-1.534
			c-0.194,0-0.351,0.156-0.351,0.35v6.653h-1.051c-0.195,0-0.346,0.156-0.346,0.348c0,0.194,0.152,0.35,0.346,0.35h11.907
			c0.192,0,0.342-0.156,0.342-0.35c0-0.192-0.149-0.348-0.342-0.348h-1.051V8.951c0-0.119-0.064-0.234-0.163-0.295
			c-0.104-0.065-0.228-0.074-0.338-0.022c-0.385,0.181-0.667,0.272-0.805,0.312c-0.028,0.008-0.058,0.019-0.081,0.038l-2.281,1.365
			c-0.364,0.22-0.775,0.335-1.197,0.335c-0.773,0-1.499-0.386-1.942-1.042c-0.351-0.525-0.473-1.16-0.342-1.777
			c0.131-0.618,0.498-1.146,1.026-1.485l0.33-0.21c0.243-0.147,0.459-0.283,0.654-0.402c0.136-0.084,0.195-0.248,0.151-0.399
			c-0.087-0.281-0.234-0.531-0.369-0.723c0.534-0.234,1.26-0.651,1.622-1.073c0,0,0.005,0.002,0.007,0.002
			c0.076,0.047,0.166,0.096,0.269,0.145c0.007,0.002,0.01,0.004,0.019,0.007l0,0c0.262,0.127,0.592,0.253,0.969,0.328
			c-0.406,0.505-0.819,1.134-0.971,1.553c-0.289,0.126-0.893,0.469-2.3,1.365C17.331,7.21,17.076,7.578,16.99,8.01
			c-0.094,0.433-0.012,0.875,0.236,1.243c0.314,0.47,0.826,0.73,1.358,0.73c0.284,0,0.576-0.076,0.835-0.233l2.408-1.445
			c0.374-0.092,2.246-0.652,3.665-2.944c1.11-1.796,1.734-3.244,1.991-3.899l0.044,0.021c0.145,0.072,0.306,0.109,0.468,0.109
			c0.267,0,0.535-0.106,0.73-0.293c0.209-0.196,0.318-0.467,0.318-0.754v-1.667C29.042-1.265,28.962-1.393,28.833-1.446z"/>
	</g>
	<g id="Faible">
		<path id="Famine" display="none" fill="#F9F9F9" d="M25.68,11.443l-2.781,0.527l-4.544-2.471l1.652-2.061l3.716,1.233
			L25.68,11.443z M29.958,6.614v0.308l-2.931,0.93l-2.892,0.411l-3.718-1.236l-0.875-0.413h0.501
			c-0.119-1.105-0.278-1.943-0.356-3.038h-0.004c-0.003-0.033-0.042-0.767-0.051-1.08c-0.058-0.33-0.216-0.46-0.729-0.815
			c-0.285-0.184-0.494-0.248-0.613-0.246c-0.188,0-0.357,0.205-0.396,0.823c0.826,0.14,0.883,1.055,0.883,1.055
			c0.074,0.651-0.247,1.602-0.981,1.847c-1.359,0.455-1.221-2.167-0.455-2.795c0.023-0.756,0.234-1.448,0.95-1.475
			c0.285,0.002,0.576,0.119,0.911,0.333c0.161,0.097,0.289,0.194,0.404,0.294c-0.014-0.249-0.027-0.503-0.027-0.765
			c-0.003-0.55,0.082-1.15,0.571-1.576c0.252-0.229,0.534-0.347,0.813-0.344c0.728,0.036,1.177,0.661,1.441,1.302
			c0.307-0.133,0.688-0.199,1.124-0.046c1.12,0.387,1.724,2.338,1.253,3.018c-1.102,1.583-3.878-1.367-3.144-2.396
			c0,0,0.107-0.14,0.298-0.293c-0.216-0.569-0.649-1.075-0.973-1.04c-0.122,0.002-0.267,0.045-0.45,0.208
			c-0.308,0.271-0.39,0.659-0.39,1.167c0,0.357,0.043,0.754,0.043,1.153c0,0.208,0.014,0.39,0.021,0.591
			c0.051,0.355,0.053,0.629,0.051,1.002c0.073,1.092,0.517,1.99,0.634,3.117H29.958z M22.137,0.634l2.104,2.291
			c-0.377-1.625-1.71-2.53-1.71-2.53L22.137,0.634z M17.779,2.6l-0.376,0.155c0,0-0.187,1.281,0,1.95L17.779,2.6z M15.895,10.327
			l1.673-1.005l1.739-2.155l-0.544-0.553h-3.848L14.151,8.14L15.895,10.327z M17.845,9.981l-2.96,2.016l0.395,0.489h6.813
			l-0.022-0.1L17.845,9.981z M11.752,6.614v2.324l1.898-1.017l0.575-1.307H11.752z M24.687,8.76l1.836,2.664l3.436,0.808V9.184
			l-2.475-0.796L24.687,8.76z M29.958,8.518V7.442l-1.928,0.521L29.958,8.518z M13.697,8.666l-1.945,0.927v2.893h1.422l2.12-1.735
			L13.697,8.666z M23.881,12.485h4.45l-2.13-0.515L23.881,12.485z"/>
		<path id="Cyclone" display="none" fill="#FFFFFF" d="M20.925,0.36c-0.094-0.005-0.188-0.016-0.28-0.016
			c-0.835,0-1.62,0.217-2.302,0.593c1.219-4.153,4.262-4.514,4.262-4.514s-6.722,0.561-6.722,8.401c0.005,0,0.012,0,0.016,0
			c-0.004,0.095-0.016,0.186-0.016,0.282c0,0.831,0.218,1.615,0.595,2.3c-4.153-1.222-4.517-4.26-4.517-4.26s0.56,6.722,8.405,6.722
			c0-0.007,0-0.009,0-0.016c0.092,0.005,0.186,0.016,0.279,0.016c0.836,0,1.618-0.219,2.302-0.595
			c-1.221,4.155-4.264,4.516-4.264,4.516s6.722-0.562,6.722-8.402c-0.004,0-0.009,0-0.014,0c0.005-0.094,0.014-0.185,0.014-0.278
			c0-0.834-0.218-1.62-0.597-2.3c4.154,1.218,4.517,4.259,4.517,4.259s-0.558-6.721-8.399-6.721
			C20.925,0.352,20.925,0.355,20.925,0.36z"/>
		<path id="tsunami" display="none" fill="#FFFFFF" d="M29.088,10.639c-13.832,0.783-9.967-9.797-6.38-8.883
			C22.339,1.98,22.1,2.76,22.329,3.283c0.25,0.561,1.061,0.881,1.526,0.765c1.113-0.288,1.163-1.852,0.762-2.673
			c-0.417-0.854-1.517-1.908-3.436-1.908c-4.631,0-7.792,2.366-8.981,6.432v5.979h16.89v-1.24L29.088,10.639L29.088,10.639z"/>
		<path id="earthquake" display="none" fill="#FFFFFF" d="M25.568,5.627c-0.238,0-0.454,0.131-0.566,0.342L24.08,7.708l-1.138-3.33
			c-0.09-0.252-0.319-0.423-0.586-0.436c-0.272-0.007-0.512,0.147-0.614,0.393l-0.78,1.852l-1.229-7.374
			c-0.06-0.308-0.349-0.542-0.645-0.526c-0.316,0.007-0.578,0.216-0.619,0.529L17.379,7.37l-0.881-4.592
			c-0.051-0.269-0.271-0.477-0.546-0.514c-0.271-0.038-0.544,0.109-0.661,0.357l-1.444,3.007h-2.24v1.281h2.644
			c0.247,0,0.473-0.144,0.582-0.362l0.773-1.616l1.25,6.512c0.06,0.304,0.322,0.522,0.628,0.522c0.005,0,0.012,0,0.017,0
			c0.314-0.01,0.576-0.246,0.619-0.556L19.191,3l0.895,5.534c0.053,0.279,0.28,0.491,0.564,0.523
			c0.285,0.025,0.551-0.128,0.663-0.392l0.962-2.285l1.069,3.137c0.08,0.243,0.298,0.414,0.553,0.435
			c0.255,0.014,0.501-0.113,0.622-0.34l1.433-2.708h2.751V5.624h-3.135V5.627z"/>
	</g>
	<g id="Modéré">
	</g>
	<g id="Important">
	</g>
	<g id="Elevé">
	</g>
	<g id="Extreme" display="none">
		<path id="rebelion" display="inline" fill="#FFFFFF" d="M23.264,0.596c0,1.545-1.251,2.793-2.793,2.793
			c-1.545,0-2.798-1.251-2.798-2.793c0-1.545,1.251-2.794,2.798-2.794C22.013-2.198,23.264-0.949,23.264,0.596z M15.803,12.45h1.71
			h0.089l0.063-0.131l0.619-0.607l-0.571-0.123l-0.906-0.194L15.803,12.45z M27.497,1.116l-0.601,0.599l0.041,0.041l-0.484,0.489
			c0.064,0.058,0.126,0.12,0.18,0.188l0.488-0.489l0.101,0.092l0.593-0.603L27.497,1.116z M23.638,4.215l-0.26,0.255l0.03,0.073
			l0.06,0.137l-4.076,4.086l0.438,0.094c0.401,0.084,0.748,0.325,0.976,0.673c0.027,0.049,0.039,0.111,0.064,0.162l0.011-0.015
			l0.301,0.199l0.108-0.022l1.188,0.861l0.799-1.094l-1.77-1.382l0.039-0.115h0.291l1.737-2.037l0.195-1.826L23.638,4.215z
			 M25.531,2.408c-0.528-0.057-1.042,0.337-1.102,0.884l-0.069,0.596l0,0l-0.039,0.43l-0.195,1.83l-0.018,0.17l-0.11,0.131
			l-1.554,1.824l1.17,0.918l0.423,0.331l-0.246,0.335l0.063,0.123c0.16,0.35,0.516,0.568,0.901,0.568
			c0.056,0,0.11-0.002,0.168-0.013c0.438-0.075,0.775-0.433,0.823-0.875l0.664-6.148C26.474,2.96,26.075,2.465,25.531,2.408z
			 M23.495,10.259l-0.569,0.785l-0.328,0.448l-0.447-0.326l-0.982-0.711l-0.087,0.021l-0.037-0.024c0,0.085-0.002,0.166-0.021,0.25
			c-0.019,0.083-0.048,0.157-0.078,0.234c-0.064,0.146-0.142,0.27-0.238,0.388l0.068,0.156c0.069,0.156,0.166,0.361,0.278,0.538
			l0.275,0.428h2.098L23.495,10.259z M19.502,11.933c-0.022,0-0.048-0.007-0.071-0.009C19.419,11.968,19.412,12,19.412,12
			l0.237,0.447h0.568l0.367-0.129c-0.124-0.195-0.225-0.404-0.316-0.614C20.037,11.839,19.784,11.933,19.502,11.933z M20.323,9.817
			c-0.041-0.063-0.101-0.111-0.158-0.163c-0.032-0.031-0.06-0.073-0.101-0.098c-0.104-0.073-0.225-0.127-0.352-0.157l-0.436-0.088
			l-0.996-0.213l0,0l-0.877-0.188l-0.342-0.071l-0.564-0.123l-0.035-0.007l0.087-0.092l0.381-0.378l0.408-0.41
			c0.035,0.28,0.049,0.502,0.049,0.508l0.133,0.029l1.232,0.264l0.25-0.254l3.814-3.829l-0.087-0.214l0.031-0.024
			C22.21,4.14,21.561,4.046,20.74,4.046h-0.269c0,0-0.267,0-0.269,0c-0.576,0-1.157,0.039-1.726,0.166
			c-0.976,0.218-1.582,1.175-2.25,1.834c-0.69,0.678-1.358,1.384-2.03,2.081c-0.148,0.156-0.296,0.316-0.45,0.47
			c-0.258,0.26-0.353,0.638-0.249,0.992c0.1,0.35,0.39,0.614,0.748,0.695l1.32,0.282l0.56,0.118l3.17,0.675
			c0.07,0.012,0.14,0.023,0.208,0.023c0.464,0,0.875-0.322,0.976-0.79c0.039-0.185,0.01-0.358-0.046-0.524l-0.062-0.128
			C20.354,9.905,20.34,9.865,20.323,9.817z M18.926,12.258l-0.096-0.18l0.048-0.201l0.009-0.039l-0.153-0.033l-0.561,0.643h0.85
			L18.926,12.258z"/>
	</g>
	<path id="displaced" display="none" fill="#FFFFFF" d="M21.605-1.816c0.135,0.862-0.443,1.672-1.299,1.812
		c-0.858,0.142-1.678-0.439-1.815-1.297c-0.143-0.86,0.438-1.674,1.301-1.814C20.648-3.257,21.46-2.674,21.605-1.816z M21.111,4.438
		l1.396,2.229c0.2,0.314,0.608,0.415,0.925,0.229c0.324-0.191,0.432-0.598,0.258-0.923l-0.356-0.641
		c-0.312-0.546-0.612-1.1-0.918-1.648l-0.617-1.127c-0.071-0.134-0.143-0.281-0.216-0.435c-0.381-0.804-0.979-2.046-2.292-1.934
		c-1.123,0.099-2.261,0.632-3.383,1.583c-1.326,1.047-2.253,2.568-2.287,2.632c-0.046,0.066-0.087,0.136-0.119,0.2
		c-0.004,0.001-0.004,0.003-0.005,0.006l0,0c-0.126,0.234-0.188,0.449-0.032,0.723c0.122,0.215,0.35,0.347,0.594,0.347
		c0.301,0,0.451-0.144,0.6-0.352l0,0c0.002,0,0.002-0.005,0.002-0.005c0.042-0.061,0.08-0.129,0.129-0.198
		c0.007-0.013,0.785-1.263,1.988-2.289c0.372-0.293,0.725-0.491,1.055-0.602l-0.269,3.246c-0.024,0.321-0.126,0.876-0.213,1.184
		L16.744,8.78c-0.078,0.265-0.303,0.71-0.482,0.926l-1.631,2.021c-0.205,0.257-0.438,0.547-0.247,0.951
		c0.114,0.239,0.354,0.391,0.618,0.391c0.316,0,0.486-0.181,0.7-0.413l1.65-1.781c0.294-0.318,0.68-0.869,0.87-1.259l0.819-1.666
		l3.029,5.089c0.146,0.25,0.335,0.566,0.743,0.566l0,0c0.239,0,0.452-0.123,0.576-0.316c0.221-0.337,0.073-0.643-0.051-0.919
		l-2.448-5.32c-0.095-0.21-0.149-0.634-0.11-0.863L21.111,4.438z M23.677,9.976h3.672v1.09l3.646-2.105l-3.646-2.106v1.09h-3.672
		V9.976z"/>
	<path id="epidemie" display="none" fill="#FFFFFF" d="M27.861,5.809c0-3.955-3.101-7.172-7.002-7.372
		c1.724,0.165,3.066,1.415,3.066,2.938c0,0.522-0.173,1.004-0.452,1.432c-0.771-0.768-1.829-1.24-3-1.24
		c-1.17,0-2.226,0.472-2.995,1.238c-0.275-0.428-0.447-0.91-0.447-1.434c0-1.52,1.341-2.772,3.06-2.937
		c-3.897,0.201-6.998,3.42-6.998,7.374c0,1.192,0.29,2.316,0.79,3.315c-0.683-1.561-0.266-3.316,1.033-4.067
		c0.455-0.261,0.961-0.355,1.466-0.327c-0.096,0.349-0.158,0.711-0.158,1.091c0,1.963,1.343,3.602,3.153,4.091
		c-0.025,0.042-0.056,0.082-0.08,0.124c0,0.004,0,0.004,0,0.01c-0.061,0.136-0.136,0.243-0.226,0.337
		c-0.194,0.255-0.42,0.481-0.709,0.648c-1.308,0.752-3.047,0.23-4.053-1.161c1.322,2.005,3.589,3.333,6.167,3.333
		c2.554,0,4.803-1.299,6.132-3.273c-1.01,1.347-2.718,1.843-4.005,1.104c-0.459-0.267-0.792-0.664-1.019-1.125
		c1.811-0.489,3.144-2.13,3.144-4.089c0-0.38-0.062-0.742-0.158-1.089c0.512-0.033,1.019,0.062,1.476,0.324
		c1.265,0.729,1.693,2.404,1.09,3.933C27.597,8.02,27.861,6.947,27.861,5.809z M21.26,8.65c-0.032-0.614,0.099-1.259,0.406-1.869
		l-0.491-0.283c-0.177,0.183-0.422,0.294-0.699,0.294c-0.271,0-0.521-0.111-0.698-0.294l-0.481,0.276
		c0.307,0.615,0.438,1.266,0.403,1.878c-1.248-0.342-2.176-1.479-2.176-2.834c0-0.261,0.042-0.506,0.104-0.744
		c0.546,0.275,1.042,0.706,1.421,1.273l0.493-0.288c-0.021-0.085-0.053-0.164-0.053-0.255c0-0.457,0.316-0.826,0.741-0.936V4.308
		c-0.687-0.045-1.306-0.258-1.822-0.593c0.532-0.527,1.263-0.85,2.065-0.85c0.808,0,1.538,0.325,2.07,0.852
		c-0.515,0.337-1.136,0.547-1.82,0.591v0.563c0.423,0.11,0.737,0.479,0.737,0.936c0,0.092-0.028,0.17-0.049,0.255l0.501,0.292
		c0.376-0.569,0.872-0.997,1.413-1.272c0.06,0.233,0.102,0.479,0.102,0.734C23.427,7.171,22.509,8.305,21.26,8.65z"/>
	<path id="enlevement" fill="#FFFFFF" d="M24.428,4.442c-0.546,0-0.991,0.448-0.991,0.997v4.06c0.24,0.054,0.47,0.154,0.653,0.336
		c0.525,0.518,0.539,1.367,0.026,1.897l-1.888,1.942l-0.264-0.253l1.897-1.936c0.38-0.393,0.368-1.015-0.021-1.399
		C23.72,9.97,23.577,9.89,23.427,9.848c-0.171-0.045-0.336-0.048-0.498-0.014c-0.184,0.048-0.349,0.139-0.475,0.277
		c-1.123,1.148-2.249,2.298-3.369,3.45c-0.28,0.288-0.794,0.947-0.777,1.605c0.011,0.619-0.009,1.254,0.003,1.875
		c-0.146-0.119-0.327-0.206-0.524-0.243c-0.579-0.094-1.102,0.25-1.301,0.765h-0.293c0-0.14,0-0.282,0.003-0.423
		c0.014-0.648-0.011-1.322,0.005-1.973c0.014-0.659-0.5-1.319-0.781-1.607c-1.12-1.151-2.24-2.301-3.366-3.452
		c-0.127-0.136-0.29-0.229-0.475-0.274c-0.164-0.034-0.333-0.031-0.497,0.014c-0.152,0.045-0.298,0.125-0.417,0.239
		c-0.386,0.382-0.395,1.005-0.017,1.4l1.893,1.933l-0.264,0.253l-1.886-1.943c-0.518-0.53-0.503-1.378,0.023-1.894
		c0.187-0.178,0.416-0.282,0.656-0.335v-4.06c0-0.549-0.446-0.997-0.994-0.997c-0.552,0-0.997,0.448-0.997,0.997v7.026
		c0,0.23,0.093,0.44,0.229,0.611l3.393,4.481h-0.3c-0.658,0-1.199,0.538-1.199,1.203c0,0.439,0.249,0.808,0.6,1.016
		c-0.351,0.21-0.6,0.58-0.6,1.016c0,0.665,0.538,1.203,1.199,1.203h0.366v0.667H16.1c0.175,0.174,0.377,0.3,0.624,0.343
		c0.068,0.012,0.13,0.018,0.199,0.018c0.584,0,1.084-0.418,1.18-0.997l0.009-0.03h0.211c0.003,0.221,0,0.439,0.024,0.667h3.389
		v-0.667h0.37c0.659,0,1.2-0.535,1.2-1.203c0-0.436-0.25-0.805-0.604-1.016c0.354-0.206,0.604-0.576,0.604-1.019
		c0-0.662-0.537-1.2-1.2-1.2h-0.299l3.391-4.484c0.141-0.172,0.229-0.381,0.229-0.611V5.441C25.426,4.891,24.981,4.442,24.428,4.442
		z M11.802,18.76c0-0.33,0.271-0.599,0.599-0.599h3.933l-0.207,1.201h-3.726C12.073,19.359,11.802,19.093,11.802,18.76z
		 M11.802,20.794c0-0.327,0.271-0.602,0.599-0.602h3.582l-0.208,1.202h-3.374C12.073,21.395,11.802,21.13,11.802,20.794z
		 M17.509,21.923c-0.052,0.33-0.392,0.544-0.689,0.494c-0.159-0.028-0.295-0.116-0.388-0.243c-0.098-0.133-0.13-0.291-0.103-0.447
		l0.662-3.845c0.052-0.291,0.303-0.497,0.604-0.497c0.027,0,0.06,0,0.092,0.006c0.324,0.057,0.545,0.367,0.489,0.694L17.509,21.923z
		 M22.704,20.794c0,0.333-0.272,0.601-0.6,0.601h-3.896l0.209-1.202h3.685C22.432,20.195,22.704,20.467,22.704,20.794z
		 M22.704,18.76c0,0.33-0.272,0.598-0.6,0.598h-3.541l0.203-1.174c0.002-0.009,0-0.017,0-0.025h3.336
		C22.432,18.163,22.704,18.433,22.704,18.76z"/>
	<path id="eruption" display="none" fill="#FFFFFF" d="M21.969,1.866c0.999,0.342,2.327,0.745,2.609-0.869
		c0.226-1.256,1.902-0.79,2.614-0.87c1.299-0.149,0.319-2.579-1.306-2.615c-1.644-0.036-2.392,0.685-3.046,2.177
		c-0.316,0.718-0.578,1.259-1.741,0.874c-1.161-0.389-2.013,0.566-1.309,1.741c0.627,1.04-0.009,2.176-0.009,2.176h1.753
		c0,0-0.014-0.645-0.436-1.307C20.606,2.403,20.944,1.514,21.969,1.866z M12.687,12.7c4.507-3.282,5.634-7.824,5.634-7.824h4.631
		c0,0,1.125,4.54,5.63,7.824H12.687z"/>
	<path id="returned" display="none" fill="#FFFFFF" d="M20.168-1.052c0.112,0.709-0.37,1.379-1.074,1.497
		c-0.709,0.117-1.38-0.365-1.496-1.074c-0.115-0.711,0.362-1.379,1.073-1.496C19.378-2.243,20.053-1.763,20.168-1.052z
		 M19.759,4.111l1.154,1.842c0.158,0.257,0.501,0.342,0.767,0.187c0.26-0.156,0.352-0.494,0.204-0.762L21.593,4.85
		c-0.253-0.451-0.5-0.907-0.753-1.36l-0.517-0.932c-0.057-0.105-0.114-0.227-0.177-0.355c-0.316-0.664-0.812-1.691-1.891-1.595
		c-0.927,0.077-1.866,0.517-2.791,1.303c-1.093,0.863-1.859,2.12-1.895,2.171c-0.035,0.055-0.065,0.111-0.095,0.167
		c-0.002,0.002-0.005,0.002-0.005,0.004l0,0c-0.102,0.194-0.152,0.37-0.024,0.596c0.1,0.179,0.287,0.288,0.494,0.288
		c0.247,0,0.371-0.117,0.493-0.292l0,0c0.002-0.002,0.002-0.002,0.002-0.002c0.032-0.053,0.067-0.109,0.104-0.169
		c0.005-0.009,0.65-1.04,1.644-1.888c0.305-0.238,0.597-0.405,0.872-0.497L16.833,4.97c-0.023,0.268-0.105,0.723-0.179,0.98
		l-0.496,1.748c-0.066,0.22-0.254,0.587-0.399,0.765l-1.348,1.668c-0.171,0.214-0.362,0.452-0.203,0.786
		c0.093,0.194,0.292,0.319,0.509,0.319c0.262,0,0.402-0.149,0.581-0.342l1.363-1.47c0.243-0.262,0.558-0.716,0.714-1.04l0.675-1.375
		l2.503,4.203c0.122,0.208,0.28,0.464,0.618,0.464l0,0c0.194,0,0.371-0.097,0.477-0.263c0.18-0.276,0.06-0.526-0.043-0.754
		l-2.022-4.394c-0.08-0.17-0.124-0.521-0.092-0.711L19.759,4.111z M28.184,5.048c0-1.836-1.494-3.326-3.325-3.326h-1.414v1.678
		h1.412c0.906,0,1.643,0.737,1.643,1.646c0,0.907-0.736,1.646-1.643,1.646h-0.292V5.793l-3.013,1.739l3.013,1.74V8.369h0.328V8.367
		C26.708,8.349,28.184,6.87,28.184,5.048z"/>
	<path id="Attack" display="none" fill="#FFFFFF" d="M24.51,6.246l4.947-3.167l-4.78-0.508l1.297-5.556l-3.39,3.505l-0.945-3.961
		l-1.423,3.697l-3.874-4.993l1.217,6.254l-3.442-0.764c0,0,1.046,2.003,1.631,3.21L10.22,3.576l5.002,2.925l-1.438,1.477
		l2.328-0.424l-1.649,5.828l4.899-4.097l1.269,3.166l1.306-2.533l4.223,4.36L24.048,8.44l4.632,0.469L24.51,6.246z"/>
</g>
</svg>
