<?xml version="1.0" encoding="utf-8"?>
<!-- Generator: Adobe Illustrator 16.0.0, SVG Export Plug-In . SVG Version: 6.00 Build 0)  -->
<!DOCTYPE svg PUBLIC "-//W3C//DTD SVG 1.1//EN" "http://www.w3.org/Graphics/SVG/1.1/DTD/svg11.dtd">
<svg version="1.1" id="Layer_1" xmlns="http://www.w3.org/2000/svg" xmlns:xlink="http://www.w3.org/1999/xlink" x="0px" y="0px"
	 width="33.35px" height="40px" viewBox="0 0 33.35 40" enable-background="new 0 0 33.35 40" xml:space="preserve">
<g id="PinColor">
	<path id="PinOmbre" opacity="0.3" enable-background="new    " d="M29.583,30.465c0,1.793-3.938,3.299-9.236,3.695
		c-0.894,0.068-2.784,4.275-2.784,4.275s-1.957-4.209-2.88-4.281c-5.247-0.408-9.141-1.906-9.141-3.689
		c0-2.1,5.382-3.801,12.021-3.801C24.2,26.665,29.583,28.363,29.583,30.465z"/>
	<path id="vert" display="none" fill="#2ABF00" stroke="#1D7500" stroke-width="0.2" stroke-miterlimit="10" d="M29.583,12.824
		c0,5.492-3.938,10.098-9.236,11.313c-0.894,0.203-2.784,13.08-2.784,13.08s-1.957-12.877-2.88-13.105
		c-5.247-1.244-9.141-5.829-9.141-11.292c0-6.421,5.382-11.626,12.021-11.626C24.2,1.194,29.583,6.403,29.583,12.824z"/>
	<path id="orange" fill="#FF8500" stroke="#7F4500" stroke-width="0.2" stroke-miterlimit="10" d="M29.583,12.824
		c0,5.492-3.938,10.098-9.236,11.313c-0.894,0.203-2.784,13.08-2.784,13.08s-1.957-12.877-2.88-13.105
		c-5.247-1.244-9.141-5.829-9.141-11.292c0-6.421,5.382-11.626,12.021-11.626C24.2,1.194,29.583,6.403,29.583,12.824z"/>
	<path id="gris" display="none" fill="#A5A5A5" stroke="#595959" stroke-width="0.2" stroke-miterlimit="10" d="M29.583,12.824
		c0,5.492-3.938,10.098-9.236,11.313c-0.894,0.203-2.784,13.08-2.784,13.08s-1.957-12.877-2.88-13.105
		c-5.247-1.244-9.141-5.829-9.141-11.292c0-6.421,5.382-11.626,12.021-11.626C24.2,1.194,29.583,6.403,29.583,12.824z"/>
	<path id="bleu" display="none" fill="#0092FF" stroke="#00477C" stroke-width="0.2" stroke-miterlimit="10" d="M29.583,12.824
		c0,5.492-3.938,10.098-9.236,11.313c-0.894,0.203-2.784,13.08-2.784,13.08s-1.957-12.877-2.88-13.105
		c-5.247-1.244-9.141-5.829-9.141-11.292c0-6.421,5.382-11.626,12.021-11.626C24.2,1.194,29.583,6.403,29.583,12.824z"/>
</g>
<g id="Icons">
	<g id="Minimal">
		<path id="Election" display="none" fill="#565656" d="M32.156-5.145l-4.805-2.061c-0.144-0.06-0.31-0.019-0.404,0.103
			l-1.376,1.718c-0.061,0.077-0.084,0.186-0.064,0.287c0.022,0.096,0.084,0.176,0.17,0.221l-4.31,1.616
			c-0.363,0.135-0.669,0.392-0.869,0.724l-1.426,2.377c-0.302,0.504-0.327,1.12-0.063,1.648l0.104,0.202H17.61
			c-0.19,0-0.345,0.153-0.345,0.343v6.521h-1.03c-0.191,0-0.34,0.153-0.34,0.341c0,0.19,0.15,0.343,0.34,0.343h11.672
			c0.188,0,0.335-0.153,0.335-0.343c0-0.189-0.147-0.341-0.335-0.341h-1.032V5.046c0-0.116-0.063-0.229-0.159-0.289
			c-0.101-0.063-0.223-0.072-0.33-0.022c-0.379,0.177-0.655,0.267-0.789,0.306c-0.028,0.007-0.057,0.019-0.08,0.037l-2.235,1.338
			c-0.357,0.215-0.761,0.329-1.174,0.329c-0.76,0-1.469-0.378-1.903-1.021c-0.346-0.515-0.463-1.136-0.336-1.742
			c0.129-0.605,0.489-1.124,1.007-1.456l0.322-0.206c0.239-0.144,0.451-0.277,0.642-0.394c0.133-0.083,0.192-0.243,0.148-0.392
			c-0.086-0.275-0.229-0.521-0.361-0.708c0.524-0.229,1.233-0.639,1.591-1.052c0,0,0.004,0.002,0.006,0.002
			c0.073,0.046,0.161,0.095,0.263,0.142c0.007,0.002,0.009,0.004,0.019,0.006l0,0c0.256,0.125,0.58,0.248,0.95,0.322
			c-0.398,0.495-0.805,1.111-0.953,1.522c-0.283,0.125-0.875,0.459-2.253,1.338c-0.367,0.232-0.617,0.592-0.703,1.016
			c-0.091,0.424-0.011,0.857,0.232,1.219c0.308,0.461,0.811,0.716,1.331,0.716c0.28,0,0.564-0.075,0.82-0.229l2.359-1.417
			c0.365-0.09,2.202-0.639,3.592-2.886c1.089-1.761,1.7-3.18,1.952-3.823l0.043,0.021c0.143,0.071,0.301,0.107,0.459,0.107
			c0.262,0,0.524-0.104,0.717-0.288c0.203-0.192,0.312-0.458,0.312-0.74V-4.83C32.36-4.968,32.282-5.093,32.156-5.145z"/>
	</g>
	<g id="Faible">
		<path id="Famine" display="none" fill="#F9F9F9" d="M29.066,7.49l-2.727,0.516l-4.454-2.422l1.618-2.02l3.643,1.209L29.066,7.49z
			 M33.258,2.756v0.302l-2.872,0.911L27.55,4.372L23.907,3.16L23.05,2.756h0.49c-0.117-1.083-0.271-1.905-0.35-2.979h-0.005
			c-0.002-0.032-0.04-0.752-0.049-1.058c-0.056-0.324-0.212-0.452-0.716-0.799c-0.277-0.18-0.483-0.243-0.601-0.241
			c-0.185,0-0.351,0.201-0.389,0.807c0.811,0.137,0.866,1.034,0.866,1.034c0.072,0.638-0.242,1.57-0.962,1.811
			c-1.333,0.445-1.198-2.125-0.445-2.74c0.021-0.741,0.228-1.419,0.93-1.446c0.28,0.003,0.564,0.116,0.894,0.326
			c0.157,0.094,0.284,0.19,0.396,0.288c-0.014-0.244-0.027-0.493-0.027-0.75c-0.003-0.539,0.08-1.127,0.56-1.545
			c0.247-0.224,0.524-0.339,0.797-0.337c0.714,0.035,1.154,0.648,1.412,1.276c0.302-0.13,0.675-0.195,1.104-0.046
			c1.097,0.38,1.688,2.292,1.229,2.959c-1.081,1.551-3.802-1.34-3.082-2.349c0,0,0.105-0.137,0.291-0.288
			c-0.21-0.557-0.636-1.054-0.953-1.019c-0.12,0.002-0.262,0.044-0.441,0.204c-0.302,0.266-0.383,0.646-0.383,1.144
			c0,0.35,0.043,0.739,0.043,1.13c0,0.204,0.014,0.382,0.021,0.579c0.05,0.348,0.052,0.617,0.05,0.982
			c0.073,1.071,0.507,1.951,0.622,3.056H33.258z M25.592-3.106l2.062,2.246c-0.367-1.593-1.675-2.479-1.675-2.479L25.592-3.106z
			 M21.321-1.18l-0.37,0.152c0,0-0.183,1.255,0,1.912L21.321-1.18z M19.473,6.395l1.64-0.985l1.706-2.112l-0.533-0.542h-3.772
			l-0.749,1.496L19.473,6.395z M21.384,6.056l-2.901,1.976l0.387,0.479h6.68l-0.022-0.098L21.384,6.056z M15.412,2.756v2.278
			l1.86-0.997l0.563-1.281H15.412z M28.09,4.859l1.801,2.611l3.368,0.791V5.275l-2.426-0.781L28.09,4.859z M33.258,4.622V3.567
			l-1.89,0.511L33.258,4.622z M17.319,4.767l-1.907,0.909v2.836h1.394l2.078-1.702L17.319,4.767z M27.302,8.51h4.36l-2.087-0.504
			L27.302,8.51z"/>
		<path id="Cyclone" display="none" fill="#FFFFFF" d="M24.405-3.375C24.312-3.379,24.22-3.39,24.13-3.39
			c-0.819,0-1.588,0.213-2.257,0.582c1.195-4.071,4.177-4.425,4.177-4.425s-6.588,0.549-6.588,8.235c0.004,0,0.01,0,0.015,0
			c-0.005,0.093-0.015,0.182-0.015,0.276c0,0.814,0.214,1.584,0.582,2.255c-4.071-1.198-4.428-4.176-4.428-4.176
			s0.549,6.589,8.239,6.589c0-0.007,0-0.009,0-0.016c0.09,0.004,0.181,0.016,0.273,0.016c0.818,0,1.587-0.214,2.256-0.583
			c-1.195,4.073-4.18,4.427-4.18,4.427s6.59-0.551,6.59-8.236c-0.004,0-0.009,0-0.013,0c0.004-0.092,0.013-0.182,0.013-0.273
			c0-0.818-0.213-1.588-0.585-2.255c4.071,1.195,4.428,4.175,4.428,4.175s-0.547-6.588-8.233-6.588
			C24.405-3.383,24.405-3.379,24.405-3.375z"/>
		<path id="tsunami" display="none" fill="#FFFFFF" d="M32.406,6.701c-13.558,0.767-9.77-9.604-6.253-8.708
			c-0.363,0.22-0.598,0.983-0.372,1.497c0.246,0.549,1.039,0.864,1.495,0.75c1.093-0.282,1.141-1.815,0.747-2.62
			c-0.408-0.837-1.485-1.871-3.366-1.871c-4.541,0-7.639,2.319-8.805,6.305v5.861h16.556V6.7L32.406,6.701L32.406,6.701z"/>
		<path id="earthquake" display="none" fill="#FFFFFF" d="M28.954,1.789c-0.233,0-0.445,0.129-0.555,0.335l-0.903,1.703
			l-1.115-3.264c-0.087-0.247-0.313-0.415-0.573-0.427c-0.269-0.007-0.501,0.144-0.604,0.385l-0.764,1.815l-1.204-7.228
			c-0.059-0.301-0.342-0.531-0.633-0.516c-0.311,0.007-0.567,0.212-0.606,0.519l-1.069,8.386l-0.864-4.501
			c-0.048-0.263-0.266-0.467-0.534-0.504c-0.267-0.037-0.533,0.107-0.649,0.35l-1.415,2.947H15.27v1.255h2.592
			c0.242,0,0.463-0.141,0.569-0.355l0.758-1.583l1.226,6.383C20.473,7.786,20.73,8,21.032,8c0.004,0,0.011,0,0.016,0
			c0.309-0.01,0.563-0.241,0.606-0.545l1.049-8.242l0.878,5.425c0.052,0.274,0.273,0.481,0.552,0.512
			c0.279,0.025,0.541-0.125,0.65-0.383l0.942-2.24l1.05,3.075c0.078,0.239,0.292,0.406,0.541,0.426
			c0.251,0.014,0.49-0.11,0.609-0.333l1.405-2.655h2.697V1.785h-3.074V1.789z"/>
	</g>
	<g id="Modéré">
	</g>
	<g id="Important">
	</g>
	<g id="Elevé">
	</g>
	<g id="Extreme" display="none">
		<path id="rebelion" display="inline" fill="#FFFFFF" d="M26.696-3.144c0,1.515-1.225,2.738-2.736,2.738
			c-1.516,0-2.742-1.226-2.742-2.738c0-1.515,1.226-2.739,2.742-2.739C25.471-5.882,26.696-4.658,26.696-3.144z M19.383,8.476h1.675
			h0.088l0.062-0.128l0.607-0.595l-0.56-0.121l-0.889-0.19L19.383,8.476z M30.846-2.634l-0.589,0.587l0.04,0.041l-0.475,0.479
			c0.064,0.058,0.125,0.118,0.177,0.185l0.479-0.479l0.1,0.09l0.579-0.59L30.846-2.634z M27.064,0.404l-0.255,0.25l0.029,0.071
			l0.058,0.135l-3.995,4.006l0.431,0.092c0.394,0.083,0.733,0.319,0.955,0.66c0.028,0.048,0.038,0.108,0.063,0.159l0.012-0.016
			l0.296,0.195l0.105-0.022l1.164,0.844l0.783-1.072l-1.734-1.354l0.038-0.113H25.3l1.703-1.997l0.189-1.791L27.064,0.404z
			 M28.918-1.368c-0.517-0.056-1.021,0.331-1.08,0.867l-0.066,0.584l0,0l-0.039,0.421l-0.19,1.793l-0.019,0.167l-0.107,0.128
			l-1.523,1.788l1.148,0.9l0.413,0.324l-0.241,0.329l0.061,0.12c0.158,0.343,0.508,0.558,0.886,0.558
			c0.053,0,0.106-0.002,0.163-0.013c0.43-0.074,0.76-0.424,0.808-0.857l0.649-6.027C29.843-0.826,29.452-1.312,28.918-1.368z
			 M26.924,6.329l-0.56,0.769l-0.32,0.44l-0.438-0.32l-0.964-0.697l-0.086,0.021l-0.034-0.024c0,0.083-0.003,0.163-0.021,0.246
			c-0.019,0.081-0.048,0.153-0.077,0.229c-0.062,0.143-0.139,0.265-0.232,0.38l0.066,0.153c0.068,0.153,0.163,0.354,0.273,0.528
			l0.269,0.419h2.058L26.924,6.329z M23.01,7.969c-0.022,0-0.048-0.007-0.07-0.009c-0.011,0.044-0.019,0.076-0.019,0.076
			l0.232,0.438h0.558l0.36-0.126c-0.121-0.191-0.221-0.396-0.312-0.602C23.533,7.877,23.285,7.969,23.01,7.969z M23.815,5.896
			c-0.04-0.062-0.1-0.109-0.156-0.161C23.627,5.706,23.6,5.664,23.56,5.64c-0.101-0.072-0.22-0.125-0.345-0.154l-0.427-0.086
			L21.813,5.19l0,0l-0.86-0.185l-0.335-0.07l-0.553-0.12l-0.034-0.007l0.086-0.09l0.374-0.371l0.399-0.402
			c0.033,0.275,0.048,0.493,0.048,0.498l0.13,0.028l1.207,0.258l0.247-0.249l3.737-3.753l-0.084-0.21l0.03-0.024
			c-0.541-0.164-1.179-0.256-1.984-0.256h-0.263c0,0-0.26,0-0.263,0c-0.564,0-1.135,0.038-1.692,0.162
			c-0.956,0.214-1.549,1.152-2.205,1.798c-0.676,0.665-1.331,1.356-1.989,2.04c-0.146,0.153-0.29,0.31-0.441,0.461
			c-0.253,0.254-0.345,0.625-0.244,0.972c0.098,0.343,0.382,0.603,0.733,0.682l1.295,0.277l0.548,0.115l3.106,0.662
			c0.07,0.012,0.139,0.023,0.206,0.023c0.453,0,0.857-0.315,0.956-0.774c0.037-0.181,0.009-0.352-0.045-0.514l-0.061-0.125
			C23.844,5.981,23.83,5.942,23.815,5.896z M22.444,8.288L22.35,8.112l0.047-0.197l0.01-0.038l-0.15-0.032l-0.549,0.63h0.832
			L22.444,8.288z"/>
	</g>
	<path id="displaced" display="none" fill="#FFFFFF" d="M25.07-5.508c0.134,0.845-0.435,1.639-1.273,1.776
		c-0.842,0.14-1.644-0.431-1.779-1.271c-0.139-0.843,0.431-1.641,1.275-1.778C24.131-6.92,24.927-6.349,25.07-5.508z M24.585,0.623
		l1.369,2.185c0.194,0.308,0.595,0.407,0.906,0.225c0.316-0.188,0.423-0.586,0.252-0.906L26.763,1.5
		c-0.305-0.536-0.6-1.078-0.898-1.616l-0.606-1.104c-0.069-0.132-0.14-0.275-0.21-0.426c-0.375-0.788-0.961-2.005-2.248-1.896
		c-1.1,0.097-2.217,0.619-3.315,1.552c-1.301,1.026-2.209,2.517-2.243,2.581c-0.045,0.064-0.085,0.133-0.116,0.195
		c-0.004,0.001-0.004,0.003-0.005,0.006l0,0c-0.124,0.229-0.185,0.44-0.032,0.708c0.12,0.211,0.343,0.34,0.583,0.34
		c0.295,0,0.442-0.141,0.589-0.345l0,0c0.002,0,0.002-0.005,0.002-0.005c0.04-0.06,0.079-0.126,0.126-0.194
		c0.007-0.013,0.771-1.238,1.949-2.244c0.363-0.287,0.711-0.481,1.035-0.59l-0.264,3.182c-0.025,0.314-0.125,0.859-0.209,1.161
		l-0.594,2.076c-0.078,0.26-0.297,0.696-0.473,0.908l-1.6,1.981c-0.201,0.252-0.43,0.537-0.242,0.932
		c0.112,0.234,0.347,0.384,0.605,0.384c0.311,0,0.478-0.177,0.687-0.404l1.617-1.747c0.288-0.312,0.667-0.852,0.853-1.234
		l0.803-1.633l2.97,4.989c0.145,0.245,0.33,0.555,0.73,0.555l0,0c0.232,0,0.442-0.12,0.564-0.31c0.216-0.331,0.072-0.63-0.05-0.901
		l-2.401-5.215c-0.092-0.207-0.146-0.622-0.106-0.846L24.585,0.623z M27.101,6.051h3.599V7.12l3.576-2.064l-3.576-2.065V4.06h-3.599
		V6.051z"/>
	<path id="epidemie" display="none" fill="#FFFFFF" d="M31.201,1.966c0-3.876-3.038-7.031-6.862-7.226
		c1.689,0.161,3.006,1.387,3.006,2.879c0,0.512-0.17,0.984-0.444,1.403c-0.755-0.752-1.793-1.215-2.94-1.215
		c-1.146,0-2.183,0.463-2.935,1.213c-0.271-0.419-0.439-0.892-0.439-1.406c0-1.489,1.313-2.717,2.999-2.878
		c-3.82,0.197-6.86,3.353-6.86,7.229c0,1.168,0.285,2.27,0.774,3.25c-0.669-1.53-0.261-3.251,1.014-3.988
		c0.445-0.256,0.941-0.348,1.437-0.32c-0.094,0.342-0.155,0.697-0.155,1.069c0,1.924,1.316,3.531,3.092,4.01
		c-0.024,0.042-0.054,0.081-0.079,0.121c0,0.005,0,0.005,0,0.01c-0.059,0.133-0.134,0.239-0.222,0.331
		c-0.189,0.25-0.41,0.472-0.693,0.635c-1.283,0.738-2.989,0.226-3.975-1.138c1.296,1.966,3.519,3.268,6.046,3.268
		c2.504,0,4.709-1.274,6.011-3.209c-0.989,1.321-2.664,1.807-3.926,1.083c-0.449-0.262-0.775-0.651-0.998-1.103
		c1.775-0.479,3.082-2.088,3.082-4.008c0-0.372-0.061-0.727-0.155-1.068c0.502-0.032,0.999,0.06,1.446,0.318
		c1.239,0.715,1.659,2.357,1.067,3.855C30.944,4.134,31.201,3.082,31.201,1.966z M24.733,4.752
		c-0.031-0.603,0.097-1.234,0.398-1.833l-0.482-0.278c-0.172,0.179-0.414,0.288-0.686,0.288c-0.265,0-0.511-0.109-0.685-0.288
		l-0.473,0.271c0.303,0.602,0.43,1.24,0.396,1.841c-1.225-0.335-2.133-1.45-2.133-2.778c0-0.256,0.04-0.496,0.103-0.729
		c0.535,0.27,1.021,0.692,1.393,1.249l0.483-0.282c-0.021-0.083-0.052-0.161-0.052-0.25c0-0.448,0.31-0.81,0.726-0.918V0.495
		c-0.672-0.044-1.28-0.252-1.786-0.582c0.522-0.516,1.237-0.833,2.025-0.833c0.791,0,1.506,0.319,2.029,0.835
		c-0.504,0.331-1.115,0.536-1.785,0.579v0.552c0.414,0.108,0.722,0.47,0.722,0.918c0,0.09-0.025,0.167-0.047,0.25l0.49,0.287
		c0.37-0.558,0.855-0.977,1.386-1.248c0.06,0.229,0.101,0.47,0.101,0.72C26.857,3.302,25.955,4.413,24.733,4.752z"/>
	<path id="enlevement" fill="#FFFFFF" d="M24.866,4.603c-0.534,0-0.971,0.437-0.971,0.974v3.962c0.235,0.053,0.459,0.15,0.64,0.327
		c0.513,0.506,0.525,1.336,0.024,1.854l-1.843,1.896l-0.258-0.248l1.853-1.89c0.371-0.383,0.36-0.991-0.02-1.366
		c-0.119-0.113-0.257-0.19-0.405-0.231c-0.167-0.045-0.327-0.047-0.486-0.015c-0.18,0.047-0.339,0.136-0.464,0.271
		c-1.095,1.122-2.194,2.244-3.288,3.369c-0.275,0.281-0.775,0.925-0.76,1.567c0.01,0.604-0.009,1.224,0.002,1.83
		c-0.143-0.116-0.318-0.201-0.511-0.237c-0.567-0.091-1.075,0.245-1.27,0.747h-0.286c0-0.137,0-0.276,0.004-0.413
		c0.013-0.632-0.012-1.29,0.005-1.926c0.014-0.643-0.488-1.288-0.763-1.57c-1.094-1.123-2.188-2.246-3.286-3.37
		c-0.125-0.132-0.283-0.224-0.464-0.269c-0.159-0.032-0.325-0.03-0.485,0.015c-0.149,0.043-0.291,0.121-0.408,0.232
		c-0.376,0.375-0.384,0.982-0.016,1.368l1.848,1.887l-0.257,0.248l-1.842-1.897c-0.505-0.518-0.493-1.347,0.022-1.849
		c0.183-0.174,0.406-0.275,0.641-0.328V5.579c0-0.536-0.435-0.973-0.971-0.973c-0.539,0-0.973,0.437-0.973,0.973v6.86
		c0,0.224,0.092,0.429,0.224,0.596l3.313,4.376h-0.294c-0.642,0-1.17,0.525-1.17,1.173c0,0.429,0.243,0.789,0.586,0.993
		c-0.343,0.205-0.586,0.565-0.586,0.991c0,0.649,0.525,1.175,1.17,1.175h0.358v0.652h3.253c0.172,0.168,0.369,0.291,0.608,0.332
		c0.067,0.014,0.127,0.018,0.193,0.018c0.573,0,1.06-0.408,1.153-0.973l0.007-0.029h0.207c0.003,0.215,0,0.428,0.026,0.652h3.307
		v-0.652h0.362c0.642,0,1.17-0.521,1.17-1.175c0-0.425-0.242-0.786-0.589-0.991c0.347-0.202,0.589-0.563,0.589-0.995
		c0-0.646-0.526-1.171-1.17-1.171h-0.293l3.311-4.379c0.138-0.168,0.223-0.371,0.223-0.596V5.579
		C25.838,5.042,25.404,4.603,24.866,4.603z M12.538,18.582c0-0.323,0.264-0.585,0.584-0.585h3.84l-0.202,1.172h-3.638
		C12.802,19.167,12.538,18.907,12.538,18.582z M12.538,20.567c0-0.319,0.264-0.587,0.584-0.587h3.497l-0.204,1.174h-3.293
		C12.802,21.154,12.538,20.896,12.538,20.567z M18.111,21.67c-0.051,0.322-0.384,0.531-0.674,0.482
		c-0.155-0.029-0.288-0.113-0.378-0.238c-0.096-0.129-0.128-0.285-0.102-0.436l0.647-3.754c0.05-0.284,0.297-0.486,0.588-0.486
		c0.027,0,0.061,0,0.093,0.008c0.317,0.054,0.53,0.356,0.477,0.677L18.111,21.67z M23.181,20.567c0,0.325-0.265,0.587-0.584,0.587
		h-3.804l0.203-1.174h3.599C22.916,19.983,23.181,20.248,23.181,20.567z M23.181,18.582c0,0.322-0.265,0.583-0.584,0.583h-3.456
		l0.197-1.146c0.003-0.008,0-0.017,0-0.025h3.257C22.916,17.999,23.181,18.262,23.181,18.582z"/>
	<path id="eruption" display="none" fill="#FFFFFF" d="M25.427-1.898c0.979,0.335,2.282,0.73,2.558-0.852
		c0.222-1.231,1.865-0.774,2.563-0.853c1.273-0.146,0.312-2.528-1.28-2.563c-1.61-0.035-2.345,0.671-2.986,2.134
		c-0.31,0.704-0.566,1.234-1.706,0.856c-1.14-0.381-1.974,0.555-1.282,1.707c0.613,1.02-0.009,2.133-0.009,2.133h1.719
		c0,0-0.015-0.632-0.428-1.281C24.091-1.372,24.422-2.244,25.427-1.898z M16.328,8.721c4.418-3.217,5.521-7.669,5.521-7.669h4.54
		c0,0,1.104,4.45,5.518,7.669H16.328z"/>
	<path id="returned" display="none" fill="#FFFFFF" d="M23.661-4.759c0.111,0.696-0.361,1.352-1.052,1.467
		c-0.696,0.114-1.353-0.358-1.467-1.053c-0.114-0.697,0.355-1.352,1.053-1.466C22.887-5.926,23.55-5.456,23.661-4.759z
		 M23.262,0.302l1.13,1.806c0.156,0.252,0.492,0.335,0.752,0.184c0.255-0.153,0.345-0.484,0.201-0.747l-0.286-0.519
		c-0.248-0.442-0.49-0.889-0.739-1.333l-0.505-0.913c-0.057-0.103-0.113-0.223-0.174-0.348c-0.311-0.651-0.796-1.657-1.854-1.563
		c-0.908,0.075-1.828,0.507-2.734,1.277c-1.072,0.846-1.823,2.078-1.858,2.128c-0.034,0.054-0.064,0.109-0.093,0.164
		c-0.002,0.002-0.005,0.002-0.005,0.005l0,0c-0.1,0.19-0.149,0.363-0.023,0.583c0.098,0.175,0.281,0.282,0.484,0.282
		c0.241,0,0.363-0.114,0.483-0.287l0,0c0.002-0.002,0.002-0.002,0.002-0.002c0.032-0.051,0.066-0.107,0.103-0.166
		c0.006-0.009,0.637-1.019,1.61-1.851c0.301-0.234,0.585-0.397,0.855-0.488l-0.217,2.629c-0.024,0.263-0.104,0.708-0.177,0.96
		l-0.486,1.713c-0.065,0.216-0.248,0.576-0.392,0.75l-1.32,1.635c-0.167,0.21-0.355,0.443-0.199,0.771
		c0.092,0.19,0.286,0.313,0.499,0.313c0.256,0,0.394-0.146,0.568-0.335l1.337-1.441c0.239-0.257,0.548-0.702,0.7-1.019l0.661-1.348
		l2.454,4.12c0.12,0.204,0.274,0.455,0.605,0.455l0,0c0.19,0,0.364-0.095,0.467-0.258c0.176-0.271,0.059-0.516-0.041-0.74
		l-1.983-4.307c-0.079-0.167-0.121-0.511-0.09-0.697L23.262,0.302z M31.519,1.221c0-1.8-1.465-3.26-3.259-3.26h-1.386v1.645h1.384
		c0.888,0,1.61,0.722,1.61,1.614c0,0.889-0.723,1.613-1.61,1.613h-0.287V1.951l-2.953,1.705l2.953,1.706V4.476h0.322V4.474
		C30.073,4.456,31.519,3.006,31.519,1.221z"/>
	<path id="Attack" display="none" fill="#FFFFFF" d="M27.918,2.395l4.851-3.105l-4.688-0.498l1.272-5.446L26.03-3.218l-0.927-3.883
		l-1.394,3.624L19.91-8.371l1.194,6.131L17.73-2.989c0,0,1.026,1.964,1.6,3.146l-5.419-0.38l4.903,2.867l-1.408,1.448l2.281-0.416
		L18.07,9.39l4.802-4.016l1.244,3.103l1.28-2.482l4.14,4.274l-2.069-5.723l4.539,0.459L27.918,2.395z"/>
</g>
</svg>
