<?xml version="1.0" encoding="utf-8"?>
<!-- Generator: Adobe Illustrator 16.0.0, SVG Export Plug-In . SVG Version: 6.00 Build 0)  -->
<!DOCTYPE svg PUBLIC "-//W3C//DTD SVG 1.1//EN" "http://www.w3.org/Graphics/SVG/1.1/DTD/svg11.dtd">
<svg version="1.1" id="Groupe" xmlns="http://www.w3.org/2000/svg" xmlns:xlink="http://www.w3.org/1999/xlink" x="0px" y="0px"
	 width="15.871px" height="15.65px" viewBox="0 0 15.871 15.65" enable-background="new 0 0 15.871 15.65" xml:space="preserve">
<g id="PinColor_1_">
	<path id="vert" display="none" fill="#2ABF00" stroke="#1D7500" stroke-width="0.2" stroke-miterlimit="10" d="M15.472,7.619
		c0,3.444-2.464,6.334-5.791,7.1c-0.559,0.123-2.973,0.123-3.55-0.023c-3.291-0.777-5.733-3.65-5.733-7.079
		c0-4.021,3.377-7.29,7.537-7.29C12.093,0.327,15.472,3.597,15.472,7.619z"/>
	<path id="orange" fill="#FF8500" stroke="#7F4500" stroke-width="0.2" stroke-miterlimit="10" d="M15.472,7.619
		c0,3.444-2.464,6.334-5.791,7.1c-0.559,0.123-2.973,0.123-3.55-0.023c-3.291-0.777-5.733-3.65-5.733-7.079
		c0-4.021,3.377-7.29,7.537-7.29C12.093,0.327,15.472,3.597,15.472,7.619z"/>
	<path id="gris" display="none" fill="#A5A5A5" stroke="#595959" stroke-width="0.2" stroke-miterlimit="10" d="M15.472,7.619
		c0,3.444-2.464,6.334-5.791,7.1c-0.559,0.123-2.973,0.123-3.55-0.023c-3.291-0.777-5.733-3.65-5.733-7.079
		c0-4.021,3.377-7.29,7.537-7.29C12.093,0.327,15.472,3.597,15.472,7.619z"/>
	<path id="bleu" display="none" fill="#0092FF" stroke="#00477C" stroke-width="0.2" stroke-miterlimit="10" d="M15.472,7.619
		c0,3.444-2.464,6.334-5.791,7.1c-0.559,0.123-2.973,0.123-3.55-0.023c-3.291-0.777-5.733-3.65-5.733-7.079
		c0-4.021,3.377-7.29,7.537-7.29C12.093,0.327,15.472,3.597,15.472,7.619z"/>
</g>
<g id="IconsGroup">
	<g id="MinimalGroup" display="none">
		<path id="ElectionGroup" display="inline" fill="#565656" d="M13.329,4.257l-3.294-1.41C9.942,2.808,9.821,2.833,9.76,2.914
			L8.818,4.093C8.773,4.139,8.759,4.221,8.773,4.288C8.79,4.36,8.833,4.409,8.896,4.437L5.945,5.551
			C5.696,5.636,5.481,5.809,5.346,6.042L4.369,7.667c-0.207,0.346-0.225,0.769-0.041,1.13l0.07,0.136H3.368
			c-0.132,0-0.233,0.106-0.233,0.236v4.46H2.428c-0.129,0-0.23,0.105-0.23,0.233c0,0.127,0.105,0.235,0.23,0.235h7.983
			c0.127,0,0.23-0.108,0.23-0.235c0-0.128-0.104-0.233-0.23-0.233H9.706v-2.395c0-0.078-0.041-0.16-0.102-0.199
			c-0.067-0.045-0.157-0.052-0.23-0.013c-0.257,0.119-0.45,0.182-0.539,0.212c-0.017,0-0.037,0.009-0.053,0.02l-1.531,0.914
			c-0.245,0.145-0.521,0.227-0.801,0.227c-0.528,0-1.002-0.259-1.3-0.7c-0.242-0.352-0.325-0.775-0.232-1.192
			c0.087-0.413,0.334-0.768,0.685-0.995l0.224-0.144C5.992,9.271,6.137,9.18,6.263,9.098c0.092-0.054,0.13-0.167,0.101-0.271
			c-0.056-0.188-0.15-0.355-0.245-0.483C6.476,8.19,6.96,7.909,7.208,7.626l0,0c0.051,0.032,0.113,0.067,0.179,0.099
			c0.008,0,0.008,0,0.014,0.005l0,0C7.574,7.814,7.79,7.899,8.05,7.95C7.776,8.292,7.5,8.712,7.394,8.988
			C7.212,9.076,6.802,9.297,5.86,9.902c-0.252,0.155-0.424,0.408-0.48,0.7c-0.063,0.287-0.006,0.583,0.16,0.832
			c0.214,0.317,0.553,0.49,0.909,0.49c0.193,0,0.381-0.057,0.561-0.155l1.615-0.971c0.248-0.063,1.502-0.438,2.456-1.975
			c0.746-1.208,1.166-2.173,1.336-2.614l0.028,0.015c0.102,0.042,0.213,0.079,0.314,0.079c0.188,0,0.371-0.08,0.499-0.203
			c0.135-0.132,0.213-0.313,0.213-0.506V4.473C13.463,4.377,13.414,4.288,13.329,4.257z"/>
	</g>
	<g id="FaibleGroup" display="none">
		<path id="FamineGroup" display="inline" fill="#F9F9F9" d="M10.887,12.527l-1.784,0.34l-2.912-1.591l1.06-1.313l2.377,0.79
			L10.887,12.527z M13.628,9.428v0.203l-1.879,0.59l-1.854,0.264L7.513,9.697L6.952,9.428h0.322
			c-0.076-0.704-0.18-1.246-0.229-1.949l0,0C7.041,7.461,7.014,6.993,7.01,6.793c-0.034-0.218-0.138-0.3-0.469-0.53
			c-0.186-0.11-0.32-0.152-0.389-0.152c-0.121,0-0.23,0.131-0.256,0.533C6.427,6.732,6.461,7.32,6.461,7.32
			c0.048,0.416-0.16,1.024-0.63,1.185C4.964,8.792,5.047,7.116,5.541,6.71C5.554,6.226,5.69,5.782,6.152,5.764
			c0.185,0,0.372,0.08,0.583,0.214C6.831,6.042,6.919,6.1,6.988,6.171C6.982,6.007,6.976,5.843,6.976,5.673
			c0-0.357,0.053-0.733,0.367-1.007c0.16-0.15,0.339-0.232,0.524-0.228c0.465,0.029,0.746,0.426,0.921,0.836
			C8.977,5.188,9.226,5.149,9.5,5.249c0.719,0.242,1.111,1.498,0.813,1.928C9.6,8.195,7.823,6.309,8.291,5.643
			c0,0,0.073-0.085,0.194-0.187C8.341,5.093,8.067,4.772,7.862,4.79c-0.08,0-0.178,0.027-0.291,0.131
			C7.375,5.1,7.321,5.344,7.321,5.673c0,0.23,0.03,0.486,0.03,0.739c0,0.133,0.007,0.251,0.011,0.38
			C7.396,7.02,7.396,7.189,7.396,7.432c0.052,0.701,0.33,1.276,0.41,1.996H13.628z M8.61,5.597l1.354,1.47
			C9.721,6.024,8.87,5.445,8.87,5.445L8.61,5.597z M5.818,6.857l-0.24,0.1c0,0-0.118,0.821,0,1.25L5.818,6.857z M4.616,11.81
			l1.07-0.646l1.112-1.379L6.455,9.428H3.988l-0.491,0.985L4.616,11.81z M5.86,11.583L3.966,12.88l0.247,0.313h4.367l-0.01-0.061
			L5.86,11.583z M1.958,9.428v1.491l1.21-0.652l0.374-0.839H1.958z M10.248,10.801l1.177,1.716l2.204,0.519v-1.96l-1.588-0.508
			L10.248,10.801z M13.628,10.649V9.964l-1.236,0.329L13.628,10.649z M3.204,10.749l-1.244,0.592v1.853h0.911l1.36-1.11
			L3.204,10.749z M9.728,13.193h2.854l-1.356-0.326L9.728,13.193z"/>
		<path id="CycloneGroup" display="inline" fill="#FFFFFF" d="M7.834,5.42c-0.063,0-0.121-0.006-0.181-0.006
			c-0.536,0-1.037,0.137-1.47,0.376C6.96,3.137,8.908,2.898,8.908,2.898s-4.305,0.366-4.305,5.39c0.002,0,0.002,0,0.009,0
			c0,0.056-0.007,0.113-0.007,0.177c0,0.529,0.14,1.037,0.38,1.477c-2.66-0.786-2.89-2.732-2.89-2.732s0.362,4.307,5.388,4.307
			c0-0.002,0-0.002,0-0.009c0.059,0.002,0.114,0.009,0.178,0.009c0.535,0,1.037-0.137,1.475-0.379
			c-0.788,2.66-2.737,2.892-2.737,2.892s4.313-0.365,4.313-5.391c-0.008,0-0.008,0-0.008,0c0-0.062,0.008-0.122,0.008-0.18
			c0-0.536-0.135-1.038-0.381-1.476c2.655,0.779,2.895,2.732,2.895,2.732s-0.361-4.304-5.391-4.304
			C7.834,5.416,7.834,5.42,7.834,5.42z"/>
		<path id="tsunamiGroup" display="inline" fill="#FFFFFF" d="M13.073,12.007c-8.875,0.506-6.388-6.274-4.096-5.69
			C8.742,6.461,8.591,6.959,8.735,7.291c0.161,0.366,0.684,0.564,0.983,0.491c0.707-0.183,0.739-1.178,0.486-1.712
			C9.935,5.53,9.23,4.85,7.999,4.85c-2.962,0-4.995,1.516-5.757,4.119v3.835h10.831V12.007z"/>
		<path id="earthquakeGroup" display="inline" fill="#FFFFFF" d="M10.811,8.8c-0.151,0-0.293,0.085-0.364,0.225l-0.59,1.104
			L9.13,7.996C9.072,7.835,8.923,7.725,8.752,7.717C8.575,7.713,8.426,7.814,8.364,7.974L7.862,9.155l-0.79-4.728
			C7.038,4.23,6.848,4.082,6.661,4.093C6.455,4.1,6.288,4.23,6.261,4.43L5.566,9.908L4.998,6.97
			c-0.03-0.171-0.172-0.306-0.351-0.327C4.476,6.622,4.305,6.71,4.22,6.867L3.296,8.8h-1.43v0.821h1.694
			c0.158,0,0.303-0.084,0.372-0.231l0.499-1.035l0.803,4.176c0.039,0.188,0.212,0.33,0.4,0.33c0.006,0,0.011,0,0.015,0
			c0.204-0.004,0.37-0.155,0.397-0.358L6.73,7.113l0.575,3.543c0.034,0.184,0.176,0.32,0.358,0.346
			c0.185,0.016,0.354-0.082,0.426-0.248l0.613-1.468l0.688,2.019c0.056,0.151,0.193,0.255,0.356,0.271
			c0.167,0.008,0.32-0.069,0.395-0.217l0.922-1.741h1.758V8.8H10.811z"/>
	</g>
	<g id="EleveGroup" display="none">
		<path id="attackGroup" display="inline" fill="#FFFFFF" d="M10.577,9.326l2.887-1.857l-2.796-0.295l0.763-3.24L9.452,5.981
			L8.896,3.662l-0.828,2.16L5.801,2.904l0.711,3.658L4.498,6.113c0,0,0.611,1.171,0.955,1.878L2.22,7.765l2.926,1.711l-0.837,0.855
			l1.356-0.239l-0.959,3.398l2.857-2.396l0.749,1.856l0.76-1.476l2.465,2.541l-1.239-3.408l2.71,0.277L10.577,9.326z"/>
	</g>
	<g id="ExtremeGroup" display="none">
		<path id="rebelionGroup" display="inline" fill="#FFFFFF" d="M9.849,5.011c0,1.177-0.958,2.13-2.126,2.13
			c-1.181,0-2.137-0.953-2.137-2.13c0-1.182,0.955-2.132,2.137-2.132C8.896,2.879,9.849,3.829,9.849,5.011z M4.163,14.047H5.46
			h0.071l0.051-0.1l0.471-0.465l-0.444-0.093l-0.685-0.146L4.163,14.047z M13.078,5.405l-0.456,0.459l0.027,0.033l-0.372,0.366
			c0.052,0.05,0.099,0.097,0.141,0.15l0.374-0.374l0.075,0.067l0.449-0.458L13.078,5.405z M10.134,7.767L9.935,7.966L9.957,8.02
			l0.052,0.106l-3.11,3.113l0.332,0.08c0.309,0.063,0.572,0.24,0.747,0.511c0.026,0.036,0.031,0.082,0.048,0.121l0.005-0.012
			l0.23,0.149l0.08-0.018l0.904,0.659l0.609-0.832L8.506,10.84l0.032-0.086H8.77l1.321-1.557l0.15-1.389L10.134,7.767z M11.58,6.391
			c-0.404-0.042-0.799,0.26-0.841,0.676l-0.056,0.456l0,0l-0.031,0.326l-0.147,1.392l-0.014,0.132l-0.078,0.095l-1.187,1.398
			l0.889,0.693l0.324,0.255l-0.191,0.255l0.05,0.089c0.12,0.266,0.392,0.428,0.683,0.428c0.042,0,0.086,0,0.129-0.009
			c0.336-0.054,0.591-0.326,0.627-0.665l0.512-4.689C12.296,6.809,11.991,6.436,11.58,6.391z M10.028,12.381l-0.434,0.601
			l-0.249,0.337l-0.347-0.25L8.25,12.527l-0.064,0.014l-0.029-0.014c0,0.065,0,0.126-0.018,0.188
			c-0.014,0.063-0.033,0.121-0.06,0.18c-0.043,0.109-0.109,0.198-0.177,0.293l0.055,0.121c0.049,0.121,0.122,0.274,0.207,0.411
			l0.214,0.326h1.599L10.028,12.381z M6.982,13.651c-0.014,0-0.038-0.002-0.059-0.002c0,0.028-0.007,0.047-0.007,0.047l0.181,0.351
			h0.43l0.282-0.102c-0.096-0.147-0.173-0.305-0.247-0.469C7.385,13.58,7.198,13.651,6.982,13.651z M7.609,12.039
			c-0.027-0.045-0.08-0.086-0.122-0.118c-0.025-0.03-0.042-0.063-0.08-0.08c-0.073-0.055-0.169-0.098-0.269-0.121l-0.327-0.067
			l-0.761-0.16l0,0l-0.675-0.146l-0.259-0.05l-0.424-0.098L4.66,11.196l0.074-0.073l0.291-0.29l0.31-0.309
			c0.025,0.216,0.038,0.381,0.038,0.385l0.102,0.021l0.94,0.203l0.194-0.194l2.907-2.918L9.443,7.855l0.022-0.017
			C9.048,7.713,8.551,7.633,7.925,7.633H7.722H7.517c-0.439,0-0.881,0.034-1.314,0.127c-0.75,0.17-1.213,0.903-1.716,1.402
			c-0.528,0.519-1.038,1.057-1.548,1.591c-0.112,0.118-0.225,0.239-0.346,0.352c-0.194,0.203-0.268,0.493-0.194,0.761
			c0.08,0.269,0.299,0.465,0.575,0.529l1.004,0.217l0.43,0.088l2.418,0.519c0.053,0.005,0.105,0.016,0.157,0.016
			c0.352,0,0.671-0.242,0.746-0.607c0.028-0.143,0.007-0.268-0.038-0.391l-0.042-0.102C7.634,12.106,7.619,12.078,7.609,12.039z
			 M6.541,13.904l-0.072-0.139l0.04-0.153l0.004-0.028l-0.12-0.036l-0.425,0.499h0.649L6.541,13.904z"/>
	</g>
	<path id="displacedGroup" display="none" fill="#FFFFFF" d="M7.782,4.288c0.09,0.552-0.282,1.067-0.83,1.16
		C6.403,5.543,5.877,5.167,5.79,4.623C5.703,4.067,6.072,3.544,6.624,3.46C7.173,3.364,7.691,3.74,7.782,4.288z M7.47,8.293
		L8.364,9.72C8.49,9.924,8.752,9.988,8.96,9.867C9.166,9.745,9.23,9.49,9.117,9.275L8.896,8.871c-0.2-0.356-0.39-0.708-0.592-1.057
		L7.908,7.088C7.862,7.002,7.821,6.913,7.771,6.809C7.529,6.298,7.146,5.501,6.305,5.573C5.586,5.636,4.854,5.981,4.14,6.59
		C3.292,7.259,2.693,8.226,2.675,8.277c-0.027,0.039-0.057,0.08-0.076,0.121c0,0,0,0-0.006,0.003l0,0
		C2.515,8.553,2.475,8.689,2.571,8.867c0.08,0.132,0.229,0.221,0.386,0.221c0.192,0,0.288-0.094,0.381-0.229l0,0l0,0
		c0.029-0.04,0.056-0.083,0.08-0.124C3.422,8.726,3.92,7.92,4.697,7.269C4.93,7.083,5.16,6.955,5.371,6.888L5.201,8.96
		c-0.02,0.203-0.085,0.56-0.14,0.761l-0.384,1.354c-0.047,0.169-0.198,0.456-0.307,0.59l-1.044,1.29
		C3.19,13.131,3.04,13.314,3.16,13.573c0.077,0.153,0.23,0.244,0.402,0.244c0.199,0,0.31-0.116,0.449-0.264l1.056-1.141
		c0.188-0.201,0.431-0.558,0.557-0.802l0.525-1.069l1.941,3.256c0.096,0.162,0.217,0.365,0.481,0.365l0,0
		c0.149,0,0.289-0.077,0.372-0.203c0.141-0.216,0.042-0.412-0.038-0.59L7.328,9.964c-0.06-0.131-0.09-0.406-0.069-0.554L7.47,8.293z
		 M9.111,11.841h2.348v0.7l2.341-1.351L11.458,9.84v0.702H9.111V11.841z"/>
	<path id="enlevementGroup" fill="#FFFFFF" d="M12.605,2.537c-0.349,0-0.627,0.283-0.627,0.626v2.547
		c0.155,0.032,0.299,0.093,0.418,0.211c0.327,0.323,0.335,0.86,0.015,1.189l-1.186,1.22l-0.166-0.162l1.188-1.213
		c0.231-0.249,0.229-0.636-0.013-0.875C12.16,6.007,12.07,5.953,11.97,5.927C11.867,5.9,11.765,5.9,11.664,5.922
		c-0.12,0.024-0.219,0.085-0.3,0.17C10.66,6.814,9.957,7.536,9.251,8.261c-0.18,0.178-0.499,0.584-0.492,1.004
		c0.008,0.388,0,0.785,0,1.179c-0.091-0.08-0.199-0.13-0.327-0.153c-0.364-0.064-0.688,0.155-0.813,0.478H7.438
		c0-0.084,0-0.175,0-0.266c0.008-0.399-0.007-0.83,0-1.237c0.015-0.413-0.313-0.826-0.485-0.999C6.247,7.536,5.548,6.814,4.84,6.087
		C4.76,6.007,4.654,5.946,4.542,5.922C4.438,5.897,4.334,5.9,4.229,5.927C4.134,5.953,4.04,6.007,3.969,6.081
		C3.725,6.32,3.719,6.707,3.952,6.956l1.188,1.214l-0.16,0.16l-1.185-1.22C3.474,6.782,3.483,6.244,3.808,5.922
		C3.93,5.807,4.07,5.746,4.22,5.711V3.164c0-0.344-0.284-0.626-0.627-0.626c-0.348,0-0.625,0.283-0.625,0.626v4.41
		c0,0.145,0.058,0.275,0.143,0.383l2.13,2.808H5.054c-0.414,0-0.75,0.337-0.75,0.754c0,0.281,0.154,0.508,0.379,0.64
		c-0.222,0.136-0.379,0.367-0.379,0.631c0,0.422,0.335,0.757,0.75,0.757h0.23v0.421h2.091c0.107,0.108,0.237,0.186,0.39,0.219
		c0.05,0.013,0.083,0.015,0.129,0.015c0.371,0,0.684-0.266,0.746-0.627v-0.025h0.133c0,0.138,0,0.278,0.017,0.421h2.121v-0.421
		h0.225c0.411,0,0.753-0.335,0.753-0.752c0-0.271-0.152-0.506-0.382-0.638c0.229-0.132,0.382-0.358,0.382-0.64
		c0-0.415-0.342-0.752-0.753-0.752h-0.179l2.129-2.807c0.088-0.11,0.143-0.238,0.143-0.382V3.171
		C13.228,2.82,12.948,2.537,12.605,2.537z M4.676,11.518c0-0.203,0.171-0.372,0.378-0.372h2.471l-0.132,0.755H5.054
		C4.848,11.892,4.676,11.728,4.676,11.518z M4.676,12.798c0-0.207,0.171-0.378,0.378-0.378h2.248l-0.128,0.754H5.054
		C4.848,13.174,4.676,13.008,4.676,12.798z M8.265,13.507c-0.033,0.205-0.252,0.337-0.434,0.309
		c-0.102-0.018-0.186-0.071-0.244-0.153C7.529,13.58,7.51,13.48,7.525,13.379l0.413-2.411c0.036-0.184,0.192-0.315,0.376-0.315
		c0.023,0,0.044,0,0.063,0.004c0.209,0.043,0.343,0.231,0.305,0.437L8.265,13.507z M11.522,12.798c0,0.21-0.163,0.378-0.378,0.378
		H8.7l0.13-0.756h2.314C11.351,12.422,11.522,12.593,11.522,12.798z M11.522,11.518c0,0.21-0.163,0.38-0.378,0.38H8.923l0.125-0.73
		c0-0.008,0-0.013,0-0.017h2.096C11.351,11.146,11.522,11.319,11.522,11.518z"/>
	<path id="eruptionGroup" display="none" fill="#FFFFFF" d="M8.506,6.387C9.15,6.608,10,6.864,10.184,5.833
		c0.141-0.813,1.209-0.513,1.664-0.56c0.834-0.101,0.207-1.654-0.832-1.676C9.963,3.574,9.489,4.04,9.059,4.993
		C8.866,5.45,8.696,5.796,7.949,5.551C7.206,5.303,6.654,5.914,7.109,6.667c0.398,0.67-0.008,1.396-0.008,1.396h1.125
		c0,0-0.006-0.406-0.278-0.833C7.629,6.729,7.848,6.163,8.506,6.387z M2.556,13.329c2.889-2.104,3.613-5.011,3.613-5.011h2.966
		c0,0,0.718,2.906,3.607,5.011H2.556z"/>
	<path id="returnedGroup" display="none" fill="#FFFFFF" d="M7.787,4.288c0.085,0.552-0.284,1.067-0.834,1.16
		C6.403,5.541,5.877,5.167,5.794,4.615c-0.09-0.552,0.278-1.071,0.831-1.159C7.173,3.364,7.691,3.736,7.787,4.288z M7.47,8.291
		l0.894,1.43C8.49,9.924,8.752,9.984,8.96,9.867C9.164,9.743,9.23,9.49,9.117,9.275L8.896,8.867c-0.2-0.353-0.39-0.705-0.584-1.057
		L7.908,7.088C7.862,7.002,7.823,6.913,7.771,6.809C7.529,6.298,7.146,5.498,6.305,5.573C5.589,5.633,4.859,5.974,4.14,6.584
		C3.288,7.259,2.689,8.226,2.673,8.272C2.647,8.316,2.618,8.354,2.599,8.398L2.593,8.401l0,0C2.515,8.553,2.475,8.689,2.571,8.867
		c0.08,0.132,0.229,0.225,0.386,0.225c0.192,0,0.288-0.093,0.378-0.227l0,0l0,0c0.025-0.044,0.054-0.087,0.08-0.128
		C3.422,8.728,3.92,7.925,4.69,7.27c0.24-0.188,0.47-0.315,0.683-0.386L5.201,8.96c-0.02,0.203-0.085,0.56-0.14,0.761l-0.384,1.354
		c-0.047,0.171-0.198,0.456-0.314,0.59l-1.038,1.29C3.19,13.131,3.04,13.314,3.16,13.573c0.077,0.153,0.23,0.244,0.402,0.244
		c0.199,0,0.31-0.116,0.449-0.264l1.056-1.141c0.188-0.201,0.431-0.558,0.551-0.802l0.529-1.069l1.94,3.256
		c0.092,0.162,0.221,0.365,0.481,0.365l0,0c0.149,0,0.287-0.077,0.375-0.207c0.133-0.212,0.039-0.41-0.038-0.583L7.331,9.964
		C7.274,9.83,7.24,9.557,7.258,9.409L7.47,8.291z M14.004,9.02c0-1.426-1.16-2.58-2.582-2.58h-1.098v1.299h1.1
		c0.701,0,1.278,0.572,1.278,1.281c0,0.698-0.567,1.275-1.278,1.275h-0.229V9.597l-2.336,1.346l2.336,1.354v-0.698h0.255l0,0
		C12.86,11.579,14.004,10.431,14.004,9.02z"/>
	<path id="epidemieGroup" display="none" fill="#FFFFFF" d="M12.283,8.915c0-2.538-1.984-4.597-4.483-4.725
		c1.106,0.099,1.966,0.906,1.966,1.881c0,0.335-0.114,0.644-0.292,0.919C8.975,6.497,8.297,6.194,7.542,6.194
		c-0.746,0-1.428,0.302-1.918,0.795C5.453,6.714,5.339,6.405,5.339,6.07c0-0.975,0.853-1.778,1.963-1.882
		C4.803,4.32,2.819,6.38,2.819,8.912c0,0.761,0.188,1.482,0.51,2.124C2.883,10.038,3.152,8.91,3.988,8.432
		c0.291-0.165,0.611-0.231,0.939-0.216C4.862,8.444,4.825,8.675,4.825,8.921c0,1.26,0.857,2.311,2.022,2.623
		c-0.022,0.022-0.046,0.048-0.058,0.08v0.005c-0.041,0.082-0.085,0.155-0.145,0.216c-0.124,0.162-0.267,0.31-0.454,0.413
		c-0.834,0.483-1.948,0.148-2.598-0.743c0.849,1.287,2.3,2.137,3.956,2.137c1.639,0,3.076-0.832,3.938-2.099
		c-0.662,0.867-1.752,1.185-2.58,0.707c-0.291-0.171-0.501-0.422-0.646-0.716c1.154-0.315,2.01-1.367,2.01-2.624
		c0-0.243-0.035-0.474-0.09-0.701c0.327-0.018,0.65,0.048,0.942,0.218c0.813,0.466,1.089,1.537,0.69,2.512
		C12.113,10.332,12.283,9.641,12.283,8.915z M8.05,10.734c-0.021-0.394,0.066-0.803,0.262-1.199L7.999,9.353
		C7.885,9.476,7.722,9.548,7.549,9.548c-0.178,0-0.337-0.071-0.456-0.19L6.79,9.532c0.2,0.392,0.28,0.809,0.257,1.204
		c-0.8-0.223-1.395-0.944-1.395-1.816c0-0.167,0.03-0.324,0.07-0.474c0.35,0.176,0.671,0.453,0.91,0.816l0.32-0.187
		C6.938,9.022,6.917,8.969,6.917,8.915c0-0.297,0.201-0.534,0.477-0.602V7.945c-0.441-0.032-0.836-0.163-1.166-0.38
		C6.563,7.23,7.032,7.024,7.542,7.024s0.987,0.213,1.328,0.55c-0.333,0.215-0.73,0.348-1.163,0.38v0.363
		c0.265,0.072,0.47,0.306,0.47,0.602c0,0.056-0.015,0.11-0.03,0.16l0.32,0.182c0.236-0.365,0.561-0.639,0.907-0.817
		c0.035,0.152,0.073,0.306,0.073,0.469C9.439,9.792,8.851,10.511,8.05,10.734z"/>
</g>
</svg>
