<?xml version="1.0" encoding="utf-8"?>
<!-- Generator: Adobe Illustrator 16.0.0, SVG Export Plug-In . SVG Version: 6.00 Build 0)  -->
<!DOCTYPE svg PUBLIC "-//W3C//DTD SVG 1.1//EN" "http://www.w3.org/Graphics/SVG/1.1/DTD/svg11.dtd">
<svg version="1.1" id="Groupe" xmlns="http://www.w3.org/2000/svg" xmlns:xlink="http://www.w3.org/1999/xlink" x="0px" y="0px"
	 width="15.871px" height="15.65px" viewBox="0 0 15.871 15.65" enable-background="new 0 0 15.871 15.65" xml:space="preserve">
<g id="PinColor_1_">
	<path id="vert" display="none" fill="#2ABF00" stroke="#1D7500" stroke-width="0.2" stroke-miterlimit="10" d="M15.472,7.876
		c0,3.444-2.464,6.334-5.791,7.101c-0.559,0.122-2.973,0.122-3.55-0.023c-3.291-0.778-5.733-3.651-5.733-7.079
		c0-4.021,3.377-7.29,7.537-7.29C12.093,0.584,15.472,3.853,15.472,7.876z"/>
	<path id="orange" display="none" fill="#FF8500" stroke="#7F4500" stroke-width="0.2" stroke-miterlimit="10" d="M15.472,7.876
		c0,3.444-2.464,6.334-5.791,7.101c-0.559,0.122-2.973,0.122-3.55-0.023c-3.291-0.778-5.733-3.651-5.733-7.079
		c0-4.021,3.377-7.29,7.537-7.29C12.093,0.584,15.472,3.853,15.472,7.876z"/>
	<path id="gris" fill="#A5A5A5" stroke="#595959" stroke-width="0.2" stroke-miterlimit="10" d="M15.472,7.876
		c0,3.444-2.464,6.334-5.791,7.101c-0.559,0.122-2.973,0.122-3.55-0.023c-3.291-0.778-5.733-3.651-5.733-7.079
		c0-4.021,3.377-7.29,7.537-7.29C12.093,0.584,15.472,3.853,15.472,7.876z"/>
	<path id="bleu" display="none" fill="#0092FF" stroke="#00477C" stroke-width="0.2" stroke-miterlimit="10" d="M15.472,7.876
		c0,3.444-2.464,6.334-5.791,7.101c-0.559,0.122-2.973,0.122-3.55-0.023c-3.291-0.778-5.733-3.651-5.733-7.079
		c0-4.021,3.377-7.29,7.537-7.29C12.093,0.584,15.472,3.853,15.472,7.876z"/>
</g>
<g id="IconsGroup">
	<g id="MinimalGroup" display="none">
		<path id="ElectionGroup" display="inline" fill="#565656" d="M13.1,4.475L9.817,3.07C9.724,3.031,9.604,3.056,9.542,3.136
			L8.603,4.312C8.559,4.358,8.545,4.439,8.559,4.506C8.575,4.577,8.618,4.627,8.68,4.655l-2.941,1.11
			C5.491,5.85,5.277,6.024,5.142,6.256l-0.974,1.62C3.962,8.22,3.944,8.642,4.127,9.003l0.071,0.135H3.169
			c-0.131,0-0.232,0.107-0.232,0.235v4.446H2.233c-0.128,0-0.229,0.107-0.229,0.234c0,0.126,0.105,0.232,0.229,0.232h7.958
			c0.127,0,0.23-0.106,0.23-0.232c0-0.127-0.104-0.234-0.23-0.234H9.488V11.43c0-0.077-0.04-0.157-0.101-0.197
			c-0.066-0.044-0.158-0.053-0.229-0.013c-0.258,0.12-0.449,0.182-0.537,0.21c-0.018,0-0.039,0.011-0.054,0.019l-1.526,0.913
			c-0.244,0.146-0.519,0.228-0.799,0.228c-0.526,0-0.999-0.259-1.296-0.7c-0.241-0.352-0.323-0.772-0.231-1.188
			c0.087-0.41,0.333-0.765,0.683-0.993l0.224-0.141c0.165-0.095,0.309-0.186,0.435-0.266c0.092-0.054,0.128-0.167,0.1-0.271
			C6.101,8.844,6.007,8.677,5.912,8.551c0.357-0.153,0.839-0.434,1.087-0.716l0,0c0.051,0.031,0.112,0.067,0.178,0.097
			c0.008,0,0.008,0,0.014,0.006l0,0c0.173,0.084,0.388,0.169,0.648,0.219C7.565,8.498,7.29,8.915,7.183,9.192
			c-0.18,0.088-0.589,0.307-1.528,0.912c-0.251,0.155-0.422,0.405-0.478,0.697c-0.063,0.287-0.006,0.581,0.16,0.831
			c0.214,0.316,0.551,0.486,0.906,0.486c0.192,0,0.38-0.055,0.559-0.154l1.61-0.969c0.248-0.061,1.498-0.436,2.448-1.968
			c0.744-1.204,1.163-2.166,1.332-2.606l0.029,0.015c0.102,0.042,0.212,0.078,0.314,0.078c0.187,0,0.369-0.079,0.497-0.203
			C13.166,6.18,13.244,6,13.244,5.808V4.691C13.236,4.595,13.186,4.506,13.1,4.475z"/>
	</g>
	<g id="FaibleGroup" display="none">
		<path id="FamineGroup" display="inline" fill="#F9F9F9" d="M10.667,12.719l-1.779,0.339l-2.903-1.585l1.057-1.31l2.372,0.787
			L10.667,12.719z M13.4,9.632v0.203l-1.874,0.587l-1.848,0.263L7.303,9.897l-0.56-0.266h0.321c-0.076-0.702-0.18-1.242-0.228-1.944
			l0,0C6.831,7.669,6.804,7.202,6.801,7.004C6.767,6.787,6.663,6.705,6.333,6.475c-0.185-0.11-0.319-0.152-0.388-0.152
			c-0.121,0-0.229,0.131-0.256,0.531c0.53,0.089,0.563,0.674,0.563,0.674c0.049,0.416-0.159,1.022-0.627,1.183
			c-0.864,0.285-0.782-1.385-0.29-1.79c0.013-0.483,0.148-0.925,0.609-0.943c0.185,0,0.37,0.081,0.582,0.214
			C6.623,6.256,6.71,6.312,6.78,6.383C6.773,6.22,6.767,6.056,6.767,5.886c0-0.356,0.053-0.731,0.366-1.004
			c0.159-0.149,0.338-0.231,0.522-0.228C8.118,4.683,8.4,5.08,8.573,5.489c0.19-0.085,0.437-0.124,0.71-0.025
			C10,5.705,10.392,6.957,10.093,7.386c-0.711,1.015-2.482-0.865-2.016-1.53c0,0,0.072-0.085,0.193-0.187
			C8.128,5.308,7.854,4.989,7.65,5.007c-0.08,0-0.178,0.027-0.289,0.131c-0.197,0.177-0.25,0.42-0.25,0.748
			c0,0.229,0.03,0.485,0.03,0.737c0,0.133,0.006,0.25,0.01,0.379C7.186,7.23,7.186,7.399,7.186,7.641
			c0.052,0.7,0.33,1.273,0.409,1.991H13.4z M8.396,5.811l1.35,1.465c-0.242-1.04-1.09-1.618-1.09-1.618L8.396,5.811z M5.612,7.067
			l-0.239,0.1c0,0-0.117,0.819,0,1.245L5.612,7.067z M4.415,12.006l1.066-0.642L6.59,9.986L6.248,9.632H3.789l-0.49,0.981
			L4.415,12.006z M5.654,11.78l-1.888,1.291l0.246,0.313h4.354l-0.009-0.063L5.654,11.78z M1.765,9.632v1.485l1.207-0.649
			l0.373-0.836H1.765z M10.03,11l1.173,1.71l2.197,0.517v-1.953l-1.584-0.507L10.03,11z M13.4,10.848v-0.685l-1.233,0.33
			L13.4,10.848z M3.006,10.947l-1.241,0.589v1.849h0.909l1.355-1.108L3.006,10.947z M9.511,13.385h2.845l-1.354-0.326L9.511,13.385z
			"/>
		<path id="CycloneGroup" display="inline" fill="#FFFFFF" d="M7.623,5.634c-0.063,0-0.121-0.006-0.181-0.006
			c-0.533,0-1.033,0.137-1.464,0.375c0.773-2.645,2.715-2.883,2.715-2.883S4.401,3.484,4.401,8.494c0.003,0,0.003,0,0.009,0
			c0,0.057-0.006,0.113-0.006,0.177c0,0.527,0.139,1.035,0.378,1.472C2.13,9.359,1.901,7.418,1.901,7.418s0.36,4.294,5.372,4.294
			c0-0.002,0-0.002,0-0.011c0.058,0.002,0.113,0.011,0.176,0.011c0.534,0,1.034-0.137,1.47-0.379
			c-0.784,2.652-2.728,2.884-2.728,2.884s4.3-0.362,4.3-5.374c-0.009,0-0.009,0-0.009,0c0-0.06,0.009-0.122,0.009-0.18
			c0-0.534-0.136-1.034-0.381-1.471c2.647,0.777,2.886,2.725,2.886,2.725s-0.36-4.291-5.374-4.291
			C7.623,5.631,7.623,5.634,7.623,5.634z"/>
		<path id="tsunamiGroup" display="inline" fill="#FFFFFF" d="M12.845,12.2c-8.848,0.506-6.369-6.253-4.082-5.671
			C8.528,6.673,8.377,7.169,8.521,7.5C8.68,7.865,9.203,8.063,9.5,7.989c0.705-0.182,0.737-1.174,0.485-1.707
			c-0.269-0.539-0.972-1.216-2.2-1.216c-2.953,0-4.979,1.511-5.739,4.106v3.824h10.798V12.2z"/>
		<path id="earthquakeGroup" display="inline" fill="#FFFFFF" d="M10.589,9.005c-0.149,0-0.291,0.084-0.362,0.223L9.64,10.332
			L8.915,8.203c-0.059-0.16-0.206-0.271-0.377-0.278C8.36,7.922,8.213,8.022,8.149,8.18L7.65,9.359L6.864,4.645
			C6.829,4.449,6.639,4.301,6.453,4.312C6.248,4.319,6.081,4.449,6.054,4.648l-0.693,5.463L4.794,7.18
			c-0.03-0.17-0.172-0.305-0.35-0.326c-0.17-0.021-0.34,0.067-0.425,0.224L3.098,9.005H1.673v0.817h1.689
			c0.158,0,0.302-0.083,0.371-0.229L4.23,8.56l0.8,4.164c0.039,0.188,0.21,0.325,0.399,0.325c0.006,0,0.011,0,0.014,0
			c0.203-0.002,0.37-0.153,0.396-0.354l0.683-5.373l0.573,3.534c0.033,0.184,0.175,0.318,0.357,0.342
			c0.184,0.015,0.354-0.081,0.425-0.247l0.61-1.461l0.687,2.01c0.055,0.151,0.193,0.255,0.356,0.27
			c0.166,0.011,0.318-0.069,0.393-0.215l0.919-1.735h1.753V9.005H10.589z"/>
	</g>
	<g id="EleveGroup" display="none">
		<path id="attackGroup" display="inline" fill="#FFFFFF" d="M10.356,9.529l2.88-1.851l-2.789-0.295l0.761-3.23L9.236,6.194
			L8.68,3.882L7.855,6.036l-2.259-2.91l0.709,3.646L4.296,6.326c0,0,0.61,1.166,0.952,1.873L2.025,7.972l2.917,1.707l-0.835,0.854
			l1.352-0.241l-0.956,3.39l2.85-2.387l0.745,1.848l0.758-1.472l2.457,2.534l-1.234-3.397l2.702,0.274L10.356,9.529z"/>
	</g>
	<g id="ExtremeGroup" display="none">
		<path id="rebelionGroup" display="inline" fill="#FFFFFF" d="M9.632,5.227c0,1.173-0.956,2.124-2.121,2.124
			c-1.177,0-2.13-0.949-2.13-2.124c0-1.178,0.952-2.125,2.13-2.125C8.68,3.102,9.632,4.049,9.632,5.227z M3.962,14.234h1.294h0.071
			l0.05-0.1l0.47-0.46L5.403,13.58l-0.683-0.146L3.962,14.234z M12.849,5.62l-0.454,0.458l0.027,0.032l-0.369,0.366
			c0.051,0.049,0.096,0.096,0.138,0.149l0.373-0.373l0.075,0.066l0.448-0.457L12.849,5.62z M9.917,7.974L9.717,8.174l0.021,0.053
			l0.052,0.106L6.69,11.435l0.33,0.08c0.309,0.063,0.571,0.239,0.745,0.509c0.025,0.038,0.031,0.082,0.048,0.121l0.006-0.01
			l0.229,0.149l0.08-0.019l0.901,0.655l0.607-0.829L8.292,11.04l0.033-0.086h0.229l1.318-1.555l0.149-1.384L9.917,7.974z
			 M11.356,6.603c-0.403-0.042-0.795,0.259-0.838,0.674l-0.056,0.455l0,0l-0.029,0.326l-0.148,1.387l-0.013,0.131L10.193,9.67
			l-1.184,1.394l0.887,0.691l0.324,0.255l-0.19,0.255l0.049,0.087c0.12,0.266,0.391,0.43,0.68,0.43c0.042,0,0.086,0,0.129-0.013
			c0.334-0.053,0.589-0.326,0.625-0.662l0.51-4.674C12.072,7.02,11.766,6.649,11.356,6.603z M9.81,12.575l-0.433,0.597l-0.25,0.337
			L8.784,13.26l-0.748-0.541l-0.064,0.013l-0.028-0.013c0,0.065,0,0.126-0.018,0.188c-0.013,0.063-0.034,0.121-0.06,0.178
			c-0.043,0.111-0.108,0.2-0.177,0.294l0.055,0.121c0.05,0.121,0.122,0.273,0.208,0.411l0.213,0.322h1.593L9.81,12.575z
			 M6.773,13.841c-0.013,0-0.037-0.002-0.058-0.002c0,0.027-0.007,0.049-0.007,0.049l0.181,0.347h0.428l0.281-0.102
			c-0.096-0.145-0.172-0.304-0.245-0.466C7.175,13.772,6.988,13.841,6.773,13.841z M7.398,12.234
			c-0.027-0.046-0.08-0.087-0.122-0.119c-0.025-0.028-0.041-0.062-0.079-0.079c-0.074-0.055-0.169-0.098-0.268-0.119l-0.326-0.069
			L5.844,11.69l0,0l-0.673-0.147l-0.259-0.049L4.49,11.398l-0.032-0.006l0.074-0.073l0.291-0.287l0.308-0.31
			c0.025,0.219,0.039,0.381,0.039,0.385l0.101,0.021l0.937,0.201L6.4,11.136l2.898-2.909L9.226,8.063L9.25,8.046
			C8.833,7.922,8.338,7.841,7.713,7.841H7.511H7.307c-0.438,0-0.879,0.034-1.311,0.127c-0.748,0.17-1.208,0.9-1.71,1.398
			C3.759,9.883,3.25,10.42,2.742,10.951c-0.113,0.12-0.225,0.24-0.345,0.352c-0.193,0.205-0.267,0.492-0.193,0.76
			c0.08,0.265,0.298,0.464,0.573,0.527l1.001,0.215l0.428,0.09l2.411,0.516c0.053,0.006,0.104,0.015,0.157,0.015
			c0.351,0,0.669-0.239,0.744-0.605c0.027-0.142,0.008-0.266-0.038-0.391l-0.042-0.102C7.423,12.3,7.408,12.274,7.398,12.234z
			 M6.333,14.094l-0.072-0.14l0.041-0.153l0.003-0.026l-0.12-0.036l-0.423,0.496h0.646L6.333,14.094z"/>
	</g>
	<path id="displacedGroup" display="none" fill="#FFFFFF" d="M7.57,4.506C7.66,5.057,7.29,5.571,6.743,5.663
		c-0.548,0.095-1.072-0.28-1.158-0.822c-0.087-0.555,0.281-1.075,0.831-1.16C6.963,3.585,7.48,3.96,7.57,4.506z M7.259,8.5
		l0.89,1.422c0.126,0.204,0.388,0.267,0.595,0.145C8.95,9.948,9.014,9.692,8.9,9.477L8.68,9.074C8.481,8.72,8.292,8.369,8.091,8.022
		L7.697,7.298C7.65,7.213,7.609,7.123,7.56,7.02C7.318,6.51,6.937,5.716,6.099,5.787C5.381,5.85,4.652,6.194,3.94,6.801
		c-0.846,0.667-1.443,1.632-1.46,1.681C2.452,8.52,2.422,8.563,2.403,8.603c0,0,0,0-0.005,0.004l0,0
		C2.32,8.759,2.28,8.894,2.375,9.07c0.08,0.134,0.229,0.22,0.384,0.22c0.192,0,0.287-0.092,0.38-0.227l0,0l0,0
		c0.029-0.04,0.056-0.082,0.08-0.124c0.004-0.008,0.501-0.812,1.275-1.461c0.232-0.185,0.461-0.313,0.672-0.379L4.997,9.164
		c-0.019,0.202-0.084,0.56-0.139,0.76l-0.383,1.35c-0.047,0.168-0.197,0.455-0.306,0.589l-1.042,1.287
		c-0.134,0.172-0.284,0.355-0.165,0.613c0.077,0.153,0.23,0.244,0.402,0.244c0.198,0,0.309-0.115,0.447-0.263l1.054-1.138
		c0.187-0.2,0.429-0.555,0.555-0.801l0.523-1.064l1.936,3.247c0.095,0.16,0.215,0.361,0.48,0.361l0,0
		c0.148,0,0.287-0.075,0.37-0.201c0.141-0.215,0.042-0.41-0.038-0.589l-1.574-3.396c-0.059-0.131-0.09-0.404-0.068-0.552L7.259,8.5z
		 M8.896,12.036h2.339v0.696l2.335-1.346l-2.336-1.346v0.7H8.896V12.036z"/>
	<path id="enlevementGroup" fill="#FFFFFF" d="M12.378,2.761c-0.348,0-0.626,0.281-0.626,0.625v2.539
		c0.156,0.032,0.301,0.092,0.418,0.21c0.327,0.322,0.334,0.858,0.016,1.186l-1.184,1.215l-0.164-0.159l1.184-1.21
		c0.23-0.248,0.229-0.635-0.012-0.873c-0.076-0.073-0.166-0.126-0.265-0.152c-0.104-0.026-0.205-0.026-0.307-0.006
		c-0.118,0.025-0.218,0.085-0.297,0.17c-0.702,0.72-1.403,1.439-2.106,2.164c-0.18,0.176-0.498,0.581-0.49,1.001
		c0.007,0.386,0,0.779,0,1.174c-0.092-0.079-0.199-0.129-0.327-0.154c-0.363-0.063-0.687,0.156-0.811,0.479H7.227
		c0-0.084,0-0.177,0-0.267c0.008-0.4-0.007-0.826,0-1.232c0.016-0.412-0.312-0.825-0.484-0.997C6.04,7.744,5.343,7.025,4.638,6.3
		c-0.08-0.08-0.186-0.141-0.297-0.166C4.237,6.11,4.133,6.114,4.028,6.14C3.933,6.166,3.839,6.22,3.769,6.294
		C3.526,6.532,3.521,6.919,3.752,7.167l1.184,1.21L4.778,8.535L3.596,7.32C3.275,6.993,3.285,6.457,3.608,6.135
		C3.729,6.021,3.871,5.96,4.02,5.925V3.386c0-0.343-0.283-0.625-0.625-0.625c-0.348,0-0.624,0.281-0.624,0.625v4.396
		c0,0.144,0.059,0.275,0.143,0.381l2.124,2.798H4.851c-0.413,0-0.747,0.337-0.747,0.753c0,0.28,0.153,0.507,0.378,0.637
		c-0.221,0.136-0.378,0.366-0.378,0.632c0,0.418,0.334,0.753,0.747,0.753H5.08v0.418h2.085c0.108,0.111,0.237,0.187,0.389,0.219
		c0.049,0.013,0.083,0.015,0.129,0.015c0.369,0,0.682-0.263,0.743-0.625v-0.024h0.133c0,0.139,0,0.277,0.016,0.421h2.113v-0.421
		h0.226c0.41,0,0.75-0.334,0.75-0.751c0-0.27-0.151-0.504-0.38-0.636c0.229-0.13,0.38-0.356,0.38-0.637
		c0-0.414-0.34-0.751-0.75-0.751h-0.178l2.121-2.798C12.945,8.057,13,7.928,13,7.784V3.392C13,3.043,12.721,2.761,12.378,2.761z
		 M4.475,11.715c0-0.201,0.17-0.369,0.376-0.369h2.464l-0.132,0.75H4.851C4.645,12.089,4.475,11.923,4.475,11.715z M4.475,12.989
		c0-0.206,0.17-0.378,0.376-0.378h2.241l-0.128,0.754H4.851C4.645,13.365,4.475,13.199,4.475,12.989z M8.052,13.695
		c-0.034,0.207-0.253,0.337-0.433,0.31c-0.101-0.017-0.184-0.071-0.243-0.153c-0.058-0.079-0.077-0.181-0.061-0.281l0.411-2.404
		c0.035-0.183,0.191-0.315,0.375-0.315c0.023,0,0.044,0,0.063,0.006c0.208,0.043,0.342,0.23,0.304,0.435L8.052,13.695z
		 M11.299,12.989c0,0.21-0.163,0.379-0.377,0.379H8.486l0.129-0.757h2.308C11.127,12.613,11.299,12.783,11.299,12.989z
		 M11.299,11.715c0,0.208-0.163,0.378-0.377,0.378H8.708l0.125-0.729c0-0.007,0-0.013,0-0.017h2.089
		C11.127,11.345,11.299,11.515,11.299,11.715z"/>
	<path id="eruptionGroup" display="none" fill="#FFFFFF" d="M8.292,6.599c0.642,0.22,1.489,0.476,1.673-0.552
		c0.141-0.81,1.205-0.511,1.659-0.558c0.831-0.1,0.205-1.648-0.83-1.671c-1.049-0.023-1.522,0.44-1.951,1.391
		c-0.192,0.456-0.362,0.8-1.107,0.556C6.996,5.518,6.446,6.127,6.9,6.878C7.297,7.546,6.893,8.27,6.893,8.27h1.123
		c0,0-0.006-0.405-0.279-0.83C7.418,6.94,7.637,6.376,8.292,6.599z M2.361,13.521c2.879-2.099,3.602-4.997,3.602-4.997h2.956
		c0,0,0.716,2.898,3.598,4.997H2.361z"/>
	<path id="returnedGroup" display="none" fill="#FFFFFF" d="M7.576,4.506C7.66,5.057,7.292,5.571,6.743,5.663
		c-0.548,0.093-1.072-0.28-1.155-0.83c-0.09-0.551,0.277-1.068,0.829-1.156C6.963,3.585,7.48,3.956,7.576,4.506z M7.259,8.497
		l0.89,1.427c0.126,0.202,0.388,0.261,0.595,0.143C8.948,9.945,9.014,9.692,8.9,9.477L8.68,9.07C8.481,8.72,8.292,8.369,8.098,8.018
		L7.697,7.298C7.65,7.213,7.611,7.123,7.56,7.02C7.318,6.51,6.937,5.712,6.099,5.787c-0.714,0.06-1.442,0.4-2.159,1.008
		C3.09,7.468,2.493,8.433,2.477,8.478C2.452,8.52,2.422,8.56,2.403,8.603L2.397,8.607l0,0C2.32,8.759,2.28,8.894,2.375,9.07
		c0.08,0.134,0.229,0.224,0.384,0.224c0.192,0,0.287-0.09,0.378-0.226l0,0l0,0c0.025-0.042,0.053-0.087,0.08-0.127
		C3.224,8.933,3.721,8.132,4.488,7.48c0.239-0.188,0.468-0.315,0.681-0.386l-0.172,2.07c-0.019,0.202-0.084,0.56-0.139,0.76
		l-0.383,1.35c-0.047,0.17-0.197,0.455-0.314,0.589l-1.034,1.287c-0.134,0.172-0.284,0.355-0.165,0.613
		c0.077,0.153,0.23,0.244,0.402,0.244c0.198,0,0.309-0.115,0.447-0.263l1.054-1.138c0.187-0.2,0.429-0.555,0.549-0.801l0.527-1.064
		l1.934,3.247c0.093,0.16,0.222,0.361,0.481,0.361l0,0c0.148,0,0.286-0.075,0.374-0.203c0.132-0.213,0.039-0.41-0.038-0.585
		l-1.57-3.397C7.064,10.031,7.03,9.76,7.048,9.612L7.259,8.497z M13.775,9.224c0-1.422-1.157-2.572-2.575-2.572h-1.094v1.295h1.097
		c0.698,0,1.274,0.57,1.274,1.277c0,0.694-0.565,1.271-1.274,1.271h-0.229V9.799l-2.33,1.343l2.33,1.35v-0.696h0.254l0,0
		C12.632,11.774,13.775,10.632,13.775,9.224z"/>
	<path id="epidemieGroup" display="none" fill="#FFFFFF" d="M12.057,9.118c0-2.529-1.978-4.583-4.47-4.709
		c1.104,0.099,1.962,0.904,1.962,1.875c0,0.334-0.115,0.642-0.291,0.917C8.759,6.709,8.084,6.406,7.331,6.406
		c-0.743,0-1.423,0.301-1.913,0.792c-0.17-0.273-0.284-0.582-0.284-0.916c0-0.972,0.851-1.773,1.958-1.875
		c-2.49,0.13-4.47,2.185-4.47,4.709c0,0.759,0.187,1.479,0.508,2.117c-0.443-0.994-0.176-2.119,0.658-2.595
		c0.289-0.166,0.609-0.231,0.936-0.217C4.659,8.649,4.623,8.88,4.623,9.125c0,1.257,0.854,2.304,2.017,2.615
		c-0.023,0.023-0.045,0.049-0.058,0.08v0.004c-0.04,0.08-0.084,0.155-0.145,0.214c-0.124,0.162-0.267,0.31-0.453,0.413
		c-0.832,0.481-1.942,0.149-2.589-0.74c0.846,1.284,2.292,2.13,3.944,2.13c1.633,0,3.066-0.831,3.925-2.092
		c-0.659,0.862-1.745,1.182-2.571,0.704c-0.291-0.168-0.5-0.421-0.645-0.713c1.153-0.313,2.003-1.364,2.003-2.616
		c0-0.241-0.034-0.471-0.089-0.699c0.327-0.018,0.648,0.048,0.938,0.218c0.81,0.464,1.087,1.531,0.688,2.503
		C11.888,10.531,12.057,9.844,12.057,9.118z M7.839,10.932c-0.022-0.393,0.065-0.801,0.259-1.193L7.786,9.555
		C7.674,9.677,7.511,9.749,7.339,9.749c-0.177,0-0.336-0.071-0.455-0.189L6.581,9.735c0.2,0.391,0.279,0.805,0.257,1.2
		C6.04,10.715,5.447,9.992,5.447,9.124c0-0.167,0.03-0.323,0.07-0.471c0.348,0.173,0.667,0.45,0.907,0.813L6.743,9.28
		C6.729,9.226,6.708,9.173,6.708,9.118c0-0.295,0.201-0.532,0.475-0.6V8.153C6.743,8.12,6.35,7.989,6.021,7.774
		c0.333-0.334,0.801-0.541,1.31-0.541c0.509,0,0.985,0.212,1.325,0.549c-0.333,0.215-0.729,0.347-1.16,0.379v0.362
		C7.76,8.594,7.964,8.828,7.964,9.122c0,0.057-0.015,0.11-0.03,0.16l0.318,0.182c0.235-0.364,0.56-0.638,0.905-0.814
		c0.035,0.151,0.071,0.305,0.071,0.467C9.222,9.992,8.636,10.71,7.839,10.932z"/>
</g>
</svg>
