<?xml version="1.0" encoding="utf-8"?>
<!-- Generator: Adobe Illustrator 16.0.0, SVG Export Plug-In . SVG Version: 6.00 Build 0)  -->
<!DOCTYPE svg PUBLIC "-//W3C//DTD SVG 1.1//EN" "http://www.w3.org/Graphics/SVG/1.1/DTD/svg11.dtd">
<svg version="1.1" id="Groupe" xmlns="http://www.w3.org/2000/svg" xmlns:xlink="http://www.w3.org/1999/xlink" x="0px" y="0px"
	 width="15.871px" height="15.65px" viewBox="0 0 15.871 15.65" enable-background="new 0 0 15.871 15.65" xml:space="preserve">
<g id="PinColor_1_">
	<path id="vert" fill="#2ABF00" stroke="#1D7500" stroke-width="0.2" stroke-miterlimit="10" d="M15.472,7.589
		c0,3.444-2.465,6.334-5.791,7.101c-0.559,0.122-2.974,0.122-3.55-0.023c-3.291-0.778-5.733-3.651-5.733-7.079
		c0-4.021,3.377-7.29,7.537-7.29C12.093,0.297,15.472,3.566,15.472,7.589z"/>
	<path id="orange" display="none" fill="#FF8500" stroke="#7F4500" stroke-width="0.2" stroke-miterlimit="10" d="M15.472,7.589
		c0,3.444-2.465,6.334-5.791,7.101c-0.559,0.122-2.974,0.122-3.55-0.023c-3.291-0.778-5.733-3.651-5.733-7.079
		c0-4.021,3.377-7.29,7.537-7.29C12.093,0.297,15.472,3.566,15.472,7.589z"/>
	<path id="gris" display="none" fill="#A5A5A5" stroke="#595959" stroke-width="0.2" stroke-miterlimit="10" d="M15.472,7.589
		c0,3.444-2.465,6.334-5.791,7.101c-0.559,0.122-2.974,0.122-3.55-0.023c-3.291-0.778-5.733-3.651-5.733-7.079
		c0-4.021,3.377-7.29,7.537-7.29C12.093,0.297,15.472,3.566,15.472,7.589z"/>
	<path id="bleu" display="none" fill="#0092FF" stroke="#00477C" stroke-width="0.2" stroke-miterlimit="10" d="M15.472,7.589
		c0,3.444-2.465,6.334-5.791,7.101c-0.559,0.122-2.974,0.122-3.55-0.023c-3.291-0.778-5.733-3.651-5.733-7.079
		c0-4.021,3.377-7.29,7.537-7.29C12.093,0.297,15.472,3.566,15.472,7.589z"/>
</g>
<g id="IconsGroup">
	<g id="MinimalGroup" display="none">
		<path id="ElectionGroup" display="inline" fill="#565656" d="M13.308,4.278L9.974,2.851c-0.095-0.04-0.219-0.014-0.279,0.067
			L8.741,4.113C8.695,4.159,8.681,4.242,8.695,4.31c0.018,0.073,0.06,0.123,0.124,0.151L5.832,5.589
			C5.58,5.676,5.362,5.851,5.225,6.087L4.236,7.732C4.027,8.083,4.008,8.511,4.194,8.876l0.071,0.138H3.222
			c-0.133,0-0.236,0.108-0.236,0.238v4.52H2.271c-0.13,0-0.233,0.107-0.233,0.235s0.106,0.236,0.233,0.236h8.083
			c0.13,0,0.235-0.108,0.235-0.236s-0.105-0.235-0.235-0.235H9.641v-2.429c0-0.078-0.043-0.157-0.104-0.198
			c-0.067-0.045-0.16-0.055-0.233-0.016c-0.26,0.124-0.455,0.184-0.546,0.214c-0.017,0-0.037,0.01-0.053,0.02l-1.551,0.929
			c-0.247,0.145-0.527,0.23-0.811,0.23c-0.534,0-1.015-0.263-1.316-0.712c-0.245-0.356-0.329-0.785-0.235-1.206
			c0.089-0.417,0.338-0.777,0.694-1.008l0.227-0.145C5.879,9.355,6.026,9.264,6.154,9.18c0.094-0.054,0.131-0.169,0.102-0.274
			c-0.057-0.189-0.152-0.36-0.249-0.489C6.37,8.262,6.86,7.977,7.111,7.691l0,0C7.162,7.722,7.225,7.759,7.292,7.79
			c0.008,0,0.008,0,0.014,0.005l0,0c0.175,0.085,0.395,0.172,0.658,0.223c-0.278,0.346-0.558,0.771-0.666,1.05
			c-0.184,0.09-0.599,0.313-1.553,0.928c-0.254,0.157-0.429,0.413-0.485,0.709c-0.064,0.292-0.007,0.59,0.162,0.844
			c0.217,0.321,0.561,0.494,0.921,0.494c0.195,0,0.386-0.055,0.567-0.156l1.634-0.985c0.253-0.061,1.523-0.442,2.488-1.999
			c0.755-1.221,1.181-2.2,1.352-2.646l0.03,0.015c0.104,0.043,0.217,0.079,0.317,0.079c0.192,0,0.377-0.081,0.506-0.206
			c0.137-0.134,0.215-0.317,0.215-0.512V4.497C13.445,4.4,13.396,4.31,13.308,4.278z"/>
	</g>
	<g id="FaibleGroup" display="none">
		<path id="FamineGroup" display="inline" fill="#F9F9F9" d="M10.837,12.652l-1.809,0.344l-2.948-1.61l1.073-1.329l2.409,0.8
			L10.837,12.652z M13.612,9.515v0.206l-1.901,0.597l-1.879,0.268l-2.412-0.8L6.851,9.515h0.326C7.1,8.802,6.995,8.254,6.945,7.542
			l0,0C6.94,7.523,6.914,7.049,6.91,6.847C6.875,6.626,6.771,6.543,6.435,6.31C6.248,6.198,6.111,6.156,6.041,6.156
			c-0.123,0-0.232,0.133-0.259,0.54C6.319,6.785,6.354,7.38,6.354,7.38c0.049,0.421-0.162,1.037-0.638,1.2
			C4.839,8.871,4.922,7.174,5.422,6.762c0.014-0.49,0.151-0.939,0.619-0.958c0.188,0,0.376,0.082,0.59,0.217
			c0.098,0.065,0.187,0.123,0.257,0.194C6.882,6.05,6.875,5.885,6.875,5.712c0-0.361,0.054-0.743,0.371-1.02
			C7.409,4.54,7.59,4.458,7.777,4.461C8.249,4.49,8.535,4.893,8.709,5.308c0.193-0.086,0.443-0.125,0.723-0.025
			c0.728,0.244,1.126,1.517,0.822,1.953c-0.722,1.03-2.521-0.879-2.048-1.554c0,0,0.073-0.086,0.196-0.189
			C8.257,5.125,7.98,4.8,7.773,4.819c-0.081,0-0.181,0.027-0.294,0.133c-0.2,0.181-0.254,0.428-0.254,0.76
			c0,0.233,0.031,0.493,0.031,0.749c0,0.135,0.006,0.254,0.011,0.385c0.034,0.231,0.034,0.402,0.034,0.648
			c0.053,0.71,0.335,1.294,0.416,2.021H13.612z M8.529,5.635l1.372,1.489C9.656,6.068,8.792,5.481,8.792,5.481L8.529,5.635z
			 M5.703,6.911L5.46,7.012c0,0-0.119,0.832,0,1.264L5.703,6.911z M4.486,11.927l1.083-0.652l1.126-1.397L6.348,9.515H3.85
			l-0.498,0.997L4.486,11.927z M5.746,11.698L3.828,13.01l0.25,0.316h4.423l-0.01-0.063L5.746,11.698z M1.795,9.515v1.509
			l1.225-0.658l0.378-0.851H1.795z M10.19,10.906l1.191,1.735l2.23,0.527v-1.983l-1.608-0.518L10.19,10.906z M13.612,10.75v-0.693
			l-1.254,0.335L13.612,10.75z M3.056,10.851l-1.26,0.6v1.876h0.922l1.377-1.124L3.056,10.851z M9.663,13.327h2.89l-1.376-0.331
			L9.663,13.327z"/>
		<path id="CycloneGroup" display="inline" fill="#FFFFFF" d="M7.745,5.456c-0.063,0-0.123-0.006-0.183-0.006
			c-0.543,0-1.05,0.139-1.488,0.381C6.86,3.144,8.832,2.903,8.832,2.903S4.473,3.272,4.473,8.36c0.003,0,0.003,0,0.009,0
			c0,0.057-0.006,0.114-0.006,0.179c0,0.537,0.141,1.052,0.384,1.495C2.166,9.239,1.934,7.268,1.934,7.268s0.366,4.362,5.456,4.362
			c0-0.003,0-0.003,0-0.012c0.059,0.002,0.116,0.012,0.18,0.012c0.542,0,1.049-0.14,1.494-0.386
			c-0.797,2.694-2.771,2.928-2.771,2.928s4.366-0.367,4.366-5.456c-0.008,0-0.008,0-0.008,0c0-0.063,0.008-0.125,0.008-0.183
			c0-0.543-0.137-1.051-0.387-1.495c2.691,0.79,2.932,2.769,2.932,2.769s-0.364-4.359-5.458-4.359
			C7.745,5.452,7.745,5.456,7.745,5.456z"/>
		<path id="tsunamiGroup" display="inline" fill="#FFFFFF" d="M13.049,12.125C4.063,12.639,6.58,5.773,8.903,6.364
			C8.664,6.51,8.512,7.015,8.657,7.351c0.162,0.37,0.692,0.572,0.996,0.497c0.715-0.185,0.748-1.193,0.492-1.733
			C9.871,5.568,9.158,4.879,7.911,4.879c-2.999,0-5.058,1.535-5.83,4.171v3.885h10.968V12.125z"/>
		<path id="earthquakeGroup" display="inline" fill="#FFFFFF" d="M10.758,8.879c-0.152,0-0.295,0.086-0.369,0.227l-0.597,1.12
			L9.057,8.065C8.997,7.902,8.848,7.79,8.673,7.782C8.494,7.779,8.344,7.881,8.28,8.042L7.773,9.239l-0.8-4.788
			c-0.035-0.199-0.228-0.35-0.417-0.339C6.348,4.12,6.178,4.252,6.151,4.454l-0.704,5.549L4.872,7.027
			c-0.031-0.173-0.174-0.31-0.355-0.332C4.344,6.674,4.171,6.762,4.085,6.922L3.149,8.879H1.702v0.832h1.715
			c0.16,0,0.307-0.086,0.376-0.234l0.505-1.05l0.813,4.23c0.04,0.19,0.214,0.331,0.406,0.331c0.006,0,0.011,0,0.015,0
			c0.206-0.002,0.375-0.155,0.402-0.361l0.694-5.456l0.583,3.59c0.034,0.187,0.177,0.321,0.362,0.346
			c0.188,0.016,0.359-0.082,0.431-0.25l0.622-1.484l0.696,2.043c0.056,0.153,0.195,0.259,0.36,0.274
			c0.169,0.009,0.325-0.073,0.4-0.221l0.932-1.763h1.783V8.879H10.758z"/>
	</g>
	<g id="EleveGroup" display="none">
		<path id="attackGroup" display="inline" fill="#FFFFFF" d="M10.521,9.412l2.924-1.88l-2.831-0.3l0.772-3.281L9.382,6.024
			L8.819,3.676L7.981,5.864L5.686,2.909l0.72,3.704L4.366,6.158c0,0,0.619,1.185,0.967,1.902L2.06,7.83l2.963,1.733l-0.848,0.868
			l1.373-0.244l-0.971,3.443l2.894-2.427l0.758,1.877l0.77-1.494l2.497,2.575l-1.255-3.453l2.745,0.279L10.521,9.412z"/>
	</g>
	<g id="ExtremeGroup" display="none">
		<path id="rebelionGroup" display="inline" fill="#FFFFFF" d="M9.787,5.042c0,1.192-0.971,2.157-2.154,2.157
			c-1.196,0-2.165-0.964-2.165-2.157c0-1.196,0.967-2.158,2.165-2.158C8.819,2.884,9.787,3.846,9.787,5.042z M4.027,14.191h1.314
			h0.072l0.051-0.103l0.477-0.467l-0.449-0.095l-0.693-0.148L4.027,14.191z M13.054,5.441l-0.461,0.465l0.027,0.033L12.243,6.31
			c0.055,0.051,0.099,0.098,0.142,0.152l0.379-0.379l0.076,0.068l0.456-0.464L13.054,5.441z M10.074,7.833L9.871,8.035l0.023,0.054
			l0.051,0.108l-3.148,3.152l0.336,0.079c0.313,0.065,0.579,0.246,0.756,0.52c0.026,0.037,0.032,0.082,0.049,0.123l0.006-0.01
			l0.233,0.15l0.08-0.021l0.917,0.667l0.617-0.842l-1.368-1.068l0.035-0.089h0.234l1.337-1.577l0.151-1.407L10.074,7.833z
			 M11.538,6.439c-0.411-0.042-0.809,0.263-0.851,0.685l-0.059,0.461l0,0l-0.029,0.331l-0.15,1.408l-0.015,0.133l-0.078,0.097
			l-1.203,1.417l0.9,0.702l0.33,0.256l-0.193,0.259l0.05,0.09c0.121,0.269,0.397,0.437,0.69,0.437c0.043,0,0.088,0,0.13-0.012
			c0.341-0.054,0.599-0.332,0.635-0.674l0.519-4.747C12.263,6.863,11.954,6.486,11.538,6.439z M9.965,12.504l-0.438,0.607
			l-0.253,0.341l-0.351-0.25l-0.758-0.55L8.1,12.667L8.07,12.652c0,0.067,0,0.128-0.018,0.19c-0.013,0.063-0.034,0.123-0.061,0.181
			c-0.044,0.113-0.11,0.203-0.18,0.301l0.057,0.12c0.05,0.126,0.123,0.279,0.209,0.42l0.218,0.327h1.618L9.965,12.504z
			 M6.882,13.791c-0.014,0-0.039-0.003-0.06-0.003c0,0.028-0.007,0.051-0.007,0.051l0.184,0.351h0.436l0.285-0.101
			c-0.097-0.147-0.175-0.311-0.249-0.476C7.29,13.72,7.1,13.791,6.882,13.791z M7.517,12.161c-0.028-0.048-0.081-0.089-0.124-0.123
			c-0.026-0.028-0.042-0.063-0.081-0.081c-0.075-0.053-0.172-0.1-0.272-0.12l-0.331-0.07l-0.771-0.161l0,0l-0.684-0.147l-0.263-0.05
			L4.563,11.31L4.53,11.305l0.075-0.075L4.9,10.938l0.313-0.313c0.026,0.221,0.038,0.384,0.038,0.389l0.103,0.022l0.952,0.204
			l0.196-0.195L9.447,8.09L9.375,7.923l0.022-0.017C8.973,7.779,8.471,7.697,7.836,7.697H7.631H7.424
			c-0.445,0-0.893,0.035-1.332,0.129C5.333,8,4.864,8.741,4.354,9.246c-0.534,0.525-1.051,1.07-1.567,1.61
			c-0.114,0.123-0.228,0.243-0.351,0.358c-0.196,0.206-0.271,0.499-0.196,0.77c0.081,0.27,0.303,0.472,0.583,0.537l1.017,0.218
			l0.435,0.091l2.448,0.521c0.054,0.008,0.107,0.016,0.16,0.016c0.356,0,0.68-0.24,0.755-0.612c0.028-0.146,0.008-0.271-0.038-0.398
			l-0.043-0.103C7.542,12.226,7.527,12.2,7.517,12.161z M6.435,14.047l-0.073-0.141l0.041-0.155l0.003-0.027l-0.122-0.038
			l-0.43,0.506h0.657L6.435,14.047z"/>
	</g>
	<path id="displacedGroup" display="none" fill="#FFFFFF" d="M7.692,4.31c0.09,0.559-0.286,1.081-0.841,1.175
		C6.295,5.581,5.763,5.2,5.675,4.649C5.586,4.087,5.96,3.557,6.519,3.472C7.076,3.374,7.6,3.755,7.692,4.31z M7.375,8.366L8.28,9.81
		c0.129,0.205,0.394,0.271,0.604,0.148C9.092,9.837,9.158,9.577,9.043,9.36L8.819,8.95C8.616,8.59,8.423,8.233,8.22,7.881
		l-0.4-0.735C7.773,7.059,7.731,6.969,7.681,6.863C7.436,6.345,7.047,5.539,6.197,5.611c-0.729,0.064-1.469,0.413-2.192,1.03
		c-0.86,0.677-1.466,1.658-1.484,1.708C2.492,8.388,2.463,8.431,2.443,8.471c0,0,0,0-0.006,0.003l0,0
		C2.359,8.629,2.318,8.767,2.415,8.946C2.496,9.081,2.647,9.17,2.806,9.17c0.195,0,0.291-0.094,0.386-0.231l0,0l0,0
		c0.03-0.04,0.057-0.084,0.081-0.124c0.003-0.01,0.509-0.826,1.295-1.486C4.804,7.14,5.037,7.011,5.251,6.944L5.078,9.04
		C5.059,9.246,4.992,9.608,4.936,9.812l-0.389,1.373c-0.047,0.167-0.201,0.458-0.312,0.597l-1.058,1.307
		c-0.136,0.175-0.288,0.36-0.167,0.624c0.079,0.156,0.234,0.249,0.408,0.249c0.201,0,0.314-0.118,0.455-0.27l1.07-1.153
		c0.19-0.206,0.437-0.564,0.563-0.815l0.532-1.08l1.966,3.298c0.097,0.163,0.22,0.366,0.487,0.366l0,0
		c0.15,0,0.293-0.078,0.376-0.203c0.144-0.221,0.043-0.419-0.038-0.6l-1.598-3.448C7.171,9.923,7.14,9.645,7.162,9.498L7.375,8.366z
		 M9.038,11.957h2.376v0.708l2.37-1.364l-2.37-1.368v0.711H9.038V11.957z"/>
	<path id="enlevementGroup" fill="#FFFFFF" d="M12.574,2.537c-0.353,0-0.634,0.286-0.634,0.635v2.579
		c0.158,0.033,0.303,0.094,0.424,0.213c0.332,0.328,0.34,0.872,0.016,1.205l-1.203,1.235L11.01,8.24l1.204-1.229
		c0.233-0.252,0.23-0.645-0.015-0.886c-0.076-0.075-0.167-0.128-0.267-0.154c-0.105-0.028-0.21-0.028-0.311-0.007
		C11.5,5.989,11.401,6.05,11.319,6.137c-0.713,0.731-1.425,1.462-2.14,2.197C8.997,8.513,8.673,8.925,8.681,9.35
		c0.008,0.393,0,0.794,0,1.193c-0.092-0.08-0.201-0.131-0.331-0.156c-0.369-0.065-0.698,0.158-0.823,0.486H7.343
		c0-0.086,0-0.181,0-0.271c0.008-0.406-0.007-0.839,0-1.253c0.016-0.418-0.316-0.837-0.492-1.012
		C6.137,7.599,5.43,6.868,4.713,6.132C4.632,6.05,4.524,5.989,4.411,5.964C4.306,5.939,4.2,5.943,4.094,5.97
		C3.997,5.997,3.902,6.05,3.831,6.126C3.584,6.367,3.578,6.76,3.813,7.012l1.203,1.229L4.855,8.403L3.655,7.168
		C3.33,6.836,3.339,6.291,3.667,5.964c0.124-0.115,0.267-0.177,0.418-0.213V3.172c0-0.349-0.289-0.635-0.635-0.635
		c-0.353,0-0.633,0.286-0.633,0.635v4.465c0,0.147,0.059,0.28,0.144,0.388l2.157,2.843H4.93c-0.419,0-0.759,0.342-0.759,0.766
		c0,0.284,0.156,0.512,0.384,0.647c-0.225,0.136-0.384,0.368-0.384,0.64c0,0.424,0.339,0.765,0.759,0.765h0.233v0.424H7.28
		c0.109,0.113,0.24,0.19,0.394,0.223c0.051,0.014,0.085,0.016,0.131,0.016c0.375,0,0.694-0.268,0.756-0.635v-0.027h0.133
		c0,0.143,0,0.283,0.018,0.429h2.147v-0.429h0.229c0.415,0,0.763-0.339,0.763-0.76c0-0.273-0.156-0.515-0.388-0.647
		c0.231-0.133,0.388-0.364,0.388-0.647c0-0.421-0.348-0.763-0.763-0.763h-0.183l2.155-2.841c0.088-0.11,0.146-0.241,0.146-0.388
		V3.178C13.208,2.823,12.924,2.537,12.574,2.537z M4.547,11.634c0-0.208,0.173-0.379,0.382-0.379h2.502l-0.134,0.763H4.93
		C4.72,12.012,4.547,11.842,4.547,11.634z M4.547,12.926c0-0.209,0.173-0.384,0.382-0.384h2.276l-0.13,0.768H4.93
		C4.72,13.309,4.547,13.138,4.547,12.926z M8.18,13.642c-0.034,0.211-0.255,0.342-0.439,0.314c-0.103-0.016-0.188-0.073-0.247-0.153
		c-0.059-0.083-0.078-0.187-0.063-0.289l0.418-2.44c0.035-0.186,0.194-0.318,0.381-0.318c0.023,0,0.044,0,0.064,0.005
		c0.21,0.043,0.347,0.233,0.31,0.438L8.18,13.642z M11.479,12.926c0,0.213-0.165,0.384-0.384,0.384H8.622l0.131-0.768h2.343
		C11.305,12.544,11.479,12.717,11.479,12.926z M11.479,11.634c0,0.208-0.165,0.382-0.384,0.382H8.848l0.125-0.741
		c0-0.005,0-0.012,0-0.015h2.122C11.305,11.255,11.479,11.427,11.479,11.634z"/>
	<path id="eruptionGroup" display="none" fill="#FFFFFF" d="M8.423,6.436c0.653,0.223,1.513,0.483,1.7-0.561
		c0.143-0.823,1.226-0.52,1.687-0.567c0.844-0.102,0.209-1.674-0.843-1.697C9.902,3.587,9.418,4.058,8.985,5.025
		C8.79,5.488,8.616,5.837,7.861,5.589C7.108,5.338,6.549,5.957,7.01,6.719c0.403,0.678-0.007,1.414-0.007,1.414h1.14
		c0,0-0.006-0.412-0.282-0.843C7.538,6.781,7.759,6.209,8.423,6.436z M2.4,13.468C5.325,11.335,6.059,8.39,6.059,8.39h3.002
		c0,0,0.728,2.944,3.654,5.077H2.4z"/>
	<path id="returnedGroup" display="none" fill="#FFFFFF" d="M7.696,4.31c0.086,0.559-0.288,1.081-0.845,1.175
		C6.295,5.579,5.763,5.2,5.679,4.642C5.587,4.083,5.96,3.557,6.52,3.468C7.076,3.374,7.6,3.752,7.696,4.31z M7.375,8.364L8.28,9.812
		c0.129,0.203,0.394,0.266,0.604,0.146C9.091,9.834,9.158,9.577,9.042,9.36L8.819,8.946C8.617,8.59,8.423,8.233,8.228,7.876
		L7.82,7.145C7.773,7.059,7.733,6.969,7.681,6.863C7.436,6.345,7.047,5.535,6.197,5.611C5.472,5.672,4.732,6.018,4.004,6.635
		c-0.864,0.683-1.469,1.664-1.486,1.71C2.492,8.388,2.463,8.427,2.443,8.471L2.437,8.474l0,0C2.359,8.629,2.318,8.767,2.415,8.946
		c0.081,0.135,0.232,0.228,0.391,0.228c0.195,0,0.291-0.093,0.383-0.229l0,0l0,0c0.026-0.045,0.054-0.087,0.081-0.129
		c0.006-0.01,0.511-0.823,1.291-1.485c0.243-0.191,0.476-0.32,0.691-0.392L5.078,9.04C5.059,9.246,4.992,9.608,4.936,9.812
		l-0.389,1.373c-0.047,0.172-0.201,0.458-0.318,0.597l-1.051,1.307c-0.136,0.175-0.288,0.36-0.167,0.624
		c0.079,0.156,0.234,0.249,0.408,0.249c0.201,0,0.314-0.118,0.455-0.27l1.07-1.153c0.19-0.206,0.437-0.564,0.558-0.815l0.536-1.08
		l1.965,3.298c0.093,0.163,0.224,0.366,0.488,0.366l0,0c0.15,0,0.29-0.078,0.379-0.205c0.136-0.219,0.041-0.42-0.038-0.595
		l-1.595-3.451C7.177,9.922,7.143,9.645,7.161,9.495L7.375,8.364z M13.993,9.102c0-1.445-1.174-2.613-2.613-2.613h-1.111v1.316
		h1.113c0.71,0,1.295,0.58,1.295,1.297c0,0.706-0.575,1.291-1.295,1.291h-0.233V9.684l-2.365,1.364l2.365,1.37v-0.705h0.257l0,0
		C12.833,11.691,13.993,10.532,13.993,9.102z"/>
	<path id="epidemieGroup" display="none" fill="#FFFFFF" d="M12.249,8.994c0-2.568-2.009-4.654-4.54-4.784
		c1.12,0.101,1.992,0.918,1.992,1.905c0,0.34-0.115,0.652-0.296,0.931C8.9,6.547,8.214,6.24,7.448,6.24
		c-0.755,0-1.446,0.306-1.943,0.805c-0.172-0.278-0.288-0.592-0.288-0.93c0-0.987,0.864-1.801,1.988-1.905
		c-2.53,0.133-4.54,2.219-4.54,4.784c0,0.771,0.19,1.502,0.516,2.149C2.731,10.132,3.003,8.99,3.85,8.508
		C4.144,8.34,4.469,8.273,4.801,8.288c-0.067,0.23-0.104,0.463-0.104,0.713c0,1.275,0.868,2.338,2.048,2.657
		c-0.023,0.022-0.047,0.048-0.059,0.08v0.002c-0.042,0.084-0.086,0.161-0.146,0.221c-0.126,0.163-0.271,0.312-0.46,0.417
		c-0.845,0.492-1.973,0.152-2.63-0.751c0.86,1.305,2.329,2.163,4.006,2.163c1.659,0,3.115-0.843,3.985-2.125
		c-0.668,0.876-1.771,1.2-2.609,0.715c-0.296-0.17-0.508-0.426-0.655-0.725c1.17-0.316,2.034-1.384,2.034-2.655
		c0-0.246-0.035-0.48-0.089-0.71c0.331-0.017,0.657,0.048,0.953,0.221c0.822,0.472,1.104,1.556,0.698,2.542
		C12.076,10.43,12.249,9.731,12.249,8.994z M7.964,10.839c-0.022-0.401,0.066-0.814,0.264-1.215L7.911,9.439
		c-0.115,0.123-0.28,0.195-0.455,0.195c-0.18,0-0.342-0.072-0.462-0.191L6.687,9.622c0.203,0.394,0.283,0.815,0.261,1.219
		c-0.811-0.226-1.413-0.957-1.413-1.84c0-0.17,0.031-0.329,0.071-0.48C5.96,8.698,6.285,8.979,6.528,9.346l0.323-0.188
		C6.837,9.104,6.815,9.051,6.815,8.994c0-0.3,0.204-0.54,0.483-0.607V8.013c-0.447-0.033-0.847-0.166-1.18-0.385
		C6.457,7.29,6.932,7.08,7.448,7.08c0.517,0,1,0.216,1.344,0.557C8.457,7.855,8.053,7.99,7.616,8.022V8.39
		C7.884,8.462,8.091,8.7,8.091,9c0,0.057-0.015,0.11-0.03,0.161l0.323,0.185c0.241-0.37,0.57-0.647,0.919-0.828
		c0.036,0.154,0.072,0.31,0.072,0.476C9.37,9.884,8.774,10.613,7.964,10.839z"/>
</g>
</svg>
