<?xml version="1.0" encoding="utf-8"?>
<!-- Generator: Adobe Illustrator 16.0.0, SVG Export Plug-In . SVG Version: 6.00 Build 0)  -->
<!DOCTYPE svg PUBLIC "-//W3C//DTD SVG 1.1//EN" "http://www.w3.org/Graphics/SVG/1.1/DTD/svg11.dtd">
<svg version="1.1" id="Layer_1" xmlns="http://www.w3.org/2000/svg" xmlns:xlink="http://www.w3.org/1999/xlink" x="0px" y="0px"
	 width="33.35px" height="40px" viewBox="0 0 33.35 40" enable-background="new 0 0 33.35 40" xml:space="preserve">
<g id="PinColor">
	<path id="PinOmbre" opacity="0.3" enable-background="new    " d="M28.246,30.465c0,1.793-3.938,3.299-9.236,3.695
		c-0.894,0.068-2.784,4.275-2.784,4.275s-1.957-4.209-2.88-4.281c-5.247-0.408-9.141-1.906-9.141-3.689
		c0-2.1,5.382-3.801,12.021-3.801C22.864,26.665,28.246,28.363,28.246,30.465z"/>
	<path id="vert" fill="#2ABF00" stroke="#1D7500" stroke-width="0.2" stroke-miterlimit="10" d="M28.246,12.824
		c0,5.492-3.938,10.098-9.236,11.313c-0.894,0.203-2.784,13.08-2.784,13.08s-1.957-12.877-2.88-13.105
		c-5.247-1.244-9.141-5.829-9.141-11.292c0-6.421,5.382-11.626,12.021-11.626C22.864,1.194,28.246,6.403,28.246,12.824z"/>
	<path id="orange" display="none" fill="#FF8500" stroke="#7F4500" stroke-width="0.2" stroke-miterlimit="10" d="M28.246,12.824
		c0,5.492-3.938,10.098-9.236,11.313c-0.894,0.203-2.784,13.08-2.784,13.08s-1.957-12.877-2.88-13.105
		c-5.247-1.244-9.141-5.829-9.141-11.292c0-6.421,5.382-11.626,12.021-11.626C22.864,1.194,28.246,6.403,28.246,12.824z"/>
	<path id="gris" display="none" fill="#A5A5A5" stroke="#595959" stroke-width="0.2" stroke-miterlimit="10" d="M28.246,12.824
		c0,5.492-3.938,10.098-9.236,11.313c-0.894,0.203-2.784,13.08-2.784,13.08s-1.957-12.877-2.88-13.105
		c-5.247-1.244-9.141-5.829-9.141-11.292c0-6.421,5.382-11.626,12.021-11.626C22.864,1.194,28.246,6.403,28.246,12.824z"/>
	<path id="bleu" display="none" fill="#0092FF" stroke="#00477C" stroke-width="0.2" stroke-miterlimit="10" d="M28.246,12.824
		c0,5.492-3.938,10.098-9.236,11.313c-0.894,0.203-2.784,13.08-2.784,13.08s-1.957-12.877-2.88-13.105
		c-5.247-1.244-9.141-5.829-9.141-11.292c0-6.421,5.382-11.626,12.021-11.626C22.864,1.194,28.246,6.403,28.246,12.824z"/>
</g>
<g id="Icons">
	<g id="Minimal">
		<path id="Election" display="none" fill="#565656" d="M28.358-1.096L23.49-3.183c-0.146-0.06-0.313-0.019-0.409,0.104l-1.394,1.74
			c-0.062,0.078-0.086,0.188-0.066,0.291c0.022,0.097,0.086,0.178,0.172,0.224l-4.364,1.637c-0.369,0.137-0.679,0.397-0.881,0.733
			l-1.443,2.408c-0.307,0.511-0.332,1.135-0.064,1.669l0.105,0.204h-1.523c-0.193,0-0.349,0.155-0.349,0.348v6.606h-1.044
			c-0.193,0-0.344,0.155-0.344,0.345c0,0.192,0.151,0.347,0.344,0.347h11.824c0.19,0,0.34-0.155,0.34-0.347
			c0-0.191-0.149-0.345-0.34-0.345h-1.045V9.228c0-0.118-0.063-0.232-0.162-0.293c-0.102-0.064-0.226-0.073-0.334-0.022
			c-0.384,0.179-0.664,0.271-0.8,0.31c-0.028,0.008-0.057,0.019-0.08,0.038l-2.265,1.356c-0.362,0.218-0.771,0.333-1.189,0.333
			c-0.769,0-1.488-0.383-1.928-1.034c-0.35-0.521-0.469-1.151-0.341-1.764c0.131-0.614,0.496-1.139,1.02-1.475l0.328-0.209
			c0.242-0.146,0.456-0.281,0.648-0.399c0.135-0.084,0.195-0.247,0.15-0.397c-0.086-0.279-0.23-0.527-0.365-0.717
			c0.531-0.232,1.25-0.646,1.611-1.065c0,0,0.004,0.002,0.007,0.002c0.073,0.047,0.162,0.096,0.265,0.144
			c0.007,0.002,0.01,0.004,0.02,0.007l0,0c0.259,0.126,0.587,0.251,0.962,0.326C20.152,4.869,19.74,5.493,19.59,5.91
			c-0.287,0.126-0.887,0.465-2.282,1.356c-0.372,0.234-0.626,0.6-0.712,1.029c-0.092,0.429-0.011,0.868,0.236,1.234
			c0.311,0.467,0.82,0.725,1.348,0.725c0.284,0,0.572-0.076,0.831-0.231l2.391-1.435c0.37-0.091,2.23-0.647,3.638-2.923
			c1.104-1.784,1.723-3.221,1.979-3.873l0.043,0.021c0.145,0.072,0.304,0.108,0.465,0.108c0.266,0,0.531-0.106,0.726-0.292
			c0.206-0.195,0.315-0.463,0.315-0.749v-1.656C28.564-0.916,28.486-1.043,28.358-1.096z"/>
	</g>
	<g id="Faible">
		<path id="Famine" display="none" fill="#F9F9F9" d="M25.227,11.703l-2.763,0.523l-4.512-2.454l1.64-2.046l3.689,1.225
			L25.227,11.703z M29.473,6.908v0.306l-2.909,0.923l-2.872,0.408l-3.69-1.228l-0.868-0.41h0.497
			c-0.119-1.098-0.276-1.93-0.354-3.017h-0.005c-0.002-0.033-0.041-0.762-0.05-1.072c-0.056-0.328-0.215-0.458-0.725-0.81
			c-0.282-0.182-0.49-0.246-0.608-0.244c-0.188,0-0.355,0.204-0.395,0.817c0.821,0.139,0.877,1.048,0.877,1.048
			c0.074,0.646-0.244,1.59-0.974,1.834c-1.351,0.451-1.214-2.152-0.451-2.776c0.021-0.75,0.231-1.438,0.942-1.464
			c0.283,0.002,0.571,0.118,0.904,0.33c0.159,0.096,0.288,0.193,0.402,0.292c-0.014-0.248-0.028-0.5-0.028-0.76
			c-0.003-0.546,0.082-1.142,0.567-1.565c0.25-0.227,0.53-0.344,0.807-0.342c0.724,0.036,1.17,0.657,1.431,1.293
			c0.306-0.132,0.684-0.197,1.118-0.046c1.11,0.385,1.71,2.322,1.244,2.997c-1.095,1.571-3.852-1.357-3.122-2.379
			c0,0,0.107-0.139,0.295-0.292c-0.213-0.565-0.644-1.068-0.966-1.032c-0.121,0.002-0.265,0.045-0.447,0.206
			c-0.305,0.27-0.387,0.655-0.387,1.159c0,0.354,0.043,0.749,0.043,1.145c0,0.206,0.014,0.387,0.021,0.587
			c0.05,0.353,0.053,0.625,0.05,0.995c0.074,1.085,0.515,1.977,0.631,3.095H29.473z M21.708,0.97l2.088,2.275
			C23.424,1.631,22.1,0.733,22.1,0.733L21.708,0.97z M17.38,2.921l-0.375,0.154c0,0-0.185,1.271,0,1.937L17.38,2.921z M15.51,10.594
			l1.66-0.998l1.729-2.14l-0.54-0.549h-3.822l-0.759,1.515L15.51,10.594z M17.446,10.251l-2.939,2.002l0.392,0.485h6.767
			l-0.022-0.099L17.446,10.251z M11.395,6.908v2.308l1.885-1.01l0.571-1.298H11.395z M24.239,9.039l1.824,2.645l3.411,0.801V9.46
			l-2.456-0.791L24.239,9.039z M29.473,8.798V7.729l-1.914,0.518L29.473,8.798z M13.326,8.945l-1.931,0.921v2.872h1.412l2.104-1.723
			L13.326,8.945z M23.44,12.737h4.418l-2.115-0.511L23.44,12.737z"/>
		<path id="Cyclone" display="none" fill="#FFFFFF" d="M20.505,0.698c-0.094-0.004-0.188-0.015-0.278-0.015
			c-0.829,0-1.608,0.216-2.286,0.589c1.211-4.124,4.231-4.482,4.231-4.482s-6.674,0.557-6.674,8.342c0.004,0,0.01,0,0.015,0
			c-0.004,0.095-0.015,0.185-0.015,0.28c0,0.825,0.216,1.604,0.59,2.285c-4.125-1.214-4.486-4.231-4.486-4.231
			s0.556,6.675,8.346,6.675c0-0.007,0-0.009,0-0.016c0.092,0.005,0.184,0.016,0.277,0.016c0.829,0,1.607-0.217,2.285-0.591
			c-1.211,4.125-4.233,4.484-4.233,4.484s6.676-0.558,6.676-8.343c-0.005,0-0.01,0-0.014,0c0.004-0.093,0.014-0.184,0.014-0.276
			c0-0.829-0.217-1.609-0.593-2.285c4.123,1.21,4.484,4.229,4.484,4.229s-0.554-6.674-8.34-6.674
			C20.505,0.689,20.505,0.693,20.505,0.698z"/>
		<path id="tsunami" display="none" fill="#FFFFFF" d="M28.61,10.905c-13.733,0.777-9.896-9.729-6.334-8.821
			c-0.368,0.223-0.605,0.997-0.377,1.517c0.249,0.557,1.053,0.875,1.515,0.759c1.106-0.285,1.155-1.838,0.757-2.654
			c-0.413-0.848-1.505-1.895-3.41-1.895c-4.6,0-7.738,2.349-8.919,6.387v5.938h16.771v-1.232H28.61V10.905z"/>
		<path id="earthquake" display="none" fill="#FFFFFF" d="M25.114,5.928c-0.235,0-0.451,0.13-0.562,0.34l-0.915,1.726l-1.13-3.307
			c-0.088-0.251-0.317-0.42-0.58-0.433c-0.272-0.007-0.509,0.146-0.612,0.39l-0.773,1.839l-1.219-7.322
			c-0.06-0.305-0.347-0.538-0.642-0.522c-0.314,0.007-0.574,0.214-0.614,0.525l-1.083,8.495l-0.875-4.56
			c-0.049-0.267-0.269-0.474-0.541-0.51c-0.27-0.038-0.54,0.108-0.657,0.354l-1.434,2.986h-2.224V7.2h2.625
			c0.245,0,0.47-0.142,0.577-0.359l0.768-1.604l1.242,6.466c0.06,0.301,0.319,0.519,0.626,0.519c0.004,0,0.011,0,0.016,0
			c0.313-0.01,0.57-0.244,0.614-0.552l1.063-8.349l0.889,5.495c0.052,0.277,0.276,0.488,0.559,0.519
			c0.283,0.026,0.549-0.127,0.659-0.389l0.955-2.269l1.063,3.115c0.08,0.242,0.296,0.411,0.548,0.432
			c0.255,0.014,0.497-0.112,0.618-0.337l1.423-2.69h2.732V5.925h-3.114V5.928z"/>
	</g>
	<g id="Modéré">
	</g>
	<g id="Important">
	</g>
	<g id="Elevé">
	</g>
	<g id="Extreme" display="none">
		<path id="rebelion" display="inline" fill="#FFFFFF" d="M22.825,0.932c0,1.534-1.24,2.774-2.771,2.774
			c-1.535,0-2.778-1.242-2.778-2.774c0-1.534,1.242-2.774,2.778-2.774C21.585-1.842,22.825-0.602,22.825,0.932z M15.419,12.703
			h1.696h0.089l0.063-0.13l0.615-0.603l-0.567-0.122l-0.9-0.193L15.419,12.703z M27.031,1.448l-0.598,0.595l0.041,0.041l-0.48,0.485
			c0.064,0.058,0.126,0.119,0.179,0.188l0.485-0.485l0.101,0.091l0.587-0.599L27.031,1.448z M23.198,4.526l-0.258,0.253l0.029,0.072
			l0.059,0.136l-4.047,4.058l0.437,0.093c0.398,0.083,0.742,0.323,0.967,0.668c0.028,0.049,0.039,0.11,0.063,0.161l0.012-0.016
			l0.3,0.198l0.107-0.022l1.179,0.855l0.793-1.086l-1.757-1.372l0.039-0.114h0.29l1.726-2.023l0.192-1.813L23.198,4.526z
			 M25.077,2.731c-0.523-0.057-1.033,0.335-1.094,0.878L23.916,4.2l0,0l-0.04,0.427l-0.192,1.817l-0.02,0.169l-0.108,0.13
			l-1.544,1.811l1.163,0.912l0.42,0.328l-0.245,0.333l0.062,0.122c0.161,0.347,0.514,0.564,0.896,0.564
			c0.054,0,0.108-0.002,0.165-0.013c0.436-0.075,0.771-0.43,0.818-0.869l0.659-6.105C26.014,3.28,25.618,2.788,25.077,2.731z
			 M23.057,10.527l-0.566,0.779l-0.324,0.446l-0.444-0.324l-0.977-0.706l-0.087,0.021l-0.035-0.025c0,0.084-0.002,0.165-0.021,0.249
			c-0.019,0.082-0.048,0.156-0.077,0.232c-0.063,0.145-0.142,0.269-0.236,0.385l0.067,0.155c0.069,0.155,0.165,0.358,0.276,0.534
			l0.272,0.425h2.084L23.057,10.527z M19.092,12.189c-0.022,0-0.048-0.007-0.07-0.009c-0.012,0.044-0.02,0.077-0.02,0.077
			l0.235,0.444h0.565l0.364-0.127c-0.123-0.194-0.223-0.401-0.315-0.61C19.623,12.096,19.371,12.189,19.092,12.189z M19.907,10.089
			c-0.041-0.063-0.102-0.11-0.158-0.163c-0.032-0.03-0.06-0.072-0.101-0.097c-0.101-0.072-0.222-0.126-0.349-0.156l-0.433-0.087
			L17.88,9.374l0,0l-0.872-0.187l-0.34-0.071l-0.559-0.121l-0.036-0.007l0.088-0.091l0.378-0.375l0.404-0.407
			c0.034,0.278,0.049,0.499,0.049,0.504l0.131,0.029l1.224,0.261l0.25-0.252l3.786-3.802l-0.086-0.213l0.031-0.024
			c-0.549-0.166-1.194-0.259-2.01-0.259h-0.268c0,0-0.263,0-0.265,0c-0.572,0-1.15,0.039-1.715,0.165
			c-0.969,0.217-1.569,1.167-2.233,1.821c-0.685,0.673-1.349,1.374-2.016,2.066c-0.147,0.155-0.294,0.314-0.447,0.467
			c-0.256,0.258-0.35,0.634-0.247,0.985c0.099,0.348,0.387,0.61,0.743,0.691l1.312,0.28l0.555,0.117l3.147,0.67
			c0.07,0.012,0.14,0.023,0.208,0.023c0.459,0,0.868-0.32,0.969-0.784c0.037-0.183,0.009-0.356-0.046-0.521l-0.062-0.127
			C19.938,10.175,19.924,10.136,19.907,10.089z M18.519,12.512l-0.096-0.179l0.048-0.199l0.011-0.039l-0.153-0.033l-0.556,0.639
			h0.843L18.519,12.512z"/>
	</g>
	<path id="displaced" display="none" fill="#FFFFFF" d="M21.178-1.463c0.136,0.856-0.439,1.66-1.29,1.799
		c-0.852,0.142-1.664-0.436-1.802-1.288c-0.141-0.854,0.437-1.662,1.292-1.801C20.228-2.894,21.034-2.314,21.178-1.463z
		 M20.689,4.748l1.386,2.213c0.197,0.312,0.604,0.412,0.919,0.228c0.32-0.19,0.429-0.594,0.255-0.917l-0.354-0.636
		c-0.309-0.542-0.607-1.092-0.91-1.637L21.369,2.88c-0.07-0.133-0.141-0.279-0.213-0.432c-0.379-0.798-0.973-2.032-2.276-1.92
		c-1.114,0.098-2.246,0.627-3.359,1.572c-1.317,1.04-2.238,2.549-2.272,2.614c-0.046,0.065-0.087,0.135-0.118,0.198
		c-0.004,0.001-0.004,0.003-0.005,0.005l0,0c-0.125,0.232-0.187,0.446-0.032,0.718c0.121,0.214,0.348,0.344,0.59,0.344
		c0.298,0,0.448-0.142,0.596-0.35l0,0c0.002,0,0.002-0.005,0.002-0.005c0.041-0.06,0.08-0.128,0.128-0.197
		c0.007-0.013,0.78-1.254,1.974-2.273c0.368-0.291,0.72-0.487,1.048-0.597L17.166,5.78c-0.026,0.318-0.126,0.871-0.212,1.176
		l-0.602,2.103c-0.079,0.263-0.301,0.705-0.479,0.92l-1.62,2.006c-0.204,0.256-0.436,0.543-0.245,0.944
		c0.113,0.237,0.351,0.389,0.613,0.389c0.314,0,0.483-0.18,0.695-0.41l1.639-1.769c0.292-0.316,0.675-0.863,0.864-1.25l0.813-1.654
		l3.008,5.053c0.146,0.249,0.334,0.563,0.739,0.563l0,0c0.236,0,0.449-0.122,0.572-0.314c0.219-0.335,0.072-0.638-0.051-0.913
		L20.47,7.34c-0.094-0.209-0.148-0.63-0.108-0.857L20.689,4.748z M23.236,10.246h3.646v1.083l3.622-2.091l-3.622-2.092v1.083h-3.646
		V10.246z"/>
	<path id="epidemie" display="none" fill="#FFFFFF" d="M27.39,6.108c0-3.927-3.077-7.122-6.951-7.32
		c1.711,0.164,3.045,1.405,3.045,2.917c0,0.519-0.173,0.998-0.45,1.421c-0.765-0.762-1.816-1.231-2.979-1.231
		c-1.161,0-2.211,0.469-2.973,1.229C16.809,2.699,16.636,2.22,16.636,1.7c0-1.509,1.331-2.752,3.039-2.916
		c-3.87,0.2-6.949,3.396-6.949,7.322c0,1.184,0.288,2.3,0.784,3.292c-0.678-1.55-0.264-3.293,1.027-4.039
		c0.451-0.259,0.954-0.353,1.455-0.325c-0.094,0.346-0.157,0.706-0.157,1.083c0,1.949,1.334,3.577,3.133,4.063
		c-0.025,0.042-0.055,0.081-0.08,0.122c0,0.005,0,0.005,0,0.01c-0.06,0.135-0.136,0.242-0.225,0.335
		c-0.192,0.253-0.416,0.477-0.703,0.643c-1.3,0.748-3.027,0.229-4.025-1.153c1.313,1.992,3.563,3.31,6.124,3.31
		c2.536,0,4.77-1.291,6.089-3.25c-1.002,1.337-2.699,1.83-3.978,1.096c-0.454-0.265-0.785-0.66-1.011-1.116
		c1.798-0.486,3.122-2.116,3.122-4.061c0-0.377-0.062-0.736-0.157-1.082c0.509-0.033,1.012,0.061,1.466,0.322
		c1.255,0.725,1.681,2.388,1.081,3.905C27.129,8.304,27.39,7.239,27.39,6.108z M20.837,8.93c-0.031-0.61,0.099-1.25,0.403-1.856
		l-0.488-0.281c-0.175,0.181-0.419,0.292-0.694,0.292c-0.269,0-0.517-0.111-0.693-0.292l-0.479,0.274
		c0.307,0.61,0.435,1.257,0.4,1.865c-1.239-0.339-2.16-1.468-2.16-2.814c0-0.259,0.041-0.502,0.103-0.739
		c0.543,0.273,1.035,0.702,1.411,1.265l0.49-0.285c-0.021-0.084-0.053-0.163-0.053-0.253c0-0.454,0.313-0.82,0.734-0.93V4.618
		c-0.68-0.044-1.296-0.256-1.809-0.589c0.529-0.523,1.253-0.844,2.052-0.844c0.801,0,1.525,0.323,2.056,0.846
		c-0.511,0.335-1.129,0.543-1.809,0.587v0.559c0.419,0.109,0.731,0.477,0.731,0.93c0,0.091-0.026,0.169-0.048,0.254l0.497,0.291
		c0.375-0.565,0.866-0.99,1.403-1.264c0.061,0.232,0.102,0.476,0.102,0.729C22.989,7.461,22.076,8.587,20.837,8.93z"/>
	<path id="enlevement" fill="#FFFFFF" d="M23.287,4.675c-0.556,0-1.01,0.455-1.01,1.014v4.128c0.244,0.054,0.478,0.157,0.667,0.341
		c0.532,0.526,0.547,1.392,0.024,1.93l-1.92,1.975l-0.269-0.258l1.931-1.969c0.387-0.399,0.376-1.032-0.021-1.423
		c-0.125-0.117-0.269-0.199-0.422-0.241c-0.173-0.046-0.341-0.049-0.507-0.015c-0.187,0.049-0.354,0.142-0.482,0.282
		c-1.142,1.168-2.286,2.337-3.426,3.509c-0.285,0.293-0.807,0.963-0.792,1.631c0.011,0.63-0.008,1.276,0.003,1.908
		c-0.147-0.122-0.331-0.209-0.533-0.247c-0.589-0.096-1.12,0.255-1.322,0.778h-0.297c0-0.143,0-0.287,0.002-0.43
		c0.015-0.659-0.011-1.344,0.006-2.006c0.014-0.67-0.508-1.342-0.794-1.635c-1.139-1.17-2.278-2.339-3.424-3.51
		c-0.13-0.138-0.294-0.233-0.483-0.279c-0.166-0.034-0.339-0.031-0.505,0.015c-0.155,0.045-0.303,0.127-0.424,0.243
		c-0.393,0.389-0.401,1.022-0.017,1.424l1.925,1.966l-0.268,0.258L9.01,12.086c-0.526-0.539-0.512-1.402,0.024-1.926
		c0.19-0.182,0.423-0.288,0.667-0.342V5.691c0-0.559-0.454-1.014-1.011-1.014c-0.562,0-1.014,0.455-1.014,1.014v7.146
		c0,0.233,0.095,0.448,0.233,0.621l3.45,4.558h-0.306c-0.669,0-1.219,0.547-1.219,1.222c0,0.448,0.252,0.823,0.61,1.035
		c-0.357,0.212-0.61,0.589-0.61,1.031c0,0.676,0.547,1.225,1.219,1.225h0.373v0.678h3.388c0.179,0.176,0.384,0.305,0.634,0.348
		c0.069,0.012,0.132,0.018,0.202,0.018c0.595,0,1.103-0.424,1.201-1.014l0.006-0.029h0.216c0.002,0.225,0,0.447,0.026,0.678h3.446
		v-0.678h0.377c0.668,0,1.219-0.545,1.219-1.225c0-0.442-0.253-0.819-0.613-1.031c0.36-0.21,0.613-0.587,0.613-1.038
		c0-0.672-0.547-1.219-1.219-1.219h-0.306l3.45-4.561c0.142-0.175,0.231-0.388,0.231-0.621V5.691
		C24.301,5.131,23.849,4.675,23.287,4.675z M10.446,19.235c0-0.335,0.275-0.608,0.609-0.608h4l-0.21,1.221h-3.79
		C10.721,19.845,10.446,19.574,10.446,19.235z M10.446,21.304c0-0.332,0.275-0.611,0.609-0.611h3.643l-0.212,1.223h-3.431
		C10.721,21.915,10.446,21.646,10.446,21.304z M16.251,22.452c-0.053,0.336-0.4,0.553-0.702,0.502
		c-0.162-0.029-0.3-0.117-0.395-0.248c-0.1-0.133-0.133-0.295-0.105-0.455l0.673-3.908c0.053-0.295,0.311-0.506,0.613-0.506
		c0.029,0,0.063,0,0.095,0.007c0.331,0.058,0.554,0.372,0.497,0.706L16.251,22.452z M21.532,21.304c0,0.34-0.275,0.611-0.609,0.611
		h-3.96l0.212-1.223h3.748C21.257,20.695,21.532,20.972,21.532,21.304z M21.532,19.235c0,0.336-0.275,0.608-0.609,0.608h-3.6
		l0.205-1.193c0.004-0.01,0-0.018,0-0.026h3.394C21.257,18.627,21.532,18.902,21.532,19.235z"/>
	<path id="eruption" display="none" fill="#FFFFFF" d="M21.54,2.193c0.992,0.339,2.313,0.74,2.591-0.863
		c0.225-1.248,1.89-0.784,2.597-0.863c1.29-0.148,0.316-2.561-1.296-2.596c-1.632-0.036-2.376,0.68-3.025,2.162
		c-0.313,0.713-0.574,1.25-1.729,0.867c-1.154-0.386-2,0.563-1.299,1.729C20,3.662,19.37,4.79,19.37,4.79h1.74
		c0,0-0.015-0.641-0.433-1.297C20.187,2.727,20.523,1.844,21.54,2.193z M12.324,12.951c4.476-3.259,5.593-7.769,5.593-7.769h4.599
		c0,0,1.118,4.507,5.59,7.769H12.324z"/>
	<path id="returned" display="none" fill="#FFFFFF" d="M19.751-0.705c0.113,0.705-0.365,1.37-1.064,1.486
		c-0.706,0.116-1.37-0.363-1.486-1.066c-0.115-0.706,0.36-1.37,1.066-1.485C18.968-1.887,19.639-1.411,19.751-0.705z M19.347,4.422
		l1.146,1.83c0.158,0.256,0.498,0.339,0.761,0.186c0.259-0.155,0.35-0.49,0.204-0.756l-0.289-0.525
		c-0.252-0.448-0.497-0.9-0.749-1.351L19.907,2.88c-0.058-0.104-0.115-0.226-0.177-0.353c-0.314-0.659-0.805-1.679-1.877-1.583
		c-0.92,0.076-1.852,0.514-2.77,1.294c-1.086,0.857-1.847,2.105-1.882,2.156c-0.034,0.055-0.065,0.11-0.095,0.166
		c-0.002,0.002-0.004,0.002-0.004,0.004l0,0c-0.102,0.192-0.152,0.368-0.024,0.591c0.099,0.177,0.285,0.286,0.49,0.286
		c0.245,0,0.368-0.116,0.49-0.291l0,0c0.002-0.002,0.002-0.002,0.002-0.002c0.032-0.052,0.067-0.109,0.104-0.168
		c0.005-0.009,0.645-1.032,1.631-1.875c0.304-0.237,0.592-0.403,0.866-0.494l-0.22,2.663c-0.024,0.266-0.105,0.718-0.179,0.973
		l-0.492,1.735c-0.066,0.219-0.252,0.583-0.396,0.759l-1.338,1.657c-0.17,0.212-0.36,0.449-0.202,0.78
		c0.092,0.193,0.29,0.317,0.505,0.317c0.26,0,0.399-0.148,0.577-0.339l1.354-1.46c0.243-0.26,0.555-0.711,0.71-1.032L17.65,7.3
		l2.484,4.173c0.122,0.207,0.278,0.461,0.614,0.461l0,0c0.193,0,0.369-0.097,0.474-0.261c0.178-0.274,0.059-0.522-0.043-0.75
		L19.17,6.561c-0.079-0.169-0.123-0.518-0.091-0.706L19.347,4.422z M27.711,5.353c0-1.824-1.483-3.302-3.301-3.302h-1.403v1.667
		h1.401c0.898,0,1.632,0.731,1.632,1.634c0,0.901-0.733,1.635-1.632,1.635h-0.291V6.093L21.126,7.82l2.991,1.728V8.65h0.326V8.648
		C26.247,8.63,27.711,7.162,27.711,5.353z"/>
	<path id="Attack" display="none" fill="#FFFFFF" d="M24.065,6.542l4.913-3.146L24.23,2.893l1.288-5.517l-3.366,3.48l-0.939-3.933
		l-1.411,3.671l-3.848-4.958l1.209,6.21l-3.418-0.758c0,0,1.04,1.989,1.621,3.188l-5.49-0.385l4.967,2.904l-1.427,1.466l2.311-0.421
		l-1.637,5.787l4.864-4.068l1.261,3.144l1.297-2.515l4.193,4.33l-2.096-5.797l4.597,0.465L24.065,6.542z"/>
</g>
</svg>
