<?xml version="1.0" encoding="utf-8"?>
<!-- Generator: Adobe Illustrator 16.0.0, SVG Export Plug-In . SVG Version: 6.00 Build 0)  -->
<!DOCTYPE svg PUBLIC "-//W3C//DTD SVG 1.1//EN" "http://www.w3.org/Graphics/SVG/1.1/DTD/svg11.dtd">
<svg version="1.1" id="Layer_1" xmlns="http://www.w3.org/2000/svg" xmlns:xlink="http://www.w3.org/1999/xlink" x="0px" y="0px"
	 width="33.35px" height="40px" viewBox="0 0 33.35 40" enable-background="new 0 0 33.35 40" xml:space="preserve">
<g id="PinColor">
	<path id="PinOmbre" opacity="0.3" enable-background="new    " d="M29.286,30.684c0,1.738-3.816,3.201-8.957,3.586
		c-0.867,0.064-2.703,4.145-2.703,4.145s-1.896-4.08-2.792-4.15c-5.088-0.396-8.864-1.85-8.864-3.578
		c0-2.037,5.22-3.687,11.657-3.687C24.066,26.999,29.286,28.646,29.286,30.684z"/>
	<path id="vert" fill="#2ABF00" stroke="#1D7500" stroke-width="0.2" stroke-miterlimit="10" d="M29.286,13.574
		c0,5.327-3.816,9.794-8.957,10.974c-0.867,0.197-2.703,12.687-2.703,12.687s-1.896-12.489-2.792-12.713
		c-5.089-1.207-8.865-5.653-8.865-10.952c0-6.228,5.22-11.276,11.658-11.276C24.066,2.294,29.286,7.346,29.286,13.574z"/>
	<path id="orange" display="none" fill="#FF8500" stroke="#7F4500" stroke-width="0.2" stroke-miterlimit="10" d="M29.286,13.574
		c0,5.327-3.816,9.794-8.957,10.974c-0.867,0.197-2.703,12.687-2.703,12.687s-1.896-12.489-2.792-12.713
		c-5.089-1.207-8.865-5.653-8.865-10.952c0-6.228,5.22-11.276,11.658-11.276C24.066,2.294,29.286,7.346,29.286,13.574z"/>
	<path id="gris" display="none" fill="#A5A5A5" stroke="#595959" stroke-width="0.2" stroke-miterlimit="10" d="M29.286,13.574
		c0,5.327-3.816,9.794-8.957,10.974c-0.867,0.197-2.703,12.687-2.703,12.687s-1.896-12.489-2.792-12.713
		c-5.089-1.207-8.865-5.653-8.865-10.952c0-6.228,5.22-11.276,11.658-11.276C24.066,2.294,29.286,7.346,29.286,13.574z"/>
	<path id="bleu" display="none" fill="#0092FF" stroke="#00477C" stroke-width="0.2" stroke-miterlimit="10" d="M29.286,13.574
		c0,5.327-3.816,9.794-8.957,10.974c-0.867,0.197-2.703,12.687-2.703,12.687s-1.896-12.489-2.792-12.713
		c-5.089-1.207-8.865-5.653-8.865-10.952c0-6.228,5.22-11.276,11.658-11.276C24.066,2.294,29.286,7.346,29.286,13.574z"/>
</g>
<g id="Icons">
	<g id="Minimal">
		<path id="Election" display="none" fill="#565656" d="M10.182,3.723L8.085,2.824C8.023,2.798,7.95,2.816,7.909,2.869L7.309,3.618
			C7.282,3.652,7.272,3.699,7.281,3.743C7.29,3.785,7.318,3.82,7.355,3.84l-1.88,0.705c-0.159,0.059-0.293,0.171-0.38,0.316
			L4.473,5.898C4.341,6.118,4.33,6.387,4.446,6.617L4.49,6.705H3.834c-0.083,0-0.15,0.067-0.15,0.15V9.7H3.235
			c-0.083,0-0.147,0.067-0.147,0.149c0,0.083,0.064,0.15,0.147,0.15h5.094c0.082,0,0.146-0.067,0.146-0.15
			C8.474,9.767,8.41,9.7,8.328,9.7h-0.45V8.17c0-0.051-0.027-0.1-0.069-0.126C7.764,8.016,7.71,8.012,7.663,8.034
			C7.498,8.112,7.377,8.151,7.32,8.168C7.307,8.171,7.295,8.176,7.284,8.184L6.309,8.768C6.154,8.862,5.977,8.911,5.797,8.911
			c-0.332,0-0.643-0.165-0.831-0.445C4.816,8.241,4.764,7.97,4.82,7.706c0.058-0.264,0.215-0.49,0.439-0.635l0.142-0.09
			C5.505,6.918,5.597,6.86,5.68,6.809c0.058-0.036,0.084-0.106,0.064-0.171c-0.037-0.12-0.101-0.227-0.157-0.309
			c0.229-0.1,0.538-0.278,0.692-0.459c0,0,0.003,0.001,0.004,0.001c0.031,0.02,0.069,0.041,0.113,0.062
			C6.4,5.934,6.401,5.935,6.405,5.936l0,0C6.516,5.99,6.658,6.044,6.82,6.076C6.647,6.292,6.469,6.561,6.405,6.74
			C6.281,6.795,6.023,6.941,5.421,7.324C5.262,7.426,5.153,7.583,5.115,7.768C5.075,7.953,5.111,8.142,5.217,8.3
			c0.134,0.201,0.354,0.312,0.581,0.312c0.122,0,0.246-0.033,0.356-0.1l1.029-0.618c0.16-0.039,0.961-0.279,1.567-1.259
			c0.476-0.769,0.742-1.388,0.853-1.668l0.02,0.009c0.063,0.031,0.131,0.047,0.2,0.047c0.113,0,0.229-0.046,0.313-0.126
			c0.089-0.084,0.137-0.2,0.137-0.323V3.861C10.271,3.801,10.237,3.746,10.182,3.723z"/>
	</g>
	<g id="Faible">
		<path id="Famine" display="none" fill="#F9F9F9" d="M8.833,9.237l-1.19,0.225L5.699,8.405l0.705-0.881l1.591,0.528L8.833,9.237z
			 M10.662,7.171v0.132L9.409,7.7L8.172,7.876l-1.59-0.529L6.208,7.171h0.214C6.371,6.698,6.303,6.34,6.27,5.871H6.268
			C6.267,5.857,6.25,5.543,6.246,5.409C6.222,5.268,6.155,5.212,5.934,5.06C5.813,4.982,5.723,4.954,5.672,4.955
			c-0.081,0-0.153,0.088-0.17,0.352C5.856,5.367,5.88,5.759,5.88,5.759c0.031,0.278-0.105,0.685-0.42,0.79
			C4.878,6.743,4.938,5.622,5.266,5.353C5.275,5.03,5.366,4.734,5.672,4.722c0.122,0.001,0.246,0.051,0.39,0.142
			C6.13,4.905,6.186,4.947,6.235,4.99C6.229,4.884,6.222,4.775,6.222,4.663C6.221,4.428,6.258,4.171,6.467,3.989
			c0.107-0.098,0.229-0.148,0.348-0.147c0.313,0.015,0.504,0.283,0.616,0.557c0.131-0.057,0.294-0.085,0.481-0.02
			c0.479,0.166,0.735,1,0.536,1.291C7.977,6.347,6.789,5.086,7.104,4.646c0,0,0.046-0.06,0.127-0.126
			C7.139,4.277,6.953,4.06,6.815,4.075C6.762,4.076,6.7,4.095,6.622,4.164C6.49,4.28,6.455,4.446,6.455,4.663
			c0,0.153,0.019,0.323,0.019,0.493c0,0.089,0.006,0.167,0.009,0.253c0.021,0.152,0.022,0.269,0.021,0.429
			c0.032,0.467,0.222,0.851,0.271,1.333H10.662z M7.318,4.613l0.899,0.98c-0.16-0.695-0.73-1.082-0.73-1.082L7.318,4.613z
			 M5.453,5.454L5.292,5.52c0,0-0.08,0.548,0,0.834L5.453,5.454z M4.648,8.759l0.715-0.43l0.745-0.922L5.875,7.171H4.229
			L3.902,7.823L4.648,8.759z M5.482,8.611L4.215,9.473l0.169,0.209h2.915l-0.01-0.043L5.482,8.611z M2.875,7.171v0.994L3.687,7.73
			l0.246-0.559H2.875z M8.407,8.089l0.784,1.139l1.471,0.345V8.27L9.605,7.929L8.407,8.089z M10.662,7.985v-0.46L9.838,7.748
			L10.662,7.985z M3.707,8.049L2.875,8.445v1.237h0.607L4.39,8.94L3.707,8.049z M8.064,9.682h1.902l-0.91-0.22L8.064,9.682z"/>
		<path id="Cyclone" display="none" fill="#FFFFFF" d="M6.799,4.496c-0.04-0.002-0.08-0.007-0.12-0.007
			c-0.357,0-0.692,0.093-0.984,0.254c0.521-1.776,1.822-1.931,1.822-1.931s-2.874,0.24-2.874,3.593c0.002,0,0.004,0,0.006,0
			c-0.002,0.041-0.006,0.08-0.006,0.121c0,0.355,0.093,0.691,0.254,0.984C3.12,6.988,2.965,5.688,2.965,5.688
			S3.204,8.563,6.56,8.563c0-0.003,0-0.004,0-0.007c0.039,0.002,0.079,0.007,0.119,0.007c0.357,0,0.692-0.093,0.984-0.255
			C7.142,10.085,5.84,10.24,5.84,10.24S8.715,10,8.715,6.646c-0.002,0-0.004,0-0.006,0c0.002-0.04,0.006-0.079,0.006-0.119
			c0-0.357-0.093-0.693-0.255-0.984c1.775,0.521,1.932,1.822,1.932,1.822S10.154,4.49,6.799,4.49
			C6.799,4.492,6.799,4.494,6.799,4.496z"/>
		<path id="tsunami" display="none" fill="#FFFFFF" d="M10.29,8.892c-5.916,0.335-4.264-4.19-2.729-3.799
			C7.404,5.189,7.302,5.522,7.4,5.746c0.107,0.24,0.453,0.377,0.652,0.327C8.529,5.95,8.55,5.281,8.378,4.93
			C8.2,4.565,7.73,4.114,6.909,4.114c-1.981,0-3.333,1.012-3.843,2.751v2.558h7.225L10.29,8.892L10.29,8.892z"/>
		<path id="earthquake" display="none" fill="#FFFFFF" d="M8.784,6.749c-0.103,0-0.194,0.056-0.242,0.146L8.148,7.638L7.661,6.214
			c-0.038-0.108-0.138-0.181-0.25-0.186C7.294,6.025,7.193,6.091,7.148,6.196L6.815,6.988L6.289,3.834
			C6.264,3.702,6.14,3.602,6.013,3.609C5.878,3.612,5.766,3.701,5.748,3.835L5.282,7.494L4.906,5.53
			C4.884,5.415,4.789,5.326,4.672,5.31C4.556,5.294,4.44,5.357,4.389,5.463L3.772,6.749H2.814v0.548h1.131
			c0.105,0,0.202-0.061,0.248-0.155l0.331-0.691l0.535,2.786C5.084,9.366,5.197,9.46,5.328,9.46c0.002,0,0.005,0,0.007,0
			C5.469,9.456,5.581,9.355,5.6,9.222l0.458-3.596l0.383,2.367c0.022,0.12,0.119,0.21,0.24,0.224
			C6.803,8.228,6.917,8.162,6.965,8.05l0.411-0.978l0.458,1.342C7.869,8.518,7.962,8.591,8.071,8.6
			C8.18,8.606,8.284,8.552,8.336,8.455l0.613-1.158h1.177V6.749H8.784z"/>
	</g>
	<g id="Modéré">
	</g>
	<g id="Important">
	</g>
	<g id="Elevé">
	</g>
	<g id="Extreme" display="none">
		<path id="rebelion" display="inline" fill="#FFFFFF" d="M7.799,4.597c0,0.661-0.535,1.195-1.194,1.195
			c-0.661,0-1.195-0.535-1.195-1.195c0-0.661,0.534-1.195,1.195-1.195C7.264,3.402,7.799,3.936,7.799,4.597z M4.609,9.667h0.73
			h0.039l0.025-0.056l0.267-0.26L5.425,9.299L5.037,9.216L4.609,9.667z M9.61,4.819L9.353,5.075L9.37,5.093L9.163,5.302
			C9.191,5.327,9.218,5.353,9.24,5.383l0.209-0.209l0.043,0.039l0.253-0.258L9.61,4.819z M7.959,6.145l-0.11,0.109l0.013,0.031
			l0.025,0.059L6.144,8.092l0.188,0.04C6.504,8.168,6.652,8.271,6.749,8.42c0.013,0.021,0.017,0.047,0.026,0.069l0.005-0.006
			l0.13,0.085l0.046-0.01l0.508,0.369l0.342-0.468L7.048,7.868l0.017-0.049H7.19l0.743-0.872l0.083-0.781L7.959,6.145z M8.769,5.372
			C8.543,5.347,8.323,5.516,8.297,5.75L8.269,6.005l0,0L8.251,6.189L8.168,6.971L8.16,7.044L8.114,7.1L7.448,7.88l0.501,0.393
			L8.13,8.414L8.025,8.557L8.051,8.61C8.12,8.76,8.273,8.853,8.437,8.853c0.023,0,0.047-0.001,0.071-0.006
			C8.696,8.815,8.84,8.662,8.861,8.473l0.284-2.629C9.172,5.608,9.002,5.396,8.769,5.372z M7.899,8.73L7.655,9.066l-0.14,0.192
			l-0.19-0.14L6.903,8.814L6.865,8.823L6.85,8.813c0,0.036-0.001,0.071-0.009,0.107C6.833,8.955,6.82,8.987,6.807,9.02
			C6.781,9.082,6.746,9.136,6.705,9.186l0.028,0.067c0.029,0.067,0.07,0.154,0.119,0.23L6.97,9.666h0.898L7.899,8.73z M6.191,9.446
			c-0.01,0-0.021-0.003-0.029-0.004C6.156,9.461,6.153,9.475,6.153,9.475l0.103,0.191h0.243l0.156-0.055
			C6.601,9.528,6.558,9.438,6.518,9.348C6.419,9.405,6.311,9.446,6.191,9.446z M6.542,8.541c-0.019-0.027-0.044-0.048-0.068-0.07
			C6.46,8.458,6.448,8.44,6.431,8.429c-0.044-0.031-0.096-0.054-0.15-0.067L6.094,8.324L5.669,8.233l0,0l-0.376-0.08L5.147,8.122
			L4.906,8.07L4.89,8.067l0.038-0.039l0.163-0.162l0.174-0.175c0.015,0.12,0.021,0.215,0.021,0.217L5.343,7.92L5.87,8.032
			l0.106-0.108l1.631-1.638L7.572,6.195l0.015-0.011C7.349,6.113,7.071,6.072,6.72,6.072H6.605c0,0-0.112,0-0.113,0
			c-0.246,0-0.495,0.017-0.738,0.071C5.334,6.237,5.075,6.646,4.789,6.928c-0.295,0.29-0.581,0.592-0.868,0.89
			C3.858,7.885,3.794,7.953,3.729,8.019C3.619,8.13,3.579,8.292,3.623,8.443C3.666,8.593,3.79,8.706,3.943,8.74l0.564,0.121
			l0.239,0.05L6.102,9.2c0.03,0.005,0.062,0.01,0.09,0.01c0.197,0,0.374-0.138,0.417-0.338c0.018-0.079,0.004-0.153-0.02-0.224
			L6.563,8.594C6.555,8.578,6.549,8.561,6.542,8.541z M5.944,9.585L5.903,9.508l0.021-0.086l0.004-0.017L5.862,9.391L5.622,9.666
			h0.362L5.944,9.585z"/>
	</g>
	<path id="displaced" display="none" fill="#FFFFFF" d="M7.089,3.565C7.148,3.934,6.9,4.28,6.533,4.34
		C6.166,4.401,5.817,4.152,5.757,3.785C5.697,3.417,5.945,3.069,6.314,3.009C6.68,2.949,7.028,3.198,7.089,3.565z M6.878,6.24
		l0.597,0.954c0.085,0.134,0.26,0.177,0.396,0.098C8.009,7.21,8.056,7.036,7.981,6.897L7.828,6.623
		c-0.134-0.234-0.263-0.47-0.394-0.705L7.171,5.436C7.141,5.379,7.11,5.316,7.079,5.25C6.916,4.906,6.66,4.375,6.099,4.423
		C5.619,4.465,5.132,4.693,4.653,5.1C4.085,5.548,3.689,6.198,3.674,6.226C3.654,6.254,3.637,6.284,3.623,6.311
		C3.621,6.312,3.621,6.313,3.62,6.314l0,0c-0.055,0.1-0.08,0.192-0.015,0.309c0.054,0.092,0.15,0.148,0.255,0.148
		c0.13,0,0.193-0.061,0.258-0.151l0,0c0.001,0,0.001-0.002,0.001-0.002c0.018-0.026,0.033-0.055,0.055-0.085
		c0.003-0.005,0.336-0.54,0.851-0.979c0.159-0.125,0.312-0.21,0.452-0.257L5.362,6.685C5.35,6.822,5.307,7.06,5.27,7.192
		L5.011,8.097c-0.034,0.114-0.13,0.304-0.206,0.396L4.107,9.358c-0.088,0.11-0.188,0.234-0.104,0.406
		c0.048,0.102,0.15,0.167,0.264,0.167c0.135,0,0.208-0.077,0.299-0.176l0.706-0.762c0.126-0.136,0.291-0.372,0.372-0.539
		l0.352-0.713L7.29,9.918c0.063,0.107,0.144,0.242,0.317,0.242l0,0c0.103,0,0.193-0.052,0.246-0.135
		C7.948,9.881,7.886,9.75,7.832,9.632L6.784,7.356c-0.04-0.09-0.063-0.271-0.047-0.369L6.878,6.24z M7.976,8.609h1.57v0.466
		l1.56-0.9l-1.56-0.901V7.74h-1.57V8.609z"/>
	<path id="epidemie" display="none" fill="#FFFFFF" d="M9.765,6.826c0-1.691-1.325-3.067-2.994-3.153
		c0.737,0.07,1.313,0.605,1.313,1.256c0,0.224-0.074,0.43-0.193,0.612c-0.33-0.328-0.782-0.53-1.283-0.53
		c-0.5,0-0.952,0.202-1.279,0.529c-0.12-0.182-0.194-0.388-0.194-0.612c0-0.65,0.573-1.186,1.31-1.256
		C4.775,3.758,3.449,5.135,3.449,6.826c0,0.51,0.124,0.991,0.338,1.418c-0.293-0.668-0.115-1.419,0.44-1.74
		c0.194-0.112,0.411-0.152,0.627-0.14C4.815,6.513,4.787,6.668,4.787,6.83c0,0.84,0.573,1.541,1.349,1.75
		C6.125,8.598,6.113,8.615,6.102,8.633c0,0.002,0,0.002,0,0.004C6.076,8.695,6.043,8.741,6.005,8.781
		C5.922,8.89,5.825,8.987,5.702,9.058C5.142,9.381,4.398,9.157,3.969,8.562C4.534,9.42,5.504,9.988,6.607,9.988
		c1.094,0,2.056-0.556,2.623-1.4C8.797,9.164,8.067,9.376,7.516,9.06C7.321,8.946,7.178,8.776,7.08,8.579
		C7.855,8.37,8.425,7.668,8.425,6.83c0-0.162-0.026-0.317-0.067-0.466C8.576,6.35,8.793,6.39,8.989,6.503
		C9.53,6.815,9.713,7.531,9.454,8.185C9.653,7.772,9.765,7.313,9.765,6.826z M6.943,8.042c-0.014-0.263,0.042-0.539,0.175-0.8
		L6.906,7.121C6.83,7.199,6.725,7.247,6.607,7.247c-0.115,0-0.223-0.048-0.299-0.126L6.102,7.239
		C6.234,7.502,6.289,7.78,6.275,8.043C5.74,7.897,5.344,7.41,5.344,6.83c0-0.111,0.018-0.216,0.045-0.318
		C5.622,6.63,5.834,6.814,5.996,7.057l0.211-0.123c-0.009-0.036-0.022-0.07-0.022-0.109c0-0.195,0.135-0.353,0.316-0.4v-0.24
		c-0.293-0.019-0.56-0.11-0.779-0.254c0.229-0.225,0.54-0.363,0.884-0.363c0.346,0,0.657,0.139,0.887,0.364
		c-0.222,0.144-0.487,0.234-0.78,0.253v0.241c0.181,0.047,0.314,0.205,0.314,0.4c0,0.039-0.012,0.073-0.021,0.109L7.221,7.06
		c0.161-0.243,0.373-0.426,0.604-0.544c0.024,0.1,0.044,0.205,0.044,0.314C7.869,7.409,7.476,7.894,6.943,8.042z"/>
	<path id="enlevement" display="none" fill="#FFFFFF" d="M9.24,3.051c-0.195,0-0.355,0.16-0.355,0.356v1.451
		c0.086,0.019,0.168,0.055,0.234,0.12c0.188,0.185,0.191,0.489,0.009,0.678L8.453,6.35L8.36,6.26l0.679-0.692
		c0.136-0.14,0.132-0.363-0.008-0.5c-0.044-0.041-0.095-0.07-0.147-0.085c-0.062-0.016-0.12-0.017-0.179-0.005
		c-0.065,0.017-0.124,0.05-0.17,0.099C8.133,5.488,7.731,5.899,7.33,6.31C7.23,6.413,7.046,6.649,7.052,6.884
		c0.004,0.221-0.003,0.448,0.001,0.67C7,7.512,6.937,7.481,6.865,7.468C6.658,7.434,6.472,7.557,6.401,7.741H6.296
		c0-0.05,0-0.101,0.001-0.151c0.005-0.232-0.004-0.473,0.002-0.705C6.304,6.649,6.12,6.413,6.02,6.31
		C5.62,5.899,5.219,5.488,4.817,5.076c-0.046-0.048-0.104-0.082-0.17-0.098C4.588,4.966,4.528,4.967,4.469,4.983
		C4.414,4.999,4.363,5.028,4.32,5.069c-0.138,0.136-0.141,0.359-0.006,0.5L4.99,6.26L4.897,6.35L4.222,5.656
		c-0.185-0.189-0.18-0.493,0.009-0.677c0.066-0.064,0.148-0.101,0.234-0.12V3.408c0-0.196-0.16-0.356-0.355-0.356
		c-0.196,0-0.355,0.16-0.355,0.356V5.92c0,0.082,0.033,0.157,0.082,0.218L5.048,7.74H4.941c-0.234,0-0.429,0.192-0.429,0.43
		c0,0.157,0.089,0.289,0.215,0.363C4.601,8.608,4.512,8.74,4.512,8.896c0,0.238,0.192,0.43,0.429,0.43h0.131v0.239h1.191
		c0.063,0.062,0.135,0.107,0.223,0.122C6.51,9.691,6.532,9.693,6.557,9.693c0.209,0,0.388-0.149,0.422-0.356l0.002-0.011h0.076
		c0.001,0.079,0,0.157,0.009,0.239h1.212V9.326H8.41c0.234,0,0.429-0.191,0.429-0.43c0-0.156-0.089-0.288-0.216-0.363
		C8.75,8.459,8.839,8.327,8.839,8.169c0-0.237-0.192-0.429-0.429-0.429H8.302l1.213-1.603c0.05-0.061,0.082-0.136,0.082-0.218V3.408
		C9.597,3.211,9.438,3.051,9.24,3.051z M4.727,8.169c0-0.118,0.098-0.214,0.214-0.214h1.406L6.273,8.384H4.941
		C4.823,8.383,4.727,8.288,4.727,8.169z M4.727,8.896c0-0.117,0.098-0.215,0.214-0.215h1.28l-0.074,0.43H4.941
		C4.823,9.111,4.727,9.016,4.727,8.896z M6.767,9.3C6.748,9.418,6.626,9.494,6.52,9.476c-0.057-0.01-0.104-0.041-0.139-0.087
		c-0.034-0.047-0.046-0.104-0.036-0.16l0.236-1.374C6.6,7.751,6.69,7.677,6.796,7.677c0.011,0,0.021,0,0.034,0.002
		c0.115,0.02,0.193,0.131,0.174,0.248L6.767,9.3z M8.623,8.896c0,0.119-0.098,0.215-0.214,0.215H7.018l0.074-0.43h1.317
		C8.527,8.682,8.623,8.779,8.623,8.896z M8.623,8.169c0,0.118-0.098,0.214-0.214,0.214H7.144l0.072-0.42
		c0.001-0.003,0-0.006,0-0.009h1.192C8.527,7.955,8.623,8.052,8.623,8.169z"/>
	<path id="eruption" display="none" fill="#FFFFFF" d="M7.245,5.14c0.428,0.146,0.996,0.319,1.115-0.372
		C8.458,4.231,9.175,4.43,9.48,4.396c0.557-0.064,0.137-1.103-0.559-1.118C8.218,3.262,7.898,3.571,7.618,4.209
		C7.484,4.516,7.37,4.747,6.873,4.582C6.376,4.416,6.012,4.824,6.313,5.327C6.581,5.772,6.31,6.258,6.31,6.258h0.75
		c0,0-0.006-0.276-0.187-0.559C6.662,5.37,6.807,4.989,7.245,5.14z M3.276,9.774C5.203,8.37,5.685,6.428,5.685,6.428h1.98
		c0,0,0.48,1.941,2.408,3.346H3.276z"/>
	<path id="returned" display="none" fill="#FFFFFF" d="M6.475,3.892c0.049,0.304-0.157,0.59-0.459,0.64
		c-0.304,0.05-0.59-0.156-0.64-0.459c-0.05-0.304,0.153-0.59,0.459-0.64C6.137,3.383,6.426,3.588,6.475,3.892z M6.301,6.1
		l0.493,0.788c0.067,0.11,0.215,0.146,0.328,0.08c0.11-0.067,0.149-0.211,0.088-0.326L7.085,6.416
		C6.977,6.223,6.871,6.028,6.763,5.834l-0.22-0.399C6.518,5.39,6.493,5.338,6.467,5.283C6.331,4.999,6.119,4.56,5.657,4.601
		C5.261,4.635,4.86,4.823,4.464,5.159c-0.468,0.37-0.796,0.907-0.812,0.929c-0.014,0.024-0.027,0.048-0.04,0.071
		C3.612,6.16,3.611,6.16,3.611,6.161l0,0C3.567,6.244,3.545,6.32,3.6,6.416c0.043,0.076,0.123,0.123,0.211,0.123
		c0.105,0,0.159-0.05,0.211-0.125l0,0c0.001-0.001,0.001-0.001,0.001-0.001C4.037,6.39,4.052,6.366,4.068,6.341
		c0.003-0.004,0.278-0.445,0.703-0.808C4.902,5.431,5.026,5.36,5.144,5.321L5.049,6.468c-0.01,0.114-0.045,0.309-0.077,0.419
		L4.76,7.634C4.732,7.728,4.652,7.885,4.589,7.961L4.013,8.675C3.94,8.766,3.858,8.868,3.926,9.011
		c0.04,0.083,0.125,0.137,0.218,0.137c0.111,0,0.171-0.064,0.248-0.146l0.583-0.629c0.104-0.112,0.239-0.307,0.306-0.445L5.57,7.34
		l1.07,1.797c0.053,0.089,0.12,0.199,0.265,0.199l0,0c0.083,0,0.159-0.042,0.204-0.113C7.185,9.105,7.134,8.998,7.09,8.901
		l-0.865-1.88C6.191,6.948,6.172,6.798,6.186,6.717L6.301,6.1z M9.904,6.501c0-0.785-0.639-1.422-1.422-1.422H7.877v0.718h0.604
		c0.389,0,0.703,0.315,0.703,0.704c0,0.388-0.314,0.704-0.703,0.704H8.356V6.82L7.067,7.564l1.289,0.744V7.922h0.142V7.921
		C9.273,7.913,9.904,7.28,9.904,6.501z"/>
	<path id="Attack" display="none" fill="#FFFFFF" d="M8.332,7.013l2.116-1.355L8.404,5.441L8.96,3.065L7.51,4.564L7.105,2.87
		L6.496,4.451L4.839,2.316L5.36,4.991L3.887,4.664c0,0,0.447,0.857,0.697,1.373L2.22,5.871l2.14,1.251L3.745,7.754L4.74,7.572
		l-0.705,2.493L6.13,8.313l0.543,1.354l0.559-1.083l1.808,1.865L8.135,7.952l1.98,0.201L8.332,7.013z"/>
</g>
</svg>
