<?xml version="1.0" encoding="utf-8"?>
<!-- Generator: Adobe Illustrator 16.0.0, SVG Export Plug-In . SVG Version: 6.00 Build 0)  -->
<!DOCTYPE svg PUBLIC "-//W3C//DTD SVG 1.1//EN" "http://www.w3.org/Graphics/SVG/1.1/DTD/svg11.dtd">
<svg version="1.1" id="Layer_1" xmlns="http://www.w3.org/2000/svg" xmlns:xlink="http://www.w3.org/1999/xlink" x="0px" y="0px"
	 width="33.35px" height="40px" viewBox="0 0 33.35 40" enable-background="new 0 0 33.35 40" xml:space="preserve">
<g id="PinColor">
	<path id="PinOmbre" opacity="0.3" enable-background="new    " d="M28.859,31.035c0,1.773-3.896,3.266-9.14,3.656
		c-0.885,0.068-2.755,4.23-2.755,4.23s-1.937-4.164-2.85-4.236c-5.191-0.402-9.044-1.887-9.044-3.65
		c0-2.076,5.325-3.761,11.894-3.761C23.532,27.275,28.859,28.957,28.859,31.035z"/>
	<path id="vert" display="none" fill="#2ABF00" stroke="#1D7500" stroke-width="0.2" stroke-miterlimit="10" d="M28.859,13.581
		c0,5.434-3.896,9.991-9.14,11.194c-0.885,0.2-2.755,12.94-2.755,12.94s-1.937-12.74-2.85-12.967
		c-5.191-1.23-9.044-5.769-9.044-11.173c0-6.354,5.325-11.503,11.894-11.503S28.859,7.227,28.859,13.581z"/>
	<path id="orange" display="none" fill="#FF8500" stroke="#7F4500" stroke-width="0.2" stroke-miterlimit="10" d="M28.859,13.581
		c0,5.434-3.896,9.991-9.14,11.194c-0.885,0.2-2.755,12.94-2.755,12.94s-1.937-12.74-2.85-12.967
		c-5.191-1.23-9.044-5.769-9.044-11.173c0-6.354,5.325-11.503,11.894-11.503S28.859,7.227,28.859,13.581z"/>
	<path id="gris" display="none" fill="#A5A5A5" stroke="#595959" stroke-width="0.2" stroke-miterlimit="10" d="M28.859,13.581
		c0,5.434-3.896,9.991-9.14,11.194c-0.885,0.2-2.755,12.94-2.755,12.94s-1.937-12.74-2.85-12.967
		c-5.191-1.23-9.044-5.769-9.044-11.173c0-6.354,5.325-11.503,11.894-11.503S28.859,7.227,28.859,13.581z"/>
	<path id="bleu" fill="#0092FF" stroke="#00477C" stroke-width="0.2" stroke-miterlimit="10" d="M28.859,13.581
		c0,5.434-3.896,9.991-9.14,11.194c-0.885,0.2-2.755,12.94-2.755,12.94s-1.937-12.74-2.85-12.967
		c-5.191-1.23-9.044-5.769-9.044-11.173c0-6.354,5.325-11.503,11.894-11.503S28.859,7.227,28.859,13.581z"/>
</g>
<g id="Icons">
	<g id="Minimal">
		<path id="Election" display="none" fill="#565656" d="M32.85-4.864l-5.057-2.168c-0.149-0.063-0.327-0.021-0.426,0.108
			L25.92-5.117c-0.065,0.082-0.091,0.196-0.07,0.301c0.025,0.102,0.091,0.186,0.18,0.234l-4.534,1.701
			c-0.383,0.143-0.707,0.413-0.915,0.762l-1.501,2.501c-0.318,0.532-0.345,1.181-0.065,1.735l0.107,0.211h-1.583
			c-0.2,0-0.362,0.162-0.362,0.362v6.863h-1.083c-0.2,0-0.358,0.162-0.358,0.359c0,0.199,0.158,0.362,0.358,0.362h12.284
			c0.197,0,0.354-0.163,0.354-0.362c0-0.197-0.157-0.359-0.354-0.359h-1.085V5.863c0-0.124-0.065-0.241-0.167-0.303
			c-0.106-0.068-0.235-0.077-0.35-0.023c-0.4,0.188-0.689,0.281-0.831,0.323c-0.028,0.007-0.059,0.02-0.084,0.039l-2.352,1.408
			c-0.376,0.226-0.801,0.345-1.234,0.345c-0.801,0-1.546-0.398-2.005-1.074c-0.363-0.542-0.487-1.198-0.353-1.833
			c0.135-0.638,0.515-1.183,1.057-1.533l0.345-0.217c0.251-0.152,0.472-0.292,0.672-0.414c0.14-0.087,0.203-0.256,0.157-0.414
			c-0.091-0.289-0.241-0.547-0.38-0.744c0.552-0.242,1.297-0.672,1.673-1.108c0,0,0.005,0.003,0.007,0.003
			c0.076,0.048,0.17,0.099,0.276,0.148c0.005,0.003,0.008,0.006,0.018,0.008l0,0c0.269,0.131,0.611,0.259,1.001,0.337
			c-0.418,0.52-0.849,1.169-1.003,1.601c-0.299,0.132-0.92,0.484-2.372,1.408c-0.383,0.247-0.646,0.625-0.738,1.072
			c-0.096,0.446-0.01,0.903,0.246,1.283c0.322,0.485,0.852,0.753,1.401,0.753c0.297,0,0.594-0.079,0.862-0.24l2.483-1.491
			c0.386-0.095,2.316-0.673,3.778-3.038c1.148-1.854,1.792-3.348,2.059-4.024l0.043,0.022c0.152,0.074,0.316,0.113,0.484,0.113
			c0.275,0,0.55-0.11,0.752-0.303c0.216-0.203,0.332-0.482,0.332-0.779v-1.721C33.065-4.676,32.982-4.809,32.85-4.864z"/>
	</g>
	<g id="Faible">
		<path id="Famine" display="none" fill="#F9F9F9" d="M29.598,8.435l-2.871,0.542l-4.689-2.548l1.703-2.127l3.835,1.273
			L29.598,8.435z M34.008,3.454v0.318L30.987,4.73l-2.985,0.425l-3.835-1.275l-0.899-0.426h0.515
			c-0.124-1.141-0.289-2.005-0.367-3.136h-0.006c-0.002-0.034-0.043-0.792-0.053-1.113c-0.059-0.34-0.221-0.477-0.753-0.842
			c-0.291-0.19-0.51-0.256-0.631-0.253c-0.195,0-0.367,0.213-0.408,0.849c0.852,0.145,0.91,1.09,0.91,1.09
			c0.076,0.671-0.254,1.652-1.012,1.904c-1.406,0.469-1.262-2.235-0.471-2.884c0.022-0.779,0.24-1.494,0.98-1.523
			c0.294,0.003,0.593,0.124,0.94,0.343c0.164,0.099,0.299,0.2,0.415,0.304c-0.015-0.257-0.03-0.519-0.03-0.789
			c-0.002-0.568,0.089-1.187,0.593-1.625c0.259-0.236,0.551-0.358,0.84-0.355c0.75,0.036,1.214,0.682,1.484,1.344
			c0.317-0.138,0.71-0.205,1.164-0.048c1.155,0.401,1.773,2.411,1.292,3.113c-1.138,1.633-4.002-1.408-3.241-2.47
			c0,0,0.108-0.144,0.304-0.303c-0.223-0.586-0.669-1.109-1.003-1.073c-0.127,0.002-0.274,0.047-0.464,0.215
			c-0.317,0.28-0.403,0.679-0.403,1.203c0,0.369,0.046,0.779,0.046,1.19c0,0.214,0.015,0.404,0.02,0.61
			c0.054,0.365,0.056,0.647,0.054,1.034c0.078,1.128,0.535,2.053,0.653,3.216H34.008z M25.941-2.718l2.17,2.364
			c-0.386-1.676-1.762-2.611-1.762-2.611L25.941-2.718z M21.445-0.688l-0.391,0.159c0,0-0.192,1.321,0,2.012L21.445-0.688z
			 M19.5,7.283l1.724-1.037l1.8-2.224l-0.563-0.57H18.49l-0.788,1.574L19.5,7.283z M21.513,6.926l-3.056,2.08l0.407,0.505h7.03
			l-0.022-0.104L21.513,6.926z M15.226,3.454v2.397l1.958-1.049l0.594-1.348H15.226z M28.569,5.667l1.896,2.748l3.544,0.833V6.105
			l-2.553-0.822L28.569,5.667z M34.008,5.415V4.306l-1.987,0.539L34.008,5.415z M17.234,5.57l-2.008,0.955v2.984h1.467l2.186-1.791
			L17.234,5.57z M27.74,9.511h4.59l-2.195-0.532L27.74,9.511z"/>
		<path id="Cyclone" display="none" fill="#FFFFFF" d="M24.692-3c-0.1-0.005-0.195-0.017-0.292-0.017
			c-0.861,0-1.67,0.224-2.375,0.612c1.26-4.284,4.397-4.658,4.397-4.658s-6.934,0.579-6.934,8.668c0.005,0,0.011,0,0.015,0
			c-0.004,0.097-0.015,0.192-0.015,0.29c0,0.857,0.225,1.667,0.613,2.374c-4.285-1.26-4.659-4.395-4.659-4.395
			s0.578,6.934,8.671,6.934c0-0.006,0-0.009,0-0.017c0.094,0.005,0.19,0.017,0.289,0.017c0.861,0,1.667-0.225,2.374-0.615
			c-1.259,4.286-4.399,4.66-4.399,4.66s6.935-0.579,6.935-8.669c-0.006,0-0.011,0-0.013,0c0.002-0.097,0.013-0.191,0.013-0.287
			c0-0.862-0.224-1.671-0.616-2.374c4.286,1.256,4.661,4.395,4.661,4.395s-0.573-6.935-8.665-6.935
			C24.692-3.009,24.692-3.003,24.692-3z"/>
		<path id="tsunami" display="none" fill="#FFFFFF" d="M33.111,7.604c-14.27,0.809-10.282-10.106-6.582-9.165
			c-0.38,0.233-0.626,1.036-0.391,1.576c0.259,0.578,1.093,0.909,1.574,0.789c1.15-0.297,1.201-1.91,0.786-2.757
			c-0.429-0.881-1.564-1.969-3.541-1.969c-4.782,0-8.041,2.441-9.269,6.636v6.169h17.424V7.602h-0.002V7.604z"/>
		<path id="earthquake" display="none" fill="#FFFFFF" d="M29.479,2.435c-0.246,0-0.469,0.135-0.583,0.352l-0.953,1.792L26.77,1.144
			c-0.092-0.261-0.33-0.436-0.604-0.449c-0.281-0.006-0.524,0.151-0.636,0.405l-0.801,1.91l-1.271-7.606
			c-0.061-0.318-0.357-0.559-0.666-0.542c-0.324,0.007-0.596,0.222-0.639,0.545l-1.123,8.827l-0.91-4.736
			c-0.05-0.278-0.279-0.492-0.562-0.532c-0.28-0.04-0.561,0.113-0.684,0.368l-1.488,3.103h-2.312v1.322h2.729
			c0.253,0,0.487-0.146,0.598-0.374l0.797-1.666l1.292,6.719c0.062,0.313,0.332,0.539,0.649,0.539c0.005,0,0.013,0,0.018,0
			c0.324-0.009,0.596-0.253,0.639-0.573l1.104-8.675l0.923,5.709c0.056,0.288,0.289,0.506,0.58,0.54
			c0.294,0.027,0.568-0.132,0.685-0.403l0.993-2.358l1.105,3.237c0.083,0.25,0.307,0.426,0.57,0.448
			c0.264,0.015,0.515-0.116,0.639-0.35l1.479-2.793h2.839V2.435H29.479z"/>
	</g>
	<g id="Modéré">
	</g>
	<g id="Important">
	</g>
	<g id="Elevé">
	</g>
	<g id="Extreme" display="none">
		<path id="rebelion" display="inline" fill="#FFFFFF" d="M27.102-2.756c0,1.595-1.29,2.882-2.882,2.882
			c-1.595,0-2.885-1.292-2.885-2.882c0-1.595,1.29-2.883,2.885-2.883C25.812-5.639,27.102-4.351,27.102-2.756z M19.406,9.473h1.762
			h0.094l0.063-0.134l0.642-0.627l-0.591-0.125l-0.936-0.201L19.406,9.473z M31.468-2.221L30.85-1.602l0.043,0.042l-0.499,0.504
			c0.065,0.061,0.132,0.124,0.188,0.194l0.502-0.503l0.104,0.093l0.611-0.622L31.468-2.221z M27.49,0.978l-0.267,0.263l0.028,0.076
			l0.061,0.141L23.11,5.674l0.451,0.097c0.416,0.087,0.773,0.336,1.006,0.695c0.031,0.051,0.038,0.113,0.066,0.167l0.013-0.016
			l0.312,0.205l0.109-0.023l1.227,0.888l0.823-1.128l-1.824-1.425l0.038-0.119h0.301l1.795-2.103l0.197-1.884L27.49,0.978z
			 M29.441-0.887c-0.542-0.06-1.074,0.348-1.138,0.912L28.235,0.64l0,0l-0.041,0.444l-0.2,1.887l-0.021,0.175l-0.111,0.136
			l-1.604,1.881l1.207,0.947L27.9,6.45l-0.253,0.345l0.065,0.127c0.167,0.361,0.535,0.586,0.93,0.586
			c0.057,0,0.112-0.001,0.173-0.014c0.451-0.078,0.801-0.446,0.849-0.902l0.688-6.343C30.414-0.318,30.003-0.829,29.441-0.887z
			 M27.342,7.214l-0.588,0.811l-0.337,0.462l-0.461-0.336l-1.014-0.734l-0.092,0.022l-0.038-0.025c0,0.087-0.002,0.17-0.021,0.259
			c-0.02,0.084-0.051,0.162-0.083,0.241c-0.063,0.149-0.145,0.279-0.243,0.401l0.07,0.163c0.071,0.161,0.17,0.373,0.289,0.554
			l0.284,0.441h2.167L27.342,7.214z M23.224,8.94c-0.025,0-0.051-0.007-0.076-0.01c-0.01,0.047-0.018,0.081-0.018,0.081l0.243,0.46
			h0.586l0.38-0.133c-0.13-0.2-0.233-0.417-0.33-0.634C23.774,8.842,23.513,8.94,23.224,8.94z M24.071,6.757
			c-0.041-0.064-0.104-0.115-0.165-0.167c-0.03-0.032-0.061-0.076-0.102-0.102c-0.106-0.075-0.232-0.131-0.364-0.162l-0.451-0.091
			l-1.024-0.22l0,0l-0.907-0.193l-0.353-0.074L20.121,5.62l-0.035-0.006l0.089-0.095l0.396-0.389l0.418-0.423
			c0.035,0.291,0.051,0.519,0.051,0.525l0.137,0.028l1.272,0.271l0.259-0.263l3.933-3.95l-0.086-0.221l0.033-0.026
			c-0.57-0.173-1.242-0.27-2.089-0.27h-0.276c0,0-0.273,0-0.275,0c-0.594,0-1.194,0.04-1.782,0.171
			c-1.006,0.226-1.632,1.213-2.322,1.892c-0.711,0.7-1.401,1.429-2.093,2.148c-0.153,0.161-0.307,0.326-0.464,0.485
			c-0.268,0.267-0.364,0.658-0.257,1.022c0.104,0.363,0.404,0.635,0.774,0.718l1.359,0.291l0.576,0.122l3.271,0.697
			c0.074,0.011,0.147,0.023,0.216,0.023c0.477,0,0.902-0.332,1.006-0.815c0.041-0.191,0.011-0.37-0.045-0.541l-0.066-0.131
			C24.101,6.846,24.088,6.807,24.071,6.757z M22.625,9.275l-0.099-0.187l0.051-0.208l0.011-0.041l-0.16-0.034L21.853,9.47h0.877
			L22.625,9.275z"/>
	</g>
	<path id="displaced" display="none" fill="#FFFFFF" d="M25.391-5.246c0.14,0.891-0.459,1.726-1.341,1.869
		c-0.887,0.147-1.729-0.454-1.873-1.337c-0.145-0.888,0.454-1.729,1.344-1.873C24.403-6.73,25.241-6.13,25.391-5.246z M24.881,1.208
		l1.439,2.299c0.206,0.325,0.626,0.428,0.956,0.238c0.332-0.199,0.445-0.618,0.264-0.953l-0.368-0.66
		c-0.319-0.564-0.631-1.134-0.945-1.701l-0.639-1.163c-0.073-0.138-0.145-0.29-0.223-0.449c-0.393-0.829-1.009-2.11-2.362-1.995
		c-1.158,0.101-2.334,0.651-3.49,1.633c-1.369,1.08-2.325,2.648-2.362,2.716c-0.045,0.067-0.087,0.14-0.122,0.205
		c-0.004,0.002-0.004,0.004-0.006,0.006l0,0c-0.129,0.241-0.192,0.463-0.032,0.747c0.127,0.22,0.361,0.356,0.615,0.356
		c0.312,0,0.467-0.146,0.62-0.363l0,0c0.002,0,0.002-0.006,0.002-0.006c0.043-0.063,0.082-0.133,0.133-0.205
		c0.008-0.013,0.811-1.303,2.053-2.361c0.383-0.302,0.747-0.508,1.09-0.623l-0.281,3.35c-0.028,0.331-0.132,0.904-0.221,1.223
		l-0.623,2.183c-0.084,0.276-0.314,0.734-0.498,0.956l-1.684,2.086c-0.212,0.265-0.453,0.564-0.255,0.979
		c0.118,0.246,0.365,0.404,0.639,0.404c0.324,0,0.502-0.187,0.72-0.426l1.704-1.837c0.304-0.33,0.701-0.898,0.896-1.3l0.847-1.719
		l3.125,5.25c0.152,0.258,0.348,0.583,0.768,0.583l0,0c0.246,0,0.467-0.125,0.594-0.326c0.228-0.347,0.078-0.663-0.051-0.949
		l-2.527-5.489c-0.099-0.217-0.154-0.654-0.111-0.89L24.881,1.208z M27.53,6.92h3.789v1.125l3.759-2.173l-3.759-2.172v1.125H27.53
		V6.92z"/>
	<path id="epidemie" display="none" fill="#FFFFFF" d="M31.843,2.62c0-4.08-3.195-7.399-7.221-7.605
		c1.779,0.168,3.163,1.46,3.163,3.03c0,0.54-0.177,1.037-0.464,1.477c-0.795-0.792-1.888-1.279-3.097-1.279
		c-1.206,0-2.296,0.486-3.087,1.276c-0.286-0.438-0.464-0.936-0.464-1.476c0-1.567,1.382-2.86,3.158-3.029
		C19.807-4.78,16.61-1.459,16.61,2.62c0,1.23,0.3,2.391,0.816,3.421c-0.708-1.612-0.279-3.423,1.063-4.198
		c0.47-0.27,0.994-0.366,1.512-0.336c-0.097,0.359-0.163,0.733-0.163,1.124c0,2.026,1.385,3.718,3.252,4.222
		c-0.025,0.044-0.056,0.084-0.081,0.127c0,0.003,0,0.003,0,0.011c-0.061,0.139-0.139,0.25-0.232,0.348
		c-0.2,0.262-0.434,0.496-0.73,0.667c-1.351,0.779-3.146,0.239-4.181-1.196c1.363,2.069,3.702,3.438,6.36,3.438
		c2.636,0,4.957-1.34,6.328-3.376c-1.044,1.39-2.806,1.901-4.134,1.138c-0.471-0.275-0.815-0.685-1.051-1.16
		c1.867-0.504,3.243-2.198,3.243-4.219c0-0.39-0.065-0.764-0.164-1.123c0.529-0.034,1.052,0.062,1.522,0.334
		c1.306,0.752,1.749,2.48,1.123,4.056C31.573,4.903,31.843,3.794,31.843,2.62z M25.036,5.555c-0.031-0.635,0.101-1.3,0.42-1.93
		l-0.509-0.292c-0.183,0.188-0.437,0.304-0.723,0.304c-0.281,0-0.537-0.116-0.72-0.304l-0.499,0.286
		c0.319,0.633,0.453,1.304,0.415,1.939c-1.284-0.352-2.242-1.526-2.242-2.925c0-0.269,0.043-0.521,0.108-0.767
		c0.563,0.284,1.075,0.728,1.465,1.314l0.51-0.297c-0.022-0.087-0.054-0.169-0.054-0.264c0-0.471,0.325-0.851,0.764-0.966V1.076
		c-0.708-0.047-1.349-0.266-1.881-0.613c0.553-0.542,1.303-0.875,2.134-0.875s1.587,0.336,2.137,0.878
		c-0.535,0.348-1.174,0.565-1.881,0.61v0.58c0.437,0.115,0.761,0.495,0.761,0.966c0,0.095-0.028,0.175-0.049,0.264l0.515,0.301
		c0.388-0.586,0.9-1.028,1.458-1.312c0.063,0.241,0.105,0.495,0.105,0.756C27.271,4.027,26.323,5.197,25.036,5.555z"/>
	<path id="enlevement" display="none" fill="#FFFFFF" d="M30.578-6.486c-0.471,0-0.856,0.386-0.856,0.86v3.5
		c0.208,0.046,0.405,0.133,0.565,0.289c0.453,0.446,0.464,1.18,0.022,1.636l-1.63,1.674l-0.226-0.219l1.635-1.668
		c0.327-0.339,0.319-0.875-0.018-1.207c-0.104-0.099-0.228-0.167-0.357-0.205c-0.145-0.039-0.289-0.042-0.431-0.012
		c-0.157,0.042-0.299,0.121-0.408,0.24c-0.966,0.991-1.936,1.981-2.901,2.974c-0.243,0.249-0.685,0.817-0.672,1.385
		c0.008,0.533-0.008,1.081,0.003,1.617c-0.13-0.101-0.281-0.176-0.454-0.209c-0.499-0.082-0.948,0.215-1.12,0.66H23.48
		c0-0.123,0-0.244,0.003-0.366c0.01-0.56-0.011-1.139,0.005-1.701c0.01-0.568-0.431-1.137-0.677-1.386
		c-0.966-0.992-1.932-1.982-2.902-2.976c-0.11-0.116-0.25-0.198-0.409-0.237c-0.143-0.03-0.288-0.027-0.43,0.012
		c-0.132,0.039-0.256,0.107-0.36,0.208c-0.332,0.328-0.34,0.865-0.014,1.207l1.632,1.666l-0.226,0.219l-1.628-1.674
		c-0.445-0.457-0.434-1.19,0.021-1.634c0.159-0.155,0.357-0.244,0.565-0.289v-3.5c0-0.474-0.387-0.86-0.858-0.86
		c-0.475,0-0.859,0.386-0.859,0.86v6.059c0,0.198,0.081,0.379,0.198,0.527l2.925,3.865h-0.258c-0.568,0-1.035,0.462-1.035,1.036
		c0,0.379,0.214,0.697,0.518,0.876c-0.304,0.179-0.518,0.5-0.518,0.875c0,0.573,0.463,1.038,1.035,1.038h0.313v0.575h2.874
		c0.152,0.151,0.327,0.259,0.538,0.295c0.058,0.009,0.113,0.014,0.172,0.014c0.505,0,0.936-0.359,1.019-0.859l0.003-0.026h0.185
		c0.003,0.19,0,0.377,0.023,0.575h2.922V8.651h0.319c0.567,0,1.034-0.462,1.034-1.038c0-0.376-0.216-0.696-0.522-0.875
		c0.307-0.179,0.522-0.497,0.522-0.878c0-0.571-0.464-1.034-1.034-1.034h-0.261l2.927-3.867c0.119-0.147,0.198-0.328,0.198-0.527
		v-6.056C31.438-6.1,31.055-6.486,30.578-6.486z M19.692,5.86c0-0.286,0.235-0.515,0.517-0.515h3.391l-0.18,1.034h-3.211
		C19.924,6.375,19.692,6.147,19.692,5.86z M19.692,7.614c0-0.283,0.235-0.518,0.517-0.518h3.087l-0.178,1.037h-2.909
		C19.924,8.133,19.692,7.902,19.692,7.614z M24.613,8.588c-0.043,0.285-0.34,0.468-0.596,0.426c-0.137-0.024-0.253-0.099-0.334-0.21
		c-0.084-0.114-0.111-0.252-0.089-0.387l0.57-3.314c0.043-0.25,0.261-0.431,0.517-0.431c0.025,0,0.056,0,0.081,0.006
		c0.281,0.048,0.469,0.315,0.421,0.597L24.613,8.588z M29.091,7.614c0,0.286-0.233,0.518-0.515,0.518h-3.358l0.181-1.037h3.178
		C28.858,7.099,29.091,7.331,29.091,7.614z M29.091,5.86c0,0.286-0.233,0.515-0.515,0.515h-3.054l0.175-1.012
		c0.002-0.008,0-0.014,0-0.021h2.876C28.858,5.344,29.091,5.577,29.091,5.86z"/>
	<path id="eruption" display="none" fill="#FFFFFF" d="M25.766-1.445c1.031,0.352,2.402,0.768,2.694-0.898
		c0.232-1.296,1.961-0.815,2.696-0.896c1.338-0.155,0.327-2.661-1.349-2.698c-1.697-0.038-2.468,0.706-3.143,2.247
		c-0.324,0.741-0.598,1.297-1.797,0.899c-1.198-0.401-2.078,0.583-1.351,1.797c0.646,1.073-0.01,2.244-0.01,2.244h1.812
		c0,0-0.015-0.666-0.451-1.347C24.36-0.891,24.709-1.81,25.766-1.445z M16.192,9.731c4.649-3.385,5.811-8.071,5.811-8.071h4.777
		c0,0,1.161,4.683,5.809,8.071H16.192z"/>
	<path id="returned" display="none" fill="#FFFFFF" d="M23.908-4.457c0.119,0.732-0.381,1.424-1.107,1.544
		c-0.732,0.121-1.422-0.377-1.544-1.107c-0.119-0.733,0.373-1.423,1.11-1.544C23.092-5.684,23.789-5.19,23.908-4.457z M23.49,0.87
		l1.189,1.901c0.164,0.264,0.517,0.352,0.79,0.192c0.269-0.161,0.362-0.509,0.211-0.785l-0.3-0.546
		c-0.261-0.465-0.517-0.936-0.777-1.404l-0.53-0.962c-0.063-0.108-0.121-0.235-0.185-0.366c-0.327-0.685-0.837-1.744-1.951-1.646
		c-0.956,0.081-1.924,0.535-2.879,1.346c-1.128,0.892-1.92,2.187-1.955,2.24c-0.034,0.058-0.068,0.116-0.099,0.173
		C17.001,1.015,17,1.015,17,1.017l0,0c-0.106,0.2-0.159,0.383-0.027,0.615c0.103,0.184,0.296,0.298,0.509,0.298
		c0.254,0,0.384-0.12,0.508-0.302l0,0c0.003-0.002,0.003-0.002,0.003-0.002c0.035-0.056,0.069-0.113,0.107-0.175
		c0.008-0.01,0.672-1.073,1.697-1.948c0.316-0.247,0.615-0.418,0.898-0.513l-0.228,2.766c-0.022,0.276-0.109,0.747-0.185,1.012
		l-0.513,1.801c-0.068,0.228-0.262,0.605-0.412,0.789L17.969,7.08c-0.176,0.219-0.373,0.466-0.209,0.811
		c0.097,0.2,0.301,0.331,0.525,0.331c0.269,0,0.413-0.154,0.598-0.352l1.406-1.517c0.253-0.272,0.577-0.742,0.737-1.076l0.697-1.418
		l2.582,4.335c0.127,0.214,0.289,0.48,0.639,0.48l0,0c0.198,0,0.383-0.101,0.492-0.272c0.185-0.284,0.061-0.542-0.044-0.777
		l-2.088-4.534c-0.081-0.175-0.127-0.539-0.094-0.734L23.49,0.87z M32.178,1.836c0-1.893-1.541-3.43-3.429-3.43h-1.458v1.731h1.455
		c0.936,0,1.695,0.759,1.695,1.699c0,0.937-0.76,1.699-1.695,1.699h-0.302v-0.93l-3.107,1.795l3.107,1.794V5.264h0.34V5.262
		C30.657,5.243,32.178,3.717,32.178,1.836z"/>
	<path id="Attack" display="none" fill="#FFFFFF" d="M28.389,3.072l5.104-3.269l-4.933-0.524L29.9-6.453l-3.498,3.616l-0.976-4.084
		l-1.467,3.813l-3.997-5.15l1.257,6.453l-3.554-0.79c0,0,1.08,2.067,1.682,3.312l-5.701-0.399l5.16,3.018l-1.481,1.523l2.4-0.438
		l-1.701,6.013l5.053-4.226l1.311,3.266l1.346-2.612l4.359,4.499l-2.18-6.023L32.69,5.82L28.389,3.072z"/>
	<g id="affected" display="none">
		<path display="inline" fill="#FFFFFF" d="M20.32-4.896c0,0.741-0.604,1.339-1.342,1.339s-1.343-0.601-1.343-1.339
			s0.602-1.337,1.343-1.337C19.718-6.233,20.32-5.636,20.32-4.896z M19.117,4.278l0.292,4.944c0,0.173,0.142,0.314,0.31,0.314
			c0.175,0,0.319-0.143,0.319-0.314l0.266-4.942h0.875l-0.902-5.546l1.816,3.623c0.069,0.161,0.254,0.235,0.414,0.169
			c0.159-0.068,0.237-0.251,0.169-0.412c0,0-1.333-3.606-1.665-4.277c-0.329-0.674-0.653-1.083-1.906-1.083H18.85
			c-1.249,0-1.577,0.407-1.904,1.082c-0.328,0.675-1.663,4.278-1.663,4.278c-0.068,0.163,0.006,0.344,0.166,0.416
			c0.161,0.067,0.343-0.01,0.413-0.169l1.817-3.624l-0.903,5.542h0.873l0.272,4.941c0,0.174,0.141,0.314,0.311,0.314
			c0.178,0,0.318-0.143,0.318-0.314l0.271-4.941H19.117L19.117,4.278z M29.803-6.24c-0.74,0-1.343,0.601-1.343,1.339
			c0,0.741,0.598,1.341,1.343,1.341c0.735,0,1.338-0.601,1.338-1.341C31.141-5.639,30.538-6.24,29.803-6.24z M31.19,1.646
			l0.086-2.915l1.643,3.625c0.063,0.161,0.251,0.235,0.41,0.168c0.165-0.069,0.241-0.251,0.175-0.413c0,0-1.158-3.605-1.487-4.276
			c-0.327-0.671-0.834-1.081-2.084-1.081h-0.258c-1.25,0-1.759,0.407-2.086,1.081c-0.324,0.671-1.482,4.274-1.482,4.274
			c-0.071,0.164,0.005,0.344,0.164,0.416c0.157,0.068,0.351-0.007,0.411-0.168l1.645-3.625l0.084,2.915l-0.259,7.326
			c-0.016,0.29,0.203,0.541,0.489,0.562c0.016,0.002,0.03,0.002,0.04,0.002c0.271,0,0.51-0.213,0.527-0.489l0.594-6.032l0.595,6.032
			c0.021,0.279,0.251,0.489,0.522,0.489c0.016,0,0.03,0,0.038-0.002c0.291-0.022,0.51-0.272,0.491-0.562L31.19,1.646L31.19,1.646z
			 M24.39,1.908c-0.456,0-0.826,0.365-0.826,0.82c0,0.453,0.367,0.818,0.826,0.818c0.453,0,0.818-0.365,0.818-0.818
			C25.208,2.273,24.841,1.908,24.39,1.908z M24.39,6.746c0,0,0.367,2.568,0.367,2.57c0.051,0.129,0.167,0.217,0.316,0.217
			c0.147,0,0.271-0.099,0.317-0.231c0-0.01,0.008-0.16,0-0.187l-0.154-3.159l0.053-1.086c0.041-0.368,0.046-0.258,0.469-0.508
			c0.429-0.258,1.156-1.386,1.188-1.442c0.038-0.056,0.106-0.155,0.119-0.221c0.021-0.112-0.056-0.218-0.17-0.244
			c-0.083-0.015-0.154,0.031-0.21,0.089c-0.059,0.064-0.895,1.181-1.523,1.286c-0.142-0.022-0.291-0.095-0.696-0.095h-0.155
			c-0.402,0-0.552,0.074-0.694,0.095c-0.628-0.106-1.467-1.222-1.528-1.286c-0.051-0.057-0.121-0.104-0.208-0.089
			c-0.111,0.028-0.189,0.134-0.164,0.247c0.01,0.062,0.076,0.162,0.111,0.22c0.038,0.055,0.766,1.184,1.193,1.442
			c0.419,0.25,0.432,0.14,0.469,0.508l0.049,1.086L23.389,9.12c-0.008,0.027,0,0.178,0.005,0.185
			c0.043,0.133,0.164,0.231,0.314,0.231c0.142,0,0.264-0.088,0.307-0.217C24.02,9.317,24.39,6.746,24.39,6.746"/>
	</g>
	<g id="foodsec" display="none">
		<path display="inline" fill="#FFFFFF" d="M33.521,3.176L33.521,3.176c-0.048,1.312-0.494,2.734-1.184,4.047
			c0,0-1.637,3.317-6.779,3.317c-5.149,0-6.815-3.29-6.815-3.29c-0.69-1.319-1.105-2.734-1.159-4.077h0.002
			c0-0.034-0.002-0.069-0.002-0.104c0-0.63,0.392-1.222,1.063-1.729l0.716,0.458c-0.444,0.297-0.699,0.63-0.699,0.982
			c0,1.245,3.087,2.252,6.896,2.252c3.802,0,6.884-1.008,6.884-2.252c0-0.859-1.476-1.606-3.649-1.985l0.013-0.905
			c2.777,0.545,4.719,1.759,4.719,3.179C33.527,3.105,33.524,3.139,33.521,3.176z M20.234-2.177
			c-0.028,0.208-0.062,0.547,0.197,1.008c0.322,0.554,0.735,0.75,0.867,0.843c-0.021-0.144,0.018-0.572-0.284-1.095
			c-0.261-0.465-0.545-0.674-0.715-0.835c-0.474-0.686-1.013-1.238-1.423-1.67L17.901-4.94c0,0,0.354,0.406,0.936,1.047
			C19.24-3.443,19.768-2.874,20.234-2.177z M22.674,3.184c0.205,0.194,0.469,0.515,1.057,0.842c0.656,0.366,1.212,0.366,1.396,0.41
			c-0.104-0.172-0.316-0.713-1.042-1.116c-0.596-0.328-1.039-0.265-1.313-0.218c-0.897-0.524-1.668-1.06-2.289-1.441
			c-0.886-0.546-1.461-0.827-1.459-0.827c-0.002,0,0.557,0.306,1.427,0.881C21.049,2.111,21.786,2.654,22.674,3.184z M23.201,0.323
			c-0.074,0.242-0.175,0.635,0.056,1.21c0.271,0.703,0.732,0.999,0.866,1.127c0.008-0.17,0.127-0.658-0.132-1.319
			c-0.228-0.589-0.527-0.88-0.696-1.098c-0.444-0.88-0.989-1.611-1.404-2.18L20.895-3.28l0.942,1.372
			C22.24-1.319,22.77-0.567,23.201,0.323z M21.529,1.752c0.197,0.179,0.453,0.476,1.006,0.768c0.623,0.325,1.138,0.312,1.311,0.347
			c-0.104-0.153-0.317-0.652-0.996-1.011c-0.563-0.293-0.974-0.229-1.229-0.183c-0.841-0.471-1.568-0.955-2.152-1.305
			c-0.835-0.497-1.377-0.748-1.372-0.75C18.09-0.377,18.619-0.1,19.434,0.424C19.995,0.78,20.697,1.277,21.529,1.752z M20.337,0.346
			c0.183,0.162,0.423,0.432,0.94,0.69c0.58,0.294,1.06,0.272,1.219,0.302c-0.099-0.144-0.304-0.594-0.94-0.914
			c-0.52-0.264-0.902-0.197-1.135-0.151c-0.788-0.425-1.47-0.863-2.014-1.183c-0.78-0.452-1.283-0.681-1.281-0.684
			c-0.002,0.002,0.489,0.256,1.253,0.73C18.902-0.532,19.56-0.084,20.337,0.346z M19.121-1.705c0.346,0.311,0.678,0.33,0.866,0.391
			c-0.038-0.152-0.005-0.528-0.405-0.88c-0.336-0.292-0.681-0.315-0.854-0.331c-1.399-1.2-2.644-1.967-2.928-2.152l-0.062-0.042
			c-0.013,0.01,1.354,0.909,2.957,2.314C18.747-2.23,18.839-1.943,19.121-1.705z M19.096-1.04c0.175,0.145,0.396,0.389,0.876,0.622
			c0.535,0.266,0.979,0.24,1.128,0.263c-0.096-0.128-0.291-0.536-0.879-0.825c-0.485-0.232-0.834-0.174-1.05-0.131
			c-0.73-0.377-1.356-0.784-1.866-1.067c-0.721-0.413-1.187-0.618-1.187-0.618s0.459,0.226,1.16,0.663
			C17.768-1.841,18.375-1.432,19.096-1.04z M21.756-0.966c-0.051,0.225-0.113,0.593,0.132,1.109
			c0.299,0.632,0.737,0.872,0.877,0.988c-0.01-0.157,0.061-0.615-0.215-1.211c-0.251-0.526-0.545-0.78-0.713-0.964
			c-0.466-0.784-1.003-1.427-1.422-1.929l-0.99-1.176l0.942,1.208C20.776-2.424,21.303-1.76,21.756-0.966z M27.259,0.379
			c-0.155,0.154-0.406,0.411-0.482,0.946c-0.096,0.649,0.117,1.059,0.165,1.218c0.076-0.13,0.38-0.454,0.472-1.063
			c0.081-0.545-0.016-0.89-0.051-1.124c0.048-0.854-0.051-1.639-0.124-2.244c-0.106-0.883-0.183-1.433-0.183-1.433l0.132,1.433
			C27.239-1.271,27.317-0.478,27.259,0.379z M26.754-1.076c-0.14,0.155-0.35,0.408-0.388,0.905c-0.048,0.607,0.175,0.975,0.23,1.119
			c0.059-0.125,0.324-0.445,0.37-1.016c0.038-0.509-0.073-0.822-0.122-1.039c-0.005-0.789-0.139-1.508-0.24-2.063l-0.243-1.313
			l0.2,1.315C26.643-2.598,26.757-1.871,26.754-1.076z M26.166-2.5c-0.114,0.149-0.291,0.398-0.297,0.859
			c-0.01,0.562,0.224,0.885,0.284,1.014c0.046-0.121,0.266-0.432,0.273-0.958c0.006-0.474-0.113-0.75-0.17-0.947
			c-0.063-0.727-0.223-1.376-0.35-1.881l-0.296-1.194l0.251,1.199C25.969-3.893,26.12-3.23,26.166-2.5z M27.198,4.157
			c0.094-0.132,0.446-0.456,0.591-1.105c0.127-0.575,0.043-0.955,0.025-1.211c0.102-0.917,0.048-1.766,0.01-2.418
			C27.76-1.534,27.709-2.13,27.709-2.13l0.049,1.55c0.025,0.665,0.058,1.521-0.062,2.438c-0.18,0.158-0.458,0.415-0.582,0.982
			C26.962,3.529,27.162,3.981,27.198,4.157z M24.276-3.436c0.073,0.162,0.145,0.42,0.41,0.748c0.294,0.375,0.619,0.497,0.72,0.564
			c-0.022-0.125-0.018-0.486-0.342-0.896c-0.269-0.332-0.54-0.404-0.71-0.442c-0.393-0.524-0.701-1.024-0.968-1.399
			c-0.372-0.544-0.642-0.847-0.639-0.848c-0.003,0.001,0.248,0.318,0.604,0.868C23.596-4.463,23.89-3.958,24.276-3.436z
			 M24.524-3.914c0.147,0.342,0.375,0.468,0.492,0.571c0.021-0.123,0.177-0.389,0.018-0.778c-0.137-0.326-0.38-0.457-0.505-0.524
			c-0.582-1.347-1.206-2.32-1.348-2.55l-0.03-0.051c-0.013,0.005,0.656,1.119,1.315,2.678C24.443-4.425,24.407-4.185,24.524-3.914z
			 M25.112-1.188c0.314,0.405,0.669,0.55,0.776,0.625c-0.019-0.139-0.008-0.538-0.355-0.982c-0.286-0.365-0.58-0.444-0.768-0.488
			c-0.421-0.571-0.758-1.118-1.037-1.533c-0.402-0.59-0.679-0.924-0.679-0.925c0,0,0.261,0.35,0.641,0.95
			c0.264,0.414,0.578,0.96,0.989,1.538C24.757-1.828,24.833-1.551,25.112-1.188z M25.494-3.893
			c-0.094,0.147-0.235,0.381-0.213,0.804c0.038,0.516,0.267,0.794,0.33,0.906c0.032-0.11,0.215-0.412,0.183-0.897
			c-0.025-0.428-0.157-0.675-0.221-0.851c-0.1-0.656-0.294-1.243-0.437-1.692l-0.345-1.069c0,0,0.106,0.413,0.302,1.08
			C25.224-5.151,25.406-4.558,25.494-3.893z M25.043-0.58c0.081,0.197,0.157,0.497,0.454,0.893c0.332,0.442,0.707,0.604,0.823,0.69
			c-0.018-0.15,0.003-0.583-0.359-1.074c-0.299-0.401-0.618-0.488-0.821-0.536c-0.443-0.627-0.796-1.221-1.093-1.672
			c-0.428-0.642-0.729-1.005-0.729-1.008c0,0.003,0.281,0.382,0.685,1.036C24.281-1.8,24.611-1.206,25.043-0.58z M20.725,3.339
			c0,0.002,0.494,0.28,1.262,0.824c0.057,0.01,0.106,0.023,0.168,0.035C21.287,3.625,20.725,3.339,20.725,3.339z M26.865,4.418
			c-0.111-0.176-0.233-0.312-0.352-0.413c-0.041-0.11-0.081-0.214-0.127-0.306c0.258,0.267,0.504,0.398,0.596,0.472
			c0-0.009,0-0.026,0-0.042c0.03,0.102,0.056,0.209,0.091,0.318c0.051-0.002,0.102-0.007,0.149-0.01
			c-0.091-0.309-0.192-0.608-0.299-0.892c-0.041-0.154-0.102-0.317-0.203-0.499c-0.096-0.221-0.192-0.436-0.288-0.64
			c0.118,0.081,0.212,0.134,0.261,0.169c-0.013-0.161,0.022-0.629-0.357-1.164c-0.226-0.314-0.461-0.454-0.661-0.529l-0.604-1.177
			c0,0,0.197,0.43,0.537,1.154c-0.053-0.016-0.102-0.031-0.142-0.042c-0.464-0.683-0.834-1.328-1.146-1.812
			c-0.446-0.696-0.766-1.092-0.764-1.092c0,0.002,0.3,0.41,0.721,1.118c0.291,0.488,0.633,1.132,1.084,1.814
			c0.081,0.21,0.157,0.536,0.464,0.968c0.145,0.203,0.297,0.35,0.438,0.462c0.051,0.118,0.106,0.241,0.162,0.371
			c-0.261-0.264-0.527-0.345-0.702-0.398c-0.053-0.079-0.099-0.158-0.146-0.234c-0.302-0.645-0.621-1.211-0.893-1.685
			c-0.595-1.036-0.98-1.671-0.978-1.671l0.907,1.701c0.07,0.127,0.139,0.268,0.215,0.408c-0.099-0.17-0.192-0.331-0.281-0.477
			c-0.461-0.751-0.796-1.172-0.796-1.175c0,0.003,0.307,0.441,0.745,1.207c0.256,0.452,0.558,1.025,0.923,1.646
			c0.167,0.362,0.319,0.746,0.456,1.151c-0.035,0.081-0.083,0.184-0.116,0.306c-0.408-0.699-0.743-1.348-1.042-1.848
			c-0.094-0.166-0.185-0.31-0.264-0.446c-0.375-0.77-0.803-1.43-1.15-1.961c-0.601-0.932-0.991-1.505-0.991-1.505l0.931,1.534
			c0.4,0.659,0.92,1.506,1.322,2.489c-0.091,0.256-0.232,0.671-0.027,1.306c0.246,0.773,0.715,1.124,0.854,1.275
			c0.013-0.171,0.157-0.641-0.013-1.305c0.106,0.2,0.216,0.406,0.34,0.619c-0.048,0.239-0.061,0.541,0.036,0.921
			c0.377-0.002,0.76-0.014,1.13-0.039C26.881,4.446,26.876,4.434,26.865,4.418z M21.448,2.979c-0.936-0.601-1.548-0.901-1.547-0.903
			c-0.001,0,0.591,0.332,1.506,0.958c0.532,0.368,1.179,0.851,1.919,1.345c0.094,0.011,0.188,0.02,0.278,0.028
			C22.77,3.883,22.043,3.361,21.448,2.979z M28.189,3.351c0.178-0.972,0.159-1.888,0.159-2.592l-0.027-1.67
			c0,0-0.018,0.638-0.028,1.665c-0.022,0.717-0.035,1.636-0.226,2.608c-0.205,0.156-0.514,0.416-0.691,1.009
			c-0.008,0.019-0.01,0.036-0.016,0.056c0.269-0.027,0.532-0.056,0.786-0.092C28.232,3.896,28.194,3.576,28.189,3.351z"/>
	</g>
	<g id="funding" display="none">
		<path display="inline" fill="#FFFFFF" d="M30.49-4.592l-2.204,2.055h-7.951l-2.206-2.055c0,0,1.1-1.535,2.906-1.737
			c1.769-0.197,2.385,0.889,3.274,0.936c0.887-0.047,1.503-1.131,3.271-0.936C29.393-6.126,30.49-4.592,30.49-4.592z M24.615,5.266
			v1.55c0.235-0.039,0.426-0.129,0.572-0.276c0.147-0.15,0.218-0.322,0.218-0.519c0-0.176-0.063-0.33-0.188-0.457
			C25.099,5.436,24.897,5.338,24.615,5.266z M23.323,3.282c0,0.143,0.051,0.27,0.149,0.391c0.102,0.122,0.254,0.219,0.456,0.293
			V2.592c-0.185,0.051-0.332,0.143-0.438,0.27C23.378,2.99,23.323,3.128,23.323,3.282z M31.83,8.61c0,0-0.481,1.835-2.687,1.835
			h-9.665c-2.208,0-2.688-1.835-2.688-1.835c-1.441-6.37,2.948-9.826,2.948-9.826h9.145C28.883-1.215,33.27,2.24,31.83,8.61z
			 M26.562,5.879c0-0.432-0.137-0.781-0.411-1.056c-0.271-0.275-0.782-0.494-1.535-0.67V2.602c0.302,0.107,0.491,0.324,0.564,0.635
			l1.189-0.131c-0.079-0.396-0.269-0.713-0.563-0.947c-0.296-0.236-0.694-0.38-1.19-0.432V1.333h-0.688v0.393
			c-0.539,0.047-0.971,0.216-1.295,0.509c-0.327,0.297-0.486,0.661-0.486,1.095c0,0.432,0.142,0.794,0.431,1.098
			c0.286,0.297,0.74,0.521,1.351,0.67V6.76c-0.167-0.067-0.321-0.179-0.458-0.333c-0.14-0.155-0.233-0.338-0.284-0.547L21.959,5.99
			c0.097,0.521,0.31,0.925,0.651,1.209c0.34,0.288,0.78,0.458,1.323,0.514v0.722h0.684V7.695c0.611-0.073,1.093-0.275,1.435-0.603
			C26.392,6.762,26.562,6.356,26.562,5.879z"/>
	</g>
	<g id="Education" display="none">
		<path display="inline" fill="#FFFFFF" d="M24.4-3.101c-0.644-0.62-4.364-2.769-9.453-0.58c0,0.031,0,0.642,0,1.566V8.343h7.709
			c0.264,0.226,0.895,0.388,1.629,0.388c0.738,0,1.371-0.16,1.633-0.388h7.752V-2.111c0-0.926,0-1.535,0-1.566
			C28.797-5.829,24.894-3.554,24.4-3.101z M23.71,7.597c0-0.411-3.619-2.821-7.796-0.193V-2.792
			c0.826-0.477,1.942-0.765,3.168-0.765c2.558,0,4.628,0.837,4.628,2.396V7.597z M32.763,7.405c-4.177-2.628-7.79-0.218-7.79,0.193
			V-1.16c0-1.554,2.065-2.394,4.625-2.394c1.222,0,2.339,0.292,3.163,0.764V7.405H32.763z"/>
	</g>
	<g id="camp">
		<path fill="#FCFCFC" d="M27.811,15.75l-0.41,0.406l-3.733,3.737h-7.568V8.095c0.785,5.735,5.688,10.231,7.143,11.456l3.713-3.758
			c-1.556-1.311-6.237-5.669-7.198-11.349l-3.657,3.651h-0.571l4.145-4.141h0.574c0.775,5.704,5.631,10.181,7.116,11.433
			L27.811,15.75z M7.964,19.894h7.564V8.095C14.608,14.84,7.964,19.894,7.964,19.894z"/>
	</g>
</g>
</svg>
