<?xml version="1.0" encoding="utf-8"?>
<!-- Generator: Adobe Illustrator 16.0.0, SVG Export Plug-In . SVG Version: 6.00 Build 0)  -->
<!DOCTYPE svg PUBLIC "-//W3C//DTD SVG 1.1//EN" "http://www.w3.org/Graphics/SVG/1.1/DTD/svg11.dtd">
<svg version="1.1" id="Layer_1" xmlns="http://www.w3.org/2000/svg" xmlns:xlink="http://www.w3.org/1999/xlink" x="0px" y="0px"
	 width="33.35px" height="40px" viewBox="0 0 33.35 40" enable-background="new 0 0 33.35 40" xml:space="preserve">
<g id="PinColor">
	<path id="PinOmbre" opacity="0.3" enable-background="new    " d="M28.556,30.426c0,1.773-3.896,3.266-9.141,3.656
		c-0.886,0.068-2.754,4.23-2.754,4.23s-1.938-4.164-2.851-4.236c-5.19-0.402-9.044-1.887-9.044-3.65
		c0-2.076,5.325-3.761,11.895-3.761C23.23,26.666,28.556,28.348,28.556,30.426z"/>
	<path id="vert" display="none" fill="#2ABF00" stroke="#1D7500" stroke-width="0.2" stroke-miterlimit="10" d="M28.556,12.971
		c0,5.434-3.896,9.991-9.141,11.194c-0.886,0.2-2.754,12.94-2.754,12.94s-1.938-12.74-2.851-12.967
		c-5.19-1.23-9.044-5.77-9.044-11.174c0-6.354,5.325-11.503,11.895-11.503C23.23,1.463,28.556,6.617,28.556,12.971z"/>
	<path id="orange" fill="#FF8500" stroke="#7F4500" stroke-width="0.2" stroke-miterlimit="10" d="M28.556,12.971
		c0,5.434-3.896,9.991-9.141,11.194c-0.886,0.2-2.754,12.94-2.754,12.94s-1.938-12.74-2.851-12.967
		c-5.19-1.23-9.044-5.77-9.044-11.174c0-6.354,5.325-11.503,11.895-11.503C23.23,1.463,28.556,6.617,28.556,12.971z"/>
	<path id="gris" display="none" fill="#A5A5A5" stroke="#595959" stroke-width="0.2" stroke-miterlimit="10" d="M28.556,12.971
		c0,5.434-3.896,9.991-9.141,11.194c-0.886,0.2-2.754,12.94-2.754,12.94s-1.938-12.74-2.851-12.967
		c-5.19-1.23-9.044-5.77-9.044-11.174c0-6.354,5.325-11.503,11.895-11.503C23.23,1.463,28.556,6.617,28.556,12.971z"/>
	<path id="bleu" display="none" fill="#0092FF" stroke="#00477C" stroke-width="0.2" stroke-miterlimit="10" d="M28.556,12.971
		c0,5.434-3.896,9.991-9.141,11.194c-0.886,0.2-2.754,12.94-2.754,12.94s-1.938-12.74-2.851-12.967
		c-5.19-1.23-9.044-5.77-9.044-11.174c0-6.354,5.325-11.503,11.895-11.503C23.23,1.463,28.556,6.617,28.556,12.971z"/>
</g>
<g id="Icons">
	<g id="Minimal">
		<path id="Election" display="none" fill="#565656" d="M32.111-4.324l-4.968-2.13c-0.146-0.062-0.321-0.021-0.418,0.106
			l-1.422,1.776c-0.064,0.081-0.09,0.192-0.069,0.296c0.024,0.1,0.09,0.182,0.178,0.229l-4.455,1.671
			c-0.376,0.14-0.694,0.405-0.898,0.748L18.582,0.83c-0.314,0.522-0.339,1.16-0.065,1.704l0.104,0.208h-1.555
			c-0.196,0-0.355,0.159-0.355,0.356v6.743h-1.064c-0.195,0-0.352,0.16-0.352,0.353c0,0.196,0.156,0.355,0.352,0.355h12.069
			c0.193,0,0.349-0.159,0.349-0.355c0-0.193-0.154-0.353-0.349-0.353H26.65V6.215c0-0.121-0.063-0.237-0.164-0.298
			c-0.104-0.067-0.23-0.075-0.344-0.023c-0.394,0.185-0.677,0.276-0.815,0.317c-0.027,0.007-0.059,0.019-0.082,0.038l-2.312,1.383
			c-0.369,0.222-0.787,0.339-1.213,0.339c-0.787,0-1.519-0.392-1.971-1.056c-0.355-0.533-0.479-1.177-0.347-1.801
			c0.133-0.626,0.507-1.162,1.039-1.506l0.339-0.213c0.246-0.149,0.464-0.287,0.659-0.407c0.139-0.086,0.199-0.251,0.154-0.406
			c-0.089-0.284-0.236-0.538-0.373-0.731c0.543-0.237,1.274-0.66,1.645-1.089c0,0,0.005,0.003,0.007,0.003
			c0.074,0.047,0.167,0.097,0.271,0.146c0.005,0.003,0.008,0.006,0.019,0.008l0,0c0.264,0.128,0.601,0.254,0.982,0.331
			c-0.41,0.511-0.834,1.148-0.984,1.573c-0.294,0.13-0.904,0.476-2.331,1.383c-0.376,0.242-0.636,0.615-0.726,1.053
			c-0.095,0.439-0.01,0.887,0.241,1.261c0.316,0.477,0.837,0.739,1.377,0.739c0.292,0,0.583-0.077,0.847-0.235l2.44-1.466
			c0.379-0.092,2.275-0.661,3.713-2.984c1.128-1.822,1.76-3.289,2.021-3.954l0.042,0.022c0.148,0.073,0.312,0.111,0.476,0.111
			c0.271,0,0.541-0.108,0.74-0.298c0.211-0.199,0.326-0.473,0.326-0.765V-4C32.323-4.14,32.24-4.27,32.111-4.324z"/>
	</g>
	<g id="Faible">
		<path id="Famine" display="none" fill="#F9F9F9" d="M28.916,8.742l-2.821,0.533l-4.606-2.503l1.674-2.09l3.768,1.25L28.916,8.742z
			 M33.248,3.848V4.16L30.28,5.102l-2.934,0.417L23.58,4.266l-0.886-0.418h0.507c-0.122-1.121-0.284-1.97-0.361-3.081h-0.005
			c-0.002-0.033-0.042-0.778-0.052-1.094c-0.059-0.334-0.218-0.468-0.74-0.828c-0.286-0.187-0.5-0.251-0.62-0.249
			c-0.191,0-0.36,0.209-0.4,0.834c0.837,0.143,0.895,1.07,0.895,1.07c0.075,0.66-0.249,1.623-0.993,1.872
			c-1.383,0.46-1.24-2.196-0.463-2.833c0.021-0.765,0.235-1.468,0.963-1.496c0.289,0.002,0.583,0.122,0.924,0.337
			c0.162,0.097,0.294,0.196,0.409,0.298c-0.016-0.252-0.03-0.51-0.03-0.775c-0.003-0.558,0.087-1.167,0.583-1.596
			c0.254-0.232,0.54-0.352,0.824-0.35c0.736,0.036,1.192,0.67,1.459,1.32c0.311-0.135,0.697-0.201,1.143-0.046
			c1.137,0.394,1.743,2.368,1.271,3.058c-1.117,1.605-3.932-1.383-3.186-2.426c0,0,0.107-0.142,0.3-0.298
			c-0.22-0.576-0.657-1.09-0.985-1.054c-0.125,0.002-0.27,0.046-0.456,0.211c-0.312,0.275-0.396,0.667-0.396,1.182
			c0,0.362,0.044,0.765,0.044,1.169c0,0.21,0.016,0.396,0.021,0.6C23.4,0.032,23.403,0.309,23.4,0.689
			c0.077,1.108,0.525,2.017,0.644,3.159H33.248z M25.323-2.215l2.132,2.323c-0.379-1.647-1.73-2.565-1.73-2.565L25.323-2.215z
			 M20.906-0.222l-0.383,0.156c0,0-0.188,1.298,0,1.977L20.906-0.222z M18.995,7.61l1.692-1.019l1.77-2.185l-0.554-0.56h-3.901
			l-0.774,1.546L18.995,7.61z M20.973,7.259L17.97,9.303l0.4,0.496h6.906l-0.021-0.102L20.973,7.259z M14.795,3.848v2.355
			l1.924-1.031l0.584-1.325L14.795,3.848L14.795,3.848z M27.905,6.022l1.863,2.7l3.48,0.818V6.454l-2.507-0.808L27.905,6.022z
			 M33.248,5.775v-1.09l-1.952,0.529L33.248,5.775z M16.767,5.927l-1.972,0.939v2.932h1.441l2.148-1.759L16.767,5.927z
			 M27.091,9.799H31.6l-2.156-0.523L27.091,9.799z"/>
		<path id="Cyclone" display="none" fill="#FFFFFF" d="M24.095-2.492c-0.097-0.005-0.191-0.017-0.286-0.017
			c-0.847,0-1.641,0.22-2.333,0.602c1.237-4.209,4.32-4.577,4.32-4.577s-6.813,0.568-6.813,8.517c0.005,0,0.011,0,0.016,0
			c-0.005,0.095-0.016,0.188-0.016,0.285c0,0.842,0.223,1.637,0.604,2.332c-4.209-1.238-4.577-4.317-4.577-4.317
			s0.568,6.813,8.52,6.813c0-0.006,0-0.009,0-0.017c0.093,0.006,0.188,0.017,0.284,0.017c0.848,0,1.639-0.221,2.333-0.604
			c-1.236,4.211-4.322,4.578-4.322,4.578s6.813-0.569,6.813-8.517c-0.005,0-0.01,0-0.012,0c0.002-0.095,0.012-0.188,0.012-0.282
			c0-0.847-0.219-1.642-0.604-2.332c4.21,1.234,4.578,4.318,4.578,4.318s-0.563-6.813-8.514-6.813
			C24.095-2.501,24.095-2.496,24.095-2.492z"/>
		<path id="tsunami" display="none" fill="#FFFFFF" d="M32.366,7.926C18.347,8.72,22.264-2.004,25.9-1.078
			c-0.374,0.229-0.614,1.018-0.384,1.548c0.254,0.568,1.073,0.893,1.547,0.775c1.13-0.292,1.181-1.877,0.771-2.709
			c-0.421-0.866-1.536-1.934-3.479-1.934c-4.699,0-7.899,2.397-9.106,6.519v6.061h17.12V7.923h-0.003L32.366,7.926L32.366,7.926z"/>
		<path id="earthquake" display="none" fill="#FFFFFF" d="M28.799,2.847c-0.242,0-0.461,0.133-0.573,0.346l-0.936,1.76l-1.153-3.375
			c-0.09-0.256-0.323-0.428-0.593-0.441c-0.276-0.006-0.517,0.149-0.625,0.398l-0.786,1.876l-1.248-7.473
			c-0.06-0.313-0.351-0.55-0.654-0.533c-0.318,0.006-0.586,0.218-0.628,0.535L20.5,4.613L19.605-0.04
			c-0.05-0.273-0.273-0.483-0.553-0.523c-0.274-0.038-0.551,0.111-0.67,0.362l-1.464,3.048h-2.271v1.299h2.682
			c0.248,0,0.479-0.144,0.587-0.367l0.781-1.637l1.271,6.601c0.061,0.307,0.327,0.529,0.638,0.529c0.005,0,0.014,0,0.019,0
			c0.317-0.009,0.585-0.249,0.628-0.563l1.085-8.522l0.906,5.609c0.055,0.283,0.283,0.498,0.569,0.53
			c0.289,0.027,0.559-0.13,0.673-0.396l0.977-2.316l1.086,3.179c0.082,0.246,0.301,0.419,0.56,0.441
			c0.261,0.014,0.506-0.114,0.628-0.344l1.454-2.745h2.789V2.847H28.799z"/>
	</g>
	<g id="Modéré">
	</g>
	<g id="Important">
	</g>
	<g id="Elevé">
	</g>
	<g id="Extreme" display="none">
		<path id="rebelion" display="inline" fill="#FFFFFF" d="M26.463-2.252c0,1.566-1.269,2.832-2.831,2.832
			c-1.566,0-2.833-1.269-2.833-2.832c0-1.567,1.267-2.833,2.833-2.833C25.196-5.085,26.463-3.819,26.463-2.252z M18.904,9.761h1.73
			h0.093l0.063-0.132l0.63-0.616l-0.58-0.124L19.92,8.691L18.904,9.761z M30.753-1.727l-0.607,0.608l0.042,0.042l-0.489,0.495
			c0.063,0.06,0.13,0.122,0.185,0.191l0.493-0.494l0.102,0.092l0.602-0.611L30.753-1.727z M26.844,1.415l-0.261,0.259l0.026,0.074
			l0.061,0.139l-4.129,4.142l0.442,0.096c0.408,0.085,0.761,0.33,0.988,0.683c0.03,0.05,0.038,0.111,0.065,0.164l0.012-0.016
			l0.307,0.201l0.107-0.022l1.205,0.873l0.809-1.109l-1.792-1.4l0.037-0.117h0.296l1.763-2.065l0.194-1.851L26.844,1.415z
			 M28.761-0.417c-0.532-0.059-1.056,0.342-1.117,0.896l-0.066,0.604l0,0l-0.04,0.436L27.34,3.374L27.32,3.545L27.21,3.678
			l-1.576,1.848l1.186,0.931l0.429,0.334L26.999,7.13l0.064,0.125c0.164,0.354,0.525,0.576,0.913,0.576
			c0.056,0,0.11-0.001,0.17-0.014c0.443-0.077,0.786-0.438,0.834-0.886L29.656,0.7C29.718,0.143,29.315-0.359,28.761-0.417z
			 M26.699,7.542l-0.577,0.797l-0.331,0.454l-0.453-0.33l-0.996-0.721l-0.09,0.021l-0.037-0.024c0,0.086-0.003,0.167-0.021,0.254
			c-0.02,0.083-0.05,0.159-0.082,0.237c-0.063,0.146-0.142,0.274-0.238,0.394l0.069,0.16c0.069,0.158,0.167,0.366,0.283,0.544
			l0.279,0.433h2.129L26.699,7.542z M22.654,9.238c-0.023,0-0.05-0.007-0.073-0.009c-0.012,0.046-0.019,0.079-0.019,0.079L22.8,9.76
			h0.575l0.374-0.131c-0.127-0.197-0.229-0.41-0.324-0.623C23.194,9.142,22.938,9.238,22.654,9.238z M23.486,7.093
			c-0.04-0.063-0.103-0.113-0.161-0.164c-0.03-0.032-0.061-0.074-0.101-0.1c-0.104-0.074-0.229-0.129-0.357-0.16L22.423,6.58
			l-1.006-0.217l0,0l-0.893-0.189l-0.346-0.073l-0.573-0.125L19.571,5.97l0.088-0.093l0.39-0.382l0.41-0.416
			c0.035,0.286,0.05,0.51,0.05,0.515l0.135,0.028l1.25,0.266l0.254-0.257L26.01,1.75l-0.085-0.216l0.033-0.026
			c-0.562-0.17-1.222-0.265-2.053-0.265h-0.271c0,0-0.27,0-0.271,0c-0.583,0-1.173,0.039-1.751,0.168
			c-0.987,0.222-1.604,1.192-2.28,1.859c-0.699,0.687-1.377,1.404-2.059,2.11c-0.149,0.158-0.301,0.32-0.455,0.477
			c-0.263,0.262-0.356,0.646-0.253,1.004c0.103,0.356,0.397,0.624,0.762,0.705l1.335,0.286l0.564,0.12l3.215,0.685
			c0.072,0.011,0.146,0.023,0.212,0.023c0.469,0,0.888-0.326,0.988-0.801c0.04-0.188,0.01-0.363-0.045-0.532l-0.063-0.129
			C23.515,7.181,23.503,7.142,23.486,7.093z M22.066,9.568l-0.097-0.184l0.05-0.204l0.01-0.04l-0.156-0.033l-0.564,0.651h0.861
			L22.066,9.568z"/>
	</g>
	<path id="displaced" display="none" fill="#FFFFFF" d="M24.782-4.699c0.137,0.875-0.45,1.696-1.317,1.836
		c-0.871,0.145-1.698-0.446-1.84-1.314c-0.143-0.872,0.444-1.698,1.318-1.84C23.812-6.158,24.636-5.567,24.782-4.699z M24.282,1.642
		l1.413,2.259c0.201,0.318,0.615,0.421,0.938,0.233c0.326-0.195,0.438-0.607,0.259-0.937l-0.36-0.647
		c-0.313-0.555-0.619-1.114-0.93-1.671l-0.627-1.142c-0.072-0.135-0.142-0.285-0.219-0.441c-0.387-0.814-0.991-2.073-2.321-1.96
		c-1.138,0.099-2.293,0.64-3.429,1.605C17.662,0,16.722,1.542,16.686,1.608c-0.044,0.066-0.086,0.138-0.119,0.201
		c-0.004,0.002-0.004,0.004-0.006,0.006l0,0c-0.127,0.237-0.188,0.455-0.031,0.733c0.125,0.216,0.355,0.35,0.604,0.35
		c0.306,0,0.458-0.144,0.609-0.356l0,0c0.002,0,0.002-0.006,0.002-0.006c0.043-0.062,0.081-0.13,0.131-0.201
		c0.008-0.013,0.796-1.28,2.017-2.32c0.376-0.296,0.735-0.499,1.071-0.611l-0.276,3.291c-0.026,0.326-0.13,0.889-0.217,1.202
		l-0.612,2.145c-0.083,0.271-0.31,0.721-0.488,0.938l-1.655,2.05c-0.207,0.26-0.444,0.555-0.25,0.962
		c0.116,0.241,0.358,0.396,0.628,0.396c0.319,0,0.493-0.184,0.707-0.418l1.675-1.806c0.298-0.323,0.689-0.882,0.881-1.277
		l0.832-1.688l3.069,5.158c0.148,0.253,0.342,0.573,0.755,0.573l0,0c0.241,0,0.458-0.123,0.583-0.32
		c0.224-0.341,0.077-0.651-0.05-0.932l-2.482-5.393c-0.098-0.213-0.151-0.643-0.109-0.875L24.282,1.642z M26.884,7.254h3.723v1.105
		l3.692-2.134l-3.692-2.134v1.105h-3.723V7.254z"/>
	<path id="epidemie" display="none" fill="#FFFFFF" d="M31.122,3.029c0-4.008-3.142-7.27-7.095-7.472
		c1.747,0.166,3.107,1.434,3.107,2.977c0,0.53-0.175,1.019-0.456,1.45c-0.782-0.777-1.854-1.257-3.043-1.257
		c-1.185,0-2.256,0.479-3.032,1.254c-0.28-0.431-0.456-0.92-0.456-1.45c0-1.54,1.357-2.81,3.104-2.976
		c-3.955,0.202-7.097,3.465-7.097,7.473c0,1.208,0.296,2.349,0.803,3.361c-0.696-1.584-0.274-3.363,1.044-4.125
		c0.461-0.265,0.977-0.359,1.483-0.33c-0.095,0.353-0.158,0.72-0.158,1.104c0,1.99,1.359,3.653,3.194,4.147
		c-0.024,0.043-0.055,0.083-0.08,0.125c0,0.004,0,0.004,0,0.011c-0.06,0.136-0.137,0.246-0.229,0.342
		c-0.197,0.257-0.426,0.487-0.718,0.655c-1.327,0.765-3.091,0.235-4.108-1.175c1.34,2.033,3.639,3.378,6.25,3.378
		c2.59,0,4.87-1.316,6.218-3.317c-1.025,1.366-2.757,1.868-4.062,1.118c-0.463-0.271-0.802-0.673-1.033-1.14
		c1.835-0.496,3.188-2.16,3.188-4.145c0-0.384-0.064-0.751-0.161-1.104c0.521-0.034,1.032,0.061,1.495,0.329
		c1.282,0.74,1.72,2.437,1.104,3.985C30.856,5.272,31.122,4.183,31.122,3.029z M24.434,5.912c-0.03-0.624,0.101-1.277,0.413-1.896
		l-0.5-0.287c-0.18,0.185-0.429,0.299-0.71,0.299c-0.276,0-0.527-0.114-0.707-0.299L22.44,4.01c0.313,0.622,0.445,1.281,0.408,1.905
		c-1.263-0.346-2.204-1.5-2.204-2.874c0-0.264,0.043-0.512,0.107-0.754c0.553,0.279,1.056,0.715,1.438,1.292l0.5-0.292
		c-0.021-0.085-0.052-0.167-0.052-0.259c0-0.462,0.318-0.836,0.749-0.949V1.512C22.694,1.466,22.064,1.25,21.54,0.91
		c0.543-0.533,1.279-0.86,2.097-0.86s1.559,0.33,2.1,0.863c-0.524,0.342-1.152,0.555-1.848,0.6v0.569
		c0.428,0.113,0.747,0.486,0.747,0.949c0,0.093-0.027,0.172-0.048,0.259l0.506,0.295c0.381-0.576,0.884-1.01,1.432-1.289
		c0.063,0.237,0.104,0.486,0.104,0.743C26.63,4.411,25.698,5.561,24.434,5.912z"/>
	<path id="enlevement" display="none" fill="#FFFFFF" d="M29.879-5.918c-0.463,0-0.841,0.38-0.841,0.846v3.438
		c0.204,0.045,0.396,0.131,0.555,0.284c0.445,0.439,0.456,1.159,0.022,1.608l-1.602,1.645l-0.222-0.215l1.604-1.639
		c0.321-0.333,0.313-0.86-0.018-1.186c-0.103-0.097-0.225-0.164-0.352-0.201c-0.142-0.039-0.283-0.041-0.424-0.012
		c-0.153,0.041-0.293,0.119-0.399,0.236c-0.949,0.973-1.902,1.947-2.853,2.922c-0.238,0.245-0.672,0.803-0.659,1.36
		c0.008,0.524-0.008,1.062,0.002,1.588c-0.127-0.1-0.275-0.173-0.444-0.205c-0.49-0.081-0.933,0.211-1.102,0.648h-0.246
		c0-0.12,0-0.24,0.002-0.36c0.011-0.55-0.01-1.119,0.006-1.671c0.01-0.559-0.424-1.117-0.665-1.361
		c-0.948-0.974-1.896-1.948-2.853-2.923c-0.108-0.114-0.246-0.195-0.402-0.233c-0.14-0.029-0.281-0.027-0.422,0.012
		c-0.129,0.038-0.251,0.105-0.354,0.204C17.889-0.81,17.881-0.282,18.2,0.053l1.604,1.636l-0.223,0.215l-1.6-1.645
		c-0.438-0.449-0.426-1.169,0.021-1.605c0.156-0.152,0.351-0.24,0.555-0.284v-3.44c0-0.466-0.378-0.846-0.842-0.846
		c-0.467,0-0.844,0.38-0.844,0.846v5.952c0,0.194,0.08,0.372,0.193,0.518l2.875,3.797H19.69c-0.558,0-1.016,0.454-1.016,1.018
		c0,0.373,0.209,0.685,0.508,0.86c-0.299,0.176-0.508,0.491-0.508,0.86c0,0.563,0.453,1.02,1.016,1.02H20v0.564h2.823
		c0.148,0.148,0.32,0.254,0.527,0.29c0.059,0.009,0.112,0.014,0.169,0.014c0.496,0,0.919-0.354,1.001-0.844l0.003-0.026h0.183
		c0.003,0.188,0,0.371,0.021,0.565h2.871V8.955h0.313c0.558,0,1.016-0.454,1.016-1.02c0-0.37-0.211-0.684-0.513-0.86
		c0.302-0.175,0.513-0.488,0.513-0.863c0-0.561-0.455-1.016-1.016-1.016h-0.258l2.876-3.799c0.117-0.144,0.194-0.322,0.194-0.518
		v-5.95C30.724-5.538,30.348-5.918,29.879-5.918z M19.182,6.212c0-0.281,0.231-0.506,0.508-0.506h3.332l-0.177,1.016H19.69
		C19.411,6.719,19.182,6.495,19.182,6.212z M19.182,7.935c0-0.278,0.231-0.509,0.508-0.509h3.033l-0.174,1.019H19.69
		C19.411,8.445,19.182,8.219,19.182,7.935z M24.018,8.893c-0.042,0.28-0.333,0.46-0.585,0.418c-0.135-0.024-0.249-0.097-0.328-0.207
		c-0.083-0.112-0.109-0.248-0.088-0.38l0.562-3.256c0.042-0.246,0.257-0.423,0.508-0.423c0.024,0,0.055,0,0.08,0.006
		c0.275,0.047,0.46,0.31,0.413,0.586L24.018,8.893z M28.418,7.935c0,0.281-0.229,0.508-0.506,0.508h-3.3l0.178-1.019h3.122
		C28.189,7.429,28.418,7.657,28.418,7.935z M28.418,6.212c0,0.281-0.229,0.506-0.506,0.506h-3l0.172-0.995
		c0.002-0.007,0-0.014,0-0.021h2.825C28.189,5.705,28.418,5.934,28.418,6.212z"/>
	<path id="eruption" display="none" fill="#FFFFFF" d="M25.151-0.965c1.015,0.346,2.361,0.754,2.647-0.883
		c0.229-1.273,1.927-0.8,2.648-0.88c1.314-0.152,0.321-2.615-1.324-2.651c-1.668-0.037-2.426,0.694-3.087,2.208
		c-0.319,0.728-0.589,1.275-1.767,0.883c-1.178-0.394-2.042,0.573-1.327,1.765c0.636,1.055-0.01,2.205-0.01,2.205h1.78
		c0,0-0.017-0.654-0.443-1.324C23.769-0.421,24.113-1.323,25.151-0.965z M15.744,10.015c4.568-3.326,5.709-7.929,5.709-7.929h4.692
		c0,0,1.142,4.601,5.707,7.929H15.744z"/>
	<path id="returned" display="none" fill="#FFFFFF" d="M23.325-3.924c0.116,0.719-0.373,1.398-1.089,1.517
		c-0.72,0.119-1.396-0.371-1.516-1.087c-0.117-0.72,0.365-1.398,1.09-1.517C22.524-5.13,23.209-4.644,23.325-3.924z M22.915,1.309
		l1.168,1.868c0.161,0.26,0.508,0.346,0.775,0.188c0.265-0.158,0.356-0.5,0.207-0.771l-0.294-0.536
		c-0.257-0.458-0.508-0.92-0.765-1.379l-0.521-0.945c-0.063-0.106-0.118-0.231-0.182-0.36c-0.321-0.673-0.821-1.713-1.917-1.617
		c-0.938,0.08-1.891,0.525-2.829,1.322c-1.106,0.875-1.886,2.148-1.921,2.2c-0.033,0.058-0.067,0.114-0.097,0.17
		c-0.003,0.002-0.004,0.002-0.004,0.004l0,0c-0.104,0.196-0.156,0.376-0.026,0.604c0.101,0.181,0.292,0.292,0.5,0.292
		c0.25,0,0.377-0.118,0.5-0.296l0,0c0.002-0.002,0.002-0.002,0.002-0.002c0.035-0.055,0.069-0.111,0.106-0.172
		c0.007-0.009,0.659-1.055,1.666-1.914c0.312-0.243,0.604-0.411,0.885-0.503L19.948,2.18c-0.022,0.271-0.107,0.733-0.184,0.994
		l-0.503,1.77c-0.067,0.224-0.257,0.595-0.406,0.775L17.49,7.411c-0.174,0.215-0.367,0.458-0.205,0.797
		c0.095,0.196,0.295,0.325,0.516,0.325c0.263,0,0.405-0.152,0.587-0.346l1.382-1.49c0.249-0.268,0.568-0.729,0.726-1.057
		l0.686-1.393l2.537,4.259c0.124,0.21,0.283,0.472,0.627,0.472l0,0c0.194,0,0.376-0.1,0.483-0.268
		c0.182-0.279,0.06-0.533-0.042-0.764l-2.053-4.455c-0.08-0.172-0.125-0.529-0.093-0.722L22.915,1.309z M31.45,2.259
		c0-1.86-1.515-3.37-3.369-3.37H26.65V0.59h1.431c0.919,0,1.666,0.746,1.666,1.669c0,0.92-0.747,1.669-1.666,1.669h-0.297V3.015
		L24.73,4.778l3.054,1.763V5.626h0.334V5.625C29.956,5.605,31.45,4.106,31.45,2.259z"/>
	<path id="Attack" display="none" fill="#FFFFFF" d="M27.728,3.473l5.016-3.211l-4.846-0.516l1.314-5.631l-3.438,3.553l-0.958-4.013
		l-1.441,3.747l-3.927-5.06l1.234,6.339l-3.492-0.776c0,0,1.063,2.031,1.651,3.254l-5.6-0.393l5.069,2.965l-1.456,1.497l2.357-0.431
		l-1.67,5.907l4.965-4.152l1.287,3.208l1.322-2.566l4.282,4.42l-2.14-5.916l4.693,0.475L27.728,3.473z"/>
	<g id="affected" display="none">
		<path display="inline" fill="#FFFFFF" d="M19.8-4.355c0,0.728-0.593,1.315-1.317,1.315c-0.727,0-1.32-0.59-1.32-1.315
			s0.591-1.314,1.32-1.314C19.209-5.669,19.8-5.083,19.8-4.355z M18.619,4.658l0.285,4.857c0,0.17,0.141,0.309,0.305,0.309
			c0.172,0,0.313-0.14,0.313-0.309l0.263-4.856h0.858l-0.887-5.448l1.786,3.559c0.066,0.158,0.249,0.231,0.404,0.167
			c0.157-0.067,0.234-0.247,0.167-0.405c0,0-1.31-3.542-1.636-4.202c-0.323-0.662-0.643-1.064-1.873-1.064h-0.251
			c-1.228,0-1.55,0.4-1.871,1.063S14.85,2.532,14.85,2.532c-0.066,0.161,0.006,0.338,0.163,0.408
			c0.158,0.066,0.337-0.009,0.406-0.166l1.785-3.561l-0.888,5.445h0.858l0.268,4.855c0,0.171,0.139,0.309,0.306,0.309
			c0.175,0,0.313-0.14,0.313-0.309l0.269-4.855H18.619L18.619,4.658z M29.117-5.676c-0.728,0-1.319,0.591-1.319,1.316
			c0,0.728,0.587,1.318,1.319,1.318c0.722,0,1.313-0.59,1.313-1.318C30.432-5.085,29.839-5.676,29.117-5.676z M30.48,2.072
			l0.084-2.863l1.614,3.562c0.063,0.158,0.246,0.231,0.403,0.165c0.161-0.068,0.235-0.247,0.172-0.406c0,0-1.14-3.542-1.462-4.202
			c-0.321-0.659-0.819-1.062-2.047-1.062H28.99c-1.229,0-1.729,0.4-2.05,1.062c-0.318,0.659-1.457,4.199-1.457,4.199
			c-0.068,0.161,0.005,0.338,0.162,0.408C25.8,3.002,25.99,2.928,26.049,2.77l1.616-3.562l0.082,2.863L27.494,9.27
			c-0.017,0.285,0.198,0.532,0.479,0.552c0.015,0.002,0.029,0.002,0.04,0.002c0.266,0,0.5-0.209,0.519-0.48l0.583-5.927L29.7,9.344
			c0.02,0.274,0.245,0.48,0.513,0.48c0.015,0,0.03,0,0.037-0.002c0.286-0.022,0.501-0.268,0.482-0.552L30.48,2.072L30.48,2.072z
			 M23.799,2.33c-0.448,0-0.813,0.359-0.813,0.805c0,0.445,0.36,0.805,0.813,0.805c0.445,0,0.804-0.359,0.804-0.805
			C24.603,2.688,24.242,2.33,23.799,2.33z M23.799,7.082c0,0,0.361,2.523,0.361,2.525c0.05,0.126,0.164,0.213,0.311,0.213
			c0.146,0,0.267-0.097,0.313-0.227c0-0.01,0.008-0.157,0-0.184l-0.151-3.103l0.052-1.067c0.04-0.362,0.045-0.253,0.461-0.5
			c0.421-0.254,1.135-1.362,1.168-1.417c0.037-0.055,0.104-0.152,0.116-0.217c0.021-0.111-0.055-0.214-0.166-0.24
			c-0.083-0.014-0.152,0.031-0.207,0.088c-0.058,0.063-0.879,1.16-1.496,1.264c-0.14-0.022-0.287-0.093-0.686-0.093h-0.151
			c-0.396,0-0.543,0.073-0.683,0.093c-0.617-0.104-1.441-1.201-1.501-1.264c-0.051-0.056-0.12-0.102-0.204-0.088
			c-0.109,0.028-0.188,0.131-0.162,0.242c0.01,0.061,0.074,0.159,0.109,0.217c0.036,0.053,0.752,1.163,1.173,1.417
			c0.411,0.246,0.424,0.138,0.461,0.5l0.047,1.067l-0.146,3.106c-0.008,0.026,0,0.174,0.005,0.182
			c0.042,0.13,0.162,0.227,0.31,0.227c0.14,0,0.259-0.086,0.302-0.213C23.436,9.609,23.799,7.082,23.799,7.082"/>
	</g>
	<g id="foodsec" display="none">
		<path display="inline" fill="#FFFFFF" d="M32.771,3.575L32.771,3.575c-0.048,1.289-0.485,2.686-1.163,3.976
			c0,0-1.607,3.259-6.661,3.259c-5.06,0-6.694-3.232-6.694-3.232c-0.681-1.296-1.087-2.686-1.141-4.005h0.002
			c0-0.034-0.002-0.068-0.002-0.102c0-0.619,0.385-1.2,1.046-1.7l0.701,0.45c-0.437,0.292-0.688,0.619-0.688,0.965
			c0,1.223,3.033,2.213,6.774,2.213c3.735,0,6.764-0.99,6.764-2.213c0-0.844-1.449-1.578-3.585-1.95l0.012-0.889
			c2.729,0.536,4.637,1.729,4.637,3.124C32.776,3.506,32.773,3.539,32.771,3.575z M19.715-1.684
			c-0.027,0.205-0.061,0.538,0.194,0.99c0.315,0.544,0.723,0.737,0.852,0.829c-0.02-0.141,0.018-0.562-0.278-1.076
			c-0.257-0.457-0.534-0.663-0.703-0.821c-0.466-0.673-0.995-1.216-1.396-1.641l-0.96-0.996c0,0,0.348,0.399,0.92,1.029
			C18.739-2.928,19.257-2.369,19.715-1.684z M22.114,3.583c0.201,0.191,0.461,0.506,1.038,0.827c0.646,0.359,1.19,0.359,1.372,0.403
			c-0.103-0.169-0.312-0.701-1.022-1.096c-0.585-0.322-1.021-0.26-1.29-0.214c-0.881-0.515-1.64-1.042-2.248-1.417
			c-0.872-0.537-1.438-0.812-1.436-0.812c-0.003,0,0.549,0.3,1.402,0.866C20.517,2.529,21.241,3.062,22.114,3.583z M22.631,0.772
			c-0.072,0.237-0.172,0.624,0.055,1.188c0.268,0.691,0.72,0.981,0.853,1.107c0.008-0.167,0.125-0.646-0.129-1.296
			c-0.226-0.579-0.52-0.865-0.687-1.079c-0.436-0.864-0.971-1.583-1.379-2.142l-0.979-1.319l0.926,1.348
			C21.688-0.841,22.208-0.102,22.631,0.772z M20.988,2.176c0.194,0.176,0.446,0.468,0.989,0.754
			c0.612,0.319,1.117,0.307,1.287,0.341c-0.103-0.151-0.312-0.642-0.979-0.993c-0.554-0.288-0.956-0.225-1.208-0.18
			c-0.826-0.463-1.542-0.938-2.114-1.282c-0.822-0.489-1.354-0.735-1.351-0.737c-0.005,0.005,0.517,0.278,1.317,0.792
			C19.481,1.222,20.171,1.709,20.988,2.176z M19.818,0.794c0.181,0.159,0.416,0.424,0.925,0.678c0.569,0.29,1.041,0.268,1.196,0.296
			c-0.097-0.141-0.299-0.584-0.924-0.897c-0.51-0.259-0.886-0.193-1.115-0.148c-0.774-0.417-1.443-0.848-1.979-1.161
			c-0.768-0.445-1.261-0.669-1.258-0.672c-0.002,0.002,0.479,0.251,1.23,0.718C18.407-0.068,19.053,0.373,19.818,0.794z
			 M18.621-1.22c0.342,0.306,0.668,0.323,0.852,0.384c-0.037-0.149-0.005-0.519-0.396-0.865c-0.329-0.287-0.668-0.31-0.841-0.325
			c-1.374-1.178-2.596-1.933-2.875-2.114L15.3-4.181c-0.012,0.01,1.33,0.893,2.904,2.274C18.256-1.736,18.345-1.455,18.621-1.22z
			 M18.597-0.567c0.172,0.143,0.391,0.382,0.861,0.611c0.525,0.261,0.962,0.236,1.107,0.258c-0.094-0.126-0.286-0.527-0.863-0.811
			c-0.477-0.229-0.819-0.171-1.031-0.129c-0.717-0.371-1.332-0.77-1.833-1.049c-0.708-0.406-1.167-0.607-1.167-0.607
			s0.451,0.222,1.139,0.651C17.293-1.354,17.889-0.952,18.597-0.567z M21.212-0.495c-0.05,0.221-0.112,0.583,0.129,1.09
			c0.294,0.621,0.725,0.857,0.862,0.97c-0.012-0.154,0.06-0.604-0.212-1.189c-0.247-0.517-0.535-0.766-0.7-0.947
			c-0.458-0.771-0.985-1.402-1.396-1.895L18.92-3.622l0.928,1.187C20.248-1.926,20.766-1.275,21.212-0.495z M26.617,0.828
			c-0.151,0.152-0.398,0.404-0.474,0.929c-0.095,0.637,0.114,1.04,0.161,1.197c0.075-0.127,0.374-0.446,0.464-1.045
			c0.079-0.535-0.016-0.875-0.05-1.104c0.047-0.838-0.05-1.609-0.122-2.204c-0.104-0.868-0.18-1.407-0.18-1.407l0.13,1.407
			C26.598-0.794,26.675-0.014,26.617,0.828z M26.122-0.602c-0.138,0.152-0.345,0.4-0.381,0.889
			c-0.049,0.596,0.172,0.958,0.227,1.099c0.057-0.123,0.318-0.437,0.363-0.998c0.037-0.5-0.072-0.807-0.119-1.02
			c-0.006-0.775-0.138-1.481-0.237-2.027l-0.238-1.289l0.196,1.292C26.013-2.097,26.124-1.383,26.122-0.602z M25.544-2.001
			c-0.111,0.146-0.286,0.391-0.291,0.843c-0.01,0.552,0.219,0.87,0.279,0.996c0.044-0.119,0.261-0.425,0.269-0.941
			c0.005-0.465-0.112-0.737-0.167-0.93c-0.063-0.715-0.219-1.352-0.344-1.848l-0.291-1.173l0.246,1.178
			C25.35-3.369,25.499-2.719,25.544-2.001z M26.558,4.539c0.092-0.13,0.438-0.447,0.58-1.086c0.125-0.565,0.042-0.938,0.025-1.19
			c0.1-0.901,0.047-1.735,0.01-2.376c-0.063-0.938-0.112-1.525-0.112-1.525l0.047,1.522c0.025,0.654,0.059,1.494-0.06,2.396
			c-0.177,0.156-0.45,0.408-0.572,0.965C26.326,3.922,26.523,4.366,26.558,4.539z M23.687-2.92c0.072,0.159,0.144,0.413,0.403,0.734
			c0.289,0.368,0.606,0.488,0.707,0.555c-0.022-0.123-0.018-0.478-0.336-0.88c-0.265-0.326-0.53-0.397-0.697-0.435
			c-0.386-0.515-0.688-1.006-0.951-1.374c-0.366-0.536-0.63-0.833-0.627-0.834c-0.003,0.001,0.244,0.313,0.593,0.853
			C23.02-3.93,23.309-3.434,23.687-2.92z M23.931-3.39c0.146,0.336,0.368,0.459,0.483,0.561c0.02-0.121,0.174-0.382,0.018-0.765
			c-0.135-0.32-0.374-0.449-0.496-0.515c-0.572-1.323-1.185-2.28-1.324-2.505l-0.029-0.05c-0.014,0.005,0.645,1.099,1.292,2.631
			C23.851-3.892,23.817-3.656,23.931-3.39z M24.509-0.712c0.309,0.397,0.657,0.54,0.762,0.613c-0.018-0.136-0.008-0.528-0.349-0.965
			c-0.281-0.358-0.57-0.436-0.755-0.479c-0.413-0.561-0.744-1.099-1.02-1.506c-0.396-0.58-0.667-0.908-0.667-0.909
			c0,0,0.257,0.344,0.63,0.933c0.26,0.407,0.568,0.944,0.973,1.511C24.16-1.341,24.235-1.069,24.509-0.712z M24.885-3.369
			c-0.093,0.144-0.232,0.375-0.21,0.789c0.038,0.507,0.262,0.78,0.324,0.891c0.031-0.108,0.212-0.405,0.179-0.882
			c-0.024-0.421-0.154-0.663-0.216-0.836c-0.099-0.645-0.289-1.222-0.429-1.663l-0.34-1.051c0,0,0.104,0.406,0.298,1.061
			C24.618-4.605,24.797-4.023,24.885-3.369z M24.442-0.114c0.079,0.193,0.154,0.488,0.445,0.877c0.326,0.435,0.694,0.594,0.81,0.678
			c-0.018-0.147,0.003-0.573-0.354-1.055c-0.294-0.394-0.607-0.479-0.807-0.526c-0.437-0.617-0.782-1.2-1.073-1.643
			c-0.421-0.631-0.718-0.988-0.718-0.991c0,0.003,0.275,0.375,0.673,1.018C23.692-1.314,24.016-0.73,24.442-0.114z M20.198,3.736
			c0,0.002,0.484,0.275,1.239,0.809c0.056,0.01,0.104,0.023,0.164,0.034C20.751,4.016,20.198,3.736,20.198,3.736z M26.232,4.795
			c-0.108-0.172-0.229-0.306-0.346-0.406c-0.04-0.108-0.08-0.21-0.125-0.3c0.254,0.263,0.495,0.391,0.585,0.463
			c0-0.009,0-0.025,0-0.041c0.03,0.1,0.055,0.206,0.09,0.313c0.05-0.001,0.101-0.007,0.147-0.009
			c-0.09-0.303-0.189-0.598-0.294-0.875c-0.04-0.151-0.101-0.312-0.199-0.491c-0.095-0.217-0.189-0.428-0.284-0.629
			c0.117,0.079,0.209,0.131,0.257,0.166c-0.013-0.157,0.022-0.618-0.352-1.143c-0.223-0.308-0.453-0.446-0.649-0.52l-0.593-1.157
			c0,0,0.194,0.422,0.527,1.134c-0.053-0.016-0.101-0.031-0.14-0.041c-0.456-0.67-0.818-1.304-1.126-1.78
			c-0.438-0.684-0.752-1.073-0.749-1.073c0,0.002,0.294,0.403,0.707,1.099c0.286,0.479,0.622,1.112,1.065,1.782
			c0.08,0.207,0.154,0.527,0.456,0.951c0.142,0.199,0.291,0.344,0.431,0.454c0.05,0.117,0.104,0.237,0.159,0.365
			c-0.257-0.259-0.518-0.339-0.689-0.391c-0.053-0.078-0.098-0.155-0.145-0.23C24.67,1.8,24.357,1.245,24.09,0.779
			c-0.585-1.019-0.964-1.642-0.961-1.642l0.892,1.671c0.069,0.125,0.138,0.263,0.212,0.4c-0.098-0.167-0.188-0.325-0.275-0.469
			c-0.453-0.738-0.782-1.151-0.782-1.154c0,0.003,0.301,0.434,0.732,1.186c0.251,0.444,0.548,1.007,0.905,1.617
			c0.164,0.355,0.313,0.732,0.448,1.131c-0.035,0.08-0.083,0.181-0.115,0.301c-0.399-0.688-0.729-1.325-1.022-1.816
			c-0.093-0.163-0.183-0.304-0.26-0.438c-0.367-0.755-0.788-1.405-1.13-1.926c-0.591-0.915-0.974-1.479-0.974-1.479l0.913,1.508
			c0.394,0.646,0.904,1.479,1.3,2.445c-0.089,0.251-0.229,0.659-0.027,1.283c0.242,0.76,0.702,1.104,0.841,1.253
			c0.012-0.168,0.153-0.63-0.014-1.282c0.104,0.196,0.212,0.399,0.334,0.608c-0.048,0.235-0.061,0.532,0.034,0.905
			c0.371-0.002,0.747-0.014,1.11-0.039C26.246,4.823,26.241,4.812,26.232,4.795z M20.908,3.382c-0.92-0.59-1.522-0.886-1.521-0.887
			c-0.003,0,0.58,0.326,1.479,0.942c0.521,0.361,1.157,0.835,1.885,1.321c0.092,0.011,0.185,0.02,0.272,0.028
			C22.208,4.27,21.493,3.757,20.908,3.382z M27.531,3.747c0.175-0.955,0.157-1.855,0.157-2.547l-0.026-1.641
			c0,0-0.019,0.626-0.028,1.636c-0.021,0.705-0.034,1.607-0.221,2.562c-0.202,0.153-0.507,0.408-0.682,0.991
			c-0.007,0.019-0.01,0.035-0.015,0.055c0.264-0.027,0.522-0.055,0.771-0.091C27.573,4.282,27.536,3.968,27.531,3.747z"/>
	</g>
	<g id="funding" display="none">
		<path display="inline" fill="#FFFFFF" d="M29.792-4.057l-2.166,2.02h-7.813l-2.168-2.02c0,0,1.08-1.508,2.855-1.707
			c1.737-0.193,2.343,0.874,3.217,0.919c0.872-0.046,1.477-1.112,3.215-0.919C28.714-5.564,29.792-4.057,29.792-4.057z
			 M24.021,5.629v1.523c0.231-0.038,0.418-0.127,0.563-0.271c0.145-0.147,0.214-0.316,0.214-0.51c0-0.172-0.063-0.324-0.185-0.449
			C24.496,5.795,24.297,5.699,24.021,5.629z M22.751,3.68c0,0.14,0.049,0.265,0.146,0.383c0.101,0.12,0.249,0.215,0.448,0.289V3.001
			c-0.182,0.05-0.326,0.14-0.431,0.265C22.806,3.393,22.751,3.528,22.751,3.68z M31.11,8.914c0,0-0.474,1.803-2.64,1.803h-9.497
			c-2.168,0-2.64-1.803-2.64-1.803c-1.416-6.258,2.896-9.653,2.896-9.653h8.984C28.214-0.739,32.524,2.656,31.11,8.914z
			 M25.933,6.23c0-0.424-0.135-0.768-0.403-1.037c-0.267-0.27-0.77-0.485-1.509-0.658V3.011c0.296,0.105,0.482,0.318,0.556,0.624
			l1.168-0.129c-0.077-0.389-0.265-0.701-0.554-0.931c-0.291-0.232-0.682-0.374-1.17-0.424V1.764h-0.675v0.387
			c-0.53,0.046-0.954,0.211-1.271,0.5c-0.321,0.292-0.479,0.648-0.479,1.076c0,0.424,0.14,0.78,0.424,1.079
			c0.281,0.292,0.728,0.511,1.327,0.658v1.633C23.182,7.03,23.03,6.92,22.895,6.769c-0.137-0.152-0.229-0.332-0.277-0.538
			l-1.205,0.11c0.095,0.511,0.304,0.909,0.64,1.188c0.334,0.283,0.767,0.45,1.3,0.505v0.709h0.672V8.015
			c0.602-0.071,1.073-0.27,1.41-0.592C25.766,7.098,25.933,6.699,25.933,6.23z"/>
	</g>
	<g id="Education" display="none">
		<path display="inline" fill="#FFFFFF" d="M23.809-2.592c-0.632-0.609-4.288-2.72-9.288-0.57c0,0.031,0,0.631,0,1.539V8.651h7.575
			c0.259,0.222,0.879,0.381,1.601,0.381c0.726,0,1.349-0.157,1.604-0.381h7.617v-10.27c0-0.91,0-1.508,0-1.539
			C28.129-5.271,24.294-3.036,23.809-2.592z M23.132,7.918c0-0.404-3.557-2.771-7.661-0.189V-2.288
			c0.813-0.468,1.907-0.751,3.113-0.751c2.513,0,4.548,0.823,4.548,2.354V7.918z M32.026,7.729c-4.104-2.582-7.653-0.214-7.653,0.19
			v-8.604c0-1.527,2.028-2.352,4.545-2.352c1.2,0,2.298,0.287,3.106,0.75V7.729H32.026z"/>
	</g>
	<g id="camp">
		<path fill="#FCFCFC" d="M27.161,14.81l-0.404,0.399l-3.668,3.671h-7.437V7.29c0.771,5.635,5.589,10.052,7.019,11.255l3.647-3.692
			c-1.528-1.287-6.129-5.569-7.071-11.15L15.654,7.29h-0.562l4.073-4.069h0.563c0.763,5.604,5.533,10.003,6.992,11.233L27.161,14.81
			z M7.661,18.882h7.431V7.29C14.188,13.916,7.661,18.882,7.661,18.882z"/>
	</g>
</g>
</svg>
