<?xml version="1.0" encoding="utf-8"?>
<!-- Generator: Adobe Illustrator 16.0.0, SVG Export Plug-In . SVG Version: 6.00 Build 0)  -->
<!DOCTYPE svg PUBLIC "-//W3C//DTD SVG 1.1//EN" "http://www.w3.org/Graphics/SVG/1.1/DTD/svg11.dtd">
<svg version="1.1" id="Layer_1" xmlns="http://www.w3.org/2000/svg" xmlns:xlink="http://www.w3.org/1999/xlink" x="0px" y="0px"
	 width="33.35px" height="40px" viewBox="0 0 33.35 40" enable-background="new 0 0 33.35 40" xml:space="preserve">
<g id="PinColor">
	<path id="PinOmbre" opacity="0.3" enable-background="new    " d="M28.374,30.471c0,1.773-3.896,3.265-9.141,3.656
		c-0.885,0.067-2.754,4.229-2.754,4.229s-1.937-4.164-2.85-4.235c-5.191-0.402-9.044-1.887-9.044-3.65
		c0-2.076,5.325-3.762,11.894-3.762C23.048,26.711,28.374,28.393,28.374,30.471z"/>
	<path id="vert" display="none" fill="#2ABF00" stroke="#1D7500" stroke-width="0.2" stroke-miterlimit="10" d="M28.374,13.016
		c0,5.434-3.896,9.99-9.141,11.193c-0.885,0.2-2.754,12.941-2.754,12.941s-1.937-12.741-2.85-12.967
		c-5.191-1.231-9.044-5.769-9.044-11.173c0-6.354,5.325-11.503,11.894-11.503C23.048,1.507,28.374,6.662,28.374,13.016z"/>
	<path id="orange" display="none" fill="#FF8500" stroke="#7F4500" stroke-width="0.2" stroke-miterlimit="10" d="M28.374,13.016
		c0,5.434-3.896,9.99-9.141,11.193c-0.885,0.2-2.754,12.941-2.754,12.941s-1.937-12.741-2.85-12.967
		c-5.191-1.231-9.044-5.769-9.044-11.173c0-6.354,5.325-11.503,11.894-11.503C23.048,1.507,28.374,6.662,28.374,13.016z"/>
	<path id="gris" fill="#A5A5A5" stroke="#595959" stroke-width="0.2" stroke-miterlimit="10" d="M28.374,13.016
		c0,5.434-3.896,9.99-9.141,11.193c-0.885,0.2-2.754,12.941-2.754,12.941s-1.937-12.741-2.85-12.967
		c-5.191-1.231-9.044-5.769-9.044-11.173c0-6.354,5.325-11.503,11.894-11.503C23.048,1.507,28.374,6.662,28.374,13.016z"/>
	<path id="bleu" display="none" fill="#0092FF" stroke="#00477C" stroke-width="0.2" stroke-miterlimit="10" d="M28.374,13.016
		c0,5.434-3.896,9.99-9.141,11.193c-0.885,0.2-2.754,12.941-2.754,12.941s-1.937-12.741-2.85-12.967
		c-5.191-1.231-9.044-5.769-9.044-11.173c0-6.354,5.325-11.503,11.894-11.503C23.048,1.507,28.374,6.662,28.374,13.016z"/>
</g>
<g id="Icons">
	<g id="Minimal">
		<path id="Election" display="none" fill="#565656" d="M31.283-4.325l-4.836-2.074c-0.144-0.061-0.313-0.02-0.407,0.103
			l-1.385,1.729c-0.063,0.079-0.087,0.188-0.067,0.288c0.023,0.097,0.087,0.178,0.172,0.224l-4.337,1.627
			c-0.366,0.136-0.677,0.395-0.875,0.729l-1.436,2.393c-0.306,0.509-0.331,1.129-0.063,1.659l0.102,0.203h-1.513
			c-0.191,0-0.347,0.155-0.347,0.347v6.565h-1.036c-0.192,0-0.343,0.155-0.343,0.343c0,0.191,0.151,0.346,0.343,0.346h11.75
			c0.188,0,0.339-0.155,0.339-0.346c0-0.188-0.15-0.343-0.339-0.343h-1.038v-3.53c0-0.118-0.063-0.231-0.16-0.291
			c-0.102-0.065-0.226-0.073-0.334-0.022c-0.384,0.18-0.659,0.269-0.796,0.309c-0.026,0.007-0.056,0.019-0.079,0.037l-2.25,1.347
			c-0.359,0.216-0.767,0.33-1.181,0.33c-0.766,0-1.479-0.381-1.918-1.028c-0.347-0.519-0.466-1.146-0.337-1.753
			c0.128-0.609,0.492-1.131,1.011-1.466l0.33-0.208c0.24-0.146,0.451-0.279,0.643-0.396c0.133-0.083,0.193-0.245,0.15-0.395
			c-0.088-0.276-0.23-0.524-0.364-0.712c0.529-0.231,1.241-0.643,1.601-1.06c0,0,0.005,0.002,0.007,0.002
			c0.073,0.046,0.163,0.095,0.265,0.143c0.005,0.003,0.007,0.005,0.017,0.008l0,0c0.257,0.125,0.585,0.248,0.958,0.322
			c-0.4,0.498-0.813,1.118-0.96,1.532c-0.286,0.126-0.88,0.463-2.27,1.347c-0.366,0.236-0.618,0.598-0.705,1.025
			c-0.093,0.427-0.01,0.864,0.235,1.227c0.308,0.464,0.814,0.72,1.34,0.72c0.284,0,0.567-0.075,0.824-0.229l2.376-1.427
			c0.369-0.09,2.216-0.644,3.614-2.905c1.099-1.774,1.715-3.203,1.969-3.849l0.041,0.021c0.146,0.071,0.304,0.108,0.464,0.108
			c0.264,0,0.525-0.105,0.72-0.29c0.206-0.194,0.317-0.461,0.317-0.745v-1.646C31.49-4.145,31.409-4.271,31.283-4.325z"/>
	</g>
	<g id="Faible">
		<path id="Famine" display="none" fill="#F9F9F9" d="M28.173,8.396l-2.746,0.519l-4.485-2.438l1.629-2.035l3.668,1.218
			L28.173,8.396z M32.392,3.631v0.304l-2.891,0.917l-2.855,0.406l-3.668-1.22l-0.86-0.407h0.492c-0.119-1.091-0.276-1.917-0.352-3
			h-0.005c-0.002-0.032-0.041-0.757-0.051-1.065c-0.056-0.325-0.211-0.456-0.72-0.805c-0.279-0.182-0.487-0.245-0.604-0.243
			c-0.188,0-0.352,0.204-0.391,0.813c0.814,0.139,0.87,1.042,0.87,1.042c0.073,0.642-0.242,1.58-0.967,1.822
			c-1.347,0.448-1.208-2.138-0.451-2.759c0.021-0.745,0.23-1.429,0.938-1.457c0.28,0.002,0.566,0.118,0.899,0.328
			c0.157,0.095,0.285,0.191,0.397,0.291c-0.015-0.246-0.029-0.497-0.029-0.754C22.144-2.7,22.232-3.292,22.714-3.71
			c0.247-0.226,0.525-0.342,0.802-0.34c0.718,0.035,1.161,0.653,1.421,1.286c0.303-0.132,0.679-0.196,1.113-0.046
			c1.105,0.384,1.696,2.306,1.236,2.978c-1.089,1.563-3.828-1.347-3.101-2.362c0,0,0.104-0.138,0.29-0.29
			c-0.213-0.561-0.64-1.062-0.96-1.026c-0.121,0.002-0.262,0.045-0.443,0.206c-0.303,0.268-0.386,0.649-0.386,1.15
			c0,0.353,0.044,0.745,0.044,1.138c0,0.205,0.015,0.386,0.02,0.583c0.051,0.35,0.054,0.62,0.051,0.989
			c0.075,1.079,0.512,1.964,0.626,3.076H32.392z M24.675-2.271L26.75-0.01c-0.368-1.604-1.685-2.498-1.685-2.498L24.675-2.271z
			 M20.374-0.331l-0.373,0.152c0,0-0.185,1.264,0,1.924L20.374-0.331z M18.515,7.294l1.648-0.992l1.722-2.127L21.347,3.63h-3.799
			l-0.754,1.505L18.515,7.294z M20.44,6.953l-2.924,1.99l0.39,0.483h6.726L24.61,9.326L20.44,6.953z M14.426,3.631v2.293
			l1.873-1.004l0.568-1.29H14.426z M27.189,5.749l1.813,2.628l3.39,0.797V6.168L29.95,5.382L27.189,5.749z M32.392,5.508V4.447
			L30.49,4.962L32.392,5.508z M16.345,5.656l-1.92,0.914v2.854h1.403l2.091-1.713L16.345,5.656z M26.396,9.425h4.391l-2.1-0.509
			L26.396,9.425z"/>
		<path id="Cyclone" display="none" fill="#FFFFFF" d="M23.48-2.541c-0.095-0.005-0.187-0.017-0.278-0.017
			c-0.824,0-1.598,0.214-2.271,0.586c1.204-4.098,4.206-4.456,4.206-4.456s-6.634,0.553-6.634,8.292c0.005,0,0.01,0,0.015,0
			c-0.005,0.093-0.015,0.184-0.015,0.277c0,0.819,0.216,1.594,0.587,2.271c-4.099-1.206-4.457-4.204-4.457-4.204
			s0.553,6.633,8.294,6.633c0-0.006,0-0.009,0-0.017c0.09,0.005,0.182,0.017,0.276,0.017c0.824,0,1.596-0.215,2.271-0.589
			c-1.205,4.1-4.208,4.458-4.208,4.458S27.9,10.156,27.9,2.417c-0.005,0-0.01,0-0.013,0C27.89,2.325,27.9,2.235,27.9,2.143
			c0-0.824-0.214-1.599-0.59-2.271c4.1,1.202,4.459,4.205,4.459,4.205S31.22-2.557,23.48-2.557C23.48-2.55,23.48-2.545,23.48-2.541z
			"/>
		<path id="tsunami" display="none" fill="#FFFFFF" d="M31.533,7.602c-13.649,0.773-9.835-9.667-6.296-8.767
			c-0.363,0.223-0.599,0.991-0.373,1.507c0.247,0.553,1.045,0.87,1.505,0.754c1.101-0.284,1.149-1.827,0.752-2.637
			c-0.41-0.843-1.496-1.883-3.387-1.883c-4.575,0-7.692,2.334-8.867,6.348v5.901h16.667V7.599h-0.002V7.602z"/>
		<path id="earthquake" display="none" fill="#FFFFFF" d="M28.059,2.657c-0.234,0-0.448,0.129-0.558,0.336L26.59,4.708l-1.122-3.286
			c-0.088-0.249-0.315-0.417-0.577-0.429c-0.27-0.006-0.502,0.145-0.608,0.387l-0.767,1.827l-1.214-7.276
			c-0.059-0.304-0.342-0.535-0.638-0.519c-0.311,0.006-0.57,0.212-0.611,0.521L19.98,4.376l-0.871-4.53
			c-0.049-0.266-0.267-0.471-0.538-0.509c-0.267-0.038-0.536,0.108-0.652,0.352l-1.425,2.968h-2.211v1.265h2.609
			c0.243,0,0.467-0.14,0.572-0.358l0.762-1.593l1.236,6.427c0.059,0.299,0.318,0.515,0.621,0.515c0.005,0,0.013,0,0.018,0
			c0.31-0.008,0.569-0.242,0.61-0.548l1.058-8.298l0.882,5.461c0.054,0.276,0.276,0.484,0.556,0.516
			c0.281,0.026,0.543-0.126,0.654-0.386l0.95-2.255l1.057,3.096c0.08,0.24,0.294,0.408,0.546,0.429
			c0.252,0.014,0.492-0.111,0.61-0.335L28.44,3.92h2.715V2.657H28.059z"/>
	</g>
	<g id="Modéré">
	</g>
	<g id="Important">
	</g>
	<g id="Elevé">
	</g>
	<g id="Extreme" display="none">
		<path id="rebelion" display="inline" fill="#FFFFFF" d="M25.785-2.308c0,1.526-1.234,2.757-2.757,2.757
			c-1.524,0-2.759-1.235-2.759-2.757c0-1.525,1.234-2.757,2.759-2.757C24.551-5.065,25.785-3.833,25.785-2.308z M18.425,9.389h1.686
			h0.089l0.062-0.128l0.613-0.6l-0.565-0.12l-0.895-0.193L18.425,9.389z M29.962-1.796L29.37-1.204l0.042,0.041l-0.478,0.482
			c0.063,0.058,0.126,0.118,0.179,0.186l0.48-0.481l0.1,0.089l0.584-0.595L29.962-1.796z M26.156,1.263l-0.255,0.252l0.026,0.072
			l0.059,0.135l-4.02,4.033l0.432,0.094c0.397,0.083,0.739,0.321,0.963,0.665c0.028,0.048,0.036,0.108,0.063,0.16l0.012-0.015
			l0.299,0.195l0.104-0.021l1.173,0.85l0.788-1.08l-1.746-1.363l0.037-0.114h0.288l1.717-2.011l0.188-1.802L26.156,1.263z
			 M28.023-0.521c-0.519-0.057-1.027,0.333-1.088,0.873L26.869,0.94l0,0L26.83,1.365l-0.191,1.805l-0.02,0.167l-0.106,0.13
			l-1.535,1.799l1.154,0.906l0.417,0.326l-0.242,0.33l0.063,0.122c0.16,0.345,0.512,0.561,0.89,0.561
			c0.054,0,0.106-0.001,0.165-0.014c0.432-0.074,0.767-0.426,0.813-0.862l0.656-6.067C28.953,0.024,28.561-0.464,28.023-0.521z
			 M26.016,7.229l-0.563,0.775l-0.322,0.442L24.69,8.125l-0.97-0.702l-0.087,0.021L23.596,7.42c0,0.083-0.002,0.163-0.02,0.248
			c-0.019,0.081-0.048,0.155-0.079,0.231c-0.062,0.142-0.139,0.267-0.233,0.383l0.068,0.155c0.067,0.154,0.162,0.356,0.276,0.53
			l0.271,0.422h2.072L26.016,7.229z M22.076,8.879c-0.024,0-0.049-0.007-0.073-0.009c-0.01,0.045-0.017,0.077-0.017,0.077
			l0.232,0.44h0.561l0.363-0.127c-0.124-0.192-0.223-0.399-0.315-0.606C22.603,8.786,22.353,8.879,22.076,8.879z M22.886,6.792
			c-0.039-0.062-0.1-0.11-0.157-0.16c-0.029-0.031-0.059-0.072-0.098-0.097c-0.102-0.072-0.223-0.125-0.349-0.155l-0.432-0.087
			l-0.979-0.211l0,0l-0.868-0.185l-0.337-0.071l-0.558-0.122l-0.034-0.006l0.085-0.091l0.379-0.373l0.399-0.405
			c0.034,0.278,0.049,0.497,0.049,0.502l0.131,0.027l1.217,0.259l0.247-0.251l3.763-3.778l-0.082-0.211l0.031-0.025
			c-0.546-0.166-1.188-0.258-1.997-0.258h-0.265c0,0-0.262,0-0.265,0c-0.567,0-1.142,0.038-1.704,0.164
			c-0.962,0.216-1.562,1.161-2.221,1.81C18.16,3.738,17.5,4.436,16.839,5.124c-0.146,0.154-0.293,0.312-0.443,0.464
			c-0.256,0.255-0.348,0.629-0.246,0.978c0.099,0.347,0.387,0.607,0.74,0.687l1.3,0.278l0.55,0.116l3.131,0.667
			c0.07,0.011,0.141,0.022,0.206,0.022c0.456,0,0.863-0.317,0.962-0.779c0.039-0.183,0.01-0.354-0.043-0.518l-0.063-0.125
			C22.915,6.877,22.903,6.839,22.886,6.792z M21.504,9.201l-0.095-0.179l0.049-0.198l0.01-0.039l-0.153-0.032l-0.55,0.634h0.839
			L21.504,9.201z"/>
	</g>
	<path id="displaced" display="none" fill="#FFFFFF" d="M24.149-4.69c0.134,0.852-0.438,1.651-1.282,1.788
		c-0.849,0.141-1.653-0.435-1.791-1.279c-0.139-0.849,0.434-1.653,1.284-1.792C23.203-6.11,24.006-5.535,24.149-4.69z M23.661,1.484
		l1.377,2.199c0.196,0.31,0.6,0.41,0.914,0.227C26.27,3.721,26.379,3.32,26.204,3l-0.352-0.632c-0.305-0.54-0.604-1.084-0.904-1.627
		l-0.61-1.112c-0.07-0.131-0.139-0.277-0.214-0.43c-0.375-0.792-0.965-2.018-2.259-1.909c-1.108,0.097-2.232,0.623-3.339,1.563
		c-1.31,1.033-2.225,2.534-2.26,2.598c-0.044,0.064-0.084,0.134-0.117,0.196c-0.003,0.002-0.003,0.004-0.006,0.006l0,0
		c-0.124,0.231-0.185,0.443-0.03,0.714c0.121,0.211,0.345,0.341,0.588,0.341c0.298,0,0.446-0.14,0.592-0.348l0,0
		c0.003,0,0.003-0.005,0.003-0.005c0.041-0.061,0.078-0.127,0.127-0.196c0.008-0.013,0.775-1.246,1.963-2.259
		c0.367-0.288,0.716-0.485,1.043-0.595l-0.269,3.203c-0.027,0.317-0.126,0.866-0.211,1.17l-0.598,2.088
		c-0.079,0.264-0.3,0.702-0.475,0.914l-1.611,1.996c-0.203,0.253-0.433,0.54-0.244,0.937C17.135,9.849,17.372,10,17.634,10
		c0.311,0,0.48-0.179,0.688-0.407l1.63-1.758c0.291-0.315,0.672-0.859,0.858-1.244l0.81-1.644l2.989,5.021
		c0.146,0.247,0.332,0.559,0.734,0.559l0,0c0.235,0,0.446-0.12,0.567-0.312c0.218-0.332,0.075-0.634-0.049-0.907l-2.417-5.25
		c-0.094-0.208-0.147-0.625-0.106-0.852L23.661,1.484z M26.195,6.948h3.625v1.077l3.595-2.079L29.82,3.868v1.077h-3.625V6.948z"/>
	<path id="epidemie" display="none" fill="#FFFFFF" d="M30.322,2.834c0-3.902-3.058-7.078-6.907-7.274
		c1.702,0.161,3.025,1.396,3.025,2.898c0,0.517-0.17,0.992-0.443,1.412c-0.762-0.757-1.806-1.224-2.963-1.224
		c-1.153,0-2.196,0.466-2.952,1.221c-0.274-0.419-0.443-0.896-0.443-1.412c0-1.499,1.32-2.736,3.021-2.897
		c-3.851,0.197-6.909,3.374-6.909,7.276c0,1.176,0.287,2.287,0.78,3.272c-0.678-1.542-0.267-3.274,1.017-4.016
		c0.449-0.258,0.951-0.35,1.446-0.321c-0.093,0.344-0.155,0.701-0.155,1.075c0,1.938,1.324,3.556,3.11,4.038
		c-0.024,0.042-0.053,0.081-0.077,0.121c0,0.004,0,0.004,0,0.01c-0.059,0.133-0.134,0.24-0.224,0.333
		c-0.191,0.25-0.414,0.474-0.697,0.638c-1.293,0.745-3.01,0.229-4-1.145c1.303,1.979,3.542,3.289,6.084,3.289
		c2.521,0,4.742-1.282,6.054-3.229c-0.999,1.33-2.684,1.818-3.954,1.088c-0.451-0.263-0.78-0.655-1.006-1.11
		c1.786-0.482,3.103-2.102,3.103-4.035c0-0.373-0.063-0.73-0.157-1.074c0.507-0.033,1.006,0.059,1.457,0.32
		c1.248,0.72,1.673,2.372,1.074,3.88C30.062,5.018,30.322,3.958,30.322,2.834z M23.81,5.641c-0.029-0.607,0.097-1.244,0.402-1.846
		l-0.487-0.279c-0.175,0.18-0.417,0.291-0.691,0.291c-0.269,0-0.514-0.111-0.688-0.291l-0.478,0.273
		c0.306,0.605,0.435,1.247,0.397,1.854c-1.229-0.336-2.145-1.46-2.145-2.797c0-0.257,0.041-0.499,0.104-0.734
		c0.538,0.272,1.028,0.696,1.401,1.257l0.487-0.284c-0.021-0.083-0.051-0.162-0.051-0.252c0-0.451,0.311-0.814,0.729-0.924V1.357
		c-0.676-0.045-1.289-0.254-1.799-0.586c0.528-0.519,1.246-0.837,2.041-0.837c0.796,0,1.518,0.321,2.044,0.84
		c-0.512,0.333-1.122,0.54-1.799,0.583v0.555c0.417,0.11,0.728,0.473,0.728,0.924c0,0.091-0.026,0.167-0.046,0.252l0.492,0.288
		c0.37-0.561,0.86-0.983,1.394-1.255c0.061,0.231,0.102,0.473,0.102,0.724C25.948,4.18,25.041,5.299,23.81,5.641z"/>
	<path id="enlevement" display="none" fill="#FFFFFF" d="M29.112-5.876c-0.451,0-0.819,0.37-0.819,0.823v3.348
		c0.198,0.044,0.388,0.127,0.54,0.276c0.435,0.427,0.444,1.128,0.022,1.565l-1.56,1.601L27.08,1.528l1.563-1.596
		c0.313-0.324,0.305-0.837-0.018-1.154c-0.099-0.095-0.218-0.16-0.342-0.196c-0.138-0.038-0.276-0.04-0.412-0.012
		c-0.15,0.04-0.286,0.116-0.39,0.23c-0.924,0.947-1.853,1.895-2.776,2.845c-0.232,0.238-0.654,0.782-0.643,1.324
		c0.008,0.51-0.007,1.034,0.003,1.546c-0.124-0.097-0.27-0.168-0.434-0.2c-0.478-0.078-0.907,0.206-1.072,0.631h-0.239
		c0-0.117,0-0.233,0.002-0.351c0.01-0.535-0.01-1.089,0.005-1.627c0.01-0.544-0.412-1.087-0.647-1.326
		c-0.924-0.948-1.847-1.896-2.776-2.846c-0.106-0.112-0.24-0.19-0.393-0.228c-0.136-0.028-0.273-0.026-0.409,0.012
		c-0.127,0.037-0.245,0.102-0.346,0.198c-0.317,0.314-0.324,0.828-0.013,1.154l1.561,1.593l-0.216,0.209l-1.557-1.601
		c-0.426-0.437-0.415-1.138,0.021-1.563c0.152-0.148,0.341-0.233,0.54-0.276v-3.348c0-0.454-0.369-0.823-0.82-0.823
		c-0.455,0-0.822,0.37-0.822,0.823v5.795c0,0.189,0.078,0.362,0.189,0.504l2.798,3.696h-0.247c-0.543,0-0.989,0.442-0.989,0.992
		c0,0.362,0.204,0.667,0.495,0.837c-0.291,0.171-0.495,0.478-0.495,0.837c0,0.548,0.441,0.993,0.989,0.993h0.301v0.55h2.75
		c0.146,0.144,0.313,0.247,0.514,0.282c0.056,0.009,0.109,0.014,0.165,0.014c0.482,0,0.895-0.344,0.975-0.822l0.002-0.024h0.177
		c0.003,0.182,0,0.361,0.022,0.549h2.795V8.604h0.306c0.543,0,0.989-0.442,0.989-0.993c0-0.36-0.206-0.666-0.5-0.837
		c0.294-0.171,0.5-0.475,0.5-0.84c0-0.546-0.444-0.989-0.989-0.989h-0.25l2.8-3.699c0.114-0.141,0.189-0.314,0.189-0.504v-5.792
		C29.933-5.507,29.568-5.876,29.112-5.876z M18.697,5.934c0-0.273,0.226-0.493,0.494-0.493h3.244L22.263,6.43h-3.072
		C18.919,6.427,18.697,6.208,18.697,5.934z M18.697,7.611c0-0.271,0.226-0.495,0.494-0.495h2.953l-0.169,0.992h-2.784
		C18.919,8.107,18.697,7.887,18.697,7.611z M23.405,8.543c-0.041,0.272-0.324,0.448-0.569,0.407
		c-0.131-0.023-0.242-0.095-0.32-0.201c-0.08-0.109-0.106-0.241-0.085-0.37l0.546-3.17c0.041-0.239,0.25-0.412,0.494-0.412
		c0.024,0,0.054,0,0.078,0.006c0.269,0.046,0.448,0.302,0.402,0.571L23.405,8.543z M27.689,7.611c0,0.274-0.224,0.495-0.492,0.495
		h-3.213l0.173-0.992h3.04C27.465,7.118,27.689,7.34,27.689,7.611z M27.689,5.934c0,0.273-0.224,0.493-0.492,0.493h-2.922
		l0.168-0.969c0.002-0.007,0-0.013,0-0.021h2.751C27.465,5.44,27.689,5.663,27.689,5.934z"/>
	<path id="eruption" display="none" fill="#FFFFFF" d="M24.508-1.054c0.986,0.336,2.298,0.735,2.577-0.859
		c0.223-1.239,1.876-0.779,2.579-0.857c1.28-0.148,0.313-2.545-1.29-2.581c-1.624-0.036-2.361,0.676-3.006,2.149
		c-0.311,0.708-0.572,1.241-1.719,0.86c-1.146-0.384-1.988,0.558-1.292,1.719c0.618,1.026-0.01,2.146-0.01,2.146h1.733
		c0,0-0.015-0.636-0.432-1.289C23.162-0.524,23.497-1.403,24.508-1.054z M15.349,9.636c4.448-3.238,5.559-7.72,5.559-7.72h4.57
		c0,0,1.11,4.479,5.556,7.72H15.349z"/>
	<path id="returned" display="none" fill="#FFFFFF" d="M22.731-3.935c0.114,0.7-0.363,1.362-1.06,1.477
		c-0.7,0.116-1.359-0.361-1.477-1.059c-0.113-0.701,0.356-1.361,1.063-1.477C21.95-5.109,22.616-4.636,22.731-3.935z M22.331,1.16
		l1.137,1.818c0.157,0.253,0.494,0.336,0.756,0.184c0.257-0.154,0.347-0.486,0.201-0.75L24.139,1.89
		c-0.249-0.445-0.494-0.896-0.744-1.343l-0.507-0.921c-0.061-0.103-0.116-0.225-0.177-0.35c-0.313-0.655-0.8-1.668-1.866-1.574
		c-0.914,0.078-1.841,0.512-2.755,1.288c-1.078,0.853-1.835,2.091-1.87,2.142c-0.033,0.056-0.065,0.111-0.094,0.166
		c-0.002,0.002-0.004,0.002-0.004,0.004l0,0c-0.102,0.19-0.151,0.366-0.025,0.588c0.098,0.176,0.284,0.285,0.487,0.285
		c0.242,0,0.367-0.115,0.486-0.289l0,0c0.002-0.002,0.002-0.002,0.002-0.002c0.034-0.053,0.067-0.108,0.104-0.167
		c0.007-0.009,0.642-1.026,1.622-1.863c0.303-0.236,0.589-0.4,0.861-0.49l-0.219,2.646c-0.021,0.264-0.104,0.714-0.177,0.968
		l-0.49,1.723c-0.065,0.218-0.249,0.579-0.395,0.754l-1.33,1.647c-0.168,0.209-0.357,0.445-0.2,0.776
		c0.092,0.191,0.287,0.316,0.502,0.316c0.257,0,0.395-0.147,0.571-0.336l1.346-1.451c0.242-0.261,0.553-0.709,0.706-1.029
		l0.666-1.356l2.471,4.146c0.121,0.205,0.276,0.459,0.61,0.459l0,0c0.189,0,0.366-0.097,0.471-0.261
		c0.177-0.272,0.059-0.519-0.041-0.744l-1.998-4.337c-0.077-0.167-0.121-0.515-0.09-0.702L22.331,1.16z M30.641,2.085
		c0-1.811-1.474-3.281-3.28-3.281h-1.394V0.46h1.392c0.895,0,1.622,0.726,1.622,1.625c0,0.896-0.728,1.625-1.622,1.625h-0.288V2.82
		l-2.973,1.717l2.973,1.716V5.363h0.324V5.362C29.187,5.343,30.641,3.884,30.641,2.085z"/>
	<path id="Attack" display="none" fill="#FFFFFF" d="M27.017,3.267L31.9,0.14l-4.718-0.502l1.28-5.482l-3.346,3.459l-0.934-3.907
		L22.78-2.645L18.955-7.57l1.203,6.172l-3.4-0.755c0,0,1.033,1.978,1.608,3.167l-5.453-0.382l4.936,2.887l-1.417,1.457l2.295-0.419
		l-1.626,5.751l4.834-4.042l1.253,3.124l1.287-2.499l4.17,4.303l-2.085-5.761l4.57,0.462L27.017,3.267z"/>
	<g id="affected" display="none">
		<path display="inline" fill="#FFFFFF" d="M19.297-4.354c0,0.708-0.576,1.28-1.282,1.28c-0.707,0-1.285-0.574-1.285-1.28
			s0.575-1.279,1.285-1.279C18.723-5.634,19.297-5.063,19.297-4.354z M18.149,4.42l0.278,4.729c0,0.166,0.136,0.301,0.296,0.301
			c0.167,0,0.306-0.136,0.306-0.301l0.254-4.728h0.838l-0.864-5.305l1.739,3.465c0.065,0.154,0.242,0.225,0.395,0.162
			c0.153-0.065,0.229-0.24,0.163-0.394c0,0-1.275-3.449-1.593-4.091c-0.315-0.644-0.626-1.036-1.824-1.036h-0.244
			c-1.195,0-1.509,0.39-1.822,1.035c-0.314,0.646-1.59,4.092-1.59,4.092c-0.065,0.157,0.006,0.329,0.159,0.398
			c0.154,0.064,0.328-0.009,0.395-0.162l1.738-3.467L15.908,4.42h0.835l0.261,4.727c0,0.167,0.134,0.301,0.296,0.301
			c0.17,0,0.305-0.136,0.305-0.301l0.26-4.727H18.149L18.149,4.42z M28.369-5.641c-0.708,0-1.284,0.575-1.284,1.281
			c0,0.708,0.571,1.283,1.284,1.283c0.703,0,1.28-0.575,1.28-1.283C29.65-5.065,29.073-5.641,28.369-5.641z M29.696,1.902
			l0.082-2.788l1.571,3.468c0.061,0.154,0.24,0.225,0.393,0.161c0.158-0.066,0.23-0.24,0.168-0.396c0,0-1.108-3.449-1.424-4.091
			c-0.313-0.642-0.797-1.034-1.992-1.034h-0.247c-1.195,0-1.683,0.39-1.995,1.034c-0.311,0.642-1.419,4.088-1.419,4.088
			c-0.067,0.157,0.005,0.329,0.158,0.398c0.15,0.065,0.334-0.007,0.393-0.161l1.573-3.468l0.08,2.788L26.789,8.91
			c-0.015,0.277,0.193,0.518,0.468,0.538c0.015,0.002,0.029,0.002,0.038,0.002c0.26,0,0.487-0.204,0.505-0.468l0.567-5.771
			l0.569,5.771c0.02,0.267,0.24,0.468,0.499,0.468c0.015,0,0.029,0,0.037-0.002c0.278-0.021,0.487-0.261,0.47-0.538L29.696,1.902
			L29.696,1.902z M23.192,2.153c-0.437,0-0.79,0.35-0.79,0.784c0,0.434,0.351,0.783,0.79,0.783c0.434,0,0.783-0.35,0.783-0.783
			C23.975,2.503,23.623,2.153,23.192,2.153z M23.192,6.78c0,0,0.352,2.457,0.352,2.459c0.048,0.123,0.16,0.208,0.303,0.208
			c0.141,0,0.26-0.095,0.303-0.221c0-0.01,0.008-0.153,0-0.179l-0.147-3.021l0.051-1.039C24.091,4.634,24.096,4.74,24.5,4.5
			c0.41-0.247,1.105-1.326,1.138-1.379c0.036-0.053,0.102-0.148,0.113-0.211c0.02-0.108-0.053-0.208-0.162-0.233
			c-0.08-0.014-0.148,0.03-0.201,0.085c-0.056,0.062-0.855,1.13-1.457,1.23c-0.136-0.021-0.279-0.091-0.667-0.091h-0.147
			c-0.386,0-0.528,0.071-0.664,0.091c-0.602-0.102-1.404-1.169-1.462-1.23c-0.049-0.054-0.116-0.099-0.199-0.085
			c-0.106,0.027-0.182,0.128-0.157,0.236c0.01,0.06,0.072,0.155,0.106,0.211c0.036,0.052,0.732,1.132,1.142,1.379
			c0.4,0.239,0.412,0.134,0.449,0.486l0.046,1.039l-0.144,3.024c-0.007,0.025,0,0.169,0.005,0.177
			c0.041,0.126,0.158,0.221,0.301,0.221c0.136,0,0.252-0.084,0.293-0.207C22.837,9.241,23.192,6.78,23.192,6.78"/>
	</g>
	<g id="foodsec" display="none">
		<path display="inline" fill="#FFFFFF" d="M31.926,3.366L31.926,3.366c-0.046,1.254-0.473,2.615-1.132,3.871
			c0,0-1.566,3.173-6.485,3.173c-4.927,0-6.52-3.147-6.52-3.147c-0.661-1.262-1.057-2.615-1.109-3.899h0.002
			c0-0.033-0.002-0.066-0.002-0.1c0-0.603,0.375-1.168,1.017-1.654l0.685,0.438c-0.424,0.284-0.669,0.603-0.669,0.939
			c0,1.19,2.953,2.154,6.597,2.154c3.637,0,6.584-0.964,6.584-2.154c0-0.822-1.41-1.537-3.49-1.899l0.012-0.865
			c2.657,0.521,4.514,1.683,4.514,3.041C31.931,3.299,31.928,3.331,31.926,3.366z M19.215-1.754
			c-0.026,0.199-0.059,0.523,0.189,0.964c0.308,0.529,0.703,0.717,0.829,0.807c-0.02-0.138,0.018-0.547-0.271-1.047
			c-0.25-0.445-0.521-0.646-0.684-0.799c-0.454-0.656-0.97-1.185-1.36-1.598l-0.934-0.97c0,0,0.338,0.389,0.895,1.002
			C18.265-2.965,18.769-2.42,19.215-1.754z M21.55,3.373c0.196,0.187,0.448,0.493,1.011,0.806c0.628,0.35,1.159,0.35,1.336,0.392
			c-0.1-0.165-0.303-0.682-0.996-1.067c-0.569-0.314-0.994-0.253-1.256-0.208c-0.858-0.501-1.595-1.014-2.189-1.378
			c-0.849-0.523-1.399-0.791-1.396-0.791c-0.003,0,0.533,0.292,1.364,0.843C19.996,2.348,20.701,2.867,21.55,3.373z M22.054,0.638
			c-0.069,0.231-0.167,0.607,0.054,1.157c0.26,0.673,0.701,0.956,0.829,1.078c0.008-0.162,0.121-0.629-0.126-1.262
			c-0.218-0.563-0.504-0.842-0.667-1.05c-0.424-0.842-0.945-1.541-1.343-2.085l-0.952-1.284l0.901,1.312
			C21.136-0.934,21.642-0.214,22.054,0.638z M20.454,2.004c0.189,0.171,0.434,0.455,0.963,0.734c0.596,0.31,1.088,0.298,1.253,0.332
			c-0.1-0.146-0.303-0.625-0.953-0.967c-0.538-0.281-0.931-0.219-1.176-0.175c-0.805-0.451-1.501-0.913-2.059-1.248
			c-0.799-0.476-1.318-0.715-1.313-0.718c-0.005,0.005,0.501,0.271,1.282,0.771C18.988,1.075,19.659,1.55,20.454,2.004z
			 M19.315,0.659c0.175,0.155,0.405,0.414,0.899,0.66c0.556,0.282,1.014,0.26,1.166,0.289c-0.094-0.137-0.291-0.569-0.899-0.874
			c-0.496-0.252-0.862-0.188-1.086-0.145c-0.754-0.406-1.406-0.825-1.926-1.131c-0.747-0.433-1.228-0.651-1.226-0.654
			c-0.002,0.002,0.468,0.245,1.199,0.699C17.943-0.181,18.571,0.248,19.315,0.659z M18.151-1.302
			c0.332,0.297,0.649,0.315,0.829,0.374c-0.036-0.146-0.005-0.505-0.388-0.842c-0.32-0.279-0.649-0.302-0.816-0.316
			c-1.338-1.147-2.528-1.882-2.8-2.058l-0.06-0.041c-0.012,0.01,1.294,0.87,2.828,2.214C17.794-1.805,17.882-1.531,18.151-1.302z
			 M18.126-0.667c0.168,0.139,0.381,0.372,0.839,0.594c0.512,0.254,0.937,0.23,1.08,0.251c-0.093-0.122-0.279-0.513-0.842-0.789
			c-0.464-0.222-0.798-0.167-1.004-0.125c-0.699-0.361-1.298-0.75-1.785-1.021c-0.689-0.395-1.136-0.591-1.136-0.591
			s0.439,0.216,1.109,0.634C16.857-1.433,17.438-1.042,18.126-0.667z M20.673-0.596c-0.049,0.215-0.109,0.567,0.126,1.061
			c0.286,0.605,0.705,0.834,0.839,0.945c-0.01-0.15,0.058-0.588-0.206-1.158c-0.24-0.503-0.521-0.746-0.682-0.922
			c-0.446-0.75-0.96-1.365-1.36-1.845l-0.948-1.125l0.902,1.155C19.735-1.99,20.239-1.356,20.673-0.596z M25.936,0.691
			c-0.148,0.148-0.388,0.393-0.461,0.905c-0.092,0.621,0.111,1.013,0.158,1.166c0.072-0.125,0.363-0.435,0.45-1.018
			c0.078-0.521-0.015-0.852-0.048-1.075c0.046-0.816-0.049-1.567-0.119-2.146c-0.102-0.845-0.175-1.37-0.175-1.37l0.126,1.37
			C25.916-0.888,25.991-0.128,25.936,0.691z M25.453-0.701c-0.134,0.148-0.335,0.39-0.371,0.866
			c-0.046,0.581,0.167,0.932,0.221,1.069c0.056-0.119,0.311-0.425,0.354-0.971c0.037-0.487-0.07-0.786-0.116-0.994
			c-0.005-0.754-0.133-1.442-0.23-1.973l-0.232-1.255l0.191,1.258C25.347-2.156,25.455-1.461,25.453-0.701z M24.891-2.063
			c-0.109,0.142-0.279,0.38-0.284,0.821c-0.009,0.538,0.214,0.847,0.271,0.97c0.044-0.116,0.255-0.414,0.263-0.916
			c0.005-0.453-0.109-0.717-0.163-0.905c-0.061-0.696-0.213-1.316-0.334-1.799L24.36-5.035l0.24,1.147
			C24.701-3.395,24.847-2.762,24.891-2.063z M25.877,4.304c0.09-0.126,0.427-0.436,0.565-1.058c0.121-0.55,0.041-0.913,0.023-1.158
			c0.098-0.877,0.047-1.689,0.01-2.313c-0.061-0.914-0.108-1.485-0.108-1.485l0.046,1.482c0.024,0.637,0.056,1.455-0.059,2.333
			c-0.172,0.151-0.438,0.397-0.558,0.939C25.652,3.704,25.843,4.136,25.877,4.304z M23.082-2.958
			c0.07,0.155,0.139,0.401,0.393,0.715c0.281,0.358,0.592,0.475,0.688,0.54c-0.021-0.119-0.017-0.465-0.327-0.857
			c-0.257-0.317-0.517-0.387-0.679-0.423c-0.376-0.501-0.672-0.979-0.926-1.338c-0.356-0.521-0.613-0.81-0.611-0.812
			c-0.002,0.001,0.237,0.304,0.577,0.831C22.433-3.941,22.714-3.458,23.082-2.958z M23.32-3.415
			c0.141,0.327,0.359,0.447,0.471,0.546c0.02-0.118,0.17-0.372,0.017-0.744c-0.131-0.312-0.363-0.437-0.482-0.502
			c-0.558-1.289-1.153-2.219-1.289-2.438l-0.029-0.049c-0.013,0.005,0.628,1.07,1.258,2.562C23.242-3.904,23.208-3.675,23.32-3.415z
			 M23.882-0.809c0.301,0.387,0.641,0.526,0.742,0.597c-0.018-0.133-0.008-0.514-0.34-0.939C24.011-1.5,23.73-1.576,23.55-1.618
			c-0.402-0.546-0.725-1.07-0.991-1.466c-0.386-0.565-0.649-0.884-0.649-0.885c0,0,0.249,0.335,0.613,0.909
			c0.252,0.396,0.553,0.919,0.945,1.471C23.543-1.421,23.615-1.156,23.882-0.809z M24.248-3.395
			c-0.09,0.141-0.226,0.365-0.203,0.768c0.036,0.494,0.254,0.76,0.314,0.868c0.032-0.105,0.206-0.395,0.175-0.859
			c-0.024-0.41-0.15-0.646-0.211-0.814c-0.095-0.627-0.281-1.189-0.417-1.619l-0.33-1.023c0,0,0.103,0.395,0.289,1.033
			C23.989-4.599,24.163-4.032,24.248-3.395z M23.817-0.226c0.078,0.188,0.15,0.475,0.435,0.854c0.317,0.423,0.676,0.578,0.787,0.66
			c-0.017-0.144,0.003-0.559-0.344-1.027c-0.286-0.384-0.592-0.467-0.785-0.513c-0.425-0.6-0.762-1.167-1.045-1.599
			c-0.41-0.614-0.698-0.961-0.698-0.965c0,0.003,0.269,0.366,0.654,0.991C23.087-1.394,23.403-0.826,23.817-0.226z M19.686,3.522
			c0,0.002,0.473,0.268,1.207,0.788c0.054,0.01,0.103,0.022,0.16,0.034C20.224,3.795,19.686,3.522,19.686,3.522z M25.56,4.554
			c-0.106-0.168-0.223-0.298-0.337-0.395c-0.039-0.105-0.077-0.205-0.121-0.292c0.247,0.255,0.482,0.381,0.569,0.451
			c0-0.008,0-0.025,0-0.039c0.029,0.097,0.054,0.2,0.088,0.304c0.048-0.002,0.097-0.007,0.143-0.009
			c-0.087-0.295-0.185-0.582-0.286-0.853c-0.039-0.147-0.097-0.304-0.193-0.478c-0.093-0.211-0.185-0.417-0.276-0.612
			c0.113,0.077,0.203,0.128,0.249,0.161c-0.012-0.153,0.022-0.602-0.342-1.113c-0.216-0.3-0.441-0.434-0.633-0.506l-0.576-1.126
			c0,0,0.188,0.411,0.514,1.104c-0.051-0.015-0.097-0.03-0.136-0.04c-0.443-0.653-0.798-1.27-1.096-1.733
			c-0.427-0.666-0.732-1.045-0.729-1.045c0,0.002,0.285,0.392,0.688,1.07c0.278,0.467,0.605,1.083,1.037,1.735
			c0.077,0.201,0.15,0.513,0.443,0.926c0.139,0.194,0.284,0.335,0.42,0.442c0.048,0.113,0.102,0.231,0.155,0.355
			c-0.25-0.252-0.505-0.33-0.672-0.381c-0.051-0.076-0.095-0.151-0.141-0.225c-0.288-0.617-0.594-1.158-0.854-1.611
			c-0.569-0.992-0.938-1.599-0.936-1.599l0.868,1.627c0.067,0.122,0.133,0.256,0.206,0.39c-0.095-0.162-0.185-0.316-0.27-0.456
			c-0.441-0.719-0.761-1.121-0.761-1.124c0,0.003,0.293,0.422,0.713,1.154c0.244,0.432,0.533,0.98,0.882,1.574
			c0.16,0.346,0.306,0.713,0.437,1.101c-0.034,0.078-0.08,0.176-0.111,0.292c-0.391-0.669-0.711-1.29-0.997-1.768
			c-0.089-0.159-0.177-0.296-0.252-0.427c-0.358-0.736-0.769-1.368-1.101-1.876c-0.574-0.891-0.947-1.439-0.947-1.439l0.89,1.468
			c0.383,0.629,0.88,1.44,1.266,2.38c-0.088,0.245-0.224,0.642-0.027,1.249c0.235,0.74,0.684,1.075,0.817,1.22
			c0.012-0.164,0.15-0.613-0.013-1.249c0.103,0.191,0.206,0.389,0.325,0.592c-0.046,0.229-0.059,0.518,0.034,0.881
			c0.361-0.002,0.728-0.014,1.081-0.038C25.574,4.581,25.57,4.57,25.56,4.554z M20.377,3.178c-0.896-0.575-1.482-0.862-1.479-0.864
			c-0.003,0,0.564,0.317,1.44,0.917c0.509,0.352,1.127,0.813,1.835,1.286c0.09,0.011,0.18,0.019,0.267,0.027
			C21.642,4.042,20.947,3.543,20.377,3.178z M26.825,3.533c0.17-0.93,0.152-1.806,0.152-2.48l-0.026-1.598
			c0,0-0.017,0.61-0.026,1.593c-0.022,0.686-0.034,1.565-0.216,2.495c-0.196,0.149-0.492,0.397-0.662,0.965
			c-0.007,0.018-0.01,0.035-0.015,0.053c0.257-0.026,0.509-0.053,0.752-0.088C26.866,4.055,26.83,3.749,26.825,3.533z"/>
	</g>
	<g id="funding" display="none">
		<path display="inline" fill="#FFFFFF" d="M29.027-4.064l-2.109,1.966h-7.605l-2.11-1.966c0,0,1.051-1.468,2.78-1.662
			c1.692-0.188,2.281,0.85,3.132,0.895c0.849-0.045,1.438-1.083,3.13-0.895C27.977-5.532,29.027-4.064,29.027-4.064z M23.407,5.365
			v1.483c0.226-0.037,0.407-0.124,0.548-0.265c0.141-0.143,0.208-0.308,0.208-0.496c0-0.168-0.061-0.315-0.18-0.437
			C23.87,5.528,23.676,5.434,23.407,5.365z M22.171,3.468c0,0.136,0.048,0.258,0.143,0.374c0.097,0.116,0.242,0.209,0.437,0.28
			V2.807c-0.177,0.048-0.317,0.136-0.419,0.258C22.224,3.188,22.171,3.32,22.171,3.468z M30.309,8.564c0,0-0.461,1.756-2.569,1.756
			h-9.247c-2.111,0-2.57-1.756-2.57-1.756c-1.378-6.093,2.82-9.398,2.82-9.398h8.747C27.49-0.834,31.686,2.471,30.309,8.564z
			 M25.269,5.952c0-0.414-0.131-0.748-0.393-1.01c-0.26-0.263-0.749-0.473-1.469-0.641V2.817c0.288,0.103,0.47,0.31,0.54,0.607
			l1.138-0.125c-0.075-0.379-0.258-0.683-0.539-0.906c-0.283-0.226-0.664-0.364-1.139-0.413V1.603H22.75v0.376
			c-0.517,0.045-0.929,0.206-1.239,0.486c-0.313,0.284-0.465,0.632-0.465,1.047c0,0.414,0.136,0.76,0.412,1.05
			c0.273,0.284,0.708,0.498,1.292,0.641v1.59c-0.16-0.064-0.308-0.171-0.438-0.319c-0.134-0.148-0.224-0.323-0.271-0.523
			l-1.174,0.106c0.092,0.498,0.296,0.885,0.623,1.156c0.325,0.276,0.747,0.438,1.266,0.492v0.69h0.654V7.689
			c0.584-0.07,1.045-0.263,1.372-0.576C25.107,6.796,25.269,6.408,25.269,5.952z"/>
	</g>
	<g id="Education" display="none">
		<path display="inline" fill="#FFFFFF" d="M23.201-2.638c-0.616-0.593-4.176-2.648-9.042-0.555c0,0.03,0,0.615,0,1.499V8.309h7.375
			c0.252,0.215,0.855,0.371,1.559,0.371c0.705,0,1.312-0.153,1.562-0.371h7.415v-10c0-0.886,0-1.468,0-1.498
			C27.407-5.247,23.674-3.071,23.201-2.638z M22.541,7.594c0-0.393-3.462-2.698-7.458-0.185v-9.752
			c0.79-0.456,1.857-0.732,3.031-0.732c2.446,0,4.427,0.801,4.427,2.292V7.594z M31.201,7.411c-3.995-2.513-7.452-0.208-7.452,0.185
			v-8.377c0-1.487,1.976-2.29,4.424-2.29c1.169,0,2.237,0.279,3.025,0.731v9.75H31.201z"/>
	</g>
	<g id="camp">
		<path fill="#FCFCFC" d="M27.679,15.14l-0.418,0.413l-3.8,3.804h-7.703V7.349c0.798,5.837,5.789,10.413,7.27,11.659l3.778-3.824
			c-1.583-1.333-6.348-5.769-7.326-11.551l-3.722,3.716h-0.582l4.219-4.214h0.583c0.79,5.805,5.732,10.362,7.244,11.636
			L27.679,15.14z M7.479,19.357h7.698V7.349C14.24,14.214,7.479,19.357,7.479,19.357z"/>
	</g>
</g>
</svg>
