<?xml version="1.0" encoding="utf-8"?>
<!-- Generator: Adobe Illustrator 16.0.0, SVG Export Plug-In . SVG Version: 6.00 Build 0)  -->
<!DOCTYPE svg PUBLIC "-//W3C//DTD SVG 1.1//EN" "http://www.w3.org/Graphics/SVG/1.1/DTD/svg11.dtd">
<svg version="1.1" id="Layer_1" xmlns="http://www.w3.org/2000/svg" xmlns:xlink="http://www.w3.org/1999/xlink" x="0px" y="0px"
	 width="33.35px" height="40px" viewBox="0 0 33.35 40" enable-background="new 0 0 33.35 40" xml:space="preserve">
<g id="PinColor">
	<path id="PinOmbre" opacity="0.3" enable-background="new    " d="M28.691,30.438c0,1.773-3.896,3.266-9.139,3.656
		c-0.885,0.068-2.755,4.23-2.755,4.23s-1.937-4.164-2.85-4.236c-5.191-0.402-9.044-1.887-9.044-3.65
		c0-2.076,5.325-3.761,11.894-3.761C23.365,26.678,28.691,28.359,28.691,30.438z"/>
	<path id="vert" fill="#2ABF00" stroke="#1D7500" stroke-width="0.2" stroke-miterlimit="10" d="M28.691,12.983
		c0,5.434-3.896,9.991-9.139,11.194c-0.885,0.2-2.755,12.94-2.755,12.94s-1.937-12.74-2.85-12.967
		c-5.191-1.23-9.044-5.769-9.044-11.173c0-6.354,5.325-11.503,11.894-11.503C23.365,1.475,28.691,6.629,28.691,12.983z"/>
	<path id="orange" display="none" fill="#FF8500" stroke="#7F4500" stroke-width="0.2" stroke-miterlimit="10" d="M28.691,12.983
		c0,5.434-3.896,9.991-9.139,11.194c-0.885,0.2-2.755,12.94-2.755,12.94s-1.937-12.74-2.85-12.967
		c-5.191-1.23-9.044-5.769-9.044-11.173c0-6.354,5.325-11.503,11.894-11.503C23.365,1.475,28.691,6.629,28.691,12.983z"/>
	<path id="gris" display="none" fill="#A5A5A5" stroke="#595959" stroke-width="0.2" stroke-miterlimit="10" d="M28.691,12.983
		c0,5.434-3.896,9.991-9.139,11.194c-0.885,0.2-2.755,12.94-2.755,12.94s-1.937-12.74-2.85-12.967
		c-5.191-1.23-9.044-5.769-9.044-11.173c0-6.354,5.325-11.503,11.894-11.503C23.365,1.475,28.691,6.629,28.691,12.983z"/>
	<path id="bleu" display="none" fill="#0092FF" stroke="#00477C" stroke-width="0.2" stroke-miterlimit="10" d="M28.691,12.983
		c0,5.434-3.896,9.991-9.139,11.194c-0.885,0.2-2.755,12.94-2.755,12.94s-1.937-12.74-2.85-12.967
		c-5.191-1.23-9.044-5.769-9.044-11.173c0-6.354,5.325-11.503,11.894-11.503C23.365,1.475,28.691,6.629,28.691,12.983z"/>
</g>
<g id="Icons">
	<g id="Minimal">
		<path id="Election" display="none" fill="#565656" d="M27.837-1.064l-4.16-1.783c-0.123-0.052-0.267-0.017-0.348,0.088
			l-1.192,1.487c-0.052,0.067-0.073,0.161-0.057,0.248c0.021,0.083,0.073,0.152,0.148,0.192L18.5,0.566
			c-0.317,0.118-0.582,0.339-0.755,0.626L16.511,3.25c-0.26,0.438-0.283,0.971-0.054,1.427l0.09,0.174h-1.302
			c-0.165,0-0.298,0.134-0.298,0.298v5.644h-0.891c-0.165,0-0.295,0.133-0.295,0.295c0,0.164,0.13,0.297,0.295,0.297h10.103
			c0.163,0,0.29-0.133,0.29-0.297c0-0.162-0.127-0.295-0.29-0.295h-0.894V7.758c0-0.102-0.055-0.199-0.138-0.25
			c-0.088-0.056-0.194-0.063-0.288-0.02c-0.327,0.155-0.566,0.231-0.682,0.266c-0.024,0.006-0.048,0.016-0.068,0.032l-1.937,1.158
			c-0.307,0.186-0.658,0.284-1.015,0.284c-0.659,0-1.271-0.328-1.648-0.884c-0.299-0.446-0.4-0.985-0.29-1.507
			c0.11-0.524,0.423-0.972,0.871-1.26l0.281-0.178c0.206-0.125,0.388-0.24,0.555-0.34c0.114-0.072,0.167-0.21,0.127-0.34
			c-0.073-0.237-0.198-0.45-0.311-0.612c0.452-0.198,1.067-0.553,1.374-0.911c0,0,0.004,0.002,0.006,0.002
			c0.064,0.04,0.14,0.082,0.228,0.123c0.006,0.002,0.008,0.005,0.015,0.007l0,0c0.221,0.107,0.504,0.213,0.823,0.277
			c-0.345,0.428-0.696,0.961-0.823,1.316c-0.246,0.109-0.759,0.398-1.951,1.158c-0.316,0.203-0.533,0.515-0.606,0.882
			c-0.079,0.367-0.011,0.743,0.2,1.055c0.267,0.399,0.702,0.619,1.152,0.619c0.244,0,0.49-0.065,0.711-0.197l2.04-1.227
			C22.21,7.132,23.798,6.657,25,4.712c0.944-1.525,1.472-2.753,1.69-3.309l0.038,0.019c0.123,0.061,0.258,0.092,0.396,0.092
			c0.228,0,0.454-0.09,0.621-0.25c0.175-0.167,0.271-0.396,0.271-0.64v-1.415C28.012-0.91,27.946-1.019,27.837-1.064z"/>
	</g>
	<g id="Faible">
		<path id="Famine" display="none" fill="#F9F9F9" d="M25.161,9.873L22.8,10.319l-3.856-2.096l1.401-1.75L23.5,7.521L25.161,9.873z
			 M28.789,5.776v0.261l-2.486,0.789L23.85,7.175l-3.153-1.049l-0.742-0.35h0.424c-0.101-0.938-0.235-1.649-0.303-2.58h-0.004
			c-0.002-0.027-0.033-0.651-0.042-0.916c-0.048-0.28-0.181-0.392-0.619-0.692c-0.241-0.156-0.419-0.21-0.519-0.208
			c-0.16,0-0.305,0.175-0.338,0.698c0.702,0.12,0.751,0.896,0.751,0.896c0.063,0.552-0.209,1.358-0.834,1.566
			c-1.155,0.386-1.036-1.838-0.386-2.372c0.017-0.641,0.198-1.229,0.805-1.252c0.244,0.002,0.489,0.102,0.773,0.282
			c0.135,0.081,0.246,0.164,0.344,0.25c-0.013-0.211-0.025-0.427-0.025-0.648c-0.002-0.468,0.071-0.977,0.485-1.336
			c0.213-0.194,0.455-0.294,0.69-0.292c0.619,0.03,1,0.561,1.224,1.105c0.258-0.113,0.583-0.168,0.956-0.039
			c0.948,0.33,1.459,1.983,1.063,2.56c-0.938,1.343-3.291-1.158-2.668-2.031c0,0,0.092-0.118,0.25-0.25
			c-0.182-0.482-0.55-0.912-0.823-0.882c-0.106,0.002-0.228,0.039-0.382,0.177c-0.262,0.23-0.331,0.558-0.331,0.989
			c0,0.303,0.035,0.64,0.035,0.979c0,0.176,0.013,0.332,0.02,0.501c0.041,0.301,0.043,0.533,0.041,0.851
			c0.064,0.927,0.44,1.688,0.54,2.645H28.789z M22.156,0.701l1.784,1.944c-0.318-1.378-1.448-2.147-1.448-2.147L22.156,0.701z
			 M18.456,2.37l-0.319,0.131c0,0-0.158,1.086,0,1.654L18.456,2.37z M16.858,8.925l1.419-0.853l1.479-1.829l-0.461-0.469h-3.266
			L15.38,7.069L16.858,8.925z M18.513,8.631l-2.512,1.711l0.333,0.415h5.782l-0.02-0.085L18.513,8.631z M13.343,5.776v1.972
			l1.61-0.863l0.489-1.108H13.343z M24.317,7.597l1.558,2.26l2.913,0.685V7.957l-2.097-0.676L24.317,7.597z M28.789,7.389V6.477
			L27.156,6.92L28.789,7.389z M14.994,7.517l-1.651,0.786v2.454h1.207l1.797-1.473L14.994,7.517z M23.636,10.757h3.771l-1.805-0.438
			L23.636,10.757z"/>
		<path id="Cyclone" display="none" fill="#FFFFFF" d="M21.126,0.469c-0.079-0.004-0.158-0.014-0.237-0.014
			c-0.709,0-1.374,0.184-1.953,0.504c1.033-3.523,3.614-3.831,3.614-3.831s-5.701,0.476-5.701,7.128c0.004,0,0.008,0,0.01,0
			c-0.002,0.08-0.01,0.158-0.01,0.239c0,0.704,0.183,1.37,0.502,1.952c-3.523-1.037-3.831-3.614-3.831-3.614
			s0.475,5.703,7.129,5.703c0-0.005,0-0.007,0-0.014c0.077,0.005,0.158,0.014,0.238,0.014c0.708,0,1.373-0.185,1.952-0.506
			c-1.035,3.525-3.618,3.832-3.618,3.832s5.705-0.476,5.705-7.129c-0.005,0-0.009,0-0.013,0c0.004-0.079,0.013-0.157,0.013-0.236
			c0-0.709-0.186-1.375-0.507-1.952c3.524,1.033,3.831,3.615,3.831,3.615s-0.472-5.703-7.126-5.703
			C21.126,0.462,21.126,0.466,21.126,0.469z"/>
		<path id="tsunami" display="none" fill="#FFFFFF" d="M28.052,9.189c-11.736,0.665-8.458-8.311-5.413-7.537
			c-0.314,0.191-0.515,0.852-0.32,1.296c0.21,0.476,0.898,0.748,1.292,0.649c0.946-0.245,0.988-1.571,0.646-2.268
			c-0.353-0.725-1.286-1.619-2.912-1.619c-3.931,0-6.612,2.007-7.622,5.457v5.074h14.331V9.188h-0.002V9.189z"/>
		<path id="earthquake" display="none" fill="#FFFFFF" d="M25.063,4.938c-0.199,0-0.383,0.111-0.479,0.289l-0.782,1.474
			l-0.965-2.825c-0.075-0.214-0.271-0.358-0.496-0.369c-0.233-0.005-0.434,0.125-0.523,0.333l-0.66,1.57l-1.042-6.255
			c-0.05-0.262-0.296-0.46-0.549-0.446c-0.267,0.005-0.489,0.183-0.524,0.448l-0.924,7.259L17.37,2.521
			c-0.044-0.229-0.231-0.405-0.463-0.438c-0.231-0.032-0.46,0.093-0.563,0.303l-1.224,2.552H13.22v1.087h2.244
			c0.208,0,0.401-0.121,0.492-0.308l0.656-1.37l1.061,5.525c0.051,0.257,0.273,0.443,0.536,0.443c0.004,0,0.011,0,0.015,0
			c0.265-0.007,0.487-0.208,0.523-0.471l0.91-7.134l0.759,4.695c0.044,0.237,0.235,0.417,0.478,0.444
			c0.241,0.022,0.467-0.109,0.563-0.332l0.815-1.939l0.908,2.662c0.071,0.206,0.254,0.351,0.469,0.369
			c0.217,0.012,0.424-0.096,0.525-0.289l1.22-2.297h2.334V4.938H25.063z"/>
	</g>
	<g id="Modéré">
	</g>
	<g id="Important">
	</g>
	<g id="Elevé">
	</g>
	<g id="Extreme" display="none">
		<path id="rebelion" display="inline" fill="#FFFFFF" d="M23.111,0.67c0,1.312-1.063,2.37-2.37,2.37
			c-1.311,0-2.374-1.062-2.374-2.37c0-1.312,1.061-2.371,2.374-2.371C22.047-1.701,23.111-0.642,23.111,0.67z M16.781,10.726h1.45
			h0.077l0.053-0.11l0.527-0.516L18.4,9.997l-0.769-0.166L16.781,10.726z M26.701,1.109l-0.511,0.509l0.035,0.035l-0.41,0.415
			c0.057,0.05,0.11,0.102,0.154,0.16l0.415-0.414l0.085,0.077l0.502-0.511L26.701,1.109z M23.427,3.74l-0.219,0.217l0.025,0.062
			l0.05,0.116l-3.458,3.467l0.373,0.08c0.34,0.071,0.636,0.276,0.827,0.572c0.023,0.042,0.031,0.093,0.055,0.137l0.008-0.013
			l0.257,0.168l0.092-0.019l1.007,0.73L23.12,8.33l-1.5-1.171l0.033-0.098H21.9l1.476-1.729l0.164-1.549L23.427,3.74z M25.034,2.207
			c-0.448-0.049-0.884,0.286-0.937,0.75L24.04,3.463l0,0l-0.034,0.364l-0.164,1.552l-0.015,0.144l-0.094,0.111l-1.319,1.547
			l0.994,0.779l0.358,0.28l-0.208,0.284l0.052,0.104c0.138,0.297,0.439,0.482,0.765,0.482c0.046,0,0.094-0.001,0.142-0.012
			c0.373-0.064,0.659-0.367,0.7-0.741l0.563-5.216C25.834,2.675,25.496,2.255,25.034,2.207z M23.308,8.869l-0.485,0.667l-0.277,0.38
			l-0.379-0.276l-0.834-0.604l-0.073,0.019l-0.031-0.021c0,0.072-0.002,0.14-0.017,0.212c-0.017,0.069-0.041,0.134-0.068,0.199
			c-0.052,0.123-0.119,0.229-0.2,0.33l0.059,0.133c0.059,0.132,0.14,0.306,0.235,0.455l0.233,0.363h1.782L23.308,8.869z
			 M19.919,10.288c-0.021,0-0.042-0.006-0.061-0.008c-0.01,0.039-0.017,0.066-0.017,0.066l0.202,0.379h0.481l0.311-0.109
			c-0.106-0.165-0.191-0.343-0.271-0.521C20.371,10.208,20.156,10.288,19.919,10.288z M20.617,8.493
			c-0.035-0.053-0.087-0.095-0.136-0.137c-0.026-0.027-0.052-0.062-0.085-0.083c-0.088-0.062-0.189-0.108-0.298-0.133l-0.371-0.075
			l-0.842-0.181l0,0L18.14,7.724l-0.292-0.061L17.37,7.558l-0.031-0.005l0.075-0.078l0.323-0.32l0.344-0.348
			c0.029,0.239,0.044,0.427,0.044,0.432l0.112,0.023l1.044,0.223l0.213-0.216l3.236-3.249l-0.072-0.181l0.026-0.021
			c-0.469-0.142-1.021-0.222-1.715-0.222H20.74c0,0-0.225,0-0.228,0c-0.487,0-0.981,0.033-1.463,0.141
			c-0.829,0.186-1.342,0.998-1.911,1.556c-0.583,0.575-1.152,1.175-1.721,1.767c-0.126,0.132-0.252,0.268-0.382,0.399
			c-0.22,0.219-0.299,0.541-0.211,0.84c0.085,0.298,0.333,0.522,0.637,0.59l1.119,0.239l0.473,0.1l2.689,0.573
			c0.061,0.009,0.121,0.019,0.179,0.019c0.393,0,0.74-0.273,0.825-0.67c0.036-0.157,0.011-0.304-0.037-0.445l-0.052-0.108
			C20.643,8.566,20.63,8.534,20.617,8.493z M19.43,10.564l-0.082-0.154l0.04-0.17l0.008-0.034l-0.129-0.027l-0.475,0.545h0.721
			L19.43,10.564z"/>
	</g>
	<path id="displaced" display="none" fill="#FFFFFF" d="M21.701-1.378c0.114,0.732-0.377,1.419-1.103,1.537
		c-0.728,0.121-1.422-0.374-1.54-1.1c-0.119-0.73,0.373-1.421,1.104-1.54C20.891-2.599,21.58-2.105,21.701-1.378z M21.282,3.93
		l1.184,1.891c0.169,0.267,0.515,0.353,0.788,0.195c0.273-0.164,0.364-0.508,0.217-0.784L23.168,4.69
		c-0.265-0.464-0.519-0.933-0.779-1.399l-0.522-0.956c-0.063-0.113-0.121-0.238-0.184-0.369c-0.323-0.682-0.83-1.735-1.945-1.641
		c-0.952,0.083-1.919,0.536-2.87,1.343c-1.125,0.888-1.912,2.178-1.942,2.234c-0.038,0.055-0.072,0.115-0.1,0.168
		c-0.003,0.002-0.003,0.003-0.005,0.005l0,0c-0.106,0.199-0.159,0.381-0.026,0.614c0.104,0.182,0.297,0.293,0.505,0.293
		c0.256,0,0.384-0.12,0.51-0.298l0,0c0.002,0,0.002-0.005,0.002-0.005c0.036-0.052,0.068-0.109,0.109-0.168
		c0.006-0.011,0.666-1.071,1.687-1.942c0.317-0.248,0.617-0.417,0.898-0.512l-0.231,2.754c-0.022,0.272-0.11,0.744-0.181,1.006
		l-0.516,1.795c-0.066,0.227-0.256,0.604-0.408,0.786l-1.384,1.716c-0.174,0.218-0.372,0.464-0.209,0.806
		c0.097,0.202,0.3,0.332,0.524,0.332c0.267,0,0.413-0.154,0.592-0.35l1.403-1.511c0.248-0.271,0.575-0.738,0.737-1.069l0.694-1.414
		l2.572,4.317c0.122,0.212,0.283,0.48,0.631,0.48l0,0c0.2,0,0.384-0.103,0.488-0.268c0.188-0.286,0.063-0.545-0.044-0.78
		l-2.078-4.514c-0.079-0.178-0.125-0.538-0.092-0.732L21.282,3.93z M23.46,8.627h3.116v0.925l3.093-1.787L26.576,5.98v0.925H23.46
		V8.627z"/>
	<path id="epidemie" display="none" fill="#FFFFFF" d="M27.01,5.091c0-3.355-2.631-6.085-5.938-6.254
		c1.461,0.139,2.602,1.2,2.602,2.492c0,0.444-0.148,0.852-0.384,1.214c-0.654-0.651-1.551-1.052-2.545-1.052
		c-0.992,0-1.89,0.4-2.54,1.05c-0.233-0.361-0.382-0.77-0.382-1.214c0-1.289,1.138-2.352,2.599-2.49
		c-3.312,0.169-5.94,2.9-5.94,6.255c0,1.012,0.247,1.966,0.671,2.813c-0.583-1.326-0.229-2.815,0.874-3.453
		c0.385-0.222,0.817-0.301,1.245-0.276c-0.082,0.295-0.136,0.603-0.136,0.924c0,1.666,1.14,3.058,2.676,3.472
		c-0.021,0.036-0.046,0.069-0.066,0.104c0,0.003,0,0.003,0,0.009c-0.05,0.114-0.117,0.206-0.191,0.286
		c-0.167,0.215-0.359,0.407-0.603,0.548c-1.109,0.64-2.587,0.196-3.438-0.984c1.122,1.702,3.045,2.828,5.231,2.828
		c2.168,0,4.075-1.102,5.202-2.777c-0.856,1.144-2.307,1.563-3.399,0.936c-0.388-0.226-0.669-0.563-0.864-0.954
		c1.536-0.415,2.668-1.808,2.668-3.469c0-0.321-0.053-0.628-0.134-0.924c0.434-0.028,0.865,0.051,1.253,0.275
		c1.073,0.619,1.436,2.039,0.923,3.335C26.786,6.968,27.01,6.057,27.01,5.091z M21.411,7.504c-0.026-0.522,0.084-1.069,0.344-1.587
		l-0.419-0.24c-0.149,0.155-0.358,0.25-0.594,0.25c-0.229,0-0.439-0.095-0.592-0.25l-0.408,0.235
		c0.261,0.521,0.371,1.072,0.342,1.594c-1.059-0.289-1.845-1.255-1.845-2.405c0-0.221,0.033-0.429,0.088-0.631
		c0.465,0.234,0.884,0.599,1.206,1.081l0.419-0.244c-0.019-0.071-0.046-0.139-0.046-0.217c0-0.387,0.27-0.7,0.63-0.794V3.821
		c-0.582-0.039-1.109-0.219-1.547-0.504c0.452-0.446,1.071-0.72,1.753-0.72c0.686,0,1.305,0.276,1.757,0.722
		c-0.438,0.286-0.965,0.464-1.546,0.502v0.477c0.358,0.094,0.627,0.407,0.627,0.794c0,0.078-0.022,0.145-0.042,0.217l0.426,0.248
		c0.318-0.482,0.737-0.845,1.198-1.079c0.05,0.199,0.088,0.407,0.088,0.622C23.25,6.248,22.468,7.21,21.411,7.504z"/>
	<path id="enlevement" display="none" fill="#FFFFFF" d="M25.97-2.398c-0.388,0-0.707,0.318-0.707,0.708v2.878
		c0.171,0.038,0.334,0.11,0.465,0.238c0.373,0.367,0.382,0.97,0.019,1.346l-1.338,1.377l-0.186-0.18l1.345-1.372
		c0.269-0.279,0.261-0.72-0.015-0.993c-0.088-0.081-0.188-0.138-0.294-0.168c-0.121-0.032-0.237-0.034-0.354-0.01
		c-0.129,0.035-0.246,0.1-0.337,0.198c-0.795,0.814-1.591,1.629-2.385,2.446c-0.202,0.205-0.564,0.672-0.555,1.138
		c0.009,0.439-0.006,0.889,0.002,1.33c-0.104-0.083-0.229-0.145-0.371-0.172c-0.41-0.067-0.781,0.177-0.923,0.542H20.13
		c0-0.101,0-0.201,0.002-0.301c0.011-0.46-0.009-0.937,0.004-1.399c0.011-0.467-0.354-0.935-0.555-1.14
		c-0.796-0.815-1.59-1.63-2.388-2.447c-0.09-0.096-0.205-0.163-0.336-0.195c-0.117-0.024-0.238-0.022-0.354,0.01
		c-0.108,0.032-0.21,0.088-0.296,0.17c-0.273,0.27-0.279,0.712-0.01,0.993l1.342,1.37l-0.188,0.18l-1.338-1.377
		c-0.365-0.375-0.356-0.979,0.019-1.344c0.131-0.127,0.294-0.2,0.465-0.237v-2.878c0-0.39-0.319-0.708-0.706-0.708
		c-0.391,0-0.707,0.318-0.707,0.708v4.982c0,0.163,0.066,0.312,0.163,0.434l2.406,3.178h-0.215c-0.466,0-0.85,0.38-0.85,0.853
		c0,0.312,0.177,0.573,0.425,0.72c-0.248,0.147-0.425,0.411-0.425,0.72c0,0.472,0.381,0.854,0.85,0.854h0.261v0.473h2.363
		c0.123,0.124,0.268,0.212,0.442,0.242c0.048,0.008,0.092,0.012,0.142,0.012c0.413,0,0.77-0.295,0.836-0.707l0.004-0.021h0.15
		c0.002,0.157,0,0.311,0.019,0.473h2.405v-0.472h0.261c0.467,0,0.85-0.38,0.85-0.854c0-0.31-0.175-0.572-0.427-0.72
		c0.252-0.146,0.427-0.408,0.427-0.722c0-0.47-0.381-0.851-0.85-0.851h-0.213l2.405-3.18c0.1-0.121,0.162-0.27,0.162-0.433v-4.98
		C26.676-2.08,26.36-2.398,25.97-2.398z M17.016,7.756c0-0.235,0.192-0.424,0.423-0.424h2.791l-0.147,0.85h-2.644
		C17.208,8.179,17.016,7.992,17.016,7.756z M17.016,9.197c0-0.233,0.192-0.426,0.423-0.426h2.541l-0.147,0.853h-2.394
		C17.208,9.624,17.016,9.435,17.016,9.197z M21.062,9.999c-0.036,0.235-0.277,0.385-0.49,0.35c-0.11-0.02-0.208-0.081-0.275-0.173
		c-0.066-0.094-0.089-0.207-0.07-0.318l0.467-2.726c0.037-0.206,0.215-0.354,0.427-0.354c0.021,0,0.044,0,0.067,0.005
		c0.229,0.04,0.386,0.26,0.344,0.491L21.062,9.999z M24.744,9.197c0,0.235-0.191,0.426-0.423,0.426h-2.76l0.146-0.853h2.614
		C24.553,8.774,24.744,8.964,24.744,9.197z M24.744,7.756c0,0.235-0.191,0.423-0.423,0.423H21.81l0.144-0.833
		c0.002-0.006,0-0.012,0-0.018h2.366C24.553,7.331,24.744,7.522,24.744,7.756z"/>
	<path id="eruption" display="none" fill="#FFFFFF" d="M22.012,1.748c0.849,0.289,1.976,0.631,2.214-0.739
		c0.191-1.065,1.612-0.67,2.217-0.737c1.103-0.127,0.27-2.188-1.106-2.218c-1.396-0.031-2.03,0.581-2.587,1.848
		c-0.267,0.609-0.491,1.067-1.478,0.739c-0.985-0.33-1.709,0.48-1.108,1.478C20.693,3,20.155,3.963,20.155,3.963h1.488
		c0,0-0.013-0.547-0.371-1.108C20.855,2.203,21.141,1.448,22.012,1.748z M14.137,10.938c3.823-2.784,4.78-6.637,4.78-6.637h3.926
		c0,0,0.957,3.851,4.777,6.637H14.137z"/>
	<path id="returned" display="none" fill="#FFFFFF" d="M20.482-0.729c0.099,0.602-0.311,1.17-0.908,1.27
		c-0.603,0.1-1.172-0.311-1.27-0.91c-0.1-0.603,0.307-1.17,0.911-1.27C19.813-1.738,20.386-1.332,20.482-0.729z M20.138,3.651
		l0.978,1.563c0.136,0.217,0.426,0.289,0.65,0.158c0.221-0.133,0.298-0.418,0.175-0.646l-0.248-0.448
		c-0.214-0.383-0.423-0.771-0.64-1.155l-0.434-0.792c-0.052-0.088-0.1-0.193-0.152-0.301c-0.271-0.563-0.689-1.434-1.606-1.353
		c-0.786,0.066-1.582,0.44-2.366,1.106c-0.928,0.733-1.579,1.798-1.608,1.842c-0.028,0.048-0.056,0.095-0.081,0.142
		c-0.002,0.002-0.003,0.002-0.003,0.003l0,0c-0.087,0.165-0.13,0.315-0.022,0.505c0.084,0.152,0.244,0.245,0.419,0.245
		c0.208,0,0.316-0.099,0.418-0.248l0,0c0.002-0.002,0.002-0.002,0.002-0.002c0.029-0.046,0.058-0.093,0.089-0.144
		c0.006-0.008,0.552-0.882,1.396-1.602c0.258-0.203,0.506-0.344,0.739-0.421L17.654,4.38c-0.019,0.227-0.087,0.614-0.152,0.832
		l-0.42,1.481c-0.057,0.187-0.215,0.498-0.338,0.648l-1.144,1.417c-0.145,0.18-0.308,0.383-0.172,0.667
		c0.079,0.164,0.247,0.272,0.431,0.272c0.222,0,0.34-0.127,0.493-0.29l1.157-1.247c0.206-0.224,0.475-0.61,0.606-0.885l0.573-1.166
		l2.124,3.565c0.104,0.176,0.237,0.395,0.522,0.395l0,0c0.165,0,0.317-0.083,0.406-0.224c0.15-0.234,0.051-0.446-0.037-0.64
		l-1.715-3.729c-0.069-0.144-0.106-0.443-0.079-0.604L20.138,3.651z M27.285,4.446c0-1.557-1.268-2.82-2.822-2.82h-1.198v1.423
		h1.198c0.767,0,1.395,0.625,1.395,1.397c0,0.771-0.628,1.397-1.395,1.397h-0.248V5.079l-2.558,1.476l2.558,1.476V7.265h0.279V7.264
		C26.032,7.248,27.285,5.993,27.285,4.446z"/>
	<path id="Attack" display="none" fill="#FFFFFF" d="M24.167,5.462l4.199-2.688l-4.056-0.432l1.101-4.713l-2.876,2.974l-0.803-3.359
		l-1.209,3.136l-3.287-4.235l1.034,5.307l-2.921-0.65c0,0,0.887,1.7,1.383,2.724l-4.689-0.329l4.243,2.482l-1.217,1.252l1.974-0.36
		l-1.399,4.945l4.154-3.476l1.078,2.686l1.108-2.148l3.583,3.7l-1.793-4.953l3.93,0.397L24.167,5.462z"/>
	<g id="affected" display="none">
		<path display="inline" fill="#FFFFFF" d="M17.531-1.09c0,0.609-0.496,1.101-1.102,1.101c-0.607,0-1.104-0.494-1.104-1.101
			s0.495-1.1,1.104-1.1C17.037-2.19,17.531-1.699,17.531-1.09z M16.543,6.455l0.24,4.066c0,0.142,0.117,0.258,0.256,0.258
			c0.144,0,0.26-0.117,0.26-0.258l0.22-4.065h0.719l-0.742-4.561l1.496,2.979c0.057,0.132,0.207,0.193,0.338,0.139
			c0.132-0.056,0.196-0.206,0.14-0.338c0,0-1.096-2.965-1.369-3.517c-0.271-0.554-0.536-0.891-1.567-0.891h-0.208
			c-1.028,0-1.298,0.335-1.567,0.89c-0.27,0.555-1.367,3.519-1.367,3.519c-0.056,0.134,0.005,0.283,0.137,0.342
			c0.132,0.055,0.282-0.008,0.34-0.139l1.494-2.98l-0.743,4.558h0.718l0.224,4.063c0,0.144,0.116,0.259,0.255,0.259
			c0.146,0,0.261-0.118,0.261-0.259l0.223-4.063H16.543L16.543,6.455z M25.33-2.195c-0.609,0-1.104,0.494-1.104,1.102
			c0,0.609,0.491,1.103,1.104,1.103c0.604,0,1.101-0.494,1.101-1.103C26.433-1.701,25.937-2.195,25.33-2.195z M26.47,4.29
			l0.073-2.397l1.351,2.981c0.052,0.132,0.206,0.193,0.335,0.138c0.136-0.057,0.198-0.206,0.145-0.34c0,0-0.951-2.965-1.222-3.517
			c-0.269-0.552-0.688-0.889-1.716-0.889h-0.21c-1.029,0-1.446,0.335-1.716,0.889c-0.269,0.552-1.219,3.515-1.219,3.515
			c-0.059,0.134,0.002,0.283,0.136,0.342c0.129,0.056,0.287-0.006,0.335-0.138l1.353-2.981l0.071,2.397l-0.215,6.025
			c-0.011,0.238,0.167,0.445,0.404,0.462c0.011,0.002,0.025,0.002,0.031,0.002c0.224,0,0.419-0.175,0.434-0.402l0.487-4.961
			l0.492,4.961c0.015,0.229,0.204,0.402,0.43,0.402c0.01,0,0.022,0,0.031-0.002c0.239-0.019,0.419-0.224,0.402-0.462L26.47,4.29
			L26.47,4.29z M20.88,4.505c-0.375,0-0.68,0.301-0.68,0.674c0,0.373,0.303,0.673,0.68,0.673c0.371,0,0.673-0.3,0.673-0.673
			C21.553,4.806,21.251,4.505,20.88,4.505z M20.88,8.483c0,0,0.303,2.112,0.303,2.114c0.039,0.105,0.137,0.178,0.26,0.178
			c0.119,0,0.222-0.081,0.259-0.19c0-0.008,0.008-0.131,0-0.154l-0.125-2.597l0.042-0.893c0.035-0.303,0.039-0.212,0.385-0.418
			c0.353-0.213,0.951-1.14,0.978-1.186c0.034-0.046,0.088-0.127,0.101-0.181c0.015-0.093-0.046-0.179-0.14-0.201
			c-0.071-0.012-0.127,0.025-0.175,0.073C22.721,5.082,22.031,6,21.516,6.087c-0.119-0.019-0.242-0.079-0.573-0.079h-0.129
			c-0.329,0-0.452,0.061-0.571,0.079c-0.517-0.088-1.207-1.005-1.255-1.058c-0.044-0.047-0.1-0.085-0.173-0.073
			c-0.09,0.023-0.154,0.11-0.136,0.203c0.011,0.051,0.064,0.133,0.094,0.181c0.031,0.045,0.63,0.974,0.979,1.186
			c0.345,0.206,0.354,0.115,0.388,0.418l0.04,0.893l-0.125,2.6c-0.007,0.022,0,0.146,0.006,0.152c0.036,0.109,0.136,0.19,0.257,0.19
			c0.118,0,0.219-0.072,0.254-0.178C20.573,10.599,20.88,8.483,20.88,8.483"/>
	</g>
	<g id="foodsec" display="none">
		<path display="inline" fill="#FFFFFF" d="M28.388,5.548L28.388,5.548c-0.038,1.079-0.407,2.249-0.972,3.328
			c0,0-1.347,2.728-5.577,2.728c-4.235,0-5.604-2.705-5.604-2.705c-0.567-1.085-0.908-2.249-0.953-3.353h0.002
			c0-0.028-0.002-0.057-0.002-0.085c0-0.518,0.322-1.005,0.874-1.422l0.589,0.376c-0.367,0.245-0.575,0.519-0.575,0.808
			c0,1.023,2.539,1.853,5.669,1.853c3.126,0,5.662-0.829,5.662-1.853c0-0.707-1.215-1.321-3.001-1.632l0.009-0.744
			c2.284,0.448,3.883,1.447,3.883,2.615C28.392,5.49,28.39,5.518,28.388,5.548z M17.46,1.146c-0.023,0.171-0.05,0.45,0.164,0.829
			c0.265,0.456,0.604,0.617,0.713,0.693c-0.019-0.118,0.015-0.47-0.235-0.9c-0.213-0.382-0.448-0.555-0.586-0.687
			c-0.389-0.564-0.833-1.018-1.171-1.374l-0.802-0.834c0,0,0.291,0.334,0.769,0.861C16.643,0.104,17.078,0.573,17.46,1.146z
			 M19.467,5.554c0.171,0.16,0.388,0.423,0.869,0.692c0.542,0.301,0.996,0.301,1.148,0.337c-0.083-0.142-0.259-0.587-0.854-0.918
			c-0.492-0.27-0.854-0.218-1.082-0.179c-0.737-0.431-1.371-0.872-1.882-1.185c-0.728-0.45-1.2-0.68-1.198-0.68
			c-0.002,0,0.457,0.251,1.173,0.725C18.131,4.672,18.74,5.119,19.467,5.554z M19.903,3.202c-0.061,0.199-0.144,0.522,0.046,0.995
			c0.223,0.579,0.601,0.822,0.713,0.927c0.004-0.14,0.104-0.541-0.108-1.085c-0.188-0.485-0.434-0.724-0.573-0.903
			c-0.367-0.724-0.814-1.325-1.154-1.793l-0.819-1.104l0.773,1.128C19.111,1.851,19.548,2.47,19.903,3.202z M18.527,4.377
			c0.163,0.147,0.374,0.392,0.828,0.632c0.511,0.267,0.936,0.256,1.075,0.285c-0.085-0.126-0.259-0.537-0.819-0.831
			c-0.46-0.241-0.8-0.188-1.009-0.15c-0.693-0.388-1.29-0.785-1.771-1.073c-0.686-0.409-1.132-0.615-1.128-0.617
			c-0.004,0.004,0.432,0.232,1.101,0.663C17.266,3.578,17.843,3.986,18.527,4.377z M17.545,3.22
			c0.152,0.133,0.351,0.355,0.773,0.567c0.479,0.243,0.871,0.224,1.003,0.248c-0.079-0.118-0.248-0.489-0.773-0.751
			c-0.428-0.217-0.74-0.162-0.932-0.124c-0.648-0.349-1.209-0.71-1.657-0.973c-0.641-0.372-1.055-0.56-1.053-0.562
			c-0.002,0.002,0.402,0.21,1.03,0.601C16.366,2.499,16.907,2.867,17.545,3.22z M16.547,1.534c0.283,0.256,0.557,0.271,0.713,0.322
			c-0.033-0.125-0.007-0.435-0.333-0.724c-0.277-0.24-0.561-0.259-0.703-0.272c-1.151-0.986-2.174-1.618-2.408-1.77l-0.051-0.035
			c-0.011,0.008,1.113,0.748,2.432,1.903C16.239,1.103,16.314,1.338,16.547,1.534z M16.526,2.081
			c0.144,0.119,0.325,0.32,0.721,0.511c0.439,0.219,0.805,0.198,0.926,0.216c-0.079-0.105-0.24-0.441-0.722-0.678
			c-0.4-0.191-0.686-0.144-0.865-0.108c-0.6-0.311-1.115-0.645-1.533-0.878c-0.593-0.34-0.977-0.508-0.977-0.508
			s0.377,0.186,0.954,0.545C15.434,1.422,15.933,1.758,16.526,2.081z M18.715,2.141c-0.044,0.185-0.097,0.488,0.105,0.913
			c0.248,0.52,0.609,0.717,0.724,0.813c-0.009-0.129,0.05-0.506-0.18-0.996c-0.206-0.433-0.447-0.641-0.585-0.792
			c-0.382-0.645-0.825-1.174-1.17-1.586l-0.813-0.968l0.775,0.993C17.906,0.943,18.342,1.488,18.715,2.141z M23.238,3.248
			c-0.127,0.127-0.334,0.338-0.395,0.778c-0.079,0.534,0.097,0.871,0.134,1.002c0.064-0.107,0.314-0.374,0.388-0.875
			c0.068-0.448-0.011-0.732-0.039-0.924c0.039-0.702-0.044-1.347-0.103-1.845c-0.088-0.727-0.152-1.178-0.152-1.178l0.108,1.178
			C23.223,1.891,23.287,2.543,23.238,3.248z M22.823,2.052c-0.112,0.127-0.285,0.335-0.316,0.744
			c-0.042,0.499,0.144,0.801,0.189,0.919C22.741,3.613,22.96,3.35,23,2.88c0.031-0.418-0.061-0.676-0.103-0.854
			c-0.002-0.649-0.112-1.24-0.198-1.697L22.501-0.75l0.163,1.081C22.733,0.8,22.824,1.398,22.823,2.052z M22.341,0.88
			c-0.096,0.123-0.239,0.327-0.244,0.706c-0.008,0.462,0.184,0.728,0.231,0.833c0.04-0.1,0.219-0.355,0.228-0.787
			c0.004-0.39-0.096-0.617-0.142-0.778c-0.05-0.599-0.182-1.132-0.286-1.547l-0.245-0.981l0.208,0.986
			C22.179-0.265,22.302,0.279,22.341,0.88z M23.19,6.354c0.075-0.109,0.364-0.375,0.483-0.909C23.78,4.973,23.71,4.66,23.694,4.45
			c0.086-0.755,0.042-1.452,0.011-1.989c-0.052-0.786-0.096-1.276-0.096-1.276l0.041,1.274c0.021,0.547,0.049,1.25-0.052,2.005
			c-0.147,0.13-0.375,0.341-0.478,0.808C22.995,5.838,23.158,6.21,23.19,6.354z M20.784,0.111c0.063,0.133,0.119,0.345,0.338,0.615
			c0.241,0.308,0.51,0.409,0.594,0.464c-0.021-0.103-0.017-0.4-0.281-0.737c-0.221-0.273-0.446-0.333-0.586-0.364
			c-0.323-0.431-0.577-0.842-0.796-1.15c-0.307-0.448-0.527-0.697-0.525-0.698c-0.002,0.001,0.206,0.262,0.496,0.714
			C20.228-0.734,20.467-0.319,20.784,0.111z M20.99-0.282c0.121,0.281,0.309,0.385,0.402,0.47c0.019-0.101,0.148-0.32,0.017-0.64
			c-0.114-0.268-0.314-0.375-0.415-0.431c-0.481-1.108-0.991-1.908-1.11-2.097l-0.025-0.042c-0.008,0.004,0.54,0.92,1.082,2.203
			C20.922-0.703,20.893-0.505,20.99-0.282z M21.472,1.959c0.259,0.333,0.551,0.452,0.638,0.513
			c-0.013-0.114-0.006-0.442-0.289-0.808c-0.236-0.3-0.479-0.365-0.634-0.401c-0.346-0.469-0.621-0.919-0.853-1.26
			c-0.331-0.486-0.559-0.76-0.559-0.761c0,0,0.217,0.288,0.527,0.781c0.219,0.34,0.475,0.79,0.813,1.264
			C21.18,1.433,21.245,1.66,21.472,1.959z M21.789-0.265c-0.077,0.121-0.196,0.314-0.178,0.661c0.031,0.425,0.219,0.653,0.271,0.746
			c0.026-0.091,0.177-0.339,0.151-0.739c-0.022-0.352-0.129-0.555-0.181-0.7c-0.081-0.539-0.244-1.022-0.358-1.392l-0.286-0.879
			c0,0,0.09,0.339,0.248,0.888C21.564-1.3,21.716-0.812,21.789-0.265z M21.416,2.459c0.068,0.162,0.131,0.409,0.373,0.734
			c0.272,0.364,0.581,0.497,0.679,0.567c-0.017-0.124,0.002-0.48-0.296-0.883c-0.248-0.33-0.511-0.401-0.677-0.441
			c-0.365-0.516-0.654-1.003-0.896-1.375c-0.353-0.528-0.601-0.827-0.601-0.829c0,0.002,0.229,0.314,0.563,0.852
			C20.788,1.456,21.06,1.944,21.416,2.459z M17.866,5.682c0,0.002,0.404,0.23,1.038,0.678c0.044,0.008,0.087,0.019,0.136,0.028
			C18.329,5.917,17.866,5.682,17.866,5.682z M22.916,6.569c-0.094-0.145-0.191-0.256-0.289-0.34
			c-0.036-0.091-0.069-0.176-0.106-0.252c0.212,0.22,0.417,0.328,0.489,0.389c0-0.007,0-0.021,0-0.034
			c0.025,0.083,0.048,0.172,0.077,0.262c0.04-0.001,0.084-0.006,0.121-0.008c-0.073-0.254-0.156-0.5-0.246-0.733
			c-0.033-0.126-0.083-0.261-0.167-0.41c-0.077-0.182-0.158-0.359-0.235-0.526c0.096,0.066,0.173,0.11,0.213,0.139
			c-0.011-0.132,0.019-0.518-0.292-0.958c-0.188-0.258-0.381-0.373-0.544-0.435l-0.496-0.968c0,0,0.163,0.353,0.439,0.949
			c-0.043-0.013-0.081-0.026-0.114-0.035c-0.384-0.561-0.686-1.091-0.944-1.49c-0.366-0.572-0.627-0.898-0.625-0.898
			c0,0.002,0.244,0.337,0.59,0.919c0.239,0.401,0.521,0.931,0.895,1.492c0.064,0.173,0.127,0.441,0.381,0.796
			c0.119,0.167,0.242,0.288,0.36,0.38c0.04,0.097,0.088,0.198,0.132,0.305c-0.213-0.217-0.432-0.284-0.577-0.328
			c-0.042-0.065-0.082-0.13-0.121-0.193c-0.246-0.53-0.511-0.996-0.733-1.385c-0.488-0.853-0.805-1.375-0.805-1.375l0.746,1.399
			c0.059,0.104,0.116,0.22,0.179,0.335c-0.081-0.14-0.158-0.272-0.231-0.393c-0.381-0.618-0.656-0.963-0.656-0.966
			c0,0.002,0.252,0.363,0.613,0.993c0.212,0.372,0.458,0.843,0.761,1.353c0.135,0.297,0.26,0.613,0.373,0.947
			c-0.027,0.067-0.067,0.151-0.094,0.252c-0.338-0.576-0.613-1.109-0.856-1.52c-0.08-0.137-0.154-0.255-0.22-0.367
			c-0.308-0.633-0.66-1.176-0.946-1.613c-0.493-0.766-0.813-1.238-0.813-1.238l0.765,1.262c0.327,0.542,0.755,1.238,1.088,2.047
			c-0.077,0.21-0.193,0.552-0.022,1.074c0.2,0.636,0.586,0.924,0.702,1.049c0.011-0.141,0.127-0.527-0.013-1.073
			c0.088,0.164,0.18,0.334,0.279,0.509c-0.037,0.197-0.05,0.445,0.029,0.758c0.313-0.002,0.626-0.012,0.93-0.032
			C22.927,6.592,22.925,6.583,22.916,6.569z M18.458,5.386c-0.769-0.494-1.271-0.741-1.271-0.742c0,0,0.488,0.273,1.238,0.788
			c0.438,0.302,0.969,0.699,1.58,1.106c0.077,0.009,0.151,0.016,0.229,0.023C19.548,6.129,18.948,5.7,18.458,5.386z M24.002,5.692
			c0.148-0.799,0.132-1.553,0.132-2.132l-0.023-1.374c0,0-0.013,0.524-0.021,1.37c-0.019,0.589-0.029,1.345-0.186,2.145
			c-0.169,0.128-0.423,0.342-0.571,0.83c-0.004,0.016-0.006,0.029-0.013,0.045c0.221-0.022,0.438-0.045,0.646-0.076
			C24.04,6.14,24.006,5.877,24.002,5.692z"/>
	</g>
	<g id="funding" display="none">
		<path display="inline" fill="#FFFFFF" d="M25.895-0.84l-1.813,1.69h-6.536L15.73-0.84c0,0,0.905-1.262,2.391-1.429
			c1.455-0.162,1.962,0.731,2.693,0.77c0.728-0.039,1.235-0.93,2.688-0.77C24.992-2.102,25.895-0.84,25.895-0.84z M21.064,7.267
			v1.275c0.193-0.032,0.35-0.106,0.473-0.228c0.119-0.123,0.18-0.265,0.18-0.426c0-0.145-0.052-0.271-0.154-0.376
			C21.462,7.406,21.297,7.326,21.064,7.267z M20,5.635c0,0.118,0.042,0.222,0.125,0.321c0.084,0.1,0.207,0.18,0.376,0.241v-1.13
			c-0.152,0.042-0.273,0.117-0.363,0.222C20.046,5.395,20,5.508,20,5.635z M26.997,10.017c0,0-0.394,1.509-2.207,1.509h-7.949
			c-1.816,0-2.211-1.509-2.211-1.509c-1.185-5.239,2.423-8.081,2.423-8.081h7.52C24.573,1.937,28.181,4.778,26.997,10.017z
			 M22.666,7.771c0-0.355-0.114-0.642-0.34-0.868c-0.223-0.226-0.644-0.407-1.263-0.551V5.076c0.25,0.089,0.406,0.267,0.465,0.522
			l0.979-0.108c-0.066-0.326-0.221-0.587-0.463-0.779c-0.246-0.194-0.573-0.313-0.981-0.355V4.032h-0.563v0.324
			c-0.444,0.039-0.799,0.177-1.065,0.418c-0.271,0.245-0.402,0.543-0.402,0.9c0,0.355,0.119,0.654,0.354,0.903
			c0.237,0.244,0.608,0.428,1.113,0.551v1.367c-0.138-0.055-0.268-0.147-0.38-0.274c-0.112-0.127-0.191-0.277-0.231-0.45
			l-1.009,0.092c0.077,0.428,0.255,0.761,0.534,0.994c0.281,0.237,0.642,0.377,1.088,0.423v0.593h0.564V9.265
			c0.5-0.06,0.896-0.226,1.178-0.496C22.525,8.497,22.666,8.163,22.666,7.771z"/>
	</g>
	<g id="Education" display="none">
		<path display="inline" fill="#FFFFFF" d="M20.889,0.386c-0.532-0.51-3.592-2.277-7.775-0.477c0,0.025,0,0.528,0,1.288v8.6h6.338
			c0.219,0.186,0.738,0.319,1.343,0.319c0.604,0,1.125-0.131,1.34-0.319h6.378V1.2c0-0.762,0-1.263,0-1.288
			C24.502-1.857,21.295,0.014,20.889,0.386z M20.32,9.183c0-0.338-2.975-2.319-6.411-0.159V0.64c0.68-0.392,1.597-0.629,2.605-0.629
			c2.104,0,3.806,0.689,3.806,1.97V9.183z M27.764,9.025c-3.435-2.161-6.404-0.179-6.404,0.159V1.982
			c0-1.278,1.698-1.969,3.802-1.969c1.007,0,1.926,0.24,2.603,0.628V9.025L27.764,9.025z"/>
	</g>
	<g id="camp">
		<path fill="#FCFCFC" d="M27.821,15.026l-0.423,0.418l-3.846,3.851h-7.798V7.138c0.808,5.91,5.859,10.543,7.36,11.805l3.824-3.872
			c-1.604-1.351-6.424-5.842-7.417-11.695l-3.768,3.762h-0.589l4.27-4.267h0.59c0.801,5.878,5.807,10.491,7.337,11.781
			L27.821,15.026z M7.371,19.296h7.794V7.138C14.217,14.089,7.371,19.296,7.371,19.296z"/>
	</g>
</g>
</svg>
