<?xml version="1.0" encoding="utf-8"?>
<!-- Generator: Adobe Illustrator 16.0.0, SVG Export Plug-In . SVG Version: 6.00 Build 0)  -->
<!DOCTYPE svg PUBLIC "-//W3C//DTD SVG 1.1//EN" "http://www.w3.org/Graphics/SVG/1.1/DTD/svg11.dtd">
<svg version="1.1" id="Layer_1" xmlns="http://www.w3.org/2000/svg" xmlns:xlink="http://www.w3.org/1999/xlink" x="0px" y="0px"
	 width="33.35px" height="40px" viewBox="0 0 33.35 40" enable-background="new 0 0 33.35 40" xml:space="preserve">
<g id="PinColor">
	<path id="PinOmbre" opacity="0.3" enable-background="new    " d="M28.579,30.131c0,1.77-3.886,3.254-9.113,3.646
		c-0.882,0.066-2.747,4.217-2.747,4.217s-1.931-4.152-2.842-4.223c-5.176-0.402-9.02-1.881-9.02-3.643
		c0-2.071,5.312-3.752,11.86-3.752C23.269,26.379,28.579,28.057,28.579,30.131z"/>
	<path id="vert" display="none" fill="#2ABF00" stroke="#1D7500" stroke-width="0.2" stroke-miterlimit="10" d="M28.579,12.724
		c0,5.419-3.886,9.964-9.113,11.163c-0.882,0.199-2.747,12.906-2.747,12.906s-1.931-12.707-2.842-12.932
		c-5.176-1.23-9.02-5.753-9.02-11.143c0-6.336,5.312-11.471,11.86-11.471C23.269,1.248,28.579,6.388,28.579,12.724z"/>
	<path id="orange" fill="#FF8500" stroke="#7F4500" stroke-width="0.2" stroke-miterlimit="10" d="M28.579,12.724
		c0,5.419-3.886,9.964-9.113,11.163c-0.882,0.199-2.747,12.906-2.747,12.906s-1.931-12.707-2.842-12.932
		c-5.176-1.23-9.02-5.753-9.02-11.143c0-6.336,5.312-11.471,11.86-11.471C23.269,1.248,28.579,6.388,28.579,12.724z"/>
	<path id="gris" display="none" fill="#A5A5A5" stroke="#595959" stroke-width="0.2" stroke-miterlimit="10" d="M28.579,12.724
		c0,5.419-3.886,9.964-9.113,11.163c-0.882,0.199-2.747,12.906-2.747,12.906s-1.931-12.707-2.842-12.932
		c-5.176-1.23-9.02-5.753-9.02-11.143c0-6.336,5.312-11.471,11.86-11.471C23.269,1.248,28.579,6.388,28.579,12.724z"/>
	<path id="bleu" display="none" fill="#0092FF" stroke="#00477C" stroke-width="0.2" stroke-miterlimit="10" d="M28.579,12.724
		c0,5.419-3.886,9.964-9.113,11.163c-0.882,0.199-2.747,12.906-2.747,12.906s-1.931-12.707-2.842-12.932
		c-5.176-1.23-9.02-5.753-9.02-11.143c0-6.336,5.312-11.471,11.86-11.471C23.269,1.248,28.579,6.388,28.579,12.724z"/>
</g>
<g id="Icons">
	<g id="Minimal">
		<path id="Election" display="none" fill="#565656" d="M30.527-6.298l-5.402-2.317c-0.162-0.068-0.348-0.021-0.453,0.116
			L23.122-6.57c-0.068,0.087-0.094,0.209-0.073,0.323c0.027,0.108,0.096,0.196,0.192,0.249l-4.846,1.816
			c-0.411,0.152-0.755,0.439-0.979,0.814l-1.602,2.674c-0.34,0.567-0.368,1.26-0.072,1.853l0.117,0.226h-1.69
			c-0.214,0-0.387,0.172-0.387,0.386v7.333h-1.159c-0.213,0-0.383,0.171-0.383,0.383c0,0.214,0.168,0.386,0.383,0.386h13.124
			c0.211,0,0.377-0.172,0.377-0.386c0-0.211-0.166-0.383-0.377-0.383h-1.16V5.16c0-0.131-0.07-0.257-0.179-0.325
			c-0.113-0.071-0.252-0.082-0.372-0.025c-0.426,0.199-0.737,0.3-0.886,0.345c-0.033,0.008-0.063,0.021-0.091,0.042l-2.514,1.504
			c-0.4,0.242-0.855,0.369-1.319,0.369c-0.854,0-1.653-0.425-2.142-1.147c-0.387-0.579-0.521-1.279-0.377-1.958
			c0.146-0.68,0.551-1.263,1.132-1.637l0.364-0.232c0.269-0.163,0.507-0.312,0.721-0.442c0.146-0.094,0.216-0.273,0.166-0.441
			c-0.097-0.31-0.257-0.585-0.405-0.796c0.589-0.257,1.389-0.717,1.787-1.183c0,0,0.005,0.002,0.008,0.002
			c0.083,0.052,0.181,0.106,0.294,0.161c0.008,0.002,0.011,0.005,0.021,0.008l0,0c0.286,0.14,0.652,0.278,1.068,0.361
			c-0.448,0.556-0.904,1.249-1.071,1.711c-0.319,0.14-0.983,0.517-2.535,1.505c-0.41,0.262-0.691,0.667-0.787,1.144
			c-0.104,0.475-0.013,0.962,0.262,1.369c0.344,0.519,0.909,0.805,1.497,0.805c0.313,0,0.634-0.083,0.921-0.257l2.654-1.592
			c0.41-0.102,2.476-0.718,4.037-3.246c1.227-1.98,1.912-3.575,2.197-4.297l0.047,0.023c0.162,0.081,0.338,0.121,0.519,0.121
			c0.292,0,0.587-0.118,0.805-0.326c0.229-0.216,0.353-0.514,0.353-0.832v-1.837C30.756-6.099,30.667-6.239,30.527-6.298z"/>
	</g>
	<g id="Faible" display="none">
		<path id="Famine" display="inline" fill="#F9F9F9" d="M27.052,7.91L23.985,8.49l-5.007-2.724l1.819-2.271l4.096,1.36L27.052,7.91z
			 M31.765,2.587v0.339l-3.229,1.025l-3.188,0.452l-4.096-1.362l-0.963-0.454h0.551c-0.133-1.219-0.308-2.142-0.395-3.351h-0.005
			c-0.003-0.036-0.044-0.845-0.056-1.19c-0.063-0.364-0.235-0.509-0.803-0.9c-0.313-0.201-0.544-0.273-0.677-0.271
			c-0.208,0-0.394,0.226-0.438,0.907c0.911,0.155,0.974,1.164,0.974,1.164c0.082,0.717-0.271,1.765-1.082,2.036
			c-1.5,0.501-1.347-2.388-0.5-3.081c0.023-0.833,0.256-1.596,1.046-1.626c0.314,0.003,0.635,0.132,1.006,0.366
			c0.177,0.105,0.318,0.214,0.445,0.325c-0.015-0.275-0.033-0.555-0.033-0.843c-0.002-0.606,0.094-1.268,0.633-1.737
			c0.276-0.251,0.586-0.383,0.896-0.38c0.802,0.039,1.299,0.73,1.588,1.437c0.337-0.147,0.757-0.22,1.241-0.053
			c1.231,0.427,1.896,2.577,1.38,3.327c-1.215,1.746-4.274-1.504-3.465-2.638c0,0,0.118-0.155,0.327-0.326
			c-0.237-0.626-0.714-1.185-1.071-1.146c-0.136,0.002-0.295,0.05-0.496,0.229c-0.34,0.299-0.431,0.726-0.431,1.286
			c0,0.394,0.049,0.831,0.049,1.271c0,0.229,0.014,0.43,0.021,0.652c0.058,0.391,0.059,0.692,0.058,1.104
			c0.082,1.204,0.571,2.193,0.697,3.435h10.015V2.587z M23.146-4.006l2.318,2.525c-0.412-1.791-1.882-2.789-1.882-2.789
			L23.146-4.006z M18.342-1.838l-0.415,0.169c0,0-0.205,1.413,0,2.15L18.342-1.838z M16.266,6.677l1.842-1.107l1.92-2.375
			L19.43,2.587h-4.244l-0.842,1.679L16.266,6.677z M18.415,6.297L15.152,8.52l0.435,0.537h7.513l-0.027-0.11L18.415,6.297z
			 M11.698,2.587v2.561l2.092-1.12l0.633-1.441H11.698z M25.954,4.952l2.023,2.936l3.787,0.89V5.418l-2.726-0.879L25.954,4.952z
			 M31.765,4.684V3.499l-2.124,0.575L31.765,4.684z M13.844,4.848l-2.145,1.021v3.188h1.568l2.335-1.912L13.844,4.848z
			 M25.069,9.057h4.901L27.626,8.49L25.069,9.057z"/>
		<path id="Cyclone" display="inline" fill="#FFFFFF" d="M21.809-4.307c-0.103-0.006-0.205-0.018-0.308-0.018
			c-0.921,0-1.784,0.239-2.537,0.655c1.343-4.579,4.694-4.977,4.694-4.977s-7.406,0.618-7.406,9.26c0.005,0,0.01,0,0.016,0
			c-0.005,0.103-0.016,0.205-0.016,0.311c0,0.915,0.24,1.779,0.655,2.536c-4.579-1.347-4.978-4.695-4.978-4.695
			s0.617,7.409,9.263,7.409c0-0.008,0-0.01,0-0.018c0.1,0.005,0.203,0.018,0.307,0.018c0.922,0,1.783-0.241,2.537-0.656
			c-1.343,4.578-4.699,4.979-4.699,4.979s7.41-0.619,7.41-9.262c-0.006,0-0.011,0-0.016,0c0.005-0.103,0.016-0.203,0.016-0.307
			c0-0.92-0.239-1.785-0.657-2.536c4.576,1.341,4.978,4.696,4.978,4.696s-0.615-7.409-9.26-7.409
			C21.809-4.316,21.809-4.313,21.809-4.307z"/>
		<path id="eruption" display="inline" fill="#FFFFFF" d="M22.96-2.647c1.104,0.377,2.566,0.822,2.876-0.958
			c0.249-1.384,2.097-0.871,2.882-0.958c1.432-0.164,0.35-2.843-1.441-2.881c-1.812-0.042-2.638,0.755-3.356,2.399
			C23.573-4.253,23.281-3.659,22-4.083c-1.282-0.428-2.22,0.625-1.443,1.92c0.689,1.146-0.01,2.398-0.01,2.398h1.935
			c0,0-0.018-0.711-0.481-1.439C21.458-2.055,21.83-3.037,22.96-2.647z M12.73,9.293c4.967-3.617,6.208-8.622,6.208-8.622h5.104
			c0,0,1.241,5.003,6.206,8.622H12.73z"/>
		<path id="tsunami" display="inline" fill="#FFFFFF" d="M30.806,7.021c-15.244,0.863-10.984-10.797-7.03-9.791
			c-0.408,0.249-0.669,1.106-0.417,1.684c0.277,0.618,1.168,0.972,1.68,0.844c1.229-0.317,1.285-2.041,0.842-2.945
			c-0.459-0.941-1.672-2.103-3.784-2.103c-5.107,0-8.589,2.606-9.9,7.088v6.59h18.613V7.023h-0.003V7.021z"/>
		<path id="epidemie" display="inline" fill="#FFFFFF" d="M29.452,1.697c0-4.358-3.414-7.904-7.717-8.125
			c1.902,0.182,3.381,1.56,3.381,3.239c0,0.575-0.193,1.106-0.499,1.576C23.769-2.46,22.603-2.98,21.311-2.98
			c-1.288,0-2.454,0.52-3.299,1.364c-0.305-0.47-0.495-1-0.495-1.578c0-1.674,1.477-3.055,3.374-3.236
			c-4.298,0.222-7.712,3.77-7.712,8.128c0,1.314,0.318,2.554,0.869,3.655c-0.753-1.721-0.296-3.657,1.138-4.485
			c0.501-0.288,1.061-0.39,1.615-0.359c-0.105,0.383-0.175,0.781-0.175,1.201c0,2.164,1.479,3.97,3.474,4.51
			c-0.027,0.047-0.061,0.09-0.086,0.136c0,0.006,0,0.006,0,0.013c-0.067,0.148-0.151,0.268-0.25,0.371
			c-0.214,0.282-0.464,0.531-0.78,0.713c-1.442,0.832-3.36,0.256-4.466-1.278c1.458,2.21,3.956,3.674,6.797,3.674
			c2.817,0,5.293-1.432,6.759-3.607c-1.116,1.484-2.997,2.031-4.417,1.217c-0.503-0.294-0.871-0.733-1.121-1.239
			C24.531,5.679,26,3.869,26,1.71c0-0.418-0.067-0.816-0.172-1.201c0.563-0.037,1.119,0.067,1.624,0.357
			c1.395,0.805,1.868,2.65,1.201,4.335C29.163,4.135,29.452,2.953,29.452,1.697z M22.18,4.831c-0.033-0.679,0.108-1.39,0.446-2.061
			l-0.542-0.313c-0.192,0.201-0.465,0.325-0.77,0.325c-0.3,0-0.574-0.124-0.771-0.325l-0.529,0.305
			c0.34,0.677,0.482,1.394,0.444,2.071c-1.378-0.377-2.398-1.631-2.398-3.125c0-0.288,0.045-0.557,0.116-0.819
			c0.603,0.303,1.148,0.777,1.566,1.404l0.543-0.318c-0.023-0.092-0.06-0.179-0.06-0.281c0-0.502,0.349-0.909,0.815-1.031V0.045
			c-0.753-0.049-1.439-0.283-2.007-0.655c0.588-0.58,1.393-0.936,2.277-0.936c0.889,0,1.692,0.358,2.281,0.938
			c-0.568,0.372-1.253,0.603-2.008,0.652v0.62c0.466,0.123,0.813,0.53,0.813,1.032c0,0.102-0.029,0.188-0.052,0.281L22.898,2.3
			c0.414-0.626,0.962-1.099,1.559-1.401c0.064,0.258,0.113,0.528,0.113,0.81C24.568,3.199,23.554,4.45,22.18,4.831z"/>
		<path id="earthquake" display="inline" fill="#FFFFFF" d="M26.926,1.5c-0.262,0-0.501,0.144-0.626,0.377l-1.015,1.915
			l-1.254-3.669c-0.098-0.279-0.353-0.465-0.645-0.479c-0.299-0.008-0.563,0.163-0.679,0.433l-0.857,2.042l-1.354-8.127
			c-0.066-0.34-0.386-0.599-0.714-0.58c-0.347,0.007-0.635,0.237-0.682,0.583l-1.201,9.427l-0.97-5.06
			c-0.057-0.298-0.3-0.527-0.603-0.569C16.03-2.25,15.73-2.089,15.599-1.814L14.009,1.5H11.54v1.413h2.914
			c0.273,0,0.52-0.158,0.639-0.399l0.853-1.78l1.379,7.179c0.066,0.333,0.356,0.574,0.694,0.574c0.006,0,0.013,0,0.017,0
			c0.347-0.01,0.635-0.27,0.684-0.613l1.179-9.268l0.987,6.1c0.06,0.309,0.306,0.542,0.621,0.576
			c0.313,0.029,0.608-0.141,0.731-0.43l1.062-2.519l1.179,3.458c0.09,0.268,0.33,0.455,0.609,0.479
			c0.281,0.015,0.551-0.125,0.685-0.374l1.579-2.985h3.032V1.497h-3.457V1.5z"/>
	</g>
	<g id="Modéré">
	</g>
	<g id="Important" display="none">
		<path id="enlevement" display="inline" fill="#FFFFFF" d="M28.102-8.031c-0.504,0-0.916,0.412-0.916,0.919v3.738
			c0.222,0.05,0.435,0.142,0.604,0.309c0.483,0.477,0.496,1.259,0.023,1.749L26.073,0.47l-0.241-0.232l1.746-1.782
			c0.35-0.361,0.34-0.934-0.017-1.289c-0.115-0.106-0.246-0.18-0.383-0.22c-0.157-0.042-0.31-0.044-0.462-0.013
			c-0.17,0.045-0.319,0.129-0.438,0.256c-1.032,1.058-2.069,2.118-3.101,3.177c-0.258,0.265-0.732,0.873-0.717,1.478
			C22.471,2.414,22.453,3,22.463,3.572c-0.136-0.109-0.3-0.189-0.483-0.222c-0.531-0.086-1.013,0.229-1.197,0.704h-0.269
			c0-0.129,0-0.259,0.002-0.39c0.014-0.599-0.011-1.217,0.005-1.816c0.013-0.608-0.461-1.216-0.719-1.48
			c-1.032-1.06-2.063-2.119-3.101-3.179c-0.118-0.125-0.267-0.211-0.438-0.254c-0.15-0.031-0.306-0.028-0.457,0.014
			c-0.141,0.04-0.274,0.114-0.385,0.221c-0.355,0.35-0.363,0.923-0.016,1.289l1.743,1.78L16.908,0.47l-1.739-1.788
			c-0.476-0.488-0.463-1.27,0.023-1.745c0.17-0.164,0.382-0.261,0.604-0.31v-3.739c0-0.505-0.411-0.919-0.914-0.919
			c-0.51,0-0.919,0.413-0.919,0.919v6.473c0,0.21,0.084,0.406,0.211,0.563l3.125,4.128h-0.278c-0.606,0-1.105,0.494-1.105,1.107
			c0,0.406,0.229,0.745,0.554,0.936c-0.324,0.193-0.554,0.535-0.554,0.935c0,0.613,0.496,1.109,1.105,1.109h0.337v0.615h3.071
			c0.16,0.16,0.347,0.276,0.574,0.315c0.063,0.011,0.12,0.015,0.185,0.015c0.539,0,0.999-0.383,1.087-0.917l0.005-0.027h0.196
			c0.002,0.203,0,0.404,0.022,0.615h3.123V8.141h0.34c0.605,0,1.104-0.494,1.104-1.109c0-0.401-0.229-0.741-0.556-0.934
			c0.327-0.192,0.556-0.532,0.556-0.938c0-0.61-0.495-1.105-1.104-1.105h-0.277l3.125-4.13c0.13-0.157,0.212-0.353,0.212-0.563
			v-6.47C29.019-7.619,28.609-8.031,28.102-8.031z M16.469,5.158c0-0.304,0.249-0.551,0.551-0.551h3.624l-0.191,1.105h-3.433
			C16.719,5.709,16.469,5.465,16.469,5.158z M16.469,7.031c0-0.302,0.249-0.553,0.551-0.553h3.3l-0.191,1.107h-3.108
			C16.719,7.585,16.469,7.341,16.469,7.031z M21.728,8.071c-0.05,0.304-0.363,0.502-0.638,0.455
			c-0.145-0.026-0.271-0.107-0.355-0.225c-0.089-0.122-0.118-0.268-0.095-0.412l0.611-3.541c0.047-0.268,0.278-0.459,0.553-0.459
			c0.028,0,0.059,0,0.088,0.007c0.3,0.051,0.501,0.337,0.448,0.638L21.728,8.071z M26.511,7.031c0,0.307-0.249,0.554-0.552,0.554
			h-3.585l0.191-1.107h3.396C26.261,6.48,26.511,6.729,26.511,7.031z M26.511,5.158c0,0.305-0.249,0.551-0.552,0.551h-3.262
			l0.188-1.082c0.002-0.007,0-0.015,0-0.023h3.072C26.261,4.606,26.511,4.856,26.511,5.158z"/>
	</g>
	<g id="Elevé">
	</g>
	<g id="Extreme" display="none">
		<path id="rebelion" display="inline" fill="#FFFFFF" d="M24.388-4.046c0,1.702-1.38,3.08-3.079,3.08
			c-1.703,0-3.082-1.38-3.082-3.08c0-1.704,1.379-3.08,3.082-3.08C23.008-7.126,24.388-5.75,24.388-4.046z M16.166,9.018h1.882
			h0.101l0.069-0.144l0.684-0.67L18.27,8.069l-0.999-0.214L16.166,9.018z M29.052-3.475l-0.661,0.66l0.046,0.045l-0.533,0.54
			c0.068,0.065,0.139,0.132,0.196,0.208l0.538-0.54l0.111,0.102l0.652-0.664L29.052-3.475z M24.8-0.059l-0.285,0.281l0.031,0.082
			l0.068,0.151L20.122,4.96l0.482,0.103c0.443,0.094,0.825,0.358,1.073,0.741c0.034,0.055,0.044,0.121,0.071,0.179l0.014-0.016
			l0.333,0.219l0.119-0.025l1.307,0.95l0.882-1.205l-1.95-1.523l0.042-0.127h0.322l1.916-2.246l0.213-2.014L24.8-0.059z
			 M26.885-2.05c-0.579-0.064-1.147,0.372-1.215,0.974l-0.073,0.657l0,0l-0.045,0.474l-0.215,2.017L25.317,2.26l-0.121,0.144
			l-1.714,2.01l1.291,1.012l0.465,0.364l-0.271,0.369l0.068,0.136c0.181,0.386,0.573,0.627,0.996,0.627
			c0.06,0,0.12-0.002,0.184-0.015c0.482-0.083,0.856-0.477,0.908-0.963l0.731-6.775C27.924-1.442,27.488-1.987,26.885-2.05z
			 M24.644,6.604L24.015,7.47l-0.359,0.494l-0.493-0.36l-1.085-0.783l-0.095,0.023l-0.041-0.025c0,0.093-0.002,0.182-0.023,0.275
			c-0.021,0.09-0.053,0.172-0.087,0.257c-0.068,0.16-0.156,0.298-0.262,0.428l0.075,0.171c0.077,0.172,0.182,0.398,0.307,0.592
			l0.301,0.473h2.317L24.644,6.604z M20.241,8.448c-0.025,0-0.052-0.008-0.079-0.01c-0.012,0.049-0.02,0.085-0.02,0.085l0.262,0.493
			h0.627l0.406-0.142c-0.139-0.214-0.25-0.446-0.354-0.678C20.831,8.343,20.552,8.448,20.241,8.448z M21.149,6.117
			c-0.045-0.07-0.113-0.124-0.176-0.18c-0.037-0.034-0.066-0.08-0.112-0.108c-0.112-0.082-0.245-0.139-0.387-0.173l-0.48-0.099
			l-1.095-0.234l0,0l-0.97-0.208l-0.376-0.079l-0.622-0.133L16.89,4.895l0.099-0.101l0.421-0.417l0.447-0.451
			c0.038,0.309,0.055,0.555,0.055,0.56l0.146,0.03l1.358,0.289l0.276-0.278l4.203-4.22L23.8,0.072l0.034-0.028
			c-0.608-0.184-1.327-0.288-2.229-0.288h-0.297c0,0-0.292,0-0.295,0c-0.634,0-1.276,0.043-1.901,0.183
			c-1.077,0.241-1.744,1.294-2.48,2.02c-0.76,0.748-1.499,1.527-2.238,2.295c-0.163,0.171-0.325,0.347-0.495,0.518
			c-0.283,0.285-0.387,0.703-0.274,1.092c0.11,0.386,0.431,0.679,0.826,0.765l1.455,0.313l0.618,0.13l3.493,0.746
			c0.076,0.011,0.153,0.025,0.231,0.025c0.508,0,0.962-0.356,1.073-0.872c0.042-0.203,0.011-0.395-0.051-0.577L21.2,6.252
			C21.182,6.211,21.166,6.168,21.149,6.117z M19.606,8.806l-0.106-0.198l0.053-0.221l0.01-0.043l-0.167-0.037l-0.616,0.709h0.936
			L19.606,8.806z"/>
	</g>
	<path id="displaced" display="none" fill="#FFFFFF" d="M22.558-6.706c0.15,0.951-0.488,1.843-1.433,1.996
		c-0.946,0.157-1.848-0.484-2-1.429c-0.157-0.949,0.483-1.847,1.436-2.001C21.503-8.292,22.399-7.651,22.558-6.706z M22.013,0.188
		l1.538,2.457c0.22,0.347,0.669,0.457,1.021,0.253c0.355-0.211,0.476-0.659,0.282-1.017l-0.393-0.706
		c-0.342-0.603-0.674-1.211-1.012-1.817l-0.683-1.242c-0.077-0.146-0.155-0.31-0.235-0.479c-0.42-0.886-1.08-2.255-2.528-2.131
		c-1.234,0.109-2.49,0.695-3.727,1.746c-1.462,1.154-2.483,2.83-2.521,2.901c-0.051,0.071-0.096,0.149-0.131,0.219
		c-0.004,0.003-0.004,0.005-0.007,0.008l0,0c-0.138,0.257-0.206,0.494-0.034,0.796c0.136,0.236,0.387,0.381,0.656,0.381
		c0.332,0,0.499-0.157,0.662-0.388l0,0c0.002,0,0.002-0.005,0.002-0.005c0.045-0.069,0.088-0.144,0.141-0.219
		c0.008-0.015,0.867-1.391,2.192-2.523c0.41-0.323,0.798-0.542,1.165-0.663l-0.298,3.577c-0.029,0.354-0.141,0.966-0.236,1.307
		l-0.666,2.332c-0.089,0.294-0.335,0.784-0.531,1.021l-1.797,2.229c-0.229,0.282-0.485,0.602-0.273,1.046
		c0.125,0.264,0.39,0.431,0.682,0.431c0.348,0,0.536-0.2,0.769-0.454l1.82-1.964c0.324-0.351,0.75-0.958,0.959-1.388l0.902-1.838
		l3.339,5.61c0.164,0.276,0.372,0.623,0.822,0.623l0,0c0.262,0,0.5-0.135,0.635-0.347c0.244-0.372,0.082-0.709-0.056-1.013
		l-2.7-5.865c-0.104-0.231-0.164-0.698-0.118-0.952L22.013,0.188z M24.842,6.292h4.046v1.202l4.021-2.32l-4.021-2.322v1.203h-4.046
		V6.292z"/>
	<path id="returned" fill="#FFFFFF" d="M16.106,3.329c0.158,0.971-0.504,1.886-1.466,2.045c-0.973,0.162-1.887-0.498-2.046-1.464
		c-0.16-0.973,0.493-1.888,1.467-2.047C15.025,1.701,15.949,2.358,16.106,3.329z M15.55,10.386l1.577,2.519
		c0.221,0.351,0.688,0.468,1.05,0.254c0.355-0.213,0.48-0.674,0.28-1.04l-0.399-0.723c-0.347-0.617-0.684-1.239-1.03-1.86
		l-0.703-1.273c-0.083-0.144-0.161-0.311-0.244-0.486c-0.434-0.908-1.111-2.311-2.589-2.181c-1.267,0.106-2.55,0.709-3.814,1.783
		c-1.495,1.183-2.544,2.898-2.591,2.968c-0.046,0.078-0.091,0.154-0.13,0.228c-0.004,0.004-0.006,0.004-0.006,0.007l0,0
		c-0.14,0.265-0.208,0.507-0.034,0.813c0.137,0.245,0.393,0.395,0.675,0.395c0.339,0,0.508-0.16,0.675-0.401l0,0
		c0.004-0.003,0.004-0.003,0.004-0.003c0.046-0.073,0.094-0.15,0.143-0.232c0.007-0.011,0.889-1.421,2.247-2.58
		c0.417-0.326,0.813-0.554,1.192-0.679l-0.304,3.666c-0.03,0.365-0.143,0.988-0.246,1.342l-0.677,2.385
		c-0.091,0.301-0.347,0.803-0.548,1.046l-1.841,2.281c-0.233,0.292-0.496,0.619-0.276,1.075c0.129,0.266,0.4,0.439,0.696,0.439
		c0.355,0,0.547-0.206,0.792-0.468l1.865-2.009c0.333-0.36,0.765-0.981,0.978-1.424l0.925-1.879l3.419,5.746
		c0.171,0.283,0.385,0.634,0.849,0.634l0,0c0.265,0,0.508-0.134,0.65-0.36c0.243-0.377,0.081-0.719-0.061-1.03l-2.766-6.012
		c-0.11-0.233-0.169-0.713-0.126-0.971L15.55,10.386z M27.065,11.667c0-2.509-2.04-4.546-4.545-4.546h-1.932v2.296h1.93
		c1.24,0,2.248,1.008,2.248,2.25c0,1.241-1.008,2.252-2.248,2.252h-0.399v-1.233l-4.122,2.379l4.121,2.379V16.21h0.449v-0.004
		C25.048,16.181,27.065,14.159,27.065,11.667z"/>
	<path id="Attack" display="none" fill="#FFFFFF" d="M25.761,2.18l5.451-3.492l-5.27-0.56l1.432-6.123l-3.735,3.863l-1.043-4.366
		l-1.565,4.075l-4.271-5.502L18.1-3.031l-3.794-0.843c0,0,1.152,2.208,1.797,3.538L10.01-0.764l5.513,3.224l-1.583,1.628
		l2.564-0.468l-1.817,6.425l5.399-4.516l1.396,3.489l1.441-2.791l4.655,4.806l-2.328-6.436l5.104,0.517L25.761,2.18z"/>
</g>
</svg>
