<?xml version="1.0" encoding="utf-8"?>
<!-- Generator: Adobe Illustrator 16.0.0, SVG Export Plug-In . SVG Version: 6.00 Build 0)  -->
<!DOCTYPE svg PUBLIC "-//W3C//DTD SVG 1.1//EN" "http://www.w3.org/Graphics/SVG/1.1/DTD/svg11.dtd">
<svg version="1.1" id="Groupe" xmlns="http://www.w3.org/2000/svg" xmlns:xlink="http://www.w3.org/1999/xlink" x="0px" y="0px"
	 width="15.871px" height="15.65px" viewBox="0 0 15.871 15.65" enable-background="new 0 0 15.871 15.65" xml:space="preserve">
<g id="PinColor_1_">
	<path id="vert" display="none" fill="#2ABF00" stroke="#1D7500" stroke-width="0.2" stroke-miterlimit="10" d="M15.451,7.681
		c0,3.361-2.405,6.181-5.651,6.927c-0.545,0.121-2.901,0.121-3.464-0.021C3.124,13.824,0.74,11.022,0.74,7.678
		c0-3.923,3.295-7.114,7.355-7.114C12.154,0.564,15.451,3.756,15.451,7.681z"/>
	<path id="orange" fill="#FF8500" stroke="#7F4500" stroke-width="0.2" stroke-miterlimit="10" d="M15.451,7.681
		c0,3.361-2.405,6.181-5.651,6.927c-0.545,0.121-2.901,0.121-3.464-0.021C3.124,13.824,0.74,11.022,0.74,7.678
		c0-3.923,3.295-7.114,7.355-7.114C12.154,0.564,15.451,3.756,15.451,7.681z"/>
	<path id="gris" display="none" fill="#A5A5A5" stroke="#595959" stroke-width="0.2" stroke-miterlimit="10" d="M15.451,7.681
		c0,3.361-2.405,6.181-5.651,6.927c-0.545,0.121-2.901,0.121-3.464-0.021C3.124,13.824,0.74,11.022,0.74,7.678
		c0-3.923,3.295-7.114,7.355-7.114C12.154,0.564,15.451,3.756,15.451,7.681z"/>
	<path id="bleu" display="none" fill="#0092FF" stroke="#00477C" stroke-width="0.2" stroke-miterlimit="10" d="M15.451,7.681
		c0,3.361-2.405,6.181-5.651,6.927c-0.545,0.121-2.901,0.121-3.464-0.021C3.124,13.824,0.74,11.022,0.74,7.678
		c0-3.923,3.295-7.114,7.355-7.114C12.154,0.564,15.451,3.756,15.451,7.681z"/>
</g>
<g id="IconsGroup">
	<g id="MinimalGroup" display="none">
		<path id="ElectionGroup" display="inline" fill="#565656" d="M14.435,1.895l-3.66-1.565c-0.103-0.043-0.236-0.015-0.305,0.075
			L9.425,1.713C9.377,1.765,9.36,1.854,9.377,1.93c0.018,0.079,0.065,0.134,0.134,0.165L6.232,3.334
			C5.958,3.43,5.72,3.623,5.568,3.88L4.484,5.684C4.255,6.068,4.233,6.537,4.437,6.938L4.519,7.09H3.373
			c-0.146,0-0.26,0.118-0.26,0.262v4.955H2.33c-0.144,0-0.256,0.118-0.256,0.256c0,0.143,0.117,0.261,0.256,0.261h8.866
			c0.142,0,0.258-0.118,0.258-0.261c0-0.138-0.116-0.256-0.258-0.256h-0.782V9.641c0-0.081-0.048-0.171-0.116-0.217
			c-0.074-0.05-0.173-0.059-0.259-0.013C9.756,9.543,9.54,9.611,9.446,9.641c-0.021,0-0.044,0.014-0.06,0.026l-1.701,1.015
			c-0.272,0.162-0.581,0.254-0.891,0.254c-0.586,0-1.113-0.289-1.443-0.78c-0.27-0.39-0.363-0.86-0.26-1.322
			c0.097-0.458,0.373-0.854,0.761-1.105l0.251-0.159c0.182-0.105,0.344-0.204,0.483-0.296c0.104-0.059,0.144-0.186,0.113-0.3
			C6.637,6.764,6.533,6.578,6.426,6.434c0.397-0.168,0.937-0.482,1.21-0.798l0,0c0.056,0.037,0.126,0.075,0.199,0.112
			c0.008,0,0.008,0,0.015,0.004l0,0c0.193,0.094,0.434,0.188,0.721,0.244C8.268,6.375,7.961,6.842,7.843,7.15
			C7.64,7.249,7.187,7.494,6.139,8.165C5.861,8.341,5.67,8.619,5.606,8.943C5.537,9.265,5.597,9.592,5.784,9.867
			c0.238,0.353,0.615,0.548,1.01,0.548c0.213,0,0.425-0.063,0.624-0.175l1.791-1.08c0.276-0.068,1.669-0.484,2.729-2.193
			c0.83-1.339,1.297-2.414,1.485-2.904l0.035,0.017c0.106,0.048,0.236,0.087,0.344,0.087c0.21,0,0.411-0.087,0.554-0.226
			c0.151-0.145,0.236-0.348,0.236-0.561V2.136C14.583,2.029,14.529,1.931,14.435,1.895z"/>
	</g>
	<g id="FaibleGroup" display="none">
		<path id="FamineGroup" display="inline" fill="#F9F9F9" d="M11.723,11.081l-1.982,0.377L6.507,9.69l1.177-1.459l2.64,0.878
			L11.723,11.081z M14.766,7.641v0.225L12.683,8.52l-2.062,0.293L7.979,7.938L7.353,7.641H7.71c-0.085-0.783-0.2-1.383-0.255-2.165
			l0,0C7.451,5.454,7.422,4.934,7.417,4.713C7.379,4.472,7.264,4.381,6.897,4.124C6.69,4.001,6.542,3.953,6.463,3.953
			c-0.134,0-0.255,0.148-0.284,0.594c0.589,0.099,0.629,0.751,0.629,0.751c0.053,0.461-0.177,1.14-0.699,1.315
			c-0.965,0.32-0.874-1.541-0.326-1.992c0.016-0.539,0.166-1.03,0.68-1.052c0.206,0,0.413,0.087,0.649,0.238
			c0.107,0.07,0.205,0.134,0.281,0.213C7.386,3.839,7.379,3.657,7.379,3.468c0-0.395,0.059-0.813,0.407-1.118
			c0.179-0.166,0.376-0.258,0.581-0.253c0.517,0.032,0.831,0.476,1.021,0.93c0.215-0.097,0.486-0.141,0.795-0.029
			c0.798,0.27,1.233,1.664,0.9,2.142c-0.79,1.13-2.764-0.963-2.248-1.702c0,0,0.084-0.096,0.216-0.209
			c-0.156-0.404-0.46-0.758-0.688-0.739c-0.09,0-0.197,0.03-0.321,0.145c-0.22,0.199-0.28,0.471-0.28,0.834
			c0,0.256,0.033,0.541,0.033,0.822c0,0.149,0.008,0.279,0.012,0.422c0.038,0.252,0.038,0.441,0.038,0.712
			C7.903,6.203,8.21,6.842,8.298,7.642h6.468V7.641z M9.194,3.385l1.502,1.631C10.429,3.86,9.483,3.216,9.483,3.216L9.194,3.385z
			 M6.094,4.783L5.827,4.895c0,0-0.132,0.912,0,1.387L6.094,4.783z M4.755,10.284l1.19-0.712l1.237-1.536L6.798,7.641h-2.74
			L3.515,8.735L4.755,10.284z M6.139,10.034l-2.104,1.438l0.273,0.347H9.16l-0.01-0.063L6.139,10.034z M1.807,7.641v1.655
			L3.15,8.571l0.415-0.933H1.807V7.641z M11.013,9.167l1.309,1.903l2.444,0.576V9.47l-1.762-0.567L11.013,9.167z M14.766,8.993
			v-0.76l-1.374,0.365L14.766,8.993z M3.189,9.107L1.807,9.762v2.057h1.011l1.51-1.231L3.189,9.107z M10.435,11.819h3.17
			l-1.51-0.361L10.435,11.819z"/>
		<path id="CycloneGroup" display="inline" fill="#FFFFFF" d="M8.333,3.186c-0.07,0-0.136-0.008-0.203-0.008
			c-0.594,0-1.15,0.155-1.633,0.42C7.363,0.65,9.527,0.386,9.527,0.386S4.743,0.793,4.743,6.372c0.004,0,0.004,0,0.01,0
			c0,0.065-0.005,0.127-0.005,0.199c0,0.589,0.153,1.153,0.421,1.64C2.214,7.339,1.959,5.177,1.959,5.177S2.361,9.96,7.944,9.96
			c0-0.003,0-0.003,0-0.012C8.01,9.955,8.07,9.96,8.139,9.96c0.595,0,1.153-0.151,1.639-0.423c-0.874,2.957-3.041,3.211-3.041,3.211
			s4.789-0.401,4.789-5.985c-0.009,0-0.009,0-0.009,0c0-0.066,0.009-0.134,0.009-0.197c0-0.598-0.148-1.155-0.423-1.641
			c2.951,0.868,3.216,3.036,3.216,3.036S13.92,3.179,8.333,3.179C8.333,3.183,8.333,3.186,8.333,3.186z"/>
		<path id="eruptionGroup" display="inline" fill="#FFFFFF" d="M9.076,4.261c0.716,0.246,1.66,0.53,1.865-0.616
			c0.158-0.901,1.346-0.568,1.852-0.621c0.924-0.109,0.228-1.838-0.925-1.861c-1.172-0.028-1.702,0.49-2.177,1.55
			c-0.213,0.509-0.403,0.892-1.231,0.62C7.632,3.056,7.021,3.738,7.526,4.575c0.442,0.743-0.009,1.548-0.009,1.548h1.252
			c0,0-0.009-0.45-0.313-0.925C8.106,4.642,8.349,4.012,9.076,4.261z M2.467,11.974C5.68,9.635,6.482,6.407,6.482,6.407h3.292
			c0,0,0.8,3.228,4.009,5.567H2.467z"/>
		<path id="tsunamiGroup" display="inline" fill="#FFFFFF" d="M14.15,10.505c-9.856,0.563-7.096-6.97-4.547-6.322
			C9.34,4.345,9.174,4.899,9.332,5.265c0.178,0.407,0.76,0.63,1.093,0.546c0.786-0.202,0.821-1.309,0.541-1.9
			c-0.3-0.601-1.082-1.356-2.45-1.356c-3.29,0-5.549,1.683-6.394,4.574v4.26H14.15V10.505z"/>
		<path id="epidemieGroup" display="inline" fill="#FFFFFF" d="M13.274,7.067c0-2.818-2.205-5.106-4.98-5.247
			c1.228,0.111,2.183,1.008,2.183,2.091c0,0.371-0.127,0.713-0.324,1.018C9.599,4.383,8.847,4.049,8.01,4.049
			c-0.831,0-1.587,0.334-2.132,0.879C5.687,4.625,5.562,4.281,5.562,3.911c0-1.083,0.945-1.977,2.181-2.091
			C4.966,1.967,2.761,4.254,2.761,7.067c0,0.843,0.209,1.646,0.567,2.357c-0.493-1.111-0.196-2.361,0.73-2.892
			c0.325-0.186,0.681-0.257,1.047-0.241C5.032,6.544,4.99,6.802,4.99,7.074c0,1.398,0.953,2.565,2.247,2.914
			c-0.025,0.026-0.05,0.055-0.065,0.09v0.004c-0.044,0.09-0.093,0.173-0.158,0.241c-0.141,0.182-0.298,0.344-0.506,0.46
			c-0.925,0.534-2.164,0.164-2.884-0.828c0.94,1.431,2.552,2.374,4.394,2.374c1.819,0,3.416-0.924,4.373-2.33
			c-0.733,0.962-1.942,1.316-2.862,0.786C9.2,10.596,8.968,10.316,8.806,9.988c1.285-0.349,2.229-1.521,2.229-2.914
			c0-0.268-0.037-0.525-0.097-0.778c0.364-0.02,0.723,0.051,1.047,0.241c0.9,0.519,1.209,1.708,0.767,2.789
			C13.083,8.645,13.274,7.876,13.274,7.067z M8.571,9.09C8.546,8.65,8.645,8.196,8.861,7.758L8.515,7.556
			C8.389,7.692,8.207,7.771,8.017,7.771C7.817,7.771,7.64,7.69,7.51,7.56L7.171,7.754C7.394,8.192,7.482,8.65,7.458,9.094
			c-0.89-0.25-1.55-1.05-1.55-2.019c0-0.187,0.034-0.36,0.078-0.526c0.389,0.194,0.745,0.503,1.01,0.905l0.357-0.206
			c-0.018-0.06-0.04-0.119-0.04-0.182c0-0.328,0.223-0.593,0.529-0.668V5.993C7.353,5.958,6.915,5.811,6.549,5.57
			C6.921,5.199,7.443,4.969,8.01,4.969c0.566,0,1.096,0.237,1.475,0.607C9.112,5.818,8.672,5.966,8.191,6v0.404
			c0.295,0.079,0.521,0.34,0.521,0.667c0,0.063-0.018,0.123-0.033,0.178l0.357,0.202c0.262-0.402,0.619-0.707,1.002-0.904
			c0.042,0.169,0.081,0.338,0.081,0.521C10.116,8.045,9.46,8.84,8.571,9.09z"/>
		<path id="earthquakeGroup" display="inline" fill="#FFFFFF" d="M11.638,6.942c-0.167,0-0.324,0.095-0.403,0.248l-0.657,1.228
			l-0.806-2.37c-0.063-0.177-0.23-0.3-0.421-0.307C9.155,5.736,8.988,5.848,8.919,6.026l-0.557,1.31l-0.876-5.25
			C7.448,1.868,7.236,1.702,7.029,1.713C6.798,1.721,6.612,1.868,6.583,2.088L5.813,8.174L5.181,4.91
			c-0.033-0.189-0.193-0.34-0.39-0.364C4.603,4.523,4.413,4.621,4.318,4.795L3.291,6.94H1.704v0.911h1.883
			c0.174,0,0.336-0.093,0.412-0.255l0.555-1.15l0.891,4.639c0.043,0.209,0.235,0.364,0.444,0.364c0.009,0,0.014,0,0.017,0
			c0.226-0.007,0.412-0.173,0.441-0.395l0.759-5.986l0.641,3.934c0.034,0.206,0.192,0.355,0.396,0.384
			c0.206,0.018,0.395-0.09,0.472-0.276l0.684-1.626l0.763,2.239c0.063,0.171,0.212,0.285,0.395,0.301
			c0.186,0.011,0.356-0.079,0.438-0.241l1.025-1.932h1.956V6.942H11.638z"/>
	</g>
	<g id="ModereGroup">
		<path id="returnedGroup" fill="#FFFFFF" d="M8.28,1.931c0.094,0.612-0.314,1.184-0.927,1.287C6.742,3.322,6.159,2.907,6.067,2.295
			c-0.101-0.613,0.307-1.19,0.922-1.29C7.6,0.904,8.174,1.318,8.28,1.931z M7.927,6.375l0.994,1.59
			c0.145,0.226,0.433,0.29,0.665,0.161c0.226-0.14,0.3-0.417,0.173-0.655L9.509,7.016c-0.22-0.39-0.434-0.782-0.648-1.173
			L8.414,5.04C8.363,4.946,8.32,4.847,8.263,4.733c-0.271-0.57-0.695-1.458-1.631-1.375C5.838,3.423,5.027,3.804,4.229,4.479
			C3.283,5.229,2.619,6.304,2.6,6.355C2.57,6.403,2.538,6.447,2.517,6.493L2.51,6.497l0,0c-0.086,0.169-0.131,0.32-0.025,0.518
			c0.09,0.147,0.255,0.248,0.429,0.248c0.212,0,0.321-0.101,0.422-0.252l0,0l0,0c0.027-0.048,0.059-0.094,0.089-0.143
			c0.007-0.006,0.562-0.9,1.415-1.626C5.108,5.032,5.363,4.89,5.597,4.81L5.405,7.119C5.386,7.345,5.313,7.742,5.252,7.965
			L4.824,9.47c-0.052,0.188-0.217,0.504-0.348,0.655L3.324,11.56c-0.15,0.188-0.316,0.393-0.183,0.682
			c0.085,0.173,0.255,0.273,0.446,0.273c0.22,0,0.343-0.132,0.499-0.296l1.174-1.264c0.21-0.226,0.48-0.622,0.61-0.894l0.586-1.188
			l2.154,3.621c0.103,0.178,0.249,0.403,0.536,0.403l0,0c0.166,0,0.319-0.088,0.418-0.229c0.146-0.236,0.041-0.457-0.042-0.648
			l-1.75-3.789c-0.063-0.146-0.1-0.451-0.081-0.612L7.927,6.375z M15.186,7.186c0-1.585-1.29-2.866-2.869-2.866h-1.218v1.443h1.223
			c0.777,0,1.419,0.636,1.419,1.423c0,0.774-0.631,1.419-1.419,1.419h-0.257V7.827L9.469,9.324l2.596,1.498v-0.771h0.285l0,0
			C13.914,10.027,15.186,8.755,15.186,7.186z"/>
	</g>
	<g id="ImportantGroup" display="none">
		<path id="enlevementGroup" display="inline" fill="#FFFFFF" d="M13.628-0.014c-0.387,0-0.693,0.312-0.693,0.696V3.51
			c0.173,0.035,0.33,0.103,0.466,0.234c0.364,0.359,0.368,0.957,0.014,1.319l-1.319,1.355l-0.182-0.178l1.321-1.348
			c0.256-0.276,0.252-0.708-0.018-0.971c-0.081-0.083-0.18-0.143-0.294-0.169c-0.111-0.032-0.228-0.032-0.337-0.008
			c-0.136,0.026-0.245,0.094-0.331,0.188c-0.784,0.802-1.563,1.606-2.348,2.411C9.708,6.541,9.351,6.992,9.36,7.458
			c0.009,0.432,0,0.872,0,1.307C9.259,8.677,9.138,8.626,8.997,8.596C8.591,8.527,8.232,8.772,8.093,9.13H7.892
			c0-0.095,0-0.197,0-0.296c0.007-0.445-0.008-0.922,0-1.373c0.015-0.46-0.348-0.918-0.539-1.113
			C6.568,5.539,5.792,4.735,5.007,3.93c-0.09-0.091-0.208-0.159-0.331-0.186C4.561,3.716,4.445,3.719,4.328,3.751
			C4.222,3.778,4.117,3.839,4.04,3.922C3.769,4.187,3.761,4.617,4.02,4.895l1.321,1.348L5.165,6.419L3.846,5.064
			C3.49,4.702,3.498,4.104,3.861,3.745c0.135-0.126,0.29-0.193,0.457-0.234V0.682c0-0.385-0.315-0.696-0.694-0.696
			c-0.388,0-0.696,0.312-0.696,0.696v4.895c0,0.162,0.066,0.308,0.159,0.427l2.366,3.117H5.244c-0.459,0-0.831,0.376-0.831,0.843
			c0,0.309,0.17,0.561,0.421,0.707c-0.246,0.151-0.421,0.408-0.421,0.703c0,0.465,0.372,0.837,0.831,0.837h0.255v0.467h2.323
			c0.122,0.123,0.264,0.21,0.434,0.243c0.054,0.016,0.092,0.018,0.143,0.018c0.413,0,0.761-0.294,0.83-0.696v-0.024h0.149
			c0,0.151,0,0.307,0.018,0.462h2.354v-0.462h0.252c0.456,0,0.835-0.375,0.835-0.835c0-0.302-0.171-0.569-0.423-0.712
			c0.252-0.146,0.423-0.398,0.423-0.707c0-0.462-0.379-0.837-0.835-0.837H11.8l2.363-3.118c0.096-0.123,0.16-0.265,0.16-0.427V0.69
			C14.324,0.298,14.012-0.014,13.628-0.014z M4.824,9.964c0-0.229,0.191-0.414,0.42-0.414h2.745L7.84,10.386H5.243
			C5.015,10.378,4.824,10.191,4.824,9.964z M4.824,11.383c0-0.234,0.191-0.422,0.42-0.422h2.498L7.6,11.8H5.244
			C5.015,11.8,4.824,11.617,4.824,11.383z M8.811,12.17c-0.037,0.228-0.28,0.374-0.482,0.344c-0.113-0.018-0.207-0.079-0.271-0.173
			c-0.064-0.09-0.084-0.199-0.068-0.315l0.458-2.677C8.486,9.149,8.66,9.002,8.866,9.002c0.027,0,0.049,0,0.068,0.003
			C9.166,9.052,9.318,9.26,9.275,9.493L8.811,12.17z M12.428,11.383c0,0.234-0.182,0.417-0.418,0.417H9.294l0.143-0.839h2.573
			C12.238,10.963,12.428,11.153,12.428,11.383z M12.428,9.964c0,0.228-0.182,0.418-0.418,0.418H9.542l0.141-0.813
			c0-0.006,0-0.015,0-0.018h2.328C12.238,9.55,12.428,9.738,12.428,9.964z"/>
	</g>
	<g id="EleveGroup" display="none">
		<path id="attackGroup" display="inline" fill="#FFFFFF" d="M11.377,7.527l3.206-2.064L11.48,5.135l0.846-3.6l-2.197,2.277
			L9.509,1.235L8.591,3.635L6.074,0.393l0.789,4.063l-2.237-0.5c0,0,0.68,1.3,1.059,2.086L2.097,5.792l3.25,1.898L4.415,8.643
			l1.507-0.271l-1.064,3.779l3.174-2.659l0.829,2.061l0.848-1.641l2.735,2.826L11.069,8.95l3.012,0.307L11.377,7.527z"/>
	</g>
	<g id="ExtremeGroup" display="none">
		<path id="rebelionGroup" display="inline" fill="#FFFFFF" d="M10.574,2.734c0,1.309-1.067,2.367-2.367,2.367
			c-1.31,0-2.373-1.058-2.373-2.367c0-1.313,1.061-2.367,2.373-2.367C9.509,0.366,10.574,1.421,10.574,2.734z M4.255,12.769h1.441
			h0.079l0.056-0.109l0.523-0.517L5.861,12.04l-0.761-0.164L4.255,12.769z M14.155,3.171l-0.506,0.511l0.03,0.035l-0.414,0.408
			c0.06,0.055,0.112,0.107,0.158,0.167l0.414-0.417L13.92,3.95l0.501-0.51L14.155,3.171z M10.886,5.796l-0.221,0.222l0.026,0.059
			l0.053,0.117L7.294,9.65l0.367,0.088c0.343,0.072,0.634,0.27,0.83,0.571c0.028,0.04,0.034,0.09,0.053,0.132l0.008-0.011
			l0.255,0.166l0.089-0.02l1.002,0.729l0.681-0.925L9.076,9.208l0.039-0.099h0.256l1.468-1.726l0.167-1.544L10.886,5.796z
			 M12.492,4.266c-0.451-0.046-0.885,0.289-0.933,0.751l-0.063,0.505l0,0l-0.033,0.364l-0.164,1.545l-0.018,0.145l-0.088,0.107
			L9.875,9.236l0.988,0.771l0.363,0.28l-0.213,0.285l0.056,0.098c0.133,0.296,0.434,0.478,0.758,0.478c0.048,0,0.094,0,0.142-0.011
			c0.373-0.059,0.657-0.363,0.694-0.74l0.572-5.207C13.288,4.733,12.95,4.317,12.492,4.266z M10.768,10.921l-0.483,0.662
			l-0.274,0.379L9.625,11.68l-0.832-0.6l-0.071,0.018l-0.033-0.018c0,0.072,0,0.138-0.021,0.21
			c-0.011,0.066-0.034,0.134-0.064,0.199c-0.048,0.121-0.122,0.22-0.196,0.327l0.06,0.136c0.057,0.131,0.138,0.304,0.23,0.455
			l0.237,0.361h1.777L10.768,10.921z M7.386,12.329c-0.016,0-0.041-0.004-0.064-0.004c0,0.03-0.008,0.055-0.008,0.055l0.203,0.39
			h0.478l0.311-0.109c-0.107-0.164-0.193-0.342-0.272-0.521C7.835,12.251,7.625,12.329,7.386,12.329z M8.082,10.54
			c-0.032-0.051-0.089-0.094-0.136-0.134c-0.025-0.03-0.046-0.067-0.087-0.088c-0.081-0.059-0.189-0.109-0.297-0.133L7.197,10.11
			L6.351,9.933l0,0L5.602,9.768L5.313,9.714L4.841,9.609L4.808,9.602l0.081-0.081l0.325-0.322l0.344-0.344
			c0.027,0.243,0.04,0.423,0.04,0.43l0.113,0.021l1.044,0.226l0.215-0.217l3.23-3.238L10.12,5.893l0.024-0.02
			C9.68,5.736,9.129,5.645,8.433,5.645H8.207H7.98c-0.489,0-0.98,0.04-1.459,0.144C5.687,5.977,5.172,6.791,4.615,7.345
			C4.028,7.92,3.461,8.518,2.897,9.109C2.768,9.245,2.644,9.377,2.511,9.504c-0.215,0.226-0.297,0.548-0.215,0.844
			c0.09,0.295,0.331,0.515,0.64,0.589l1.116,0.238l0.474,0.099l2.686,0.572c0.06,0.011,0.116,0.02,0.173,0.02
			c0.391,0,0.746-0.268,0.829-0.673c0.032-0.157,0.01-0.295-0.04-0.438l-0.048-0.112C8.11,10.612,8.093,10.584,8.082,10.54z
			 M6.897,12.612l-0.083-0.156l0.046-0.168l0.002-0.031l-0.133-0.039l-0.47,0.552H6.98L6.897,12.612z"/>
	</g>
	<path id="displacedGroup" display="none" fill="#FFFFFF" d="M8.275,1.931c0.099,0.612-0.314,1.184-0.922,1.287
		C6.742,3.326,6.159,2.907,6.064,2.302C5.967,1.686,6.375,1.104,6.991,1.01C7.6,0.904,8.174,1.321,8.275,1.931z M7.927,6.381
		L8.92,7.965c0.145,0.226,0.433,0.297,0.665,0.161c0.226-0.137,0.3-0.417,0.173-0.655L9.509,7.019
		C9.288,6.626,9.076,6.234,8.855,5.846L8.414,5.04C8.363,4.946,8.317,4.847,8.263,4.733c-0.271-0.57-0.695-1.454-1.631-1.375
		c-0.798,0.07-1.61,0.455-2.403,1.13C3.287,5.23,2.624,6.304,2.603,6.36C2.572,6.403,2.538,6.451,2.517,6.493c0,0,0,0-0.007,0.004
		l0,0c-0.086,0.169-0.131,0.32-0.025,0.518c0.09,0.147,0.255,0.244,0.429,0.244c0.212,0,0.321-0.103,0.424-0.252l0,0l0,0
		C3.37,6.963,3.4,6.915,3.427,6.868c0.004-0.006,0.559-0.903,1.42-1.626c0.26-0.208,0.513-0.349,0.749-0.423L5.405,7.119
		C5.386,7.345,5.313,7.742,5.252,7.965L4.824,9.47c-0.052,0.185-0.217,0.504-0.339,0.655L3.324,11.56
		c-0.15,0.188-0.316,0.393-0.183,0.682c0.085,0.173,0.255,0.273,0.446,0.273c0.22,0,0.343-0.132,0.499-0.296l1.174-1.264
		c0.21-0.226,0.48-0.622,0.619-0.894L6.46,8.875l2.154,3.621c0.106,0.178,0.244,0.403,0.535,0.403l0,0
		c0.166,0,0.319-0.088,0.414-0.226c0.155-0.239,0.048-0.456-0.042-0.653L7.769,8.233C7.702,8.087,7.668,7.782,7.691,7.621
		L7.927,6.381z M9.75,10.318h2.606v0.775l2.601-1.498l-2.601-1.498v0.777H9.75V10.318z"/>
</g>
</svg>
