<?xml version="1.0" encoding="utf-8"?>
<!-- Generator: Adobe Illustrator 16.0.0, SVG Export Plug-In . SVG Version: 6.00 Build 0)  -->
<!DOCTYPE svg PUBLIC "-//W3C//DTD SVG 1.1//EN" "http://www.w3.org/Graphics/SVG/1.1/DTD/svg11.dtd">
<svg version="1.1" id="Groupe" xmlns="http://www.w3.org/2000/svg" xmlns:xlink="http://www.w3.org/1999/xlink" x="0px" y="0px"
	 width="15.871px" height="15.65px" viewBox="0 0 15.871 15.65" enable-background="new 0 0 15.871 15.65" xml:space="preserve">
<g id="PinColor_1_">
	<path id="vert" display="none" fill="#2ABF00" stroke="#1D7500" stroke-width="0.2" stroke-miterlimit="10" d="M15.291,7.876
		c0,3.361-2.405,6.181-5.651,6.927c-0.545,0.121-2.901,0.121-3.464-0.021C2.963,14.018,0.58,11.218,0.58,7.873
		c0-3.923,3.295-7.114,7.355-7.114C11.994,0.759,15.291,3.95,15.291,7.876z"/>
	<path id="orange" display="none" fill="#FF8500" stroke="#7F4500" stroke-width="0.2" stroke-miterlimit="10" d="M15.291,7.876
		c0,3.361-2.405,6.181-5.651,6.927c-0.545,0.121-2.901,0.121-3.464-0.021C2.963,14.018,0.58,11.218,0.58,7.873
		c0-3.923,3.295-7.114,7.355-7.114C11.994,0.759,15.291,3.95,15.291,7.876z"/>
	<path id="gris" fill="#A5A5A5" stroke="#595959" stroke-width="0.2" stroke-miterlimit="10" d="M15.291,7.876
		c0,3.361-2.405,6.181-5.651,6.927c-0.545,0.121-2.901,0.121-3.464-0.021C2.963,14.018,0.58,11.218,0.58,7.873
		c0-3.923,3.295-7.114,7.355-7.114C11.994,0.759,15.291,3.95,15.291,7.876z"/>
	<path id="bleu" display="none" fill="#0092FF" stroke="#00477C" stroke-width="0.2" stroke-miterlimit="10" d="M15.291,7.876
		c0,3.361-2.405,6.181-5.651,6.927c-0.545,0.121-2.901,0.121-3.464-0.021C2.963,14.018,0.58,11.218,0.58,7.873
		c0-3.923,3.295-7.114,7.355-7.114C11.994,0.759,15.291,3.95,15.291,7.876z"/>
</g>
<g id="IconsGroup">
	<g id="MinimalGroup" display="none">
		<path id="ElectionGroup" display="inline" fill="#565656" d="M13.895,2.416l-3.485-1.49c-0.099-0.042-0.226-0.015-0.29,0.071
			L9.124,2.243C9.078,2.293,9.06,2.377,9.078,2.45c0.016,0.075,0.062,0.127,0.128,0.157l-3.123,1.18
			C5.821,3.878,5.594,4.062,5.45,4.306L4.417,6.025C4.199,6.39,4.179,6.837,4.373,7.218l0.079,0.145H3.359
			c-0.14,0-0.247,0.113-0.247,0.25v4.72H2.365c-0.136,0-0.244,0.113-0.244,0.244c0,0.135,0.112,0.247,0.244,0.247h8.444
			c0.136,0,0.246-0.112,0.246-0.247c0-0.131-0.11-0.244-0.246-0.244h-0.745V9.796c0-0.081-0.045-0.164-0.109-0.207
			C9.883,9.541,9.79,9.532,9.708,9.575c-0.27,0.127-0.477,0.191-0.566,0.221c-0.019,0-0.042,0.011-0.057,0.024l-1.62,0.967
			c-0.258,0.152-0.553,0.241-0.849,0.241c-0.558,0-1.06-0.276-1.375-0.744c-0.257-0.37-0.345-0.818-0.247-1.259
			C5.087,8.588,5.35,8.211,5.72,7.972L5.959,7.82c0.173-0.1,0.328-0.193,0.46-0.282C6.519,7.481,6.556,7.36,6.527,7.253
			C6.468,7.054,6.368,6.877,6.267,6.74c0.378-0.161,0.892-0.46,1.152-0.761l0,0c0.054,0.035,0.12,0.071,0.19,0.106
			c0.007,0,0.007,0,0.015,0.004l0,0c0.183,0.09,0.413,0.18,0.686,0.232C8.021,6.683,7.729,7.127,7.616,7.422
			C7.423,7.516,6.991,7.75,5.993,8.388C5.729,8.555,5.547,8.821,5.486,9.13C5.42,9.436,5.478,9.747,5.655,10.01
			c0.227,0.333,0.585,0.521,0.962,0.521c0.204,0,0.406-0.062,0.594-0.166l1.705-1.028c0.263-0.064,1.59-0.462,2.6-2.089
			c0.79-1.276,1.234-2.299,1.415-2.766l0.032,0.016c0.103,0.045,0.226,0.083,0.328,0.083c0.2,0,0.393-0.083,0.528-0.215
			c0.144-0.138,0.226-0.332,0.226-0.534V2.646C14.037,2.544,13.985,2.451,13.895,2.416z"/>
	</g>
	<g id="FaibleGroup" display="none">
		<path id="FamineGroup" display="inline" fill="#F9F9F9" d="M11.312,11.165l-1.888,0.36l-3.08-1.684l1.12-1.392L9.98,9.286
			L11.312,11.165z M14.21,7.889v0.212l-1.986,0.626l-1.961,0.279L7.745,8.171L7.15,7.889h0.339c-0.081-0.747-0.19-1.318-0.242-2.063
			l0,0C7.243,5.806,7.215,5.311,7.211,5.1C7.174,4.87,7.066,4.783,6.715,4.539C6.519,4.422,6.377,4.376,6.303,4.376
			c-0.128,0-0.243,0.141-0.271,0.565c0.562,0.094,0.6,0.715,0.6,0.715c0.05,0.439-0.169,1.085-0.666,1.252
			c-0.919,0.306-0.832-1.467-0.31-1.896C5.67,4.5,5.813,4.031,6.303,4.011c0.196,0,0.393,0.083,0.617,0.227
			c0.103,0.067,0.195,0.127,0.268,0.203C7.181,4.268,7.174,4.094,7.174,3.914c0-0.375,0.057-0.774,0.389-1.064
			c0.169-0.158,0.358-0.246,0.553-0.242c0.491,0.031,0.79,0.453,0.973,0.886C9.292,3.402,9.551,3.36,9.845,3.466
			c0.76,0.256,1.174,1.584,0.858,2.04C9.951,6.582,8.071,4.589,8.563,3.885c0,0,0.078-0.091,0.204-0.2
			C8.618,3.301,8.329,2.963,8.112,2.981c-0.085,0-0.188,0.028-0.306,0.139C7.596,3.309,7.539,3.568,7.539,3.914
			c0,0.245,0.031,0.516,0.031,0.783c0,0.143,0.007,0.266,0.012,0.403c0.037,0.241,0.037,0.42,0.037,0.678
			C7.673,6.519,7.966,7.127,8.05,7.889H14.21L14.21,7.889z M8.903,3.835l1.432,1.553C10.08,4.288,9.177,3.674,9.177,3.674
			L8.903,3.835z M5.951,5.167L5.696,5.273c0,0-0.126,0.869,0,1.321L5.951,5.167z M4.676,10.405l1.133-0.68l1.178-1.46L6.622,7.889
			H4.012L3.494,8.931L4.676,10.405z M5.993,10.169L3.99,11.538l0.261,0.331h4.62l-0.009-0.063L5.993,10.169z M1.867,7.889v1.573
			l1.28-0.69l0.395-0.886H1.867V7.889z M10.635,9.342l1.245,1.813l2.328,0.548v-2.07l-1.677-0.539L10.635,9.342z M14.21,9.178V8.453
			L12.901,8.8L14.21,9.178z M3.185,9.286L1.867,9.908v1.961H2.83l1.438-1.174L3.185,9.286z M10.085,11.869h3.019l-1.438-0.344
			L10.085,11.869z"/>
		<path id="CycloneGroup" display="inline" fill="#FFFFFF" d="M8.083,3.646c-0.065,0-0.129-0.008-0.192-0.008
			c-0.566,0-1.096,0.148-1.555,0.4C7.159,1.231,9.218,0.98,9.218,0.98S4.664,1.366,4.664,6.681c0.004,0,0.004,0,0.009,0
			c0,0.062-0.005,0.121-0.005,0.188c0,0.561,0.146,1.098,0.401,1.563c-2.814-0.83-3.056-2.89-3.056-2.89s0.382,4.555,5.7,4.555
			c0-0.003,0-0.003,0-0.011c0.063,0.005,0.12,0.011,0.186,0.011c0.566,0,1.097-0.143,1.56-0.403
			c-0.833,2.817-2.895,3.059-2.895,3.059s4.56-0.381,4.56-5.7c-0.008,0-0.008,0-0.008,0c0-0.062,0.008-0.126,0.008-0.188
			c0-0.569-0.143-1.099-0.402-1.562c2.811,0.826,3.063,2.891,3.063,2.891s-0.38-4.553-5.702-4.553
			C8.083,3.643,8.083,3.646,8.083,3.646z"/>
		<path id="eruptionGroup" display="inline" fill="#FFFFFF" d="M8.791,4.67c0.682,0.234,1.58,0.505,1.777-0.586
			c0.149-0.858,1.279-0.541,1.762-0.591c0.881-0.104,0.217-1.75-0.881-1.772C10.334,1.694,9.83,2.187,9.377,3.196
			c-0.203,0.485-0.386,0.85-1.174,0.591c-0.787-0.264-1.37,0.384-0.888,1.182c0.421,0.708-0.009,1.474-0.009,1.474h1.192
			c0,0-0.009-0.428-0.298-0.881C7.867,5.033,8.098,4.433,8.791,4.67z M2.497,12.016c3.059-2.229,3.824-5.303,3.824-5.303h3.136
			c0,0,0.76,3.075,3.815,5.303H2.497z"/>
		<path id="tsunamiGroup" display="inline" fill="#FFFFFF" d="M13.624,10.617c-9.387,0.534-6.758-6.639-4.331-6.021
			C9.042,4.75,8.884,5.277,9.035,5.626c0.169,0.388,0.723,0.6,1.04,0.52c0.75-0.192,0.783-1.246,0.516-1.81
			c-0.286-0.572-1.03-1.292-2.334-1.292c-3.133,0-5.284,1.603-6.088,4.356v4.057h11.456V10.617z"/>
		<path id="epidemieGroup" display="inline" fill="#FFFFFF" d="M12.789,7.342c0-2.683-2.1-4.862-4.743-4.997
			c1.17,0.106,2.079,0.96,2.079,1.991c0,0.353-0.12,0.679-0.309,0.969c-0.527-0.52-1.244-0.838-2.041-0.838
			c-0.791,0-1.511,0.318-2.031,0.838C5.563,5.017,5.443,4.689,5.443,4.336c0-1.031,0.901-1.882,2.078-1.991
			c-2.645,0.14-4.745,2.317-4.745,4.997c0,0.803,0.199,1.568,0.541,2.245c-0.47-1.059-0.188-2.248,0.695-2.753
			c0.31-0.177,0.647-0.245,0.997-0.231c-0.07,0.242-0.11,0.486-0.11,0.747c0,1.329,0.908,2.44,2.141,2.773
			c-0.025,0.027-0.048,0.052-0.063,0.086v0.006c-0.042,0.086-0.088,0.164-0.15,0.229c-0.134,0.174-0.284,0.327-0.482,0.438
			c-0.881,0.51-2.061,0.158-2.747-0.787c0.896,1.361,2.431,2.261,4.185,2.261c1.732,0,3.252-0.881,4.163-2.221
			c-0.697,0.916-1.85,1.254-2.727,0.75c-0.31-0.181-0.53-0.446-0.685-0.761c1.224-0.33,2.124-1.447,2.124-2.773
			c0-0.255-0.036-0.502-0.093-0.741c0.347-0.019,0.688,0.048,0.998,0.229c0.856,0.494,1.15,1.627,0.729,2.658
			C12.607,8.845,12.789,8.112,12.789,7.342z M8.31,9.269C8.286,8.85,8.38,8.418,8.586,7.999l-0.331-0.19
			c-0.12,0.128-0.292,0.204-0.474,0.204c-0.19,0-0.359-0.078-0.483-0.201L6.977,7.997C7.188,8.413,7.273,8.85,7.25,9.272
			C6.402,9.036,5.773,8.273,5.773,7.349c0-0.177,0.032-0.341,0.074-0.5c0.372,0.186,0.71,0.478,0.963,0.862l0.34-0.196
			C7.133,7.46,7.112,7.403,7.112,7.342c0-0.312,0.212-0.564,0.503-0.637V6.319C7.15,6.285,6.733,6.146,6.384,5.916
			c0.354-0.353,0.851-0.572,1.392-0.572c0.54,0,1.044,0.226,1.404,0.579C8.826,6.153,8.406,6.294,7.947,6.326V6.71
			c0.281,0.075,0.498,0.325,0.498,0.637c0,0.059-0.017,0.115-0.032,0.169l0.339,0.191c0.25-0.381,0.591-0.671,0.956-0.859
			C9.748,7.009,9.785,7.17,9.785,7.342C9.781,8.273,9.157,9.03,8.31,9.269z"/>
		<path id="earthquakeGroup" display="inline" fill="#FFFFFF" d="M11.23,7.223c-0.157,0-0.308,0.088-0.383,0.236l-0.626,1.168
			L9.454,6.371c-0.062-0.169-0.221-0.286-0.4-0.292C8.866,6.075,8.707,6.181,8.641,6.35L8.112,7.596L7.277,2.597
			C7.24,2.391,7.038,2.232,6.841,2.243C6.622,2.251,6.444,2.391,6.417,2.6L5.683,8.396L5.081,5.288
			C5.05,5.108,4.897,4.965,4.709,4.942C4.53,4.919,4.349,5.013,4.26,5.178L3.281,7.22H1.77v0.867h1.793
			c0.166,0,0.32-0.088,0.393-0.241l0.528-1.096l0.848,4.417c0.042,0.198,0.224,0.347,0.423,0.347c0.008,0,0.013,0,0.016,0
			c0.215-0.006,0.393-0.164,0.42-0.376l0.724-5.7l0.61,3.748c0.033,0.196,0.183,0.338,0.376,0.365
			c0.197,0.016,0.377-0.089,0.45-0.264l0.651-1.549l0.727,2.132c0.061,0.164,0.202,0.271,0.374,0.287
			c0.178,0.011,0.341-0.075,0.419-0.23l0.975-1.84h1.864V7.223H11.23z"/>
	</g>
	<g id="ModereGroup">
		<path id="returnedGroup" fill="#FFFFFF" d="M8.032,2.451c0.089,0.583-0.3,1.128-0.882,1.226C6.568,3.775,6.013,3.38,5.925,2.798
			C5.829,2.214,6.217,1.664,6.803,1.569C7.385,1.472,7.932,1.867,8.032,2.451z M7.697,6.683l0.946,1.515
			C8.78,8.413,9.055,8.474,9.275,8.351C9.491,8.217,9.561,7.954,9.44,7.725L9.204,7.293C8.995,6.923,8.791,6.549,8.586,6.177
			L8.16,5.411c-0.048-0.09-0.089-0.184-0.143-0.292C7.758,4.576,7.354,3.731,6.463,3.808C5.707,3.871,4.935,4.234,4.174,4.877
			c-0.9,0.714-1.533,1.739-1.552,1.788C2.595,6.71,2.563,6.751,2.544,6.796L2.537,6.799l0,0C2.455,6.96,2.412,7.105,2.514,7.293
			C2.599,7.433,2.757,7.53,2.922,7.53c0.202,0,0.306-0.097,0.401-0.242l0,0l0,0C3.35,7.242,3.38,7.199,3.409,7.154
			c0.007-0.008,0.535-0.859,1.347-1.55c0.256-0.199,0.498-0.334,0.722-0.411l-0.183,2.2C5.277,7.607,5.207,7.986,5.149,8.198
			L4.741,9.632c-0.05,0.18-0.207,0.48-0.332,0.623l-1.097,1.367c-0.143,0.18-0.301,0.373-0.174,0.649
			c0.081,0.164,0.243,0.261,0.425,0.261c0.21,0,0.327-0.126,0.475-0.282l1.118-1.203c0.201-0.215,0.458-0.593,0.582-0.851
			l0.559-1.131l2.051,3.448c0.098,0.169,0.236,0.384,0.51,0.384l0,0c0.159,0,0.304-0.086,0.397-0.218
			c0.142-0.226,0.041-0.438-0.04-0.617L7.55,8.453c-0.061-0.14-0.095-0.43-0.077-0.583L7.697,6.683z M14.609,7.454
			c0-1.508-1.227-2.729-2.73-2.729h-1.16V6.1h1.162c0.741,0,1.353,0.604,1.353,1.354c0,0.738-0.601,1.353-1.353,1.353h-0.244V8.066
			l-2.47,1.426l2.47,1.426v-0.732h0.271l0,0C13.398,10.161,14.609,8.95,14.609,7.454z"/>
	</g>
	<g id="ImportantGroup" display="none">
		<path id="enlevementGroup" display="inline" fill="#FFFFFF" d="M13.126,0.598c-0.369,0-0.66,0.297-0.66,0.663v2.693
			c0.164,0.034,0.314,0.098,0.443,0.223c0.346,0.343,0.352,0.912,0.013,1.257l-1.256,1.29l-0.172-0.168l1.256-1.284
			c0.245-0.263,0.24-0.674-0.016-0.925c-0.078-0.079-0.172-0.136-0.279-0.161c-0.107-0.031-0.218-0.031-0.322-0.008
			c-0.129,0.026-0.233,0.09-0.314,0.18c-0.746,0.764-1.49,1.529-2.236,2.296C9.392,6.842,9.053,7.272,9.06,7.715
			c0.01,0.411,0,0.83,0,1.243C8.964,8.878,8.849,8.826,8.715,8.8C8.329,8.732,7.987,8.966,7.854,9.307H7.663
			c0-0.092,0-0.188,0-0.282c0.008-0.425-0.007-0.878,0-1.308C7.677,7.28,7.332,6.842,7.15,6.656
			c-0.748-0.77-1.486-1.535-2.234-2.302C4.831,4.268,4.718,4.203,4.601,4.177c-0.11-0.027-0.22-0.024-0.332,0.007
			C4.168,4.21,4.068,4.268,3.995,4.347c-0.258,0.252-0.266,0.662-0.02,0.926l1.258,1.284L5.065,6.724L3.81,5.434
			C3.47,5.089,3.478,4.52,3.824,4.177C3.953,4.058,4.1,3.994,4.258,3.955V1.261c0-0.366-0.3-0.663-0.661-0.663
			c-0.37,0-0.663,0.297-0.663,0.663v4.662c0,0.154,0.063,0.292,0.151,0.407l2.253,2.969H5.141c-0.438,0-0.792,0.357-0.792,0.803
			c0,0.293,0.163,0.535,0.401,0.675c-0.235,0.142-0.401,0.387-0.401,0.668c0,0.44,0.354,0.798,0.792,0.798h0.243v0.442h2.212
			c0.115,0.116,0.251,0.202,0.413,0.231c0.051,0.016,0.088,0.019,0.136,0.019c0.393,0,0.725-0.279,0.791-0.663v-0.024h0.143
			c0,0.143,0,0.293,0.016,0.44h2.244v-0.44h0.24c0.432,0,0.795-0.356,0.795-0.795c0-0.287-0.163-0.542-0.403-0.676
			c0.24-0.143,0.403-0.382,0.403-0.675c0-0.44-0.363-0.797-0.795-0.797h-0.192l2.25-2.971c0.093-0.117,0.153-0.252,0.153-0.407
			V1.268C13.789,0.895,13.492,0.598,13.126,0.598z M4.741,10.101c0-0.22,0.183-0.395,0.4-0.395h2.613l-0.14,0.798H5.14
			C4.924,10.497,4.741,10.319,4.741,10.101z M4.741,11.452c0-0.223,0.183-0.402,0.4-0.402H7.52l-0.135,0.8H5.141
			C4.924,11.849,4.741,11.676,4.741,11.452z M8.538,12.202c-0.035,0.217-0.266,0.356-0.459,0.327
			c-0.107-0.016-0.197-0.075-0.258-0.164c-0.062-0.086-0.08-0.19-0.064-0.301l0.437-2.551c0.036-0.19,0.201-0.33,0.397-0.33
			c0.024,0,0.047,0,0.065,0.003C8.876,9.232,9.021,9.43,8.98,9.65L8.538,12.202z M11.983,11.452c0,0.224-0.173,0.397-0.397,0.397
			H8.999l0.136-0.8h2.451C11.801,11.052,11.983,11.235,11.983,11.452z M11.983,10.101c0,0.218-0.173,0.397-0.397,0.397H9.233
			l0.135-0.773c0-0.008,0-0.016,0-0.019h2.218C11.801,9.707,11.983,9.886,11.983,10.101z"/>
	</g>
	<g id="EleveGroup" display="none">
		<path id="attackGroup" display="inline" fill="#FFFFFF" d="M10.981,7.779l3.056-1.965l-2.956-0.312l0.806-3.429L9.793,4.242
			l-0.59-2.454L8.329,4.073L5.931,0.987l0.752,3.869L4.552,4.381c0,0,0.648,1.238,1.009,1.987l-3.417-0.24l3.095,1.808L4.352,8.843
			l1.436-0.258l-1.013,3.601l3.023-2.532l0.79,1.96l0.806-1.56l2.606,2.69l-1.31-3.608l2.867,0.292L10.981,7.779z"/>
	</g>
	<g id="ExtremeGroup" display="none">
		<path id="rebelionGroup" display="inline" fill="#FFFFFF" d="M10.216,3.215c0,1.246-1.016,2.254-2.253,2.254
			c-1.248,0-2.26-1.008-2.26-2.254c0-1.25,1.011-2.254,2.26-2.254C9.204,0.961,10.216,1.965,10.216,3.215z M4.199,12.773h1.372
			h0.075L5.7,12.669l0.498-0.491l-0.469-0.1l-0.724-0.155L4.199,12.773z M13.627,3.631l-0.481,0.486l0.029,0.033l-0.395,0.388
			c0.056,0.052,0.105,0.102,0.15,0.158l0.395-0.396l0.079,0.073l0.477-0.486L13.627,3.631z M10.514,6.131l-0.21,0.211l0.024,0.056
			L10.38,6.51L7.093,9.803l0.349,0.083c0.327,0.067,0.605,0.256,0.791,0.543c0.028,0.037,0.033,0.086,0.051,0.126l0.007-0.011
			l0.243,0.158l0.084-0.019l0.955,0.695l0.648-0.881L8.791,9.383l0.037-0.095h0.244l1.398-1.646l0.156-1.47L10.514,6.131z
			 M12.044,4.675c-0.431-0.044-0.843,0.275-0.889,0.715l-0.061,0.481l0,0l-0.03,0.346l-0.159,1.471l-0.015,0.14l-0.084,0.102
			L9.551,9.409l0.941,0.733l0.347,0.269l-0.204,0.271l0.054,0.095c0.127,0.281,0.413,0.453,0.721,0.453c0.046,0,0.09,0,0.136-0.011
			c0.354-0.056,0.625-0.346,0.662-0.706l0.543-4.958C12.802,5.119,12.48,4.723,12.044,4.675z M10.402,11.012l-0.46,0.631
			L9.68,12.003l-0.366-0.266L8.52,11.165l-0.067,0.017l-0.032-0.017c0,0.07,0,0.132-0.019,0.199
			c-0.011,0.064-0.033,0.129-0.062,0.19c-0.045,0.115-0.115,0.209-0.187,0.312l0.058,0.129c0.052,0.126,0.13,0.29,0.218,0.435
			l0.227,0.344h1.691L10.402,11.012z M7.181,12.352c-0.016,0-0.038-0.003-0.062-0.003c0,0.029-0.007,0.051-0.007,0.051l0.192,0.373
			H7.76l0.297-0.104c-0.103-0.155-0.184-0.325-0.26-0.497C7.609,12.279,7.41,12.352,7.181,12.352z M7.844,10.649
			c-0.03-0.048-0.085-0.088-0.129-0.126C7.69,10.494,7.67,10.459,7.631,10.44c-0.077-0.057-0.181-0.104-0.283-0.129l-0.346-0.07
			l-0.806-0.169l0,0L5.482,9.917L5.207,9.863l-0.45-0.1L4.726,9.758L4.803,9.68l0.31-0.309l0.327-0.325
			c0.026,0.23,0.038,0.402,0.038,0.408l0.107,0.021l0.994,0.215l0.205-0.207L9.859,6.4L9.785,6.224l0.023-0.019
			c-0.443-0.13-0.967-0.217-1.63-0.217H7.963H7.748c-0.466,0-0.934,0.038-1.39,0.137c-0.794,0.18-1.284,0.954-1.816,1.483
			C3.983,8.155,3.443,8.724,2.906,9.288C2.783,9.417,2.665,9.544,2.539,9.664c-0.205,0.212-0.283,0.521-0.205,0.803
			c0.085,0.279,0.315,0.489,0.609,0.559l1.063,0.229l0.451,0.094l2.558,0.545c0.057,0.011,0.111,0.02,0.165,0.02
			c0.373,0,0.711-0.256,0.791-0.64c0.03-0.15,0.008-0.281-0.039-0.419l-0.045-0.104C7.87,10.719,7.854,10.69,7.844,10.649z
			 M6.715,12.623l-0.079-0.147l0.044-0.161l0.002-0.029l-0.127-0.038l-0.447,0.526h0.686L6.715,12.623z"/>
	</g>
	<path id="displacedGroup" display="none" fill="#FFFFFF" d="M8.028,2.451C8.122,3.034,7.729,3.579,7.15,3.677
		C6.568,3.779,6.013,3.38,5.922,2.804C5.83,2.218,6.219,1.663,6.805,1.573C7.385,1.472,7.932,1.87,8.028,2.451z M7.697,6.689
		l0.946,1.509C8.78,8.413,9.055,8.48,9.275,8.351C9.491,8.219,9.561,7.954,9.44,7.725l-0.236-0.43
		C8.992,6.923,8.791,6.549,8.58,6.179L8.16,5.411c-0.048-0.09-0.092-0.184-0.143-0.292C7.758,4.576,7.354,3.735,6.463,3.808
		C5.703,3.876,4.93,4.242,4.174,4.885C3.277,5.593,2.646,6.616,2.626,6.667C2.596,6.71,2.563,6.756,2.544,6.796c0,0,0,0-0.007,0.003
		l0,0C2.455,6.96,2.412,7.105,2.514,7.293c0.085,0.14,0.243,0.231,0.408,0.231c0.202,0,0.306-0.097,0.404-0.239l0,0l0,0
		c0.03-0.043,0.059-0.088,0.085-0.131c0.004-0.008,0.533-0.861,1.353-1.55c0.248-0.197,0.488-0.332,0.713-0.402L5.295,7.392
		C5.277,7.607,5.207,7.986,5.149,8.198L4.741,9.632c-0.05,0.175-0.207,0.48-0.324,0.623l-1.105,1.367
		c-0.143,0.18-0.301,0.373-0.174,0.649c0.081,0.164,0.243,0.261,0.425,0.261c0.21,0,0.327-0.126,0.475-0.282l1.118-1.203
		c0.201-0.215,0.458-0.593,0.59-0.851L6.3,9.065l2.051,3.448c0.102,0.169,0.232,0.384,0.511,0.384l0,0
		c0.156,0,0.305-0.086,0.393-0.215c0.149-0.229,0.046-0.436-0.04-0.623L7.546,8.453C7.482,8.313,7.45,8.023,7.473,7.87L7.697,6.689z
		 M9.432,10.44h2.482v0.738l2.477-1.429l-2.477-1.426v0.741H9.432V10.44z"/>
</g>
</svg>
