<?xml version="1.0" encoding="utf-8"?>
<!-- Generator: Adobe Illustrator 16.0.0, SVG Export Plug-In . SVG Version: 6.00 Build 0)  -->
<!DOCTYPE svg PUBLIC "-//W3C//DTD SVG 1.1//EN" "http://www.w3.org/Graphics/SVG/1.1/DTD/svg11.dtd">
<svg version="1.1" id="Layer_1" xmlns="http://www.w3.org/2000/svg" xmlns:xlink="http://www.w3.org/1999/xlink" x="0px" y="0px"
	 width="33.35px" height="40px" viewBox="0 0 33.35 40" enable-background="new 0 0 33.35 40" xml:space="preserve">
<g id="PinColor">
	<path id="PinOmbre" opacity="0.3" enable-background="new    " d="M28.841,30.13c0,1.771-3.887,3.254-9.113,3.646
		c-0.883,0.066-2.748,4.217-2.748,4.217s-1.931-4.152-2.842-4.223c-5.176-0.402-9.02-1.881-9.02-3.642
		c0-2.072,5.312-3.752,11.86-3.752C23.531,26.378,28.841,28.057,28.841,30.13z"/>
	<path id="vert" display="none" fill="#2ABF00" stroke="#1D7500" stroke-width="0.2" stroke-miterlimit="10" d="M28.841,12.723
		c0,5.419-3.887,9.964-9.113,11.164c-0.883,0.198-2.748,12.905-2.748,12.905S15.05,24.085,14.138,23.86
		c-5.176-1.229-9.02-5.752-9.02-11.142c0-6.336,5.312-11.471,11.86-11.471C23.531,1.247,28.841,6.387,28.841,12.723z"/>
	<path id="orange" display="none" fill="#FF8500" stroke="#7F4500" stroke-width="0.2" stroke-miterlimit="10" d="M28.841,12.723
		c0,5.419-3.887,9.964-9.113,11.164c-0.883,0.198-2.748,12.905-2.748,12.905S15.05,24.085,14.138,23.86
		c-5.176-1.229-9.02-5.752-9.02-11.142c0-6.336,5.312-11.471,11.86-11.471C23.531,1.247,28.841,6.387,28.841,12.723z"/>
	<path id="gris" fill="#A5A5A5" stroke="#595959" stroke-width="0.2" stroke-miterlimit="10" d="M28.841,12.723
		c0,5.419-3.887,9.964-9.113,11.164c-0.883,0.198-2.748,12.905-2.748,12.905S15.05,24.085,14.138,23.86
		c-5.176-1.229-9.02-5.752-9.02-11.142c0-6.336,5.312-11.471,11.86-11.471C23.531,1.247,28.841,6.387,28.841,12.723z"/>
	<path id="bleu" display="none" fill="#0092FF" stroke="#00477C" stroke-width="0.2" stroke-miterlimit="10" d="M28.841,12.723
		c0,5.419-3.887,9.964-9.113,11.164c-0.883,0.198-2.748,12.905-2.748,12.905S15.05,24.085,14.138,23.86
		c-5.176-1.229-9.02-5.752-9.02-11.142c0-6.336,5.312-11.471,11.86-11.471C23.531,1.247,28.841,6.387,28.841,12.723z"/>
</g>
<g id="Icons">
	<g id="Minimal">
		<path id="Election" display="none" fill="#565656" d="M31.551-5.08l-5.153-2.209c-0.154-0.065-0.33-0.021-0.431,0.11l-1.479,1.84
			c-0.063,0.083-0.088,0.199-0.068,0.308c0.024,0.104,0.09,0.188,0.183,0.238l-4.62,1.732c-0.394,0.146-0.722,0.419-0.935,0.776
			l-1.528,2.55c-0.322,0.541-0.349,1.202-0.068,1.767l0.112,0.216h-1.613c-0.204,0-0.369,0.164-0.369,0.368v6.992h-1.105
			c-0.203,0-0.365,0.164-0.365,0.365c0,0.204,0.16,0.368,0.365,0.368h12.518c0.2,0,0.359-0.164,0.359-0.368
			c0-0.202-0.159-0.365-0.359-0.365h-1.107v-3.76c0-0.125-0.066-0.245-0.171-0.311c-0.108-0.068-0.24-0.078-0.355-0.023
			c-0.405,0.19-0.701,0.287-0.843,0.329c-0.032,0.007-0.062,0.021-0.088,0.04l-2.396,1.434c-0.381,0.23-0.816,0.352-1.259,0.352
			c-0.814,0-1.577-0.406-2.042-1.094c-0.369-0.552-0.496-1.219-0.359-1.868c0.14-0.648,0.525-1.204,1.079-1.561l0.347-0.222
			c0.257-0.155,0.484-0.297,0.688-0.421c0.142-0.089,0.207-0.26,0.158-0.42c-0.09-0.295-0.244-0.558-0.386-0.76
			c0.563-0.245,1.325-0.684,1.704-1.128c0,0,0.005,0.002,0.007,0.002c0.081,0.049,0.174,0.102,0.281,0.153
			c0.008,0.002,0.01,0.005,0.02,0.007l0,0c0.274,0.133,0.624,0.266,1.02,0.345c-0.428,0.531-0.863,1.191-1.021,1.632
			c-0.304,0.134-0.937,0.494-2.418,1.436c-0.392,0.25-0.658,0.636-0.751,1.09c-0.099,0.453-0.013,0.917,0.25,1.306
			c0.329,0.494,0.867,0.767,1.428,0.767c0.3,0,0.605-0.079,0.88-0.245l2.53-1.519c0.391-0.096,2.361-0.685,3.851-3.096
			c1.168-1.889,1.823-3.409,2.095-4.098L30.177-2c0.154,0.076,0.323,0.115,0.494,0.115c0.281,0,0.563-0.112,0.768-0.311
			c0.22-0.207,0.338-0.49,0.338-0.793v-1.752C31.769-4.89,31.686-5.023,31.551-5.08z"/>
	</g>
	<g id="Faible" display="none">
		<path id="Famine" display="inline" fill="#F9F9F9" d="M28.237,8.47l-2.925,0.554l-4.774-2.598l1.733-2.166l3.907,1.297
			L28.237,8.47z M32.732,3.393v0.324l-3.08,0.977l-3.039,0.432l-3.906-1.3l-0.92-0.433h0.526c-0.127-1.162-0.294-2.042-0.377-3.195
			h-0.005c-0.002-0.035-0.041-0.806-0.051-1.135c-0.062-0.347-0.226-0.486-0.768-0.859c-0.299-0.192-0.519-0.26-0.644-0.258
			c-0.2,0-0.376,0.215-0.418,0.865c0.868,0.148,0.929,1.111,0.929,1.111c0.078,0.683-0.259,1.683-1.031,1.941
			c-1.431,0.478-1.287-2.276-0.479-2.938c0.024-0.793,0.245-1.522,1-1.551c0.299,0.002,0.604,0.125,0.958,0.349
			c0.169,0.101,0.304,0.204,0.426,0.31c-0.015-0.262-0.031-0.529-0.031-0.804c-0.003-0.579,0.088-1.209,0.601-1.656
			c0.265-0.24,0.561-0.366,0.856-0.363c0.765,0.037,1.236,0.696,1.513,1.37c0.323-0.141,0.724-0.209,1.184-0.05
			c1.176,0.407,1.809,2.457,1.317,3.172c-1.158,1.665-4.078-1.434-3.305-2.516c0,0,0.112-0.148,0.313-0.311
			c-0.228-0.597-0.682-1.13-1.021-1.093c-0.13,0.002-0.281,0.048-0.475,0.218c-0.323,0.285-0.411,0.692-0.411,1.227
			c0,0.376,0.047,0.793,0.047,1.212c0,0.218,0.015,0.41,0.021,0.623c0.054,0.373,0.057,0.659,0.054,1.052
			c0.079,1.148,0.546,2.091,0.665,3.276h9.552V3.393z M24.513-2.894l2.21,2.408c-0.394-1.708-1.795-2.66-1.795-2.66L24.513-2.894z
			 M19.931-0.827l-0.396,0.162c0,0-0.196,1.347,0,2.05L19.931-0.827z M17.95,7.294l1.756-1.056l1.831-2.266l-0.569-0.58h-4.047
			l-0.803,1.602L17.95,7.294z M19.999,6.932l-3.112,2.119l0.415,0.513h7.164l-0.024-0.105L19.999,6.932z M13.594,3.393v2.443
			l1.995-1.068l0.604-1.375H13.594z M27.19,5.648l1.929,2.801l3.613,0.848V6.094l-2.599-0.839L27.19,5.648z M32.732,5.394V4.263
			l-2.026,0.548L32.732,5.394z M15.639,5.55l-2.045,0.974v3.04h1.495l2.229-1.823L15.639,5.55z M26.346,9.564h4.675l-2.237-0.541
			L26.346,9.564z"/>
		<path id="Cyclone" display="inline" fill="#FFFFFF" d="M23.237-3.181c-0.098-0.006-0.195-0.017-0.293-0.017
			c-0.878,0-1.702,0.228-2.421,0.625c1.281-4.366,4.479-4.747,4.479-4.747s-7.063,0.589-7.063,8.831c0.005,0,0.01,0,0.015,0
			c-0.005,0.099-0.015,0.195-0.015,0.297c0,0.872,0.228,1.697,0.624,2.418c-4.366-1.284-4.746-4.478-4.746-4.478
			s0.588,7.066,8.834,7.066c0-0.007,0-0.01,0-0.018c0.096,0.006,0.193,0.018,0.294,0.018c0.877,0,1.698-0.23,2.417-0.626
			c-1.278,4.366-4.48,4.748-4.48,4.748s7.067-0.59,7.067-8.832c-0.005,0-0.01,0-0.015,0c0.005-0.099,0.015-0.194,0.015-0.293
			c0-0.877-0.229-1.702-0.626-2.418c4.364,1.279,4.746,4.479,4.746,4.479s-0.587-7.066-8.831-7.066
			C23.237-3.19,23.237-3.187,23.237-3.181z"/>
		<path id="eruption" display="inline" fill="#FFFFFF" d="M24.334-1.598c1.054,0.359,2.447,0.783,2.743-0.914
			c0.237-1.32,2-0.831,2.748-0.914c1.366-0.157,0.335-2.711-1.374-2.748c-1.729-0.039-2.516,0.72-3.2,2.289
			c-0.333,0.755-0.611,1.321-1.831,0.916c-1.225-0.408-2.117,0.596-1.377,1.831c0.658,1.093-0.01,2.287-0.01,2.287h1.844
			c0,0-0.015-0.678-0.457-1.373C22.902-1.033,23.256-1.969,24.334-1.598z M14.578,9.79c4.736-3.45,5.92-8.223,5.92-8.223h4.868
			c0,0,1.183,4.771,5.918,8.223H14.578z"/>
		<path id="tsunami" display="inline" fill="#FFFFFF" d="M31.818,7.623c-14.54,0.823-10.476-10.297-6.706-9.336
			c-0.389,0.236-0.638,1.055-0.396,1.605c0.264,0.59,1.112,0.927,1.601,0.805c1.171-0.303,1.226-1.946,0.802-2.809
			c-0.438-0.898-1.594-2.005-3.608-2.005c-4.87,0-8.191,2.486-9.441,6.76v6.285h17.752V7.624h-0.003V7.623z"/>
		<path id="epidemie" display="inline" fill="#FFFFFF" d="M30.527,2.545c0-4.157-3.256-7.538-7.358-7.75
			c1.812,0.173,3.222,1.487,3.222,3.088c0,0.549-0.183,1.055-0.474,1.503c-0.812-0.807-1.922-1.303-3.154-1.303
			c-1.229,0-2.342,0.496-3.146,1.3c-0.291-0.448-0.472-0.954-0.472-1.504c0-1.597,1.408-2.914,3.218-3.087
			c-4.101,0.211-7.355,3.595-7.355,7.752c0,1.253,0.303,2.435,0.829,3.485c-0.719-1.641-0.283-3.487,1.085-4.277
			c0.477-0.274,1.012-0.373,1.541-0.343c-0.101,0.365-0.169,0.746-0.169,1.145c0,2.064,1.412,3.787,3.313,4.301
			c-0.024,0.044-0.056,0.086-0.08,0.129c0,0.005,0,0.005,0,0.012c-0.064,0.141-0.145,0.255-0.24,0.354
			c-0.203,0.268-0.442,0.506-0.743,0.68c-1.377,0.793-3.205,0.244-4.26-1.219c1.39,2.108,3.773,3.503,6.482,3.503
			c2.687,0,5.049-1.366,6.446-3.44c-1.065,1.416-2.857,1.937-4.212,1.161c-0.479-0.281-0.831-0.699-1.068-1.182
			c1.902-0.513,3.303-2.239,3.303-4.298c0-0.398-0.063-0.779-0.164-1.146c0.538-0.035,1.068,0.063,1.551,0.34
			c1.33,0.767,1.779,2.527,1.144,4.134C30.25,4.87,30.527,3.742,30.527,2.545z M23.591,5.534c-0.032-0.647,0.103-1.326,0.426-1.965
			l-0.519-0.298c-0.184,0.191-0.442,0.309-0.733,0.309c-0.286,0-0.548-0.118-0.733-0.309l-0.506,0.29
			c0.325,0.646,0.459,1.33,0.425,1.976c-1.315-0.359-2.288-1.556-2.288-2.98c0-0.274,0.044-0.531,0.11-0.781
			c0.574,0.289,1.095,0.741,1.493,1.339l0.519-0.303c-0.022-0.088-0.057-0.171-0.057-0.268c0-0.479,0.333-0.867,0.777-0.984V0.97
			c-0.719-0.046-1.371-0.27-1.914-0.625c0.561-0.553,1.328-0.893,2.171-0.893c0.849,0,1.616,0.342,2.176,0.895
			c-0.54,0.354-1.192,0.574-1.914,0.622v0.592c0.445,0.117,0.775,0.505,0.775,0.984c0,0.097-0.027,0.179-0.049,0.268l0.525,0.307
			c0.394-0.597,0.917-1.048,1.486-1.337c0.062,0.247,0.107,0.504,0.107,0.772C25.867,3.978,24.902,5.17,23.591,5.534z"/>
		<path id="earthquake" display="inline" fill="#FFFFFF" d="M28.116,2.356c-0.249,0-0.477,0.138-0.597,0.359l-0.968,1.826
			l-1.195-3.5c-0.094-0.266-0.335-0.443-0.614-0.457c-0.286-0.007-0.538,0.155-0.647,0.413l-0.819,1.947l-1.291-7.751
			c-0.061-0.324-0.366-0.571-0.68-0.553c-0.33,0.008-0.606,0.227-0.65,0.556l-1.144,8.99l-0.928-4.825
			c-0.054-0.284-0.286-0.502-0.574-0.542c-0.283-0.039-0.569,0.116-0.694,0.377l-1.518,3.16h-2.354v1.347h2.779
			c0.26,0,0.496-0.15,0.61-0.381l0.813-1.697l1.315,6.846c0.063,0.318,0.34,0.547,0.663,0.547c0.005,0,0.012,0,0.015,0
			c0.33-0.01,0.606-0.257,0.652-0.584l1.125-8.838l0.941,5.816c0.056,0.295,0.291,0.517,0.592,0.55
			c0.298,0.027,0.579-0.134,0.696-0.41l1.013-2.403l1.124,3.297c0.086,0.255,0.315,0.434,0.582,0.457
			c0.267,0.014,0.525-0.119,0.652-0.356l1.507-2.847h2.892V2.354h-3.298V2.356z"/>
	</g>
	<g id="Modéré">
	</g>
	<g id="Important" display="none">
		<path id="enlevement" display="inline" fill="#FFFFFF" d="M29.239-6.732c-0.481,0-0.873,0.394-0.873,0.876v3.565
			c0.211,0.048,0.413,0.135,0.575,0.295c0.462,0.455,0.474,1.2,0.021,1.667l-1.66,1.704l-0.229-0.221l1.665-1.7
			c0.335-0.345,0.325-0.891-0.015-1.23c-0.11-0.101-0.235-0.171-0.367-0.209c-0.148-0.04-0.293-0.042-0.439-0.012
			c-0.162,0.043-0.304,0.123-0.418,0.244c-0.983,1.009-1.974,2.019-2.956,3.029c-0.247,0.252-0.699,0.833-0.685,1.41
			c0.01,0.542-0.008,1.102,0.002,1.647c-0.129-0.104-0.286-0.18-0.459-0.211c-0.509-0.083-0.966,0.219-1.142,0.672h-0.257
			c0-0.124,0-0.248,0.002-0.372c0.013-0.571-0.01-1.161,0.005-1.732c0.013-0.579-0.439-1.159-0.687-1.412
			c-0.983-1.01-1.968-2.021-2.957-3.032c-0.112-0.119-0.254-0.201-0.418-0.241c-0.144-0.03-0.293-0.028-0.438,0.013
			c-0.134,0.037-0.262,0.109-0.366,0.21c-0.338,0.334-0.346,0.88-0.015,1.229l1.663,1.697l-0.229,0.221L16.904-0.33
			c-0.454-0.466-0.441-1.211,0.022-1.665C17.087-2.151,17.29-2.243,17.5-2.29v-3.565c0-0.481-0.391-0.876-0.871-0.876
			c-0.487,0-0.876,0.394-0.876,0.876v6.173c0,0.201,0.081,0.387,0.202,0.537l2.981,3.937h-0.267c-0.577,0-1.054,0.472-1.054,1.057
			c0,0.387,0.22,0.709,0.528,0.893c-0.309,0.184-0.528,0.51-0.528,0.891c0,0.585,0.475,1.058,1.054,1.058h0.322v0.586h2.93
			c0.151,0.153,0.33,0.263,0.548,0.301c0.059,0.01,0.115,0.015,0.176,0.015c0.514,0,0.951-0.366,1.037-0.875l0.005-0.026h0.186
			c0.002,0.194,0,0.386,0.021,0.587h2.979V8.69h0.325c0.576,0,1.054-0.471,1.054-1.058c0-0.382-0.221-0.707-0.531-0.891
			c0.311-0.183,0.531-0.507,0.531-0.895c0-0.583-0.475-1.055-1.054-1.055h-0.265l2.98-3.939c0.122-0.15,0.2-0.335,0.2-0.537v-6.17
			C30.114-6.339,29.723-6.732,29.239-6.732z M18.144,5.845c0-0.29,0.237-0.525,0.525-0.525h3.457l-0.183,1.054h-3.274
			C18.383,6.371,18.144,6.138,18.144,5.845z M18.144,7.631c0-0.288,0.237-0.527,0.525-0.527h3.147L21.635,8.16h-2.966
			C18.383,8.16,18.144,7.927,18.144,7.631z M23.158,8.624c-0.047,0.29-0.345,0.479-0.606,0.433c-0.14-0.025-0.259-0.102-0.34-0.214
			C22.126,8.727,22.1,8.588,22.121,8.45l0.582-3.376c0.047-0.256,0.267-0.438,0.528-0.438c0.027,0,0.057,0,0.083,0.007
			c0.286,0.048,0.479,0.321,0.428,0.608L23.158,8.624z M27.72,7.631c0,0.292-0.236,0.529-0.525,0.529h-3.418l0.182-1.056h3.239
			C27.484,7.107,27.72,7.343,27.72,7.631z M27.72,5.845c0,0.291-0.236,0.526-0.525,0.526h-3.109l0.178-1.032
			c0.003-0.007,0-0.015,0-0.023h2.93C27.484,5.32,27.72,5.558,27.72,5.845z"/>
	</g>
	<g id="Elevé">
	</g>
	<g id="Extreme" display="none">
		<path id="rebelion" display="inline" fill="#FFFFFF" d="M25.697-2.932c0,1.624-1.315,2.937-2.937,2.937
			c-1.623,0-2.938-1.316-2.938-2.937c0-1.625,1.315-2.938,2.938-2.938C24.381-5.87,25.697-4.557,25.697-2.932z M17.855,9.526h1.795
			h0.096l0.066-0.137l0.652-0.639l-0.602-0.129l-0.954-0.205L17.855,9.526z M30.146-2.388l-0.634,0.63l0.044,0.042l-0.508,0.515
			c0.065,0.063,0.134,0.126,0.188,0.199l0.514-0.515l0.105,0.097l0.623-0.633L30.146-2.388z M26.09,0.871l-0.271,0.268l0.029,0.078
			l0.063,0.144l-4.283,4.296l0.459,0.099c0.423,0.089,0.787,0.342,1.024,0.707c0.032,0.053,0.042,0.116,0.068,0.17l0.013-0.015
			l0.317,0.209l0.113-0.023l1.246,0.906L25.71,6.56l-1.86-1.452l0.042-0.121h0.308l1.826-2.142l0.203-1.92L26.09,0.871z
			 M28.077-1.028c-0.553-0.061-1.093,0.354-1.159,0.929L26.85,0.527l0,0l-0.044,0.452l-0.203,1.924l-0.021,0.179l-0.115,0.137
			l-1.633,1.917L26.063,6.1l0.442,0.347l-0.257,0.352l0.066,0.13c0.171,0.368,0.545,0.599,0.948,0.599
			c0.059,0,0.115-0.002,0.176-0.015c0.46-0.079,0.817-0.455,0.866-0.918l0.699-6.462C29.07-0.449,28.652-0.969,28.077-1.028z
			 M25.941,7.225l-0.6,0.826l-0.344,0.471l-0.47-0.343l-1.034-0.747l-0.091,0.022l-0.039-0.024c0,0.089-0.002,0.174-0.021,0.263
			c-0.02,0.086-0.052,0.164-0.083,0.245c-0.066,0.153-0.149,0.284-0.25,0.408l0.071,0.164c0.073,0.164,0.174,0.38,0.293,0.564
			l0.286,0.451h2.21L25.941,7.225z M21.742,8.983c-0.024,0-0.051-0.007-0.075-0.01c-0.013,0.047-0.02,0.081-0.02,0.081l0.249,0.469
			h0.599l0.387-0.135c-0.132-0.204-0.237-0.425-0.337-0.646C22.305,8.883,22.038,8.983,21.742,8.983z M22.606,6.76
			c-0.041-0.066-0.107-0.118-0.166-0.172c-0.034-0.032-0.063-0.076-0.107-0.103c-0.107-0.078-0.235-0.133-0.369-0.165l-0.457-0.094
			l-1.044-0.224l0,0l-0.925-0.198L19.178,5.73l-0.595-0.127l-0.039-0.008l0.096-0.096l0.4-0.397l0.427-0.43
			c0.036,0.295,0.054,0.529,0.054,0.534l0.139,0.028l1.296,0.276l0.265-0.265l4.007-4.025l-0.091-0.225l0.032-0.026
			c-0.58-0.176-1.265-0.274-2.125-0.274H22.76c0,0-0.279,0-0.281,0c-0.606,0-1.218,0.042-1.814,0.174
			c-1.026,0.229-1.663,1.234-2.367,1.927c-0.724,0.713-1.428,1.456-2.133,2.188c-0.155,0.164-0.311,0.331-0.472,0.495
			c-0.271,0.271-0.369,0.67-0.262,1.042c0.105,0.368,0.411,0.646,0.787,0.729l1.388,0.298l0.589,0.124l3.331,0.711
			c0.073,0.011,0.146,0.023,0.22,0.023c0.486,0,0.919-0.339,1.024-0.831c0.041-0.194,0.01-0.376-0.049-0.551l-0.063-0.134
			C22.638,6.85,22.623,6.809,22.606,6.76z M21.137,9.325l-0.104-0.189l0.052-0.21l0.01-0.042l-0.161-0.035l-0.587,0.676h0.893
			L21.137,9.325z"/>
	</g>
	<path id="displaced" display="none" fill="#FFFFFF" d="M23.95-5.469c0.145,0.908-0.465,1.757-1.366,1.904
		c-0.902,0.15-1.761-0.462-1.907-1.363c-0.149-0.905,0.462-1.762,1.369-1.908C22.946-6.981,23.799-6.371,23.95-5.469z M23.432,1.105
		l1.467,2.343c0.208,0.331,0.639,0.436,0.974,0.241c0.34-0.202,0.454-0.628,0.269-0.97l-0.374-0.674
		c-0.325-0.574-0.643-1.155-0.966-1.732l-0.65-1.185c-0.073-0.14-0.146-0.295-0.225-0.457c-0.401-0.845-1.029-2.151-2.41-2.033
		c-1.177,0.104-2.375,0.663-3.556,1.665c-1.394,1.1-2.367,2.698-2.404,2.766c-0.049,0.068-0.092,0.143-0.125,0.209
		c-0.003,0.002-0.003,0.005-0.006,0.007l0,0c-0.132,0.245-0.197,0.471-0.033,0.758c0.13,0.226,0.369,0.364,0.626,0.364
		c0.316,0,0.476-0.15,0.631-0.37l0,0c0.002,0,0.002-0.005,0.002-0.005c0.043-0.065,0.084-0.137,0.134-0.209
		c0.007-0.014,0.827-1.327,2.091-2.406c0.392-0.308,0.761-0.517,1.11-0.632l-0.283,3.411c-0.027,0.337-0.135,0.921-0.226,1.246
		l-0.636,2.224c-0.086,0.281-0.32,0.748-0.507,0.974l-1.714,2.126c-0.218,0.269-0.462,0.575-0.26,0.998
		c0.12,0.252,0.372,0.411,0.649,0.411c0.333,0,0.511-0.19,0.734-0.434l1.736-1.873c0.311-0.335,0.716-0.914,0.914-1.324l0.86-1.753
		l3.186,5.351c0.154,0.263,0.354,0.594,0.782,0.594l0,0c0.25,0,0.477-0.128,0.606-0.331c0.232-0.354,0.078-0.676-0.054-0.966
		l-2.574-5.593c-0.101-0.22-0.156-0.666-0.112-0.908L23.432,1.105z M26.129,6.927h3.86v1.146l3.833-2.213L29.99,3.646v1.146h-3.86
		V6.927z"/>
	<path id="returned" fill="#FFFFFF" d="M17.094,3.941c0.156,0.96-0.498,1.864-1.449,2.022c-0.962,0.16-1.866-0.493-2.023-1.448
		c-0.157-0.961,0.487-1.866,1.451-2.024C16.025,2.332,16.939,2.981,17.094,3.941z M16.544,10.919l1.559,2.491
		c0.217,0.347,0.679,0.462,1.038,0.25c0.352-0.21,0.475-0.666,0.275-1.028l-0.393-0.715c-0.343-0.61-0.676-1.226-1.02-1.839
		L17.31,8.819c-0.082-0.142-0.159-0.307-0.241-0.479C16.64,7.441,15.97,6.054,14.51,6.183c-1.252,0.105-2.521,0.701-3.771,1.764
		c-1.478,1.168-2.516,2.864-2.563,2.934c-0.046,0.076-0.09,0.151-0.129,0.226c-0.003,0.003-0.006,0.003-0.006,0.006l0,0
		c-0.139,0.263-0.206,0.502-0.033,0.805c0.135,0.242,0.388,0.389,0.667,0.389c0.334,0,0.503-0.157,0.668-0.396l0,0
		c0.003-0.003,0.003-0.003,0.003-0.003c0.045-0.072,0.093-0.148,0.142-0.229c0.007-0.01,0.878-1.405,2.221-2.551
		c0.414-0.321,0.805-0.547,1.179-0.671l-0.3,3.625c-0.03,0.361-0.142,0.977-0.244,1.327l-0.67,2.358
		c-0.09,0.298-0.343,0.794-0.541,1.035l-1.82,2.255c-0.231,0.289-0.49,0.612-0.273,1.063c0.127,0.263,0.396,0.435,0.688,0.435
		c0.353,0,0.541-0.203,0.783-0.462l1.844-1.986c0.33-0.356,0.756-0.971,0.967-1.409l0.913-1.857l3.381,5.68
		c0.169,0.281,0.381,0.629,0.839,0.629l0,0c0.262,0,0.503-0.133,0.645-0.356c0.239-0.374,0.079-0.711-0.059-1.019l-2.736-5.944
		c-0.109-0.23-0.167-0.705-0.125-0.96L16.544,10.919z M27.931,12.186c0-2.48-2.018-4.495-4.495-4.495h-1.909v2.27h1.909
		c1.226,0,2.223,0.997,2.223,2.225c0,1.227-0.997,2.227-2.223,2.227H23.04v-1.22l-4.077,2.352l4.077,2.353v-1.221h0.443v-0.003
		C25.935,16.648,27.931,14.649,27.931,12.186z"/>
	<path id="Attack" display="none" fill="#FFFFFF" d="M27.006,3.005l5.198-3.33L27.18-0.859l1.364-5.839l-3.563,3.684l-0.994-4.164
		l-1.494,3.887L18.42-8.539l1.279,6.574l-3.619-0.804c0,0,1.099,2.105,1.713,3.374l-5.81-0.407l5.257,3.075l-1.509,1.552
		l2.446-0.446l-1.733,6.127l5.149-4.307l1.332,3.327L24.3,6.865l4.439,4.584l-2.22-6.138l4.87,0.494L27.006,3.005z"/>
</g>
</svg>
