<?xml version="1.0" encoding="utf-8"?>
<!-- Generator: Adobe Illustrator 16.0.0, SVG Export Plug-In . SVG Version: 6.00 Build 0)  -->
<!DOCTYPE svg PUBLIC "-//W3C//DTD SVG 1.1//EN" "http://www.w3.org/Graphics/SVG/1.1/DTD/svg11.dtd">
<svg version="1.1" id="Groupe" xmlns="http://www.w3.org/2000/svg" xmlns:xlink="http://www.w3.org/1999/xlink" x="0px" y="0px"
	 width="15.871px" height="15.65px" viewBox="0 0 15.871 15.65" enable-background="new 0 0 15.871 15.65" xml:space="preserve">
<g id="PinColor_1_">
	<path id="vert" fill="#2ABF00" stroke="#1D7500" stroke-width="0.2" stroke-miterlimit="10" d="M14.984,7.876
		c0,3.361-2.405,6.181-5.651,6.927c-0.545,0.121-2.901,0.121-3.464-0.021c-3.212-0.763-5.595-3.564-5.595-6.908
		c0-3.923,3.295-7.114,7.355-7.114C11.687,0.759,14.984,3.95,14.984,7.876z"/>
	<path id="orange" display="none" fill="#FF8500" stroke="#7F4500" stroke-width="0.2" stroke-miterlimit="10" d="M14.984,7.876
		c0,3.361-2.405,6.181-5.651,6.927c-0.545,0.121-2.901,0.121-3.464-0.021c-3.212-0.763-5.595-3.564-5.595-6.908
		c0-3.923,3.295-7.114,7.355-7.114C11.687,0.759,14.984,3.95,14.984,7.876z"/>
	<path id="gris" display="none" fill="#A5A5A5" stroke="#595959" stroke-width="0.2" stroke-miterlimit="10" d="M14.984,7.876
		c0,3.361-2.405,6.181-5.651,6.927c-0.545,0.121-2.901,0.121-3.464-0.021c-3.212-0.763-5.595-3.564-5.595-6.908
		c0-3.923,3.295-7.114,7.355-7.114C11.687,0.759,14.984,3.95,14.984,7.876z"/>
	<path id="bleu" display="none" fill="#0092FF" stroke="#00477C" stroke-width="0.2" stroke-miterlimit="10" d="M14.984,7.876
		c0,3.361-2.405,6.181-5.651,6.927c-0.545,0.121-2.901,0.121-3.464-0.021c-3.212-0.763-5.595-3.564-5.595-6.908
		c0-3.923,3.295-7.114,7.355-7.114C11.687,0.759,14.984,3.95,14.984,7.876z"/>
</g>
<g id="IconsGroup">
	<g id="MinimalGroup" display="none">
		<path id="ElectionGroup" display="inline" fill="#565656" d="M13.923,2.052l-3.657-1.564c-0.104-0.043-0.237-0.016-0.306,0.075
			L8.916,1.87C8.867,1.923,8.849,2.011,8.867,2.087c0.018,0.079,0.064,0.134,0.135,0.165L5.724,3.491
			C5.449,3.587,5.211,3.78,5.06,4.036L3.976,5.84C3.747,6.223,3.725,6.692,3.929,7.092l0.083,0.152H2.864
			c-0.146,0-0.259,0.119-0.259,0.262v4.956H1.822c-0.143,0-0.256,0.118-0.256,0.256c0,0.142,0.117,0.26,0.256,0.26h8.863
			c0.143,0,0.258-0.118,0.258-0.26c0-0.138-0.115-0.256-0.258-0.256H9.903V9.798c0-0.084-0.047-0.172-0.115-0.217
			C9.713,9.53,9.615,9.521,9.53,9.566c-0.284,0.133-0.501,0.2-0.596,0.231c-0.02,0-0.043,0.012-0.059,0.025l-1.7,1.016
			c-0.272,0.159-0.581,0.253-0.891,0.253c-0.585,0-1.113-0.291-1.443-0.78c-0.27-0.39-0.362-0.86-0.259-1.322
			c0.096-0.459,0.372-0.854,0.76-1.105l0.251-0.161c0.182-0.104,0.344-0.203,0.483-0.296c0.104-0.06,0.143-0.186,0.112-0.299
			C6.128,6.92,6.023,6.734,5.917,6.591c0.397-0.168,0.937-0.483,1.209-0.799l0,0c0.056,0.037,0.125,0.075,0.199,0.112
			c0.007,0,0.007,0,0.016,0.004l0,0c0.192,0.095,0.434,0.189,0.72,0.244c-0.303,0.38-0.61,0.845-0.728,1.155
			C7.13,7.405,6.677,7.65,5.629,8.322C5.353,8.496,5.161,8.775,5.098,9.099c-0.07,0.32-0.009,0.647,0.178,0.924
			c0.237,0.35,0.614,0.547,1.009,0.547c0.214,0,0.426-0.065,0.624-0.175l1.79-1.079c0.276-0.067,1.668-0.485,2.728-2.193
			c0.83-1.34,1.297-2.414,1.485-2.904l0.034,0.017c0.109,0.048,0.236,0.087,0.346,0.087c0.21,0,0.411-0.087,0.554-0.225
			c0.15-0.146,0.236-0.349,0.236-0.561V2.293C14.074,2.186,14.018,2.089,13.923,2.052z"/>
	</g>
	<g id="FaibleGroup" display="none">
		<path id="FamineGroup" display="inline" fill="#F9F9F9" d="M11.212,11.235l-1.981,0.378L5.998,9.845l1.176-1.46l2.64,0.877
			L11.212,11.235z M14.255,7.797v0.222l-2.084,0.657l-2.06,0.293L7.468,8.093L6.844,7.797H7.2C7.115,7.013,7,6.413,6.946,5.632l0,0
			C6.941,5.61,6.913,5.091,6.909,4.869C6.87,4.628,6.755,4.536,6.388,4.28C6.181,4.157,6.032,4.109,5.955,4.109
			C5.82,4.109,5.7,4.257,5.67,4.703C6.26,4.802,6.3,5.454,6.3,5.454c0.053,0.46-0.178,1.14-0.699,1.314
			c-0.965,0.321-0.873-1.539-0.325-1.99c0.015-0.539,0.165-1.03,0.679-1.051c0.207,0,0.413,0.087,0.648,0.238
			c0.108,0.07,0.205,0.134,0.281,0.213C6.876,3.995,6.87,3.813,6.87,3.625c0-0.395,0.06-0.813,0.408-1.118
			c0.178-0.166,0.375-0.258,0.58-0.254c0.516,0.033,0.829,0.475,1.021,0.93c0.213-0.097,0.485-0.141,0.795-0.029
			c0.797,0.269,1.231,1.663,0.899,2.141c-0.791,1.13-2.763-0.963-2.247-1.701c0,0,0.082-0.096,0.216-0.21
			C8.384,2.981,8.082,2.625,7.854,2.645c-0.09,0-0.197,0.029-0.321,0.146c-0.22,0.198-0.281,0.47-0.281,0.834
			c0,0.257,0.033,0.541,0.033,0.821c0,0.15,0.008,0.279,0.012,0.423C7.335,5.121,7.335,5.31,7.335,5.581
			c0.058,0.778,0.365,1.416,0.453,2.216H14.255L14.255,7.797z M8.684,3.541l1.503,1.631C9.918,4.016,8.972,3.373,8.972,3.373
			L8.684,3.541z M5.585,4.939L5.318,5.051c0,0-0.132,0.912,0,1.387L5.585,4.939z M4.247,10.437l1.189-0.713l1.236-1.533L6.289,7.797
			H3.55L3.006,8.89L4.247,10.437z M5.629,10.189l-2.103,1.438L3.8,11.974h4.85l-0.009-0.065L5.629,10.189z M1.299,7.797v1.651
			l1.344-0.724l0.415-0.931H1.299V7.797z M10.502,9.321l1.308,1.903l2.444,0.574V9.626l-1.762-0.566L10.502,9.321z M14.255,9.15
			V8.389l-1.374,0.363L14.255,9.15z M2.682,9.262L1.299,9.916v2.059H2.31l1.509-1.232L2.682,9.262z M9.926,11.974h3.168l-1.51-0.361
			L9.926,11.974z"/>
		<path id="CycloneGroup" display="inline" fill="#FFFFFF" d="M7.823,3.343c-0.069,0-0.135-0.009-0.201-0.009
			c-0.595,0-1.15,0.155-1.633,0.42c0.865-2.946,3.026-3.21,3.026-3.21S4.234,0.95,4.234,6.529c0.004,0,0.004,0,0.01,0
			c0,0.065-0.005,0.127-0.005,0.197c0,0.589,0.153,1.153,0.421,1.64C1.706,7.495,1.452,5.332,1.452,5.332s0.402,4.782,5.983,4.782
			c0-0.004,0-0.004,0-0.012c0.066,0.006,0.126,0.012,0.195,0.012c0.595,0,1.151-0.15,1.638-0.423c-0.875,2.956-3.04,3.21-3.04,3.21
			s4.787-0.4,4.787-5.983c-0.009,0-0.009,0-0.009,0c0-0.065,0.009-0.133,0.009-0.198c0-0.597-0.149-1.153-0.424-1.639
			c2.951,0.866,3.217,3.034,3.217,3.034S13.41,3.336,7.823,3.336C7.823,3.34,7.823,3.343,7.823,3.343z"/>
		<path id="eruptionGroup" display="inline" fill="#FFFFFF" d="M8.567,4.418c0.715,0.245,1.657,0.529,1.865-0.616
			c0.155-0.901,1.342-0.568,1.848-0.621c0.926-0.109,0.229-1.837-0.924-1.86c-1.169-0.028-1.7,0.489-2.174,1.548
			C8.969,3.379,8.777,3.763,7.949,3.491c-0.826-0.278-1.438,0.403-0.933,1.24c0.443,0.743-0.009,1.548-0.009,1.548h1.251
			c0,0-0.009-0.45-0.312-0.925C7.597,4.799,7.839,4.169,8.567,4.418z M1.96,12.129C5.171,9.79,5.973,6.562,5.973,6.562h3.292
			c0,0,0.797,3.228,4.005,5.566H1.96z"/>
		<path id="tsunamiGroup" display="inline" fill="#FFFFFF" d="M13.639,10.661c-9.854,0.561-7.094-6.97-4.547-6.322
			C8.83,4.501,8.665,5.055,8.823,5.421C9,5.829,9.581,6.052,9.915,5.967c0.786-0.202,0.821-1.308,0.541-1.9
			c-0.3-0.6-1.082-1.355-2.451-1.355c-3.289,0-5.547,1.683-6.391,4.572v4.259h12.025V10.661z"/>
		<path id="epidemieGroup" display="inline" fill="#FFFFFF" d="M12.763,7.222c0-2.817-2.205-5.104-4.979-5.245
			c1.228,0.112,2.182,1.008,2.182,2.09c0,0.371-0.126,0.713-0.323,1.018C9.088,4.539,8.337,4.205,7.5,4.205
			c-0.83,0-1.586,0.334-2.132,0.879C5.178,4.781,5.053,4.438,5.053,4.067c0-1.083,0.945-1.976,2.181-2.09
			c-2.776,0.147-4.98,2.433-4.98,5.245c0,0.842,0.209,1.646,0.567,2.356c-0.493-1.11-0.197-2.359,0.73-2.889
			c0.325-0.186,0.68-0.257,1.046-0.243C4.523,6.7,4.481,6.957,4.481,7.23c0,1.396,0.953,2.563,2.247,2.911
			c-0.026,0.028-0.051,0.055-0.066,0.091v0.005c-0.043,0.091-0.092,0.173-0.158,0.24c-0.141,0.184-0.298,0.344-0.506,0.46
			c-0.925,0.534-2.164,0.166-2.883-0.827c0.94,1.43,2.552,2.374,4.393,2.374c1.817,0,3.415-0.924,4.37-2.331
			c-0.732,0.961-1.942,1.316-2.862,0.786c-0.324-0.189-0.558-0.468-0.719-0.798c1.284-0.347,2.229-1.519,2.229-2.911
			c0-0.268-0.038-0.527-0.097-0.778c0.363-0.021,0.722,0.051,1.046,0.24c0.899,0.518,1.209,1.708,0.766,2.79
			C12.572,8.8,12.763,8.031,12.763,7.222z M8.061,9.246c-0.024-0.439,0.074-0.894,0.29-1.333l-0.346-0.2
			C7.879,7.847,7.698,7.926,7.507,7.926C7.308,7.926,7.13,7.844,7,7.715L6.662,7.909c0.222,0.437,0.312,0.897,0.287,1.339
			C6.059,9.001,5.399,8.2,5.399,7.23c0-0.186,0.033-0.358,0.078-0.524C5.866,6.9,6.221,7.208,6.487,7.611l0.356-0.206
			c-0.018-0.059-0.04-0.118-0.04-0.183c0-0.327,0.223-0.592,0.529-0.668V6.149C6.844,6.113,6.406,5.967,6.04,5.726
			C6.412,5.355,6.933,5.125,7.5,5.125c0.566,0,1.097,0.237,1.474,0.607c-0.372,0.241-0.812,0.39-1.293,0.423v0.403
			C7.976,6.638,8.203,6.9,8.203,7.227c0,0.062-0.018,0.121-0.033,0.178l0.357,0.2C8.789,7.205,9.146,6.9,9.53,6.703
			c0.041,0.169,0.081,0.339,0.081,0.519C9.605,8.2,8.95,8.994,8.061,9.246z"/>
		<path id="earthquakeGroup" display="inline" fill="#FFFFFF" d="M11.126,7.097c-0.165,0-0.323,0.093-0.401,0.249l-0.656,1.226
			L9.261,6.204c-0.064-0.178-0.23-0.3-0.419-0.308C8.645,5.892,8.478,6.004,8.409,6.181L7.854,7.49L6.977,2.242
			C6.939,2.025,6.727,1.859,6.521,1.87C6.289,1.878,6.103,2.025,6.074,2.245L5.304,8.33L4.672,5.066
			c-0.033-0.188-0.193-0.34-0.39-0.363C4.094,4.679,3.904,4.778,3.81,4.951L2.783,7.095H1.197v0.91h1.882
			c0.174,0,0.336-0.093,0.413-0.253l0.554-1.15l0.89,4.636c0.044,0.209,0.235,0.363,0.445,0.363c0.008,0,0.013,0,0.016,0
			c0.226-0.005,0.412-0.171,0.441-0.395l0.759-5.983l0.64,3.934c0.035,0.206,0.191,0.355,0.396,0.384
			c0.206,0.017,0.395-0.094,0.472-0.276l0.684-1.626L9.55,9.877c0.064,0.173,0.213,0.284,0.394,0.301
			c0.186,0.012,0.358-0.078,0.44-0.241l1.022-1.931h1.956V7.097H11.126z"/>
	</g>
	<g id="ModereGroup">
		<path id="returnedGroup" fill="#FFFFFF" d="M7.77,2.089C7.864,2.7,7.456,3.272,6.844,3.375C6.233,3.478,5.65,3.064,5.558,2.452
			C5.457,1.839,5.865,1.262,6.48,1.163C7.09,1.061,7.665,1.475,7.77,2.089z M7.418,6.531l0.993,1.59
			c0.144,0.226,0.433,0.291,0.664,0.161c0.227-0.141,0.3-0.417,0.174-0.657L9,7.171C8.78,6.782,8.567,6.389,8.351,5.999L7.904,5.196
			c-0.05-0.095-0.093-0.193-0.15-0.308C7.483,4.32,7.059,3.432,6.124,3.513C5.33,3.58,4.519,3.96,3.721,4.635
			c-0.946,0.75-1.61,1.826-1.629,1.876C2.063,6.559,2.029,6.602,2.009,6.65L2.002,6.653l0,0C1.916,6.822,1.871,6.973,1.978,7.171
			c0.089,0.147,0.255,0.249,0.428,0.249c0.212,0,0.32-0.102,0.422-0.253l0,0l0,0c0.027-0.048,0.059-0.094,0.089-0.141
			c0.006-0.008,0.562-0.901,1.414-1.627C4.6,5.189,4.854,5.047,5.088,4.967L4.897,7.275C4.878,7.501,4.805,7.898,4.744,8.121
			L4.315,9.626C4.264,9.814,4.099,10.13,3.967,10.28l-1.151,1.435c-0.15,0.189-0.316,0.392-0.183,0.683
			c0.085,0.171,0.255,0.272,0.446,0.272c0.221,0,0.343-0.133,0.499-0.296l1.173-1.263c0.211-0.225,0.48-0.623,0.61-0.894
			l0.586-1.186l2.153,3.618c0.102,0.178,0.249,0.403,0.535,0.403l0,0c0.166,0,0.319-0.091,0.418-0.229
			c0.148-0.237,0.042-0.459-0.042-0.648L7.264,8.389C7.2,8.242,7.164,7.938,7.182,7.777L7.418,6.531z M14.673,7.34
			c0-1.583-1.288-2.864-2.867-2.864h-1.217v1.443h1.221c0.777,0,1.419,0.635,1.419,1.421c0,0.775-0.63,1.42-1.419,1.42h-0.257V7.983
			L8.96,9.479l2.593,1.497v-0.77h0.284l0,0C13.403,10.181,14.673,8.91,14.673,7.34z"/>
	</g>
	<g id="ImportantGroup" display="none">
		<path id="enlevementGroup" display="inline" fill="#FFFFFF" d="M13.118,0.144c-0.388,0-0.693,0.312-0.693,0.696v2.827
			c0.172,0.036,0.329,0.103,0.465,0.234c0.364,0.359,0.369,0.957,0.014,1.319l-1.318,1.354l-0.181-0.177l1.319-1.347
			c0.257-0.276,0.253-0.708-0.018-0.971c-0.081-0.083-0.18-0.143-0.293-0.169c-0.112-0.033-0.229-0.033-0.338-0.008
			C11.94,3.927,11.83,3.995,11.746,4.09C10.961,4.892,10.18,5.695,9.398,6.5C9.197,6.698,8.842,7.149,8.849,7.614
			c0.009,0.431,0,0.871,0,1.305C8.749,8.835,8.628,8.78,8.487,8.753C8.082,8.681,7.722,8.927,7.583,9.285H7.382
			c0-0.096,0-0.197,0-0.296c0.008-0.445-0.008-0.921,0-1.373c0.015-0.459-0.347-0.919-0.539-1.113
			c-0.785-0.808-1.56-1.611-2.345-2.416C4.41,3.995,4.291,3.927,4.168,3.901C4.053,3.872,3.937,3.876,3.82,3.908
			C3.714,3.935,3.609,3.995,3.532,4.079C3.26,4.344,3.252,4.773,3.511,5.051l1.321,1.347L4.656,6.574L3.338,5.22
			C2.982,4.858,2.989,4.26,3.353,3.901c0.135-0.125,0.29-0.193,0.456-0.234V0.84c0-0.385-0.315-0.696-0.694-0.696
			c-0.389,0-0.695,0.312-0.695,0.696v4.893c0,0.162,0.066,0.308,0.158,0.427l2.366,3.116H4.735c-0.459,0-0.832,0.375-0.832,0.843
			c0,0.308,0.171,0.562,0.421,0.708c-0.247,0.149-0.421,0.406-0.421,0.702c0,0.462,0.372,0.837,0.832,0.837H4.99v0.465h2.322
			c0.122,0.12,0.264,0.211,0.434,0.242c0.054,0.017,0.092,0.02,0.142,0.02c0.413,0,0.761-0.293,0.83-0.695v-0.026h0.149
			c0,0.149,0,0.308,0.018,0.462h2.354v-0.462h0.252c0.454,0,0.835-0.375,0.835-0.834c0-0.302-0.17-0.568-0.423-0.71
			c0.253-0.149,0.423-0.4,0.423-0.708c0-0.462-0.381-0.837-0.835-0.837H11.29l2.362-3.118c0.098-0.123,0.161-0.265,0.161-0.427
			v-4.89C13.813,0.455,13.501,0.144,13.118,0.144z M4.315,10.119c0-0.23,0.191-0.414,0.42-0.414h2.744l-0.147,0.838H4.734
			C4.507,10.534,4.315,10.347,4.315,10.119z M4.315,11.537c0-0.233,0.191-0.423,0.42-0.423h2.496L7.09,11.955H4.735
			C4.507,11.955,4.315,11.77,4.315,11.537z M8.3,12.323c-0.037,0.229-0.279,0.375-0.481,0.344c-0.113-0.017-0.207-0.079-0.271-0.171
			c-0.064-0.091-0.083-0.201-0.067-0.316l0.459-2.678c0.037-0.2,0.211-0.347,0.417-0.347c0.025,0,0.049,0,0.068,0.003
			c0.232,0.048,0.384,0.257,0.34,0.487L8.3,12.323z M11.917,11.537c0,0.233-0.182,0.418-0.416,0.418H8.784l0.144-0.841H11.5
			C11.727,11.117,11.917,11.308,11.917,11.537z M11.917,10.119c0,0.229-0.182,0.417-0.416,0.417h-2.47l0.141-0.812
			c0-0.009,0-0.017,0-0.02H11.5C11.727,9.705,11.917,9.893,11.917,10.119z"/>
	</g>
	<g id="EleveGroup" display="none">
		<path id="attackGroup" display="inline" fill="#FFFFFF" d="M10.866,7.681l3.208-2.063l-3.104-0.327l0.847-3.599L9.619,3.969
			L9,1.392L8.082,3.791l-2.517-3.24l0.789,4.062L4.118,4.114c0,0,0.68,1.299,1.059,2.085L1.589,5.947l3.249,1.897L3.907,8.797
			l1.507-0.27L4.35,12.306l3.173-2.658l0.828,2.059l0.846-1.638l2.737,2.823l-1.376-3.788l3.011,0.308L10.866,7.681z"/>
	</g>
	<g id="ExtremeGroup" display="none">
		<path id="rebelionGroup" display="inline" fill="#FFFFFF" d="M10.062,2.89c0,1.308-1.065,2.366-2.364,2.366
			c-1.31,0-2.373-1.059-2.373-2.366c0-1.312,1.061-2.366,2.373-2.366C9,0.524,10.062,1.578,10.062,2.89z M3.747,12.924h1.44h0.079
			l0.056-0.11l0.523-0.515l-0.493-0.105l-0.76-0.163L3.747,12.924z M13.643,3.327l-0.505,0.51l0.029,0.035L12.753,4.28
			c0.06,0.055,0.112,0.107,0.158,0.166l0.414-0.416l0.084,0.076l0.5-0.51L13.643,3.327z M10.375,5.951l-0.219,0.221l0.024,0.059
			l0.055,0.117l-3.45,3.458l0.366,0.087c0.343,0.07,0.635,0.268,0.83,0.57c0.029,0.039,0.035,0.089,0.053,0.132l0.008-0.012
			l0.255,0.166l0.088-0.019l1.003,0.73l0.682-0.926L8.567,9.364l0.038-0.099h0.256l1.468-1.728l0.164-1.542L10.375,5.951z
			 M11.982,4.422c-0.452-0.046-0.886,0.289-0.934,0.751l-0.063,0.504l0,0l-0.032,0.364l-0.166,1.543l-0.016,0.147l-0.089,0.107
			L9.365,9.392l0.988,0.769l0.363,0.283l-0.214,0.284l0.056,0.099c0.135,0.296,0.435,0.477,0.758,0.477c0.047,0,0.094,0,0.142-0.012
			c0.372-0.059,0.656-0.363,0.695-0.741l0.57-5.204C12.777,4.888,12.438,4.473,11.982,4.422z M10.256,11.075l-0.481,0.662
			L9.5,12.114l-0.386-0.278l-0.832-0.601l-0.071,0.018l-0.033-0.018c0,0.073,0,0.138-0.021,0.209
			c-0.012,0.067-0.035,0.136-0.065,0.2c-0.047,0.121-0.121,0.22-0.195,0.327l0.06,0.135c0.055,0.133,0.137,0.304,0.229,0.457
			l0.238,0.36h1.776L10.256,11.075z M6.876,12.481c-0.016,0-0.04-0.003-0.064-0.003c0,0.03-0.008,0.054-0.008,0.054l0.202,0.392
			h0.478l0.312-0.11c-0.107-0.163-0.193-0.341-0.272-0.521C7.326,12.405,7.116,12.481,6.876,12.481z M7.572,10.694
			c-0.032-0.051-0.089-0.093-0.136-0.132c-0.025-0.031-0.045-0.067-0.087-0.089c-0.081-0.058-0.189-0.108-0.298-0.135l-0.363-0.072
			l-0.846-0.178l0,0L5.093,9.925L4.805,9.869L4.333,9.763L4.299,9.759L4.38,9.677l0.325-0.324l0.342-0.341
			c0.028,0.242,0.041,0.423,0.041,0.428l0.113,0.023l1.043,0.226L6.459,9.47l3.228-3.237L9.611,6.049l0.023-0.02
			C9.169,5.892,8.62,5.801,7.923,5.801H7.698H7.472c-0.49,0-0.98,0.04-1.459,0.144C5.178,6.133,4.665,6.946,4.106,7.501
			C3.52,8.076,2.953,8.674,2.389,9.265C2.26,9.4,2.136,9.533,2.003,9.66c-0.215,0.222-0.297,0.547-0.215,0.843
			c0.089,0.293,0.331,0.513,0.639,0.586l1.116,0.24l0.474,0.099l2.685,0.571c0.059,0.012,0.117,0.021,0.173,0.021
			c0.391,0,0.746-0.269,0.829-0.671c0.032-0.158,0.009-0.296-0.04-0.44l-0.048-0.109C7.6,10.767,7.583,10.736,7.572,10.694z
			 M6.388,12.765l-0.082-0.154l0.045-0.17l0.002-0.031L6.22,12.371l-0.469,0.553h0.72L6.388,12.765z"/>
	</g>
	<path id="displacedGroup" display="none" fill="#FFFFFF" d="M7.765,2.089C7.864,2.7,7.451,3.272,6.844,3.375
		C6.233,3.482,5.65,3.064,5.555,2.459C5.458,1.844,5.866,1.261,6.481,1.167C7.09,1.061,7.665,1.479,7.765,2.089z M7.418,6.537
		l0.993,1.584c0.144,0.226,0.433,0.296,0.664,0.161c0.227-0.139,0.3-0.417,0.174-0.657L9,7.174C8.777,6.782,8.567,6.389,8.345,6.002
		L7.904,5.196c-0.05-0.095-0.096-0.193-0.15-0.308C7.483,4.32,7.059,3.436,6.124,3.513c-0.798,0.07-1.609,0.455-2.402,1.13
		C2.779,5.386,2.116,6.461,2.096,6.514C2.064,6.559,2.029,6.608,2.009,6.65c0,0,0,0-0.007,0.003l0,0
		C1.916,6.822,1.871,6.973,1.978,7.171c0.089,0.147,0.255,0.243,0.428,0.243c0.212,0,0.32-0.101,0.424-0.251l0,0l0,0
		C2.862,7.117,2.892,7.07,2.919,7.025c0.004-0.008,0.559-0.904,1.42-1.627C4.6,5.19,4.852,5.05,5.088,4.975l-0.191,2.3
		C4.878,7.501,4.805,7.898,4.744,8.121L4.315,9.626C4.264,9.809,4.099,10.13,3.976,10.28l-1.16,1.435
		c-0.15,0.189-0.316,0.392-0.183,0.683c0.085,0.171,0.255,0.272,0.446,0.272c0.221,0,0.343-0.133,0.499-0.296l1.173-1.263
		c0.211-0.225,0.48-0.623,0.62-0.894l0.581-1.186l2.154,3.618c0.106,0.178,0.244,0.403,0.536,0.403l0,0
		c0.165,0,0.319-0.091,0.412-0.226c0.156-0.24,0.049-0.457-0.042-0.654L7.259,8.389c-0.067-0.147-0.1-0.452-0.077-0.612L7.418,6.537
		z M9.24,10.473h2.605v0.776l2.6-1.5l-2.6-1.496v0.778H9.24V10.473z"/>
</g>
</svg>
