<?xml version="1.0" encoding="utf-8"?>
<!-- Generator: Adobe Illustrator 16.0.0, SVG Export Plug-In . SVG Version: 6.00 Build 0)  -->
<!DOCTYPE svg PUBLIC "-//W3C//DTD SVG 1.1//EN" "http://www.w3.org/Graphics/SVG/1.1/DTD/svg11.dtd">
<svg version="1.1" id="Layer_1" xmlns="http://www.w3.org/2000/svg" xmlns:xlink="http://www.w3.org/1999/xlink" x="0px" y="0px"
	 width="33.35px" height="40px" viewBox="0 0 33.35 40" enable-background="new 0 0 33.35 40" xml:space="preserve">
<g id="PinColor">
	<path id="PinOmbre" opacity="0.3" enable-background="new    " d="M29.402,30.54c0,1.771-3.885,3.254-9.113,3.646
		c-0.881,0.066-2.746,4.217-2.746,4.217s-1.931-4.152-2.842-4.223c-5.176-0.402-9.02-1.881-9.02-3.642
		c0-2.072,5.312-3.752,11.86-3.752C24.091,26.788,29.402,28.467,29.402,30.54z"/>
	<path id="vert" fill="#2ABF00" stroke="#1D7500" stroke-width="0.2" stroke-miterlimit="10" d="M29.402,13.133
		c0,5.419-3.885,9.964-9.113,11.164c-0.881,0.198-2.746,12.905-2.746,12.905S15.611,24.495,14.7,24.271
		c-5.176-1.229-9.02-5.752-9.02-11.142c0-6.336,5.312-11.471,11.86-11.471C24.091,1.657,29.402,6.797,29.402,13.133z"/>
	<path id="orange" display="none" fill="#FF8500" stroke="#7F4500" stroke-width="0.2" stroke-miterlimit="10" d="M29.402,13.133
		c0,5.419-3.885,9.964-9.113,11.164c-0.881,0.198-2.746,12.905-2.746,12.905S15.611,24.495,14.7,24.271
		c-5.176-1.229-9.02-5.752-9.02-11.142c0-6.336,5.312-11.471,11.86-11.471C24.091,1.657,29.402,6.797,29.402,13.133z"/>
	<path id="gris" display="none" fill="#A5A5A5" stroke="#595959" stroke-width="0.2" stroke-miterlimit="10" d="M29.402,13.133
		c0,5.419-3.885,9.964-9.113,11.164c-0.881,0.198-2.746,12.905-2.746,12.905S15.611,24.495,14.7,24.271
		c-5.176-1.229-9.02-5.752-9.02-11.142c0-6.336,5.312-11.471,11.86-11.471C24.091,1.657,29.402,6.797,29.402,13.133z"/>
	<path id="bleu" display="none" fill="#0092FF" stroke="#00477C" stroke-width="0.2" stroke-miterlimit="10" d="M29.402,13.133
		c0,5.419-3.885,9.964-9.113,11.164c-0.881,0.198-2.746,12.905-2.746,12.905S15.611,24.495,14.7,24.271
		c-5.176-1.229-9.02-5.752-9.02-11.142c0-6.336,5.312-11.471,11.86-11.471C24.091,1.657,29.402,6.797,29.402,13.133z"/>
</g>
<g id="Icons">
	<g id="Minimal">
		<path id="Election" display="none" fill="#565656" d="M28.066-1.893l-4.567-1.959c-0.137-0.058-0.295-0.018-0.384,0.098
			l-1.31,1.632c-0.059,0.073-0.08,0.177-0.063,0.273c0.023,0.092,0.082,0.167,0.162,0.211l-4.098,1.536
			C17.46,0.027,17.17,0.27,16.979,0.586l-1.353,2.261c-0.288,0.48-0.312,1.066-0.061,1.567l0.098,0.191h-1.429
			c-0.181,0-0.328,0.146-0.328,0.326v6.201h-0.98c-0.18,0-0.324,0.145-0.324,0.324c0,0.181,0.142,0.327,0.324,0.327h11.098
			c0.181,0,0.319-0.146,0.319-0.327c0-0.179-0.139-0.324-0.319-0.324h-0.979V7.798c0-0.111-0.061-0.217-0.152-0.275
			c-0.095-0.06-0.212-0.069-0.313-0.021c-0.36,0.168-0.625,0.254-0.751,0.292c-0.027,0.006-0.052,0.018-0.075,0.035l-2.127,1.272
			c-0.338,0.205-0.722,0.313-1.114,0.313c-0.722,0-1.398-0.36-1.813-0.97c-0.328-0.489-0.44-1.082-0.319-1.656
			c0.124-0.575,0.466-1.068,0.958-1.384l0.308-0.196c0.228-0.138,0.43-0.263,0.609-0.374c0.123-0.079,0.182-0.231,0.141-0.372
			c-0.082-0.262-0.217-0.495-0.343-0.674c0.497-0.217,1.173-0.606,1.512-1c0,0,0.004,0.002,0.006,0.002
			c0.069,0.043,0.152,0.09,0.25,0.136c0.006,0.002,0.009,0.004,0.018,0.006l0,0c0.242,0.118,0.55,0.235,0.903,0.306
			c-0.379,0.471-0.765,1.057-0.906,1.447c-0.271,0.119-0.832,0.438-2.144,1.273c-0.347,0.221-0.585,0.564-0.666,0.967
			c-0.089,0.402-0.011,0.814,0.222,1.158c0.29,0.438,0.77,0.68,1.266,0.68c0.265,0,0.535-0.07,0.778-0.217l2.244-1.346
			c0.349-0.085,2.094-0.607,3.414-2.745c1.039-1.675,1.617-3.023,1.86-3.634l0.039,0.02c0.137,0.067,0.286,0.102,0.438,0.102
			c0.247,0,0.497-0.1,0.681-0.275c0.193-0.183,0.298-0.435,0.298-0.703v-1.554C28.261-1.724,28.185-1.842,28.066-1.893z"/>
	</g>
	<g id="Faible" display="none">
		<path id="Famine" display="inline" fill="#F9F9F9" d="M25.128,10.123l-2.595,0.491l-4.234-2.304l1.54-1.92l3.464,1.15
			L25.128,10.123z M29.114,5.621v0.288l-2.729,0.866l-2.697,0.383l-3.465-1.152l-0.813-0.384h0.466
			c-0.112-1.03-0.26-1.811-0.334-2.833h-0.004C19.535,2.757,19.5,2.073,19.49,1.782c-0.052-0.308-0.199-0.431-0.679-0.761
			c-0.265-0.17-0.459-0.231-0.572-0.229c-0.176,0-0.334,0.191-0.37,0.767c0.771,0.131,0.823,0.985,0.823,0.985
			c0.069,0.606-0.229,1.493-0.915,1.721c-1.268,0.424-1.138-2.019-0.423-2.605c0.02-0.703,0.217-1.35,0.885-1.375
			c0.267,0.002,0.538,0.111,0.85,0.31c0.15,0.089,0.27,0.181,0.378,0.274c-0.014-0.232-0.028-0.47-0.028-0.713
			c-0.002-0.513,0.08-1.072,0.535-1.468c0.234-0.213,0.497-0.324,0.757-0.322c0.679,0.033,1.099,0.617,1.344,1.214
			c0.284-0.125,0.64-0.185,1.05-0.044c1.04,0.362,1.604,2.179,1.166,2.813c-1.027,1.477-3.614-1.272-2.929-2.231
			c0,0,0.1-0.131,0.275-0.275c-0.199-0.53-0.603-1.002-0.906-0.969c-0.115,0.002-0.249,0.042-0.419,0.193
			c-0.288,0.253-0.363,0.614-0.363,1.088c0,0.333,0.041,0.703,0.041,1.075c0,0.193,0.011,0.364,0.017,0.552
			c0.051,0.331,0.051,0.585,0.051,0.933c0.069,1.018,0.48,1.855,0.589,2.905h8.469V5.621z M21.824,0.046l1.96,2.135
			c-0.347-1.514-1.592-2.359-1.592-2.359L21.824,0.046z M17.762,1.879L17.41,2.022c0,0-0.173,1.194,0,1.818L17.762,1.879z
			 M16.006,9.081l1.559-0.937l1.624-2.009l-0.508-0.514h-3.588l-0.712,1.421L16.006,9.081z M17.824,8.759l-2.76,1.88l0.367,0.455
			h6.354L21.762,11L17.824,8.759z M12.144,5.621v2.167l1.769-0.947l0.536-1.219H12.144z M24.2,7.621l1.711,2.483l3.202,0.752V8.016
			l-2.305-0.744L24.2,7.621z M29.114,7.395V6.393l-1.796,0.486L29.114,7.395z M13.957,7.534l-1.813,0.863v2.696h1.326l1.975-1.617
			L13.957,7.534z M23.45,11.093h4.146l-1.981-0.479L23.45,11.093z"/>
		<path id="Cyclone" display="inline" fill="#FFFFFF" d="M20.695-0.208c-0.086-0.005-0.173-0.015-0.26-0.015
			c-0.78,0-1.509,0.202-2.146,0.554c1.136-3.872,3.97-4.209,3.97-4.209s-6.263,0.522-6.263,7.832c0.004,0,0.009,0,0.013,0
			c-0.004,0.087-0.013,0.173-0.013,0.263c0,0.773,0.204,1.505,0.555,2.145c-3.873-1.139-4.21-3.971-4.21-3.971
			s0.521,6.266,7.832,6.266c0-0.006,0-0.009,0-0.016c0.087,0.005,0.174,0.016,0.261,0.016c0.78,0,1.509-0.204,2.146-0.555
			c-1.137,3.871-3.975,4.21-3.975,4.21s6.266-0.523,6.266-7.833c-0.004,0-0.009,0-0.013,0c0.004-0.087,0.013-0.171,0.013-0.259
			c0-0.778-0.201-1.51-0.555-2.145c3.869,1.135,4.21,3.972,4.21,3.972S28.005-0.22,20.695-0.22
			C20.695-0.216,20.695-0.213,20.695-0.208z"/>
		<path id="eruption" display="inline" fill="#FFFFFF" d="M21.668,1.195c0.933,0.319,2.17,0.695,2.433-0.81
			c0.21-1.171,1.771-0.737,2.437-0.811c1.21-0.139,0.295-2.404-1.218-2.436c-1.533-0.035-2.231,0.638-2.841,2.029
			c-0.292,0.669-0.539,1.171-1.623,0.813c-1.084-0.362-1.878,0.528-1.221,1.624c0.583,0.969-0.009,2.028-0.009,2.028h1.637
			c0,0-0.016-0.602-0.407-1.218C20.398,1.696,20.712,0.866,21.668,1.195z M13.016,11.293c4.202-3.059,5.25-7.291,5.25-7.291h4.316
			c0,0,1.049,4.231,5.249,7.291H13.016z"/>
		<path id="tsunami" display="inline" fill="#FFFFFF" d="M28.302,9.372c-12.89,0.73-9.289-9.131-5.944-8.28
			c-0.345,0.21-0.565,0.936-0.354,1.424c0.234,0.523,0.989,0.822,1.42,0.714c1.041-0.268,1.089-1.726,0.714-2.49
			c-0.389-0.796-1.414-1.778-3.202-1.778c-4.319,0-7.262,2.204-8.371,5.995v5.573h15.74V9.373L28.302,9.372L28.302,9.372z"/>
		<path id="epidemie" display="inline" fill="#FFFFFF" d="M27.157,4.87c0-3.686-2.888-6.685-6.525-6.872
			c1.608,0.153,2.859,1.319,2.859,2.739c0,0.487-0.162,0.936-0.423,1.333c-0.718-0.716-1.704-1.155-2.796-1.155
			c-1.089,0-2.075,0.439-2.791,1.153c-0.256-0.397-0.418-0.846-0.418-1.334c0-1.416,1.249-2.583,2.855-2.737
			c-3.636,0.188-6.523,3.188-6.523,6.874c0,1.111,0.269,2.159,0.735,3.09c-0.638-1.455-0.25-3.093,0.962-3.793
			c0.425-0.243,0.897-0.331,1.366-0.304c-0.089,0.324-0.147,0.661-0.147,1.016c0,1.83,1.251,3.357,2.938,3.814
			c-0.024,0.04-0.053,0.076-0.074,0.115c0,0.005,0,0.005,0,0.01c-0.057,0.125-0.128,0.227-0.21,0.314
			c-0.183,0.238-0.393,0.449-0.659,0.603c-1.221,0.704-2.842,0.216-3.779-1.081c1.233,1.869,3.345,3.106,5.75,3.106
			c2.383,0,4.477-1.21,5.715-3.05c-0.943,1.256-2.534,1.718-3.735,1.029c-0.425-0.249-0.735-0.62-0.947-1.048
			c1.688-0.455,2.931-1.986,2.931-3.812c0-0.354-0.059-0.69-0.147-1.016c0.478-0.032,0.947,0.056,1.375,0.302
			c1.179,0.68,1.58,2.241,1.017,3.666C26.912,6.931,27.157,5.931,27.157,4.87z M21.007,7.52c-0.028-0.574,0.091-1.176,0.38-1.743
			l-0.46-0.265c-0.163,0.17-0.393,0.274-0.65,0.274c-0.254,0-0.485-0.104-0.652-0.274L19.177,5.77
			c0.286,0.573,0.408,1.179,0.375,1.752c-1.164-0.319-2.026-1.38-2.026-2.643c0-0.244,0.037-0.471,0.098-0.693
			c0.509,0.256,0.971,0.657,1.324,1.188l0.46-0.269c-0.021-0.078-0.05-0.151-0.05-0.237c0-0.425,0.292-0.769,0.689-0.873V3.472
			c-0.638-0.041-1.219-0.239-1.698-0.554c0.497-0.491,1.178-0.792,1.926-0.792c0.752,0,1.431,0.303,1.93,0.793
			c-0.481,0.314-1.061,0.51-1.698,0.552v0.525c0.393,0.104,0.688,0.447,0.688,0.873c0,0.085-0.026,0.159-0.046,0.237l0.467,0.272
			c0.351-0.529,0.813-0.929,1.317-1.185c0.057,0.218,0.096,0.447,0.096,0.685C23.028,6.139,22.169,7.197,21.007,7.52z"/>
		<path id="earthquake" display="inline" fill="#FFFFFF" d="M25.023,4.702c-0.222,0-0.426,0.122-0.529,0.318l-0.858,1.62
			l-1.061-3.104c-0.084-0.236-0.299-0.393-0.546-0.405c-0.254-0.006-0.475,0.138-0.575,0.366L20.73,5.224l-1.145-6.874
			c-0.057-0.288-0.327-0.506-0.603-0.491c-0.295,0.006-0.538,0.201-0.577,0.493l-1.017,7.972L16.57,2.046
			c-0.048-0.252-0.254-0.445-0.51-0.481c-0.253-0.034-0.507,0.103-0.618,0.334l-1.345,2.803H12.01v1.194h2.464
			c0.231,0,0.439-0.133,0.542-0.337l0.72-1.505l1.167,6.071c0.056,0.282,0.301,0.486,0.587,0.486c0.004,0,0.011,0,0.016,0
			c0.292-0.009,0.535-0.229,0.576-0.518l0.997-7.838l0.835,5.158c0.05,0.261,0.26,0.458,0.524,0.487
			c0.267,0.024,0.517-0.119,0.62-0.364l0.897-2.13l0.997,2.924c0.076,0.227,0.278,0.385,0.515,0.405
			c0.238,0.013,0.466-0.105,0.578-0.316l1.338-2.524h2.563V4.7h-2.922V4.702z"/>
	</g>
	<g id="Modéré">
	</g>
	<g id="Important" display="none">
		<path id="enlevement" display="inline" fill="#FFFFFF" d="M26.015-3.358c-0.425,0-0.773,0.349-0.773,0.777v3.161
			c0.188,0.042,0.366,0.12,0.512,0.262c0.407,0.403,0.418,1.064,0.02,1.479L24.3,3.832l-0.203-0.196l1.476-1.507
			c0.295-0.306,0.286-0.79-0.015-1.09c-0.098-0.089-0.208-0.152-0.323-0.186c-0.132-0.035-0.263-0.037-0.391-0.011
			c-0.143,0.038-0.271,0.109-0.37,0.216c-0.874,0.895-1.75,1.791-2.623,2.687c-0.217,0.224-0.618,0.738-0.605,1.25
			c0.009,0.481-0.006,0.977,0.002,1.461c-0.114-0.092-0.253-0.16-0.409-0.188c-0.449-0.073-0.856,0.194-1.013,0.596h-0.228
			c0-0.109,0-0.219,0.002-0.33c0.011-0.506-0.009-1.03,0.005-1.536c0.011-0.514-0.391-1.028-0.607-1.252
			c-0.874-0.896-1.745-1.792-2.623-2.689c-0.1-0.105-0.226-0.178-0.371-0.214c-0.126-0.027-0.258-0.024-0.386,0.011
			c-0.119,0.033-0.232,0.096-0.325,0.187c-0.301,0.296-0.308,0.781-0.013,1.09l1.474,1.505L16.55,3.832L15.078,2.32
			c-0.401-0.413-0.39-1.074,0.02-1.476c0.145-0.139,0.323-0.221,0.512-0.262V-2.58c0-0.427-0.349-0.777-0.774-0.777
			c-0.431,0-0.777,0.349-0.777,0.777v5.474c0,0.178,0.071,0.343,0.179,0.476l2.642,3.491h-0.234c-0.514,0-0.935,0.418-0.935,0.937
			c0,0.343,0.193,0.629,0.468,0.792c-0.275,0.163-0.468,0.452-0.468,0.79c0,0.519,0.418,0.938,0.935,0.938h0.284v0.521h2.597
			c0.137,0.136,0.295,0.233,0.485,0.267c0.055,0.009,0.102,0.013,0.156,0.013c0.455,0,0.846-0.324,0.919-0.776l0.005-0.023h0.167
			c0.002,0.171,0,0.342,0.017,0.52h2.644v-0.52h0.286c0.514,0,0.934-0.417,0.934-0.938c0-0.339-0.192-0.627-0.47-0.79
			c0.277-0.162,0.47-0.449,0.47-0.793c0-0.517-0.418-0.935-0.934-0.935h-0.234l2.643-3.493c0.11-0.133,0.18-0.297,0.18-0.476v-5.472
			C26.791-3.009,26.445-3.358,26.015-3.358z M16.179,7.796c0-0.258,0.21-0.466,0.466-0.466h3.063l-0.16,0.935h-2.903
			C16.389,8.262,16.179,8.055,16.179,7.796z M16.179,9.379c0-0.255,0.21-0.467,0.466-0.467h2.791l-0.163,0.936h-2.627
			C16.389,9.848,16.179,9.642,16.179,9.379z M20.625,10.26c-0.041,0.257-0.308,0.424-0.539,0.384c-0.122-0.022-0.23-0.09-0.302-0.19
			c-0.073-0.104-0.1-0.227-0.078-0.349l0.516-2.994c0.039-0.227,0.236-0.389,0.469-0.389c0.023,0,0.048,0,0.073,0.006
			c0.254,0.043,0.423,0.285,0.38,0.54L20.625,10.26z M24.671,9.379c0,0.26-0.211,0.469-0.466,0.469h-3.033l0.162-0.936h2.871
			C24.458,8.915,24.671,9.124,24.671,9.379z M24.671,7.796c0,0.257-0.211,0.466-0.466,0.466h-2.76l0.158-0.915
			c0.002-0.007,0-0.013,0-0.021h2.599C24.458,7.33,24.671,7.541,24.671,7.796z"/>
	</g>
	<g id="Elevé">
	</g>
	<g id="Extreme" display="none">
		<path id="rebelion" display="inline" fill="#FFFFFF" d="M22.876,0.012c0,1.439-1.169,2.604-2.604,2.604
			c-1.442,0-2.608-1.167-2.608-2.604c0-1.44,1.166-2.605,2.608-2.605C21.707-2.593,22.876-1.428,22.876,0.012z M15.921,11.06h1.594
			h0.084l0.059-0.122l0.577-0.566l-0.533-0.114l-0.846-0.181L15.921,11.06z M26.82,0.495l-0.56,0.558l0.039,0.038l-0.451,0.457
			c0.059,0.055,0.117,0.111,0.167,0.176l0.455-0.456l0.094,0.085l0.551-0.562L26.82,0.495z M23.223,3.384l-0.241,0.238l0.026,0.068
			l0.059,0.128l-3.798,3.81l0.407,0.087c0.375,0.079,0.698,0.303,0.908,0.627c0.028,0.046,0.037,0.102,0.059,0.151l0.013-0.013
			l0.28,0.185l0.102-0.021l1.105,0.803l0.746-1.019L21.24,7.142l0.034-0.107h0.273l1.619-1.899l0.183-1.703L23.223,3.384z
			 M24.988,1.701c-0.49-0.054-0.972,0.314-1.027,0.824l-0.063,0.555l0,0L23.861,3.48l-0.183,1.706L23.66,5.345l-0.102,0.122
			l-1.45,1.7l1.093,0.855l0.392,0.308l-0.228,0.312l0.057,0.116c0.154,0.326,0.485,0.53,0.844,0.53c0.05,0,0.102-0.002,0.153-0.013
			c0.41-0.07,0.725-0.403,0.77-0.815l0.618-5.73C25.865,2.214,25.497,1.753,24.988,1.701z M23.09,9.019l-0.53,0.732l-0.304,0.417
			l-0.419-0.304L20.92,9.202l-0.08,0.02L20.806,9.2c0,0.079,0,0.154-0.02,0.233c-0.018,0.076-0.044,0.145-0.074,0.217
			c-0.057,0.136-0.132,0.252-0.221,0.362l0.064,0.145c0.065,0.145,0.154,0.336,0.258,0.5l0.256,0.4h1.958L23.09,9.019z
			 M19.368,10.578c-0.021,0-0.044-0.006-0.067-0.008c-0.009,0.042-0.016,0.072-0.016,0.072l0.222,0.417h0.529l0.345-0.12
			c-0.117-0.181-0.213-0.376-0.3-0.573C19.866,10.489,19.63,10.578,19.368,10.578z M20.136,8.607
			c-0.039-0.059-0.096-0.104-0.15-0.152c-0.03-0.028-0.054-0.067-0.093-0.091c-0.096-0.069-0.208-0.118-0.327-0.146l-0.408-0.083
			l-0.926-0.198l0,0L17.412,7.76l-0.318-0.066L16.57,7.581l-0.035-0.007l0.083-0.085l0.355-0.352l0.379-0.382
			c0.032,0.262,0.046,0.47,0.046,0.474l0.123,0.026l1.149,0.244l0.234-0.235l3.555-3.569l-0.082-0.199l0.03-0.023
			c-0.516-0.156-1.123-0.243-1.886-0.243H20.27c0,0-0.247,0-0.249,0c-0.535,0-1.08,0.037-1.608,0.154
			c-0.911,0.203-1.475,1.094-2.097,1.708c-0.644,0.632-1.268,1.291-1.893,1.94c-0.138,0.146-0.275,0.294-0.418,0.438
			c-0.24,0.241-0.328,0.595-0.232,0.924c0.093,0.326,0.364,0.573,0.698,0.647L15.7,9.304l0.522,0.11l2.955,0.63
			c0.065,0.01,0.131,0.021,0.195,0.021c0.43,0,0.813-0.301,0.908-0.737c0.035-0.172,0.009-0.334-0.043-0.488l-0.059-0.119
			C20.164,8.687,20.151,8.65,20.136,8.607z M18.83,10.881l-0.089-0.167l0.044-0.187l0.008-0.037l-0.141-0.031l-0.522,0.6h0.791
			L18.83,10.881z"/>
	</g>
	<path id="displaced" display="none" fill="#FFFFFF" d="M21.328-2.238c0.125,0.805-0.414,1.559-1.212,1.688
		c-0.801,0.133-1.563-0.41-1.691-1.208c-0.132-0.803,0.407-1.562,1.214-1.692C20.435-3.579,21.194-3.037,21.328-2.238z
		 M20.866,3.592l1.301,2.078c0.187,0.293,0.565,0.387,0.865,0.214c0.299-0.179,0.4-0.557,0.238-0.86l-0.332-0.597
		c-0.29-0.51-0.57-1.024-0.856-1.536l-0.576-1.05c-0.067-0.124-0.133-0.262-0.2-0.405c-0.355-0.75-0.912-1.907-2.137-1.803
		c-1.046,0.092-2.108,0.588-3.153,1.477c-1.238,0.976-2.1,2.393-2.133,2.453c-0.043,0.061-0.081,0.126-0.11,0.186
		C13.77,3.75,13.77,3.752,13.768,3.754l0,0c-0.117,0.218-0.174,0.417-0.029,0.673c0.115,0.2,0.327,0.323,0.555,0.323
		c0.281,0,0.422-0.133,0.559-0.328l0,0c0.002,0,0.002-0.004,0.002-0.004c0.039-0.058,0.076-0.122,0.12-0.186
		c0.006-0.012,0.732-1.177,1.854-2.134c0.347-0.272,0.677-0.458,0.986-0.561l-0.251,3.025c-0.026,0.299-0.12,0.817-0.202,1.105
		l-0.562,1.972c-0.076,0.249-0.284,0.663-0.451,0.863l-1.52,1.885c-0.193,0.238-0.409,0.509-0.229,0.884
		c0.106,0.223,0.329,0.364,0.577,0.364c0.292,0,0.453-0.168,0.65-0.384l1.539-1.661c0.273-0.297,0.634-0.81,0.812-1.174l0.763-1.555
		l2.823,4.745c0.139,0.233,0.314,0.527,0.695,0.527l0,0c0.222,0,0.423-0.114,0.536-0.293c0.208-0.314,0.071-0.6-0.046-0.857
		l-2.285-4.96c-0.087-0.195-0.139-0.59-0.1-0.805L20.866,3.592z M23.26,8.754h3.421v1.017l3.399-1.963l-3.399-1.963v1.017H23.26
		V8.754z"/>
	<path id="returned" fill="#FFFFFF" d="M17.061,3.985c0.159,0.984-0.512,1.913-1.488,2.075c-0.987,0.164-1.915-0.506-2.076-1.487
		c-0.161-0.986,0.5-1.915,1.489-2.076C15.963,2.333,16.901,3,17.061,3.985z M16.496,11.145l1.6,2.556
		c0.224,0.357,0.697,0.475,1.065,0.257c0.357-0.216,0.487-0.684,0.283-1.055l-0.405-0.734c-0.352-0.625-0.694-1.258-1.046-1.887
		l-0.713-1.292c-0.083-0.146-0.161-0.315-0.246-0.492c-0.44-0.922-1.127-2.345-2.626-2.212c-1.285,0.106-2.587,0.719-3.869,1.809
		c-1.517,1.2-2.581,2.94-2.63,3.011c-0.046,0.079-0.092,0.155-0.132,0.231c-0.003,0.003-0.007,0.003-0.007,0.006l0,0
		c-0.142,0.269-0.211,0.516-0.034,0.826c0.139,0.249,0.399,0.4,0.684,0.4c0.344,0,0.516-0.162,0.686-0.407l0,0
		C9.11,12.16,9.11,12.16,9.11,12.16c0.047-0.074,0.095-0.152,0.145-0.234c0.008-0.011,0.901-1.442,2.279-2.618
		c0.424-0.33,0.826-0.562,1.21-0.689l-0.309,3.719c-0.03,0.371-0.145,1.003-0.25,1.362l-0.688,2.42
		c-0.091,0.306-0.351,0.814-0.554,1.063l-1.868,2.313c-0.237,0.297-0.504,0.628-0.281,1.091c0.131,0.27,0.406,0.446,0.707,0.446
		c0.361,0,0.555-0.209,0.803-0.475l1.892-2.038c0.339-0.366,0.776-0.997,0.992-1.445l0.937-1.906l3.47,5.829
		c0.172,0.289,0.391,0.645,0.858,0.645l0,0c0.271,0,0.517-0.135,0.661-0.365c0.249-0.383,0.084-0.729-0.061-1.045l-2.806-6.1
		c-0.111-0.236-0.17-0.724-0.127-0.986L16.496,11.145z M28.178,12.446c0-2.545-2.07-4.612-4.609-4.612h-1.962v2.33h1.959
		c1.257,0,2.279,1.022,2.279,2.282c0,1.258-1.022,2.284-2.279,2.284h-0.404v-1.25l-4.185,2.413l4.182,2.414v-1.253h0.459v-0.003
		C26.134,17.024,28.178,14.973,28.178,12.446z"/>
	<path id="Attack" display="none" fill="#FFFFFF" d="M24.035,5.277l4.611-2.953L24.19,1.851l1.212-5.178L22.24-0.061l-0.88-3.692
		l-1.324,3.446l-3.612-4.653l1.134,5.83l-3.209-0.713c0,0,0.974,1.867,1.52,2.992l-5.152-0.361l4.663,2.727L14.04,6.891l2.169-0.396
		l-1.537,5.433l4.566-3.819l1.181,2.951l1.219-2.36l3.938,4.065l-1.969-5.442l4.316,0.437L24.035,5.277z"/>
</g>
</svg>
