<?xml version="1.0" encoding="utf-8"?>
<!-- Generator: Adobe Illustrator 16.0.0, SVG Export Plug-In . SVG Version: 6.00 Build 0)  -->
<!DOCTYPE svg PUBLIC "-//W3C//DTD SVG 1.1//EN" "http://www.w3.org/Graphics/SVG/1.1/DTD/svg11.dtd">
<svg version="1.1" id="Layer_1" xmlns="http://www.w3.org/2000/svg" xmlns:xlink="http://www.w3.org/1999/xlink" x="0px" y="0px"
	 width="33.35px" height="40px" viewBox="0 0 33.35 40" enable-background="new 0 0 33.35 40" xml:space="preserve">
<g id="PinColor">
	<path id="PinOmbre" opacity="0.3" enable-background="new    " d="M28.749,30.559c0,1.77-3.885,3.254-9.113,3.646
		c-0.881,0.066-2.747,4.217-2.747,4.217s-1.931-4.152-2.842-4.223c-5.176-0.402-9.02-1.881-9.02-3.643
		c0-2.071,5.312-3.752,11.86-3.752C23.439,26.807,28.749,28.484,28.749,30.559z"/>
	<path id="vert" display="none" fill="#2ABF00" stroke="#1D7500" stroke-width="0.2" stroke-miterlimit="10" d="M28.749,13.151
		c0,5.419-3.885,9.964-9.113,11.163c-0.881,0.199-2.747,12.906-2.747,12.906s-1.931-12.707-2.842-12.932
		c-5.176-1.23-9.02-5.753-9.02-11.143c0-6.336,5.312-11.471,11.86-11.471C23.439,1.675,28.749,6.815,28.749,13.151z"/>
	<path id="orange" display="none" fill="#FF8500" stroke="#7F4500" stroke-width="0.2" stroke-miterlimit="10" d="M28.749,13.151
		c0,5.419-3.885,9.964-9.113,11.163c-0.881,0.199-2.747,12.906-2.747,12.906s-1.931-12.707-2.842-12.932
		c-5.176-1.23-9.02-5.753-9.02-11.143c0-6.336,5.312-11.471,11.86-11.471C23.439,1.675,28.749,6.815,28.749,13.151z"/>
	<path id="gris" display="none" fill="#A5A5A5" stroke="#595959" stroke-width="0.2" stroke-miterlimit="10" d="M28.749,13.151
		c0,5.419-3.885,9.964-9.113,11.163c-0.881,0.199-2.747,12.906-2.747,12.906s-1.931-12.707-2.842-12.932
		c-5.176-1.23-9.02-5.753-9.02-11.143c0-6.336,5.312-11.471,11.86-11.471C23.439,1.675,28.749,6.815,28.749,13.151z"/>
	<path id="bleu" fill="#0092FF" stroke="#00477C" stroke-width="0.2" stroke-miterlimit="10" d="M28.749,13.151
		c0,5.419-3.885,9.964-9.113,11.163c-0.881,0.199-2.747,12.906-2.747,12.906s-1.931-12.707-2.842-12.932
		c-5.176-1.23-9.02-5.753-9.02-11.143c0-6.336,5.312-11.471,11.86-11.471C23.439,1.675,28.749,6.815,28.749,13.151z"/>
</g>
<g id="Icons">
	<g id="Minimal">
		<path id="Election" display="none" fill="#565656" d="M27.781-1.393l-4.626-1.984c-0.138-0.059-0.298-0.018-0.388,0.099
			l-1.326,1.653c-0.06,0.074-0.082,0.179-0.064,0.276c0.024,0.093,0.084,0.168,0.165,0.213L17.394,0.42
			c-0.352,0.13-0.646,0.376-0.839,0.697l-1.37,2.29c-0.292,0.486-0.316,1.079-0.062,1.587l0.099,0.193h-1.448
			c-0.183,0-0.332,0.147-0.332,0.331v6.279h-0.992c-0.182,0-0.328,0.147-0.328,0.329c0,0.183,0.144,0.33,0.328,0.33H23.69
			c0.182,0,0.322-0.147,0.322-0.33c0-0.181-0.141-0.329-0.322-0.329h-0.992V8.42c0-0.112-0.062-0.22-0.154-0.279
			c-0.097-0.061-0.215-0.069-0.318-0.021c-0.364,0.171-0.632,0.258-0.76,0.296c-0.028,0.007-0.053,0.018-0.076,0.036L19.235,9.74
			c-0.342,0.207-0.73,0.316-1.128,0.316c-0.73,0-1.416-0.364-1.835-0.982c-0.332-0.496-0.446-1.095-0.323-1.677
			c0.125-0.583,0.472-1.082,0.97-1.402l0.312-0.199c0.23-0.14,0.435-0.267,0.617-0.379c0.125-0.08,0.185-0.233,0.143-0.377
			c-0.083-0.265-0.22-0.501-0.347-0.682c0.503-0.22,1.188-0.614,1.529-1.013c0,0,0.005,0.002,0.007,0.002
			c0.07,0.043,0.153,0.091,0.253,0.137c0.006,0.002,0.009,0.004,0.018,0.006l0,0c0.245,0.12,0.558,0.238,0.915,0.31
			c-0.384,0.477-0.775,1.07-0.918,1.465c-0.274,0.12-0.843,0.443-2.17,1.29c-0.352,0.224-0.593,0.571-0.674,0.979
			c-0.09,0.407-0.011,0.824,0.224,1.172c0.294,0.444,0.78,0.689,1.283,0.689c0.267,0,0.541-0.071,0.787-0.22l2.272-1.363
			c0.354-0.087,2.121-0.615,3.458-2.78c1.052-1.696,1.638-3.062,1.884-3.68l0.039,0.02c0.139,0.069,0.29,0.103,0.443,0.103
			c0.25,0,0.503-0.101,0.689-0.279c0.195-0.185,0.301-0.44,0.301-0.712v-1.573C27.98-1.222,27.903-1.342,27.781-1.393z"/>
	</g>
	<g id="Faible" display="none">
		<path id="Famine" display="inline" fill="#F9F9F9" d="M24.807,10.775l-2.628,0.497L17.892,8.94l1.559-1.945l3.508,1.165
			L24.807,10.775z M28.842,6.216v0.291l-2.764,0.877l-2.731,0.388l-3.508-1.167l-0.824-0.389h0.473
			c-0.114-1.043-0.264-1.833-0.338-2.869h-0.005c-0.002-0.032-0.037-0.724-0.048-1.02c-0.053-0.312-0.202-0.437-0.688-0.771
			c-0.268-0.172-0.465-0.234-0.579-0.232c-0.178,0-0.338,0.193-0.375,0.777c0.781,0.133,0.834,0.997,0.834,0.997
			c0.07,0.614-0.232,1.512-0.927,1.744c-1.284,0.429-1.152-2.045-0.428-2.639c0.02-0.712,0.219-1.367,0.896-1.393
			c0.271,0.002,0.544,0.113,0.86,0.313c0.151,0.09,0.272,0.184,0.382,0.278c-0.014-0.235-0.028-0.475-0.028-0.722
			c-0.003-0.52,0.081-1.086,0.542-1.487c0.237-0.216,0.503-0.328,0.767-0.326c0.687,0.034,1.112,0.625,1.36,1.23
			c0.288-0.126,0.648-0.188,1.063-0.045c1.054,0.366,1.624,2.207,1.181,2.849c-1.041,1.495-3.66-1.288-2.966-2.259
			c0,0,0.101-0.133,0.278-0.279c-0.202-0.536-0.61-1.015-0.917-0.981c-0.117,0.002-0.253,0.043-0.424,0.196
			C19.637-0.165,19.56,0.2,19.56,0.68c0,0.337,0.042,0.711,0.042,1.088c0,0.195,0.011,0.368,0.018,0.559
			c0.05,0.335,0.05,0.592,0.05,0.945c0.07,1.03,0.488,1.878,0.598,2.941h8.575V6.216z M21.461,0.57l1.984,2.163
			c-0.351-1.534-1.611-2.389-1.611-2.389L21.461,0.57z M17.347,2.427l-0.355,0.145c0,0-0.176,1.21,0,1.841L17.347,2.427z
			 M15.569,9.72l1.579-0.948l1.644-2.035l-0.513-0.521h-3.633l-0.721,1.438L15.569,9.72z M17.411,9.394l-2.796,1.903l0.372,0.461
			h6.434l-0.023-0.095L17.411,9.394z M11.658,6.216V8.41l1.792-0.959l0.542-1.234H11.658z M23.867,8.242l1.732,2.515l3.242,0.762
			V8.642l-2.334-0.753L23.867,8.242z M28.842,8.013V6.998L27.025,7.49L28.842,8.013z M13.495,8.153l-1.836,0.874v2.73h1.342l2-1.638
			L13.495,8.153z M23.108,11.758h4.197l-2.006-0.485L23.108,11.758z"/>
		<path id="Cyclone" display="inline" fill="#FFFFFF" d="M20.318,0.313c-0.088-0.005-0.176-0.015-0.264-0.015
			c-0.79,0-1.528,0.205-2.173,0.561c1.149-3.921,4.02-4.262,4.02-4.262s-6.343,0.529-6.343,7.93c0.004,0,0.009,0,0.013,0
			c-0.004,0.088-0.013,0.175-0.013,0.266c0,0.783,0.207,1.524,0.563,2.172c-3.922-1.153-4.263-4.021-4.263-4.021
			s0.528,6.346,7.931,6.346c0-0.007,0-0.009,0-0.016c0.088,0.005,0.176,0.016,0.264,0.016c0.79,0,1.527-0.207,2.173-0.562
			c-1.15,3.92-4.023,4.263-4.023,4.263s6.345-0.529,6.345-7.931c-0.005,0-0.009,0-0.014,0c0.005-0.089,0.014-0.174,0.014-0.263
			c0-0.788-0.205-1.528-0.563-2.172c3.919,1.149,4.264,4.022,4.264,4.022s-0.527-6.345-7.93-6.345
			C20.318,0.305,20.318,0.308,20.318,0.313z"/>
		<path id="eruption" display="inline" fill="#FFFFFF" d="M21.303,1.734c0.944,0.323,2.197,0.704,2.463-0.821
			c0.214-1.186,1.794-0.746,2.468-0.82C27.459-0.047,26.532-2.341,25-2.374c-1.553-0.035-2.259,0.646-2.876,2.055
			c-0.297,0.678-0.547,1.187-1.645,0.823c-1.098-0.367-1.901,0.535-1.236,1.644c0.591,0.981-0.009,2.054-0.009,2.054h1.658
			c0,0-0.016-0.609-0.413-1.233C20.017,2.241,20.335,1.4,21.303,1.734z M12.542,11.96c4.254-3.098,5.316-7.384,5.316-7.384h4.371
			c0,0,1.063,4.285,5.314,7.384H12.542z"/>
		<path id="tsunami" display="inline" fill="#FFFFFF" d="M28.021,10.015c-13.053,0.739-9.407-9.247-6.02-8.385
			c-0.35,0.212-0.573,0.947-0.358,1.442c0.237,0.53,1.002,0.832,1.438,0.723c1.054-0.272,1.103-1.748,0.723-2.522
			c-0.394-0.807-1.432-1.801-3.243-1.801c-4.373,0-7.354,2.232-8.477,6.071v5.644h15.939v-1.171L28.021,10.015L28.021,10.015z"/>
		<path id="epidemie" display="inline" fill="#FFFFFF" d="M26.862,5.455c0-3.733-2.924-6.769-6.608-6.959
			c1.63,0.155,2.896,1.335,2.896,2.773c0,0.493-0.165,0.947-0.429,1.35c-0.727-0.725-1.726-1.17-2.832-1.17
			c-1.102,0-2.101,0.445-2.825,1.168C16.805,2.214,16.64,1.76,16.64,1.266c0-1.434,1.264-2.616,2.891-2.772
			c-3.682,0.19-6.605,3.229-6.605,6.961c0,1.125,0.272,2.187,0.744,3.129c-0.646-1.474-0.254-3.132,0.975-3.841
			c0.43-0.247,0.908-0.335,1.383-0.308c-0.09,0.328-0.149,0.669-0.149,1.028c0,1.854,1.267,3.4,2.974,3.862
			c-0.024,0.04-0.053,0.078-0.074,0.116c0,0.005,0,0.005,0,0.011c-0.058,0.126-0.13,0.229-0.213,0.318
			c-0.185,0.241-0.397,0.454-0.667,0.611c-1.236,0.712-2.878,0.219-3.826-1.095c1.249,1.893,3.387,3.146,5.821,3.146
			c2.412,0,4.533-1.226,5.787-3.089c-0.955,1.272-2.566,1.739-3.783,1.042c-0.43-0.252-0.744-0.627-0.959-1.061
			c1.71-0.461,2.968-2.011,2.968-3.86c0-0.358-0.059-0.699-0.149-1.028c0.483-0.032,0.96,0.057,1.393,0.306
			c1.194,0.689,1.601,2.27,1.029,3.712C26.614,7.542,26.862,6.53,26.862,5.455z M20.633,8.139c-0.028-0.582,0.093-1.191,0.385-1.765
			l-0.466-0.268c-0.164,0.172-0.397,0.278-0.658,0.278c-0.257,0-0.492-0.106-0.661-0.278l-0.452,0.261
			c0.29,0.58,0.413,1.194,0.38,1.774c-1.179-0.323-2.052-1.397-2.052-2.676c0-0.247,0.037-0.477,0.099-0.702
			c0.516,0.26,0.983,0.666,1.341,1.203l0.465-0.272c-0.021-0.08-0.05-0.154-0.05-0.241c0-0.43,0.296-0.779,0.697-0.883V4.04
			c-0.646-0.042-1.233-0.243-1.718-0.561c0.502-0.497,1.191-0.801,1.948-0.801c0.763,0,1.449,0.307,1.954,0.804
			C21.358,3.8,20.772,3.997,20.126,4.04v0.531c0.397,0.105,0.696,0.454,0.696,0.884c0,0.087-0.026,0.161-0.047,0.24l0.473,0.276
			c0.355-0.537,0.823-0.941,1.335-1.201c0.057,0.221,0.097,0.453,0.097,0.694C22.68,6.741,21.81,7.813,20.633,8.139z"/>
		<path id="earthquake" display="inline" fill="#FFFFFF" d="M24.699,5.286c-0.224,0-0.431,0.124-0.536,0.323l-0.869,1.64
			l-1.073-3.143c-0.086-0.239-0.303-0.398-0.554-0.411c-0.257-0.006-0.48,0.14-0.582,0.371l-0.732,1.748l-1.159-6.96
			c-0.058-0.291-0.332-0.513-0.61-0.497c-0.299,0.007-0.544,0.204-0.584,0.499L16.97,6.929l-0.83-4.333
			c-0.048-0.255-0.257-0.451-0.516-0.487c-0.257-0.034-0.514,0.104-0.625,0.339l-1.362,2.838h-2.114v1.209h2.495
			c0.234,0,0.446-0.135,0.548-0.342l0.729-1.524l1.181,6.148c0.057,0.285,0.305,0.492,0.595,0.492c0.004,0,0.011,0,0.016,0
			c0.296-0.009,0.542-0.231,0.584-0.525l1.01-7.937l0.845,5.224c0.051,0.265,0.264,0.464,0.531,0.494
			c0.271,0.024,0.522-0.121,0.628-0.369l0.909-2.157l1.01,2.961c0.077,0.229,0.281,0.39,0.521,0.41
			c0.241,0.013,0.472-0.106,0.586-0.32l1.354-2.557h2.595V5.283h-2.959V5.286z"/>
	</g>
	<g id="Modéré">
	</g>
	<g id="Important" display="none">
		<path id="enlevement" display="inline" fill="#FFFFFF" d="M25.705-2.876c-0.431,0-0.784,0.353-0.784,0.787v3.202
			c0.191,0.043,0.371,0.122,0.518,0.265c0.413,0.408,0.424,1.078,0.021,1.498l-1.491,1.529l-0.206-0.199l1.495-1.526
			c0.299-0.31,0.29-0.8-0.016-1.104c-0.099-0.091-0.211-0.154-0.327-0.188c-0.134-0.036-0.266-0.038-0.395-0.011
			c-0.146,0.039-0.274,0.11-0.376,0.219c-0.885,0.906-1.771,1.813-2.656,2.721c-0.22,0.227-0.626,0.748-0.612,1.266
			c0.009,0.488-0.007,0.989,0.002,1.479c-0.116-0.093-0.257-0.162-0.415-0.19c-0.454-0.074-0.867,0.196-1.025,0.603h-0.23
			c0-0.111,0-0.222,0.002-0.333c0.012-0.513-0.009-1.043,0.005-1.556c0.011-0.52-0.396-1.041-0.615-1.268
			c-0.884-0.907-1.767-1.815-2.656-2.723c-0.101-0.106-0.228-0.181-0.375-0.217c-0.127-0.027-0.261-0.024-0.391,0.012
			c-0.121,0.033-0.235,0.098-0.329,0.188c-0.305,0.3-0.312,0.791-0.013,1.104l1.493,1.524L16.12,4.404l-1.49-1.531
			c-0.407-0.418-0.396-1.088,0.02-1.495c0.146-0.14,0.327-0.223,0.518-0.265v-3.201c0-0.433-0.354-0.787-0.783-0.787
			c-0.437,0-0.787,0.354-0.787,0.787v5.543c0,0.181,0.073,0.347,0.181,0.482l2.676,3.535h-0.237c-0.52,0-0.946,0.424-0.946,0.949
			c0,0.348,0.196,0.637,0.475,0.801c-0.279,0.166-0.475,0.458-0.475,0.8c0,0.525,0.424,0.95,0.946,0.95h0.288v0.527h2.63
			c0.139,0.137,0.299,0.236,0.491,0.27c0.056,0.009,0.104,0.013,0.158,0.013c0.461,0,0.856-0.328,0.932-0.785l0.004-0.024h0.169
			c0.002,0.174,0,0.347,0.018,0.527h2.677v-0.527h0.289c0.521,0,0.946-0.422,0.946-0.95c0-0.344-0.195-0.635-0.477-0.8
			c0.281-0.164,0.477-0.455,0.477-0.804c0-0.523-0.424-0.947-0.946-0.947h-0.236l2.676-3.538c0.112-0.134,0.183-0.301,0.183-0.482
			v-5.541C26.49-2.523,26.14-2.876,25.705-2.876z M15.745,8.418c0-0.261,0.213-0.472,0.472-0.472h3.102l-0.163,0.946h-2.939
			C15.958,8.89,15.745,8.681,15.745,8.418z M15.745,10.022c0-0.258,0.213-0.473,0.472-0.473h2.825l-0.164,0.948h-2.661
			C15.958,10.497,15.745,10.288,15.745,10.022z M20.247,10.914c-0.042,0.261-0.313,0.43-0.547,0.389
			c-0.123-0.022-0.232-0.091-0.306-0.192c-0.074-0.104-0.101-0.229-0.079-0.353l0.523-3.032c0.039-0.229,0.239-0.394,0.474-0.394
			c0.024,0,0.049,0,0.075,0.006c0.257,0.043,0.428,0.289,0.384,0.546L20.247,10.914z M24.344,10.022
			c0,0.263-0.213,0.475-0.473,0.475H20.8l0.165-0.948h2.906C24.128,9.551,24.344,9.764,24.344,10.022z M24.344,8.418
			c0,0.261-0.213,0.472-0.473,0.472h-2.795l0.161-0.926c0.002-0.006,0-0.013,0-0.021h2.632C24.128,7.946,24.344,8.16,24.344,8.418z"
			/>
	</g>
	<g id="Elevé">
	</g>
	<g id="Extreme" display="none">
		<path id="rebelion" display="inline" fill="#FFFFFF" d="M22.526,0.536c0,1.458-1.183,2.637-2.637,2.637
			c-1.46,0-2.641-1.182-2.641-2.637c0-1.459,1.181-2.638,2.641-2.638C21.343-2.102,22.526-0.923,22.526,0.536z M15.484,11.724h1.613
			h0.086l0.06-0.124l0.584-0.574l-0.54-0.116l-0.857-0.183L15.484,11.724z M26.52,1.025L25.953,1.59l0.039,0.039l-0.457,0.462
			c0.06,0.056,0.119,0.113,0.17,0.178l0.461-0.462l0.094,0.087l0.558-0.569L26.52,1.025z M22.877,3.951l-0.244,0.24l0.026,0.07
			l0.06,0.129l-3.847,3.858l0.413,0.088c0.38,0.08,0.707,0.307,0.92,0.635c0.028,0.047,0.037,0.104,0.06,0.153l0.013-0.014
			l0.283,0.188l0.104-0.021l1.119,0.813l0.756-1.032l-1.671-1.304l0.035-0.109h0.276l1.64-1.923L23.004,4L22.877,3.951z
			 M24.664,2.246c-0.496-0.055-0.983,0.318-1.041,0.834L23.56,3.642l0,0l-0.037,0.406l-0.185,1.728l-0.018,0.161L23.217,6.06
			l-1.469,1.721l1.106,0.866l0.397,0.312l-0.23,0.315l0.058,0.117c0.155,0.33,0.491,0.537,0.854,0.537
			c0.051,0,0.104-0.002,0.156-0.013c0.415-0.071,0.733-0.408,0.779-0.825l0.626-5.803C25.553,2.766,25.18,2.299,24.664,2.246z
			 M22.743,9.657l-0.538,0.741l-0.308,0.423l-0.424-0.308l-0.929-0.67l-0.081,0.02L20.429,9.84c0,0.08,0,0.156-0.02,0.236
			c-0.018,0.077-0.044,0.147-0.074,0.22c-0.058,0.137-0.135,0.255-0.225,0.367l0.066,0.147c0.065,0.147,0.155,0.341,0.261,0.507
			l0.26,0.405h1.982L22.743,9.657z M18.974,11.236c-0.022,0-0.044-0.007-0.068-0.009C18.897,11.27,18.89,11.3,18.89,11.3
			l0.225,0.421h0.535l0.35-0.121c-0.119-0.183-0.216-0.381-0.304-0.58C19.479,11.146,19.24,11.236,18.974,11.236z M19.751,9.24
			c-0.04-0.06-0.097-0.106-0.152-0.154c-0.03-0.029-0.055-0.069-0.094-0.092c-0.097-0.07-0.211-0.119-0.332-0.148l-0.412-0.084
			L17.823,8.56l0,0l-0.83-0.178l-0.323-0.068L16.14,8.2l-0.035-0.007l0.083-0.086l0.36-0.356l0.384-0.387
			c0.033,0.265,0.046,0.476,0.046,0.48l0.125,0.026l1.163,0.248l0.237-0.238l3.601-3.614l-0.084-0.202l0.031-0.023
			c-0.522-0.158-1.138-0.247-1.91-0.247h-0.255c0,0-0.25,0-0.253,0c-0.542,0-1.093,0.038-1.628,0.157
			c-0.922,0.206-1.493,1.108-2.123,1.73c-0.652,0.64-1.284,1.307-1.917,1.965c-0.14,0.147-0.279,0.297-0.424,0.444
			C13.3,8.332,13.211,8.69,13.307,9.023c0.094,0.33,0.369,0.581,0.707,0.655l1.246,0.267l0.529,0.111l2.992,0.638
			c0.065,0.01,0.132,0.021,0.197,0.021c0.435,0,0.823-0.305,0.92-0.746c0.035-0.174,0.009-0.338-0.044-0.495l-0.059-0.12
			C19.78,9.321,19.766,9.284,19.751,9.24z M18.429,11.543l-0.089-0.169l0.043-0.189l0.009-0.037l-0.143-0.031l-0.528,0.607h0.801
			L18.429,11.543z"/>
	</g>
	<path id="displaced" display="none" fill="#FFFFFF" d="M20.958-1.742c0.127,0.815-0.419,1.578-1.228,1.71
		c-0.81,0.135-1.582-0.415-1.712-1.224c-0.134-0.813,0.412-1.582,1.229-1.713C20.054-3.1,20.823-2.552,20.958-1.742z M20.49,4.161
		l1.317,2.104c0.188,0.297,0.573,0.392,0.876,0.217c0.303-0.181,0.406-0.564,0.241-0.871l-0.336-0.604
		c-0.294-0.516-0.577-1.038-0.867-1.556l-0.584-1.063c-0.067-0.126-0.134-0.265-0.201-0.41c-0.36-0.759-0.925-1.932-2.165-1.826
		c-1.058,0.093-2.133,0.596-3.192,1.495c-1.253,0.988-2.126,2.423-2.16,2.484c-0.044,0.062-0.082,0.128-0.112,0.188
		c-0.003,0.002-0.003,0.004-0.005,0.007l0,0c-0.119,0.22-0.177,0.422-0.03,0.681c0.116,0.202,0.332,0.327,0.562,0.327
		c0.284,0,0.427-0.135,0.566-0.333l0,0c0.002,0,0.002-0.004,0.002-0.004c0.038-0.059,0.076-0.123,0.121-0.188
		c0.006-0.013,0.741-1.191,1.876-2.161c0.351-0.276,0.685-0.464,0.999-0.567l-0.254,3.063c-0.026,0.302-0.121,0.827-0.204,1.118
		L16.373,8.26c-0.077,0.252-0.288,0.671-0.457,0.875l-1.538,1.909c-0.196,0.242-0.415,0.516-0.234,0.896
		c0.107,0.227,0.333,0.369,0.584,0.369c0.297,0,0.459-0.171,0.659-0.389l1.559-1.682c0.276-0.301,0.642-0.821,0.821-1.189
		l0.772-1.574l2.858,4.805c0.141,0.236,0.318,0.534,0.704,0.534l0,0c0.225,0,0.429-0.115,0.543-0.297
		c0.21-0.318,0.072-0.607-0.047-0.868l-2.313-5.022c-0.088-0.197-0.141-0.598-0.102-0.815L20.49,4.161z M22.914,9.389h3.465v1.03
		l3.442-1.987l-3.442-1.989v1.03h-3.465V9.389z"/>
	<path id="returned" fill="#FFFFFF" d="M16.889,3.698c0.157,0.972-0.505,1.889-1.469,2.049c-0.975,0.162-1.891-0.5-2.05-1.467
		c-0.159-0.974,0.494-1.891,1.47-2.05C15.806,2.067,16.731,2.725,16.889,3.698z M16.332,10.767l1.58,2.524
		c0.221,0.352,0.688,0.468,1.052,0.254c0.354-0.213,0.481-0.675,0.28-1.042l-0.401-0.725c-0.347-0.618-0.685-1.242-1.031-1.863
		L17.108,8.64c-0.083-0.143-0.162-0.312-0.244-0.486c-0.435-0.911-1.113-2.316-2.592-2.184c-1.27,0.105-2.555,0.709-3.821,1.786
		c-1.497,1.185-2.548,2.902-2.595,2.973c-0.046,0.077-0.091,0.153-0.13,0.229c-0.003,0.003-0.006,0.003-0.006,0.006l0,0
		c-0.14,0.266-0.209,0.509-0.034,0.815c0.138,0.245,0.394,0.396,0.676,0.396c0.339,0,0.509-0.16,0.677-0.402l0,0
		c0.002-0.003,0.002-0.003,0.002-0.003c0.047-0.073,0.094-0.149,0.144-0.232c0.008-0.01,0.891-1.423,2.25-2.584
		c0.419-0.326,0.815-0.555,1.195-0.68l-0.305,3.672c-0.03,0.366-0.143,0.99-0.247,1.344l-0.679,2.389
		c-0.09,0.302-0.347,0.805-0.547,1.049l-1.845,2.284c-0.233,0.292-0.497,0.621-0.277,1.077c0.129,0.267,0.402,0.439,0.698,0.439
		c0.356,0,0.547-0.204,0.792-0.467l1.868-2.012c0.335-0.36,0.767-0.983,0.979-1.427l0.925-1.881l3.425,5.754
		c0.171,0.287,0.386,0.636,0.849,0.636l0,0c0.268,0,0.509-0.133,0.653-0.359c0.245-0.38,0.082-0.722-0.062-1.033l-2.77-6.021
		c-0.11-0.233-0.169-0.714-0.126-0.973L16.332,10.767z M27.865,12.05c0-2.513-2.045-4.553-4.551-4.553h-1.937v2.299h1.932
		c1.243,0,2.253,1.01,2.253,2.253s-1.01,2.256-2.253,2.256h-0.396v-1.235l-4.131,2.383l4.128,2.383V16.6h0.451v-0.002
		C25.845,16.571,27.865,14.546,27.865,12.05z"/>
	<path id="Attack" display="none" fill="#FFFFFF" d="M23.7,5.868l4.67-2.99l-4.514-0.479l1.227-5.244l-3.2,3.308l-0.892-3.739
		l-1.342,3.49l-3.657-4.712l1.148,5.903l-3.25-0.722c0,0,0.986,1.891,1.54,3.03l-5.218-0.365l4.722,2.761l-1.356,1.394l2.197-0.401
		l-1.557,5.502l4.624-3.867l1.196,2.988l1.234-2.39l3.986,4.116l-1.993-5.512l4.371,0.443L23.7,5.868z"/>
</g>
</svg>
