<?xml version="1.0" encoding="utf-8"?>
<!-- Generator: Adobe Illustrator 16.0.0, SVG Export Plug-In . SVG Version: 6.00 Build 0)  -->
<!DOCTYPE svg PUBLIC "-//W3C//DTD SVG 1.1//EN" "http://www.w3.org/Graphics/SVG/1.1/DTD/svg11.dtd">
<svg version="1.1" id="Groupe" xmlns="http://www.w3.org/2000/svg" xmlns:xlink="http://www.w3.org/1999/xlink" x="0px" y="0px"
	 width="15.871px" height="15.65px" viewBox="0 0 15.871 15.65" enable-background="new 0 0 15.871 15.65" xml:space="preserve">
<g id="PinColor_1_">
	<path id="vert" display="none" fill="#2ABF00" stroke="#1D7500" stroke-width="0.2" stroke-miterlimit="10" d="M15.291,7.877
		c0,3.361-2.405,6.181-5.651,6.927c-0.545,0.121-2.901,0.121-3.464-0.021C2.963,14.019,0.58,11.218,0.58,7.874
		c0-3.923,3.295-7.114,7.355-7.114C11.994,0.76,15.291,3.951,15.291,7.877z"/>
	<path id="orange" display="none" fill="#FF8500" stroke="#7F4500" stroke-width="0.2" stroke-miterlimit="10" d="M15.291,7.877
		c0,3.361-2.405,6.181-5.651,6.927c-0.545,0.121-2.901,0.121-3.464-0.021C2.963,14.019,0.58,11.218,0.58,7.874
		c0-3.923,3.295-7.114,7.355-7.114C11.994,0.76,15.291,3.951,15.291,7.877z"/>
	<path id="gris" display="none" fill="#A5A5A5" stroke="#595959" stroke-width="0.2" stroke-miterlimit="10" d="M15.291,7.877
		c0,3.361-2.405,6.181-5.651,6.927c-0.545,0.121-2.901,0.121-3.464-0.021C2.963,14.019,0.58,11.218,0.58,7.874
		c0-3.923,3.295-7.114,7.355-7.114C11.994,0.76,15.291,3.951,15.291,7.877z"/>
	<path id="bleu" fill="#0092FF" stroke="#00477C" stroke-width="0.2" stroke-miterlimit="10" d="M15.291,7.877
		c0,3.361-2.405,6.181-5.651,6.927c-0.545,0.121-2.901,0.121-3.464-0.021C2.963,14.019,0.58,11.218,0.58,7.874
		c0-3.923,3.295-7.114,7.355-7.114C11.994,0.76,15.291,3.951,15.291,7.877z"/>
</g>
<g id="IconsGroup">
	<g id="MinimalGroup" display="none">
		<path id="ElectionGroup" display="inline" fill="#565656" d="M13.852,2.395l-3.615-1.545c-0.102-0.043-0.233-0.015-0.301,0.074
			L8.903,2.215C8.856,2.267,8.837,2.354,8.856,2.429c0.016,0.078,0.063,0.133,0.132,0.163L5.749,3.817
			C5.478,3.911,5.243,4.102,5.093,4.355L4.022,6.138C3.795,6.516,3.774,6.98,3.976,7.375l0.082,0.151H2.924
			c-0.145,0-0.256,0.117-0.256,0.259v4.896H1.894c-0.142,0-0.253,0.116-0.253,0.253c0,0.141,0.115,0.258,0.253,0.258h8.758
			c0.14,0,0.256-0.117,0.256-0.258c0-0.137-0.116-0.253-0.256-0.253H9.878v-2.633c0-0.082-0.047-0.17-0.113-0.214
			C9.692,9.783,9.594,9.775,9.509,9.819C9.23,9.95,9.016,10.016,8.922,10.048c-0.02,0-0.042,0.012-0.059,0.025l-1.68,1.003
			c-0.269,0.159-0.574,0.25-0.88,0.25c-0.579,0-1.1-0.284-1.426-0.771c-0.267-0.385-0.357-0.851-0.256-1.307
			c0.096-0.453,0.368-0.844,0.751-1.092l0.248-0.158c0.18-0.104,0.34-0.202,0.478-0.292C6.201,7.649,6.24,7.523,6.21,7.41
			C6.149,7.204,6.046,7.021,5.94,6.879c0.392-0.166,0.925-0.476,1.195-0.788l0,0C7.191,6.127,7.259,6.164,7.332,6.2
			c0.007,0,0.007,0,0.016,0.004l0,0c0.19,0.093,0.428,0.187,0.711,0.241C7.76,6.82,7.456,7.281,7.339,7.586
			C7.14,7.683,6.691,7.926,5.656,8.589C5.382,8.76,5.193,9.038,5.131,9.357C5.062,9.675,5.122,9.998,5.307,10.27
			c0.234,0.347,0.607,0.541,0.998,0.541c0.211,0,0.42-0.064,0.616-0.173l1.769-1.066c0.272-0.066,1.647-0.479,2.695-2.167
			c0.818-1.323,1.282-2.384,1.468-2.869l0.034,0.018c0.106,0.047,0.233,0.086,0.34,0.086c0.208,0,0.405-0.086,0.548-0.223
			c0.147-0.144,0.235-0.344,0.235-0.555V2.633C14,2.527,13.945,2.431,13.852,2.395z"/>
	</g>
	<g id="FaibleGroup" display="none">
		<path id="FamineGroup" display="inline" fill="#F9F9F9" d="M11.173,11.469l-1.959,0.373l-3.194-1.746l1.162-1.441L9.792,9.52
			L11.173,11.469z M14.178,8.071v0.221L12.12,8.94l-2.034,0.289L7.474,8.363L6.856,8.071h0.352C7.124,7.298,7.011,6.705,6.957,5.932
			l0,0C6.953,5.911,6.924,5.397,6.92,5.179C6.882,4.94,6.769,4.85,6.405,4.596C6.201,4.475,6.054,4.428,5.977,4.428
			c-0.132,0-0.252,0.146-0.28,0.586c0.582,0.098,0.621,0.743,0.621,0.743c0.052,0.455-0.175,1.125-0.691,1.299
			C4.674,7.372,4.766,5.533,5.307,5.088C5.322,4.556,5.47,4.07,5.977,4.049c0.205,0,0.409,0.086,0.641,0.235
			c0.107,0.069,0.203,0.132,0.278,0.21c-0.007-0.18-0.014-0.359-0.014-0.546c0-0.39,0.059-0.804,0.403-1.104
			C7.46,2.68,7.656,2.59,7.858,2.594c0.51,0.031,0.819,0.469,1.009,0.918c0.212-0.096,0.48-0.139,0.785-0.029
			c0.788,0.265,1.218,1.643,0.891,2.114c-0.781,1.118-2.731-0.951-2.221-1.68c0,0,0.081-0.094,0.212-0.207
			c-0.155-0.398-0.455-0.75-0.68-0.73c-0.089,0-0.195,0.029-0.318,0.143C7.319,3.321,7.259,3.59,7.259,3.949
			c0,0.253,0.033,0.535,0.033,0.812c0,0.147,0.008,0.276,0.012,0.418c0.038,0.249,0.038,0.435,0.038,0.703
			c0.058,0.769,0.36,1.399,0.448,2.19h6.388V8.071z M8.674,3.866l1.484,1.611c-0.265-1.142-1.2-1.778-1.2-1.778L8.674,3.866z
			 M5.612,5.248l-0.264,0.11c0,0-0.131,0.901,0,1.371L5.612,5.248z M4.291,10.68l1.175-0.704l1.222-1.516l-0.379-0.39H3.602
			L3.064,9.151L4.291,10.68z M5.656,10.434l-2.077,1.422l0.27,0.342H8.64l-0.009-0.064L5.656,10.434z M1.377,8.071v1.633
			l1.328-0.716l0.409-0.92H1.377V8.071z M10.471,9.577l1.292,1.88l2.415,0.569V9.878l-1.74-0.56L10.471,9.577z M14.178,9.408V8.655
			l-1.356,0.361L14.178,9.408z M2.744,9.518l-1.367,0.647v2.032h0.999l1.491-1.217L2.744,9.518z M9.902,12.198h3.129l-1.489-0.356
			L9.902,12.198z"/>
		<path id="CycloneGroup" display="inline" fill="#FFFFFF" d="M7.824,3.67c-0.068,0-0.133-0.008-0.2-0.008
			c-0.587,0-1.137,0.152-1.612,0.415c0.854-2.912,2.99-3.172,2.99-3.172S4.278,1.306,4.278,6.818c0.004,0,0.004,0,0.009,0
			c0,0.063-0.005,0.125-0.005,0.196c0,0.582,0.151,1.139,0.417,1.621c-2.918-0.862-3.17-2.998-3.17-2.998s0.397,4.725,5.912,4.725
			c0-0.002,0-0.002,0-0.011c0.065,0.005,0.125,0.011,0.193,0.011c0.588,0,1.137-0.148,1.618-0.418
			c-0.863,2.921-3.002,3.172-3.002,3.172s4.73-0.396,4.73-5.912c-0.009,0-0.009,0-0.009,0c0-0.065,0.009-0.132,0.009-0.195
			c0-0.59-0.148-1.141-0.418-1.621c2.916,0.856,3.178,2.998,3.178,2.998s-0.395-4.722-5.914-4.722
			C7.824,3.667,7.824,3.67,7.824,3.67z"/>
		<path id="eruptionGroup" display="inline" fill="#FFFFFF" d="M8.558,4.733c0.706,0.242,1.639,0.523,1.843-0.609
			c0.155-0.89,1.327-0.561,1.828-0.612c0.913-0.109,0.226-1.816-0.914-1.838c-1.156-0.028-1.68,0.483-2.149,1.53
			c-0.21,0.503-0.399,0.882-1.218,0.613c-0.815-0.274-1.42,0.398-0.92,1.225c0.438,0.734-0.009,1.529-0.009,1.529h1.236
			c0,0-0.008-0.444-0.308-0.914C7.601,5.109,7.84,4.486,8.558,4.733z M2.03,12.351c3.173-2.312,3.966-5.499,3.966-5.499h3.251
			c0,0,0.789,3.188,3.958,5.499H2.03z"/>
		<path id="tsunamiGroup" display="inline" fill="#FFFFFF" d="M13.571,10.9c-9.736,0.554-7.01-6.886-4.492-6.245
			c-0.26,0.16-0.424,0.707-0.268,1.069c0.175,0.402,0.75,0.623,1.08,0.539c0.776-0.199,0.811-1.292,0.534-1.877
			c-0.297-0.593-1.07-1.339-2.422-1.339c-3.249,0-5.481,1.663-6.315,4.519v4.208h11.882V10.9z"/>
		<path id="epidemieGroup" display="inline" fill="#FFFFFF" d="M12.705,7.504c0-2.783-2.178-5.044-4.919-5.183
			c1.213,0.11,2.157,0.996,2.157,2.065c0,0.367-0.126,0.705-0.321,1.006C9.075,4.853,8.332,4.523,7.505,4.523
			c-0.82,0-1.567,0.33-2.106,0.869c-0.188-0.3-0.312-0.639-0.312-1.006c0-1.069,0.934-1.952,2.154-2.065
			C4.499,2.466,2.32,4.725,2.32,7.504c0,0.833,0.207,1.628,0.56,2.328C2.393,8.735,2.686,7.5,3.602,6.976
			c0.321-0.185,0.672-0.254,1.034-0.238C4.563,6.988,4.521,7.242,4.521,7.51c0,1.381,0.941,2.533,2.221,2.877
			c-0.026,0.028-0.051,0.055-0.066,0.089v0.006c-0.043,0.089-0.091,0.171-0.156,0.237c-0.139,0.181-0.294,0.34-0.5,0.454
			c-0.915,0.528-2.137,0.164-2.849-0.816c0.929,1.411,2.521,2.345,4.34,2.345c1.796,0,3.373-0.913,4.318-2.302
			c-0.724,0.947-1.92,1.299-2.829,0.775c-0.321-0.187-0.55-0.462-0.71-0.788c1.27-0.343,2.203-1.499,2.203-2.877
			c0-0.265-0.037-0.519-0.097-0.769c0.359-0.02,0.714,0.05,1.034,0.238c0.889,0.512,1.195,1.687,0.758,2.756
			C12.516,9.061,12.705,8.303,12.705,7.504z M8.059,9.503C8.035,9.067,8.132,8.62,8.345,8.186L8.003,7.988
			C7.879,8.121,7.7,8.199,7.512,8.199c-0.197,0-0.373-0.08-0.501-0.208L6.676,8.182c0.22,0.433,0.308,0.885,0.283,1.324
			C6.08,9.26,5.429,8.469,5.429,7.512c0-0.185,0.033-0.355,0.077-0.52C5.89,7.185,6.241,7.49,6.503,7.886l0.353-0.203
			c-0.018-0.059-0.039-0.117-0.039-0.18c0-0.324,0.22-0.586,0.522-0.66V6.443c-0.483-0.035-0.916-0.18-1.277-0.417
			c0.367-0.366,0.883-0.593,1.443-0.593c0.56,0,1.083,0.234,1.457,0.6C8.593,6.27,8.16,6.417,7.683,6.45v0.4
			c0.292,0.078,0.516,0.335,0.516,0.658c0,0.063-0.018,0.122-0.032,0.175l0.353,0.199C8.778,7.486,9.13,7.185,9.509,6.99
			C9.55,7.157,9.588,7.324,9.588,7.504C9.584,8.469,8.937,9.256,8.059,9.503z"/>
		<path id="earthquakeGroup" display="inline" fill="#FFFFFF" d="M11.087,7.38c-0.162,0-0.319,0.093-0.396,0.245l-0.649,1.214
			L9.246,6.497C9.181,6.322,9.017,6.2,8.831,6.194C8.635,6.19,8.471,6.3,8.403,6.475L7.854,7.768L6.988,2.583
			C6.95,2.368,6.74,2.204,6.536,2.215c-0.228,0.008-0.412,0.153-0.44,0.371L5.334,8.596L4.71,5.374
			c-0.032-0.187-0.189-0.336-0.384-0.36C4.139,4.99,3.952,5.088,3.858,5.259l-1.015,2.12H1.276v0.899h1.859
			c0.172,0,0.332-0.092,0.408-0.252L4.091,6.89l0.879,4.582c0.044,0.206,0.233,0.359,0.44,0.359c0.009,0,0.013,0,0.016,0
			c0.223-0.006,0.407-0.17,0.436-0.391L6.613,5.53l0.632,3.885c0.034,0.204,0.189,0.352,0.391,0.38
			C7.84,9.811,8.026,9.704,8.102,9.521l0.676-1.606l0.754,2.211c0.063,0.17,0.21,0.281,0.388,0.299
			c0.184,0.01,0.353-0.079,0.435-0.239l1.012-1.909h1.933V7.38H11.087z"/>
	</g>
	<g id="ModereGroup">
		<path id="returnedGroup" fill="#FFFFFF" d="M7.772,2.431C7.864,3.035,7.46,3.601,6.856,3.702C6.252,3.804,5.676,3.395,5.585,2.79
			c-0.1-0.605,0.304-1.175,0.911-1.274C7.1,1.416,7.667,1.825,7.772,2.431z M7.423,6.82l0.98,1.571
			C8.546,8.614,8.832,8.678,9.06,8.55c0.225-0.138,0.297-0.412,0.171-0.648L8.986,7.454C8.769,7.068,8.558,6.681,8.345,6.295
			L7.904,5.502c-0.05-0.093-0.093-0.191-0.148-0.304c-0.268-0.563-0.688-1.44-1.611-1.359C5.36,3.904,4.559,4.281,3.77,4.948
			C2.835,5.688,2.18,6.75,2.161,6.801C2.132,6.848,2.099,6.891,2.079,6.937L2.072,6.942l0,0c-0.086,0.167-0.13,0.316-0.024,0.511
			C2.136,7.597,2.3,7.698,2.471,7.698c0.21,0,0.317-0.1,0.417-0.25l0,0l0,0c0.027-0.047,0.058-0.093,0.088-0.141
			c0.007-0.007,0.555-0.89,1.398-1.606C4.638,5.495,4.89,5.354,5.122,5.275L4.933,7.555C4.914,7.778,4.841,8.171,4.781,8.391
			L4.358,9.878c-0.052,0.187-0.215,0.499-0.344,0.646l-1.138,1.417c-0.148,0.188-0.313,0.389-0.181,0.675
			c0.084,0.169,0.252,0.27,0.44,0.27c0.218,0,0.339-0.13,0.493-0.293l1.159-1.247c0.208-0.223,0.475-0.613,0.603-0.883L5.97,9.291
			l2.127,3.576c0.101,0.175,0.246,0.398,0.53,0.398l0,0c0.164,0,0.314-0.089,0.412-0.227c0.146-0.234,0.042-0.452-0.042-0.641
			L7.271,8.655C7.208,8.51,7.172,8.21,7.191,8.052L7.423,6.82z M14.594,7.621c0-1.565-1.273-2.831-2.833-2.831h-1.204v1.425h1.206
			c0.769,0,1.402,0.628,1.402,1.405c0,0.765-0.622,1.402-1.402,1.402H11.51V8.255L8.948,9.733l2.563,1.48v-0.762h0.281l0,0
			C13.336,10.427,14.594,9.171,14.594,7.621z"/>
	</g>
	<g id="ImportantGroup" display="none">
		<path id="enlevementGroup" display="inline" fill="#FFFFFF" d="M13.055,0.51c-0.384,0-0.684,0.308-0.684,0.688V3.99
			c0.169,0.035,0.325,0.102,0.459,0.231c0.359,0.355,0.365,0.945,0.014,1.303l-1.303,1.338l-0.178-0.175l1.303-1.331
			c0.253-0.273,0.247-0.7-0.018-0.96c-0.08-0.082-0.178-0.141-0.289-0.167c-0.111-0.032-0.227-0.032-0.335-0.009
			c-0.133,0.026-0.241,0.093-0.325,0.187c-0.774,0.792-1.546,1.585-2.321,2.38C9.181,6.984,8.831,7.43,8.837,7.89
			c0.011,0.426,0,0.861,0,1.291c-0.1-0.086-0.219-0.138-0.358-0.166c-0.4-0.069-0.754,0.174-0.892,0.526H7.388
			c0-0.094,0-0.194,0-0.292c0.009-0.439-0.007-0.91,0-1.356c0.016-0.454-0.342-0.907-0.532-1.098C6.08,5.994,5.314,5.2,4.539,4.405
			C4.45,4.315,4.333,4.248,4.212,4.222C4.099,4.194,3.984,4.197,3.868,4.229C3.764,4.255,3.661,4.315,3.583,4.397
			c-0.268,0.262-0.276,0.687-0.02,0.961l1.305,1.331L4.694,6.864L3.392,5.525C3.04,5.167,3.047,4.577,3.407,4.222
			C3.541,4.098,3.693,4.031,3.857,3.99V1.198c0-0.38-0.311-0.688-0.686-0.688c-0.384,0-0.688,0.308-0.688,0.688v4.834
			c0,0.161,0.065,0.304,0.157,0.422l2.337,3.08H4.773c-0.454,0-0.821,0.369-0.821,0.831c0,0.304,0.168,0.555,0.416,0.699
			c-0.244,0.147-0.416,0.401-0.416,0.694c0,0.458,0.367,0.827,0.821,0.827h0.251v0.46h2.295c0.12,0.121,0.261,0.207,0.428,0.239
			c0.052,0.016,0.091,0.019,0.141,0.019c0.407,0,0.751-0.29,0.819-0.688v-0.025h0.148c0,0.149,0,0.304,0.016,0.458H11.2v-0.458
			h0.249c0.449,0,0.825-0.369,0.825-0.824c0-0.298-0.171-0.561-0.418-0.702c0.247-0.146,0.418-0.396,0.418-0.699
			c0-0.456-0.376-0.826-0.825-0.826h-0.2l2.334-3.081c0.098-0.121,0.158-0.261,0.158-0.422V1.205
			C13.741,0.817,13.434,0.51,13.055,0.51z M4.358,10.365c0-0.228,0.188-0.408,0.415-0.408h2.71l-0.146,0.827H4.771
			C4.547,10.775,4.358,10.592,4.358,10.365z M4.358,11.766c0-0.231,0.188-0.419,0.415-0.419H7.24L7.1,12.179H4.773
			C4.547,12.179,4.358,11.998,4.358,11.766z M8.295,12.544c-0.036,0.226-0.276,0.37-0.477,0.339
			c-0.11-0.016-0.204-0.078-0.268-0.169c-0.063-0.09-0.083-0.198-0.067-0.313l0.454-2.645c0.037-0.197,0.208-0.342,0.411-0.342
			c0.026,0,0.05,0,0.069,0.003c0.229,0.048,0.379,0.254,0.336,0.482L8.295,12.544z M11.87,11.766c0,0.231-0.181,0.413-0.412,0.413
			H8.773l0.142-0.832h2.543C11.679,11.351,11.87,11.54,11.87,11.766z M11.87,10.365c0,0.227-0.181,0.412-0.412,0.412h-2.44
			l0.14-0.802c0-0.007,0-0.015,0-0.018h2.301C11.679,9.957,11.87,10.142,11.87,10.365z"/>
	</g>
	<g id="EleveGroup" display="none">
		<path id="attackGroup" display="inline" fill="#FFFFFF" d="M10.83,7.958L14,5.919l-3.067-0.323l0.837-3.556L9.598,4.289
			L8.986,1.743L8.079,4.114L5.592,0.912l0.78,4.012L4.163,4.432c0,0,0.672,1.284,1.046,2.061L1.665,6.244l3.209,1.875L3.954,9.061
			l1.488-0.268l-1.05,3.732L7.527,9.9l0.818,2.035l0.836-1.619l2.705,2.79l-1.359-3.744l2.975,0.305L10.83,7.958z"/>
	</g>
	<g id="ExtremeGroup" display="none">
		<path id="rebelionGroup" display="inline" fill="#FFFFFF" d="M10.037,3.223c0,1.293-1.053,2.338-2.337,2.338
			c-1.294,0-2.344-1.045-2.344-2.338c0-1.295,1.048-2.337,2.344-2.337C8.986,0.885,10.037,1.927,10.037,3.223z M3.795,13.136h1.423
			h0.079l0.055-0.108l0.517-0.51l-0.487-0.104l-0.751-0.161L3.795,13.136z M13.574,3.655l-0.499,0.504l0.031,0.035l-0.409,0.402
			c0.058,0.054,0.109,0.106,0.155,0.164l0.41-0.411l0.081,0.076l0.494-0.504L13.574,3.655z M10.346,6.248l-0.218,0.219l0.025,0.058
			l0.052,0.116l-3.408,3.416l0.361,0.086c0.339,0.071,0.627,0.267,0.82,0.564c0.029,0.039,0.034,0.088,0.052,0.131l0.008-0.012
			l0.252,0.163l0.087-0.02l0.991,0.723l0.672-0.915L8.558,9.619l0.038-0.098H8.85l1.449-1.706l0.163-1.524L10.346,6.248z
			 M11.934,4.737c-0.449-0.046-0.875,0.285-0.923,0.742l-0.063,0.499l0,0l-0.032,0.359l-0.164,1.526l-0.017,0.144L10.65,8.112
			L9.347,9.647l0.977,0.76l0.359,0.279l-0.212,0.28l0.056,0.098c0.132,0.292,0.429,0.471,0.747,0.471c0.047,0,0.095,0,0.142-0.011
			c0.368-0.059,0.649-0.359,0.685-0.731l0.566-5.142C12.718,5.198,12.385,4.787,11.934,4.737z M10.229,11.309l-0.478,0.654
			l-0.271,0.374L9.1,12.062l-0.822-0.594l-0.07,0.017l-0.033-0.017c0,0.071,0,0.136-0.02,0.207
			c-0.012,0.065-0.034,0.133-0.064,0.196c-0.047,0.12-0.12,0.218-0.194,0.323l0.06,0.134c0.054,0.131,0.135,0.3,0.227,0.451
			l0.235,0.356h1.754L10.229,11.309z M6.889,12.701c-0.016,0-0.04-0.003-0.064-0.003c0,0.03-0.008,0.053-0.008,0.053l0.2,0.386
			h0.472l0.308-0.108c-0.106-0.161-0.191-0.338-0.27-0.516C7.332,12.624,7.125,12.701,6.889,12.701z M7.576,10.933
			c-0.031-0.05-0.088-0.092-0.134-0.131c-0.025-0.03-0.045-0.067-0.086-0.086c-0.08-0.059-0.187-0.109-0.293-0.134L6.702,10.51
			l-0.836-0.176l0,0l-0.739-0.162l-0.286-0.056l-0.466-0.104l-0.033-0.005l0.08-0.08l0.32-0.319l0.339-0.337
			c0.027,0.238,0.04,0.416,0.04,0.423l0.111,0.021l1.031,0.223l0.212-0.215l3.19-3.198L9.588,6.344l0.024-0.02
			C9.153,6.19,8.61,6.099,7.922,6.099H7.7H7.476c-0.483,0-0.968,0.04-1.442,0.142C5.21,6.427,4.703,7.231,4.151,7.778
			c-0.579,0.568-1.14,1.158-1.697,1.743c-0.127,0.134-0.25,0.265-0.38,0.39c-0.212,0.223-0.294,0.541-0.212,0.833
			c0.088,0.291,0.326,0.509,0.631,0.58l1.103,0.238l0.467,0.098l2.654,0.563c0.059,0.011,0.116,0.02,0.171,0.02
			c0.386,0,0.737-0.265,0.82-0.663c0.031-0.157,0.009-0.293-0.04-0.434L7.62,11.037C7.603,11.006,7.587,10.977,7.576,10.933z
			 M6.405,12.98l-0.081-0.153L6.37,12.66l0.002-0.031L6.24,12.591l-0.464,0.546h0.711L6.405,12.98z"/>
	</g>
	<path id="displacedGroup" display="none" fill="#FFFFFF" d="M7.767,2.431c0.098,0.604-0.311,1.169-0.911,1.271
		c-0.604,0.106-1.18-0.307-1.273-0.905C5.487,2.189,5.89,1.614,6.499,1.521C7.1,1.416,7.667,1.828,7.767,2.431z M7.423,6.826
		l0.98,1.565C8.546,8.614,8.832,8.683,9.06,8.55c0.225-0.135,0.297-0.412,0.171-0.648L8.986,7.456
		c-0.22-0.389-0.428-0.775-0.647-1.158L7.904,5.502c-0.05-0.093-0.095-0.191-0.148-0.304C7.488,4.635,7.068,3.762,6.145,3.839
		c-0.789,0.07-1.59,0.45-2.375,1.117C2.84,5.689,2.185,6.75,2.165,6.805c-0.031,0.043-0.065,0.09-0.085,0.132c0,0,0,0-0.007,0.005
		l0,0c-0.086,0.167-0.13,0.316-0.024,0.511C2.136,7.597,2.3,7.694,2.471,7.694c0.21,0,0.317-0.102,0.419-0.25l0,0l0,0
		c0.032-0.043,0.062-0.09,0.088-0.137c0.004-0.007,0.552-0.893,1.403-1.606c0.256-0.205,0.506-0.344,0.74-0.418L4.933,7.555
		C4.914,7.778,4.841,8.171,4.781,8.391L4.358,9.878c-0.052,0.182-0.215,0.499-0.336,0.646l-1.146,1.417
		c-0.148,0.188-0.313,0.389-0.181,0.675c0.084,0.169,0.252,0.27,0.44,0.27c0.218,0,0.339-0.13,0.493-0.293l1.159-1.247
		c0.208-0.223,0.475-0.613,0.612-0.883l0.575-1.172l2.127,3.576c0.105,0.175,0.241,0.398,0.529,0.398l0,0
		c0.163,0,0.316-0.089,0.408-0.224c0.154-0.237,0.047-0.451-0.042-0.646l-1.731-3.74C7.201,8.51,7.168,8.21,7.191,8.052L7.423,6.826
		z M9.223,10.717h2.573v0.766L14.368,10l-2.571-1.478v0.769H9.223V10.717z"/>
</g>
</svg>
