<?xml version="1.0" encoding="utf-8"?>
<!-- Generator: Adobe Illustrator 16.0.0, SVG Export Plug-In . SVG Version: 6.00 Build 0)  -->
<!DOCTYPE svg PUBLIC "-//W3C//DTD SVG 1.1//EN" "http://www.w3.org/Graphics/SVG/1.1/DTD/svg11.dtd">
<svg version="1.1" id="Groupe" xmlns="http://www.w3.org/2000/svg" xmlns:xlink="http://www.w3.org/1999/xlink" x="0px" y="0px"
	 width="15.871px" height="15.65px" viewBox="0 0 15.871 15.65" enable-background="new 0 0 15.871 15.65" xml:space="preserve">
<g id="PinColor_1_">
	<path id="vert" fill="#2ABF00" stroke="#1D7500" stroke-width="0.2" stroke-miterlimit="10" d="M15.357,7.878
		c0,3.392-2.428,6.234-5.703,6.989c-0.55,0.121-2.928,0.121-3.495-0.021c-3.241-0.768-5.645-3.596-5.645-6.971
		c0-3.958,3.325-7.179,7.421-7.179C12.029,0.696,15.357,3.918,15.357,7.878z"/>
	<path id="orange" display="none" fill="#FF8500" stroke="#7F4500" stroke-width="0.2" stroke-miterlimit="10" d="M15.357,7.878
		c0,3.392-2.428,6.234-5.703,6.989c-0.55,0.121-2.928,0.121-3.495-0.021c-3.241-0.768-5.645-3.596-5.645-6.971
		c0-3.958,3.325-7.179,7.421-7.179C12.029,0.696,15.357,3.918,15.357,7.878z"/>
	<path id="gris" display="none" fill="#A5A5A5" stroke="#595959" stroke-width="0.2" stroke-miterlimit="10" d="M15.357,7.878
		c0,3.392-2.428,6.234-5.703,6.989c-0.55,0.121-2.928,0.121-3.495-0.021c-3.241-0.768-5.645-3.596-5.645-6.971
		c0-3.958,3.325-7.179,7.421-7.179C12.029,0.696,15.357,3.918,15.357,7.878z"/>
	<path id="bleu" display="none" fill="#0092FF" stroke="#00477C" stroke-width="0.2" stroke-miterlimit="10" d="M15.357,7.878
		c0,3.392-2.428,6.234-5.703,6.989c-0.55,0.121-2.928,0.121-3.495-0.021c-3.241-0.768-5.645-3.596-5.645-6.971
		c0-3.958,3.325-7.179,7.421-7.179C12.029,0.696,15.357,3.918,15.357,7.878z"/>
</g>
<g id="IconsGroup">
	<g id="MinimalGroup" display="none">
		<path id="ElectionGroup" display="inline" fill="#565656" d="M13.578,2.613L10.14,1.144c-0.097-0.042-0.222-0.015-0.284,0.07
			L8.871,2.442C8.827,2.49,8.81,2.576,8.827,2.647c0.016,0.073,0.06,0.126,0.126,0.156L5.874,3.964
			c-0.258,0.089-0.482,0.27-0.624,0.51L4.23,6.172C4.015,6.531,3.996,6.973,4.186,7.348l0.077,0.143H3.187
			c-0.137,0-0.244,0.112-0.244,0.247v4.653H2.207c-0.134,0-0.239,0.111-0.239,0.242c0,0.135,0.11,0.246,0.239,0.246h8.326
			c0.137,0,0.243-0.111,0.243-0.246c0-0.131-0.106-0.242-0.243-0.242H9.799v-2.5c0-0.078-0.044-0.163-0.106-0.203
			C9.622,9.638,9.53,9.632,9.451,9.671c-0.267,0.126-0.47,0.188-0.562,0.22c-0.019,0-0.039,0.011-0.054,0.023l-1.599,0.954
			c-0.255,0.15-0.543,0.235-0.834,0.235c-0.552,0-1.045-0.271-1.356-0.731c-0.253-0.366-0.34-0.81-0.244-1.243
			c0.092-0.43,0.35-0.803,0.715-1.038l0.235-0.15c0.171-0.1,0.323-0.193,0.455-0.28c0.096-0.055,0.134-0.173,0.104-0.281
			C6.254,7.185,6.156,7.01,6.055,6.876c0.375-0.16,0.88-0.453,1.139-0.749l0,0C7.246,6.16,7.31,6.196,7.378,6.23
			c0.007,0,0.007,0,0.016,0.004l0,0c0.178,0.089,0.406,0.178,0.675,0.23C7.784,6.821,7.497,7.259,7.385,7.548
			C7.196,7.641,6.77,7.87,5.787,8.501C5.524,8.666,5.345,8.929,5.285,9.232c-0.064,0.302-0.008,0.608,0.167,0.869
			c0.224,0.33,0.577,0.512,0.95,0.512c0.2,0,0.398-0.06,0.583-0.163L8.67,9.437c0.258-0.063,1.568-0.456,2.563-2.061
			c0.78-1.257,1.216-2.267,1.394-2.727l0.029,0.015c0.104,0.044,0.224,0.081,0.328,0.081c0.197,0,0.386-0.081,0.518-0.211
			c0.144-0.138,0.222-0.326,0.222-0.527V2.838C13.718,2.738,13.666,2.647,13.578,2.613z"/>
	</g>
	<g id="FaibleGroup" display="none">
		<path id="FamineGroup" display="inline" fill="#F9F9F9" d="M11.032,11.24l-1.864,0.353L6.132,9.934l1.105-1.371l2.481,0.824
			L11.032,11.24z M13.889,8.008v0.21l-1.961,0.619L9.997,9.11L7.511,8.286L6.925,8.008h0.336C7.181,7.273,7.074,6.709,7.023,5.974
			l0,0C7.019,5.957,6.99,5.467,6.986,5.258C6.949,5.032,6.841,4.947,6.497,4.707c-0.194-0.115-0.335-0.16-0.407-0.16
			c-0.126,0-0.239,0.137-0.268,0.556c0.555,0.092,0.59,0.704,0.59,0.704c0.05,0.435-0.168,1.068-0.657,1.236
			C4.851,7.344,4.938,5.595,5.452,5.174C5.467,4.67,5.607,4.205,6.09,4.187c0.193,0,0.388,0.083,0.608,0.223
			c0.103,0.068,0.194,0.127,0.267,0.201C6.957,4.439,6.949,4.269,6.949,4.09c0-0.372,0.056-0.765,0.384-1.051
			C7.5,2.883,7.685,2.799,7.878,2.802c0.484,0.029,0.78,0.446,0.959,0.871c0.198-0.088,0.456-0.129,0.746-0.025
			C10.333,3.9,10.741,5.21,10.43,5.659C9.686,6.72,7.834,4.753,8.32,4.06c0,0,0.077-0.089,0.202-0.195
			C8.374,3.485,8.088,3.152,7.875,3.169c-0.084,0-0.185,0.03-0.304,0.138C7.366,3.493,7.309,3.747,7.309,4.09
			c0,0.24,0.031,0.507,0.031,0.77c0,0.142,0.007,0.264,0.011,0.396c0.037,0.239,0.037,0.417,0.037,0.669
			C7.44,6.656,7.731,7.258,7.813,8.008H13.889z M8.656,4.011l1.412,1.534C9.815,4.458,8.926,3.852,8.926,3.852L8.656,4.011z
			 M5.743,5.326L5.492,5.43c0,0-0.123,0.857,0,1.302L5.743,5.326z M4.487,10.491l1.117-0.672L6.765,8.38L6.406,8.008H3.833
			L3.321,9.036L4.487,10.491z M5.787,10.257L3.81,11.607l0.258,0.327h4.558l-0.011-0.063L5.787,10.257z M1.716,8.008v1.553
			l1.262-0.679l0.39-0.875H1.716z M10.363,9.441l1.228,1.788l2.299,0.542V9.727l-1.656-0.531L10.363,9.441z M13.889,9.28V8.563
			L12.598,8.91L13.889,9.28z M3.016,9.385l-1.3,0.617v1.933h0.95l1.417-1.157L3.016,9.385z M9.821,11.934h2.977l-1.417-0.342
			L9.821,11.934z"/>
		<path id="CycloneGroup" display="inline" fill="#FFFFFF" d="M7.845,3.826c-0.064,0-0.126-0.007-0.189-0.007
			c-0.559,0-1.08,0.145-1.533,0.393c0.812-2.769,2.841-3.017,2.841-3.017S4.475,1.578,4.475,6.817c0.002,0,0.002,0,0.009,0
			c0,0.059-0.005,0.118-0.005,0.186c0,0.551,0.145,1.084,0.395,1.539C2.1,7.722,1.86,5.692,1.86,5.692s0.376,4.492,5.621,4.492
			c0-0.004,0-0.004,0-0.01c0.06,0.004,0.118,0.01,0.185,0.01c0.559,0,1.082-0.143,1.54-0.396c-0.822,2.777-2.856,3.018-2.856,3.018
			s4.499-0.378,4.499-5.621c-0.007,0-0.007,0-0.007,0c0-0.063,0.007-0.126,0.007-0.185c0-0.56-0.143-1.085-0.399-1.541
			c2.772,0.813,3.021,2.849,3.021,2.849S13.094,3.82,7.845,3.82C7.845,3.822,7.845,3.826,7.845,3.826z"/>
		<path id="tsunamiGroup" display="inline" fill="#FFFFFF" d="M13.31,10.7c-9.257,0.526-6.665-6.547-4.271-5.938
			C8.791,4.913,8.634,5.434,8.786,5.777C8.953,6.16,9.498,6.366,9.812,6.289c0.738-0.19,0.771-1.228,0.508-1.786
			c-0.284-0.562-1.019-1.271-2.305-1.271c-3.089,0-5.209,1.582-6.003,4.297v4H13.31V10.7z"/>
		<path id="earthquakeGroup" display="inline" fill="#FFFFFF" d="M10.95,7.352c-0.155,0-0.305,0.088-0.379,0.234L9.957,8.739
			L9.198,6.514c-0.063-0.167-0.217-0.282-0.396-0.29C8.618,6.219,8.461,6.323,8.397,6.49L7.875,7.722L7.052,2.791
			C7.014,2.587,6.817,2.431,6.624,2.442C6.406,2.45,6.231,2.587,6.205,2.795L5.479,8.51L4.888,5.445
			C4.855,5.267,4.706,5.125,4.52,5.103C4.342,5.081,4.165,5.174,4.076,5.337L3.111,7.352h-1.49v0.857h1.768
			c0.164,0,0.316-0.088,0.389-0.241l0.52-1.08l0.837,4.354c0.041,0.197,0.221,0.341,0.418,0.341c0.007,0,0.011,0,0.015,0
			c0.211-0.001,0.386-0.156,0.411-0.368l0.715-5.624l0.6,3.698c0.034,0.192,0.183,0.334,0.374,0.359
			c0.193,0.016,0.371-0.086,0.443-0.26L8.753,7.86l0.715,2.105c0.06,0.157,0.201,0.266,0.371,0.282
			c0.175,0.01,0.333-0.076,0.411-0.229l0.962-1.813h1.837V7.352H10.95z"/>
	</g>
	<g id="ImportantGroup" display="none">
		<path id="enlevementGroup" display="inline" fill="#FFFFFF" d="M12.822,0.82c-0.366,0-0.654,0.292-0.654,0.653v2.657
			c0.163,0.034,0.313,0.097,0.438,0.219c0.341,0.337,0.35,0.897,0.016,1.238L11.38,6.861l-0.171-0.167l1.239-1.265
			c0.241-0.26,0.239-0.666-0.016-0.915c-0.076-0.076-0.169-0.131-0.272-0.159c-0.108-0.029-0.216-0.029-0.32-0.006
			c-0.127,0.026-0.229,0.089-0.311,0.177c-0.735,0.754-1.471,1.508-2.205,2.265C9.135,6.977,8.802,7.401,8.81,7.839
			c0.008,0.404,0,0.818,0,1.228C8.716,8.984,8.603,8.932,8.468,8.909C8.088,8.84,7.751,9.071,7.621,9.408H7.432
			c0-0.087,0-0.187,0-0.278c0.007-0.42-0.008-0.866,0-1.291c0.015-0.43-0.326-0.862-0.507-1.043C6.189,6.035,5.46,5.281,4.724,4.525
			C4.64,4.439,4.529,4.376,4.412,4.35C4.304,4.323,4.194,4.327,4.085,4.356c-0.102,0.028-0.199,0.083-0.272,0.16
			C3.56,4.765,3.552,5.17,3.794,5.431l1.24,1.264L4.87,6.861L3.632,5.588C3.298,5.247,3.306,4.687,3.646,4.35
			c0.126-0.118,0.273-0.181,0.428-0.219V1.473c0-0.361-0.295-0.653-0.653-0.653c-0.364,0-0.653,0.292-0.653,0.653v4.598
			c0,0.152,0.061,0.289,0.147,0.4l2.223,2.928H4.945c-0.433,0-0.78,0.353-0.78,0.791c0,0.29,0.159,0.528,0.395,0.663
			c-0.233,0.143-0.395,0.384-0.395,0.662c0,0.438,0.347,0.786,0.78,0.786h0.239v0.438h2.182c0.113,0.115,0.248,0.196,0.406,0.229
			c0.05,0.012,0.088,0.015,0.134,0.015c0.388,0,0.713-0.274,0.78-0.652v-0.027h0.141c0,0.144,0,0.29,0.016,0.438h2.213v-0.438h0.235
			c0.426,0,0.785-0.35,0.785-0.783c0-0.282-0.159-0.53-0.398-0.668c0.239-0.136,0.398-0.374,0.398-0.664
			c0-0.434-0.359-0.787-0.785-0.787h-0.188l2.219-2.928c0.093-0.115,0.152-0.248,0.152-0.4V1.481
			C13.474,1.114,13.181,0.82,12.822,0.82z M4.55,10.19c0-0.216,0.18-0.39,0.395-0.39h2.578l-0.138,0.787h-2.44
			C4.73,10.579,4.55,10.405,4.55,10.19z M4.55,11.522c0-0.219,0.18-0.396,0.395-0.396h2.346l-0.134,0.79H4.945
			C4.73,11.916,4.55,11.741,4.55,11.522z M8.294,12.26c-0.034,0.215-0.263,0.354-0.453,0.321c-0.106-0.013-0.193-0.071-0.253-0.157
			c-0.061-0.083-0.081-0.19-0.065-0.298l0.432-2.515C7.99,9.423,8.153,9.285,8.347,9.285c0.024,0,0.046,0,0.064,0.004
			c0.218,0.044,0.359,0.243,0.32,0.458L8.294,12.26z M11.693,11.522c0,0.219-0.171,0.394-0.394,0.394H8.749l0.136-0.79h2.415
			C11.514,11.13,11.693,11.305,11.693,11.522z M11.693,10.19c0,0.214-0.171,0.395-0.394,0.395H8.981L9.11,9.819
			c0-0.004,0-0.011,0-0.015h2.189C11.514,9.801,11.693,9.978,11.693,10.19z"/>
	</g>
	<g id="EleveGroup" display="none">
		<path id="attackGroup" display="inline" fill="#FFFFFF" d="M10.704,7.901l3.013-1.937l-2.915-0.307l0.795-3.382L9.531,4.413
			l-0.578-2.42L8.089,4.245L5.724,1.202l0.742,3.814L4.365,4.551c0,0,0.639,1.222,0.997,1.959L1.99,6.272l3.052,1.783L4.168,8.95
			l1.415-0.251l-1,3.548l2.981-2.496l0.78,1.932l0.793-1.539l2.571,2.653l-1.293-3.562l2.828,0.291L10.704,7.901z"/>
	</g>
	<g id="ExtremeGroup" display="none">
		<path id="rebelionGroup" display="inline" fill="#FFFFFF" d="M9.947,3.4c0,1.228-0.999,2.222-2.218,2.222
			c-1.232,0-2.228-0.994-2.228-2.222c0-1.232,0.996-2.222,2.228-2.222C8.953,1.177,9.947,2.168,9.947,3.4z M4.015,12.825h1.354
			h0.076l0.052-0.104l0.492-0.483l-0.465-0.1l-0.713-0.151L4.015,12.825z M13.315,3.812L12.84,4.289l0.028,0.034l-0.392,0.383
			c0.055,0.053,0.105,0.098,0.149,0.154l0.389-0.389l0.079,0.072l0.467-0.479L13.315,3.812z M10.245,6.276l-0.209,0.207l0.023,0.057
			l0.053,0.111L6.869,9.897l0.346,0.084c0.322,0.064,0.598,0.25,0.779,0.532c0.027,0.036,0.034,0.085,0.051,0.126l0.007-0.011
			l0.239,0.156l0.083-0.021l0.943,0.688l0.64-0.867L8.545,9.483l0.036-0.094h0.24l1.377-1.621l0.156-1.452L10.245,6.276z
			 M11.753,4.839c-0.426-0.045-0.832,0.272-0.88,0.706l-0.058,0.474l0,0L10.788,6.36l-0.156,1.451l-0.015,0.138l-0.084,0.1
			L9.295,9.508l0.927,0.724l0.342,0.264l-0.201,0.268l0.051,0.091c0.128,0.278,0.41,0.449,0.715,0.449c0.042,0,0.086,0,0.132-0.012
			c0.351-0.055,0.616-0.341,0.652-0.694l0.536-4.891C12.501,5.277,12.183,4.887,11.753,4.839z M10.134,11.088l-0.453,0.624
			L9.42,12.064l-0.359-0.26L8.278,11.24L8.21,11.257L8.179,11.24c0,0.068,0,0.131-0.019,0.197C8.15,11.5,8.127,11.562,8.1,11.624
			c-0.044,0.114-0.114,0.207-0.185,0.307l0.056,0.127c0.053,0.126,0.129,0.285,0.216,0.43l0.225,0.338h1.67L10.134,11.088z
			 M6.957,12.413c-0.015,0-0.039-0.004-0.062-0.004c0,0.03-0.006,0.053-0.006,0.053l0.189,0.364h0.449l0.293-0.104
			c-0.099-0.153-0.18-0.319-0.257-0.49C7.378,12.34,7.181,12.413,6.957,12.413z M7.61,10.732c-0.029-0.049-0.083-0.089-0.127-0.126
			c-0.026-0.03-0.043-0.063-0.083-0.082c-0.075-0.056-0.177-0.104-0.281-0.126l-0.341-0.07l-0.793-0.167l0,0L5.281,10.01
			L5.011,9.957L4.567,9.858L4.536,9.853l0.077-0.081l0.305-0.3L5.24,9.149c0.025,0.227,0.039,0.398,0.039,0.402l0.106,0.023
			l0.979,0.211l0.201-0.203L9.598,6.54L9.524,6.368l0.023-0.019C9.11,6.219,8.593,6.134,7.94,6.134H7.729H7.516
			c-0.459,0-0.92,0.038-1.372,0.136c-0.782,0.177-1.266,0.94-1.79,1.46C3.803,8.271,3.27,8.831,2.741,9.387
			C2.622,9.513,2.504,9.641,2.377,9.759C2.176,9.969,2.1,10.27,2.176,10.549c0.083,0.279,0.312,0.487,0.601,0.555l1.048,0.226
			l0.445,0.094l2.523,0.536c0.057,0.009,0.11,0.015,0.164,0.015c0.367,0,0.7-0.248,0.779-0.63c0.03-0.149,0.009-0.278-0.039-0.408
			l-0.046-0.107C7.637,10.8,7.621,10.772,7.61,10.732z M6.497,12.677L6.42,12.533l0.043-0.159l0.004-0.03l-0.127-0.038L5.9,12.825
			h0.676L6.497,12.677z"/>
	</g>
	<path id="displacedGroup" display="none" fill="#FFFFFF" d="M7.791,2.647C7.884,3.221,7.497,3.76,6.924,3.855
		c-0.572,0.101-1.121-0.292-1.21-0.861C5.623,2.417,6.006,1.871,6.583,1.782C7.157,1.682,7.697,2.076,7.791,2.647z M7.465,6.825
		l0.931,1.487C8.53,8.524,8.802,8.591,9.019,8.465c0.214-0.127,0.282-0.394,0.164-0.615l-0.23-0.424
		c-0.211-0.37-0.407-0.737-0.616-1.103L7.921,5.567c-0.046-0.09-0.09-0.182-0.141-0.29C7.526,4.742,7.128,3.912,6.25,3.987
		C5.5,4.053,4.738,4.413,3.991,5.048C3.107,5.744,2.483,6.754,2.465,6.806c-0.03,0.041-0.061,0.085-0.08,0.126c0,0,0,0-0.008,0.003
		l0,0c-0.081,0.16-0.123,0.302-0.022,0.487C2.439,7.56,2.594,7.653,2.757,7.653c0.201,0,0.301-0.097,0.4-0.238l0,0l0,0
		c0.029-0.042,0.058-0.085,0.083-0.13c0.003-0.008,0.523-0.852,1.333-1.53C4.817,5.562,5.057,5.43,5.277,5.359l-0.18,2.16
		C5.08,7.73,5.011,8.105,4.953,8.312L4.55,9.727c-0.048,0.174-0.205,0.475-0.32,0.615l-1.09,1.348
		C3,11.869,2.844,12.06,2.969,12.333c0.081,0.16,0.239,0.255,0.419,0.255c0.208,0,0.325-0.122,0.468-0.278l1.102-1.188
		c0.197-0.211,0.451-0.583,0.582-0.838L6.085,9.17l2.025,3.399c0.099,0.167,0.227,0.378,0.504,0.378l0,0
		c0.153,0,0.301-0.083,0.387-0.211c0.147-0.226,0.046-0.431-0.039-0.615L7.317,8.563C7.253,8.427,7.223,8.142,7.244,7.989
		L7.465,6.825z M9.176,10.524h2.448v0.727l2.441-1.407l-2.441-1.405V9.17H9.176V10.524z"/>
	<path id="eruptionGroup" fill="#FFFFFF" d="M8.545,4.837c0.672,0.229,1.56,0.497,1.752-0.579c0.148-0.846,1.262-0.534,1.736-0.584
		c0.869-0.103,0.215-1.725-0.866-1.748C10.068,1.9,9.57,2.387,9.124,3.382C8.92,3.859,8.741,4.219,7.964,3.964
		c-0.775-0.26-1.352,0.377-0.875,1.165c0.417,0.698-0.007,1.455-0.007,1.455h1.174c0,0-0.006-0.422-0.292-0.867
		C7.633,5.192,7.861,4.602,8.545,4.837z M2.338,12.08c3.015-2.198,3.771-5.229,3.771-5.229h3.093c0,0,0.751,3.031,3.764,5.229H2.338
		z"/>
	<path id="returnedGroup" display="none" fill="#FFFFFF" d="M7.794,2.647C7.884,3.221,7.5,3.76,6.925,3.855
		C6.352,3.952,5.804,3.563,5.716,2.988c-0.094-0.575,0.29-1.117,0.867-1.21C7.157,1.682,7.697,2.072,7.794,2.647z M7.465,6.821
		l0.931,1.492C8.53,8.524,8.802,8.587,9.019,8.465c0.214-0.131,0.282-0.394,0.164-0.615l-0.23-0.428
		C8.745,7.055,8.545,6.687,8.344,6.32L7.921,5.567c-0.046-0.09-0.087-0.182-0.141-0.29c-0.254-0.535-0.652-1.37-1.53-1.291
		C5.504,4.049,4.741,4.405,3.991,5.04c-0.888,0.704-1.511,1.714-1.53,1.762c-0.026,0.045-0.057,0.085-0.076,0.13L2.377,6.936l0,0
		c-0.081,0.16-0.123,0.302-0.022,0.487C2.439,7.56,2.594,7.656,2.757,7.656c0.201,0,0.301-0.096,0.396-0.238l0,0l0,0
		C3.179,7.374,3.209,7.33,3.237,7.287c0.007-0.008,0.526-0.847,1.33-1.531c0.251-0.195,0.491-0.331,0.711-0.404L5.097,7.519
		C5.08,7.73,5.011,8.105,4.953,8.312L4.55,9.727c-0.048,0.178-0.205,0.475-0.327,0.615L3.142,11.69
		C3,11.869,2.845,12.06,2.97,12.333c0.08,0.16,0.239,0.255,0.419,0.255c0.208,0,0.324-0.122,0.468-0.278l1.102-1.188
		c0.196-0.211,0.45-0.583,0.574-0.838l0.55-1.114l2.024,3.399c0.096,0.167,0.23,0.378,0.503,0.378l0,0
		c0.155,0,0.298-0.083,0.391-0.216c0.14-0.221,0.04-0.43-0.039-0.607L7.32,8.563C7.262,8.427,7.227,8.142,7.244,7.989L7.465,6.821z
		 M14.28,7.582c0-1.488-1.207-2.69-2.692-2.69h-1.142v1.354h1.147c0.729,0,1.33,0.597,1.33,1.336c0,0.727-0.588,1.332-1.33,1.332
		h-0.241V8.182L8.915,9.59l2.438,1.411v-0.729h0.268l0,0C13.089,10.25,14.28,9.054,14.28,7.582z"/>
	<path id="epidemieGroup" display="none" fill="#FFFFFF" d="M12.486,7.47c0-2.645-2.07-4.794-4.676-4.927
		C8.962,2.648,9.859,3.49,9.859,4.506c0,0.349-0.118,0.672-0.307,0.957C9.034,4.951,8.328,4.635,7.541,4.635
		c-0.779,0-1.488,0.316-2.001,0.828C5.362,5.177,5.242,4.854,5.242,4.505c0-1.016,0.89-1.855,2.049-1.963
		C4.683,2.679,2.612,4.829,2.612,7.47c0,0.794,0.196,1.546,0.533,2.216C2.683,8.643,2.962,7.468,3.833,6.969
		c0.305-0.175,0.639-0.242,0.981-0.226C4.745,6.981,4.706,7.222,4.706,7.478c0,1.314,0.895,2.407,2.109,2.734
		c-0.021,0.026-0.045,0.053-0.062,0.084v0.006c-0.04,0.083-0.087,0.16-0.147,0.226c-0.132,0.172-0.279,0.324-0.474,0.431
		c-0.871,0.504-2.033,0.155-2.71-0.776c0.886,1.343,2.397,2.23,4.126,2.23c1.709,0,3.208-0.867,4.106-2.188
		c-0.688,0.901-1.825,1.234-2.688,0.738c-0.305-0.178-0.524-0.442-0.674-0.75c1.204-0.327,2.093-1.427,2.093-2.734
		c0-0.252-0.034-0.493-0.091-0.731c0.341-0.018,0.681,0.049,0.984,0.226c0.846,0.487,1.134,1.603,0.717,2.621
		C12.31,8.952,12.486,8.231,12.486,7.47z M8.069,9.37c-0.021-0.412,0.07-0.838,0.275-1.25L8.015,7.931
		C7.898,8.056,7.729,8.132,7.549,8.132c-0.186,0-0.354-0.076-0.476-0.198l-0.32,0.181c0.211,0.41,0.294,0.843,0.272,1.259
		C6.189,9.14,5.568,8.387,5.568,7.478c0-0.175,0.031-0.337,0.073-0.493c0.365,0.182,0.7,0.47,0.95,0.848l0.334-0.192
		C6.911,7.586,6.888,7.529,6.888,7.47c0-0.308,0.209-0.556,0.497-0.627V6.461c-0.46-0.035-0.87-0.17-1.216-0.396
		c0.35-0.349,0.84-0.564,1.372-0.564c0.533,0,1.031,0.223,1.386,0.571C8.579,6.297,8.165,6.433,7.712,6.468v0.379
		c0.278,0.074,0.492,0.32,0.492,0.627c0,0.06-0.017,0.115-0.031,0.168l0.335,0.189c0.246-0.379,0.581-0.664,0.943-0.85
		C9.488,7.139,9.524,7.3,9.524,7.47C9.521,8.387,8.905,9.136,8.069,9.37z"/>
</g>
</svg>
