<?xml version="1.0" encoding="utf-8"?>
<!-- Generator: Adobe Illustrator 16.0.0, SVG Export Plug-In . SVG Version: 6.00 Build 0)  -->
<!DOCTYPE svg PUBLIC "-//W3C//DTD SVG 1.1//EN" "http://www.w3.org/Graphics/SVG/1.1/DTD/svg11.dtd">
<svg version="1.1" id="Layer_1" xmlns="http://www.w3.org/2000/svg" xmlns:xlink="http://www.w3.org/1999/xlink" x="0px" y="0px"
	 width="33.35px" height="40px" viewBox="0 0 33.35 40" enable-background="new 0 0 33.35 40" xml:space="preserve">
<g id="PinColor">
	<path id="PinOmbre" opacity="0.3" enable-background="new    " d="M28.432,29.964c0,1.757-3.858,3.231-9.053,3.62
		c-0.876,0.066-2.729,4.189-2.729,4.189s-1.918-4.125-2.822-4.195c-5.142-0.396-8.958-1.867-8.958-3.614
		c0-2.058,5.275-3.726,11.78-3.726C23.156,26.238,28.432,27.904,28.432,29.964z"/>
	<path id="vert" display="none" fill="#2ABF00" stroke="#1D7500" stroke-width="0.2" stroke-miterlimit="10" d="M28.432,12.675
		c0,5.382-3.858,9.896-9.053,11.087c-0.875,0.199-2.728,12.818-2.728,12.818s-1.918-12.619-2.822-12.842
		c-5.142-1.221-8.958-5.714-8.958-11.067c0-6.293,5.275-11.394,11.78-11.394S28.432,6.382,28.432,12.675z"/>
	<path id="orange" display="none" fill="#FF8500" stroke="#7F4500" stroke-width="0.2" stroke-miterlimit="10" d="M28.432,12.675
		c0,5.382-3.858,9.896-9.053,11.087c-0.875,0.199-2.728,12.818-2.728,12.818s-1.918-12.619-2.822-12.842
		c-5.142-1.221-8.958-5.714-8.958-11.067c0-6.293,5.275-11.394,11.78-11.394S28.432,6.382,28.432,12.675z"/>
	<path id="gris" display="none" fill="#A5A5A5" stroke="#595959" stroke-width="0.2" stroke-miterlimit="10" d="M28.432,12.675
		c0,5.382-3.858,9.896-9.053,11.087c-0.875,0.199-2.728,12.818-2.728,12.818s-1.918-12.619-2.822-12.842
		c-5.142-1.221-8.958-5.714-8.958-11.067c0-6.293,5.275-11.394,11.78-11.394S28.432,6.382,28.432,12.675z"/>
	<path id="bleu" fill="#0092FF" stroke="#00477C" stroke-width="0.2" stroke-miterlimit="10" d="M28.432,12.675
		c0,5.382-3.858,9.896-9.053,11.087c-0.875,0.199-2.728,12.818-2.728,12.818s-1.918-12.619-2.822-12.842
		c-5.142-1.221-8.958-5.714-8.958-11.067c0-6.293,5.275-11.394,11.78-11.394S28.432,6.382,28.432,12.675z"/>
</g>
<g id="Icons">
	<g id="Minimal">
		<path id="Election" display="none" fill="#565656" d="M29.704-5.261l-4.849-2.078c-0.144-0.061-0.313-0.019-0.407,0.104
			l-1.387,1.731c-0.063,0.078-0.086,0.188-0.067,0.289c0.023,0.098,0.086,0.178,0.171,0.223l-4.344,1.631
			c-0.366,0.136-0.675,0.395-0.876,0.73l-1.438,2.396c-0.306,0.51-0.33,1.131-0.063,1.664l0.104,0.202h-1.516
			c-0.192,0-0.347,0.154-0.347,0.346v6.576h-1.04c-0.192,0-0.344,0.154-0.344,0.344c0,0.192,0.151,0.346,0.344,0.346h11.772
			c0.189,0,0.338-0.154,0.338-0.346c0-0.189-0.148-0.344-0.338-0.344h-1.042V5.017c0-0.118-0.063-0.231-0.159-0.292
			c-0.103-0.064-0.226-0.074-0.335-0.023c-0.382,0.179-0.661,0.271-0.793,0.31c-0.03,0.007-0.059,0.019-0.081,0.038L20.751,6.4
			c-0.358,0.217-0.766,0.33-1.184,0.33c-0.767,0-1.481-0.381-1.921-1.028c-0.349-0.52-0.468-1.147-0.338-1.756
			c0.129-0.611,0.493-1.134,1.014-1.469L18.65,2.27c0.241-0.146,0.453-0.28,0.646-0.397c0.134-0.084,0.194-0.245,0.149-0.395
			C19.36,1.2,19.213,0.952,19.082,0.763c0.525-0.231,1.243-0.643,1.602-1.061c0,0,0.005,0.002,0.007,0.002
			c0.074,0.046,0.162,0.095,0.264,0.144c0.007,0.002,0.01,0.005,0.019,0.007l0,0c0.258,0.124,0.586,0.249,0.961,0.323
			c-0.402,0.499-0.813,1.12-0.963,1.535c-0.287,0.126-0.882,0.464-2.272,1.351c-0.368,0.233-0.62,0.597-0.706,1.025
			C17.9,4.517,17.98,4.953,18.228,5.317c0.31,0.465,0.816,0.721,1.343,0.721c0.282,0,0.567-0.076,0.826-0.23l2.378-1.428
			c0.373-0.09,2.223-0.645,3.625-2.911c1.098-1.777,1.716-3.208,1.97-3.854l0.043,0.021c0.146,0.071,0.303,0.108,0.463,0.108
			c0.263,0,0.527-0.106,0.722-0.292c0.206-0.194,0.317-0.461,0.317-0.746v-1.649C29.906-5.082,29.828-5.208,29.704-5.261z"/>
	</g>
	<g id="Faible">
		<path id="Famine" display="none" fill="#F9F9F9" d="M26.585,7.483l-2.753,0.521l-4.491-2.443l1.632-2.038l3.675,1.219
			L26.585,7.483z M30.813,2.708v0.305l-2.895,0.918l-2.861,0.406l-3.674-1.222l-0.865-0.408h0.495
			c-0.119-1.092-0.276-1.921-0.353-3.004h-0.005c-0.004-0.033-0.041-0.759-0.05-1.067c-0.059-0.327-0.213-0.457-0.723-0.808
			c-0.279-0.18-0.486-0.246-0.604-0.243c-0.188,0-0.355,0.203-0.393,0.814c0.816,0.139,0.872,1.044,0.872,1.044
			c0.074,0.644-0.243,1.583-0.97,1.827c-1.347,0.448-1.207-2.143-0.449-2.764c0.021-0.746,0.229-1.432,0.939-1.458
			c0.28,0.002,0.567,0.117,0.9,0.329c0.157,0.094,0.287,0.192,0.4,0.292c-0.014-0.247-0.029-0.498-0.029-0.756
			c-0.003-0.544,0.083-1.137,0.566-1.558c0.248-0.227,0.528-0.344,0.804-0.342c0.72,0.036,1.164,0.654,1.424,1.288
			c0.303-0.132,0.681-0.197,1.113-0.046c1.106,0.384,1.701,2.312,1.238,2.985c-1.09,1.565-3.833-1.351-3.105-2.367
			c0,0,0.105-0.139,0.293-0.292c-0.215-0.562-0.641-1.063-0.963-1.028c-0.123,0.002-0.265,0.044-0.444,0.205
			c-0.306,0.269-0.387,0.65-0.387,1.153c0,0.353,0.042,0.745,0.042,1.14c0,0.205,0.014,0.387,0.023,0.584
			c0.048,0.351,0.05,0.62,0.048,0.991c0.074,1.08,0.512,1.967,0.628,3.082L30.813,2.708L30.813,2.708z M23.082-3.205l2.079,2.265
			c-0.373-1.606-1.69-2.5-1.69-2.5L23.082-3.205z M18.774-1.259l-0.373,0.152c0,0-0.186,1.266,0,1.927L18.774-1.259z M16.911,6.378
			l1.652-0.993l1.724-2.131l-0.538-0.546h-3.806l-0.756,1.508L16.911,6.378z M18.839,6.036L15.91,8.03l0.391,0.483h6.739
			l-0.022-0.099L18.839,6.036z M12.815,2.708v2.298L14.691,4l0.568-1.292L12.815,2.708L12.815,2.708z M25.601,4.831l1.813,2.633
			l3.398,0.797V5.248l-2.445-0.788L25.601,4.831z M30.813,4.59V3.527l-1.903,0.515L30.813,4.59z M14.737,4.738l-1.922,0.915v2.859
			h1.406l2.096-1.716L14.737,4.738z M24.808,8.513h4.396L27.1,8.004L24.808,8.513z"/>
		<path id="Cyclone" display="none" fill="#FFFFFF" d="M21.883-3.475C21.792-3.478,21.7-3.49,21.608-3.49
			c-0.826,0-1.602,0.214-2.275,0.587c1.204-4.106,4.211-4.464,4.211-4.464s-6.641,0.554-6.641,8.306c0.004,0,0.009,0,0.014,0
			c-0.007,0.095-0.015,0.185-0.015,0.279c0,0.821,0.214,1.597,0.586,2.274c-4.106-1.207-4.465-4.21-4.465-4.21
			s0.552,6.645,8.308,6.645c0-0.007,0-0.01,0-0.016c0.091,0.005,0.184,0.016,0.276,0.016c0.823,0,1.6-0.215,2.274-0.589
			c-1.205,4.106-4.213,4.466-4.213,4.466s6.645-0.555,6.645-8.308c-0.005,0-0.009,0-0.014,0c0.005-0.092,0.014-0.183,0.014-0.275
			c0-0.824-0.216-1.602-0.59-2.273c4.106,1.204,4.466,4.212,4.466,4.212s-0.551-6.645-8.305-6.645
			C21.883-3.483,21.883-3.478,21.883-3.475z"/>
		<path id="tsunami" display="none" fill="#FFFFFF" d="M29.953,6.687c-13.674,0.774-9.855-9.684-6.307-8.782
			c-0.365,0.223-0.601,0.992-0.374,1.51c0.247,0.556,1.048,0.871,1.507,0.757c1.103-0.285,1.15-1.83,0.755-2.642
			c-0.412-0.844-1.501-1.886-3.394-1.886c-4.581,0-7.706,2.339-8.882,6.359v5.911h16.697V6.687H29.953z"/>
		<path id="earthquake" display="none" fill="#FFFFFF" d="M26.471,1.733c-0.233,0-0.449,0.129-0.56,0.338l-0.91,1.717l-1.125-3.291
			c-0.088-0.249-0.317-0.418-0.578-0.43c-0.271-0.007-0.505,0.146-0.609,0.387l-0.769,1.83l-1.213-7.289
			c-0.061-0.305-0.348-0.536-0.639-0.521c-0.313,0.007-0.572,0.213-0.613,0.522l-1.077,8.459l-0.871-4.54
			c-0.049-0.267-0.269-0.472-0.54-0.509c-0.27-0.037-0.538,0.108-0.655,0.354l-1.426,2.973h-2.214v1.266h2.615
			c0.243,0,0.467-0.141,0.572-0.357l0.765-1.597l1.238,6.438C17.919,7.782,18.18,8,18.484,8c0.005,0,0.012,0,0.017,0
			c0.309-0.009,0.568-0.244,0.611-0.55l1.061-8.312l0.885,5.472c0.051,0.276,0.272,0.486,0.556,0.516
			C21.892,5.152,22.158,5,22.267,4.74l0.952-2.259l1.061,3.101c0.081,0.241,0.294,0.409,0.546,0.43
			c0.252,0.015,0.493-0.111,0.614-0.335L26.856,3h2.721V1.735h-3.105V1.733z"/>
	</g>
	<g id="Modéré">
	</g>
	<g id="Important">
		<path id="enlevement" display="none" fill="#FFFFFF" d="M27.528-6.815c-0.452,0-0.822,0.371-0.822,0.824v3.354
			c0.197,0.044,0.387,0.127,0.541,0.277c0.434,0.428,0.445,1.129,0.02,1.568l-1.559,1.604L25.49,0.603l1.567-1.6
			c0.315-0.323,0.304-0.839-0.016-1.155c-0.103-0.095-0.22-0.162-0.343-0.197c-0.142-0.038-0.277-0.041-0.414-0.012
			c-0.153,0.04-0.285,0.115-0.392,0.229c-0.926,0.95-1.856,1.899-2.783,2.849c-0.231,0.239-0.657,0.784-0.643,1.327
			c0.009,0.51-0.007,1.036,0.002,1.548c-0.123-0.097-0.269-0.169-0.434-0.199c-0.477-0.077-0.91,0.207-1.074,0.632h-0.24
			c0-0.116,0-0.233,0.002-0.35c0.012-0.537-0.009-1.093,0.005-1.63c0.012-0.545-0.414-1.09-0.646-1.329
			c-0.926-0.951-1.852-1.901-2.781-2.852c-0.107-0.111-0.239-0.189-0.392-0.227c-0.136-0.028-0.275-0.026-0.412,0.012
			c-0.125,0.037-0.246,0.104-0.344,0.199c-0.318,0.314-0.326,0.829-0.014,1.156l1.564,1.597l-0.217,0.209l-1.56-1.604
			c-0.427-0.439-0.417-1.141,0.02-1.566c0.154-0.148,0.343-0.233,0.542-0.277v-3.354c0-0.454-0.371-0.824-0.821-0.824
			c-0.456,0-0.824,0.371-0.824,0.824v5.806c0,0.189,0.076,0.364,0.189,0.504l2.802,3.703h-0.247c-0.544,0-0.991,0.444-0.991,0.993
			c0,0.364,0.206,0.668,0.497,0.839c-0.292,0.174-0.497,0.479-0.497,0.84c0,0.55,0.444,0.994,0.991,0.994h0.303v0.552h2.754
			c0.144,0.143,0.313,0.248,0.517,0.282c0.056,0.01,0.105,0.013,0.164,0.013c0.481,0,0.896-0.343,0.975-0.823l0.005-0.025h0.173
			c0.005,0.183,0,0.363,0.023,0.551h2.801V7.689h0.304c0.544,0,0.991-0.443,0.991-0.994c0-0.361-0.204-0.667-0.498-0.839
			c0.294-0.172,0.498-0.477,0.498-0.841c0-0.547-0.445-0.991-0.991-0.991h-0.247l2.803-3.706c0.116-0.142,0.188-0.315,0.188-0.504
			v-5.804C28.349-6.444,27.984-6.815,27.528-6.815z M17.094,5.016c0-0.273,0.224-0.494,0.494-0.494h3.251l-0.172,0.991h-3.079
			C17.318,5.51,17.094,5.291,17.094,5.016z M17.094,6.696c0-0.271,0.224-0.497,0.494-0.497h2.959l-0.171,0.992h-2.788
			C17.318,7.191,17.094,6.974,17.094,6.696z M21.809,7.629c-0.044,0.272-0.324,0.449-0.571,0.408
			c-0.13-0.024-0.243-0.095-0.319-0.202c-0.079-0.109-0.107-0.24-0.083-0.369l0.546-3.176c0.041-0.241,0.25-0.412,0.495-0.412
			c0.025,0,0.054,0,0.078,0.005c0.27,0.046,0.449,0.302,0.404,0.571L21.809,7.629z M26.099,6.696c0,0.275-0.222,0.497-0.493,0.497
			h-3.218L22.561,6.2h3.045C25.877,6.202,26.099,6.425,26.099,6.696z M26.099,5.016c0,0.272-0.222,0.494-0.493,0.494H22.68
			l0.166-0.971c0.003-0.006,0-0.013,0-0.02h2.758C25.877,4.521,26.099,4.744,26.099,5.016z"/>
	</g>
	<g id="Elevé">
	</g>
	<g id="Extreme" display="none">
		<path id="rebelion" display="inline" fill="#FFFFFF" d="M24.194-3.24c0,1.526-1.236,2.762-2.759,2.762
			c-1.528,0-2.766-1.238-2.766-2.762c0-1.528,1.237-2.763,2.766-2.763C22.957-6.003,24.194-4.768,24.194-3.24z M16.821,8.478h1.688
			h0.09l0.062-0.129l0.614-0.602l-0.566-0.12l-0.896-0.192L16.821,8.478z M28.379-2.729l-0.593,0.593l0.039,0.041l-0.477,0.484
			c0.063,0.058,0.125,0.118,0.179,0.187l0.48-0.483l0.101,0.089l0.583-0.596L28.379-2.729z M24.564,0.337l-0.255,0.251l0.028,0.073
			l0.06,0.134l-4.027,4.042l0.433,0.092c0.397,0.083,0.738,0.321,0.963,0.667c0.03,0.048,0.039,0.108,0.065,0.16l0.012-0.016
			l0.299,0.197l0.105-0.023l1.174,0.853l0.787-1.081L22.46,4.32l0.036-0.114h0.29l1.718-2.014l0.189-1.806L24.564,0.337z
			 M26.437-1.449c-0.523-0.058-1.03,0.333-1.09,0.874L25.28,0.013l0,0l-0.04,0.426L25.05,2.247l-0.021,0.169l-0.108,0.13
			l-1.537,1.803l1.16,0.909l0.417,0.326l-0.244,0.331l0.063,0.122c0.159,0.346,0.512,0.563,0.892,0.563
			c0.053,0,0.105-0.002,0.164-0.013c0.433-0.075,0.766-0.429,0.815-0.865l0.656-6.077C27.367-0.904,26.977-1.395,26.437-1.449z
			 M24.425,6.312L23.86,7.089l-0.321,0.443l-0.442-0.322l-0.975-0.703l-0.083,0.021l-0.037-0.024c0,0.085-0.002,0.164-0.021,0.247
			c-0.02,0.083-0.047,0.155-0.079,0.232c-0.06,0.143-0.139,0.267-0.233,0.383l0.066,0.154c0.069,0.155,0.165,0.357,0.275,0.532
			l0.271,0.423h2.079L24.425,6.312z M20.478,7.967c-0.025,0-0.049-0.007-0.071-0.01c-0.012,0.044-0.019,0.077-0.019,0.077
			l0.236,0.441h0.56l0.366-0.127c-0.126-0.192-0.225-0.399-0.317-0.607C21.006,7.874,20.756,7.967,20.478,7.967z M21.291,5.875
			c-0.04-0.062-0.103-0.11-0.16-0.162c-0.03-0.029-0.058-0.072-0.1-0.097c-0.1-0.072-0.221-0.125-0.348-0.155l-0.431-0.088
			l-0.981-0.211l0,0l-0.868-0.185l-0.34-0.071l-0.557-0.12L17.47,4.779l0.088-0.09l0.377-0.373l0.402-0.407
			c0.032,0.277,0.05,0.498,0.05,0.503l0.129,0.027l1.219,0.259l0.251-0.25l3.769-3.785l-0.086-0.213l0.03-0.024
			c-0.547-0.165-1.188-0.258-1.998-0.258h-0.27c0,0-0.261,0-0.263,0c-0.569,0-1.145,0.038-1.706,0.163
			c-0.966,0.217-1.564,1.162-2.226,1.814c-0.68,0.67-1.342,1.368-2.005,2.057c-0.147,0.154-0.294,0.313-0.445,0.466
			C14.532,4.924,14.44,5.3,14.54,5.648c0.1,0.346,0.387,0.608,0.741,0.687l1.305,0.279l0.554,0.116l3.132,0.669
			c0.071,0.011,0.142,0.023,0.208,0.023c0.457,0,0.866-0.319,0.966-0.781c0.037-0.183,0.01-0.354-0.046-0.518l-0.061-0.125
			C21.319,5.96,21.305,5.921,21.291,5.875z M19.906,8.288L19.811,8.11l0.047-0.198l0.012-0.038l-0.151-0.034l-0.555,0.636h0.84
			L19.906,8.288z"/>
	</g>
	<path id="displaced" display="none" fill="#FFFFFF" d="M22.554-5.626c0.135,0.854-0.438,1.654-1.284,1.792
		c-0.85,0.141-1.657-0.434-1.794-1.282c-0.142-0.852,0.431-1.657,1.285-1.795C21.608-7.05,22.41-6.474,22.554-5.626z M22.067,0.557
		l1.379,2.204c0.196,0.311,0.601,0.41,0.917,0.227c0.317-0.19,0.424-0.592,0.252-0.913l-0.352-0.634
		c-0.309-0.541-0.606-1.086-0.909-1.629l-0.611-1.114C22.67-1.434,22.604-1.58,22.53-1.732c-0.375-0.795-0.969-2.022-2.268-1.912
		c-1.108,0.097-2.234,0.624-3.342,1.566c-1.309,1.036-2.226,2.54-2.261,2.603c-0.045,0.064-0.085,0.134-0.117,0.196
		c-0.003,0.001-0.003,0.004-0.006,0.006l0,0c-0.125,0.233-0.185,0.445-0.032,0.715c0.122,0.213,0.347,0.342,0.589,0.342
		c0.298,0,0.447-0.142,0.594-0.349l0,0c0.002,0,0.002-0.004,0.002-0.004c0.041-0.061,0.079-0.126,0.126-0.196
		c0.007-0.013,0.775-1.249,1.965-2.263c0.369-0.289,0.719-0.486,1.046-0.595l-0.266,3.209c-0.026,0.317-0.127,0.866-0.212,1.171
		L17.75,4.849c-0.079,0.264-0.3,0.703-0.476,0.916l-1.615,1.998c-0.202,0.254-0.433,0.541-0.243,0.939
		c0.112,0.237,0.35,0.387,0.611,0.387c0.311,0,0.481-0.178,0.691-0.408l1.632-1.76c0.291-0.315,0.671-0.86,0.86-1.245l0.811-1.647
		l2.996,5.031c0.144,0.247,0.331,0.561,0.733,0.561l0,0c0.236,0,0.447-0.12,0.569-0.313c0.221-0.333,0.074-0.636-0.048-0.908
		l-2.424-5.261c-0.093-0.207-0.146-0.627-0.104-0.854L22.067,0.557z M24.604,6.031h3.629V7.11l3.604-2.082l-3.604-2.082v1.078
		h-3.629V6.031z"/>
	<path id="epidemie" display="none" fill="#FFFFFF" d="M28.739,1.911c0-3.909-3.063-7.089-6.921-7.288
		c1.705,0.163,3.031,1.399,3.031,2.904c0,0.517-0.171,0.993-0.447,1.414c-0.762-0.759-1.805-1.226-2.965-1.226
		c-1.156,0-2.199,0.467-2.959,1.223c-0.273-0.42-0.445-0.897-0.445-1.416c0-1.501,1.324-2.74,3.029-2.902
		c-3.857,0.199-6.921,3.381-6.921,7.29c0,1.179,0.286,2.291,0.78,3.278c-0.676-1.543-0.266-3.28,1.021-4.021
		c0.449-0.258,0.95-0.351,1.45-0.322c-0.096,0.344-0.158,0.701-0.158,1.076c0,1.941,1.327,3.562,3.116,4.045
		c-0.022,0.042-0.052,0.083-0.078,0.123c0,0.005,0,0.005,0,0.01c-0.058,0.133-0.134,0.24-0.223,0.333
		c-0.191,0.251-0.416,0.475-0.699,0.64c-1.294,0.746-3.013,0.229-4.006-1.146c1.307,1.983,3.549,3.295,6.095,3.295
		c2.528,0,4.751-1.284,6.063-3.236c-1,1.333-2.688,1.822-3.962,1.091c-0.451-0.264-0.779-0.656-1.007-1.112
		c1.792-0.482,3.11-2.105,3.11-4.042c0-0.375-0.063-0.732-0.159-1.076c0.508-0.032,1.011,0.059,1.46,0.321
		c1.25,0.721,1.673,2.376,1.076,3.888C28.479,4.098,28.739,3.038,28.739,1.911z M22.214,4.722c-0.03-0.608,0.098-1.246,0.403-1.849
		l-0.488-0.279c-0.172,0.18-0.417,0.292-0.69,0.292c-0.269,0-0.514-0.11-0.689-0.292l-0.478,0.272
		c0.306,0.608,0.436,1.251,0.401,1.858c-1.237-0.338-2.153-1.463-2.153-2.803c0-0.257,0.041-0.5,0.104-0.735
		c0.539,0.272,1.029,0.697,1.404,1.26l0.489-0.285C20.494,2.077,20.464,2,20.464,1.91c0-0.451,0.313-0.815,0.731-0.925V0.43
		c-0.676-0.044-1.292-0.254-1.801-0.587c0.527-0.519,1.247-0.839,2.042-0.839c0.798,0,1.518,0.322,2.048,0.842
		c-0.511,0.333-1.124,0.541-1.803,0.585v0.557c0.419,0.109,0.729,0.474,0.729,0.925c0,0.09-0.024,0.168-0.045,0.251l0.492,0.29
		c0.373-0.563,0.863-0.986,1.398-1.258c0.06,0.231,0.103,0.474,0.103,0.726C24.359,3.259,23.448,4.38,22.214,4.722z"/>
	<path id="eruption" fill="#FFFFFF" d="M17.51,7.72c1.066,0.365,2.483,0.795,2.782-0.926c0.239-1.339,2.025-0.841,2.784-0.927
		c1.385-0.16,0.339-2.748-1.39-2.787c-1.751-0.038-2.552,0.729-3.246,2.32c-0.336,0.767-0.619,1.341-1.857,0.931
		c-1.239-0.414-2.146,0.604-1.395,1.856c0.666,1.108-0.009,2.318-0.009,2.318h1.867c0,0-0.015-0.687-0.464-1.391
		C16.059,8.293,16.418,7.344,17.51,7.72z M7.622,19.264c4.801-3.496,6-8.335,6-8.335h4.934c0,0,1.201,4.836,6,8.335H7.622z"/>
	<path id="returned" display="none" fill="#FFFFFF" d="M21.133-4.87c0.116,0.702-0.363,1.363-1.06,1.481
		c-0.702,0.115-1.363-0.362-1.479-1.061c-0.115-0.703,0.358-1.364,1.062-1.48C20.353-6.047,21.022-5.574,21.133-4.87z M20.733,0.233
		l1.139,1.822c0.157,0.253,0.498,0.338,0.76,0.184c0.257-0.155,0.348-0.488,0.204-0.753l-0.29-0.521
		c-0.25-0.446-0.495-0.897-0.746-1.346l-0.508-0.922c-0.059-0.103-0.116-0.224-0.175-0.351c-0.314-0.657-0.805-1.671-1.872-1.577
		c-0.916,0.077-1.844,0.513-2.758,1.289c-1.082,0.856-1.839,2.097-1.875,2.147C14.58,0.26,14.547,0.316,14.518,0.37
		c-0.002,0.002-0.004,0.002-0.004,0.005l0,0c-0.102,0.192-0.152,0.368-0.025,0.589c0.099,0.175,0.284,0.284,0.488,0.284
		c0.243,0,0.368-0.114,0.487-0.288l0,0c0.002-0.003,0.002-0.003,0.002-0.003c0.034-0.054,0.068-0.108,0.104-0.167
		c0.006-0.01,0.643-1.029,1.624-1.867c0.305-0.236,0.59-0.4,0.863-0.491L17.84,1.084c-0.024,0.264-0.106,0.715-0.18,0.969
		l-0.49,1.725c-0.066,0.219-0.25,0.58-0.395,0.756l-1.333,1.65c-0.169,0.211-0.359,0.447-0.2,0.776
		c0.093,0.192,0.29,0.318,0.503,0.318c0.257,0,0.395-0.148,0.573-0.338l1.347-1.454c0.242-0.26,0.554-0.71,0.706-1.029l0.67-1.358
		l2.474,4.154c0.122,0.206,0.276,0.46,0.61,0.46l0,0c0.192,0,0.37-0.097,0.473-0.261c0.176-0.272,0.061-0.52-0.042-0.745l-2-4.346
		c-0.079-0.167-0.123-0.515-0.091-0.703L20.733,0.233z M29.06,1.16c0-1.815-1.477-3.286-3.287-3.286h-1.398v1.658h1.396
		c0.896,0,1.625,0.728,1.625,1.628c0,0.896-0.729,1.627-1.625,1.627h-0.289v-0.89l-2.979,1.72l2.979,1.72V4.444h0.327V4.442
		C27.601,4.424,29.06,2.961,29.06,1.16z"/>
	<path id="Attack" display="none" fill="#FFFFFF" d="M25.428,2.344l4.892-3.133l-4.728-0.502l1.285-5.492l-3.353,3.465L22.59-7.232
		l-1.406,3.654l-3.831-4.936l1.203,6.184l-3.404-0.756c0,0,1.035,1.98,1.612,3.174l-5.465-0.384l4.946,2.891l-1.419,1.46
		l2.299-0.419l-1.629,5.761l4.841-4.049l1.258,3.129l1.289-2.503l4.177,4.311l-2.088-5.771l4.577,0.463L25.428,2.344z"/>
</g>
</svg>
