<?xml version="1.0" encoding="utf-8"?>
<!-- Generator: Adobe Illustrator 16.0.0, SVG Export Plug-In . SVG Version: 6.00 Build 0)  -->
<!DOCTYPE svg PUBLIC "-//W3C//DTD SVG 1.1//EN" "http://www.w3.org/Graphics/SVG/1.1/DTD/svg11.dtd">
<svg version="1.1" id="Layer_1" xmlns="http://www.w3.org/2000/svg" xmlns:xlink="http://www.w3.org/1999/xlink" x="0px" y="0px"
	 width="33.35px" height="40px" viewBox="0 0 33.35 40" enable-background="new 0 0 33.35 40" xml:space="preserve">
<g id="PinColor">
	<path id="PinOmbre" opacity="0.3" enable-background="new    " d="M29.08,31.203c0,1.758-3.858,3.232-9.053,3.621
		c-0.876,0.066-2.729,4.189-2.729,4.189s-1.918-4.125-2.822-4.195c-5.142-0.398-8.958-1.867-8.958-3.615
		c0-2.057,5.275-3.725,11.78-3.725C23.805,27.479,29.08,29.145,29.08,31.203z"/>
	<path id="vert" fill="#2ABF00" stroke="#1D7500" stroke-width="0.2" stroke-miterlimit="10" d="M29.08,13.914
		c0,5.382-3.858,9.896-9.053,11.087C19.153,25.2,17.3,37.82,17.3,37.82s-1.918-12.62-2.822-12.844
		C9.336,23.756,5.52,19.263,5.52,13.91c0-6.293,5.275-11.394,11.78-11.394S29.08,7.621,29.08,13.914z"/>
	<path id="orange" display="none" fill="#FF8500" stroke="#7F4500" stroke-width="0.2" stroke-miterlimit="10" d="M29.08,13.914
		c0,5.382-3.858,9.896-9.053,11.087C19.153,25.2,17.3,37.82,17.3,37.82s-1.918-12.62-2.822-12.844
		C9.336,23.756,5.52,19.263,5.52,13.91c0-6.293,5.275-11.394,11.78-11.394S29.08,7.621,29.08,13.914z"/>
	<path id="gris" display="none" fill="#A5A5A5" stroke="#595959" stroke-width="0.2" stroke-miterlimit="10" d="M29.08,13.914
		c0,5.382-3.858,9.896-9.053,11.087C19.153,25.2,17.3,37.82,17.3,37.82s-1.918-12.62-2.822-12.844
		C9.336,23.756,5.52,19.263,5.52,13.91c0-6.293,5.275-11.394,11.78-11.394S29.08,7.621,29.08,13.914z"/>
	<path id="bleu" display="none" fill="#0092FF" stroke="#00477C" stroke-width="0.2" stroke-miterlimit="10" d="M29.08,13.914
		c0,5.382-3.858,9.896-9.053,11.087C19.153,25.2,17.3,37.82,17.3,37.82s-1.918-12.62-2.822-12.844
		C9.336,23.756,5.52,19.263,5.52,13.91c0-6.293,5.275-11.394,11.78-11.394S29.08,7.621,29.08,13.914z"/>
</g>
<g id="Icons">
	<g id="Minimal">
		<path id="Election" display="none" fill="#565656" d="M30.244-0.88l-4.741-2.032c-0.141-0.06-0.306-0.019-0.398,0.102
			l-1.356,1.692c-0.061,0.076-0.083,0.183-0.065,0.283c0.022,0.095,0.084,0.174,0.168,0.218l-4.248,1.595
			c-0.359,0.133-0.661,0.386-0.857,0.714l-1.407,2.344c-0.298,0.499-0.322,1.106-0.062,1.627l0.102,0.198h-1.483
			c-0.188,0-0.34,0.151-0.34,0.338v6.431h-1.016c-0.188,0-0.336,0.151-0.336,0.336c0,0.188,0.148,0.338,0.336,0.338h11.512
			c0.186,0,0.331-0.15,0.331-0.338c0-0.185-0.146-0.336-0.331-0.336h-1.019V9.17c0-0.115-0.062-0.226-0.156-0.285
			c-0.1-0.062-0.22-0.072-0.326-0.022c-0.374,0.175-0.647,0.264-0.776,0.303c-0.029,0.007-0.057,0.018-0.079,0.037l-2.205,1.321
			c-0.352,0.212-0.75,0.323-1.157,0.323c-0.75,0-1.449-0.373-1.879-1.006c-0.341-0.508-0.457-1.123-0.331-1.718
			c0.126-0.597,0.482-1.108,0.992-1.437l0.318-0.203c0.238-0.143,0.444-0.274,0.632-0.388c0.132-0.083,0.19-0.24,0.147-0.386
			c-0.084-0.271-0.227-0.514-0.355-0.699c0.514-0.226,1.216-0.629,1.566-1.037c0,0,0.005,0.002,0.007,0.002
			c0.072,0.045,0.159,0.093,0.259,0.141c0.007,0.002,0.009,0.004,0.018,0.007l0,0c0.251,0.122,0.573,0.243,0.939,0.316
			c-0.394,0.488-0.795,1.095-0.941,1.501c-0.281,0.123-0.863,0.453-2.224,1.32c-0.359,0.228-0.606,0.584-0.69,1.002
			c-0.091,0.419-0.012,0.845,0.231,1.202c0.303,0.455,0.799,0.705,1.313,0.705c0.276,0,0.555-0.074,0.809-0.225l2.325-1.397
			c0.364-0.088,2.173-0.63,3.545-2.847c1.073-1.738,1.678-3.137,1.927-3.77l0.041,0.021c0.143,0.07,0.297,0.106,0.453,0.106
			c0.258,0,0.516-0.104,0.706-0.285c0.201-0.19,0.311-0.451,0.311-0.729v-1.613C30.444-0.706,30.366-0.829,30.244-0.88z"/>
	</g>
	<g id="Faible">
		<path id="Famine" display="none" fill="#F9F9F9" d="M27.195,11.583l-2.692,0.509l-4.392-2.389l1.596-1.992l3.593,1.192
			L27.195,11.583z M31.328,6.914v0.298l-2.83,0.898L25.7,8.507l-3.594-1.195L21.26,6.914h0.485c-0.116-1.069-0.27-1.879-0.345-2.938
			h-0.005c-0.004-0.032-0.04-0.742-0.049-1.044c-0.057-0.319-0.209-0.447-0.707-0.79c-0.273-0.176-0.476-0.24-0.591-0.238
			c-0.184,0-0.349,0.198-0.385,0.796c0.799,0.136,0.854,1.021,0.854,1.021c0.072,0.629-0.237,1.548-0.948,1.786
			c-1.316,0.438-1.181-2.095-0.439-2.703c0.021-0.729,0.224-1.4,0.919-1.426c0.274,0.002,0.555,0.115,0.881,0.321
			c0.154,0.092,0.28,0.188,0.392,0.285c-0.014-0.241-0.029-0.486-0.029-0.739c-0.002-0.532,0.081-1.111,0.555-1.523
			c0.242-0.221,0.516-0.336,0.785-0.334c0.704,0.035,1.139,0.64,1.393,1.259c0.297-0.128,0.666-0.192,1.089-0.045
			c1.082,0.376,1.664,2.261,1.212,2.919c-1.066,1.531-3.75-1.32-3.039-2.315c0,0,0.104-0.136,0.288-0.285
			c-0.211-0.549-0.627-1.04-0.942-1.006c-0.12,0.002-0.258,0.043-0.435,0.201c-0.299,0.263-0.378,0.636-0.378,1.128
			c0,0.345,0.041,0.729,0.041,1.115c0,0.201,0.014,0.378,0.022,0.572c0.048,0.343,0.05,0.606,0.048,0.969
			c0.072,1.056,0.5,1.924,0.613,3.013h8.784V6.914z M23.769,1.13l2.033,2.215C25.438,1.775,24.15,0.9,24.15,0.9L23.769,1.13z
			 M19.556,3.033l-0.365,0.148c0,0-0.181,1.238,0,1.885L19.556,3.033z M17.734,10.502l1.616-0.971l1.685-2.084l-0.525-0.534h-3.723
			l-0.739,1.475L17.734,10.502z M19.619,10.167l-2.865,1.95l0.383,0.472h6.591l-0.022-0.096L19.619,10.167z M13.727,6.914V9.16
			l1.835-0.984l0.556-1.264h-2.391V6.914z M26.233,8.988l1.772,2.575l3.323,0.78V9.396l-2.391-0.771L26.233,8.988z M31.328,8.753
			v-1.04l-1.861,0.503L31.328,8.753z M15.608,8.898l-1.88,0.895v2.796h1.375l2.049-1.678L15.608,8.898z M25.455,12.589h4.3
			l-2.059-0.498L25.455,12.589z"/>
		<path id="Cyclone" display="none" fill="#FFFFFF" d="M22.596,0.866c-0.088-0.003-0.179-0.015-0.27-0.015
			c-0.808,0-1.566,0.209-2.226,0.573c1.178-4.015,4.119-4.366,4.119-4.366s-6.495,0.542-6.495,8.123c0.004,0,0.009,0,0.014,0
			c-0.007,0.093-0.015,0.18-0.015,0.273c0,0.802,0.209,1.562,0.572,2.224c-4.015-1.18-4.366-4.117-4.366-4.117
			s0.54,6.498,8.125,6.498c0-0.007,0-0.009,0-0.015c0.089,0.004,0.179,0.015,0.27,0.015c0.806,0,1.564-0.211,2.226-0.576
			c-1.18,4.017-4.12,4.368-4.12,4.368s6.497-0.543,6.497-8.125c-0.004,0-0.009,0-0.014,0c0.005-0.09,0.014-0.178,0.014-0.269
			c0-0.807-0.21-1.566-0.577-2.223c4.017,1.178,4.367,4.12,4.367,4.12s-0.539-6.499-8.121-6.499
			C22.596,0.858,22.596,0.863,22.596,0.866z"/>
		<path id="tsunami" display="none" fill="#FFFFFF" d="M30.489,10.804c-13.373,0.757-9.638-9.471-6.167-8.589
			c-0.357,0.218-0.589,0.97-0.367,1.477c0.242,0.542,1.025,0.852,1.475,0.74c1.077-0.279,1.125-1.79,0.737-2.584
			c-0.402-0.825-1.467-1.845-3.318-1.845c-4.48,0-7.536,2.288-8.686,6.219v5.781H30.49v-1.199H30.489z"/>
		<path id="earthquake" display="none" fill="#FFFFFF" d="M27.083,5.959c-0.229,0-0.439,0.126-0.548,0.331l-0.89,1.68L24.545,4.75
			c-0.086-0.243-0.31-0.409-0.565-0.42c-0.266-0.007-0.494,0.142-0.596,0.379l-0.752,1.79L21.447-0.63
			c-0.06-0.298-0.34-0.524-0.625-0.509c-0.306,0.007-0.56,0.209-0.601,0.511l-1.053,8.272l-0.852-4.44
			c-0.049-0.261-0.263-0.461-0.527-0.497c-0.264-0.036-0.526,0.105-0.641,0.346l-1.395,2.907h-2.166v1.238h2.557
			c0.238,0,0.457-0.138,0.559-0.35l0.748-1.562l1.211,6.297c0.057,0.292,0.311,0.504,0.609,0.504c0.004,0,0.011,0,0.016,0
			c0.301-0.009,0.555-0.238,0.598-0.537l1.037-8.129l0.865,5.351c0.05,0.27,0.267,0.475,0.543,0.505
			c0.273,0.026,0.534-0.123,0.641-0.376l0.931-2.209l1.037,3.033c0.079,0.235,0.287,0.399,0.534,0.42
			c0.247,0.014,0.482-0.108,0.6-0.328l1.386-2.618h2.66V5.961h-3.036V5.959z"/>
	</g>
	<g id="Modéré">
	</g>
	<g id="Important">
		<path id="enlevement" display="none" fill="#FFFFFF" d="M28.115-2.4c-0.441,0-0.804,0.363-0.804,0.806v3.279
			c0.192,0.043,0.379,0.125,0.53,0.271c0.423,0.418,0.435,1.105,0.018,1.534l-1.523,1.568l-0.213-0.205l1.533-1.564
			c0.308-0.316,0.296-0.82-0.016-1.129c-0.1-0.093-0.216-0.158-0.336-0.192c-0.138-0.038-0.271-0.04-0.405-0.012
			c-0.149,0.039-0.278,0.113-0.382,0.224c-0.906,0.929-1.816,1.858-2.722,2.787c-0.227,0.233-0.643,0.766-0.63,1.297
			c0.01,0.499-0.007,1.013,0.003,1.515c-0.12-0.095-0.263-0.166-0.424-0.195c-0.466-0.075-0.89,0.202-1.05,0.618h-0.236
			c0-0.114,0-0.229,0.003-0.342c0.011-0.525-0.01-1.069,0.004-1.594c0.012-0.533-0.405-1.066-0.631-1.299
			c-0.906-0.93-1.812-1.859-2.72-2.79c-0.105-0.108-0.234-0.185-0.384-0.221c-0.133-0.028-0.27-0.025-0.403,0.012
			c-0.122,0.036-0.24,0.102-0.336,0.194c-0.311,0.307-0.318,0.81-0.013,1.13l1.529,1.562l-0.212,0.205L16.771,3.49
			c-0.417-0.429-0.407-1.116,0.02-1.532c0.15-0.145,0.335-0.228,0.53-0.271v-3.28c0-0.443-0.362-0.805-0.803-0.805
			c-0.446,0-0.806,0.363-0.806,0.805v5.678c0,0.186,0.075,0.356,0.186,0.493l2.741,3.621h-0.243c-0.532,0-0.969,0.435-0.969,0.971
			c0,0.356,0.201,0.654,0.485,0.821c-0.285,0.17-0.485,0.469-0.485,0.822c0,0.538,0.435,0.973,0.969,0.973h0.297v0.54h2.692
			c0.141,0.14,0.306,0.242,0.505,0.275c0.055,0.009,0.104,0.013,0.16,0.013c0.472,0,0.877-0.336,0.954-0.805l0.004-0.024h0.17
			c0.005,0.179,0,0.355,0.022,0.539h2.739v-0.539h0.297c0.532,0,0.969-0.433,0.969-0.972c0-0.353-0.199-0.651-0.486-0.821
			c0.287-0.168,0.486-0.466,0.486-0.823c0-0.535-0.435-0.969-0.969-0.969h-0.242l2.742-3.624c0.113-0.138,0.183-0.309,0.183-0.493
			v-5.676C28.919-2.038,28.562-2.4,28.115-2.4z M17.912,9.169c0-0.267,0.219-0.483,0.483-0.483h3.18l-0.168,0.969h-3.012
			C18.131,9.653,17.912,9.438,17.912,9.169z M17.912,10.813c0-0.265,0.219-0.485,0.483-0.485h2.895l-0.168,0.97h-2.727
			C18.131,11.298,17.912,11.084,17.912,10.813z M22.524,11.726c-0.043,0.267-0.317,0.439-0.56,0.398
			c-0.126-0.023-0.237-0.093-0.313-0.197c-0.076-0.106-0.104-0.236-0.081-0.362l0.534-3.106c0.041-0.235,0.245-0.403,0.484-0.403
			c0.025,0,0.053,0,0.077,0.006c0.263,0.045,0.439,0.295,0.394,0.559L22.524,11.726z M26.719,10.813
			c0,0.269-0.218,0.486-0.482,0.486H23.09l0.169-0.971h2.978C26.501,10.33,26.719,10.548,26.719,10.813z M26.719,9.169
			c0,0.267-0.218,0.483-0.482,0.483h-2.861l0.163-0.949c0.002-0.006,0-0.013,0-0.02h2.696C26.501,8.686,26.719,8.904,26.719,9.169z"
			/>
	</g>
	<g id="Elevé">
	</g>
	<g id="Extreme" display="none">
		<path id="rebelion" display="inline" fill="#FFFFFF" d="M24.856,1.096c0,1.493-1.209,2.701-2.699,2.701
			c-1.494,0-2.703-1.21-2.703-2.701c0-1.494,1.209-2.702,2.703-2.702C23.647-1.606,24.856-0.398,24.856,1.096z M17.646,12.555h1.649
			h0.088l0.062-0.126l0.6-0.588l-0.555-0.118l-0.876-0.188L17.646,12.555z M28.949,1.596l-0.58,0.58l0.038,0.04l-0.466,0.473
			c0.062,0.057,0.122,0.116,0.174,0.183l0.472-0.473l0.097,0.088l0.571-0.583L28.949,1.596z M25.218,4.594L24.969,4.84l0.027,0.071
			l0.059,0.132l-3.939,3.952l0.424,0.09c0.389,0.082,0.722,0.314,0.941,0.651c0.029,0.048,0.038,0.106,0.063,0.157l0.012-0.015
			l0.292,0.192l0.104-0.022l1.148,0.834l0.77-1.058l-1.71-1.335l0.037-0.112h0.282l1.681-1.97l0.186-1.766L25.218,4.594z
			 M27.049,2.847c-0.511-0.057-1.007,0.326-1.065,0.854l-0.066,0.576l0,0l-0.038,0.417l-0.186,1.768l-0.021,0.165l-0.106,0.127
			l-1.503,1.763l1.134,0.89l0.407,0.318l-0.237,0.323l0.062,0.12c0.155,0.338,0.5,0.549,0.871,0.549
			c0.052,0,0.104-0.002,0.161-0.012c0.423-0.074,0.749-0.419,0.797-0.846l0.643-5.943C27.959,3.38,27.577,2.9,27.049,2.847z
			 M25.082,10.438l-0.553,0.759l-0.314,0.434l-0.433-0.315l-0.953-0.688l-0.081,0.021l-0.037-0.023c0,0.083-0.002,0.16-0.02,0.241
			c-0.019,0.081-0.046,0.152-0.077,0.227c-0.059,0.14-0.136,0.262-0.229,0.375l0.065,0.151c0.067,0.152,0.16,0.349,0.27,0.521
			l0.265,0.414h2.033L25.082,10.438z M21.222,12.056c-0.025,0-0.048-0.007-0.07-0.01c-0.011,0.043-0.018,0.075-0.018,0.075
			l0.23,0.432h0.548l0.357-0.124c-0.122-0.188-0.22-0.391-0.31-0.594C21.739,11.964,21.493,12.056,21.222,12.056z M22.017,10.01
			c-0.039-0.061-0.1-0.108-0.156-0.158c-0.029-0.029-0.057-0.071-0.098-0.095c-0.098-0.071-0.215-0.123-0.34-0.151l-0.421-0.086
			l-0.96-0.206l0,0l-0.849-0.181l-0.333-0.069l-0.544-0.117l-0.036-0.007l0.086-0.088l0.367-0.365l0.395-0.398
			c0.031,0.271,0.049,0.487,0.049,0.492l0.127,0.027l1.191,0.253l0.244-0.245l3.686-3.701l-0.083-0.208l0.029-0.024
			C23.837,4.521,23.21,4.43,22.417,4.43h-0.263c0,0-0.256,0-0.258,0c-0.557,0-1.118,0.037-1.669,0.16
			c-0.944,0.212-1.528,1.136-2.176,1.774c-0.665,0.656-1.313,1.338-1.961,2.012c-0.144,0.15-0.288,0.306-0.435,0.456
			c-0.249,0.249-0.34,0.617-0.241,0.958c0.097,0.338,0.378,0.594,0.725,0.672l1.275,0.273l0.541,0.113l3.064,0.654
			c0.07,0.011,0.138,0.022,0.203,0.022c0.446,0,0.847-0.312,0.944-0.764c0.036-0.179,0.009-0.347-0.045-0.506l-0.06-0.122
			C22.044,10.093,22.031,10.055,22.017,10.01z M20.662,12.37l-0.093-0.174l0.046-0.193l0.011-0.037l-0.146-0.033l-0.544,0.622h0.822
			L20.662,12.37z"/>
	</g>
	<path id="displaced" display="none" fill="#FFFFFF" d="M23.253-1.238c0.131,0.835-0.429,1.617-1.257,1.752
		c-0.831,0.137-1.621-0.425-1.755-1.254c-0.138-0.833,0.421-1.62,1.257-1.755C22.326-2.63,23.113-2.066,23.253-1.238z M22.775,4.81
		l1.35,2.155c0.192,0.303,0.587,0.401,0.896,0.221C25.331,7,25.435,6.608,25.268,6.293l-0.345-0.619
		c-0.301-0.529-0.593-1.063-0.89-1.594l-0.598-1.09c-0.07-0.128-0.136-0.271-0.208-0.42c-0.367-0.777-0.946-1.978-2.217-1.87
		c-1.084,0.095-2.185,0.61-3.269,1.532c-1.28,1.013-2.177,2.483-2.21,2.545c-0.044,0.063-0.084,0.131-0.114,0.192
		c-0.003,0.001-0.003,0.003-0.006,0.006l0,0C15.29,5.203,15.231,5.41,15.38,5.674c0.119,0.208,0.34,0.334,0.576,0.334
		c0.291,0,0.437-0.138,0.581-0.341l0,0c0.002,0,0.002-0.004,0.002-0.004c0.04-0.06,0.077-0.124,0.124-0.191
		c0.007-0.013,0.758-1.221,1.921-2.213c0.36-0.283,0.702-0.475,1.023-0.582l-0.261,3.138c-0.026,0.311-0.124,0.847-0.208,1.145
		l-0.584,2.047c-0.077,0.258-0.294,0.687-0.466,0.895l-1.579,1.955c-0.198,0.249-0.423,0.528-0.238,0.918
		c0.11,0.232,0.342,0.378,0.598,0.378c0.305,0,0.471-0.174,0.676-0.399l1.595-1.721c0.286-0.309,0.657-0.842,0.843-1.218
		l0.792-1.611l2.93,4.921c0.141,0.241,0.324,0.548,0.718,0.548l0,0c0.231,0,0.438-0.118,0.557-0.306
		c0.216-0.326,0.073-0.622-0.047-0.888l-2.371-5.144c-0.09-0.203-0.143-0.614-0.102-0.835L22.775,4.81z M25.256,10.163h3.55v1.055
		l3.525-2.036l-3.525-2.037v1.054h-3.55V10.163z"/>
	<path id="epidemie" display="none" fill="#FFFFFF" d="M29.3,6.133c0-3.823-2.995-6.933-6.768-7.127
		c1.667,0.159,2.964,1.368,2.964,2.84c0,0.506-0.167,0.972-0.437,1.383c-0.745-0.742-1.767-1.199-2.9-1.199
		c-1.13,0-2.151,0.457-2.894,1.197c-0.268-0.412-0.435-0.877-0.435-1.385c0-1.468,1.295-2.679,2.961-2.838
		c-3.772,0.195-6.768,3.307-6.768,7.13c0,1.152,0.28,2.24,0.763,3.206c-0.661-1.51-0.261-3.208,0.998-3.934
		c0.439-0.252,0.929-0.343,1.417-0.315c-0.093,0.336-0.154,0.686-0.154,1.053c0,1.898,1.298,3.483,3.048,3.956
		c-0.022,0.041-0.052,0.081-0.076,0.12c0,0.005,0,0.005,0,0.01c-0.057,0.13-0.132,0.235-0.218,0.325
		c-0.188,0.246-0.407,0.465-0.684,0.626c-1.266,0.729-2.947,0.224-3.918-1.121c1.278,1.939,3.47,3.222,5.96,3.222
		c2.473,0,4.646-1.255,5.93-3.165c-0.979,1.303-2.629,1.782-3.874,1.068c-0.441-0.258-0.763-0.642-0.984-1.087
		c1.752-0.472,3.04-2.059,3.04-3.954c0-0.367-0.061-0.717-0.153-1.053c0.495-0.031,0.986,0.058,1.426,0.314
		c1.223,0.705,1.637,2.324,1.053,3.803C29.046,8.272,29.3,7.235,29.3,6.133z M22.92,8.882c-0.029-0.595,0.095-1.218,0.394-1.808
		l-0.478-0.272c-0.168,0.176-0.407,0.285-0.675,0.285c-0.263,0-0.503-0.108-0.675-0.285l-0.466,0.267
		c0.299,0.595,0.426,1.223,0.392,1.816c-1.209-0.331-2.105-1.43-2.105-2.741c0-0.252,0.04-0.488,0.102-0.719
		c0.527,0.265,1.008,0.681,1.374,1.232l0.478-0.278c-0.022-0.082-0.052-0.157-0.052-0.246c0-0.441,0.306-0.797,0.716-0.905V4.685
		c-0.661-0.043-1.264-0.248-1.762-0.574c0.517-0.508,1.221-0.821,1.997-0.821c0.781,0,1.485,0.315,2.004,0.823
		c-0.501,0.326-1.101,0.529-1.764,0.572v0.545c0.409,0.106,0.713,0.463,0.713,0.905c0,0.088-0.025,0.165-0.046,0.246l0.482,0.283
		c0.365-0.549,0.845-0.964,1.368-1.23c0.059,0.227,0.1,0.464,0.1,0.71C25.017,7.452,24.126,8.548,22.92,8.882z"/>
	<path id="eruption" fill="#FFFFFF" d="M18.709,9.413c1.058,0.361,2.463,0.789,2.759-0.918c0.237-1.327,2.008-0.834,2.761-0.918
		c1.374-0.159,0.336-2.725-1.378-2.763c-1.737-0.039-2.528,0.723-3.218,2.3c-0.334,0.76-0.615,1.33-1.842,0.923
		c-1.229-0.41-2.127,0.598-1.383,1.841c0.661,1.099-0.008,2.299-0.008,2.299h1.852c0,0-0.016-0.681-0.46-1.379
		C17.271,9.982,17.626,9.041,18.709,9.413z M8.905,20.859c4.761-3.466,5.949-8.264,5.949-8.264h4.892c0,0,1.189,4.795,5.949,8.264
		H8.905z"/>
	<path id="returned" display="none" fill="#FFFFFF" d="M21.863-0.498c0.113,0.686-0.355,1.333-1.037,1.448
		c-0.686,0.112-1.333-0.354-1.446-1.037c-0.113-0.688,0.351-1.335,1.039-1.448C21.1-1.649,21.754-1.187,21.863-0.498z M21.471,4.492
		l1.114,1.782c0.153,0.248,0.486,0.331,0.742,0.18c0.251-0.151,0.34-0.477,0.199-0.736l-0.283-0.51
		c-0.244-0.436-0.484-0.877-0.729-1.316L22.017,2.99c-0.057-0.101-0.113-0.219-0.17-0.343c-0.308-0.643-0.788-1.635-1.832-1.542
		c-0.896,0.075-1.803,0.502-2.696,1.26c-1.058,0.837-1.799,2.051-1.833,2.1c-0.032,0.054-0.063,0.109-0.092,0.162
		c-0.002,0.002-0.004,0.002-0.004,0.005l0,0c-0.1,0.188-0.148,0.359-0.024,0.576c0.096,0.171,0.277,0.278,0.477,0.278
		c0.238,0,0.36-0.112,0.477-0.282l0,0c0.002-0.002,0.002-0.002,0.002-0.002c0.033-0.053,0.066-0.106,0.102-0.164
		c0.006-0.01,0.628-1.006,1.588-1.826c0.298-0.23,0.575-0.392,0.845-0.48l-0.215,2.594c-0.022,0.258-0.102,0.699-0.174,0.948
		l-0.479,1.687c-0.064,0.213-0.245,0.566-0.387,0.739l-1.303,1.613c-0.165,0.207-0.351,0.437-0.196,0.76
		c0.091,0.188,0.283,0.311,0.493,0.311c0.251,0,0.386-0.145,0.56-0.331l1.318-1.422c0.236-0.254,0.542-0.695,0.691-1.007
		l0.654-1.328l2.418,4.063c0.119,0.201,0.271,0.45,0.598,0.45l0,0c0.188,0,0.362-0.095,0.462-0.255
		c0.172-0.267,0.059-0.509-0.041-0.729l-1.956-4.25c-0.077-0.164-0.12-0.503-0.089-0.687L21.471,4.492z M29.615,5.399
		c0-1.775-1.444-3.213-3.215-3.213h-1.367v1.622h1.365c0.876,0,1.589,0.711,1.589,1.592c0,0.877-0.713,1.591-1.589,1.591h-0.283
		V6.12L23.2,7.801l2.914,1.682V8.611h0.319V8.608C28.189,8.591,29.615,7.161,29.615,5.399z"/>
	<path id="Attack" display="none" fill="#FFFFFF" d="M26.063,6.557l4.783-3.063l-4.623-0.491l1.257-5.371L24.201,1.02l-0.915-3.829
		l-1.374,3.574l-3.746-4.827l1.177,6.047l-3.33-0.739c0,0,1.012,1.937,1.577,3.104l-5.345-0.375l4.837,2.827L15.695,8.23l2.248-0.41
		l-1.593,5.634l4.735-3.959l1.229,3.06l1.262-2.448l4.084,4.215l-2.042-5.644l4.476,0.453L26.063,6.557z"/>
</g>
</svg>
