<?xml version="1.0" encoding="utf-8"?>
<!-- Generator: Adobe Illustrator 16.0.0, SVG Export Plug-In . SVG Version: 6.00 Build 0)  -->
<!DOCTYPE svg PUBLIC "-//W3C//DTD SVG 1.1//EN" "http://www.w3.org/Graphics/SVG/1.1/DTD/svg11.dtd">
<svg version="1.1" id="Layer_1" xmlns="http://www.w3.org/2000/svg" xmlns:xlink="http://www.w3.org/1999/xlink" x="0px" y="0px"
	 width="33.35px" height="40px" viewBox="0 0 33.35 40" enable-background="new 0 0 33.35 40" xml:space="preserve">
<g id="PinColor">
	<path id="PinOmbre" opacity="0.3" enable-background="new    " d="M28.906,29.964c0,1.757-3.858,3.231-9.053,3.62
		c-0.876,0.066-2.729,4.189-2.729,4.189s-1.918-4.125-2.822-4.195c-5.142-0.396-8.958-1.867-8.958-3.614
		c0-2.058,5.275-3.726,11.78-3.726C23.63,26.238,28.906,27.904,28.906,29.964z"/>
	<path id="vert" display="none" fill="#2ABF00" stroke="#1D7500" stroke-width="0.2" stroke-miterlimit="10" d="M28.906,12.675
		c0,5.382-3.858,9.896-9.053,11.087c-0.875,0.199-2.728,12.818-2.728,12.818s-1.918-12.619-2.822-12.842
		c-5.142-1.221-8.958-5.714-8.958-11.067c0-6.293,5.275-11.394,11.78-11.394S28.906,6.382,28.906,12.675z"/>
	<path id="orange" display="none" fill="#FF8500" stroke="#7F4500" stroke-width="0.2" stroke-miterlimit="10" d="M28.906,12.675
		c0,5.382-3.858,9.896-9.053,11.087c-0.875,0.199-2.728,12.818-2.728,12.818s-1.918-12.619-2.822-12.842
		c-5.142-1.221-8.958-5.714-8.958-11.067c0-6.293,5.275-11.394,11.78-11.394S28.906,6.382,28.906,12.675z"/>
	<path id="gris" fill="#A5A5A5" stroke="#595959" stroke-width="0.2" stroke-miterlimit="10" d="M28.906,12.675
		c0,5.382-3.858,9.896-9.053,11.087c-0.875,0.199-2.728,12.818-2.728,12.818s-1.918-12.619-2.822-12.842
		c-5.142-1.221-8.958-5.714-8.958-11.067c0-6.293,5.275-11.394,11.78-11.394S28.906,6.382,28.906,12.675z"/>
	<path id="bleu" display="none" fill="#0092FF" stroke="#00477C" stroke-width="0.2" stroke-miterlimit="10" d="M28.906,12.675
		c0,5.382-3.858,9.896-9.053,11.087c-0.875,0.199-2.728,12.818-2.728,12.818s-1.918-12.619-2.822-12.842
		c-5.142-1.221-8.958-5.714-8.958-11.067c0-6.293,5.275-11.394,11.78-11.394S28.906,6.382,28.906,12.675z"/>
</g>
<g id="Icons">
	<g id="Minimal">
		<path id="Election" display="none" fill="#565656" d="M29.011-1.442l-4.33-1.856c-0.13-0.054-0.279-0.017-0.364,0.093l-1.24,1.546
			C23.022-1.589,23-1.492,23.018-1.4c0.021,0.087,0.076,0.159,0.152,0.199l-3.881,1.457c-0.328,0.122-0.604,0.353-0.783,0.652
			L17.22,3.049c-0.272,0.456-0.294,1.011-0.057,1.486l0.094,0.181h-1.355c-0.171,0-0.31,0.137-0.31,0.309v5.875h-0.929
			c-0.172,0-0.307,0.138-0.307,0.307c0,0.172,0.135,0.31,0.307,0.31H25.18c0.17,0,0.303-0.138,0.303-0.31
			c0-0.169-0.133-0.307-0.303-0.307h-0.93v-3.16c0-0.105-0.056-0.206-0.143-0.261c-0.091-0.057-0.202-0.065-0.299-0.02
			c-0.341,0.16-0.592,0.242-0.71,0.277c-0.025,0.006-0.051,0.017-0.072,0.034l-2.015,1.206c-0.32,0.194-0.685,0.295-1.056,0.295
			c-0.686,0-1.325-0.341-1.717-0.919c-0.312-0.464-0.418-1.025-0.304-1.569c0.116-0.546,0.442-1.013,0.906-1.313l0.293-0.185
			c0.216-0.13,0.405-0.25,0.577-0.355c0.119-0.075,0.174-0.219,0.133-0.353c-0.076-0.248-0.205-0.47-0.324-0.639
			c0.471-0.207,1.11-0.575,1.432-0.948c0,0,0.004,0.002,0.006,0.002c0.067,0.042,0.146,0.085,0.236,0.128
			c0.007,0.002,0.009,0.004,0.017,0.006l0,0c0.23,0.111,0.522,0.223,0.857,0.289c-0.359,0.446-0.726,1.001-0.859,1.372
			c-0.256,0.112-0.789,0.414-2.031,1.207c-0.329,0.208-0.554,0.534-0.631,0.916c-0.082,0.383-0.01,0.772,0.21,1.099
			c0.277,0.415,0.73,0.644,1.201,0.644c0.251,0,0.507-0.068,0.737-0.206l2.125-1.276c0.332-0.081,1.985-0.576,3.238-2.601
			c0.981-1.587,1.533-2.866,1.761-3.444l0.038,0.019c0.13,0.063,0.271,0.097,0.414,0.097c0.235,0,0.472-0.095,0.646-0.261
			c0.183-0.174,0.282-0.412,0.282-0.666v-1.473C29.194-1.282,29.123-1.395,29.011-1.442z"/>
	</g>
	<g id="Faible">
		<path id="Famine" display="none" fill="#F9F9F9" d="M26.226,9.945l-2.46,0.465l-4.013-2.183l1.458-1.82l3.283,1.089L26.226,9.945z
			 M30.003,5.679v0.272l-2.587,0.821l-2.556,0.363l-3.284-1.092l-0.772-0.364h0.441c-0.105-0.977-0.246-1.716-0.314-2.685h-0.004
			c-0.003-0.029-0.036-0.678-0.044-0.954c-0.052-0.292-0.19-0.408-0.646-0.721c-0.25-0.161-0.436-0.22-0.541-0.217
			c-0.168,0-0.317,0.181-0.351,0.728c0.729,0.124,0.779,0.933,0.779,0.933c0.065,0.575-0.218,1.415-0.866,1.632
			c-1.203,0.4-1.079-1.915-0.401-2.47c0.019-0.666,0.205-1.279,0.839-1.303c0.251,0.002,0.508,0.105,0.805,0.293
			c0.142,0.084,0.256,0.171,0.357,0.26c-0.012-0.22-0.026-0.445-0.026-0.675c-0.002-0.486,0.074-1.016,0.508-1.392
			c0.221-0.202,0.472-0.307,0.718-0.305c0.644,0.032,1.04,0.584,1.271,1.15c0.271-0.118,0.607-0.176,0.995-0.042
			c0.988,0.343,1.521,2.065,1.106,2.667c-0.974,1.399-3.426-1.206-2.776-2.115c0,0,0.095-0.124,0.263-0.261
			c-0.191-0.501-0.573-0.95-0.86-0.919c-0.108,0.002-0.236,0.04-0.397,0.183c-0.273,0.24-0.346,0.581-0.346,1.031
			c0,0.315,0.038,0.666,0.038,1.019c0,0.183,0.013,0.346,0.021,0.522c0.044,0.313,0.046,0.554,0.044,0.885
			c0.066,0.964,0.457,1.758,0.56,2.753h8.027V5.679z M23.095,0.396l1.857,2.024c-0.332-1.435-1.509-2.234-1.509-2.234L23.095,0.396z
			 M19.245,2.134l-0.333,0.135c0,0-0.165,1.131,0,1.722L19.245,2.134z M17.581,8.958l1.476-0.887l1.539-1.904l-0.479-0.487h-3.401
			L16.04,7.027L17.581,8.958z M19.303,8.652l-2.616,1.782l0.35,0.431h6.021l-0.021-0.088L19.303,8.652z M13.921,5.679v2.053
			l1.677-0.899l0.508-1.155h-2.185V5.679z M25.346,7.575l1.62,2.353l3.036,0.712V7.948l-2.185-0.705L25.346,7.575z M30.003,7.36
			V6.41l-1.702,0.46L30.003,7.36z M15.639,7.493L13.921,8.31v2.555h1.257l1.872-1.533L15.639,7.493z M24.636,10.865h3.93
			l-1.881-0.455L24.636,10.865z"/>
		<path id="Cyclone" display="none" fill="#FFFFFF" d="M22.025,0.154c-0.082-0.003-0.164-0.013-0.247-0.013
			c-0.738,0-1.432,0.191-2.033,0.524c1.076-3.668,3.764-3.989,3.764-3.989s-5.935,0.495-5.935,7.421c0.004,0,0.008,0,0.012,0
			c-0.006,0.085-0.013,0.165-0.013,0.25c0,0.733,0.19,1.427,0.522,2.031c-3.668-1.078-3.989-3.761-3.989-3.761
			s0.493,5.937,7.424,5.937c0-0.007,0-0.009,0-0.014c0.08,0.004,0.163,0.014,0.246,0.014c0.736,0,1.429-0.193,2.032-0.526
			c-1.078,3.669-3.765,3.991-3.765,3.991s5.937-0.496,5.937-7.423c-0.004,0-0.009,0-0.013,0c0.004-0.083,0.013-0.163,0.013-0.246
			c0-0.737-0.192-1.431-0.526-2.031c3.668,1.076,3.99,3.764,3.99,3.764s-0.493-5.938-7.421-5.938
			C22.025,0.147,22.025,0.151,22.025,0.154z"/>
		<path id="tsunami" display="none" fill="#FFFFFF" d="M29.235,9.234C17.017,9.925,20.43,0.581,23.6,1.387
			c-0.327,0.199-0.537,0.887-0.334,1.349c0.221,0.496,0.936,0.778,1.346,0.676c0.984-0.255,1.028-1.635,0.674-2.361
			c-0.367-0.754-1.339-1.686-3.032-1.686c-4.093,0-6.884,2.09-7.935,5.682v5.282h14.918V9.234H29.235z"/>
		<path id="earthquake" display="none" fill="#FFFFFF" d="M26.124,4.808c-0.209,0-0.401,0.115-0.5,0.302L24.81,6.644l-1.005-2.941
			c-0.079-0.223-0.283-0.374-0.517-0.384c-0.242-0.007-0.452,0.13-0.544,0.346L22.057,5.3l-1.084-6.513
			c-0.054-0.272-0.31-0.479-0.571-0.465c-0.279,0.006-0.51,0.191-0.548,0.467l-0.962,7.558L18.115,2.29
			c-0.045-0.238-0.24-0.421-0.482-0.454c-0.241-0.033-0.481,0.097-0.585,0.316l-1.274,2.656h-1.979v1.131h2.336
			c0.217,0,0.417-0.126,0.511-0.319l0.683-1.427l1.106,5.753c0.052,0.267,0.284,0.461,0.556,0.461c0.005,0,0.011,0,0.015,0
			c0.276-0.008,0.507-0.217,0.546-0.491l0.948-7.427l0.79,4.889c0.046,0.247,0.245,0.434,0.496,0.461
			c0.251,0.024,0.488-0.112,0.587-0.344l0.849-2.019l0.947,2.771c0.072,0.215,0.264,0.365,0.488,0.384
			c0.226,0.013,0.441-0.1,0.548-0.299l1.268-2.392h2.43V4.809L26.124,4.808L26.124,4.808z"/>
	</g>
	<g id="Modéré">
	</g>
	<g id="Important">
		<path id="enlevement" display="none" fill="#FFFFFF" d="M27.067-2.831c-0.403,0-0.734,0.332-0.734,0.736v2.997
			c0.177,0.039,0.347,0.114,0.484,0.248c0.387,0.382,0.396,1.009,0.018,1.401l-1.393,1.433l-0.194-0.187l1.399-1.429
			c0.281-0.289,0.271-0.75-0.015-1.032c-0.09-0.084-0.196-0.144-0.306-0.176c-0.126-0.034-0.249-0.036-0.37-0.011
			c-0.136,0.035-0.255,0.103-0.35,0.204c-0.828,0.849-1.658,1.698-2.487,2.546c-0.205,0.213-0.586,0.7-0.573,1.186
			c0.008,0.456-0.007,0.925,0.002,1.384c-0.109-0.087-0.24-0.151-0.388-0.178c-0.427-0.069-0.813,0.185-0.959,0.564h-0.216
			c0-0.104,0-0.209,0.002-0.313c0.01-0.479-0.008-0.977,0.004-1.456c0.01-0.487-0.369-0.974-0.576-1.188
			c-0.827-0.85-1.655-1.699-2.485-2.548c-0.097-0.099-0.214-0.169-0.351-0.202c-0.121-0.025-0.246-0.023-0.368,0.011
			c-0.112,0.033-0.219,0.093-0.307,0.178c-0.285,0.28-0.291,0.74-0.013,1.032l1.397,1.427l-0.193,0.187l-1.393-1.433
			c-0.382-0.392-0.373-1.019,0.018-1.399c0.137-0.132,0.306-0.208,0.484-0.248v-2.996c0-0.406-0.332-0.736-0.734-0.736
			c-0.407,0-0.736,0.331-0.736,0.736v5.187c0,0.17,0.068,0.325,0.169,0.451l2.504,3.309h-0.221c-0.486,0-0.886,0.397-0.886,0.887
			c0,0.325,0.185,0.597,0.443,0.75c-0.261,0.156-0.443,0.429-0.443,0.751c0,0.491,0.397,0.888,0.886,0.888h0.271v0.493h2.46
			c0.129,0.128,0.279,0.222,0.461,0.252c0.05,0.008,0.096,0.012,0.146,0.012c0.432,0,0.801-0.307,0.871-0.735l0.004-0.022h0.156
			c0.003,0.164,0,0.324,0.02,0.492h2.503v-0.492h0.272c0.486,0,0.885-0.396,0.885-0.888c0-0.322-0.183-0.595-0.445-0.75
			c0.263-0.154,0.445-0.426,0.445-0.752c0-0.488-0.396-0.885-0.885-0.885h-0.222l2.505-3.311c0.103-0.126,0.168-0.282,0.168-0.451
			v-5.185C27.802-2.499,27.474-2.831,27.067-2.831z M17.744,7.74c0-0.244,0.2-0.441,0.442-0.441h2.904l-0.153,0.885h-2.751
			C17.945,8.182,17.744,7.986,17.744,7.74z M17.744,9.242c0-0.243,0.2-0.444,0.442-0.444h2.644l-0.153,0.886h-2.49
			C17.945,9.685,17.744,9.49,17.744,9.242z M21.957,10.076c-0.038,0.244-0.29,0.401-0.51,0.364c-0.116-0.021-0.219-0.084-0.286-0.18
			c-0.07-0.097-0.096-0.215-0.075-0.331l0.488-2.837c0.038-0.215,0.224-0.368,0.444-0.368c0.022,0,0.046,0,0.07,0.005
			c0.239,0.041,0.4,0.27,0.358,0.51L21.957,10.076z M25.791,9.242c0,0.246-0.199,0.443-0.441,0.443h-2.874l0.153-0.887h2.721
			C25.592,8.8,25.791,9,25.791,9.242z M25.791,7.74c0,0.244-0.199,0.442-0.441,0.442h-2.613l0.148-0.868
			c0.002-0.005,0-0.012,0-0.018h2.463C25.592,7.299,25.791,7.498,25.791,7.74z"/>
	</g>
	<g id="Elevé">
	</g>
	<g id="Extreme" display="none">
		<path id="rebelion" display="inline" fill="#FFFFFF" d="M24.089,0.364c0,1.364-1.104,2.468-2.466,2.468
			c-1.366,0-2.471-1.106-2.471-2.468c0-1.365,1.104-2.469,2.471-2.469C22.985-2.105,24.089-1.001,24.089,0.364z M17.5,10.834h1.509
			h0.08l0.055-0.116l0.55-0.537l-0.507-0.107l-0.801-0.172L17.5,10.834z M27.828,0.821l-0.53,0.529l0.036,0.036l-0.427,0.433
			c0.056,0.052,0.112,0.105,0.159,0.167l0.431-0.432l0.089,0.081l0.521-0.533L27.828,0.821z M24.42,3.56l-0.228,0.225l0.024,0.065
			l0.053,0.12l-3.599,3.611l0.388,0.082c0.354,0.075,0.659,0.287,0.86,0.595c0.026,0.043,0.034,0.097,0.057,0.144l0.012-0.014
			l0.266,0.176l0.095-0.02l1.049,0.762l0.705-0.966l-1.563-1.22l0.034-0.102h0.259l1.534-1.8l0.17-1.614L24.42,3.56z M26.092,1.964
			c-0.466-0.052-0.919,0.298-0.974,0.781l-0.06,0.526l0,0l-0.036,0.381l-0.17,1.615l-0.018,0.151l-0.097,0.116l-1.374,1.611
			l1.036,0.813l0.373,0.291l-0.217,0.295l0.055,0.109c0.143,0.31,0.457,0.502,0.796,0.502c0.049,0,0.097-0.002,0.147-0.012
			c0.388-0.067,0.686-0.382,0.729-0.772l0.588-5.43C26.925,2.451,26.574,2.013,26.092,1.964z M24.295,8.898L23.79,9.593
			l-0.288,0.396l-0.395-0.288l-0.87-0.628l-0.075,0.02L22.13,9.07c0,0.076-0.002,0.146-0.02,0.22
			c-0.016,0.074-0.042,0.139-0.069,0.207c-0.054,0.127-0.125,0.239-0.21,0.343l0.061,0.138c0.062,0.139,0.146,0.319,0.246,0.476
			l0.242,0.378h1.856L24.295,8.898z M20.768,10.377c-0.021,0-0.042-0.006-0.064-0.009c-0.009,0.04-0.015,0.069-0.015,0.069
			l0.21,0.394H21.4l0.326-0.113c-0.111-0.171-0.2-0.356-0.283-0.542C21.24,10.294,21.016,10.377,20.768,10.377z M21.494,8.508
			c-0.035-0.055-0.092-0.099-0.143-0.145c-0.026-0.026-0.051-0.064-0.089-0.087c-0.09-0.064-0.197-0.112-0.31-0.138L20.569,8.06
			l-0.877-0.188l0,0l-0.777-0.166l-0.303-0.063l-0.497-0.107l-0.033-0.007l0.078-0.08l0.336-0.333l0.36-0.364
			C18.884,7,18.9,7.197,18.9,7.202l0.116,0.024l1.089,0.232l0.223-0.224l3.367-3.381l-0.075-0.19l0.027-0.022
			c-0.488-0.147-1.063-0.231-1.786-0.231h-0.239c0,0-0.235,0-0.237,0c-0.508,0-1.021,0.034-1.524,0.146
			c-0.861,0.194-1.396,1.038-1.987,1.621c-0.607,0.6-1.199,1.223-1.792,1.838c-0.131,0.138-0.263,0.28-0.397,0.417
			c-0.228,0.228-0.31,0.563-0.22,0.875c0.089,0.309,0.346,0.543,0.662,0.614l1.165,0.249l0.495,0.104l2.8,0.597
			c0.063,0.01,0.125,0.021,0.186,0.021c0.408,0,0.772-0.285,0.861-0.698c0.034-0.164,0.009-0.317-0.04-0.463l-0.055-0.111
			C21.52,8.584,21.507,8.55,21.494,8.508z M20.257,10.664l-0.084-0.159l0.041-0.177l0.01-0.034l-0.135-0.03l-0.495,0.567h0.75
			L20.257,10.664z"/>
	</g>
	<path id="displaced" display="none" fill="#FFFFFF" d="M22.623-1.768c0.121,0.763-0.391,1.478-1.147,1.601
		c-0.759,0.125-1.48-0.388-1.604-1.146c-0.125-0.761,0.386-1.48,1.149-1.604C21.779-3.041,22.496-2.525,22.623-1.768z M22.188,3.757
		l1.232,1.969c0.176,0.277,0.536,0.366,0.818,0.202c0.285-0.169,0.38-0.528,0.226-0.815L24.15,4.547
		c-0.274-0.483-0.542-0.971-0.812-1.456l-0.546-0.996c-0.064-0.117-0.125-0.248-0.191-0.384c-0.335-0.71-0.864-1.807-2.024-1.708
		c-0.99,0.087-1.997,0.557-2.986,1.399c-1.17,0.926-1.989,2.269-2.021,2.326c-0.04,0.057-0.076,0.12-0.104,0.176
		c-0.003,0.001-0.003,0.003-0.005,0.005l0,0c-0.112,0.208-0.166,0.397-0.029,0.639c0.109,0.19,0.311,0.305,0.527,0.305
		c0.266,0,0.399-0.126,0.53-0.311l0,0c0.002,0,0.002-0.004,0.002-0.004c0.036-0.054,0.07-0.113,0.112-0.175
		c0.006-0.012,0.693-1.115,1.755-2.022c0.33-0.258,0.643-0.434,0.936-0.532l-0.238,2.867c-0.023,0.284-0.112,0.774-0.189,1.046
		l-0.534,1.871c-0.07,0.235-0.268,0.627-0.425,0.818l-1.443,1.786c-0.181,0.227-0.387,0.483-0.217,0.838
		c0.1,0.212,0.312,0.346,0.546,0.346c0.278,0,0.431-0.159,0.617-0.365l1.459-1.572c0.259-0.282,0.6-0.769,0.768-1.113l0.726-1.472
		l2.676,4.496c0.128,0.22,0.296,0.5,0.656,0.5l0,0c0.21,0,0.399-0.107,0.509-0.279c0.195-0.298,0.066-0.568-0.044-0.812l-2.165-4.7
		C21.91,5.877,21.864,5.502,21.9,5.3L22.188,3.757z M24.454,8.648h3.244v0.964l3.221-1.86l-3.221-1.86v0.963h-3.244V8.648z"/>
	<path id="epidemie" display="none" fill="#FFFFFF" d="M28.15,4.966c0-3.493-2.737-6.334-6.184-6.512
		c1.523,0.146,2.708,1.25,2.708,2.595c0,0.461-0.153,0.887-0.399,1.263c-0.682-0.678-1.614-1.095-2.649-1.095
		c-1.033,0-1.966,0.417-2.645,1.093c-0.243-0.376-0.397-0.802-0.397-1.265c0-1.341,1.185-2.448,2.706-2.593
		c-3.446,0.178-6.183,3.021-6.183,6.514c0,1.053,0.256,2.046,0.697,2.929c-0.604-1.379-0.238-2.931,0.912-3.594
		c0.401-0.23,0.849-0.313,1.295-0.288C17.926,4.32,17.87,4.64,17.87,4.975c0,1.734,1.185,3.183,2.785,3.614
		c-0.022,0.037-0.049,0.074-0.07,0.109c0,0.004,0,0.004,0,0.009c-0.052,0.119-0.121,0.215-0.2,0.297
		c-0.171,0.224-0.371,0.424-0.624,0.572c-1.156,0.666-2.692,0.204-3.58-1.024c1.168,1.771,3.171,2.944,5.446,2.944
		c2.259,0,4.245-1.147,5.418-2.891c-0.894,1.19-2.402,1.628-3.54,0.975c-0.403-0.236-0.697-0.586-0.899-0.993
		c1.601-0.431,2.777-1.881,2.777-3.612c0-0.335-0.055-0.655-0.14-0.962c0.453-0.028,0.9,0.053,1.303,0.287
		c1.117,0.644,1.496,2.124,0.962,3.474C27.918,6.92,28.15,5.973,28.15,4.966z M22.321,7.478c-0.028-0.543,0.087-1.113,0.358-1.652
		l-0.436-0.249c-0.153,0.161-0.373,0.261-0.617,0.261c-0.24,0-0.459-0.099-0.616-0.261L20.585,5.82
		c0.272,0.543,0.388,1.117,0.356,1.659c-1.104-0.302-1.923-1.307-1.923-2.504c0-0.23,0.036-0.446,0.094-0.657
		c0.481,0.243,0.919,0.623,1.255,1.126l0.436-0.254c-0.02-0.075-0.047-0.144-0.047-0.225c0-0.403,0.278-0.729,0.653-0.827V3.643
		c-0.604-0.04-1.154-0.227-1.609-0.524c0.472-0.464,1.115-0.75,1.825-0.75c0.713,0,1.357,0.288,1.83,0.752
		c-0.458,0.298-1.005,0.483-1.61,0.522v0.498c0.374,0.097,0.651,0.423,0.651,0.827c0,0.081-0.022,0.151-0.043,0.225l0.442,0.258
		c0.333-0.502,0.771-0.881,1.248-1.124c0.054,0.207,0.092,0.423,0.092,0.648C24.236,6.171,23.422,7.172,22.321,7.478z"/>
	<path id="eruption" fill="#FFFFFF" d="M19.012,8.64c1.049,0.358,2.442,0.782,2.737-0.912c0.235-1.317,1.994-0.828,2.74-0.912
		c1.362-0.158,0.333-2.705-1.369-2.742c-1.723-0.038-2.509,0.718-3.192,2.282c-0.332,0.755-0.61,1.32-1.828,0.917
		c-1.219-0.408-2.111,0.593-1.372,1.826c0.655,1.091-0.009,2.282-0.009,2.282h1.838c0,0-0.015-0.676-0.457-1.369
		C17.583,9.205,17.937,8.271,19.012,8.64z M9.281,20c4.725-3.44,5.904-8.202,5.904-8.202h4.855c0,0,1.181,4.759,5.903,8.202H9.281z"
		/>
	<path id="returned" display="none" fill="#FFFFFF" d="M21.355-1.092c0.102,0.627-0.325,1.218-0.948,1.323
		c-0.627,0.103-1.218-0.323-1.321-0.948c-0.104-0.628,0.319-1.219,0.948-1.323C20.657-2.144,21.254-1.722,21.355-1.092z
		 M20.995,3.467l1.019,1.628c0.141,0.227,0.444,0.302,0.679,0.165c0.229-0.138,0.311-0.436,0.182-0.673L22.615,4.12
		c-0.224-0.398-0.442-0.801-0.666-1.202l-0.454-0.824c-0.053-0.092-0.104-0.2-0.156-0.313c-0.28-0.587-0.719-1.493-1.673-1.409
		c-0.819,0.069-1.647,0.459-2.465,1.151c-0.966,0.765-1.643,1.874-1.674,1.918c-0.029,0.05-0.058,0.1-0.083,0.148
		c-0.002,0.002-0.004,0.002-0.004,0.004l0,0c-0.091,0.172-0.135,0.329-0.021,0.526c0.088,0.157,0.253,0.254,0.436,0.254
		c0.217,0,0.329-0.102,0.435-0.258l0,0c0.002-0.002,0.002-0.002,0.002-0.002c0.03-0.048,0.061-0.097,0.093-0.149
		c0.005-0.009,0.574-0.919,1.452-1.668c0.271-0.21,0.526-0.358,0.771-0.438l-0.196,2.37c-0.021,0.236-0.094,0.639-0.159,0.866
		l-0.438,1.541C17.754,6.83,17.59,7.152,17.46,7.31l-1.19,1.474c-0.151,0.189-0.32,0.399-0.179,0.694
		c0.083,0.171,0.258,0.284,0.45,0.284c0.23,0,0.353-0.132,0.512-0.302l1.204-1.3c0.216-0.232,0.494-0.634,0.631-0.919l0.598-1.214
		l2.21,3.712c0.108,0.184,0.248,0.411,0.546,0.411l0,0c0.172,0,0.33-0.086,0.422-0.232c0.156-0.244,0.053-0.465-0.038-0.666
		L20.838,5.37c-0.07-0.15-0.109-0.46-0.081-0.627L20.995,3.467z M28.436,4.295c0-1.622-1.319-2.936-2.938-2.936H24.25v1.481h1.247
		c0.801,0,1.452,0.65,1.452,1.454c0,0.802-0.651,1.455-1.452,1.455H25.24V4.954L22.576,6.49l2.663,1.537V7.23h0.29V7.228
		C27.133,7.212,28.436,5.905,28.436,4.295z"/>
	<path id="Attack" display="none" fill="#FFFFFF" d="M25.191,5.353l4.37-2.799l-4.224-0.449l1.149-4.906L23.49,0.294l-0.835-3.498
		l-1.257,3.265l-3.422-4.41l1.074,5.525l-3.042-0.675c0,0,0.925,1.77,1.441,2.836l-4.883-0.343l4.419,2.583l-1.268,1.305
		l2.054-0.375l-1.456,5.148l4.326-3.618l1.122,2.796l1.153-2.237l3.73,3.852l-1.866-5.156l4.091,0.414L25.191,5.353z"/>
</g>
</svg>
