<?xml version="1.0" encoding="utf-8"?>
<!-- Generator: Adobe Illustrator 16.0.0, SVG Export Plug-In . SVG Version: 6.00 Build 0)  -->
<!DOCTYPE svg PUBLIC "-//W3C//DTD SVG 1.1//EN" "http://www.w3.org/Graphics/SVG/1.1/DTD/svg11.dtd">
<svg version="1.1" id="Groupe" xmlns="http://www.w3.org/2000/svg" xmlns:xlink="http://www.w3.org/1999/xlink" x="0px" y="0px"
	 width="15.871px" height="15.65px" viewBox="0 0 15.871 15.65" enable-background="new 0 0 15.871 15.65" xml:space="preserve">
<g id="PinColor_1_">
	<path id="vert" display="none" fill="#2ABF00" stroke="#1D7500" stroke-width="0.2" stroke-miterlimit="10" d="M15.357,7.877
		c0,3.391-2.428,6.235-5.702,6.989c-0.55,0.121-2.928,0.121-3.495-0.021c-3.241-0.768-5.645-3.596-5.645-6.97
		c0-3.958,3.325-7.179,7.421-7.179C12.03,0.696,15.357,3.917,15.357,7.877z"/>
	<path id="orange" display="none" fill="#FF8500" stroke="#7F4500" stroke-width="0.2" stroke-miterlimit="10" d="M15.357,7.877
		c0,3.391-2.428,6.235-5.702,6.989c-0.55,0.121-2.928,0.121-3.495-0.021c-3.241-0.768-5.645-3.596-5.645-6.97
		c0-3.958,3.325-7.179,7.421-7.179C12.03,0.696,15.357,3.917,15.357,7.877z"/>
	<path id="gris" display="none" fill="#A5A5A5" stroke="#595959" stroke-width="0.2" stroke-miterlimit="10" d="M15.357,7.877
		c0,3.391-2.428,6.235-5.702,6.989c-0.55,0.121-2.928,0.121-3.495-0.021c-3.241-0.768-5.645-3.596-5.645-6.97
		c0-3.958,3.325-7.179,7.421-7.179C12.03,0.696,15.357,3.917,15.357,7.877z"/>
	<path id="bleu" fill="#0092FF" stroke="#00477C" stroke-width="0.2" stroke-miterlimit="10" d="M15.357,7.877
		c0,3.391-2.428,6.235-5.702,6.989c-0.55,0.121-2.928,0.121-3.495-0.021c-3.241-0.768-5.645-3.596-5.645-6.97
		c0-3.958,3.325-7.179,7.421-7.179C12.03,0.696,15.357,3.917,15.357,7.877z"/>
</g>
<g id="IconsGroup">
	<g id="MinimalGroup" display="none">
		<path id="ElectionGroup" display="inline" fill="#565656" d="M12.204,4.56L9.646,3.467C9.575,3.436,9.48,3.455,9.435,3.519
			L8.702,4.433c-0.034,0.036-0.046,0.1-0.034,0.152C8.679,4.64,8.712,4.679,8.761,4.701L6.471,5.566
			c-0.192,0.066-0.359,0.201-0.464,0.38L5.248,7.209c-0.16,0.268-0.175,0.596-0.033,0.875l0.057,0.106H4.471
			c-0.102,0-0.181,0.083-0.181,0.183v3.463H3.742c-0.1,0-0.178,0.084-0.178,0.18c0,0.102,0.082,0.184,0.178,0.184h6.197
			c0.1,0,0.18-0.082,0.18-0.184c0-0.096-0.08-0.18-0.18-0.18H9.392V9.975c0-0.057-0.033-0.121-0.08-0.15
			C9.259,9.79,9.191,9.784,9.132,9.813C8.935,9.907,8.784,9.954,8.715,9.975c-0.014,0-0.03,0.01-0.04,0.018l-1.19,0.711
			c-0.19,0.111-0.405,0.176-0.622,0.176c-0.41,0-0.777-0.203-1.009-0.545c-0.188-0.273-0.253-0.602-0.181-0.926
			c0.068-0.32,0.26-0.598,0.532-0.771L6.38,8.526c0.127-0.074,0.24-0.145,0.338-0.208c0.072-0.041,0.1-0.129,0.078-0.209
			C6.753,7.963,6.681,7.833,6.605,7.733c0.278-0.119,0.655-0.337,0.847-0.558l0,0C7.492,7.2,7.54,7.227,7.59,7.252
			c0.005,0,0.005,0,0.011,0.003l0,0c0.133,0.066,0.302,0.133,0.503,0.172C7.893,7.692,7.679,8.018,7.596,8.233
			c-0.141,0.069-0.458,0.241-1.19,0.709C6.21,9.065,6.077,9.26,6.033,9.487C5.984,9.712,6.026,9.94,6.157,10.134
			c0.167,0.246,0.43,0.381,0.707,0.381c0.149,0,0.297-0.045,0.435-0.121l1.254-0.754c0.192-0.047,1.166-0.34,1.906-1.534
			c0.58-0.936,0.905-1.688,1.038-2.029l0.022,0.011c0.076,0.033,0.164,0.061,0.242,0.061c0.146,0,0.287-0.061,0.387-0.157
			c0.105-0.103,0.166-0.242,0.166-0.393v-0.87C12.308,4.654,12.269,4.585,12.204,4.56z"/>
	</g>
	<g id="FaibleGroup" display="none">
		<path id="FamineGroup" display="inline" fill="#F9F9F9" d="M10.31,10.981l-1.388,0.262l-2.26-1.234l0.823-1.02l1.846,0.613
			L10.31,10.981z M12.435,8.575v0.156l-1.459,0.461L9.539,9.395L7.689,8.782L7.253,8.575h0.25c-0.06-0.546-0.14-0.966-0.178-1.513
			l0,0C7.323,7.049,7.302,6.684,7.298,6.529C7.271,6.361,7.19,6.297,6.935,6.118C6.791,6.032,6.686,5.999,6.631,5.999
			c-0.094,0-0.178,0.102-0.199,0.414c0.413,0.068,0.439,0.523,0.439,0.523c0.037,0.323-0.125,0.795-0.489,0.92
			C5.709,8.081,5.774,6.78,6.157,6.466c0.011-0.375,0.116-0.721,0.475-0.734c0.144,0,0.289,0.062,0.453,0.166
			c0.076,0.051,0.144,0.095,0.198,0.149C7.276,5.919,7.271,5.792,7.271,5.659c0-0.276,0.042-0.569,0.286-0.782
			C7.681,4.761,7.818,4.698,7.962,4.7c0.36,0.021,0.58,0.332,0.715,0.648C8.825,5.283,9.015,5.252,9.232,5.33
			c0.558,0.188,0.861,1.163,0.63,1.497c-0.554,0.79-1.932-0.675-1.57-1.19c0,0,0.057-0.066,0.149-0.146
			c-0.109-0.282-0.322-0.53-0.48-0.518c-0.063,0-0.138,0.022-0.226,0.103C7.582,5.215,7.539,5.405,7.539,5.659
			c0,0.179,0.023,0.378,0.023,0.573c0,0.105,0.005,0.196,0.008,0.295c0.027,0.178,0.027,0.311,0.027,0.498
			c0.04,0.544,0.256,0.991,0.318,1.549H12.435z M8.541,5.601l1.051,1.142c-0.188-0.81-0.85-1.26-0.85-1.26L8.541,5.601z
			 M6.374,6.579L6.187,6.656c0,0-0.092,0.638,0,0.969L6.374,6.579z M5.438,10.423l0.831-0.5l0.864-1.07L6.867,8.575H4.952
			L4.571,9.341L5.438,10.423z M6.406,10.249l-1.471,1.006l0.192,0.242h3.393L8.511,11.45L6.406,10.249z M3.376,8.575v1.156
			l0.939-0.504l0.29-0.652H3.376z M9.812,9.641l0.914,1.332l1.709,0.402V9.854L11.204,9.46L9.812,9.641z M12.435,9.522V8.989
			l-0.961,0.258L12.435,9.522z M4.344,9.6l-0.967,0.459v1.438h0.707l1.055-0.861L4.344,9.6z M9.409,11.497h2.215l-1.056-0.254
			L9.409,11.497z"/>
		<path id="CycloneGroup" display="inline" fill="#FFFFFF" d="M7.938,5.463c-0.048,0-0.094-0.005-0.141-0.005
			c-0.416,0-0.804,0.107-1.141,0.292C7.26,3.69,8.771,3.505,8.771,3.505S5.43,3.79,5.43,7.689c0.002,0,0.002,0,0.007,0
			c0,0.044-0.004,0.088-0.004,0.139c0,0.41,0.108,0.806,0.294,1.146C3.662,8.362,3.483,6.852,3.483,6.852s0.28,3.344,4.183,3.344
			c0-0.004,0-0.004,0-0.008c0.045,0.002,0.088,0.008,0.137,0.008c0.416,0,0.805-0.107,1.145-0.295
			c-0.611,2.066-2.125,2.246-2.125,2.246s3.348-0.281,3.348-4.184c-0.006,0-0.006,0-0.006,0c0-0.047,0.006-0.094,0.006-0.138
			c0-0.417-0.105-0.808-0.296-1.146C11.937,7.283,12.124,8.8,12.124,8.8s-0.278-3.341-4.186-3.341
			C7.938,5.46,7.938,5.463,7.938,5.463z"/>
		<path id="tsunamiGroup" display="inline" fill="#FFFFFF" d="M12.004,10.579c-6.889,0.391-4.96-4.873-3.179-4.419
			c-0.184,0.112-0.301,0.5-0.188,0.756C8.761,7.2,9.168,7.354,9.402,7.296C9.951,7.155,9.976,6.382,9.78,5.967
			C9.568,5.549,9.021,5.021,8.064,5.021c-2.299,0-3.877,1.178-4.468,3.198v2.977h8.408V10.579z"/>
		<path id="earthquakeGroup" display="inline" fill="#FFFFFF" d="M10.249,8.087c-0.116,0-0.228,0.065-0.282,0.174L9.509,9.12
			L8.945,7.463C8.898,7.339,8.784,7.253,8.65,7.247C8.513,7.244,8.396,7.322,8.349,7.446L7.96,8.362L7.348,4.693
			c-0.028-0.151-0.175-0.268-0.319-0.26C6.867,4.439,6.737,4.541,6.717,4.696L6.177,8.95l-0.44-2.282
			C5.712,6.535,5.602,6.43,5.463,6.413C5.331,6.397,5.199,6.466,5.133,6.587l-0.718,1.5H3.306v0.638h1.316
			c0.122,0,0.235-0.066,0.289-0.18l0.387-0.804l0.623,3.242c0.03,0.146,0.164,0.254,0.311,0.254c0.005,0,0.008,0,0.011,0
			c0.157-0.002,0.287-0.117,0.306-0.275l0.532-4.185l0.447,2.751c0.025,0.145,0.136,0.248,0.278,0.268
			c0.144,0.012,0.276-0.063,0.33-0.193l0.478-1.137l0.532,1.566c0.045,0.117,0.148,0.197,0.275,0.209
			c0.131,0.008,0.249-0.057,0.307-0.17l0.715-1.35h1.367V8.087H10.249z"/>
	</g>
	<g id="ImportantGroup" display="none">
		<path id="enlevementGroup" display="inline" fill="#FFFFFF" d="M11.64,3.226c-0.271,0-0.485,0.218-0.485,0.486V5.69
			c0.122,0.025,0.231,0.072,0.325,0.163c0.254,0.251,0.261,0.668,0.012,0.922l-0.924,0.947l-0.127-0.124l0.923-0.941
			c0.18-0.193,0.177-0.495-0.011-0.681c-0.058-0.057-0.127-0.098-0.205-0.118c-0.08-0.021-0.159-0.021-0.237-0.005
			c-0.095,0.02-0.171,0.066-0.231,0.132C10.132,6.546,9.585,7.107,9.039,7.67C8.898,7.808,8.65,8.123,8.656,8.45
			c0.006,0.301,0,0.609,0,0.912c-0.07-0.061-0.154-0.1-0.254-0.117C8.119,9.194,7.868,9.366,7.771,9.618H7.63
			c0-0.066,0-0.139,0-0.207c0.005-0.313-0.006-0.645,0-0.961c0.011-0.321-0.243-0.642-0.377-0.777
			c-0.548-0.566-1.091-1.127-1.639-1.69c-0.062-0.063-0.145-0.11-0.232-0.13c-0.08-0.02-0.162-0.017-0.243,0.005
			C5.064,5.878,4.992,5.919,4.938,5.977C4.749,6.162,4.743,6.463,4.923,6.657l0.922,0.94L5.724,7.722L4.803,6.775
			C4.554,6.521,4.56,6.104,4.813,5.853C4.907,5.765,5.016,5.718,5.131,5.69V3.712c0-0.269-0.22-0.486-0.486-0.486
			c-0.271,0-0.486,0.218-0.486,0.486v3.422c0,0.113,0.045,0.215,0.11,0.298L5.923,9.61H5.78c-0.322,0-0.581,0.264-0.581,0.59
			c0,0.215,0.119,0.393,0.294,0.492c-0.173,0.107-0.294,0.287-0.294,0.494c0,0.324,0.259,0.584,0.581,0.584h0.178v0.326h1.624
			c0.084,0.086,0.184,0.146,0.302,0.172c0.038,0.008,0.066,0.01,0.1,0.01c0.289,0,0.532-0.203,0.581-0.484v-0.021h0.104
			c0,0.107,0,0.217,0.012,0.326h1.646v-0.324h0.177c0.317,0,0.583-0.26,0.583-0.584c0-0.209-0.119-0.395-0.296-0.496
			c0.177-0.102,0.296-0.279,0.296-0.494c0-0.324-0.266-0.586-0.583-0.586h-0.141l1.651-2.179c0.069-0.086,0.113-0.185,0.113-0.298
			V3.718C12.126,3.445,11.908,3.226,11.64,3.226z M5.485,10.2c0-0.16,0.134-0.291,0.294-0.291h1.918l-0.102,0.586H5.78
			C5.62,10.489,5.485,10.36,5.485,10.2z M5.485,11.19c0-0.162,0.134-0.295,0.294-0.295h1.746l-0.1,0.588H5.78
			C5.62,11.483,5.485,11.354,5.485,11.19z M8.272,11.741c-0.026,0.158-0.196,0.262-0.337,0.238c-0.079-0.01-0.144-0.053-0.189-0.117
			c-0.045-0.063-0.06-0.141-0.049-0.221L8.02,9.768c0.026-0.141,0.148-0.242,0.292-0.242c0.018,0,0.034,0,0.048,0.002
			C8.521,9.561,8.626,9.71,8.597,9.87L8.272,11.741z M10.8,11.19c0,0.164-0.127,0.293-0.291,0.293H8.611l0.1-0.588h1.799
			C10.668,10.899,10.8,11.03,10.8,11.19z M10.8,10.2c0,0.158-0.127,0.293-0.291,0.293H8.784l0.096-0.57c0-0.002,0-0.008,0-0.01h1.63
			C10.668,9.909,10.8,10.042,10.8,10.2z"/>
	</g>
	<g id="EleveGroup" display="none">
		<path id="attackGroup" display="inline" fill="#FFFFFF" d="M10.066,8.495l2.242-1.441l-2.17-0.229l0.59-2.517L9.193,5.9
			L8.761,4.099L8.12,5.775L6.359,3.51l0.552,2.839L5.348,6.002c0,0,0.475,0.909,0.742,1.458L3.581,7.283L5.852,8.61l-0.65,0.666
			l1.053-0.188L5.51,11.729l2.219-1.857l0.58,1.438L8.9,10.165l1.912,1.975l-0.961-2.65l2.104,0.217L10.066,8.495z"/>
	</g>
	<g id="ExtremeGroup" display="none">
		<path id="rebelionGroup" display="inline" fill="#FFFFFF" d="M9.502,5.146C9.502,6.06,8.759,6.8,7.852,6.8
			c-0.917,0-1.658-0.74-1.658-1.654c0-0.917,0.741-1.653,1.658-1.653C8.761,3.491,9.502,4.229,9.502,5.146z M5.087,12.161h1.007
			h0.057l0.039-0.078l0.366-0.359L6.21,11.649L5.68,11.536L5.087,12.161z M12.007,5.452l-0.354,0.355l0.021,0.025l-0.289,0.285
			c0.041,0.039,0.076,0.073,0.109,0.115l0.29-0.29l0.058,0.054l0.35-0.356L12.007,5.452z M9.724,7.286L9.568,7.441l0.018,0.042
			l0.039,0.083L7.211,9.981l0.257,0.063c0.24,0.049,0.445,0.186,0.58,0.396c0.02,0.027,0.025,0.063,0.038,0.094l0.005-0.008
			l0.178,0.115l0.062-0.014l0.701,0.512l0.477-0.646l-1.051-0.82l0.028-0.068h0.178l1.024-1.207l0.117-1.081L9.724,7.286z
			 M10.845,6.217c-0.315-0.033-0.619,0.202-0.652,0.525l-0.045,0.353l0,0l-0.021,0.254l-0.115,1.08L10,8.532L9.939,8.606
			L9.017,9.692l0.689,0.537l0.255,0.197l-0.149,0.199l0.037,0.066c0.096,0.207,0.306,0.334,0.531,0.334c0.032,0,0.065,0,0.1-0.008
			c0.26-0.041,0.459-0.254,0.485-0.516l0.397-3.641C11.402,6.543,11.166,6.253,10.845,6.217z M9.642,10.868l-0.338,0.465
			l-0.193,0.262l-0.268-0.193l-0.583-0.42l-0.05,0.012l-0.023-0.012c0,0.051,0,0.098-0.014,0.146
			c-0.008,0.047-0.025,0.094-0.045,0.139c-0.033,0.084-0.085,0.154-0.138,0.229l0.042,0.094c0.039,0.094,0.096,0.213,0.161,0.32
			l0.167,0.252h1.244L9.642,10.868z M7.276,11.854c-0.011,0-0.029-0.004-0.046-0.004c0,0.023-0.005,0.039-0.005,0.039l0.141,0.271
			h0.334l0.218-0.076c-0.074-0.115-0.134-0.238-0.191-0.365C7.59,11.8,7.443,11.854,7.276,11.854z M7.763,10.602
			c-0.022-0.035-0.062-0.066-0.094-0.094c-0.02-0.021-0.033-0.047-0.062-0.061c-0.056-0.041-0.132-0.078-0.209-0.094l-0.254-0.053
			l-0.59-0.123l0,0L6.03,10.065l-0.201-0.039l-0.33-0.074L5.475,9.948l0.057-0.059l0.227-0.225l0.24-0.24
			c0.019,0.17,0.029,0.297,0.029,0.299l0.079,0.018l0.728,0.158l0.15-0.152l2.257-2.264L9.187,7.355l0.018-0.014
			c-0.325-0.097-0.71-0.16-1.196-0.16H7.852H7.692c-0.342,0-0.685,0.028-1.021,0.101c-0.582,0.132-0.942,0.7-1.332,1.086
			C4.93,8.77,4.533,9.188,4.139,9.602C4.051,9.696,3.962,9.79,3.869,9.878c-0.15,0.158-0.207,0.381-0.15,0.588
			c0.062,0.209,0.232,0.363,0.447,0.414l0.78,0.168l0.332,0.068l1.878,0.4c0.042,0.006,0.082,0.01,0.122,0.01
			c0.273,0,0.521-0.184,0.58-0.469c0.022-0.111,0.006-0.207-0.029-0.303l-0.034-0.08C7.783,10.653,7.771,10.634,7.763,10.602z
			 M6.935,12.05l-0.057-0.107l0.032-0.117l0.003-0.023l-0.094-0.027L6.49,12.161h0.504L6.935,12.05z"/>
	</g>
	<path id="displacedGroup" display="none" fill="#FFFFFF" d="M7.897,4.585c0.069,0.428-0.219,0.828-0.645,0.899
		C6.827,5.56,6.418,5.267,6.352,4.844c-0.068-0.43,0.218-0.836,0.647-0.902C7.426,3.867,7.828,4.16,7.897,4.585z M7.655,7.695
		l0.693,1.107c0.1,0.158,0.302,0.207,0.464,0.113C8.97,8.821,9.021,8.622,8.933,8.458L8.761,8.142
		c-0.156-0.275-0.303-0.549-0.458-0.82L7.995,6.759C7.96,6.692,7.928,6.623,7.89,6.543C7.701,6.145,7.404,5.527,6.75,5.582
		C6.192,5.632,5.625,5.9,5.069,6.372c-0.658,0.519-1.122,1.27-1.136,1.309c-0.022,0.03-0.045,0.063-0.059,0.094c0,0,0,0-0.006,0.003
		l0,0C3.809,7.897,3.777,8.002,3.852,8.14c0.063,0.103,0.178,0.171,0.3,0.171c0.149,0,0.224-0.072,0.297-0.177l0,0l0,0
		c0.022-0.031,0.043-0.063,0.062-0.097C4.514,8.031,4.9,7.404,5.503,6.899c0.181-0.144,0.359-0.242,0.523-0.295L5.893,8.211
		c-0.013,0.157-0.064,0.436-0.107,0.59l-0.3,1.053c-0.036,0.131-0.152,0.354-0.238,0.459l-0.811,1.002
		c-0.105,0.133-0.221,0.275-0.128,0.479c0.06,0.119,0.178,0.189,0.312,0.189c0.155,0,0.241-0.09,0.348-0.207l0.82-0.883
		c0.147-0.158,0.336-0.434,0.433-0.625L6.628,9.44l1.507,2.529c0.074,0.125,0.169,0.281,0.375,0.281l0,0
		c0.114,0,0.223-0.061,0.287-0.156c0.109-0.168,0.033-0.32-0.029-0.459L7.544,8.989c-0.047-0.102-0.07-0.314-0.054-0.428
		L7.655,7.695z M8.929,10.448h1.821v0.541l1.817-1.047L10.75,8.895V9.44H8.929V10.448z"/>
	<path id="eruptionGroup" fill="#FFFFFF" d="M8.458,6.215c0.5,0.171,1.16,0.37,1.305-0.431c0.109-0.63,0.938-0.397,1.293-0.435
		c0.646-0.077,0.159-1.284-0.646-1.301C9.591,4.03,9.222,4.392,8.888,5.132C8.739,5.488,8.605,5.756,8.026,5.566
		C7.45,5.372,7.021,5.847,7.375,6.433c0.31,0.52-0.005,1.083-0.005,1.083h0.874c0,0-0.005-0.314-0.217-0.646
		C7.78,6.48,7.95,6.04,8.458,6.215z M3.839,11.606c2.244-1.637,2.806-3.892,2.806-3.892h2.302c0,0,0.558,2.255,2.8,3.892H3.839z"/>
	<path id="returnedGroup" display="none" fill="#FFFFFF" d="M7.9,4.585c0.066,0.428-0.22,0.828-0.647,0.899
		c-0.427,0.072-0.835-0.218-0.9-0.646c-0.07-0.428,0.216-0.831,0.645-0.9C7.426,3.867,7.828,4.157,7.9,4.585z M7.655,7.692
		l0.693,1.11c0.1,0.158,0.302,0.205,0.464,0.113C8.97,8.817,9.021,8.622,8.933,8.458L8.761,8.139
		c-0.154-0.272-0.303-0.547-0.453-0.82l-0.314-0.56C7.96,6.692,7.93,6.623,7.89,6.543C7.701,6.145,7.404,5.524,6.75,5.582
		C6.196,5.629,5.627,5.894,5.069,6.366C4.409,6.89,3.944,7.642,3.931,7.678C3.912,7.711,3.889,7.741,3.875,7.775L3.869,7.778l0,0
		C3.809,7.897,3.777,8.002,3.852,8.14c0.063,0.103,0.178,0.174,0.3,0.174c0.149,0,0.224-0.071,0.294-0.177l0,0l0,0
		c0.02-0.033,0.042-0.066,0.063-0.099C4.514,8.032,4.9,7.408,5.499,6.9c0.187-0.146,0.365-0.246,0.529-0.301L5.893,8.211
		c-0.013,0.157-0.064,0.436-0.107,0.59l-0.3,1.053c-0.036,0.133-0.152,0.354-0.243,0.459l-0.805,1.002
		c-0.105,0.133-0.221,0.275-0.128,0.479c0.06,0.119,0.178,0.189,0.312,0.189c0.155,0,0.241-0.09,0.348-0.207l0.82-0.883
		c0.146-0.158,0.335-0.434,0.427-0.625l0.41-0.828l1.506,2.529c0.072,0.125,0.172,0.281,0.375,0.281l0,0
		c0.115,0,0.223-0.061,0.291-0.16c0.104-0.164,0.03-0.32-0.029-0.451l-1.222-2.65c-0.044-0.102-0.07-0.314-0.057-0.428L7.655,7.692z
		 M12.728,8.258c0-1.107-0.9-2.002-2.006-2.002h-0.85v1.008h0.854c0.545,0,0.992,0.444,0.992,0.994c0,0.542-0.438,0.991-0.992,0.991
		h-0.18V8.706L8.734,9.753l1.813,1.049V10.26h0.199l0,0C11.839,10.243,12.728,9.354,12.728,8.258z"/>
	<path id="epidemieGroup" display="none" fill="#FFFFFF" d="M11.392,8.175c0-1.969-1.541-3.568-3.48-3.667
		c0.857,0.078,1.525,0.705,1.525,1.461c0,0.26-0.088,0.5-0.228,0.712C8.823,6.3,8.297,6.065,7.711,6.065
		c-0.58,0-1.108,0.235-1.49,0.616C6.089,6.468,6,6.228,6,5.968c0-0.756,0.662-1.381,1.525-1.461C5.584,4.61,4.043,6.209,4.043,8.175
		c0,0.591,0.146,1.152,0.396,1.65C4.096,9.048,4.304,8.173,4.952,7.802c0.227-0.13,0.475-0.18,0.73-0.168
		C5.63,7.811,5.602,7.99,5.602,8.181c0,0.978,0.666,1.792,1.57,2.035c-0.016,0.02-0.034,0.039-0.046,0.063v0.004
		c-0.03,0.063-0.065,0.121-0.11,0.168c-0.098,0.129-0.208,0.242-0.353,0.322c-0.648,0.375-1.513,0.115-2.017-0.578
		c0.659,1,1.784,1.66,3.071,1.66c1.271,0,2.388-0.646,3.056-1.629c-0.514,0.67-1.358,0.918-2.002,0.549
		c-0.227-0.133-0.39-0.328-0.501-0.559c0.896-0.242,1.559-1.061,1.559-2.035c0-0.188-0.026-0.367-0.069-0.544
		c0.254-0.014,0.506,0.036,0.732,0.168c0.629,0.362,0.845,1.194,0.535,1.95C11.259,9.278,11.392,8.741,11.392,8.175z M8.104,9.589
		c-0.016-0.307,0.052-0.623,0.204-0.93L8.064,8.518C7.978,8.612,7.852,8.667,7.718,8.667c-0.138,0-0.263-0.057-0.354-0.146
		L7.125,8.655C7.283,8.96,7.345,9.282,7.328,9.593C6.706,9.419,6.244,8.858,6.244,8.181c0-0.13,0.023-0.251,0.054-0.367
		c0.272,0.136,0.521,0.351,0.707,0.632l0.249-0.144C7.243,8.261,7.226,8.219,7.226,8.175c0-0.229,0.156-0.414,0.37-0.467V7.424
		C7.253,7.399,6.948,7.297,6.69,7.129c0.26-0.26,0.625-0.42,1.021-0.42s0.767,0.166,1.03,0.425c-0.258,0.168-0.566,0.27-0.903,0.295
		v0.282c0.207,0.055,0.366,0.238,0.366,0.467c0,0.044-0.012,0.085-0.023,0.125l0.249,0.141c0.183-0.283,0.433-0.495,0.702-0.633
		c0.028,0.118,0.055,0.237,0.055,0.364C9.185,8.858,8.726,9.415,8.104,9.589z"/>
</g>
</svg>
