<?xml version="1.0" encoding="utf-8"?>
<!-- Generator: Adobe Illustrator 16.0.0, SVG Export Plug-In . SVG Version: 6.00 Build 0)  -->
<!DOCTYPE svg PUBLIC "-//W3C//DTD SVG 1.1//EN" "http://www.w3.org/Graphics/SVG/1.1/DTD/svg11.dtd">
<svg version="1.1" id="Groupe" xmlns="http://www.w3.org/2000/svg" xmlns:xlink="http://www.w3.org/1999/xlink" x="0px" y="0px"
	 width="15.871px" height="15.65px" viewBox="0 0 15.871 15.65" enable-background="new 0 0 15.871 15.65" xml:space="preserve">
<g id="PinColor_1_">
	<path id="vert" display="none" fill="#2ABF00" stroke="#1D7500" stroke-width="0.2" stroke-miterlimit="10" d="M15.357,7.877
		c0,3.391-2.428,6.235-5.703,6.989c-0.55,0.121-2.928,0.121-3.495-0.021c-3.241-0.768-5.645-3.596-5.645-6.97
		c0-3.958,3.325-7.179,7.421-7.179C12.029,0.696,15.357,3.917,15.357,7.877z"/>
	<path id="orange" fill="#FF8500" stroke="#7F4500" stroke-width="0.2" stroke-miterlimit="10" d="M15.357,7.877
		c0,3.391-2.428,6.235-5.703,6.989c-0.55,0.121-2.928,0.121-3.495-0.021c-3.241-0.768-5.645-3.596-5.645-6.97
		c0-3.958,3.325-7.179,7.421-7.179C12.029,0.696,15.357,3.917,15.357,7.877z"/>
	<path id="gris" display="none" fill="#A5A5A5" stroke="#595959" stroke-width="0.2" stroke-miterlimit="10" d="M15.357,7.877
		c0,3.391-2.428,6.235-5.703,6.989c-0.55,0.121-2.928,0.121-3.495-0.021c-3.241-0.768-5.645-3.596-5.645-6.97
		c0-3.958,3.325-7.179,7.421-7.179C12.029,0.696,15.357,3.917,15.357,7.877z"/>
	<path id="bleu" display="none" fill="#0092FF" stroke="#00477C" stroke-width="0.2" stroke-miterlimit="10" d="M15.357,7.877
		c0,3.391-2.428,6.235-5.703,6.989c-0.55,0.121-2.928,0.121-3.495-0.021c-3.241-0.768-5.645-3.596-5.645-6.97
		c0-3.958,3.325-7.179,7.421-7.179C12.029,0.696,15.357,3.917,15.357,7.877z"/>
</g>
<g id="IconsGroup">
	<g id="MinimalGroup" display="none">
		<path id="ElectionGroup" display="inline" fill="#565656" d="M13.827,2.581l-3.47-1.483c-0.098-0.042-0.224-0.016-0.287,0.071
			l-0.994,1.24C9.03,2.458,9.014,2.544,9.03,2.615C9.046,2.69,9.091,2.743,9.158,2.774L6.049,3.946
			c-0.26,0.09-0.487,0.273-0.63,0.515L4.39,6.176C4.172,6.539,4.152,6.985,4.344,7.363l0.078,0.145H3.335
			c-0.138,0-0.246,0.112-0.246,0.249v4.699H2.346c-0.136,0-0.242,0.114-0.242,0.244c0,0.138,0.111,0.249,0.242,0.249h8.409
			c0.136,0,0.244-0.111,0.244-0.249c0-0.13-0.108-0.244-0.244-0.244h-0.741V9.928c0-0.076-0.045-0.163-0.108-0.204
			C9.833,9.677,9.741,9.67,9.661,9.71C9.391,9.837,9.186,9.9,9.094,9.928c-0.019,0-0.04,0.014-0.055,0.024l-1.614,0.965
			c-0.257,0.151-0.549,0.238-0.843,0.238c-0.557,0-1.055-0.275-1.37-0.739C4.958,10.046,4.87,9.6,4.967,9.16
			C5.06,8.726,5.32,8.349,5.689,8.114l0.237-0.151c0.173-0.1,0.326-0.196,0.459-0.282c0.098-0.055,0.135-0.175,0.105-0.284
			c-0.058-0.197-0.157-0.374-0.259-0.51C6.609,6.724,7.121,6.429,7.381,6.13l0,0C7.434,6.164,7.499,6.2,7.568,6.235
			c0.007,0,0.007,0,0.016,0.003l0,0c0.18,0.09,0.41,0.181,0.682,0.234c-0.288,0.359-0.578,0.801-0.69,1.093
			C7.384,7.659,6.954,7.891,5.961,8.527C5.696,8.694,5.514,8.96,5.454,9.267c-0.065,0.304-0.008,0.614,0.168,0.877
			c0.227,0.334,0.583,0.517,0.96,0.517c0.202,0,0.403-0.061,0.589-0.164l1.701-1.023c0.261-0.063,1.584-0.461,2.587-2.081
			c0.788-1.27,1.228-2.29,1.408-2.754l0.03,0.015c0.104,0.045,0.225,0.082,0.33,0.082c0.199,0,0.39-0.082,0.523-0.213
			c0.145-0.139,0.226-0.328,0.226-0.533v-1.18C13.969,2.708,13.917,2.615,13.827,2.581z"/>
	</g>
	<g id="FaibleGroup" display="none">
		<path id="FamineGroup" display="inline" fill="#F9F9F9" d="M11.258,11.294l-1.884,0.355L6.31,9.974l1.116-1.383l2.506,0.832
			L11.258,11.294z M14.143,8.029v0.212l-1.98,0.625l-1.951,0.276L7.703,8.31L7.111,8.029H7.45C7.369,7.288,7.261,6.718,7.209,5.976
			l0,0C7.205,5.959,7.176,5.464,7.172,5.253C7.134,5.025,7.026,4.938,6.678,4.696C6.483,4.579,6.34,4.534,6.267,4.534
			c-0.127,0-0.242,0.138-0.27,0.562c0.561,0.093,0.596,0.71,0.596,0.71c0.05,0.438-0.169,1.079-0.663,1.248
			C5.016,7.36,5.104,5.593,5.623,5.168C5.638,4.659,5.78,4.19,6.267,4.171c0.195,0,0.392,0.083,0.615,0.226
			C6.985,4.466,7.077,4.525,7.15,4.599C7.142,4.426,7.134,4.254,7.134,4.073c0-0.375,0.057-0.773,0.389-1.062
			c0.168-0.157,0.355-0.242,0.55-0.24c0.489,0.03,0.788,0.451,0.97,0.88c0.2-0.088,0.46-0.131,0.752-0.024
			c0.757,0.254,1.169,1.578,0.854,2.031c-0.75,1.072-2.621-0.916-2.13-1.615c0,0,0.078-0.09,0.204-0.197
			C8.574,3.462,8.285,3.126,8.07,3.143c-0.085,0-0.187,0.03-0.307,0.139C7.556,3.47,7.498,3.727,7.498,4.073
			c0,0.242,0.031,0.513,0.031,0.778c0,0.143,0.007,0.266,0.011,0.4c0.037,0.241,0.037,0.421,0.037,0.676
			c0.054,0.738,0.347,1.345,0.432,2.102H14.143z M8.858,3.994l1.426,1.549C10.03,4.444,9.13,3.834,9.13,3.834L8.858,3.994z
			 M5.917,5.322L5.663,5.426c0,0-0.125,0.866,0,1.314L5.917,5.322z M4.648,10.536l1.127-0.679l1.172-1.451L6.586,8.029H3.988
			L3.471,9.068L4.648,10.536z M5.961,10.301l-1.996,1.364l0.26,0.328h4.603L8.817,11.93L5.961,10.301z M1.85,8.029v1.569
			l1.274-0.684l0.394-0.886H1.85z M10.582,9.476l1.241,1.808l2.32,0.546V9.765L12.47,9.229L10.582,9.476z M14.143,9.314V8.592
			L12.838,8.94L14.143,9.314z M3.163,9.421L1.85,10.043v1.95h0.96l1.431-1.168L3.163,9.421z M10.035,11.993h3.005l-1.431-0.344
			L10.035,11.993z"/>
		<path id="CycloneGroup" display="inline" fill="#FFFFFF" d="M8.039,3.807c-0.065,0-0.127-0.006-0.191-0.006
			c-0.564,0-1.09,0.146-1.547,0.396C7.119,1.401,9.169,1.15,9.169,1.15S4.637,1.537,4.637,6.826c0.002,0,0.002,0,0.009,0
			c0,0.06-0.006,0.119-0.006,0.188c0,0.557,0.146,1.094,0.399,1.555C2.238,7.74,1.996,5.691,1.996,5.691s0.38,4.538,5.676,4.538
			c0-0.006,0-0.006,0-0.012c0.061,0.004,0.119,0.012,0.186,0.012c0.564,0,1.091-0.146,1.555-0.4
			c-0.831,2.804-2.885,3.047-2.885,3.047s4.543-0.381,4.543-5.677c-0.008,0-0.008,0-0.008,0c0-0.063,0.008-0.127,0.008-0.187
			c0-0.565-0.144-1.095-0.403-1.555c2.799,0.82,3.051,2.877,3.051,2.877s-0.377-4.533-5.679-4.533
			C8.039,3.803,8.039,3.807,8.039,3.807z"/>
		<path id="tsunamiGroup" display="inline" fill="#FFFFFF" d="M13.556,10.748c-9.346,0.53-6.729-6.611-4.312-5.996
			C8.995,4.904,8.836,5.43,8.99,5.777c0.168,0.387,0.719,0.595,1.035,0.517c0.746-0.192,0.779-1.24,0.513-1.803
			c-0.285-0.567-1.028-1.285-2.327-1.285c-3.119,0-5.26,1.598-6.062,4.34v4.039h11.407V10.748z"/>
		<path id="earthquakeGroup" display="inline" fill="#FFFFFF" d="M11.174,7.367c-0.156,0-0.308,0.089-0.382,0.236l-0.621,1.165
			L9.405,6.52C9.342,6.352,9.186,6.236,9.006,6.228C8.82,6.224,8.662,6.328,8.597,6.497L8.07,7.74L7.239,2.761
			C7.2,2.556,7.001,2.399,6.806,2.409C6.586,2.417,6.41,2.556,6.383,2.765L5.65,8.538L5.053,5.442
			C5.02,5.262,4.87,5.118,4.682,5.096c-0.18-0.023-0.359,0.071-0.449,0.235L3.259,7.367H1.754v0.866H3.54
			c0.166,0,0.319-0.09,0.392-0.244l0.525-1.091l0.845,4.399c0.041,0.197,0.223,0.344,0.422,0.344c0.007,0,0.011,0,0.016,0
			c0.212-0.002,0.39-0.159,0.414-0.374l0.723-5.678l0.606,3.734C7.517,9.518,7.667,9.659,7.86,9.685
			C8.056,9.701,8.234,9.6,8.308,9.424l0.648-1.542l0.722,2.125c0.062,0.158,0.203,0.268,0.375,0.283
			c0.176,0.011,0.337-0.077,0.415-0.23l0.971-1.831h1.855V7.367H11.174z"/>
	</g>
	<g id="ImportantGroup" display="none">
		<path id="enlevementGroup" display="inline" fill="#FFFFFF" d="M13.063,0.771c-0.367,0-0.659,0.296-0.659,0.66v2.684
			c0.165,0.035,0.315,0.098,0.442,0.221c0.345,0.34,0.353,0.906,0.017,1.251l-1.254,1.285l-0.173-0.168l1.251-1.277
			c0.244-0.262,0.242-0.671-0.014-0.923c-0.079-0.077-0.172-0.132-0.277-0.161c-0.108-0.029-0.217-0.029-0.324-0.006
			c-0.126,0.026-0.229,0.09-0.313,0.179c-0.741,0.762-1.483,1.522-2.226,2.287C9.342,6.988,9.006,7.416,9.014,7.86
			c0.009,0.408,0,0.827,0,1.238C8.919,9.015,8.805,8.963,8.668,8.938C8.285,8.869,7.944,9.102,7.813,9.444h-0.19
			c0-0.09,0-0.188,0-0.28c0.007-0.425-0.008-0.875,0-1.304c0.016-0.436-0.329-0.872-0.511-1.054
			c-0.744-0.769-1.48-1.529-2.223-2.293c-0.084-0.086-0.197-0.15-0.315-0.176c-0.109-0.027-0.22-0.022-0.33,0.006
			C4.141,4.37,4.042,4.426,3.968,4.504c-0.256,0.252-0.264,0.66-0.019,0.923l1.252,1.276L5.035,6.872l-1.25-1.285
			c-0.338-0.345-0.33-0.911,0.014-1.251c0.128-0.119,0.275-0.183,0.432-0.221V1.431c0-0.364-0.298-0.66-0.659-0.66
			c-0.368,0-0.659,0.296-0.659,0.66v4.643c0,0.154,0.061,0.292,0.149,0.404l2.244,2.955H5.111c-0.437,0-0.788,0.357-0.788,0.801
			c0,0.291,0.161,0.532,0.399,0.667c-0.235,0.146-0.399,0.39-0.399,0.672c0,0.438,0.351,0.792,0.788,0.792h0.242v0.442h2.203
			c0.114,0.117,0.25,0.199,0.41,0.233c0.051,0.01,0.089,0.013,0.135,0.013c0.393,0,0.721-0.275,0.787-0.657v-0.029H9.03
			c0,0.146,0,0.294,0.017,0.443h2.233v-0.44h0.239c0.43,0,0.792-0.353,0.792-0.792c0-0.284-0.161-0.535-0.402-0.673
			c0.241-0.139,0.402-0.38,0.402-0.671c0-0.44-0.362-0.795-0.792-0.795h-0.191l2.242-2.957c0.092-0.117,0.153-0.25,0.153-0.404
			V1.439C13.723,1.068,13.427,0.771,13.063,0.771z M4.711,10.234c0-0.217,0.183-0.396,0.4-0.396h2.603l-0.139,0.796H5.111
			C4.894,10.626,4.711,10.451,4.711,10.234z M4.711,11.578c0-0.221,0.183-0.401,0.4-0.401H7.48l-0.135,0.799H5.111
			C4.894,11.975,4.711,11.801,4.711,11.578z M8.494,12.325c-0.035,0.215-0.266,0.355-0.457,0.323
			c-0.108-0.013-0.196-0.072-0.256-0.159c-0.061-0.085-0.082-0.19-0.066-0.299L8.15,9.648C8.186,9.458,8.351,9.32,8.546,9.32
			c0.024,0,0.047,0,0.065,0.003c0.22,0.045,0.363,0.245,0.323,0.463L8.494,12.325z M11.924,11.578c0,0.223-0.172,0.397-0.396,0.397
			H8.953l0.137-0.799h2.438C11.744,11.183,11.924,11.36,11.924,11.578z M11.924,10.234c0,0.215-0.172,0.397-0.396,0.397H9.186
			l0.131-0.774c0-0.002,0-0.01,0-0.013h2.211C11.744,9.839,11.924,10.019,11.924,10.234z"/>
	</g>
	<g id="EleveGroup" display="none">
		<path id="attackGroup" display="inline" fill="#FFFFFF" d="M10.926,7.921l3.042-1.956l-2.944-0.31l0.802-3.415L9.742,4.399
			L9.158,1.956L8.286,4.23L5.897,1.156l0.75,3.852l-2.122-0.47c0,0,0.644,1.234,1.006,1.979l-3.404-0.24l3.082,1.8L4.327,8.98
			l1.429-0.254l-1.011,3.583l3.011-2.521l0.787,1.95l0.802-1.553l2.596,2.679l-1.306-3.596l2.855,0.294L10.926,7.921z"/>
	</g>
	<g id="ExtremeGroup" display="none">
		<path id="rebelionGroup" display="inline" fill="#FFFFFF" d="M10.162,3.376c0,1.241-1.009,2.245-2.239,2.245
			c-1.245,0-2.25-1.004-2.25-2.245c0-1.244,1.006-2.244,2.25-2.244C9.158,1.132,10.162,2.132,10.162,3.376z M4.172,12.894h1.367
			h0.077l0.054-0.105l0.497-0.488L5.696,12.2l-0.72-0.153L4.172,12.894z M13.562,3.792l-0.48,0.482l0.029,0.034l-0.394,0.387
			c0.056,0.053,0.104,0.099,0.15,0.156l0.393-0.394l0.079,0.073l0.473-0.484L13.562,3.792z M10.462,6.281l-0.21,0.209l0.023,0.057
			l0.053,0.113L7.054,9.937l0.349,0.085c0.325,0.066,0.603,0.252,0.786,0.537c0.027,0.037,0.035,0.085,0.052,0.128l0.007-0.011
			l0.241,0.156l0.084-0.019l0.952,0.694l0.646-0.877L8.747,9.518l0.037-0.093h0.241l1.391-1.638l0.159-1.466L10.462,6.281z
			 M11.985,4.83c-0.43-0.045-0.84,0.274-0.887,0.713L11.04,6.021l0,0l-0.03,0.344L10.852,7.83l-0.015,0.14l-0.083,0.101L9.503,9.545
			l0.937,0.729l0.345,0.267l-0.203,0.271l0.052,0.09c0.129,0.282,0.413,0.454,0.721,0.454c0.043,0,0.087,0,0.134-0.011
			c0.354-0.056,0.623-0.345,0.659-0.7l0.54-4.94C12.74,5.272,12.42,4.879,11.985,4.83z M10.352,11.14l-0.458,0.631L9.63,12.126
			l-0.363-0.262l-0.791-0.57l-0.068,0.016l-0.031-0.016c0,0.069,0,0.133-0.019,0.199c-0.011,0.063-0.034,0.127-0.062,0.188
			c-0.044,0.114-0.115,0.209-0.187,0.31l0.057,0.128c0.053,0.127,0.129,0.289,0.218,0.434l0.227,0.342h1.687L10.352,11.14z
			 M7.142,12.479c-0.015,0-0.039-0.006-0.063-0.006c0,0.031-0.006,0.054-0.006,0.054l0.191,0.367h0.454l0.295-0.103
			c-0.1-0.156-0.182-0.324-0.259-0.496C7.568,12.404,7.369,12.479,7.142,12.479z M7.802,10.78c-0.03-0.048-0.084-0.09-0.128-0.127
			c-0.027-0.029-0.044-0.063-0.083-0.082c-0.076-0.056-0.179-0.106-0.284-0.127l-0.344-0.072l-0.801-0.168l0,0l-0.71-0.152
			L5.178,9.998l-0.448-0.1L4.697,9.892l0.078-0.079l0.308-0.305l0.325-0.326c0.026,0.23,0.039,0.402,0.039,0.404l0.107,0.024
			l0.988,0.215l0.204-0.207l3.063-3.072L9.735,6.373l0.024-0.019C9.317,6.224,8.794,6.138,8.136,6.138H7.923H7.707
			c-0.464,0-0.929,0.038-1.385,0.136c-0.79,0.179-1.278,0.95-1.808,1.474C3.958,8.294,3.419,8.861,2.884,9.424
			C2.765,9.551,2.646,9.677,2.518,9.797c-0.203,0.215-0.28,0.517-0.203,0.798c0.084,0.283,0.315,0.492,0.606,0.562l1.059,0.229
			l0.45,0.093l2.549,0.543c0.057,0.008,0.111,0.014,0.165,0.014c0.372,0,0.707-0.25,0.787-0.637c0.03-0.15,0.009-0.28-0.039-0.411
			l-0.047-0.108C7.829,10.848,7.813,10.823,7.802,10.78z M6.678,12.744l-0.077-0.146l0.043-0.16l0.004-0.03L6.521,12.37
			l-0.446,0.524h0.684L6.678,12.744z"/>
	</g>
	<path id="displacedGroup" display="none" fill="#FFFFFF" d="M7.985,2.615C8.079,3.196,7.688,3.74,7.109,3.836
		C6.532,3.938,5.978,3.54,5.887,2.967C5.795,2.384,6.183,1.832,6.765,1.742C7.345,1.642,7.89,2.039,7.985,2.615z M7.655,6.835
		l0.94,1.502c0.136,0.215,0.411,0.281,0.63,0.153C9.441,8.363,9.509,8.093,9.39,7.87L9.158,7.441
		C8.945,7.068,8.747,6.697,8.536,6.328L8.116,5.566C8.07,5.474,8.026,5.381,7.974,5.272C7.718,4.732,7.315,3.893,6.429,3.969
		C5.671,4.036,4.902,4.399,4.147,5.04C3.255,5.744,2.625,6.763,2.606,6.816c-0.03,0.041-0.061,0.086-0.081,0.127
		c0,0,0,0-0.008,0.004l0,0C2.437,7.109,2.395,7.252,2.495,7.439C2.581,7.578,2.737,7.67,2.902,7.67c0.203,0,0.304-0.097,0.404-0.239
		l0,0l0,0C3.335,7.388,3.364,7.345,3.39,7.3c0.004-0.008,0.529-0.86,1.347-1.545c0.246-0.195,0.487-0.329,0.709-0.4L5.264,7.535
		C5.247,7.748,5.178,8.127,5.119,8.337L4.711,9.765c-0.048,0.177-0.206,0.479-0.322,0.622l-1.101,1.36
		c-0.143,0.18-0.3,0.373-0.174,0.648c0.082,0.161,0.242,0.258,0.423,0.258c0.21,0,0.327-0.122,0.472-0.282l1.113-1.197
		c0.199-0.214,0.456-0.588,0.588-0.848l0.551-1.124l2.045,3.433c0.1,0.169,0.229,0.381,0.509,0.381l0,0
		c0.155,0,0.303-0.082,0.392-0.212c0.147-0.229,0.044-0.435-0.041-0.623l-1.662-3.59C7.442,8.453,7.411,8.164,7.433,8.01
		L7.655,6.835z M9.384,10.571h2.472v0.733l2.465-1.42l-2.465-1.421v0.739H9.384V10.571z"/>
	<path id="eruptionGroup" fill="#FFFFFF" d="M8.747,4.827c0.678,0.231,1.574,0.502,1.769-0.584c0.15-0.854,1.274-0.539,1.755-0.589
		c0.876-0.105,0.217-1.743-0.876-1.765c-1.11-0.026-1.612,0.465-2.064,1.469C9.125,3.84,8.944,4.204,8.16,3.946
		C7.377,3.684,6.794,4.328,7.275,5.123c0.42,0.705-0.007,1.469-0.007,1.469h1.186c0,0-0.007-0.426-0.295-0.876
		C7.825,5.186,8.056,4.59,8.747,4.827z M2.479,12.142c3.045-2.221,3.808-5.281,3.808-5.281h3.123c0,0,0.759,3.061,3.801,5.281H2.479
		z"/>
	<path id="returnedGroup" display="none" fill="#FFFFFF" d="M7.989,2.615C8.079,3.196,7.69,3.74,7.111,3.836
		C6.532,3.934,5.978,3.54,5.89,2.96C5.795,2.38,6.183,1.832,6.765,1.739C7.345,1.642,7.89,2.035,7.989,2.615z M7.655,6.831
		l0.94,1.506c0.136,0.215,0.411,0.278,0.63,0.153C9.441,8.357,9.509,8.093,9.39,7.87L9.158,7.438
		c-0.21-0.37-0.411-0.742-0.615-1.113L8.116,5.566C8.07,5.474,8.028,5.381,7.974,5.272C7.718,4.732,7.315,3.889,6.429,3.969
		C5.676,4.032,4.905,4.391,4.147,5.032c-0.896,0.71-1.527,1.73-1.545,1.78C2.577,6.857,2.545,6.898,2.526,6.943L2.518,6.947l0,0
		C2.437,7.109,2.395,7.252,2.495,7.439c0.085,0.139,0.242,0.237,0.407,0.237c0.203,0,0.304-0.098,0.399-0.24l0,0l0,0
		c0.026-0.045,0.057-0.09,0.085-0.134C3.394,7.293,3.918,6.447,4.73,5.756c0.253-0.197,0.496-0.334,0.717-0.408L5.264,7.535
		C5.247,7.748,5.178,8.127,5.119,8.337L4.711,9.765c-0.048,0.18-0.206,0.479-0.329,0.622l-1.093,1.36
		c-0.143,0.18-0.299,0.373-0.173,0.648c0.081,0.161,0.242,0.258,0.423,0.258c0.21,0,0.327-0.122,0.472-0.282l1.112-1.197
		c0.198-0.214,0.455-0.588,0.58-0.848L6.26,9.203l2.043,3.433c0.098,0.169,0.234,0.381,0.509,0.381l0,0
		c0.156,0,0.301-0.082,0.396-0.217c0.14-0.224,0.039-0.435-0.041-0.612L7.51,8.592C7.45,8.453,7.415,8.164,7.433,8.01L7.655,6.831z
		 M14.539,7.598c0-1.502-1.221-2.715-2.721-2.715h-1.152V6.25h1.158c0.737,0,1.344,0.603,1.344,1.348
		c0,0.735-0.594,1.346-1.344,1.346h-0.245V8.207l-2.46,1.421l2.46,1.423v-0.734h0.271l0,0C13.333,10.293,14.539,9.087,14.539,7.598z
		"/>
	<path id="epidemieGroup" display="none" fill="#FFFFFF" d="M12.726,7.487c0-2.671-2.092-4.841-4.722-4.976
		c1.164,0.106,2.069,0.957,2.069,1.982c0,0.352-0.119,0.678-0.309,0.966C9.239,4.943,8.528,4.623,7.732,4.623
		c-0.787,0-1.503,0.319-2.021,0.836C5.531,5.17,5.411,4.844,5.411,4.492c0-1.025,0.899-1.874,2.069-1.982
		C4.846,2.649,2.755,4.819,2.755,7.487c0,0.803,0.198,1.563,0.537,2.238C2.827,8.671,3.109,7.484,3.988,6.98
		c0.308-0.176,0.645-0.244,0.991-0.228C4.909,6.992,4.87,7.236,4.87,7.495c0,1.327,0.904,2.432,2.13,2.76
		c-0.021,0.027-0.046,0.054-0.063,0.085v0.006c-0.041,0.085-0.088,0.164-0.148,0.228c-0.134,0.175-0.282,0.328-0.479,0.438
		c-0.879,0.51-2.054,0.156-2.737-0.784c0.895,1.356,2.42,2.253,4.167,2.253c1.726,0,3.239-0.878,4.146-2.211
		c-0.695,0.908-1.843,1.245-2.715,0.745c-0.308-0.181-0.529-0.445-0.681-0.759c1.217-0.328,2.114-1.438,2.114-2.76
		c0-0.255-0.036-0.499-0.093-0.738c0.345-0.019,0.687,0.049,0.994,0.228c0.854,0.491,1.145,1.62,0.726,2.645
		C12.546,8.983,12.726,8.255,12.726,7.487z M8.266,9.405C8.244,8.988,8.336,8.559,8.542,8.143L8.211,7.952
		c-0.117,0.127-0.288,0.201-0.47,0.201c-0.188,0-0.357-0.077-0.48-0.198L6.937,8.138C7.15,8.552,7.235,8.988,7.211,9.41
		C6.367,9.174,5.741,8.414,5.741,7.495c0-0.177,0.031-0.341,0.073-0.499C6.183,7.18,6.521,7.472,6.773,7.854l0.338-0.195
		C7.096,7.604,7.073,7.546,7.073,7.487c0-0.312,0.211-0.562,0.502-0.634V6.468c-0.464-0.035-0.879-0.172-1.228-0.4
		C6.7,5.715,7.195,5.498,7.732,5.498c0.538,0,1.041,0.225,1.398,0.576C8.78,6.302,8.362,6.44,7.904,6.474v0.383
		C8.186,6.931,8.402,7.18,8.402,7.49c0,0.06-0.017,0.116-0.032,0.169l0.338,0.192C8.957,7.468,9.295,7.18,9.661,6.992
		c0.037,0.161,0.074,0.322,0.074,0.494C9.731,8.414,9.11,9.169,8.266,9.405z"/>
</g>
</svg>
