<?xml version="1.0" encoding="utf-8"?>
<!-- Generator: Adobe Illustrator 16.0.0, SVG Export Plug-In . SVG Version: 6.00 Build 0)  -->
<!DOCTYPE svg PUBLIC "-//W3C//DTD SVG 1.1//EN" "http://www.w3.org/Graphics/SVG/1.1/DTD/svg11.dtd">
<svg version="1.1" id="Layer_1" xmlns="http://www.w3.org/2000/svg" xmlns:xlink="http://www.w3.org/1999/xlink" x="0px" y="0px"
	 width="33.35px" height="40px" viewBox="0 0 33.35 40" enable-background="new 0 0 33.35 40" xml:space="preserve">
<g id="PinColor">
	<path id="PinOmbre" opacity="0.3" enable-background="new    " d="M28.269,30.635c0,1.757-3.858,3.231-9.053,3.62
		c-0.876,0.066-2.729,4.189-2.729,4.189s-1.918-4.125-2.822-4.195c-5.142-0.397-8.958-1.867-8.958-3.614
		c0-2.058,5.275-3.726,11.78-3.726C22.993,26.909,28.269,28.575,28.269,30.635z"/>
	<path id="vert" display="none" fill="#2ABF00" stroke="#1D7500" stroke-width="0.2" stroke-miterlimit="10" d="M28.269,13.345
		c0,5.382-3.858,9.896-9.053,11.086c-0.875,0.199-2.728,12.819-2.728,12.819s-1.918-12.62-2.822-12.843
		c-5.142-1.221-8.958-5.714-8.958-11.067c0-6.293,5.275-11.394,11.78-11.394S28.269,7.052,28.269,13.345z"/>
	<path id="orange" fill="#FF8500" stroke="#7F4500" stroke-width="0.2" stroke-miterlimit="10" d="M28.269,13.345
		c0,5.382-3.858,9.896-9.053,11.086c-0.875,0.199-2.728,12.819-2.728,12.819s-1.918-12.62-2.822-12.843
		c-5.142-1.221-8.958-5.714-8.958-11.067c0-6.293,5.275-11.394,11.78-11.394S28.269,7.052,28.269,13.345z"/>
	<path id="gris" display="none" fill="#A5A5A5" stroke="#595959" stroke-width="0.2" stroke-miterlimit="10" d="M28.269,13.345
		c0,5.382-3.858,9.896-9.053,11.086c-0.875,0.199-2.728,12.819-2.728,12.819s-1.918-12.62-2.822-12.843
		c-5.142-1.221-8.958-5.714-8.958-11.067c0-6.293,5.275-11.394,11.78-11.394S28.269,7.052,28.269,13.345z"/>
	<path id="bleu" display="none" fill="#0092FF" stroke="#00477C" stroke-width="0.2" stroke-miterlimit="10" d="M28.269,13.345
		c0,5.382-3.858,9.896-9.053,11.086c-0.875,0.199-2.728,12.819-2.728,12.819s-1.918-12.62-2.822-12.843
		c-5.142-1.221-8.958-5.714-8.958-11.067c0-6.293,5.275-11.394,11.78-11.394S28.269,7.052,28.269,13.345z"/>
</g>
<g id="Icons">
	<g id="Minimal">
		<path id="Election" display="none" fill="#565656" d="M27.384-1.656l-4.378-1.876c-0.131-0.055-0.281-0.018-0.368,0.093
			l-1.253,1.563c-0.055,0.071-0.077,0.169-0.061,0.261c0.021,0.088,0.078,0.16,0.155,0.201L17.557,0.06
			c-0.332,0.123-0.611,0.356-0.792,0.659l-1.3,2.165c-0.276,0.46-0.298,1.021-0.058,1.501l0.094,0.184h-1.37
			c-0.173,0-0.313,0.139-0.313,0.313v5.939H12.88c-0.173,0-0.311,0.139-0.311,0.311c0,0.173,0.137,0.312,0.311,0.312h10.631
			c0.172,0,0.308-0.139,0.308-0.312c0-0.171-0.136-0.311-0.308-0.311h-0.939V7.626c0-0.106-0.057-0.208-0.144-0.263
			c-0.093-0.058-0.205-0.066-0.303-0.021c-0.344,0.161-0.598,0.244-0.717,0.28c-0.026,0.006-0.052,0.017-0.073,0.034l-2.037,1.22
			c-0.323,0.196-0.692,0.299-1.067,0.299c-0.693,0-1.339-0.345-1.735-0.929c-0.314-0.469-0.422-1.037-0.306-1.586
			c0.117-0.552,0.446-1.023,0.916-1.327l0.296-0.187c0.219-0.132,0.41-0.253,0.583-0.359c0.121-0.076,0.177-0.221,0.135-0.356
			c-0.077-0.251-0.207-0.475-0.328-0.646c0.477-0.209,1.123-0.581,1.447-0.958c0,0,0.004,0.002,0.006,0.002
			c0.068,0.042,0.148,0.085,0.239,0.129C19.49,2.96,19.491,2.962,19.5,2.965l0,0c0.231,0.112,0.527,0.224,0.866,0.292
			c-0.363,0.451-0.733,1.011-0.868,1.386c-0.26,0.113-0.798,0.419-2.054,1.22c-0.333,0.211-0.561,0.54-0.638,0.926
			c-0.083,0.387-0.01,0.78,0.212,1.11c0.28,0.42,0.738,0.651,1.213,0.651c0.255,0,0.513-0.068,0.746-0.208l2.147-1.291
			c0.337-0.082,2.007-0.582,3.274-2.629c0.991-1.605,1.548-2.897,1.779-3.481l0.038,0.02c0.131,0.064,0.272,0.098,0.419,0.098
			c0.237,0,0.477-0.096,0.651-0.264c0.186-0.176,0.286-0.417,0.286-0.673v-1.489C27.57-1.494,27.497-1.608,27.384-1.656z"/>
	</g>
	<g id="Faible">
		<path id="Famine" display="none" fill="#F9F9F9" d="M24.569,9.854l-2.486,0.47l-4.057-2.207L19.5,6.278l3.318,1.101L24.569,9.854z
			 M28.387,5.542v0.275l-2.615,0.83l-2.583,0.367l-3.32-1.103l-0.78-0.369h0.446c-0.106-0.987-0.249-1.735-0.318-2.713h-0.004
			c-0.003-0.03-0.036-0.685-0.044-0.964c-0.053-0.295-0.192-0.413-0.652-0.729c-0.253-0.163-0.44-0.221-0.547-0.219
			c-0.17,0-0.321,0.183-0.354,0.735c0.736,0.126,0.788,0.943,0.788,0.943c0.065,0.582-0.221,1.43-0.876,1.65
			c-1.216,0.405-1.091-1.935-0.406-2.497c0.019-0.673,0.207-1.293,0.848-1.317c0.253,0.002,0.514,0.106,0.813,0.297
			c0.143,0.085,0.259,0.173,0.361,0.263c-0.013-0.222-0.027-0.449-0.027-0.683C19.115-0.184,19.191-0.719,19.63-1.1
			c0.224-0.204,0.477-0.31,0.725-0.308c0.651,0.032,1.052,0.591,1.286,1.163c0.274-0.119,0.613-0.178,1.006-0.042
			c0.998,0.347,1.537,2.088,1.119,2.696c-0.985,1.414-3.464-1.219-2.808-2.138c0,0,0.097-0.126,0.266-0.264
			c-0.193-0.507-0.579-0.96-0.87-0.929c-0.109,0.002-0.238,0.041-0.401,0.186c-0.276,0.243-0.349,0.587-0.349,1.042
			c0,0.319,0.038,0.673,0.038,1.03c0,0.185,0.013,0.349,0.021,0.528c0.044,0.317,0.046,0.56,0.044,0.895
			c0.067,0.975,0.463,1.777,0.566,2.783L28.387,5.542L28.387,5.542z M21.404,0.201l1.878,2.046
			c-0.335-1.451-1.525-2.259-1.525-2.259L21.404,0.201z M17.513,1.958l-0.337,0.137c0,0-0.167,1.144,0,1.74L17.513,1.958z
			 M15.83,8.856l1.492-0.896l1.556-1.925l-0.485-0.493h-3.438l-0.683,1.362L15.83,8.856z M17.571,8.547l-2.645,1.8l0.354,0.436
			h6.087l-0.021-0.088L17.571,8.547z M12.131,5.542v2.075l1.695-0.909l0.513-1.167L12.131,5.542L12.131,5.542z M23.679,7.458
			l1.638,2.378l3.069,0.72V7.835l-2.208-0.712L23.679,7.458z M28.387,7.241v-0.96l-1.72,0.465L28.387,7.241z M13.867,7.375
			l-1.737,0.827v2.582h1.271l1.892-1.549L13.867,7.375z M22.961,10.784h3.972l-1.9-0.459L22.961,10.784z"/>
		<path id="Cyclone" display="none" fill="#FFFFFF" d="M20.322-0.042c-0.082-0.004-0.166-0.014-0.249-0.014
			c-0.747,0-1.447,0.193-2.056,0.529c1.088-3.708,3.805-4.031,3.805-4.031s-6,0.5-6,7.501c0.004,0,0.008,0,0.013,0
			c-0.006,0.085-0.014,0.167-0.014,0.252c0,0.741,0.193,1.442,0.529,2.054c-3.708-1.09-4.032-3.802-4.032-3.802
			s0.499,6.001,7.504,6.001c0-0.007,0-0.009,0-0.014c0.081,0.004,0.165,0.014,0.249,0.014c0.744,0,1.443-0.195,2.054-0.532
			c-1.089,3.709-3.805,4.034-3.805,4.034s6-0.501,6-7.503c-0.004,0-0.008,0-0.013,0c0.005-0.083,0.013-0.165,0.013-0.248
			c0-0.745-0.194-1.447-0.531-2.053c3.707,1.087,4.032,3.805,4.032,3.805s-0.498-6.001-7.501-6.001
			C20.322-0.05,20.322-0.046,20.322-0.042z"/>
		<path id="tsunami" display="none" fill="#FFFFFF" d="M27.61,9.135c-12.35,0.699-8.899-8.747-5.695-7.932
			c-0.331,0.201-0.543,0.896-0.338,1.363c0.224,0.501,0.945,0.787,1.359,0.683c0.996-0.257,1.04-1.652,0.682-2.386
			c-0.37-0.762-1.353-1.704-3.064-1.704c-4.137,0-6.958,2.113-8.021,5.744v5.339h15.08V9.135H27.61z"/>
		<path id="earthquake" display="none" fill="#FFFFFF" d="M24.466,4.662c-0.211,0-0.406,0.116-0.506,0.305l-0.822,1.551
			l-1.017-2.973C22.042,3.32,21.835,3.167,21.6,3.156c-0.245-0.007-0.457,0.131-0.551,0.35l-0.695,1.653l-1.095-6.583
			c-0.055-0.275-0.313-0.484-0.577-0.47c-0.282,0.006-0.516,0.193-0.554,0.472l-0.973,7.64l-0.786-4.101
			c-0.045-0.241-0.243-0.426-0.487-0.459c-0.244-0.033-0.486,0.098-0.591,0.319l-1.288,2.686h-2v1.143h2.362
			c0.22,0,0.421-0.127,0.517-0.323l0.691-1.442l1.118,5.815c0.052,0.27,0.288,0.466,0.563,0.466c0.004,0,0.011,0,0.015,0
			c0.279-0.008,0.513-0.22,0.552-0.496l0.958-7.507l0.798,4.941c0.048,0.25,0.249,0.438,0.503,0.466
			c0.254,0.024,0.493-0.113,0.592-0.347l0.859-2.041l0.957,2.801c0.074,0.217,0.268,0.369,0.494,0.388
			c0.228,0.013,0.445-0.101,0.554-0.303l1.28-2.418h2.456V4.663L24.466,4.662L24.466,4.662z"/>
	</g>
	<g id="Modéré">
	</g>
	<g id="Important">
		<path id="enlevement" display="none" fill="#FFFFFF" d="M25.418-3.06c-0.408,0-0.742,0.335-0.742,0.744v3.028
			c0.179,0.04,0.351,0.115,0.489,0.25c0.391,0.386,0.402,1.021,0.018,1.417l-1.407,1.449L23.579,3.64l1.415-1.444
			c0.284-0.292,0.274-0.758-0.016-1.043c-0.09-0.085-0.198-0.146-0.309-0.178c-0.127-0.035-0.251-0.037-0.374-0.011
			c-0.138,0.036-0.258,0.104-0.354,0.207c-0.835,0.858-1.675,1.716-2.513,2.574c-0.208,0.215-0.593,0.708-0.58,1.198
			c0.008,0.461-0.006,0.936,0.002,1.398c-0.111-0.087-0.243-0.152-0.392-0.18c-0.432-0.069-0.822,0.187-0.97,0.571h-0.219
			c0-0.105,0-0.211,0.002-0.316c0.011-0.485-0.007-0.987,0.005-1.472c0.01-0.492-0.373-0.985-0.583-1.2
			c-0.836-0.859-1.672-1.717-2.512-2.577c-0.097-0.1-0.217-0.17-0.354-0.204c-0.123-0.026-0.249-0.024-0.372,0.011
			c-0.113,0.033-0.222,0.094-0.311,0.18c-0.288,0.283-0.294,0.748-0.013,1.043l1.413,1.442L16.35,3.829L14.942,2.38
			c-0.386-0.396-0.376-1.03,0.018-1.415c0.139-0.133,0.309-0.21,0.489-0.25v-3.028c0-0.41-0.334-0.744-0.741-0.744
			c-0.412,0-0.744,0.335-0.744,0.744V2.93c0,0.172,0.069,0.329,0.171,0.456l2.531,3.344h-0.224c-0.492,0-0.895,0.401-0.895,0.897
			c0,0.329,0.186,0.604,0.448,0.758c-0.263,0.157-0.448,0.433-0.448,0.759c0,0.497,0.401,0.898,0.895,0.898h0.274v0.498h2.486
			c0.131,0.129,0.282,0.224,0.466,0.255c0.051,0.008,0.097,0.012,0.148,0.012c0.436,0,0.81-0.311,0.881-0.743l0.004-0.022h0.157
			c0.004,0.166,0,0.328,0.021,0.498h2.53v-0.498h0.274c0.492,0,0.895-0.4,0.895-0.898c0-0.326-0.185-0.602-0.45-0.758
			c0.266-0.156,0.45-0.431,0.45-0.76c0-0.494-0.4-0.895-0.895-0.895h-0.223l2.531-3.347c0.104-0.127,0.169-0.285,0.169-0.455v-5.241
			C26.161-2.724,25.83-3.06,25.418-3.06z M15.995,7.625c0-0.246,0.202-0.446,0.447-0.446h2.935l-0.154,0.895h-2.781
			C16.198,8.072,15.995,7.874,15.995,7.625z M15.995,9.144c0-0.245,0.202-0.449,0.447-0.449h2.672l-0.155,0.896h-2.517
			C16.198,9.591,15.995,9.394,15.995,9.144z M20.253,9.986c-0.038,0.246-0.292,0.405-0.516,0.368
			c-0.116-0.022-0.22-0.086-0.289-0.183c-0.071-0.098-0.097-0.217-0.075-0.333l0.493-2.869c0.04-0.217,0.226-0.372,0.449-0.372
			c0.022,0,0.047,0,0.07,0.006c0.243,0.042,0.406,0.272,0.363,0.516L20.253,9.986z M24.129,9.144c0,0.248-0.201,0.449-0.446,0.449
			h-2.905l0.155-0.897h2.75C23.928,8.697,24.129,8.898,24.129,9.144z M24.129,7.625c0,0.246-0.201,0.447-0.446,0.447h-2.642
			l0.15-0.877c0.002-0.006,0-0.012,0-0.019h2.489C23.928,7.179,24.129,7.38,24.129,7.625z"/>
	</g>
	<g id="Elevé">
	</g>
	<g id="Extreme" display="none">
		<path id="rebelion" display="inline" fill="#FFFFFF" d="M22.408,0.169c0,1.378-1.117,2.495-2.492,2.495
			c-1.381,0-2.498-1.118-2.498-2.495c0-1.38,1.117-2.496,2.498-2.496C21.291-2.326,22.408-1.211,22.408,0.169z M15.749,10.752h1.524
			h0.082l0.056-0.117l0.556-0.542l-0.514-0.109l-0.809-0.174L15.749,10.752z M26.189,0.631l-0.536,0.535l0.036,0.037l-0.432,0.437
			c0.057,0.052,0.114,0.106,0.161,0.168l0.436-0.437l0.089,0.081l0.529-0.538L26.189,0.631z M22.742,3.399l-0.229,0.228l0.025,0.065
			l0.054,0.122l-3.639,3.649l0.392,0.083c0.358,0.076,0.668,0.291,0.87,0.602c0.027,0.044,0.034,0.098,0.058,0.145l0.011-0.014
			l0.27,0.178l0.097-0.02l1.06,0.77l0.712-0.977l-1.58-1.233l0.035-0.103h0.262l1.55-1.82l0.173-1.631L22.742,3.399z M24.434,1.787
			c-0.472-0.052-0.93,0.301-0.985,0.79l-0.06,0.531l0,0l-0.036,0.385l-0.172,1.632l-0.018,0.153l-0.099,0.117l-1.389,1.628
			l1.048,0.821L23.1,8.139l-0.219,0.298l0.055,0.11c0.146,0.312,0.463,0.507,0.806,0.507c0.05,0,0.097-0.002,0.148-0.011
			c0.393-0.068,0.693-0.387,0.737-0.781l0.594-5.488C25.276,2.279,24.921,1.836,24.434,1.787z M22.616,8.796l-0.51,0.702l-0.291,0.4
			l-0.399-0.291l-0.879-0.635l-0.076,0.019L20.429,8.97c0,0.077-0.002,0.148-0.021,0.223c-0.016,0.074-0.042,0.14-0.07,0.209
			c-0.055,0.129-0.126,0.242-0.212,0.346l0.062,0.14c0.062,0.14,0.147,0.322,0.249,0.481l0.245,0.382h1.877L22.616,8.796z
			 M19.051,10.292c-0.021,0-0.042-0.007-0.064-0.009c-0.009,0.04-0.016,0.07-0.016,0.07l0.212,0.398h0.508l0.329-0.115
			c-0.111-0.173-0.202-0.36-0.287-0.548C19.529,10.207,19.303,10.292,19.051,10.292z M19.785,8.402
			c-0.035-0.056-0.092-0.1-0.144-0.146c-0.026-0.027-0.052-0.065-0.089-0.087c-0.092-0.066-0.201-0.114-0.314-0.14l-0.389-0.08
			l-0.887-0.19l0,0l-0.785-0.167l-0.307-0.064l-0.502-0.108l-0.034-0.006l0.08-0.081l0.34-0.337l0.364-0.368
			c0.03,0.251,0.045,0.45,0.045,0.454l0.117,0.025l1.101,0.234l0.225-0.226l3.405-3.418l-0.077-0.192l0.027-0.022
			c-0.493-0.149-1.074-0.233-1.806-0.233h-0.241c0,0-0.238,0-0.24,0c-0.513,0-1.033,0.034-1.54,0.147
			c-0.871,0.196-1.412,1.049-2.01,1.639C15.51,5.64,14.912,6.27,14.313,6.893c-0.132,0.139-0.265,0.282-0.401,0.42
			c-0.23,0.23-0.313,0.57-0.222,0.884c0.089,0.313,0.349,0.549,0.669,0.621l1.178,0.252l0.5,0.105l2.83,0.604
			c0.063,0.01,0.126,0.02,0.188,0.02c0.413,0,0.781-0.288,0.871-0.705c0.035-0.166,0.009-0.321-0.04-0.468l-0.056-0.112
			C19.812,8.479,19.799,8.444,19.785,8.402z M18.535,10.581l-0.085-0.16l0.042-0.179l0.009-0.034l-0.136-0.03l-0.501,0.574h0.759
			L18.535,10.581z"/>
	</g>
	<path id="displaced" display="none" fill="#FFFFFF" d="M20.927-1.986c0.122,0.771-0.396,1.494-1.16,1.618
		c-0.766,0.127-1.496-0.392-1.621-1.158c-0.126-0.769,0.391-1.496,1.162-1.621C20.073-3.271,20.798-2.751,20.927-1.986z
		 M20.488,3.599l1.244,1.99c0.179,0.28,0.543,0.37,0.829,0.205c0.287-0.171,0.384-0.534,0.228-0.824L22.47,4.397
		c-0.278-0.488-0.548-0.981-0.821-1.472l-0.552-1.006c-0.064-0.119-0.125-0.25-0.193-0.388c-0.338-0.718-0.873-1.827-2.046-1.728
		c-1.001,0.088-2.019,0.563-3.019,1.415c-1.183,0.935-2.011,2.293-2.042,2.351c-0.041,0.058-0.078,0.121-0.105,0.178
		c-0.003,0.001-0.003,0.003-0.005,0.005l0,0c-0.113,0.21-0.167,0.401-0.029,0.646c0.109,0.192,0.313,0.309,0.532,0.309
		c0.269,0,0.404-0.128,0.537-0.314l0,0c0.002,0,0.002-0.004,0.002-0.004c0.036-0.056,0.071-0.115,0.114-0.177
		c0.006-0.012,0.7-1.128,1.774-2.044c0.333-0.261,0.649-0.438,0.945-0.537l-0.24,2.898c-0.024,0.287-0.114,0.783-0.192,1.058
		l-0.54,1.891c-0.071,0.238-0.271,0.634-0.43,0.827L14.7,10.107c-0.183,0.229-0.391,0.488-0.219,0.848
		c0.101,0.214,0.315,0.349,0.552,0.349c0.281,0,0.435-0.16,0.624-0.368l1.474-1.59c0.263-0.285,0.606-0.777,0.778-1.125l0.731-1.488
		l2.705,4.544c0.13,0.223,0.299,0.506,0.665,0.506l0,0c0.211,0,0.402-0.109,0.514-0.282c0.198-0.301,0.067-0.574-0.045-0.82
		L20.29,5.93c-0.083-0.187-0.132-0.566-0.095-0.771L20.488,3.599z M22.778,8.543h3.279v0.975l3.256-1.88l-3.256-1.881v0.973h-3.279
		V8.543z"/>
	<path id="epidemie" display="none" fill="#FFFFFF" d="M26.513,4.821c0-3.53-2.767-6.403-6.25-6.583C21.802-1.614,23-0.498,23,0.862
		c0,0.467-0.155,0.897-0.403,1.277c-0.689-0.685-1.633-1.107-2.679-1.107c-1.044,0-1.988,0.422-2.673,1.105
		c-0.246-0.38-0.402-0.81-0.402-1.278c0-1.356,1.197-2.475,2.735-2.622c-3.483,0.18-6.25,3.054-6.25,6.584
		c0,1.064,0.258,2.068,0.705,2.961c-0.611-1.395-0.241-2.963,0.922-3.633c0.406-0.233,0.858-0.317,1.309-0.291
		c-0.085,0.311-0.142,0.633-0.142,0.972c0,1.753,1.198,3.217,2.815,3.653c-0.022,0.038-0.05,0.074-0.071,0.11
		c0,0.004,0,0.004,0,0.009c-0.052,0.121-0.122,0.218-0.202,0.301c-0.172,0.227-0.374,0.429-0.631,0.578
		c-1.169,0.673-2.722,0.207-3.619-1.035c1.18,1.791,3.206,2.976,5.505,2.976c2.284,0,4.291-1.16,5.476-2.923
		c-0.903,1.203-2.427,1.646-3.576,0.986c-0.408-0.238-0.706-0.593-0.91-1.004c1.617-0.436,2.807-1.901,2.807-3.651
		c0-0.339-0.055-0.662-0.141-0.972c0.457-0.029,0.91,0.053,1.317,0.29c1.129,0.651,1.512,2.146,0.972,3.512
		C26.28,6.797,26.513,5.839,26.513,4.821z M20.621,7.36c-0.028-0.55,0.087-1.125,0.362-1.67l-0.44-0.251
		c-0.156,0.163-0.377,0.264-0.624,0.264c-0.243,0-0.464-0.1-0.623-0.264l-0.43,0.246c0.276,0.55,0.393,1.13,0.361,1.678
		c-1.116-0.305-1.944-1.321-1.944-2.532c0-0.232,0.037-0.451,0.095-0.664c0.486,0.245,0.929,0.629,1.27,1.138l0.439-0.257
		c-0.02-0.076-0.047-0.146-0.047-0.227c0-0.408,0.28-0.736,0.659-0.835V3.483c-0.61-0.04-1.167-0.229-1.626-0.53
		c0.477-0.469,1.127-0.758,1.845-0.758c0.72,0,1.371,0.291,1.85,0.76c-0.462,0.301-1.015,0.488-1.628,0.528v0.503
		c0.379,0.098,0.658,0.428,0.658,0.835c0,0.082-0.023,0.152-0.042,0.228l0.446,0.261c0.336-0.508,0.78-0.891,1.262-1.136
		c0.054,0.209,0.094,0.428,0.094,0.656C22.558,6.039,21.734,7.051,20.621,7.36z"/>
	<path id="eruption" fill="#FFFFFF" d="M17.567,8.632c1.08,0.37,2.518,0.807,2.821-0.939c0.244-1.358,2.056-0.854,2.825-0.941
		c1.405-0.162,0.344-2.788-1.41-2.827c-1.778-0.039-2.588,0.74-3.293,2.354c-0.342,0.778-0.629,1.361-1.885,0.945
		c-1.257-0.42-2.177,0.612-1.416,1.883c0.677,1.125-0.008,2.352-0.008,2.352h1.895c0,0-0.016-0.697-0.471-1.411
		C16.092,9.214,16.457,8.251,17.567,8.632z M7.532,20.345c4.872-3.547,6.088-8.457,6.088-8.457h5.008c0,0,1.216,4.907,6.085,8.457
		H7.532z"/>
	<path id="returned" display="none" fill="#FFFFFF" d="M19.644-1.302c0.104,0.633-0.328,1.231-0.957,1.336
		c-0.635,0.104-1.231-0.327-1.336-0.958c-0.104-0.635,0.323-1.232,0.958-1.337C18.94-2.366,19.542-1.939,19.644-1.302z
		 M19.281,3.306l1.029,1.646c0.144,0.229,0.449,0.305,0.686,0.167c0.232-0.14,0.314-0.44,0.185-0.68l-0.262-0.471
		c-0.227-0.403-0.447-0.811-0.674-1.216l-0.459-0.833c-0.054-0.093-0.104-0.203-0.158-0.317c-0.283-0.593-0.726-1.51-1.689-1.424
		c-0.829,0.069-1.666,0.464-2.492,1.164c-0.976,0.773-1.661,1.894-1.692,1.939c-0.03,0.05-0.059,0.101-0.085,0.15
		c-0.002,0.002-0.004,0.002-0.004,0.004l0,0c-0.092,0.173-0.137,0.332-0.022,0.532c0.089,0.158,0.256,0.256,0.44,0.256
		c0.22,0,0.333-0.103,0.44-0.261l0,0c0.002-0.002,0.002-0.002,0.002-0.002c0.03-0.048,0.062-0.098,0.094-0.151
		c0.005-0.009,0.58-0.93,1.467-1.687c0.275-0.213,0.532-0.361,0.78-0.443l-0.197,2.395c-0.021,0.238-0.095,0.646-0.161,0.875
		l-0.443,1.558c-0.06,0.197-0.226,0.523-0.357,0.682l-1.203,1.49c-0.152,0.191-0.324,0.404-0.181,0.702
		c0.083,0.172,0.261,0.287,0.455,0.287c0.232,0,0.356-0.134,0.518-0.306l1.217-1.313c0.219-0.234,0.5-0.642,0.638-0.929l0.604-1.227
		l2.234,3.752c0.11,0.186,0.251,0.416,0.552,0.416l0,0c0.174,0,0.334-0.088,0.426-0.235c0.158-0.246,0.054-0.47-0.038-0.673
		l-1.807-3.924c-0.071-0.152-0.11-0.465-0.081-0.635L19.281,3.306z M26.803,4.143c0-1.639-1.334-2.967-2.97-2.967h-1.262v1.498
		h1.261c0.81,0,1.468,0.657,1.468,1.47c0,0.811-0.658,1.47-1.468,1.47h-0.261V4.809L20.88,6.362l2.691,1.553V7.109h0.293V7.107
		C25.486,7.091,26.803,5.771,26.803,4.143z"/>
	<path id="Attack" display="none" fill="#FFFFFF" d="M23.522,5.213l4.418-2.83L23.67,1.93l1.162-4.96l-3.029,3.129l-0.844-3.535
		l-1.27,3.3L16.23-4.594l1.085,5.585l-3.074-0.683c0,0,0.935,1.789,1.457,2.867l-4.936-0.347l4.467,2.611l-1.281,1.319l2.076-0.379
		l-1.472,5.204l4.373-3.657l1.134,2.826l1.166-2.261l3.771,3.893l-1.886-5.212l4.135,0.418L23.522,5.213z"/>
</g>
</svg>
