<?xml version="1.0" encoding="utf-8"?>
<!-- Generator: Adobe Illustrator 16.0.0, SVG Export Plug-In . SVG Version: 6.00 Build 0)  -->
<!DOCTYPE svg PUBLIC "-//W3C//DTD SVG 1.1//EN" "http://www.w3.org/Graphics/SVG/1.1/DTD/svg11.dtd">
<svg version="1.1" id="Groupe" xmlns="http://www.w3.org/2000/svg" xmlns:xlink="http://www.w3.org/1999/xlink" x="0px" y="0px"
	 width="15.871px" height="15.65px" viewBox="0 0 15.871 15.65" enable-background="new 0 0 15.871 15.65" xml:space="preserve">
<g id="PinColor_1_">
	<path id="vert" display="none" fill="#2ABF00" stroke="#1D7500" stroke-width="0.2" stroke-miterlimit="10" d="M15.357,7.362
		c0,3.392-2.428,6.234-5.703,6.989c-0.55,0.121-2.928,0.121-3.495-0.021c-3.241-0.768-5.645-3.596-5.645-6.971
		c0-3.958,3.325-7.179,7.421-7.179C12.029,0.18,15.357,3.402,15.357,7.362z"/>
	<path id="orange" display="none" fill="#FF8500" stroke="#7F4500" stroke-width="0.2" stroke-miterlimit="10" d="M15.357,7.362
		c0,3.392-2.428,6.234-5.703,6.989c-0.55,0.121-2.928,0.121-3.495-0.021c-3.241-0.768-5.645-3.596-5.645-6.971
		c0-3.958,3.325-7.179,7.421-7.179C12.029,0.18,15.357,3.402,15.357,7.362z"/>
	<path id="gris" fill="#A5A5A5" stroke="#595959" stroke-width="0.2" stroke-miterlimit="10" d="M15.357,7.362
		c0,3.392-2.428,6.234-5.703,6.989c-0.55,0.121-2.928,0.121-3.495-0.021c-3.241-0.768-5.645-3.596-5.645-6.971
		c0-3.958,3.325-7.179,7.421-7.179C12.029,0.18,15.357,3.402,15.357,7.362z"/>
	<path id="bleu" display="none" fill="#0092FF" stroke="#00477C" stroke-width="0.2" stroke-miterlimit="10" d="M15.357,7.362
		c0,3.392-2.428,6.234-5.703,6.989c-0.55,0.121-2.928,0.121-3.495-0.021c-3.241-0.768-5.645-3.596-5.645-6.971
		c0-3.958,3.325-7.179,7.421-7.179C12.029,0.18,15.357,3.402,15.357,7.362z"/>
</g>
<g id="IconsGroup">
	<g id="MinimalGroup" display="none">
		<path id="ElectionGroup" display="inline" fill="#565656" d="M13.831,2.743l-3.366-1.438c-0.095-0.041-0.217-0.016-0.277,0.068
			L9.222,2.576c-0.043,0.047-0.059,0.131-0.043,0.2C9.194,2.848,9.238,2.9,9.301,2.929L6.287,4.067
			c-0.252,0.088-0.472,0.265-0.61,0.5L4.678,6.229c-0.211,0.353-0.23,0.785-0.044,1.152l0.075,0.14H3.656
			c-0.134,0-0.239,0.109-0.239,0.241v4.557h-0.72c-0.132,0-0.235,0.108-0.235,0.236c0,0.133,0.108,0.242,0.235,0.242h8.152
			c0.134,0,0.239-0.109,0.239-0.242c0-0.128-0.105-0.236-0.239-0.236h-0.718V9.87c0-0.076-0.043-0.16-0.105-0.198
			C9.957,9.624,9.868,9.617,9.79,9.656C9.53,9.778,9.33,9.841,9.24,9.87c-0.018,0-0.039,0.012-0.053,0.022l-1.564,0.935
			c-0.25,0.147-0.533,0.23-0.818,0.23c-0.54,0-1.023-0.266-1.329-0.716C5.229,9.983,5.144,9.55,5.238,9.125
			c0.089-0.422,0.342-0.787,0.7-1.017l0.23-0.146c0.168-0.098,0.316-0.188,0.445-0.274c0.094-0.054,0.131-0.169,0.102-0.275
			c-0.056-0.192-0.152-0.362-0.25-0.495c0.366-0.156,0.862-0.443,1.114-0.733l0,0C7.63,6.218,7.693,6.253,7.761,6.286
			c0.007,0,0.007,0,0.015,0.004l0,0C7.95,6.377,8.173,6.465,8.437,6.515C8.158,6.864,7.876,7.294,7.768,7.576
			C7.582,7.667,7.165,7.892,6.202,8.509c-0.257,0.163-0.433,0.421-0.49,0.717c-0.064,0.296-0.009,0.596,0.163,0.852
			c0.22,0.323,0.565,0.5,0.931,0.5c0.196,0,0.39-0.057,0.571-0.158l1.65-0.992c0.253-0.062,1.536-0.447,2.509-2.018
			c0.764-1.231,1.189-2.22,1.365-2.67l0.029,0.014c0.101,0.043,0.216,0.08,0.32,0.08c0.191,0,0.378-0.08,0.508-0.207
			c0.14-0.134,0.217-0.319,0.217-0.517V2.964C13.968,2.866,13.917,2.777,13.831,2.743z"/>
	</g>
	<g id="FaibleGroup" display="none">
		<path id="FamineGroup" display="inline" fill="#F9F9F9" d="M11.338,11.192l-1.826,0.345L6.54,9.914l1.083-1.343l2.43,0.807
			L11.338,11.192z M14.136,8.027v0.206l-1.92,0.605l-1.892,0.269L7.891,8.3L7.317,8.027h0.329c-0.08-0.719-0.185-1.272-0.234-1.992
			l0,0C7.408,6.019,7.381,5.538,7.376,5.334c-0.037-0.221-0.142-0.305-0.479-0.54C6.708,4.681,6.57,4.637,6.499,4.637
			c-0.124,0-0.234,0.134-0.262,0.545c0.544,0.09,0.578,0.689,0.578,0.689C6.863,6.296,6.65,6.917,6.171,7.082
			c-0.886,0.295-0.8-1.418-0.297-1.83c0.014-0.493,0.152-0.948,0.625-0.966c0.189,0,0.38,0.081,0.596,0.218
			c0.1,0.067,0.189,0.125,0.261,0.197C7.347,4.532,7.339,4.365,7.339,4.19c0-0.364,0.056-0.749,0.377-1.029
			C7.88,3.008,8.06,2.926,8.25,2.928c0.474,0.028,0.764,0.437,0.94,0.853c0.193-0.086,0.446-0.127,0.729-0.025
			c0.733,0.247,1.135,1.531,0.829,1.971c-0.727,1.04-2.542-0.888-2.065-1.566c0,0,0.076-0.088,0.197-0.192
			C8.736,3.598,8.455,3.271,8.248,3.288c-0.083,0-0.182,0.029-0.298,0.135C7.749,3.605,7.692,3.855,7.692,4.19
			c0,0.235,0.031,0.498,0.031,0.754c0,0.139,0.005,0.258,0.01,0.388c0.036,0.233,0.036,0.408,0.036,0.655
			c0.053,0.716,0.337,1.304,0.419,2.04H14.136z M9.011,4.113l1.383,1.502C10.146,4.55,9.276,3.958,9.276,3.958L9.011,4.113z
			 M6.16,5.401L5.913,5.502c0,0-0.121,0.839,0,1.275L6.16,5.401z M4.929,10.458l1.093-0.657L7.16,8.391L6.809,8.027h-2.52
			L3.788,9.034L4.929,10.458z M6.202,10.229l-1.936,1.321l0.252,0.321h4.463L8.971,11.81L6.202,10.229z M2.216,8.027v1.521
			l1.236-0.665l0.382-0.856H2.216z M10.684,9.43l1.202,1.752l2.25,0.53V9.71l-1.621-0.519L10.684,9.43z M14.136,9.273V8.571
			L12.872,8.91L14.136,9.273z M3.489,9.375L2.216,9.979v1.893h0.93l1.389-1.133L3.489,9.375z M10.153,11.872h2.914l-1.389-0.335
			L10.153,11.872z"/>
		<path id="CycloneGroup" display="inline" fill="#FFFFFF" d="M8.218,3.932c-0.063,0-0.124-0.006-0.186-0.006
			c-0.547,0-1.058,0.141-1.501,0.384c0.795-2.711,2.782-2.954,2.782-2.954S4.917,1.731,4.917,6.86c0.002,0,0.002,0,0.009,0
			c0,0.058-0.004,0.116-0.004,0.183c0,0.54,0.142,1.062,0.386,1.507C2.591,7.747,2.356,5.759,2.356,5.759s0.369,4.399,5.504,4.399
			c0-0.003,0-0.003,0-0.009c0.059,0.003,0.115,0.009,0.181,0.009c0.548,0,1.059-0.14,1.508-0.387
			c-0.806,2.718-2.797,2.955-2.797,2.955s4.405-0.37,4.405-5.505c-0.007,0-0.007,0-0.007,0c0-0.061,0.007-0.123,0.007-0.18
			c0-0.549-0.139-1.063-0.391-1.509c2.714,0.795,2.959,2.79,2.959,2.79s-0.367-4.396-5.507-4.396
			C8.218,3.928,8.218,3.932,8.218,3.932z"/>
		<path id="tsunamiGroup" display="inline" fill="#FFFFFF" d="M13.568,10.663c-9.064,0.515-6.525-6.411-4.182-5.815
			C9.144,4.996,8.991,5.506,9.139,5.843c0.162,0.375,0.696,0.577,1.004,0.5c0.725-0.187,0.757-1.203,0.497-1.749
			C10.363,4.045,9.644,3.35,8.384,3.35c-3.024,0-5.101,1.549-5.878,4.208v3.917h11.063V10.663z"/>
		<path id="earthquakeGroup" display="inline" fill="#FFFFFF" d="M11.257,7.385c-0.151,0-0.298,0.085-0.37,0.228l-0.603,1.13
			l-0.743-2.18C9.482,6.4,9.33,6.287,9.155,6.28C8.974,6.276,8.821,6.377,8.759,6.54L8.248,7.747L7.441,2.918
			c-0.038-0.199-0.23-0.353-0.419-0.342C6.809,2.584,6.637,2.719,6.611,2.922l-0.71,5.597l-0.58-3.002
			C5.29,5.343,5.144,5.204,4.962,5.182C4.787,5.16,4.614,5.252,4.527,5.411L3.582,7.385H2.123v0.838h1.732
			c0.16,0,0.309-0.085,0.38-0.236L4.743,6.93l0.82,4.265c0.04,0.192,0.215,0.334,0.409,0.334c0.007,0,0.01,0,0.015,0
			c0.206-0.001,0.378-0.154,0.402-0.362l0.7-5.506l0.587,3.621c0.034,0.188,0.18,0.326,0.367,0.352
			C8.233,9.649,8.407,9.55,8.478,9.38l0.629-1.498l0.699,2.062c0.06,0.154,0.197,0.259,0.364,0.276
			c0.171,0.01,0.326-0.075,0.404-0.224l0.94-1.776h1.798V7.385H11.257z"/>
	</g>
	<g id="ImportantGroup" display="none">
		<path id="enlevementGroup" display="inline" fill="#FFFFFF" d="M13.089,0.988c-0.357,0-0.64,0.287-0.64,0.64V4.23
			c0.16,0.034,0.307,0.095,0.429,0.215c0.334,0.331,0.343,0.879,0.017,1.213l-1.217,1.246l-0.167-0.163l1.213-1.239
			c0.236-0.254,0.234-0.651-0.014-0.895c-0.075-0.075-0.166-0.128-0.269-0.156c-0.104-0.028-0.211-0.028-0.313-0.006
			c-0.123,0.026-0.224,0.087-0.303,0.173c-0.72,0.739-1.439,1.476-2.159,2.218C9.482,7.017,9.155,7.432,9.164,7.861
			c0.008,0.396,0,0.802,0,1.201C9.071,8.983,8.96,8.932,8.828,8.909c-0.373-0.067-0.703,0.158-0.83,0.488H7.813
			c0-0.085,0-0.183,0-0.271c0.007-0.411-0.008-0.849,0-1.265C7.828,7.44,7.494,7.017,7.317,6.84
			C6.596,6.094,5.882,5.357,5.161,4.615C5.08,4.532,4.97,4.47,4.856,4.445C4.75,4.419,4.643,4.423,4.536,4.451
			C4.437,4.478,4.341,4.532,4.27,4.608c-0.249,0.244-0.256,0.64-0.019,0.896l1.214,1.238L5.304,6.904L4.092,5.657
			c-0.328-0.334-0.32-0.882,0.013-1.213C4.229,4.329,4.373,4.267,4.524,4.23V1.628c0-0.354-0.289-0.64-0.639-0.64
			c-0.356,0-0.639,0.287-0.639,0.64V6.13c0,0.149,0.059,0.283,0.145,0.392l2.176,2.867H5.378c-0.424,0-0.764,0.345-0.764,0.774
			c0,0.284,0.156,0.516,0.387,0.649c-0.228,0.14-0.387,0.377-0.387,0.648c0,0.427,0.34,0.771,0.764,0.771h0.234v0.429h2.137
			c0.111,0.112,0.243,0.192,0.398,0.225c0.05,0.012,0.086,0.014,0.131,0.014c0.381,0,0.699-0.269,0.764-0.639v-0.026h0.138
			c0,0.141,0,0.284,0.015,0.429h2.167v-0.427h0.23c0.418,0,0.769-0.342,0.769-0.769c0-0.275-0.157-0.52-0.391-0.653
			c0.233-0.135,0.391-0.366,0.391-0.65c0-0.426-0.351-0.771-0.769-0.771h-0.185l2.174-2.867c0.09-0.113,0.149-0.243,0.149-0.392
			V1.635C13.73,1.276,13.441,0.988,13.089,0.988z M4.99,10.164c0-0.21,0.178-0.382,0.388-0.382h2.523l-0.134,0.771h-2.39
			C5.168,10.545,4.99,10.375,4.99,10.164z M4.99,11.468c0-0.215,0.178-0.387,0.388-0.387h2.297l-0.131,0.772H5.378
			C5.168,11.853,4.99,11.683,4.99,11.468z M8.659,12.191c-0.035,0.21-0.259,0.346-0.444,0.315c-0.103-0.013-0.188-0.071-0.248-0.154
			c-0.059-0.082-0.079-0.187-0.065-0.292l0.424-2.464C8.359,9.412,8.52,9.278,8.708,9.278c0.024,0,0.045,0,0.064,0.003
			C8.986,9.325,9.125,9.518,9.085,9.73L8.659,12.191z M11.984,11.468c0,0.216-0.166,0.386-0.383,0.386H9.103l0.132-0.772h2.366
			C11.811,11.084,11.984,11.257,11.984,11.468z M11.984,10.164c0,0.21-0.166,0.386-0.383,0.386H9.33l0.126-0.749
			c0-0.004,0-0.012,0-0.015h2.146C11.811,9.782,11.984,9.957,11.984,10.164z"/>
	</g>
	<g id="EleveGroup" display="none">
		<path id="attackGroup" display="inline" fill="#FFFFFF" d="M11.017,7.922l2.95-1.896l-2.855-0.301l0.777-3.312L9.869,4.506
			l-0.567-2.37L8.457,4.342L6.141,1.362l0.726,3.735L4.81,4.641c0,0,0.625,1.196,0.976,1.918L2.484,6.326l2.988,1.748L4.617,8.949
			l1.385-0.246l-0.979,3.475l2.92-2.444l0.763,1.891l0.777-1.507L12,12.716l-1.267-3.487l2.77,0.286L11.017,7.922z"/>
	</g>
	<g id="ExtremeGroup" display="none">
		<path id="rebelionGroup" display="inline" fill="#FFFFFF" d="M10.276,3.514c0,1.203-0.978,2.177-2.171,2.177
			c-1.207,0-2.182-0.974-2.182-2.177c0-1.207,0.975-2.175,2.182-2.175C9.301,1.338,10.276,2.307,10.276,3.514z M4.467,12.744h1.326
			h0.075l0.051-0.101L6.4,12.17l-0.456-0.099l-0.698-0.148L4.467,12.744z M13.574,3.918l-0.466,0.468l0.028,0.033l-0.382,0.375
			c0.053,0.051,0.103,0.096,0.146,0.151l0.38-0.381l0.077,0.07l0.459-0.469L13.574,3.918z M10.568,6.331l-0.205,0.203l0.023,0.055
			l0.051,0.109L7.262,9.877L7.6,9.958c0.315,0.065,0.585,0.247,0.764,0.522c0.026,0.036,0.033,0.083,0.049,0.124l0.008-0.012
			l0.233,0.153l0.082-0.02L9.66,11.4l0.625-0.85L8.903,9.471L8.94,9.381h0.233l1.35-1.589l0.153-1.421L10.568,6.331z M12.043,4.924
			c-0.415-0.044-0.814,0.266-0.859,0.691l-0.058,0.464l0,0l-0.028,0.334l-0.152,1.421L10.93,7.969l-0.081,0.098L9.637,9.496
			l0.908,0.709l0.334,0.257l-0.195,0.263l0.049,0.089c0.125,0.271,0.401,0.438,0.7,0.438c0.041,0,0.084,0,0.129-0.01
			c0.343-0.054,0.604-0.334,0.638-0.68l0.524-4.79C12.777,5.353,12.465,4.971,12.043,4.924z M10.46,11.043l-0.444,0.612L9.76,11.999
			l-0.352-0.254L8.64,11.192l-0.064,0.017l-0.03-0.017c0,0.066,0,0.128-0.02,0.192c-0.01,0.063-0.033,0.123-0.059,0.183
			c-0.043,0.111-0.112,0.203-0.182,0.301l0.055,0.125c0.052,0.122,0.126,0.278,0.211,0.42l0.221,0.331h1.635L10.46,11.043z
			 M7.347,12.34c-0.014,0-0.038-0.003-0.06-0.003c0,0.029-0.007,0.052-0.007,0.052l0.186,0.356h0.439l0.286-0.101
			c-0.097-0.15-0.176-0.313-0.25-0.48C7.761,12.269,7.567,12.34,7.347,12.34z M7.988,10.694c-0.029-0.048-0.082-0.087-0.125-0.123
			c-0.026-0.028-0.043-0.062-0.082-0.08c-0.074-0.055-0.173-0.103-0.275-0.124l-0.334-0.068l-0.776-0.162l0,0L5.707,9.987
			L5.442,9.934L5.008,9.84L4.976,9.834l0.076-0.078l0.298-0.294l0.315-0.317c0.026,0.223,0.039,0.391,0.039,0.394l0.104,0.023
			l0.958,0.207l0.197-0.199l2.971-2.98L9.862,6.421l0.024-0.018C9.456,6.276,8.95,6.192,8.311,6.192H8.104H7.895
			c-0.45,0-0.901,0.037-1.344,0.133c-0.766,0.174-1.239,0.921-1.752,1.43C4.26,8.284,3.737,8.833,3.219,9.378
			C3.103,9.502,2.987,9.625,2.863,9.741c-0.197,0.207-0.272,0.502-0.197,0.774c0.082,0.272,0.306,0.479,0.588,0.542l1.026,0.222
			l0.437,0.092l2.471,0.525c0.055,0.008,0.108,0.014,0.16,0.014c0.359,0,0.686-0.241,0.764-0.616
			c0.029-0.147,0.008-0.272-0.038-0.399l-0.045-0.106C8.014,10.76,7.998,10.734,7.988,10.694z M6.897,12.598l-0.075-0.14
			l0.042-0.156l0.003-0.03l-0.124-0.036l-0.433,0.508h0.663L6.897,12.598z"/>
	</g>
	<path id="displacedGroup" display="none" fill="#FFFFFF" d="M8.165,2.777C8.255,3.339,7.876,3.866,7.316,3.96
		c-0.561,0.1-1.097-0.287-1.186-0.842c-0.089-0.566,0.287-1.1,0.851-1.188C7.544,1.832,8.073,2.218,8.165,2.777z M7.845,6.868
		l0.911,1.457c0.132,0.207,0.398,0.272,0.611,0.148c0.209-0.124,0.276-0.385,0.16-0.602L9.301,7.457
		C9.097,7.094,8.903,6.734,8.7,6.377l-0.407-0.74C8.248,5.549,8.205,5.458,8.154,5.353C7.906,4.829,7.515,4.015,6.656,4.088
		c-0.734,0.066-1.48,0.418-2.212,1.04C3.578,5.81,2.967,6.799,2.949,6.85C2.92,6.889,2.89,6.934,2.871,6.973c0,0,0,0-0.008,0.004
		l0,0c-0.079,0.156-0.12,0.295-0.022,0.477c0.083,0.135,0.234,0.225,0.395,0.225c0.196,0,0.294-0.095,0.391-0.232l0,0l0,0
		c0.029-0.041,0.057-0.083,0.082-0.127C3.712,7.311,4.221,6.485,5.015,5.82c0.238-0.188,0.473-0.318,0.688-0.388L5.526,7.548
		c-0.017,0.207-0.084,0.574-0.14,0.777L4.99,9.71c-0.046,0.172-0.199,0.467-0.312,0.603l-1.067,1.32
		c-0.138,0.174-0.291,0.362-0.168,0.63c0.079,0.157,0.234,0.249,0.41,0.249c0.204,0,0.317-0.119,0.458-0.272l1.079-1.163
		c0.193-0.207,0.442-0.569,0.569-0.821l0.535-1.09l1.983,3.329c0.098,0.163,0.223,0.369,0.493,0.369l0,0
		c0.151,0,0.295-0.08,0.379-0.206c0.145-0.222,0.044-0.421-0.038-0.603L7.7,8.571C7.639,8.436,7.608,8.158,7.629,8.008L7.845,6.868z
		 M9.522,10.491h2.396v0.711l2.391-1.377l-2.391-1.376v0.716H9.522V10.491z"/>
	<path id="eruptionGroup" fill="#FFFFFF" d="M8.903,4.922c0.659,0.225,1.527,0.486,1.716-0.567c0.146-0.829,1.235-0.522,1.701-0.571
		c0.85-0.102,0.21-1.69-0.85-1.711c-1.076-0.026-1.563,0.451-2.002,1.425c-0.197,0.468-0.373,0.821-1.134,0.57
		C7.576,3.812,7.011,4.437,7.477,5.208C7.884,5.891,7.47,6.633,7.47,6.633h1.15c0,0-0.006-0.414-0.286-0.85
		C8.009,5.269,8.233,4.691,8.903,4.922z M2.825,12.014c2.953-2.153,3.692-5.121,3.692-5.121h3.029c0,0,0.734,2.967,3.685,5.121
		H2.825z"/>
	<path id="returnedGroup" display="none" fill="#FFFFFF" d="M8.168,2.777C8.255,3.339,7.88,3.866,7.317,3.96
		C6.755,4.055,6.219,3.673,6.133,3.111C6.042,2.548,6.417,2.017,6.981,1.926C7.544,1.832,8.073,2.214,8.168,2.777z M7.845,6.864
		l0.911,1.461c0.132,0.207,0.398,0.27,0.611,0.148c0.209-0.128,0.276-0.385,0.16-0.602L9.301,7.452
		C9.099,7.094,8.903,6.733,8.706,6.373L8.292,5.637C8.248,5.549,8.207,5.458,8.154,5.353C7.906,4.829,7.515,4.012,6.656,4.088
		C5.925,4.15,5.178,4.499,4.443,5.12c-0.869,0.689-1.48,1.678-1.498,1.726C2.92,6.889,2.89,6.93,2.871,6.973L2.863,6.977l0,0
		c-0.079,0.156-0.12,0.295-0.022,0.477c0.083,0.135,0.234,0.229,0.395,0.229c0.196,0,0.294-0.094,0.387-0.233l0,0l0,0
		c0.026-0.043,0.056-0.087,0.083-0.129c0.006-0.008,0.515-0.829,1.302-1.498c0.246-0.192,0.48-0.324,0.696-0.396L5.526,7.548
		c-0.017,0.207-0.084,0.574-0.14,0.777L4.99,9.71c-0.046,0.174-0.199,0.467-0.319,0.603l-1.059,1.32
		c-0.139,0.174-0.291,0.362-0.168,0.63c0.079,0.157,0.234,0.249,0.411,0.249c0.204,0,0.317-0.119,0.458-0.272l1.079-1.163
		c0.192-0.207,0.441-0.569,0.562-0.821l0.539-1.09l1.983,3.329c0.093,0.163,0.226,0.369,0.493,0.369l0,0
		c0.15,0,0.291-0.08,0.382-0.211c0.138-0.217,0.039-0.42-0.038-0.595L7.704,8.571C7.646,8.436,7.612,8.158,7.629,8.008L7.845,6.864z
		 M14.52,7.61c0-1.457-1.183-2.635-2.638-2.635h-1.118v1.327h1.123c0.716,0,1.305,0.584,1.305,1.308
		c0,0.712-0.577,1.303-1.305,1.303h-0.236V8.198L9.265,9.576l2.386,1.381v-0.713h0.263l0,0C13.352,10.221,14.52,9.052,14.52,7.61z"
		/>
	<path id="epidemieGroup" display="none" fill="#FFFFFF" d="M12.762,7.5c0-2.59-2.028-4.695-4.579-4.825
		c1.129,0.102,2.007,0.927,2.007,1.922c0,0.342-0.115,0.658-0.3,0.937C9.381,5.033,8.691,4.723,7.919,4.723
		c-0.763,0-1.458,0.31-1.96,0.811c-0.174-0.28-0.291-0.596-0.291-0.938c0-0.995,0.871-1.817,2.006-1.923
		C5.121,2.809,3.093,4.914,3.093,7.5c0,0.777,0.192,1.515,0.521,2.17C3.163,8.649,3.436,7.498,4.289,7.009
		c0.299-0.17,0.625-0.236,0.96-0.221C5.181,7.021,5.144,7.258,5.144,7.508c0,1.288,0.876,2.359,2.066,2.678
		c-0.021,0.026-0.045,0.052-0.061,0.082v0.005c-0.04,0.083-0.085,0.159-0.145,0.222c-0.129,0.169-0.273,0.318-0.465,0.423
		c-0.853,0.493-1.99,0.152-2.654-0.761c0.868,1.316,2.349,2.184,4.042,2.184c1.672,0,3.141-0.849,4.019-2.143
		c-0.674,0.884-1.787,1.21-2.633,0.723c-0.298-0.174-0.512-0.432-0.66-0.734c1.18-0.318,2.051-1.396,2.051-2.678
		c0-0.247-0.034-0.482-0.089-0.716c0.333-0.018,0.665,0.048,0.963,0.222c0.828,0.477,1.11,1.569,0.702,2.565
		C12.589,8.951,12.762,8.246,12.762,7.5z M8.437,9.361C8.415,8.957,8.506,8.54,8.706,8.136L8.384,7.951
		C8.27,8.075,8.104,8.148,7.929,8.148c-0.182,0-0.347-0.074-0.467-0.195L7.149,8.132c0.207,0.4,0.289,0.825,0.266,1.233
		C6.596,9.136,5.988,8.398,5.988,7.508c0-0.171,0.03-0.33,0.071-0.482c0.358,0.178,0.686,0.461,0.93,0.831l0.328-0.189
		C7.303,7.613,7.281,7.558,7.281,7.5c0-0.302,0.205-0.545,0.487-0.614V6.512c-0.45-0.033-0.853-0.167-1.191-0.388
		c0.342-0.342,0.823-0.553,1.343-0.553c0.521,0,1.01,0.218,1.356,0.559C8.935,6.352,8.531,6.485,8.087,6.519v0.371
		c0.272,0.072,0.481,0.314,0.481,0.615c0,0.058-0.016,0.111-0.029,0.165l0.327,0.185c0.241-0.372,0.57-0.65,0.924-0.833
		C9.827,7.177,9.862,7.333,9.862,7.5C9.859,8.398,9.255,9.132,8.437,9.361z"/>
</g>
</svg>
