<?xml version="1.0" encoding="utf-8"?>
<!-- Generator: Adobe Illustrator 16.0.0, SVG Export Plug-In . SVG Version: 6.00 Build 0)  -->
<!DOCTYPE svg PUBLIC "-//W3C//DTD SVG 1.1//EN" "http://www.w3.org/Graphics/SVG/1.1/DTD/svg11.dtd">
<svg version="1.1" xmlns="http://www.w3.org/2000/svg" xmlns:xlink="http://www.w3.org/1999/xlink" x="0px" y="0px" width="600px"
	 height="800px" viewBox="0 0 600 800" style="enable-background:new 0 0 600 800;" xml:space="preserve">
<g id="Regions">
	<g>
		<polygon id="Bosso" style="fill:#FFEABE;stroke:#010101;stroke-miterlimit:10;" points="284.225,626.945 284.225,626.229 
			283.866,624.796 283.866,623.719 283.507,622.286 282.791,620.492 283.866,618.342 284.225,615.832 284.583,614.397 
			285.3,612.247 287.093,610.454 288.885,609.379 289.961,608.302 292.112,606.151 293.905,605.075 296.056,604.358 
			298.566,603.283 303.227,601.491 304.662,601.132 305.02,600.774 305.379,600.416 307.529,599.339 308.246,597.188 
			308.246,596.471 307.887,595.037 307.887,593.603 307.887,591.094 307.529,589.301 307.529,587.867 307.172,585.357 
			307.172,584.999 309.68,583.206 316.492,581.054 337.287,580.338 349.477,579.979 355.932,579.979 356.289,582.131 
			356.648,583.206 356.648,584.64 357.723,587.867 359.158,593.962 359.158,595.396 359.516,596.112 359.516,596.471 
			359.873,596.83 359.873,598.623 360.232,599.698 360.592,600.774 361.309,603.283 361.309,603.643 359.158,603.643 
			358.799,603.643 358.08,603.643 356.648,603.643 355.932,603.643 355.213,603.643 353.063,603.643 352.346,603.643 
			350.91,603.643 343.383,603.643 342.307,603.643 341.232,603.643 339.797,603.643 338.363,603.643 336.928,603.643 
			335.854,603.643 334.061,603.643 332.27,603.643 331.91,603.643 331.551,603.283 330.834,603.643 330.115,603.283 
			329.758,603.283 329.398,603.643 328.324,603.643 328.324,604.001 327.965,604.001 327.965,605.075 327.965,605.434 
			327.605,605.434 327.248,605.793 326.172,605.793 325.814,605.793 325.455,605.793 325.455,606.151 325.455,606.869 
			324.738,606.869 324.379,607.586 323.662,607.586 323.662,607.944 323.662,608.661 323.662,609.379 322.947,609.379 
			321.869,610.097 321.869,610.454 321.512,610.454 320.795,610.813 320.436,611.17 321.152,611.529 321.152,611.888 
			320.436,611.888 319.721,612.605 319.361,613.322 319.002,614.038 318.285,614.397 317.926,614.397 318.285,614.756 
			318.643,615.474 318.643,616.191 319.721,616.191 319.721,616.549 319.721,616.907 319.002,617.265 319.002,617.624 
			318.643,617.982 318.285,618.342 317.209,617.624 316.492,617.624 316.492,617.982 316.135,619.06 316.852,619.06 317.209,619.06 
			317.209,619.417 317.209,619.775 317.209,620.133 316.852,620.851 316.135,620.851 315.057,621.21 314.699,621.928 
			314.342,621.568 313.982,622.644 313.625,623.36 313.625,623.719 313.625,624.078 312.549,624.796 312.549,625.154 
			312.549,625.512 312.549,625.871 311.83,625.871 311.83,625.512 311.113,623.719 310.756,623.719 310.398,623.719 309.68,623.719 
			308.963,624.078 308.605,624.078 308.246,624.437 308.605,624.796 308.246,624.796 307.887,625.154 307.887,625.512 
			307.887,625.871 307.529,625.871 306.813,625.512 306.094,625.512 306.094,625.154 306.453,624.437 306.453,624.078 
			306.453,623.719 306.453,623.003 306.813,622.286 306.813,621.928 306.453,621.928 306.094,622.286 305.736,622.644 
			305.02,622.644 304.662,622.644 303.943,622.644 303.943,623.003 304.662,624.078 304.303,624.078 304.303,624.437 
			304.303,624.796 304.303,625.154 303.943,625.154 302.15,623.36 301.793,623.36 301.436,623.719 301.436,624.078 300.717,625.512 
			300.358,625.512 300,625.154 300,624.796 299.641,625.154 299.283,624.796 298.208,624.437 297.849,624.078 297.849,623.719 
			298.208,623.36 298.566,623.36 299.283,622.286 299.283,621.928 298.566,621.928 297.849,621.928 297.49,621.928 296.773,622.644 
			296.415,622.644 295.698,622.286 295.339,622.644 295.339,623.719 295.339,624.078 295.339,624.437 294.98,624.437 
			293.546,623.719 293.188,623.719 292.471,624.796 291.395,625.512 291.037,625.871 290.678,625.871 290.32,625.512 
			289.602,625.512 288.527,626.229 287.452,626.229 287.452,625.871 287.452,625.512 287.093,625.512 286.734,625.512 
			286.375,626.229 286.375,626.587 285.658,627.663 285.658,626.587 285.3,626.587 284.941,626.229 		"/>
		<polygon id="DiffaR" style="fill:#FFEABE;stroke:#010101;stroke-miterlimit:10;" points="307.172,585.357 307.529,587.867 
			307.529,589.301 307.887,591.094 307.887,593.603 307.887,595.037 308.246,596.471 308.246,597.188 307.529,599.339 
			305.379,600.416 305.02,600.774 304.662,601.132 303.227,601.491 298.566,603.283 296.056,604.358 293.905,605.075 
			292.112,606.151 289.961,608.302 288.885,609.379 287.093,610.454 285.3,612.247 284.583,614.397 284.225,615.832 
			283.866,618.342 282.791,620.492 283.507,622.286 283.866,623.719 283.866,624.796 284.225,626.229 284.225,626.945 
			283.149,627.305 282.791,627.663 282.432,628.022 281.715,629.098 279.563,629.455 279.206,628.738 278.129,628.738 
			278.129,628.022 277.054,627.663 276.337,627.663 275.979,627.663 275.979,628.38 275.979,628.738 275.979,629.098 
			276.337,629.455 276.695,629.813 276.695,630.173 276.695,630.531 275.979,630.531 275.261,629.813 274.544,629.455 
			274.186,629.455 274.186,629.813 273.468,630.173 273.468,630.531 273.468,630.891 273.827,630.891 274.544,630.891 
			274.903,631.249 274.544,631.249 274.544,631.606 274.186,632.323 273.827,633.041 274.186,633.041 274.544,633.759 
			274.903,634.117 274.544,634.475 273.827,634.117 273.11,634.117 272.394,633.399 272.035,633.759 271.676,634.117 
			272.035,634.475 272.035,634.834 272.035,635.192 271.676,635.192 271.317,634.834 270.959,634.834 270.959,635.55 
			269.524,635.55 269.524,635.909 270.601,636.268 270.959,636.268 271.317,636.627 271.676,638.061 271.317,638.777 
			270.959,638.777 270.601,638.418 270.959,638.061 270.601,637.702 270.242,637.702 269.883,638.418 270.242,638.777 
			269.883,639.136 268.449,640.212 267.732,640.569 267.374,640.569 267.015,641.287 267.374,641.645 267.015,642.004 
			266.298,642.722 265.582,643.08 265.223,643.439 264.505,643.439 263.789,643.797 262.712,643.797 262.712,643.439 
			261.279,644.872 260.92,645.23 260.92,645.59 260.92,645.948 261.279,646.308 261.279,646.665 260.92,647.381 259.845,647.381 
			258.052,647.74 258.052,648.099 258.77,648.458 259.127,648.816 258.411,649.176 258.052,649.176 257.693,648.816 
			256.977,648.099 256.259,648.099 255.9,648.099 255.542,648.458 255.542,648.816 255.9,649.533 255.184,650.607 253.75,652.402 
			253.75,652.76 253.392,652.76 253.033,652.76 253.033,652.402 253.033,652.043 252.674,651.325 251.958,651.325 251.599,651.325 
			250.881,651.325 250.881,650.967 250.522,650.25 250.522,649.533 250.165,649.533 250.165,649.892 249.806,649.892 
			249.088,652.043 248.372,652.76 248.014,652.76 247.296,652.76 246.579,652.402 245.145,652.402 244.069,652.043 244.069,652.402 
			244.428,653.118 244.428,653.835 243.353,653.118 242.994,653.118 242.994,653.476 242.636,654.553 242.636,654.911 
			242.636,655.271 241.56,656.346 241.56,656.703 242.277,657.421 241.918,657.779 240.843,658.139 240.484,658.139 
			240.125,658.854 240.125,660.289 239.767,660.647 239.409,660.647 238.691,659.214 238.333,659.214 238.333,659.571 
			238.333,659.93 238.333,660.289 238.691,661.365 239.05,661.723 239.409,661.723 240.125,661.723 240.843,661.007 
			241.202,661.007 241.56,661.723 240.843,662.44 240.484,662.798 240.125,663.516 240.125,664.592 240.125,664.949 
			240.125,665.309 240.843,665.666 240.125,666.024 239.767,666.024 239.409,666.384 239.05,667.46 238.691,667.46 238.333,667.46 
			238.333,666.742 237.616,666.742 237.257,666.742 236.182,666.384 235.465,667.102 234.748,667.817 233.672,668.893 
			233.313,669.252 232.955,669.61 232.955,669.97 233.672,670.688 233.672,671.045 233.313,671.761 233.313,672.12 233.672,672.838 
			232.955,673.196 233.313,673.196 233.672,673.555 233.672,673.912 232.238,673.912 231.879,673.912 231.879,674.271 
			232.238,675.347 231.879,676.064 231.521,676.064 231.521,676.423 230.804,676.064 230.087,675.705 229.728,675.347 
			229.011,675.347 228.294,675.347 227.577,675.347 227.219,675.347 226.86,675.347 225.426,674.988 225.068,674.629 
			224.709,674.629 223.992,674.271 223.633,674.271 223.633,674.629 222.916,674.988 223.275,674.629 222.558,674.629 
			220.765,674.629 220.407,674.629 219.69,674.629 219.331,674.271 219.331,673.912 219.69,673.555 219.331,673.555 
			219.331,673.196 218.972,673.196 218.614,673.196 218.614,673.555 218.614,674.271 217.897,674.271 217.538,674.271 
			216.821,673.912 216.463,673.555 216.463,673.912 216.104,674.988 215.746,675.347 215.746,674.988 215.387,674.988 
			215.387,674.629 215.387,674.271 215.746,673.912 215.029,673.912 215.029,673.555 214.67,673.555 214.312,673.555 
			213.953,673.555 213.595,673.196 212.877,672.838 212.519,672.479 211.802,672.479 211.443,672.479 211.085,672.479 
			210.368,672.838 210.009,672.479 208.934,667.817 210.368,667.817 214.67,667.46 216.821,665.666 219.331,665.666 219.69,664.233 
			218.972,662.44 213.595,660.647 208.934,661.007 207.141,659.93 205.348,658.497 204.273,653.835 204.273,652.402 
			204.273,649.176 203.197,646.308 201.404,644.513 198.178,635.192 196.385,633.759 196.026,633.041 196.026,629.455 
			196.026,627.663 196.026,624.078 194.951,616.191 194.592,614.397 193.517,611.17 193.875,610.454 194.951,608.302 
			193.517,606.869 193.158,606.511 193.158,604.718 193.158,604.358 193.517,603.643 194.234,599.339 194.234,596.112 
			194.234,595.755 211.443,596.83 220.048,597.188 224.709,597.188 226.501,596.83 225.426,595.396 225.426,589.301 
			225.068,587.867 227.219,576.395 225.785,571.016 225.785,570.3 227.577,567.432 228.294,567.072 239.05,566.355 241.918,563.846 
			242.636,563.487 247.296,564.921 249.448,563.487 254.108,562.77 259.486,563.846 262.712,567.072 264.864,568.507 
			269.883,576.754 280.639,579.621 284.225,579.621 290.678,578.187 292.83,577.47 294.623,575.318 296.056,575.318 
			298.924,577.111 300.358,576.754 302.508,577.111 302.15,578.545 297.131,581.771 299.641,586.79 307.172,585.357 		"/>
		<polygon id="Goudoumaria" style="fill:#FFEABE;stroke:#010101;stroke-miterlimit:10;" points="106.752,641.645 102.809,641.287 
			102.451,641.287 99.941,641.287 99.941,641.645 99.582,641.287 99.224,641.287 97.79,641.287 95.28,641.287 89.902,641.287 
			89.543,641.287 89.185,641.287 88.109,641.287 86.317,641.287 85.6,641.287 85.6,640.929 85.6,641.287 84.883,641.287 
			83.449,641.287 82.373,640.929 80.939,641.287 75.202,641.287 74.127,641.287 73.768,641.287 73.41,641.287 72.693,641.287 
			69.824,641.287 69.466,641.287 68.749,641.645 68.749,641.287 64.446,641.287 63.371,641.645 57.634,642.004 56.2,642.004 
			55.125,642.004 52.973,642.004 50.464,642.004 49.029,642.362 46.161,642.362 44.727,642.362 42.576,642.722 38.991,642.722 
			38.632,642.722 37.915,642.722 36.481,643.08 32.896,643.08 31.103,643.08 28.952,643.08 28.235,643.439 23.932,632.323 
			23.215,630.531 24.291,629.455 27.159,626.945 36.122,617.982 46.161,607.944 46.52,594.68 47.954,590.018 66.239,573.884 
			76.278,562.77 95.28,551.297 104.243,554.165 122.887,550.938 126.472,549.506 128.981,548.788 134.001,545.561 135.436,544.484 
			151.569,534.089 151.927,533.729 151.569,534.089 145.474,545.92 148.7,555.958 142.964,560.26 144.756,574.602 134.718,578.904 
			134.718,579.263 133.643,583.922 137.586,586.79 140.455,590.376 142.248,593.244 144.398,597.906 145.474,602.566 
			146.191,606.869 149.059,608.661 149.417,611.888 146.908,613.322 146.908,615.114 147.983,616.907 151.21,618.342 
			151.21,620.133 150.493,623.719 147.625,625.154 143.681,626.229 138.662,626.229 135.436,626.945 132.208,629.098 
			130.058,630.531 127.188,630.891 118.226,630.891 109.979,633.041 107.111,638.061 		"/>
		<polygon id="MaineSoroa" style="fill:#FFEABE;stroke:#010101;stroke-miterlimit:10;" points="241.918,563.846 239.05,566.355 
			228.294,567.072 227.577,567.432 225.785,570.3 225.785,571.016 227.219,576.395 225.068,587.867 225.426,589.301 
			225.426,595.396 226.501,596.83 224.709,597.188 220.048,597.188 211.443,596.83 194.234,595.755 194.234,596.112 
			194.234,599.339 193.517,603.643 193.158,604.358 193.158,604.718 193.158,606.511 193.517,606.869 194.951,608.302 
			193.875,610.454 193.517,611.17 194.592,614.397 194.951,616.191 196.026,624.078 196.026,627.663 196.026,629.455 
			196.026,633.041 196.385,633.759 198.178,635.192 201.404,644.513 203.197,646.308 204.273,649.176 204.273,652.402 
			204.273,653.835 205.348,658.497 207.141,659.93 208.934,661.007 213.595,660.647 218.972,662.44 219.69,664.233 219.331,665.666 
			216.821,665.666 214.67,667.46 210.368,667.817 208.934,667.817 210.009,672.479 210.368,672.838 210.009,673.196 
			209.651,673.555 209.651,673.912 210.009,673.912 210.368,673.912 210.368,674.271 209.292,674.271 208.934,673.912 
			208.575,673.196 208.575,672.479 208.575,671.761 208.217,671.403 207.858,671.045 207.141,670.688 206.782,670.328 
			204.99,670.328 204.631,670.688 204.273,671.045 203.914,671.045 202.48,670.328 201.763,670.328 201.404,669.61 201.046,669.61 
			200.687,669.61 200.329,669.61 199.97,669.61 199.253,669.61 198.895,669.61 198.178,669.252 197.819,669.61 198.178,670.328 
			198.536,670.688 199.253,671.403 198.178,671.761 198.178,672.12 197.461,672.12 197.102,671.761 196.385,671.761 
			195.668,671.045 195.309,671.045 194.951,671.045 194.951,671.403 194.951,671.761 194.951,672.12 194.951,672.479 
			193.875,672.12 193.158,671.403 193.158,671.761 192.8,671.761 192.8,672.838 192.8,673.196 191.366,672.838 191.007,673.196 
			189.931,672.838 186.346,670.688 184.912,669.97 183.836,669.252 183.478,668.893 183.119,668.534 182.761,668.534 
			180.968,667.46 179.893,666.384 179.534,666.024 179.534,665.666 177.741,664.233 177.383,663.874 177.383,663.516 
			177.024,663.516 175.949,662.44 170.929,658.854 170.212,658.139 168.061,657.062 165.193,655.628 164.476,655.271 
			164.117,655.271 158.022,653.835 156.947,653.835 154.079,653.118 153.72,653.118 153.003,653.118 152.645,652.76 151.569,652.76 
			150.134,652.402 149.417,652.402 148.7,652.043 148.342,652.043 147.625,652.043 146.191,651.685 144.04,650.967 141.171,650.25 
			140.813,650.25 140.096,649.533 139.021,649.533 138.303,649.176 137.586,649.176 136.152,648.458 134.359,647.74 
			133.284,647.381 132.208,647.023 132.208,646.665 126.472,644.155 124.679,643.797 123.962,643.797 120.376,643.08 
			120.019,643.439 119.66,643.439 118.584,643.08 118.226,643.08 118.226,642.722 116.433,642.722 114.999,642.362 110.338,641.645 
			107.111,641.645 106.752,641.645 107.111,638.061 109.979,633.041 118.226,630.891 127.188,630.891 130.058,630.531 
			132.208,629.098 135.436,626.945 138.662,626.229 143.681,626.229 147.625,625.154 150.493,623.719 151.21,620.133 
			151.21,618.342 147.983,616.907 146.908,615.114 146.908,613.322 149.417,611.888 149.059,608.661 146.191,606.869 
			145.474,602.566 144.398,597.906 142.248,593.244 140.455,590.376 137.586,586.79 133.643,583.922 134.718,579.263 
			134.718,578.904 144.756,574.602 142.964,560.26 148.7,555.958 145.474,545.92 151.569,534.089 151.927,533.729 155.154,531.578 
			165.91,529.785 177.741,524.767 180.968,523.331 181.327,522.974 194.951,522.258 195.309,522.258 195.668,534.447 
			202.839,542.334 211.443,544.484 218.972,550.222 231.879,555.601 		"/>
		<polygon id="Ngourti" style="fill:#FFEABE;stroke:#010101;stroke-miterlimit:10;" points="347.684,517.236 324.379,505.405 
			321.512,524.767 312.906,529.785 311.473,529.785 293.905,527.276 266.657,514.368 265.582,515.445 260.562,515.804 
			244.069,522.258 230.804,524.049 223.633,524.408 222.916,526.201 224.709,527.635 229.728,527.276 230.804,527.994 
			230.804,529.785 226.143,529.785 221.124,527.635 213.236,527.635 207.141,527.635 195.309,522.258 194.951,522.258 
			181.327,522.974 180.968,523.331 177.383,527.276 173.798,525.483 171.646,524.049 169.137,522.974 165.551,517.954 
			168.061,510.426 168.42,510.426 177.383,506.841 177.383,503.255 177.741,456.288 177.741,306.425 177.741,304.991 178.1,184.884 
			183.836,176.997 191.724,166.6 198.536,163.731 277.054,130.389 284.941,127.162 287.81,125.728 567.104,123.577 576.785,123.577 
			576.785,124.652 576.785,127.879 576.426,131.106 576.426,131.823 576.426,132.54 576.426,136.125 576.066,138.993 
			576.426,140.427 576.066,141.861 576.066,142.22 575.709,149.391 575.35,154.41 575.35,155.844 574.633,166.6 574.633,166.958 
			574.633,167.675 574.633,170.185 573.916,184.168 573.559,191.696 573.199,198.508 573.199,199.942 573.199,200.301 
			573.199,202.094 572.84,205.679 572.48,207.83 572.84,208.905 572.48,212.491 572.48,213.925 572.48,215.359 572.48,216.076 
			572.48,216.793 572.123,218.586 571.766,223.605 571.766,225.04 571.766,226.474 571.766,227.549 571.766,230.059 
			571.406,234.003 571.406,236.512 571.406,237.946 571.406,238.663 571.049,246.551 567.463,250.136 564.953,252.646 
			555.273,263.043 553.48,264.836 553.121,265.194 551.328,266.628 551.328,266.987 549.537,269.138 545.234,273.441 
			543.441,274.875 543.084,275.591 542.725,275.95 538.779,279.894 535.195,283.838 525.156,294.235 516.193,303.557 
			512.967,306.784 509.381,310.727 506.873,313.595 502.209,318.615 497.191,323.992 495.039,326.144 493.246,328.295 
			488.229,333.314 485.719,335.824 483.207,338.692 479.266,342.995 476.396,345.504 473.887,348.014 473.527,348.73 
			471.734,350.523 469.943,352.316 465.998,356.26 463.131,359.486 460.979,361.638 459.904,362.354 453.092,369.525 
			449.506,373.11 445.205,377.054 440.9,383.148 438.752,386.018 437.316,388.168 436.6,389.244 435.883,389.961 434.447,391.753 
			430.504,396.772 427.277,401.434 424.053,406.095 422.258,408.244 420.824,410.396 419.031,413.266 417.238,415.416 
			415.805,417.926 412.936,421.512 407.918,428.682 407.559,428.682 407.559,429.041 406.482,430.833 406.125,431.191 
			405.408,432.268 403.256,435.492 402.898,435.492 398.955,441.588 397.162,443.382 396.086,445.174 394.65,446.25 394.65,446.609 
			393.576,447.683 392.859,448.4 393.219,448.4 392.143,449.477 387.48,454.137 386.764,455.572 386.764,455.93 385.688,458.081 
			385.328,459.156 385.328,459.516 384.613,459.873 384.256,461.309 383.178,463.817 382.461,465.252 381.027,468.479 
			379.594,472.063 379.594,472.78 378.877,473.857 378.518,474.573 378.877,475.289 378.518,476.366 378.877,478.157 
			378.877,479.234 378.877,481.385 379.234,481.743 379.594,483.894 381.027,487.479 381.027,489.631 381.027,490.348 
			379.594,491.424 379.234,491.783 378.518,492.141 377.801,492.499 376.365,493.215 376.365,493.574 374.934,493.215 
			374.574,492.857 373.857,492.857 369.195,496.801 368.838,497.52 368.121,498.235 365.971,499.67 365.971,500.028 
			365.971,500.387 365.971,500.746 366.328,501.104 367.402,502.178 367.762,502.537 367.762,502.896 367.762,503.255 
			367.762,505.764 368.121,507.916 368.121,509.35 365.611,511.142 364.895,511.859 364.535,511.859 364.176,512.219 
			363.459,512.577 362.385,513.293 362.025,513.652 361.309,514.011 357.365,514.727 356.648,514.727 355.932,514.727 
			354.139,514.368 352.703,515.086 351.27,515.804 349.836,516.163 348.402,516.879 		"/>
		<polygon id="Nguigmi" style="fill:#FFEABE;stroke:#010101;stroke-miterlimit:10;" points="347.684,517.236 346.967,517.236 
			346.25,517.596 345.531,517.954 344.816,518.672 343.74,519.747 343.383,520.463 343.383,520.822 343.383,521.54 343.383,522.974 
			343.383,524.767 343.383,525.483 343.74,525.842 344.1,528.71 344.1,529.069 344.1,529.785 344.459,530.862 344.459,531.221 
			344.816,532.294 345.531,535.164 346.25,536.957 346.25,537.673 346.25,538.39 347.326,543.41 348.402,546.995 349.477,551.656 
			349.836,552.731 349.836,553.449 349.836,554.165 350.195,555.242 351.27,559.544 351.986,563.128 352.346,564.205 
			352.703,565.638 353.063,567.432 353.422,569.223 353.422,569.582 353.422,569.94 353.779,571.375 354.854,575.677 
			354.854,576.395 355.932,579.979 349.477,579.979 337.287,580.338 316.492,581.054 309.68,583.206 307.172,584.999 
			307.172,585.357 299.641,586.79 297.131,581.771 302.15,578.545 302.508,577.111 300.358,576.754 298.924,577.111 
			296.056,575.318 294.623,575.318 292.83,577.47 290.678,578.187 284.225,579.621 280.639,579.621 269.883,576.754 
			264.864,568.507 262.712,567.072 259.486,563.846 254.108,562.77 249.448,563.487 247.296,564.921 242.636,563.487 
			241.918,563.846 231.879,555.601 218.972,550.222 211.443,544.484 202.839,542.334 195.668,534.447 195.309,522.258 
			207.141,527.635 213.236,527.635 221.124,527.635 226.143,529.785 230.804,529.785 230.804,527.994 229.728,527.276 
			224.709,527.635 222.916,526.201 223.633,524.408 230.804,524.049 244.069,522.258 260.562,515.804 265.582,515.445 
			266.657,514.368 293.905,527.276 311.473,529.785 312.906,529.785 321.512,524.767 324.379,505.405 		"/>
	</g>
</g>
<g id="RegionsCenter">
	<circle id="CenterNgourti" style="fill:#7B97CD;" cx="324.049" cy="310.758" r="5.243"/>
	<circle id="CenterMaineSoroa" style="fill:#7B97CD;" cx="179.579" cy="595" r="5.243"/>
	<circle id="CenterGoudoumaria" style="fill:#7B97CD;" cx="92.814" cy="619.596" r="5.243"/>
	<circle id="CenterDiffaR" style="fill:#7B97CD;" cx="241.918" cy="632.905" r="5.243"/>
	<circle id="CenterNguigmi" style="fill:#7B97CD;" cx="277.62" cy="552" r="5.243"/>
	<circle id="CenterBosso" style="fill:#7B97CD;" cx="313.247" cy="605.82" r="5.243"/>
</g>
<g id="LabelRegions">
	<text transform="matrix(1 0 0 1 306 298)" style="font-family:'MyriadPro-Regular'; font-size:12;">Ngourti</text>
	<text transform="matrix(1 0 0 1 288 557)" style="font-family:'MyriadPro-Regular'; font-size:12;">N’Guigmi</text>
	<text transform="matrix(1 0 0 1 315 595)" style="font-family:'MyriadPro-Regular'; font-size:12;">Bosso</text>
	<text transform="matrix(1 0 0 1 230 619.5957)" style="font-family:'MyriadPro-Regular'; font-size:12;">Diffa</text>
	<text transform="matrix(1 0 0 1 155 579.9785)" style="font-family:'MyriadPro-Regular'; font-size:12;">Maïné Soroa</text>
	<text transform="matrix(1 0 0 1 63 605.8203)" style="font-family:'MyriadPro-Regular'; font-size:12;">Goudoumaria</text>
</g>
</svg>
