<?xml version="1.0" encoding="utf-8"?>
<!-- Generator: Adobe Illustrator 16.0.0, SVG Export Plug-In . SVG Version: 6.00 Build 0)  -->
<!DOCTYPE svg PUBLIC "-//W3C//DTD SVG 1.1//EN" "http://www.w3.org/Graphics/SVG/1.1/DTD/svg11.dtd">
<svg version="1.1" xmlns="http://www.w3.org/2000/svg" xmlns:xlink="http://www.w3.org/1999/xlink" x="0px" y="0px" width="13.35px"
	 height="20px" viewBox="0 0 13.35 20" enable-background="new 0 0 13.35 20" xml:space="preserve">
<g id="Events_1_">
	<path id="PinOmbre" opacity="0.3" enable-background="new    " d="M12.72,15.352c0,0.901-1.979,1.658-4.642,1.857
		c-0.449,0.034-1.399,2.148-1.399,2.148s-0.983-2.115-1.447-2.151c-2.637-0.205-4.594-0.958-4.594-1.854
		c0-1.055,2.705-1.91,6.041-1.91S12.72,14.296,12.72,15.352z"/>
	<path id="Pin" fill="#ED1C24" d="M12.72,6.684c0,2.854-1.979,5.248-4.642,5.878c-0.449,0.104-1.399,6.795-1.399,6.795
		s-0.983-6.69-1.447-6.808c-2.637-0.647-4.594-3.029-4.594-5.867c0-3.336,2.705-6.041,6.041-6.041S12.72,3.347,12.72,6.684z"/>
	<g id="Type">
		<path id="Attack" display="none" fill="#FFFFFF" d="M8.332,7.013l2.116-1.355L8.404,5.441l0.554-2.376L7.508,4.564L7.105,2.87
			L6.496,4.451L4.839,2.316l0.521,2.675L3.887,4.664c0,0,0.447,0.857,0.697,1.373L2.22,5.871l2.14,1.251L3.745,7.754L4.74,7.572
			l-0.705,2.493L6.13,8.313l0.543,1.354l0.559-1.083l1.805,1.865L8.135,7.952l1.98,0.201L8.332,7.013z"/>
	</g>
</g>
<g id="Layer_2">
	<g>
		<g>
			<path fill="#FFFFFF" d="M10.182,3.723L8.085,2.824C8.023,2.798,7.95,2.816,7.909,2.869l-0.6,0.749
				C7.282,3.652,7.272,3.699,7.281,3.743C7.29,3.785,7.318,3.82,7.355,3.84l-1.88,0.705C5.316,4.604,5.182,4.716,5.095,4.861
				L4.473,5.898C4.341,6.118,4.33,6.387,4.446,6.617L4.49,6.705H3.834c-0.083,0-0.15,0.067-0.15,0.15V9.7H3.235
				c-0.083,0-0.15,0.067-0.15,0.149c0,0.083,0.067,0.15,0.15,0.15h5.091c0.082,0,0.148-0.067,0.148-0.15
				c0-0.082-0.066-0.149-0.148-0.149H7.876V8.17c0-0.051-0.027-0.1-0.069-0.126C7.763,8.016,7.709,8.012,7.662,8.034
				C7.498,8.112,7.377,8.151,7.32,8.168C7.307,8.171,7.295,8.176,7.284,8.184L6.309,8.768C6.154,8.862,5.977,8.911,5.797,8.911
				c-0.332,0-0.641-0.165-0.831-0.445c-0.15-0.225-0.202-0.496-0.146-0.76c0.055-0.264,0.212-0.49,0.439-0.635l0.142-0.09
				C5.505,6.918,5.597,6.86,5.68,6.809c0.058-0.036,0.084-0.106,0.064-0.171c-0.037-0.12-0.098-0.227-0.157-0.309
				C5.817,6.229,6.125,6.051,6.281,5.87c0,0,0.001,0.001,0.002,0.001c0.034,0.02,0.072,0.041,0.116,0.062
				c0.003,0.001,0.004,0.002,0.007,0.003h0c0.112,0.054,0.252,0.108,0.416,0.14C6.647,6.292,6.469,6.561,6.405,6.74
				C6.281,6.795,6.023,6.941,5.421,7.324C5.262,7.426,5.153,7.583,5.114,7.768S5.111,8.142,5.217,8.3
				c0.134,0.201,0.355,0.312,0.581,0.312c0.122,0,0.246-0.033,0.358-0.1l1.03-0.618c0.16-0.039,0.961-0.279,1.567-1.259
				c0.476-0.769,0.742-1.388,0.853-1.668l0.017,0.009c0.063,0.031,0.131,0.047,0.2,0.047c0.116,0,0.23-0.046,0.313-0.126
				c0.089-0.084,0.137-0.2,0.137-0.323V3.861C10.271,3.801,10.237,3.746,10.182,3.723z"/>
		</g>
	</g>
</g>
</svg>
