<?xml version="1.0" encoding="utf-8"?>
<!-- Generator: Adobe Illustrator 16.0.0, SVG Export Plug-In . SVG Version: 6.00 Build 0)  -->
<!DOCTYPE svg PUBLIC "-//W3C//DTD SVG 1.1//EN" "http://www.w3.org/Graphics/SVG/1.1/DTD/svg11.dtd">
<svg version="1.1" id="logo" xmlns="http://www.w3.org/2000/svg" xmlns:xlink="http://www.w3.org/1999/xlink" x="0px" y="0px"
	 width="150px" height="122.357px" viewBox="0 0 150 122.357" enable-background="new 0 0 150 122.357" xml:space="preserve">
<g>
	<g>
		<g>
			<path fill="#F3FCFF" d="M63.006,50.799c0-5.999,4.877-10.847,10.848-10.847l0,0c6,0.021,10.82,4.854,10.832,10.847l0,0
				c-0.012,5.983-4.84,10.811-10.832,10.828l0,0v-0.688v-0.686c5.242,0,9.464-4.223,9.464-9.454l0,0c0-5.24-4.231-9.469-9.464-9.469
				l0,0c-5.23,0.005-9.471,4.229-9.479,9.469l0,0c0.009,5.231,4.249,9.442,9.479,9.454l0,0v0.686v0.688
				C67.883,61.627,63.006,56.793,63.006,50.799L63.006,50.799z"/>
			<path fill="#F3FCFF" d="M54.391,50.799c0-10.738,8.703-19.479,19.463-19.479l0,0c10.735,0,19.46,8.735,19.46,19.479l0,0
				c0,10.723-8.726,19.447-19.46,19.452l0,0v-0.676v-0.691C83.82,68.868,91.932,60.76,91.95,50.8l0,0
				c-0.019-9.986-8.13-18.089-18.096-18.11l0,0c-9.992,0.021-18.066,8.124-18.09,18.11l0,0c0.023,9.96,8.098,18.068,18.09,18.084
				l0,0v0.691v0.676C63.094,70.251,54.391,61.522,54.391,50.799L54.391,50.799z"/>
			<path fill="#F3FCFF" d="M44.992,50.799c0-15.942,12.931-28.844,28.861-28.844l0,0c15.92,0,28.834,12.902,28.84,28.844l0,0
				c-0.006,15.917-12.92,28.828-28.84,28.828l0,0v-0.686v-0.687c15.165-0.027,27.445-12.292,27.471-27.456l0,0
				c-0.025-15.185-12.307-27.449-27.471-27.488l0,0c-15.169,0.039-27.461,12.303-27.488,27.488l0,0
				c0.027,15.164,12.319,27.429,27.488,27.456l0,0v0.687v0.686C57.923,79.627,44.992,66.727,44.992,50.799L44.992,50.799z"/>
			<path fill="#F3FCFF" d="M36.02,50.799c0-20.927,16.928-37.851,37.829-37.851l0,0c20.911,0,37.862,16.923,37.862,37.851l0,0
				c0,20.896-16.951,37.835-37.862,37.835l0,0v-0.687v-0.686c20.153-0.038,36.456-16.33,36.489-36.463l0,0
				c-0.033-20.164-16.336-36.45-36.489-36.482l0,0C53.7,14.348,37.426,30.634,37.387,50.798l0,0
				C37.426,70.931,53.7,87.223,73.849,87.261l0,0v0.686v0.687C52.947,88.635,36.02,71.695,36.02,50.799L36.02,50.799z"/>
			<path fill="#F3FCFF" d="M26.086,50.799C26.086,24.413,47.471,3.005,73.849,3l0,0c26.379,0.005,47.771,21.413,47.771,47.799l0,0
				c0,26.382-21.392,47.762-47.771,47.762l0,0V97.87v-0.681c25.624-0.042,46.36-20.758,46.403-46.39l0,0
				C120.209,25.17,99.473,4.416,73.849,4.368l0,0C48.23,4.416,27.497,25.17,27.447,50.799l0,0
				c0.049,25.631,20.783,46.347,46.401,46.39l0,0v0.681v0.691C47.471,98.562,26.086,77.181,26.086,50.799L26.086,50.799z"/>
			<g>
				<g>
					<polygon fill="#F3FCFF" points="73.15,40.649 73.15,3.691 74.529,3.691 74.529,40.649 					"/>
				</g>
			</g>
			<g>
				<g>
					<polygon fill="#F3FCFF" points="40.094,17.978 41.064,17.014 67.164,43.129 66.186,44.098 					"/>
				</g>
			</g>
			<g>
				<g>
					<polygon fill="#F3FCFF" points="26.76,51.476 26.76,50.119 63.688,50.119 63.688,51.476 					"/>
				</g>
			</g>
			<g>
				<g>
					<polygon fill="#F3FCFF" points="40.094,83.574 66.186,57.513 67.164,58.478 41.064,84.549 					"/>
				</g>
			</g>
			<g>
				<g>
					<polygon fill="#F3FCFF" points="73.15,97.87 73.15,60.939 74.529,60.939 74.529,97.87 					"/>
				</g>
			</g>
			<g>
				<g>
					<polygon fill="#F3FCFF" points="80.545,58.478 81.516,57.513 107.619,83.574 106.648,84.549 					"/>
				</g>
			</g>
			<g>
				<g>
					<polygon fill="#F3FCFF" points="84,51.481 84,50.119 120.939,50.119 120.939,51.481 					"/>
				</g>
			</g>
			<g>
				<g>
					<polygon fill="#F3FCFF" points="80.545,43.129 106.648,17.014 107.619,17.978 81.516,44.098 					"/>
				</g>
			</g>
		</g>
		<g>
			<path fill="#F3FCFF" d="M66.596,53.856c0.415-0.049,0.344,0.316,0.485,0.545c0,0.011,0.11,0.011,0.169,0
				c0.627-0.676,1.02-1.471,1.176-2.402c0-0.071,0.176-0.153,0.176-0.185c-0.092-0.42-0.547-0.562-0.746-0.916
				c-0.235,0.621-0.867,0.115-1.342,0.419c-0.006,0.012-0.043,0.18,0.082,0.229c0.169,0.082,0.415,0.006,0.469,0.136
				c0.115,0.164,0.115,0.453-0.054,0.659c-0.022,0.049-0.159,0.038-0.159,0c-0.245-0.479-0.638-0.414-1.078-0.414
				c0.184,0.157-0.141,0.113-0.064,0.207c-0.611-0.164-1.2,0.13-1.789,0.186c-0.179,0.021-0.413-0.12-0.57-0.279
				c-0.213,0.224-0.465,0.665-0.798,0.541c-0.111-0.05-0.304-0.317-0.179-0.381c0.338-0.202,0.637-0.436,0.797-0.763
				c0.131-0.268,0-0.583,0.146-0.85c0.174-0.349,0.451-0.675,0.779-0.648c0.371,0,1.051,0.327,1.361-0.077
				c0.113-0.104,0.344,0.224,0.48,0.376c0.049,0.048-0.027,0.13-0.082,0.195c-0.223,0.224-0.572,0.246-0.709,0.579
				c-0.104,0.228,0.027,0.424,0.201,0.484c0.285,0.131,0.373-0.256,0.508-0.452c0.158-0.191,0.326-0.032,0.48,0
				c0-0.061-0.017-0.147,0-0.147c0.332-0.099,0.707-0.044,1.055-0.044c0.408,0,0.191-0.833,0.153-1.33c0-0.109-0.012-0.25,0-0.371
				c0-0.059,0-0.13,0.038-0.189c0.121-0.273,0.648-0.35,0.729-0.061c0.012,0.104,0.034,0.191,0.062,0.278
				c0.026,0.147,0.098,0.234,0.283,0.147c0.043-0.028,0.098-0.072,0.109-0.147c0.068-0.158,0.038-0.415,0.141-0.501
				c0.158-0.164,0.381,0.246,0.636,0.284c0.257,0.059,0.542,0.059,0.753-0.088c0.18-0.109,0.18-0.322,0.027-0.535
				c-0.059-0.098-0.206-0.114-0.238-0.07c-0.236,0.245-0.542,0.185-0.797,0.185c-0.238,0-0.354-0.294-0.555-0.436
				c-0.223-0.158-0.502,0.163-0.764,0.055c-0.246-0.115-0.369-0.355-0.227-0.583c0.057-0.109,0.227-0.218,0.37-0.3
				c0.304-0.152,0.653-0.152,0.821-0.414c0.131-0.234,0.211-0.524,0.229-0.79c0.017-0.147,0.163-0.147,0.245-0.164
				c0.356-0.125,0.757-0.039,1.067-0.191c0.355-0.136,0.627-0.44,0.975-0.68c0.172-0.092,0.332-0.197,0.53-0.24
				c0.097-0.028,0.153-0.196,0.173-0.267c0.072-0.594-0.092-1.145,0-1.771c0.045-0.164,0.295-0.267,0.172-0.448
				c-0.039-0.064-0.286,0.044-0.345-0.038c-0.136-0.113-0.257-0.348-0.056-0.474c0.152-0.136,0.484-0.016,0.6-0.228
				c0.201-0.284,0.1-0.817-0.222-0.921c-0.322-0.163-0.681,0.136-1.052,0.06c0.043,0.142-0.152,0.19-0.207,0.19
				c-0.458,0.153-0.496-0.414-0.416-0.724c0-0.065,0.046-0.104,0.093-0.082c0.11,0.017,0.132-0.136,0.152-0.268
				c-0.103,0-0.233-0.009-0.325,0c-0.404,0.202-0.584,0.633-0.986,0.839c-0.049,0.044-0.049,0.12-0.019,0.186
				c0.019,0.049,0.077,0.126,0.138,0.099c0,0.256,0.084,0.681-0.354,0.577c-0.038-0.017-0.038-0.109-0.07-0.12
				c-0.11-0.082-0.358-0.141-0.421,0c-0.068,0.289,0.521,0.42,0.379,0.709c-0.229,0.403-0.787,0.479-1.244,0.697
				c-0.958,0.375-1.951-0.055-2.968,0.163c-0.534,0.104-1.081,0.033-1.642-0.119c-0.398-0.077-0.475,0.272-0.682,0.539
				c-0.016-0.05-0.043-0.103-0.114-0.082c-0.026-0.207,0.099-0.365,0.05-0.577c-0.023-0.164-0.283-0.142-0.344-0.279
				c-0.666-1.252-2.278-1.095-3.503-0.887c-0.229,0.021-0.316,0.256-0.464,0.398c-0.25,0.223-0.594-0.033-0.865,0.147
				c-0.121,0.076-0.168,0.25-0.271,0.272c-0.371,0.104-0.764-0.272-1.082-0.077c-0.211,0.181-0.473,0.208-0.695,0.312
				c-0.076,0.06-0.076,0.229-0.103,0.376c0,0.109-0.188,0.081-0.246,0.081c-0.343,0.109-0.851-0.07-0.915,0.42
				c0.01,0,0.098,0,0.125,0c0.135,0.392-0.061,0.833-0.432,0.986c-0.425,0.147-0.894,0.115-1.311,0.283
				c-0.203,0.07-0.475,0.268-0.551,0.453c-0.666,1.177-1.299,2.386-1.341,3.738c0,0.05,0,0.088,0,0.147
				c0,0.088,0.141,0.168,0.141,0.201c-0.649,1.396-1.085,2.104-1.842,3.438c-0.31,0.541-0.681,1.859-0.126,2.307
				c0.279,0.228-0.152,0.778-0.555,0.805c-0.512,0.023-1.199-0.103-1.384-0.664c-0.092-0.24-0.519-0.284-0.845-0.327
				c0,0,0.022,0,0.043,0l-0.244-0.028c-0.383,0-0.791-0.081-1.112,0.028c-0.582,0.152-0.627,0.833-0.888,1.296
				c-0.18,0.415-0.849,0.311-1.047,0.703c-0.097,0.168,0.095,0.453-0.054,0.697c-0.104,0.163-0.327,0.163-0.386,0.349
				c-0.039,0.104-0.065,0.251-0.131,0.349c-0.148,0.539-0.252,1.03-0.126,1.563c0.012,0.153,0.012,0.312,0.054,0.415
				c0.138,0.562-0.042,1.046-0.287,1.504c-0.366,0.528-1.009,0.528-1.597,0.713c-0.245,0.109-0.547-0.147-0.846-0.081
				c-0.671,0.125-1.325-0.158-1.96,0.059c-0.039,0.021-0.164,0.104-0.218,0.153c-0.328,0.129-0.443-0.235-0.627-0.394
				c-0.198-0.195-0.219-0.539-0.421-0.642c-0.386-0.186-0.916,0.026-1.188,0.415c0.18-0.023-0.005,0.207,0.137,0.207
				c-0.425,0.021-0.748,0.392-1.074,0.544c-0.431,0.235-0.527-0.523-0.565-0.975c-0.045-0.229-0.409-0.376-0.737-0.208
				c-0.053,0.066-0.125,0.12-0.125,0.24c-0.099,0-0.18-0.12-0.272-0.033c-0.289,0.321,0.223,0.283,0.376,0.475
				c0.099,0.091-0.027,0.207-0.135,0.283c-0.149,0.12-0.372-0.125-0.394,0c-0.072,0.217-0.202,0.333-0.375,0.267
				c0,0.065-0.029,0.082,0,0.125c0,0.061,0.047,0.105,0.107,0.061c-0.164,0.065-0.326,0.168-0.446,0.076
				c-0.153-0.076-0.104-0.327-0.153-0.529c-0.031-0.044-0.2,0-0.2,0.065c-0.056,0.327,0.032,0.432-0.323,0.453
				c0.039,0.12-0.092,0.327,0.083,0.36c0.184,0.092,0.409-0.116,0.573,0c0.261,0.265,0.227,0.681,0.303,1.056
				c0,0.022-0.076,0.049-0.114,0.049c0.072,0.195,0.114,0.692-0.168,0.478c-0.345-0.2,0.053-0.696-0.146-1.006
				c-0.038-0.061-0.245-0.022-0.409-0.022c0.202,0.501-0.235,1.028,0.202,1.51c0.169,0.217-0.519,0.512-0.267,0.772
				c0.146,0.148,0.402,0.294,0.621,0.339c0.121,0.011,0-0.252,0.038-0.339c0.038-0.115,0.397-0.238,0.474-0.077
				c0.038,0.11,0.092,0.245,0.092,0.416c-0.168-0.045-0.342,0.038-0.483,0.103c0.141,0.321-0.067,0.543-0.121,0.855
				c0,0.065,0.103,0.189,0.121,0.272c0.085,0.245,0.49,0.022,0.615,0.223c0.092,0.164-0.186,0.35-0.094,0.573
				c0.072,0.146,0.312,0.061,0.416,0.185c0.153,0.094,0.097,0.289,0.081,0.476c0.152-0.019,0.393,0.146,0.327,0.348
				c0.181,0.07,0.219-0.137,0.202-0.263c0.402,0.018,0.238-0.371,0.283-0.685c-0.137,0.07-0.125-0.218-0.283-0.103
				c-0.076-0.218,0.017-0.458-0.076-0.654c-0.109-0.224-0.438-0.274-0.484-0.573c0.278,0.061,0.484-0.038,0.657-0.333
				c0.099-0.148,0.344,0.065,0.442,0.268c0.05,0.05,0.017,0.108,0.017,0.191c0.251-0.083,0.251,0.173,0.343,0.288
				c0.207,0.141,0.272,0.393,0.506,0.489c0.355,0.105,0.703,0.105,1.063,0.038c-0.031-0.161,0-0.331,0.095-0.386
				c0.157-0.141,0.238,0.164,0.436,0.18c-0.088,0.351,0.092,0.638,0.375,0.813c0.072,0.016,0.19-0.026,0.256,0.016
				c0.115,0.081,0.164,0.267,0.328,0.321c0.115,0.027,0.233-0.054,0.333-0.038c0.179,0.038,0.179,0.187,0.211,0.375
				c0.022,0.018,0.114,0.077,0.114,0.144c0.333-0.067,0.703,0.02,0.795,0.31c0.169,0.425,0.47,0.757,0.661,1.139
				c0.076,0.196,0.412,0.261,0.458,0.436c0.02,0.146,0.118,0.24,0.173,0.271c0.218,0.251,0.546,0.328,0.867,0.409
				c0.114,0.042,0.299-0.179,0.501-0.271c0.104-0.034,0.222,0.069,0.24,0.092c0.306,0.497,0.382,1.17,0.872,1.455
				c0.248,0.146,0.32,0.445,0.581,0.517c0.159,0.038,0.351-0.126,0.508,0c0.103,0.076,0.137,0.29,0.218,0.306
				c0.359,0.168,0.643,0.386,0.719,0.779c0.012,0.059,0.05,0.184,0.148,0.207c0.325,0.038,0.598-0.191,0.773-0.023
				c0.24,0.225,0.55,0.328,0.763,0.551c0.065,0.087,0.245,0.152,0.304,0.087c0.088-0.11,0.045-0.31,0.114-0.413
				c0.095-0.18,0.333-0.122,0.508-0.18c0.218-0.088,0.24-0.497,0.474-0.513c0.404-0.067,0.563,0.425,0.883,0.616
				c0.022,0.038,0.146,0.076,0.191,0.119c0.355,0.191,0.195,0.829,0.615,0.872c0.497,0,0.756,0.442,1.2,0.523
				c0.333,0.104,0.597,0.184,0.897,0.371c0.098,0.065,0.268,0.065,0.383,0.023c0.188-0.072,0.359-0.16,0.512-0.268
				c0.424-0.267,0.975-0.29,1.404-0.573c0.094-0.065,0.186-0.185,0.305-0.229c0.715-0.31,1.51,0.271,2.252-0.12
				c0.178-0.083,0.43-0.083,0.648-0.229c0.447-0.31,0.577-0.943,0.436-1.433c-0.313-0.78-0.584-1.591-1.127-2.267
				c-0.264-0.333-0.617-0.516-0.929-0.855c-0.059-0.092-0.31-0.065-0.458-0.13c-0.292-0.13-0.245-0.474-0.188-0.764
				c0-0.104-0.318-0.104-0.371-0.207c-0.104-0.185,0-0.402,0.026-0.589c0.017-0.087-0.11-0.164-0.13-0.164
				c-0.421-0.081-0.802-0.272-1.227-0.207c-0.138,0.018-0.264-0.13-0.387-0.207c-0.076-0.065,0.021-0.207,0.08-0.229
				c0.245-0.207,0.535-0.352,0.842-0.467c-0.11-0.148-0.122-0.377-0.029-0.431c0.164-0.164,0.121-0.458,0.066-0.62
				c0-0.061-0.066-0.198-0.229-0.198c0.032-0.398,0.261-0.703,0.032-1.051c-0.249-0.333-0.594-0.523-0.682-0.948
				c0-0.043-0.206-0.146-0.206-0.214c0-0.478,0.146-1.006,0.05-1.491c-0.072-0.208-0.307-0.453-0.126-0.579
				c0.076-0.059,0.257-0.189,0.413-0.228c0.34-0.126,0.454-0.355,0.283-0.583c-0.169-0.235-0.512,0-0.761-0.082
				c-0.116-0.032-0.13-0.114-0.142-0.224c-0.061-0.197,0.142-0.507-0.046-0.616c-0.152-0.055-0.294-0.208-0.363-0.311
				c-0.159-0.246-0.026-0.524,0.157-0.769c-0.107,0.011-0.061-0.191-0.184-0.125c-0.039-0.256,0.152-0.546,0.043-0.768
				c-0.082-0.229-0.273-0.513-0.556-0.388c-0.028,0,0,0.082-0.028,0.082c-0.152,0.147-0.33,0.186-0.494,0.043
				c-0.034-0.043-0.034-0.186,0-0.294c0.113-0.142,0.342-0.082,0.467-0.185c0.229-0.235,0.027-0.551-0.082-0.677
				c-0.348-0.304-0.496-0.577-0.419-1.007c-0.398-0.055-1.009-0.103-0.979-0.665c0.026-0.491-0.088-0.942-0.209-1.444
				c-0.097-0.348-0.077-0.713,0.147-0.964c0.062-0.076,0.131-0.217,0.241-0.229c0.512-0.071,1.143,0.038,1.433-0.447
				c0.185-0.348-0.214-0.889,0.097-1.116c0.523-0.394,1.307-0.131,1.945-0.497c0.197-0.147,0.168-0.419,0.109-0.637
				c-0.083-0.246-0.24-0.502-0.377-0.73c-0.217-0.322-0.73-0.164-0.877-0.508c-0.071-0.185-0.071-0.375,0-0.539
				c0.116-0.25,0.333-0.479,0.594-0.604c0.577-0.224,1.123-0.055,1.613,0.228c0.159,0.088,0.311,0.262,0.42,0.438
				c0.031,0.059,0.055,0.147,0.088,0.217c0.152,0.654,0.375,1.352,0.152,1.945c-0.103,0.202-0.35,0.327-0.283,0.638
				c0.162-0.136,0.223,0.082,0.223,0.13c0.119,0.447,0.381,1.063,0,1.341c-0.479,0.294-0.44-0.097-0.938,0
				c-0.244,0.027-0.43-0.043-0.404,0.18c0.018,0.13,0.207,0.424,0.328,0.463c1.154,0.294,1.756,0.388,2.97,0.583
				c0.257,0.061,0.452,0.365,0.757,0.409c0.223,0.032,0.475,0.152,0.726-0.147c0.075-0.104,0.311,0,0.337,0.065
				c0.062,0.234,0.202,0.234,0.355,0.316c0.371,0.18,0.25,1.122,0.738,0.817c0.264-0.174,0.492,0.017,0.787-0.042
				c-0.295,0.403-0.143,0.8,0.143,1.089c0.229,0.284,0.561,0.415,0.838,0.675c0.217,0.251,0.566,0.186,0.599-0.163
				c0.054-0.371-0.345-0.801,0.13-1.122c0.459,0.648-0.13,1.455,0.351,2.048c0.032,0.06,0.059,0.087,0.085,0.142
				c0.219,0.272,0.4,0.556,0.688,0.522c0.212-0.071,0.299-0.272,0.404-0.496c0.005-0.081,0.038-0.168,0.059-0.185
				c0.034-0.212,0.12-0.354,0.179-0.533c0.104-0.289,0.463-0.518,0.404-0.851c0-0.103-0.026-0.24-0.026-0.327
				c0.026-0.453,0.522-0.741,0.952-0.665c0.126,0.027,0.033-0.076,0.148-0.164c0.184-0.141,0.142-0.566,0.311-0.778
				c0.141-0.185,0.305-0.365,0.4-0.551c0.072-0.12,0.21-0.255,0.154-0.419C66.432,54.102,66.432,53.878,66.596,53.856z"/>
			<path fill="#F3FCFF" d="M52.954,53.072c-0.181-0.125-0.328-0.033-0.446,0.093c-0.122,0.125-0.143,0.283-0.063,0.381
				c0.088,0.152,0.181,0.333,0.197,0.485c0,0.327-0.082,0.644-0.028,0.992c0.076,0.262,0.382,0.725,0.551,0.42
				c0.19-0.338,0.485-0.844,0.257-1.254C53.236,53.808,53.355,53.307,52.954,53.072z"/>
			<path fill="#F3FCFF" d="M52.315,55.921c0.05,0.12,0.104,0.202,0.153,0.328c0.092,0.266,0.527,0.141,0.685-0.044
				c0.023-0.104,0-0.284-0.118-0.382c-0.119-0.136-0.316-0.114-0.421-0.186c-0.081-0.021-0.169-0.114-0.229-0.086
				C52.289,55.638,52.289,55.797,52.315,55.921z"/>
			<path fill="#F3FCFF" d="M53.084,57.197c0-0.497-0.441-0.649-0.769-0.35c-0.419,0.35,0.07,0.981,0.387,1.434
				c0.05,0.108,0.108,0.255,0.176,0.375c0.152,0.164,0.446,0.104,0.544-0.082c0.076-0.168,0.136-0.229,0.229-0.397
				C53.775,57.829,53.574,57.197,53.084,57.197z"/>
			<path fill="#F3FCFF" d="M52.109,54.599c0-0.077-0.127-0.077-0.152-0.067c-0.198,0.067-0.252,0.224-0.283,0.404
				c-0.057,0.261,0.031,0.507,0.211,0.702c0.084,0.109,0.225-0.021,0.283-0.195C52.289,55.176,52.129,54.887,52.109,54.599z"/>
			<path fill="#F3FCFF" d="M53.465,56.576c0.07-0.061,0.219-0.186,0.186-0.35c0.125,0.023,0.26,0,0.348-0.147
				c0.084-0.065-0.088-0.158-0.042-0.256c-0.272-0.076-0.458,0.191-0.669,0.382C53.095,56.391,53.355,56.657,53.465,56.576z"/>
			<path fill="#F3FCFF" d="M53.127,59.479c-0.043,0.25,0,0.415,0.168,0.468c0.084,0.023,0.24,0.061,0.24-0.053
				c0.022-0.153,0.119-0.3,0.022-0.436c-0.022-0.022-0.093,0-0.11,0C53.295,59.376,53.236,59.594,53.127,59.479z"/>
			<path fill="#F3FCFF" d="M53.979,61.883c0.076-0.191,0.244-0.388-0.068-0.579c-0.059-0.021-0.211-0.021-0.303-0.021
				C53.607,61.572,53.775,61.801,53.979,61.883z"/>
			<path fill="#F3FCFF" d="M33.295,69.984c-0.062,0.034-0.081,0.344,0,0.425c0.092,0.103,0.343,0.065,0.489,0.065
				C33.676,70.225,33.692,69.777,33.295,69.984z"/>
			<path fill="#F3FCFF" d="M35.431,72.143c-0.187,0.333,0.218,0.691,0.703,0.734c0-0.164,0.058-0.364-0.026-0.49
				C35.937,72.158,35.518,71.956,35.431,72.143z"/>
			<path fill="#F3FCFF" d="M36.383,73.434c-0.054,0.593,0.18,0.991,0.779,1.072C37.234,73.879,36.994,73.516,36.383,73.434z"/>
			<path fill="#F3FCFF" d="M69.179,56.766c0.539-0.174,1.208-0.321,1.841-0.321c1.428-0.032,1.347-1.846,2.076-2.997
				c0.158-0.283-0.086-0.916-0.289-1.215c-0.482-0.779-1.999,0.109-2.344-0.713c-0.199-0.464,1.02,0.294,1.136-0.432
				c0.022-0.189-0.093-0.43-0.24-0.5c-0.196-0.115-0.579-0.136-0.731,0c-0.768,0.643-0.909,1.754-1.302,2.484
				c-0.815,1.411-2.282,2.43-3.062,4.005c-0.126,0.234,0.056,0.425,0.25,0.512C67.582,57.949,68.312,56.951,69.179,56.766z"/>
			<path fill="#F3FCFF" d="M75.026,53.263c-0.202,0.071-0.428,0.126-0.53,0.267c-0.086,0.207-0.12,0.545,0,0.736
				c0.064,0.091,0.389,0.108,0.473,0c0.154-0.164-0.054-0.366-0.227-0.464C74.915,53.65,75.091,53.53,75.026,53.263z"/>
			<path fill="#F3FCFF" d="M70.711,58.178c0.451,0.539,1.613,0.359,1.486-0.159c-0.137-0.451-0.904-0.708-1.428-0.556
				C70.438,57.568,71.358,57.949,70.711,58.178z"/>
			<path fill="#F3FCFF" d="M72.225,62.417c0.463-0.202,0.223-0.654,0.288-1.051c-0.483,0.207-0.739,0.55-0.815,1.051
				C71.881,62.417,72.061,62.481,72.225,62.417z"/>
			<path fill="#F3FCFF" d="M78.148,53.802c0.047-0.032,0.092-0.354,0-0.468c-0.1-0.071-0.313,0-0.485-0.044
				c-0.214-0.086-0.286-0.271-0.328-0.501c0-0.289-0.272-0.495-0.194-0.817c-0.361,0.164-0.34,0.561-0.227,0.735
				C77.232,53.192,77.449,53.955,78.148,53.802z"/>
			<path fill="#F3FCFF" d="M70.322,49.759c-0.218-0.114-0.381,0.027-0.218,0.224c0.083,0.104,0.333,0.039,0.48,0.043
				C70.509,49.939,70.463,49.808,70.322,49.759z"/>
			<path fill="#F3FCFF" d="M32.002,62.215c0.077-0.125-0.087-0.217-0.186-0.332c-0.142-0.121-0.31,0.032-0.418-0.121
				c0,0.121-0.034,0.278,0.05,0.372C31.545,62.292,31.816,62.417,32.002,62.215z"/>
			<path fill="#F3FCFF" d="M34.242,62.225c0.225-0.114,0.535-0.201,0.383-0.544c0-0.022-0.055,0-0.104,0
				c-0.358-0.212-0.828-0.13-0.748,0.299C33.784,62.172,34.021,62.373,34.242,62.225z"/>
			<path fill="#F3FCFF" d="M71.25,39.402c0.088-0.218,0.447-0.262,0.396-0.497c-0.025-0.104-0.256-0.104-0.354-0.104
				c-0.164,0.011-0.131,0.24-0.131,0.442c-0.064-0.017-0.119,0-0.119,0.055C71.043,39.402,71.217,39.44,71.25,39.402z"/>
			<path fill="#F3FCFF" d="M72.393,38.96c0.055-0.055,0.256-0.212,0.092-0.349c-0.135-0.125-0.358-0.125-0.424-0.065
				C71.903,38.72,72.152,39.123,72.393,38.96z"/>
			<path fill="#F3FCFF" d="M68.896,47.591c-0.143,0.371,0.534,0.833,0.871,0.616c0.267-0.163,0.145-0.637-0.114-0.774
				C69.407,47.302,68.984,47.361,68.896,47.591z"/>
			<path fill="#F3FCFF" d="M69.68,50.087c0.148-0.136,0-0.328-0.119-0.404c-0.13-0.114-0.382-0.055-0.576,0
				c-0.051,0.027-0.111-0.038-0.181-0.055c-0.05,0.158,0.103,0.234,0.181,0.234C69.255,49.863,69.484,50.239,69.68,50.087z"/>
			<path fill="#F3FCFF" d="M68.656,50.784c-0.186,0.114-0.146,0.468,0.043,0.61c0.207,0.104,0.479,0.06,0.588-0.195
				c0.076-0.214,0.213-0.518,0-0.671C69.031,50.348,68.906,50.637,68.656,50.784z"/>
			<path fill="#F3FCFF" d="M67.996,49.863c0.021,0.344-0.162,0.671-0.082,0.992c0.055,0.191,0.316,0.13,0.355,0
				c0.104-0.3,0-0.567,0.24-0.768c-0.084-0.027-0.187-0.147-0.187,0.076c0.022-0.076,0.093-0.142,0.05-0.212
				C68.27,49.836,68.143,49.863,67.996,49.863z"/>
			<path fill="#F3FCFF" d="M72.366,68.008c0.017,0.004,0.026,0,0.042,0.004c0.012,0,0.028,0,0.039-0.004
				C72.408,68.008,72.393,68.008,72.366,68.008z"/>
			<path fill="#F3FCFF" d="M92.975,72.796c0.025-0.016,0.004-0.061,0-0.083c-0.008,0.061-0.076,0.104-0.133,0.083
				C92.896,72.796,92.967,72.817,92.975,72.796z"/>
			<path fill="#F3FCFF" d="M74.06,60.357c-0.123,0.043-0.103-0.115-0.123-0.142c-0.114-0.12-0.235-0.12-0.278-0.289
				c-0.121-0.239-0.322,0.168-0.563,0.147c-0.026,0-0.086,0.082-0.053,0.168c0.211,0.278-0.033,0.394-0.207,0.594
				c-0.111,0.224,0.217,0.24,0.287,0.469c0.11,0.261-0.176,0.485-0.113,0.768c-0.07,0.072-0.174,0.202-0.322,0.432
				c-0.039,0.032-0.164,0.261-0.104,0.365c0.213,0.25,0.594-0.25,0.822-0.289c0.207,0,0.24,0,0.416-0.126
				c0.237-0.142,0.467-0.229,0.554-0.495c0.034-0.099-0.381-0.143-0.507-0.158c0.19-0.475-0.076-0.616,0.012-1.134
				C73.881,60.65,74.125,60.357,74.06,60.357z"/>
			<path fill="#F3FCFF" d="M76.021,66.552c0,0.022,0.125,0.034,0.158,0c0.202-0.152,0.223-0.42,0.118-0.582
				c-0.075-0.137-0.37-0.137-0.396,0.069C75.848,66.219,75.93,66.399,76.021,66.552z"/>
			<path fill="#F3FCFF" d="M76.311,65.604c0.195-0.042,0.072-0.245-0.022-0.371c-0.063-0.065-0.222-0.099-0.244-0.042
				C75.902,65.419,76.043,65.707,76.311,65.604z"/>
			<path fill="#F3FCFF" d="M78.24,66.585c-0.045-0.011-0.092-0.076-0.061-0.104c-0.168,0-0.345-0.11-0.547-0.056
				c-0.054,0-0.199-0.038-0.299-0.038c-0.025,0.164-0.081,0.389,0.114,0.447C77.732,66.857,78.021,66.857,78.24,66.585z"/>
			<path fill="#F3FCFF" d="M81.589,66.28c0.067,0,0.019-0.31-0.042-0.328c-0.287-0.058-0.535,0.246-0.838,0.142
				c0,0.126-0.029,0.207-0.094,0.279c-0.028,0.027-0.123,0.016-0.197,0.016C80.736,66.776,81.242,66.399,81.589,66.28z"/>
			<path fill="#F3FCFF" d="M82.85,65.134c0.127,0.508,0.691,0.268,0.752-0.085c0-0.247-0.343-0.247-0.453-0.06
				c0.027-0.043,0.05-0.111,0.088-0.168C83.09,64.945,82.805,64.945,82.85,65.134z"/>
			<path fill="#F3FCFF" d="M98.359,54.783c-0.111,0.272,0.379,0.327,0.619,0.414c0.293,0.087,0.776,0.044,0.858-0.228
				c0.136-0.486-0.403-0.982-0.92-0.921C98.475,54.086,98.508,54.461,98.359,54.783z"/>
			<path fill="#F3FCFF" d="M98.447,71.356c-0.164-0.054-0.473-0.054-0.473,0c-0.373,1.604-1.853,3.821-0.082,4.895
				c0.778,0.49,1.742-0.48,1.862-0.986C100.049,74.055,99.914,72.078,98.447,71.356z"/>
			<path fill="#F3FCFF" d="M93.545,64.263c-0.246,0.137-0.295,0.726,0.092,0.726c0.158,0,0.332-0.126,0.465-0.229
				c0.142-0.164,0.123-0.387-0.045-0.436C93.883,64.263,93.686,64.17,93.545,64.263z"/>
			<path fill="#F3FCFF" d="M94.717,80.75c-0.152,0.267-0.113,0.6,0.146,0.779c-0.004-0.24,0.441-0.535,0.113-0.779
				C94.859,80.625,94.771,80.701,94.717,80.75z"/>
			<path fill="#F3FCFF" d="M102.154,42.731c-0.225-0.033-0.301,0.038-0.377,0.163c-0.055,0.212,0.025,0.464-0.055,0.692
				c-0.522,1.455-2.201,2.774-1.41,4.408c0,0.027,0.119,0.027,0.141,0c0.467-0.315,0.747-0.747,0.998-1.204
				c0.479-1.003,0.902-2.033,1.236-3.176C102.742,43.264,102.617,42.775,102.154,42.731z"/>
			<path fill="#F3FCFF" d="M99.434,48.517c-0.125,0.229,0.16,0.41,0.351,0.311c0.188-0.082,0.312-0.403,0.143-0.452
				C99.783,48.306,99.521,48.306,99.434,48.517z"/>
			<path fill="#F3FCFF" d="M82.889,38.514c-0.188-0.594-0.66-0.027-1.043-0.098c-0.162-0.017-0.238-0.223-0.33-0.223
				c-0.144,0.027-0.272,0.048-0.371,0.147c-0.256,0.147-0.061,0.539,0.199,0.49c0.203,0,0.34-0.284,0.428-0.109
				c0.195,0.322,0.064,0.872,0.56,0.758c0.321-0.076,0.521-0.306,0.866-0.338c0.345-0.017,0.384-0.392,0.345-0.653
				c0.358-0.044,0.784-0.338,1.015-0.044c0.109,0.103,0.141,0.327,0.229,0.463c0.109,0.246,0.355,0.305,0.611,0.316
				c0.313-0.076,0.636-0.049,0.875-0.316c0.252-0.31,0.229-0.687-0.092-0.899c-0.131-0.087-0.359,0.027-0.488-0.087
				c-0.27-0.147-0.465-0.376-0.732-0.48C84.016,37.189,83.453,38.007,82.889,38.514z"/>
			<path fill="#F3FCFF" d="M85.697,39.227c-0.096,0-0.199,0-0.303-0.005c-0.013,0-0.021,0-0.033,0.005H85.697z"/>
			<path fill="#F3FCFF" d="M79.629,38.96c0.328-0.061,0.621-0.055,0.958-0.017c0-0.038,0-0.044,0-0.065
				c-0.026-0.539-0.562-0.479-0.86-0.267c-0.024,0,0,0.082,0,0.082c-0.113,0.055-0.256-0.021-0.319,0.027
				C79.279,38.878,79.475,39.026,79.629,38.96z"/>
			<path fill="#F3FCFF" d="M80.813,41.124c0.35-0.453,0.845-0.747,1.377-0.998c0.039,0,0-0.115,0-0.18
				c-0.021,0.044-0.037,0.082-0.065,0.147c-0.106-0.246-0.287-0.42-0.517-0.535c-0.019,0.218-0.264,0.365-0.364,0.453
				c-0.272,0.202-0.609,0.425-0.731,0.709c-0.093,0.233-0.141,0.604,0.051,0.751C80.68,41.548,80.74,41.243,80.813,41.124z"/>
			<path fill="#F3FCFF" d="M75.848,37.92c-0.037,0.152-0.076,0.343,0.127,0.375c0.248,0.071,0.248-0.321,0.123-0.403
				C76.021,37.838,75.879,37.805,75.848,37.92z"/>
			<path fill="#F3FCFF" d="M64.252,30.553c0.383,0.19,0.846,0.19,1.25,0.207c0.068,0,0.299-0.24,0.179-0.409
				c-0.224-0.174-0.573-0.027-0.774-0.294l-0.191-0.038c-0.332-0.103-0.417,0.202-0.604,0.376
				C64.023,30.52,64.24,30.553,64.252,30.553z"/>
			<path fill="#F3FCFF" d="M93.85,35.969c-0.143,0.196-0.42,0.109-0.682,0.196c-0.13,0.033-0.119,0.3-0.053,0.382
				c0.25,0.359,0.55,0.151,0.898,0.076c-0.099,0.13,0.088,0.109,0.135,0.151c0.16,0.109,0.229-0.271,0.383-0.151
				c0.043,0.042,0.043,0.261,0,0.283c-0.23,0.12-0.23,0.349-0.43,0.441c-0.134,0.092-0.396,0.092-0.514-0.158
				c-0.018-0.033-0.126,0-0.189,0c0.031,0,0.05,0,0.063,0c-0.099,0.168,0,0.463-0.099,0.545c-0.397,0.354-1.284,0.632-0.895,1.166
				c0.293,0.399,0.959,0.284,1.498,0.24c0.061,0,0.133-0.098,0.115-0.152c-0.055-0.501,0.217-0.589,0.549-0.839
				c0.139-0.114-0.102-0.272-0.26-0.414c-0.148-0.071,0.004-0.376,0.158-0.376c0.205-0.01,0.205-0.271,0.393-0.212
				c0-0.136,0-0.212,0-0.333c0.316,0.038,0.581-0.179,0.518-0.451c-0.104-0.359-0.43-0.671-0.312-1.057
				c0.022-0.143,0.138-0.294,0.349-0.35c0.104-0.027,0.16-0.158,0.076-0.229c-0.05-0.042-0.113-0.021-0.173-0.021
				c0,0.126-0.198,0.076-0.142,0.18c-0.344,0.071-0.676,0-0.979,0.185C93.916,35.238,94.057,35.691,93.85,35.969z"/>
			<path fill="#F3FCFF" d="M90.4,39.244c0.021,0.386,0.447,0.196,0.666,0.064c-0.144,0.056-0.033-0.125-0.144-0.136
				C90.734,39.14,90.582,39.244,90.4,39.244z"/>
			<path fill="#F3FCFF" d="M95.24,38.487c-0.229,0.315,0.398,0.315,0.646,0.185c0.012,0,0.008-0.038,0-0.061
				c0.021-0.065,0-0.098-0.05-0.125C95.6,38.339,95.307,38.367,95.24,38.487z"/>
			<path fill="#F3FCFF" d="M96.242,36.851c-0.076-0.038-0.207-0.01-0.311-0.01c0.142,0.065,0.142,0.36,0.363,0.316
				c-0.012-0.038-0.038-0.07-0.038-0.147C96.242,36.966,96.284,36.884,96.242,36.851z"/>
			<path fill="#F3FCFF" d="M89.037,23.759c0.303,0.173,0.502,0.424,0.597,0.686c0.142,0.35-0.114,0.801,0.118,1.15
				c0.043,0.147,0.191,0.25,0.252,0.327c0.146,0.168-0.007,0.48,0.043,0.692c0.131,0.463,0.164,0.888,0.223,1.329
				c0.18-0.038,0.18,0.278,0.408,0.202c0,0.272,0.133,0.479,0.17,0.747c0.076,0.299,0.43,0.146,0.627,0.359
				c0.312,0.436,0.605,0.872,1.068,1.177c0.141,0.092,0.354,0.092,0.432,0.224c0.037,0.06,0,0.163,0.074,0.163
				c0.616,0.104,1.482,0.426,1.176,1.177c0.23-0.168,0.514-0.294,0.59-0.556c0.125-0.463,0.224-0.964,0.021-1.417
				c-0.119-0.234-0.463-0.354-0.535-0.615c-0.059-0.191,0-0.365,0.008-0.512c0.017-0.268-0.358-0.174-0.426-0.3
				c-0.146-0.321-0.266-0.866,0.359-0.817c0.021,0-0.094-0.115-0.061-0.228c-0.214,0-0.408,0.037-0.611,0
				c-0.141-0.017-0.141-0.224-0.141-0.29c-0.064-0.343,0.114-0.772-0.191-1.013c-0.266-0.164-0.609-0.212-0.875-0.398
				c-0.225-0.185-0.414-0.327-0.67-0.474c-0.16-0.104-0.438,0.147-0.557,0c-0.519-0.577-0.884-1.254-1.363-1.907
				c-0.187-0.207-0.557-0.202-0.89-0.153c-0.092,0.023-0.042,0.126-0.063,0.18c0.045,0,0.099,0,0.131,0.022
				C89.061,23.568,88.988,23.704,89.037,23.759z"/>
			<path fill="#F3FCFF" d="M86.02,24.833c-0.218,0.31-0.131,0.712,0.088,0.8c0.315,0.13,0.773,0.109,1.172,0.071
				c0.212-0.038,0.349-0.262,0.469-0.474c0.212-0.327,0.768-0.138,1.184-0.284c-0.064,0.257,0.118,0.229,0.262,0.338
				c-0.017-0.283-0.017-0.669-0.202-0.801c-0.375-0.223-0.398-0.551-0.593-0.898c-0.043-0.12-0.258,0.059-0.258,0.119
				c0.043,0.584-0.445,0.479-0.845,0.632c-0.017,0.038,0.022,0.147-0.017,0.191c0,0.021-0.061,0.021-0.125,0
				c-0.071-0.082-0.127-0.115-0.114-0.245c-0.201,0-0.485,0-0.565,0.13C86.357,24.615,86.152,24.653,86.02,24.833z"/>
			<path fill="#F3FCFF" d="M78.366,12.132c-0.354-0.67-0.905-1.281-0.759-2.136c1.016,0.359,1.925,0.186,2.932-0.136
				c0.751-0.208,1.611,0.152,2.342-0.316c0.096-0.082,0.008-0.333,0.008-0.518c-0.842,0.387-1.545-0.719-2.302-0.234
				c-0.985,0.621-2.048,0.773-3.007,1.024c-0.779,0.18-2.801,0.044-2.894,1.199c1.082,0.011,2.278,0.091,2.947,1.062
				C77.732,12.197,78.113,12.132,78.366,12.132z"/>
			<path fill="#F3FCFF" d="M81.693,16.959c0.295,0.518,0.824,0.631,1.309,0.806c0.088-0.261-0.055-0.387-0.213-0.529
				C82.445,16.959,82.093,16.927,81.693,16.959z"/>
			<path fill="#F3FCFF" d="M80.943,18.566c-0.182,0.082,0.021,0.349,0.201,0.496C81.111,18.833,81.41,18.364,80.943,18.566z"/>
			<path fill="#F3FCFF" d="M80.152,17.602c0.049,0.017,0.146,0.017,0.193,0c0.023-0.011,0-0.07,0-0.125
				c0-0.349-0.352-0.447-0.646-0.479c0,0.071-0.028,0.239,0.024,0.256C79.902,17.34,79.949,17.477,80.152,17.602z"/>
			<path fill="#F3FCFF" d="M83.066,21.296c0.022,0.049,0.131,0.104,0.186,0.044c0.071-0.071,0.121-0.168,0.071-0.305
				c0,0,0,0.022,0,0.055c-0.064-0.115,0.081-0.283-0.071-0.387c-0.055-0.022-0.141-0.043-0.162,0
				C82.881,20.893,83.066,21.089,83.066,21.296z"/>
			<path fill="#F3FCFF" d="M84.119,21.345c-0.034,0.158,0,0.271,0.092,0.359c0.084,0.027,0.143,0,0.168-0.054
				c-0.084-0.06-0.084-0.108-0.084-0.207C84.325,21.214,84.15,21.443,84.119,21.345z"/>
			<path fill="#F3FCFF" d="M83.705,22.129c0.047,0.158,0.195-0.054,0.238-0.245c0-0.005,0.019-0.032,0.022-0.049
				c0.025,0.023,0.054,0.044,0.076,0.066c-0.013-0.032-0.043-0.066-0.065-0.099l0,0c-0.148-0.186-0.42-0.333-0.572-0.152
				C83.234,21.852,83.602,21.852,83.705,22.129z"/>
			<path fill="#F3FCFF" d="M84.085,22.244c0.104,0.067-0.142,0.023-0.069,0.126c0.195,0.268,0.539,0.403,0.779,0.327
				c0.119-0.082,0.268-0.327,0.141-0.409c-0.197-0.125-0.473-0.044-0.725-0.044C84.189,22.244,84.135,22.244,84.085,22.244z"/>
			<path fill="#F3FCFF" d="M85.613,22.92c0.135-0.076,0.008-0.18,0-0.262c-0.068-0.179-0.172-0.348-0.295-0.235
				c-0.121,0.066-0.209,0.349-0.033,0.453C85.35,22.926,85.491,22.991,85.613,22.92z"/>
			<path fill="#F3FCFF" d="M86.086,23.841c0.066,0.07,0.256-0.071,0.337-0.137c0.05,0,0.022-0.119,0.022-0.19
				c0.076,0.027,0.106,0,0.106-0.07c0.066-0.109,0.034-0.252-0.106-0.3c-0.088-0.032-0.205,0.12-0.315,0.027
				c-0.022,0,0.022-0.06,0-0.104c-0.101-0.076-0.241-0.141-0.312-0.065c-0.129,0.109-0.129,0.31-0.07,0.436
				C85.818,23.568,85.954,23.704,86.086,23.841z"/>
			<path fill="#F3FCFF" d="M85.225,24.549c0.062,0,0.125-0.065,0.137-0.125c0.037-0.136,0.037-0.241,0-0.398
				c-0.012-0.094-0.098-0.094-0.163-0.05c-0.099,0.05-0.089,0.207-0.212,0.235C85.018,24.375,85.1,24.527,85.225,24.549z"/>
			<path fill="#F3FCFF" d="M84.354,8.367c-0.027,0-0.078-0.022-0.078-0.06c0-0.011,0.051-0.038,0.078-0.055
				C84.189,8.078,84,8.203,83.809,8.165C83.934,8.367,84.119,8.536,84.354,8.367z"/>
			<path fill="#F3FCFF" d="M95.332,16.349c0.173,0.164,0.555-0.033,0.741,0.164c0.185,0.212,0.327,0.556,0.647,0.556
				c0.201,0,0.354-0.109,0.383-0.289c0.053-0.535-0.158-1.15-0.679-1.385c-0.493-0.147-1.014-0.147-1.502-0.136
				c-0.321,0-0.321,0.371-0.187,0.518C94.896,15.962,95.107,16.147,95.332,16.349z"/>
			<path fill="#F3FCFF" d="M108.688,33.223c-0.355-0.436-0.383-0.916-0.612-1.269c-0.212-0.333-0.733-0.371-1.007-0.763
				c-0.137-0.191,0.113-0.518-0.094-0.671c-0.119-0.092-0.244-0.195-0.267-0.299c-0.169-0.457-0.381-0.757-0.8-0.97
				c0.131-0.533-0.355-0.795-0.857-0.937c-0.021-0.028,0.051-0.169,0.051-0.229c-0.021-0.208-0.278-0.267-0.451-0.327
				c-0.067-0.038-0.202,0-0.225-0.038c-0.256-0.338-0.611-0.6-0.73-0.889c-0.151-0.479-0.61-0.751-1.008-1.013
				c-0.146-0.076-0.272-0.485-0.35-0.485c-0.277,0-0.656,0.021-0.695-0.294c-0.05-0.594-0.529-0.959-0.971-1.318
				c-0.643-0.463-0.076-1.455-0.301-2.179c-0.059-0.305-0.387-0.305-0.674-0.305c-0.104,0-0.207-0.094-0.264-0.202
				c-0.25-0.446-0.056-0.949-0.349-1.362c-0.452-0.638-0.953-1.123-1.448-1.755c-0.283-0.316-0.691-0.266-1.048-0.299
				c-0.104-0.017-0.164-0.076-0.256-0.142c-0.131-0.082-0.168-0.24-0.244-0.366c-0.202-0.359-0.639-0.516-1.002-0.686
				c-0.678-0.278-1.401-0.136-2.114-0.234c-0.568-0.044-1.188,0.158-1.607,0.507c-0.496,0.371-1.074,0.566-1.705,0.681
				c-0.24,0.044,0.092,0.349,0,0.529c-0.141,0.239-0.484,0.496-0.344,0.724c0.07,0.054-0.125,0.017-0.062,0.098
				c0.138,0.137,0.378,0.032,0.568,0.032c0.223,0.034,0.303,0.273,0.43,0.382c0.276,0.289,0.595,0.567,0.757,0.921
				c0.064,0.136-0.191,0.392-0.064,0.523c0.348,0.359,0.281,0.681,0.281,1.116c0,0.18,0.379,0.011,0.467,0.071
				c0.513,0.267,0.609,0.92,0.467,1.438c-0.076,0.277-0.049,0.675,0.072,0.904c0.256,0.497,0.311,1.216,0.779,1.586
				c0.104-0.159,0.227-0.371,0.313-0.35c0.409,0.055,0.415-0.262,0.672-0.409c0.772-0.522,1.414,0.496,1.629,1.085
				c0.211,0.583,0,1.334,0.261,1.912c0.202,0.566,0.562,1.025,1.116,1.308c0.125,0.071,0.151,0.415,0.269,0.665
				c0.056,0.141,0.201,0.333,0.418,0.179c0.127-0.076,0.065-0.349,0.272-0.43c0.17-0.061,0.354,0.054,0.459,0.147
				c0.496,0.615,0.615,1.885,1.627,1.809c-0.021,0.152,0.089,0.267,0.19,0.305c0.207,0.065,0.355-0.229,0.503,0.038
				c0.159,0.229,0.239,0.524,0.458,0.637c0.347,0.108,0.726-0.021,1.072,0.066c0.223,0.065,0.414,0.333,0.574,0.555
				c0.096,0.152,0.217,0.328,0.357,0.475c0.682,0.665,0.941,1.667,1.766,2.174c0.249,0.169,0.49,0.491,0.855,0.392
				c0.107,0,0.031-0.164,0.146-0.186c0.336-0.037,0.534-0.321,0.676-0.528c0.25-0.333,0.627-0.644,1.066-0.845
				c0.008-0.021,0-0.147,0.008-0.164c0.299-0.245,0.68-0.31,0.965-0.577C108.938,33.779,108.801,33.348,108.688,33.223z"/>
			<path fill="#F3FCFF" d="M95.657,31.697c0.088,0.012,0.153,0.044,0.218,0.071c0.066,0.017,0.127,0.011,0.198,0.038L95.657,31.697z
				"/>
			<path fill="#F3FCFF" d="M95.055,33.512c0.129,0.223,0.424,0.267,0.639,0.408c0.24,0.202,0.354,0.497,0.564,0.621
				c0.426,0.24,0.262-0.478,0.463-0.718c0.076-0.044,0.301,0.038,0.354-0.044c0.252-0.349-0.054-0.893-0.366-1.231
				c-0.261-0.245-0.455-0.632-0.834-0.779c-0.193-0.044-0.379-0.033-0.493,0.186c-0.198,0.305,0.005,0.714-0.142,1.024
				C95.152,33.142,94.988,33.327,95.055,33.512z"/>
			<path fill="#F3FCFF" d="M97.525,35.032c-0.172,0.606-0.053,1.253-0.123,1.901c-0.049,0.322-0.541,0.256-0.74,0.535
				c-0.121,0.152-0.176,0.425-0.143,0.621c0.069,0.425,0.556,0.398,0.854,0.555c0.797,0.398,1.518,0.986,1.973,1.792
				c0.163,0.267,0.235,0.644,0.471,0.873c0.231,0.239,0.675,0.239,0.744,0.669c0.035,0.169,0.34,0.229,0.476,0.131
				c0.415-0.338,0.366-0.986,0.075-1.341c-0.191-0.186-0.369-0.436-0.369-0.643c-0.033-0.882-0.295-1.711-0.77-2.474
				c-0.3-0.419-0.812-0.643-1.121-1.029c-0.037-0.088-0.143-0.229-0.064-0.338c0.104-0.208,0.326-0.35,0.375-0.594
				c0.043-0.453-0.471-0.621-0.588-1.062c0-0.022-0.143,0-0.229,0l0.25,0.076C98.171,34.525,97.637,34.607,97.525,35.032z"/>
			<path fill="#F3FCFF" d="M102.186,39.402c-0.069-0.229,0-0.524-0.031-0.807c-0.038-0.485-0.562-0.562-0.965-0.562
				c-0.186,0-0.41-0.06-0.446,0.147c-0.033,0.186-0.033,0.386,0.112,0.621c0.754,0.861,0.691,2.093,1.021,3.095
				c0.108,0.408,0.813,0.082,0.935-0.349c0.067-0.224,0.08-0.468,0.037-0.681c-0.104-0.223-0.316-0.376-0.369-0.627
				C102.422,39.924,102.234,39.706,102.186,39.402z"/>
			<path fill="#F3FCFF" d="M101.004,36.624c-0.332,0.261,0.143,0.533,0.051,0.898c0.059,0,0.092,0,0.135,0
				c0.213,0.098,0.213-0.164,0.263-0.267c-0.397,0.022-0.333-0.404-0.306-0.631C101.111,36.624,101.055,36.59,101.004,36.624z"/>
			<path fill="#F3FCFF" d="M100.824,35.729c0.023-0.211-0.022-0.424-0.264-0.462c-0.041,0.332-0.369,0.25-0.551,0.424
				c-0.228,0.18,0.02,0.474,0.264,0.572c0.055,0,0.055,0.099,0.094,0.099c0.457,0.186,0.82-0.18,0.637-0.633
				C101.004,35.703,100.9,35.729,100.824,35.729z"/>
			<path fill="#F3FCFF" d="M99.234,34.176c0.406,0.24,0.009,0.676,0.324,0.807c0.225,0.152,0.682,0.234,0.895,0.028
				c0.168-0.126-0.006-0.432-0.344-0.453c-0.137-0.017-0.125-0.262-0.1-0.436c-0.085,0-0.156-0.059-0.193-0.097
				c-0.326-0.224,0.276-0.394,0.098-0.677c-0.061-0.06-0.021-0.196-0.098-0.207c-0.119-0.061-0.258,0.01-0.308,0.147
				c-0.103,0.125,0.084,0.289,0.013,0.442C99.434,33.92,99.063,34.063,99.234,34.176z"/>
			<path fill="#F3FCFF" d="M99.004,32.156c-0.189-0.082-0.49,0.103-0.645-0.229c-0.014-0.038-0.168-0.038-0.228,0
				c-0.049,0.027-0.049,0.086-0.082,0.114c-0.108,0.153-0.233,0.267-0.108,0.381c0.17,0.126,0.211,0.246,0.307,0.388
				c0.111,0.212,0.424,0,0.49,0.191c0.049,0.184,0.218,0.245,0.348,0.152c0.157-0.071,0.027-0.343,0.076-0.484
				c-0.1,0.065-0.049-0.179-0.125-0.066C99.086,32.444,99.186,32.221,99.004,32.156z"/>
			<path fill="#F3FCFF" d="M76.021,47.123c0.021,0,0.082,0,0.125,0c0.011-0.065,0-0.147,0.076-0.235
				c0.075-0.108-0.043-0.266-0.119-0.342c-0.11-0.126-0.336,0-0.264,0.234c0,0,0.063,0,0.114,0
				C75.93,46.888,75.93,46.997,76.021,47.123z"/>
			<path fill="#F3FCFF" d="M101.402,43.025c-0.398-0.159-0.842,0.048-1.211,0.277c-0.784,0.404-0.885,1.455-1.377,2.017
				c-0.34,0.381-0.73,0.572-1.201,0.545c-0.059,0-0.239-0.077-0.26-0.229c0-0.228-0.082-0.463,0.092-0.648
				c0.156-0.125,0.338-0.229,0.447-0.415c0.219-0.348,0.049-0.763-0.033-1.089c-0.191-0.713-0.938-1.133-1.617-1.019
				c-0.688,0.136-1.09,0.85-1.471,1.471c0,0-0.14,0.016-0.14,0c-0.26-0.321-0.604-0.491-0.782-0.829
				c-0.043-0.032-0.043-0.109,0-0.179c0.271,0.147,0.522,0.556,0.812,0.387c0.278-0.164,0.034-0.539-0.181-0.616
				c-0.238-0.082-0.467-0.322-0.773-0.289c-0.212,0.016-0.469-0.3-0.539-0.556c-0.086-0.381-0.119-0.882-0.451-0.986
				c-0.354-0.147-0.682-0.164-1.023-0.409c-0.159-0.082-0.354,0.065-0.508,0.054c0.107-0.108,0.017-0.365,0.07-0.365
				c0.426-0.038,0.95-0.038,0.693-0.518c-0.113-0.228-0.344-0.457-0.61-0.266c-0.083,0.038-0.239,0.038-0.272,0.152
				c-0.055,0.075-0.071,0.189-0.121,0.261c-0.075,0.181,0.131,0.518,0,0.627c-0.268,0.179-0.653,0.163-0.985,0.397
				c-0.038,0.017-0.164,0.017-0.219,0c-0.287-0.098-0.74-0.424-0.875-0.277c-0.203,0.245-0.251,0.556-0.492,0.68
				c-0.211,0.105-0.485,0.12-0.708,0.224c-0.387,0.153-0.164,0.649,0,1.008c0.082,0.125,0.027,0.333-0.109,0.43
				c-0.275,0.159-0.336-0.19-0.4-0.327c-0.115-0.35-0.219-0.741-0.219-1.112c-0.033-0.381,0.451-0.627,0.564-0.992
				c0.083-0.223,0.148-0.479-0.011-0.73c-0.173-0.266-0.451-0.397-0.712-0.315c-0.692,0.185-0.891,1.378-1.581,1.068
				c-0.354-0.136-0.666-0.501-1.048-0.682c-0.217-0.147-0.424-0.299-0.668-0.114c-0.486,0.365-1.078,0.577-1.592,0.828
				c-0.459,0.212-0.858,0.751-1.127,1.254c-0.291,0.631-1.445,0.986-1.828,0.234c-0.183-0.366-0.568-0.654-0.979-0.643
				c-0.377,0.06-0.508,0.551-0.921,0.643c-0.3,0.055-0.474-0.048-0.589-0.278c-0.018-0.06-0.018-0.168,0-0.191
				c0.563-0.463,1.14-0.807,1.836-1.074c0.34-0.114,0.382-0.479,0.256-0.807c-0.004-0.054-0.025-0.151-0.076-0.228
				c-0.031-0.175-0.059-0.442-0.119-0.442c-0.852,0.065-1.564,0.669-1.99,1.444c-0.055,0.108-0.104,0.267-0.172,0.267
				c-0.539-0.044-1.091,0.262-1.544-0.044c-0.097-0.06-0.227-0.681-0.295-0.616c-0.217,0.229-0.347,0.513-0.549,0.757
				c-0.055,0.126-0.201,0.185-0.283,0.311c-0.306,0.468,0.283,0.954,0.148,1.33c-0.092,0.19-0.589,0.19-0.91,0.267
				c-0.164,0.055-0.164,0.321-0.147,0.535c0.022,0.168,0.206,0.147,0.316,0.207c0.316,0.311,0.337,0.844,0.741,1.03
				c0.489,0.223,1.084,0.071,1.672,0.223c0.376,0.086,0.663,0.349,0.827,0.736c0.093,0.207,0.405,0.315,0.421,0.636
				c0.016,0.109,0.158,0.212,0.311,0.289c0.174,0.061,0.404-0.119,0.572-0.042c0.249,0.071,0.146,0.398,0.211,0.599
				c0.121,0.387-0.085,0.806,0.324,1.188c0.152,0.13-0.16,0.527-0.333,0.751c-0.076,0.076-0.328,0.076-0.354,0.196
				c-0.1,0.344-0.016,0.659,0.152,0.927c0.126,0.157,0.325,0,0.375,0.109c0.301,0.375,0.426,0.795,0.678,1.139
				c0.109,0.13,0.229,0.299,0.375,0.354c-0.182,0.038-0.234,0.262-0.182,0.342c0.109,0.147,0.359,0.241,0.492,0.104
				c0.207-0.137,0.43-0.185,0.632-0.371c0.118-0.131,0.321-0.082,0.446-0.208c0.141,0.132,0.262,0.426,0.164,0.551
				c-0.301,0.294-0.84,0.093-1.188,0.322c-0.239,0.109-0.476,0.048-0.601,0.239c-0.118,0.121,0,0.398,0.214,0.425
				c0.762,0.164,0.168,1.265-0.202,1.826c-0.088,0.119,0,0.327-0.042,0.561c-0.029,0.099-0.172,0.158-0.257,0.158
				c-0.732,0.065-1.479-0.191-2.145,0.049c-0.229,0.065-0.344,0.387-0.451,0.654c0.069,0,0.107,0,0.131,0
				c-0.195,0.021-0.195,0.233-0.239,0.343c-0.038,0.131-0.021,0.381-0.104,0.501c-0.644,0.708-0.733,1.607-0.85,2.43
				c-0.022,0.25,0.289,0.415,0.47,0.415c0.181,0,0.435-0.207,0.593-0.207c0.334,0.042,0.252,0.554,0.375,0.773
				c0.142,0.256,0.633,0.299,0.688-0.038c0.08-0.29,0.08-0.627,0.176-0.883c0.103-0.355-0.272-0.594-0.344-0.921
				c-0.088-0.311,0.069-0.583,0.248-0.79c0.122-0.12,0.317,0.028,0.396,0.207c0.067,0.186,0.067,0.431,0.141,0.643
				c0.043,0.224-0.114,0.491,0.012,0.647c0.126,0.153,0.202,0.361,0.146,0.546c-0.021,0.098-0.146,0.18-0.213,0.299
				c-0.086,0.251,0.065,0.588-0.142,0.681c-0.218,0.168-0.19,0.474-0.446,0.496c-0.584,0.038-1.291-0.272-1.102-0.926
				c-0.233-0.023-0.48-0.023-0.583,0.185c-0.125,0.261,0,0.676-0.154,0.888c-0.217,0.267-0.358,0.545-0.598,0.818
				c-0.082,0.06,0.116,0.104,0.039,0.191c-0.313,0.365-0.672,0.506-1.054,0.79c-0.021,0-0.038,0-0.038,0.07
				c-0.249,0.164-0.67-0.104-0.768,0.195c-0.143,0.312,0.313,0.524,0.459,0.84c0.086,0.213,0.033,0.463-0.262,0.501
				c-0.424,0.103-0.795,0.044-1.242-0.023c0,0.126-0.115,0.111-0.115,0.149c-0.076,0.375,0,0.68-0.289,1.013
				c-0.184,0.24,0.093,0.535,0.257,0.737c0.187,0.249,0.263,0.593,0.495,0.653c0.185,0.048,0.344,0.212,0.513,0.189
				c0.358-0.092,0.615-0.227,0.757-0.615c0.055-0.227,0.443,0.038,0.699-0.043c0.059-0.022,0.189-0.065,0.237-0.104
				c0.198-0.229-0.048-0.557,0.065-0.691c0.389-0.458,0.83-0.829,1.348-1.162c0.169-0.141,0.429-0.288,0.685-0.202
				c0.195,0.061,0.365,0.187,0.578,0.268c0.197,0.099,0.359,0.236,0.558,0.35c0.042,0.043,0.199,0.097,0.294,0.142
				c0.342,0.146,0.551,0.57,0.926,0.784c0.11,0.054,0.026-0.148,0.141-0.065c0.013-0.343-0.059-0.676-0.223-0.878
				c-0.224-0.333-0.595-0.501-0.844-0.769c-0.095-0.081-0.095-0.321,0.047-0.463c0.029-0.065,0.152-0.065,0.159,0
				c0.203,0.18,0.401,0.18,0.61,0.284c0.414,0.179,0.338,0.801,0.738,1.008c0.215,0.114,0.328,0.432,0.584,0.474
				c0.299,0.103,0.784,0,0.953-0.36c0.133-0.217-0.119-0.343-0.271-0.485c-0.3-0.229,0.151-0.333,0.301-0.513
				c0.261-0.316,0-0.588-0.028-0.894c-0.031-0.126,0.057-0.202,0.133-0.261c0,0,0.021-0.038,0.059-0.061
				c0.174-0.376,0.018-0.784,0.16-1.149c0.053-0.081,0.152-0.07,0.152-0.043c0.105,0.179,0.313,0.31,0.5,0.245
				c0.305-0.076,0.543-0.229,0.758-0.501c0.26-0.344,0.816-0.153,0.951,0.174c0.061,0.25-0.021,0.594-0.218,0.659
				c-0.657,0.097-1.188,0.343-1.678,0.676c-0.065,0.059-0.153,0.104-0.19,0.184c-0.263,0.191-0.363,0.382-0.224,0.791
				c0.026,0.153-0.175,0.316-0.321,0.463c0.25,0.083,0.25,0.393,0.479,0.442c0.414,0.097,0.795,0.114,1.088-0.171
				c0.073-0.107,0.153-0.333,0.11-0.521c0.268-0.034,0.447-0.289,0.734-0.35c0.576-0.092,0.909,0.539,0.758,1.042
				c-0.033,0.097-0.182,0.097-0.229,0.13c-0.301,0.474-0.529,0.937-0.997,1.139c-0.72,0.364-1.597,0.283-2.235,0.653
				c-0.244,0.164-0.32,0.593-0.684,0.697c-0.318,0.083-0.723,0.267-1.048,0c0,0.022,0,0.038,0,0.072c0,0.24-0.745,0.076-1.107-0.072
				c-0.118-0.042-0.047-0.398-0.198-0.533c-0.127-0.083-0.373,0.038-0.426-0.103c-0.076-0.076,0-0.263-0.096-0.285
				c-0.848-0.146-1.639,0.114-2.504,0.022c-0.229-0.022-0.209,0.284-0.398,0.425c-0.158,0.076-0.311,0.229-0.475,0.294
				c-0.342,0.175-0.713,0.42-1.129,0.268c-0.358,0.114-0.691,0.164-1.018,0.224c-0.539,0.103-0.844,0.555-1.286,0.86
				c-0.341,0.229-0.741,0.272-1.12,0.249c-0.111,0-0.051,0.18-0.15,0.18c-0.581,0.148-1.111,0.883-1.443,1.516
				c-0.098,0.168,0.029,0.413-0.076,0.562c-0.304,0.474-0.463,0.941-0.883,1.333c-0.043,0.043-0.043,0.168-0.027,0.246
				c0.471,0.642,1.023,1.074,1.498,1.731c0.115,0.18,0.351,0.18,0.421,0.351c0.187,0.413,0.442,0.784,0.661,1.17
				c0.303,0.55,1.1,0.769,1.785,0.55c0.25-0.07,0.545,0.168,0.775,0.218c0.779,0.072,1.605,0.255,2.336-0.138
				c1.088,0.34,2.225-0.135,3.215,0.34c0.197,0.053,0.197,0.413,0.34,0.653c0.229,0.431,0.492,0.867,0.908,1.177
				c0.348,0.245,0.844,0.409,1.329,0.452c0.136,0,0.158,0.343,0.276,0.485c0.143,0.186,0.076,0.474,0.252,0.615
				c0.24,0.229,0.447,0.393,0.432,0.726c0,0.391-0.48,0.735-0.191,1.253c0.069,0.162-0.032,0.429,0.052,0.532
				c0.618,0.615,1.202,1.195,1.952,1.75c0.072,0.065,0.207,0.157,0.148,0.311c0.287,0.083,0.325,0.371,0.518,0.527
				c0.147,0.187,0.064,0.476,0.213,0.661c0.257,0.305,0.533,0.6,0.826,0.867c0.382,0.348,0.912,0.267,1.367,0.364
				c0.104,0.072,0.23,0.152,0.36,0.19c0.431,0.137,0.901,0.18,1.276-0.107c0.212-0.18,0.4-0.512,0.609-0.638
				c0.325-0.267,0.826-0.245,1.272-0.328c0.088-0.015,0.219-0.065,0.28-0.179c0.053-0.256,0.287-0.391,0.271-0.643
				c0.333-0.016,0.59-0.187,0.86-0.328c0.546-0.283,0.96-0.833,1.472-1.273c0.513-0.48,1.375-0.268,1.651-0.807
				c0.277-0.528-0.108-1.253,0.136-1.869c0.144-0.283,0.321-0.626,0.351-0.943c0.045-0.532,0.064-1.083,0.026-1.617
				c-0.026-0.31-0.349-0.627-0.312-0.932c0.021-0.222,0.408-0.222,0.49-0.409c0.191-0.436,0.369-0.887,0.596-1.296
				c0.037-0.083,0.194-0.121,0.324-0.207c0.198-0.142,0.027-0.366,0.064-0.573c-0.16-0.049-0.236-0.229-0.309-0.333
				c-0.459-0.649-0.883-1.276-1.642-1.586c-0.185-0.053-0.202-0.256-0.287-0.409c-0.071-0.059,0.026-0.261-0.045-0.333
				c-0.202-0.114-0.125-0.305-0.175-0.447h0.182c-0.007-0.004,0-0.016,0-0.016c-0.076,0-0.104-0.065-0.104-0.087
				c0.17-0.452,0.427-0.861,0.768-1.155c0.101-0.099,0.362-0.099,0.394-0.217c0.094-0.387,0.072-0.785-0.112-1.112
				c-0.28-0.475-0.033-0.949-0.108-1.396c-0.072-0.892-0.072-1.705-0.48-2.511c-0.088-0.249-0.314-0.436-0.631-0.348
				c-0.152,0.023-0.139,0.222-0.225,0.348c-0.107,0.126-0.131,0.29-0.185,0.512c-0.127,0.294-0.525,0.387-0.627,0.699
				c-0.056,0.189-0.104,0.371-0.187,0.495c-0.143,0.148-0.272,0.35-0.464,0.389c-0.321,0.108-0.627,0.184-0.931,0.245
				c-0.328,0.07-0.688,0.07-1.043-0.034c-1.857-0.516-3.446-1.235-5.311-1.748c-0.021,0-0.021-0.126,0-0.148
				c0.289-0.146,0.599,0.065,0.903-0.016c0.213-0.038-0.042-0.333,0.063-0.333c0.388,0.092,0.703,0.348,1.086,0.497
				c0.771,0.265,1.537,0.341,2.359,0.512c0.639,0.141,1.077,0.593,1.684,0.746c0.519,0.157,0.854-0.234,1.252-0.393
				c0.023,0-0.01-0.164,0.023-0.212c0.178-0.333,0.506-0.507,0.641-0.817c0.097-0.225-0.047-0.573,0.097-0.829
				c0.067-0.119,0.274-0.24,0.324-0.381c0.104-0.398,0.046-0.807,0.046-1.198c0.227,0.021,0.4-0.229,0.337-0.333
				c-0.056-0.061-0.072-0.159-0.11-0.217c0-0.229,0.038-0.476,0.088-0.72c0.121-0.583-0.05-1.156-0.287-1.651
				c-0.121-0.262-0.472-0.333-0.748-0.262c-0.086,0.055-0.119,0.208-0.207,0.262c-0.283,0.021-0.523,0.147-0.695,0.289
				c-0.24,0.19-0.23,0.6-0.434,0.769c-0.354,0.293-0.695,0.605-1.16,0.779c-0.293,0.141-0.723-0.027-0.784-0.273
				c-0.282-0.756,0.747-0.621,1.266-0.756c0.069-0.05,0.19-0.174,0.249-0.273c0.145-0.266,0.202-0.653,0.492-0.795
				c0.189-0.07,0.408-0.07,0.6-0.043c0.185,0.043,0.326-0.218,0.521-0.328c0.152-0.07,0.143-0.371,0.201-0.533
				c0.093-0.311,0.438-0.474,0.578-0.741c0.32-0.577,0.32-1.443,0.785-1.896c0.315-0.245,0.151,0.415,0.271,0.556
				c0.197,0.272,0.748,0.246,0.934,0.044c0.161-0.164-0.018-0.578,0.275-0.741c0.133-0.027,0.284-0.027,0.395,0
				c0.219,0.142,0.478,0.387,0.707,0.25c0.16-0.109,0.328-0.337,0.496-0.392c0.269-0.088,0.573,0,0.844-0.12
				c0.67-0.312,2.072,0.12,1.996-0.529c-0.121-1.046-0.971-1.874-1.892-2.359c-0.735-0.349-0.458-1.379-1.116-1.956
				c-0.168-0.12-0.084-0.387-0.226-0.55c-0.047-0.054-0.142-0.136-0.245-0.185c-0.096-0.077-0.206-0.168-0.206-0.202
				c0.11-0.545-0.151-1.057,0.138-1.509c0.146-0.218,0.473-0.327,0.666-0.485c0.232-0.19,0.656-0.337,0.656-0.648
				c0-0.425-0.042-0.888,0.034-1.33c0.038-0.147,0.299-0.266,0.45-0.266c0.77-0.017,1.598,0.189,2.305-0.278
				c0.182-0.158,0.203-0.387,0.318-0.528c0.549-0.806,1.387-1.433,1.355-2.48c-0.018-0.185,0.275-0.233,0.35-0.457
				C101.451,43.211,101.451,43.025,101.402,43.025z M86.587,60.607c0,0.06,0.032,0.158-0.034,0.18
				c-0.13,0.151-0.4,0.065-0.467-0.137c-0.098-0.207-0.197-0.436-0.396-0.518c-0.197-0.038-0.371-0.016-0.471,0.185
				c-0.201-0.146-0.404-0.038-0.588-0.076c0.064-0.315-0.252-0.294-0.42-0.501c-0.195-0.185-0.126-0.556,0.168-0.653
				c0.225-0.103,0.416,0.082,0.465,0.333c-0.029-0.044-0.049-0.044-0.061-0.094c0,0.094-0.045,0.153,0,0.214
				c0.203,0.19,0.436-0.061,0.658,0.104c0.256,0.152,0.605-0.088,0.899,0.086c0.017,0-0.032,0.143,0.07,0.143
				c0.327,0.054,0.442,0.342,0.366,0.588C86.756,60.52,86.703,60.635,86.587,60.607z"/>
			<g>
				<path fill="#F3FCFF" d="M56.49,117.219c4.184-6.195,16.846-12.838,29.258-12.838c12.477,0,25.958,7.208,31.29,3.394
					c0,0-5.448,4.708-16.442,4.708c-11.008,0-15.197-5.545-22.836-5.545c-7.644,0-15.735,6.189-19.104,11.387L56.49,117.219z"/>
				<path fill="#F3FCFF" d="M95.77,103.483c0,0,3.639-2.175,5.529-6.172c1.934-4.023,6.926-10.381,11.954-14.293
					c0,0-5.655,17.844-11.476,18.64c0,0-0.922,0.557,0.718,0.283c1.651-0.283,9.095-3.016,11.748-3.475
					c2.622-0.447,9.085-1.907,10.815-3.634c1.465-1.456,2.45-1.254,2.45-1.254s-7.18,11.986-20.099,11.986
					C107.411,105.563,101.055,105.024,95.77,103.483z"/>
				<path fill="#F3FCFF" d="M111.045,97.311c0,0,1.357-2.083,1.635-5.663c0.283-3.541,2.463-11.714,8.666-20.639
					c0,0,0.901,14.106-6.127,22.753c0,0-0.425,1.26,0.48,0.339c0.914-0.91,5.34-6.249,14.922-12.734c0,0,4.975-4.09,5.26-5.443
					C135.881,75.923,131.979,95.942,111.045,97.311z"/>
				<path fill="#F3FCFF" d="M123.174,83.915c0,0,0.533-2.259,0.533-4.173c0-1.922-0.82-8.466-0.82-11.386s0.287-8.358,2.536-12.047
					c0,0,0,3.247,0.728,4.712c0.732,1.434,1.552,7.253,1.552,7.973c0,0.723-0.19,5.649-1.459,8.282c0,0,0.92-0.535,1.922-2.438
					c0.997-1.939,3.442-5.47,7.19-9.196c3.724-3.727,4.535-7.176,4.535-7.176s0.916,6.538-3.908,13.42
					c-4.825,6.957-6.82,5.741-9.457,8.577C126.523,80.463,123.512,84.117,123.174,83.915z"/>
				<path fill="#F3FCFF" d="M130.686,68.191c0,0-0.156-4.009-0.879-5.278c-0.764-1.303-5.092-9.177-4.19-19.272
					c0,0,0.717-0.644,2.086,3.274c1.342,3.918,3.286,5.084,3.905,9.007c0.66,3.885,0.66,5.53,0.66,5.53s0.437,0.546,0.437,0.099
					c0-0.475,0.463-5.728,2.651-10.538c2.172-4.817,5.074-9.372,4.813-12.57c0,0,1.274,0.103,1.074,5.286
					C141.078,48.927,139.705,57.933,130.686,68.191z"/>
				<path fill="#F3FCFF" d="M133.086,52.265c0,0-1.57-3.612-2.66-4.822c-1.089-1.154-8.652-12.176-9.269-17.189
					c0,0,0.616-0.338,1.354,0.915c0.732,1.296,4.371,4.909,4.998,5.465c0.654,0.556,4.469,4.647,4.827,9
					c0,0,0.366,0.464-0.358-6.821c-0.72-7.269,2.375-11.982-0.174-17.098c0,0,3.551,0.551,5.443,15.474
					c0,0-0.082,5.274-2.813,11.737C134.436,48.927,133.521,52.265,133.086,52.265z"/>
				<path fill="#F3FCFF" d="M130.339,35.915c0,0-2.829-2.915-5.106-4.277c-2.256-1.383-9.349-8.375-10.623-13.839
					c0,0,0.457-0.606,2.724,2.369c1.733,2.289,3.53,1.172,8.735,7.737c0,0,0.73,1.466,1.095,1.346c0.349-0.06-0.19-1.525-0.19-1.525
					s-1.015-4.082-1.101-5.563c-0.078-1.461-2.164-9.17-2.896-10.178c0,0,6.992,3.993,8.012,15.271
					C130.988,27.256,130.686,35.446,130.339,35.915z"/>
				<path fill="#F3FCFF" d="M124.33,23.89c0,0,0.473-9.834-12.489-14.832c0,0,4.489,9.203,7.857,11.383
					C123.061,22.637,124.33,23.89,124.33,23.89z"/>
			</g>
		</g>
		<g>
			<path fill="#F3FCFF" d="M91.229,117.219c-4.188-6.195-16.853-12.838-29.285-12.838c-12.444,0-25.936,7.208-31.293,3.394
				c0,0,5.457,4.708,16.479,4.708c10.988,0,15.201-5.545,22.834-5.545c7.617,0,15.697,6.189,19.074,11.387L91.229,117.219z"/>
			<path fill="#F3FCFF" d="M51.957,103.483c0,0-3.646-2.175-5.58-6.172c-1.896-4.023-6.903-10.381-11.91-14.293
				c0,0,5.634,17.844,11.479,18.64c0,0,0.905,0.557-0.73,0.283c-1.644-0.283-9.107-3.016-11.745-3.475
				c-2.639-0.447-9.096-1.907-10.834-3.634c-1.449-1.456-2.458-1.254-2.458-1.254s7.188,11.986,20.123,11.986
				C40.301,105.563,46.655,105.024,51.957,103.483z"/>
			<path fill="#F3FCFF" d="M36.65,97.311c0,0-1.35-2.083-1.633-5.663c-0.268-3.541-2.46-11.714-8.637-20.639
				c0,0-0.917,14.106,6.074,22.753c0,0,0.48,1.26-0.436,0.339c-0.903-0.91-5.362-6.249-14.94-12.734c0,0-4.992-4.09-5.252-5.443
				C11.826,75.923,15.74,95.942,36.65,97.311z"/>
			<path fill="#F3FCFF" d="M24.555,83.915c0,0-0.544-2.259-0.544-4.173c0-1.922,0.816-8.466,0.816-11.386s-0.271-8.358-2.543-12.047
				c0,0,0,3.247-0.726,4.712c-0.735,1.434-1.552,7.253-1.552,7.973c0,0.723,0.173,5.649,1.46,8.282c0,0-0.905-0.535-1.935-2.438
				c-0.997-1.939-3.45-5.47-7.166-9.196c-3.71-3.727-4.548-7.176-4.548-7.176s-0.901,6.538,3.917,13.42
				c4.816,6.957,6.799,5.741,9.452,8.577C21.187,80.463,24.195,84.117,24.555,83.915z"/>
			<path fill="#F3FCFF" d="M17.002,68.191c0,0,0.186-4.009,0.905-5.278c0.725-1.303,5.098-9.177,4.184-19.272
				c0,0-0.725-0.644-2.086,3.274c-1.373,3.918-3.259,5.084-3.924,9.007c-0.636,3.885-0.636,5.53-0.636,5.53
				s-0.438,0.546-0.438,0.099c0-0.475-0.478-5.728-2.642-10.538c-2.174-4.817-5.105-9.372-4.832-12.57c0,0-1.28,0.103-1.096,5.286
				C6.624,48.927,7.99,57.933,17.002,68.191z"/>
			<path fill="#F3FCFF" d="M14.628,52.265c0,0,1.552-3.612,2.653-4.822c1.101-1.154,8.619-12.176,9.279-17.189
				c0,0-0.66-0.338-1.379,0.915c-0.725,1.296-4.358,4.909-5.002,5.465c-0.647,0.556-4.438,4.647-4.838,9c0,0-0.333,0.464,0.4-6.821
				c0.701-7.269-2.366-11.982,0.184-17.098c0,0-3.559,0.551-5.481,15.474c0,0,0.092,5.274,2.821,11.737
				C13.264,48.927,14.186,52.265,14.628,52.265z"/>
			<path fill="#F3FCFF" d="M17.368,35.915c0,0,2.81-2.915,5.095-4.277c2.277-1.383,9.354-8.375,10.652-13.839
				c0,0-0.47-0.606-2.741,2.369c-1.728,2.289-3.558,1.172-8.718,7.737c0,0-0.73,1.466-1.096,1.346
				c-0.382-0.06,0.175-1.525,0.175-1.525s1.013-4.082,1.083-5.563c0.088-1.461,2.192-9.17,2.922-10.178
				c0,0-7.023,3.993-7.994,15.271C16.746,27.256,17.002,35.446,17.368,35.915z"/>
			<path fill="#F3FCFF" d="M23.384,23.89c0,0-0.474-9.834,12.444-14.832c0,0-4.452,9.203-7.814,11.383
				C24.653,22.637,23.384,23.89,23.384,23.89z"/>
		</g>
	</g>
</g>
</svg>
